<?xml version="1.0" standalone="no"?>
<!DOCTYPE svg PUBLIC "-//W3C//DTD SVG 20010904//EN"
 "http://www.w3.org/TR/2001/REC-SVG-20010904/DTD/svg10.dtd">
<svg version="1.0" xmlns="http://www.w3.org/2000/svg"
   viewBox="0 0 4340.000000 921.000000"
 preserveAspectRatio="xMidYMid meet">
<metadata>
Created by potrace 1.16, written by Peter Selinger 2001-2019
</metadata>
<g transform="translate(0.000000,921.000000) scale(0.100000,-0.100000)"
fill="#000000" stroke="none">
<path d="M32966 9198 c-1527 -7 -1641 -9 -1665 -25 -16 -11 -55 -20 -104 -23
-70 -6 -81 -10 -110 -38 -33 -32 -34 -32 -132 -32 -98 0 -99 0 -132 32 -29 28
-40 32 -110 37 -50 4 -87 12 -103 24 -23 16 -69 17 -610 17 -565 0 -586 -1
-610 -20 -19 -15 -41 -20 -92 -20 -63 0 -71 -2 -107 -35 -38 -35 -38 -35 -137
-35 -97 0 -98 0 -131 32 -31 30 -40 33 -111 37 -56 2 -84 9 -101 22 -23 18
-51 19 -606 19 -555 0 -583 -1 -606 -19 -17 -13 -45 -20 -101 -22 -71 -4 -80
-7 -111 -37 -33 -32 -34 -32 -131 -32 -99 0 -99 0 -137 35 -36 33 -44 35 -107
35 -51 0 -73 5 -92 20 -24 19 -45 20 -605 20 -560 0 -581 -1 -605 -20 -19 -15
-41 -20 -92 -20 -63 0 -71 -2 -107 -35 -38 -35 -38 -35 -137 -35 -97 0 -99 0
-131 32 -29 28 -40 32 -112 37 -55 4 -85 12 -98 24 -18 16 -62 17 -604 17
-564 0 -585 -1 -609 -20 -19 -15 -41 -20 -92 -20 -63 0 -71 -2 -107 -35 -38
-35 -38 -35 -137 -35 -97 0 -99 0 -131 32 -29 28 -40 32 -110 37 -50 4 -87 12
-103 24 -23 16 -69 17 -614 17 -546 0 -591 -1 -609 -17 -13 -12 -43 -20 -98
-24 -72 -5 -83 -9 -112 -37 -33 -32 -34 -32 -136 -32 l-104 0 -38 35 c-36 33
-44 35 -107 35 -51 0 -73 5 -92 20 -24 19 -45 20 -620 20 -577 0 -596 -1 -625
-20 -22 -15 -47 -20 -97 -20 -61 0 -71 -3 -112 -35 -45 -34 -48 -35 -141 -35
-93 0 -96 1 -141 35 -41 32 -51 35 -112 35 -50 0 -75 5 -97 20 -29 19 -48 20
-640 20 -565 0 -612 -1 -635 -17 -17 -12 -52 -20 -108 -24 -75 -5 -85 -8 -115
-37 -33 -32 -34 -32 -135 -32 -101 0 -102 0 -148 35 -42 32 -51 35 -116 35
-53 0 -76 5 -96 19 -26 18 -72 19 -1247 25 l-1220 6 -505 -27 -505 -28 -3
-194 -2 -194 -519 6 -519 7 -70 -75 -70 -75 -1229 0 c-825 0 -1232 -3 -1239
-10 -7 -7 -142 -9 -400 -6 -1411 17 -3351 26 -3366 17 -12 -7 -126 -11 -328
-11 l-310 0 -142 57 -143 56 -472 22 -472 22 -55 49 -55 49 0 64 -1 64 -242
-7 c-134 -3 -903 -9 -1711 -12 l-1467 -7 0 -234 0 -233 46 -33 46 -32 -279 -3
-280 -2 -47 -120 -48 -120 -169 0 -169 0 0 -1005 0 -1005 70 0 70 0 0 -230 0
-230 -70 0 -70 0 0 -1120 0 -1120 70 0 70 0 0 -225 0 -225 -70 0 -70 0 0
-1005 0 -1005 168 0 168 0 49 -120 48 -120 281 0 281 0 -47 -33 -47 -32 -1
-241 0 -241 1663 -7 c914 -4 1683 -9 1709 -12 l48 -6 0 64 0 64 55 54 55 55
468 17 469 18 143 60 143 60 318 0 c201 0 320 -4 324 -10 4 -7 508 -10 1479
-10 1279 0 1475 2 1492 15 29 22 771 22 800 0 16 -12 183 -14 1246 -15 l1226
0 64 -71 63 -72 523 8 522 7 0 -196 c0 -108 3 -196 8 -196 4 0 259 -14 567
-30 477 -26 634 -30 1065 -30 340 0 574 5 715 15 136 9 370 15 661 15 380 0
453 2 470 15 13 10 44 14 95 15 70 0 77 2 104 30 l29 30 119 0 c118 0 120 0
154 -30 31 -27 40 -30 106 -30 43 -1 82 -6 97 -15 38 -22 1266 -21 1294 0 13
10 44 15 91 15 66 0 73 2 100 30 l29 30 118 0 c116 0 118 0 151 -30 31 -27 41
-30 104 -30 49 0 75 -5 93 -18 23 -16 73 -17 628 -20 596 -3 603 -3 628 17 21
17 41 21 93 21 62 0 70 3 96 30 29 30 29 30 143 30 113 0 115 0 149 -30 30
-27 41 -30 99 -30 51 0 72 -5 91 -20 25 -19 41 -20 622 -20 578 0 597 1 626
20 22 14 47 20 92 20 55 0 66 4 96 30 34 29 37 30 142 30 105 0 108 -1 142
-30 30 -26 41 -30 96 -30 46 0 68 -5 87 -20 24 -19 45 -20 615 -20 572 0 591
1 620 20 22 14 47 20 92 20 55 0 66 4 96 30 34 29 37 30 142 30 105 0 108 -1
142 -30 30 -27 41 -30 97 -30 48 0 69 -5 89 -20 25 -19 40 -20 614 -20 568 0
589 1 613 20 19 15 41 20 91 20 59 0 68 3 94 30 29 30 29 30 145 30 116 0 116
0 145 -30 26 -27 34 -30 96 -30 51 0 72 -5 92 -20 25 -19 40 -20 614 -20 568
0 589 1 613 20 19 15 41 20 92 20 60 0 71 3 101 30 34 29 37 30 144 30 108 0
109 0 138 -30 27 -28 34 -30 100 -30 59 0 75 -4 90 -20 18 -20 31 -20 614 -20
578 0 597 1 626 20 22 14 47 20 91 20 54 0 63 3 89 30 29 30 29 30 143 30 113
0 115 0 149 -30 30 -26 41 -30 96 -30 43 0 70 -5 87 -17 23 -16 73 -19 540
-25 283 -4 1135 -10 1893 -13 l1377 -6 0 31 c0 31 3 33 190 123 l190 91 0 363
0 363 -305 0 -305 0 0 55 0 55 225 0 225 0 0 53 0 53 813 33 c446 19 814 35
815 37 2 1 1 16 -3 33 l-7 31 -813 0 c-898 0 -825 -6 -825 63 0 22 -48 119
-162 324 l-163 293 -52 0 -53 0 0 175 0 175 129 0 129 0 6 28 c3 15 8 88 11
162 4 74 9 142 11 151 4 13 36 18 203 29 l199 13 7 33 c3 19 8 34 10 34 6 0
349 49 382 55 29 5 32 3 38 -26 l7 -32 87 7 c47 4 156 20 241 36 85 17 310 48
500 70 190 22 397 51 460 65 157 33 550 85 641 85 97 0 490 60 693 105 87 20
287 58 445 85 461 81 884 184 1671 409 709 203 1396 420 2095 663 l350 121
113 79 c61 44 112 81 112 83 0 2 -49 38 -109 79 -109 75 -113 77 -458 200
-859 306 -2510 797 -3203 954 -195 45 -456 99 -580 122 -124 22 -315 59 -425
80 -251 50 -564 98 -717 110 -145 12 -468 54 -608 81 -58 10 -260 37 -450 60
-190 22 -430 55 -535 74 -239 42 -325 49 -325 26 -1 -45 -7 -46 -224 -16
l-206 29 -6 32 c-7 37 6 34 -259 55 -77 6 -143 15 -146 21 -4 6 -10 74 -14
152 -10 206 6 186 -146 186 l-129 0 0 174 0 175 51 3 52 3 163 290 c113 201
163 300 164 322 0 67 -24 63 369 63 196 0 562 3 813 7 l457 6 6 25 c3 13 4 26
2 28 -3 3 -1565 74 -1627 74 -3 0 -3 25 -2 55 l4 55 -226 0 -226 0 0 55 0 55
305 0 305 0 0 364 0 363 -190 88 -190 88 0 34 0 33 -242 -2 c-134 -1 -981 -5
-1882 -10z"/>
</g>
</svg>
