<?xml version="1.0" standalone="no"?>
<!DOCTYPE svg PUBLIC "-//W3C//DTD SVG 20010904//EN"
 "http://www.w3.org/TR/2001/REC-SVG-20010904/DTD/svg10.dtd">
<svg version="1.0" xmlns="http://www.w3.org/2000/svg"
   viewBox="0 0 4561.000000 2496.000000"
 preserveAspectRatio="xMidYMid meet">
<metadata>
Created by potrace 1.16, written by Peter Selinger 2001-2019
</metadata>
<g transform="translate(0.000000,2496.000000) scale(0.100000,-0.100000)"
fill="#000000" stroke="none">
<path d="M20542 24843 l-214 -117 -194 -219 -194 -220 0 -346 0 -346 411 -325
c226 -178 413 -328 415 -332 3 -5 -101 -136 -230 -291 l-236 -284 -53 4 c-28
1 -376 15 -772 29 l-720 26 -207 -100 -208 -101 0 -904 0 -904 210 -101 209
-102 136 0 135 0 0 -1630 0 -1630 -1612 1 -1613 0 -225 184 -225 184 -430 176
-430 175 -1885 0 -1885 -1 -132 -237 -133 -237 -2562 -187 -2563 -187 -325
-130 -325 -131 -70 -70 -70 -70 -137 86 -137 86 -1738 -103 -1738 -102 -87
-81 -87 -81 0 -1305 -1 -1305 88 -87 87 -86 235 -12 c395 -20 391 -14 60 -94
l-285 -69 -380 -235 c-209 -129 -385 -241 -391 -248 -5 -7 -16 -78 -23 -158
-9 -116 -9 -176 0 -292 7 -80 18 -151 23 -158 6 -7 182 -119 392 -248 l381
-236 288 -69 288 -70 -64 -6 c-35 -3 -167 -12 -294 -18 l-230 -13 -87 -85 -88
-85 1 -1305 0 -1306 87 -81 87 -81 1738 -102 1738 -103 137 86 136 86 71 -70
70 -70 325 -131 325 -130 2525 -184 c1389 -102 2541 -185 2561 -185 l36 0 134
-240 134 -240 1885 0 1885 0 430 175 430 176 225 184 225 184 1613 1 1612 0 0
-1630 0 -1630 -136 0 -136 0 -209 -102 -209 -101 0 -904 0 -904 208 -101 207
-100 715 26 c393 14 741 28 772 30 l57 4 235 -283 c130 -156 236 -285 236
-288 0 -3 -187 -153 -415 -334 l-415 -327 0 -346 0 -346 194 -220 194 -220
214 -117 215 -117 2469 0 2469 1 618 63 618 63 64 63 63 63 -4 106 -5 106 130
135 130 135 -1 285 0 285 -131 132 -130 131 7 151 6 151 -65 89 -66 90 -57 -5
c-31 -3 -78 -6 -104 -9 l-48 -4 -1 62 c-1 34 -4 123 -8 197 l-8 135 309 1035
c171 569 433 1449 584 1955 l275 919 526 1371 c289 753 529 1373 532 1376 3 4
577 9 1275 11 l1269 5 -7 -641 c-7 -672 -19 -1119 -31 -1149 -7 -16 65 -17
1434 -17 l1441 0 0 584 0 584 1498 4 c823 2 1498 3 1499 2 2 0 12 -185 23
-410 11 -225 21 -422 23 -438 2 -27 8 -30 172 -87 115 -40 185 -59 217 -59 48
0 48 0 48 -34 l0 -34 -108 -36 c-107 -36 -108 -36 -285 -36 l-177 0 0 -308 0
-308 90 -209 90 -209 0 -183 0 -183 1703 0 1702 1 115 67 114 67 88 120 c81
112 88 126 110 215 l24 95 642 3 642 2 0 50 0 50 -629 0 -628 0 15 65 16 65
546 0 546 0 50 60 49 60 523 0 522 0 0 105 0 105 -519 0 -520 0 -53 60 -52 60
-548 0 -548 0 0 73 0 73 -110 69 -110 69 0 76 0 76 133 72 132 71 166 179 165
178 266 520 267 520 478 758 478 758 168 87 167 88 178 169 c102 98 218 199
274 237 83 58 113 73 215 104 174 53 698 316 939 471 l180 117 102 150 c55 83
127 203 159 268 l58 117 -64 128 c-35 70 -106 190 -159 266 l-95 139 -173 113
c-234 153 -773 425 -946 477 -101 30 -130 44 -215 103 -56 39 -173 141 -275
238 l-177 169 -169 88 -168 88 -481 763 -480 763 -264 514 -263 515 -165 178
-166 179 -132 71 -133 72 0 76 1 75 109 70 110 70 0 72 0 73 549 0 548 0 49
59 49 60 523 0 522 1 0 105 0 105 -522 0 -523 0 -49 60 -50 60 -546 0 -546 0
-16 65 -15 65 628 0 629 0 0 50 0 50 -642 2 -642 3 -23 94 c-22 86 -31 103
-111 215 l-87 122 -117 67 -118 67 -1700 0 -1700 0 0 -185 0 -185 -90 -207
-90 -208 0 -302 0 -303 161 0 161 0 124 -42 124 -43 0 -32 c0 -33 0 -33 -48
-33 -34 0 -102 -18 -218 -59 -163 -57 -169 -60 -171 -87 -2 -16 -12 -213 -23
-438 -11 -225 -21 -410 -23 -411 -1 0 -676 1 -1499 3 l-1498 4 0 584 0 584
-1441 0 c-1369 0 -1441 -1 -1434 -17 12 -30 24 -477 31 -1148 l7 -640 -1269 3
c-698 2 -1272 7 -1275 10 -3 4 -243 624 -532 1377 l-526 1370 -261 875 c-144
481 -406 1361 -584 1955 l-323 1080 7 135 c5 74 8 163 9 197 l1 62 58 -5 c31
-3 78 -6 104 -9 l47 -4 66 89 65 90 -6 151 -7 151 131 131 130 132 1 284 0
284 -131 139 -131 138 6 104 6 103 -64 63 -64 63 -618 63 -618 63 -2470 1
-2470 0 -213 -117z"/>
</g>
</svg>
