<?xml version="1.0" standalone="no"?>
<!DOCTYPE svg PUBLIC "-//W3C//DTD SVG 20010904//EN"
 "http://www.w3.org/TR/2001/REC-SVG-20010904/DTD/svg10.dtd">
<svg version="1.0" xmlns="http://www.w3.org/2000/svg"
   viewBox="0 0 4465.000000 939.000000"
 preserveAspectRatio="xMidYMid meet">
<metadata>
Created by potrace 1.16, written by Peter Selinger 2001-2019
</metadata>
<g transform="translate(0.000000,939.000000) scale(0.100000,-0.100000)"
fill="#000000" stroke="none">
<path d="M7884 9320 l-18 -70 -385 -2 -385 -3 -41 -150 -42 -150 -649 -3 -649
-2 -44 -95 -44 -95 -1460 2 -1460 3 -37 100 -37 100 -413 3 -413 2 -139 -102
-139 -103 -84 -167 -85 -168 -35 0 c-28 0 -35 -4 -35 -20 0 -19 -7 -20 -220
-20 -176 0 -220 -3 -220 -13 0 -9 -57 -25 -182 -51 -220 -45 -218 -44 -218
-61 0 -8 -30 -20 -78 -32 -59 -14 -79 -24 -87 -41 -10 -23 -31 -29 -37 -11 -5
16 -230 -33 -236 -50 -4 -11 15 -12 94 -7 55 4 116 9 137 12 l37 6 0 -96 c0
-57 -4 -96 -10 -96 -5 0 -10 11 -10 25 0 42 -29 48 -125 24 -72 -18 -88 -26
-96 -46 -14 -37 -11 -206 4 -225 6 -9 51 -27 99 -39 72 -19 89 -20 102 -10 9
8 16 22 16 32 0 11 5 19 10 19 6 0 10 -37 10 -91 l0 -91 -87 6 c-49 4 -113 9
-143 12 -46 5 -52 4 -42 -8 17 -21 234 -66 240 -50 5 16 32 15 32 0 0 -27 19
-38 90 -53 41 -9 77 -20 81 -26 4 -6 71 -24 150 -40 79 -16 168 -34 197 -40
33 -7 52 -15 52 -25 0 -11 18 -14 85 -14 l85 0 0 -55 0 -55 415 0 415 0 0
-110 0 -110 -159 0 -160 0 -3 -37 -3 -38 -215 -18 c-187 -15 -243 -24 -430
-68 -118 -29 -223 -55 -232 -60 -9 -5 -22 -25 -29 -44 -14 -38 -23 -43 -37
-19 -7 13 -22 12 -126 -15 -109 -27 -147 -43 -135 -56 3 -2 52 0 110 5 57 5
121 9 142 10 l37 0 -2 -207 c-1 -115 -3 -191 -5 -171 -7 60 -19 63 -129 31
-129 -37 -134 -45 -134 -204 0 -146 6 -154 134 -189 98 -26 117 -22 127 26 4
16 7 -54 8 -155 l1 -184 -67 7 c-203 18 -223 19 -223 7 0 -16 28 -26 149 -56
99 -25 104 -25 116 -8 15 20 15 21 37 -27 l16 -36 223 -53 c190 -46 254 -56
429 -72 113 -10 213 -18 222 -19 16 0 18 -24 20 -327 l3 -327 383 -185 382
-185 0 -73 c0 -71 -1 -73 -28 -79 -40 -9 -301 -73 -343 -84 -36 -10 -59 -41
-59 -80 0 -11 -4 -20 -10 -20 -5 0 -10 7 -10 15 0 19 5 20 -124 -13 -147 -37
-155 -57 -20 -48 55 4 114 9 132 13 l32 5 0 -157 c0 -144 -1 -156 -18 -151
-20 6 -179 -37 -196 -54 -14 -14 -21 -252 -8 -276 13 -23 197 -75 212 -60 7 7
10 -35 10 -135 l0 -145 -88 8 c-198 17 -186 17 -165 -2 10 -10 59 -27 108 -39
50 -12 98 -24 108 -27 11 -4 17 0 17 10 0 26 17 18 23 -11 4 -16 10 -34 15
-41 5 -8 105 -37 223 -67 195 -48 236 -55 462 -75 182 -16 252 -19 261 -11 10
8 39 9 107 1 59 -7 294 -10 632 -8 l537 3 0 -87 0 -88 155 0 155 0 0 -54 c0
-52 1 -55 27 -58 19 -2 -20 -22 -149 -76 l-175 -74 -454 41 c-250 23 -462 41
-472 41 -13 0 -17 -9 -17 -40 l0 -41 -57 6 c-32 3 -93 9 -135 13 l-78 8 0
-138 c0 -103 -3 -138 -12 -138 -7 0 -123 9 -258 20 -241 20 -249 20 -485 3
l-240 -18 -3 -44 c-3 -41 -5 -43 -32 -39 -25 4 -29 1 -34 -31 -3 -20 -6 -102
-6 -183 l0 -147 177 -166 c140 -131 195 -176 264 -214 l86 -48 494 -56 c272
-31 1752 -176 3289 -321 l2795 -264 1840 -117 c2227 -140 2543 -158 2622 -145
32 6 132 10 223 10 207 0 5634 -214 5980 -236 231 -15 728 -16 5326 -10 l5072
6 1353 105 c745 58 1392 105 1439 104 52 0 451 44 1040 116 l955 116 870 159
c479 88 881 166 895 174 14 8 72 24 130 35 58 12 303 73 545 135 380 98 480
128 736 221 l297 107 6 45 c3 25 6 164 6 309 0 145 1 264 3 264 1 0 110 9 242
20 132 11 248 20 258 20 14 0 17 9 17 49 l0 49 213 6 c116 3 505 9 862 13
l650 8 -520 6 c-286 3 -674 7 -862 8 l-343 1 0 24 c0 21 6 25 48 30 26 3 747
9 1602 13 l1555 8 -1140 7 c-627 5 -1348 11 -1602 14 l-463 6 0 53 0 52 68 6
c37 4 191 8 342 8 151 1 390 5 530 8 236 6 211 7 -342 15 -542 8 -598 10 -598
25 1 9 32 54 70 100 38 47 76 103 83 125 l13 40 117 -3 117 -2 2 237 3 237
365 137 365 137 3 86 3 87 -26 0 c-25 0 -25 1 -25 80 l0 80 -30 0 -30 0 0 -80
0 -80 -200 0 -200 0 0 80 0 80 -40 0 -40 0 0 -80 0 -80 -195 0 -195 0 0 80 0
80 -35 0 -35 0 0 -80 0 -80 -134 0 c-73 0 -161 3 -195 6 l-61 7 0 73 0 74 -35
0 -35 0 0 -75 0 -75 -200 0 -200 0 0 75 0 75 -35 0 -35 0 0 -75 0 -75 -120 0
-120 0 0 25 c0 24 -2 25 -73 25 l-74 0 -6 173 c-9 221 -9 799 0 945 l6 112
141 0 c78 0 165 -3 194 -6 l52 -7 0 -68 0 -69 35 0 35 0 0 70 0 70 200 0 200
0 0 -70 0 -70 35 0 35 0 0 70 0 70 195 0 195 0 0 -70 0 -70 35 0 35 0 0 70 0
70 195 0 195 0 0 -70 0 -70 40 0 40 0 0 70 0 70 110 0 c109 0 111 0 120 -25 9
-24 13 -25 90 -25 l80 0 0 -45 c0 -43 1 -45 30 -45 29 0 30 2 30 45 l0 45 420
0 420 0 0 30 0 30 135 0 135 0 0 -75 0 -75 40 0 40 0 0 75 0 75 200 0 200 0 0
-75 c0 -73 1 -75 25 -75 24 0 25 2 25 75 l0 75 1045 0 1045 0 0 65 0 64 142 3
141 3 16 32 16 33 340 0 c187 1 349 5 360 10 12 5 -131 9 -342 9 -356 1 -363
1 -363 21 0 20 7 20 283 20 296 0 437 7 437 21 0 5 -74 9 -163 9 -90 0 -251 3
-358 7 l-195 6 -18 38 c-18 37 -22 39 -185 94 -229 78 -250 89 -283 151 l-28
51 -382 178 c-211 98 -467 218 -570 266 l-187 87 -87 -54 -87 -55 -461 175
c-254 97 -661 252 -905 344 l-443 169 -32 59 -31 58 -194 52 -194 53 -50 -38
-50 -38 -266 69 c-146 38 -277 71 -291 74 -14 3 -268 31 -565 63 l-540 57
-265 192 -265 191 -178 1 -178 0 -98 95 -98 95 -574 0 -574 0 -65 -95 -65 -95
-151 0 -150 0 -55 95 -54 94 -728 1 -728 0 -98 -95 -98 -95 -186 0 c-177 0
-186 1 -192 20 -6 20 -15 20 -1039 20 l-1033 0 -28 95 -28 95 -184 0 -184 0
-104 70 c-70 47 -114 70 -134 70 -20 0 -34 8 -45 25 -16 24 -21 25 -121 25
-100 0 -105 -1 -121 -25 l-16 -25 -227 0 -228 0 -13 25 c-13 25 -15 25 -141
25 -124 0 -127 -1 -143 -25 -22 -34 -82 -34 -164 0 l-62 25 -584 0 -584 0 -76
-235 -77 -235 -108 0 -109 0 -139 -120 -138 -120 -2195 0 -2195 0 -24 37 c-13
20 -80 108 -149 195 l-124 158 -1267 0 -1266 0 -49 -170 -50 -170 -243 0
c-134 0 -243 3 -243 6 0 3 -22 105 -50 226 -27 121 -50 222 -50 224 0 2 -456
4 -1013 4 l-1014 0 -146 -232 -147 -233 0 -73 0 -72 -442 2 -442 3 -99 303
-98 302 -387 -2 -386 -3 -99 -302 -98 -303 -182 0 -182 -1 -103 -114 -103
-115 -247 0 -248 0 -103 115 -104 114 -131 3 -131 3 -150 321 c-82 176 -160
337 -173 357 l-24 37 -259 0 -259 0 -26 -40 c-22 -33 -32 -40 -59 -40 -32 0
-34 3 -66 80 l-34 80 -224 -2 -224 -3 -32 -75 c-30 -72 -33 -75 -69 -80 l-38
-5 -146 -317 -147 -318 -176 0 -176 0 -88 115 -87 115 -717 0 -717 0 -84 -115
-84 -115 -858 0 -858 0 0 110 0 110 463 0 462 0 202 128 202 127 -2 619 -2
620 -199 128 -199 128 -147 0 -147 0 -20 73 c-11 39 -20 73 -19 73 1 1 604 7
1341 14 737 7 1346 16 1353 20 7 3 -591 12 -1330 19 -739 7 -1353 14 -1365 17
-16 3 -25 17 -37 56 -8 29 -14 53 -13 54 1 1 420 7 931 13 512 6 932 14 935
16 2 3 -149 5 -336 5 -187 0 -610 3 -941 7 l-602 6 -12 39 -11 38 -238 0 -237
0 -18 -70z"/>
</g>
</svg>
