<?xml version="1.0" standalone="no"?>
<!DOCTYPE svg PUBLIC "-//W3C//DTD SVG 20010904//EN"
 "http://www.w3.org/TR/2001/REC-SVG-20010904/DTD/svg10.dtd">
<svg version="1.0" xmlns="http://www.w3.org/2000/svg"
   viewBox="0 0 4617.000000 2066.000000"
 preserveAspectRatio="xMidYMid meet">
<metadata>
Created by potrace 1.16, written by Peter Selinger 2001-2019
</metadata>
<g transform="translate(0.000000,2066.000000) scale(0.100000,-0.100000)"
fill="#000000" stroke="none">
<path d="M22880 20585 l-135 -75 -576 0 -576 0 -16 -42 c-53 -141 -1297 -3713
-1297 -3724 0 -12 103 -14 630 -14 l630 0 -115 -231 c-116 -231 -116 -231
-245 -381 l-129 -150 -243 -152 c-307 -191 -499 -315 -519 -335 -13 -13 -21
-105 -47 -571 -17 -310 -29 -591 -25 -635 l5 -81 346 -79 c191 -43 366 -83
390 -89 l43 -11 152 -265 153 -265 464 -61 465 -62 -667 -1 -667 -1 -373 171
-373 171 -1970 13 -1970 12 -1128 -82 c-748 -54 -1132 -86 -1140 -94 -7 -7
-13 -54 -15 -116 l-4 -104 -62 -5 c-63 -5 -669 -26 -763 -26 -51 0 -52 0 -72
43 -10 23 -91 139 -178 257 l-158 214 -325 77 -325 77 -328 -77 c-253 -60
-331 -82 -341 -97 -8 -10 -83 -113 -168 -227 -116 -156 -161 -225 -177 -272
l-22 -63 -52 -6 c-29 -3 -164 -8 -302 -12 l-250 -6 -44 119 c-42 111 -54 131
-204 338 -88 121 -163 224 -167 228 -4 4 -154 44 -333 88 l-326 79 -328 -81
-328 -81 -162 -223 -163 -224 -59 -157 c-33 -86 -61 -157 -63 -159 -4 -4 -580
-26 -583 -23 -1 2 -24 59 -50 128 -45 118 -55 135 -208 345 -88 121 -162 222
-164 224 -1 2 -150 39 -330 82 l-328 77 -328 -77 -327 -77 -165 -224 -164
-225 -68 -178 c-37 -97 -69 -173 -71 -167 -2 6 -36 10 -78 10 l-74 0 0 -39 0
-38 -53 -7 c-28 -3 -66 -6 -84 -6 -23 0 -38 -8 -57 -31 l-26 -31 0 -507 0
-507 -21 -1 c-12 -1 -85 -12 -163 -23 -124 -19 -150 -27 -216 -62 -41 -22 -78
-44 -81 -50 -3 -5 -12 -40 -19 -76 l-12 -67 -1412 -229 -1411 -229 -48 27
c-27 15 -82 40 -123 56 -67 27 -86 30 -190 30 -101 0 -122 -3 -177 -26 -91
-38 -256 -145 -257 -166 0 -10 -4 -18 -10 -18 -5 0 -10 -8 -10 -19 0 -26 -25
-31 -175 -31 -355 0 -745 -14 -745 -25 0 -9 64 -14 238 -19 130 -3 337 -9 459
-13 l221 -6 6 -30 c3 -16 6 -45 6 -63 0 -29 -4 -35 -27 -40 -30 -7 -189 -69
-213 -84 -8 -5 -53 -32 -100 -59 -72 -42 -91 -60 -123 -110 -21 -32 -47 -91
-58 -130 -19 -68 -19 -73 -3 -133 9 -35 35 -93 57 -129 37 -62 47 -70 151
-131 61 -36 134 -74 161 -84 28 -10 61 -24 75 -31 14 -7 37 -13 53 -13 25 0
27 -3 27 -39 0 -21 -3 -52 -6 -68 l-6 -30 -276 -7 c-539 -13 -642 -18 -642
-32 0 -11 27 -14 128 -14 71 0 278 -3 460 -7 l332 -6 0 -24 c0 -12 5 -23 10
-23 6 0 10 -7 10 -15 0 -19 173 -132 258 -168 56 -24 76 -27 176 -27 123 0
126 1 279 72 l88 42 1407 -228 c774 -126 1407 -229 1408 -230 0 0 8 -35 17
-76 l18 -75 75 -43 c72 -41 82 -44 239 -65 l165 -22 0 -504 0 -504 26 -34 c22
-29 31 -33 72 -33 26 0 64 -3 85 -6 34 -6 37 -9 37 -41 l0 -35 79 4 80 3 65
-173 66 -174 161 -221 c89 -122 163 -224 165 -226 5 -6 628 -151 654 -153 31
-1 640 142 657 155 7 5 84 107 172 226 151 208 161 224 206 344 45 117 50 127
74 127 65 0 556 -22 559 -25 2 -2 30 -73 63 -159 59 -155 60 -157 210 -363 84
-115 159 -216 169 -226 11 -12 118 -43 339 -97 l323 -79 326 80 327 80 166
228 c155 214 168 234 210 345 l44 118 295 -7 c162 -4 298 -9 302 -11 3 -2 17
-33 29 -69 18 -49 63 -117 194 -292 l170 -227 305 -73 c168 -40 319 -73 335
-74 24 -1 468 99 627 141 32 9 53 34 199 233 89 122 168 237 176 254 13 32 15
33 76 33 106 0 771 -21 793 -26 20 -4 22 -11 26 -109 2 -57 8 -109 15 -116 6
-6 440 -43 1134 -95 l1124 -84 1976 15 1976 15 370 170 371 170 664 -1 663 -1
-460 -61 -460 -60 -152 -266 -152 -267 -98 -22 c-54 -12 -229 -52 -389 -88
l-291 -67 -6 -86 c-6 -76 46 -1117 59 -1177 4 -22 168 -133 584 -392 l195
-122 127 -148 c125 -147 127 -150 242 -380 l116 -232 -630 0 c-511 0 -630 -2
-630 -13 0 -10 1185 -3414 1287 -3694 l26 -73 577 0 577 0 137 -75 137 -75
9714 0 9715 0 0 105 0 105 535 0 535 0 0 90 0 90 -535 0 -535 0 0 415 0 415
-386 2 -385 3 -99 189 c-55 105 -99 190 -97 191 1 1 244 13 539 26 295 13 540
28 544 32 4 4 5 9 2 12 -3 3 -277 17 -609 31 -332 14 -608 30 -613 35 -6 5 23
9 75 9 46 0 155 3 242 7 l157 6 0 28 c0 15 -4 30 -9 34 -5 3 -121 14 -257 25
-136 12 -250 23 -254 25 -3 2 -15 32 -25 66 -13 42 -25 64 -39 69 -12 5 -90
25 -173 45 l-153 37 1 272 c0 149 4 290 7 313 7 41 10 44 321 273 309 227 318
233 541 345 l226 113 167 152 c91 84 168 159 171 168 13 45 47 237 57 319 12
104 6 142 -59 398 l-37 144 -185 138 c-102 77 -273 194 -380 262 l-195 124
-439 178 -440 179 -2777 0 -2776 0 -7 53 c-3 28 -6 72 -6 97 -1 37 -7 52 -38
88 l-37 43 -1230 105 c-676 59 -1231 107 -1231 108 -1 0 -4 275 -6 609 l-5
609 55 41 54 41 311 53 312 53 1075 45 c591 25 1089 47 1106 50 27 5 90 77
459 522 472 570 477 578 489 717 3 44 7 80 9 81 1 1 157 14 347 29 295 23 771
81 3300 405 l2955 378 235 -24 235 -24 655 11 655 11 122 46 c106 40 131 54
188 106 57 51 65 63 65 94 0 24 -7 41 -22 54 -13 10 -17 18 -11 19 20 0 214
122 227 142 10 16 28 18 183 18 147 0 173 2 173 15 0 13 -24 15 -155 15 -85 0
-155 3 -155 8 1 4 14 22 30 41 19 23 35 58 46 106 l17 72 325 6 c178 3 327 8
330 11 15 16 -32 20 -301 23 -160 2 -306 6 -324 9 -30 4 -32 8 -46 70 -9 35
-22 75 -31 87 -9 12 -23 32 -32 45 l-16 22 156 0 c132 0 156 2 156 15 0 13
-25 15 -164 15 -158 0 -166 1 -193 24 -39 33 -207 136 -221 136 -20 0 -13 18
8 25 15 5 20 15 20 43 0 33 -8 45 -62 98 -57 55 -75 65 -183 106 l-120 46
-600 12 c-330 6 -607 13 -615 15 -8 2 -141 -8 -296 -23 l-281 -28 -2944 378
c-2539 325 -2993 381 -3300 405 l-357 27 -6 45 c-3 24 -6 59 -6 78 0 83 -42
143 -484 676 -234 283 -432 517 -440 520 -9 4 -507 27 -1108 52 l-1093 47
-313 53 -313 53 -53 40 -53 40 5 609 c2 334 5 609 6 610 1 1 553 48 1226 104
l1225 103 43 44 c37 39 42 50 42 91 0 25 3 70 6 99 l7 52 2774 0 2775 0 436
177 437 177 200 126 c110 69 283 188 385 263 l185 137 27 108 c76 296 81 328
68 437 -10 84 -34 223 -55 311 -3 12 -78 89 -168 171 l-163 150 -234 119
c-230 117 -241 124 -546 349 l-312 230 -6 50 c-3 28 -6 167 -6 310 l0 260 170
44 170 44 20 56 c11 31 23 61 25 68 4 13 37 17 310 39 110 9 203 18 207 20 5
3 8 18 8 33 l0 28 -127 6 c-71 4 -171 7 -223 7 -52 0 -102 5 -110 10 -13 9
-13 10 0 10 8 0 274 11 590 25 316 14 585 25 598 25 12 0 22 6 22 13 0 10
-118 18 -542 36 -299 12 -544 24 -546 25 -1 2 42 88 97 192 l99 189 386 3 386
2 0 415 0 415 535 0 535 0 0 95 0 95 -535 0 -535 0 0 100 0 100 -9717 0 -9718
-1 -135 -74z"/>
</g>
</svg>
