<?xml version="1.0" standalone="no"?>
<!DOCTYPE svg PUBLIC "-//W3C//DTD SVG 20010904//EN"
 "http://www.w3.org/TR/2001/REC-SVG-20010904/DTD/svg10.dtd">
<svg version="1.0" xmlns="http://www.w3.org/2000/svg"
   viewBox="0 0 3799.000000 4748.000000"
 preserveAspectRatio="xMidYMid meet">
<metadata>
Created by potrace 1.16, written by Peter Selinger 2001-2019
</metadata>
<g transform="translate(0.000000,4748.000000) scale(0.100000,-0.100000)"
fill="#000000" stroke="none">
<path d="M16390 47419 l-1275 -58 -740 -182 c-407 -99 -741 -182 -741 -182 -1
-1 -32 -88 -68 -193 -37 -104 -71 -195 -74 -201 -4 -6 -340 -118 -747 -248
l-740 -237 -836 -379 -835 -379 -525 -303 -524 -304 -400 -512 -400 -512 -349
-775 -350 -775 -53 98 c-29 54 -96 180 -150 280 -61 113 -104 182 -113 182 -8
0 -1302 -348 -2875 -773 l-2860 -772 -3 -3862 c-1 -2124 0 -3862 4 -3862 3 0
1287 -347 2854 -770 1567 -424 2859 -771 2871 -773 19 -2 59 81 384 788 l362
790 1302 3 1301 2 1873 556 c1029 305 1916 569 1970 585 l97 30 0 1054 0 1055
148 0 147 0 210 -336 210 -335 248 -141 247 -141 0 -1302 0 -1303 -375 -272
-375 -272 0 -804 0 -804 -1552 0 c-854 0 -1577 -3 -1606 -7 l-53 -6 -233 -271
-233 -272 -421 -127 -421 -127 -3565 0 -3566 0 0 -359 0 -360 53 -5 c28 -3
1339 -90 2912 -192 1572 -102 2861 -187 2863 -189 2 -2 -154 -333 -347 -735
-193 -401 -351 -734 -351 -738 0 -6 220 -192 252 -213 8 -5 -816 -1095 -871
-1151 -13 -14 -237 -41 -1331 -163 l-1315 -146 -1045 -328 -1045 -329 -1327
-218 -1326 -218 -116 -101 c-177 -153 -360 -403 -466 -637 -60 -130 -61 -137
-81 -290 -19 -157 -19 -159 0 -315 20 -155 21 -161 82 -293 106 -233 302 -498
478 -647 l103 -87 1342 -222 1341 -222 1015 -321 1015 -322 1328 -149 c731
-83 1333 -152 1337 -155 5 -3 179 -227 387 -498 207 -271 406 -529 440 -574
l64 -82 -131 -108 c-84 -70 -130 -113 -127 -123 2 -8 161 -340 352 -738 191
-397 346 -724 344 -726 -2 -2 -1300 -88 -2884 -190 -1584 -103 -2895 -189
-2912 -192 l-33 -5 0 -359 0 -360 3568 0 3567 0 413 -125 c228 -68 421 -130
429 -137 9 -7 117 -131 241 -275 l225 -263 1603 0 1604 0 0 -808 0 -807 375
-273 375 -273 0 -1302 0 -1302 -247 -141 -247 -141 -210 -336 -211 -337 -147
0 -148 0 -2 1057 -3 1057 -1945 580 -1945 580 -1324 5 -1323 6 -360 785 c-198
432 -363 789 -367 793 -4 4 -1281 -336 -2837 -757 -1556 -420 -2848 -769
-2871 -775 l-43 -12 0 -3859 0 -3858 33 -11 c123 -39 5709 -1541 5716 -1536 5
3 67 112 137 242 71 131 138 255 150 276 l21 38 333 -738 c183 -406 343 -758
355 -783 13 -25 200 -272 416 -548 l394 -504 510 -296 510 -296 830 -378 830
-379 760 -245 c418 -134 762 -248 766 -252 3 -4 37 -95 74 -203 l69 -195 745
-182 746 -182 1340 -60 c737 -33 1358 -60 1380 -60 37 0 108 49 955 660 l915
660 93 0 c50 0 92 -3 93 -7 0 -5 24 -159 52 -343 l52 -335 340 -3 340 -2 75
-95 c41 -51 81 -94 88 -94 7 -1 396 102 865 229 l852 229 896 324 897 325 853
420 854 419 3 191 2 190 -125 338 -125 339 0 541 0 541 113 42 c63 24 120 47
127 51 12 7 11 134 -9 807 -22 780 -22 816 -7 1573 13 676 17 780 31 816 l17
41 96 19 97 19 451 960 450 960 33 280 c18 154 35 297 38 318 l6 37 -722 0
-721 0 0 125 0 125 -962 0 -963 0 -208 333 -209 332 -249 140 -248 140 -1
1300 0 1301 380 274 379 275 1 342 0 343 2066 2 2066 3 927 2060 927 2060 74
6 c41 4 359 7 705 8 542 2 1339 15 1428 23 27 3 33 -6 154 -237 69 -132 127
-241 128 -243 4 -5 251 31 707 104 l406 64 520 185 520 185 124 -65 c69 -36
132 -65 141 -65 9 0 434 285 945 633 l929 632 119 136 c66 75 310 373 544 663
l424 526 198 778 c108 427 197 788 197 802 0 14 -89 375 -197 803 l-198 779
-442 548 c-464 575 -616 753 -679 799 -179 129 -1826 1241 -1838 1241 -8 0
-73 -29 -143 -64 l-127 -64 -515 184 -515 183 -435 70 c-470 75 -679 105 -684
100 -2 -2 -61 -113 -131 -247 -115 -219 -130 -243 -149 -237 -44 13 -566 24
-1241 26 -385 1 -760 4 -834 8 l-135 6 -926 2060 -927 2060 -2066 3 -2067 2 0
343 0 342 -380 275 -380 275 0 1300 0 1300 248 140 249 140 209 333 209 332
962 0 963 0 0 125 0 125 721 0 720 0 -6 53 c-4 28 -21 172 -38 319 l-32 267
-450 960 -450 959 -97 18 -96 17 -17 41 c-14 36 -18 142 -31 836 -15 771 -15
817 6 1520 12 399 20 751 18 784 l-3 58 -122 47 -123 46 0 541 0 540 125 339
125 338 -2 190 -3 191 -850 418 -850 419 -910 329 -910 329 -805 216 c-443
119 -826 222 -852 229 l-47 13 -76 -96 -77 -96 -341 -5 -342 -5 -52 -335 c-28
-184 -52 -338 -52 -342 -1 -5 -42 -8 -92 -8 l-90 0 -916 660 -916 660 -111 -1
c-61 -1 -685 -28 -1386 -60z"/>
</g>
</svg>
