<?xml version="1.0" standalone="no"?>
<!DOCTYPE svg PUBLIC "-//W3C//DTD SVG 20010904//EN"
 "http://www.w3.org/TR/2001/REC-SVG-20010904/DTD/svg10.dtd">
<svg version="1.0" xmlns="http://www.w3.org/2000/svg"
   viewBox="0 0 4693.000000 714.000000"
 preserveAspectRatio="xMidYMid meet">
<metadata>
Created by potrace 1.16, written by Peter Selinger 2001-2019
</metadata>
<g transform="translate(0.000000,714.000000) scale(0.100000,-0.100000)"
fill="#000000" stroke="none">
<path d="M18120 7101 l-205 -37 -3 -390 -2 -391 -647 -6 c-355 -4 -855 -7
-1110 -7 l-463 0 0 44 c0 41 -2 44 -32 50 -18 3 -378 9 -800 13 l-768 6 0 198
0 199 -935 0 -935 0 0 -200 0 -200 -250 0 -250 0 0 200 0 200 -930 0 -930 0 0
-200 0 -200 -255 0 -255 0 0 200 0 200 -930 0 -930 0 0 -200 0 -200 -500 0
c-277 0 -500 -4 -500 -9 0 -5 -24 -11 -52 -15 -29 -4 -71 -9 -94 -12 -40 -6
-41 -5 -47 25 l-6 31 -76 0 -75 0 0 180 0 180 -2155 0 -2155 0 0 -68 0 -69
-297 -58 c-1064 -207 -1493 -292 -1497 -296 -2 -2 -11 -126 -21 -275 -17 -261
-17 -283 1 -580 17 -278 19 -464 19 -1844 0 -1380 -2 -1566 -19 -1844 -18
-297 -18 -319 -1 -580 10 -149 19 -273 21 -275 4 -4 433 -89 1497 -296 l297
-58 0 -69 0 -68 2155 0 2155 0 0 180 0 180 75 0 76 0 6 31 c6 30 7 31 47 25
23 -3 65 -8 94 -12 28 -4 52 -10 52 -15 0 -5 223 -9 500 -9 l500 0 0 -200 0
-200 930 0 930 0 0 200 0 200 255 0 255 0 0 -200 0 -200 930 0 930 0 0 200 0
200 250 0 250 0 0 -200 0 -200 935 0 935 0 0 199 0 198 768 6 c422 4 782 10
800 13 30 6 32 9 32 50 l0 44 463 0 c255 0 755 -3 1110 -7 l647 -6 2 -391 3
-390 210 -38 210 -37 3735 0 c2385 -1 3769 3 3829 9 51 6 179 15 285 20 307
17 536 56 941 161 l350 91 310 135 310 134 97 138 97 138 242 6 c133 4 1679 7
3434 7 1755 0 3557 3 4003 7 l812 6 0 27 c0 25 4 28 48 35 26 4 243 8 482 11
374 3 522 9 1055 44 l620 41 390 65 c394 65 1314 254 2010 413 193 44 528 114
745 156 370 71 431 85 970 237 l575 161 320 139 320 139 615 160 615 161 405
212 c223 117 482 245 575 284 l170 72 117 180 117 180 -117 180 -117 180 -170
72 c-93 39 -352 167 -575 284 l-405 212 -615 161 -615 160 -320 139 -320 139
-575 161 c-539 152 -600 167 -970 237 -217 42 -552 112 -745 156 -685 156
-1614 347 -2010 413 l-390 65 -620 41 c-533 35 -681 41 -1055 44 -239 3 -456
7 -482 11 -44 7 -48 10 -48 35 l0 27 -812 6 c-446 4 -2248 7 -4003 7 -1755 0
-3301 3 -3434 7 l-242 6 -97 138 -97 138 -310 134 -310 135 -350 91 c-405 105
-634 144 -941 161 -106 5 -234 14 -285 20 -60 6 -1442 9 -3834 9 l-3740 -1
-205 -37z"/>
</g>
</svg>
