<?xml version="1.0" standalone="no"?>
<!DOCTYPE svg PUBLIC "-//W3C//DTD SVG 20010904//EN"
 "http://www.w3.org/TR/2001/REC-SVG-20010904/DTD/svg10.dtd">
<svg version="1.0" xmlns="http://www.w3.org/2000/svg"
   viewBox="0 0 4250.000000 2892.000000"
 preserveAspectRatio="xMidYMid meet">
<metadata>
Created by potrace 1.16, written by Peter Selinger 2001-2019
</metadata>
<g transform="translate(0.000000,2892.000000) scale(0.100000,-0.100000)"
fill="#000000" stroke="none">
<path d="M18255 27925 l-1150 -994 -1202 -1 -1201 0 -1036 -1543 -1036 -1542
-1880 -470 -1880 -470 0 -634 0 -634 -142 6 c-79 4 -303 12 -498 18 l-355 12
-1140 -228 -1139 -229 121 -40 122 -40 1033 71 1033 71 434 -187 c239 -102
428 -187 420 -189 -28 -5 -3778 -452 -3793 -452 -11 0 -16 9 -16 31 0 24 -4
29 -17 25 -10 -2 -303 -44 -650 -92 l-633 -88 0 -43 c0 -35 -4 -45 -23 -53
-13 -6 -232 -14 -537 -19 l-515 -8 380 -3 c209 -1 434 -5 500 -9 l119 -6 -141
-112 -141 -113 -188 -2 -189 -2 167 -5 c91 -3 169 -8 172 -11 2 -3 -110 -97
-250 -208 l-254 -203 0 -994 0 -994 -32 -6 c-18 -3 -170 -26 -337 -50 l-304
-45 -698 0 -699 0 0 -39 c0 -32 -4 -40 -22 -45 -13 -3 -167 -6 -343 -7 -196
-1 -295 -5 -255 -9 36 -4 190 -8 343 -9 l277 -1 0 -70 0 -70 -117 -1 c-65 -1
-219 -5 -343 -8 l-225 -7 200 -2 c110 -1 264 -5 343 -9 l142 -6 0 -2697 0
-2697 -142 -6 c-79 -4 -233 -8 -343 -9 l-200 -2 225 -7 c124 -3 278 -7 343 -8
l117 -1 0 -70 0 -70 -277 -1 c-153 -1 -307 -5 -343 -9 -40 -4 59 -8 255 -9
176 -1 330 -4 343 -7 18 -5 22 -13 22 -45 l0 -39 699 0 698 0 304 -45 c167
-24 319 -47 337 -50 l32 -6 0 -994 0 -994 254 -203 c140 -111 252 -205 250
-208 -3 -3 -81 -8 -172 -11 l-167 -5 189 -2 188 -2 141 -113 141 -112 -119 -6
c-66 -4 -291 -8 -500 -9 l-380 -3 515 -8 c305 -5 524 -13 537 -19 19 -8 23
-18 23 -53 l0 -43 633 -88 c347 -48 640 -90 650 -92 13 -4 17 1 17 25 0 22 5
31 16 31 15 0 3765 -447 3793 -452 8 -2 -181 -87 -420 -189 l-434 -187 -1033
71 -1033 71 -122 -40 -121 -40 1139 -229 1140 -228 355 12 c195 6 419 14 498
18 l142 6 0 -634 0 -634 1880 -470 1880 -470 1036 -1542 1035 -1543 1202 0
1202 -1 1150 -994 1150 -995 387 0 388 0 0 115 0 115 508 3 507 2 -507 3 -508
2 0 305 0 305 638 2 637 2 -625 7 c-344 3 -631 7 -637 8 -10 1 -13 650 -13
3211 l0 3210 -502 0 -503 0 -62 82 -63 83 0 97 0 98 53 0 c28 1 129 5 222 10
l170 9 301 -164 301 -164 519 -151 519 -151 388 -39 c213 -21 395 -36 405 -35
9 2 52 6 95 9 l77 4 0 -1691 0 -1692 152 -653 153 -653 54 3 54 3 14 48 14 48
71 -3 72 -3 15 -47 15 -48 52 0 c45 0 53 3 57 22 3 13 73 311 155 663 l150
640 25 1713 c15 990 30 1718 35 1725 5 7 12 24 16 39 4 20 17 32 43 43 20 8
37 14 39 12 2 -1 51 -534 109 -1182 58 -649 113 -1216 121 -1260 8 -44 58
-682 112 -1418 l97 -1337 207 0 c204 0 207 0 219 22 l12 23 10 -23 c10 -22 11
-22 263 -22 l253 0 5 53 c4 28 38 446 76 927 38 481 72 901 76 933 l6 57 238
0 237 0 7 -52 c3 -29 6 -100 5 -158 0 -101 5 -130 153 -763 l153 -658 54 3 54
3 14 48 14 47 72 0 73 0 13 -50 13 -50 53 0 c49 0 53 2 60 28 4 15 74 313 156
662 102 433 149 653 149 692 l0 58 414 0 413 0 7 -77 c3 -42 6 -108 6 -147 l0
-71 -301 -155 c-166 -85 -314 -162 -328 -171 -24 -15 -29 -27 -40 -100 -7 -47
-11 -142 -9 -214 l3 -129 1180 -208 1180 -207 830 80 830 81 705 139 705 139
1000 336 1001 337 -4 32 -4 32 378 6 c207 4 464 7 570 7 l193 0 3 -37 3 -36
369 -139 c203 -76 377 -138 388 -138 10 0 37 17 61 39 l42 39 899 26 c495 14
902 23 905 18 3 -5 37 -14 76 -20 54 -9 148 -8 415 4 304 13 350 17 389 35 42
19 81 21 930 35 487 8 920 15 961 17 41 2 -356 4 -883 5 -952 2 -958 2 -999
23 -45 23 -41 23 -645 33 -204 3 -243 2 -243 -10 0 -18 8 -19 -979 11 l-825
24 -30 31 -31 30 77 0 76 0 39 143 40 142 154 6 c85 4 269 7 410 8 141 0 310
4 376 7 l120 7 91 161 90 161 117 3 118 3 198 135 199 135 0 318 0 319 43 6
c23 3 362 42 752 86 391 44 727 83 748 86 l37 6 0 584 0 584 24 0 c13 0 45 9
71 20 46 20 70 20 1008 21 529 1 924 5 877 9 -47 5 -476 13 -955 20 -810 11
-873 13 -920 30 -27 11 -61 20 -75 22 -23 3 -25 8 -28 60 l-3 56 -37 6 c-34 6
-1532 176 -1546 176 -3 0 -6 47 -6 103 l0 104 -157 6 c-87 4 -291 7 -453 8
-162 0 -302 3 -311 7 -13 5 13 33 109 117 l126 110 68 3 68 4 0 58 0 58 -102
6 c-57 3 -245 8 -418 11 -173 3 -411 8 -527 11 l-213 7 0 93 0 94 -72 1 c-40
1 -104 4 -141 8 l-69 6 30 28 29 28 814 24 c976 29 989 30 989 11 0 -11 32
-13 188 -10 103 2 293 6 423 8 215 3 239 5 277 25 41 21 45 21 999 23 527 1
936 3 908 5 -27 1 -461 10 -962 18 -859 14 -915 16 -950 34 -33 16 -85 21
-388 35 -267 12 -367 13 -420 5 -38 -6 -73 -15 -76 -20 -3 -5 -362 2 -850 16
-464 14 -867 25 -896 25 -46 0 -57 4 -98 40 -25 22 -54 40 -64 40 -10 0 -85
-25 -166 -55 -81 -31 -149 -55 -150 -53 -3 3 25 261 28 265 1 1 191 71 422
157 l420 156 513 280 514 280 309 0 c258 0 308 2 303 14 -4 11 186 15 1223 20
675 4 1678 10 2228 14 l1000 7 -1790 8 c-984 4 -1993 10 -2240 13 l-451 7 -46
116 c-25 64 -43 119 -40 123 4 4 292 11 641 17 349 6 669 12 710 13 42 1 -227
6 -597 12 l-673 11 530 357 531 357 938 11 c515 6 962 12 992 13 30 1 -309 5
-755 10 -893 8 -1108 14 -1080 30 11 6 249 14 584 21 l566 12 -310 7 c-170 4
-415 10 -542 13 l-233 7 49 91 49 91 12 270 c10 205 10 304 1 411 -6 77 -11
145 -11 150 0 6 -42 16 -94 23 l-94 13 -798 -250 -799 -250 -365 19 c-305 15
-377 22 -440 40 -41 12 -79 25 -84 30 -6 5 -18 9 -29 9 -23 0 -259 70 -271 81
-5 4 37 171 95 377 l103 370 75 13 c73 12 78 15 131 70 54 57 64 63 1061 544
l1006 487 204 156 205 157 -9 43 c-5 27 -13 42 -20 39 -7 -3 -421 -184 -922
-402 -500 -219 -917 -400 -925 -403 -8 -2 13 24 47 59 l63 64 2 305 3 304 798
250 797 249 0 93 0 92 38 6 c20 3 600 9 1287 13 973 6 1186 9 960 15 -159 4
-739 11 -1287 14 l-998 6 0 57 0 58 228 62 c125 34 235 65 245 67 14 4 17 17
17 75 l0 69 213 1 c116 1 520 5 897 8 l685 7 -491 2 c-270 1 -674 5 -897 9
l-407 6 0 114 0 113 163 1 c89 1 374 5 632 8 l470 7 -632 2 -633 2 0 135 0
135 403 3 402 2 -402 3 -403 2 0 69 c0 58 -3 71 -17 75 -10 2 -120 33 -245 67
l-228 62 0 42 0 42 887 6 c487 4 1040 8 1227 8 209 1 325 5 301 10 -22 4 -196
8 -386 8 -190 1 -724 4 -1187 8 l-842 6 0 112 0 112 -797 249 -798 250 -3 304
-2 305 -63 64 c-34 35 -55 61 -47 58 8 -2 425 -183 925 -402 501 -218 915
-399 922 -402 7 -3 15 12 20 39 l9 43 -205 157 -204 156 -1006 487 c-997 481
-1007 487 -1061 544 -53 55 -58 58 -131 70 l-75 13 -103 370 c-58 206 -100
373 -95 377 12 11 248 81 271 81 11 0 23 4 28 9 6 5 44 18 85 30 63 18 135 25
440 40 l365 19 799 -250 799 -250 93 13 c52 7 94 17 94 23 0 5 5 73 11 150 9
107 9 206 -1 411 l-12 270 -49 91 -49 91 233 7 c127 3 372 9 542 13 l310 7
-566 12 c-335 7 -573 15 -584 21 -27 16 198 22 1090 30 440 5 775 9 745 10
-30 1 -477 7 -992 13 l-938 11 -531 357 -530 357 673 11 c370 6 639 11 597 12
-41 1 -361 7 -710 13 -349 6 -637 13 -641 17 -3 4 15 59 40 123 l46 116 451 7
c247 3 1256 9 2240 13 l1790 8 -1010 7 c-555 4 -1558 10 -2228 14 -1029 5
-1217 9 -1213 20 5 12 -45 14 -303 14 l-309 0 -514 280 -513 280 -420 156
c-231 86 -421 156 -422 157 -3 4 -31 262 -28 265 1 2 69 -22 150 -53 81 -30
156 -55 166 -55 10 0 39 18 64 40 41 36 52 40 98 40 29 0 432 11 896 25 488
14 847 21 850 16 3 -5 38 -14 76 -20 53 -8 153 -7 420 5 303 14 355 19 388 35
35 18 91 20 950 34 501 8 935 17 962 18 28 2 -381 4 -908 5 -954 2 -958 2
-999 23 -38 20 -62 22 -277 25 -130 2 -320 6 -423 8 -156 3 -188 1 -188 -10 0
-19 -13 -18 -989 11 l-814 24 -29 28 -30 28 69 6 c37 4 101 7 141 8 l72 1 0
94 0 93 213 7 c116 3 354 8 527 11 173 3 361 8 418 11 l102 6 0 58 0 58 -68 4
-68 3 -126 110 c-96 84 -122 112 -109 117 9 4 149 7 311 7 162 1 366 4 453 8
l157 6 0 104 c0 56 3 103 6 103 14 0 1512 170 1547 176 l37 6 0 54 c0 50 2 54
28 60 15 3 50 14 77 24 46 17 116 19 920 30 479 7 908 15 955 20 47 4 -348 8
-877 9 -938 1 -962 1 -1008 21 -26 11 -58 20 -71 20 l-24 0 0 584 0 584 -37 6
c-21 3 -357 42 -748 86 -390 44 -729 83 -752 86 l-43 6 0 319 0 318 -199 135
-198 135 -118 3 -117 3 -90 161 -91 161 -120 7 c-66 3 -235 7 -376 7 -141 1
-325 4 -410 8 l-154 6 -40 143 -39 142 -76 0 -77 0 31 30 30 31 825 24 c987
30 979 29 979 11 0 -12 39 -13 243 -10 604 10 600 10 645 33 41 21 47 21 999
23 527 1 924 3 883 5 -41 2 -474 9 -961 17 -849 14 -888 16 -930 35 -39 18
-85 22 -389 35 -267 12 -361 13 -415 4 -39 -6 -73 -15 -76 -20 -3 -5 -410 3
-905 18 l-899 26 -42 39 c-24 22 -51 39 -61 39 -11 0 -185 -62 -388 -138
l-369 -139 -3 -36 -3 -37 -193 0 c-106 0 -363 3 -570 7 l-378 6 4 32 4 32
-1001 337 -1000 336 -705 139 -705 139 -830 81 -830 80 -1180 -207 -1180 -208
-3 -129 c-2 -72 2 -167 9 -214 11 -73 16 -85 40 -100 14 -9 162 -86 328 -171
l301 -155 0 -71 c0 -39 -3 -105 -6 -147 l-7 -77 -413 0 -414 0 0 58 c0 39 -48
260 -149 692 -82 349 -152 647 -156 663 -7 25 -11 27 -60 27 l-53 0 -13 -50
-13 -50 -73 0 -72 0 -14 48 -14 47 -54 3 -54 3 -153 -658 c-148 -633 -153
-662 -153 -763 1 -58 -2 -129 -5 -157 l-7 -53 -237 0 -238 0 -6 58 c-4 31 -38
451 -76 932 -38 481 -72 899 -76 928 l-5 52 -253 0 c-252 0 -253 0 -263 -22
l-10 -23 -12 23 c-12 22 -15 22 -219 22 l-207 0 -97 -1337 c-54 -736 -104
-1374 -112 -1418 -8 -44 -63 -611 -121 -1260 -58 -648 -107 -1181 -109 -1182
-2 -2 -19 4 -39 12 -26 11 -39 23 -43 43 -4 15 -11 32 -16 39 -5 7 -20 735
-35 1725 l-25 1713 -150 640 c-82 352 -152 650 -155 663 -4 19 -12 22 -57 22
l-52 0 -15 -47 -15 -48 -72 -3 -71 -3 -14 48 -14 48 -54 3 -54 3 -153 -653
-152 -653 0 -1692 0 -1691 -77 4 c-43 3 -86 7 -95 9 -10 1 -192 -14 -405 -35
l-388 -39 -519 -151 -519 -151 -301 -164 -301 -164 -170 9 c-93 5 -194 9 -222
10 l-53 0 0 98 0 97 63 83 62 82 503 0 502 0 0 3285 0 3285 223 1 c122 1 335
5 472 9 228 6 208 6 -222 8 l-473 2 0 260 0 260 373 2 372 2 -370 6 c-203 4
-371 8 -372 9 -2 0 -3 37 -3 81 l0 80 -388 0 -387 0 -1150 -995z m-5577 -6362
c28 -38 50 -68 49 -69 -2 -1 -2992 111 -3422 128 -49 2 678 5 1616 6 l1707 2
50 -67z m4483 -15 c57 -74 63 -87 67 -137 l4 -56 -294 -3 c-199 -2 -625 9
-1325 35 -1196 43 -1075 23 -972 161 l61 82 1198 0 1198 0 63 -82z m6107 17
c1 -1 0 -32 -4 -67 -6 -58 -10 -67 -36 -83 -16 -9 -31 -15 -33 -13 -1 1 -6 31
-10 66 -6 53 -5 62 9 62 11 0 16 9 16 26 0 24 3 25 27 19 16 -4 29 -8 31 -10z
m-1290 -518 c40 -7 71 -16 70 -22 -3 -10 -892 -574 -911 -578 -5 -1 -32 72
-59 163 -44 151 -48 173 -46 255 l3 89 400 52 c443 57 440 57 543 41z m-1068
-194 c0 -81 -6 -106 -69 -302 l-68 -214 17 -73 17 -74 -429 0 c-379 0 -429 2
-426 15 2 9 75 106 163 216 l160 200 265 151 c238 137 288 160 358 167 9 1 12
-22 12 -86z m-849 -12 c13 -5 -2 -34 -75 -153 l-91 -147 -3 116 -3 117 43 43
c38 39 45 43 78 37 19 -4 42 -10 51 -13z m-2581 -1416 l0 -75 -166 2 -166 3
-15 38 c-9 21 -13 40 -11 42 2 3 83 18 179 34 96 16 175 29 177 30 1 0 2 -33
2 -74z m0 -9928 l0 -74 -172 29 c-95 15 -176 28 -180 28 -12 0 -10 13 7 54
l15 36 165 0 165 0 0 -73z m3310 -841 l-17 -73 68 -214 c63 -196 69 -221 69
-301 l0 -88 -47 6 c-37 5 -108 40 -318 160 l-270 153 -160 201 c-88 110 -161
206 -163 215 -3 13 47 15 426 15 l429 0 -17 -74z m818 -475 c248 -157 449
-287 447 -291 -2 -4 -48 -12 -102 -19 -95 -11 -110 -10 -508 41 l-410 53 -3
88 c-3 80 2 103 44 250 26 89 49 165 51 170 5 9 -50 43 481 -292z m-1595 7
l66 -107 -51 -11 -52 -11 -43 43 -43 42 0 121 0 120 29 -45 c15 -25 58 -93 94
-152z m-2785 -679 c-4 -50 -10 -63 -67 -137 l-63 -82 -1198 0 -1198 0 -61 82
c-34 45 -61 92 -61 105 0 22 2 23 98 24 53 0 475 15 937 34 622 24 941 33
1229 31 l388 -1 -4 -56z m6002 -5 c24 -15 28 -25 34 -82 4 -35 5 -66 4 -67 -2
-2 -15 -6 -31 -10 -24 -6 -27 -5 -27 19 0 17 -5 26 -16 26 -14 0 -16 8 -10 46
3 26 6 55 6 65 0 23 4 23 40 3z m-10529 -116 c-17 -24 -41 -55 -54 -71 l-22
-27 -1705 2 -1705 3 1745 66 c960 37 1751 67 1758 68 8 0 0 -17 -17 -41z"/>
</g>
</svg>
