<?xml version="1.0" standalone="no"?>
<!DOCTYPE svg PUBLIC "-//W3C//DTD SVG 20010904//EN"
 "http://www.w3.org/TR/2001/REC-SVG-20010904/DTD/svg10.dtd">
<svg version="1.0" xmlns="http://www.w3.org/2000/svg"
   viewBox="0 0 1822.000000 4686.000000"
 preserveAspectRatio="xMidYMid meet">
<metadata>
Created by potrace 1.16, written by Peter Selinger 2001-2019
</metadata>
<g transform="translate(0.000000,4686.000000) scale(0.100000,-0.100000)"
fill="#000000" stroke="none">
<path d="M16130 46858 c-1 -2 -14 -752 -31 -1668 -22 -1239 -33 -1700 -45
-1800 -12 -114 -14 -264 -8 -962 l6 -828 -46 0 c-37 0 -46 -3 -46 -17 0 -10
-7 -200 -16 -424 l-17 -405 37 -51 36 -51 -20 -1103 c-11 -607 -20 -1333 -20
-1614 0 -280 -3 -662 -7 -848 -6 -338 -6 -338 -27 -331 -12 4 -69 9 -128 11
l-108 4 -22 -46 c-13 -28 -30 -47 -43 -50 -11 -2 -136 -8 -277 -14 -241 -10
-287 -15 -747 -86 l-490 -75 -511 -135 c-488 -129 -535 -143 -1037 -320 -288
-102 -553 -196 -587 -209 l-63 -24 -194 410 c-216 458 -189 419 -343 495 l-74
36 -312 646 -311 646 -157 139 -157 138 -3 -206 -2 -206 281 -662 281 -663
-36 -122 -36 -122 176 -423 c97 -233 178 -428 181 -434 2 -6 -38 -37 -89 -69
-51 -32 -323 -208 -603 -391 l-510 -333 -27 -55 c-23 -46 -40 -63 -112 -112
-82 -56 -85 -59 -71 -81 14 -21 10 -26 -118 -134 -141 -120 -158 -135 -142
-127 6 3 76 42 156 87 80 44 149 81 154 81 5 0 16 -7 26 -16 15 -14 24 -10
101 44 75 52 91 59 146 65 62 5 67 8 545 321 374 244 517 332 630 386 81 39
151 69 155 66 5 -3 24 -38 41 -78 29 -63 45 -84 121 -151 l88 -79 272 -611
272 -611 2 -85 1 -85 -410 -228 -410 -227 -14 -73 -14 -73 -197 -133 c-175
-118 -255 -183 -733 -596 l-537 -464 -481 -543 c-499 -563 -655 -748 -749
-887 -54 -80 -56 -81 -117 -98 l-62 -17 -214 -351 c-118 -193 -220 -362 -227
-376 -7 -14 -14 -26 -15 -28 -2 -2 -75 36 -164 84 l-161 86 -83 -36 -82 -37
-167 86 c-152 78 -169 90 -190 128 -22 40 -40 51 -477 278 l-453 236 -204 33
c-113 18 -206 31 -208 29 -2 -2 58 -75 133 -162 l137 -158 439 -260 440 -260
49 5 c47 5 55 2 210 -86 89 -50 162 -92 164 -93 2 -2 8 -45 14 -97 l10 -95
154 -82 c85 -46 157 -87 159 -92 3 -4 -12 -43 -33 -86 -21 -43 -106 -228 -187
-412 l-149 -334 22 -62 22 -62 -40 -101 c-33 -85 -154 -422 -220 -612 -11 -30
-96 -344 -190 -698 l-171 -642 -89 -623 c-89 -628 -120 -920 -120 -1143 l0
-121 -37 -25 c-32 -21 -41 -36 -68 -119 l-32 -94 -54 -7 c-30 -4 -1267 -46
-2749 -94 l-2695 -86 -469 -47 -468 -47 -31 -41 c-28 -40 -29 -43 -14 -65 47
-67 7 -58 520 -109 l472 -47 2710 -86 c1491 -48 2725 -90 2744 -94 33 -7 36
-10 66 -101 28 -83 36 -97 68 -118 l37 -23 0 -124 c0 -217 28 -494 116 -1131
l85 -620 175 -650 c176 -651 214 -776 369 -1195 l84 -225 -21 -61 -22 -61 154
-344 c84 -189 169 -375 188 -413 41 -83 55 -65 -144 -172 l-141 -76 -11 -95
c-6 -53 -12 -96 -14 -98 -2 -1 -75 -43 -163 -92 -153 -86 -162 -90 -210 -86
-50 4 -50 4 -489 -256 l-440 -259 -137 -159 c-75 -87 -136 -159 -134 -161 2
-2 95 11 207 28 l203 32 455 237 c437 227 456 238 478 278 21 38 39 50 189
128 l166 87 84 -36 84 -37 161 86 c88 48 161 85 162 83 1 -2 15 -25 31 -53 15
-27 118 -197 227 -376 l199 -326 62 -17 c61 -17 63 -18 122 -104 97 -143 238
-309 744 -880 l482 -544 537 -464 c477 -412 559 -479 733 -596 l197 -133 12
-72 13 -72 414 -228 415 -228 -5 -86 -6 -86 -272 -611 -272 -612 -86 -76 c-74
-66 -91 -87 -123 -155 -20 -44 -40 -79 -43 -79 -3 0 -74 33 -158 74 -120 58
-250 138 -621 381 -258 169 -480 311 -493 316 -14 5 -44 9 -67 9 -36 0 -57 10
-130 61 -81 56 -89 59 -105 45 -10 -9 -21 -16 -25 -16 -7 0 -138 71 -253 137
-24 14 -43 23 -43 20 0 -3 56 -54 125 -113 69 -58 125 -112 125 -118 0 -6 -4
-18 -9 -26 -8 -11 10 -27 75 -73 72 -50 90 -68 112 -114 l27 -54 495 -323
c272 -178 544 -353 603 -391 59 -37 106 -73 103 -79 -2 -6 -83 -201 -180 -434
l-176 -422 36 -123 36 -122 -281 -662 -281 -663 2 -206 3 -206 157 139 157
138 311 645 311 645 106 55 c58 30 111 64 118 75 7 11 97 198 200 416 l188
397 81 -30 c45 -16 309 -110 588 -209 479 -169 533 -186 1015 -313 l510 -135
489 -75 c466 -72 503 -76 768 -88 l278 -12 24 -49 25 -48 107 4 c59 2 116 7
128 11 21 7 21 7 27 -331 4 -186 7 -559 7 -829 0 -270 9 -996 20 -1614 l20
-1122 -36 -45 -37 -45 17 -411 c9 -227 16 -420 16 -429 0 -15 9 -18 46 -18
l46 0 -6 -827 c-6 -699 -4 -849 8 -963 12 -100 23 -561 45 -1800 17 -916 30
-1666 31 -1667 0 -2 38 -3 85 -3 l85 0 0 28 c1 15 14 765 31 1667 21 1193 34
1678 44 1780 13 117 14 273 9 963 l-7 822 47 0 c43 0 46 2 47 28 0 15 8 207
18 427 l17 400 -37 45 -36 45 13 895 c7 492 13 1238 14 1657 l0 762 38 3 37 3
32 850 c21 591 34 1118 42 1730 6 484 13 971 16 1082 l6 203 -51 0 -50 0 0 60
c0 34 18 789 40 1678 21 889 44 1956 50 2370 l11 752 -50 253 -49 252 -7 276
-6 277 211 -65 c117 -35 217 -62 224 -60 7 3 41 228 94 618 l82 614 35 685 35
685 125 354 c68 195 131 361 138 370 8 9 69 81 137 161 133 157 274 306 359
378 35 31 61 64 76 98 13 28 59 104 104 168 l82 116 -82 116 c-45 64 -90 137
-101 163 -15 33 -54 78 -140 160 -104 100 -214 221 -401 442 -44 53 -55 79
-171 408 l-124 352 -11 156 c-6 86 -11 173 -11 195 l0 38 110 0 c61 0 111 1
112 3 1 1 4 81 7 177 l6 174 53 21 52 20 0 112 0 113 -188 0 -189 0 -6 113
c-4 61 -7 148 -7 191 0 63 -146 1198 -165 1282 -5 20 -11 19 -212 -42 -115
-35 -214 -64 -221 -64 -11 0 -12 51 -7 273 l7 272 49 252 50 253 -11 752 c-6
414 -29 1481 -50 2370 -22 889 -40 1644 -40 1678 l0 60 50 0 51 0 -6 203 c-3
111 -10 600 -16 1087 -8 617 -21 1141 -43 1730 l-31 845 -37 3 -38 3 0 772 c0
425 -7 1170 -14 1657 l-13 885 36 50 37 50 -17 395 c-10 217 -18 407 -18 423
-1 25 -4 27 -47 27 l-47 0 7 823 c5 688 4 845 -9 962 -10 102 -23 590 -44
1780 -17 902 -30 1652 -31 1668 l0 27 -85 0 c-47 0 -85 -1 -85 -2z m-468
-10524 l23 -45 129 3 129 3 -8 -935 c-4 -514 -8 -936 -9 -937 -1 -2 -101 -12
-222 -24 l-219 -20 -30 -34 -30 -33 -175 -16 c-325 -30 -1308 -219 -1598 -307
l-63 -19 -67 34 -67 33 -385 -157 -385 -157 -50 55 c-45 49 -78 117 -326 659
l-276 605 -6 132 c-5 123 -8 136 -41 209 -20 43 -36 82 -36 86 0 4 49 33 108
64 77 40 254 108 617 236 482 170 537 187 1005 310 l495 130 460 72 c416 65
484 73 710 84 138 7 260 13 273 14 17 1 27 -9 44 -45z m-206 -2372 c31 -30 67
-49 172 -87 72 -28 132 -55 132 -61 0 -6 -21 -55 -46 -109 l-47 -99 -38 -1645
c-22 -942 -43 -2128 -49 -2771 l-11 -1125 47 -190 46 -190 5 -290 6 -290 -203
-111 -203 -111 -148 -569 -147 -569 -184 -335 c-108 -198 -243 -464 -329 -650
l-147 -315 -653 -5 -654 -5 -304 -117 -304 -118 -458 0 -458 0 -78 -109 -77
-108 -146 -7 c-460 -20 -4032 -166 -4070 -166 l-46 0 -29 91 c-27 83 -33 93
-64 108 l-34 16 6 220 c8 270 14 313 127 1026 l91 574 160 635 c163 647 210
803 369 1224 l56 150 57 30 56 31 158 335 c86 184 171 358 188 386 l30 52 214
-120 c117 -66 214 -118 216 -116 4 5 265 480 265 483 0 2 -96 56 -212 121
-117 64 -214 118 -216 120 -7 4 55 117 233 424 l182 315 -6 60 -7 60 55 80
c101 148 243 318 715 853 l469 532 515 442 c478 411 580 492 815 650 l89 60
68 -17 c80 -20 22 -45 465 199 l319 176 23 -55 c13 -31 32 -77 43 -104 l19
-49 -43 -58 -43 -57 47 -106 c26 -58 183 -413 349 -789 l303 -682 104 -75 103
-74 181 -12 c99 -7 182 -10 183 -8 2 2 50 64 107 138 113 147 114 148 125 311
l6 95 -355 774 c-195 426 -361 778 -368 782 -7 5 -36 9 -64 9 -27 0 -57 6 -66
13 -16 12 -99 197 -93 207 2 3 145 68 319 145 l314 140 32 52 c18 29 37 57 44
62 6 5 97 32 201 60 239 64 1163 234 1380 254 83 8 151 15 151 16 1 0 19 -16
40 -37z m-6228 -10997 c1130 -47 2063 -85 2075 -85 16 0 42 -29 100 -110 l79
-110 458 0 459 0 303 -117 303 -118 654 -5 653 -5 152 -325 c87 -187 227 -463
330 -650 l178 -325 147 -569 147 -569 203 -110 204 -111 -6 -290 -5 -291 -46
-189 -47 -190 11 -1125 c6 -643 27 -1832 49 -2772 l38 -1646 51 -107 51 -107
-27 -10 c-233 -87 -249 -94 -285 -129 l-38 -36 -177 17 c-353 34 -1203 198
-1485 286 -75 23 -79 26 -113 81 l-36 58 -312 138 c-171 76 -314 141 -318 145
-9 8 70 193 90 209 9 6 34 12 56 12 23 0 51 3 63 6 17 5 89 154 379 786 l357
781 -12 129 -12 129 -106 137 c-59 75 -108 139 -110 141 -1 2 -84 -1 -183 -7
l-180 -12 -104 -75 -104 -75 -350 -787 -350 -788 32 -43 c17 -23 36 -50 43
-60 10 -14 4 -36 -31 -119 l-42 -102 -354 195 -355 196 -72 -17 -72 -16 -73
49 c-248 168 -361 257 -829 660 l-515 442 -465 527 c-475 539 -624 717 -720
858 -54 80 -54 80 -48 140 l6 60 -187 325 c-187 324 -234 410 -228 415 2 1 95
53 208 115 113 62 209 116 213 120 6 5 -237 464 -258 488 -2 2 -99 -51 -216
-116 l-214 -119 -27 46 c-15 25 -100 199 -188 386 l-161 340 -57 32 c-64 35
-48 3 -159 308 -133 366 -165 474 -317 1089 l-156 629 -96 581 c-117 713 -122
757 -130 1031 l-7 220 34 16 c31 15 37 25 64 108 l29 91 55 0 c31 0 980 -38
2109 -85z m4168 -10117 l60 -25 68 34 68 34 61 -20 c251 -83 1249 -274 1597
-306 l174 -16 31 -34 30 -33 219 -21 c120 -11 220 -22 221 -23 2 -2 6 -424 10
-938 l8 -935 -129 3 -129 3 -22 -45 -22 -45 -73 5 c-40 3 -163 9 -273 14 -168
8 -274 20 -660 80 l-460 71 -495 131 c-464 122 -526 141 -986 303 -344 122
-528 192 -615 235 -68 34 -126 64 -128 66 -2 2 13 42 33 88 36 80 38 92 43
213 l6 128 273 604 c242 531 280 610 325 661 l50 58 327 -133 c180 -73 354
-144 388 -157z"/>
</g>
</svg>
