<?xml version="1.0" standalone="no"?>
<!DOCTYPE svg PUBLIC "-//W3C//DTD SVG 20010904//EN"
 "http://www.w3.org/TR/2001/REC-SVG-20010904/DTD/svg10.dtd">
<svg version="1.0" xmlns="http://www.w3.org/2000/svg"
   viewBox="0 0 4193.000000 2104.000000"
 preserveAspectRatio="xMidYMid meet">
<metadata>
Created by potrace 1.16, written by Peter Selinger 2001-2019
</metadata>
<g transform="translate(0.000000,2104.000000) scale(0.100000,-0.100000)"
fill="#000000" stroke="none">
<path d="M1192 20894 c-90 -81 -162 -150 -160 -153 2 -4 33 -59 71 -122 41
-71 156 -228 298 -409 l231 -295 1667 -492 c916 -271 1729 -511 1805 -533 77
-22 142 -42 144 -45 5 -5 -147 -225 -156 -225 -3 0 -597 162 -1319 361 -723
198 -1317 359 -1321 357 -4 -2 -54 -52 -111 -113 -57 -60 -107 -111 -111 -113
-4 -1 -505 155 -1115 348 -609 193 -1109 350 -1110 348 -2 -2 95 -168 215
-371 152 -255 239 -391 285 -445 79 -91 511 -515 920 -901 421 -399 1149
-1125 1356 -1354 l180 -198 -53 -48 c-153 -140 -87 -332 148 -437 48 -21 90
-29 223 -42 162 -15 165 -16 192 -46 33 -37 31 -20 64 -611 14 -247 28 -460
30 -472 5 -23 2 -23 365 -100 164 -36 183 -38 300 -33 l125 5 77 -110 c61 -86
135 -167 342 -374 l264 -264 616 -78 c340 -43 621 -79 627 -81 8 -3 960 -1361
956 -1365 -1 0 -569 -23 -1262 -49 -693 -26 -1261 -48 -1262 -49 -1 0 -5 -49
-9 -108 l-7 -107 59 0 c32 0 793 -27 1689 -60 897 -33 1741 -60 1878 -60 l247
0 0 -79 0 -79 63 -6 c371 -36 1499 -70 2213 -67 l401 1 6 -67 c4 -38 7 -87 7
-110 l0 -43 95 0 95 0 0 -1080 0 -1080 -95 0 -95 0 0 -42 c0 -24 -3 -74 -7
-112 l-6 -69 -270 7 c-341 8 -1516 -17 -1997 -44 -195 -11 -367 -20 -382 -20
l-28 0 0 -85 0 -85 -322 0 c-210 0 -879 -21 -1918 -60 -877 -33 -1604 -60
-1614 -60 -18 0 -19 -6 -12 -102 3 -56 8 -103 9 -105 2 -1 567 -25 1256 -52
689 -27 1255 -52 1258 -55 3 -3 -836 -1218 -937 -1356 -3 -4 -286 -42 -630
-85 l-625 -78 -253 -251 c-211 -209 -268 -272 -340 -375 l-87 -124 -125 6
c-124 6 -126 6 -389 -52 -220 -48 -266 -61 -272 -77 -5 -10 -20 -226 -34 -479
-32 -579 -31 -570 -65 -608 -26 -29 -29 -30 -196 -47 -188 -18 -243 -36 -333
-107 -100 -78 -135 -171 -104 -271 16 -51 75 -120 114 -134 11 -4 6 -14 -17
-39 -17 -19 -91 -101 -165 -184 -159 -177 -1019 -1032 -1474 -1465 -435 -414
-703 -679 -788 -779 -51 -60 -135 -189 -289 -450 -119 -201 -216 -366 -215
-368 2 -1 502 157 1112 351 l1110 354 115 -120 115 -119 1275 351 c701 193
1296 356 1322 364 l46 13 81 -117 80 -117 -47 -11 c-38 -8 -3203 -938 -3499
-1027 l-81 -25 -227 -290 c-127 -163 -259 -344 -302 -415 l-76 -125 64 -58
c35 -32 109 -99 164 -149 l100 -91 1680 560 1680 559 2110 480 2110 479 2410
400 c1326 220 2419 402 2431 405 11 2 58 53 104 112 46 60 129 160 185 223 55
63 144 165 197 226 l96 110 -105 135 c-93 118 -108 134 -131 131 -15 -2 -1084
-169 -2377 -372 l-2350 -369 -1075 -230 c-592 -127 -1081 -231 -1087 -231 -6
0 -61 57 -121 128 -102 116 -109 128 -89 134 12 4 708 149 1547 322 l1525 315
2275 342 c1899 285 2278 345 2296 360 11 11 24 19 30 19 7 1 146 176 175 221
11 19 3641 353 6297 580 l2712 232 198 -130 197 -131 3595 373 3595 374 3195
604 3195 604 2032 888 c1197 524 2029 893 2024 898 -18 18 -242 26 -1216 42
-550 8 -1064 18 -1142 21 l-143 6 0 475 0 476 40 43 40 44 0 661 0 662 -40 43
-40 44 0 480 0 480 58 0 c31 0 494 6 1027 15 940 14 1351 27 1407 42 23 7
-295 149 -2010 900 l-2037 892 -3205 605 -3205 606 -3588 371 -3587 372 -198
-131 -197 -130 -2850 243 c-1766 151 -3471 303 -4483 399 -898 86 -1639 156
-1647 156 -8 0 -54 52 -102 115 -48 63 -93 115 -100 115 -6 0 -18 9 -26 21
-13 18 -219 51 -2328 369 l-2314 349 -1505 311 c-828 171 -1508 312 -1512 313
-5 1 42 61 104 132 84 98 117 129 132 127 12 -1 505 -106 1096 -232 l1075
-230 2351 -370 c1294 -203 2359 -370 2367 -370 9 0 40 30 69 68 30 37 77 96
105 132 l51 66 -195 224 c-108 124 -234 274 -280 335 -47 60 -88 111 -91 112
-4 2 -1094 183 -2422 402 l-2415 400 -2100 476 -2100 476 -1690 561 c-929 309
-1694 563 -1700 565 -5 2 -83 -63 -173 -143z m6593 -7234 c339 -43 953 -109
1558 -169 l998 -97 161 -161 161 -161 -8 -196 -7 -196 -1024 0 -1024 0 0 -47
c0 -27 -3 -72 -6 -100 l-7 -53 -266 0 -266 0 -445 616 c-245 339 -449 623
-454 631 -7 13 -2 14 30 9 22 -3 291 -38 599 -76z m3925 -400 c162 -16 734
-57 1270 -91 536 -34 977 -63 979 -65 4 -3 -25 -466 -35 -567 l-6 -57 -291 2
-292 3 -7 79 c-4 43 -9 80 -10 81 -3 3 -1102 25 -1220 25 l-67 0 -324 297
c-295 270 -345 323 -303 323 6 0 144 -14 306 -30z m3790 -250 c355 -22 1623
-103 2818 -180 1195 -77 2237 -143 2315 -146 78 -4 150 -10 159 -13 9 -3 -866
-47 -1945 -96 l-1962 -90 -1108 -3 -1107 -3 5 53 c8 79 35 463 35 499 l0 31
73 -6 c39 -3 362 -24 717 -46z m6786 -650 c325 -22 597 -40 605 -41 8 0 -154
-40 -359 -88 -205 -48 -374 -90 -376 -92 -2 -2 -6 -18 -7 -35 -3 -24 5 -41 39
-80 23 -27 42 -51 42 -54 0 -3 -57 -36 -128 -72 l-127 -67 -695 89 -695 89
-36 -29 -37 -29 -1048 130 c-577 72 -1051 132 -1053 135 -2 2 -2 6 0 9 6 6
3204 181 3249 177 19 -1 301 -20 626 -42z m-5726 -260 l0 -30 240 0 240 0 613
-91 c560 -83 613 -89 622 -74 5 9 15 23 20 31 8 12 150 -6 930 -117 506 -72
926 -132 932 -134 10 -3 10 -10 1 -30 -6 -14 -9 -28 -5 -31 3 -3 255 -40 561
-83 305 -42 558 -79 561 -82 2 -3 -33 -27 -80 -53 l-85 -47 -397 20 c-219 11
-433 23 -475 26 l-78 6 0 -345 0 -346 -292 0 c-161 0 -337 -3 -390 -7 l-98 -6
0 71 0 72 -925 0 -925 0 0 -93 0 -94 -337 -6 c-186 -4 -465 -7 -620 -7 l-283
0 0 225 0 225 46 0 c25 0 65 5 90 11 l45 12 -3 145 -3 145 -45 13 c-36 11
-187 14 -736 14 l-691 0 -6 113 c-12 199 -9 307 8 307 11 0 15 20 17 103 l3
102 40 3 c22 2 42 7 45 12 5 8 1024 46 1318 49 l142 1 0 -30z m-2060 -134 c0
-73 4 -106 12 -108 9 -3 14 -60 16 -211 l4 -207 -26 0 -26 0 0 -170 0 -170
705 0 705 0 0 -575 0 -575 -705 0 -705 0 0 -170 0 -170 26 0 26 0 -3 -207 c-3
-154 -7 -207 -16 -211 -9 -2 -13 -34 -13 -113 l0 -109 -412 5 c-227 3 -495 8
-594 11 l-181 6 -7 52 c-3 28 -6 72 -6 99 l0 47 -152 1 c-388 3 -947 15 -952
20 -4 3 -11 46 -17 95 -16 147 -6 134 -108 134 l-88 0 -6 83 c-9 107 -9 1901
-1 2000 l7 77 88 0 88 0 5 33 c3 17 11 70 17 117 6 47 11 86 12 87 1 1 200 4
442 7 242 4 491 9 553 12 l112 6 0 46 c0 26 3 71 6 99 l7 53 301 3 c165 1 433
3 594 5 l292 2 0 -104z m3030 -1676 l0 -100 925 0 925 0 0 70 0 70 390 0 390
0 0 -345 0 -345 78 1 c42 0 255 10 472 23 l395 23 95 -51 95 -50 -35 -7 c-19
-4 -273 -40 -565 -80 -291 -40 -534 -76 -539 -80 -6 -5 -5 -18 2 -34 6 -14 11
-25 9 -25 -1 -1 -420 -61 -932 -134 -809 -117 -931 -132 -940 -119 -34 50 16
54 -656 -45 l-624 -93 -227 1 -228 0 0 -32 0 -31 -147 6 c-82 3 -410 14 -730
24 -321 9 -583 21 -583 25 0 4 -18 8 -39 8 -49 0 -51 6 -51 126 0 77 -3 94
-15 94 -17 0 -20 106 -8 308 l6 112 694 0 c481 0 708 3 739 11 l45 12 -3 145
-3 145 -45 13 c-25 8 -64 14 -87 14 l-43 0 0 220 0 220 620 0 620 0 0 -100z
m4576 -1146 c68 -36 124 -68 124 -71 0 -3 -18 -25 -40 -50 -45 -51 -55 -105
-22 -121 9 -5 181 -47 382 -93 201 -46 354 -85 340 -86 -14 -2 -303 -21 -643
-44 l-619 -41 -1606 87 c-884 48 -1609 89 -1611 91 -2 2 -2 7 2 10 3 3 476 65
1050 137 l1045 131 40 -28 41 -28 658 85 c362 47 675 85 697 86 29 1 67 -14
162 -65z m-8183 -631 c14 -135 39 -564 33 -570 -3 -4 -446 -35 -984 -69 -829
-53 -1353 -94 -1539 -119 -37 -5 -43 -4 -43 12 0 15 363 360 596 566 l42 37
642 14 c353 8 644 16 646 19 3 3 7 31 10 63 3 33 7 69 10 82 l4 22 289 0 288
0 6 -57z m4882 -45 c1139 -51 2061 -94 2050 -95 -11 -1 -101 -7 -200 -12 -99
-6 -1475 -92 -3057 -193 -1582 -100 -2879 -180 -2881 -178 -2 3 -12 118 -21
255 -9 138 -19 266 -22 285 l-5 35 1033 -2 1033 -3 2070 -92z m-10211 46 c3
-26 6 -69 6 -95 l0 -49 1024 0 1024 0 7 -195 7 -195 -70 -77 c-39 -43 -111
-118 -159 -166 l-89 -88 -1015 -99 c-659 -65 -1217 -126 -1594 -174 -319 -40
-581 -72 -583 -71 -2 2 200 285 449 629 l452 626 267 0 267 0 7 -46z"/>
</g>
</svg>
