<?xml version="1.0" standalone="no"?>
<!DOCTYPE svg PUBLIC "-//W3C//DTD SVG 20010904//EN"
 "http://www.w3.org/TR/2001/REC-SVG-20010904/DTD/svg10.dtd">
<svg version="1.0" xmlns="http://www.w3.org/2000/svg"
   viewBox="0 0 4491.000000 989.000000"
 preserveAspectRatio="xMidYMid meet">
<metadata>
Created by potrace 1.16, written by Peter Selinger 2001-2019
</metadata>
<g transform="translate(0.000000,989.000000) scale(0.100000,-0.100000)"
fill="#000000" stroke="none">
<path d="M12400 9855 l0 -35 -865 0 -865 0 0 -50 c0 -27 -1 -51 -2 -51 -2 -1
-380 -7 -841 -14 l-837 -13 -250 -52 -250 -53 0 -334 c0 -183 2 -333 5 -333 2
0 112 -31 244 -70 l239 -70 545 0 545 0 46 -138 c25 -75 46 -140 46 -145 0
-10 -188 -9 -192 1 -1 5 -100 23 -219 40 l-217 32 -813 0 -812 0 -134 25 c-73
15 -157 37 -186 50 l-52 25 -557 0 -558 0 0 -420 0 -420 -138 0 -137 0 -150
191 -150 190 -95 -6 c-155 -9 -170 -13 -170 -41 0 -20 -5 -24 -30 -25 -16 -1
-36 -2 -42 -3 -7 -1 -14 9 -16 22 -2 15 -10 22 -25 22 -36 1 -3940 -301 -3965
-306 -17 -3 -22 -11 -22 -38 0 -18 -3 -54 -6 -80 l-7 -46 -448 0 c-293 0 -449
-3 -449 -10 0 -6 -35 -10 -85 -10 -69 0 -85 3 -85 15 0 12 -13 15 -62 14 -48
0 -96 -12 -198 -47 l-135 -47 -3 -446 c-2 -419 -1 -447 15 -454 213 -83 383
-118 383 -80 0 12 16 15 85 15 50 0 85 -4 85 -10 0 -7 156 -10 449 -10 l448 0
7 -46 c3 -26 6 -61 6 -79 0 -40 11 -45 101 -45 l69 0 0 55 c0 30 4 55 10 55 5
0 907 -70 2003 -155 1097 -85 2001 -155 2010 -155 14 0 17 -11 17 -59 l0 -59
77 -7 c61 -6 79 -4 87 7 6 8 74 94 151 191 l140 177 126 0 c69 0 275 3 457 7
l332 6 0 -236 0 -237 1485 0 1485 0 0 -222 0 -223 -395 -185 -395 -185 0 -301
0 -301 393 -186 392 -186 3 -226 2 -225 -1485 0 -1485 0 0 -230 0 -230 -457 1
-458 1 -152 192 -152 192 -58 -7 c-32 -4 -66 -8 -75 -8 -15 -1 -18 -11 -18
-56 0 -30 -2 -55 -3 -55 -2 0 -900 -70 -1996 -155 -1095 -85 -2003 -155 -2016
-155 -24 0 -25 3 -25 56 0 47 -3 55 -16 50 -9 -3 -47 -6 -85 -6 l-69 0 0 -42
c0 -24 -3 -60 -6 -80 l-7 -38 -448 0 c-392 0 -449 -2 -449 -15 0 -12 -16 -15
-85 -15 -78 0 -85 2 -85 20 0 36 -77 26 -247 -31 l-153 -51 0 -447 0 -447 143
-47 c153 -50 257 -63 257 -32 0 12 16 15 85 15 69 0 85 -3 85 -15 0 -13 57
-15 449 -15 l448 0 7 -46 c3 -26 6 -61 6 -79 l0 -33 63 -6 c50 -5 3927 -306
3941 -306 3 0 6 10 8 22 2 19 10 24 46 26 40 3 42 2 42 -26 l0 -29 83 -6 c45
-4 105 -7 133 -7 l50 0 148 185 148 185 92 0 c51 0 114 3 140 6 l46 7 0 -427
0 -426 555 0 556 0 57 29 c38 19 105 37 200 55 l142 27 813 -1 812 -1 205 30
c118 16 206 33 208 40 4 12 192 16 192 4 0 -5 -20 -69 -44 -143 l-44 -135
-533 -2 -534 -3 -257 -72 -258 -72 0 -333 c0 -183 2 -333 4 -333 2 0 109 -23
237 -51 l234 -51 700 -13 c385 -8 769 -14 853 -14 l152 -1 0 -56 0 -56 865 3
865 4 0 -32 0 -33 318 0 318 0 204 69 c113 37 250 91 305 118 55 28 138 61
185 73 105 28 103 27 234 125 93 70 122 99 230 236 l123 156 -82 90 c-81 89
-82 90 -95 166 l-13 77 -919 0 c-732 0 -919 3 -915 13 2 6 20 54 38 104 l34
93 1211 0 1212 0 96 -35 97 -35 522 0 522 0 95 35 c130 48 232 49 357 5 l85
-30 528 0 529 0 81 30 c80 29 85 30 272 30 190 0 191 0 337 -39 130 -35 163
-40 306 -46 88 -3 162 -11 163 -16 5 -13 6106 -10 6457 3 149 6 925 12 1725
15 1215 3 1507 1 1767 -12 172 -8 424 -15 559 -15 223 0 248 -2 272 -19 21
-14 61 -21 187 -30 351 -26 8374 -38 8841 -12 131 7 246 19 330 35 104 20 197
28 484 41 231 11 466 28 673 51 174 19 350 34 389 34 42 0 229 27 453 64 209
35 421 69 470 76 113 14 682 158 710 180 6 4 84 31 175 58 91 28 206 70 255
93 92 42 229 93 480 179 77 26 183 67 235 90 52 23 156 64 230 91 261 95 271
100 277 130 5 26 31 40 337 178 182 82 376 169 431 194 55 24 165 80 245 124
l145 81 3 85 c1 48 -1 100 -5 116 l-8 30 -290 -123 c-159 -67 -402 -172 -540
-233 l-250 -110 -193 -27 c-183 -25 -205 -31 -423 -106 l-229 -79 0 99 c0 55
-2 100 -5 100 -3 0 -126 -33 -273 -74 -272 -75 -746 -186 -793 -184 -14 0 -61
-7 -105 -16 -43 -10 -198 -30 -344 -45 l-265 -28 -167 63 -166 64 -229 -19
-228 -20 -50 48 c-27 26 -120 115 -206 197 l-156 151 -114 6 c-63 4 -301 7
-529 7 l-415 1 -100 159 -100 160 -478 0 -478 0 -192 155 -192 155 -322 0
-323 0 0 610 0 610 430 0 430 0 0 30 0 30 -430 0 -430 0 0 108 0 109 437 6
c240 4 528 7 639 7 124 0 205 4 209 10 4 7 -171 10 -518 10 -288 0 -579 3
-645 7 -119 6 -122 7 -122 30 l0 23 609 0 c335 0 623 3 641 6 90 19 -48 24
-622 24 l-628 0 0 115 0 115 430 0 430 0 0 30 0 30 -430 0 -430 0 0 610 0 610
326 0 327 0 192 155 192 155 475 0 474 0 100 158 99 157 526 5 526 5 204 198
204 199 75 -6 c41 -3 147 -11 236 -17 l161 -13 163 64 162 64 262 -28 c143
-15 303 -36 355 -46 52 -11 97 -17 101 -15 15 9 594 -127 825 -193 l240 -69 3
98 c1 55 6 99 10 99 4 0 109 -34 232 -75 198 -67 248 -79 419 -106 l194 -31
261 -115 c357 -158 808 -344 815 -337 3 3 8 54 9 113 l4 108 -174 94 c-95 52
-227 117 -293 146 -66 28 -246 108 -400 176 -258 116 -281 128 -297 159 -18
38 -48 53 -248 123 -58 21 -168 63 -245 95 -77 32 -165 65 -195 75 -127 40
-470 170 -533 201 -37 19 -147 59 -245 89 -97 30 -204 63 -236 75 -96 33 -542
151 -594 156 -26 3 -246 39 -489 80 -277 46 -470 74 -517 74 -42 0 -221 16
-398 34 -203 22 -453 41 -673 51 -280 13 -375 21 -475 40 -93 19 -187 27 -370
35 -534 24 -8374 14 -8751 -10 -165 -11 -188 -15 -221 -36 -37 -24 -40 -24
-318 -24 -154 0 -421 -7 -593 -15 -257 -13 -555 -15 -1682 -12 -945 2 -1424 7
-1545 15 -255 18 -6594 12 -6825 -7 -129 -10 -188 -20 -302 -52 -141 -38 -146
-39 -315 -39 -172 0 -173 0 -271 35 l-98 35 -522 0 -522 0 -98 -35 c-137 -49
-196 -48 -340 5 l-108 40 -514 0 -513 0 -99 -37 -98 -37 -225 0 c-124 -1 -671
0 -1215 2 l-991 2 -36 98 -36 97 918 3 917 2 12 73 c15 86 24 101 112 192 l68
70 -124 159 c-114 145 -134 166 -242 246 -106 79 -127 90 -209 114 -50 14
-140 48 -200 77 -60 28 -198 82 -308 120 l-198 69 -319 0 -319 0 0 -35z"/>
</g>
</svg>
