<?xml version="1.0" standalone="no"?>
<!DOCTYPE svg PUBLIC "-//W3C//DTD SVG 20010904//EN"
 "http://www.w3.org/TR/2001/REC-SVG-20010904/DTD/svg10.dtd">
<svg version="1.0" xmlns="http://www.w3.org/2000/svg"
   viewBox="0 0 3809.000000 3682.000000"
 preserveAspectRatio="xMidYMid meet">
<metadata>
Created by potrace 1.16, written by Peter Selinger 2001-2019
</metadata>
<g transform="translate(0.000000,3682.000000) scale(0.100000,-0.100000)"
fill="#000000" stroke="none">
<path d="M8090 36711 l-495 -106 -311 -331 c-284 -302 -312 -335 -323 -380 -7
-27 -107 -443 -222 -924 l-210 -875 -75 -570 c-40 -313 -74 -573 -74 -576 0
-4 -43 -12 -95 -19 -86 -10 -123 -23 -393 -136 -282 -118 -316 -130 -677 -230
-311 -87 -414 -111 -565 -134 -179 -27 -185 -28 -210 -58 -21 -26 -33 -73 -83
-324 -34 -173 -66 -369 -78 -478 -46 -440 -52 -1421 -11 -1867 l7 -75 215 -83
c118 -46 359 -143 535 -217 l320 -133 163 -128 162 -128 -5 -37 c-3 -20 -23
-201 -46 -402 -22 -201 -84 -664 -137 -1030 l-98 -665 -59 -7 c-33 -3 -359
-11 -725 -18 l-665 -11 -257 -110 -257 -109 -428 -49 c-235 -27 -754 -82
-1153 -120 -399 -39 -739 -73 -756 -76 -21 -4 -69 -40 -155 -119 l-124 -113
-135 -358 -135 -357 -106 -102 -106 -102 -100 -229 -100 -230 -51 -250 c-47
-230 -52 -268 -61 -470 -10 -206 -9 -236 14 -460 13 -132 40 -323 59 -425 35
-184 35 -186 145 -439 l111 -254 95 -91 95 -91 134 -350 134 -350 144 -81 143
-81 750 -72 c747 -72 751 -72 1050 -132 l300 -60 375 -179 375 -178 975 -22
c536 -12 994 -24 1018 -27 41 -5 42 -6 57 -57 23 -82 225 -868 225 -876 0 -4
-188 -11 -417 -14 -336 -6 -457 -4 -618 8 -110 9 -258 16 -328 16 l-128 0 5
-32 c3 -18 58 -474 121 -1013 l115 -980 175 -2090 c161 -1913 191 -2234 351
-3795 159 -1552 185 -1833 289 -3130 63 -784 227 -2777 364 -4430 195 -2349
252 -3073 261 -3315 7 -171 15 -326 18 -346 6 -30 41 -68 217 -240 l210 -204
115 -28 c95 -24 230 -39 772 -91 l657 -62 653 72 c359 40 692 81 740 91 l87
18 226 184 c133 108 227 193 230 205 3 12 25 165 50 341 79 561 1107 6919
1121 6930 6 6 162 29 345 50 l332 40 278 295 278 295 1 488 0 488 -277 294
c-223 238 -282 296 -307 300 -17 2 -92 12 -166 20 -74 9 -136 18 -139 21 -6 6
300 2057 308 2065 3 3 148 25 321 48 173 23 323 45 333 47 10 3 164 161 342
352 l325 346 0 576 0 576 -256 275 c-390 417 -402 429 -435 429 -15 0 -30 4
-33 8 -3 5 210 222 472 484 l477 476 835 418 835 417 320 59 c176 32 545 97
820 143 l500 85 880 86 880 85 1045 44 c575 25 1543 65 2151 90 l1106 44 328
76 c180 41 336 75 346 75 17 0 19 -9 19 -114 l0 -115 48 -8 c62 -10 2172 -10
2235 0 l47 8 0 98 0 99 43 6 43 7 47 157 c26 86 55 164 65 173 9 9 220 138
468 287 330 197 567 330 880 494 236 123 472 243 524 267 73 34 149 85 328
219 146 109 234 183 237 196 28 126 35 236 35 570 l0 353 1331 8 1331 7 41
-40 42 -39 3279 147 c3034 137 3281 150 3293 166 16 22 16 34 0 54 -10 14
-457 35 -3293 155 l-3281 139 -42 -33 -42 -33 -1457 12 -1457 13 -119 90 c-98
74 -151 105 -290 170 l-171 79 -223 -37 c-123 -20 -225 -35 -227 -33 -2 2 132
111 298 243 253 201 343 265 555 398 198 124 285 172 405 223 83 36 231 101
327 145 l175 80 200 248 c195 241 202 249 275 288 61 33 101 46 205 67 124 24
137 29 275 104 80 44 219 118 310 165 l165 86 47 78 c42 71 48 91 73 228 27
145 28 162 27 475 0 320 -1 327 -30 476 -29 143 -33 156 -78 224 l-48 72 -161
80 c-88 44 -223 115 -300 159 -133 74 -147 80 -276 107 -112 24 -152 38 -225
77 l-89 48 -179 233 c-99 129 -186 240 -195 248 -18 16 -332 162 -551 256 -80
35 -153 68 -162 74 -9 7 -48 51 -86 99 l-70 86 -7 277 -7 277 -39 66 -38 66
277 6 c152 4 408 7 567 8 l290 1 765 94 765 94 335 107 c184 59 342 114 351
121 8 8 26 36 39 63 l22 49 -30 44 -30 44 -354 87 -353 87 -740 96 -740 95
-1660 19 c-913 11 -1740 20 -1837 20 l-178 0 0 183 0 184 278 6 c152 4 334 7
405 7 l127 0 0 350 0 350 180 0 c99 0 180 3 180 8 0 4 -23 124 -52 267 l-52
260 -155 238 -154 238 -241 189 -241 188 -305 122 -305 122 -338 42 -338 42
-335 -42 -335 -42 -307 -123 -306 -123 -240 -188 -239 -188 -154 -238 c-85
-130 -156 -246 -159 -257 -2 -11 -24 -119 -48 -240 -25 -121 -47 -232 -51
-247 l-7 -28 181 0 181 0 0 -350 0 -350 138 0 c75 0 262 -3 415 -7 l277 -6 0
-404 c0 -221 -1 -403 -3 -403 -1 0 -243 -31 -537 -69 l-535 -70 -395 59 -395
58 -929 -80 -930 -79 -456 -285 -457 -285 -219 -215 -219 -215 -220 -25 -219
-25 -391 52 c-214 29 -395 56 -402 61 -6 5 -50 75 -98 156 -47 81 -145 241
-218 356 l-132 210 -129 58 c-114 51 -137 58 -193 58 -135 0 -745 -118 -906
-175 -70 -25 -78 -31 -156 -121 -45 -52 -86 -104 -91 -117 -16 -38 -107 -426
-129 -552 -12 -66 -23 -129 -26 -141 -4 -19 -16 -21 -142 -32 l-138 -13 -430
84 -431 83 -226 142 c-125 78 -233 144 -240 147 -7 3 -144 23 -305 45 l-291
39 -58 -19 c-31 -11 -63 -20 -69 -20 -20 0 -63 119 -70 194 -4 38 -36 169 -71
290 -48 162 -81 306 -124 536 -50 268 -90 432 -264 1095 -113 429 -206 783
-206 787 0 4 63 60 140 123 l140 116 0 92 c0 398 -34 1458 -60 1870 l-30 468
-207 487 c-113 268 -208 489 -210 491 -1 2 -229 51 -505 108 -277 58 -504 106
-505 107 -1 1 -63 244 -137 541 -123 493 -576 2207 -594 2247 -4 9 -149 164
-322 345 l-315 328 -540 107 c-297 59 -549 107 -560 106 -11 0 -243 -48 -515
-107z m7158 -15013 c110 -11 123 -14 127 -33 3 -11 14 -74 25 -140 20 -114 28
-137 162 -442 l142 -322 85 -30 c169 -59 755 -171 895 -171 l63 0 264 273
c240 247 270 282 328 380 35 59 68 107 73 107 15 0 1077 -149 1110 -156 15 -3
109 -70 209 -149 l181 -143 152 -57 151 -57 675 -100 675 -99 1425 -34 c1367
-33 1484 -37 1728 -70 l42 -6 0 -145 c0 -131 -2 -144 -17 -144 -10 0 -310 -16
-668 -36 l-650 -36 -1345 81 -1345 80 -605 -15 -605 -15 -2015 -164 -2015
-164 -1784 -40 c-982 -22 -1787 -38 -1790 -35 -8 7 -33 586 -26 593 6 6 95
-83 150 -150 l30 -36 595 32 c327 18 596 33 598 34 1 1 2 12 2 25 0 13 13 53
30 89 35 79 19 74 272 83 l177 6 45 77 c32 56 52 109 76 201 28 111 145 408
170 434 5 5 34 0 69 -13 l60 -22 298 41 c163 23 302 44 307 47 6 4 112 69 235
146 l224 141 431 82 c237 45 438 83 446 83 8 1 70 -4 138 -11z"/>
</g>
</svg>
