<?xml version="1.0" standalone="no"?>
<!DOCTYPE svg PUBLIC "-//W3C//DTD SVG 20010904//EN"
 "http://www.w3.org/TR/2001/REC-SVG-20010904/DTD/svg10.dtd">
<svg version="1.0" xmlns="http://www.w3.org/2000/svg"
   viewBox="0 0 4116.000000 814.000000"
 preserveAspectRatio="xMidYMid meet">
<metadata>
Created by potrace 1.16, written by Peter Selinger 2001-2019
</metadata>
<g transform="translate(0.000000,814.000000) scale(0.100000,-0.100000)"
fill="#000000" stroke="none">
<path d="M31868 8125 c-27 -7 -64 -27 -83 -44 l-36 -31 -212 0 -213 0 -40 29
c-58 42 -146 55 -318 47 -148 -7 -228 -24 -269 -57 -23 -18 -42 -19 -276 -19
-240 0 -253 1 -280 21 -50 37 -149 51 -306 44 -157 -7 -227 -19 -267 -46 -24
-17 -48 -19 -276 -19 -201 0 -252 3 -261 14 -41 49 -491 44 -546 -5 -5 -5
-379 -9 -832 -9 l-823 0 0 -575 0 -575 183 -1 c100 -1 -1080 -43 -2623 -95
-1543 -51 -2853 -93 -2911 -93 -104 -1 -107 -2 -113 -24 -5 -23 -12 -25 -138
-37 -73 -6 -232 -16 -353 -20 l-220 -8 -25 31 -26 30 -369 -12 c-204 -6 -905
-29 -1560 -51 -1467 -49 -3687 -120 -3755 -120 l-50 0 0 -315 0 -315 -1085 0
-1085 0 0 75 0 75 -135 0 c-91 0 -371 23 -862 70 l-728 70 -280 76 -280 77
-400 -7 c-220 -4 -717 -13 -1105 -21 -388 -8 -1058 -22 -1490 -30 l-785 -15
-2080 -200 c-1144 -110 -2104 -202 -2132 -205 -47 -6 -53 -9 -53 -30 0 -20 -7
-25 -47 -34 -27 -5 -557 -127 -1180 -270 -623 -144 -1135 -261 -1138 -261 -3
0 -4 -534 -3 -1187 l3 -1187 1183 -270 1182 -270 0 -26 0 -25 2119 -204 2120
-203 393 -9 c216 -4 902 -17 1523 -29 622 -11 1299 -24 1507 -30 l376 -9 274
75 273 75 765 75 c421 40 813 74 873 74 l107 0 0 75 0 75 1085 0 1085 0 0
-315 0 -315 24 0 c13 0 698 -22 1522 -50 825 -27 1929 -63 2454 -80 525 -16
1249 -39 1609 -51 l654 -22 24 29 23 29 126 -4 c91 -2 143 -9 182 -22 30 -10
71 -19 90 -19 20 0 43 -6 51 -14 21 -18 618 -41 638 -24 19 16 462 -1 488 -18
21 -15 170 -20 179 -6 3 5 109 7 237 5 180 -3 236 -7 248 -17 16 -14 686 -39
3051 -111 448 -14 824 -27 835 -29 11 -2 -91 -4 -227 -5 l-248 -1 0 -580 0
-580 818 0 c751 0 821 -2 862 -18 67 -25 447 -25 504 0 33 16 72 18 295 18
219 0 263 -3 301 -18 67 -25 449 -25 499 1 30 15 67 17 315 17 243 0 287 -3
326 -18 67 -25 449 -25 499 0 30 16 66 18 290 18 216 0 263 -3 301 -17 35 -13
87 -18 234 -21 172 -3 195 -2 256 18 65 21 77 21 391 15 508 -9 552 -9 939 4
l365 13 274 108 274 108 61 73 c34 41 208 246 388 457 l328 383 442 341 c244
187 451 349 461 360 11 14 17 37 17 74 l0 54 183 2 c100 2 221 2 268 0 120 -4
575 57 1199 162 l505 85 353 106 c257 78 439 140 675 231 288 112 352 142 608
279 281 149 291 156 475 305 168 135 205 171 335 322 81 95 166 183 191 199
l44 29 29 159 28 160 -28 155 -29 156 -45 32 c-25 17 -109 105 -186 196 -125
146 -161 181 -335 321 -193 156 -199 160 -479 310 -253 135 -318 165 -605 276
-240 93 -412 152 -676 230 l-355 106 -495 85 c-272 47 -630 103 -794 125 -288
38 -310 39 -583 39 l-283 0 0 63 c0 35 -6 70 -12 79 -7 9 -215 172 -461 361
l-448 345 -349 406 c-191 223 -365 427 -386 454 -38 48 -41 49 -311 155 l-272
107 -251 0 c-201 0 -255 3 -273 14 -48 31 -181 48 -350 45 -159 -4 -163 -5
-198 -31 l-36 -28 -256 0 c-142 0 -256 4 -254 8 4 17 -65 65 -106 73 -68 13
-386 9 -439 -6z"/>
</g>
</svg>
