<?xml version="1.0" standalone="no"?>
<!DOCTYPE svg PUBLIC "-//W3C//DTD SVG 20010904//EN"
 "http://www.w3.org/TR/2001/REC-SVG-20010904/DTD/svg10.dtd">
<svg version="1.0" xmlns="http://www.w3.org/2000/svg"
   viewBox="0 0 3886.000000 890.000000"
 preserveAspectRatio="xMidYMid meet">
<metadata>
Created by potrace 1.16, written by Peter Selinger 2001-2019
</metadata>
<g transform="translate(0.000000,890.000000) scale(0.100000,-0.100000)"
fill="#000000" stroke="none">
<path d="M8098 8860 l-247 -38 -423 -155 c-233 -85 -803 -279 -1268 -430
l-845 -276 -1075 -231 -1075 -232 -251 -123 -252 -122 4 -114 c3 -63 10 -153
16 -201 l11 -88 1011 -2 1011 -3 -512 -278 c-281 -153 -518 -284 -527 -290
-13 -10 -14 -19 -5 -53 l11 -41 565 -184 c310 -101 561 -185 556 -186 -4 -1
-1079 -272 -2388 -603 -1309 -330 -2388 -603 -2397 -606 -16 -5 -18 -21 -18
-155 0 -82 3 -149 6 -149 16 0 4780 -1204 4787 -1210 4 -3 -243 -87 -549 -185
-596 -193 -568 -181 -576 -250 -3 -24 26 -41 525 -313 l527 -287 -1014 -3
-1014 -2 -11 -83 c-6 -45 -12 -135 -15 -200 l-3 -117 246 -121 246 -121 1100
-238 1100 -239 845 -276 c487 -159 1016 -339 1250 -425 l405 -150 260 -38 260
-38 1520 27 1520 28 1470 105 c809 58 1603 111 1765 117 l295 12 88 36 89 36
135 161 c74 88 149 187 166 220 l32 59 140 7 c942 50 3600 165 4370 189 539
17 989 32 1001 35 11 2 26 14 33 27 l13 24 331 -49 c222 -32 515 -85 882 -159
418 -85 598 -117 749 -134 l199 -21 1736 72 1736 72 1200 122 1200 121 1300
235 1300 235 272 114 c216 90 301 131 411 199 l138 86 62 137 c37 84 67 169
77 218 8 44 19 82 23 86 4 3 75 16 157 28 83 13 562 95 1065 182 734 128 1037
185 1532 291 668 144 622 129 601 183 -5 15 357 7 429 -10 57 -13 57 -13 240
45 101 32 368 122 594 202 l411 144 344 193 c308 174 364 209 533 339 l189
145 68 144 69 144 -67 145 -68 145 -185 141 c-164 126 -225 164 -535 339
l-350 197 -455 160 c-250 88 -516 179 -590 202 -130 41 -136 42 -189 30 -37
-8 -442 -31 -441 -25 0 0 4 15 9 33 5 17 8 32 5 32 -2 0 -276 58 -607 130
-483 104 -784 161 -1522 289 -506 88 -981 170 -1055 181 -74 11 -147 23 -161
26 -24 5 -28 12 -45 94 -12 61 -38 133 -79 222 l-61 133 -140 86 c-109 67
-197 110 -408 198 l-268 112 -1287 235 -1286 234 -1230 125 -1230 125 -1720
69 -1720 70 -188 -20 c-140 -15 -336 -50 -755 -134 -367 -73 -682 -130 -891
-160 l-325 -47 -20 25 -21 25 -965 31 c-531 18 -1694 65 -2585 106 -1892 87
-1832 84 -1911 91 l-60 5 -26 52 c-14 29 -87 126 -163 217 l-138 165 -86 36
-87 36 -275 12 c-151 7 -969 61 -1819 121 l-1545 108 -1275 21 c-701 12 -1369
23 -1485 26 -205 4 -216 3 -457 -35z"/>
</g>
</svg>
