<?xml version="1.0" standalone="no"?>
<!DOCTYPE svg PUBLIC "-//W3C//DTD SVG 20010904//EN"
 "http://www.w3.org/TR/2001/REC-SVG-20010904/DTD/svg10.dtd">
<svg version="1.0" xmlns="http://www.w3.org/2000/svg"
   viewBox="0 0 4028.000000 3240.000000"
 preserveAspectRatio="xMidYMid meet">
<metadata>
Created by potrace 1.16, written by Peter Selinger 2001-2019
</metadata>
<g transform="translate(0.000000,3240.000000) scale(0.100000,-0.100000)"
fill="#000000" stroke="none">
<path d="M12120 32171 l0 -229 -47 -10 c-27 -6 -229 -47 -451 -92 l-403 -82
-302 -178 -302 -178 0 -1032 0 -1033 252 -86 253 -86 0 -3836 0 -3836 38 -7
c20 -3 62 -6 92 -6 30 0 61 -4 68 -8 10 -7 -25 -111 -148 -442 -130 -353 -160
-444 -160 -486 l0 -51 -517 -7 c-612 -8 -1404 -23 -1695 -32 l-208 -6 0 41 0
41 -499 0 -499 0 -53 64 -54 65 -192 0 -193 1 0 140 0 140 -565 0 -565 0 0
-140 0 -140 -185 0 -185 0 0 140 0 140 -560 0 -560 0 0 -140 0 -140 -165 0
-165 0 0 -235 0 -235 -635 0 -634 0 -3 -115 -3 -114 -52 39 -52 40 -603 0
-603 0 -74 250 c-41 137 -77 254 -81 260 -4 7 -37 10 -87 8 l-80 -3 77 -257
77 -258 -482 0 -482 0 -68 228 c-37 125 -72 242 -77 260 l-9 32 -84 0 c-47 0
-85 -2 -85 -5 0 -3 32 -112 71 -243 38 -130 72 -245 75 -254 5 -16 -3 -18 -76
-18 -82 0 -83 0 -131 -41 l-49 -41 0 -139 0 -139 61 0 c60 0 62 1 152 70 50
38 96 70 103 70 6 0 37 -88 70 -196 l58 -196 -62 -251 -62 -252 0 -700 0 -700
64 -291 c36 -161 76 -333 90 -383 13 -50 22 -91 19 -91 -3 0 -37 18 -75 40
l-70 40 -174 0 -174 0 0 -139 0 -139 44 -36 44 -36 1341 0 c1185 0 1341 -2
1341 -15 0 -13 -37 -15 -272 -15 l-273 -1 -57 -66 -58 -66 0 -126 0 -126 61
-68 61 -67 269 0 c173 0 269 -4 269 -10 0 -7 -452 -10 -1336 -10 l-1336 0 -49
-37 -48 -38 -1 -142 0 -143 173 0 172 0 75 44 c41 24 76 43 77 42 1 -1 -9 -42
-23 -91 -13 -50 -54 -222 -89 -383 l-65 -294 0 -701 0 -702 62 -251 62 -251
-59 -196 c-32 -109 -63 -197 -68 -197 -5 0 -51 32 -101 70 -91 69 -93 70 -154
70 l-62 0 0 -139 0 -139 44 -36 c43 -35 46 -36 130 -36 47 0 86 -3 86 -6 0 -4
-34 -120 -75 -259 -41 -139 -75 -256 -75 -259 0 -3 38 -6 84 -6 l83 0 79 265
78 265 483 0 482 0 -16 -52 c-8 -29 -44 -147 -78 -263 l-62 -210 80 -3 c44 -2
82 -1 84 2 2 2 39 120 82 263 l77 258 609 3 608 2 43 35 c23 19 45 35 48 35 3
0 6 -52 6 -115 l0 -115 635 0 635 0 0 -235 0 -235 165 0 165 0 0 -140 0 -140
560 0 560 0 0 140 0 140 185 0 185 0 0 -140 0 -140 565 0 565 0 0 140 0 140
189 0 189 0 57 65 57 65 499 0 499 0 0 42 0 41 253 -6 c138 -4 556 -11 927
-17 371 -6 802 -13 958 -16 l282 -6 0 -51 c0 -41 31 -136 161 -485 88 -239
158 -436 156 -438 -2 -3 -50 -7 -106 -11 l-101 -6 -2 -3840 -3 -3839 -250 -87
-250 -86 -3 -1031 -2 -1031 307 -180 308 -179 380 -78 c209 -43 410 -84 448
-93 l67 -15 0 -229 0 -229 1790 0 1790 0 0 230 0 230 108 0 107 0 188 360 187
360 0 2675 0 2675 53 0 c52 0 54 1 120 68 l67 68 0 139 0 140 -50 22 -50 22 0
320 0 321 50 25 50 25 0 143 0 143 -68 67 c-66 66 -69 67 -120 67 l-52 0 0
578 0 577 488 264 c268 146 580 320 695 388 l207 124 0 261 0 260 45 -37 c25
-20 60 -41 78 -45 17 -5 196 -37 396 -70 l364 -61 356 61 c196 33 368 63 384
66 15 3 78 48 139 100 l111 93 119 3 120 3 110 203 c104 193 111 209 124 295
8 51 16 106 19 122 l5 30 347 -22 c190 -13 348 -25 350 -27 2 -2 16 -104 32
-228 l28 -225 113 -206 112 -207 109 0 109 0 126 -100 c70 -55 131 -100 135
-100 4 0 179 -29 388 -65 l380 -66 383 67 383 67 118 99 119 98 112 0 111 1
110 206 110 206 21 136 c12 75 24 157 28 183 l7 48 305 0 304 0 0 -765 0 -765
2585 0 2585 0 0 165 0 165 160 0 160 0 0 330 0 330 523 0 522 0 185 30 185 30
2265 0 2265 0 198 22 197 22 0 68 c0 37 -3 68 -7 68 -5 0 -80 12 -168 25
l-160 25 -2278 0 -2279 0 -209 40 -210 40 -514 0 -515 0 0 140 0 140 -160 0
-161 0 3 133 3 132 346 35 346 34 7 325 c4 179 8 326 9 327 1 1 670 5 1487 9
l1485 7 2707 524 c2408 466 2718 524 2803 524 l95 0 0 774 0 775 43 3 42 3 3
198 2 197 100 0 100 0 0 170 0 170 70 0 c60 0 70 -2 70 -18 0 -10 17 -69 38
-132 l39 -115 190 -3 191 -2 41 115 c22 64 41 125 41 136 0 18 9 19 230 19
l230 0 0 575 0 575 -230 0 c-212 0 -230 1 -230 18 -1 9 -18 67 -39 127 l-38
110 -194 0 -193 0 -41 -127 -40 -128 -67 0 -68 0 0 170 0 170 -100 0 -100 0 0
195 0 195 -45 0 -45 0 0 775 0 775 -92 0 c-62 0 -143 10 -243 30 -253 49
-3866 751 -4611 895 l-702 135 -1464 0 -1465 0 -6 188 c-4 103 -7 251 -7 330
0 78 -3 142 -7 142 -14 0 -610 60 -650 65 l-43 6 0 135 0 134 160 0 160 0 0
140 0 140 531 0 531 0 185 35 185 35 2271 0 2272 0 188 27 187 26 0 67 0 67
-177 21 -178 22 -2275 0 -2275 0 -190 30 -190 30 -532 0 -533 0 0 335 0 335
-160 0 -160 0 0 160 0 160 -2585 0 -2585 0 0 -765 0 -765 -304 0 -304 0 -5 33
c-3 17 -16 100 -28 182 l-22 150 -111 208 -111 207 -101 0 -101 0 -131 100
-131 100 -389 68 -388 68 -380 -68 c-208 -37 -382 -67 -385 -68 -3 0 -59 -45
-124 -100 l-119 -99 -114 -3 -114 -3 -110 -203 -110 -203 -29 -222 c-16 -121
-32 -224 -37 -228 -9 -8 -682 -53 -689 -45 -3 3 -14 57 -23 120 l-18 115 -109
203 -109 203 -114 3 -113 3 -111 87 c-61 48 -117 91 -124 96 -16 10 -747 136
-787 136 -16 0 -196 -29 -398 -65 l-368 -64 -50 -42 -49 -41 0 260 0 261 -187
113 c-104 63 -416 238 -695 389 l-507 274 -1 578 0 577 53 0 c52 0 52 0 120
74 l67 74 0 140 0 139 -50 23 -50 23 0 322 0 321 50 21 50 21 0 138 0 139 -72
72 c-70 70 -74 73 -120 73 l-48 0 0 2671 0 2671 -187 359 -187 359 -108 0
-108 0 0 230 0 230 -1790 0 -1790 0 0 -229z m5025 -10748 l-53 -98 -26 -215
c-15 -118 -28 -215 -30 -217 -1 -2 -30 -6 -64 -9 -51 -6 -62 -4 -62 8 0 10
-80 50 -244 122 l-245 106 -485 0 -486 0 -5 -22 c-2 -13 -14 -88 -26 -168 -12
-80 -25 -147 -29 -150 -4 -3 -9 -103 -12 -222 -2 -120 -6 -220 -9 -222 -2 -2
-97 -6 -211 -9 l-208 -7 0 555 0 555 669 0 c423 0 671 4 673 10 3 8 739 76
860 79 l46 1 -53 -97z m-15624 -1800 l56 -191 -63 -259 c-35 -142 -63 -270
-64 -285 0 -23 -28 -47 -220 -185 l-220 -158 0 -540 0 -540 207 -207 208 -208
67 0 c38 0 68 -3 68 -7 0 -5 18 -74 39 -155 l39 -148 -482 0 -481 0 -28 104
-27 104 0 1233 0 1233 -56 185 c-30 102 -57 194 -60 204 -5 16 21 17 477 15
l483 -3 57 -192z m945 127 l56 -70 179 0 179 0 0 -160 0 -160 -369 0 -370 0
-193 -140 -193 -139 -5 187 -6 187 -47 155 c-26 85 -52 167 -57 183 l-9 27
389 0 389 0 57 -70z m135 -2788 c16 -46 31 -92 34 -103 6 -17 1 -19 -55 -19
-60 0 -62 -1 -114 -50 l-53 -50 -301 0 c-278 0 -301 1 -306 18 -36 123 -56
209 -56 247 l0 45 412 -2 411 -3 28 -83z m-965 -1309 c-5 -16 -36 -136 -67
-255 l-10 -38 -62 0 -62 0 -212 -212 -213 -213 0 -540 1 -540 217 -155 c192
-137 217 -159 220 -185 2 -17 32 -145 67 -286 l64 -255 -58 -195 -58 -194
-482 -3 c-456 -2 -482 -1 -477 15 3 10 30 102 60 205 l56 188 0 1232 0 1233
25 95 c14 52 27 101 30 108 3 9 110 12 485 12 454 0 481 -1 476 -17z m829 -38
c60 -53 64 -55 119 -55 66 0 64 12 16 -120 l-28 -75 -411 -3 -411 -2 0 41 c0
23 14 93 31 155 l31 114 295 0 295 0 63 -55z m-496 -2447 l164 -118 373 0 374
0 0 -165 0 -165 -180 0 -179 0 -57 -70 -56 -70 -389 0 c-306 0 -387 3 -384 13
2 6 29 96 60 198 l55 185 0 173 0 173 28 -18 c15 -10 101 -71 191 -136z
m13400 -1103 c2 -3 6 -101 9 -218 2 -116 8 -216 12 -222 4 -5 18 -75 30 -155
12 -80 24 -153 26 -162 5 -17 37 -18 495 -18 l489 0 240 103 c145 62 240 107
240 116 0 10 14 12 60 9 33 -2 62 -6 64 -9 3 -3 17 -101 32 -219 l28 -215 52
-95 c28 -52 51 -96 50 -97 -1 -1 -205 14 -454 34 -342 28 -452 40 -452 50 0
10 -131 13 -670 13 l-670 0 0 552 0 551 207 -7 c114 -4 209 -9 212 -11z"/>
</g>
</svg>
