<?xml version="1.0" standalone="no"?>
<!DOCTYPE svg PUBLIC "-//W3C//DTD SVG 20010904//EN"
 "http://www.w3.org/TR/2001/REC-SVG-20010904/DTD/svg10.dtd">
<svg version="1.0" xmlns="http://www.w3.org/2000/svg"
   viewBox="0 0 3205.000000 3829.000000"
 preserveAspectRatio="xMidYMid meet">
<metadata>
Created by potrace 1.16, written by Peter Selinger 2001-2019
</metadata>
<g transform="translate(0.000000,3829.000000) scale(0.100000,-0.100000)"
fill="#000000" stroke="none">
<path d="M8419 38177 l-525 -112 -325 -346 -324 -347 -232 -968 -233 -969 -75
-585 c-41 -321 -75 -587 -75 -590 0 -3 -44 -11 -97 -18 -90 -11 -124 -23 -408
-142 -303 -126 -320 -132 -725 -243 -346 -96 -442 -118 -580 -137 -237 -32
-217 -7 -291 -382 -77 -386 -96 -570 -114 -1074 -19 -551 1 -1427 33 -1455 4
-3 93 -39 197 -79 105 -39 351 -139 548 -221 l359 -150 166 -131 c92 -72 168
-132 170 -133 2 -2 -15 -171 -38 -376 -37 -348 -246 -1836 -259 -1851 -3 -4
-343 -13 -756 -21 l-750 -14 -265 -112 -265 -112 -430 -50 c-236 -27 -790 -85
-1229 -129 l-799 -80 -71 -64 c-39 -35 -99 -90 -134 -122 l-62 -59 -140 -370
-139 -370 -111 -105 -110 -105 -102 -230 -101 -230 -53 -259 c-52 -248 -55
-271 -65 -500 -11 -223 -10 -258 10 -466 12 -124 38 -317 57 -430 l36 -205
117 -270 117 -270 101 -98 100 -98 138 -365 139 -364 150 -84 151 -84 790 -77
790 -77 310 -63 310 -63 380 -183 380 -182 1000 -23 c550 -12 1027 -25 1061
-29 l61 -7 122 -476 c68 -261 125 -481 128 -487 3 -10 -91 -14 -424 -17 -362
-5 -467 -2 -683 14 -246 19 -420 21 -436 6 -4 -4 50 -490 120 -1080 l126
-1073 180 -2155 c171 -2040 190 -2251 365 -3955 170 -1657 193 -1909 295
-3180 61 -759 229 -2811 375 -4560 216 -2606 267 -3246 279 -3547 l15 -366
201 -199 c111 -109 216 -207 234 -219 76 -52 195 -70 923 -140 l691 -66 649
71 c356 39 702 81 768 92 l120 22 237 195 c201 164 238 199 243 226 3 17 26
173 51 346 48 334 1152 7202 1159 7208 2 3 163 23 357 46 l352 42 288 304 287
305 0 513 1 512 -241 258 c-133 141 -263 278 -288 304 l-46 48 -175 20 c-96
12 -175 22 -175 23 -1 1 71 486 159 1077 l162 1075 69 11 c39 6 195 28 349 49
l278 38 344 366 344 366 0 593 0 594 -297 316 c-429 456 -394 422 -430 422
-18 0 -34 4 -37 8 -3 5 219 232 492 505 l497 496 870 432 870 432 290 54 c160
30 540 96 845 149 l555 95 920 89 920 90 1420 60 c781 32 1785 73 2230 90
l810 32 350 79 c193 44 360 83 373 86 22 5 22 5 22 -120 l0 -125 108 -7 c59
-4 555 -7 1102 -7 547 0 1043 3 1103 7 l107 7 0 103 0 103 44 6 44 7 48 161
c27 89 56 170 64 179 8 9 233 147 500 307 461 275 872 499 1400 763 159 79
196 103 406 262 l231 175 21 139 c20 126 22 176 22 557 0 379 -2 431 -21 553
l-22 134 -238 182 c-234 179 -241 183 -416 263 l-179 82 -229 -39 c-127 -21
-233 -38 -237 -36 -4 1 134 115 308 252 270 214 352 274 577 414 222 139 291
177 452 246 237 103 475 212 492 227 7 6 105 124 218 262 201 248 205 252 282
293 63 34 103 46 211 67 127 24 137 28 265 99 72 41 218 118 322 170 l190 95
48 77 c43 70 50 90 73 209 53 277 53 772 -1 1050 -22 120 -28 134 -76 207
l-52 79 -191 97 c-105 53 -246 127 -314 165 -114 63 -132 70 -263 98 -123 26
-153 37 -235 83 l-94 52 -191 250 -190 250 -167 78 c-92 43 -246 112 -342 154
-248 107 -238 101 -323 206 l-76 95 -7 283 -7 284 -105 187 -105 188 -101 30
c-56 17 -110 34 -121 37 -11 3 -58 43 -105 89 l-86 84 -154 6 c-151 6 -167 4
-635 -60 -433 -59 -509 -66 -765 -77 l-285 -12 -82 26 c-45 15 -436 97 -869
183 l-787 156 -846 -110 -846 -109 -413 61 -414 60 -911 -78 c-502 -43 -937
-81 -967 -85 -50 -7 -100 -35 -510 -291 -497 -309 -497 -309 -774 -585 l-171
-169 -195 -23 c-107 -12 -219 -22 -248 -22 -45 -1 -750 89 -817 104 -14 3 -45
47 -95 132 -40 70 -145 241 -231 378 l-158 250 -138 63 -139 62 -109 -9 c-231
-20 -712 -115 -880 -173 l-90 -32 -89 -103 -89 -104 -57 -232 c-32 -128 -68
-293 -81 -367 -12 -74 -28 -140 -35 -145 -7 -6 -70 -17 -141 -23 l-128 -13
-449 86 c-247 47 -454 89 -460 92 -6 3 -117 72 -246 153 l-235 148 -310 42
-309 43 -69 -23 c-38 -12 -70 -20 -72 -18 -1 1 -17 31 -34 65 -24 49 -31 75
-31 123 0 46 -18 124 -74 318 -57 196 -88 329 -131 561 -48 259 -89 428 -271
1119 -118 448 -214 820 -214 827 0 7 65 68 145 134 120 100 145 126 145 148 0
15 -7 355 -15 757 -11 565 -22 845 -46 1231 l-31 500 -215 505 c-118 278 -220
510 -227 516 -6 7 -243 60 -526 118 -283 59 -516 109 -518 111 -2 2 -77 295
-167 652 -89 356 -260 1010 -379 1452 l-216 804 -158 165 c-86 90 -234 246
-329 346 l-172 181 -573 112 c-315 62 -573 112 -573 112 0 -1 -237 -51 -526
-112z m7448 -15618 c88 -9 114 -15 117 -28 3 -9 15 -77 28 -151 22 -134 24
-139 169 -464 l146 -330 84 -28 c185 -63 784 -178 925 -178 l79 0 274 282
c251 260 279 292 338 393 36 60 67 111 68 113 3 3 1123 -154 1171 -163 12 -3
79 -51 150 -108 255 -203 237 -192 412 -256 l162 -60 733 -105 732 -105 1418
-31 1417 -32 502 -56 502 -57 601 42 c330 24 616 42 635 40 25 -1 -38 -24
-225 -79 -224 -67 -306 -86 -595 -137 l-335 -60 -1020 -57 -1020 -57 -1390 83
-1390 83 -670 -17 -670 -17 -2065 -169 -2065 -169 -1863 -41 c-1025 -23 -1865
-40 -1867 -38 -7 7 -35 611 -29 617 5 6 106 -95 157 -157 l27 -34 578 31 c317
17 596 31 619 31 39 0 42 2 48 33 3 17 20 62 37 98 l31 67 151 6 c83 4 180 9
217 12 l65 6 43 71 c34 56 52 105 82 217 23 89 61 198 99 283 87 200 69 181
145 152 l65 -24 313 43 312 43 243 152 243 152 437 83 c240 46 455 84 476 85
22 0 91 -4 153 -10z"/>
</g>
</svg>
