<?xml version="1.0" standalone="no"?>
<!DOCTYPE svg PUBLIC "-//W3C//DTD SVG 20010904//EN"
 "http://www.w3.org/TR/2001/REC-SVG-20010904/DTD/svg10.dtd">
<svg version="1.0" xmlns="http://www.w3.org/2000/svg"
   viewBox="0 0 4386.000000 1926.000000"
 preserveAspectRatio="xMidYMid meet">
<metadata>
Created by potrace 1.16, written by Peter Selinger 2001-2019
</metadata>
<g transform="translate(0.000000,1926.000000) scale(0.100000,-0.100000)"
fill="#000000" stroke="none">
<path d="M14850 19177 l0 -84 -217 -6 c-120 -4 -264 -7 -321 -7 l-103 0 5
-132 c3 -73 8 -224 11 -335 l6 -203 -1639 0 -1639 0 -523 -464 -523 -463 -96
-7 c-53 -3 -144 -6 -203 -6 l-106 0 -103 -166 c-57 -92 -108 -168 -114 -170
-5 -1 -266 -20 -580 -42 l-570 -39 -298 21 -298 21 -26 -38 c-34 -49 -50 -57
-120 -58 -32 -1 -82 -4 -111 -7 l-54 -7 -322 -378 -321 -378 -295 -113 -295
-113 -3 -122 -3 -121 -47 0 c-26 0 -166 7 -312 15 l-265 14 -1160 -266 -1160
-265 -36 -39 -37 -39 -1486 0 -1486 0 0 -100 0 -100 1397 -2 1397 -3 -83 -95
c-46 -52 -93 -98 -105 -103 -11 -4 -590 -82 -1286 -172 -696 -91 -1277 -168
-1293 -171 l-27 -6 0 -1119 c0 -974 2 -1119 15 -1119 8 0 597 -76 1310 -170
l1296 -170 27 -32 c15 -18 55 -64 89 -103 l61 -70 -1399 -3 -1399 -2 0 -95 0
-95 1482 0 1482 0 41 -40 41 -41 1150 -265 1149 -266 423 22 c233 12 425 20
427 18 2 -2 -1 -147 -7 -323 -14 -415 -13 -1431 0 -1845 6 -178 10 -325 9
-326 -1 0 -189 10 -417 23 l-415 23 -1160 -266 -1160 -266 -38 -39 -38 -39
-1484 0 -1485 0 0 -95 0 -95 1400 -2 1400 -3 -87 -102 c-49 -56 -97 -105 -108
-107 -11 -3 -591 -80 -1290 -171 -698 -91 -1280 -168 -1292 -170 l-23 -5 0
-1118 0 -1117 1247 -164 c687 -90 1277 -168 1313 -174 l65 -10 86 -101 86
-101 -1398 -3 -1399 -2 0 -95 0 -95 1482 0 1482 0 41 -40 40 -39 1155 -267
1155 -266 245 11 c135 6 278 14 318 17 l72 6 0 -123 0 -124 298 -114 297 -113
309 -364 c171 -201 318 -371 327 -380 13 -11 52 -19 136 -25 111 -9 119 -11
138 -35 53 -70 15 -66 355 -42 l305 21 530 -36 c292 -21 548 -39 570 -42 40
-6 41 -7 140 -166 54 -88 101 -162 105 -164 4 -2 96 -7 205 -11 l198 -7 521
-463 521 -463 1643 0 1643 -1 -6 -202 c-3 -112 -8 -265 -11 -340 l-5 -138 321
0 320 0 0 -90 0 -90 895 0 895 0 0 90 0 90 315 0 315 0 0 188 c-1 103 -11 401
-24 662 -13 261 -23 475 -22 476 1 1 181 95 401 211 l400 210 2420 367 c1331
202 2429 371 2440 375 11 5 241 202 510 437 l490 429 1260 57 c693 32 1294 56
1335 55 l75 -2 -295 -74 c-186 -46 -306 -81 -325 -94 -16 -12 -329 -276 -695
-587 -366 -311 -672 -570 -681 -577 -9 -7 -87 -16 -200 -23 -157 -10 -233 -21
-514 -75 l-330 -64 -972 -81 c-535 -44 -976 -80 -981 -80 -6 0 -12 -143 -16
-338 -6 -290 -4 -367 12 -550 11 -117 22 -216 26 -219 10 -10 1842 138 6551
527 1133 94 2854 233 3825 310 971 76 1792 144 1825 149 218 39 1438 217 1657
241 260 29 282 34 945 185 373 86 686 158 696 161 14 4 17 17 17 74 l0 69 53
-5 c28 -3 405 -31 835 -63 l784 -59 527 217 528 217 413 284 414 285 174 195
c95 107 194 227 218 266 l45 72 -60 336 -60 337 -104 127 -104 127 255 155
c353 215 638 431 981 744 l262 239 -7 126 -7 127 40 26 c21 14 145 135 275
269 l237 244 270 389 271 389 204 516 205 516 57 477 56 477 -57 482 -57 482
-204 514 -204 515 -272 391 -272 392 -237 243 c-130 134 -253 255 -274 269
l-38 26 7 126 6 126 -273 247 c-353 321 -600 508 -954 724 -159 96 -261 164
-258 171 2 7 47 66 100 132 l96 120 60 336 60 337 -43 66 c-23 37 -121 156
-217 264 l-174 196 -415 286 -415 287 -526 216 -526 216 -780 -57 c-429 -32
-806 -60 -837 -63 l-58 -6 0 72 c0 39 -3 71 -7 71 -4 0 -321 72 -703 159 -639
147 -711 161 -895 181 -232 24 -1658 230 -1665 241 -3 4 -779 68 -1725 143
-946 75 -2780 224 -4075 331 -4518 373 -6440 528 -6448 521 -2 -3 -13 -103
-23 -223 -17 -189 -19 -263 -13 -550 l6 -332 42 -6 c22 -3 473 -41 1001 -85
l960 -81 300 -59 c263 -53 324 -62 496 -72 l196 -11 700 -596 700 -596 316
-80 c173 -44 314 -81 313 -82 -3 -3 -2652 115 -2678 119 -9 2 -239 197 -511
435 l-495 432 -2435 371 -2435 371 -400 210 -401 211 5 66 c14 195 44 936 44
1083 l0 169 -315 0 -315 0 0 90 0 90 -895 0 -895 0 0 -83z m11612 -2553 l898
-169 0 -37 c0 -31 4 -39 23 -43 32 -8 1521 -295 1528 -295 4 0 10 -43 14 -95
6 -86 9 -96 28 -100 12 -3 117 -21 232 -40 204 -34 243 -37 1440 -105 l1230
-70 680 -145 680 -145 360 -25 c198 -14 375 -25 393 -25 l33 0 -43 -61 -43
-61 -70 6 c-38 3 -992 60 -2120 127 l-2050 122 -1830 461 -1831 462 -214 183
c-231 197 -274 237 -250 229 8 -3 419 -81 912 -174z m7495 -12623 l41 -59 -61
-6 c-34 -3 -208 -15 -387 -27 l-325 -21 -675 -145 -675 -144 -1215 -69 -1215
-69 -257 -42 -256 -42 -7 -94 c-7 -84 -9 -94 -29 -98 -35 -9 -1520 -295 -1528
-295 -5 0 -8 -18 -8 -40 0 -22 -2 -40 -5 -40 -3 0 -410 -77 -906 -170 -496
-94 -903 -169 -904 -168 -5 5 462 402 481 410 11 4 834 213 1829 464 l1810
456 2120 128 c1166 70 2122 128 2125 129 3 0 24 -26 47 -58z m-7370 -347 c-3
-3 -12 -4 -19 -1 -8 3 -5 6 6 6 11 1 17 -2 13 -5z"/>
</g>
</svg>
