<?xml version="1.0" standalone="no"?>
<!DOCTYPE svg PUBLIC "-//W3C//DTD SVG 20010904//EN"
 "http://www.w3.org/TR/2001/REC-SVG-20010904/DTD/svg10.dtd">
<svg version="1.0" xmlns="http://www.w3.org/2000/svg"
   viewBox="0 0 4468.000000 2064.000000"
 preserveAspectRatio="xMidYMid meet">
<metadata>
Created by potrace 1.16, written by Peter Selinger 2001-2019
</metadata>
<g transform="translate(0.000000,2064.000000) scale(0.100000,-0.100000)"
fill="#000000" stroke="none">
<path d="M38553 20628 c-51 -25 -44 -36 203 -335 130 -159 251 -301 269 -318
18 -16 99 -111 181 -210 81 -99 154 -188 162 -197 12 -15 12 -24 -6 -75 -10
-32 -34 -117 -52 -190 l-32 -131 -56 19 c-55 19 -570 99 -638 99 -44 0 -64
-23 -64 -71 0 -35 17 -62 167 -262 187 -250 246 -322 345 -420 47 -46 67 -73
64 -85 -3 -9 -35 -138 -72 -287 -37 -148 -73 -277 -80 -285 -13 -16 -114 -369
-114 -400 0 -10 -25 -38 -55 -63 -31 -25 -56 -49 -55 -52 0 -3 -22 -24 -50
-46 -27 -22 -50 -45 -50 -52 0 -6 -13 -21 -28 -32 -88 -64 -1416 -1203 -1420
-1218 -4 -15 -11 -18 -34 -13 -28 5 -60 -20 -426 -335 l-397 -341 -461 -228
c-254 -126 -463 -233 -465 -238 -5 -12 -318 -126 -384 -140 -28 -6 -174 -50
-325 -97 -340 -107 -613 -166 -1255 -271 l-460 -75 -990 -90 -990 -89 -2565
-105 c-1411 -57 -2600 -106 -2642 -108 l-78 -4 0 98 0 99 -167 -6 c-93 -3
-553 -14 -1023 -24 -1084 -25 -1658 -56 -2455 -135 -308 -31 -591 -62 -630
-70 -38 -8 -599 -131 -1245 -274 -1573 -348 -1875 -400 -3165 -541 -998 -110
-1822 -164 -3905 -255 -572 -26 -601 -26 -1290 -16 -388 6 -1346 18 -2130 26
-784 8 -1733 22 -2110 30 -649 16 -697 18 -909 46 -124 16 -246 29 -271 29
-51 0 -185 36 -725 194 -352 104 -365 107 -590 136 -351 45 -720 63 -1140 55
-192 -3 -764 -2 -1270 3 -506 6 -1112 8 -1347 5 l-428 -6 0 -33 c0 -47 9 -64
34 -64 12 0 30 -6 39 -12 16 -12 13 -19 -28 -80 l-45 -67 0 -188 0 -188 -175
-58 -175 -58 0 -56 0 -56 62 6 c189 18 303 19 357 3 38 -11 93 -16 178 -16 97
0 123 -3 123 -14 0 -21 -198 -37 -228 -17 -7 4 -36 4 -64 0 -29 -5 -133 -16
-232 -25 -100 -9 -184 -18 -188 -21 -5 -2 -8 -174 -8 -382 l0 -378 53 -16 c28
-8 42 -16 30 -16 -13 -1 -23 -5 -23 -11 0 -6 -44 -10 -113 -10 -75 0 -117 -4
-125 -12 -8 -8 -12 -52 -12 -130 0 -106 -3 -124 -24 -166 -14 -27 -32 -54 -40
-61 -11 -9 -16 -30 -16 -61 l0 -48 -50 -11 c-28 -6 -57 -11 -63 -11 -7 0 -35
-45 -62 -100 -27 -55 -62 -113 -77 -127 l-28 -27 0 -446 0 -446 28 -27 c15
-14 50 -72 77 -127 27 -55 55 -100 62 -100 6 0 35 -5 63 -11 l50 -11 0 -48 c0
-31 5 -52 16 -61 8 -7 26 -34 40 -61 21 -42 24 -60 24 -166 0 -78 4 -122 12
-130 8 -8 50 -12 125 -12 69 0 113 -4 113 -10 0 -5 10 -10 23 -11 12 0 -2 -8
-31 -16 l-52 -16 0 -378 c0 -208 4 -380 8 -383 5 -3 89 -12 188 -21 98 -8 202
-19 231 -24 29 -4 58 -4 65 0 30 20 228 4 228 -17 0 -11 -26 -14 -123 -14 -85
0 -140 -5 -178 -16 -54 -16 -173 -16 -357 3 l-62 6 0 -56 0 -55 173 -59 172
-58 3 -188 2 -188 45 -67 c41 -61 44 -68 28 -80 -9 -6 -27 -12 -39 -12 -25 0
-34 -17 -34 -64 l0 -33 432 -6 c238 -3 843 -1 1343 5 501 5 1070 6 1265 3 425
-8 792 10 1145 55 225 29 237 32 590 136 538 158 674 194 725 194 25 0 147 13
271 29 213 28 259 30 914 46 380 8 1329 22 2110 30 781 8 1737 20 2125 26 689
10 718 10 1290 -16 2081 -91 2905 -145 3905 -255 1299 -142 1589 -192 3210
-552 l1220 -270 575 -58 c809 -82 1388 -115 2490 -140 465 -10 923 -21 1018
-24 l172 -6 0 98 0 99 78 -4 c42 -2 1231 -51 2642 -108 l2565 -105 990 -90
990 -89 460 -75 c642 -105 915 -164 1255 -271 151 -47 297 -91 325 -97 66 -14
379 -128 384 -140 2 -5 211 -112 465 -238 l461 -228 397 -341 c366 -315 398
-340 426 -335 23 5 30 2 34 -13 4 -16 1329 -1152 1420 -1218 15 -11 28 -26 28
-32 0 -7 23 -30 50 -52 28 -22 51 -44 52 -48 1 -4 26 -28 55 -52 29 -24 53
-51 53 -61 0 -31 101 -384 114 -400 7 -8 43 -136 80 -285 37 -148 69 -278 72
-287 3 -12 -17 -39 -64 -85 -99 -98 -158 -170 -345 -420 -150 -200 -167 -227
-167 -262 0 -48 20 -71 64 -71 68 0 583 80 638 99 l56 19 32 -131 c18 -73 42
-158 52 -190 18 -51 18 -60 6 -75 -8 -9 -81 -98 -162 -197 -82 -99 -163 -193
-181 -210 -18 -16 -139 -159 -269 -318 -250 -302 -255 -311 -199 -336 23 -11
65 -4 307 50 l280 62 416 179 c386 166 516 230 504 250 -3 4 -1 8 5 8 17 0
546 377 781 557 l225 172 221 248 c122 136 323 370 446 518 181 218 235 289
278 370 29 55 72 132 95 170 23 39 81 144 130 235 241 453 242 454 391 651
146 193 304 420 304 437 0 5 -6 15 -14 21 -12 11 2 38 93 174 147 222 405 658
541 916 253 482 584 1274 734 1757 31 100 72 215 90 255 56 121 298 851 286
863 -5 5 -12 7 -15 5 -3 -3 -53 -97 -111 -210 -58 -112 -104 -197 -101 -189 2
8 52 148 109 310 134 374 128 355 128 405 0 43 -23 77 -39 59 -31 -32 -295
-464 -313 -511 -20 -51 -23 -55 -26 -30 -2 18 12 55 42 111 l46 84 0 144 c0
130 -2 146 -20 166 -19 20 -20 35 -20 368 0 297 -2 350 -15 364 -14 15 -14 28
-1 121 8 57 22 192 31 299 10 107 21 198 26 201 18 11 37 519 20 519 -13 0
-20 49 -7 53 15 5 15 289 0 294 -13 4 -6 53 7 53 17 0 -2 508 -20 519 -5 3
-16 94 -26 201 -9 107 -23 242 -31 299 -13 93 -13 106 1 121 13 14 15 67 15
364 0 333 1 348 20 368 18 20 20 36 20 166 l0 144 -46 84 c-30 56 -44 93 -42
111 3 25 6 21 26 -30 18 -47 282 -479 313 -511 16 -18 39 16 39 59 0 50 6 31
-128 405 -57 162 -107 302 -109 310 -3 8 43 -77 101 -189 58 -113 108 -207
111 -210 3 -2 10 0 15 5 12 12 -230 742 -286 863 -18 40 -59 155 -90 255 -150
483 -481 1275 -734 1757 -136 258 -394 694 -541 916 -91 136 -105 163 -93 174
8 6 14 16 14 21 0 17 -158 244 -304 437 -149 197 -150 198 -391 651 -49 91
-107 197 -130 235 -23 39 -66 115 -95 170 -43 81 -97 152 -278 370 -123 149
-324 382 -446 518 l-221 248 -225 172 c-235 180 -764 557 -781 557 -6 0 -8 4
-5 8 12 20 -118 84 -504 250 l-415 179 -278 61 c-152 34 -281 62 -285 61 -4 0
-17 -5 -29 -11z"/>
</g>
</svg>
