<?xml version="1.0" standalone="no"?>
<!DOCTYPE svg PUBLIC "-//W3C//DTD SVG 20010904//EN"
 "http://www.w3.org/TR/2001/REC-SVG-20010904/DTD/svg10.dtd">
<svg version="1.0" xmlns="http://www.w3.org/2000/svg"
   viewBox="0 0 4410.000000 3726.000000"
 preserveAspectRatio="xMidYMid meet">
<metadata>
Created by potrace 1.16, written by Peter Selinger 2001-2019
</metadata>
<g transform="translate(0.000000,3726.000000) scale(0.100000,-0.100000)"
fill="#000000" stroke="none">
<path d="M22851 37002 l-394 -257 -2471 5 c-1359 3 -2666 6 -2903 8 l-433 2
-40 -25 -40 -25 0 -319 0 -318 195 -79 195 -79 0 -72 0 -72 -37 -10 c-21 -6
-45 -11 -54 -11 -13 0 -17 -19 -22 -112 -4 -62 -7 -181 -7 -265 l0 -152 43
-11 c23 -6 50 -13 60 -16 16 -5 17 -43 15 -667 l-3 -661 -57 -14 -58 -14 0
-263 0 -264 55 -12 55 -12 -1 -951 c-1 -523 -4 -1049 -8 -1170 l-6 -218 -327
-135 -328 -136 -2 -170 -3 -170 -902 -445 -903 -445 0 -655 0 -654 -50 -71
-50 -71 0 -948 0 -948 -1225 0 -1225 0 0 1105 0 1105 -4815 0 -4815 0 0 -240
0 -240 -30 0 -30 0 0 115 0 115 -350 0 -350 0 0 -1147 0 -1148 60 -33 60 -33
0 -183 0 -184 -70 -17 -70 -17 0 -1174 0 -1174 360 0 360 0 0 155 0 155 30 0
30 0 0 -360 0 -360 120 0 120 0 0 -165 0 -165 -1265 0 -1265 0 0 -3580 0
-3580 1265 0 1265 0 0 -165 0 -165 -120 0 -120 0 0 -360 0 -360 -30 0 -30 0 0
155 0 155 -360 0 -360 0 0 -1173 0 -1173 70 -18 70 -18 0 -184 0 -183 -60 -33
-60 -33 0 -1147 0 -1148 350 0 350 0 0 115 0 115 30 0 30 0 0 -240 0 -240
4815 0 4815 0 0 1105 0 1105 1225 0 1225 0 0 -947 0 -947 50 -72 50 -72 0
-654 0 -654 903 -445 902 -445 3 -170 2 -170 328 -135 327 -136 6 -219 c4
-120 7 -648 8 -1171 1 -901 0 -953 -16 -953 -10 0 -35 -5 -55 -11 l-38 -10 0
-264 0 -264 60 -12 60 -12 0 -662 0 -663 -57 -14 -58 -14 -3 -119 c-5 -172 8
-406 22 -410 6 -2 30 -9 54 -15 l42 -11 0 -72 0 -72 -193 -76 -192 -77 -3
-320 -2 -321 44 -26 43 -25 429 2 c236 2 1540 6 2898 10 l2469 7 398 -260 398
-259 333 0 333 -1 953 138 952 138 0 135 0 135 85 48 c80 46 85 50 85 82 l0
33 103 6 c56 3 1189 31 2517 62 l2415 57 43 40 42 41 0 76 c0 76 0 76 -40 115
l-41 40 -2519 -4 -2519 -3 -3 33 c-3 33 -5 34 -117 76 -63 23 -136 43 -162 45
-46 3 -52 7 -262 196 l-214 194 -7 781 c-3 430 -8 1655 -11 2722 -3 1067 -8
2100 -11 2295 l-6 356 69 19 68 20 3 571 2 570 -267 200 c-147 109 -273 204
-282 210 -12 10 -11 18 13 58 l27 46 687 1 c378 1 766 4 862 8 l175 6 328 264
327 264 0 213 0 214 360 0 c233 0 360 4 360 10 0 7 1788 10 5345 10 l5345 0 0
55 0 55 -5345 0 c-3557 0 -5345 3 -5345 10 0 6 -127 10 -360 10 l-360 0 0
1330 0 1330 1240 0 1241 0 59 30 60 30 2 882 3 881 385 143 c212 79 415 155
453 169 l67 25 38 -35 38 -34 545 -12 c442 -9 851 -9 2184 5 902 8 1832 19
2068 22 l427 7 0 143 0 144 2700 0 2700 0 0 -415 0 -415 790 0 790 0 0 415 0
415 188 0 189 0 361 730 362 729 -350 726 c-193 399 -350 730 -350 735 0 5
157 336 350 736 l350 726 -362 729 -361 729 -189 0 -188 0 0 415 0 415 -790 0
-790 0 0 -415 0 -415 -2700 0 -2700 0 0 144 0 144 -332 6 c-183 3 -1118 14
-2078 23 -1402 13 -1849 14 -2278 5 l-534 -12 -40 -34 c-40 -34 -41 -35 -77
-20 -20 7 -223 83 -451 168 l-415 154 -3 881 -2 881 -60 30 c-48 24 -72 30
-125 30 l-65 0 0 590 0 590 830 0 830 0 0 30 0 30 -830 0 -830 0 0 135 0 135
5425 0 5425 0 0 130 0 130 -5425 0 -5425 0 0 965 0 965 1830 0 1830 0 0 25 0
25 -1830 0 -1830 0 0 53 c-1 47 -4 54 -35 78 -31 23 -46 27 -151 32 -108 6
-119 5 -143 -14 l-26 -21 -5 -1056 -5 -1057 -3 1072 -2 1071 -57 6 c-32 4
-740 66 -1573 138 l-1515 132 -420 5 -420 6 68 49 67 50 -2 570 -3 569 -65 22
-65 22 3 944 c2 519 7 1902 12 3074 l10 2129 22 22 c13 12 111 101 218 198
191 172 196 176 240 176 27 1 90 18 160 44 l115 42 3 39 3 38 272 -7 c150 -3
1284 -6 2521 -7 l2248 -1 39 38 c39 38 39 39 39 114 l0 76 -42 41 -43 41
-2375 56 c-1306 31 -2439 59 -2517 62 l-143 6 0 33 c0 30 -6 36 -82 82 l-83
49 -3 137 c-2 100 -6 137 -15 137 -7 0 -432 61 -945 135 l-932 135 -343 0
-342 -1 -394 -257z m-7901 -8542 l0 -110 -70 0 -70 0 0 80 0 81 63 29 c34 16
65 29 70 29 4 1 7 -48 7 -109z m14247 -3022 c-3 -8 -6 -5 -6 6 -1 11 2 17 5
13 3 -3 4 -12 1 -19z m0 -630 c-2 -18 -4 -6 -4 27 0 33 2 48 4 33 2 -15 2 -42
0 -60z m0 -830 c-2 -18 -4 -4 -4 32 0 36 2 50 4 33 2 -18 2 -48 0 -65z
m-14247 -15178 c0 -60 -2 -110 -4 -110 -2 0 -34 14 -70 31 l-66 31 0 79 0 79
70 0 70 0 0 -110z"/>
</g>
</svg>
