<?xml version="1.0" standalone="no"?>
<!DOCTYPE svg PUBLIC "-//W3C//DTD SVG 20010904//EN"
 "http://www.w3.org/TR/2001/REC-SVG-20010904/DTD/svg10.dtd">
<svg version="1.0" xmlns="http://www.w3.org/2000/svg"
   viewBox="0 0 4069.000000 2974.000000"
 preserveAspectRatio="xMidYMid meet">
<metadata>
Created by potrace 1.16, written by Peter Selinger 2001-2019
</metadata>
<g transform="translate(0.000000,2974.000000) scale(0.100000,-0.100000)"
fill="#000000" stroke="none">
<path d="M22780 29115 c-115 -578 -127 -629 -148 -643 -21 -14 -57 -14 -328
-3 l-303 13 -94 -67 -94 -66 -6 -120 c-3 -66 -7 -122 -9 -123 -1 -2 -356 10
-787 26 -431 16 -786 26 -789 23 -3 -3 -3 -7 0 -10 3 -3 356 -24 784 -47 719
-38 780 -42 793 -60 11 -14 28 -18 90 -19 42 -1 102 -4 133 -8 l57 -6 -899
-1015 c-758 -856 -898 -1018 -894 -1037 8 -31 1 -29 -46 14 -35 31 -43 34 -55
22 -8 -8 -239 -266 -514 -574 l-500 -560 41 -36 c26 -22 39 -40 34 -48 -6 -9
-11 -9 -23 1 -12 10 -17 9 -27 -3 -6 -8 -139 -158 -296 -333 -171 -192 -286
-328 -288 -342 l-3 -24 -209 0 -209 0 -106 -47 -105 -47 0 -38 0 -38 -762 -2
c-489 -1 -695 -4 -573 -9 105 -3 448 -7 763 -8 501 -1 572 -3 572 -16 0 -13
32 -15 232 -15 l231 0 33 25 c39 30 134 37 134 10 0 -8 61 -112 136 -230 90
-145 132 -220 126 -228 -5 -7 -293 -411 -640 -898 l-632 -887 125 -223 c69
-123 123 -230 120 -237 -5 -14 -492 -694 -522 -729 -18 -22 -25 -22 -803 -48
l-785 -27 -255 -253 c-158 -156 -271 -261 -297 -274 -33 -16 -61 -21 -128 -21
l-85 0 0 114 0 115 28 3 27 3 6 125 c4 107 11 146 47 271 31 106 42 164 42
212 l0 67 64 0 63 0 -27 -120 -27 -120 256 0 257 0 137 174 c75 96 142 185
148 199 l11 24 301 6 c165 4 370 8 456 9 144 2 137 2 -84 9 -132 3 -337 7
-456 8 l-217 1 -12 30 -12 30 -234 0 -233 0 -34 -30 -35 -30 -161 0 -161 0 0
40 c0 38 2 40 30 40 17 0 30 5 30 10 0 6 44 10 113 10 l112 0 143 162 142 162
0 56 0 57 143 6 c78 4 354 8 612 9 342 1 426 3 310 8 -88 4 -299 8 -470 9
-170 0 -374 4 -452 8 l-143 6 0 34 0 33 53 1 c28 1 223 5 432 8 l380 7 -337 2
c-218 1 -338 6 -338 12 0 6 -38 10 -95 10 l-95 0 0 59 c0 52 -30 140 -264 777
l-265 719 52 7 c29 3 210 7 402 9 l350 3 -400 5 c-220 3 -405 9 -411 13 -7 4
-14 16 -16 26 -5 17 3 20 85 26 49 3 273 7 496 8 l406 2 -497 5 c-273 3 -500
10 -504 14 -5 5 -43 101 -85 215 l-76 207 -194 3 -194 2 -24 35 -24 35 -197 0
-198 0 -11 28 -11 27 5 -27 c5 -28 5 -28 -52 -28 l-58 0 -307 -1024 -308
-1023 0 -247 0 -247 182 -195 182 -194 175 0 174 0 112 85 111 85 232 0 c148
0 232 -4 232 -10 0 -5 18 -10 40 -10 l40 0 0 -40 0 -40 -236 0 -236 0 -49 -41
c-38 -32 -49 -47 -49 -70 0 -28 -2 -29 -45 -29 -25 0 -45 5 -45 10 0 7 -227
10 -660 10 l-660 0 0 -25 0 -25 660 0 c433 0 660 3 660 10 0 6 20 10 45 10 38
0 45 -3 45 -20 0 -20 7 -20 285 -20 183 0 285 -4 285 -10 0 -5 16 -10 35 -10
33 0 35 -2 35 -36 0 -19 -23 -115 -51 -212 -37 -132 -59 -190 -85 -228 -30
-45 -34 -58 -34 -117 0 -65 1 -67 25 -67 l25 0 0 -113 0 -113 -62 3 c-35 1
-569 10 -1188 19 l-1125 17 -110 56 -110 56 -680 5 -679 5 -229 290 c-126 160
-234 297 -240 307 -11 14 -61 17 -472 23 l-460 7 -53 -48 -53 -49 -29 -260
c-16 -143 -30 -263 -30 -267 0 -5 -615 -8 -1366 -8 l-1367 0 -366 -261 c-289
-207 -367 -258 -368 -243 -4 30 -123 1501 -123 1518 0 14 36 16 333 18 l332 1
-325 9 c-179 4 -330 10 -336 12 -6 3 -14 48 -18 107 -4 57 -8 104 -9 105 -1 1
-87 -11 -192 -25 l-190 -27 -8 -195 c-4 -107 -10 -222 -13 -256 l-6 -63 -476
-1 c-262 -1 -722 -5 -1022 -8 l-545 -6 1019 -8 c561 -4 1021 -9 1023 -11 5 -5
-46 -1418 -53 -1463 l-5 -32 -242 -6 c-133 -3 -755 -9 -1382 -13 -868 -5
-1078 -9 -881 -14 143 -5 637 -8 1098 -8 557 0 837 -3 833 -10 -4 -7 106 -10
322 -11 l328 0 -69 -25 -69 -24 -706 -5 c-981 -8 -1115 -21 -1331 -131 -106
-54 -226 -143 -360 -267 l-72 -67 -282 0 -282 0 -429 -557 c-235 -307 -431
-562 -435 -566 -4 -5 -22 33 -41 82 -18 50 -37 91 -41 91 -10 0 -12 10 22
-108 l29 -104 -114 -148 c-63 -82 -115 -152 -115 -157 1 -4 210 -105 465 -223
l464 -215 1 -37 c0 -49 -48 -166 -72 -174 -11 -3 -18 -15 -18 -29 0 -22 -5
-24 -75 -30 -41 -4 -75 -11 -75 -15 0 -4 33 -11 73 -15 l72 -7 -80 -28 -80
-27 39 -17 39 -16 -128 -133 c-71 -72 -140 -144 -154 -159 -25 -27 -44 -31
-726 -143 -385 -63 -710 -118 -723 -120 l-22 -5 0 -850 0 -850 23 -5 c12 -2
337 -57 722 -120 682 -112 701 -116 726 -143 14 -15 83 -87 154 -159 l128
-133 -39 -16 -39 -17 80 -27 80 -28 -72 -7 c-40 -4 -73 -11 -73 -15 0 -4 34
-11 75 -15 70 -6 75 -8 75 -30 0 -14 7 -26 18 -29 24 -8 72 -125 72 -174 l-1
-37 -464 -215 c-255 -118 -464 -219 -465 -223 0 -5 52 -75 115 -157 l114 -148
-29 -104 c-34 -118 -32 -108 -22 -108 4 0 23 41 41 91 19 49 37 87 41 82 4 -4
200 -259 435 -565 l429 -558 282 0 282 0 72 -67 c134 -124 254 -213 360 -267
216 -110 350 -123 1331 -131 l706 -5 69 -24 69 -25 -328 0 c-216 -1 -326 -4
-322 -11 4 -7 -276 -10 -833 -10 -461 0 -955 -3 -1098 -7 -197 -6 13 -10 881
-15 627 -4 1249 -10 1382 -13 l242 -6 5 -32 c7 -45 58 -1458 53 -1463 -2 -2
-462 -7 -1023 -11 l-1019 -8 550 -6 c303 -3 762 -7 1022 -8 l471 -1 6 -62 c3
-35 9 -150 13 -257 l8 -195 190 -27 c105 -14 191 -26 192 -25 1 1 5 48 9 105
4 59 12 104 18 107 6 2 157 8 336 12 l325 9 -332 1 c-297 2 -333 4 -333 18 0
17 119 1488 123 1518 1 15 79 -36 368 -243 l366 -261 1367 0 c751 0 1366 -3
1366 -7 0 -5 14 -125 30 -268 l29 -260 53 -49 53 -48 460 7 c411 6 461 9 472
23 6 10 114 148 240 307 l229 290 679 5 680 5 110 56 110 56 1125 17 c619 9
1153 18 1188 19 l62 3 0 -113 0 -113 -25 0 c-24 0 -25 -2 -25 -67 0 -59 4 -72
34 -117 26 -38 48 -96 85 -228 28 -97 51 -193 51 -212 0 -34 -2 -36 -35 -36
-19 0 -35 -4 -35 -10 0 -6 -102 -10 -285 -10 -278 0 -285 0 -285 -20 0 -17 -7
-20 -45 -20 -25 0 -45 5 -45 10 0 7 -227 10 -660 10 l-660 0 0 -25 0 -25 660
0 c433 0 660 3 660 10 0 6 20 10 45 10 43 0 45 -1 45 -29 0 -23 11 -38 49 -70
l49 -41 236 0 236 0 0 -40 0 -40 -40 0 c-22 0 -40 -4 -40 -10 0 -6 -84 -10
-232 -10 l-232 0 -111 85 -112 85 -174 0 -175 0 -182 -194 -182 -195 0 -247 0
-247 308 -1023 307 -1024 58 0 c57 0 57 0 52 -28 l-5 -27 11 28 11 27 198 0
197 0 24 35 24 35 194 2 194 3 76 207 c42 114 80 210 85 215 4 4 231 11 504
14 l497 5 -406 2 c-223 1 -447 5 -496 8 -82 6 -90 9 -85 26 2 10 9 22 16 26 6
4 191 10 411 13 l400 5 -350 3 c-192 2 -373 6 -402 9 l-52 7 265 719 c234 637
264 725 264 777 l0 59 95 0 c57 0 95 4 95 10 0 6 120 11 338 12 l337 2 -380 7
c-209 3 -404 7 -432 8 l-53 1 0 33 0 34 143 6 c78 4 282 8 452 8 171 1 384 5
475 9 121 5 38 7 -310 8 -261 1 -539 5 -617 9 l-143 6 0 57 0 56 -143 162
-142 162 -112 0 c-69 0 -113 4 -113 10 0 6 -13 10 -30 10 -28 0 -30 2 -30 40
l0 40 161 0 161 0 35 -30 34 -30 233 0 234 0 12 30 12 30 217 1 c119 1 324 5
456 8 221 7 228 7 84 9 -86 1 -291 5 -456 9 l-301 6 -11 24 c-6 14 -73 103
-148 199 l-137 174 -257 0 -256 0 27 -120 27 -120 -63 0 -64 0 0 67 c0 48 -11
106 -42 212 -36 125 -43 164 -47 271 l-6 125 -27 3 -28 3 0 115 0 114 85 0
c67 0 95 -5 128 -21 26 -13 139 -118 297 -274 l255 -253 785 -27 c778 -26 785
-26 803 -48 30 -35 517 -715 522 -729 3 -7 -51 -114 -120 -237 l-125 -223 632
-887 c347 -487 635 -891 640 -898 6 -8 -36 -83 -126 -228 -75 -118 -136 -222
-136 -230 0 -27 -95 -20 -134 10 l-33 25 -231 0 c-200 0 -232 -2 -232 -15 0
-13 -71 -15 -572 -16 -315 -1 -658 -5 -763 -8 -122 -5 84 -8 573 -9 l762 -2 0
-38 0 -38 108 -47 107 -47 208 0 c202 0 207 0 207 -21 0 -12 109 -142 288
-341 158 -177 292 -329 298 -337 10 -12 15 -13 27 -3 12 10 17 10 23 1 5 -8
-8 -26 -34 -48 l-41 -36 495 -555 c273 -305 504 -564 514 -574 19 -19 20 -19
59 17 48 43 55 45 47 14 -4 -19 136 -181 894 -1037 l899 -1015 -57 -6 c-31 -4
-91 -7 -133 -8 -62 -1 -79 -5 -90 -19 -13 -18 -74 -22 -793 -60 -428 -23 -781
-44 -784 -47 -3 -3 -3 -7 0 -10 3 -3 358 7 789 23 431 16 786 28 787 26 2 -1
6 -57 9 -123 l6 -120 93 -66 94 -67 304 13 c271 11 307 11 328 -3 21 -14 33
-65 148 -643 l125 -627 80 6 c44 3 146 8 227 12 l147 6 5 62 c3 33 17 297 31
585 14 289 27 526 28 528 2 1 1378 61 3058 133 l3054 131 20 -25 c11 -14 182
-237 380 -495 l360 -470 857 0 857 -1 10 38 c31 111 310 1064 313 1067 2 2
123 9 268 15 342 15 456 34 595 99 73 35 120 65 175 114 l74 67 1145 2 1146 2
-1010 7 c-555 3 -1066 7 -1133 8 l-124 1 158 168 c87 92 161 168 164 170 4 1
83 -67 176 -152 93 -84 173 -151 177 -149 5 3 -67 78 -160 168 l-168 162 54
59 c30 33 90 96 133 142 l78 82 262 0 c144 0 258 3 254 7 -4 4 -117 10 -250
13 l-243 5 697 743 c384 409 702 744 706 743 7 -1 151 -681 154 -723 0 -5 89
-8 199 -8 l199 0 146 433 c80 237 164 484 185 547 l38 115 184 5 184 5 77 60
77 60 1 101 0 101 422 6 c232 4 688 7 1015 7 326 0 593 4 593 8 0 11 -728 22
-1457 22 -503 0 -573 2 -573 15 0 13 -25 15 -163 15 l-163 0 -54 -65 -54 -65
-173 0 -173 0 -12 25 c-10 22 -8 29 14 53 90 97 2033 2170 2084 2222 l62 65 7
346 8 346 -184 127 -184 127 -42 77 -43 77 0 357 0 357 -848 3 -849 3 -46 38
-45 37 -261 0 -261 0 -85 72 -85 72 0 127 0 128 33 25 32 24 728 4 727 3 0
-52 0 -53 -645 0 -645 0 0 -69 0 -69 61 -56 60 -56 263 0 263 0 46 -35 46 -35
1020 0 c1014 0 1021 0 1021 20 0 20 7 20 1140 20 1007 0 1140 2 1140 15 0 13
-133 15 -1140 15 l-1139 0 -3 56 -3 56 -154 69 -153 69 -349 0 -349 0 0 55 0
55 209 0 c119 0 211 4 213 9 2 6 431 13 1058 18 l1055 8 -593 5 -593 5 145
215 c80 118 146 223 146 233 0 16 19 17 260 17 167 0 260 4 260 10 0 6 86 11
233 12 l232 3 -228 2 c-204 3 -228 5 -223 19 3 9 9 26 12 39 l5 22 547 8 c301
4 549 9 551 11 2 2 2 6 0 8 -5 5 -1969 26 -2466 26 l-393 0 0 1270 0 1270 53
0 c46 0 57 5 96 38 l43 37 -46 43 c-41 38 -51 42 -96 42 l-50 0 0 145 0 145
53 0 c47 0 59 4 93 34 l39 34 -45 46 c-40 42 -48 46 -92 46 l-48 0 0 170 c0
163 1 170 20 170 20 0 20 7 20 1300 0 1293 0 1300 -20 1300 -19 0 -20 7 -20
170 l0 170 48 0 c44 0 52 4 92 46 l45 46 -39 34 c-34 30 -46 34 -93 34 l-53 0
0 145 0 145 50 0 c45 0 55 4 96 42 l46 43 -43 37 c-39 33 -50 38 -96 38 l-53
0 0 1270 0 1270 393 0 c497 0 2461 21 2466 26 2 2 2 6 0 8 -2 2 -250 7 -551
11 l-547 8 -5 22 c-3 13 -9 30 -12 39 -5 14 19 16 223 19 l228 2 -232 3 c-147
1 -233 6 -233 12 0 6 -93 10 -260 10 -241 0 -260 1 -260 18 0 9 -66 114 -146
232 l-145 215 598 5 598 5 -1060 8 c-631 5 -1061 12 -1063 18 -2 5 -94 9 -213
9 l-209 0 0 55 0 55 349 0 349 0 153 69 154 69 3 56 3 56 1139 0 c1007 0 1140
2 1140 15 0 13 -133 15 -1140 15 -1133 0 -1140 0 -1140 20 0 20 -7 20 -1021
20 l-1020 0 -46 -35 -46 -35 -263 0 -263 0 -60 -56 -61 -56 0 -69 0 -69 645 0
645 0 0 -52 0 -53 -727 3 -728 4 -32 24 -33 25 0 128 0 127 85 72 85 72 261 0
261 0 45 38 46 37 849 3 848 3 0 357 0 357 43 77 42 77 184 127 184 127 -8
346 -7 346 -62 65 c-51 52 -1994 2125 -2084 2222 -22 24 -24 31 -14 53 l12 25
173 0 173 0 54 -65 54 -65 163 0 c138 0 163 2 163 15 0 13 70 15 573 15 729 0
1457 11 1457 22 0 4 -267 8 -593 8 -327 0 -783 3 -1015 7 l-422 6 0 101 -1
101 -77 60 -77 60 -184 5 -184 5 -38 115 c-21 63 -105 310 -185 548 l-146 432
-199 0 c-110 0 -199 -3 -199 -7 -3 -43 -147 -724 -154 -724 -4 -1 -322 334
-706 743 l-697 743 243 5 c133 3 246 9 250 13 4 4 -110 7 -254 7 l-262 0 -78
83 c-43 45 -103 108 -133 141 l-54 59 168 162 c93 90 165 165 160 168 -4 2
-84 -65 -177 -149 -93 -85 -172 -153 -176 -152 -3 2 -77 78 -164 171 l-158
167 124 1 c67 1 578 5 1133 8 l1010 7 -1146 2 -1145 2 -74 67 c-55 49 -102 79
-175 114 -139 65 -253 84 -595 99 -145 6 -266 13 -268 15 -3 3 -282 956 -313
1068 l-10 37 -857 -1 -857 0 -360 -470 c-198 -258 -369 -481 -380 -495 l-20
-25 -3054 131 c-1680 72 -3056 132 -3058 133 -1 2 -14 239 -28 528 -14 288
-28 552 -31 585 l-5 62 -147 6 c-81 4 -183 9 -227 12 l-80 6 -125 -627z
m14560 -8730 l0 -55 -180 0 -180 0 0 55 0 55 180 0 180 0 0 -55z m0 -11030 l0
-55 -180 0 -180 0 0 55 0 55 180 0 180 0 0 -55z"/>
</g>
</svg>
