<?xml version="1.0" standalone="no"?>
<!DOCTYPE svg PUBLIC "-//W3C//DTD SVG 20010904//EN"
 "http://www.w3.org/TR/2001/REC-SVG-20010904/DTD/svg10.dtd">
<svg version="1.0" xmlns="http://www.w3.org/2000/svg"
   viewBox="0 0 4317.000000 3162.000000"
 preserveAspectRatio="xMidYMid meet">
<metadata>
Created by potrace 1.16, written by Peter Selinger 2001-2019
</metadata>
<g transform="translate(0.000000,3162.000000) scale(0.100000,-0.100000)"
fill="#000000" stroke="none">
<path d="M28790 31604 c-186 -10 -261 -11 -277 -3 -15 8 -89 8 -270 0 -213
-10 -256 -15 -305 -34 -32 -12 -59 -26 -62 -32 -2 -5 15 -198 37 -428 22 -229
37 -420 34 -423 -6 -6 -975 -43 -1117 -43 l-75 0 -123 174 -124 175 -125 0
c-104 0 -136 -4 -186 -22 l-59 -22 7 -115 c4 -73 3 -112 -3 -106 -5 6 -51 67
-102 138 l-92 127 -123 0 c-102 0 -131 -4 -176 -22 -30 -12 -58 -25 -62 -29
-5 -4 -4 -56 1 -117 10 -104 17 -131 148 -504 76 -216 146 -405 157 -420 l18
-28 143 0 c116 0 146 -3 156 -15 7 -9 10 -18 7 -21 -3 -3 -55 -8 -116 -11
l-111 -6 -10 -36 c-23 -82 -9 -379 70 -1504 44 -628 82 -1163 84 -1189 l5 -47
-47 -3 -47 -3 -3 -87 -3 -88 -1219 0 -1219 0 -64 60 -65 60 -1753 0 -1754 -1
-97 -94 -98 -95 0 -95 0 -95 35 0 35 0 0 -145 0 -145 -80 0 -80 0 0 -295 0
-295 -455 0 -455 0 0 -130 0 -130 455 0 455 0 0 -120 0 -120 950 0 950 0 0
-93 c0 -88 1 -94 30 -129 l30 -36 -55 -94 -55 -93 0 -159 0 -159 35 -63 35
-62 0 -181 0 -181 468 -2 469 -3 -71 -159 -71 -160 -539 -125 -538 -126 -1479
-1353 -1479 -1353 -168 -29 c-92 -16 -669 -128 -1282 -249 -613 -121 -1716
-331 -2450 -466 -734 -135 -1343 -248 -1352 -251 -15 -5 -18 -18 -18 -84 l0
-79 -67 -20 c-38 -11 -114 -33 -171 -49 -57 -17 -105 -32 -107 -34 -1 -1 -14
-43 -29 -93 l-26 -90 0 -667 c0 -627 -1 -668 -17 -668 -10 0 -1045 -75 -2300
-166 l-2283 -165 -44 38 -44 38 54 3 54 3 0 123 0 123 -567 521 -568 522 -189
0 -189 0 -59 51 -59 52 -60 -6 -59 -5 0 159 0 159 -42 -1 c-24 0 -403 -30
-843 -67 l-800 -67 -3 -166 -2 -167 -53 -6 c-28 -3 -410 -38 -847 -76 l-795
-71 -96 -95 -96 -96 -629 -44 c-346 -24 -639 -44 -651 -44 -23 0 -23 0 -25
-187 -1 -104 -3 -164 -5 -135 -2 28 -8 52 -14 52 -5 0 -9 11 -9 25 l0 25 -170
0 -170 0 0 -454 c0 -295 4 -456 10 -458 6 -2 13 -105 17 -266 l6 -262 163 0
163 0 4 78 3 77 2 -85 2 -85 -507 -94 c-280 -52 -516 -96 -525 -99 -17 -4 -18
20 -18 392 l0 396 -30 0 -30 0 0 -399 c0 -372 -1 -400 -17 -405 -10 -2 -58
-12 -108 -21 -88 -16 -91 -18 -137 -68 l-47 -52 -1 -87 0 -88 -30 0 -30 0 0
-450 0 -450 30 0 30 0 0 -87 1 -88 48 -52 c48 -51 51 -52 137 -68 49 -9 97
-19 107 -21 16 -5 17 -33 17 -405 l0 -399 30 0 30 0 0 396 c0 372 1 396 18
392 9 -3 245 -47 525 -98 l507 -94 -2 -86 -2 -85 -3 78 -4 77 -163 0 -163 0
-6 -262 c-4 -161 -11 -264 -17 -266 -6 -2 -10 -163 -10 -458 l0 -454 170 0
170 0 0 25 c0 14 4 25 9 25 6 0 12 24 14 53 2 28 4 -32 5 -135 l2 -188 28 0
c15 0 308 -20 651 -44 l624 -44 96 -95 96 -96 795 -70 c437 -39 819 -74 847
-77 l53 -6 2 -167 3 -166 805 -67 c443 -37 822 -67 843 -67 l37 -1 0 160 0
160 59 -7 60 -6 57 52 58 51 190 0 191 0 568 522 567 521 0 123 0 123 -54 3
-54 3 44 38 44 38 2288 -165 c1258 -92 2293 -166 2300 -166 9 0 12 -140 12
-667 l0 -668 26 -90 c15 -49 28 -92 29 -93 2 -2 50 -17 107 -34 57 -16 133
-38 171 -49 l67 -20 0 -79 c0 -66 3 -79 18 -84 9 -3 640 -120 1402 -260 762
-141 1864 -350 2450 -466 586 -116 1140 -224 1232 -240 l168 -29 572 -524
c315 -288 981 -897 1479 -1353 l907 -829 538 -126 539 -125 71 -160 71 -159
-469 -3 -468 -2 0 -186 0 -186 -35 -58 -35 -58 0 -155 0 -155 55 -93 c30 -52
55 -99 55 -105 0 -6 -11 -21 -25 -34 -23 -22 -25 -30 -25 -122 l0 -98 -952 -2
-953 -3 -3 -118 -3 -117 -454 0 -455 0 0 -130 0 -130 455 0 455 0 2 -292 3
-293 78 -3 77 -3 0 -144 0 -145 -35 0 -35 0 0 -94 0 -94 101 -96 101 -96 1757
0 1757 0 59 60 59 60 1223 0 1223 0 0 -90 0 -90 45 0 c25 0 45 -4 45 -8 0 -5
-38 -552 -85 -1215 -84 -1199 -95 -1410 -74 -1507 l11 -50 57 0 c32 0 86 -3
120 -6 59 -7 61 -8 45 -25 -15 -17 -34 -19 -159 -19 -140 0 -143 0 -159 -24
-8 -14 -78 -204 -155 -423 -133 -377 -141 -404 -149 -503 -5 -58 -7 -110 -5
-115 2 -6 31 -20 66 -33 51 -18 83 -22 178 -22 135 0 114 -14 234 155 97 137
98 138 91 95 -3 -19 -8 -73 -11 -120 l-6 -86 63 -22 c55 -20 80 -22 188 -20
l125 3 124 173 123 172 72 0 c119 -1 1117 -37 1120 -41 2 -2 -14 -182 -35
-399 -21 -217 -38 -411 -36 -429 2 -32 6 -37 57 -57 49 -20 88 -24 314 -35
239 -11 259 -11 268 5 5 9 14 14 19 10 5 -3 125 -11 265 -17 225 -11 257 -10
268 3 7 8 40 58 73 110 52 84 75 140 196 485 75 215 138 405 139 424 3 33 1
35 -54 58 -48 19 -87 25 -215 31 -112 6 -14 8 340 6 l498 -4 9 23 c5 12 48
225 95 472 82 432 89 461 173 720 l86 270 8 839 c5 462 11 842 14 845 5 5
3213 48 3762 50 l152 1 0 50 c0 41 -3 50 -17 50 -340 -8 -3911 -46 -3924 -43
-15 4 -19 14 -19 44 l0 39 115 0 115 0 0 260 0 260 -45 0 -45 0 0 215 0 215
45 0 45 0 0 265 0 265 -185 0 -185 0 0 25 c0 24 2 25 70 25 40 0 70 4 70 10 0
6 9 10 20 10 10 0 24 9 30 19 12 24 14 652 1 696 -8 29 9 53 340 489 192 252
349 465 349 472 0 7 -18 25 -40 41 l-40 28 0 186 c0 151 -3 189 -15 199 -8 6
-182 42 -387 79 l-373 66 -3 138 -3 137 -39 0 -40 0 0 70 c0 56 -3 70 -15 70
-11 0 -15 11 -15 40 l0 40 1085 0 c1078 0 1085 0 1085 20 0 20 -7 20 -1080 20
-594 0 -1080 2 -1080 5 0 11 823 2150 831 2159 4 4 411 41 906 81 494 41 1069
93 1278 115 l380 41 2725 690 c1499 379 2732 693 2740 697 24 14 42 84 119
447 39 187 75 348 79 359 6 15 79 -76 365 -453 197 -259 360 -471 362 -471 19
0 225 85 225 92 0 6 -66 267 -146 582 l-145 571 -76 77 -76 76 84 25 c208 63
370 109 373 106 1 -2 12 -33 24 -68 15 -45 18 -68 11 -77 -7 -9 -3 -27 14 -61
19 -41 746 -1081 783 -1122 10 -12 30 -7 127 28 l115 42 -25 97 c-14 53 -87
342 -164 642 l-138 545 -78 77 -78 76 207 61 c114 34 213 64 220 66 10 4 19
-10 30 -44 15 -47 15 -50 -4 -69 -20 -19 -20 -20 1 -66 26 -60 803 -1205 817
-1206 14 0 207 70 217 80 4 4 -69 308 -162 676 l-171 668 -77 78 c-43 43 -84
78 -92 78 -16 0 -19 -21 46 288 l46 223 56 29 c67 34 76 42 135 146 47 83 57
131 32 156 -11 12 41 20 343 53 196 21 366 42 377 46 18 6 23 19 29 68 l7 60
78 7 78 6 88 89 89 90 -96 94 -96 95 -71 0 -70 0 -7 61 c-6 49 -11 62 -29 68
-11 4 -181 25 -377 46 -302 33 -354 41 -343 53 25 25 15 73 -32 156 -59 103
-66 111 -136 148 -32 17 -58 34 -58 38 0 3 -22 113 -50 244 -27 131 -50 242
-50 247 0 5 6 9 13 9 7 0 47 35 90 78 l77 78 171 668 c93 368 166 672 162 676
-10 10 -203 80 -217 80 -15 -1 -790 -1145 -817 -1205 -21 -47 -21 -47 -1 -68
19 -21 19 -24 3 -68 l-16 -47 -220 65 -220 65 78 76 78 77 138 545 c77 300
150 589 164 642 l24 97 -109 40 c-60 23 -113 41 -117 41 -12 0 -782 -1096
-804 -1144 -12 -26 -15 -42 -8 -50 7 -9 4 -32 -11 -77 -12 -35 -23 -66 -24
-68 -3 -3 -301 82 -423 121 l-33 10 75 77 76 76 147 578 c81 317 144 580 141
583 -3 3 -54 24 -113 45 -103 38 -108 39 -124 22 -10 -10 -172 -222 -361 -472
-274 -362 -345 -449 -351 -435 -4 11 -39 168 -77 351 -83 392 -99 451 -120
457 -9 3 -1243 316 -2742 695 l-2725 690 -380 41 c-208 23 -783 74 -1278 115
-494 40 -902 77 -906 82 -3 4 -325 837 -715 1851 -549 1430 -713 1847 -732
1862 -13 10 -176 113 -361 227 l-337 208 -95 11 c-89 11 -82 12 100 7 107 -3
390 2 629 11 541 20 624 20 687 1 l49 -15 370 -489 c204 -270 376 -490 383
-490 17 -1 152 101 152 114 0 5 -158 216 -350 469 -312 410 -349 461 -342 485
9 34 9 658 -1 694 -5 20 -14 27 -32 27 -14 0 -25 5 -25 10 0 6 -28 10 -65 10
-63 0 -65 1 -65 25 l0 25 180 0 180 0 0 265 0 265 -45 0 -45 0 0 215 0 215 45
0 45 0 0 260 0 260 -115 0 -115 0 0 39 c0 30 4 40 19 44 11 2 901 -6 1978 -19
1076 -12 1958 -22 1959 -21 1 1 5 23 9 48 l7 47 -484 7 c-265 3 -1145 14
-1955 23 -809 9 -1475 20 -1479 24 -4 4 -11 384 -15 843 l-8 835 -86 269 c-82
256 -90 291 -175 730 -48 254 -93 468 -100 476 -10 12 -83 14 -504 11 -341 -2
-444 0 -336 5 119 7 168 14 213 30 52 20 57 24 57 52 0 17 -63 210 -140 430
-132 375 -145 405 -208 505 -37 58 -72 106 -77 107 -6 1 -125 -4 -265 -11z
m208 -1131 c-10 -2 -28 -2 -40 0 -13 2 -5 4 17 4 22 1 32 -1 23 -4z m-588
-943 c0 -13 -10 -24 -26 -30 -33 -13 -31 -14 -43 20 l-10 30 40 0 c32 0 39 -3
39 -20z m-429 -26 c8 -22 7 -22 -207 -29 -118 -4 -216 -6 -218 -4 -2 2 -7 14
-10 26 -7 21 -4 22 71 26 43 2 140 3 217 3 132 -1 139 -2 147 -22z m-1751
-3783 c0 -21 3 -59 6 -85 l7 -46 -1307 0 -1306 0 0 85 0 85 1300 0 1300 0 0
-39z m14 -213 c10 -48 35 -483 28 -489 -15 -15 -325 -129 -399 -148 -43 -11
-132 -25 -198 -30 -229 -21 -812 -50 -1130 -57 -223 -5 -334 -11 -365 -20 -25
-8 -160 -20 -305 -29 -143 -8 -288 -17 -322 -20 l-63 -6 0 255 0 255 68 3 67
3 3 153 3 152 1304 0 1305 0 4 -22z m-3679 -753 l76 -104 102 -4 c56 -1 6 -4
-110 -5 l-213 -2 0 65 c0 53 -5 73 -25 105 -14 22 -25 42 -25 45 0 3 27 5 59
5 l59 0 77 -105z m-21088 -7477 c-1 -123 -2 -25 -2 217 0 242 1 342 2 223 2
-119 2 -317 0 -440z m0 -3370 c-1 -123 -2 -25 -2 217 0 242 1 342 2 223 2
-119 2 -317 0 -440z m29138 -5724 c238 -35 324 -51 335 -63 14 -13 15 -39 10
-166 l-5 -150 -54 -70 c-30 -38 -56 -71 -57 -73 -1 -2 -141 -18 -310 -37 -170
-19 -324 -36 -341 -39 -32 -5 -33 -3 -33 30 0 24 5 34 15 34 12 0 15 16 15 85
l0 85 40 0 40 0 0 205 c0 157 3 205 13 205 6 0 156 -21 332 -46z m-525 -573
l0 -39 -45 -4 c-41 -3 -45 -1 -45 19 0 18 6 23 25 23 18 0 25 5 25 20 0 13 7
20 20 20 17 0 20 -7 20 -39z m584 -173 c-64 -84 -191 -251 -282 -371 l-165
-217 -56 -17 c-51 -15 -93 -15 -506 -2 -247 8 -574 14 -725 13 -247 0 -265 1
-180 10 l95 11 330 204 c182 112 344 214 361 226 22 17 39 46 60 101 l29 77
179 -7 c102 -4 182 -4 185 2 3 4 179 33 391 64 212 31 388 56 392 57 4 0 -45
-68 -108 -151z m-7930 -465 l-101 -4 -74 -104 -74 -104 -63 -1 -63 0 26 43
c20 35 25 57 25 110 l0 67 213 -2 c116 -1 167 -4 111 -5z m1138 -88 c160 -9
282 -21 305 -29 27 -9 131 -15 363 -20 327 -7 917 -37 1130 -57 63 -6 150 -19
192 -30 80 -20 386 -134 402 -149 5 -5 2 -104 -8 -242 -9 -128 -16 -241 -16
-250 0 -17 -69 -18 -1310 -18 l-1309 0 -3 153 -3 152 -67 3 -68 3 0 255 0 255
63 -6 c34 -3 182 -12 329 -20z m2358 -894 c0 -21 -3 -59 -6 -85 l-7 -46 -1298
0 -1299 0 0 85 0 85 1305 0 1305 0 0 -39z m1747 -3855 c1 -1 0 -12 -4 -24 -5
-21 -9 -22 -137 -21 -72 1 -170 4 -217 8 -86 6 -86 6 -78 30 l9 24 213 -8
c116 -4 213 -8 214 -9z m400 -12 c12 -3 23 -16 26 -30 4 -22 1 -24 -34 -24
-41 0 -42 2 -33 38 7 24 8 25 41 16z m611 -981 c-10 -2 -28 -2 -40 0 -13 2 -5
4 17 4 22 1 32 -1 23 -4z"/>
</g>
</svg>
