<?xml version="1.0" standalone="no"?>
<!DOCTYPE svg PUBLIC "-//W3C//DTD SVG 20010904//EN"
 "http://www.w3.org/TR/2001/REC-SVG-20010904/DTD/svg10.dtd">
<svg version="1.0" xmlns="http://www.w3.org/2000/svg"
   viewBox="0 0 3820.000000 1275.000000"
 preserveAspectRatio="xMidYMid meet">
<metadata>
Created by potrace 1.16, written by Peter Selinger 2001-2019
</metadata>
<g transform="translate(0.000000,1275.000000) scale(0.100000,-0.100000)"
fill="#000000" stroke="none">
<path d="M21505 12311 l-2660 -437 0 -43 0 -43 315 -112 315 -111 1532 -5
1532 -5 -507 -108 -507 -108 -21 25 -21 24 -84 -53 -84 -52 -3 -504 c-2 -277
0 -555 3 -617 l7 -113 83 -41 84 -42 18 23 19 24 615 -117 614 -116 15 22 c8
12 36 53 63 90 l48 68 48 0 48 0 47 -70 46 -70 55 0 55 0 0 -38 0 -39 188 -6
c103 -4 229 -7 281 -7 l94 0 47 44 47 44 89 -5 c49 -3 90 -6 91 -7 1 -1 9 -19
18 -39 l15 -37 -47 0 c-92 -1 -533 -27 -538 -31 -2 -3 0 -318 6 -701 9 -648
19 -872 42 -894 3 -3 376 1 829 10 l823 17 43 47 c23 26 45 57 48 70 6 20 12
22 74 22 l68 0 107 -180 107 -180 109 0 109 0 0 -162 c0 -90 3 -214 7 -275 l6
-113 -496 0 -497 0 0 -95 0 -95 -224 0 -224 0 -17 50 -17 50 -324 0 -324 0 0
119 0 119 -32 6 c-43 7 -1956 306 -1963 306 -3 0 -5 152 -5 339 l0 339 -52 5
c-29 4 -1173 68 -2543 143 -1369 75 -2500 138 -2511 140 -12 2 -63 37 -113 79
-59 47 -104 76 -124 79 -18 3 -697 34 -1511 70 l-1478 65 -47 -40 -48 -39
-574 25 c-316 13 -726 32 -912 41 l-338 16 -422 228 c-232 125 -636 345 -897
488 l-475 260 -53 76 -53 76 -1129 0 -1129 0 -43 50 -43 50 -857 0 -858 0 0
61 0 61 -1697 -6 c-934 -3 -2169 -9 -2744 -12 l-1046 -6 -9 -1722 c-11 -2136
-11 -2475 0 -4617 l9 -1726 1701 -6 c936 -4 2170 -7 2744 -7 l1042 0 0 55 0
55 854 0 854 0 50 55 51 55 1128 0 1128 0 45 70 45 70 675 369 c371 203 778
424 903 491 l228 123 915 40 916 39 37 -36 c34 -34 41 -36 99 -36 34 0 716 29
1514 65 l1452 66 95 78 96 78 2545 142 c1400 78 2553 141 2563 141 16 0 17 21
17 308 0 169 3 323 6 342 l6 35 994 155 994 155 0 123 0 122 324 0 324 0 17
50 17 50 224 0 224 0 0 -95 0 -95 497 0 496 0 -6 -112 c-4 -62 -7 -188 -7
-280 l0 -167 -112 -3 -113 -3 -105 -178 -105 -177 -67 0 c-50 0 -68 4 -68 13
0 11 -62 102 -84 125 -5 5 -1658 41 -1664 36 -2 -1 -10 -47 -18 -103 -10 -71
-17 -302 -24 -797 -5 -384 -8 -699 -7 -700 1 -1 106 -7 232 -13 127 -6 258
-14 292 -17 l63 -6 -20 -39 -20 -39 -86 0 c-86 0 -86 0 -134 40 l-48 40 -281
0 -281 0 0 -39 0 -38 -57 -7 -58 -7 -45 -69 -45 -70 -47 0 -47 0 -61 90 c-33
50 -64 90 -68 90 -4 0 -281 -51 -616 -114 l-610 -114 -18 24 -19 23 -83 -41
-83 -41 -7 -90 c-3 -50 -6 -328 -6 -618 l0 -528 86 -51 85 -52 25 23 24 22
487 -104 488 -104 -1501 -5 -1500 -5 -332 -115 -332 -115 0 -42 c0 -24 2 -43
5 -43 3 0 1213 -198 2689 -440 l2683 -440 641 0 642 0 0 295 0 295 30 0 c30 0
30 -1 30 -55 l0 -55 665 0 665 0 0 165 0 165 30 0 30 0 0 -405 0 -405 643 0
644 0 2683 440 c1475 242 2684 440 2686 440 2 0 4 19 4 43 l0 42 -337 118
-338 117 -2877 0 -2878 0 0 35 0 35 -145 0 -145 0 0 60 c0 32 -11 155 -25 272
-14 117 -25 225 -23 241 3 27 38 49 478 302 l475 273 3 131 3 131 29 0 30 0 0
65 0 65 64 0 64 0 7 143 c3 78 5 534 3 1012 l-3 870 -677 3 -678 2 0 280 0
280 145 0 145 0 0 260 0 260 560 0 560 0 0 -73 0 -74 1613 -8 c886 -5 1648 -9
1691 -9 l80 -1 27 93 c15 51 29 95 31 97 2 2 78 9 168 15 230 16 210 7 210 90
0 39 1 70 3 71 1 1 130 9 287 19 l285 18 62 -34 c83 -46 150 -47 226 -4 l54
30 259 0 259 0 50 -30 c65 -39 133 -41 196 -6 42 23 55 25 301 31 l256 8 54
-31 c77 -44 143 -45 225 -4 l62 32 269 0 269 0 7 -37 c3 -21 6 -70 6 -110 0
-39 4 -74 10 -78 5 -3 131 -12 281 -20 l271 -14 43 -36 43 -35 514 0 c502 0
515 0 583 22 66 21 93 23 450 28 327 4 380 7 382 20 1 8 4 32 8 53 l6 37 82
-6 c45 -4 91 -10 102 -14 14 -5 59 12 160 62 77 39 141 72 143 73 2 2 23 50
47 107 24 56 50 119 58 138 15 34 14 38 -42 175 l-58 140 -139 72 c-97 50
-147 70 -164 67 -14 -3 -62 -8 -107 -12 l-82 -8 -8 51 -8 50 -375 5 c-375 6
-375 6 -455 33 l-80 27 -505 0 -505 0 -49 -40 c-29 -25 -58 -40 -75 -40 -122
1 -517 -25 -523 -34 -4 -6 -8 -38 -8 -72 0 -34 -3 -83 -7 -109 l-6 -48 -274 7
-273 7 -62 29 c-83 40 -136 40 -203 0 l-50 -30 -261 0 -261 0 -54 30 c-73 40
-116 39 -195 -5 l-62 -35 -249 0 -248 0 -65 35 c-87 47 -131 47 -217 -1 l-65
-37 -207 12 c-113 6 -243 14 -288 18 l-83 6 0 72 0 72 -77 6 c-43 4 -129 10
-190 13 l-112 7 -15 51 c-8 28 -21 73 -28 100 l-13 49 -460 -6 c-253 -4 -1015
-10 -1692 -14 l-1233 -6 0 -69 0 -68 -273 0 c-151 0 -403 -3 -560 -7 l-287 -6
0 266 0 267 -145 0 -145 0 0 280 0 280 678 2 677 3 3 870 c2 479 0 935 -4
1014 l-6 143 -64 -4 -64 -4 0 63 0 63 -30 0 -30 0 0 133 0 132 -480 275 -480
275 0 35 c0 19 11 127 25 240 14 113 25 231 25 263 l0 57 145 0 145 0 0 40 0
40 2888 0 2887 1 325 113 325 113 0 44 0 43 -2665 438 -2665 437 -662 1 -663
0 0 -405 0 -405 -30 0 -30 0 0 165 0 165 -665 0 -665 0 0 -50 c0 -49 -1 -50
-30 -50 l-30 0 0 290 0 290 -667 -1 -668 -1 -2660 -437z m1628 -758 c-51 -4
-53 -5 -98 -69 l-46 -64 -52 0 c-29 0 -61 -3 -72 -6 -17 -4 -26 7 -57 70 l-38
76 208 -2 c114 -1 184 -3 155 -5z m-163 -10222 c15 -4 42 -32 68 -69 l43 -62
-150 0 c-83 0 -151 2 -151 5 0 2 14 34 32 70 l32 65 51 -1 c27 -1 61 -4 75 -8z"/>
</g>
</svg>
