<?xml version="1.0" standalone="no"?>
<!DOCTYPE svg PUBLIC "-//W3C//DTD SVG 20010904//EN"
 "http://www.w3.org/TR/2001/REC-SVG-20010904/DTD/svg10.dtd">
<svg version="1.0" xmlns="http://www.w3.org/2000/svg"
   viewBox="0 0 3858.000000 1065.000000"
 preserveAspectRatio="xMidYMid meet">
<metadata>
Created by potrace 1.16, written by Peter Selinger 2001-2019
</metadata>
<g transform="translate(0.000000,1065.000000) scale(0.100000,-0.100000)"
fill="#000000" stroke="none">
<path d="M2950 10387 l0 -263 -152 -18 c-90 -11 -349 -25 -627 -35 l-474 -16
-12 -43 c-7 -23 -16 -100 -19 -170 -4 -70 -9 -160 -12 -199 l-6 -73 -59 0 -59
0 0 110 0 110 -177 0 -178 0 -225 -61 -226 -62 -37 -71 -37 -71 0 -455 1 -455
32 -64 32 -63 215 -75 215 -75 145 11 c80 7 166 14 193 18 l47 6 0 108 0 109
25 0 c25 0 25 0 25 -98 0 -77 5 -113 24 -168 22 -66 24 -90 31 -397 l7 -327
-256 0 -255 0 -126 -76 -125 -76 -2 -246 -3 -246 -432 -110 -431 -110 -7 -91
c-8 -112 -2 -2721 6 -2729 3 -4 192 -53 419 -111 228 -58 422 -107 432 -111
17 -5 18 -23 18 -267 l0 -262 124 -73 124 -72 257 0 257 0 -7 -312 c-7 -291
-9 -317 -31 -382 -19 -54 -24 -91 -24 -168 0 -98 0 -98 -25 -98 l-25 0 0 109
0 108 -117 12 c-278 28 -241 32 -482 -53 -118 -41 -215 -77 -216 -78 -2 -2
-17 -31 -34 -65 l-31 -62 0 -453 0 -452 37 -71 36 -71 221 -62 c220 -62 222
-62 351 -62 72 0 154 3 183 6 l52 7 0 103 0 104 59 0 59 0 6 -72 c3 -40 8
-129 11 -198 8 -156 20 -209 49 -214 11 -3 228 -12 481 -20 253 -9 526 -24
608 -33 l147 -17 0 -263 c0 -246 1 -263 18 -263 18 0 325 39 792 101 l245 32
105 -26 105 -27 960 15 960 14 1365 176 1365 177 780 475 780 475 560 94 560
94 620 0 c511 0 996 -11 2765 -60 2068 -57 2200 -62 3680 -134 l1535 -75 2135
-37 2135 -37 1580 22 1580 21 1230 75 1230 74 1055 105 1055 105 855 146 855
145 365 126 c200 69 371 130 379 137 9 7 16 8 18 2 29 -74 34 -78 132 -102
l94 -24 345 66 c290 56 427 89 857 206 l512 140 459 198 459 199 147 168 c115
131 190 232 336 449 187 277 191 283 309 545 115 254 123 276 191 530 68 253
73 276 95 500 l24 235 -24 235 c-23 227 -26 244 -98 511 -73 266 -80 285 -192
530 -111 244 -123 264 -299 527 -135 200 -222 319 -331 446 l-148 173 -464
202 -465 202 -515 139 c-406 109 -589 153 -856 205 l-340 66 -95 -23 c-93 -24
-95 -25 -115 -65 -19 -40 -21 -41 -45 -29 -14 7 -187 68 -385 134 l-360 121
-858 146 -857 145 -1063 105 -1062 105 -1240 75 -1240 74 -1555 21 -1555 20
-2135 -35 -2135 -35 -1620 -80 -1620 -80 -2095 -55 c-1640 -43 -2223 -55
-2685 -55 l-590 0 -555 93 -555 93 -769 468 c-423 258 -781 473 -795 478 -14
5 -631 88 -1371 184 l-1345 176 -965 14 -965 14 -102 -29 -102 -28 -513 68
c-282 38 -521 69 -530 69 -17 0 -18 -19 -18 -263z"/>
</g>
</svg>
