<?xml version="1.0" standalone="no"?>
<!DOCTYPE svg PUBLIC "-//W3C//DTD SVG 20010904//EN"
 "http://www.w3.org/TR/2001/REC-SVG-20010904/DTD/svg10.dtd">
<svg version="1.0" xmlns="http://www.w3.org/2000/svg"
   viewBox="0 0 4303.000000 1736.000000"
 preserveAspectRatio="xMidYMid meet">
<metadata>
Created by potrace 1.16, written by Peter Selinger 2001-2019
</metadata>
<g transform="translate(0.000000,1736.000000) scale(0.100000,-0.100000)"
fill="#000000" stroke="none">
<path d="M22380 16930 l0 -430 470 0 470 0 0 -300 0 -300 -470 0 -470 0 0
-430 c0 -403 1 -430 18 -430 9 0 152 11 317 25 165 14 312 25 328 25 l27 0 0
-455 0 -455 -45 0 -45 0 0 -190 0 -190 -35 0 -35 0 0 -270 0 -270 -30 0 -30 0
0 -165 0 -165 -182 -2 -181 -3 -129 -385 -128 -385 0 -162 0 -163 -395 0
c-217 0 -395 1 -396 3 -2 8 -28 1421 -29 1555 l0 162 -1289 0 -1289 0 -7 -145
-7 -145 -349 0 -349 0 0 160 0 160 -485 0 -485 0 0 -160 0 -160 -350 0 -350 0
0 145 0 145 -1290 0 -1290 0 0 -77 c0 -43 -3 -108 -7 -145 l-6 -68 -348 0
-349 0 0 160 0 160 -485 0 -485 0 0 -160 0 -160 -350 0 -350 0 0 145 0 145
-1290 0 -1290 0 0 -107 c0 -60 -3 -125 -6 -145 l-7 -38 -348 0 -349 0 0 160 0
160 -485 0 -485 0 0 -160 0 -160 -245 0 -245 0 0 25 0 25 -225 0 -225 0 0
-145 0 -145 43 0 c40 0 77 -21 77 -43 0 -4 -108 -7 -240 -7 l-240 0 -130 -195
-130 -195 -255 0 -255 0 -90 45 c-79 40 -97 45 -155 45 -63 0 -65 1 -65 25 0
24 -3 25 -60 25 -57 0 -60 -1 -60 -25 l0 -25 -565 0 -565 0 0 25 c0 24 -3 25
-55 25 -52 0 -55 -1 -55 -25 l0 -25 -105 0 -105 0 0 -45 0 -45 -510 0 -510 0
0 191 c0 144 -4 204 -16 245 -8 30 -18 54 -22 54 -12 0 -2213 -607 -2217 -612
-3 -2 2 -29 11 -59 12 -40 59 -115 188 -299 l173 -245 -134 -3 -133 -3 0 -244
0 -245 308 0 308 0 87 -124 86 -123 193 33 c106 19 205 36 220 40 l28 6 0 -66
c0 -36 -2 -66 -4 -66 -2 0 -109 -22 -236 -50 -127 -27 -236 -50 -241 -50 -5 0
-9 18 -9 40 l0 40 -75 0 -75 0 0 -58 0 -59 -85 -18 -85 -18 0 -2207 0 -2207
85 -18 85 -18 0 -58 0 -59 75 0 75 0 0 40 c0 22 5 40 10 40 6 0 114 -22 241
-50 127 -28 232 -50 235 -50 2 0 4 -29 4 -65 l0 -64 -27 5 c-16 2 -115 20
-221 38 l-193 33 -86 -123 -87 -124 -308 0 -308 0 0 -245 0 -245 135 0 136 0
-55 -77 c-273 -387 -298 -425 -312 -475 -7 -29 -11 -54 -9 -56 4 -4 2205 -612
2217 -612 4 0 14 24 22 54 12 41 16 101 16 245 l0 191 510 0 510 0 0 -45 0
-45 105 0 105 0 0 -25 c0 -24 3 -25 55 -25 52 0 55 1 55 25 l0 25 565 0 565 0
0 -25 c0 -24 3 -25 60 -25 57 0 60 1 60 25 0 24 2 25 66 25 58 0 76 5 153 45
l87 45 257 0 257 0 130 -195 130 -195 240 0 c132 0 240 -4 240 -8 0 -21 -39
-42 -78 -42 l-42 0 0 -145 0 -145 225 0 225 0 0 25 0 25 245 0 245 0 0 -160 0
-160 485 0 485 0 0 160 0 160 349 0 348 0 7 -38 c3 -20 6 -85 6 -144 l0 -108
1290 0 1290 0 0 145 0 145 350 0 350 0 0 -160 0 -160 485 0 485 0 0 160 0 160
349 0 348 0 6 -68 c4 -37 7 -102 7 -144 l0 -78 1290 0 1290 0 0 145 0 145 350
0 350 0 0 -160 0 -160 485 0 485 0 0 160 0 160 349 0 349 0 7 -145 7 -145
1289 0 1289 0 0 163 c1 133 27 1546 29 1555 1 1 179 2 396 2 l395 0 0 -162 0
-163 128 -385 128 -385 182 -3 182 -2 0 -165 0 -165 30 0 30 0 0 -270 0 -270
35 0 35 0 0 -190 0 -190 45 0 45 0 0 -455 0 -455 -27 0 c-16 0 -163 11 -328
25 -165 14 -308 25 -317 25 -17 0 -18 -27 -18 -430 l0 -430 470 0 470 0 0
-300 0 -300 -470 0 -470 0 0 -431 0 -432 63 6 c34 3 188 16 342 28 l280 22
125 58 125 58 570 46 c314 25 703 57 865 70 162 14 305 25 317 25 21 0 23 4
23 55 l0 55 567 0 568 0 880 70 c484 38 907 72 940 75 258 19 275 22 275 39 0
15 51 26 128 26 33 0 51 4 47 10 -3 6 -30 10 -59 10 -30 0 -68 3 -85 6 -30 6
-31 9 -31 55 0 27 -1 50 -2 51 -2 0 -464 6 -1028 12 l-1025 12 -55 -33 c-45
-27 -66 -33 -113 -33 l-57 0 0 40 c0 39 -1 40 -35 40 -34 0 -35 -1 -35 -40 l0
-40 -105 0 -105 0 0 40 c0 39 -1 40 -35 40 -34 0 -35 -1 -35 -40 l0 -40 -110
0 -110 0 0 40 c0 39 -1 40 -35 40 -34 0 -35 -1 -35 -40 l0 -40 -155 0 -155 0
0 465 0 465 155 0 155 0 0 -40 c0 -39 1 -40 35 -40 34 0 35 1 35 40 l0 40 110
0 110 0 0 -40 c0 -39 1 -40 35 -40 34 0 35 1 35 40 l0 40 105 0 105 0 0 -40
c0 -39 1 -40 35 -40 34 0 35 1 35 40 l0 40 57 0 c47 0 68 -6 113 -33 l55 -33
1028 10 1027 9 0 52 c0 51 1 53 31 59 17 3 58 6 90 6 33 0 59 4 59 10 0 6 -26
10 -59 10 -77 0 -121 9 -121 26 0 8 -17 15 -42 18 -24 4 -496 42 -1050 86
l-1007 80 -565 0 -566 0 0 30 c0 24 -4 30 -20 30 -26 0 -854 67 -932 76 l-58
6 0 544 0 544 94 0 93 0 6 63 c3 34 25 315 49 624 l43 563 355 0 355 1 133
407 133 407 0 253 -1 252 915 0 915 0 0 -793 0 -793 24 -80 23 -79 220 -3 219
-2 27 89 27 90 0 785 0 786 95 0 95 0 0 -801 0 -801 23 -74 22 -74 220 2 219
3 23 75 23 75 0 798 0 797 80 0 80 0 0 -793 0 -793 24 -80 c20 -70 26 -79 49
-82 17 -2 26 -10 29 -27 5 -22 -3 -27 -126 -70 -72 -25 -237 -81 -366 -123
-196 -66 -235 -82 -238 -99 -2 -11 27 -317 63 -679 l67 -659 31 -50 32 -51
553 161 552 162 194 -24 193 -24 1009 514 1009 514 50 -496 c49 -486 51 -497
78 -543 17 -27 36 -48 45 -48 10 1 259 72 555 158 l539 158 194 -24 194 -23
1396 710 c768 391 1397 711 1399 711 1 0 44 -168 95 -372 52 -205 105 -398
119 -429 l26 -56 572 162 571 162 212 -23 212 -24 2554 1288 c1404 708 2553
1292 2553 1297 0 6 -10 30 -22 54 l-22 44 -457 203 -458 203 -122 -41 c-68
-23 -124 -42 -126 -43 -2 -2 7 -23 19 -49 13 -25 21 -47 18 -49 -2 -3 -155
-54 -339 -115 l-335 -111 -1074 -76 -1073 -75 -314 139 -314 139 -123 -40
c-67 -23 -123 -42 -125 -43 -1 -1 7 -24 18 -50 11 -26 19 -49 18 -50 -2 -1
-133 -46 -293 -99 l-290 -96 -1080 -76 -1080 -76 -365 162 -365 162 -127 -42
c-71 -23 -128 -44 -128 -46 0 -3 9 -22 20 -44 11 -22 20 -41 20 -44 0 -2 -184
-66 -408 -140 -304 -101 -421 -136 -458 -136 -27 0 -220 -40 -434 -91 l-385
-90 -800 365 -800 366 -792 0 -792 0 -27 86 c-14 47 -24 87 -22 89 2 3 234 7
516 11 l512 7 0 49 0 48 -533 0 -533 0 -35 118 -34 117 -1318 3 -1317 2 0 195
0 195 1375 0 1375 0 0 329 0 328 46 7 c26 3 107 6 180 6 l134 0 0 -335 0 -335
310 0 310 0 0 263 c0 228 3 272 20 337 19 72 20 112 20 890 0 778 -1 818 -20
890 -17 65 -20 109 -20 338 l0 262 -310 0 -310 0 0 -335 0 -335 -119 0 c-65 0
-146 3 -180 6 l-61 7 0 328 0 329 -1375 0 -1375 0 0 195 0 195 1317 2 1318 3
34 118 35 117 533 0 533 0 0 48 0 49 -512 7 c-282 4 -514 9 -516 11 -2 2 8 42
22 89 l27 86 791 0 791 0 801 366 801 366 385 -91 c212 -50 408 -91 435 -91
36 0 155 -35 457 -136 224 -74 408 -138 408 -140 0 -3 -9 -22 -20 -44 -11 -22
-20 -41 -20 -44 0 -2 57 -23 128 -47 l127 -41 365 162 365 162 1080 -76 1081
-76 290 -97 c159 -52 290 -97 292 -98 1 -1 -6 -23 -17 -48 -12 -29 -16 -49
-10 -52 5 -4 61 -24 124 -45 l114 -38 314 139 314 139 1074 -75 1074 -76 335
-111 c184 -61 337 -112 339 -115 3 -2 -5 -24 -17 -49 -16 -33 -19 -46 -10 -49
7 -3 63 -22 125 -44 l112 -40 458 203 458 203 22 44 c12 24 22 49 22 54 0 6
-1149 589 -2553 1297 l-2554 1288 -212 -23 -212 -23 -571 161 -572 162 -26
-56 c-14 -31 -68 -224 -119 -428 -51 -205 -94 -373 -95 -373 -1 0 -631 320
-1398 711 l-1396 710 -195 -23 -195 -24 -538 158 c-296 86 -545 157 -555 158
-9 0 -28 -21 -45 -47 -27 -47 -29 -58 -78 -544 l-50 -495 -1009 513 -1008 514
-195 -24 -194 -23 -552 161 -552 161 -32 -50 -31 -51 -67 -659 c-36 -362 -65
-668 -63 -679 3 -17 60 -39 363 -141 343 -115 360 -122 360 -146 0 -17 -7 -26
-24 -30 -20 -4 -28 -19 -47 -85 l-24 -79 0 -793 0 -793 -80 0 -80 0 0 798 0
797 -23 75 -23 75 -220 3 -220 2 -22 -75 c-22 -74 -22 -79 -22 -875 l0 -800
-95 0 -95 0 0 786 0 785 -27 90 -27 89 -219 -2 -220 -3 -23 -79 -24 -80 0
-793 0 -793 -915 0 -915 0 1 253 0 252 -133 407 -133 408 -355 0 -355 0 -43
563 c-24 309 -46 590 -49 625 l-6 62 -93 0 -94 0 0 544 0 545 53 5 c66 8 910
76 937 76 16 0 20 7 20 30 l0 30 563 0 562 0 1010 80 c556 44 1029 83 1053 86
25 3 42 10 42 18 0 17 44 26 121 26 33 0 59 4 59 10 0 6 -24 10 -52 10 -29 0
-70 3 -90 6 l-38 7 0 53 0 54 -402 1 c-222 1 -684 4 -1028 8 l-625 7 -55 -33
c-46 -27 -66 -33 -113 -33 l-57 0 0 40 c0 39 -1 40 -35 40 -34 0 -35 -1 -35
-40 l0 -40 -105 0 -105 0 0 40 c0 39 -1 40 -35 40 -34 0 -35 -1 -35 -40 l0
-40 -110 0 -110 0 0 40 c0 39 -1 40 -35 40 -34 0 -35 -1 -35 -40 l0 -40 -155
0 -155 0 0 465 0 465 155 0 155 0 0 -40 c0 -39 1 -40 35 -40 34 0 35 1 35 40
l0 40 110 0 110 0 0 -40 c0 -39 1 -40 35 -40 34 0 35 1 35 40 l0 40 105 0 105
0 0 -40 c0 -39 1 -40 35 -40 34 0 35 1 35 40 l0 40 58 0 c46 0 67 -6 112 -33
l55 -32 1025 11 c564 6 1026 12 1028 13 1 0 2 23 2 50 0 46 1 49 31 55 17 3
55 6 85 6 29 0 56 5 59 10 4 6 -11 10 -38 10 -75 0 -137 12 -137 26 0 17 -28
21 -270 39 -36 3 -461 37 -945 75 l-879 70 -568 0 -568 0 0 54 0 53 -77 7
c-153 12 -935 76 -1313 107 l-385 31 -125 57 -125 58 -335 27 c-184 14 -338
26 -342 26 -5 0 -8 -193 -8 -430z m7238 -4150 c267 -88 489 -160 493 -160 5 0
46 14 92 30 78 29 85 33 105 75 l21 44 778 -261 c428 -144 779 -262 781 -263
1 -1 -4 -18 -13 -37 l-14 -36 87 -30 c48 -17 95 -34 104 -37 12 -5 21 2 34 27
9 18 18 35 20 37 4 4 466 -149 477 -158 4 -4 -298 -96 -670 -204 l-678 -198
-1057 1 -1058 0 0 665 c0 366 3 665 6 665 3 0 225 -72 492 -160z m-23088 -330
l0 -110 -70 0 -70 0 -62 -85 -63 -84 -193 -1 -194 0 19 29 c10 16 68 103 128
195 l110 166 198 0 197 0 0 -110z m28425 -200 c330 -110 605 -202 612 -205 9
-3 9 -13 -3 -40 -16 -40 -29 -31 104 -79 40 -14 77 -26 83 -26 5 0 17 16 26
35 13 28 21 34 37 29 12 -4 298 -100 636 -215 491 -166 603 -207 555 -203 -58
5 -1329 94 -1339 94 -3 0 -1 12 5 26 5 15 7 29 4 32 -3 3 -226 116 -495 252
l-489 245 19 30 20 30 -193 97 c-105 53 -190 97 -187 97 3 1 275 -89 605 -199z
m-32593 -10 l-4 -70 -44 0 -44 0 0 70 0 70 48 0 47 0 -3 -70z m295 0 l108 -70
-122 0 -123 0 0 54 c0 58 7 86 20 86 5 0 57 -31 117 -70z m36163 -339 c304
-101 414 -142 411 -152 -18 -63 -19 -62 83 -97 52 -19 99 -31 104 -28 5 3 15
19 22 36 7 17 18 29 24 27 6 -2 271 -91 588 -198 317 -106 576 -195 575 -196
-2 -1 -284 18 -627 42 -344 25 -637 45 -653 45 l-27 0 25 50 c14 27 25 53 25
57 0 5 -225 120 -499 257 -486 244 -499 250 -488 273 5 13 13 23 16 23 3 0
193 -62 421 -139z m-16590 -656 c0 -135 -3 -165 -14 -165 -24 0 -640 70 -651
74 -19 7 -155 214 -155 235 0 21 1 21 410 21 l410 0 0 -165z m7710 -1859 c0
-8 -7 -50 -15 -93 -12 -63 -15 -179 -15 -613 0 -434 3 -550 15 -613 8 -43 15
-85 15 -93 0 -12 -27 -14 -167 -12 l-168 3 -3 718 -2 717 170 0 c140 0 170 -3
170 -14z m-7710 -3271 l0 -165 -410 0 -410 0 0 23 c1 30 146 237 168 238 9 0
145 15 302 33 157 19 300 34 318 35 l32 1 0 -165z m17835 -239 c-313 -106
-580 -196 -591 -200 -17 -5 -24 -1 -34 24 -7 17 -17 33 -22 36 -5 3 -52 -9
-104 -28 -102 -35 -101 -34 -83 -97 3 -10 -107 -51 -411 -152 -228 -77 -418
-139 -421 -139 -3 0 -11 10 -16 23 -11 23 1 29 479 268 269 134 494 249 499
256 7 8 2 27 -16 62 l-25 51 37 1 c21 0 304 20 628 44 325 23 604 43 620 43
17 1 -226 -86 -540 -192z m-3634 -271 c-349 -118 -636 -213 -637 -212 -1 1 -9
17 -18 35 -9 17 -20 32 -25 32 -8 0 -125 -39 -174 -59 -27 -11 -27 -11 -13
-46 12 -27 12 -37 3 -40 -40 -15 -1213 -405 -1217 -404 -3 0 82 44 187 97
l193 97 -20 30 -19 29 490 247 c270 136 493 250 497 253 3 3 0 17 -6 31 -10
21 -9 25 6 26 9 0 314 22 677 48 363 27 671 49 685 49 14 1 -260 -95 -609
-213z m-4507 -54 l679 -198 -247 -83 c-136 -45 -249 -80 -250 -79 -2 2 -11 19
-20 37 -10 19 -23 32 -29 29 -7 -2 -53 -19 -104 -37 l-92 -32 15 -36 c8 -19
13 -36 12 -37 -2 -1 -353 -119 -781 -262 l-778 -261 -21 44 c-20 41 -27 45
-105 74 -46 16 -88 30 -92 30 -4 0 -227 -72 -494 -160 -268 -88 -489 -160
-492 -160 -3 0 -5 299 -5 665 l0 665 1063 0 1062 0 679 -199z m-29562 -431 l3
-70 -47 0 -48 0 0 70 0 70 44 0 44 0 4 -70z m294 0 c-59 -38 -111 -70 -115
-70 -14 0 -21 28 -21 86 l0 54 122 0 122 0 -108 -70z m3672 -15 l62 -85 70 0
70 0 0 -110 0 -110 -197 0 -198 0 -110 166 c-60 92 -118 179 -128 195 l-19 29
194 0 193 -1 63 -84z"/>
</g>
</svg>
