<?xml version="1.0" standalone="no"?>
<!DOCTYPE svg PUBLIC "-//W3C//DTD SVG 20010904//EN"
 "http://www.w3.org/TR/2001/REC-SVG-20010904/DTD/svg10.dtd">
<svg version="1.0" xmlns="http://www.w3.org/2000/svg"
   viewBox="0 0 4867.000000 826.000000"
 preserveAspectRatio="xMidYMid meet">
<metadata>
Created by potrace 1.16, written by Peter Selinger 2001-2019
</metadata>
<g transform="translate(0.000000,826.000000) scale(0.100000,-0.100000)"
fill="#000000" stroke="none">
<path d="M18800 8160 c0 -93 -1 -100 -20 -100 -19 0 -20 -7 -20 -90 0 -83 -1
-90 -20 -90 -18 0 -20 7 -20 65 l0 65 -55 0 -55 0 0 40 0 40 -235 0 -235 0 0
-105 0 -105 -25 0 c-25 0 -25 1 -25 90 0 89 0 90 -25 90 -25 0 -25 -1 -25 -90
l0 -90 -3310 0 -3310 0 0 65 c0 58 -2 65 -20 65 -15 0 -20 7 -20 25 0 20 -5
25 -25 25 -20 0 -25 -5 -25 -25 0 -18 -5 -25 -20 -25 -18 0 -20 -7 -20 -65 l0
-65 -110 0 -110 0 0 -175 0 -175 -650 0 -650 0 0 -330 0 -330 -185 0 -185 0 0
30 0 30 -60 0 c-47 0 -60 3 -60 15 0 13 -35 15 -255 15 -220 0 -255 -2 -255
-15 0 -13 -69 -15 -565 -15 l-565 0 0 160 0 160 -1035 0 -1035 0 0 -165 0
-165 -50 0 c-38 0 -50 4 -50 15 0 13 -69 15 -560 15 l-560 0 0 39 c0 36 -3 40
-27 43 -60 7 -37 33 189 218 253 208 244 200 237 200 -3 0 -113 -83 -244 -185
l-239 -184 -31 36 -30 35 -123 -61 -122 -61 -275 0 c-238 0 -275 -2 -275 -15
0 -13 -22 -15 -135 -15 l-135 0 0 110 0 110 25 0 c25 0 25 1 25 90 0 89 0 90
-25 90 -23 0 -25 4 -25 45 0 41 2 45 25 45 25 0 25 1 25 90 l0 90 -335 0 -335
0 0 -90 0 -90 225 0 225 0 0 -45 0 -45 -225 0 -225 0 0 -90 0 -90 225 0 225 0
0 -105 0 -105 -251 0 -250 0 -45 37 -44 37 26 27 25 26 -133 126 -133 127 -98
-98 -97 -97 130 -129 129 -130 26 24 26 24 39 -44 39 -45 1 -247 0 -248 40 0
c43 0 46 -4 30 -45 -10 -25 -13 -27 -58 -21 -26 3 -93 9 -149 12 l-103 6 0
-112 0 -112 97 5 c54 2 108 8 119 12 19 6 2 -48 -134 -429 l-155 -436 -184 0
-183 0 0 -105 0 -105 -120 0 -120 0 0 -35 0 -35 -50 0 -50 0 0 275 c0 238 -2
275 -15 275 -8 0 -15 8 -15 19 0 16 10 20 65 26 l65 7 0 69 0 69 -285 0 -285
0 0 -69 0 -70 55 -6 c45 -6 55 -11 55 -26 0 -18 -14 -19 -347 -19 l-348 0
-142 -31 -143 -32 0 -169 0 -168 27 -7 c16 -3 75 -18 133 -33 l105 -26 3 -52
3 -52 170 0 c144 0 169 -2 169 -15 0 -9 -9 -15 -22 -15 -12 0 -61 -5 -110 -11
l-88 -12 0 -83 c0 -73 2 -84 18 -85 9 0 58 -6 107 -12 80 -11 90 -14 93 -33 3
-20 -3 -22 -70 -28 -40 -4 -90 -10 -111 -13 l-37 -6 0 -82 0 -83 65 -7 65 -7
0 -358 0 -358 -65 -7 -65 -7 0 -83 0 -82 37 -6 c21 -3 71 -9 111 -13 67 -6 73
-8 70 -28 -3 -19 -13 -22 -93 -33 -49 -6 -98 -12 -107 -12 -16 -1 -18 -12 -18
-85 l0 -83 88 -12 c49 -6 98 -11 110 -11 13 0 22 -6 22 -15 0 -13 -25 -15
-169 -15 l-170 0 -3 -52 -3 -52 -105 -26 c-58 -15 -117 -30 -132 -33 l-28 -7
0 -168 0 -169 142 -32 143 -31 348 0 c333 0 347 -1 347 -19 0 -15 -10 -20 -55
-26 l-55 -6 0 -70 0 -69 285 0 285 0 0 69 0 69 -65 7 c-55 6 -65 10 -65 26 0
11 7 19 15 19 13 0 15 37 15 275 l0 275 50 0 50 0 0 -35 0 -35 120 0 120 0 0
-105 0 -105 183 0 184 0 155 -436 c136 -381 153 -435 134 -429 -11 4 -65 10
-118 12 l-98 5 0 -112 0 -112 103 6 c56 3 123 9 149 12 45 6 48 4 58 -21 16
-41 13 -45 -30 -45 l-40 0 0 -247 -1 -248 -39 -45 -39 -44 -26 24 -26 24 -129
-130 -130 -129 97 -97 98 -98 133 127 133 126 -25 26 -26 27 44 37 45 37 250
0 251 0 0 -105 0 -105 -225 0 -225 0 0 -90 0 -90 225 0 225 0 0 -45 0 -45
-225 0 -225 0 0 -90 0 -90 335 0 335 0 0 90 c0 89 0 90 -25 90 -23 0 -25 4
-25 45 0 41 2 45 25 45 25 0 25 1 25 90 0 89 0 90 -25 90 l-25 0 0 110 0 110
135 0 c113 0 135 -2 135 -15 0 -13 37 -15 275 -15 l275 0 122 -61 123 -61 30
35 31 36 239 -184 c131 -102 241 -185 244 -185 7 0 16 -8 -237 200 -226 185
-249 211 -189 218 24 3 27 7 27 43 l0 39 560 0 c491 0 560 2 560 15 0 11 12
15 50 15 l50 0 0 -165 0 -165 1035 0 1035 0 0 160 0 160 565 0 c496 0 565 -2
565 -15 0 -13 35 -15 255 -15 220 0 255 2 255 15 0 12 13 15 60 15 l60 0 0 30
0 30 185 0 185 0 0 -330 0 -330 650 0 650 0 0 -175 0 -175 110 0 110 0 0 -65
c0 -58 2 -65 20 -65 15 0 20 -7 20 -25 0 -20 5 -25 25 -25 20 0 25 5 25 25 0
18 5 25 20 25 18 0 20 7 20 65 l0 65 3310 0 3310 0 0 -90 c0 -89 0 -90 25 -90
25 0 25 1 25 90 0 89 0 90 25 90 l25 0 0 -105 0 -105 235 0 235 0 0 40 0 40
55 0 55 0 0 65 c0 58 2 65 20 65 19 0 20 -7 20 -90 0 -83 1 -90 20 -90 19 0
20 -7 20 -100 l0 -100 4270 0 4270 0 0 159 c0 87 3 173 6 190 12 60 24 30 24
-59 0 -89 0 -90 25 -90 20 0 25 5 25 25 0 24 3 25 55 25 l55 0 0 -40 0 -40
235 0 235 0 0 40 0 40 55 0 55 0 0 65 c0 58 2 65 20 65 19 0 20 -7 20 -90 0
-83 1 -90 20 -90 19 0 20 -7 20 -100 l0 -100 4270 0 4270 0 0 190 c0 120 4
190 10 190 6 0 10 -37 10 -90 l0 -90 30 0 c25 0 30 4 30 25 0 24 3 25 55 25
l55 0 0 -40 0 -40 235 0 235 0 0 40 0 40 55 0 55 0 0 65 c0 58 2 65 20 65 19
0 20 -7 20 -90 0 -83 1 -90 20 -90 19 0 20 -7 20 -100 l0 -100 4270 0 4270 0
0 190 c0 120 4 190 10 190 6 0 10 -37 10 -90 0 -83 1 -90 20 -90 18 0 20 -7
20 -75 l0 -75 370 0 370 0 0 305 0 305 -50 0 -50 0 0 40 0 40 210 0 210 0 0
75 0 75 715 0 c470 0 715 3 715 10 0 7 -245 10 -715 10 l-715 0 0 225 0 225
-210 0 -210 0 0 135 0 135 40 0 40 0 0 75 0 75 640 0 c562 0 640 -2 640 -15 0
-12 18 -15 105 -15 l105 0 0 45 0 45 -105 0 c-98 0 -105 -1 -105 -20 0 -20 -7
-20 -640 -20 -562 0 -640 2 -640 15 0 13 -27 15 -185 15 l-185 0 0 60 0 60
-115 0 c-108 0 -115 1 -115 20 0 18 7 20 85 20 84 0 85 0 85 25 0 22 4 25 35
25 l35 0 0 63 0 64 173 6 c94 4 340 7 545 7 241 0 372 4 372 10 0 6 -131 10
-372 10 -205 0 -451 3 -545 7 -153 5 -173 8 -173 23 0 24 123 30 652 30 285 0
438 3 438 10 0 7 -188 10 -545 10 l-545 0 0 190 0 190 262 0 262 0 43 42 43
42 0 193 0 193 110 0 110 0 0 35 0 35 440 0 c287 0 440 3 440 10 0 7 -153 10
-440 10 l-440 0 0 79 0 79 94 4 c52 1 97 6 100 9 10 10 26 460 26 739 0 279
-16 729 -26 739 -3 3 -48 8 -100 9 l-94 4 0 124 0 124 -110 0 -110 0 0 193 0
193 -43 42 -43 42 -262 0 -262 0 0 310 0 310 -35 0 c-31 0 -35 3 -35 25 0 25
-1 25 -85 25 -78 0 -85 2 -85 20 0 19 7 20 115 20 l115 0 0 60 0 60 185 0
c158 0 185 2 185 15 0 13 78 15 640 15 633 0 640 0 640 -20 0 -19 7 -20 105
-20 l105 0 0 45 0 45 -105 0 c-87 0 -105 -3 -105 -15 0 -13 -78 -15 -640 -15
l-640 0 0 75 0 75 -40 0 -40 0 0 135 0 135 210 0 210 0 0 225 0 225 715 0
c470 0 715 3 715 10 0 7 -245 10 -715 10 l-715 0 0 75 0 75 -210 0 -210 0 0
40 0 40 50 0 50 0 0 305 0 305 -370 0 -370 0 0 -75 c0 -68 -2 -75 -20 -75 -19
0 -20 -7 -20 -90 0 -53 -4 -90 -10 -90 -6 0 -10 70 -10 190 l0 190 -4270 0
-4270 0 0 -100 c0 -93 -1 -100 -20 -100 -19 0 -20 -7 -20 -90 0 -83 -1 -90
-20 -90 -18 0 -20 7 -20 65 l0 65 -55 0 -55 0 0 40 0 40 -235 0 -235 0 0 -40
0 -40 -55 0 c-52 0 -55 1 -55 25 0 21 -5 25 -30 25 l-30 0 0 -90 c0 -53 -4
-90 -10 -90 -6 0 -10 70 -10 190 l0 190 -4270 0 -4270 0 0 -100 c0 -93 -1
-100 -20 -100 -19 0 -20 -7 -20 -90 0 -83 -1 -90 -20 -90 -18 0 -20 7 -20 65
l0 65 -55 0 -55 0 0 40 0 40 -235 0 -235 0 0 -40 0 -40 -55 0 c-52 0 -55 1
-55 25 0 20 -5 25 -25 25 -25 0 -25 -1 -25 -90 0 -89 -12 -119 -24 -59 -3 17
-6 103 -6 190 l0 159 -4270 0 -4270 0 0 -100z m27760 -600 c0 -29 -4 -40 -15
-40 -11 0 -15 11 -15 40 0 29 4 40 15 40 11 0 15 -11 15 -40z m-43057 -557
c-13 -2 -35 -2 -50 0 -16 2 -5 4 22 4 28 0 40 -2 28 -4z m200 0 c-29 -2 -77
-2 -105 0 -29 2 -6 3 52 3 58 0 81 -1 53 -3z m160 -15 c-35 -18 -45 -19 -57
-8 -28 22 -17 30 42 29 l57 0 -42 -21z m42697 -223 c0 -113 -2 -135 -15 -135
-13 0 -15 22 -15 135 0 113 2 135 15 135 13 0 15 -22 15 -135z m-36790 -50 l0
-135 -245 0 -245 0 0 100 0 100 54 0 c51 0 54 1 59 30 6 29 7 29 79 33 40 1
124 4 186 5 l112 2 0 -135z m-1000 -35 l0 -100 -160 0 -160 0 0 -188 0 -189
-167 -6 c-91 -4 -273 -7 -405 -7 l-238 0 0 295 0 295 565 0 565 0 0 -100z
m-3200 -15 l0 -105 -710 0 -710 0 0 22 c0 12 -10 32 -21 44 -21 22 -21 25 -5
49 l16 25 545 0 545 0 0 30 0 29 78 4 c42 1 119 4 170 5 l92 2 0 -105z m0
-235 l0 -90 -390 0 -390 0 0 -35 0 -35 -320 0 -320 0 0 125 0 125 710 0 710 0
0 -90z m-780 -185 c0 -13 -42 -15 -320 -15 -278 0 -320 2 -320 15 0 13 42 15
320 15 278 0 320 -2 320 -15z m0 -40 c0 -11 -12 -15 -45 -15 l-45 0 0 -145 c0
-90 -4 -145 -10 -145 -5 0 -10 16 -10 35 0 32 -2 35 -30 35 -28 0 -30 -3 -30
-35 0 -19 -4 -35 -10 -35 -6 0 -10 -67 -10 -180 0 -113 4 -180 10 -180 6 0 10
-25 10 -55 0 -30 -4 -55 -10 -55 -6 0 -10 -58 -10 -155 l0 -155 -308 0 -309 0
-7 219 c-4 120 -4 249 0 285 5 47 3 66 -5 66 -8 0 -11 46 -11 155 l0 155 95 0
95 0 0 110 0 110 320 0 c278 0 320 -2 320 -15z m-1290 -360 c0 -97 -4 -155
-10 -155 -23 0 -7 -74 36 -176 l46 -108 -1 -119 c-2 -111 0 -121 20 -143 l22
-24 -186 0 -187 0 0 -275 0 -275 -25 0 c-25 0 -25 1 -25 90 0 89 0 90 -25 90
l-25 0 0 470 0 470 -40 0 -40 0 0 -470 c0 -463 0 -470 -20 -470 -19 0 -20 -7
-20 -90 l0 -90 -55 0 -55 0 40 80 40 80 0 125 0 125 -140 0 -140 0 0 150 0
149 -53 3 -53 3 122 342 c67 189 124 349 128 358 5 13 49 15 326 15 l320 0 0
-155z m200 0 l0 -155 -60 0 -60 0 0 155 0 155 60 0 60 0 0 -155z m1000 -360
c0 -30 -4 -55 -10 -55 -5 0 -10 25 -10 55 0 30 5 55 10 55 6 0 10 -25 10 -55z
m2030 -265 l0 -100 -30 0 -30 0 0 -75 0 -75 -50 0 -50 0 0 50 c0 28 5 50 10
50 6 0 10 48 10 125 l0 125 70 0 70 0 0 -100z m1060 0 l0 -100 -70 0 -70 0 0
100 0 100 70 0 70 0 0 -100z m-2830 -200 l0 -50 -55 0 -55 0 0 50 0 50 55 0
55 0 0 -50z m3550 0 l0 -50 -85 0 c-50 0 -85 4 -85 10 0 6 -13 10 -30 10 -28
0 -30 2 -30 40 l0 40 115 0 115 0 0 -50z m-3550 -280 l0 -210 -55 0 -55 0 0
210 0 210 55 0 55 0 0 -210z m1710 0 l0 -210 -50 0 -50 0 0 210 0 210 50 0 50
0 0 -210z m1840 20 l0 -190 -79 0 -78 0 -7 61 c-3 34 -6 120 -6 190 l0 129 85
0 85 0 0 -190z m-3550 -1240 l0 -210 -55 0 -55 0 0 210 0 210 55 0 55 0 0
-210z m1710 0 l0 -210 -50 0 -50 0 0 210 0 210 50 0 50 0 0 -210z m-3650 80
c0 -83 1 -90 20 -90 20 0 20 -7 20 -470 l0 -470 40 0 40 0 0 470 0 470 25 0
c25 0 25 1 25 90 0 89 0 90 25 90 l25 0 0 -275 0 -275 187 0 186 0 -22 -24
c-20 -22 -22 -32 -20 -143 l1 -119 -46 -108 c-43 -102 -59 -176 -36 -176 6 0
10 -58 10 -155 l0 -155 -322 2 -321 3 -127 355 -126 355 53 3 53 3 0 149 0
150 140 0 140 0 0 125 0 125 -40 80 -40 80 55 0 55 0 0 -90z m5490 -100 l0
-190 -85 0 -85 0 0 129 c0 70 3 156 6 190 l7 61 78 0 79 0 0 -190z m-3550
-260 l0 -50 -55 0 -55 0 0 50 0 50 55 0 55 0 0 -50z m1710 -25 l0 -75 30 0 30
0 0 -100 0 -100 -70 0 -70 0 0 125 c0 77 -4 125 -10 125 -5 0 -10 23 -10 50
l0 50 50 0 50 0 0 -75z m1840 25 l0 -50 -115 0 -115 0 0 40 c0 38 2 40 30 40
17 0 30 5 30 10 0 6 35 10 85 10 l85 0 0 -50z m-3910 -255 c0 -97 4 -155 10
-155 6 0 10 -25 10 -55 0 -30 -4 -55 -10 -55 -6 0 -10 -67 -10 -180 0 -113 4
-180 10 -180 6 0 10 -16 10 -35 0 -32 2 -35 30 -35 28 0 30 3 30 35 0 19 5 35
10 35 6 0 10 -55 10 -145 l0 -145 45 0 c33 0 45 -4 45 -15 0 -13 -42 -15 -320
-15 l-320 0 0 110 0 110 -95 0 -95 0 0 155 c0 109 3 155 11 155 8 0 10 19 5
66 -4 36 -4 165 0 285 l7 219 309 0 308 0 0 -155z m3190 55 l0 -100 -70 0 -70
0 0 100 0 100 70 0 70 0 0 -100z m-3090 -265 c0 -30 -4 -55 -10 -55 -5 0 -10
25 -10 55 0 30 5 55 10 55 6 0 10 -25 10 -55z m-1000 -360 l0 -155 -60 0 -60
0 0 155 0 155 60 0 60 0 0 -155z m4583 -352 l167 -6 0 -189 0 -188 160 0 160
0 0 -100 0 -100 -565 0 -565 0 0 295 0 295 238 0 c132 0 314 -3 405 -7z
m-3493 -48 c0 -13 -42 -15 -320 -15 -278 0 -320 2 -320 15 0 13 42 15 320 15
278 0 320 -2 320 -15z m0 -60 l0 -35 390 0 390 0 0 -90 0 -90 -710 0 -710 0 0
125 0 125 320 0 320 0 0 -35z m780 -360 l0 -105 -63 0 c-35 0 -112 3 -170 7
l-107 6 0 29 0 28 -545 0 -545 0 -16 25 c-16 24 -16 27 5 49 11 12 21 32 21
44 l0 22 710 0 710 0 0 -105z m4200 -50 l0 -135 -78 0 c-44 0 -127 3 -186 7
l-107 6 -6 29 c-5 27 -8 28 -59 28 l-54 0 0 100 0 100 245 0 245 0 0 -135z
m36790 -50 c0 -113 -2 -135 -15 -135 -13 0 -15 22 -15 135 0 113 2 135 15 135
13 0 15 -22 15 -135z m-42690 -225 l35 -19 -57 -1 c-58 0 -68 6 -46 28 16 16
26 15 68 -8z m-367 -17 c-13 -2 -35 -2 -50 0 -16 2 -5 4 22 4 28 0 40 -2 28
-4z m200 0 c-29 -2 -77 -2 -105 0 -29 2 -6 3 52 3 58 0 81 -1 53 -3z m42857
-553 c0 -29 -4 -40 -15 -40 -11 0 -15 11 -15 40 0 29 4 40 15 40 11 0 15 -11
15 -40z"/>
</g>
</svg>
