<?xml version="1.0" standalone="no"?>
<!DOCTYPE svg PUBLIC "-//W3C//DTD SVG 20010904//EN"
 "http://www.w3.org/TR/2001/REC-SVG-20010904/DTD/svg10.dtd">
<svg version="1.0" xmlns="http://www.w3.org/2000/svg"
   viewBox="0 0 4693.000000 1440.000000"
 preserveAspectRatio="xMidYMid meet">
<metadata>
Created by potrace 1.16, written by Peter Selinger 2001-2019
</metadata>
<g transform="translate(0.000000,1440.000000) scale(0.100000,-0.100000)"
fill="#000000" stroke="none">
<path d="M38433 14228 l-413 -171 0 -1523 0 -1524 125 0 125 0 0 -60 c0 -53 2
-60 20 -60 16 0 20 -7 20 -35 0 -28 -4 -35 -20 -35 -17 0 -20 -7 -20 -45 l0
-45 -39 0 c-42 0 -51 -11 -51 -58 0 -15 -4 -33 -8 -39 -6 -10 -614 -14 -2785
-19 l-2777 -7 0 61 0 62 -200 0 -200 0 0 -32 c0 -18 -4 -39 -9 -47 -7 -11
-413 -12 -2667 -6 -1463 4 -2661 9 -2664 12 -3 2 -7 39 -10 81 l-5 77 -212 3
-211 2 -12 -70 -12 -70 -1356 5 c-747 3 -1921 8 -2609 11 l-1253 6 0 74 0 74
-234 0 -233 0 -6 -41 c-3 -22 -8 -43 -11 -47 -6 -6 -5548 37 -5554 43 -2 2 -8
37 -14 78 l-11 74 -1343 -5 -1344 -5 0 88 0 88 -113 -6 c-61 -4 -226 -7 -364
-7 l-253 0 0 -80 0 -80 -689 0 c-378 0 -709 -3 -735 -6 l-46 -7 0 -198 0 -199
-100 0 -100 0 0 435 0 435 680 0 680 0 0 373 0 374 -412 241 -411 242 -139 0
-138 0 0 38 c0 20 -3 47 -6 60 l-6 22 -467 -2 -466 -3 -3 -57 -3 -58 -158 0
-159 0 -403 -223 -404 -224 -3 -391 -2 -392 625 0 625 0 0 -54 0 -54 -1417 -5
c-1140 -5 -1434 -9 -1500 -20 l-83 -14 0 707 0 707 -381 7 -381 7 -60 -36 -59
-35 -198 0 -198 0 -1009 -603 -1009 -603 -3 -577 -2 -577 175 0 175 0 0 -140
0 -140 -522 0 c-291 0 -689 -7 -897 -15 l-374 -15 -786 -475 -786 -475 -77
-149 -78 -149 0 -1460 0 -1460 78 -168 79 -169 784 -469 784 -469 445 -8 c245
-4 655 -8 913 -8 l467 -1 0 -125 0 -125 -190 0 -190 0 2 -572 3 -573 1005
-602 1005 -602 581 0 c320 -1 609 2 643 5 l61 7 0 648 c0 513 3 649 13 649 6
0 52 -7 101 -16 80 -14 189 -13 1220 5 622 11 1251 23 1399 27 l267 7 0 -72 0
-71 -625 0 -625 0 2 -391 3 -391 395 -219 395 -219 168 0 167 0 0 -57 c0 -32
5 -65 10 -73 8 -13 71 -15 464 -15 250 0 457 3 461 7 4 4 10 36 12 72 l6 66
144 0 145 0 404 237 404 238 0 372 0 373 -680 0 -680 0 0 450 0 450 90 0 90 0
0 -207 c0 -115 3 -238 7 -275 l6 -68 738 0 739 0 0 -80 0 -80 365 0 365 0 0
79 0 80 1343 -6 1343 -6 11 77 c6 43 13 79 15 80 1 2 1166 12 2588 24 1422 12
2671 25 2777 28 l192 6 7 -51 7 -51 157 0 c86 0 191 -3 233 -6 l77 -7 0 80 0
81 2123 6 c1167 4 2341 8 2609 9 l487 2 11 -68 12 -67 211 2 212 3 3 70 c2 39
7 74 13 80 8 8 5317 37 5328 29 2 -2 6 -26 9 -54 l5 -50 198 0 199 0 0 70 0
71 48 -5 c26 -3 1275 -8 2777 -11 2077 -5 2732 -9 2737 -18 4 -7 8 -24 8 -39
0 -47 9 -58 51 -58 38 0 39 -1 39 -35 0 -28 4 -35 20 -35 15 0 20 -7 20 -25 0
-18 -5 -25 -20 -25 -18 0 -20 -7 -20 -55 l0 -55 -130 0 -130 0 0 -1710 0
-1710 353 0 353 0 1508 1331 c829 732 1510 1337 1512 1344 3 7 -82 177 -188
379 l-193 366 -1437 0 -1438 0 0 55 c0 48 -2 55 -20 55 -15 0 -20 7 -20 25 0
18 5 25 20 25 16 0 20 7 20 35 0 35 0 35 44 35 l44 0 4 60 c2 33 6 61 9 62 2
2 1159 2 2572 0 l2567 -2 0 -105 0 -105 574 0 574 0 37 50 37 50 58 0 c58 0
59 0 101 -50 l42 -50 117 0 118 0 6 26 c7 26 8 27 74 20 37 -3 89 -6 115 -6
40 0 50 -3 54 -20 5 -18 14 -20 104 -20 l99 0 0 290 0 290 -99 0 c-90 0 -99
-2 -104 -20 -5 -19 -14 -20 -122 -20 -108 0 -117 1 -122 20 -5 19 -14 20 -124
20 l-118 0 -42 -50 c-41 -49 -43 -50 -98 -50 -56 0 -57 0 -94 50 l-37 50 -575
0 -575 0 0 -90 0 -90 -2569 0 c-2333 0 -2569 1 -2575 16 -3 9 -6 29 -6 45 l0
29 -79 0 -79 0 -313 497 c-666 1059 -1189 1896 -1189 1902 0 3 138 93 306 199
290 183 307 192 354 192 l50 0 0 73 0 74 803 6 c441 4 1273 7 1850 7 1040 0
1047 0 1047 -20 0 -20 7 -20 578 -20 l579 0 13 25 c13 24 17 25 110 25 90 0
98 -2 120 -25 19 -20 33 -25 71 -25 50 0 59 -9 59 -56 l0 -24 215 0 215 0 0
40 0 40 75 0 75 0 0 39 c0 39 1 40 43 45 39 4 3000 37 3315 36 l142 0 0 126 0
126 -1750 -8 -1750 -7 0 107 0 106 -96 0 c-71 0 -99 -4 -110 -15 -12 -11 -39
-15 -109 -15 -51 0 -100 -3 -108 -6 -10 -3 -18 2 -22 15 -6 20 -14 21 -129 21
l-122 0 -37 -45 c-37 -44 -40 -45 -96 -45 -57 0 -58 1 -90 45 l-32 45 -580 0
-579 0 0 -95 0 -95 -1855 0 -1855 0 0 55 0 55 -67 0 -67 0 -309 205 c-170 113
-307 210 -305 214 2 5 341 561 753 1235 l750 1226 103 0 102 0 0 29 c0 16 3
36 6 45 6 15 242 16 2575 16 l2569 0 0 -100 0 -100 578 0 577 0 34 50 c34 50
34 50 89 50 52 0 55 -2 99 -50 l45 -50 118 0 c111 0 119 1 125 21 7 20 13 21
117 17 90 -2 112 -6 122 -20 11 -15 29 -18 110 -18 l96 0 0 285 0 285 -96 0
c-79 0 -99 -3 -109 -17 -10 -13 -35 -17 -123 -21 -105 -4 -110 -4 -117 17 -6
20 -13 21 -124 21 l-117 0 -44 -45 c-42 -43 -47 -45 -102 -45 -56 0 -58 1 -90
45 l-33 44 -577 1 -578 0 0 -90 0 -90 -2569 0 c-2333 0 -2569 1 -2575 16 -3 9
-6 36 -6 60 l0 44 -40 0 -40 0 0 45 c0 41 -2 45 -25 45 -22 0 -25 4 -25 35 0
31 3 35 25 35 24 0 25 3 25 58 l0 57 1705 -4 1705 -3 0 329 0 328 -1521 1370
c-836 754 -1524 1371 -1527 1372 -4 1 -193 -75 -419 -169z m-3835 -5119 c1087
-722 1985 -1317 1994 -1324 16 -10 7 -29 -95 -196 l-113 -184 -62 -3 c-34 -2
-62 -7 -62 -12 0 -6 -56 -10 -135 -10 l-135 0 0 94 0 95 -125 70 -125 71
-1985 0 -1985 0 0 -170 0 -171 -102 3 -102 3 -11 45 -11 45 -168 3 -169 2
-198 137 -199 137 20 30 c11 17 365 599 787 1293 l768 1262 113 1 112 0 0 45
c0 25 2 45 5 45 3 0 895 -590 1983 -1311z m2742 1302 l835 -6 3 -32 c3 -28
-103 -206 -728 -1227 l-732 -1195 -131 88 c-73 48 -910 602 -1862 1231 -951
629 -1732 1145 -1734 1147 -7 5 3431 1 4349 -6z m-5136 -27 c4 -10 -11 -45
-37 -88 -768 -1270 -1491 -2456 -1497 -2454 -4 2 -836 575 -1850 1273 l-1843
1270 2304 5 c1267 3 2442 6 2610 8 274 2 308 0 313 -14z m-13860 -49 c1297
-14 2360 -26 2362 -27 4 -5 -1186 -1973 -1195 -1976 -4 -1 -52 50 -107 113
-90 105 -113 125 -248 216 l-148 101 -332 105 c-295 93 -372 113 -711 184
-731 153 -1611 370 -2067 510 l-168 52 0 169 0 168 220 0 220 0 0 105 0 105
-220 0 -220 0 0 100 0 100 128 0 c70 0 1189 -11 2486 -25z m8070 8 c2 -10 7
-32 11 -50 5 -24 12 -33 31 -35 24 -3 -31 -89 -771 -1223 -438 -671 -802
-1226 -808 -1232 -10 -10 -35 -9 -122 5 -97 16 -169 17 -627 14 l-518 -4 0
-53 c0 -30 -4 -56 -8 -59 -5 -3 -145 8 -313 24 -167 16 -312 30 -321 30 -16 0
-18 -11 -18 -98 l0 -99 -100 -54 c-95 -51 -100 -56 -100 -86 l0 -33 -143 0
-144 0 -6 400 -6 400 -57 65 -56 65 -1317 2 -1317 3 576 955 577 955 166 3
167 2 0 55 0 55 998 3 c3706 9 4220 8 4226 -10z m2269 -1388 l1884 -1300 -56
-92 -56 -92 -796 -1 -796 0 -7 53 c-3 28 -6 76 -6 105 l0 52 -360 0 -360 0 0
-105 0 -105 -866 0 -867 0 6 -65 6 -65 -339 0 -340 0 0 78 0 77 -213 111
c-205 108 -216 112 -317 128 -58 10 -115 20 -126 24 -19 6 55 124 794 1255
l815 1248 58 -3 59 -3 1883 -1300z m-11100 -206 l702 -140 275 -91 c250 -82
283 -96 367 -150 82 -54 101 -72 178 -174 l85 -114 0 -146 0 -147 -46 -74 -45
-73 -1115 0 -1114 0 0 625 c0 344 3 625 6 625 3 0 321 -63 707 -141z m19365
-1199 c154 -100 191 -129 192 -147 l0 -23 -242 1 c-134 0 -262 4 -286 7 l-43
7 88 143 c48 78 90 141 93 140 4 -2 93 -59 198 -128z m-6154 -52 l39 -28 -91
0 c-51 0 -92 2 -92 5 0 3 12 24 26 46 l25 41 27 -18 c15 -10 45 -30 66 -46z
m-4384 -533 l0 -155 128 5 c227 9 2193 13 3116 6 l899 -6 46 -74 46 -74 -25
-18 c-14 -11 -864 -599 -1890 -1307 -1809 -1250 -1865 -1288 -1868 -1261 l-3
29 -78 0 -77 0 -828 1311 c-455 721 -826 1312 -823 1315 2 2 60 13 128 24 117
19 136 26 337 117 l212 97 0 73 0 73 340 0 340 0 0 -155z m-3658 98 c3 -24 17
-35 100 -78 l98 -50 0 -102 0 -103 28 0 c15 0 142 7 282 15 140 8 276 15 303
15 47 0 47 0 47 -33 l0 -34 257 -6 c464 -12 787 -9 906 9 75 12 111 14 119 6
5 -5 373 -590 818 -1299 l807 -1288 -43 -3 c-43 -3 -44 -4 -56 -49 l-11 -46
-1446 6 c-795 4 -1969 7 -2608 7 l-1163 0 0 55 0 54 -120 3 -120 3 -628 1000
-628 1000 1327 3 1327 2 56 64 56 64 0 406 0 406 144 0 145 0 3 -27z m13789
-326 c66 -104 119 -192 119 -195 -1 -7 -4033 -2562 -4044 -2562 -3 0 -6 16 -6
35 l0 34 -72 3 -73 3 -783 1245 c-430 685 -787 1252 -792 1261 -8 13 21 37
159 133 l169 116 165 0 c184 0 169 -6 183 73 l6 37 99 0 99 0 0 -180 0 -180
1982 0 1982 0 128 76 128 76 0 109 0 109 216 -2 217 -3 118 -188z m599 149 l0
-44 -157 -101 c-87 -55 -165 -103 -174 -106 -13 -5 -37 27 -105 136 -49 79
-90 146 -92 151 -2 4 116 8 262 8 l266 0 0 -44z m-18021 -138 l71 -112 0 -130
0 -129 -82 -109 c-69 -91 -97 -118 -168 -167 -77 -52 -113 -67 -365 -154
l-280 -97 -625 -125 c-344 -68 -664 -133 -712 -144 l-88 -19 0 649 0 649 1089
0 1089 0 71 -112z m11695 33 l-39 -29 -17 22 c-27 32 -23 36 38 36 l57 0 -39
-29z m691 -1481 c406 -646 749 -1192 762 -1214 l25 -38 -41 4 c-37 3 -41 1
-41 -18 0 -12 -3 -30 -6 -38 -6 -15 -174 -16 -1903 -11 -1043 3 -2176 8 -2518
11 l-622 6 1797 1244 c988 684 1799 1240 1803 1236 4 -4 338 -536 744 -1182z
m6013 -113 c392 -621 712 -1130 712 -1133 0 -2 -9 -4 -20 -4 -13 0 -22 -9 -26
-27 -3 -16 -7 -33 -9 -39 -2 -8 -699 -13 -2597 -16 -1426 -3 -2594 -4 -2596
-3 -1 1 851 543 1895 1203 l1897 1200 17 -26 c9 -15 336 -535 727 -1155z
m-17369 -60 c342 -538 621 -980 621 -982 0 -3 -11 -5 -25 -5 -19 0 -25 -5 -25
-22 0 -13 -4 -28 -8 -34 -5 -9 -632 -19 -2332 -38 -1279 -15 -2398 -26 -2487
-26 l-163 0 0 125 0 125 220 0 220 0 0 105 0 105 -220 0 -220 0 2 182 3 182
135 43 c403 128 1390 373 2090 518 325 67 402 87 705 182 l340 107 145 97
c133 88 154 106 250 217 81 95 107 119 117 109 6 -6 291 -452 632 -990z"/>
</g>
</svg>
