<?xml version="1.0" standalone="no"?>
<!DOCTYPE svg PUBLIC "-//W3C//DTD SVG 20010904//EN"
 "http://www.w3.org/TR/2001/REC-SVG-20010904/DTD/svg10.dtd">
<svg version="1.0" xmlns="http://www.w3.org/2000/svg"
   viewBox="0 0 4460.000000 1304.000000"
 preserveAspectRatio="xMidYMid meet">
<metadata>
Created by potrace 1.16, written by Peter Selinger 2001-2019
</metadata>
<g transform="translate(0.000000,1304.000000) scale(0.100000,-0.100000)"
fill="#000000" stroke="none">
<path d="M18496 13018 c-3 -13 -6 -119 -6 -235 l0 -213 -96 0 -96 0 -155 -130
c-85 -71 -161 -130 -169 -130 -12 0 -14 37 -14 235 l0 235 -260 0 c-248 0
-260 -1 -260 -19 0 -11 -9 -21 -22 -25 -13 -3 -417 -6 -898 -6 -481 0 -885 3
-897 6 -14 4 -23 14 -23 25 0 18 -12 19 -255 19 l-255 0 0 -235 0 -235 -555 0
-555 0 0 90 0 90 -325 0 -325 0 0 -90 0 -90 -335 0 -334 0 -3 -132 -3 -132
-200 -163 -200 -162 -1376 -1 -1375 0 -82 -223 -82 -222 0 -283 c0 -155 -3
-282 -8 -282 -4 0 -126 43 -271 95 l-263 95 -269 0 -269 0 0 410 0 410 -2015
0 -2016 0 -360 -200 -361 -200 -349 0 -349 0 -278 -347 -278 -347 -804 -446
-805 -446 -3 -150 -2 -149 -53 -20 c-48 -19 -52 -23 -57 -59 l-5 -38 -260 -82
-260 -82 -3 -557 -2 -557 265 0 265 0 0 -35 0 -35 370 0 370 0 0 -70 0 -70
-332 0 c-183 0 -370 -3 -415 -7 l-83 -6 0 -1297 0 -1297 107 -6 c58 -4 245 -7
415 -7 l308 0 0 -70 0 -70 -370 0 -370 0 0 -35 0 -35 -265 0 -265 0 2 -557 3
-557 260 -82 260 -81 5 -39 c5 -36 9 -40 57 -59 l53 -20 2 -149 3 -150 804
-445 805 -446 278 -347 278 -348 350 0 349 0 360 -200 361 -200 2015 0 2015 0
0 410 0 410 269 0 268 0 263 95 c144 52 267 95 271 95 5 0 9 -127 9 -282 l0
-283 82 -222 82 -223 1375 0 1376 0 200 -163 200 -162 3 -133 3 -132 334 0
335 0 0 -90 0 -90 325 0 325 0 0 90 0 90 555 0 555 0 0 -235 0 -235 255 0
c243 0 255 1 255 19 0 11 9 21 23 25 29 8 1765 8 1795 0 13 -4 22 -14 22 -25
0 -18 12 -19 260 -19 l260 0 0 235 c0 196 2 235 14 235 8 0 84 -58 170 -130
l155 -130 96 0 95 0 0 -212 c0 -117 3 -223 6 -235 l6 -23 254 0 c242 0 254 1
254 19 0 11 9 21 23 25 29 8 1746 8 1786 0 21 -5 31 -12 31 -25 0 -18 12 -19
255 -19 l255 0 0 235 0 234 97 3 97 3 110 353 110 352 88 0 88 0 0 -185 0
-185 255 0 255 0 0 24 c0 19 6 24 38 30 48 8 1716 8 1765 0 31 -6 37 -11 37
-30 l0 -24 255 0 255 0 0 240 0 240 145 0 145 0 146 135 146 135 169 0 169 0
0 125 0 125 -32 0 -33 1 65 59 65 59 1028 1 1027 0 0 -85 0 -85 195 0 195 0 0
-80 0 -80 2175 0 2175 0 0 80 0 80 108 0 c74 0 164 10 292 32 l185 32 1203 3
1202 3 0 -35 0 -35 100 0 100 0 0 -80 0 -80 2174 0 2175 0 7 80 7 80 147 0
c119 0 184 6 341 32 l194 33 1888 2 1887 3 0 120 0 120 -1864 0 -1865 0 -193
30 c-106 16 -208 32 -225 35 l-33 6 0 1684 0 1685 -1195 0 -1195 0 0 55 0 55
350 0 350 0 0 155 0 155 215 0 215 0 0 45 0 45 110 0 110 0 0 500 0 500 -110
0 -110 0 0 45 0 45 -215 0 -215 0 0 155 0 155 -350 0 -350 0 0 55 0 55 1195 0
1195 0 0 1684 0 1684 28 6 c15 3 117 19 227 36 l199 30 1863 0 1863 0 0 120 0
120 -1887 3 -1888 2 -190 33 c-155 26 -218 32 -341 32 l-151 0 -7 80 -7 80
-2175 0 -2174 0 0 -80 0 -80 -100 0 -100 0 0 -35 0 -35 -1202 3 -1203 3 -185
32 c-128 22 -218 32 -292 32 l-108 0 0 80 0 80 -2175 0 -2175 0 0 -80 0 -80
-195 0 -195 0 0 -85 0 -85 -1027 0 -1028 1 -65 59 -65 59 33 1 32 0 0 125 0
125 -169 0 -168 0 -147 135 -146 135 -145 0 -145 0 0 240 0 240 -255 0 -255 0
0 -24 c0 -19 -6 -24 -37 -30 -21 -3 -418 -6 -883 -6 -465 0 -862 3 -882 6 -32
6 -38 11 -38 30 l0 24 -255 0 -255 0 0 -185 0 -185 -88 0 -88 0 -110 353 -110
352 -97 3 -97 3 0 234 0 235 -255 0 c-243 0 -255 -1 -255 -19 0 -13 -10 -20
-31 -25 -17 -3 -417 -6 -889 -6 -472 0 -872 3 -889 6 -21 5 -31 12 -31 25 0
18 -12 19 -254 19 l-254 0 -6 -22z m-15471 -1966 c-27 -16 -52 -27 -54 -25 -3
2 6 14 19 28 15 16 34 25 54 25 30 0 30 -1 -19 -28z m32540 -299 c-4 -120 -9
-220 -11 -222 -5 -5 -2736 158 -2771 165 -22 4 -23 9 -23 103 l0 99 143 21
c78 13 178 28 222 36 63 10 330 13 1263 14 l1184 1 -7 -217z m-5 -8320 c0 -43
3 -142 7 -220 l6 -143 -1170 0 -1171 0 -228 35 c-125 19 -231 35 -236 35 -5 0
-7 46 -6 102 l3 103 1320 81 c726 45 1355 82 1398 83 l77 1 0 -77z m-32516
-471 c-17 -2 -35 5 -50 19 -38 35 -28 39 26 10 45 -24 47 -26 24 -29z"/>
</g>
</svg>
