<?xml version="1.0" standalone="no"?>
<!DOCTYPE svg PUBLIC "-//W3C//DTD SVG 20010904//EN"
 "http://www.w3.org/TR/2001/REC-SVG-20010904/DTD/svg10.dtd">
<svg version="1.0" xmlns="http://www.w3.org/2000/svg"
   viewBox="0 0 4032.000000 3103.000000"
 preserveAspectRatio="xMidYMid meet">
<metadata>
Created by potrace 1.16, written by Peter Selinger 2001-2019
</metadata>
<g transform="translate(0.000000,3103.000000) scale(0.100000,-0.100000)"
fill="#000000" stroke="none">
<path d="M6270 30393 l-303 -638 -243 -693 -243 -693 -195 -1042 -195 -1042
-46 -461 c-25 -254 -45 -468 -45 -475 0 -8 54 -52 120 -99 l119 -85 1 -247 0
-248 -170 0 -170 0 0 -140 0 -140 -488 0 -489 0 -173 -35 c-95 -19 -175 -35
-177 -35 -2 0 -3 -125 -3 -278 l0 -277 187 -39 c125 -25 199 -46 223 -61 34
-22 47 -23 445 -34 226 -6 425 -11 443 -11 l32 0 0 -185 0 -185 -522 0 -523 0
-175 -35 c-96 -19 -176 -35 -177 -35 -2 0 -3 -128 -3 -284 l0 -284 68 -15 c37
-8 117 -25 177 -37 66 -13 130 -33 160 -50 l50 -27 435 -12 c239 -6 452 -11
473 -11 l37 0 0 -155 0 -155 -527 0 -528 0 -182 -36 -183 -37 0 -286 0 -286
188 -39 c134 -28 198 -46 227 -64 l40 -26 470 -12 c259 -7 476 -13 483 -13 9
-1 12 -48 12 -201 l0 -200 140 0 c77 0 140 -3 140 -7 0 -4 -23 -89 -51 -188
l-50 -180 -497 -38 c-273 -21 -573 -45 -667 -54 l-170 -15 -451 -175 -451
-175 -345 -355 -345 -356 -644 -486 -644 -486 -12 -70 c-31 -179 -72 -724 -78
-1061 -4 -187 -4 -359 0 -382 l7 -41 114 -36 114 -36 0 -32 c0 -18 3 -56 6
-84 l7 -53 -309 0 c-170 0 -400 -3 -511 -7 l-203 -6 0 -1117 0 -1117 511 -8
512 -7 -7 -52 c-3 -28 -6 -65 -6 -82 0 -31 -1 -31 -111 -65 -94 -28 -113 -37
-121 -59 -20 -51 1 -714 33 -1070 16 -179 35 -356 42 -395 l12 -70 645 -486
644 -487 344 -355 345 -355 445 -172 c378 -146 456 -173 525 -180 45 -5 347
-30 671 -56 325 -25 592 -47 594 -49 3 -3 102 -352 102 -360 0 -3 -63 -5 -140
-5 l-140 0 0 -204 0 -203 -202 -6 c-112 -4 -329 -10 -483 -13 -276 -7 -281 -7
-320 -32 -36 -23 -93 -38 -358 -92 l-57 -11 2 -287 3 -286 180 -38 180 -37
528 -1 527 0 0 -153 0 -153 -475 -12 -474 -11 -38 -25 c-28 -19 -88 -36 -223
-64 l-185 -38 -3 -286 -2 -285 189 -36 189 -37 511 0 511 0 0 -185 0 -185
-102 0 c-57 0 -256 -5 -442 -10 -330 -9 -340 -10 -380 -33 -26 -16 -98 -36
-201 -57 -88 -17 -170 -34 -182 -37 l-23 -5 0 -278 0 -278 188 -36 187 -36
478 0 477 0 0 -140 0 -140 170 0 170 0 0 -244 0 -245 -120 -87 c-66 -48 -120
-94 -120 -101 0 -7 21 -221 46 -475 l45 -463 195 -1040 195 -1040 241 -690
242 -690 302 -635 302 -635 1137 -3 1138 -2 -4 1182 -4 1181 304 102 303 101
25 59 c23 58 24 62 9 115 -8 30 -24 75 -35 100 l-20 46 -295 108 -296 109 0
652 0 651 334 109 335 108 22 59 c25 68 23 99 -17 203 l-27 71 -323 119 -324
119 0 246 -1 245 -114 88 -115 88 0 245 0 244 125 0 125 0 0 50 0 50 217 0
217 0 203 72 203 73 0 376 0 376 -197 73 -198 73 -222 5 -223 4 0 38 0 37 253
5 252 4 208 74 207 74 -2 385 -3 384 -200 74 -200 74 -257 6 c-142 3 -258 9
-258 14 0 4 118 9 263 11 l262 4 207 75 208 74 0 386 0 387 -27 11 c-16 6
-107 39 -205 75 l-176 65 -266 7 -266 7 0 153 0 154 -160 0 c-146 0 -160 2
-159 18 0 9 12 91 27 182 l27 165 315 5 315 5 894 228 c888 227 1558 387 1616
387 16 0 896 -128 1955 -285 l1925 -286 1160 -226 1160 -225 357 -179 357
-178 1148 -260 1148 -260 900 -84 900 -84 165 125 c91 68 170 126 175 128 6 2
85 17 177 33 l168 28 457 -23 c980 -49 976 -48 1251 -111 l242 -55 401 -194
401 -195 482 -129 481 -129 910 -66 c877 -63 910 -66 935 -88 14 -12 82 -77
151 -144 l127 -121 118 4 c66 3 331 11 591 19 l471 14 1198 366 c659 202 1203
369 1209 373 5 3 393 268 860 588 l850 582 227 459 c125 252 237 491 250 530
13 43 28 75 37 77 9 3 189 44 400 92 l384 86 1066 562 1066 561 615 519 c338
285 659 562 712 614 80 79 119 130 220 284 l123 189 55 16 55 17 -37 10 -37
11 169 259 c93 142 174 273 179 290 71 222 281 917 281 927 0 8 -65 227 -145
487 l-146 473 -168 257 -169 257 29 9 c41 12 36 20 -18 35 l-48 12 -132 202
c-82 126 -154 223 -190 259 -32 31 -348 302 -703 601 l-645 545 -1066 561
-1065 561 -395 90 c-216 50 -396 90 -399 90 -4 0 -16 33 -29 73 -12 39 -124
279 -249 532 l-227 460 -857 587 -858 588 -1207 369 -1208 368 -583 17 -584
16 -151 -145 c-126 -120 -157 -145 -182 -145 -16 0 -426 -29 -910 -64 l-880
-64 -481 -130 -480 -131 -405 -194 -404 -194 -228 -52 c-220 -51 -237 -53
-515 -71 -158 -10 -491 -29 -741 -41 l-455 -23 -175 29 -174 28 -161 121 c-88
67 -166 124 -173 129 -6 4 -418 -31 -915 -78 l-903 -85 -1149 -260 -1150 -260
-345 -176 -346 -176 -1143 -223 -1142 -223 -1965 -292 -1965 -292 -318 72
c-174 40 -752 182 -1284 316 l-966 244 -284 0 -284 0 -27 178 c-15 97 -28 180
-27 185 0 4 72 7 160 7 l160 0 0 155 0 155 258 0 257 0 213 77 212 77 0 387 0
386 -207 74 -208 73 -262 4 c-145 2 -263 7 -263 12 0 14 76 20 291 20 l215 0
180 65 c98 36 191 70 207 76 l27 11 0 382 0 382 -212 77 -213 77 -247 0 -248
0 0 39 c0 38 0 38 46 45 26 3 124 6 218 6 l171 -1 203 73 202 73 0 377 c0 208
-1 378 -3 378 -2 0 -86 30 -188 68 l-184 67 -230 5 -230 5 -3 48 -3 47 -125 0
-124 0 1 248 0 247 115 88 114 88 0 243 0 244 321 118 321 119 25 55 c13 30
30 78 36 106 9 45 8 58 -12 113 l-23 61 -332 108 -331 108 0 653 0 653 293
107 294 106 24 60 c46 111 48 133 21 200 l-25 59 -303 101 -304 102 4 1186 4
1187 -1135 0 -1134 0 -304 -637z"/>
</g>
</svg>
