<?xml version="1.0" standalone="no"?>
<!DOCTYPE svg PUBLIC "-//W3C//DTD SVG 20010904//EN"
 "http://www.w3.org/TR/2001/REC-SVG-20010904/DTD/svg10.dtd">
<svg version="1.0" xmlns="http://www.w3.org/2000/svg"
   viewBox="0 0 4112.000000 3498.000000"
 preserveAspectRatio="xMidYMid meet">
<metadata>
Created by potrace 1.16, written by Peter Selinger 2001-2019
</metadata>
<g transform="translate(0.000000,3498.000000) scale(0.100000,-0.100000)"
fill="#000000" stroke="none">
<path d="M15875 32680 c-1061 -1264 -1929 -2305 -1928 -2312 2 -7 95 -280 208
-606 113 -326 205 -598 205 -603 0 -5 -141 -9 -350 -9 l-350 0 0 -322 0 -321
-711 7 -712 7 -343 99 -343 100 -1180 0 -1181 0 0 -1139 0 -1139 848 4 c466 2
998 6 1182 8 l335 5 350 96 350 95 843 -6 842 -7 0 -206 0 -206 183 -47 c100
-25 345 -88 545 -139 l362 -92 0 -1128 0 -1128 -37 -10 c-21 -6 -258 -65 -528
-131 -269 -67 -498 -123 -507 -126 -17 -5 -18 -36 -19 -457 l0 -452 -334 -315
-334 -315 0 -457 -1 -458 -1140 0 -1140 0 0 -405 0 -405 -583 0 c-321 0 -1259
-3 -2085 -7 l-1502 -6 0 106 0 107 -1003 0 c-552 0 -1059 3 -1125 7 l-122 6 0
76 c0 42 -3 93 -6 114 l-7 37 -103 0 -104 0 0 -84 c0 -46 -3 -98 -6 -115 l-7
-31 -1198 6 -1199 7 0 -279 0 -279 -473 -195 -472 -195 -3 82 c-1 46 -7 83
-12 83 -17 0 -972 -149 -974 -152 -6 -10 10 -3968 16 -3973 14 -15 390 -40
757 -51 l234 -7 -7 90 -7 90 263 6 c145 4 390 7 544 7 l282 0 6 -22 c3 -13 6
-156 6 -319 0 -163 3 -485 7 -717 l6 -422 1214 0 1213 0 0 155 c0 85 1 156 3
156 1 1 64 4 139 8 75 3 139 9 143 13 4 3 9 69 12 146 l6 139 120 7 c66 3 317
6 559 6 l438 0 0 155 0 155 429 0 429 0 6 23 c3 12 6 59 6 105 l0 82 2085 0
2085 0 0 -439 0 -440 53 -5 c28 -3 214 -10 412 -16 198 -6 426 -13 508 -17
l147 -6 0 -378 0 -379 1135 0 1135 0 0 340 0 340 74 0 74 0 6 -1247 c3 -687 8
-1371 11 -1520 l5 -273 -85 0 -85 0 0 -70 0 -70 -269 0 -268 0 -7 -46 c-3 -26
-6 -214 -6 -419 0 -331 -2 -374 -16 -379 -9 -3 -89 -6 -179 -6 l-164 0 -3 299
c-2 165 -7 303 -11 308 -5 4 -135 9 -290 11 l-282 2 -325 -305 -325 -306 -6
-342 c-3 -188 -10 -700 -14 -1137 l-8 -795 346 -431 345 -432 284 -4 c155 -3
284 -4 285 -4 0 1 4 191 8 424 l8 422 173 0 174 0 2 -437 3 -438 1012 -875
1012 -875 0 -1595 1 -1594 -92 -173 c-51 -95 -98 -173 -105 -173 -9 0 -13 -18
-13 -62 0 -54 16 -110 112 -392 l113 -329 148 -153 147 -152 0 -101 c0 -55 -3
-101 -7 -101 -17 0 -1022 -80 -1080 -86 -51 -5 -63 -10 -63 -24 0 -15 11 -19
58 -24 59 -7 1057 -86 1080 -86 9 0 12 -36 12 -145 l0 -145 1230 0 1230 0 0
120 0 120 130 0 130 0 0 -25 c0 -25 1 -25 90 -25 l90 0 0 210 0 210 -90 0
c-89 0 -90 0 -90 -25 l0 -25 -130 0 -130 0 0 235 0 235 -80 0 -80 0 0 2243 0
2242 70 58 70 59 -1 851 0 852 -70 60 -69 60 0 270 0 270 130 149 130 149 0
945 0 944 -130 156 -130 156 0 313 0 313 -205 0 -205 0 0 60 0 60 -750 0 -750
0 0 328 0 329 -71 109 -70 109 3 352 c2 193 6 355 10 359 4 3 46 -1 94 -11 78
-17 92 -24 160 -78 41 -32 74 -61 74 -63 0 -3 -11 -21 -25 -41 -27 -40 -22
-69 5 -35 10 12 145 242 300 512 l283 490 383 0 384 0 0 380 0 380 130 0 130
0 0 -75 0 -75 349 0 348 0 7 46 c3 26 6 147 6 270 l0 224 130 0 130 0 0 145 0
145 1570 0 1570 0 0 -80 0 -80 2125 0 2125 0 0 -43 0 -44 75 5 75 5 0 -192 0
-191 604 0 603 0 7 61 c3 34 6 86 6 115 l0 54 115 0 115 0 0 -843 c0 -464 3
-1215 6 -1668 l6 -824 -174 -225 -174 -225 -312 -3 -312 -2 0 96 0 97 -487 -6
c-269 -4 -683 -7 -920 -7 l-433 0 0 -1337 0 -1336 238 6 c130 4 540 10 910 14
l672 6 0 94 0 93 343 0 342 0 131 -338 132 -337 261 -3 261 -2 0 -165 0 -165
600 0 600 0 0 119 c0 65 3 139 6 165 l7 46 241 0 242 0 139 340 140 340 698 0
697 0 0 -1603 0 -1603 950 -353 c522 -194 953 -351 958 -349 4 1 1589 1263
3520 2802 l3512 2800 0 648 0 648 -4470 0 -4470 0 0 -425 0 -425 -695 0 -695
0 0 70 0 71 -150 227 -150 226 0 318 0 318 60 0 60 0 0 955 0 955 -60 0 -60 0
0 400 0 400 575 0 575 0 0 49 0 49 255 7 c187 5 257 11 263 20 8 14 496 34
887 36 132 1 272 5 310 9 51 5 12 7 -138 8 l-208 2 18 30 c14 24 24 30 53 30
28 0 3198 59 3208 60 1 0 2 8 2 18 0 18 -44 19 -1147 25 -632 4 -1362 7 -1624
7 l-475 0 -27 40 -26 40 92 0 c75 1 1386 28 1395 30 1 0 2 5 2 10 0 7 -339 10
-998 10 l-999 0 -11 25 c-9 20 -19 25 -49 25 -21 0 -203 5 -404 10 l-367 9
-143 112 c-79 61 -152 117 -162 124 -16 11 -17 110 -15 1895 l3 1883 280 122
280 123 3 211 2 211 385 0 385 0 26 40 27 40 1083 0 1084 0 55 73 55 74 0 300
0 299 -55 69 c-30 38 -55 73 -55 77 0 5 -488 8 -1085 8 l-1085 0 -26 40 -27
40 -378 0 -379 0 0 265 0 265 -915 0 -915 0 0 205 0 205 -410 0 -410 0 0 -205
c0 -189 -1 -205 -18 -205 -15 0 -37 96 -166 718 -82 394 -151 725 -154 735 -4
16 93 17 1932 17 l1936 0 0 423 0 422 -2350 1787 -2349 1787 -578 -205 c-318
-112 -604 -214 -635 -225 l-58 -21 0 -1984 0 -1984 650 0 650 0 0 -735 c0
-483 -3 -735 -10 -735 -11 0 -11 -11 -19 225 l-6 180 -231 3 -232 2 -6 -137
c-4 -76 -9 -168 -12 -205 l-6 -68 -369 0 -369 0 0 -200 0 -199 -92 -3 -93 -3
-3 -94 -3 -93 -1927 6 c-1060 3 -2016 9 -2124 12 l-198 6 0 -76 0 -76 -958 0
c-527 0 -1223 -3 -1545 -7 l-587 -6 0 191 0 192 -113 0 -114 0 -6 153 c-25
611 -40 1229 -30 1235 6 4 174 38 372 77 l361 69 0 161 0 161 563 16 562 16
105 32 105 32 1915 18 c1053 9 1916 18 1918 19 1 0 2 12 2 26 l0 25 -117 0
c-65 0 -930 7 -1921 16 l-1804 16 -101 35 -102 35 -510 13 c-280 8 -534 14
-562 14 l-53 1 0 133 0 133 -365 59 c-201 32 -365 63 -365 67 0 4 31 8 69 8
l69 0 80 88 81 89 1536 6 c1293 6 1541 5 1563 -7 23 -12 93 -12 457 0 237 7
442 13 458 14 27 0 27 1 27 63 l0 63 -459 13 c-381 10 -464 10 -488 -1 -23
-11 -295 -12 -1557 -7 l-1528 7 -87 86 -86 86 -78 0 c-42 0 -77 3 -77 8 0 4
46 39 103 77 l102 70 2 440 3 440 -100 65 c-55 36 -100 68 -100 73 0 4 33 7
72 7 l73 0 85 85 85 84 1550 1 c853 1 1636 0 1740 -1 105 -2 315 1 468 5 l277
8 0 63 0 62 -182 6 c-498 18 -728 20 -767 7 -31 -10 -331 -10 -1562 -2 l-1523
11 -81 81 -80 80 -78 0 -77 0 0 40 c0 22 4 40 10 40 5 0 164 23 352 50 188 28
346 50 350 50 4 0 8 65 8 145 l0 145 68 0 c37 0 290 5 562 11 l495 11 120 38
120 38 1495 11 c822 6 1683 14 1913 18 l417 6 0 22 0 22 -312 6 c-172 4 -1033
12 -1913 18 l-1600 12 -120 37 -120 38 -460 11 c-253 6 -506 11 -562 11 l-103
0 0 159 0 160 -199 3 c-110 2 -201 5 -204 8 -2 3 -8 80 -11 173 l-7 167 1300
0 1300 0 36 65 37 65 409 0 409 0 0 90 0 90 -408 0 -408 0 -38 65 -38 65
-1299 0 -1299 0 0 258 0 257 -235 93 -235 92 -155 0 -155 0 0 260 0 260 100 0
100 0 0 -45 0 -45 913 0 c503 0 1171 3 1485 7 l572 6 -2 1886 -3 1885 -795
117 -795 117 -665 7 -666 8 -98 -57 c-54 -31 -101 -54 -104 -52 -3 3 7 479 22
1058 14 579 26 1060 26 1069 0 15 -39 17 -397 23 -219 4 -414 9 -433 11 l-35
4 -1930 -2299z m2897 -1119 c24 -14 28 -22 28 -63 l0 -48 -110 0 -110 0 0 28
c0 16 3 63 6 105 l7 77 76 -42 c42 -23 88 -49 103 -57z m-145 -273 c-3 -18
-13 -93 -22 -165 -10 -73 -22 -133 -26 -133 -11 0 -11 65 -2 218 6 111 6 112
31 112 22 0 24 -3 19 -32z m172 -15 c-1 -53 -6 -49 -11 10 -2 20 0 37 4 37 4
0 8 -21 7 -47z m-209 -1078 l0 -635 -30 0 c-31 0 -31 0 -26 48 3 26 10 288 16
582 11 556 15 640 31 640 5 0 9 -251 9 -635z m14 -932 c10 -71 20 -140 23
-155 5 -25 2 -28 -21 -28 -25 0 -26 2 -26 55 0 55 0 55 -31 55 -24 0 -30 3
-25 16 3 9 6 54 6 100 l0 84 28 0 28 0 18 -127z m183 -170 c-3 -10 -5 -4 -5
12 0 17 2 24 5 18 2 -7 2 -21 0 -30z m-2697 -43 l1045 -27 -1257 -2 -1258 -1
0 35 0 36 213 -7 c116 -4 682 -19 1257 -34z m1500 -546 l0 -36 -357 6 c-197 3
-695 8 -1108 11 -412 3 -920 8 -1127 11 -361 6 -378 7 -378 25 0 19 38 19
1485 19 l1485 0 0 -36z m17170 -8094 l0 -300 -1019 0 -1018 0 -27 40 -26 40
-385 0 -385 0 0 138 c0 75 3 174 7 220 l6 82 377 0 377 0 27 40 26 40 1020 0
1020 0 0 -300z m-15150 -229 l105 -6 -160 -173 -160 -172 -3 45 c-3 42 -5 45
-33 45 l-29 0 0 135 0 135 88 -1 c48 -1 134 -4 192 -8z m1878 -11 l462 0 0
-110 0 -110 35 0 36 0 -6 -132 c-4 -73 -10 -238 -14 -365 -6 -164 -12 -237
-21 -248 -10 -12 -11 -84 -6 -348 3 -182 9 -390 13 -460 l6 -129 -1354 5
c-745 3 -1369 9 -1386 12 -29 7 -33 11 -33 41 l0 34 -59 0 c-100 0 -91 -34
-91 360 l0 347 130 86 c91 61 139 87 160 87 30 0 30 1 30 55 l0 54 408 416
407 416 410 -5 c226 -3 618 -6 873 -6z m922 -125 l0 -125 238 0 239 0 6 -577
c4 -318 7 -686 7 -819 l0 -241 -212 -6 c-116 -4 -264 -7 -330 -7 l-118 0 -1
68 c-6 558 -16 851 -28 866 -10 12 -14 76 -17 264 -2 136 -6 300 -8 365 l-3
117 33 0 34 0 0 110 0 110 80 0 80 0 0 -125z m2280 -950 l0 -815 -188 0 c-104
0 -230 3 -280 6 l-92 7 0 717 c0 394 3 758 6 808 l7 92 273 0 274 0 0 -815z
m780 -1210 l0 -2025 -247 0 -246 0 6 473 c4 259 7 599 7 755 l0 282 135 0 135
0 0 449 0 448 -137 7 c-76 4 -139 9 -141 11 -2 2 0 368 4 814 l7 811 239 0
238 0 0 -2025z m1202 1973 l3 -43 98 -3 c87 -2 97 -5 97 -21 0 -18 20 -19 375
-26 l375 -7 69 -97 69 -96 6 -1565 6 -1565 -63 -179 -62 -179 -392 7 -393 7 0
-100 0 -99 -70 -7 c-50 -5 -70 -11 -70 -21 0 -12 -49 -14 -295 -14 l-295 0 0
1133 c0 622 3 1534 7 2025 l6 892 263 0 263 0 3 -42z m-15682 -523 l0 -305
-39 0 c-21 0 -66 -3 -100 -6 l-61 -7 0 -383 0 -384 -370 0 -370 0 0 30 c0 30
-1 30 -55 30 l-55 0 0 -120 0 -120 -1983 0 -1984 0 -6 332 c-4 182 -7 481 -7
665 l0 333 430 0 430 0 0 120 0 120 2085 0 2085 0 0 -305z m-2577 -1915 l1527
0 0 -120 0 -120 55 0 55 0 0 37 0 36 263 -6 c144 -4 310 -7 370 -7 l107 0 0
-335 0 -335 105 0 105 0 0 -378 0 -379 -392 -6 c-215 -4 -1156 -7 -2090 -7
l-1698 0 0 120 0 120 -424 0 -425 0 -3 118 c-2 64 -2 378 0 696 l3 579 457 -6
c251 -4 1144 -7 1985 -7z m11337 -87 c-24 -21 -148 -127 -275 -236 l-230 -197
-3 40 c-2 22 -7 40 -13 40 -10 0 -12 150 -2 293 l6 97 280 0 281 0 -44 -37z
m2227 -142 c-6 -169 -5 -181 14 -205 20 -25 20 -28 4 -483 -8 -252 -18 -491
-21 -530 l-6 -73 -39 0 -39 0 0 -130 0 -130 -1143 0 c-629 0 -1205 3 -1280 7
l-137 6 0 129 0 128 -130 0 -130 0 0 233 0 233 73 32 c39 18 78 32 85 32 7 0
12 14 12 39 l0 39 528 426 527 426 844 0 844 0 -6 -179z m923 -581 l0 -760
-209 0 c-242 0 -221 13 -221 -127 l0 -83 -95 0 -95 0 0 130 0 130 -40 0 -40 0
0 533 c0 453 2 536 15 553 11 15 14 57 15 202 l0 182 335 0 335 0 0 -760z
m1784 683 c3 -42 6 -384 6 -760 l0 -683 -275 0 -275 0 0 760 0 760 269 0 268
0 7 -77z m7496 -7643 l0 -800 -695 0 -695 0 0 800 0 800 695 0 695 0 0 -800z"/>
</g>
</svg>
