<?xml version="1.0" standalone="no"?>
<!DOCTYPE svg PUBLIC "-//W3C//DTD SVG 20010904//EN"
 "http://www.w3.org/TR/2001/REC-SVG-20010904/DTD/svg10.dtd">
<svg version="1.0" xmlns="http://www.w3.org/2000/svg"
   viewBox="0 0 3426.000000 512.000000"
 preserveAspectRatio="xMidYMid meet">
<metadata>
Created by potrace 1.16, written by Peter Selinger 2001-2019
</metadata>
<g transform="translate(0.000000,512.000000) scale(0.100000,-0.100000)"
fill="#000000" stroke="none">
<path d="M448 5108 c-24 -8 -26 -12 -15 -29 6 -10 21 -19 32 -19 39 0 336
-113 346 -132 9 -17 1 -18 -183 -18 l-192 0 -43 -42 -43 -42 0 -217 c0 -180
-3 -219 -15 -229 -13 -11 -15 -57 -15 -301 l0 -289 -40 0 c-29 0 -40 -4 -40
-15 0 -12 -20 -15 -120 -15 l-120 0 0 -1200 0 -1200 120 0 c100 0 120 -2 120
-15 0 -11 11 -15 40 -15 l40 0 0 -289 c0 -244 2 -290 15 -301 12 -10 15 -49
15 -229 l0 -217 43 -42 43 -42 192 0 c184 0 192 -1 183 -18 -11 -21 -318 -136
-348 -130 -11 2 -22 -5 -28 -17 -9 -17 -7 -22 14 -31 21 -8 63 4 280 83 141
51 264 97 273 103 12 6 180 10 475 10 l458 1 97 124 98 125 857 0 c696 0 877
3 958 15 85 12 494 14 2790 14 l2690 1 85 -130 85 -130 1655 0 1655 0 58 96
57 95 0 220 0 219 596 0 596 0 108 100 108 100 714 0 715 0 12 -40 12 -40 653
0 654 0 16 40 16 41 127 -3 126 -3 12 -35 12 -35 655 -3 655 -2 13 40 13 40
374 0 373 0 16 -40 16 -40 652 0 653 0 13 40 13 40 127 0 127 0 16 -40 15 -40
651 0 651 0 16 40 16 40 373 0 372 0 16 -40 15 -40 652 0 652 0 15 40 16 40
124 0 125 0 15 -40 16 -40 652 0 653 0 16 40 16 40 373 0 374 0 13 -40 13 -40
653 0 652 0 16 40 16 40 125 0 125 0 16 -40 16 -40 652 0 653 0 13 40 13 40
157 0 c221 0 644 62 1680 247 l825 147 148 98 148 98 105 0 104 0 42 37 c213
186 508 462 508 474 0 5 -8 9 -17 9 -10 0 -13 3 -7 9 22 21 115 31 277 31
l174 0 49 97 49 98 0 155 0 155 -49 97 -49 98 -174 0 c-162 0 -255 10 -277 31
-6 6 -3 9 7 9 9 0 17 4 17 9 0 12 -295 288 -508 474 l-42 37 -104 0 -105 0
-148 98 -148 98 -825 147 c-1036 185 -1459 247 -1680 247 l-157 0 -13 40 -13
40 -653 0 -652 0 -16 -40 -16 -40 -125 0 -125 0 -16 40 -16 40 -652 0 -653 0
-13 -40 -13 -40 -374 0 -373 0 -16 40 -16 40 -653 0 -652 0 -16 -40 -15 -40
-125 0 -124 0 -16 40 -15 40 -652 0 -652 0 -15 -40 -16 -40 -372 0 -373 0 -16
40 -16 40 -651 0 -651 0 -15 -40 -16 -40 -127 0 -127 0 -13 40 -13 40 -653 0
-652 0 -16 -40 -16 -40 -373 0 -374 0 -13 40 -13 40 -655 -2 -655 -3 -12 -35
-12 -35 -126 -3 -127 -3 -16 41 -16 40 -654 0 -653 0 -12 -40 -12 -40 -715 0
-714 0 -108 100 -107 100 -597 0 -596 0 0 219 0 220 -57 95 -58 96 -1655 0
-1655 0 -85 -130 -85 -130 -2690 1 c-2296 0 -2705 2 -2790 14 -81 12 -262 15
-958 15 l-857 0 -98 125 -97 124 -461 1 c-256 0 -464 4 -470 9 -5 5 -115 47
-244 94 -129 47 -246 90 -260 95 -15 6 -35 6 -52 0z m-208 -1463 c0 -12 -17
-15 -95 -15 -78 0 -95 3 -95 15 0 12 17 15 95 15 78 0 95 -3 95 -15z m0 -2170
c0 -12 -17 -15 -95 -15 -78 0 -95 3 -95 15 0 12 17 15 95 15 78 0 95 -3 95
-15z"/>
</g>
</svg>
