<?xml version="1.0" standalone="no"?>
<!DOCTYPE svg PUBLIC "-//W3C//DTD SVG 20010904//EN"
 "http://www.w3.org/TR/2001/REC-SVG-20010904/DTD/svg10.dtd">
<svg version="1.0" xmlns="http://www.w3.org/2000/svg"
   viewBox="0 0 2870.000000 4865.000000"
 preserveAspectRatio="xMidYMid meet">
<metadata>
Created by potrace 1.16, written by Peter Selinger 2001-2019
</metadata>
<g transform="translate(0.000000,4865.000000) scale(0.100000,-0.100000)"
fill="#000000" stroke="none">
<path d="M14020 48616 l0 -36 -415 0 -415 0 0 30 0 30 -650 0 -650 0 0 -155 0
-155 180 0 180 0 0 -55 0 -55 -345 0 -345 0 0 -102 c0 -75 5 -117 18 -153 l19
-50 -43 -284 c-24 -156 -46 -286 -48 -288 -2 -3 -392 -18 -867 -34 -474 -16
-863 -30 -864 -32 -1 -1 -12 -288 -24 -637 -12 -349 -24 -675 -28 -724 l-6
-88 -88 4 c-76 4 -89 2 -89 -11 0 -9 -20 -434 -45 -945 -25 -511 -42 -932 -39
-935 3 -3 149 -6 325 -6 l319 0 0 -2546 0 -2546 -217 -6 c-120 -4 -291 -7
-380 -7 -124 0 -163 -3 -163 -12 0 -7 -25 -573 -55 -1257 -30 -685 -53 -1246
-52 -1248 2 -1 36 -6 76 -9 l73 -7 -6 -96 c-3 -53 -11 -258 -17 -456 l-12
-360 -93 -111 -94 -112 -5 -423 c-3 -233 -7 -633 -10 -887 l-5 -464 833 6
c457 3 961 9 1120 12 l287 6 0 -504 c0 -276 -3 -701 -7 -943 l-6 -440 -945 0
-945 0 -44 -185 c-43 -178 -724 -2893 -727 -2897 0 -1 -80 -10 -176 -20 l-175
-18 -53 -77 c-41 -61 -59 -78 -77 -78 -13 0 -356 -27 -762 -60 l-738 -60 -620
-213 -620 -212 -557 -499 c-321 -288 -558 -507 -561 -520 -3 -11 -47 -392 -98
-845 l-94 -824 -81 -38 c-76 -34 -82 -39 -88 -73 l-7 -36 -142 0 c-78 0 -577
7 -1109 15 l-967 14 -853 -215 c-469 -118 -870 -220 -890 -225 l-38 -10 0
-1654 0 -1654 38 -10 c20 -5 424 -107 897 -227 l860 -217 1022 6 1023 6 5 -22
c3 -12 9 -42 13 -66 7 -44 7 -44 84 -74 64 -25 78 -34 82 -56 3 -14 58 -370
121 -791 64 -421 122 -770 128 -776 7 -7 252 -210 544 -453 l532 -441 598
-179 598 -179 625 -26 c344 -14 665 -29 713 -33 l89 -6 46 -68 47 -68 55 -1
c97 -1 100 -3 100 -75 0 -72 10 -66 -138 -86 l-92 -12 2 -831 3 -831 113 -19
112 -19 0 -79 0 -78 313 -157 312 -158 3895 -6 3895 -5 262 120 262 121 1
1019 0 1019 263 -8 263 -7 13 41 12 41 232 0 232 0 24 -35 24 -35 147 0 148 0
26 35 c26 33 30 35 90 35 l63 0 38 55 c21 31 41 58 45 60 7 4 2634 165 2695
165 25 0 25 1 25 85 l0 85 -26 0 c-123 0 -2690 162 -2700 171 -7 6 -27 33 -44
60 l-32 49 -67 0 c-64 0 -67 1 -89 35 l-22 35 -148 0 -147 0 -24 -35 -24 -35
-233 0 -233 0 -12 41 -13 40 -263 -7 -263 -7 0 407 0 406 513 0 c283 0 602 3
710 7 l197 6 0 -29 c0 -52 8 -55 137 -61 l120 -6 7 -81 c3 -45 6 -183 6 -308
l0 -228 1140 0 1140 0 772 531 c425 293 783 541 795 552 15 14 23 33 25 65 l3
45 1205 793 c663 437 1209 794 1215 794 5 0 27 -18 50 -39 l40 -39 560 326
560 327 3 91 3 91 202 6 c111 4 244 7 295 7 l92 0 0 884 0 884 -52 6 c-29 3
-162 13 -295 23 l-243 17 0 82 0 82 -559 326 c-307 179 -562 326 -567 326 -4
0 -26 -18 -49 -40 l-40 -40 -1212 798 -1212 797 -3 50 -3 50 -795 547 -795
547 -1136 1 -1137 0 -4 -305 c-2 -167 -6 -306 -9 -309 -2 -2 -59 -8 -126 -12
-131 -7 -132 -8 -133 -71 0 -23 -2 -23 -140 -23 -118 0 -140 2 -140 15 0 13
-72 15 -590 15 -400 0 -590 -3 -590 -10 0 -7 -37 -10 -102 -8 l-102 3 -132
520 c-73 286 -133 521 -134 523 0 1 45 2 99 2 97 0 99 0 105 25 l6 25 153 0
c141 0 153 -1 165 -20 11 -18 23 -20 112 -20 89 0 101 2 112 20 10 15 24 20
55 20 39 0 45 4 69 40 17 25 35 40 48 41 11 0 408 24 881 52 l860 52 3 52 3
51 -53 6 c-29 3 -397 26 -818 51 -990 58 -893 48 -924 96 -24 36 -30 39 -71
39 -34 0 -47 5 -55 20 -10 18 -21 20 -110 20 -89 0 -100 -2 -110 -20 -10 -19
-21 -20 -165 -20 -145 0 -154 1 -160 20 -6 19 -15 20 -178 20 l-172 0 -409
1618 c-225 889 -418 1649 -428 1687 l-19 70 -548 -3 -548 -2 -6 601 c-4 331
-7 754 -7 940 l0 337 568 -4 c312 -2 703 -6 869 -8 l302 -4 -4 26 c-3 15 -26
288 -51 607 l-47 580 -109 146 -109 147 -129 1012 c-72 557 -130 1020 -130
1030 0 13 14 20 59 30 32 7 64 15 70 19 9 6 -117 1051 -498 4121 -280 2262
-512 4114 -515 4117 -3 3 -42 1 -88 -5 -46 -5 -85 -8 -87 -6 -2 2 -67 498
-145 1103 -78 605 -144 1102 -148 1106 -4 4 -250 -1 -547 -11 -298 -9 -543
-15 -545 -13 -2 2 -24 120 -47 261 -40 236 -43 259 -29 290 9 20 15 77 18 151
l3 117 -355 0 -356 0 0 55 0 55 350 0 350 0 0 30 0 30 415 0 415 0 0 -35 c0
-30 3 -35 23 -35 12 0 742 25 1622 55 880 30 1612 55 1628 55 26 0 27 2 27 55
0 51 -2 55 -24 55 -46 0 -2994 99 -3133 105 l-143 7 0 -36z m-5788 -21177 l32
-71 89 7 c74 6 89 5 84 -6 -2 -8 -94 -368 -203 -801 l-198 -788 -1123 0 -1123
0 0 -405 0 -405 350 0 350 0 0 -23 c0 -24 0 -24 173 -30 94 -4 344 -10 555
-13 l382 -7 0 -24 0 -23 1015 0 1015 0 0 -30 0 -30 -97 0 c-54 0 -1029 14
-2168 30 -1138 16 -2141 30 -2227 30 l-158 0 0 33 c-1 27 -9 38 -61 77 -51 38
-59 48 -55 70 3 14 31 316 63 673 l58 648 399 352 c219 193 416 367 437 385
34 29 85 45 566 177 l528 145 595 49 c327 27 617 49 643 50 l48 1 31 -71z
m-2442 -7139 l0 -400 350 0 350 0 0 -24 c0 -23 2 -24 128 -30 143 -8 1140 -26
1420 -26 l182 0 0 -699 0 -698 -137 5 -138 5 -25 -67 -24 -66 -41 0 c-23 0
-297 11 -611 25 l-569 25 -500 117 -500 117 -415 340 c-228 186 -418 342 -423
346 -4 3 -44 290 -88 636 l-81 629 56 50 c46 42 56 56 56 83 l0 32 505 0 505
0 0 -400z"/>
<path d="M11600 14605 l0 -495 1310 0 1310 0 0 495 0 495 -1310 0 -1310 0 0
-495z"/>
<path d="M23600 14920 l0 -40 -520 0 -520 0 0 35 0 35 -825 0 -825 0 0 -195 0
-195 230 0 230 0 0 -230 0 -230 -105 0 -105 0 0 -96 0 -96 -67 6 c-38 4 -194
15 -348 26 -154 11 -803 58 -1442 105 -877 64 -1210 85 -1358 85 l-195 0 0
-290 0 -290 -410 0 -410 0 0 23 c0 12 -7 213 -15 447 -8 234 -15 449 -15 478
l0 52 -498 0 c-274 0 -824 -3 -1222 -7 l-723 -6 -116 -238 -116 -238 -1304 2
-1304 2 -121 237 -121 238 -322 0 -322 0 -112 -194 c-62 -107 -116 -193 -120
-191 -3 3 -9 30 -13 62 -4 32 -11 86 -17 121 l-11 62 -1127 0 c-620 0 -1648
-3 -2283 -7 l-1156 -6 -27 -104 c-15 -57 -31 -118 -36 -137 l-9 -33 -93 -6
-92 -5 -295 -152 -295 -152 2 -1191 2 -1190 298 -153 298 -153 87 -1 87 0 10
-37 c5 -21 22 -83 36 -139 l27 -101 1156 -6 c635 -4 1663 -7 2283 -7 l1127 0
10 63 c6 34 14 85 18 112 3 28 9 55 13 62 3 7 57 -77 119 -188 l113 -199 323
0 323 0 121 258 122 257 942 3 c519 2 1105 0 1304 -4 l360 -6 119 -254 119
-254 1218 0 1218 0 0 53 c0 28 7 241 15 472 8 231 15 432 15 448 l0 27 410 0
410 0 0 -290 0 -290 211 0 c155 0 392 13 893 50 374 27 1028 74 1451 105 424
30 789 57 813 60 l42 5 0 -115 0 -115 95 0 95 0 0 -260 0 -260 -265 0 -265 0
0 -230 0 -230 950 0 950 0 0 45 0 45 600 0 600 0 0 -51 0 -50 128 6 c152 7
4533 155 4603 155 l49 0 0 80 c0 72 -2 80 -19 80 -11 0 -1080 36 -2378 80
-1297 44 -2364 80 -2370 80 -9 0 -13 -17 -13 -50 l0 -50 -600 0 -600 0 0 45 0
45 -510 0 -510 0 0 260 0 260 120 0 119 0 3 142 3 143 1045 77 c575 42 1048
77 1053 77 4 1 7 228 7 504 l0 504 153 6 c83 3 542 18 1020 33 l867 28 0 47 0
46 -137 6 c-76 4 -516 18 -978 32 -462 14 -859 28 -882 31 l-43 5 0 470 c0
258 -2 469 -4 469 -3 0 -467 34 -1033 75 -565 41 -1038 75 -1050 75 -23 0 -23
2 -23 125 l0 125 -130 0 -130 0 0 230 0 230 440 0 440 0 0 35 0 35 520 0 520
0 0 -40 0 -40 48 0 c77 0 3897 129 4010 136 l102 6 0 63 0 63 -72 6 c-68 5
-3983 137 -4055 136 -32 0 -33 -2 -33 -40z"/>
<path d="M11600 10150 l0 -950 -1035 0 -1035 0 0 -239 c0 -220 -1 -240 -17
-245 -10 -3 -54 -10 -98 -16 -44 -6 -90 -14 -102 -17 l-23 -5 0 -1033 0 -1033
120 -44 120 -43 0 -282 0 -283 240 0 240 0 0 -1675 0 -1675 -240 0 -240 0 0
-714 0 -713 83 -6 c45 -4 260 -7 477 -7 217 0 614 -3 881 -7 l487 -6 40 -111
41 -111 -19 -145 c-11 -80 -20 -191 -20 -247 l0 -103 375 0 375 0 0 -55 0 -55
-180 0 -180 0 0 -160 0 -160 650 0 650 0 0 30 0 30 415 0 415 0 0 -35 0 -36
118 6 c164 9 3035 105 3116 105 l66 0 0 54 0 54 -102 6 c-99 6 -3099 106
-3165 106 -31 0 -33 -2 -33 -35 l0 -35 -415 0 -415 0 0 35 0 35 -350 0 -350 0
0 55 0 55 365 0 c255 0 365 3 365 11 0 6 5 52 11 102 9 82 8 107 -14 236 l-25
145 29 100 c16 56 29 103 29 105 0 2 311 2 692 0 l692 -4 75 307 75 308 95 0
96 0 448 1788 c247 983 449 1795 450 1806 2 15 -16 25 -86 52 -49 18 -91 34
-93 36 -4 5 504 2079 515 2098 4 8 62 31 127 51 l119 36 72 289 c40 159 92
370 116 470 l44 181 -100 34 c-55 19 -101 39 -104 45 -2 6 26 131 62 279 36
147 65 272 65 276 0 5 -527 9 -1195 9 l-1195 0 0 950 0 950 -1310 0 -1310 0 0
-950z"/>
</g>
</svg>
