<?xml version="1.0" standalone="no"?>
<!DOCTYPE svg PUBLIC "-//W3C//DTD SVG 20010904//EN"
 "http://www.w3.org/TR/2001/REC-SVG-20010904/DTD/svg10.dtd">
<svg version="1.0" xmlns="http://www.w3.org/2000/svg"
   viewBox="0 0 3564.000000 2598.000000"
 preserveAspectRatio="xMidYMid meet">
<metadata>
Created by potrace 1.16, written by Peter Selinger 2001-2019
</metadata>
<g transform="translate(0.000000,2598.000000) scale(0.100000,-0.100000)"
fill="#000000" stroke="none">
<path d="M8027 25966 c-8 -8 -22 -46 -32 -84 -13 -51 -24 -73 -39 -80 -16 -7
-35 -51 -79 -185 -55 -167 -59 -176 -89 -186 -18 -6 -106 -11 -207 -11 l-176
0 -192 -92 c-233 -111 -230 -104 -120 -221 l72 -78 235 -78 235 -78 -75 -7
c-45 -4 -81 -13 -90 -22 -8 -8 -256 -319 -550 -692 l-536 -677 -49 -7 c-126
-18 -108 -1 -196 -184 l-78 -164 -53 0 c-53 -1 -55 -2 -388 -234 l-335 -233
-3 -164 c-2 -90 0 -246 3 -346 l7 -183 119 0 120 0 94 -71 c52 -39 95 -76 95
-81 0 -5 -43 -64 -95 -130 l-95 -121 0 -98 0 -99 185 -92 185 -93 0 -297 0
-298 -420 0 c-367 0 -420 2 -420 15 0 11 -12 15 -50 15 l-50 0 0 -535 0 -535
-40 0 -40 0 0 -170 0 -170 40 0 40 0 0 -40 0 -40 50 0 c28 0 50 5 50 10 0 7
185 10 535 10 469 0 535 -2 535 -15 0 -11 12 -15 45 -15 l45 0 0 -180 0 -180
-43 0 -42 0 -62 -122 c-44 -90 -77 -141 -123 -190 l-62 -68 -151 0 -152 -1
-415 -471 -415 -470 -3 -59 c-2 -49 -6 -59 -21 -59 -10 0 -26 9 -36 20 -17 19
-31 20 -316 20 -288 0 -299 -1 -309 -20 -10 -19 -21 -20 -385 -20 l-374 0 -83
-72 -83 -71 4 -79 3 -78 -271 0 -271 0 0 -25 0 -25 -273 0 c-151 0 -376 -3
-500 -7 l-227 -6 0 -487 0 -487 188 -6 c103 -4 309 -9 457 -12 149 -3 290 -8
314 -11 l43 -6 -3 -119 -4 -119 595 0 595 0 65 -192 65 -192 440 -147 c348
-115 440 -150 439 -162 -1 -9 -32 -111 -70 -227 l-68 -210 -418 0 -418 0 0
-70 0 -70 -77 0 c-69 0 -87 -4 -159 -37 -75 -36 -83 -42 -118 -100 l-37 -63
-184 0 -185 0 0 -180 0 -180 -201 0 -201 0 4 -55 5 -55 -764 0 -763 0 0 -175
0 -175 -483 0 -483 0 -90 -39 -89 -38 0 -342 0 -342 89 -40 88 -39 484 0 484
0 0 -175 0 -175 763 0 764 0 -5 -55 -4 -55 201 0 201 0 0 -175 0 -175 183 0
182 0 39 -68 c37 -64 43 -69 120 -105 72 -33 90 -37 159 -37 l77 0 0 -70 0
-70 418 0 418 0 68 -208 c37 -114 68 -216 69 -226 2 -16 -63 -41 -438 -165
l-440 -147 -65 -192 -65 -192 -595 0 -595 0 4 -119 3 -119 -53 -6 c-30 -3
-171 -8 -314 -11 -143 -3 -344 -8 -447 -12 l-188 -6 0 -487 0 -487 232 -6
c128 -4 353 -7 501 -7 l267 0 0 -25 0 -25 271 0 272 0 -6 -77 -6 -78 86 -72
85 -73 374 0 c363 0 374 -1 384 -20 10 -19 21 -20 309 -20 285 0 299 1 316 20
10 11 26 20 36 20 15 0 19 -10 21 -59 l3 -59 410 -465 410 -466 152 0 151 -1
67 -72 c52 -56 82 -102 129 -195 l61 -123 42 0 43 0 0 -180 0 -180 -45 0 c-33
0 -45 -4 -45 -15 0 -13 -66 -15 -535 -15 -350 0 -535 3 -535 10 0 6 -22 10
-50 10 l-50 0 0 -40 0 -40 -40 0 -40 0 0 -170 0 -170 40 0 40 0 0 -535 0 -535
50 0 c38 0 50 4 50 15 0 13 53 15 420 15 l420 0 0 -298 0 -297 -185 -93 -185
-92 0 -99 0 -98 95 -121 c52 -66 95 -125 95 -130 0 -5 -43 -42 -95 -81 l-94
-71 -120 0 -119 0 -7 -182 c-3 -101 -5 -257 -3 -347 l3 -164 335 -233 c333
-232 335 -233 388 -234 l53 0 79 -164 c87 -183 69 -166 195 -184 l50 -7 535
-677 c294 -373 542 -684 550 -692 9 -9 45 -18 90 -22 l75 -7 -235 -78 -235
-78 -72 -78 c-109 -117 -113 -110 120 -221 l192 -92 176 0 c101 0 189 -5 207
-11 30 -10 34 -19 89 -186 44 -134 63 -178 79 -185 15 -7 26 -29 39 -80 19
-74 35 -98 66 -98 32 0 24 44 -61 306 -44 136 -80 249 -80 251 0 1 257 3 571
3 l571 0 142 58 c115 48 173 80 309 171 l167 111 0 59 c0 38 -4 61 -12 64 -7
3 39 6 102 6 l115 1 145 59 c128 52 145 62 148 84 2 19 10 26 35 30 18 3 248
9 512 13 264 4 476 9 470 10 -5 2 -231 12 -502 23 -271 11 -497 22 -502 26 -7
4 -11 57 -11 138 l0 132 -155 63 -155 62 -428 0 -428 0 -247 531 c-240 515
-247 532 -247 592 1 60 2 64 49 114 47 50 56 55 350 173 222 91 301 127 301
139 0 9 -71 124 -158 255 l-158 239 -307 108 c-258 90 -317 115 -370 153 l-65
46 -121 0 -121 0 0 25 c0 14 6 25 13 25 8 0 24 11 37 25 12 13 38 29 56 35
l34 12 0 78 0 79 -40 32 -40 32 0 142 c0 96 -4 145 -12 153 -7 7 -39 12 -75
12 l-63 0 0 350 0 350 418 0 c229 0 431 4 448 9 17 5 862 12 1878 16 1016 4
1845 9 1843 11 -1 2 -835 8 -1851 14 -1794 11 -1849 12 -1880 31 -29 18 -54
19 -419 19 l-388 0 32 40 32 40 196 0 c180 0 205 3 303 28 l107 27 50 72 c32
45 51 83 51 100 0 15 -22 142 -48 280 l-49 253 -79 74 -79 74 -130 26 c-106
21 -158 26 -282 26 l-153 0 0 180 0 180 -60 0 -60 0 0 180 0 180 58 0 57 0 69
120 69 121 238 174 237 175 369 0 369 0 107 101 107 101 0 248 0 248 106 77
c58 42 144 108 190 148 83 70 84 71 84 118 l0 47 65 27 64 28 3 125 3 125 140
87 140 87 3 124 2 124 -145 90 c-127 78 -145 93 -145 116 0 25 3 26 66 32 37
4 67 8 68 9 1 2 115 231 254 511 l252 507 0 400 0 400 525 0 525 0 0 60 c0 33
2 60 4 60 26 0 56 -23 56 -43 0 -16 116 -175 354 -484 l353 -459 243 -424
c134 -234 245 -427 246 -429 2 -2 654 262 1448 588 l1444 592 1348 49 1347 50
46 29 c25 15 262 170 526 343 264 173 486 318 494 322 9 6 107 -85 346 -324
l332 -332 144 30 143 30 88 -44 c48 -24 96 -44 105 -44 10 0 46 -16 81 -34 45
-25 69 -32 87 -28 14 4 21 11 17 18 -4 6 -68 43 -142 82 -112 59 -130 72 -110
76 64 16 836 176 845 176 6 0 81 -85 168 -190 91 -111 164 -190 175 -190 10
-1 53 -47 102 -110 78 -100 88 -109 119 -110 32 0 33 1 19 18 -123 140 -487
596 -481 602 7 6 1546 331 1565 330 10 0 116 191 132 237 l13 38 279 -1 c153
-1 479 -5 724 -9 l445 -8 208 -271 c114 -150 220 -287 235 -305 l27 -33 1150
101 c633 56 1159 104 1170 106 13 3 58 66 134 188 l114 184 676 7 c955 9 1429
17 1406 26 -11 4 -353 10 -761 13 -620 6 -747 9 -776 22 -30 12 -76 13 -272 8
l-237 -6 3 43 3 43 740 105 c704 100 742 107 786 134 l46 28 519 0 520 0 216
-140 217 -140 238 -6 c212 -5 241 -8 265 -25 15 -10 39 -19 52 -19 14 0 631
63 1371 140 l1346 141 279 110 278 110 7 37 c3 21 10 43 14 51 7 10 108 18
440 35 l432 22 49 49 c28 27 50 56 50 65 0 9 -22 38 -50 65 l-50 49 -431 22
c-334 17 -433 25 -440 35 -4 7 -11 30 -14 51 l-7 37 -278 110 -278 110 -1346
141 c-740 77 -1357 140 -1372 140 -14 0 -38 -8 -52 -19 -24 -16 -56 -19 -265
-25 l-239 -6 -216 -140 -217 -140 -519 0 -519 0 -46 29 c-44 27 -74 32 -771
130 -399 57 -733 105 -742 107 -14 4 -18 16 -18 46 l0 41 235 -6 c194 -5 241
-4 270 9 29 12 155 15 767 20 403 3 747 9 763 13 36 9 -447 19 -1386 27 l-686
7 -114 184 c-76 122 -121 185 -134 188 -11 2 -537 50 -1170 106 l-1150 101
-27 -33 c-15 -18 -121 -155 -235 -305 l-208 -271 -455 -8 c-250 -4 -576 -8
-724 -9 l-269 -1 -13 38 c-7 20 -38 81 -68 135 l-55 98 -773 162 c-425 89
-778 162 -785 162 -6 0 -14 4 -18 9 -4 7 364 467 483 604 14 16 13 17 -19 17
-31 -1 -41 -10 -119 -110 -49 -63 -92 -109 -102 -110 -11 0 -84 -79 -175 -190
-87 -105 -162 -190 -168 -190 -9 0 -772 159 -845 176 -20 5 -4 16 105 74 157
83 168 91 132 101 -20 5 -42 -1 -89 -27 -35 -18 -71 -34 -81 -34 -9 0 -57 -20
-105 -44 l-88 -44 -143 30 -144 30 -332 -332 -333 -333 -114 74 c-62 40 -297
194 -522 341 -225 148 -417 273 -427 278 -10 6 -620 32 -1364 60 l-1347 49
-1444 592 c-794 326 -1446 590 -1447 588 -2 -2 -113 -195 -247 -429 l-243
-424 -353 -459 c-219 -284 -354 -468 -354 -482 0 -18 -33 -45 -55 -45 -3 0 -5
27 -5 60 l0 60 -525 0 -525 0 0 400 0 400 -248 497 c-137 274 -251 504 -253
511 -2 7 -31 15 -72 19 -64 6 -67 7 -67 32 0 23 18 37 145 115 l146 90 -3 124
-3 125 -140 87 -140 87 -3 125 -3 126 -64 27 -65 28 0 47 c0 46 -1 47 -82 116
-46 38 -131 105 -190 149 l-108 79 0 247 0 247 -107 101 -107 101 -369 0 -369
0 -237 175 -238 174 -69 121 -69 120 -57 0 -58 0 0 180 0 180 60 0 60 0 0 180
0 180 153 0 c124 0 176 5 282 26 l130 26 79 74 79 74 49 253 c26 138 48 265
48 280 0 17 -19 55 -51 100 l-50 72 -107 27 c-98 25 -123 28 -303 28 l-196 0
-32 40 -32 40 388 0 c365 0 390 1 420 19 30 19 83 20 1805 30 975 6 1814 12
1863 13 50 1 -756 8 -1790 15 -1034 8 -2072 16 -2307 19 l-428 4 0 350 0 350
63 0 c36 0 68 5 75 12 8 8 12 57 12 153 l0 142 40 32 40 32 0 79 0 78 -34 12
c-18 6 -44 22 -56 35 -13 14 -29 25 -37 25 -7 0 -13 11 -13 25 l0 25 121 0
121 0 65 46 c53 38 112 63 370 153 l306 108 158 239 c87 131 159 246 159 255
0 12 -79 49 -301 139 -294 118 -303 123 -350 173 -47 50 -48 54 -49 114 0 60
7 77 247 592 l246 531 429 0 428 0 155 62 155 63 0 132 c0 83 4 134 11 138 6
4 229 16 497 26 268 10 496 20 507 22 11 1 -198 6 -465 10 -267 5 -499 11
-517 14 -25 4 -33 11 -35 30 -3 21 -21 32 -148 84 l-145 59 -115 1 c-63 0
-109 3 -102 6 8 3 12 26 12 64 l0 59 -167 111 c-136 91 -194 123 -309 171
l-142 58 -571 0 c-314 0 -571 1 -571 3 0 2 36 115 80 252 85 264 93 305 61
305 -11 0 -26 -6 -34 -14z"/>
</g>
</svg>
