<?xml version="1.0" standalone="no"?>
<!DOCTYPE svg PUBLIC "-//W3C//DTD SVG 20010904//EN"
 "http://www.w3.org/TR/2001/REC-SVG-20010904/DTD/svg10.dtd">
<svg version="1.0" xmlns="http://www.w3.org/2000/svg"
   viewBox="0 0 1392.000000 4463.000000"
 preserveAspectRatio="xMidYMid meet">
<metadata>
Created by potrace 1.16, written by Peter Selinger 2001-2019
</metadata>
<g transform="translate(0.000000,4463.000000) scale(0.100000,-0.100000)"
fill="#000000" stroke="none">
<path d="M5276 44593 c-3 -21 -6 -177 -6 -346 l0 -308 -135 -317 -135 -317
-317 -316 -318 -315 -542 -330 -542 -329 -1 -484 0 -484 -342 7 c-189 4 -380
9 -425 12 l-83 6 0 -106 c0 -94 -2 -106 -17 -106 -10 0 -263 -32 -563 -70
-300 -39 -548 -70 -552 -70 -5 0 -8 -259 -8 -575 l0 -575 23 0 c12 0 263 -18
557 -40 294 -22 541 -40 548 -40 8 0 12 -17 12 -54 l0 -53 -477 -118 c-263
-64 -518 -127 -568 -139 l-90 -22 -3 -1100 -2 -1099 232 -32 c128 -18 385 -54
570 -79 l338 -47 0 -399 0 -398 204 7 204 6 40 -29 40 -29 4 -620 c3 -579 2
-645 -22 -1002 -14 -210 -28 -384 -30 -386 -3 -3 -322 -19 -710 -36 l-705 -31
-450 -55 c-247 -30 -455 -55 -461 -55 -5 0 -23 -44 -38 -97 -16 -54 -32 -103
-37 -109 -4 -5 -112 -53 -238 -105 l-231 -94 3 -374 2 -373 234 -87 234 -86
28 -84 c16 -46 31 -86 34 -90 3 -3 27 -8 53 -11 54 -6 55 -7 26 -111 l-18 -67
64 -208 65 -209 150 -249 150 -249 649 -318 649 -318 372 -478 371 -478 122
-470 c67 -258 160 -630 207 -825 l86 -355 64 -945 c36 -519 65 -959 65 -977
l0 -33 -71 0 c-39 0 -140 -9 -225 -20 -85 -12 -159 -18 -164 -15 -6 3 -10 22
-10 42 l0 36 -142 -7 c-79 -3 -199 -9 -268 -13 l-125 -6 -125 -139 c-100 -112
-125 -145 -123 -166 1 -15 5 -66 8 -113 l6 -85 66 8 c58 8 85 6 72 -6 -4 -4
-1229 -216 -1248 -216 -8 0 -11 -210 -11 -738 l0 -738 618 -58 c339 -32 619
-60 621 -62 2 -2 -20 -4 -49 -4 l-53 0 7 -77 c3 -42 6 -117 6 -167 l0 -91 102
-91 c57 -50 120 -105 140 -123 l37 -32 218 21 c208 20 232 26 233 55 0 36 42
-84 223 -645 113 -349 286 -914 385 -1255 l180 -620 91 -685 90 -685 21 -582
c11 -320 20 -613 20 -652 l0 -71 126 0 c111 0 125 -2 120 -16 -3 -9 -6 -58 -6
-110 l0 -94 -310 0 -310 0 0 -365 0 -365 305 0 305 0 0 -115 0 -115 -305 0
-305 0 0 -365 0 -365 305 0 305 0 0 -135 0 -135 -305 0 -305 0 0 -365 0 -365
305 0 305 0 0 -176 0 -176 -46 -64 c-25 -35 -49 -64 -53 -64 -4 0 -14 11 -21
25 l-13 25 -326 0 -326 -1 -170 -130 c-93 -71 -176 -136 -183 -143 -11 -11
-12 -33 -7 -98 4 -47 10 -90 14 -96 4 -7 45 -7 134 1 115 9 150 7 135 -8 -3
-3 -182 -40 -397 -83 l-391 -76 0 -507 0 -508 43 -6 c23 -4 191 -28 372 -54
l330 -48 -146 5 -146 5 4 -99 c2 -54 6 -131 9 -170 l5 -71 215 -121 215 -122
302 26 c166 14 313 27 326 30 13 3 25 14 28 24 3 11 7 20 8 20 2 0 92 -31 202
-69 l198 -69 290 44 c160 24 296 44 303 44 9 0 12 -459 12 -2263 l0 -2262 80
-1110 c44 -611 102 -1438 130 -1840 52 -748 98 -1362 146 -1934 l28 -324 126
-391 c70 -215 125 -393 124 -395 -4 -4 -1358 48 -1402 55 -22 3 -32 10 -32 22
0 15 -26 21 -187 43 l-188 26 -150 -119 -150 -120 -7 -51 c-3 -29 -6 -73 -7
-99 l-1 -48 45 0 c41 0 45 -2 45 -25 0 -17 -7 -26 -22 -30 -30 -6 -744 -115
-758 -115 -7 0 -10 -126 -10 -389 l0 -390 53 -5 c28 -3 187 -13 352 -22 280
-14 367 -21 286 -23 -30 -1 -33 -4 -27 -23 3 -13 6 -69 6 -124 l0 -102 136
-121 c87 -77 144 -121 158 -120 11 0 118 15 236 33 192 29 215 34 213 51 -1
17 44 18 1475 11 l1477 -8 520 58 520 57 270 216 271 216 63 168 62 168 -62
162 -62 162 -270 185 -271 185 -290 51 c-160 28 -290 55 -289 60 0 5 55 187
121 404 l120 395 11 270 c6 149 14 320 18 382 l6 111 -47 7 -46 7 0 684 0 684
-55 0 -55 0 0 130 0 130 -50 0 -50 0 0 735 0 735 25 0 25 0 0 410 0 410 -30 0
-30 0 0 175 0 175 30 0 30 0 0 154 0 153 68 6 c37 4 110 9 162 12 52 4 131 15
175 27 l80 20 107 2089 c58 1150 108 2092 111 2095 2 3 122 12 266 20 l262 14
327 149 c246 112 433 207 757 384 l430 236 71 121 c66 113 74 131 99 249 l28
127 -31 117 c-30 114 -33 121 -122 245 l-91 127 -412 225 c-331 181 -475 253
-735 369 l-324 143 -340 43 c-187 24 -341 45 -343 47 -3 2 2 205 10 451 l15
446 94 342 c61 220 101 349 114 362 11 12 236 275 501 585 l481 563 0 190 0
189 397 0 396 0 -6 2610 -7 2610 48 0 c26 -1 104 -5 174 -9 126 -9 128 -9 655
68 l529 77 263 134 263 135 142 225 142 225 38 249 38 248 -38 251 -39 250
-140 221 -141 221 -265 136 -265 135 -554 88 c-305 48 -566 90 -579 93 l-23 6
5 976 c6 950 7 1002 50 1964 30 687 47 991 55 996 6 4 200 31 429 59 384 49
447 59 773 132 341 77 365 84 613 177 l257 97 1 211 0 210 392 342 392 342
107 313 108 313 -108 307 -108 307 -362 323 -362 323 0 253 c0 138 -2 252 -4
252 -1 0 -135 48 -297 106 l-294 105 -325 60 c-179 33 -532 94 -785 135 -407
66 -480 76 -630 80 -93 3 -189 7 -212 10 -39 5 -42 7 -48 44 -7 39 -8 40 -73
59 -284 84 -430 122 -481 127 -32 4 -63 9 -69 13 -6 4 -11 201 -14 503 l-5
497 118 91 c109 83 138 99 346 192 126 56 231 106 234 111 4 5 17 58 29 118
13 60 28 113 34 118 6 5 112 37 236 71 l225 61 403 227 404 226 203 257 203
257 37 628 36 628 -37 626 -36 625 -203 255 -202 255 -414 247 -414 246 -648
110 c-357 61 -652 114 -655 117 -4 4 -14 223 -24 488 -13 376 -17 775 -17
1815 l-1 1332 -2159 0 -2158 0 -7 -37z m3714 -15805 c0 -882 -3 -1075 -30
-1883 -16 -495 -30 -922 -30 -950 l0 -50 -1635 20 c-899 12 -1637 24 -1641 28
-4 4 -45 431 -91 949 l-84 943 21 405 22 405 90 435 c49 239 105 486 125 549
l36 114 511 -7 c711 -9 1318 -7 1881 8 264 7 558 14 653 14 l172 2 0 -982z
m-1350 -21023 l0 -145 30 0 30 0 0 -175 0 -175 -35 0 -35 0 0 -410 0 -410 30
0 30 0 0 -735 0 -735 -50 0 -50 0 0 -130 0 -130 -40 0 -40 0 0 150 0 150 -25
0 -25 0 0 100 0 100 30 0 30 0 0 640 0 640 -35 0 -35 0 0 363 1 362 69 50 69
50 1 286 c0 157 3 289 7 292 3 4 15 7 25 7 17 0 18 -11 18 -145z m-612 -490
l67 -51 3 -362 2 -362 -35 0 -35 0 0 -640 0 -640 24 0 c19 0 24 -6 30 -37 3
-21 6 -66 6 -100 0 -61 -1 -63 -25 -63 l-25 0 0 -150 0 -150 -94 0 -93 0 -6
68 c-4 37 -14 231 -23 432 -15 356 -15 385 9 1208 l24 843 49 72 49 71 3 -44
c4 -42 8 -48 70 -95z"/>
</g>
</svg>
