<?xml version="1.0" standalone="no"?>
<!DOCTYPE svg PUBLIC "-//W3C//DTD SVG 20010904//EN"
 "http://www.w3.org/TR/2001/REC-SVG-20010904/DTD/svg10.dtd">
<svg version="1.0" xmlns="http://www.w3.org/2000/svg"
   viewBox="0 0 4544.000000 3713.000000"
 preserveAspectRatio="xMidYMid meet">
<metadata>
Created by potrace 1.16, written by Peter Selinger 2001-2019
</metadata>
<g transform="translate(0.000000,3713.000000) scale(0.100000,-0.100000)"
fill="#000000" stroke="none">
<path d="M30555 37089 l-460 -38 -511 -125 -511 -125 -356 -206 -355 -207 -90
-206 -91 -207 -7 -327 -7 -328 -104 0 -104 0 -100 -72 -99 -72 0 -422 0 -421
99 -77 100 -76 82 0 82 0 -6 -212 c-4 -116 -7 -256 -7 -311 l0 -99 -116 7
-116 8 -182 -181 -181 -181 -445 -211 c-245 -115 -451 -218 -458 -228 -84
-111 -586 -840 -592 -860 -5 -15 -75 -442 -157 -949 l-148 -922 -323 -62 -323
-63 -167 -118 -167 -119 -6 -72 c-4 -40 -7 -178 -8 -307 -3 -271 -15 -597 -23
-605 -3 -4 -1512 -116 -3353 -250 -1841 -134 -3348 -245 -3349 -247 -2 -2 -22
-97 -44 -213 -38 -188 -42 -225 -42 -355 l0 -145 149 -123 c82 -68 154 -129
160 -136 9 -11 131 -402 131 -419 0 -25 -166 -6 -1280 150 l-1195 167 -1295
-322 -1295 -321 -1005 -166 c-553 -91 -1015 -168 -1027 -170 l-23 -5 0 984 0
985 -128 212 -128 212 -154 70 c-186 85 -1520 838 -4377 2469 l-2032 1160
-2197 49 c-1208 27 -2198 48 -2201 46 -5 -6 -4 -22069 2 -22075 3 -3 992 16
2197 43 l2193 48 2090 1192 c2822 1610 4139 2354 4325 2443 l155 74 125 204
125 204 5 988 5 988 1034 -168 1035 -168 1286 -324 1286 -323 1165 168 c1095
158 1309 184 1309 158 0 -5 -28 -101 -61 -213 l-61 -203 -159 -132 -159 -131
0 -142 c-1 -128 4 -165 41 -358 l42 -215 2661 -194 c1464 -106 2687 -195 2719
-198 l59 -6 -7 -191 c-6 -182 -4 -216 44 -706 28 -283 51 -525 51 -537 0 -15
143 -181 454 -525 l454 -503 1290 -559 1290 -558 1023 -799 1023 -799 253
-723 c139 -397 253 -727 253 -734 0 -6 -315 -262 -700 -569 l-700 -557 0
-2006 1 -2006 456 -465 456 -465 511 -246 511 -246 131 -184 130 -184 300
-127 299 -128 461 0 461 0 214 -81 c118 -44 221 -81 229 -81 8 -1 119 36 246
80 l231 82 889 0 c851 0 1299 9 1559 30 108 8 137 15 273 64 83 30 195 69 249
85 l98 31 796 -31 796 -32 424 277 c386 252 431 285 504 362 l80 84 83 0 82 0
255 206 c140 114 255 210 255 214 0 4 -38 80 -85 169 -47 89 -83 166 -80 171
3 5 121 93 263 196 246 179 267 197 495 423 l237 236 0 1571 0 1571 -242 235
c-233 225 -253 243 -488 407 -135 95 -246 176 -248 181 -2 5 31 72 73 149 42
77 74 145 71 149 -3 5 -119 101 -258 214 -366 297 -410 319 -1173 619 l-590
232 -270 11 c-282 12 -287 12 -363 64 -10 7 13 441 113 2168 119 2055 253
4235 260 4243 13 13 464 102 794 156 l394 65 1356 450 1356 450 1092 1049
1091 1049 49 6 c26 3 154 15 283 27 129 12 240 24 245 29 6 4 197 160 425 347
l415 340 375 429 c444 507 484 557 510 641 10 34 60 134 109 223 l91 161 0
1348 0 1348 -95 171 c-52 94 -100 192 -106 216 -19 77 -104 184 -502 634
l-382 434 -423 346 -423 347 -337 32 c-185 17 -340 32 -343 32 -3 1 -443 340
-978 754 l-973 753 -444 285 -444 284 0 58 0 57 -89 0 -90 0 -503 322 -503
322 -695 633 -695 634 -210 -3 -210 -2 -88 85 -88 84 -58 1278 c-32 702 -60
1279 -62 1281 -2 2 -95 69 -207 149 l-202 145 -311 384 c-171 211 -323 395
-338 410 -15 17 -233 128 -541 278 l-515 251 -135 136 -135 137 -87 -3 -87 -3
-5 34 c-3 18 -12 143 -21 278 -8 135 -18 271 -21 303 l-6 57 71 0 c68 0 77 3
211 70 l140 70 0 434 0 433 -140 72 -140 72 -70 -7 -70 -7 0 39 c-1 22 -7 172
-14 334 l-13 295 -89 201 -89 202 -360 207 -360 207 -505 124 -505 125 -490
39 c-269 22 -526 39 -570 39 -44 -1 -287 -19 -540 -40z"/>
</g>
</svg>
