<?xml version="1.0" standalone="no"?>
<!DOCTYPE svg PUBLIC "-//W3C//DTD SVG 20010904//EN"
 "http://www.w3.org/TR/2001/REC-SVG-20010904/DTD/svg10.dtd">
<svg version="1.0" xmlns="http://www.w3.org/2000/svg"
   viewBox="0 0 4017.000000 3670.000000"
 preserveAspectRatio="xMidYMid meet">
<metadata>
Created by potrace 1.16, written by Peter Selinger 2001-2019
</metadata>
<g transform="translate(0.000000,3670.000000) scale(0.100000,-0.100000)"
fill="#000000" stroke="none">
<path d="M11355 36693 c-35 -9 -42 -21 -71 -125 -24 -86 -33 -104 -56 -117
-25 -14 -37 -44 -111 -265 l-83 -249 -45 -13 c-31 -10 -115 -14 -291 -14
l-247 0 -271 -132 -270 -131 0 -39 c0 -36 9 -50 93 -144 l92 -104 344 -113
344 -112 -115 -10 -116 -10 -772 -976 -771 -977 -116 -18 -116 -18 -111 -227
-111 -228 -67 0 -68 -1 -485 -337 -485 -336 0 -307 c0 -169 3 -389 7 -488 l6
-182 169 0 169 0 140 -106 140 -105 -33 -42 c-19 -23 -82 -103 -141 -179
l-107 -136 0 -140 0 -141 260 -127 260 -127 0 -419 0 -418 -595 0 c-588 0
-595 0 -595 20 0 18 -7 20 -70 20 l-70 0 0 -755 0 -755 -49 0 -48 0 -7 -61
c-3 -34 -6 -117 -6 -184 0 -67 3 -150 6 -184 l7 -61 48 0 49 0 0 -55 0 -55 70
0 c56 0 70 3 70 15 0 13 34 15 245 15 l245 0 0 -235 0 -235 580 0 580 0 0 -40
0 -40 -63 0 -62 0 -85 -171 c-77 -154 -94 -180 -173 -267 l-87 -97 -217 -5
-217 -5 -593 -670 -593 -670 0 -72 c0 -70 -1 -73 -23 -73 -13 0 -34 11 -47 25
l-23 25 -417 0 -417 0 -23 -25 -23 -25 -522 0 -521 0 -122 -102 -121 -103 6
-107 6 -108 -386 0 -387 0 0 -38 0 -39 -648 -7 c-356 -3 -671 -9 -699 -12
l-53 -7 0 -683 0 -683 53 -5 c43 -4 1230 -37 1320 -36 l27 0 0 -168 0 -169
457 -6 c252 -4 631 -7 843 -7 l385 0 87 -268 87 -267 626 -209 c344 -115 627
-212 629 -215 2 -3 -43 -149 -100 -323 l-105 -318 -594 0 -595 0 0 -100 0
-100 -107 0 -108 0 -111 -51 -111 -52 -55 -91 -54 -91 -257 -3 -257 -2 0 -250
0 -250 -280 0 -280 0 0 -75 0 -75 -1080 0 -1080 0 0 -250 0 -250 -687 -1 -688
0 -115 -53 -115 -52 0 -484 0 -484 115 -52 115 -53 688 0 687 -1 0 -250 0
-250 1080 0 1080 0 0 -75 0 -75 280 0 280 0 0 -250 0 -250 257 -2 257 -3 54
-91 55 -91 112 -51 112 -52 107 0 106 0 0 -100 0 -100 595 0 594 0 105 -317
c57 -175 102 -320 101 -324 -2 -3 -285 -99 -630 -215 l-626 -209 -87 -267 -87
-268 -842 0 -843 0 0 -175 0 -175 -27 0 c-87 1 -1295 -32 -1330 -36 l-43 -5 0
-683 0 -683 53 -7 c28 -3 343 -9 699 -12 l648 -7 0 -39 0 -38 386 0 387 0 -6
-107 -6 -108 121 -103 122 -102 521 0 522 0 23 -25 23 -25 417 0 417 0 23 25
c13 14 34 25 47 25 22 0 23 -3 23 -72 l0 -73 593 -670 593 -670 217 -5 218 -5
87 -97 c78 -86 96 -115 172 -267 l85 -171 62 0 63 0 0 -40 0 -40 -580 0 -580
0 0 -235 0 -235 -245 0 c-211 0 -245 2 -245 15 0 12 -14 15 -70 15 l-70 0 0
-55 0 -55 -49 0 -48 0 -7 -61 c-8 -80 -8 -288 0 -368 l7 -61 48 0 49 0 0 -755
0 -755 70 0 c63 0 70 2 70 20 0 20 7 20 595 20 l595 0 0 -418 0 -419 -260
-127 -260 -127 0 -140 0 -141 107 -136 c59 -76 122 -156 141 -179 l33 -42
-140 -105 -140 -106 -169 0 -169 0 -6 -182 c-4 -99 -7 -319 -7 -488 l0 -306
485 -337 485 -337 68 -1 67 0 111 -228 111 -227 116 -18 116 -18 771 -977 772
-976 115 -9 115 -9 -344 -113 -343 -114 -92 -104 c-84 -94 -93 -108 -93 -144
l0 -39 270 -131 271 -132 252 0 c188 0 262 -4 292 -14 l39 -14 83 -248 c74
-221 86 -251 111 -265 23 -13 32 -31 56 -117 16 -56 33 -106 40 -111 6 -5 26
-12 44 -16 l32 -7 -1 49 c0 33 -36 156 -112 393 l-113 345 811 5 810 5 199 83
c188 79 210 91 437 243 l239 159 0 75 c0 60 -3 76 -18 84 -12 7 25 10 129 11
l146 0 219 89 c218 88 219 89 224 122 4 27 11 34 35 40 26 6 1113 30 1344 29
217 0 18 11 -619 35 -382 14 -708 29 -725 33 l-30 8 -5 189 -5 190 -215 87
-215 88 -609 2 -609 3 -343 738 -344 738 0 101 0 101 63 67 62 68 428 173
c383 155 427 175 427 195 0 13 -101 175 -224 361 l-224 339 -432 152 c-429
150 -433 152 -523 217 l-90 65 -169 0 -168 0 0 35 c0 23 5 35 14 35 7 0 30 16
51 35 21 18 60 42 86 51 l49 18 0 108 0 107 -60 48 -60 48 0 196 c0 191 0 196
-23 217 -20 19 -35 22 -110 22 l-87 0 0 490 0 490 581 0 c468 0 592 3 638 14
47 12 491 16 2738 27 1476 7 2681 14 2679 16 -2 2 -1213 10 -2691 19 l-2687
15 -36 24 -37 25 -558 0 -559 0 52 60 52 60 266 0 267 0 157 37 157 36 76 108
c41 59 75 117 75 129 0 12 -32 188 -71 392 l-70 370 -62 57 c-34 31 -86 79
-115 105 l-52 49 -167 33 c-161 33 -175 34 -400 34 l-233 0 0 255 0 255 -80 0
-80 0 0 255 0 255 79 0 79 0 101 172 100 173 338 247 338 248 520 0 520 0 148
141 147 141 0 348 0 347 158 116 c86 64 207 158 267 209 l110 94 3 65 3 66 89
43 90 42 0 172 0 172 203 125 202 125 3 175 2 175 -202 125 -203 125 -3 152
-3 152 43 0 c24 0 66 3 94 6 l52 7 361 727 361 727 0 452 0 451 735 0 735 0 0
86 c0 84 0 85 23 78 63 -19 67 -23 67 -56 0 -28 74 -130 500 -683 l500 -650
337 -588 c185 -324 342 -596 348 -604 10 -14 284 96 2051 820 l2039 835 2169
222 2169 222 234 133 233 134 78 -121 c115 -179 85 -161 236 -137 107 17 131
19 141 7 8 -7 59 -80 114 -163 62 -91 111 -153 126 -160 14 -6 48 -46 79 -95
47 -75 57 -85 81 -83 15 1 30 5 33 7 3 3 -72 122 -166 263 -95 142 -169 259
-164 260 14 5 1296 202 1298 200 1 -1 68 -118 150 -260 100 -173 157 -262 173
-270 16 -8 52 -62 101 -152 73 -132 80 -140 110 -143 24 -3 31 0 28 10 -3 7
-109 195 -236 418 -128 222 -228 407 -224 411 4 3 513 84 1132 179 619 95
1137 175 1152 177 23 5 39 26 102 142 41 75 92 182 112 238 l38 102 49 6 c36
5 53 3 61 -6 7 -8 176 -228 376 -489 199 -261 366 -479 370 -483 6 -7 3530
279 3536 286 1 1 88 140 193 310 l191 307 0 64 0 63 1047 148 1047 149 103 65
102 66 1 66 0 67 43 6 c23 3 364 42 757 86 393 44 730 83 748 86 l32 5 0 239
0 239 -32 6 c-28 4 -1530 175 -1543 175 -3 0 -5 30 -5 68 l-1 67 -102 66 -103
65 -1047 149 -1047 148 0 63 0 64 -191 307 c-105 170 -192 309 -193 310 -6 7
-3530 293 -3536 286 -4 -4 -171 -222 -370 -483 -200 -261 -369 -481 -376 -489
-8 -9 -25 -11 -61 -6 l-49 6 -38 102 c-20 56 -71 163 -112 238 -63 116 -79
137 -102 142 -15 3 -533 83 -1152 177 -619 95 -1128 176 -1132 179 -4 4 97
189 223 411 127 223 234 411 237 418 3 10 -4 13 -28 10 -30 -3 -37 -11 -110
-143 -49 -90 -85 -144 -101 -152 -16 -8 -73 -98 -174 -272 -141 -245 -152
-261 -175 -256 -14 3 -306 48 -650 101 -344 52 -626 97 -627 98 -1 1 74 117
167 256 94 140 170 261 170 268 0 9 -11 12 -31 10 -28 -3 -39 -14 -86 -88 -30
-49 -64 -89 -78 -95 -15 -7 -65 -70 -126 -160 -56 -83 -107 -156 -114 -163
-10 -12 -30 -11 -116 2 -57 9 -116 19 -131 22 -29 6 -21 15 -174 -223 l-34
-52 -234 134 -233 134 -2169 221 -2169 222 -2039 835 c-1762 722 -2041 834
-2051 820 -6 -8 -162 -280 -348 -604 l-337 -588 -500 -650 c-426 -553 -500
-655 -500 -683 0 -33 -4 -37 -67 -56 -23 -7 -23 -6 -23 78 l0 86 -735 0 -735
0 0 452 0 451 -361 728 -362 728 -61 5 c-34 3 -74 7 -91 8 l-30 3 0 149 0 148
203 125 202 125 0 174 0 173 -205 127 -205 127 0 173 0 173 -90 42 -89 42 -3
65 -3 66 -110 94 c-60 51 -181 145 -267 209 l-158 116 0 347 0 348 -147 141
-148 141 -520 0 -520 0 -338 248 -338 248 -100 172 -101 172 -79 0 -79 0 0
255 0 255 80 0 80 0 0 255 0 255 233 0 c225 0 239 1 400 34 l167 33 52 49 c29
26 81 74 115 105 l62 57 70 370 c39 204 71 380 71 392 0 12 -34 70 -75 129
l-75 107 -152 37 -153 37 -272 0 -271 0 -52 60 -52 60 559 0 558 0 37 25 36
24 2703 16 c1486 8 2704 16 2706 18 1 2 -1211 9 -2695 16 -2258 11 -2706 15
-2753 27 -46 11 -171 14 -638 14 l-581 0 0 490 0 490 88 0 c80 0 91 2 110 23
21 22 22 32 22 219 l0 195 60 46 60 47 0 109 0 109 -51 17 c-30 10 -63 31 -81
51 -17 19 -39 34 -50 34 -14 0 -18 8 -18 35 l0 35 168 0 168 0 95 68 c95 67
97 67 523 217 l428 149 224 339 c123 186 224 348 224 361 0 19 -45 40 -427
195 l-428 173 -62 68 -63 67 0 101 0 101 343 738 344 738 619 5 619 5 205 85
205 85 5 189 5 189 25 8 c14 4 340 20 725 34 385 15 702 28 704 31 2 2 -31 4
-75 4 -231 -1 -1314 22 -1344 29 -30 6 -36 11 -40 40 l-5 34 -219 89 -220 88
-145 0 c-104 1 -141 4 -128 11 14 8 17 24 17 84 l0 75 -239 159 c-227 152
-249 164 -437 243 l-199 83 -810 5 -811 5 113 345 c75 233 112 360 112 393 1
48 -1 50 -44 40z"/>
</g>
</svg>
