<?xml version="1.0" standalone="no"?>
<!DOCTYPE svg PUBLIC "-//W3C//DTD SVG 20010904//EN"
 "http://www.w3.org/TR/2001/REC-SVG-20010904/DTD/svg10.dtd">
<svg version="1.0" xmlns="http://www.w3.org/2000/svg"
   viewBox="0 0 4742.000000 1881.000000"
 preserveAspectRatio="xMidYMid meet">
<metadata>
Created by potrace 1.16, written by Peter Selinger 2001-2019
</metadata>
<g transform="translate(0.000000,1881.000000) scale(0.100000,-0.100000)"
fill="#000000" stroke="none">
<path d="M10280 18674 l-515 -135 -97 11 c-102 11 -122 10 -732 -65 -110 -14
-203 -25 -208 -25 -4 0 -8 -121 -8 -268 l0 -268 308 -33 c169 -17 364 -41 433
-52 115 -18 134 -19 206 -6 l80 13 534 -137 534 -138 183 -1 182 0 0 -195 0
-195 -732 1 -733 0 -159 180 -159 179 -806 0 -806 0 -1077 -306 -1078 -307 0
-434 0 -433 320 0 320 0 -2 -387 -3 -388 -274 -70 -274 -71 -83 12 c-91 13
-90 13 -672 -57 l-272 -33 0 -268 c0 -149 4 -268 9 -268 28 0 663 -73 748 -86
81 -12 120 -13 187 -5 l84 10 271 -69 c149 -39 274 -70 276 -70 3 0 5 -479 5
-1065 l0 -1065 -22 0 c-12 0 -681 -59 -1487 -131 -1249 -111 -1484 -130 -1591
-126 l-125 5 -535 -138 -535 -138 -83 12 c-89 14 -62 16 -702 -62 l-225 -27
-3 -270 -2 -270 327 -34 c181 -18 372 -41 426 -50 84 -15 109 -16 180 -5 l82
12 536 -139 536 -139 122 0 121 0 0 -775 0 -775 -265 0 -265 0 0 565 c0 509
-2 568 -17 600 l-17 35 -808 0 -808 0 -555 -277 -555 -278 0 -2147 0 -2146
555 -281 554 -281 809 0 808 0 17 35 c15 32 17 87 17 525 l0 490 78 0 c42 0
161 3 265 7 l187 6 0 -641 0 -642 -118 0 -118 0 -538 -139 -538 -140 -85 10
c-97 12 -156 8 -623 -50 l-305 -37 -3 -270 -2 -270 302 -32 c167 -18 360 -42
429 -53 115 -18 134 -19 206 -6 l80 14 534 -139 534 -138 123 0 122 0 0 -60 0
-60 165 0 165 0 0 -419 0 -419 302 -296 301 -296 606 0 606 1 110 150 109 150
71 -71 70 -70 611 0 610 0 74 100 74 100 463 0 463 0 0 -30 c0 -26 5 -31 31
-37 24 -4 62 -40 161 -149 l131 -144 998 0 999 0 0 -140 0 -140 -183 0 -184 0
-12 -72 c-17 -99 -40 -191 -51 -202 -5 -5 -51 -16 -102 -25 l-93 -16 0 -85 0
-84 105 -23 c101 -23 118 -23 480 -20 292 3 385 7 420 18 l45 15 19 98 c22
115 16 146 -29 161 -49 16 -51 20 -64 112 -19 131 -13 123 -82 123 l-59 0 0
140 0 140 653 0 652 0 280 80 280 80 520 0 520 1 1075 307 1075 308 3 47 3 47
193 0 193 0 132 185 133 185 209 0 209 0 0 -142 0 -143 117 -100 c64 -55 127
-108 140 -118 21 -17 152 -21 1999 -67 1087 -27 1978 -51 1979 -52 2 -2 76
-145 165 -318 89 -173 163 -316 164 -317 3 -3 878 -35 880 -31 1 1 61 83 131
181 l129 177 347 0 346 0 113 -132 c62 -73 133 -154 157 -181 l44 -47 174 0
175 0 0 -115 0 -115 -183 0 -183 0 -18 -92 c-20 -109 -33 -158 -45 -177 -5 -8
-50 -21 -108 -30 l-98 -16 -3 -82 -3 -82 38 -10 c158 -41 197 -43 572 -38 418
5 445 9 456 63 6 34 6 34 63 34 54 0 1534 28 1747 33 55 1 -324 11 -843 21
l-943 20 6 40 c8 51 -8 75 -55 85 -39 8 -43 17 -60 144 l-12 87 -64 0 -64 0 0
115 0 115 531 0 531 0 194 57 194 56 33 -31 33 -32 794 0 793 0 1084 307 1083
308 0 408 0 407 655 0 655 0 2 -342 3 -342 740 -193 740 -192 508 -1 507 0 0
-255 0 -255 -362 0 -363 1 -252 -68 -253 -68 0 -162 0 -162 53 -15 c28 -9 141
-40 249 -71 l198 -55 400 0 400 0 0 -35 0 -35 -351 -2 -351 -3 427 -537 427
-538 109 0 109 0 0 273 0 274 -25 23 c-24 22 -25 29 -25 131 0 103 1 107 25
123 24 16 25 20 25 136 l0 120 -155 0 -155 0 0 35 0 35 323 0 322 0 240 65
c132 36 248 68 258 71 15 5 17 22 17 167 l0 162 -258 68 -257 67 -222 0 -223
0 0 255 0 255 1230 0 1230 0 0 -640 0 -640 275 0 275 0 0 -23 c0 -13 5 -28 12
-35 17 -17 1279 -17 1296 0 7 7 12 22 12 35 l0 23 175 0 c172 0 175 0 175 -21
0 -41 26 -48 168 -49 l132 0 0 -290 c0 -337 3 -351 69 -371 33 -10 49 -10 80
1 68 22 71 38 71 370 l0 290 130 0 130 0 0 -289 c0 -329 3 -345 66 -372 35
-14 44 -14 85 -1 44 14 47 17 58 64 7 31 11 154 11 324 l0 274 148 0 c132 0
151 2 165 18 10 10 17 26 17 35 0 15 18 17 178 17 l177 0 15 -33 15 -32 634
-3 c575 -2 636 -1 652 14 14 13 16 21 8 35 -9 18 -4 19 126 19 l135 0 0 435 0
435 257 0 256 0 118 60 117 60 267 0 267 0 86 -60 87 -60 608 0 607 0 0 58 0
59 755 13 c415 7 753 15 751 17 -4 4 -1237 32 -1418 33 l-88 0 0 80 0 80 275
0 275 0 0 45 0 45 312 2 312 3 53 65 c29 36 53 71 53 78 0 6 5 12 10 12 6 0
10 -30 10 -70 l0 -70 40 0 40 0 0 68 0 69 403 6 c221 4 672 10 1002 14 330 4
580 10 555 14 -25 3 -315 9 -645 13 -1064 11 -1315 17 -1315 33 0 9 -13 13
-40 13 -29 0 -40 -4 -40 -15 0 -8 -4 -15 -10 -15 -5 0 -10 23 -10 50 0 45 -5
57 -51 115 l-51 65 -314 0 -314 0 0 45 0 45 -275 0 -275 0 0 55 0 55 153 0
c281 -1 1262 22 1281 29 16 6 -1121 32 -1361 31 l-73 0 0 45 0 45 -606 0 -605
0 -91 -65 -91 -65 -260 0 -260 0 -123 65 -123 65 -255 0 -256 0 0 185 0 185
315 0 315 0 0 200 0 200 267 0 266 0 118 60 117 60 256 0 255 0 86 -60 86 -60
619 0 620 0 0 70 0 70 160 0 160 0 0 -75 0 -75 35 0 35 0 0 74 0 73 758 8
c416 4 917 10 1112 14 339 6 313 7 -555 19 -1153 16 -1315 20 -1315 38 0 9
-12 14 -35 14 -24 0 -35 -5 -35 -15 0 -13 -24 -15 -160 -15 l-160 0 0 58 0 59
287 6 c157 4 377 8 487 9 l201 1 -295 8 c-162 5 -382 12 -487 15 l-193 6 0
118 0 118 73 6 c39 3 254 9 477 13 l405 8 -240 6 c-132 4 -347 7 -477 8 l-238
1 0 99 0 99 278 6 c152 3 347 10 432 14 149 7 143 7 -175 13 -181 3 -376 7
-432 8 l-103 1 0 65 0 65 243 1 c133 1 348 4 477 8 l235 6 -415 8 c-228 4
-443 10 -477 13 l-63 6 0 84 0 84 -621 0 -620 0 -86 -60 -86 -60 -255 0 -255
0 -112 60 -112 60 -272 0 -271 0 0 180 0 180 -315 0 -315 0 0 395 0 395 -706
0 c-667 0 -705 1 -700 18 3 9 64 220 135 468 l131 452 0 696 0 696 140 0 140
0 141 165 142 165 76 1 76 0 85 100 c47 55 86 111 88 124 l3 25 285 0 c246 0
284 -2 284 -15 0 -13 -30 -15 -210 -15 l-210 0 0 -35 0 -35 210 0 c180 0 210
-2 210 -15 0 -11 11 -15 40 -15 28 0 40 4 40 14 0 19 148 23 1300 37 525 6
956 12 957 14 2 1 -491 7 -1095 14 -603 6 -1112 14 -1129 17 l-33 5 0 69 0 70
-40 0 -40 0 0 -40 0 -40 -285 0 -285 0 0 90 0 90 285 0 285 0 0 -35 c0 -32 2
-35 30 -35 l30 0 0 68 0 69 283 6 c155 4 685 12 1177 19 l895 13 -1174 15
c-908 12 -1175 18 -1179 28 -4 14 -62 16 -62 2 0 -6 -78 -10 -215 -10 l-215 0
0 -35 0 -35 215 0 c208 0 215 -1 215 -20 0 -20 -7 -20 -285 -20 l-285 0 0 24
c0 15 -31 62 -87 130 l-88 106 -80 0 -80 1 -138 165 -138 164 -120 0 -119 0 0
72 0 72 -62 64 c-55 55 -61 64 -45 73 9 6 29 20 44 33 l26 23 -9 171 -9 172
548 0 547 0 0 179 0 178 143 6 c78 4 564 14 1079 24 516 9 936 18 935 20 -4 3
-1912 43 -2059 43 l-98 0 0 180 0 180 158 0 c241 1 1933 37 1937 42 2 2 -424
12 -948 21 -524 10 -996 20 -1049 23 l-98 6 0 149 0 149 53 0 c66 0 2016 39
2117 42 41 2 -348 11 -865 21 -517 10 -1022 20 -1122 24 l-183 6 0 222 0 222
-395 1649 c-218 907 -399 1658 -404 1669 -7 18 -45 27 -282 73 -151 29 -277
52 -281 52 -5 0 -8 -805 -8 -1790 l0 -1790 -80 0 -80 0 0 2130 0 2130 -1305 0
-1305 0 0 405 0 405 143 1 c78 0 340 7 582 13 435 13 437 13 186 14 -140 1
-252 4 -250 6 2 2 394 9 871 16 478 8 866 15 863 18 -4 4 -1979 41 -2257 42
l-138 0 0 79 0 78 143 6 c78 4 297 10 487 13 359 7 439 22 124 23 -99 1 -310
4 -467 8 l-287 6 0 144 0 143 210 0 210 0 0 -105 0 -105 50 0 50 0 0 105 0
105 128 0 c139 0 2945 39 3082 43 47 1 -581 10 -1395 20 -814 9 -1555 20
-1647 23 -156 6 -168 8 -168 25 0 16 -8 19 -50 19 -43 0 -50 -3 -50 -20 0 -19
-7 -20 -210 -20 l-210 0 0 125 0 125 -1404 0 -1405 0 -438 -121 c-241 -67
-440 -123 -441 -124 -2 -2 -15 -85 -30 -184 l-25 -181 -924 -2 -925 -3 -163
-425 -163 -425 -435 -3 -435 -2 -6 -48 c-3 -26 -8 -237 -12 -469 l-6 -423
-1469 0 -1469 0 0 140 0 140 475 0 475 0 0 205 0 204 -136 118 -136 117 -1897
47 c-1043 27 -1929 48 -1968 49 l-73 0 0 195 0 195 245 0 245 0 0 383 0 383
1133 23 c622 13 1175 26 1227 30 53 3 -348 14 -915 24 -555 10 -1108 20 -1227
24 l-218 6 0 184 0 183 -537 0 -538 -1 -533 -138 -532 -138 -82 12 c-89 13
-83 14 -705 -61 l-233 -28 0 -268 c0 -147 2 -268 4 -268 29 0 729 -83 778 -92
48 -10 92 -11 155 -4 85 8 94 7 254 -34 l167 -42 -92 -129 -91 -128 -340 -1
-340 0 -159 180 -158 180 -812 0 -811 1 -1072 -307 -1073 -307 0 -399 0 -398
315 0 315 0 0 -140 0 -140 -1700 0 -1700 0 0 105 0 105 490 0 490 0 0 238 0
238 -137 118 c-76 64 -147 119 -158 121 -11 2 -279 25 -595 50 -415 33 -578
50 -585 59 -5 7 -81 153 -169 323 l-159 310 -218 6 c-121 4 -318 10 -438 14
l-219 6 -134 -181 -133 -181 -827 -1 -828 0 0 98 c0 53 3 141 7 195 l6 97 189
0 188 0 0 485 0 485 198 0 c221 0 2423 48 2428 53 3 2 -2482 48 -2583 47 l-43
0 0 85 0 85 -552 -1 -553 0 -515 -135z m6608 -5504 l302 0 0 -269 c0 -293 5
-327 55 -349 32 -15 47 -15 79 -1 49 23 56 64 56 354 l0 265 185 0 185 0 0
-274 c0 -170 4 -285 11 -304 14 -41 66 -60 110 -42 54 23 59 52 59 351 l0 269
305 0 305 0 0 -560 0 -560 -1705 0 -1705 0 0 567 0 566 728 -6 c400 -4 863 -7
1030 -7z m12120 3 l572 -6 0 -267 c0 -298 5 -327 59 -350 24 -9 37 -9 65 1 61
22 66 49 66 354 l0 265 184 0 184 0 -5 -260 c-5 -203 -3 -269 7 -301 29 -87
131 -92 164 -7 13 31 16 87 16 303 l0 265 295 0 295 0 0 -560 0 -560 -1755 0
-1755 0 0 233 c0 129 3 383 7 565 l6 332 512 0 c281 0 769 -3 1083 -7z"/>
</g>
</svg>
