<?xml version="1.0" standalone="no"?>
<!DOCTYPE svg PUBLIC "-//W3C//DTD SVG 20010904//EN"
 "http://www.w3.org/TR/2001/REC-SVG-20010904/DTD/svg10.dtd">
<svg version="1.0" xmlns="http://www.w3.org/2000/svg"
   viewBox="0 0 3519.000000 4050.000000"
 preserveAspectRatio="xMidYMid meet">
<metadata>
Created by potrace 1.16, written by Peter Selinger 2001-2019
</metadata>
<g transform="translate(0.000000,4050.000000) scale(0.100000,-0.100000)"
fill="#000000" stroke="none">
<path d="M10507 40472 c-15 -16 -619 -1085 -1341 -2376 l-1314 -2347 102 -269
101 -268 992 -817 c546 -450 991 -821 988 -824 -2 -4 -53 -27 -114 -51 l-111
-45 0 -251 0 -251 139 -57 138 -56 1997 0 1996 0 0 -115 c0 -111 1 -115 23
-120 12 -3 213 -34 446 -70 392 -60 437 -65 588 -65 l163 0 0 185 0 185 30 0
30 0 0 -187 c0 -104 -3 -205 -6 -225 l-7 -38 -291 0 -291 -1 -334 -599 -334
-600 -173 0 -174 0 0 111 0 111 -72 99 -71 99 -422 0 -421 0 -72 -97 -72 -97
0 -203 0 -203 -165 0 -165 0 0 -145 0 -145 -1129 0 -1128 0 -52 -55 -52 -55
-720 0 -719 0 0 -40 0 -40 -2860 0 -2860 0 0 -40 0 -40 373 0 c204 0 1432 -9
2727 -20 1295 -11 2415 -20 2488 -20 l132 0 0 -25 0 -25 725 0 c690 0 725 -1
725 -18 0 -10 19 -37 43 -60 l43 -42 1132 0 1132 0 0 -1270 0 -1270 -829 0
-828 0 -222 -317 -221 -318 0 -82 0 -83 -428 0 -428 0 -1344 -215 c-740 -118
-1355 -217 -1367 -220 -22 -5 -23 -10 -23 -115 l0 -110 -1041 0 -1042 0 -878
-445 -877 -445 -476 0 -476 0 0 -1460 0 -1460 483 -1 482 0 230 -83 230 -84 3
-126 3 -126 -797 0 -796 0 -578 -135 c-317 -74 -580 -135 -584 -135 -3 0 -6
-49 -6 -109 l0 -108 -52 -6 c-29 -3 -137 -14 -240 -23 l-188 -17 0 -127 0
-128 131 6 c110 4 131 3 127 -9 -3 -9 -29 -16 -79 -21 -41 -4 -98 -10 -126
-13 l-53 -6 0 -155 0 -154 48 0 c26 0 84 -3 130 -7 l82 -6 0 -37 0 -37 -53 -7
c-28 -3 -77 -6 -107 -6 -106 0 -100 10 -100 -170 l0 -157 46 -7 c26 -3 74 -6
108 -6 95 0 106 -6 106 -51 l0 -39 -130 0 -130 0 0 -159 0 -159 130 -12 c104
-10 130 -16 130 -28 0 -13 -17 -14 -130 -8 l-130 7 0 -128 0 -129 198 -18
c108 -9 216 -20 239 -23 l43 -6 0 -86 0 -87 567 -132 568 -133 813 1 812 0 0
-149 c0 -132 -2 -150 -17 -156 -10 -4 -116 -42 -236 -86 l-218 -79 -479 0
-480 0 0 -1460 0 -1460 476 0 477 0 878 -445 878 -445 1040 0 1041 0 0 -110
c0 -106 1 -110 23 -115 12 -2 628 -101 1369 -220 l1348 -215 1265 0 1265 0 0
-461 0 -460 272 -320 272 -319 518 0 518 0 0 -1260 0 -1260 343 0 342 0 95
-95 95 -95 237 0 238 0 0 -72 c0 -40 9 -363 20 -718 11 -355 20 -657 20 -672
l0 -28 220 0 220 0 0 -130 0 -130 -2694 0 -2693 0 -434 -168 -434 -169 0
-1083 0 -1083 435 -168 435 -168 2693 -1 2692 0 0 -160 0 -160 -2073 0 -2073
0 -325 -125 c-178 -69 -336 -130 -352 -136 l-27 -11 2 -866 3 -865 345 -133
345 -133 2078 -1 2077 0 0 -95 0 -95 -2072 -1 -2073 -1 -350 -136 -350 -137
-2 -865 -3 -865 358 -138 357 -137 2068 0 2067 0 0 -200 0 -200 313 0 312 1
155 173 c100 113 156 183 158 200 l3 26 275 0 274 0 260 130 260 130 0 50 0
50 88 0 c48 0 701 16 1452 35 751 19 1386 35 1412 35 l46 0 126 139 126 140 0
533 1 533 -128 122 -128 122 -115 1 c-63 0 -729 -16 -1480 -35 -751 -19 -1373
-35 -1382 -35 -14 0 -18 8 -18 35 l0 35 -260 130 -260 130 -275 0 -275 0 0 95
0 95 280 0 280 0 255 127 255 128 0 52 0 52 33 -5 c17 -2 692 13 1499 34 1244
32 1470 40 1482 52 8 8 64 71 125 140 l111 124 0 531 0 531 -129 128 -130 128
-168 -6 c-92 -4 -721 -20 -1398 -36 -676 -16 -1274 -31 -1328 -32 l-97 -3 0
35 -1 35 -262 128 -262 128 -272 -1 -273 0 0 160 0 160 360 0 360 0 320 160
320 160 0 145 0 145 -150 0 -150 0 0 25 c0 24 2 25 63 25 35 0 105 3 155 6
l92 7 0 -111 c0 -97 2 -111 17 -116 10 -3 852 16 1870 42 l1853 47 29 30 c17
17 87 93 155 170 l126 140 0 670 0 671 -147 146 c-82 80 -157 150 -168 155
-13 7 -640 -6 -1875 -38 -1020 -26 -1856 -48 -1857 -48 -2 -1 -3 -53 -3 -116
l0 -115 -139 0 c-77 0 -146 -3 -155 -6 -12 -4 -16 0 -16 15 0 20 4 21 150 21
l150 0 0 145 0 145 -320 160 -320 160 -360 0 -360 0 0 130 0 130 194 0 194 0
6 27 c5 24 206 1449 206 1459 0 2 108 4 240 4 l241 0 17 -30 17 -30 416 0 416
0 65 90 65 90 6 436 c4 241 7 824 7 1296 l0 858 768 1 767 0 1708 2140 1707
2141 0 1219 0 1219 615 0 615 0 0 50 0 50 645 0 645 0 0 119 c0 110 2 121 21
135 12 8 36 50 53 94 31 77 32 82 23 158 -9 73 -13 83 -53 130 l-44 51 0 402
0 402 43 49 c38 45 43 57 53 130 10 78 9 83 -18 153 -16 40 -40 83 -54 98 -23
24 -24 32 -24 142 l0 117 -645 0 -645 0 0 80 0 80 853 0 852 0 690 168 c645
157 690 169 693 190 l3 22 288 0 288 0 133 -55 133 -55 128 0 129 0 0 -24 c0
-13 7 -26 15 -30 9 -3 15 -18 15 -36 l0 -30 245 0 245 0 0 45 0 45 315 0 315
0 0 65 0 65 -237 3 c-216 2 -208 3 90 5 l327 2 133 -55 132 -55 458 0 457 0 0
79 c0 67 3 80 18 85 9 3 122 35 251 71 l234 65 230 0 230 0 84 60 c78 56 87
60 138 60 l55 0 0 36 c0 29 3 34 18 30 9 -3 341 -107 736 -231 395 -124 721
-224 723 -221 3 2 -328 115 -734 250 l-738 246 0 301 0 302 740 249 c407 136
727 245 710 242 -16 -3 -349 -106 -740 -228 l-710 -224 -3 34 c-3 34 -4 34
-54 34 -46 0 -58 6 -135 60 l-83 60 -223 0 -222 -1 -262 73 -263 72 0 78 0 78
-461 0 -460 0 -134 -55 -135 -55 -317 1 c-175 1 -331 5 -348 9 -16 4 88 8 233
9 l262 1 0 60 0 60 -315 0 -315 0 0 45 0 45 -245 0 -245 0 0 -30 c0 -18 -6
-33 -15 -36 -8 -4 -15 -17 -15 -30 l0 -24 -133 0 -133 0 -133 -55 -133 -55
-284 0 -284 0 0 23 c0 22 -26 29 -687 190 l-688 167 -857 0 -858 0 -2 1492 -3
1492 -600 308 -599 308 -1388 0 -1388 0 0 400 c0 220 3 400 7 400 16 0 931
100 961 105 l32 6 0 84 0 85 2940 0 2940 0 0 -25 0 -25 373 0 372 0 93 127 92
126 0 299 0 298 165 0 c103 0 165 -4 165 -10 0 -7 592 -10 1755 -10 l1755 0 0
-45 0 -45 -215 0 -215 0 0 -95 0 -95 1630 0 c1623 0 1630 0 1630 20 0 19 7 20
100 20 l100 0 0 60 0 60 -100 0 c-82 0 -100 3 -100 15 0 13 -96 15 -805 15
l-805 0 0 45 0 45 205 0 205 0 0 150 0 150 -160 0 -160 0 0 280 0 280 -80 0
-80 0 0 40 c0 33 -3 40 -20 40 -17 0 -20 -7 -20 -40 l0 -40 -170 0 -170 0 0
40 c0 36 -2 40 -25 40 -22 0 -25 -4 -25 -40 l0 -40 -165 0 -165 0 0 40 c0 36
-2 40 -25 40 -22 0 -25 -4 -25 -40 l0 -40 -170 0 -170 0 0 40 c0 36 -2 40 -25
40 -22 0 -25 -4 -25 -40 l0 -40 -165 0 -165 0 0 40 c0 36 -2 40 -25 40 -22 0
-25 -4 -25 -40 l0 -40 -170 0 -170 0 0 40 c0 36 -2 40 -25 40 -22 0 -25 -4
-25 -40 l0 -40 -165 0 -165 0 0 40 c0 36 -2 40 -25 40 -22 0 -25 -4 -25 -40
l0 -40 -170 0 -170 0 0 40 c0 33 -3 40 -20 40 -17 0 -20 -7 -20 -40 l0 -40
-170 0 -170 0 0 40 c0 36 -2 40 -25 40 -22 0 -25 -4 -25 -40 l0 -40 -80 0 -80
0 0 -280 0 -280 -690 0 c-607 0 -690 -2 -690 -15 0 -13 -25 -15 -165 -15
l-165 0 0 165 0 165 -760 0 c-418 0 -760 -2 -760 -4 0 -2 20 -47 45 -100 l44
-96 -344 0 -345 0 0 100 c0 73 -3 100 -12 100 -7 0 -312 27 -678 60 -365 33
-675 60 -687 60 -14 0 -23 -6 -23 -15 0 -13 -189 -15 -1645 -15 l-1645 0 0
135 c0 122 -2 135 -17 135 -58 1 -974 108 -980 114 -5 4 -10 183 -11 398 l-4
391 -69 93 -69 94 -422 -2 -421 -3 -69 -94 -68 -94 0 -113 0 -114 -438 0 -439
0 -333 600 -332 600 -697 2 -696 3 -3 223 c-2 217 -2 222 18 222 19 0 20 -6
20 -185 l0 -185 173 1 c161 0 199 4 607 68 l435 67 3 117 3 117 1098 0 c763 0
1100 -3 1103 -11 2 -5 115 -46 251 -89 l247 -79 1588 69 c873 37 1588 68 1590
69 1 0 2 86 2 189 l0 189 2988 6 c8362 19 8622 20 8622 32 0 15 -1262 22
-5180 30 -1471 3 -3520 8 -4552 11 l-1877 7 -3 126 -3 126 -1260 76 -1260 76
-1207 730 c-663 401 -1214 735 -1222 742 -9 8 -16 24 -16 36 0 18 -7 25 -31
30 -26 6 -35 16 -52 55 -19 45 -23 48 -87 68 -36 12 -77 22 -89 22 -15 0 -123
88 -327 266 -167 146 -306 269 -308 273 -3 4 31 71 75 149 l81 141 -62 218
c-54 191 -66 222 -95 253 l-34 35 378 668 378 667 -101 268 -101 268 -1148
947 -1147 947 -222 15 c-281 19 -262 20 -298 -12 -17 -16 -154 -251 -319 -547
-160 -285 -294 -523 -299 -528 -5 -5 -271 207 -648 518 -351 290 -646 533
-655 540 -10 9 -89 19 -258 30 l-242 17 -34 -33 c-21 -20 -149 -239 -327 -556
-161 -288 -296 -523 -300 -522 -4 2 -296 242 -649 533 -353 292 -647 533 -654
537 -11 6 -406 38 -475 38 -16 0 -37 -11 -53 -28z m6738 -6010 c-8 -7 -1232
-746 -1257 -759 -3 -2 91 170 210 382 l217 384 420 1 c230 0 415 -4 410 -8z
m-5674 -124 c49 -39 88 -72 87 -74 -6 -4 -364 -221 -384 -232 -16 -8 10 44 88
183 61 107 113 195 115 195 3 0 46 -32 94 -72z m7542 -383 l596 -360 -600 -3
c-329 -1 -869 -1 -1198 0 l-599 3 596 361 c329 199 600 361 603 360 4 0 274
-163 602 -361z m-5058 -156 l340 -204 -459 -3 c-253 -1 -461 0 -463 2 -6 6
228 416 236 413 3 -2 159 -96 346 -208z m-1685 -120 c41 -33 82 -67 90 -75 12
-12 -14 -14 -200 -14 l-214 0 119 74 c66 41 122 75 125 75 3 1 39 -26 80 -60z
m3400 -2214 l0 -255 -235 0 -236 0 12 23 c10 19 111 195 241 420 l39 67 89 0
90 0 0 -255z m1980 23 c68 -128 130 -243 138 -255 l14 -23 -931 0 -931 0 0
255 0 255 794 0 793 0 123 -232z m3850 -1823 l0 -455 -45 0 -45 0 0 455 0 455
45 0 45 0 0 -455z m1060 0 l0 -455 -40 0 -40 0 0 455 0 455 40 0 40 0 0 -455z
m1060 0 l0 -455 -40 0 -40 0 0 455 0 455 40 0 40 0 0 -455z m1080 0 l0 -455
-50 0 -50 0 0 455 0 455 50 0 50 0 0 -455z m2421 -325 c93 -178 169 -328 169
-332 0 -4 -1323 -8 -2940 -8 l-2940 0 0 30 0 30 1645 0 c1456 0 1645 -2 1645
-15 0 -8 6 -15 13 -15 6 0 321 28 700 62 l687 62 0 258 0 258 426 -2 426 -3
169 -325z m-11941 -21695 l0 -45 -92 0 c-51 0 -277 -5 -503 -11 l-409 -11 -72
-62 -72 -61 -1 -637 -1 -636 66 -54 66 -53 -41 -3 c-50 -4 -47 -5 -160 91
l-91 77 0 640 0 639 98 85 97 85 558 1 557 0 0 -45z m1890 26 c0 -20 32 -18
-702 -37 l-248 -7 0 31 0 32 475 0 c456 0 475 -1 475 -19z m0 -1576 l0 -25
-475 0 c-310 0 -475 3 -475 10 0 6 1 11 3 11 1 1 193 7 427 14 234 6 446 13
473 13 44 2 47 0 47 -23z m-1890 -1480 c0 -33 -2 -35 -32 -35 -18 -1 -162 -5
-320 -9 l-287 -8 -60 -53 -61 -53 0 -503 0 -502 53 -46 52 -46 -36 0 c-30 0
-50 11 -113 63 l-76 62 0 517 0 517 77 65 76 66 364 0 363 0 0 -35z m1680 21
c0 -11 -46 -15 -247 -20 -137 -3 -303 -8 -370 -11 l-123 -6 0 26 0 25 370 0
c309 0 370 -2 370 -14z m330 4 c0 -6 -28 -10 -64 -10 -34 0 -91 -3 -125 -6
-52 -6 -61 -5 -61 10 0 14 16 16 125 16 77 0 125 -4 125 -10z m0 -1260 c0 -19
-7 -20 -125 -20 -118 0 -125 1 -125 20 0 19 7 20 125 20 118 0 125 -1 125 -20z
m-330 -5 c0 -13 -48 -15 -372 -15 -242 0 -369 3 -362 10 5 5 97 11 209 13 552
8 525 8 525 -8z m-1680 -1225 l0 -40 -138 0 c-77 0 -220 -3 -320 -7 l-181 -6
-61 -51 -60 -50 0 -507 0 -506 55 -44 56 -44 -36 -3 c-32 -3 -45 5 -115 64
l-80 67 0 517 0 517 78 66 77 66 363 1 362 0 0 -40z m1680 26 c0 -18 -82 -23
-462 -32 l-278 -6 0 26 0 26 370 0 c311 0 370 -2 370 -14z m330 5 c0 -16 -31
-21 -141 -21 -90 0 -109 3 -109 15 0 13 21 15 125 15 69 0 125 -4 125 -9z m0
-1266 l0 -25 -125 0 c-117 0 -125 1 -125 20 0 20 -9 19 203 28 44 2 47 0 47
-23z m-330 -5 c0 -20 -7 -20 -370 -20 -240 0 -370 4 -370 10 0 6 26 11 58 11
31 1 161 5 287 8 422 13 395 14 395 -9z"/>
</g>
</svg>
