<?xml version="1.0" standalone="no"?>
<!DOCTYPE svg PUBLIC "-//W3C//DTD SVG 20010904//EN"
 "http://www.w3.org/TR/2001/REC-SVG-20010904/DTD/svg10.dtd">
<svg version="1.0" xmlns="http://www.w3.org/2000/svg"
   viewBox="0 0 4728.000000 1068.000000"
 preserveAspectRatio="xMidYMid meet">
<metadata>
Created by potrace 1.16, written by Peter Selinger 2001-2019
</metadata>
<g transform="translate(0.000000,1068.000000) scale(0.100000,-0.100000)"
fill="#000000" stroke="none">
<path d="M22145 10665 c11 -9 30 -18 43 -22 12 -3 22 -10 22 -15 0 -14 -108
-238 -115 -238 -3 0 -24 9 -45 20 -22 11 -40 16 -40 11 0 -4 19 -17 43 -27
l43 -19 -438 -930 c-240 -511 -438 -934 -440 -939 -4 -8 -98 21 -98 30 0 1 4
14 10 29 8 20 7 27 -5 31 -8 4 -13 9 -11 13 2 3 -2 17 -9 31 -10 19 -49 38
-180 87 -93 35 -170 61 -172 59 -3 -2 1 -14 7 -26 11 -21 10 -22 -12 -17 -20
5 -27 2 -36 -18 l-12 -25 -47 19 c-27 10 -129 51 -228 91 -99 40 -191 77 -205
82 -23 9 -21 11 42 36 36 15 70 31 75 36 4 5 3 6 -4 2 -10 -5 -13 10 -13 62 0
70 0 70 31 81 18 6 65 11 105 11 43 0 74 4 74 10 0 6 -33 10 -80 10 -47 0 -80
4 -80 10 0 6 33 10 80 10 106 0 104 18 -2 22 l-83 3 -8 45 c-5 25 -11 102 -14
171 l-5 127 -36 6 c-48 8 -376 8 -424 0 l-38 -7 0 -133 c0 -112 -2 -134 -15
-134 -13 0 -15 22 -15 134 l0 133 -37 7 c-49 8 -377 8 -425 0 l-38 -7 0 -133
c0 -127 -1 -134 -20 -134 -19 0 -20 7 -20 134 l0 133 -37 7 c-21 3 -117 6
-213 6 -96 0 -192 -3 -212 -6 l-38 -7 0 -133 c0 -112 -2 -134 -15 -134 -13 0
-15 22 -15 134 l0 133 -37 7 c-21 3 -117 6 -213 6 -96 0 -192 -3 -212 -6 l-38
-7 0 -133 c0 -127 -1 -134 -20 -134 -19 0 -20 7 -20 134 l0 133 -37 7 c-48 8
-376 8 -424 0 l-36 -6 -6 -157 c-3 -86 -8 -164 -12 -173 -6 -15 -20 -18 -86
-18 -46 0 -79 -4 -79 -10 0 -6 33 -10 80 -10 47 0 80 -4 80 -10 0 -6 -33 -10
-80 -10 -47 0 -80 -4 -80 -10 0 -6 29 -10 66 -10 37 0 84 -5 105 -12 l39 -11
0 -69 c0 -52 -3 -67 -12 -62 -10 5 -10 4 -2 -6 7 -6 23 -13 37 -13 14 -1 24
-4 22 -7 -2 -3 30 -19 71 -35 40 -17 74 -33 74 -37 0 -5 144 -8 321 -8 253 0
320 -3 316 -12 -3 -7 -33 -84 -68 -171 l-63 -157 -578 2 -579 3 -294 518 -293
517 39 23 c21 12 39 26 39 30 0 5 -19 -2 -42 -15 l-43 -24 -63 110 c-67 116
-66 111 -9 142 15 8 27 19 27 25 0 5 -20 -2 -45 -17 -39 -22 -46 -24 -51 -10
-3 9 -12 16 -20 16 -17 0 -17 -5 -4 -30 8 -15 4 -20 -20 -30 -30 -12 -60 -40
-44 -40 5 0 24 9 43 21 18 11 35 19 36 17 2 -2 22 -37 45 -78 23 -41 51 -89
62 -107 l19 -32 -40 -23 c-23 -13 -41 -27 -41 -31 0 -5 20 2 44 16 l44 24 289
-511 290 -511 -247 -5 -246 -5 -428 -477 -427 -478 -1173 0 -1174 0 -22 -55
-22 -55 -369 0 -369 0 0 -372 0 -373 -128 -52 c-75 -31 -143 -53 -165 -53
l-37 0 0 188 0 187 -145 58 -144 59 -143 -59 -143 -58 -3 -188 -2 -187 -85 0
-85 0 0 188 0 188 -144 58 -144 57 -141 -58 -141 -57 0 -188 0 -188 -1300 0
-1300 0 0 -120 0 -120 -27 0 c-15 0 -178 79 -375 181 l-348 181 0 114 0 114
-238 0 -237 0 -303 262 -302 261 0 429 0 428 -114 0 -113 0 5 25 c2 14 11 25
18 25 8 0 14 5 14 10 0 6 -73 10 -200 10 -127 0 -200 -4 -200 -10 0 -5 9 -10
20 -10 15 0 20 -7 20 -25 0 -24 -3 -25 -55 -25 l-55 0 -1 -427 0 -428 -407
-387 -407 -387 -1191 0 -1191 -1 -23 25 c-22 23 -30 25 -122 25 l-98 0 0 45
c0 25 -4 45 -10 45 -5 0 -10 -20 -10 -45 l0 -45 -465 0 -465 0 0 45 c0 25 -4
45 -10 45 -5 0 -10 -20 -10 -45 l0 -45 -501 0 -500 0 -34 -75 -34 -75 -211 0
-210 0 0 -32 c0 -30 -6 -36 -58 -64 l-57 -31 0 -1133 0 -1133 57 -31 c52 -28
58 -34 58 -63 l0 -33 209 0 209 0 38 -80 37 -80 499 0 498 0 0 -40 c0 -22 5
-40 10 -40 6 0 10 18 10 40 l0 40 465 0 465 0 0 -40 c0 -22 5 -40 10 -40 6 0
10 18 10 40 l0 40 93 0 c91 0 94 1 122 30 l29 30 1188 0 1189 0 409 -387 409
-388 0 -427 1 -428 55 0 c52 0 55 -1 55 -25 0 -18 -5 -25 -20 -25 -11 0 -20
-4 -20 -10 0 -6 73 -10 200 -10 127 0 200 4 200 10 0 6 -6 10 -14 10 -7 0 -16
11 -18 25 l-5 25 113 0 114 0 0 428 0 429 302 261 303 262 237 0 238 0 0 114
0 114 348 181 c197 102 360 181 375 181 l27 0 0 -120 0 -120 1300 0 1300 0 0
-188 0 -188 141 -57 141 -58 144 57 144 58 0 188 0 188 85 0 85 0 2 -187 3
-188 143 -58 143 -59 144 59 145 58 0 188 0 187 33 0 c17 1 92 -23 164 -52
l133 -53 0 -372 0 -373 369 0 369 0 22 -55 22 -55 1173 0 1173 0 428 -477 427
-478 247 -5 247 -5 -290 -511 -289 -511 -44 24 c-24 14 -44 21 -44 16 0 -4 18
-18 41 -31 l40 -23 -19 -32 c-11 -18 -39 -66 -62 -107 -23 -41 -43 -76 -45
-78 -1 -2 -18 6 -36 17 -19 12 -38 21 -43 21 -16 0 14 -28 44 -40 24 -10 28
-15 20 -30 -13 -25 -13 -30 4 -30 8 0 17 7 20 16 5 14 12 12 51 -10 25 -15 45
-22 45 -17 0 6 -12 17 -27 25 -57 31 -58 26 9 142 l63 110 43 -24 c23 -13 42
-20 42 -15 0 5 -16 17 -35 27 -19 11 -35 24 -35 30 0 6 130 241 290 521 l289
510 579 3 578 2 63 -157 c35 -87 65 -164 68 -171 4 -9 -63 -12 -316 -12 -177
0 -321 -3 -321 -7 0 -5 -34 -21 -74 -38 -41 -16 -73 -32 -71 -35 2 -3 -8 -6
-22 -7 -14 0 -30 -7 -37 -13 -8 -10 -8 -11 2 -6 9 5 12 -10 12 -62 l0 -69 -39
-11 c-21 -7 -68 -12 -105 -12 -37 0 -66 -4 -66 -10 0 -6 33 -10 80 -10 47 0
80 -4 80 -10 0 -6 -33 -10 -80 -10 -47 0 -80 -4 -80 -10 0 -6 33 -10 79 -10
66 0 80 -3 86 -18 4 -9 9 -87 12 -173 l6 -157 36 -6 c48 -8 376 -8 424 0 l37
7 0 133 c0 127 1 134 20 134 19 0 20 -7 20 -134 l0 -133 38 -7 c20 -3 116 -6
212 -6 96 0 192 3 213 6 l37 7 0 133 c0 112 2 134 15 134 13 0 15 -22 15 -134
l0 -133 38 -7 c20 -3 116 -6 212 -6 96 0 192 3 213 6 l37 7 0 133 c0 127 1
134 20 134 19 0 20 -7 20 -134 l0 -133 38 -7 c20 -3 116 -6 212 -6 96 0 192 3
213 6 l37 7 0 133 c0 112 2 134 15 134 13 0 15 -22 15 -134 l0 -133 38 -7 c48
-8 376 -8 424 0 l36 6 5 127 c3 69 9 146 14 171 l8 45 83 3 c106 4 108 22 2
22 -47 0 -80 4 -80 10 0 6 33 10 80 10 47 0 80 4 80 10 0 6 -31 10 -74 10 -40
0 -87 5 -105 11 -31 11 -31 11 -31 81 0 52 3 67 13 62 7 -4 8 -3 4 2 -5 5 -39
21 -75 36 -63 25 -65 27 -42 36 14 5 106 42 205 82 99 40 201 81 227 91 l48
19 15 -29 c11 -22 20 -28 35 -24 22 6 26 -7 8 -25 -28 -28 9 -19 163 39 157
59 206 88 195 115 -3 7 0 15 7 17 7 2 12 21 12 41 0 35 3 39 39 54 22 9 41 12
43 6 3 -5 201 -427 441 -939 l438 -930 -43 -19 c-24 -10 -43 -23 -43 -27 0 -5
18 0 40 11 21 11 42 20 45 20 7 0 115 -223 115 -237 0 -4 -19 -16 -42 -25 -23
-10 -39 -21 -36 -24 4 -3 20 2 37 10 38 20 57 20 65 1 3 -8 12 -12 20 -9 12 5
13 10 5 26 -9 17 -5 21 30 35 23 9 41 20 41 24 0 5 -19 0 -43 -10 l-43 -19
-56 122 -56 121 41 22 c23 12 36 22 29 23 -7 0 -27 -7 -43 -16 -17 -8 -32 -14
-34 -12 -14 14 -880 1874 -873 1876 19 8 8 117 -17 171 -21 44 -23 57 -13 66
7 7 190 179 406 384 l393 371 1314 0 1313 0 338 -385 338 -385 4585 0 4585 0
716 -321 715 -320 65 -68 c60 -63 76 -73 194 -126 l130 -57 41 20 c40 19 42
19 75 1 33 -17 75 -18 767 -19 714 0 733 0 743 -19 5 -11 10 -33 10 -50 l0
-31 70 0 c81 0 95 -17 18 -23 -29 -2 25 -4 120 -5 l172 -2 0 -140 0 -140 175
0 175 0 0 810 0 810 88 -2 87 -2 -77 -3 -78 -4 0 -1257 c0 -965 3 -1261 12
-1270 9 -9 202 -12 808 -12 759 0 798 1 813 18 16 17 17 120 17 1270 l0 1252
-107 2 c-103 2 -104 2 -25 5 l82 4 0 158 0 159 278 171 277 171 1368 0 1367 0
0 150 0 150 1144 0 1145 0 4 -38 4 -37 1 38 c2 35 4 37 37 37 19 0 35 5 35 10
0 6 -16 10 -34 10 -34 0 -35 1 -39 47 l-3 48 -2 -47 -2 -48 -977 2 -978 3 905
5 c698 4 910 8 927 18 12 6 40 12 62 12 l41 0 0 40 c0 40 0 40 -39 40 -21 0
-55 -7 -74 -15 -31 -13 -161 -15 -952 -15 l-915 0 -108 25 c-59 14 -124 30
-144 36 l-38 10 0 469 0 470 425 0 425 0 0 55 0 55 -425 0 -425 0 0 410 0 410
425 0 425 0 0 49 c0 46 2 50 28 54 15 2 -177 5 -425 6 l-453 1 0 305 0 305
1766 0 c1671 0 1768 -1 1780 -17 10 -13 13 -63 14 -190 0 -147 2 -173 15 -173
13 0 15 26 15 173 1 195 4 207 64 207 l36 0 0 105 0 105 -40 0 -40 0 0 65 0
65 -35 0 -35 0 0 -65 0 -65 -1770 0 -1770 0 0 300 0 300 -565 0 c-496 0 -565
2 -565 15 0 13 -91 15 -760 15 -669 0 -760 -2 -760 -15 0 -11 -11 -15 -43 -15
-37 0 -74 20 -320 171 l-277 171 0 159 0 158 -82 4 c-79 3 -78 3 25 5 l107 2
0 1253 c0 1202 -1 1255 -18 1270 -17 16 -88 17 -813 17 -605 0 -798 -3 -807
-12 -9 -9 -12 -305 -12 -1270 l0 -1257 78 -4 77 -3 -87 -2 -88 -2 0 810 0 810
-175 0 -175 0 0 -140 0 -140 -172 -2 c-95 -1 -149 -3 -120 -5 77 -6 63 -23
-18 -23 l-70 0 0 -31 c0 -17 -5 -39 -10 -50 -10 -19 -29 -19 -743 -19 -692 -1
-734 -2 -767 -19 -33 -18 -35 -18 -75 1 l-41 20 -130 -57 c-118 -53 -134 -63
-194 -126 l-65 -68 -715 -320 -715 -321 -4585 0 -4585 0 -338 -385 -338 -385
-1315 0 -1314 0 -393 371 c-215 205 -398 377 -405 384 -11 10 -9 21 12 63 19
38 26 67 26 111 0 33 -4 61 -8 63 -7 2 859 1862 873 1876 2 2 17 -4 34 -12 16
-9 36 -16 43 -16 7 1 -6 11 -29 23 l-41 22 56 121 56 122 43 -19 c24 -10 43
-15 43 -10 0 4 -18 15 -41 24 -35 14 -39 18 -30 35 14 26 -14 39 -28 14 -8
-14 -14 -15 -38 -6 -15 6 -37 15 -48 19 l-20 7 20 -17z m16185 -1405 c0 -5
-16 -10 -35 -10 -19 0 -35 5 -35 10 0 6 16 10 35 10 19 0 35 -4 35 -10z
m-20540 -215 l0 -55 85 0 c50 0 85 -4 85 -10 0 -6 -43 -10 -110 -10 l-110 0 0
65 c0 63 1 65 25 65 24 0 25 -3 25 -55z m2520 -10 l0 -65 -110 0 c-67 0 -110
4 -110 10 0 6 33 10 80 10 l80 0 0 48 c0 55 4 62 37 62 22 0 23 -4 23 -65z
m-1910 -55 c0 -6 -77 -10 -210 -10 -133 0 -210 4 -210 10 0 6 77 10 210 10
133 0 210 -4 210 -10z m160 -30 c0 -22 -3 -40 -7 -40 -4 0 -37 12 -75 28 -91
36 -89 52 7 52 l75 0 0 -40z m1510 30 c0 -13 -50 -13 -70 0 -11 7 -4 10 28 10
23 0 42 -4 42 -10z m-1593 -57 l68 -28 -195 -3 c-174 -2 -211 0 -340 23 -80
14 -149 28 -155 30 -5 2 117 4 272 4 l283 1 67 -27z m1686 15 c-28 -6 -49 -6
-60 1 -14 8 -4 10 42 10 l60 -1 -42 -10z m-2218 -23 l120 -23 -81 -1 c-66 -1
-91 4 -135 23 -67 31 -55 31 96 1z m2280 10 c-35 -16 -65 -19 -65 -6 0 9 33
17 75 19 15 0 12 -3 -10 -13z m-2280 -7160 c-150 -30 -162 -30 -100 0 40 19
66 23 135 23 l85 0 -120 -23z m545 -3 l-55 -27 -295 -2 c-162 0 -288 1 -280 3
8 2 71 15 140 28 106 20 157 24 335 24 l210 0 -55 -26z m70 -32 l0 -40 -75 0
c-94 0 -98 15 -12 51 84 36 87 36 87 -11z m1665 24 l30 -14 -34 5 c-18 3 -40
5 -47 5 -8 0 -14 5 -14 10 0 14 30 12 65 -6z m-50 -14 c24 -6 18 -8 -30 -9
-42 0 -56 2 -45 9 17 11 32 11 75 0z m-2215 -40 c0 -6 -35 -10 -85 -10 l-85 0
0 -55 c0 -52 -1 -55 -25 -55 -24 0 -25 2 -25 65 l0 65 110 0 c67 0 110 -4 110
-10z m440 0 c0 -6 -77 -10 -210 -10 -133 0 -210 4 -210 10 0 6 77 10 210 10
133 0 210 -4 210 -10z m1670 0 c0 -5 -19 -10 -42 -10 -32 0 -39 3 -28 10 20
13 70 13 70 0z m240 -56 l0 -65 -27 3 c-26 3 -28 7 -31 56 l-3 52 -80 0 c-46
0 -79 4 -79 10 0 6 43 10 110 10 l110 0 0 -66z m18020 -224 c0 -5 -16 -10 -35
-10 -19 0 -35 5 -35 10 0 6 16 10 35 10 19 0 35 -4 35 -10z"/>
</g>
</svg>
