<?xml version="1.0" standalone="no"?>
<!DOCTYPE svg PUBLIC "-//W3C//DTD SVG 20010904//EN"
 "http://www.w3.org/TR/2001/REC-SVG-20010904/DTD/svg10.dtd">
<svg version="1.0" xmlns="http://www.w3.org/2000/svg"
   viewBox="0 0 2361.000000 4834.000000"
 preserveAspectRatio="xMidYMid meet">
<metadata>
Created by potrace 1.16, written by Peter Selinger 2001-2019
</metadata>
<g transform="translate(0.000000,4834.000000) scale(0.100000,-0.100000)"
fill="#000000" stroke="none">
<path d="M12210 48305 c0 -31 3 -35 25 -35 25 0 25 -1 25 -90 l0 -90 -948 0
-948 0 -330 -231 -330 -231 -754 -2216 c-694 -2041 -752 -2218 -742 -2246 11
-28 -58 -235 -879 -2651 -491 -1441 -912 -2678 -936 -2750 l-44 -130 -658
-365 -658 -365 -572 -1755 c-314 -965 -571 -1761 -571 -1768 0 -8 80 -115 178
-238 97 -124 182 -233 189 -242 10 -14 6 -37 -23 -127 -23 -71 -33 -115 -27
-126 4 -9 114 -157 243 -328 l235 -310 1308 -1 1307 0 0 -59 0 -58 46 -7 c26
-3 786 -6 1690 -6 l1644 0 0 -30 0 -30 -280 0 -280 0 0 -80 0 -80 -395 0 -395
0 0 -35 0 -35 -478 0 -478 0 -343 -200 -342 -200 -65 0 -64 0 0 -155 0 -155
30 0 30 0 0 -155 c0 -131 -2 -155 -15 -155 -10 0 -15 -10 -15 -30 l0 -30 -614
0 -614 0 -22 -55 c-12 -30 -24 -55 -27 -55 -2 0 -17 7 -34 15 l-29 16 -21 -48
c-43 -99 -109 -262 -109 -268 0 -3 13 -11 30 -16 17 -6 30 -18 30 -26 0 -10
-6 -13 -16 -9 -61 23 -56 29 -124 -135 -58 -143 -61 -154 -44 -166 10 -7 24
-13 31 -13 7 0 13 -7 13 -15 0 -18 0 -18 -41 -1 l-33 14 -63 -151 c-35 -84
-61 -157 -58 -164 2 -7 16 -15 30 -19 14 -3 25 -9 25 -13 0 -4 -17 -47 -38
-97 -37 -88 -39 -89 -75 -92 l-37 -3 0 -55 0 -54 -300 0 c-293 0 -300 0 -300
-20 0 -11 -4 -20 -10 -20 -6 0 -10 135 -10 385 l0 385 -440 0 -440 0 0 -965 0
-965 -65 0 -65 0 0 125 0 125 -40 0 -40 0 0 -97 c0 -54 -3 -135 -7 -180 l-6
-83 -167 0 c-170 0 -197 -4 -401 -66 -9 -2 -38 -36 -65 -74 l-49 -70 -657 0
-657 0 -6 -47 c-12 -89 -2 -83 -141 -83 l-124 0 0 115 0 115 -210 0 -210 0 0
-115 0 -115 -45 0 -45 0 0 110 c0 81 -3 110 -12 110 -37 1 -495 -75 -505 -83
-19 -14 -19 -1200 -1 -1214 11 -8 469 -83 506 -83 9 0 12 27 12 100 l0 100 45
0 45 0 0 -100 0 -100 210 0 210 0 0 100 0 100 124 0 c139 0 129 6 141 -82 3
-27 10 -48 16 -48 5 0 9 -122 9 -305 l0 -305 -60 0 -60 0 0 -295 0 -295 -70 0
-70 0 0 -140 0 -140 -120 0 -120 0 0 168 0 169 -137 6 c-75 4 -214 7 -308 7
l-172 0 -7 -37 c-3 -21 -6 -100 -6 -175 l0 -138 -65 0 -65 0 0 170 c0 143 -2
170 -15 170 -15 0 -701 -106 -748 -116 l-27 -6 0 -928 0 -928 27 -6 c45 -9
736 -116 750 -116 10 0 13 39 13 170 l0 170 65 0 65 0 0 -139 c0 -76 3 -153 6
-170 l7 -31 308 0 309 0 0 170 0 170 120 0 120 0 0 -140 0 -140 70 0 70 0 0
-295 0 -295 60 0 60 0 0 -305 c0 -183 -4 -305 -9 -305 -6 0 -13 -21 -16 -47
-12 -89 -2 -83 -141 -83 l-124 0 0 105 0 105 -210 0 -210 0 0 -105 0 -105 -45
0 -45 0 0 100 c0 73 -3 100 -12 100 -39 0 -495 -75 -505 -83 -19 -14 -19
-1200 0 -1214 10 -8 468 -83 505 -83 9 0 12 29 12 110 l0 110 45 0 45 0 0
-115 0 -115 210 0 210 0 0 115 0 115 124 0 c139 0 129 6 141 -82 l6 -48 657 0
657 0 50 -70 c39 -55 57 -73 85 -80 19 -5 76 -21 125 -35 79 -22 110 -25 256
-25 l166 0 6 -82 c4 -46 7 -127 7 -180 l0 -98 40 0 40 0 0 125 0 125 65 0 65
0 0 -965 0 -965 440 0 440 0 0 385 c0 250 4 385 10 385 6 0 10 -9 10 -20 0
-20 7 -20 300 -20 l300 0 0 -54 0 -55 37 -3 c36 -3 38 -4 75 -92 21 -50 38
-93 38 -97 0 -4 -11 -10 -25 -13 -14 -4 -28 -12 -30 -19 -3 -7 23 -80 58 -164
49 -118 66 -149 78 -143 35 19 59 21 59 6 0 -9 -6 -16 -13 -16 -7 0 -21 -6
-31 -13 -17 -12 -14 -23 44 -166 68 -164 63 -158 124 -135 10 4 16 1 16 -9 0
-8 -14 -20 -31 -26 -24 -8 -30 -15 -25 -28 4 -10 33 -80 64 -156 60 -146 60
-145 113 -123 13 6 21 -5 39 -48 l22 -56 614 0 614 0 0 -30 c0 -20 5 -30 15
-30 13 0 15 -24 15 -155 l0 -155 -30 0 -30 0 0 -155 0 -155 64 0 65 0 344
-200 343 -200 477 0 477 0 0 -35 0 -35 395 0 395 0 0 -75 0 -75 280 0 280 0 0
-35 0 -35 -1644 0 c-904 0 -1664 -3 -1690 -6 l-46 -7 0 -58 0 -59 -1307 0
-1308 0 -235 -311 c-129 -171 -239 -318 -243 -325 -7 -12 29 -149 58 -226 3
-7 -80 -121 -185 -253 -104 -132 -189 -247 -190 -255 0 -8 257 -804 571 -1770
l572 -1755 658 -365 659 -365 38 -115 c22 -63 443 -1301 936 -2750 825 -2428
895 -2638 884 -2666 -10 -28 49 -206 742 -2246 l754 -2216 330 -231 330 -231
948 0 948 0 0 -90 c0 -89 0 -90 -25 -90 -22 0 -25 -4 -25 -35 l0 -35 203 0
c233 0 307 7 307 26 0 11 37 14 188 15 103 1 291 5 417 8 l230 7 -351 2 c-193
1 -439 5 -547 9 l-197 6 0 89 0 88 120 0 c100 0 120 3 120 15 0 13 26 15 175
15 l175 0 0 25 0 25 440 0 c287 0 440 3 440 10 0 7 528 10 1565 10 1384 0
1565 2 1565 15 0 13 -181 15 -1565 15 -1558 0 -1565 0 -1565 20 0 20 -7 20
-440 20 -433 0 -440 0 -440 20 0 19 -7 20 -175 20 l-175 0 0 1375 0 1375 -30
0 -30 0 0 105 c0 98 1 105 20 105 11 0 20 7 20 15 0 13 181 15 1565 15 1037 0
1565 3 1565 10 0 7 -528 10 -1565 10 -1037 0 -1565 3 -1565 10 0 6 -9 10 -20
10 -19 0 -20 8 -22 272 l-3 272 -125 76 -125 77 -3 1849 -2 1849 130 73 130
73 0 95 c0 97 -15 594 -25 806 l-5 118 122 0 121 0 -6 920 -5 920 209 0 c202
0 209 -1 209 -20 0 -13 7 -20 20 -20 18 0 20 -7 20 -60 0 -47 -3 -60 -15 -60
-22 0 -19 -40 3 -41 110 -3 288 4 290 11 2 6 161 11 405 12 l402 2 -455 7
c-250 3 -492 7 -537 8 l-83 1 0 60 0 60 235 0 c228 0 235 1 235 20 0 24 -163
20 1380 29 l1085 7 -962 2 c-849 2 -963 4 -963 17 0 13 -37 15 -270 15 -173 0
-270 4 -270 10 0 6 -85 10 -234 10 l-235 0 -4 23 c-4 21 -4 21 -6 1 -2 -30
-31 -34 -262 -34 l-199 0 0 578 c0 317 -5 1386 -10 2375 l-9 1797 -129 188
-128 187 -605 3 -604 3 -75 122 c-73 118 -77 122 -113 125 l-37 3 0 60 c0 46
3 59 15 59 11 0 15 11 15 40 0 22 5 40 10 40 6 0 10 32 10 75 l0 75 60 0 60 0
0 35 0 35 562 0 562 0 58 57 58 57 0 256 0 256 -43 42 -43 42 -102 0 -102 0 0
225 0 225 -75 0 -75 0 0 110 0 110 68 0 67 0 78 78 77 77 0 423 c0 356 2 422
14 422 19 0 61 48 336 388 232 285 235 289 238 253 2 -20 13 -46 24 -59 20
-20 30 -22 138 -22 l117 0 23 78 c12 42 28 84 35 92 16 19 85 248 79 264 -2 6
20 90 49 186 39 131 57 176 70 178 10 2 17 -3 17 -12 0 -14 16 -16 105 -16 87
0 105 3 105 15 0 8 6 15 13 15 11 0 15 -56 20 -280 4 -155 4 -324 1 -378 -6
-94 -6 -98 18 -120 23 -21 32 -23 138 -20 l113 3 23 73 c12 40 27 79 34 87 16
19 80 233 80 270 0 17 25 109 54 205 l54 175 -49 3 c-35 2 -49 7 -49 18 0 12
-35 14 -224 14 -186 0 -225 2 -229 14 -4 10 173 219 490 580 l496 566 88 0 89
0 0 100 0 100 -90 0 c-83 0 -90 -1 -90 -20 0 -19 -7 -20 -125 -20 l-125 0 0
70 0 70 265 0 265 0 0 60 0 60 95 0 c57 0 95 4 95 10 0 6 -38 10 -95 10 -88 0
-95 1 -95 20 0 18 8 20 98 23 l97 3 -97 2 -98 2 0 55 0 55 435 0 435 0 0 60 0
60 90 0 90 0 0 -125 0 -125 120 0 c73 0 120 -4 120 -10 0 -5 -7 -10 -16 -10
-12 0 -14 -7 -9 -30 l7 -30 -155 0 c-115 0 -157 -3 -160 -12 -4 -10 -6 -10 -6
0 -1 9 -76 12 -341 12 l-340 0 0 -612 c0 -337 3 -711 7 -831 l6 -218 29 -15
28 -15 0 -552 0 -553 -30 -17 -30 -18 0 -353 0 -353 173 -6 c94 -4 290 -7 435
-7 l263 0 38 37 38 38 299 1060 c164 583 297 1071 297 1085 -1 23 20 110 68
272 l19 67 116 72 c63 40 119 78 123 83 10 13 171 588 171 610 0 9 -30 62 -67
120 l-68 105 -333 0 -334 1 7 30 c5 23 3 30 -9 30 -9 0 -16 5 -16 10 0 6 35
10 85 10 l85 0 0 125 0 125 205 0 205 0 0 -105 0 -105 170 0 170 0 0 -25 c0
-14 5 -25 10 -25 6 0 10 -32 10 -75 0 -68 -2 -75 -20 -75 -20 0 -20 -5 -17
-290 3 -219 7 -293 17 -305 10 -12 30 -15 88 -13 l76 3 14 55 c7 30 17 59 21
65 5 5 18 51 29 100 26 111 80 332 88 363 6 22 6 22 -120 22 l-126 0 0 63 c0
34 3 79 6 100 l7 37 187 0 187 0 7 -37 c3 -21 6 -66 6 -100 0 -56 -2 -63 -20
-63 -11 0 -20 -4 -20 -10 0 -6 63 -10 170 -10 107 0 170 4 170 10 0 6 -48 10
-125 10 l-125 0 0 63 c0 34 3 79 6 100 l7 37 208 0 209 0 0 105 0 105 60 0 60
0 0 55 0 55 -40 0 c-22 0 -40 5 -40 10 0 6 73 10 200 10 115 0 200 4 200 9 0
42 10 41 -436 41 -462 0 -430 4 -426 -52 2 -17 -35 -18 -638 -18 l-640 0 0
203 0 204 -65 86 -66 87 -239 0 c-207 0 -240 -2 -240 -15 0 -10 -11 -15 -35
-15 -31 0 -35 3 -35 25 l0 25 274 0 274 0 82 155 c44 85 83 155 84 155 2 0 43
-18 90 -40 l86 -39 0 -41 c0 -24 -8 -53 -18 -68 -29 -42 -34 -52 -25 -52 4 0
20 18 36 39 l27 39 0 181 c0 100 1 182 3 183 1 1 254 5 562 8 l560 6 -565 4
c-550 5 -540 5 385 10 l950 5 -910 3 -910 3 175 72 175 73 3 40 3 40 119 23
c156 30 150 20 150 241 0 221 6 211 -150 241 l-119 23 -3 40 -3 41 -175 72
c-96 40 -192 76 -212 79 l-38 7 0 98 0 98 158 4 157 3 -157 2 -158 2 0 35 0
35 248 3 247 2 -247 3 -248 2 0 51 c0 39 -6 60 -27 90 -16 21 -32 39 -36 39
-9 0 -4 -10 25 -52 10 -15 18 -44 18 -67 l0 -40 -86 -41 c-48 -22 -88 -40 -90
-40 -1 0 -39 70 -84 155 l-81 155 -275 0 -274 0 0 25 c0 22 4 25 35 25 24 0
35 -5 35 -15 0 -13 33 -15 240 -15 l240 0 65 88 65 87 0 203 0 202 511 -2 511
-3 125 -194 125 -195 3 -80 3 -81 378 0 c293 0 378 3 382 13 2 6 -3 12 -12 12
-12 0 -16 10 -16 40 0 39 1 40 33 40 17 0 43 -9 57 -20 25 -19 54 -20 1985
-18 1078 0 2163 4 2410 7 277 4 -481 9 -1965 14 -1510 5 -2418 11 -2424 17 -7
7 14 10 57 10 56 0 68 3 77 20 11 20 23 20 1263 23 l1252 2 -1315 2 c-1150 3
-1319 1 -1344 -12 -37 -20 -56 -19 -56 2 0 9 -25 50 -56 90 -31 41 -54 77 -51
79 2 2 134 92 293 199 l288 195 268 0 c172 0 268 4 268 10 0 7 -202 10 -585
10 -383 0 -585 -3 -585 -10 0 -5 21 -10 46 -10 l45 0 -5 -52 c-3 -29 -8 -102
-12 -163 -6 -108 -15 -134 -49 -135 -6 0 -34 31 -63 70 -52 70 -68 120 -37
120 12 0 15 13 15 55 l0 55 -60 0 -60 0 0 105 0 105 -209 0 -208 0 -7 38 c-3
20 -6 65 -6 100 l0 62 126 0 c126 0 126 0 120 23 -18 67 -67 273 -81 342 -10
44 -24 94 -32 112 -8 18 -20 54 -27 80 l-12 48 -76 3 c-58 2 -78 -1 -88 -13
-10 -12 -14 -86 -17 -305 -3 -285 -3 -290 17 -290 18 0 20 -7 20 -62 0 -35 -3
-80 -6 -101 l-7 -37 -187 0 -187 0 -7 38 c-3 20 -6 65 -6 100 l0 62 126 0
c126 0 126 0 120 23 -9 31 -60 244 -86 357 -12 52 -26 100 -30 105 -5 6 -15
35 -22 65 l-14 55 -79 3 c-66 2 -80 0 -88 -14 -6 -10 -12 -146 -14 -306 -3
-283 -3 -288 17 -288 18 0 20 -7 20 -75 0 -43 -4 -75 -10 -75 -5 0 -10 -11
-10 -25 l0 -25 -170 0 -170 0 0 -105 0 -105 -205 0 -205 0 0 125 0 125 -85 0
c-50 0 -85 4 -85 10 0 6 7 10 16 10 12 0 14 7 9 30 l-7 30 336 0 c222 0 336 3
336 10 0 6 29 54 65 108 36 53 65 103 65 111 0 23 -162 595 -172 608 -5 6 -61
44 -123 83 l-114 71 -20 67 c-48 162 -69 249 -68 272 0 14 -133 502 -297 1085
l-299 1060 -38 38 -38 37 -263 0 c-145 0 -341 -3 -435 -7 l-173 -6 0 -351 0
-351 30 -20 30 -20 0 -552 0 -552 -28 -15 -29 -15 -6 -218 c-4 -120 -7 -494
-7 -830 l0 -613 339 0 c262 0 340 3 344 13 4 10 6 10 6 0 1 -10 39 -13 157
-13 l156 0 -7 -30 c-5 -23 -3 -30 9 -30 9 0 16 -4 16 -10 0 -6 -47 -10 -120
-10 l-120 0 0 -125 0 -125 -90 0 -90 0 0 60 0 60 -435 0 -435 0 0 55 0 54 98
4 97 3 -97 2 c-91 2 -98 4 -98 22 0 19 7 20 95 20 57 0 95 4 95 10 0 6 -38 10
-95 10 l-95 0 0 60 0 60 -265 0 -265 0 0 70 0 70 125 0 c118 0 125 -1 125 -20
0 -19 7 -20 90 -20 l90 0 0 100 0 100 -89 0 -88 0 -496 566 c-313 357 -494
571 -490 580 4 11 45 14 229 14 189 0 224 2 224 14 0 11 14 16 49 18 l49 3
-54 175 c-29 96 -53 189 -54 205 0 37 -64 251 -80 270 -6 7 -21 47 -34 87
l-22 73 -113 3 c-107 3 -116 1 -139 -20 -24 -22 -24 -26 -18 -120 3 -54 3
-223 -1 -378 -5 -224 -9 -280 -20 -280 -7 0 -13 7 -13 15 0 12 -18 15 -105 15
-87 0 -105 -3 -105 -15 0 -13 -36 -15 -265 -15 l-265 0 0 -25 0 -25 265 0
c170 0 265 -4 265 -10 0 -5 15 -10 34 -10 33 0 56 -25 527 -562 270 -310 506
-578 522 -595 l31 -33 -87 0 -87 0 0 70 0 70 -1015 0 -1015 0 0 130 0 130 665
0 665 0 0 228 0 227 -677 173 c-373 95 -690 173 -705 172 l-28 0 0 80 0 80
380 0 380 0 0 201 0 201 -32 42 c-102 129 -607 747 -636 779 -20 20 -42 37
-49 37 -10 0 -13 83 -13 423 l0 422 -78 78 -77 77 -68 0 -67 0 0 110 0 110 75
0 75 0 0 225 0 225 102 0 102 0 43 42 43 42 0 256 0 256 -58 57 -58 57 -562 0
-562 0 0 35 0 35 -60 0 -60 0 0 80 c0 47 -4 80 -10 80 -5 0 -10 16 -10 35 0
24 -5 35 -15 35 -12 0 -15 13 -15 59 l0 60 37 3 c36 3 40 7 113 125 l75 122
604 3 604 3 129 187 129 187 9 1798 c5 989 10 2058 10 2376 l0 577 199 0 c230
0 258 -4 264 -34 4 -20 4 -20 6 2 l1 22 235 0 c150 0 235 4 235 10 0 6 97 10
270 10 233 0 270 2 270 15 0 13 114 15 963 17 l962 2 -1085 7 c-1543 9 -1380
5 -1380 29 0 19 -7 20 -235 20 l-235 0 0 60 0 60 88 1 c48 1 278 5 512 8 l425
7 -377 2 c-228 1 -378 6 -380 12 -2 7 -180 14 -290 11 -22 -1 -25 -41 -3 -41
12 0 15 -13 15 -60 0 -53 -2 -60 -20 -60 -13 0 -20 -7 -20 -20 0 -19 -7 -20
-209 -20 l-209 0 6 925 5 925 -121 0 -122 0 5 108 c9 185 25 708 25 807 l0 94
-130 73 -130 73 0 1850 1 1850 127 75 127 76 3 272 c2 264 3 272 22 272 11 0
20 5 20 10 0 7 528 10 1565 10 1037 0 1565 3 1565 10 0 7 -528 10 -1565 10
-1384 0 -1565 2 -1565 15 0 8 -9 15 -20 15 -19 0 -20 7 -20 105 l0 105 30 0
30 0 0 1375 0 1375 175 0 c168 0 175 1 175 20 0 20 7 20 440 20 433 0 440 0
440 20 0 20 7 20 1565 20 1384 0 1565 2 1565 15 0 13 -181 15 -1565 15 -1037
0 -1565 3 -1565 10 0 7 -153 10 -440 10 l-440 0 0 25 0 25 -175 0 c-149 0
-175 2 -175 15 0 13 -20 15 -120 15 l-120 0 0 88 0 89 197 6 c108 4 332 8 497
9 253 1 280 3 166 9 -74 3 -240 7 -367 8 -226 1 -233 2 -233 21 0 19 -7 20
-255 20 l-255 0 0 -35z m240 -125 l0 -90 -90 0 -90 0 0 90 0 90 90 0 90 0 0
-90z m-3620 -17455 c0 -131 -2 -155 -15 -155 -10 0 -15 -10 -15 -30 l0 -30
-400 0 -400 0 0 30 c0 17 -4 30 -10 30 -6 0 -10 58 -10 155 l0 155 425 0 425
0 0 -155z m500 130 l0 -25 985 0 985 0 0 25 0 25 140 0 140 0 0 -225 0 -225
75 0 75 0 0 -110 0 -110 -64 0 -64 0 -143 150 -143 150 -1053 0 -1053 0 0 30
c0 17 -4 30 -10 30 -6 0 -10 58 -10 155 l0 155 70 0 c68 0 70 -1 70 -25z
m-4360 -1500 l0 -165 -70 0 -70 0 0 -65 0 -65 -30 0 -30 0 0 65 c0 46 -4 65
-12 64 -7 0 -74 -10 -148 -22 l-135 -22 -3 -358 c-1 -196 1 -357 5 -357 5 0
62 -9 128 -20 176 -29 165 -31 165 40 l0 60 30 0 30 0 0 -65 0 -65 70 0 70 0
0 -240 0 -240 -280 0 -280 0 0 810 0 810 280 0 280 0 0 -165z m180 -870 l0
-25 300 0 300 0 0 -55 0 -55 60 0 60 0 0 -225 0 -225 -270 0 -270 0 0 125 0
125 -40 0 -40 0 0 -125 0 -125 -60 0 -60 0 0 305 c0 197 4 305 10 305 6 0 10
-11 10 -25z m4263 -332 l148 -193 215 0 214 0 0 -55 0 -55 -52 -2 -53 -2 53
-3 52 -4 0 -240 0 -239 -65 0 -65 0 0 -210 0 -210 -142 0 -141 0 -579 -157
-578 -157 0 -38 0 -38 -770 0 -770 0 0 627 0 627 -47 48 c-29 30 -56 48 -70
48 -23 0 -23 1 -23 125 l0 125 -40 0 -40 0 0 -125 0 -125 -25 0 -25 0 0 225 0
225 1327 -2 1327 -3 149 -192z m1067 -243 l0 -50 -115 0 -115 0 0 50 0 50 115
0 115 0 0 -50z m5 -80 c4 -6 -13 -10 -44 -10 l-51 0 0 -224 0 -223 -72 -6
c-40 -3 -75 -3 -77 -2 -1 2 0 110 4 239 l8 236 113 0 c64 0 115 -4 119 -10z
m1385 -130 l0 -130 -135 0 -135 0 0 125 0 125 -155 0 -155 0 0 -125 0 -125
-55 0 -55 0 0 130 0 130 345 0 345 0 0 -130z m-7850 -260 l0 -80 -150 0 -150
0 -45 68 -45 67 27 12 c18 8 88 12 196 13 l167 0 0 -80z m0 -975 l0 -115 -225
0 c-124 0 -225 2 -225 5 0 3 34 55 76 115 l76 110 149 0 149 0 0 -115z m-30
-490 l0 -225 -188 0 -189 0 -21 98 c-16 72 -22 130 -22 225 l0 127 210 0 210
0 0 -225z m15095 -13 c-17 -15 -415 -282 -420 -282 -7 0 -6 143 2 223 l6 67
210 0 c116 0 207 -4 202 -8z m-3295 -137 c0 -13 21 -15 128 -15 l129 0 6 -122
c4 -66 7 -159 7 -205 l0 -83 -35 0 -35 0 0 100 0 100 -705 0 -705 0 0 -100 0
-100 -55 0 -55 0 0 200 0 200 265 0 c258 0 265 1 265 20 0 20 7 20 395 20 344
0 395 -2 395 -15z m2700 -505 l0 -40 -170 0 -170 0 0 40 0 40 170 0 170 0 0
-40z m-3910 -85 c0 -24 -3 -25 -55 -25 -52 0 -55 1 -55 25 0 24 3 25 55 25 52
0 55 -1 55 -25z m2300 -421 l0 -135 -32 3 c-30 3 -37 11 -82 93 -27 49 -45 90
-40 92 5 2 41 21 79 42 39 22 71 40 73 40 1 1 2 -60 2 -135z m0 -1288 l0 -134
-57 30 c-32 17 -68 37 -81 45 l-22 14 47 89 c45 85 50 90 81 90 l32 0 0 -134z
m-2300 -421 c0 -24 -3 -25 -55 -25 -52 0 -55 1 -55 25 0 24 3 25 55 25 52 0
55 -1 55 -25z m0 -265 l0 -100 705 0 705 0 0 100 0 100 35 0 35 0 0 -83 c0
-46 -3 -139 -7 -205 l-6 -122 -129 0 c-107 0 -128 -2 -128 -15 0 -13 -51 -15
-395 -15 -388 0 -395 0 -395 20 0 19 -7 20 -265 20 l-265 0 0 200 0 200 55 0
55 0 0 -100z m-10590 -475 l0 -225 -210 0 -210 0 0 128 c0 94 6 152 22 225
l21 97 189 0 188 0 0 -225z m30 -490 l0 -115 -149 0 -150 0 -75 110 c-42 61
-76 113 -76 115 0 3 101 5 225 5 l225 0 0 -115z m4400 -123 l0 -37 583 -158
582 -158 138 1 137 0 0 -210 0 -210 65 0 65 0 0 -240 0 -240 -52 -2 -53 -2 53
-3 52 -4 0 -55 0 -54 -214 0 -215 0 -150 -195 -151 -195 -1325 0 -1325 0 0
225 0 225 25 0 25 0 0 -125 0 -125 40 0 40 0 0 125 c0 122 0 125 22 125 13 0
42 20 70 47 l48 47 0 628 0 628 770 0 770 0 0 -38z m6153 -80 c-37 -42 -272
-310 -522 -595 -431 -491 -455 -517 -487 -517 -19 0 -34 -4 -34 -10 0 -6 -95
-10 -265 -10 -229 0 -265 -2 -265 -15 0 -8 -4 -15 -10 -15 -6 0 -10 -27 -10
-60 l0 -60 -310 0 -310 0 0 85 0 85 48 0 c29 0 302 65 704 167 l658 168 0 228
0 227 -665 0 -665 0 0 130 0 130 1015 0 1015 0 0 70 0 70 86 0 86 0 -69 -78z
m-10553 -772 l0 -80 -167 0 c-108 1 -178 5 -196 13 l-27 12 45 68 45 67 150 0
150 0 0 -80z m6326 70 l44 0 0 -225 0 -225 51 0 c31 0 48 -4 44 -10 -4 -6 -55
-10 -121 -10 l-114 0 0 68 c0 37 -3 145 -7 241 l-6 174 33 -6 c18 -4 52 -7 76
-7z m1524 -325 l0 -135 -345 0 -345 0 0 130 0 130 55 0 55 0 0 -125 0 -125
155 0 155 0 0 125 0 124 133 4 c72 1 133 4 135 5 1 1 2 -59 2 -133z m-1390
-215 l0 -50 -115 0 -115 0 0 50 0 50 115 0 115 0 0 -50z m-5510 -230 l0 -240
-70 0 -70 0 0 -65 0 -65 -30 0 -30 0 0 64 0 63 -77 -13 c-43 -7 -111 -18 -151
-24 l-72 -12 2 -356 3 -357 110 -17 c61 -9 127 -19 148 -22 l37 -6 0 65 0 65
30 0 30 0 0 -65 0 -65 70 0 70 0 0 -165 0 -165 -280 0 -280 0 0 810 0 810 280
0 280 0 0 -240z m280 115 l0 -125 40 0 40 0 0 125 0 125 270 0 270 0 0 -225 0
-225 -60 0 -60 0 0 -55 0 -55 -300 0 -300 0 0 -25 c0 -14 -4 -25 -10 -25 -6 0
-10 108 -10 305 l0 305 60 0 60 0 0 -125z m6480 -2295 l0 -110 -75 0 -75 0 0
-225 0 -225 -140 0 -140 0 0 25 0 25 -985 0 -985 0 0 -25 c0 -24 -2 -25 -70
-25 l-70 0 0 155 c0 97 4 155 10 155 6 0 10 14 10 30 l0 30 1053 0 1052 0 143
150 143 150 65 0 64 0 0 -110z m-2930 -220 c0 -20 5 -30 15 -30 13 0 15 -24
15 -155 l0 -155 -425 0 -425 0 0 155 c0 97 4 155 10 155 6 0 10 14 10 30 l0
30 400 0 400 0 0 -30z m3650 -17640 l0 -90 -90 0 -90 0 0 90 0 90 90 0 90 0 0
-90z"/>
</g>
</svg>
