<?xml version="1.0" standalone="no"?>
<!DOCTYPE svg PUBLIC "-//W3C//DTD SVG 20010904//EN"
 "http://www.w3.org/TR/2001/REC-SVG-20010904/DTD/svg10.dtd">
<svg version="1.0" xmlns="http://www.w3.org/2000/svg"
   viewBox="0 0 4927.000000 4409.000000"
 preserveAspectRatio="xMidYMid meet">
<metadata>
Created by potrace 1.16, written by Peter Selinger 2001-2019
</metadata>
<g transform="translate(0.000000,4409.000000) scale(0.100000,-0.100000)"
fill="#000000" stroke="none">
<path d="M22843 43955 l-172 -135 106 -178 c58 -97 165 -285 239 -417 l133
-240 75 -267 c117 -417 114 -392 82 -675 l-27 -238 45 -1270 c25 -698 46
-1302 46 -1342 l0 -71 -62 -49 -63 -50 -74 -409 -73 -409 -5 -510 -6 -510 47
-212 47 -212 -25 -38 c-22 -35 -43 -164 -260 -1658 -130 -891 -239 -1632 -242
-1647 -3 -17 -12 -28 -22 -28 -11 0 -88 -107 -213 -298 l-197 -297 -106 -1025
c-59 -564 -109 -1045 -112 -1070 l-6 -45 -61 3 -62 3 -60 -127 c-36 -77 -64
-151 -70 -188 l-10 -60 -2626 -577 c-1445 -317 -2645 -583 -2668 -592 -23 -10
-47 -17 -54 -17 -8 0 -26 30 -41 68 -44 106 -328 610 -456 807 -64 99 -120
186 -124 193 -5 8 -2 20 7 30 14 15 -10 105 -252 942 l-268 925 -254 203 -253
203 -248 752 c-137 414 -332 1005 -434 1314 l-185 562 -99 78 c-54 43 -99 81
-100 84 0 3 54 43 120 89 76 53 119 89 116 97 -3 7 -75 135 -161 283 -131 228
-197 328 -427 647 -232 322 -307 418 -510 650 l-238 271 -54 -12 c-32 -8 -75
-28 -106 -51 -43 -32 -54 -36 -64 -24 -8 8 -73 95 -145 194 l-132 180 -1265
1287 -1265 1288 -100 -50 -99 -50 -29 32 c-16 18 -205 238 -421 488 l-392 455
-260 188 -260 188 -222 61 -222 60 -88 -50 c-77 -44 -94 -59 -144 -128 l-56
-77 220 -216 c121 -119 318 -306 438 -416 195 -178 256 -242 554 -585 184
-212 345 -396 357 -410 l23 -25 -39 -177 -39 -177 1025 -1550 c983 -1485 1027
-1550 1058 -1553 l32 -3 -53 -34 c-28 -18 -50 -36 -48 -40 227 -408 332 -574
597 -941 211 -293 320 -433 453 -585 l176 -200 0 -87 c0 -48 4 -98 10 -112 7
-19 1137 -1668 1511 -2206 l38 -55 17 -335 17 -335 485 -655 c267 -360 490
-661 495 -668 8 -10 7 -16 -1 -21 -8 -5 10 -59 62 -181 81 -191 354 -693 476
-875 l70 -104 -33 -6 c-17 -3 -144 -19 -282 -35 -137 -17 -1568 -217 -3180
-445 l-2930 -415 -974 -175 -974 -175 -740 -202 -740 -202 -498 -282 -498
-282 -498 -152 c-274 -83 -503 -158 -508 -165 -6 -7 -19 -120 -29 -251 -10
-132 -19 -239 -20 -240 0 -1 -221 -56 -491 -123 -269 -67 -506 -126 -525 -131
l-36 -10 17 -262 c10 -145 14 -266 11 -269 -4 -4 -61 -17 -126 -29 l-119 -23
-776 -382 -776 -382 -206 -250 c-143 -175 -209 -263 -217 -292 -9 -29 -11 -83
-6 -183 4 -98 1 -212 -11 -363 -26 -335 -29 -1506 -5 -1850 10 -147 15 -314
13 -405 -3 -113 -1 -165 9 -191 7 -20 103 -147 213 -282 l200 -245 780 -380
780 -380 120 -7 c66 -3 120 -7 121 -8 2 -1 -7 -134 -18 -295 -12 -170 -17
-296 -12 -301 5 -4 243 -68 529 -141 286 -73 521 -134 521 -134 1 -1 9 -100
19 -221 9 -121 20 -223 23 -226 4 -4 237 -79 518 -168 l511 -161 484 -276 484
-277 735 -204 735 -204 975 -180 975 -180 2890 -420 c1590 -231 3029 -438
3200 -460 170 -22 311 -41 312 -43 1 -1 -31 -51 -71 -112 -123 -184 -382 -655
-457 -829 -67 -157 -68 -160 -49 -177 11 -9 20 -19 20 -23 0 -3 -224 -307
-498 -673 -274 -367 -502 -673 -506 -680 -4 -6 -15 -162 -25 -345 l-19 -333
-789 -1151 -790 -1150 -7 -103 -7 -103 -170 -191 c-256 -287 -646 -826 -837
-1157 -78 -135 -142 -250 -142 -256 0 -5 31 -31 70 -58 39 -27 70 -50 70 -53
0 -3 -57 -82 -127 -175 -71 -94 -581 -855 -1135 -1691 l-1007 -1521 27 -30
c15 -16 36 -40 46 -52 l18 -22 -321 -368 c-281 -321 -351 -395 -549 -577 -125
-115 -329 -307 -454 -428 l-228 -220 54 -76 c48 -68 64 -83 143 -129 l90 -52
221 59 222 59 261 188 262 188 391 449 c215 247 394 453 397 458 4 6 386 37
471 38 15 0 2628 2732 2628 2748 0 9 -9 55 -20 102 -10 46 -18 86 -16 87 1 1
45 -27 97 -62 70 -48 105 -66 139 -71 l45 -5 210 238 c300 340 663 838 862
1183 78 135 144 252 147 260 4 11 -32 41 -124 105 -71 50 -128 93 -127 96 1 4
57 50 124 103 l121 96 60 178 c440 1307 846 2490 860 2504 9 9 125 102 256
206 l239 190 272 923 c250 847 271 925 258 946 -13 20 -8 32 98 190 122 181
434 725 477 831 15 35 33 67 40 70 8 2 29 -3 49 -12 25 -12 5247 -1186 5276
-1186 3 0 8 -24 12 -52 5 -34 29 -96 67 -172 l60 -119 69 6 c65 6 69 5 73 -16
3 -12 53 -501 111 -1087 58 -586 109 -1073 113 -1082 4 -10 93 -148 197 -308
166 -253 193 -290 213 -286 12 2 22 2 22 1 0 -1 124 -725 275 -1609 151 -883
275 -1611 275 -1616 0 -6 -13 -10 -30 -10 -22 0 -31 -5 -35 -22 -3 -13 -32
-151 -66 -308 l-60 -285 6 -470 6 -470 77 -383 77 -384 77 -35 78 -36 -5 -51
c-3 -28 -24 -657 -47 -1398 -42 -1335 -42 -1349 -25 -1507 l17 -159 -35 -158
c-19 -88 -68 -275 -108 -416 l-74 -257 -123 -223 c-68 -123 -175 -308 -237
-411 -62 -104 -113 -192 -113 -196 0 -9 310 -258 332 -266 33 -13 234 38 428
107 l205 73 166 213 166 213 48 227 c26 125 73 347 104 494 l57 267 163 187
164 187 348 1575 c192 866 351 1577 354 1580 3 3 121 12 262 20 142 8 259 16
261 17 2 2 32 140 67 308 l65 306 -7 473 -6 473 -76 378 -77 378 -94 45 -95
45 -125 -6 c-69 -3 -158 -8 -198 -12 l-72 -6 30 72 29 72 -628 1715 -628 1715
99 241 100 241 -383 896 c-211 493 -406 950 -435 1016 -28 66 -51 121 -50 122
1 1 688 -52 1526 -119 l1525 -121 1935 181 1935 180 95 -54 c77 -43 97 -51
105 -40 8 10 175 -99 785 -516 426 -290 838 -572 916 -624 l141 -96 252 56
c206 46 256 54 274 45 12 -7 708 -400 1547 -874 839 -474 1532 -866 1541 -871
15 -8 10 -26 -42 -159 -32 -82 -59 -154 -59 -160 0 -17 533 -265 980 -455 602
-257 1109 -452 1178 -454 l54 -1 28 70 c21 52 33 70 47 69 10 -1 626 -250
1368 -554 l1350 -553 295 60 295 59 205 -105 c113 -59 277 -151 365 -205 192
-119 440 -240 628 -307 l138 -49 14 33 c7 17 24 60 38 94 l25 62 -16 102 -16
101 -157 136 -157 136 -443 243 c-244 134 -446 246 -450 251 -4 4 8 54 26 112
19 57 31 108 27 111 -47 43 -657 449 -1657 1103 -671 439 -1226 804 -1233 810
-11 11 0 45 56 187 39 96 69 174 69 175 -1 1 -130 62 -287 136 -360 171 -1055
468 -1496 638 -296 114 -345 131 -389 128 l-49 -3 -44 -113 c-38 -98 -46 -111
-59 -100 -8 7 -704 283 -1547 613 -1492 585 -1531 601 -1527 625 2 14 4 30 5
37 2 20 -532 492 -567 501 -28 7 27 39 724 411 l754 403 640 638 640 637 495
106 495 107 695 79 c466 53 715 86 756 99 37 11 209 105 425 230 l364 211 774
326 c426 179 780 324 787 321 7 -3 103 -80 213 -171 110 -91 204 -165 210
-165 6 0 35 13 64 29 l52 30 510 -409 c457 -367 514 -409 546 -410 32 0 75
-31 384 -279 319 -257 349 -283 371 -331 l24 -52 36 21 c19 12 40 18 46 15 6
-4 180 -135 387 -292 656 -498 706 -535 693 -521 -7 8 -241 208 -520 445
l-507 430 3 44 c3 49 -7 60 -54 60 -27 0 -92 48 -386 284 -308 246 -355 288
-363 319 -9 31 -72 85 -517 442 -299 240 -508 414 -508 424 0 9 6 39 14 68 16
61 29 44 -142 178 -63 48 -110 91 -105 95 4 4 194 119 422 254 333 199 433
263 515 333 116 99 231 177 250 170 7 -3 446 -318 975 -701 528 -383 964 -696
969 -696 4 0 44 25 89 56 l82 56 63 -44 c35 -24 458 -322 940 -661 l877 -617
59 0 59 0 639 -450 c351 -247 642 -456 646 -462 5 -7 17 -39 29 -70 l20 -57
48 34 c27 19 53 35 60 35 6 0 415 -269 909 -598 1019 -680 922 -616 922 -603
0 5 -396 302 -879 661 l-879 651 18 65 19 64 -72 0 -72 1 -644 453 -644 453
-21 57 -21 56 -925 651 c-509 357 -930 656 -937 662 -9 9 -5 33 16 107 16 52
28 96 27 96 0 1 -418 287 -927 636 l-927 635 154 137 c85 75 154 143 154 150
0 41 82 662 88 667 4 4 115 78 247 166 l241 160 291 389 291 389 106 364 106
364 -76 286 c-41 157 -81 309 -89 337 -12 40 -81 141 -320 469 l-305 417 -247
167 -247 166 -38 315 c-20 173 -37 325 -38 337 0 15 -52 68 -175 179 -138 124
-173 160 -163 170 7 6 442 303 966 659 524 356 951 653 949 659 -2 6 -16 48
-32 94 -26 80 -26 84 -9 97 11 7 443 310 960 672 l942 658 17 52 18 53 654
456 c563 394 659 458 691 459 20 0 54 2 74 3 l37 2 -21 61 c-17 52 -18 63 -7
70 8 5 381 280 829 611 459 340 816 611 818 621 2 12 -315 -194 -853 -553
-471 -314 -863 -574 -870 -576 -7 -3 -35 11 -63 30 -27 20 -52 36 -54 36 -3 0
-13 -28 -22 -62 l-18 -63 -663 -462 -664 -463 -59 0 -59 0 -953 -665 -952
-666 -69 48 c-38 26 -77 53 -87 60 -15 10 -161 -92 -1032 -717 l-1014 -728
-46 31 c-25 17 -90 70 -145 117 -79 67 -187 138 -512 334 -227 137 -413 252
-413 255 0 3 42 38 94 76 92 70 93 70 126 155 19 47 34 95 34 108 1 18 104
103 490 405 436 341 491 386 504 422 13 35 57 73 380 325 202 157 369 284 372
283 54 -17 56 -16 74 32 12 31 15 50 8 58 -7 9 132 129 519 451 291 241 529
440 529 442 0 4 -20 -11 -684 -505 -350 -260 -422 -309 -433 -298 -11 10 -25
11 -63 3 -47 -9 -49 -11 -47 -42 2 -31 -11 -42 -356 -312 -308 -241 -365 -282
-409 -292 -44 -11 -113 -61 -532 -389 -264 -207 -487 -381 -495 -385 -9 -6
-18 -4 -26 7 -10 14 -20 13 -106 -7 l-94 -22 -169 -135 c-92 -73 -173 -133
-180 -131 -6 2 -355 150 -776 328 l-765 325 -375 218 c-206 119 -400 225 -430
234 -31 10 -366 54 -765 102 l-710 85 -485 108 -485 108 -1375 1037 c-756 571
-1376 1042 -1378 1046 -2 5 9 12 23 15 15 4 148 115 295 246 233 207 269 243
267 266 l-2 27 1523 508 1522 507 73 66 72 65 44 -87 c24 -48 45 -88 46 -90
10 -11 484 240 1230 651 320 176 938 521 953 533 2 1 -12 32 -32 67 l-37 65
1308 807 c720 444 1309 809 1311 810 2 2 29 114 59 249 l57 245 429 233 c465
252 419 222 714 479 30 26 34 37 49 129 l17 101 -38 95 c-30 77 -41 94 -54 89
-9 -4 -72 -26 -141 -50 -168 -58 -405 -175 -634 -312 -103 -63 -282 -161 -396
-218 l-207 -104 -104 105 c-77 78 -109 104 -124 101 -11 -2 -684 -254 -1496
-560 -1018 -383 -1490 -565 -1519 -586 -23 -17 -45 -29 -49 -27 -3 2 -28 49
-55 104 l-49 100 -47 -18 c-90 -36 -1298 -691 -1838 -998 -189 -107 -195 -109
-232 -100 l-39 10 -1493 -943 c-821 -519 -1502 -943 -1513 -943 -11 1 -124 25
-251 54 l-231 53 -884 -598 c-882 -597 -1084 -725 -1143 -725 -17 0 -902 85
-1966 189 l-1935 188 -1512 -115 c-832 -64 -1515 -113 -1519 -110 -3 3 191
461 431 1016 l436 1011 -96 232 c-52 128 -95 236 -95 241 0 5 309 763 686
1685 l687 1676 -32 76 c-17 42 -31 80 -31 84 0 5 58 5 129 1 l129 -7 94 72
c51 40 96 80 100 89 4 9 39 195 77 412 l70 395 7 505 7 505 -63 292 c-35 161
-67 298 -71 305 -6 9 -88 18 -265 30 -141 9 -260 20 -264 25 -4 4 -150 683
-325 1508 -227 1076 -321 1506 -334 1520 -48 55 -218 252 -230 268 -8 9 -64
260 -125 557 l-112 540 -164 214 -165 214 -230 80 c-126 45 -261 86 -300 92
-38 7 -77 14 -85 16 -8 2 -92 -57 -187 -131z"/>
</g>
</svg>
