<?xml version="1.0" standalone="no"?>
<!DOCTYPE svg PUBLIC "-//W3C//DTD SVG 20010904//EN"
 "http://www.w3.org/TR/2001/REC-SVG-20010904/DTD/svg10.dtd">
<svg version="1.0" xmlns="http://www.w3.org/2000/svg"
   viewBox="0 0 4160.000000 1699.000000"
 preserveAspectRatio="xMidYMid meet">
<metadata>
Created by potrace 1.16, written by Peter Selinger 2001-2019
</metadata>
<g transform="translate(0.000000,1699.000000) scale(0.100000,-0.100000)"
fill="#000000" stroke="none">
<path d="M11865 16939 l-660 -49 -238 -67 -237 -67 2 -590 3 -591 123 -32 c68
-17 126 -33 128 -35 3 -3 -502 -1463 -662 -1914 l-25 -71 -460 -6 -460 -6
-347 -284 c-1107 -904 -1317 -1062 -1637 -1232 l-190 -102 -3 -110 -3 -111
-29 -6 -30 -6 0 -80 c0 -76 -1 -80 -22 -80 -1816 18 -3637 30 -4495 30 l-1113
0 0 -148 0 -149 -242 -73 c-134 -40 -258 -77 -275 -82 l-33 -9 0 -764 0 -765
689 0 c499 0 690 -3 693 -11 2 -7 50 -15 118 -20 63 -4 117 -8 119 -8 2 -1 0
-162 -3 -358 l-7 -358 88 -50 88 -50 650 2 c358 1 808 5 1000 10 193 5 351 9
352 8 0 0 -81 -57 -181 -126 l-182 -126 -674 -73 c-577 -62 -678 -76 -695 -91
-13 -13 -30 -68 -57 -185 -20 -92 -39 -168 -41 -171 -2 -2 -58 -8 -123 -14
-65 -6 -119 -11 -120 -12 -1 -1 -79 -115 -173 -253 l-170 -252 -3 -152 -3
-153 -43 -15 -42 -14 2 -221 3 -220 43 -15 42 -14 0 -151 0 -152 170 -249 c93
-137 171 -250 173 -253 2 -2 58 -8 123 -14 65 -6 120 -12 122 -13 1 -2 19 -77
39 -167 23 -105 42 -171 53 -183 16 -16 103 -28 696 -93 l678 -75 181 -125
180 -125 -265 6 c-956 22 -1340 28 -1523 23 l-209 -6 -134 -53 -134 -53 7
-316 6 -316 -54 -6 c-30 -4 -82 -7 -116 -7 l-63 0 0 -71 0 -70 -102 5 c-158 9
-2119 69 -2122 65 -20 -22 -44 -2084 -29 -2429 l8 -185 1510 -32 c831 -17
1598 -32 1705 -32 107 -1 1431 4 2942 10 l2747 10 108 -89 c103 -85 127 -99
468 -270 l360 -179 575 -151 575 -151 534 -61 534 -61 1801 75 c1387 58 1841
80 1975 96 96 11 177 22 179 25 2 2 -1 70 -8 152 -13 169 4 136 -162 308 -100
104 -128 161 -128 261 l0 62 183 6 c339 11 2491 29 2607 22 l115 -8 2 -255 c1
-140 3 -257 5 -259 2 -2 145 -12 318 -24 439 -28 1158 -80 1198 -86 22 -3 32
-10 32 -23 0 -9 95 -138 211 -286 l211 -269 319 -142 320 -142 533 -48 533
-48 480 87 480 86 305 172 306 173 233 311 233 311 761 108 c706 101 903 134
2780 466 1111 197 2021 357 2022 356 1 -1 9 -33 17 -70 7 -37 17 -70 20 -73 3
-4 607 129 1342 296 735 166 1338 300 1340 299 1 -2 -256 -84 -572 -182 -315
-99 -572 -181 -570 -183 1 -2 372 103 824 232 451 129 827 235 834 235 9 0 28
-44 53 -119 30 -94 43 -121 59 -125 12 -3 61 -6 111 -6 49 0 85 -4 80 -8 -6
-5 -321 -105 -702 -223 -380 -117 -690 -215 -689 -217 2 -2 348 96 768 217
l764 220 155 -11 c246 -17 274 -14 413 42 67 26 167 61 222 78 l102 29 16 -59
16 -59 53 5 c28 3 160 8 292 12 l240 6 2065 828 c1843 739 2093 836 2326 909
232 72 295 96 550 214 159 73 368 177 464 231 l175 98 375 112 c206 62 411
130 456 150 l81 37 -31 60 c-37 70 -15 67 -264 36 -130 -17 -181 -20 -178 -11
2 7 -36 30 -93 56 l-98 45 -191 -23 c-105 -13 -397 -52 -649 -88 -846 -121
-1059 -139 -2398 -201 -643 -30 -1487 -64 -1875 -75 -388 -11 -932 -27 -1209
-35 -277 -9 -505 -14 -507 -12 -2 2 -91 245 -199 542 l-195 538 0 1036 0 1036
191 540 c104 297 191 540 193 542 1 1 211 -4 467 -12 255 -8 795 -24 1199 -35
404 -12 1273 -45 1930 -75 1170 -53 1203 -56 1595 -99 220 -25 589 -73 820
-106 231 -33 511 -71 623 -84 l203 -25 99 46 c71 33 97 49 93 60 -4 10 0 13
18 9 13 -3 105 -15 203 -26 200 -24 184 -27 229 51 l26 46 -87 41 c-55 26
-222 81 -452 148 l-365 106 -190 107 c-106 60 -317 164 -480 237 -246 111
-328 142 -545 209 -227 70 -484 171 -2317 906 l-2063 827 -292 4 -292 3 -15
-57 c-8 -32 -20 -58 -26 -58 -6 0 -107 38 -225 85 l-215 86 -190 -8 c-215 -9
-211 -9 -245 1 -16 5 -20 4 -12 -2 8 -6 -26 -11 -95 -15 l-109 -6 -724 234
c-399 128 -726 233 -727 231 -2 -2 279 -101 624 -221 346 -120 642 -224 660
-231 l32 -13 -26 -78 c-14 -43 -29 -81 -32 -85 -4 -4 -384 114 -845 262 -462
149 -841 269 -843 267 -1 -2 372 -134 829 -293 554 -193 834 -295 835 -304 8
-46 28 -50 -1611 321 -879 198 -1600 358 -1603 355 -3 -2 -12 -35 -19 -72 -8
-37 -16 -69 -18 -71 -1 -2 -916 159 -2032 356 -1877 333 -2085 368 -2779 467
l-750 107 -235 312 -235 311 -305 172 -305 171 -480 87 -480 87 -530 -48 -530
-48 -320 -142 -320 -141 -212 -270 c-117 -148 -213 -278 -213 -289 0 -20 -16
-22 -452 -53 -249 -18 -596 -42 -772 -52 -175 -11 -320 -21 -321 -22 -2 -2 -7
-87 -11 -189 l-7 -186 -229 -5 c-224 -5 -239 -4 -636 41 l-407 46 -467 340
c-256 187 -465 341 -465 341 1 1 402 12 891 25 489 13 883 25 877 27 -7 2
-414 -4 -906 -13 l-895 -17 -74 54 c-41 29 -75 56 -75 59 -1 4 167 11 372 16
l372 9 -395 3 -395 2 -238 178 -237 178 -152 6 c-83 4 -299 7 -479 7 l-328 0
-10 38 c-6 20 -88 351 -184 735 -169 675 -174 697 -153 702 11 2 300 19 641
37 341 18 607 34 591 36 -30 4 -1041 -33 -1182 -43 l-80 -6 -13 51 c-7 29 -9
55 -5 59 5 4 574 34 1264 67 690 32 1233 60 1205 62 -27 1 -590 -18 -1250 -43
-660 -25 -1210 -45 -1221 -45 -17 0 -23 10 -33 53 -6 28 -14 62 -17 73 -5 19
0 22 43 28 26 4 167 48 312 97 l265 90 250 153 c138 85 353 209 479 277 125
68 230 131 232 140 7 22 68 24 1505 49 635 11 1198 22 1250 24 52 2 -543 1
-1322 -1 l-1418 -4 -22 25 c-13 13 -124 79 -248 147 -124 67 -333 188 -465
269 l-240 147 -265 95 -265 95 -176 13 c-155 10 -180 10 -206 -3 -26 -14 -103
-14 -734 -2 -387 8 -717 14 -734 14 -16 -1 -327 -23 -690 -50z m16285 -7978
c0 -10 -179 -594 -183 -596 -6 -3 -1198 33 -1201 36 -7 7 -113 242 -166 368
-28 68 -48 127 -43 131 9 10 296 23 1033 50 272 9 510 18 528 19 17 0 32 -3
32 -8z m-3070 -166 c0 -3 -31 -145 -70 -316 -38 -172 -70 -314 -70 -316 0 -3
-64 29 -142 70 -79 41 -213 107 -298 147 -241 113 -339 171 -381 227 -33 45
-74 141 -65 151 5 4 786 38 939 41 48 0 87 -1 87 -4z m-8720 -489 l0 -94 -124
-97 -123 -98 -13 -136 c-17 -190 -17 -1871 0 -2061 l13 -136 123 -97 124 -98
0 -95 0 -94 -2960 0 -2959 0 46 68 c25 37 57 78 69 92 13 14 78 138 146 275
l123 250 0 865 0 865 -123 250 c-68 138 -134 261 -146 275 -13 14 -44 55 -70
93 l-48 67 2961 0 2961 0 0 -94z m8585 -2798 c54 -230 134 -602 130 -606 -6
-7 -1012 32 -1019 39 -11 11 28 105 61 149 22 29 64 62 116 94 73 43 681 344
699 345 4 1 10 -9 13 -21z m3064 -305 c102 -328 143 -465 139 -469 -6 -5
-1393 44 -1514 54 l-92 7 77 180 c43 99 93 213 111 253 l33 72 56 1 c31 1 236
7 456 13 220 7 466 14 547 14 l147 2 40 -127z"/>
<path d="M17458 15323 c12 -2 30 -2 40 0 9 3 -1 5 -23 4 -22 0 -30 -2 -17 -4z"/>
<path d="M17208 15313 c17 -2 47 -2 65 0 17 2 3 4 -33 4 -36 0 -50 -2 -32 -4z"/>
<path d="M16953 15303 c26 -2 68 -2 95 0 26 2 4 3 -48 3 -52 0 -74 -1 -47 -3z"/>
<path d="M15983 15123 c9 -2 25 -2 35 0 9 3 1 5 -18 5 -19 0 -27 -2 -17 -5z"/>
<path d="M15743 15113 c20 -2 54 -2 75 0 20 2 3 4 -38 4 -41 0 -58 -2 -37 -4z"/>
<path d="M17298 13193 c12 -2 30 -2 40 0 9 3 -1 5 -23 4 -22 0 -30 -2 -17 -4z"/>
<path d="M18413 13083 c32 -2 81 -2 110 0 29 2 3 3 -58 3 -60 0 -84 -1 -52 -3z"/>
<path d="M33825 2310 c-13 -5 -14 -9 -5 -9 8 0 24 4 35 9 13 5 14 9 5 9 -8 0
-24 -4 -35 -9z"/>
<path d="M33718 2273 c7 -3 16 -2 19 1 4 3 -2 6 -13 5 -11 0 -14 -3 -6 -6z"/>
<path d="M31435 2140 c-13 -5 -14 -9 -5 -9 8 0 24 4 35 9 13 5 14 9 5 9 -8 0
-24 -4 -35 -9z"/>
<path d="M31998 1903 c7 -3 16 -2 19 1 4 3 -2 6 -13 5 -11 0 -14 -3 -6 -6z"/>
</g>
</svg>
