<?xml version="1.0" standalone="no"?>
<!DOCTYPE svg PUBLIC "-//W3C//DTD SVG 20010904//EN"
 "http://www.w3.org/TR/2001/REC-SVG-20010904/DTD/svg10.dtd">
<svg version="1.0" xmlns="http://www.w3.org/2000/svg"
   viewBox="0 0 4766.000000 3458.000000"
 preserveAspectRatio="xMidYMid meet">
<metadata>
Created by potrace 1.16, written by Peter Selinger 2001-2019
</metadata>
<g transform="translate(0.000000,3458.000000) scale(0.100000,-0.100000)"
fill="#000000" stroke="none">
<path d="M9041 34569 c-255 -5 -466 -10 -468 -12 -4 -4 359 -6304 373 -6470
l6 -78 178 7 178 7 12 -39 c6 -21 94 -336 194 -699 l182 -660 -110 -6 c-61 -4
-163 -7 -226 -9 -63 -1 -124 -5 -135 -8 -20 -7 -19 -22 93 -1400 62 -767 111
-1396 108 -1399 -4 -4 -431 -21 -581 -23 l-50 0 -34 -93 c-21 -56 -38 -126
-44 -179 l-10 -88 -32 0 c-31 0 -34 -4 -64 -72 -26 -61 -34 -99 -47 -223 -34
-314 -8 -974 43 -1088 l16 -38 -40 -42 c-68 -71 -79 -99 -102 -262 -55 -388
-80 -1077 -62 -1744 6 -222 10 -405 9 -406 -2 -2 -192 -20 -423 -40 l-420 -38
-31 -29 -31 -29 -94 17 c-94 17 -98 17 -313 -10 l-217 -28 -332 -108 -332
-108 -690 -78 -690 -77 -799 -289 -800 -289 -885 -204 -886 -203 -348 -33
-348 -33 -245 13 -245 12 -70 -43 c-38 -23 -71 -50 -74 -58 -2 -8 -39 -145
-81 -305 l-76 -290 77 -295 c43 -162 80 -300 84 -307 3 -7 34 -30 69 -52 73
-48 53 -46 372 -30 224 11 226 11 570 -24 l345 -35 870 -202 870 -202 790
-285 790 -286 715 -82 715 -83 315 -105 315 -105 219 -28 c213 -27 220 -27
315 -12 l96 16 30 -28 30 -27 420 -38 c231 -21 421 -39 423 -40 1 -1 -3 -184
-9 -406 -15 -563 7 -1346 46 -1639 19 -144 40 -260 53 -284 8 -16 35 -51 60
-78 l45 -48 -17 -43 c-50 -128 -76 -768 -42 -1082 13 -124 21 -162 47 -223 30
-68 33 -72 64 -72 l32 0 10 -88 c6 -53 23 -123 44 -179 l34 -93 40 0 c125 -1
588 -20 592 -24 2 -2 -47 -631 -109 -1398 l-113 -1393 23 -7 c12 -3 122 -10
242 -14 193 -6 220 -9 220 -23 0 -9 -85 -322 -189 -696 l-189 -680 -180 2
-180 2 -6 -77 c-14 -163 -377 -6465 -373 -6469 8 -7 1551 -33 1558 -25 4 4
419 1402 923 3108 l917 3100 -3 140 -3 139 -33 3 c-25 3 -32 7 -28 20 3 9 98
332 211 716 113 385 206 700 208 702 1 1 80 -3 174 -9 151 -9 175 -9 190 5 10
8 358 295 773 638 415 343 775 641 800 662 l46 38 419 -25 c230 -13 424 -21
430 -17 6 4 70 49 142 100 l131 93 6 67 c16 189 17 287 4 303 -27 35 -234 212
-256 220 -13 5 -44 9 -69 9 l-46 0 24 26 c13 14 41 39 61 55 l36 29 376 -21
375 -22 138 99 138 100 7 49 c3 28 9 109 13 180 l8 130 -130 117 c-71 64 -137
117 -148 119 -14 3 13 33 108 122 l126 119 363 -21 c508 -29 438 -38 599 74
l136 94 6 58 c4 32 9 114 13 183 l6 125 -113 100 c-144 128 -155 135 -208 135
l-43 0 115 110 c104 99 163 174 622 785 280 371 514 675 521 675 7 0 496 -137
1086 -304 l1073 -304 1360 -6 1360 -7 200 -25 200 -26 55 -61 c30 -34 73 -81
95 -105 l40 -43 1240 40 c924 31 1318 48 1545 66 168 14 324 25 347 25 40 0
47 -6 196 -149 107 -103 222 -200 374 -313 l218 -164 255 -78 255 -78 403 -36
402 -36 328 38 c742 85 1587 174 1593 168 4 -4 19 -59 34 -123 l27 -116 177
-6 c97 -4 290 -10 429 -13 l253 -7 147 -191 148 -191 74 -6 c141 -13 806 -22
823 -13 10 6 84 91 165 189 l148 180 372 3 371 2 50 158 c27 86 68 218 91 292
23 74 46 139 51 144 4 5 297 32 651 61 551 45 657 52 741 44 l98 -9 430 126
431 126 245 151 245 152 247 315 247 315 26 154 c15 84 29 156 32 158 3 3 169
58 370 123 336 109 395 124 728 195 200 42 369 77 377 78 9 1 27 -26 47 -72
20 -46 40 -78 52 -82 11 -4 66 -13 121 -20 l102 -12 373 119 373 119 11 89 c6
49 16 92 21 96 6 3 10 42 10 85 0 69 14 192 23 201 2 1 183 45 403 98 260 61
889 230 1793 480 1114 309 1406 386 1453 386 97 0 250 20 274 36 13 8 28 27
34 42 10 25 24 31 119 56 59 16 271 93 472 171 264 104 454 170 685 241 261
79 357 114 520 187 110 49 270 113 355 142 485 165 929 328 1065 390 95 43
294 204 272 220 -7 5 -58 46 -111 90 -72 59 -122 91 -194 123 -128 56 -541
208 -877 321 -167 57 -352 128 -484 187 -177 79 -271 113 -550 199 -238 74
-439 144 -691 243 -195 76 -404 152 -464 168 -100 27 -110 31 -124 61 -8 17
-24 36 -36 42 -24 12 -189 31 -272 31 -43 0 -380 89 -1457 386 -839 232 -1558
424 -1790 479 -213 51 -390 95 -393 97 -10 11 -25 127 -25 203 0 43 -4 82 -10
85 -5 4 -15 47 -21 96 l-11 89 -373 119 -372 118 -84 -11 c-172 -23 -153 -13
-190 -102 -23 -56 -37 -77 -48 -74 -8 2 -179 38 -380 80 -335 69 -395 85 -730
192 -201 64 -366 117 -367 118 -1 0 -14 73 -30 160 l-27 160 -247 315 -247
315 -248 151 -249 151 -428 127 -429 127 -96 -10 c-85 -9 -178 -3 -740 43
-353 29 -647 57 -651 62 -5 5 -28 70 -51 144 -23 74 -64 206 -91 292 l-50 158
-372 2 -371 3 -148 180 c-82 99 -158 184 -171 188 -22 9 -666 0 -811 -12 l-80
-6 -138 -180 c-76 -99 -142 -185 -146 -192 -5 -9 -126 -15 -436 -24 -417 -13
-428 -13 -436 -33 -5 -12 -18 -64 -31 -116 -12 -52 -25 -98 -28 -102 -8 -9
-940 88 -1526 158 l-390 47 -385 -32 -385 -32 -275 -82 -275 -81 -216 -162
c-150 -113 -266 -210 -377 -316 l-160 -154 -373 28 c-266 19 -723 39 -1584 68
l-1210 41 -35 -38 c-19 -21 -62 -68 -96 -105 l-60 -67 -195 -25 -195 -26
-1365 -6 -1364 -6 -1073 -304 c-589 -167 -1078 -304 -1085 -304 -8 0 -243 304
-523 677 -465 618 -519 685 -624 785 l-115 108 51 0 c51 0 52 0 183 116 l131
117 0 46 c0 25 -5 106 -10 180 -8 107 -14 137 -28 147 -9 7 -73 52 -141 100
l-124 88 -409 -23 -408 -23 -98 90 c-139 129 -160 152 -138 152 10 0 77 53
149 117 l130 117 -8 130 c-4 72 -10 153 -13 180 l-7 50 -138 99 -139 99 -374
-21 c-248 -15 -379 -19 -391 -12 -10 5 -38 30 -63 55 l-44 46 55 0 c64 0 66 1
222 140 92 81 107 99 107 125 0 16 -5 97 -10 180 -9 138 -12 151 -32 167 -13
10 -77 55 -143 102 l-121 85 -418 -25 c-355 -20 -422 -22 -435 -10 -9 7 -369
305 -801 661 -432 356 -793 655 -803 663 -15 13 -38 14 -189 4 -94 -6 -173
-10 -175 -8 -3 3 -423 1425 -423 1433 0 1 16 3 35 3 l35 0 0 143 0 142 -917
3102 -918 3103 -315 -2 c-173 -1 -524 -5 -779 -9z"/>
</g>
</svg>
