<?xml version="1.0" standalone="no"?>
<!DOCTYPE svg PUBLIC "-//W3C//DTD SVG 20010904//EN"
 "http://www.w3.org/TR/2001/REC-SVG-20010904/DTD/svg10.dtd">
<svg version="1.0" xmlns="http://www.w3.org/2000/svg"
   viewBox="0 0 4224.000000 1463.000000"
 preserveAspectRatio="xMidYMid meet">
<metadata>
Created by potrace 1.16, written by Peter Selinger 2001-2019
</metadata>
<g transform="translate(0.000000,1463.000000) scale(0.100000,-0.100000)"
fill="#000000" stroke="none">
<path d="M16131 14559 l-334 -69 -556 -233 -556 -233 -9 35 c-10 40 -52 98
-135 184 -41 43 -62 57 -83 57 -16 0 -644 -258 -1396 -574 l-1367 -573 -780
-147 -780 -146 -296 -124 c-163 -68 -308 -130 -321 -138 -61 -33 -446 -345
-455 -369 -6 -15 -102 -97 -251 -214 -133 -103 -242 -194 -242 -202 0 -8 5
-23 10 -33 9 -16 5 -23 -24 -42 l-33 -23 36 -56 c20 -31 68 -83 106 -116 39
-33 96 -85 128 -114 l59 -54 -365 -154 c-201 -84 -371 -157 -378 -161 -9 -6
11 -61 74 -212 48 -111 90 -202 94 -201 5 1 103 41 218 90 l211 89 34 -81 c19
-44 42 -99 52 -122 l19 -42 45 19 c55 24 51 24 57 0 5 -20 7 -20 43 -5 20 8
38 14 39 13 1 -2 10 -55 19 -118 l16 -115 43 -36 c23 -21 40 -39 37 -42 -3 -2
-43 -25 -90 -50 l-85 -45 -255 -5 c-180 -4 -389 1 -710 15 l-455 21 -760 -47
c-667 -41 -1108 -74 -1227 -92 -36 -5 -36 -6 -26 -35 6 -17 8 -32 6 -35 -3 -2
-95 9 -204 25 -133 19 -260 31 -384 35 -173 6 -200 9 -420 57 -153 33 -321 78
-480 128 -332 106 -327 106 -480 82 l-125 -19 -1380 293 c-1540 327 -1864 395
-1890 395 -16 0 -16 -2 -1 -25 20 -30 21 -55 1 -55 -7 0 -37 5 -65 11 -46 10
-53 9 -65 -8 -19 -24 -21 -199 -2 -205 6 -3 42 -11 78 -18 l66 -13 -9 -44 c-6
-25 -8 -46 -6 -48 1 -1 75 -18 163 -37 145 -30 160 -35 157 -53 -2 -20 186
-62 2741 -606 l47 -11 0 -68 0 -69 33 -5 c17 -3 73 -8 122 -11 138 -9 195 -16
195 -26 0 -5 -63 -9 -140 -9 l-140 0 0 -595 0 -595 155 0 c97 0 155 -4 155
-10 0 -6 95 -10 265 -10 l265 0 0 -360 0 -360 60 0 60 0 0 -50 c0 -60 -22 -54
253 -75 165 -13 229 -23 305 -45 l97 -29 -592 0 -593 -1 0 25 c0 14 -6 25 -13
25 -39 0 -300 -41 -317 -50 -12 -6 -192 -10 -504 -10 -332 0 -500 -4 -535 -12
-75 -17 -113 -61 -146 -171 l-26 -87 26 -88 c33 -109 71 -153 146 -170 35 -8
205 -12 543 -12 314 0 496 -4 502 -10 8 -8 268 -50 311 -50 7 0 13 11 13 25
l0 25 588 -1 587 -1 -75 -25 c-58 -19 -127 -29 -300 -45 -296 -26 -270 -18
-270 -78 l0 -50 -60 0 -60 0 0 -360 0 -360 -265 0 c-170 0 -265 -4 -265 -10 0
-6 -58 -10 -155 -10 l-155 0 0 -595 0 -595 140 0 c77 0 140 -4 140 -9 0 -10
-57 -17 -195 -26 -49 -3 -105 -8 -122 -11 l-33 -5 0 -77 0 -77 -658 -143
c-2231 -487 -2133 -464 -2130 -486 3 -17 -13 -23 -160 -54 l-162 -35 6 -47 6
-47 -73 -14 -74 -14 -2 -95 c-4 -128 3 -136 88 -116 35 8 66 12 68 10 3 -2 -1
-20 -8 -40 -7 -20 -11 -37 -9 -39 2 -2 105 18 228 46 124 27 241 51 260 54 19
2 654 139 1410 304 l1376 300 126 -19 c152 -22 147 -23 488 89 140 46 304 90
469 126 240 53 263 56 430 62 116 3 243 15 375 34 109 16 201 27 204 25 2 -3
0 -18 -6 -35 -10 -29 -10 -30 26 -35 120 -18 560 -51 1227 -92 l760 -47 455
21 c326 15 527 19 710 15 l255 -5 85 -46 c47 -25 87 -47 90 -49 3 -3 -14 -21
-37 -42 l-43 -36 -16 -115 c-9 -63 -18 -116 -19 -118 -1 -1 -19 5 -39 13 -36
15 -38 15 -43 -5 -6 -24 -1 -24 -58 0 l-46 20 -18 -43 c-9 -23 -33 -78 -51
-123 l-34 -80 -206 87 c-114 48 -212 89 -218 91 -7 2 -47 -78 -97 -197 -47
-109 -85 -202 -85 -206 0 -3 169 -78 376 -165 l376 -159 -59 -54 c-32 -29 -89
-81 -128 -114 -38 -33 -86 -85 -106 -116 l-36 -56 33 -23 c29 -19 33 -26 24
-42 -5 -10 -10 -25 -10 -33 0 -8 109 -99 241 -202 153 -119 246 -198 252 -214
6 -16 88 -87 213 -186 113 -88 213 -166 223 -173 11 -7 158 -72 328 -143 l308
-129 780 -146 780 -147 1368 -573 c752 -316 1380 -574 1395 -574 46 0 201 172
218 241 l9 35 559 -233 558 -234 322 -65 c309 -62 326 -64 451 -62 l129 3 58
135 c31 74 54 138 50 141 -4 3 -59 27 -122 54 -63 27 -118 51 -123 55 -12 10
53 160 70 160 8 0 62 -23 121 -51 97 -47 128 -59 201 -76 33 -8 18 15 -23 34
-17 8 -51 25 -76 38 -25 12 -48 21 -51 19 -7 -4 -149 54 -162 65 -4 4 30 97
77 207 46 109 91 216 99 236 l15 36 -115 51 c-64 28 -121 51 -127 51 -7 0 -23
-26 -36 -57 -12 -32 -26 -62 -30 -66 -4 -4 -454 180 -1000 409 -546 230 -998
417 -1004 417 -6 0 -173 -69 -370 -152 l-359 -153 -576 242 c-317 133 -578
244 -580 246 -3 2 5 18 17 34 12 17 32 44 44 60 29 39 23 45 -112 99 -58 24
-112 51 -120 61 -8 10 -28 25 -45 33 -16 8 -455 193 -975 412 -822 345 -962
407 -1075 475 -71 43 -175 97 -230 120 -90 37 -117 55 -270 181 -93 77 -183
147 -200 154 -16 7 -109 47 -205 88 -156 66 -175 77 -172 96 2 18 -6 26 -38
38 -28 11 -39 21 -36 32 3 9 10 51 17 93 17 113 13 111 205 94 87 -8 161 -13
163 -10 3 2 4 125 2 272 -1 147 1 324 5 394 l6 126 217 4 c136 2 219 -1 223
-7 14 -19 8 -25 -24 -25 -18 0 -44 -3 -57 -7 -23 -6 -23 -8 -17 -72 4 -36 10
-69 14 -72 6 -5 358 41 585 75 l37 6 0 -50 0 -49 138 -3 137 -3 7 -65 c4 -36
9 -81 11 -101 l5 -37 -77 5 -76 4 -158 -136 -158 -136 -100 11 c-111 11 -222
13 -255 4 -19 -5 -23 -17 -33 -105 -6 -55 -11 -108 -11 -119 0 -15 23 -24 149
-54 82 -20 156 -36 165 -36 8 0 17 -4 20 -9 3 -5 -1 -62 -9 -127 -23 -183 -27
-168 58 -182 39 -7 333 -35 651 -62 319 -27 580 -51 581 -52 2 -2 0 -18 -2
-36 l-5 -33 -84 7 -84 7 0 -35 c0 -72 13 -75 535 -124 l390 -36 515 -183 515
-183 460 -33 461 -33 439 86 439 86 3060 -283 c1684 -156 3080 -286 3104 -288
39 -4 46 -1 91 42 43 40 48 50 44 78 -6 37 -11 39 -150 49 -74 5 -103 10 -103
19 0 9 -27 15 -87 20 -49 4 -113 12 -143 16 -30 5 -212 25 -405 44 -192 18
-368 36 -390 40 -41 6 -73 20 -65 28 6 6 3158 -288 3166 -295 3 -3 31 -100 63
-214 32 -115 96 -337 142 -494 45 -157 82 -295 82 -307 -1 -31 19 -35 79 -14
49 16 76 41 46 41 -9 0 -41 101 -101 328 l-88 327 1 175 c0 145 -3 187 -20
244 -11 38 -25 73 -31 76 -6 4 4 10 21 14 20 4 30 11 27 18 -2 7 -12 48 -22
90 -21 86 -32 95 -95 73 l-38 -13 -47 168 c-34 124 -51 170 -64 172 -22 5 -82
-14 -88 -27 -2 -7 26 -117 62 -245 36 -128 65 -236 65 -240 0 -3 -703 58
-1562 137 -860 78 -1567 142 -1571 143 -5 0 -8 12 -7 27 4 60 -6 70 -83 82
-40 6 -1757 171 -3817 367 -2060 196 -3746 357 -3748 359 -1 1 4 54 11 116 8
63 12 117 8 120 -10 11 -216 56 -333 74 -101 16 -130 27 -514 191 -231 99
-442 183 -489 195 l-82 21 -7 75 c-3 42 -6 96 -6 120 l0 43 215 0 215 0 61
123 c34 67 63 123 64 125 2 2 45 10 96 17 52 8 234 41 404 74 l310 60 300 11
300 12 730 -310 730 -310 620 -86 c879 -121 1829 -232 1859 -216 18 9 98 3
427 -35 222 -25 416 -48 432 -51 24 -5 27 -10 27 -49 0 -43 0 -43 43 -50 23
-4 51 -15 62 -26 11 -10 61 -29 110 -42 81 -22 109 -37 282 -150 105 -69 220
-148 256 -176 35 -28 75 -55 89 -60 20 -7 360 60 1609 320 l1584 330 980 39
c539 21 1078 40 1197 42 l218 3 0 133 0 132 275 0 c235 0 275 2 283 15 6 13
40 17 176 22 l168 6 -6 71 c-4 39 -9 95 -13 125 l-6 54 -438 -7 -439 -8 0 401
0 400 -37 3 c-21 2 75 7 212 11 161 5 284 4 345 -2 170 -19 166 -20 195 44
l24 55 469 0 469 0 7 53 c3 28 6 93 6 142 0 50 4 96 9 104 7 11 111 -39 492
-235 l484 -249 1338 -3 1337 -3 0 -39 0 -40 51 0 c48 0 83 17 593 294 l541
294 575 62 c316 33 640 69 720 80 133 17 242 19 1325 23 l1180 4 215 -63 215
-64 818 0 818 0 562 69 562 69 800 7 c595 5 802 10 807 18 5 9 302 13 1208 15
l1200 3 0 -181 0 -180 50 0 50 0 0 180 0 180 85 0 85 0 0 135 0 135 35 0 35 0
0 750 0 750 -35 0 -35 0 0 135 0 135 -85 0 -85 0 0 180 0 180 -50 0 -50 0 0
-180 0 -181 -1200 3 c-917 2 -1202 6 -1208 15 -6 9 -205 13 -807 18 l-800 7
-557 69 -557 69 -822 0 -823 0 -205 -62 -206 -62 -1190 3 c-1103 2 -1201 4
-1335 21 -80 11 -404 47 -720 81 l-575 61 -541 294 c-510 277 -544 294 -593
294 l-51 0 0 -40 0 -39 -1337 -3 -1338 -3 -484 -249 c-380 -196 -485 -246
-492 -235 -5 8 -9 55 -9 104 0 50 -3 114 -6 143 l-7 52 -469 0 -469 0 -24 55
c-29 64 -23 62 -200 44 -62 -6 -192 -7 -345 -2 -135 4 -228 9 -207 11 l37 3 0
401 0 400 439 -7 438 -8 6 54 c4 30 9 86 13 125 l6 71 -168 6 c-136 5 -170 9
-176 22 -8 13 -48 15 -283 15 l-275 0 0 135 0 135 -217 0 c-120 1 -657 18
-1193 39 l-975 39 -1589 330 c-1260 262 -1593 329 -1614 321 -14 -5 -54 -32
-88 -59 -35 -27 -149 -106 -254 -175 -171 -112 -201 -128 -283 -151 -51 -14
-101 -34 -112 -44 -11 -10 -39 -21 -62 -25 -43 -7 -43 -7 -43 -50 0 -39 -3
-44 -27 -49 -16 -3 -210 -26 -432 -51 -329 -38 -409 -44 -427 -35 -29 16 -979
-94 -1859 -216 l-620 -86 -734 -311 -733 -310 -297 12 -296 13 -310 59 c-170
33 -352 66 -404 74 -51 7 -94 15 -96 17 -1 2 -30 58 -64 126 l-61 122 -218 0
-217 0 7 83 c3 45 7 98 7 118 l1 37 73 17 c39 9 261 97 492 196 392 166 427
179 525 194 115 18 321 64 331 74 4 3 0 57 -8 120 -7 62 -12 115 -11 116 2 2
1688 163 3748 359 2060 196 3777 361 3817 367 77 12 87 22 83 82 -1 15 2 27 7
27 4 1 711 65 1571 143 859 79 1562 140 1562 137 0 -4 -29 -111 -65 -238 -36
-128 -65 -236 -65 -241 0 -13 71 -39 91 -34 13 4 29 47 64 173 l47 168 37 -12
c65 -22 75 -14 96 72 10 42 20 83 22 90 3 7 -7 14 -27 18 -17 4 -27 10 -21 14
6 3 20 38 31 76 17 57 20 99 20 244 l-1 175 88 328 c60 226 92 327 101 327 30
0 3 25 -46 41 -60 21 -80 17 -79 -14 0 -12 -32 -134 -72 -272 -41 -137 -104
-360 -142 -494 -37 -134 -70 -246 -73 -249 -3 -3 -696 -69 -1538 -148 -843
-78 -1554 -145 -1580 -148 -27 -3 -48 -1 -48 4 0 18 79 29 440 64 201 20 390
40 420 45 30 4 94 12 143 16 60 5 87 11 87 19 0 9 28 15 93 20 147 11 154 13
160 49 4 28 -2 38 -43 78 -45 44 -50 47 -91 42 -24 -2 -1421 -132 -3105 -287
l-3060 -283 -439 85 -438 86 -461 -33 -461 -33 -515 -183 -515 -183 -395 -37
c-217 -20 -417 -41 -445 -47 -64 -13 -85 -32 -85 -76 l0 -35 84 7 84 7 5 -33
c2 -18 4 -34 3 -35 -1 -2 -263 -25 -582 -53 -318 -27 -612 -55 -651 -62 -85
-14 -81 1 -58 -182 8 -66 13 -121 11 -123 -2 -2 -77 -22 -167 -44 -89 -22
-165 -41 -167 -44 -3 -2 1 -56 8 -119 11 -103 14 -115 34 -120 33 -9 144 -7
255 4 l101 11 157 -136 158 -136 76 4 77 5 -5 -37 c-2 -20 -7 -65 -11 -101
l-7 -65 -137 -3 -138 -3 0 -50 c0 -50 0 -51 -27 -45 -32 6 -534 75 -573 79
-23 2 -25 -2 -36 -70 l-10 -71 29 -6 c16 -3 42 -6 58 -6 29 0 35 -7 21 -25 -4
-6 -87 -9 -223 -7 l-217 4 -6 126 c-4 70 -6 247 -5 394 2 147 1 270 -2 273 -3
2 -77 -2 -164 -10 -191 -18 -187 -20 -204 93 -7 42 -14 84 -17 93 -3 11 8 21
36 32 32 12 40 20 38 37 -3 20 19 32 199 109 l202 86 170 140 c154 126 182
145 279 186 59 26 164 81 233 122 108 66 257 131 1070 473 990 416 1015 426
1021 445 2 6 57 35 123 63 65 28 120 56 122 61 2 6 -15 35 -37 65 -22 29 -40
56 -40 60 0 3 251 111 558 240 306 128 566 238 578 243 16 7 99 -24 386 -146
l366 -154 984 414 c540 227 991 414 1001 416 14 1 25 -13 45 -61 31 -74 21
-74 177 -6 l103 45 -15 37 c-8 20 -53 127 -99 236 -47 110 -81 203 -77 207 9
8 137 59 198 79 22 7 51 21 64 31 13 11 29 19 36 19 7 0 19 7 26 17 13 14 11
16 -11 10 -77 -18 -105 -28 -191 -70 -146 -71 -139 -72 -177 19 -18 43 -29 81
-25 84 5 4 63 30 130 59 l122 53 -17 42 c-9 23 -35 85 -57 139 l-40 97 -107 0
c-58 0 -112 2 -120 4 -7 2 -163 -27 -347 -65z m7477 -5322 l3 -137 -74 0 c-41
0 -95 3 -121 6 l-46 7 0 111 c0 61 -4 125 -9 143 -6 22 -5 50 6 91 l15 60 112
-72 111 -72 3 -137z m-80 -164 l82 -6 0 -43 0 -44 -134 0 -134 0 9 38 c6 20
12 43 14 50 5 14 41 15 163 5z m82 -3477 l0 -44 -116 -7 c-64 -4 -119 -3 -124
1 -4 5 -12 28 -18 52 l-10 42 134 0 134 0 0 -44z m0 -211 l0 -136 -112 -73
-113 -73 -13 41 c-14 45 -14 44 -6 233 l6 132 26 4 c15 2 69 5 120 6 l92 1 0
-135z"/>
</g>
</svg>
