<?xml version="1.0" standalone="no"?>
<!DOCTYPE svg PUBLIC "-//W3C//DTD SVG 20010904//EN"
 "http://www.w3.org/TR/2001/REC-SVG-20010904/DTD/svg10.dtd">
<svg version="1.0" xmlns="http://www.w3.org/2000/svg"
   viewBox="0 0 4270.000000 1623.000000"
 preserveAspectRatio="xMidYMid meet">
<metadata>
Created by potrace 1.16, written by Peter Selinger 2001-2019
</metadata>
<g transform="translate(0.000000,1623.000000) scale(0.100000,-0.100000)"
fill="#000000" stroke="none">
<path d="M21791 16219 c-24 -4 -46 -11 -49 -14 -13 -12 -381 -1815 -382 -1866
l0 -56 50 -7 c41 -5 50 -10 50 -26 0 -13 -7 -20 -20 -20 -19 0 -20 -7 -20
-115 l0 -115 -241 0 -241 0 -20 25 -20 25 -231 -2 -232 -3 -6 -180 c-4 -141
-10 -193 -25 -240 l-20 -60 -1157 -3 -1157 -2 -2 -186 -3 -186 -280 -99 -279
-99 -198 0 -198 0 0 -65 0 -65 -175 0 -175 0 0 -67 0 -68 -663 -233 -662 -233
-1249 1 -1249 0 -1631 -476 c-1572 -459 -1632 -477 -1656 -507 -14 -18 -34
-42 -45 -54 -17 -19 -214 -68 -1295 -323 -921 -218 -1468 -353 -1970 -487
l-695 -185 -40 -54 c-39 -51 -42 -53 -100 -59 -33 -3 -927 -71 -1987 -150
l-1927 -145 -168 -61 c-92 -34 -449 -153 -793 -264 l-625 -203 0 -147 0 -147
610 -197 c336 -108 693 -227 795 -264 l185 -67 1983 -150 1983 -149 22 -28
c68 -87 17 -69 742 -262 479 -128 1038 -266 1965 -486 1413 -334 1301 -302
1365 -386 18 -24 173 -72 1651 -503 l1632 -476 1253 0 1254 -1 585 -203 585
-204 7 -43 c3 -24 7 -153 7 -286 l1 -243 195 0 195 0 0 -95 0 -95 525 0 525 0
0 -65 0 -65 740 0 c407 0 740 -2 740 -4 0 -2 -17 -41 -39 -87 l-39 -84 -648
-193 c-449 -133 -697 -202 -804 -223 -85 -16 -165 -32 -177 -34 -21 -5 -23
-11 -23 -66 0 -58 9 -82 178 -450 l177 -389 151 0 151 0 30 -78 29 -77 199 -5
199 -5 147 -310 147 -310 73 -42 74 -43 147 0 148 0 0 -121 0 -121 215 4 215
3 0 -67 c0 -44 4 -68 13 -71 6 -3 -6 -6 -28 -6 l-40 -1 6 -82 c8 -106 365
-1840 381 -1849 24 -15 111 -21 201 -14 51 3 190 15 310 26 120 10 223 19 228
19 5 0 9 311 9 797 l0 796 -110 177 c-124 201 -132 227 -77 260 31 19 51 20
465 20 l432 0 0 -64 c0 -53 3 -65 18 -69 9 -3 0 -5 -20 -6 -60 -2 -68 -9 -68
-55 0 -41 376 -1875 386 -1886 18 -18 719 21 739 41 2 2 7 360 10 794 l7 790
-111 180 c-127 206 -134 229 -75 264 34 20 47 21 445 21 l409 0 0 -64 c0 -53
3 -65 18 -69 9 -3 3 -5 -14 -6 -17 0 -46 -4 -63 -7 -29 -6 -31 -9 -31 -53 1
-49 372 -1866 384 -1879 14 -13 289 -7 517 12 l226 19 6 516 c4 284 7 642 7
795 l0 280 -98 155 -97 156 3 58 c4 56 5 58 44 78 67 34 77 27 113 -81 l32
-95 465 -3 464 -2 142 100 141 100 718 0 717 0 106 39 c58 22 169 58 247 80
133 39 149 41 273 41 131 0 133 0 409 72 152 39 278 74 281 78 10 13 1337 42
1359 31 30 -16 466 -2 501 16 14 7 31 13 38 13 30 0 92 41 92 60 0 18 -7 20
-57 20 -221 1 -953 30 -976 39 -19 7 -178 11 -465 11 -332 0 -507 5 -727 20
-267 19 -390 20 -1530 20 l-1240 -1 -104 35 -105 36 -378 0 -378 0 0 24 c0 15
-7 27 -17 30 -10 3 -272 62 -582 131 -555 123 -565 125 -687 125 l-124 0 0 29
0 29 183 6 c100 3 279 14 397 24 203 16 215 18 215 37 0 19 -11 21 -150 32
-82 6 -200 17 -261 22 -60 6 -201 11 -312 11 l-202 0 -239 228 -239 227 336
84 337 84 337 -162 c185 -88 347 -161 360 -161 13 0 206 66 430 148 351 127
408 150 413 169 6 25 13 27 127 43 62 9 82 9 105 -3 26 -13 65 -3 613 158
l585 172 148 167 147 166 0 89 0 88 572 6 c314 4 1004 7 1533 7 l961 0 2045
250 2044 250 852 164 853 165 117 96 c65 52 127 98 138 100 11 2 127 18 257
35 l236 31 1389 399 c763 220 1395 403 1405 406 9 2 49 48 90 102 40 53 78
103 83 110 6 8 571 215 1255 460 l1245 447 3 33 3 32 -2083 0 c-1146 0 -2356
3 -2690 7 l-608 6 0 184 0 183 590 0 590 0 0 88 0 89 143 6 c78 4 268 7 422 7
326 1 370 2 1949 70 l1199 52 286 140 286 140 125 18 c122 19 133 22 473 167
301 128 347 150 345 167 -2 16 -73 50 -346 168 -339 146 -345 149 -470 167
l-127 19 -286 140 -286 140 -1194 52 c-1661 71 -1603 69 -1919 70 -157 0 -356
3 -442 7 l-158 6 0 89 0 88 -590 0 -590 0 0 183 0 184 557 6 c306 4 1516 7
2690 7 l2133 0 0 33 0 32 -1243 445 c-683 245 -1249 453 -1259 462 -9 9 -49
60 -88 112 -72 95 -73 96 -139 115 -36 11 -668 193 -1405 405 l-1338 386 -237
30 c-130 17 -245 33 -256 35 -11 2 -73 48 -138 101 l-118 96 -852 164 -852
165 -2040 248 -2040 249 -1960 7 -1960 6 -146 85 -146 84 -246 0 -247 0 0 78
0 78 -58 57 -58 57 -497 0 -497 0 0 115 0 114 102 3 102 3 108 175 108 175 0
797 c0 586 -3 798 -11 798 -6 0 -113 9 -238 21 -238 22 -439 29 -482 17 -25
-7 -27 -18 -212 -910 -124 -599 -187 -924 -187 -964 l0 -61 50 -7 c41 -5 50
-10 50 -26 0 -11 -7 -20 -15 -20 -12 0 -15 -19 -15 -115 l0 -115 -575 0 -575
0 0 115 0 115 108 0 107 0 114 183 113 182 -6 185 c-3 102 -6 457 -6 790 l0
606 -267 22 c-365 31 -382 32 -432 21z m2046 -1985 c-3 -3 -12 -4 -19 -1 -8 3
-5 6 6 6 11 1 17 -2 13 -5z"/>
</g>
</svg>
