<?xml version="1.0" standalone="no"?>
<!DOCTYPE svg PUBLIC "-//W3C//DTD SVG 20010904//EN"
 "http://www.w3.org/TR/2001/REC-SVG-20010904/DTD/svg10.dtd">
<svg version="1.0" xmlns="http://www.w3.org/2000/svg"
   viewBox="0 0 4497.000000 3176.000000"
 preserveAspectRatio="xMidYMid meet">
<metadata>
Created by potrace 1.16, written by Peter Selinger 2001-2019
</metadata>
<g transform="translate(0.000000,3176.000000) scale(0.100000,-0.100000)"
fill="#000000" stroke="none">
<path d="M6974 31508 c-242 -137 -443 -253 -448 -258 -5 -5 -55 -183 -110
-396 l-101 -387 -163 -76 -162 -76 -15 -50 c-8 -27 -325 -1146 -705 -2485
-380 -1339 -695 -2449 -701 -2467 -7 -22 -167 -191 -499 -530 l-489 -498 -1
-87 c0 -79 -2 -87 -21 -93 -21 -7 -22 -9 -17 -263 4 -249 5 -256 26 -270 19
-12 22 -24 22 -82 0 -37 3 -88 6 -114 7 -46 7 -46 45 -46 37 0 39 -2 39 -31
l0 -31 63 6 c34 3 171 8 305 12 l242 7 0 -76 c0 -74 0 -75 -27 -81 -16 -3
-176 -11 -357 -17 l-329 -13 -49 -40 c-26 -23 -286 -255 -577 -516 l-528 -475
-7 -117 -8 -118 -239 0 -239 0 0 -64 0 -65 -57 -16 c-32 -9 -66 -18 -75 -21
-17 -5 -18 -42 -18 -590 l0 -584 -145 0 -145 0 0 -68 0 -68 -75 -22 c-67 -20
-75 -25 -75 -47 0 -32 38 -33 -680 10 -526 31 -704 39 -645 29 21 -4 1267 -84
1304 -84 l21 0 0 -610 0 -610 75 -22 75 -22 0 -68 0 -68 190 0 190 0 0 -206 0
-206 75 -283 c70 -263 75 -289 75 -384 l0 -101 -140 0 -139 0 -5 -32 c-3 -18
-11 -62 -17 -97 -9 -56 -8 -66 5 -73 14 -8 16 -162 16 -1588 0 -1426 -2 -1580
-16 -1588 -13 -7 -14 -17 -5 -73 6 -35 14 -79 17 -96 l5 -33 139 0 140 0 0
-101 c0 -95 -5 -121 -75 -384 l-75 -283 0 -206 0 -206 -190 0 -190 0 0 -68 0
-68 -75 -22 -75 -22 0 -610 0 -610 -24 0 c-40 0 -1279 -80 -1301 -84 -55 -10
95 -3 636 29 726 43 689 42 689 10 0 -22 8 -27 75 -46 l75 -22 0 -69 0 -68
145 0 145 0 0 -584 0 -583 75 -22 75 -23 0 -64 0 -64 239 0 239 0 7 -116 8
-116 566 -510 c311 -281 575 -513 586 -518 11 -4 166 -12 345 -19 179 -7 335
-14 348 -17 20 -4 22 -10 22 -80 l0 -77 -232 7 c-128 4 -266 9 -305 12 l-73 6
0 -31 c0 -29 -2 -31 -39 -31 -38 0 -38 0 -45 -46 -3 -26 -6 -77 -6 -114 0 -58
-3 -70 -22 -82 -21 -14 -22 -21 -26 -270 -4 -253 -4 -256 16 -262 19 -6 22
-16 24 -95 l3 -88 487 -497 487 -497 20 -67 c11 -37 326 -1147 701 -2467 374
-1320 687 -2422 696 -2450 l15 -50 162 -76 162 -75 101 -388 c56 -213 106
-391 110 -396 5 -4 206 -120 447 -258 l439 -250 329 235 c274 196 329 239 329
259 0 13 -76 1412 -170 3110 -93 1697 -170 3095 -170 3107 0 19 -22 31 -158
86 -86 35 -162 68 -168 75 -7 7 -19 176 -33 451 -12 242 -24 450 -27 462 -2
13 -53 62 -120 117 -105 88 -119 96 -157 96 -71 0 -660 29 -663 33 -3 3 2 34
31 182 11 55 13 104 9 157 l-6 76 -59 7 c-33 4 -59 11 -59 15 0 5 25 6 55 3
49 -5 59 -3 104 26 28 18 54 30 58 28 4 -3 470 -20 1035 -38 l1027 -33 317
-248 c174 -136 321 -248 328 -247 6 0 119 53 250 117 l239 117 351 1580 352
1580 549 5 550 5 820 548 819 547 336 0 335 0 89 50 89 50 839 0 839 0 93 -50
93 -50 226 0 227 0 0 -155 0 -155 325 0 325 0 0 -214 0 -214 50 -42 c44 -37
50 -46 50 -81 l0 -39 -640 0 -640 0 -40 -62 c-43 -66 -46 -78 -28 -96 9 -9
-55 -12 -290 -12 l-302 0 0 -139 0 -140 454 -684 453 -684 219 -6 c120 -4 298
-7 396 -7 l176 0 19 -28 c10 -16 110 -137 223 -270 l205 -241 2008 -1 c1104 0
2007 2 2007 4 0 2 27 117 60 254 l60 251 0 863 0 863 -77 67 -78 67 -517 1
-518 0 0 250 0 250 518 0 517 0 118 90 117 89 788 161 787 160 238 0 237 0 89
-50 89 -50 226 0 226 0 0 -155 0 -155 330 0 330 0 0 -214 0 -213 50 -47 c41
-39 50 -53 50 -81 l0 -35 -642 0 -643 0 -43 -66 c-31 -48 -41 -69 -33 -77 6
-6 11 -15 11 -19 0 -4 -135 -8 -300 -8 l-300 0 0 -135 0 -135 456 -688 455
-687 177 -7 c97 -3 275 -6 395 -6 l218 -1 32 -44 c18 -24 119 -146 226 -270
l193 -227 2006 2 2006 3 58 235 57 235 0 882 1 882 -75 65 -76 66 -519 0 -520
0 0 213 0 214 323 6 c177 4 428 7 557 7 129 0 352 3 496 7 l261 6 218 274 219
273 624 0 625 0 92 -50 92 -50 227 0 226 0 0 -155 0 -155 325 0 325 0 0 -214
0 -214 50 -42 c44 -37 50 -46 50 -81 l0 -39 -642 -2 -642 -3 -40 -64 c-33 -53
-38 -66 -28 -82 12 -18 4 -19 -288 -19 l-300 0 0 -139 0 -139 454 -685 454
-684 218 -6 c121 -4 298 -7 395 -7 l176 0 24 -35 c13 -19 114 -140 224 -269
l200 -235 2007 0 2006 -1 59 233 58 232 3 886 2 886 -79 66 -79 67 -516 0
-516 0 0 120 0 120 228 0 c125 0 718 -5 1317 -10 600 -5 1557 -10 2128 -10
l1038 0 272 55 c420 86 589 114 882 146 247 27 299 29 632 29 l363 0 217 142
c120 77 270 176 335 219 l116 78 45 -34 c24 -19 47 -32 50 -29 3 3 21 7 40 10
l35 4 424 -549 c232 -302 425 -547 426 -546 2 2 -180 248 -405 546 -224 298
-412 548 -416 556 -8 12 8 52 25 64 4 3 1 29 -8 59 -9 31 -12 55 -6 59 5 3 32
21 60 40 l52 33 0 64 0 64 220 0 c138 0 220 -4 220 -10 0 -5 31 -26 70 -45
l70 -35 140 0 c137 0 142 1 201 30 33 17 62 37 66 45 4 12 25 15 94 15 82 0
89 1 89 20 0 19 -7 20 -223 20 -123 0 -386 3 -585 7 l-362 6 0 214 0 214 45
48 45 48 0 715 c0 700 0 716 -20 741 -17 22 -20 40 -20 131 l0 106 500 0 c327
0 500 3 500 10 0 7 -173 10 -500 10 l-500 0 0 805 0 805 503 3 502 2 -502 3
-503 2 0 106 c0 91 3 109 20 131 20 25 20 41 20 741 l0 715 -45 48 -45 48 0
214 0 214 263 6 c144 4 407 7 585 7 315 0 322 0 322 20 0 19 -7 20 -90 20 -67
0 -90 3 -90 13 0 7 -29 27 -65 45 -64 31 -68 32 -205 32 l-140 0 -70 -35 c-39
-19 -70 -40 -70 -45 0 -6 -82 -10 -220 -10 l-220 0 0 64 0 64 -60 38 c-33 22
-60 42 -60 45 0 3 7 28 15 55 8 26 11 51 6 54 -16 10 -32 51 -25 62 4 7 194
255 421 551 228 297 413 541 411 543 -2 1 -196 -242 -432 -542 l-428 -544 -35
4 c-19 3 -37 7 -40 10 -3 3 -26 -10 -50 -29 l-45 -34 -131 88 c-73 48 -223
147 -335 219 l-202 132 -363 0 c-335 0 -384 2 -634 30 -286 31 -505 67 -905
150 l-243 51 -1045 -1 c-575 0 -1549 -4 -2165 -10 -616 -5 -1207 -10 -1312
-10 l-193 0 0 120 0 120 518 0 517 1 78 67 77 67 0 865 0 865 -61 253 -61 252
-2006 0 -2007 -1 -205 -241 c-113 -133 -213 -254 -223 -270 l-19 -28 -251 0
c-139 0 -317 -3 -396 -7 l-144 -6 -453 -684 -454 -684 0 -140 0 -139 300 0
c292 0 300 -1 288 -19 -10 -16 -5 -29 28 -82 l40 -64 642 -3 642 -2 0 -39 c0
-35 -6 -44 -50 -81 l-50 -42 0 -214 0 -214 -325 0 -325 0 0 -155 0 -155 -229
0 -228 0 -89 -50 -89 -50 -626 0 -625 0 -219 273 -218 274 -240 6 c-132 4
-345 7 -472 7 -127 0 -388 3 -578 7 l-347 6 0 214 0 213 519 0 520 0 75 66 76
66 0 882 -1 881 -57 235 -58 235 -2006 3 -2006 2 -193 -227 c-107 -124 -208
-246 -226 -270 l-31 -44 -279 -1 c-153 0 -331 -3 -395 -6 l-117 -7 -456 -687
-455 -687 0 -136 0 -135 300 0 c165 0 300 -4 300 -8 0 -4 -5 -13 -11 -19 -8
-8 2 -29 33 -77 l43 -66 643 0 642 0 0 -35 c0 -28 -9 -42 -50 -81 l-50 -47 0
-213 0 -214 -330 0 -330 0 0 -155 0 -155 -226 0 -225 0 -91 -50 -91 -50 -236
0 -236 0 -784 160 c-432 88 -794 166 -805 174 -12 7 -66 48 -121 90 l-99 76
-518 0 -518 0 0 250 0 250 518 0 517 1 78 67 77 67 -2 885 -3 885 -58 233 -59
232 -2006 0 -2007 -1 -205 -241 c-113 -132 -213 -254 -223 -269 l-19 -29 -251
0 c-139 0 -317 -3 -396 -7 l-144 -6 -453 -684 -454 -684 0 -140 0 -139 300 0
c292 0 300 -1 288 -19 -10 -16 -5 -29 28 -82 l40 -64 642 -3 642 -2 0 -39 c0
-35 -6 -44 -50 -81 l-50 -42 0 -214 0 -214 -325 0 -325 0 0 -155 0 -155 -229
0 -228 0 -89 -50 -89 -50 -841 0 -841 0 -89 50 -89 50 -339 0 -338 0 -47 34
c-25 18 -392 265 -816 547 l-770 514 -550 5 -549 5 -352 1580 -351 1580 -239
117 c-131 64 -244 117 -251 117 -6 1 -154 -111 -328 -247 l-317 -248 -891 -28
c-491 -16 -957 -32 -1037 -36 l-145 -7 -48 30 c-41 26 -55 29 -102 25 -74 -6
-70 9 4 18 l59 6 6 77 c4 52 1 101 -9 156 -21 106 -33 179 -30 183 3 3 575 31
651 32 50 0 55 3 168 96 68 55 118 104 120 117 3 12 15 220 27 462 12 242 26
445 30 450 4 6 80 39 168 75 140 56 161 68 161 87 0 12 77 1412 170 3110 94
1698 169 3099 168 3112 -2 18 -75 74 -329 256 l-327 233 -438 -250z m-1110
-8223 c3 -10 15 -13 33 -10 66 10 223 15 223 6 0 -4 -46 -11 -102 -15 -57 -3
-140 -9 -185 -12 l-83 -6 0 26 c0 25 2 26 54 26 38 0 55 -4 60 -15z m13816
-3335 l0 -250 -177 0 -176 0 -427 80 c-417 78 -430 80 -581 80 l-154 0 -85
-85 -85 -85 -219 0 -219 0 -53 -40 c-29 -22 -62 -40 -74 -40 -20 0 -20 5 -20
216 l0 216 -50 45 c-41 37 -50 51 -50 79 l0 34 1185 0 1185 0 0 -250z m7850
-1 l0 -250 50 -21 c35 -14 50 -26 50 -39 0 -11 -4 -19 -10 -19 -5 0 -299 54
-652 120 -641 120 -642 120 -792 120 l-151 0 -130 -125 -130 -124 -247 -1
-248 0 0 214 0 215 -50 43 c-43 37 -50 48 -50 81 l0 37 1180 0 1180 0 0 -251z
m7860 72 l0 -179 -146 -77 -146 -77 -457 86 c-447 84 -461 86 -609 86 l-152 0
-132 -125 -131 -125 -249 0 -248 0 0 216 0 216 -50 45 c-41 37 -50 51 -50 79
l0 34 1185 0 1185 0 0 -179z m-17885 -7911 l54 -40 217 0 218 0 87 -85 86 -85
152 0 c148 0 164 2 578 80 l426 80 178 0 179 0 0 -250 0 -250 -1185 0 -1185 0
0 34 c0 27 9 42 50 80 l50 47 0 214 c0 249 -2 246 95 175z m8390 -85 l130
-124 151 -1 151 0 639 120 c351 66 645 120 652 120 6 0 12 -8 12 -19 0 -13
-15 -25 -50 -39 l-50 -21 0 -250 0 -251 -1180 0 -1180 0 0 38 c0 34 6 44 50
81 l50 42 0 215 0 214 248 0 247 -1 130 -124z m7854 0 l132 -125 149 0 c146 0
163 2 609 86 l459 86 146 -77 146 -77 0 -179 0 -179 -1185 0 -1185 0 0 34 c0
28 9 42 50 79 l50 45 0 216 0 216 248 0 249 0 132 -125z m-27726 -3531 c53 -4
97 -11 97 -15 0 -8 -136 -4 -218 6 -22 3 -35 -1 -39 -11 -3 -10 -21 -14 -59
-14 -52 0 -54 1 -54 26 l0 27 88 -7 c48 -3 131 -9 185 -12z"/>
</g>
</svg>
