<?xml version="1.0" standalone="no"?>
<!DOCTYPE svg PUBLIC "-//W3C//DTD SVG 20010904//EN"
 "http://www.w3.org/TR/2001/REC-SVG-20010904/DTD/svg10.dtd">
<svg version="1.0" xmlns="http://www.w3.org/2000/svg"
   viewBox="0 0 4378.000000 1608.000000"
 preserveAspectRatio="xMidYMid meet">
<metadata>
Created by potrace 1.16, written by Peter Selinger 2001-2019
</metadata>
<g transform="translate(0.000000,1608.000000) scale(0.100000,-0.100000)"
fill="#000000" stroke="none">
<path d="M2623 15834 l-283 -245 55 -74 c30 -41 55 -77 55 -80 0 -3 -207 -5
-460 -5 l-460 0 0 -350 0 -350 -47 0 c-45 0 -51 -4 -110 -62 l-63 -62 -77
-233 -78 -233 -331 0 c-314 0 -338 -1 -454 -25 -96 -19 -149 -37 -246 -82
l-123 -58 -1 -547 0 -547 118 -57 c95 -45 143 -61 255 -85 127 -27 154 -29
347 -29 l210 0 0 -440 0 -440 795 -2 795 -3 -140 -62 -140 -63 -509 0 c-280 0
-516 -3 -525 -6 -14 -6 -16 -99 -16 -951 l0 -944 -60 -222 -60 -223 0 -202 0
-202 -255 0 -255 0 0 -120 0 -120 -160 0 -160 0 0 -250 0 -250 160 0 c136 0
160 -2 160 -15 0 -12 -15 -15 -75 -15 l-75 0 0 -140 0 -140 75 0 c60 0 75 -3
75 -15 0 -13 -24 -15 -160 -15 l-160 0 0 -250 0 -250 160 0 160 0 0 -120 0
-120 255 0 255 0 0 -202 0 -202 60 -223 60 -222 0 -944 c0 -852 2 -945 16
-951 9 -3 245 -6 524 -6 l509 0 140 -62 141 -63 -795 -3 -795 -2 0 -440 0
-440 -210 0 c-193 0 -220 -2 -347 -29 -113 -24 -159 -39 -255 -86 l-118 -57 0
-546 1 -547 123 -58 c97 -45 150 -63 246 -82 116 -24 140 -25 454 -25 l331 0
78 -233 77 -233 63 -62 c59 -58 65 -62 110 -62 l47 0 0 -350 0 -350 460 0
c253 0 460 -2 460 -5 0 -3 -25 -39 -55 -80 l-55 -74 283 -245 282 -246 746 0
746 0 7 42 c5 28 28 71 73 134 l66 93 305 3 305 3 86 -93 c63 -69 89 -104 97
-135 l11 -42 326 -3 327 -2 0 24 c0 39 14 68 80 159 l62 86 304 3 305 3 89
-96 c73 -79 91 -104 96 -138 l7 -41 2680 0 2680 0 369 243 c202 133 368 244
368 247 0 3 -51 58 -113 122 l-112 117 -313 -218 -313 -218 -662 -7 c-364 -3
-1276 -8 -2027 -12 -1319 -5 -2358 -18 -2430 -30 -34 -5 -37 -3 -123 100 -88
105 -89 106 -133 106 l-44 0 0 100 0 100 73 0 74 0 197 225 198 225 323 0 322
0 199 -90 198 -90 1492 0 1492 0 708 434 709 434 3 386 2 386 418 0 417 0 113
41 c67 25 112 47 112 56 0 7 4 13 9 13 6 0 11 -90 13 -217 l3 -218 44 -153 44
-152 1068 0 1069 0 0 -28 c0 -17 10 -37 23 -50 22 -21 31 -22 244 -22 200 0
221 2 236 18 10 10 17 33 17 50 l0 32 454 0 454 0 126 162 126 162 0 208 0
208 50 0 50 0 1 -217 0 -218 42 -150 42 -150 1073 -3 1072 -2 0 -33 c0 -64 10
-67 257 -67 200 0 221 2 236 18 10 10 17 33 17 50 l0 32 458 0 457 1 123 158
122 159 0 211 0 211 50 0 50 0 0 -207 0 -208 40 -145 c23 -80 43 -153 46 -162
5 -17 65 -18 1075 -18 l1069 0 0 -33 c0 -64 10 -67 257 -67 217 0 220 0 241
23 12 13 22 35 22 50 l0 27 453 0 454 0 121 157 122 157 0 163 0 163 55 0 55
0 0 -166 c0 -163 1 -168 42 -320 l42 -154 1068 0 1068 0 0 -28 c0 -17 10 -37
23 -50 22 -21 31 -22 244 -22 200 0 221 2 236 18 10 10 17 33 17 50 l0 32 457
2 457 3 122 155 123 155 0 163 1 162 50 0 50 0 0 -85 0 -86 283 3 282 3 83 33
c80 33 82 34 82 68 l0 34 190 0 190 0 0 -135 0 -135 130 0 130 0 0 135 0 135
30 0 30 0 0 -195 0 -195 125 0 125 0 0 195 0 195 30 0 30 0 0 -135 0 -135 130
0 130 0 0 135 c0 128 1 135 20 135 20 0 20 -7 20 -320 l0 -319 -62 -3 -63 -3
-79 -99 -80 -99 -95 8 c-53 4 -334 10 -626 14 -291 5 -542 12 -557 17 -15 5
-136 107 -269 227 l-241 218 -83 -113 c-46 -62 -84 -117 -84 -121 -1 -4 125
-118 280 -252 l282 -245 743 0 742 0 6 23 c3 12 6 31 6 42 1 11 31 62 68 113
l67 92 309 1 309 0 87 -94 c71 -77 88 -101 94 -135 l6 -42 325 0 324 0 6 43
c5 30 26 69 73 135 l67 93 307 0 306 0 86 -90 c48 -51 88 -103 92 -118 3 -16
8 -36 11 -45 4 -17 140 -18 2680 -18 l2676 0 373 247 373 247 -101 105 c-56
58 -107 112 -113 119 -10 11 -71 -27 -330 -206 l-318 -220 -1291 -7 c-1707 -9
-3625 -25 -3757 -31 l-107 -5 -83 100 -83 101 -48 0 -48 0 0 320 0 320 35 0
35 0 0 -135 0 -135 130 0 130 0 0 135 0 135 30 0 30 0 0 -195 0 -195 125 0
125 0 0 195 0 195 35 0 35 0 0 -135 0 -135 125 0 125 0 0 135 0 135 174 0 175
0 3 -36 c3 -36 3 -37 101 -72 l97 -36 0 -73 0 -73 1224 0 1223 0 2439 526
c2395 516 2440 526 2481 558 23 18 218 251 432 517 l391 484 0 698 0 697 -445
0 -445 0 0 115 0 115 -1380 0 -1380 0 0 48 0 48 -212 182 -212 182 -425 0
-425 0 -103 68 -103 67 0 70 0 70 80 50 c44 27 80 52 80 55 0 3 10 21 22 40
43 68 48 97 48 298 l0 192 220 0 220 0 0 85 0 85 -230 0 -230 0 0 345 0 345
30 0 30 0 0 195 0 195 200 0 200 0 0 85 0 85 -220 0 -220 0 0 193 c0 200 -5
229 -48 297 -12 19 -22 37 -22 40 0 3 -36 28 -80 55 l-80 50 0 70 0 70 103 68
103 67 425 0 425 0 212 182 212 182 0 48 0 48 1380 0 1380 0 0 115 0 115 445
0 445 0 0 698 0 697 -391 484 c-214 266 -409 499 -432 517 -41 32 -86 42
-2481 558 l-2439 526 -1223 0 -1224 0 0 -73 0 -73 -97 -36 c-98 -35 -98 -36
-101 -72 l-3 -36 -175 0 -174 0 0 135 0 135 -125 0 -125 0 0 -135 0 -135 -35
0 -35 0 0 195 0 195 -125 0 -125 0 0 -195 0 -195 -30 0 -30 0 0 135 0 135
-130 0 -130 0 0 -135 0 -135 -35 0 -35 0 0 320 0 320 48 0 48 0 83 101 83 100
107 -5 c134 -6 2055 -22 3752 -31 l1297 -7 317 -220 c261 -181 319 -218 329
-207 7 8 58 62 114 120 l101 105 -373 247 -373 247 -2676 0 -2677 0 -6 -27
c-3 -16 -8 -36 -11 -46 -3 -10 -43 -59 -90 -108 l-85 -90 -306 0 -307 0 -67
93 c-47 66 -68 105 -73 136 l-6 42 -324 0 -325 0 -6 -42 c-6 -34 -23 -58 -94
-135 l-87 -94 -309 0 -309 1 -67 92 c-37 51 -67 102 -68 113 0 11 -3 30 -6 43
l-6 22 -742 0 -743 0 -279 -242 c-154 -134 -281 -247 -282 -251 -2 -4 35 -60
81 -123 l85 -115 241 218 c133 120 254 222 269 227 15 5 266 12 557 17 292 4
573 10 626 14 l95 8 80 -99 79 -99 63 -3 62 -3 0 -319 c0 -313 0 -320 -20
-320 -19 0 -20 7 -20 135 l0 135 -130 0 -130 0 0 -135 0 -135 -30 0 -30 0 0
195 0 195 -125 0 -125 0 0 -195 0 -195 -30 0 -30 0 0 135 0 135 -130 0 -130 0
0 -135 0 -135 -190 0 -190 0 0 34 c0 34 -2 35 -82 68 l-83 33 -282 3 -283 3 0
-86 0 -85 -50 0 -50 0 -1 163 0 162 -123 155 -122 155 -457 3 -457 2 0 34 c0
63 -10 66 -257 66 -217 0 -220 0 -241 -23 -12 -13 -22 -35 -22 -50 l0 -27
-1068 0 -1068 0 -42 -154 c-41 -152 -42 -157 -42 -320 l0 -166 -55 0 -55 0 0
163 0 163 -122 157 -121 157 -454 0 -453 0 0 28 c0 17 -10 37 -23 50 -22 21
-31 22 -244 22 -200 0 -221 -2 -236 -18 -10 -10 -17 -33 -17 -50 l0 -32 -1069
0 c-1010 0 -1070 -1 -1075 -17 -3 -10 -23 -83 -46 -163 l-40 -145 0 -207 0
-208 -50 0 -50 0 0 211 0 211 -122 159 -123 158 -457 1 -458 0 0 33 c0 64 -10
67 -257 67 -200 0 -221 -2 -236 -18 -10 -10 -17 -33 -17 -50 l0 -32 -1072 -2
-1073 -3 -42 -150 -42 -150 0 -217 -1 -218 -50 0 -50 0 0 208 0 208 -126 162
-126 162 -454 0 -454 0 0 33 c0 64 -10 67 -257 67 -217 0 -220 0 -241 -23 -12
-13 -22 -35 -22 -50 l0 -27 -1069 0 -1068 0 -44 -152 -44 -153 -3 -217 c-2
-128 -7 -218 -13 -218 -5 0 -9 6 -9 13 0 9 -45 31 -112 56 l-113 41 -417 0
-418 0 0 384 0 384 -711 436 -711 436 -1492 0 -1492 0 -198 -90 -199 -90 -323
0 -322 0 -198 225 -197 225 -74 0 -73 0 0 100 0 100 44 0 c44 0 45 1 133 106
86 103 89 105 123 100 73 -12 1105 -25 2425 -30 754 -4 1668 -9 2032 -13 l663
-6 312 -218 313 -218 112 117 c62 64 113 119 113 122 0 3 -166 114 -368 248
l-369 242 -2680 0 -2680 0 -7 -41 c-5 -34 -23 -59 -96 -138 l-89 -96 -305 3
-304 3 -62 86 c-66 91 -80 120 -80 159 l0 24 -327 -2 -326 -3 -11 -42 c-8 -31
-34 -66 -97 -135 l-86 -93 -305 3 -305 3 -66 93 c-45 63 -68 106 -73 134 l-7
42 -746 0 -746 0 -282 -246z m1747 -80 c97 -127 93 -124 155 -124 l55 0 0
-100 0 -100 -985 0 c-542 0 -985 2 -985 4 0 2 88 83 195 180 l194 176 78 15
c62 12 176 15 548 16 259 1 511 4 560 8 50 5 97 8 105 9 8 0 44 -37 80 -84z
m1295 72 c88 0 177 4 197 8 l37 7 82 -106 83 -105 53 0 53 0 0 -100 0 -100
-495 0 -495 0 0 99 0 100 42 3 c40 3 47 8 128 105 84 101 85 102 120 95 19 -4
107 -7 195 -6z m27285 -1459 c8 0 72 3 141 7 l126 8 79 -101 79 -101 52 0 53
0 0 -320 c0 -278 -2 -320 -15 -320 -13 0 -15 22 -15 135 l0 135 -130 0 -130 0
0 -135 0 -135 -30 0 -30 0 0 195 0 195 -125 0 -125 0 0 -195 0 -195 -30 0 -30
0 0 135 0 135 -130 0 -130 0 0 -135 0 -135 -30 0 -30 0 0 320 0 320 38 0 c37
0 43 5 123 101 l84 101 95 -8 c52 -4 102 -7 110 -7z m-16597 -284 c-18 -2 -48
-2 -65 0 -18 2 -4 4 32 4 36 0 50 -2 33 -4z m4000 0 c-18 -2 -48 -2 -65 0 -18
2 -4 4 32 4 36 0 50 -2 33 -4z m4010 0 c-18 -2 -48 -2 -65 0 -18 2 -4 4 32 4
36 0 50 -2 33 -4z m4000 0 c-18 -2 -48 -2 -65 0 -18 2 -4 4 32 4 36 0 50 -2
33 -4z m-25493 -2383 l0 -50 -90 0 -90 0 0 -60 0 -60 -65 0 c-65 0 -65 0 -65
28 0 26 11 34 153 110 83 45 153 82 155 82 1 0 2 -22 2 -50z m-1034 -233 c2
-2 -44 -18 -101 -37 l-105 -34 0 -348 0 -348 -95 0 -95 0 0 444 0 443 197 -58
c108 -33 198 -60 199 -62z m-206 -1125 l0 -138 -37 -13 c-21 -8 -64 -39 -95
-69 l-58 -55 0 206 0 207 95 0 95 0 0 -138z m147 -609 c29 -9 53 -19 53 -23 0
-11 -90 -30 -142 -30 l-52 0 34 35 c39 41 37 40 107 18z m8 -3345 c25 -7 45
-15 45 -18 0 -4 -27 -15 -61 -25 l-60 -19 -37 37 -37 37 53 0 c28 0 72 -5 97
-12z m-192 -499 l37 -13 0 -138 0 -138 -95 0 -95 0 0 207 0 206 58 -55 c31
-30 74 -61 95 -69z m37 -857 l0 -348 105 -34 c57 -19 103 -35 101 -37 -1 -2
-91 -29 -199 -62 l-197 -58 0 443 0 444 95 0 95 0 0 -348z m1060 -542 l0 -60
90 0 90 0 0 -51 0 -51 -127 68 c-191 101 -183 96 -183 127 0 27 1 27 65 27
l65 0 0 -60z m29870 -2085 l0 -135 130 0 130 0 0 135 0 135 30 0 30 0 0 -195
0 -195 125 0 125 0 0 195 0 195 30 0 30 0 0 -135 0 -135 130 0 130 0 0 135 c0
113 2 135 15 135 13 0 15 -42 15 -320 l0 -320 -53 0 -52 0 -79 -101 -79 -101
-126 8 c-151 8 -125 8 -246 0 l-100 -8 -84 101 c-80 96 -86 101 -123 101 l-38
0 0 320 0 320 30 0 30 0 0 -135z m-16207 -412 c-18 -2 -48 -2 -65 0 -18 2 -4
4 32 4 36 0 50 -2 33 -4z m4000 0 c-18 -2 -48 -2 -65 0 -18 2 -4 4 32 4 36 0
50 -2 33 -4z m4010 0 c-18 -2 -48 -2 -65 0 -18 2 -4 4 32 4 36 0 50 -2 33 -4z
m4000 0 c-18 -2 -48 -2 -65 0 -18 2 -4 4 32 4 36 0 50 -2 33 -4z m-23783
-1443 l0 -100 -55 0 c-62 0 -58 3 -155 -124 -57 -76 -68 -85 -90 -80 -14 3
-272 8 -575 10 -417 4 -569 9 -628 19 l-78 15 -194 176 c-107 97 -195 178
-195 180 0 2 443 4 985 4 l985 0 0 -100z m1590 0 l0 -100 -53 0 -53 0 -83
-105 -82 -105 -38 6 c-49 8 -289 10 -367 4 l-60 -5 -85 100 c-80 94 -87 100
-127 103 l-42 3 0 100 0 99 495 0 495 0 0 -100z"/>
</g>
</svg>
