<?xml version="1.0" standalone="no"?>
<!DOCTYPE svg PUBLIC "-//W3C//DTD SVG 20010904//EN"
 "http://www.w3.org/TR/2001/REC-SVG-20010904/DTD/svg10.dtd">
<svg version="1.0" xmlns="http://www.w3.org/2000/svg"
   viewBox="0 0 4274.000000 978.000000"
 preserveAspectRatio="xMidYMid meet">
<metadata>
Created by potrace 1.16, written by Peter Selinger 2001-2019
</metadata>
<g transform="translate(0.000000,978.000000) scale(0.100000,-0.100000)"
fill="#000000" stroke="none">
<path d="M8890 9738 l-255 -40 -435 -160 c-256 -94 -824 -287 -1380 -469
l-945 -310 -1200 -259 -1200 -259 -272 -133 -273 -132 1 -146 c0 -80 6 -179
13 -220 l12 -75 1119 -3 1120 -2 -579 -314 c-318 -173 -582 -318 -586 -323 -4
-4 -1 -28 7 -53 l13 -45 614 -200 c338 -110 612 -203 608 -206 -4 -3 -1192
-304 -2640 -669 l-2632 -664 2 -165 3 -164 2632 -666 c1448 -366 2633 -669
2633 -672 0 -3 -270 -93 -601 -199 -330 -107 -605 -197 -610 -201 -6 -3 -16
-26 -24 -52 l-14 -46 586 -318 585 -318 -1118 -5 -1118 -5 -12 -75 c-7 -41
-13 -140 -13 -220 l-1 -146 273 -130 272 -131 1195 -258 1195 -258 950 -312
c527 -174 1144 -384 1385 -473 l435 -160 285 -41 285 -41 1670 30 1670 30
1550 110 c853 61 1731 119 1951 130 l402 19 95 43 96 43 148 176 c95 112 159
198 177 237 23 48 35 62 52 62 12 0 100 5 195 10 712 41 3823 176 4749 205
l1105 36 25 29 25 30 373 -55 c263 -39 555 -91 990 -179 491 -98 659 -128 822
-145 l205 -22 1910 80 1910 81 1320 134 1320 135 1425 260 1425 259 291 120
c253 105 312 133 446 217 l155 96 67 146 c48 105 73 173 87 241 10 53 21 97
23 100 2 2 76 15 163 29 87 13 624 106 1193 204 874 152 1133 201 1665 315
347 75 643 138 658 141 26 5 28 8 22 42 l-6 36 203 -6 c112 -3 235 -12 273
-19 l70 -12 155 47 c85 26 377 126 648 221 l494 174 379 215 c337 191 402 232
587 370 l207 156 73 155 c39 86 72 160 72 164 0 5 -32 80 -72 165 l-72 157
-211 158 c-191 144 -244 177 -586 369 l-376 211 -494 174 c-272 95 -566 196
-654 224 l-160 51 -60 -14 c-33 -7 -154 -16 -268 -20 l-208 -6 7 35 c3 20 2
36 -3 36 -4 0 -299 63 -653 141 -565 123 -769 162 -1650 315 -553 96 -1093
188 -1200 205 -107 16 -195 31 -197 33 -1 1 -12 46 -23 100 -14 71 -38 136
-87 243 l-68 145 -153 95 c-129 79 -200 114 -450 218 l-297 123 -1435 261
-1435 260 -1345 135 -1345 136 -1878 75 -1879 76 -201 -21 c-166 -17 -311 -43
-812 -145 -451 -92 -708 -139 -985 -180 l-375 -55 -25 30 -25 29 -955 31
c-535 17 -1860 72 -3010 125 -1131 52 -2067 95 -2081 95 -21 0 -30 11 -57 65
-20 41 -87 131 -181 243 l-150 178 -92 37 -93 38 -335 15 c-185 9 -1049 67
-1921 130 l-1585 116 -1535 28 c-1967 37 -1860 38 -2180 -12z"/>
</g>
</svg>
