<?xml version="1.0" standalone="no"?>
<!DOCTYPE svg PUBLIC "-//W3C//DTD SVG 20010904//EN"
 "http://www.w3.org/TR/2001/REC-SVG-20010904/DTD/svg10.dtd">
<svg version="1.0" xmlns="http://www.w3.org/2000/svg"
   viewBox="0 0 4212.000000 804.000000"
 preserveAspectRatio="xMidYMid meet">
<metadata>
Created by potrace 1.16, written by Peter Selinger 2001-2019
</metadata>
<g transform="translate(0.000000,804.000000) scale(0.100000,-0.100000)"
fill="#000000" stroke="none">
<path d="M690 8015 c-25 -13 -38 -24 -29 -25 9 0 21 -12 28 -26 8 -19 16 -24
29 -19 28 12 35 10 302 -88 219 -80 255 -97 258 -115 l3 -22 -298 0 -299 0
-67 -68 -67 -68 0 -340 0 -341 -25 -23 -25 -23 0 -449 0 -448 -60 0 -60 0 0
-30 0 -30 -190 0 -190 0 0 -1880 0 -1880 190 0 190 0 0 -30 0 -30 60 0 60 0 0
-448 0 -449 25 -23 25 -23 0 -335 0 -335 66 -73 66 -74 300 0 299 0 -3 -21
c-3 -19 -42 -36 -270 -119 -168 -61 -272 -94 -280 -89 -21 14 -28 11 -40 -16
-7 -15 -17 -24 -25 -21 -7 3 -13 2 -13 -2 0 -5 20 -18 44 -29 l44 -22 424 157
423 157 722 2 722 3 158 200 158 200 1345 0 c1203 1 1355 2 1440 17 87 15 471
17 4510 22 l4415 6 160 450 160 450 48 3 47 3 0 -55 0 -55 77 -3 77 -3 17 -45
17 -45 496 -3 496 -2 0 30 0 30 245 0 245 0 0 -30 0 -30 230 0 230 0 0 30 0
30 245 0 245 0 0 -30 0 -30 230 0 230 0 0 30 0 30 245 0 245 0 0 -30 0 -30
232 2 232 3 57 95 56 95 2431 3 2430 2 12 -52 c10 -49 20 -62 123 -165 l112
-113 2530 0 2530 0 117 117 c108 110 116 121 123 166 l6 47 153 0 154 0 7 -47
c6 -45 15 -57 123 -165 l117 -118 2530 0 2530 0 113 113 c101 101 113 117 121
160 5 26 10 49 12 51 2 2 261 40 574 85 437 63 872 136 1865 313 l1295 230
241 159 241 159 162 0 163 0 201 182 c392 352 647 593 647 610 0 11 -8 18 -18
18 -52 0 -22 17 65 37 89 20 124 23 363 23 l265 0 73 153 c40 83 72 162 72
174 0 12 5 25 10 28 6 4 10 80 10 195 0 115 -4 191 -10 195 -5 3 -10 16 -10
28 0 12 -32 91 -72 175 l-73 152 -265 0 c-239 0 -274 3 -363 23 -87 20 -117
37 -65 37 10 0 18 7 18 18 0 17 -229 233 -640 606 l-205 185 -164 1 -164 0
-241 159 -241 159 -1295 230 c-993 177 -1428 250 -1865 313 -313 45 -572 83
-574 85 -2 2 -7 25 -12 51 -8 43 -20 59 -121 161 l-113 112 -2530 0 -2530 0
-117 -117 c-108 -109 -117 -121 -123 -165 l-7 -48 -154 0 -153 0 -6 48 c-7 44
-15 55 -123 165 l-117 117 -2530 0 -2530 0 -112 -113 c-103 -103 -113 -116
-123 -165 l-12 -52 -2431 2 -2431 3 -56 97 -55 97 -232 1 -233 0 0 -30 0 -30
-245 0 -245 0 0 30 0 30 -230 0 -230 0 0 -30 0 -30 -245 0 -245 0 0 30 0 30
-230 0 -230 0 0 -30 0 -30 -245 0 -245 0 0 30 0 30 -496 -2 -496 -3 -18 -45
-18 -45 -76 -3 -76 -3 0 -55 0 -55 -47 3 -47 3 -161 450 -160 450 -4415 6
c-4039 5 -4423 7 -4510 22 -85 15 -238 16 -1440 17 l-1345 0 -158 200 -158
200 -722 2 -722 3 -424 158 c-233 86 -425 157 -425 157 -1 -1 -21 -12 -46 -25z
m-310 -2285 c0 -19 -7 -20 -150 -20 -143 0 -150 1 -150 20 0 19 7 20 150 20
143 0 150 -1 150 -20z m0 -3420 c0 -19 -7 -20 -150 -20 -143 0 -150 1 -150 20
0 19 7 20 150 20 143 0 150 -1 150 -20z"/>
</g>
</svg>
