<?xml version="1.0" standalone="no"?>
<!DOCTYPE svg PUBLIC "-//W3C//DTD SVG 20010904//EN"
 "http://www.w3.org/TR/2001/REC-SVG-20010904/DTD/svg10.dtd">
<svg version="1.0" xmlns="http://www.w3.org/2000/svg"
   viewBox="0 0 3745.000000 3734.000000"
 preserveAspectRatio="xMidYMid meet">
<metadata>
Created by potrace 1.16, written by Peter Selinger 2001-2019
</metadata>
<g transform="translate(0.000000,3734.000000) scale(0.100000,-0.100000)"
fill="#000000" stroke="none">
<path d="M6225 37284 c-14 -31 -25 -60 -25 -65 0 -5 -142 -9 -315 -9 l-315 0
0 -55 0 -54 -116 -3 -115 -3 -179 -410 -179 -410 -1 -198 0 -198 65 -80 c36
-45 65 -85 65 -91 0 -5 -64 -155 -141 -332 l-142 -323 -826 -331 -826 -330 -3
-245 -2 -245 -103 -6 c-88 -5 -2984 -97 -3044 -96 -22 0 -23 -4 -23 -70 l0
-70 48 0 c89 1 2957 -90 3040 -96 l82 -6 0 -129 0 -129 -350 0 -350 0 0 -440
0 -440 -790 0 c-711 0 -793 -2 -815 -16 l-25 -16 0 -4387 0 -4388 23 -21 c18
-17 36 -22 80 -22 l57 0 0 -226 0 -225 127 -149 128 -149 1160 0 1160 -1 43
-80 43 -80 339 0 340 0 0 -965 0 -965 -603 0 -602 0 -158 -158 -157 -157 0
-1745 0 -1745 158 -158 157 -157 603 0 602 0 0 -965 0 -965 -341 -2 -342 -3
-41 -77 -41 -78 -1160 0 -1160 -1 -128 -149 -127 -149 0 -226 0 -225 -58 0
c-48 0 -62 -4 -80 -23 l-22 -23 0 -4380 0 -4381 23 -21 23 -22 792 0 792 0 0
-440 0 -440 350 0 350 0 0 -129 0 -129 -112 -6 c-115 -6 -2937 -96 -3015 -96
l-43 0 0 -70 0 -70 33 0 c77 1 2999 -91 3064 -96 l73 -6 2 -245 3 -245 826
-329 825 -329 142 -324 c78 -178 142 -328 142 -334 0 -6 -29 -46 -65 -90 l-65
-79 0 -196 0 -197 178 -409 177 -410 118 -1 117 0 0 -60 0 -60 313 0 314 0 24
-63 25 -62 800 -3 800 -2 26 62 26 63 146 3 146 3 0 59 0 60 395 0 395 0 0
-60 0 -60 133 0 134 0 28 -65 27 -65 798 0 798 0 27 65 28 65 324 0 323 0 0
60 0 60 118 0 119 0 31 152 c18 83 35 154 38 157 3 3 582 20 1287 38 705 17
1283 32 1285 32 1 1 2 30 2 66 0 36 -1 65 -2 66 -2 1 -567 16 -1256 34 -689
18 -1255 35 -1258 38 -2 2 45 240 106 528 100 476 110 534 110 629 0 67 -4
110 -11 117 -9 9 -9 26 0 69 6 32 11 79 11 105 l0 48 -186 210 -187 211 -654
0 -655 0 5 23 c8 28 487 2083 1003 4299 l404 1737 0 183 0 183 -78 71 c-57 52
-111 88 -207 138 -71 38 -132 70 -134 72 -1 1 22 151 53 331 31 181 56 356 56
389 l0 61 -101 67 c-93 62 -100 69 -95 94 3 15 55 321 116 680 86 511 110 674
110 748 l0 94 -92 59 c-51 33 -123 79 -159 103 l-66 43 219 1044 c120 574 220
1046 221 1048 2 2 1198 300 2658 664 l2654 660 355 360 355 359 436 -419 c240
-230 447 -422 460 -426 12 -4 41 -7 63 -7 42 1 1513 137 1597 148 l46 5 28
-135 c27 -131 29 -136 53 -136 14 0 371 34 793 75 423 41 774 75 781 75 9 0
26 45 48 120 24 87 38 120 49 120 9 1 1283 117 2832 258 l2816 257 52 44 c28
24 60 60 70 80 10 20 101 276 202 568 l184 533 508 0 507 0 0 -239 0 -238 183
-186 182 -185 2040 308 2040 309 303 0 303 1 1062 310 c584 171 1073 315 1087
321 23 10 263 162 475 302 l90 59 152 -7 c185 -9 233 -3 233 29 0 21 -6 24
-61 30 -86 8 -157 8 -177 -3 -9 -4 -38 -5 -65 -2 l-48 6 111 110 110 110 0
215 0 215 -105 105 c-58 58 -105 108 -105 111 0 14 73 20 101 8 20 -8 61 -9
134 -4 101 7 105 8 105 30 0 13 -7 25 -14 28 -18 7 -165 7 -289 0 -68 -3 -93
-1 -105 10 -10 8 -133 89 -275 180 l-257 166 -1079 316 -1078 315 -299 0 -299
1 -2045 309 -2045 308 -183 -184 -182 -184 0 -240 0 -240 -507 0 -508 0 -184
533 c-101 292 -192 548 -202 568 -10 20 -42 57 -71 81 l-53 45 -2830 257
c-1556 142 -2830 259 -2831 259 -1 1 -16 55 -35 120 -28 100 -36 117 -54 118
-11 0 -373 35 -805 77 l-785 77 -29 -135 c-15 -74 -29 -136 -30 -137 0 0 -374
34 -831 77 -617 57 -838 75 -864 68 -25 -7 -142 -113 -464 -421 -236 -227
-434 -414 -440 -416 -6 -2 -169 156 -362 353 l-350 356 -2655 660 c-1460 364
-2655 662 -2657 664 -1 1 -95 443 -207 982 -113 538 -211 1009 -219 1045 l-14
66 156 100 156 101 3 94 c2 81 -12 181 -108 748 -60 360 -113 667 -116 682 -5
25 2 32 95 94 l101 67 0 61 c0 33 -25 208 -56 389 -31 181 -54 330 -52 332 1
1 62 34 135 72 95 51 152 89 207 139 l76 69 0 184 0 183 -506 2172 c-598 2569
-891 3826 -900 3861 l-6 25 654 0 655 0 188 213 187 212 -7 80 c-7 86 -7 85 1
250 l5 110 -111 524 c-60 288 -108 526 -105 529 2 3 568 20 1257 38 689 18
1254 33 1256 33 1 1 2 30 2 66 0 36 -1 65 -2 66 -2 0 -580 15 -1285 33 -706
18 -1285 35 -1288 38 -3 2 -20 75 -38 161 l-32 157 -117 0 -118 0 0 55 0 55
-323 0 -324 0 -28 65 -27 65 -798 0 -798 0 -27 -65 -28 -65 -134 0 -133 0 0
-55 0 -55 -395 0 -395 0 0 55 0 54 -146 3 -146 3 -25 63 -25 62 -799 0 -799 0
-25 -56z"/>
</g>
</svg>
