<?xml version="1.0" standalone="no"?>
<!DOCTYPE svg PUBLIC "-//W3C//DTD SVG 20010904//EN"
 "http://www.w3.org/TR/2001/REC-SVG-20010904/DTD/svg10.dtd">
<svg version="1.0" xmlns="http://www.w3.org/2000/svg"
   viewBox="0 0 3902.000000 1922.000000"
 preserveAspectRatio="xMidYMid meet">
<metadata>
Created by potrace 1.16, written by Peter Selinger 2001-2019
</metadata>
<g transform="translate(0.000000,1922.000000) scale(0.100000,-0.100000)"
fill="#000000" stroke="none">
<path d="M12722 19164 l-1493 -53 -1177 -125 c-647 -69 -1193 -127 -1212 -128
l-35 -3 -11 -400 c-18 -637 -29 -2285 -15 -2285 6 0 11 -6 11 -13 0 -8 10 -22
21 -33 19 -17 38 -19 178 -19 86 0 303 -1 484 -2 l327 -3 0 -395 0 -395 150 7
150 6 0 -226 0 -227 -120 0 -119 0 -150 -127 -150 -128 -1 -55 -1 -55 -1607
-829 -1608 -829 -158 -215 -159 -214 7 -271 c4 -150 8 -276 9 -281 2 -8 -2117
-364 -2173 -366 -8 0 -80 52 -159 115 -80 64 -149 114 -155 112 -6 -3 -173
-49 -372 -103 l-360 -98 -82 -106 -82 -106 -612 -88 c-337 -47 -618 -87 -625
-86 -7 0 -44 42 -84 93 -39 50 -74 93 -78 95 -4 1 -277 -78 -607 -177 l-599
-179 -28 -37 c-33 -46 -37 -95 -7 -95 20 0 20 -7 20 -2155 0 -2148 0 -2155
-20 -2155 -28 0 -26 -33 5 -87 14 -23 27 -43 30 -43 2 0 274 -81 606 -180 332
-99 605 -176 608 -171 3 4 38 50 76 100 62 80 73 91 95 86 14 -3 293 -43 620
-90 355 -51 599 -90 607 -98 6 -6 45 -54 85 -106 l73 -95 372 -101 372 -102
142 114 c80 64 151 113 163 113 11 0 612 -97 1334 -215 723 -118 1315 -215
1318 -215 2 0 -26 -45 -63 -100 l-66 -100 -49 -262 -48 -262 112 -238 113
-239 1078 -815 1077 -816 0 -94 0 -94 124 0 125 0 305 -231 306 -232 0 -662 0
-662 -272 -6 c-149 -4 -343 -7 -430 -7 l-158 0 0 -230 0 -230 43 0 c23 0 204
-7 402 -15 198 -8 372 -15 388 -15 24 0 27 -4 27 -35 0 -27 4 -35 18 -35 9 0
332 -13 718 -29 l701 -29 784 24 c737 22 908 23 2847 24 l2062 0 0 74 0 74 68
15 c37 9 204 44 372 78 168 34 306 63 307 64 1 0 5 49 9 108 4 59 9 107 12
107 2 0 443 65 979 145 1144 171 2434 386 3103 518 l475 94 168 75 167 75
-167 77 -168 78 -480 94 c-703 139 -1989 352 -3107 516 l-978 143 0 85 c0 47
-3 114 -6 150 l-6 65 -307 64 c-168 35 -336 70 -373 78 l-68 15 0 74 0 74
-946 0 -947 0 8 1520 c6 1202 5 1523 -5 1535 -10 12 -47 15 -205 15 l-192 0
-44 -55 -44 -55 -1475 2 -1475 3 -7 160 c-3 88 -8 413 -10 723 l-3 562 158 0
157 0 0 245 0 245 -180 0 -180 0 0 765 0 765 -770 0 -770 0 0 -765 0 -765
-950 0 -950 0 0 770 0 770 1900 0 1900 0 0 240 0 240 -158 0 -159 0 5 613 c2
336 7 686 11 777 l6 165 1475 2 1475 3 48 -60 48 -60 188 0 c155 0 191 3 201
15 10 12 11 324 5 1510 l-8 1495 24 0 c13 0 1383 155 3044 343 l3020 342 334
244 333 243 2467 113 c1356 63 2520 117 2586 120 l121 7 149 123 c113 92 153
131 161 156 10 31 16 34 55 37 24 2 382 -4 796 -13 694 -15 788 -15 1225 0
420 14 1008 16 5201 13 l4727 -3 0 245 0 245 -63 32 c-56 29 -169 54 -1177
252 l-1115 220 -1825 265 c-1564 228 -2155 309 -4135 565 l-2310 300 -2550
280 -2550 280 -2440 171 c-1342 94 -2498 173 -2570 176 -286 11 -3777 94
-3918 93 -84 -1 -824 -25 -1645 -55z m7943 -3071 c-16 -2 -418 -49 -893 -103
l-863 -99 -1047 69 c-576 39 -1062 70 -1079 70 -31 0 -33 2 -33 35 l0 35 1973
-1 c1084 -1 1959 -4 1942 -6z m1842 -20 c-445 -14 -811 -23 -814 -20 -2 3 -2
15 2 26 l6 21 807 -1 807 -2 -808 -24z m-7202 -593 c-225 -27 -438 -51 -472
-55 l-63 -7 0 41 0 41 98 1 c53 1 230 7 392 14 485 20 489 17 45 -35z m-1022
-7 c-13 -2 -35 -2 -50 0 -16 2 -5 4 22 4 28 0 40 -2 28 -4z m-175 -10 c-32 -2
-84 -2 -115 0 -32 2 -6 3 57 3 63 0 89 -1 58 -3z m-275 -10 c-29 -2 -77 -2
-105 0 -29 2 -6 3 52 3 58 0 81 -1 53 -3z m-280 -10 c-23 -2 -64 -2 -90 0 -26
2 -7 3 42 3 50 0 71 -1 48 -3z m-280 -10 c-24 -2 -62 -2 -85 0 -24 2 -5 4 42
4 47 0 66 -2 43 -4z m-275 -10 c-21 -2 -55 -2 -75 0 -21 2 -4 4 37 4 41 0 58
-2 38 -4z m-275 -10 c-18 -2 -48 -2 -65 0 -18 2 -4 4 32 4 36 0 50 -2 33 -4z
m-280 -10 c-13 -2 -35 -2 -50 0 -16 2 -5 4 22 4 28 0 40 -2 28 -4z m-275 -10
c-10 -2 -28 -2 -40 0 -13 2 -5 4 17 4 22 1 32 -1 23 -4z m-280 -10 c-10 -2
-26 -2 -35 0 -10 3 -2 5 17 5 19 0 27 -2 18 -5z m-280 -10 c-10 -2 -26 -2 -35
0 -10 3 -2 5 17 5 19 0 27 -2 18 -5z m-275 -10 c-7 -2 -21 -2 -30 0 -10 3 -4
5 12 5 17 0 24 -2 18 -5z m-290 -10 c-7 -2 -19 -2 -25 0 -7 3 -2 5 12 5 14 0
19 -2 13 -5z m-280 -10 c-7 -2 -19 -2 -25 0 -7 3 -2 5 12 5 14 0 19 -2 13 -5z
m-280 -10 c-7 -2 -19 -2 -25 0 -7 3 -2 5 12 5 14 0 19 -2 13 -5z m-276 -9 c-3
-3 -12 -4 -19 -1 -8 3 -5 6 6 6 11 1 17 -2 13 -5z m-615 -2299 c26 -39 27 -49
44 -303 l18 -263 103 -77 102 -77 1 -1197 0 -1198 -833 0 -833 0 -177 418
-177 417 0 676 0 676 -24 22 -24 22 -582 -95 c-320 -53 -584 -96 -585 -96 -1
0 -28 63 -60 141 l-58 141 18 75 c10 41 23 80 29 88 6 8 684 367 1506 798
l1495 785 5 -457 5 -456 27 -40z m-1688 -3032 l35 -83 -49 0 -50 0 1 113 c1
126 -6 129 63 -30z m10 -2700 c-80 -189 -72 -186 -73 -30 l-1 137 59 0 60 0
-45 -107z m1946 -1036 l0 -1143 -103 -79 -103 -79 -18 -265 c-18 -263 -19
-266 -47 -308 l-29 -42 0 -714 0 -714 -182 -7 c-101 -4 -204 -7 -230 -8 l-48
-2 -1127 864 c-621 474 -1132 867 -1137 871 -5 5 -14 47 -21 95 l-12 88 173
261 172 262 149 -24 c81 -13 225 -36 318 -52 170 -29 170 -29 198 -9 l27 19 0
624 0 623 186 441 187 441 823 0 824 0 0 -1143z"/>
</g>
</svg>
