<?xml version="1.0" standalone="no"?>
<!DOCTYPE svg PUBLIC "-//W3C//DTD SVG 20010904//EN"
 "http://www.w3.org/TR/2001/REC-SVG-20010904/DTD/svg10.dtd">
<svg version="1.0" xmlns="http://www.w3.org/2000/svg"
   viewBox="0 0 2526.000000 1176.000000"
 preserveAspectRatio="xMidYMid meet">
<metadata>
Created by potrace 1.16, written by Peter Selinger 2001-2019
</metadata>
<g transform="translate(0.000000,1176.000000) scale(0.100000,-0.100000)"
fill="#000000" stroke="none">
<path d="M11780 11704 c-1164 -49 -1306 -56 -1780 -98 -283 -26 -523 -46 -532
-46 -16 0 -18 -13 -18 -139 l0 -139 -37 -6 c-21 -3 -447 -58 -948 -121 -500
-63 -926 -117 -946 -121 l-37 -5 -7 126 c-6 110 -9 125 -24 121 -9 -3 -414
-89 -901 -192 -487 -103 -886 -188 -887 -189 -1 -1 -6 -58 -9 -127 -4 -70 -10
-131 -13 -136 -5 -7 -1526 -435 -1599 -450 -22 -4 -22 -4 -22 124 0 71 -4 134
-8 140 -5 8 -228 -75 -687 -256 l-680 -267 -3 -144 -3 -144 -292 -140 c-178
-85 -392 -197 -547 -287 l-255 -148 -3 111 c-1 61 -6 109 -10 107 -37 -15
-497 -382 -647 -516 l-190 -169 -253 -329 -253 -329 -65 -165 c-47 -120 -73
-205 -94 -309 -17 -79 -30 -147 -30 -149 0 -3 12 6 28 20 52 49 168 114 394
221 l227 107 320 80 c215 54 493 113 848 180 509 96 558 103 1373 205 1110
139 1699 192 3150 285 1047 66 1815 108 1825 99 4 -4 -102 -359 -110 -367 -1
-2 -400 6 -885 18 -665 15 -886 18 -896 9 -11 -9 -14 -48 -14 -173 l0 -162 68
-18 c37 -10 146 -47 242 -83 96 -36 361 -127 588 -203 l413 -138 -163 -6 c-90
-3 -413 -8 -718 -11 -305 -3 -749 -8 -986 -12 l-431 -6 -21 -61 -20 -61 -1
133 -1 132 -940 0 -940 0 0 -130 c0 -117 -2 -130 -17 -130 -10 -1 -281 -27
-603 -58 l-585 -57 -3 -117 c-2 -101 -5 -118 -20 -122 -9 -2 -42 -10 -72 -16
-30 -7 -72 -16 -92 -21 l-38 -10 0 -959 0 -959 38 -10 c20 -6 69 -17 109 -26
l72 -16 3 -117 3 -117 580 -57 c319 -31 590 -57 603 -57 22 -1 22 -3 22 -136
l0 -135 940 0 940 0 1 138 1 137 21 -62 21 -63 135 0 c142 -1 2152 -28 2161
-30 3 0 -175 -60 -395 -134 -220 -73 -503 -172 -630 -219 -126 -47 -242 -88
-257 -92 l-28 -7 0 -158 c0 -123 3 -160 14 -169 11 -9 227 -7 896 9 485 12
884 20 885 18 8 -8 116 -371 111 -375 -19 -19 -2462 138 -3531 228 -495 41
-747 68 -1440 154 l-840 105 -531 105 c-309 60 -666 138 -853 185 l-322 80
-227 107 c-225 106 -342 172 -394 221 -16 14 -28 24 -28 21 0 -2 13 -71 29
-154 24 -119 43 -183 94 -310 l65 -159 253 -329 254 -330 186 -166 c150 -134
635 -521 654 -521 2 0 6 50 7 110 l3 110 255 -148 c154 -89 371 -203 547 -287
l292 -140 3 -144 3 -144 680 -267 c459 -180 682 -264 687 -256 4 6 8 69 8 140
0 128 0 128 22 124 73 -15 1594 -443 1599 -450 3 -5 9 -66 13 -136 3 -69 8
-126 9 -127 1 -1 400 -86 887 -189 487 -103 892 -190 901 -192 15 -4 18 11 24
121 l7 126 37 -5 c20 -4 446 -58 946 -121 501 -63 927 -118 948 -121 l37 -6 0
-139 c0 -129 1 -139 19 -139 10 0 243 -20 517 -45 462 -41 589 -48 1719 -94
671 -28 1260 -53 1309 -56 l89 -6 -5 51 c-3 27 -5 50 -4 51 1 0 80 8 176 17
l175 17 3 889 2 889 -100 -7 c-55 -3 -145 -9 -199 -12 l-99 -7 -6 104 c-3 57
-10 295 -16 529 -6 234 -14 469 -17 523 l-6 97 -526 0 c-712 0 -2664 39 -2678
54 -2 2 22 107 54 232 l58 229 50 7 c28 3 136 7 242 7 l192 1 288 -133 288
-133 1760 154 1760 154 55 60 c66 71 55 71 243 2 l118 -43 220 31 c176 25 222
29 228 19 5 -7 14 -53 21 -102 7 -49 17 -92 22 -95 4 -3 70 -18 146 -34 l137
-28 1650 184 c908 101 1653 184 1658 184 4 0 7 -6 7 -13 0 -7 26 -31 58 -54
52 -37 66 -42 138 -48 43 -3 135 -13 204 -21 l125 -15 1345 262 1345 262 48
47 48 47 -15 58 c-8 33 -14 61 -12 63 2 1 396 147 875 322 l872 320 221 0
c319 0 271 -26 609 329 151 158 302 318 336 357 l61 70 -76 90 c-43 50 -193
213 -336 362 -320 335 -277 312 -594 312 l-221 0 -872 319 c-479 176 -873 322
-875 323 -2 2 4 30 12 63 l15 58 -48 47 -48 47 -1343 258 -1344 257 -205 -16
-205 -17 -59 -41 c-37 -26 -59 -49 -59 -61 0 -16 -5 -18 -37 -13 -21 3 -767
89 -1658 190 l-1620 184 -137 -28 c-76 -16 -142 -31 -146 -34 -5 -3 -15 -46
-22 -95 -7 -49 -16 -95 -21 -102 -6 -10 -52 -6 -227 19 l-220 31 -135 -49
c-75 -28 -144 -50 -154 -50 -10 0 -43 26 -73 59 l-55 59 -1735 151 c-954 83
-1748 152 -1765 153 -20 1 -105 -34 -260 -109 -350 -169 -296 -153 -524 -152
-108 0 -218 4 -246 7 l-50 7 -58 229 c-32 125 -57 229 -55 231 14 13 2216 55
2919 55 l286 0 6 98 c3 53 11 288 17 522 6 234 13 472 16 529 l6 104 92 -6
c50 -4 139 -10 199 -13 l107 -7 0 885 0 884 -162 18 c-90 10 -170 20 -179 22
-13 4 -15 14 -11 54 5 50 4 50 -24 49 -16 -1 -598 -25 -1294 -55z"/>
</g>
</svg>
