<?xml version="1.0" standalone="no"?>
<!DOCTYPE svg PUBLIC "-//W3C//DTD SVG 20010904//EN"
 "http://www.w3.org/TR/2001/REC-SVG-20010904/DTD/svg10.dtd">
<svg version="1.0" xmlns="http://www.w3.org/2000/svg"
   viewBox="0 0 3155.000000 2228.000000"
 preserveAspectRatio="xMidYMid meet">
<metadata>
Created by potrace 1.16, written by Peter Selinger 2001-2019
</metadata>
<g transform="translate(0.000000,2228.000000) scale(0.100000,-0.100000)"
fill="#000000" stroke="none">
<path d="M21349 22262 l-56 -15 -7 -120 c-3 -66 -6 -180 -6 -254 l0 -133 23 6
c23 5 55 -55 641 -1202 339 -664 615 -1209 612 -1211 -2 -2 -559 36 -1237 85
-679 49 -1235 89 -1236 88 -1 -1 -7 -51 -12 -110 -6 -60 -13 -111 -16 -114 -2
-3 -70 5 -151 17 -80 12 -148 20 -150 18 -2 -2 -7 -30 -10 -63 l-6 -59 154
-56 c103 -38 152 -61 151 -70 -1 -8 -5 -58 -8 -113 l-7 -99 -63 7 -63 6 -12
-65 c-14 -77 5 -73 -210 -45 -85 11 -156 20 -157 20 -2 0 -3 139 -3 308 l0
308 -759 323 -760 324 -1510 98 c-1508 98 -1511 98 -2283 117 l-773 18 -680
-26 -680 -27 -70 -30 -70 -31 -1516 -17 -1516 -18 -58 27 c-46 21 -72 26 -136
26 -43 0 -1038 -34 -2211 -75 l-2133 -75 -865 -135 c-476 -74 -877 -139 -891
-143 -15 -5 -88 -60 -162 -123 l-136 -114 -1 -217 0 -218 -505 0 -505 0 0
-154 0 -154 -77 -6 c-113 -9 -1052 -129 -1064 -136 -5 -4 -43 -131 -84 -283
l-75 -276 0 -1462 0 -1462 77 -284 76 -283 412 0 c344 0 419 -2 448 -15 32
-13 173 -15 1067 -15 l1030 0 2 379 3 380 58 -35 57 -36 0 -54 0 -54 87 0 86
0 478 -296 478 -295 953 35 c524 20 981 37 1016 39 l62 3 0 -408 0 -408 -27 0
c-48 0 -615 -30 -680 -36 l-63 -6 0 -103 0 -103 -212 -279 -213 -279 -255 -67
-255 -67 -420 -36 c-231 -19 -430 -37 -442 -40 -15 -3 -36 -29 -67 -87 -43
-78 -58 -94 -316 -327 -149 -135 -289 -261 -311 -280 -38 -33 -43 -43 -64
-140 -13 -57 -22 -106 -20 -109 3 -2 341 8 752 23 412 14 828 26 926 26 l177
0 0 -750 0 -750 -162 0 c-90 0 -506 12 -925 27 -419 15 -765 25 -767 22 -3 -3
6 -52 19 -109 20 -89 28 -109 53 -130 16 -14 156 -140 311 -280 270 -244 284
-259 327 -337 39 -72 49 -83 77 -87 18 -3 219 -22 447 -41 l415 -36 250 -66
250 -67 47 -60 c25 -34 120 -159 212 -280 l166 -218 0 -104 c0 -57 1 -104 3
-104 1 0 162 -9 357 -20 195 -11 367 -20 383 -20 l27 0 0 -405 0 -405 -64 0
c-36 0 -482 16 -993 36 -510 19 -941 34 -958 32 -18 -2 -222 -122 -501 -296
l-471 -292 -86 0 -87 0 0 -54 0 -53 -57 -36 -58 -35 -3 379 -2 379 -1029 0
c-889 0 -1034 -2 -1071 -15 -35 -12 -113 -15 -450 -15 l-407 0 -76 -283 -77
-284 0 -1461 0 -1461 75 -277 c41 -152 77 -279 80 -282 8 -8 964 -132 1020
-132 28 0 67 -3 88 -6 l37 -7 0 -153 0 -154 505 0 505 0 1 -217 0 -218 136
-114 c75 -63 150 -118 167 -123 17 -4 416 -69 887 -143 l857 -134 2208 -77
2209 -78 64 29 64 29 1516 -18 1516 -18 70 -30 70 -30 690 -27 690 -26 750 18
c748 17 754 18 2273 117 l1523 99 759 323 760 323 0 307 0 307 33 6 c51 8 279
35 303 35 19 0 23 -9 34 -65 l12 -65 63 6 63 7 7 -99 c3 -55 7 -105 8 -113 1
-9 -50 -33 -152 -70 l-153 -56 6 -59 c3 -33 8 -61 10 -63 1 -2 69 6 150 18 80
12 148 20 151 17 3 -3 10 -54 16 -114 5 -59 11 -109 12 -109 1 -1 557 38 1235
87 679 50 1235 88 1238 85 2 -2 -273 -547 -613 -1211 -583 -1141 -618 -1207
-640 -1201 l-23 5 0 -133 c0 -74 3 -188 6 -254 l7 -120 65 -17 c35 -9 66 -15
68 -14 2 2 33 105 68 228 40 137 61 228 56 235 -6 7 263 467 739 1265 l748
1255 100 10 99 10 298 275 c164 151 305 279 313 284 31 17 233 16 533 -2 l305
-18 585 88 585 89 1097 316 1096 316 -5 33 c-5 31 -4 32 43 42 27 5 713 124
1524 263 811 140 1466 255 1455 256 -11 2 -697 -107 -1525 -240 l-1505 -243
-18 89 c-10 49 -15 93 -10 98 4 4 183 76 396 159 l389 152 385 255 c289 191
388 251 394 241 5 -7 12 -19 17 -27 7 -10 108 65 418 309 225 178 421 335 436
349 15 14 174 249 354 521 l327 495 33 375 c18 206 31 376 30 378 -2 2 -51
-51 -110 -117 l-106 -119 -47 19 -48 20 -1004 -150 c-553 -83 -1013 -151
-1023 -151 -16 0 -18 9 -19 73 -1 39 -4 110 -8 157 l-8 85 -1 -101 c-1 -56 -5
-129 -8 -162 -6 -56 -9 -61 -34 -67 -18 -4 -54 -37 -104 -95 -60 -69 -84 -91
-109 -95 -18 -3 -243 -37 -502 -75 l-470 -70 -53 -60 -54 -60 -661 0 -662 -1
-120 -135 c-66 -74 -134 -150 -151 -170 l-30 -36 -64 142 -64 142 -1232 -8
-1232 -7 -283 152 -282 153 -991 -262 c-545 -144 -999 -264 -1008 -266 -17 -5
-18 -26 -18 -263 l0 -258 -96 -12 c-53 -7 -97 -11 -98 -9 -2 2 -26 191 -53
421 -28 230 -54 421 -57 424 -5 6 -409 -39 -478 -53 -28 -6 -26 -11 -44 119
-6 47 -7 47 -44 47 -46 0 -38 -36 -82 384 l-33 318 -50 -6 c-27 -3 -187 -22
-355 -41 -168 -20 -310 -38 -317 -40 -6 -2 -9 -12 -7 -22 5 -17 -32 -22 -547
-72 -499 -48 -554 -52 -564 -38 -6 9 -38 50 -71 92 -50 64 -63 75 -90 75 -16
0 -500 -43 -1075 -95 l-1044 -96 -540 -15 c-297 -8 -560 -17 -584 -20 l-43 -6
6 -101 c3 -56 8 -119 12 -140 l6 -37 -431 0 -431 0 0 -110 0 -110 -60 0 -60 0
0 210 0 210 -655 0 -655 0 0 -225 0 -225 -60 0 -60 0 0 225 0 225 -800 0 -800
0 0 -225 0 -225 -60 0 -60 0 0 125 0 125 -375 0 -375 0 0 65 0 65 -45 0 -45 0
0 471 0 471 153 -6 c83 -3 485 -8 892 -11 407 -3 772 -8 811 -11 l71 -5 13 59
12 59 152 7 c83 3 517 9 964 12 446 4 812 10 812 14 0 4 -384 11 -852 15 -469
4 -903 10 -965 14 l-112 6 -178 247 -178 247 -335 217 c-184 120 -396 263
-470 319 -125 94 -137 106 -165 164 l-30 63 117 226 117 227 153 72 153 72
515 96 c477 90 519 99 570 129 30 18 129 78 220 133 l165 100 365 67 c201 36
368 66 372 66 4 0 30 72 60 160 l53 160 -53 160 c-30 88 -56 160 -60 160 -4 0
-169 30 -367 66 -247 45 -373 72 -400 87 -22 11 -121 71 -221 132 l-180 112
-520 98 -519 98 -154 71 -153 71 -115 229 -115 228 28 62 c27 59 36 67 176
170 80 60 293 204 472 320 l325 211 175 245 176 245 63 6 c34 4 445 10 912 14
468 4 891 10 940 14 50 4 -263 10 -695 14 -432 4 -882 10 -1001 13 l-217 7
-13 60 -12 59 -131 -6 c-72 -3 -466 -8 -876 -11 -410 -3 -784 -8 -833 -11
l-87 -6 0 471 0 471 45 0 45 0 0 65 0 65 375 0 375 0 0 125 0 125 60 0 60 0 0
-225 0 -225 800 0 800 0 0 225 0 225 60 0 60 0 0 -225 0 -225 655 0 655 0 0
210 0 210 60 0 60 0 0 -110 0 -110 431 0 431 0 -6 -37 c-8 -46 -20 -243 -15
-244 2 0 267 -9 589 -19 l585 -19 1044 -96 c575 -52 1056 -95 1071 -95 21 0
39 18 95 90 47 60 77 90 90 90 11 0 250 -23 530 -50 281 -27 520 -50 533 -50
18 0 23 -5 20 -22 -3 -21 2 -23 62 -30 36 -4 199 -24 363 -44 164 -20 299 -35
301 -33 1 2 17 146 35 319 44 430 35 386 81 382 l37 -4 7 49 c18 130 16 125
44 119 66 -13 474 -58 478 -53 3 3 29 194 57 424 27 230 51 419 53 421 1 2 45
-2 98 -8 l96 -12 0 -258 0 -257 38 -11 c20 -6 474 -126 1008 -267 l971 -256
279 152 279 151 1236 -6 1236 -6 63 141 63 142 41 -47 c23 -25 91 -102 151
-171 l110 -124 662 -1 661 0 54 -60 53 -60 475 -70 c261 -39 487 -73 503 -76
18 -4 52 -35 105 -95 48 -56 87 -91 103 -94 24 -5 27 -12 33 -67 3 -33 7 -106
8 -162 2 -113 5 -91 16 94 l7 125 1020 -152 1020 -153 47 19 48 20 106 -120
c59 -66 108 -118 110 -116 2 1 -12 171 -30 377 l-33 375 -323 490 c-178 270
-330 498 -339 509 -9 10 -207 169 -440 354 -388 307 -425 334 -437 317 -7 -10
-15 -22 -16 -27 -2 -6 -178 105 -390 246 l-387 255 -388 151 c-213 84 -392
155 -396 159 -5 5 0 49 9 99 16 83 20 91 38 87 50 -12 3132 -505 3139 -502 5
1 -693 123 -1550 271 -857 147 -1569 270 -1582 273 -20 5 -22 10 -18 39 3 19
4 34 1 34 -2 0 -494 141 -1092 314 l-1087 313 -595 91 -595 90 -310 -20 c-294
-18 -489 -18 -519 -1 -7 4 -149 133 -314 285 l-300 277 -97 8 -97 8 -751 1259
c-458 769 -746 1261 -739 1265 7 4 -7 70 -44 196 -30 105 -59 207 -65 228 -11
41 -11 41 -90 19z m-12919 -7252 c0 -5 20 -10 45 -10 l45 0 0 -475 0 -475
-203 0 -204 0 -28 -72 c-15 -40 -31 -76 -34 -80 -5 -6 -1250 -78 -1349 -78
l-32 0 0 405 0 405 43 0 c23 0 184 5 357 11 l315 12 515 183 c283 100 518 183
523 183 4 1 7 -3 7 -9z m-1036 -6585 c357 -19 652 -38 656 -42 4 -4 20 -41 35
-80 l28 -73 204 0 203 0 0 -475 0 -475 -44 0 c-24 0 -46 -4 -48 -10 -1 -5
-236 73 -521 174 l-519 184 -359 13 -359 13 0 403 0 403 38 0 c20 0 329 -16
686 -35z"/>
<path d="M31228 17303 c6 -2 18 -2 25 0 6 3 1 5 -13 5 -14 0 -19 -2 -12 -5z"/>
<path d="M31288 17293 c6 -2 18 -2 25 0 6 3 1 5 -13 5 -14 0 -19 -2 -12 -5z"/>
<path d="M31348 17283 c6 -2 18 -2 25 0 6 3 1 5 -13 5 -14 0 -19 -2 -12 -5z"/>
<path d="M31408 17273 c6 -2 18 -2 25 0 6 3 1 5 -13 5 -14 0 -19 -2 -12 -5z"/>
<path d="M31468 17263 c6 -2 18 -2 25 0 6 3 1 5 -13 5 -14 0 -19 -2 -12 -5z"/>
<path d="M31528 5023 c7 -3 16 -2 19 1 4 3 -2 6 -13 5 -11 0 -14 -3 -6 -6z"/>
<path d="M31468 5013 c7 -3 16 -2 19 1 4 3 -2 6 -13 5 -11 0 -14 -3 -6 -6z"/>
<path d="M31408 5003 c7 -3 16 -2 19 1 4 3 -2 6 -13 5 -11 0 -14 -3 -6 -6z"/>
<path d="M31348 4993 c7 -3 16 -2 19 1 4 3 -2 6 -13 5 -11 0 -14 -3 -6 -6z"/>
<path d="M31283 4983 c9 -2 23 -2 30 0 6 3 -1 5 -18 5 -16 0 -22 -2 -12 -5z"/>
<path d="M31223 4973 c9 -2 23 -2 30 0 6 3 -1 5 -18 5 -16 0 -22 -2 -12 -5z"/>
<path d="M31163 4963 c9 -2 23 -2 30 0 6 3 -1 5 -18 5 -16 0 -22 -2 -12 -5z"/>
<path d="M31103 4953 c9 -2 23 -2 30 0 6 3 -1 5 -18 5 -16 0 -22 -2 -12 -5z"/>
</g>
</svg>
