<?xml version="1.0" standalone="no"?>
<!DOCTYPE svg PUBLIC "-//W3C//DTD SVG 20010904//EN"
 "http://www.w3.org/TR/2001/REC-SVG-20010904/DTD/svg10.dtd">
<svg version="1.0" xmlns="http://www.w3.org/2000/svg"
   viewBox="0 0 5000.000000 1903.000000"
 preserveAspectRatio="xMidYMid meet">
<metadata>
Created by potrace 1.16, written by Peter Selinger 2001-2019
</metadata>
<g transform="translate(0.000000,1903.000000) scale(0.100000,-0.100000)"
fill="#000000" stroke="none">
<path d="M32756 18958 c-3 -40 -13 -226 -21 -413 -9 -187 -18 -359 -21 -382
l-5 -43 -93 0 -92 0 -285 -1675 -285 -1675 373 0 373 0 0 -115 0 -115 -262 0
-263 0 -75 -256 c-41 -140 -79 -259 -85 -263 -5 -5 -80 -27 -165 -50 l-154
-41 -116 -88 -115 -88 -6 -180 c-4 -98 -7 -194 -8 -211 l-1 -33 -963 0 -964 0
-119 -81 c-65 -44 -126 -89 -136 -100 -16 -18 -67 -19 -1834 -39 -1000 -11
-1819 -22 -1820 -23 -2 -2 630 -11 1404 -20 2161 -27 2242 -29 2242 -41 1 -6
60 -51 132 -100 l132 -90 959 -4 959 -5 -7 -326 c-4 -179 -8 -326 -9 -327 0 0
-149 12 -331 27 -181 15 -333 25 -336 23 -3 -2 -9 -38 -13 -80 -3 -43 -7 -78
-9 -79 -3 -2 -3310 -416 -3319 -415 -5 0 -8 -63 -8 -140 l0 -140 -305 0 -305
0 0 118 0 118 -165 12 -166 11 -407 -129 c-224 -72 -414 -133 -423 -135 -13
-4 -23 10 -44 60 -16 36 -29 65 -31 65 -1 0 -197 -85 -435 -190 -258 -113
-446 -190 -464 -190 l-31 0 -12 293 -11 292 -53 48 c-29 26 -70 62 -90 78
l-38 31 0 -181 0 -181 -80 0 -80 0 0 80 0 80 -30 0 -30 0 0 130 0 130 -1810 0
-1810 0 0 440 0 440 -316 0 -317 0 5 -65 6 -65 -664 0 -664 0 0 35 0 35 -570
0 -570 0 0 -35 0 -35 -117 0 c-65 0 -498 -5 -962 -12 l-844 -12 -31 37 -31 37
-217 0 -217 0 -30 -37 -30 -37 -363 12 c-200 7 -387 12 -415 12 l-53 0 0 -255
c0 -204 -3 -255 -13 -255 -7 0 -40 5 -73 10 -32 6 -74 13 -91 16 l-33 5 0 164
0 163 -1329 4 c-731 2 -1332 5 -1334 8 -3 3 -8 148 -12 323 l-8 317 -618 0
-619 0 0 63 0 62 270 29 271 29 119 196 120 195 0 254 0 254 -115 183 c-64
101 -121 187 -128 193 -7 5 -60 21 -119 36 -80 19 -133 26 -208 26 l-100 0 -2
448 -3 449 -250 -53 -250 -53 -3407 0 -3407 -1 -368 -154 -368 -154 0 -147 0
-147 504 -139 c278 -76 514 -140 527 -143 16 -4 21 -11 17 -26 -3 -11 -9 -23
-14 -25 -6 -4 -558 -35 -631 -35 -17 0 -18 -31 -18 -519 l0 -518 237 -8 c131
-4 278 -10 327 -14 l89 -6 11 -40 c11 -37 15 -40 56 -46 25 -4 370 -20 768
-35 l722 -28 0 -71 0 -70 -485 -3 -485 -3 -54 45 -53 46 -135 0 -134 0 -17
-53 -17 -54 -210 -6 -211 -6 -51 -45 c-45 -41 -55 -46 -98 -46 -26 0 -62 -3
-79 -6 l-31 -6 0 -294 c0 -279 -1 -294 -18 -294 -14 0 -23 15 -35 60 -10 33
-21 60 -25 60 -5 0 -98 -18 -207 -40 -188 -38 -214 -47 -215 -77 0 -7 -10 -13
-22 -13 -13 0 -129 -9 -258 -20 -129 -11 -287 -20 -351 -20 l-117 0 -7 -32
c-4 -18 -10 -389 -12 -824 l-4 -792 -274 -7 -275 -7 0 -588 0 -587 -302 -6
c-166 -4 -352 -7 -415 -7 -94 0 -113 -3 -113 -15 0 -13 29 -15 203 -15 112 0
299 -3 415 -7 l212 -6 0 -577 0 -577 68 -6 c37 -4 160 -7 275 -7 l207 0 0
-752 c0 -655 6 -878 24 -895 1 -2 59 -5 127 -8 68 -3 235 -13 371 -22 227 -16
248 -18 248 -35 0 -25 21 -32 220 -73 96 -20 182 -39 192 -41 12 -4 20 9 35
58 12 42 24 64 36 66 16 3 17 -18 17 -296 l0 -299 82 -8 c78 -6 84 -9 132 -51
l51 -44 185 0 c102 0 195 -3 207 -6 17 -5 27 -21 40 -60 l17 -54 134 0 134 0
56 51 56 51 66 -6 c93 -8 840 -9 872 -1 l28 7 0 -75 0 -75 -107 -6 c-60 -4
-391 -18 -738 -31 -346 -14 -643 -26 -659 -28 -25 -2 -31 -8 -42 -48 l-14 -46
-202 -7 c-112 -3 -258 -9 -325 -13 l-123 -6 0 -517 0 -516 321 -12 c177 -7
325 -15 330 -18 5 -3 9 -15 9 -27 0 -21 -34 -32 -525 -167 l-525 -145 0 -145
0 -146 364 -152 364 -152 3395 0 3395 0 262 -55 c144 -30 266 -55 271 -55 5 0
9 190 9 445 l0 445 98 1 c75 1 123 8 216 32 l118 32 119 188 119 189 0 254 0
254 -111 182 c-62 101 -117 189 -124 196 -9 10 -386 60 -542 72 -2 0 -3 29 -3
65 l0 65 619 0 618 0 8 320 7 320 387 0 c213 0 814 3 1334 7 l947 6 0 162 0
162 83 12 c45 7 92 15 105 18 l22 5 0 -261 0 -261 28 0 c15 0 200 7 412 15
l385 15 35 -40 36 -40 209 0 209 0 41 40 40 40 895 -15 c492 -8 923 -15 958
-15 l62 0 0 -30 0 -30 570 0 570 0 0 30 0 30 663 0 663 0 -4 -60 -4 -60 316 0
316 0 0 435 0 435 1810 0 1810 0 0 135 0 135 30 0 30 0 0 80 0 80 80 0 80 0 2
-184 3 -184 88 81 88 82 11 293 12 292 24 0 c17 0 854 -358 903 -386 3 -2 17
24 30 57 13 34 29 63 34 65 6 3 198 -55 428 -128 l417 -133 165 14 165 14 0
119 0 118 305 0 305 0 0 -140 c0 -137 0 -140 23 -145 12 -2 760 -97 1662 -210
901 -113 1641 -207 1642 -209 2 -2 7 -36 11 -77 7 -70 8 -74 34 -77 14 -2 164
8 334 22 169 15 308 25 309 24 1 -2 6 -147 10 -324 l7 -321 -384 -6 c-211 -4
-642 -7 -959 -7 l-576 0 -124 -86 c-68 -47 -130 -93 -136 -101 -12 -15 -181
-19 -1715 -39 -937 -13 -1777 -24 -1868 -25 -91 -1 675 -11 1702 -23 1701 -19
1868 -22 1880 -37 7 -9 71 -56 141 -103 l129 -87 957 7 958 7 6 -84 c4 -46 7
-143 7 -215 l0 -131 118 -89 117 -90 163 -44 162 -44 25 -80 c13 -45 48 -162
78 -261 l53 -180 262 -3 262 -2 0 -115 0 -115 -370 0 c-289 0 -370 -3 -370
-12 0 -7 127 -759 282 -1671 l282 -1657 92 0 93 0 5 -52 c3 -29 13 -201 21
-383 8 -181 18 -363 21 -403 l6 -72 109 0 109 0 0 455 0 455 515 0 515 0 5 22
c10 42 565 3288 565 3303 0 13 -47 15 -365 15 l-365 0 0 120 0 120 258 0 257
0 79 258 78 259 242 23 c132 12 338 32 456 44 l215 21 110 85 c61 46 112 87
115 91 3 4 187 512 410 1128 l405 1121 32 0 33 0 0 -95 0 -95 65 0 65 0 0 95
0 95 350 0 350 0 0 -95 0 -95 60 0 60 0 0 95 0 95 375 0 375 0 0 -95 0 -95 65
0 65 0 0 95 0 95 2595 0 2595 0 -2 -268 -3 -268 -968 -918 c-532 -505 -966
-923 -965 -928 2 -5 7 -10 12 -10 4 0 269 227 589 504 320 276 664 574 764
661 l183 158 -231 -318 c-822 -1133 -974 -1344 -974 -1356 0 -6 5 -12 12 -12
6 0 208 248 448 550 241 303 444 557 452 565 17 17 -11 -30 -449 -744 -175
-285 -315 -522 -312 -527 3 -5 9 -9 14 -9 4 0 286 414 626 919 340 506 620
919 621 917 6 -6 -277 -860 -289 -871 -7 -7 -110 -103 -228 -215 -118 -112
-224 -211 -235 -221 -12 -12 -16 -22 -9 -29 6 -6 81 52 215 168 113 97 213
183 221 190 9 7 -80 -281 -209 -679 -186 -573 -222 -694 -211 -705 11 -11 60
117 288 744 151 416 284 766 295 779 18 19 951 824 1000 863 24 19 100 125
-634 -885 -336 -462 -609 -844 -608 -849 2 -6 8 -11 14 -13 6 -2 223 264 483
592 260 327 474 595 477 595 3 0 -1 -10 -9 -22 -8 -13 -194 -315 -413 -672
-298 -486 -394 -650 -384 -656 7 -5 16 -7 19 -5 3 2 297 440 655 973 357 534
651 970 652 968 1 -1 -32 -105 -73 -231 -41 -127 -101 -314 -134 -416 l-60
-186 -248 -235 c-136 -129 -272 -258 -302 -286 -40 -36 -52 -53 -44 -62 8 -8
83 52 275 218 145 126 265 226 267 222 1 -3 -108 -345 -242 -760 -135 -415
-243 -757 -240 -762 3 -4 11 -8 17 -8 7 0 143 362 311 828 165 455 304 833
310 840 7 10 740 647 986 857 l35 30 -26 -35 c-14 -19 -302 -415 -639 -880
-337 -465 -630 -868 -651 -896 -33 -45 -35 -52 -20 -61 14 -9 90 82 515 618
274 346 500 629 502 629 4 0 -12 -27 -515 -845 -282 -459 -347 -572 -335 -578
9 -5 17 -7 19 -5 2 2 315 467 696 1033 380 567 690 1023 687 1015 -3 -8 -63
-194 -133 -412 l-128 -396 -309 -294 c-170 -161 -332 -314 -361 -340 -39 -35
-49 -49 -41 -58 9 -9 91 57 335 268 178 154 325 279 326 278 1 -1 -120 -376
-268 -835 -195 -601 -268 -836 -260 -844 7 -7 14 -7 20 -2 5 6 65 163 132 350
82 229 129 347 144 360 13 11 245 301 518 645 272 344 504 636 516 650 26 30
-25 -55 -516 -854 -327 -531 -373 -611 -360 -623 17 -18 -28 -83 842 1215 340
507 620 921 621 919 2 -2 -196 -619 -440 -1373 -380 -1171 -442 -1371 -430
-1383 7 -8 15 -13 17 -10 3 2 271 740 597 1639 567 1564 595 1637 636 1686
l44 51 0 170 c0 94 3 204 6 246 7 72 8 76 33 79 26 3 26 3 38 138 6 74 12 143
12 153 1 16 20 17 256 17 l255 0 0 -136 c0 -136 0 -136 23 -131 12 3 105 20
207 38 l185 32 101 106 100 105 862 4 c474 3 862 8 862 12 0 9 -667 20 -1238
20 l-454 0 147 155 148 155 6 227 6 226 25 8 c14 4 213 69 443 144 l417 136 0
90 0 89 143 0 142 0 43 65 42 65 0 135 0 136 -41 58 -41 58 -90 7 c-50 3 -115
6 -144 6 l-53 0 -3 87 -3 86 -440 147 -440 147 -6 222 -6 222 -35 37 c-19 20
-83 89 -142 152 l-108 115 54 7 c29 3 407 6 841 7 726 1 928 8 695 25 -50 3
-438 6 -862 6 l-770 0 -101 105 -100 105 -185 35 c-102 19 -195 37 -207 40
-23 5 -23 5 -23 -130 l0 -135 -255 0 c-236 0 -255 1 -256 18 0 9 -6 78 -12
152 -12 135 -12 135 -38 138 -25 3 -27 7 -33 70 -3 37 -6 147 -6 244 l0 177
-43 49 c-47 52 14 -112 -978 2625 -199 549 -256 697 -268 695 -10 -2 -15 -12
-13 -23 3 -18 748 -2325 852 -2637 21 -65 37 -118 36 -118 -2 0 -329 486 -727
1080 -398 594 -729 1080 -736 1080 -30 0 -20 -30 49 -143 41 -67 249 -405 462
-752 213 -346 381 -623 373 -615 -8 8 -240 301 -517 650 -276 349 -515 649
-530 665 -21 22 -60 118 -151 370 -67 187 -125 343 -128 347 -3 4 -12 3 -20
-1 -10 -7 37 -164 229 -757 304 -936 300 -925 287 -917 -10 6 -551 469 -615
527 -15 13 -25 17 -33 9 -7 -7 102 -116 350 -352 l360 -342 35 -112 c20 -62
78 -242 130 -402 52 -159 94 -291 92 -292 -1 -1 -312 459 -690 1023 -379 563
-692 1027 -696 1029 -4 3 -12 -1 -17 -8 -7 -8 101 -192 368 -627 461 -748 504
-821 482 -794 -10 11 -238 298 -507 637 -269 339 -493 617 -498 617 -5 0 -11
-6 -14 -14 -3 -8 266 -388 647 -912 358 -495 659 -908 668 -919 15 -19 15 -19
-4 -4 -47 37 -991 854 -996 861 -3 5 -140 380 -304 834 -236 651 -302 824
-314 822 -10 -2 -15 -12 -13 -23 5 -25 482 -1496 490 -1510 3 -5 -59 47 -138
116 -339 294 -404 348 -412 343 -4 -3 -8 -9 -8 -13 0 -4 134 -135 299 -291
l298 -283 83 -256 c151 -464 188 -581 185 -581 -2 0 -297 439 -656 975 -543
811 -656 973 -667 962 -12 -13 140 -268 764 -1279 30 -49 53 -88 51 -88 -2 0
-219 272 -483 604 -430 542 -504 628 -504 585 0 -5 280 -395 623 -866 343
-472 627 -865 632 -872 5 -8 -53 39 -129 105 -76 65 -309 268 -519 449 l-380
330 -269 740 c-147 407 -271 748 -276 757 -5 12 -11 15 -21 9 -11 -7 29 -140
208 -691 122 -376 219 -685 217 -687 -2 -3 -99 78 -216 179 -116 101 -215 182
-218 181 -21 -8 15 -46 238 -258 l244 -232 138 -424 c75 -233 135 -425 134
-427 -2 -2 -244 354 -537 790 -748 1112 -705 1050 -717 1035 -8 -9 87 -172
376 -642 213 -347 391 -637 395 -645 12 -22 29 -43 -466 578 -247 309 -453
560 -458 557 -5 -4 -9 -10 -9 -15 0 -5 268 -379 596 -830 327 -452 594 -823
592 -824 -2 -2 -342 291 -757 651 -415 359 -758 652 -763 651 -5 -2 -10 -6
-11 -9 -1 -2 436 -421 971 -929 l972 -924 0 -263 0 -263 -2595 0 -2595 0 0 95
0 95 -65 0 -65 0 0 -95 0 -95 -375 0 -375 0 0 95 0 95 -60 0 -60 0 0 -95 0
-95 -350 0 -350 0 0 95 0 95 -65 0 -65 0 0 -95 0 -95 -34 0 -33 0 -112 308
c-61 169 -243 673 -405 1121 l-294 815 -115 88 -115 88 -453 44 c-342 33 -454
47 -458 57 -3 8 -40 124 -81 259 l-76 245 -257 3 -257 2 0 115 0 115 365 0
c335 0 365 1 365 17 0 16 -555 3264 -565 3311 l-5 22 -515 0 -515 0 0 455 0
455 -109 0 -109 0 -6 -72z m12954 -5558 c365 -503 668 -922 674 -930 6 -8 -38
28 -99 81 -60 52 -274 236 -475 409 -201 172 -375 322 -387 334 -15 14 -82
186 -203 520 -99 274 -180 501 -180 504 0 8 -49 75 670 -918z m-1692 -825
l632 -599 0 -233 0 -233 -455 0 -455 0 0 276 0 277 -36 44 c-34 42 -116 257
-428 1122 l-26 73 68 -63 c38 -35 353 -334 700 -664z m1102 -75 l625 -593 -4
-191 c-2 -105 -5 -194 -8 -198 -2 -5 -202 -8 -444 -8 l-439 0 0 239 0 239 -42
50 c-39 46 -59 94 -232 573 -104 288 -198 547 -208 574 l-19 50 73 -71 c40
-39 354 -338 698 -664z m1067 -43 l663 -629 0 -159 0 -159 -450 0 -450 0 0
209 0 209 -42 49 c-37 45 -60 101 -235 584 -106 294 -196 543 -199 554 -9 27
-59 73 713 -658z m-1539 -5175 l-3 -238 -695 -660 c-382 -364 -696 -660 -697
-659 -2 1 91 259 206 574 176 486 213 579 244 616 l37 44 0 280 0 281 455 0
455 0 -2 -238z m1086 216 c3 -13 7 -102 11 -199 l5 -177 -692 -656 c-380 -360
-693 -654 -695 -652 -2 1 88 255 200 563 185 512 206 564 245 609 l42 49 0
243 0 242 440 0 440 0 4 -22z m1116 -140 l0 -163 -606 -575 c-881 -835 -785
-747 -768 -703 8 21 99 273 203 560 169 469 193 527 230 571 l41 50 0 211 0
211 450 0 450 0 0 -162z m-1141 -1732 c-365 -503 -665 -914 -666 -913 -1 1 80
227 179 502 l181 500 481 416 c265 229 483 415 485 413 2 -1 -295 -414 -660
-918z"/>
</g>
</svg>
