<?xml version="1.0" standalone="no"?>
<!DOCTYPE svg PUBLIC "-//W3C//DTD SVG 20010904//EN"
 "http://www.w3.org/TR/2001/REC-SVG-20010904/DTD/svg10.dtd">
<svg version="1.0" xmlns="http://www.w3.org/2000/svg"
   viewBox="0 0 4347.000000 3208.000000"
 preserveAspectRatio="xMidYMid meet">
<metadata>
Created by potrace 1.16, written by Peter Selinger 2001-2019
</metadata>
<g transform="translate(0.000000,3208.000000) scale(0.100000,-0.100000)"
fill="#000000" stroke="none">
<path d="M10813 32047 c-80 -30 -86 -35 -224 -173 l-143 -143 24 -100 c13 -55
26 -105 29 -110 18 -28 260 -101 385 -116 55 -6 66 -12 125 -65 62 -55 74 -61
211 -104 79 -25 155 -46 167 -46 13 0 23 -3 23 -6 0 -4 -112 -300 -250 -658
-137 -358 -314 -820 -393 -1026 l-143 -375 -452 -5 -452 -5 -138 -207 c-129
-194 -144 -212 -246 -302 -59 -52 -120 -97 -134 -100 -15 -3 -1071 -145 -2347
-316 -1276 -170 -2334 -312 -2352 -315 -24 -4 -44 -22 -86 -73 -53 -67 -55
-70 -66 -158 -33 -269 -51 -1130 -31 -1468 l12 -210 71 -85 c63 -77 73 -86
101 -83 17 1 112 11 211 22 98 10 180 18 181 17 0 -1 -6 -62 -15 -136 l-16
-134 -50 -37 c-27 -20 -133 -92 -235 -161 l-185 -124 -465 -169 -465 -168 -83
-79 -84 -78 -19 -135 c-57 -415 -82 -1900 -40 -2421 l12 -140 107 -102 c59
-57 116 -105 127 -108 11 -3 331 -52 710 -110 535 -81 824 -131 1285 -221 327
-64 597 -119 599 -121 3 -2 19 -121 35 -266 l31 -262 1129 -3 c895 -2 1127 -5
1124 -15 -3 -6 -39 -115 -82 -242 l-76 -230 -450 -829 c-247 -456 -451 -831
-454 -833 -2 -3 -294 -17 -648 -32 l-643 -27 -245 -97 -245 -98 -1001 -198
-1001 -197 -639 -350 -639 -350 -421 -71 -421 -71 -714 -435 -714 -434 -3
-309 -2 -310 717 -436 718 -436 395 -66 c217 -37 407 -69 421 -72 14 -3 313
-162 664 -354 l639 -350 1005 -199 1006 -199 240 -96 240 -96 645 -27 646 -27
449 -829 450 -828 82 -245 81 -244 -1126 -2 -1126 -3 -31 -262 c-17 -144 -34
-265 -38 -269 -3 -4 -253 -56 -554 -116 -426 -84 -715 -134 -1297 -224 -855
-131 -753 -103 -898 -251 l-76 -78 -12 -140 c-43 -509 -19 -1985 39 -2415 l18
-135 87 -80 86 -81 328 -118 c654 -238 599 -213 842 -380 118 -81 217 -150
219 -152 6 -6 39 -268 35 -273 -4 -4 -276 22 -380 36 l-40 5 -71 -88 -71 -89
-11 -185 c-23 -387 -3 -1273 35 -1538 5 -31 20 -60 61 -110 31 -37 58 -68 62
-69 3 -1 1073 -145 2376 -319 l2370 -317 107 -95 c99 -88 118 -111 248 -303
l141 -209 450 -2 450 -3 155 -405 c85 -223 260 -679 389 -1015 129 -335 237
-618 241 -627 4 -13 1 -18 -11 -18 -9 0 -87 -23 -173 -51 -152 -50 -159 -54
-220 -110 -56 -53 -67 -59 -105 -59 -79 0 -350 -77 -390 -111 -5 -3 -21 -54
-37 -112 l-28 -104 142 -141 141 -141 95 -35 95 -36 3512 0 3513 0 92 35 c92
34 92 35 235 177 l142 143 -49 191 -50 192 -175 355 c-167 339 -186 374 -413
727 l-238 370 -13 266 c-7 146 -11 267 -9 269 1 1 161 15 353 29 193 14 372
29 398 32 46 6 60 16 253 186 l204 179 0 1257 0 1257 -205 180 c-113 99 -213
181 -223 183 -9 1 -228 18 -486 37 -258 19 -470 36 -471 38 -7 11 -45 911 -38
917 4 4 121 17 258 30 138 12 265 25 282 29 22 4 102 64 248 185 l215 179 0
1252 0 1253 -211 177 c-117 97 -221 180 -234 185 -12 4 -68 11 -124 15 -98 7
-102 9 -97 29 3 11 81 217 174 456 l168 435 378 493 379 492 736 0 736 0 222
57 222 58 183 452 183 453 66 0 c36 0 69 -4 75 -9 5 -5 136 -43 292 -85 l283
-76 372 0 c325 0 723 -16 873 -35 l41 -6 123 -299 124 -300 724 -2 724 -3 75
-235 75 -235 291 -293 292 -293 366 -185 365 -186 63 -80 c35 -44 73 -84 85
-89 11 -5 185 -54 385 -109 l364 -100 166 -87 166 -87 660 -78 660 -78 590
-21 590 -20 640 89 640 89 360 -89 360 -89 1300 15 1300 16 366 118 367 119
488 298 c269 164 649 404 844 535 195 130 443 286 550 347 744 421 1321 742
1355 753 22 7 159 74 305 150 436 226 574 283 1295 535 1734 606 2997 1053
3006 1063 3 4 53 75 111 157 l106 150 82 345 83 345 26 420 26 419 -24 401
-23 400 -85 360 c-94 404 -69 344 -241 584 l-67 94 -405 144 c-564 200 -1219
430 -2315 814 -1034 363 -1123 398 -1568 631 -147 76 -287 145 -310 152 -24 7
-209 106 -412 221 -1112 625 -1142 643 -1495 879 -190 128 -568 367 -840 533
l-495 301 -375 120 -375 120 -1280 15 -1280 14 -370 -90 -370 -90 -645 89
-645 89 -550 -17 -550 -18 -695 -81 -695 -81 -170 -88 -170 -88 -370 -102
c-203 -56 -375 -105 -381 -109 -7 -3 -41 -42 -77 -87 l-65 -81 -369 -187 -369
-187 -284 -284 -285 -285 -75 -237 -76 -238 -425 -6 c-233 -3 -560 -7 -725 -8
l-301 -1 -123 -297 c-67 -164 -123 -299 -124 -300 0 -1 -143 -11 -316 -23
-265 -19 -366 -22 -634 -17 l-320 6 -275 -75 c-152 -40 -290 -81 -307 -89 -20
-11 -50 -15 -89 -13 l-59 3 -181 447 c-100 247 -184 450 -187 453 -3 4 -100
30 -214 60 l-209 55 -325 0 c-179 0 -516 3 -750 7 l-425 6 -377 492 -376 491
-172 448 c-95 246 -170 449 -168 451 2 2 55 9 118 15 l115 12 217 181 218 182
-3 1254 -2 1255 -215 181 -216 181 -283 26 c-156 15 -286 29 -288 32 -5 5 38
909 44 916 3 3 222 21 488 41 l483 36 205 179 205 179 1 1260 0 1260 -207 181
-207 181 -388 28 c-213 16 -392 32 -398 36 -8 4 -7 84 2 270 l13 264 235 365
c223 348 243 382 415 730 l180 365 46 185 47 185 -137 145 -138 145 -93 33
-94 32 -3525 -1 -3525 -1 -82 -31z"/>
</g>
</svg>
