<?xml version="1.0" standalone="no"?>
<!DOCTYPE svg PUBLIC "-//W3C//DTD SVG 20010904//EN"
 "http://www.w3.org/TR/2001/REC-SVG-20010904/DTD/svg10.dtd">
<svg version="1.0" xmlns="http://www.w3.org/2000/svg"
   viewBox="0 0 2343.000000 863.000000"
 preserveAspectRatio="xMidYMid meet">
<metadata>
Created by potrace 1.16, written by Peter Selinger 2001-2019
</metadata>
<g transform="translate(0.000000,863.000000) scale(0.100000,-0.100000)"
fill="#000000" stroke="none">
<path d="M12950 8623 c-63 -11 -131 -36 -139 -51 -8 -15 -24 -17 -110 -14 -75
2 -115 -2 -157 -15 l-55 -17 -22 26 c-59 70 -308 93 -450 42 -65 -23 -75 -30
-101 -73 l-28 -48 -131 -6 c-71 -3 -170 -1 -219 4 l-89 10 -117 -109 c-113
-106 -121 -111 -197 -134 l-80 -25 0 -383 0 -384 82 -26 c75 -23 90 -32 194
-123 l112 -99 61 9 c77 10 215 8 227 -4 5 -5 -63 -86 -168 -198 -175 -188
-180 -192 -475 -412 -164 -122 -312 -230 -329 -239 -24 -12 -88 -20 -248 -29
-119 -8 -227 -12 -241 -9 -14 2 -551 81 -1195 174 -1093 158 -1190 174 -1480
239 -223 50 -400 98 -631 170 l-321 100 -457 80 c-251 45 -467 81 -479 81 -12
-1 -147 39 -300 87 l-277 88 125 25 125 24 -2 360 -3 360 -320 62 c-176 34
-384 70 -462 80 l-143 17 -12 32 -11 33 -256 4 c-190 4 -321 0 -509 -14 l-254
-18 -46 -39 c-41 -34 -58 -41 -133 -53 -74 -12 -88 -12 -95 0 -15 22 -82 6
-86 -22 -3 -18 -11 -21 -56 -24 -42 -2 -52 0 -52 12 0 20 3 20 -97 0 -76 -15
-83 -19 -83 -41 0 -18 -12 -32 -50 -55 l-50 -31 0 -286 0 -286 49 -32 c35 -23
51 -41 56 -62 5 -23 14 -33 33 -37 15 -3 43 -10 62 -15 58 -15 80 -12 80 12 0
16 4 19 17 15 9 -4 45 -14 80 -22 l63 -16 0 -464 c0 -307 -3 -464 -10 -464 -6
0 -283 -210 -615 -466 -461 -355 -609 -474 -619 -498 l-13 -32 -779 -203
c-428 -112 -785 -207 -793 -211 -8 -4 -73 -156 -143 -336 l-129 -329 128 -328
c70 -181 135 -332 143 -336 8 -5 366 -100 794 -212 l779 -204 13 -32 c10 -24
162 -145 629 -505 l615 -473 0 -456 0 -456 -62 -17 c-35 -10 -71 -20 -80 -22
-13 -4 -18 0 -18 15 0 24 -22 27 -80 12 -19 -5 -47 -12 -62 -15 -19 -4 -28
-14 -33 -36 -4 -20 -22 -41 -56 -65 l-49 -35 0 -283 0 -284 50 -31 c38 -23 50
-37 50 -55 0 -22 7 -26 82 -41 101 -20 98 -19 98 -1 0 11 11 15 39 15 52 0 71
-8 71 -31 0 -25 69 -39 83 -17 9 13 20 13 96 0 75 -13 92 -20 133 -53 l46 -39
249 -15 c173 -10 327 -13 510 -8 l262 6 9 27 c10 26 13 27 153 44 79 10 288
46 464 80 l320 62 0 359 0 359 -125 25 c-68 13 -120 26 -115 27 6 2 131 42
278 89 147 47 279 85 294 85 14 0 231 36 481 81 l456 80 335 104 c566 176 708
203 2134 411 866 126 1212 173 1250 169 28 -3 123 -10 209 -15 104 -6 166 -14
186 -24 16 -8 164 -115 329 -238 298 -222 300 -224 476 -413 110 -118 173
-193 167 -199 -12 -12 -146 -14 -226 -3 l-61 9 -112 -99 c-103 -91 -117 -100
-194 -123 l-82 -26 0 -384 0 -384 81 -26 c78 -24 87 -30 197 -133 l116 -108
88 9 c48 6 147 8 219 5 l131 -6 28 -48 c26 -43 35 -50 99 -73 141 -52 394 -28
453 42 l22 26 55 -17 c40 -13 81 -17 155 -15 87 3 102 1 113 -15 40 -54 316
-76 439 -36 35 12 69 26 75 30 6 5 114 23 240 40 l229 31 430 148 430 147 3
364 2 364 -422 141 -423 140 -3 45 c-2 24 -1 125 3 225 l7 181 122 -19 c113
-19 141 -19 431 -8 171 6 456 22 635 35 l325 24 140 65 140 64 620 -59 c651
-61 1450 -164 1465 -189 4 -7 10 -39 14 -73 5 -47 13 -70 34 -97 l29 -35 494
-82 c572 -96 1135 -173 1264 -173 164 0 368 -20 540 -53 169 -32 171 -32 326
-21 85 6 193 8 240 4 46 -3 169 -2 273 3 l189 9 231 113 c225 110 233 114 306
189 l75 76 -28 23 -28 22 26 25 c49 46 49 50 -4 182 -28 68 -70 179 -95 248
-24 69 -71 195 -105 280 -33 84 -59 156 -56 158 2 2 95 14 207 26 164 19 210
27 238 44 19 12 42 22 51 22 9 0 90 46 180 103 90 57 199 123 243 148 72 41
110 78 495 482 l416 438 87 232 88 232 -88 232 -87 231 -414 436 c-413 435
-414 436 -518 497 -57 33 -167 101 -244 150 -77 49 -147 89 -155 89 -8 0 -36
11 -62 24 -38 19 -80 27 -227 41 -99 10 -188 21 -197 24 -14 5 -10 23 38 146
30 77 79 208 109 290 29 83 74 201 100 263 49 121 49 126 0 172 l-26 25 28 22
28 23 -75 76 c-73 75 -81 79 -306 189 l-232 113 -188 9 c-104 5 -223 6 -264 2
-41 -3 -151 -1 -245 4 -165 10 -174 10 -310 -16 -204 -39 -264 -46 -457 -52
-271 -9 -752 -67 -1163 -141 -198 -35 -436 -76 -529 -92 -168 -27 -169 -28
-197 -62 -22 -27 -30 -50 -35 -97 -4 -34 -10 -67 -14 -73 -12 -19 -738 -111
-1455 -184 l-630 -64 -141 64 -140 64 -330 29 c-456 41 -899 50 -1064 22 -63
-10 -116 -18 -117 -17 -2 1 -4 103 -5 226 l-3 223 423 141 422 141 -2 364 -3
363 -430 148 -430 148 -229 31 c-125 17 -233 34 -240 39 -6 5 -40 19 -75 31
-52 17 -87 21 -170 20 -58 -1 -117 -4 -131 -6z"/>
</g>
</svg>
