<?xml version="1.0" standalone="no"?>
<!DOCTYPE svg PUBLIC "-//W3C//DTD SVG 20010904//EN"
 "http://www.w3.org/TR/2001/REC-SVG-20010904/DTD/svg10.dtd">
<svg version="1.0" xmlns="http://www.w3.org/2000/svg"
   viewBox="0 0 4732.000000 3042.000000"
 preserveAspectRatio="xMidYMid meet">
<metadata>
Created by potrace 1.16, written by Peter Selinger 2001-2019
</metadata>
<g transform="translate(0.000000,3042.000000) scale(0.100000,-0.100000)"
fill="#000000" stroke="none">
<path d="M25502 30385 c-29 -20 -68 -53 -87 -73 -30 -33 -32 -39 -21 -57 12
-19 8 -26 -60 -87 l-74 -67 -28 16 -28 16 -3045 -2758 c-1674 -1517 -3059
-2772 -3077 -2789 l-33 -31 -37 40 c-20 22 -71 78 -114 124 l-77 83 -273 -112
c-244 -100 -274 -110 -297 -100 -14 7 -84 35 -156 62 -127 49 -135 51 -320 68
l-190 18 -220 -25 c-196 -22 -246 -31 -455 -88 -189 -50 -280 -81 -466 -159
-128 -53 -270 -118 -317 -145 -65 -37 -107 -54 -169 -66 -286 -57 -568 -153
-671 -229 -16 -11 -52 -54 -79 -95 -42 -62 -50 -81 -50 -117 l1 -44 -1962 0
-1962 0 -320 -26 -320 -26 -1135 136 -1135 135 -515 9 -515 10 -375 -54 -375
-53 -444 -141 c-245 -77 -452 -146 -460 -153 -9 -7 -171 -154 -361 -329 -372
-341 -559 -532 -685 -700 -70 -92 -85 -107 -115 -112 -19 -3 -852 -94 -1850
-202 l-1815 -195 -407 -257 -408 -257 0 -352 0 -353 2065 0 2065 0 0 -105 0
-105 -495 0 -495 0 0 -1250 0 -1250 495 0 495 0 0 -190 0 -190 -42 0 c-63 0
-219 -72 -242 -111 -16 -27 -20 -29 -34 -16 -10 8 -54 33 -99 56 l-83 41 -125
0 c-125 0 -125 0 -212 -40 -80 -37 -100 -53 -216 -168 -182 -182 -249 -285
-333 -519 -90 -247 -152 -542 -199 -943 -19 -164 -35 -316 -35 -339 l0 -41
-105 0 -105 0 0 -470 0 -470 105 0 105 0 0 -57 c0 -32 13 -182 30 -333 40
-371 98 -658 182 -904 84 -243 148 -348 327 -529 110 -112 137 -134 212 -172
83 -42 90 -44 207 -51 l121 -7 93 44 c51 23 99 50 106 58 12 14 16 13 34 -12
11 -16 59 -48 109 -73 73 -36 98 -44 144 -44 l55 0 0 -190 0 -190 -495 0 -495
0 0 -1250 0 -1250 495 0 495 0 0 -105 0 -105 -2065 0 -2065 0 0 -352 0 -353
408 -256 407 -257 1820 -196 c1001 -108 1834 -198 1850 -201 24 -5 46 -27 110
-112 123 -164 357 -402 722 -736 l331 -303 454 -143 453 -143 365 -52 365 -52
515 9 515 8 1135 136 1135 135 335 -26 335 -27 1952 1 1952 0 -1 -43 c-1 -61
74 -173 148 -222 114 -76 380 -166 653 -220 63 -13 107 -30 180 -71 173 -96
511 -228 756 -296 195 -53 247 -63 454 -87 l233 -28 192 18 c204 18 187 14
443 115 l62 25 271 -111 271 -111 72 78 c40 43 92 98 114 123 l42 45 28 -26
c161 -148 6111 -5537 6120 -5542 7 -4 24 0 38 9 25 16 26 16 92 -47 56 -51 68
-69 68 -94 0 -40 37 -84 109 -130 62 -39 71 -38 117 12 55 59 55 61 -22 156
-38 48 -74 87 -79 87 -6 0 -19 -5 -30 -12 -16 -11 -27 -5 -87 49 -54 48 -68
66 -68 89 0 16 -11 44 -24 61 -14 18 -1394 1274 -3067 2790 -2805 2542 -3042
2759 -3027 2775 18 20 21 15 -89 155 l-88 113 62 0 c230 1 530 26 1098 90
l625 70 770 145 c424 79 1103 205 1510 279 657 119 823 154 1480 305 407 94
1017 243 1355 331 550 144 685 175 1275 295 383 78 842 179 1095 240 629 154
12324 2875 13220 3076 415 94 1561 350 2545 569 985 220 2075 469 2424 553
l633 154 54 54 54 54 40 222 40 223 0 419 0 419 -72 6 c-40 3 -246 10 -458 16
-212 6 -475 15 -585 20 -110 5 -436 17 -725 26 -289 9 -526 20 -528 25 -2 5
-48 9 -103 9 l-99 0 0 30 0 30 -77 0 c-85 0 -99 -5 -104 -35 -5 -23 -39 -34
-39 -12 0 24 -35 47 -73 47 -29 0 -39 -5 -54 -30 -15 -26 -23 -30 -58 -30 -31
0 -1592 49 -1602 50 -2 0 -3 562 -3 1249 l0 1249 93 6 c83 5 1448 47 1524 46
25 0 36 -7 50 -30 14 -25 24 -30 54 -30 35 0 69 23 69 48 0 7 9 12 20 12 14 0
20 -7 20 -24 0 -28 28 -36 121 -36 59 0 59 0 59 30 l0 30 99 0 c55 0 101 4
103 9 2 6 220 16 513 25 281 9 602 21 715 26 113 5 369 14 570 20 201 6 411
13 468 16 l102 6 0 419 0 419 -40 222 -40 223 -57 56 -58 56 -670 162 c-368
89 -1448 335 -2400 547 -951 212 -2061 459 -2465 550 -870 196 -12689 2945
-13320 3099 -258 63 -686 157 -1050 230 -549 110 -683 141 -1255 290 -352 92
-971 243 -1375 336 -656 151 -817 184 -1505 310 -423 77 -1103 202 -1510 279
l-740 139 -625 71 c-577 66 -849 88 -1093 90 l-78 0 57 73 c139 177 138 176
121 195 -15 17 173 189 3031 2780 1676 1519 3057 2776 3069 2794 14 20 20 42
17 54 -4 16 10 35 67 87 71 64 73 65 97 49 24 -16 26 -15 54 18 93 110 116
146 106 165 -15 28 -80 95 -93 95 -5 0 -34 -16 -63 -35z"/>
</g>
</svg>
