<?xml version="1.0" standalone="no"?>
<!DOCTYPE svg PUBLIC "-//W3C//DTD SVG 20010904//EN"
 "http://www.w3.org/TR/2001/REC-SVG-20010904/DTD/svg10.dtd">
<svg version="1.0" xmlns="http://www.w3.org/2000/svg"
   viewBox="0 0 4020.000000 3146.000000"
 preserveAspectRatio="xMidYMid meet">
<metadata>
Created by potrace 1.16, written by Peter Selinger 2001-2019
</metadata>
<g transform="translate(0.000000,3146.000000) scale(0.100000,-0.100000)"
fill="#000000" stroke="none">
<path d="M8430 31265 l-1135 -193 -1060 -455 -1060 -454 -7 -39 c-4 -22 -7
-117 -7 -211 l-1 -173 -77 0 c-43 0 -129 -3 -191 -7 l-112 -6 -27 -42 -26 -42
-216 -6 -216 -6 -640 -184 -640 -184 -3 -139 c-2 -76 0 -221 3 -321 l7 -183
1069 0 1069 0 0 -130 0 -130 110 0 110 0 0 -50 0 -50 -325 0 -325 0 0 -940 0
-940 325 0 325 0 -2 -196 -3 -197 -124 -53 c-108 -48 -134 -64 -208 -131 -72
-66 -83 -80 -79 -102 3 -14 8 -58 11 -97 l7 -71 74 -62 c57 -47 105 -76 202
-118 70 -31 128 -57 129 -58 1 0 -5 -270 -12 -600 -8 -330 -15 -635 -15 -677
l0 -78 -314 0 -314 0 -96 -109 -96 -109 0 -451 0 -450 -28 -78 c-16 -43 -41
-124 -56 -180 l-28 -102 -72 -45 c-40 -25 -152 -83 -249 -130 l-177 -85 0
-625 0 -626 245 -122 245 -123 0 -111 0 -111 -667 -7 -666 -8 -84 -76 -84 -77
-217 -85 -217 -86 -3 -182 -2 -182 -33 0 c-17 0 -56 -3 -84 -6 l-53 -7 0 -842
0 -843 85 -7 85 -7 2 -180 3 -179 218 -94 c172 -74 235 -106 295 -152 l77 -58
-40 -8 c-22 -4 -598 -120 -1280 -258 l-1240 -251 -102 -100 c-153 -152 -206
-242 -287 -487 -54 -163 -70 -228 -95 -383 l-29 -188 29 -187 c25 -156 41
-221 95 -384 81 -245 134 -335 287 -487 l102 -100 1140 -231 c627 -127 1201
-242 1275 -257 74 -14 136 -27 138 -29 2 -2 -30 -29 -71 -60 -58 -43 -125 -77
-294 -150 l-218 -94 -3 -174 c-3 -195 1 -187 -78 -187 -17 0 -46 -3 -63 -6
l-31 -6 0 -838 0 -838 22 -6 c13 -3 37 -6 54 -6 17 0 45 -3 63 -6 l31 -6 2
-181 3 -181 220 -86 219 -87 81 -76 81 -75 667 -8 667 -7 0 -111 0 -111 -245
-123 -245 -122 0 -625 0 -626 183 -88 c100 -48 212 -106 248 -129 l67 -42 28
-103 c15 -56 40 -137 56 -180 l28 -78 0 -450 0 -451 96 -109 96 -109 314 0
314 0 0 -77 c0 -43 7 -348 15 -678 7 -330 13 -600 12 -600 -1 -1 -59 -27 -129
-58 -97 -42 -145 -71 -202 -118 l-74 -62 -7 -71 c-3 -39 -8 -82 -11 -97 -4
-21 8 -36 80 -102 74 -67 99 -84 208 -131 l123 -53 3 -197 2 -196 -325 0 -325
0 0 -940 0 -940 325 0 325 0 0 -50 0 -50 -110 0 -110 0 0 -130 0 -130 -1075 0
-1075 0 0 -320 0 -319 68 -20 c37 -11 326 -95 642 -186 l575 -166 216 -6 216
-6 26 -42 27 -42 122 -6 c66 -4 152 -7 190 -7 l68 0 1 -172 c0 -95 3 -190 7
-212 l7 -39 1060 -454 1060 -455 1145 -194 1145 -194 910 14 910 14 1185 245
1185 245 600 206 600 207 755 388 755 389 13 169 c8 92 14 168 15 169 1 0 526
56 1167 123 641 67 1180 125 1198 128 31 5 32 6 32 57 l0 53 -752 6 c-413 4
-953 7 -1199 7 l-449 0 -5 22 c-2 13 -8 46 -13 73 l-8 50 -781 -4 -782 -3
-648 57 c-356 32 -652 61 -656 65 -5 4 232 272 525 595 487 537 565 628 911
1064 l378 476 190 313 c105 172 197 328 205 347 8 19 15 35 17 35 1 1 505 18
1120 40 614 21 1121 41 1126 45 5 3 12 23 16 45 4 22 7 40 8 40 1 0 261 18
577 40 316 22 585 40 598 40 20 0 22 5 22 50 0 28 -1 50 -2 50 -2 1 -269 18
-595 39 -325 21 -596 42 -601 45 -6 3 -13 28 -17 55 l-7 50 -51 5 c-29 3 -482
19 -1007 36 -525 17 -955 32 -956 33 -1 1 3 16 10 32 12 26 138 96 1062 589
l1049 559 880 628 880 629 270 256 c685 652 635 599 1074 1123 l406 484 265
581 266 581 874 -4 875 -3 175 31 c608 111 2076 355 2235 373 l190 20 692 -89
691 -89 814 43 c1130 59 2342 140 3408 229 l905 75 1434 194 1435 194 29 29
c23 23 33 49 50 127 l22 99 370 68 c204 37 570 97 814 132 243 36 446 67 449
71 3 3 -2 110 -10 238 l-17 232 23 18 c13 10 94 50 180 88 87 38 436 216 776
395 l620 326 180 191 c99 106 258 275 353 375 l174 184 112 293 c61 161 111
298 111 305 0 7 -50 144 -112 306 l-111 292 -179 189 c-98 103 -257 272 -352
374 l-175 186 -613 323 c-337 178 -687 356 -777 396 -91 40 -175 81 -187 91
l-23 18 17 232 c8 128 13 235 10 238 -3 4 -217 37 -474 75 -258 38 -624 98
-814 133 l-345 64 -22 98 c-17 78 -27 104 -51 127 l-29 29 -1434 194 -1434
194 -905 75 c-1063 89 -2275 170 -3405 230 l-810 42 -695 -89 -695 -89 -165
17 c-137 14 -1498 240 -2232 371 l-198 35 -542 -3 c-299 -2 -695 -3 -881 -3
l-338 0 -272 583 -272 582 -405 493 -404 492 -466 442 -465 442 -875 624 -875
624 -1049 559 c-923 492 -1050 563 -1061 589 -8 17 -12 31 -11 32 1 1 427 16
946 33 520 17 973 33 1007 36 l61 5 7 50 c4 27 11 52 17 55 6 4 276 24 602 45
325 21 592 39 594 39 1 0 2 23 2 50 0 45 -2 50 -23 50 -12 0 -279 18 -592 40
-314 22 -573 40 -577 40 -3 0 -9 18 -13 40 -4 22 -11 42 -16 46 -5 3 -512 23
-1127 44 -614 22 -1118 39 -1119 40 -1 0 -11 19 -21 43 -11 23 -104 182 -209
352 l-189 310 -375 472 c-341 429 -425 526 -908 1059 -293 323 -528 590 -524
594 4 4 297 33 651 64 l642 58 787 -3 787 -4 8 50 c5 28 11 60 13 73 l5 22
404 0 c221 0 761 3 1199 7 l797 6 0 53 c0 51 -1 52 -32 57 -18 3 -557 61
-1198 128 -641 67 -1166 123 -1167 123 -1 1 -7 77 -15 170 l-13 168 -753 388
-754 388 -616 211 -617 211 -1170 241 -1170 242 -770 13 c-423 7 -837 12 -920
12 -149 0 -158 -1 -1285 -193z"/>
</g>
</svg>
