<?xml version="1.0" standalone="no"?>
<!DOCTYPE svg PUBLIC "-//W3C//DTD SVG 20010904//EN"
 "http://www.w3.org/TR/2001/REC-SVG-20010904/DTD/svg10.dtd">
<svg version="1.0" xmlns="http://www.w3.org/2000/svg"
   viewBox="0 0 1257.000000 706.000000"
 preserveAspectRatio="xMidYMid meet">
<metadata>
Created by potrace 1.16, written by Peter Selinger 2001-2019
</metadata>
<g transform="translate(0.000000,706.000000) scale(0.100000,-0.100000)"
fill="#000000" stroke="none">
<path d="M8305 7030 c-4 -16 -10 -32 -15 -35 -4 -3 -241 -10 -527 -16 -487
-10 -536 -13 -823 -45 -267 -31 -322 -34 -440 -28 -107 5 -140 11 -160 25 -58
42 -192 81 -320 93 -309 28 -563 -48 -663 -199 -32 -47 -39 -52 -119 -78 -46
-15 -129 -33 -182 -41 l-98 -13 -149 -150 -150 -149 -38 -104 c-59 -162 -59
-146 0 -153 29 -4 54 -9 57 -12 3 -3 10 -82 15 -175 8 -139 13 -170 26 -176 9
-4 73 -9 142 -12 106 -4 141 -1 219 17 51 12 95 20 97 17 3 -3 -4 -44 -16 -91
-14 -57 -49 -141 -101 -246 -77 -153 -87 -167 -228 -330 l-147 -170 -218 -150
c-206 -142 -239 -160 -556 -314 l-338 -164 -744 -41 -744 -42 -565 -103 c-465
-85 -599 -114 -755 -160 -478 -140 -707 -265 -755 -411 -16 -47 0 -112 42
-171 73 -101 321 -217 709 -331 189 -56 245 -67 760 -151 l556 -90 754 -52
754 -52 330 -165 c299 -149 351 -179 550 -315 l220 -150 145 -168 c138 -161
148 -174 227 -332 72 -145 132 -311 118 -326 -3 -2 -78 8 -168 22 -186 31
-188 31 -255 16 l-49 -10 -7 -147 c-4 -81 -9 -166 -12 -188 -6 -42 -6 -42 -55
-46 -27 -3 -52 -7 -54 -10 -3 -2 15 -61 40 -129 l46 -124 146 -146 145 -147
72 -4 c45 -3 114 -19 190 -44 117 -38 120 -40 148 -86 41 -67 95 -105 206
-148 190 -73 477 -75 664 -4 48 18 98 40 111 49 16 10 65 18 148 24 111 8 154
5 414 -25 264 -31 331 -35 755 -44 256 -6 503 -12 550 -13 l84 -2 10 -32 c6
-24 15 -33 30 -32 12 0 293 35 626 78 632 82 618 81 632 40 2 -5 74 -3 161 3
154 11 157 12 157 34 0 19 8 25 43 35 23 6 195 53 382 104 l340 93 280 134
c154 74 387 196 517 270 230 132 237 135 254 117 17 -18 20 -16 109 69 50 48
236 202 412 342 177 140 322 261 323 268 0 13 -46 17 -52 4 -1 -5 -177 -88
-390 -185 -281 -128 -413 -183 -478 -199 l-89 -22 21 -33 c11 -19 19 -35 17
-37 -2 -2 -108 -38 -236 -80 -246 -82 -551 -168 -565 -160 -4 3 -8 12 -8 20 0
18 7 19 -128 -21 -94 -28 -197 -45 -528 -90 -226 -30 -446 -55 -488 -55 -50 0
-76 -4 -76 -11 0 -12 -708 -7 -1092 7 l-167 7 -3 -34 c-3 -30 -6 -34 -28 -31
-14 2 -257 48 -540 103 -461 88 -541 106 -760 173 -135 41 -268 87 -296 102
-48 25 -52 30 -58 72 -3 25 -6 104 -6 176 l0 132 73 180 c62 155 308 649 534
1072 l44 82 372 0 c205 0 390 5 412 10 41 9 1314 80 1444 80 l70 0 88 95 c48
53 91 102 96 111 13 23 207 164 291 212 l76 42 0 218 0 218 -77 55 c-43 30
-120 81 -171 113 -76 48 -112 79 -193 172 -94 106 -104 114 -138 114 -20 1
-360 19 -756 42 -502 29 -841 43 -1119 47 l-399 6 -243 480 c-134 264 -280
564 -324 667 l-80 186 0 129 c0 70 3 151 6 179 6 51 7 52 63 78 31 14 168 60
304 101 223 67 303 85 771 175 287 55 528 100 534 100 7 0 12 -13 12 -30 l0
-30 128 0 c70 0 352 5 627 11 349 7 501 7 503 -1 2 -5 27 -10 55 -10 29 0 248
-20 487 -46 l435 -46 113 -44 c61 -24 116 -44 121 -44 5 0 11 8 13 18 3 18 16
16 179 -28 179 -48 607 -186 623 -200 5 -5 -1 -22 -13 -39 l-22 -30 38 -10
c21 -5 61 -15 88 -22 28 -7 232 -95 454 -196 288 -132 407 -181 414 -174 14
14 42 -10 -368 318 -192 155 -370 301 -395 327 -30 31 -50 44 -61 41 -11 -4
-104 43 -251 127 -169 97 -310 168 -513 258 l-280 124 -385 106 -385 106 -3
32 -3 32 -159 0 c-150 0 -159 -1 -165 -20 -3 -11 -11 -20 -18 -20 -14 0 -1182
148 -1224 155 -28 5 -32 3 -38 -25z"/>
</g>
</svg>
