<?xml version="1.0" standalone="no"?>
<!DOCTYPE svg PUBLIC "-//W3C//DTD SVG 20010904//EN"
 "http://www.w3.org/TR/2001/REC-SVG-20010904/DTD/svg10.dtd">
<svg version="1.0" xmlns="http://www.w3.org/2000/svg"
   viewBox="0 0 3287.000000 677.000000"
 preserveAspectRatio="xMidYMid meet">
<metadata>
Created by potrace 1.16, written by Peter Selinger 2001-2019
</metadata>
<g transform="translate(0.000000,677.000000) scale(0.100000,-0.100000)"
fill="#000000" stroke="none">
<path d="M24433 6750 c-111 -8 -203 -17 -206 -20 -8 -9 -79 -231 -75 -235 2
-2 80 -34 173 -70 l170 -66 -70 5 c-38 2 -178 12 -310 22 l-240 17 -1010 -82
c-1009 -81 -1011 -81 -1362 -81 -213 0 -579 -10 -925 -25 -634 -27 -898 -35
-2178 -66 -811 -20 -913 -20 -1395 -7 l-520 13 -975 -67 -975 -67 -295 -66
-295 -65 -750 -46 -750 -46 -720 -278 -721 -278 -294 -26 c-162 -14 -295 -24
-297 -23 -1 2 237 67 530 145 292 79 532 144 532 145 1 1 34 62 73 135 l72
133 -8 102 -7 102 -685 131 -685 130 -240 -12 c-132 -7 -642 -41 -1132 -75
l-893 -64 0 -110 c-1 -105 4 -130 92 -504 l93 -394 155 7 c384 16 409 13 85
-9 -336 -22 -663 -38 -600 -29 98 14 95 13 95 47 0 43 -91 971 -96 976 -7 7
-1209 -30 -1432 -44 l-214 -13 -521 -238 c-287 -130 -522 -238 -523 -238 0 -1
3 -49 7 -107 l7 -106 73 -110 74 -111 373 -78 c236 -49 366 -81 354 -85 -11
-4 -77 -9 -148 -10 -119 -3 -187 5 -888 106 l-759 109 -550 -52 -550 -53 -431
-94 c-423 -92 -438 -96 -816 -223 l-385 -130 -405 -198 -405 -198 -225 -184
c-124 -102 -232 -192 -240 -202 -9 -9 -55 -105 -104 -213 l-89 -197 92 -202
92 -203 242 -198 242 -198 400 -195 400 -196 385 -129 c378 -127 393 -132 815
-223 l430 -94 550 -52 550 -53 785 110 c750 105 790 110 902 104 64 -3 119 -8
122 -11 3 -3 -162 -41 -367 -84 -204 -42 -372 -78 -373 -79 -1 -1 -34 -51 -74
-111 l-72 -109 -7 -106 c-4 -58 -7 -106 -7 -107 1 0 236 -108 523 -238 l522
-237 223 -14 c228 -14 1416 -51 1422 -44 5 5 96 934 96 975 0 37 -5 39 -123
49 -43 4 -76 9 -74 11 3 4 931 -51 1012 -59 45 -5 -149 0 -390 9 l-160 7 -93
-394 c-92 -389 -93 -395 -90 -504 l3 -110 795 -57 c437 -32 946 -66 1130 -76
l335 -18 685 131 685 131 7 102 8 103 -73 134 -72 133 -105 29 c-58 16 -297
81 -532 144 -234 63 -425 115 -424 116 1 2 135 -9 297 -23 l294 -26 720 -278
720 -277 750 -46 750 -46 295 -66 295 -65 964 -67 963 -66 577 12 c501 12 659
11 1211 -3 1417 -36 1800 -48 2345 -71 345 -15 708 -25 920 -25 349 0 352 0
1355 -81 l1005 -82 290 22 c160 12 299 21 310 21 11 0 -56 -30 -149 -65 -93
-36 -171 -67 -174 -69 -6 -7 69 -230 80 -237 5 -3 100 -12 211 -19 l202 -13
132 42 c72 23 201 57 285 76 l153 34 336 181 336 180 129 10 c71 6 186 19 256
30 l127 20 372 -70 c282 -54 456 -80 717 -110 l345 -39 881 178 c485 98 926
184 981 191 89 11 160 34 636 206 617 222 581 204 1134 547 l350 216 350 403
349 403 174 425 c95 234 175 436 178 450 3 17 -51 162 -174 460 l-178 436
-351 404 -352 405 -368 226 c-552 339 -496 313 -1111 534 -505 181 -544 194
-659 209 -67 9 -507 95 -979 191 l-857 174 -351 -39 c-273 -31 -433 -55 -720
-110 l-369 -70 -121 20 c-66 10 -182 24 -256 30 l-134 11 -335 180 -334 180
-151 34 c-83 18 -214 53 -291 77 l-140 43 -202 -15z m-15370 -1657 c-7 -2 -19
-2 -25 0 -7 3 -2 5 12 5 14 0 19 -2 13 -5z m-175 -10 c-15 -2 -42 -2 -60 0
-18 2 -6 4 27 4 33 0 48 -2 33 -4z m-1145 -70 c-13 -2 -33 -2 -45 0 -13 2 -3
4 22 4 25 0 35 -2 23 -4z m1155 -3340 c-15 -2 -42 -2 -60 0 -18 2 -6 4 27 4
33 0 48 -2 33 -4z m175 -10 c-7 -2 -19 -2 -25 0 -7 3 -2 5 12 5 14 0 19 -2 13
-5z"/>
</g>
</svg>
