<?xml version="1.0" standalone="no"?>
<!DOCTYPE svg PUBLIC "-//W3C//DTD SVG 20010904//EN"
 "http://www.w3.org/TR/2001/REC-SVG-20010904/DTD/svg10.dtd">
<svg version="1.0" xmlns="http://www.w3.org/2000/svg"
   viewBox="0 0 3182.000000 1458.000000"
 preserveAspectRatio="xMidYMid meet">
<metadata>
Created by potrace 1.16, written by Peter Selinger 2001-2019
</metadata>
<g transform="translate(0.000000,1458.000000) scale(0.100000,-0.100000)"
fill="#000000" stroke="none">
<path d="M5630 14554 l-275 -24 -210 -66 -210 -65 -158 -107 c-150 -101 -164
-113 -253 -222 -129 -158 -183 -273 -228 -490 -18 -85 -39 -166 -47 -180 -11
-20 -15 -89 -17 -347 l-3 -323 -182 0 c-169 1 -232 -5 -894 -87 l-712 -87 -26
-60 c-52 -119 -51 -274 1 -431 l27 -80 181 -77 c172 -73 191 -79 376 -113 107
-20 205 -39 218 -43 14 -4 -135 -26 -377 -56 l-400 -49 -25 -58 c-53 -117 -52
-282 2 -436 l27 -77 170 -74 c164 -71 178 -75 399 -118 127 -25 231 -46 232
-47 2 -1 -162 -22 -364 -46 -202 -23 -386 -45 -409 -48 -41 -5 -44 -8 -74 -72
-31 -64 -32 -70 -31 -196 0 -114 3 -139 26 -204 14 -41 26 -78 26 -83 0 -4
-267 -8 -592 -8 -567 -1 -667 -5 -690 -28 -8 -8 -124 -382 -214 -689 l-15 -53
-108 0 -108 0 -5 -51 c-3 -28 -10 -54 -16 -58 -6 -4 -127 -15 -269 -24 -236
-16 -263 -20 -315 -44 -42 -19 -58 -32 -62 -52 -9 -38 -25 -448 -25 -646 -1
-216 3 -232 71 -267 43 -22 72 -28 156 -34 l102 -6 0 -474 0 -473 38 -10 c20
-5 181 -46 357 -91 176 -45 337 -86 358 -91 33 -9 37 -13 37 -42 l0 -32 -440
-160 -440 -159 0 -787 0 -787 113 -41 c61 -22 258 -94 437 -160 l325 -118 3
-34 3 -34 -396 -100 -395 -100 0 -477 c0 -263 2 -478 5 -478 2 0 180 -45 394
-99 l389 -99 119 -80 c111 -74 398 -253 453 -283 l25 -13 -30 -8 c-16 -4 -227
-31 -468 -58 l-438 -51 -279 -186 -279 -185 -36 -101 c-45 -120 -59 -220 -50
-347 6 -87 9 -100 43 -152 29 -45 44 -59 67 -63 17 -2 311 -27 655 -55 344
-28 652 -53 685 -57 l60 -7 -108 -12 -109 -13 -241 -158 -241 -158 -37 -88
c-44 -102 -64 -215 -54 -301 8 -72 23 -109 62 -155 l29 -33 984 -87 985 -88
485 8 c457 7 758 -1 996 -27 l51 -5 11 -121 c6 -67 16 -126 22 -132 8 -8 264
-12 851 -14 690 -2 856 0 927 12 75 12 118 29 309 120 l223 106 130 0 130 0
493 -228 492 -228 190 -32 c179 -30 232 -34 937 -67 411 -19 815 -35 897 -35
l150 0 208 74 c185 65 232 87 418 192 l210 117 176 231 176 231 287 514 c262
469 303 536 458 754 163 228 178 244 312 366 l141 127 240 69 240 68 1910 9
c1051 4 2542 7 3315 6 l1405 -1 110 24 c103 22 122 30 281 121 l171 98 150
162 c127 139 176 202 326 425 l177 261 47 6 c27 4 530 54 1118 111 949 94
1153 110 1800 150 402 24 751 46 776 48 l46 4 63 -127 c56 -112 68 -130 108
-155 l45 -29 431 -17 c314 -13 537 -17 821 -13 l390 6 505 89 c489 87 517 93
900 200 390 108 403 113 1016 349 605 233 632 245 1075 460 432 210 460 226
584 319 121 92 270 185 626 394 l146 86 154 175 154 174 49 143 49 144 -48
138 c-53 152 -48 144 -235 356 -112 127 -134 146 -215 193 -300 172 -581 349
-683 430 -112 89 -127 97 -571 311 -432 207 -489 232 -1076 459 -610 237 -626
242 -1010 350 -376 105 -408 112 -915 204 l-525 95 -735 -10 c-404 -6 -773
-14 -820 -17 -81 -6 -87 -8 -123 -43 -24 -22 -61 -81 -98 -154 l-60 -119 -67
6 c-37 3 -368 24 -737 46 -587 35 -810 54 -1805 150 -624 61 -1145 113 -1157
115 -15 4 -39 32 -70 82 -75 120 -70 117 -208 131 -475 47 -1078 74 -3350 147
-1270 42 -2637 91 -3037 110 l-728 34 -545 96 -545 97 -480 322 c-265 176
-476 322 -470 324 6 2 10 45 10 105 1 142 -49 1984 -56 2082 l-5 80 -115 -4
-114 -3 0 242 c0 343 -13 460 -62 580 -22 52 -42 103 -45 112 -3 9 -15 18 -27
20 -16 2 -22 11 -24 38 -9 100 -55 266 -102 372 -42 94 -67 132 -148 230 -90
109 -108 125 -247 220 l-150 102 -211 67 -212 67 -303 26 -304 26 -1745 -1
-1745 -1 -275 -24z m-2746 -4557 c59 -12 110 -26 112 -32 2 -5 -23 -98 -55
-205 l-59 -195 -30 100 c-17 55 -45 147 -62 205 -17 58 -35 118 -40 134 -8 24
-7 27 8 21 9 -4 66 -16 126 -28z"/>
</g>
</svg>
