<?xml version="1.0" standalone="no"?>
<!DOCTYPE svg PUBLIC "-//W3C//DTD SVG 20010904//EN"
 "http://www.w3.org/TR/2001/REC-SVG-20010904/DTD/svg10.dtd">
<svg version="1.0" xmlns="http://www.w3.org/2000/svg"
   viewBox="0 0 4632.000000 4474.000000"
 preserveAspectRatio="xMidYMid meet">
<metadata>
Created by potrace 1.16, written by Peter Selinger 2001-2019
</metadata>
<g transform="translate(0.000000,4474.000000) scale(0.100000,-0.100000)"
fill="#000000" stroke="none">
<path d="M3090 44728 c-673 -7 -945 -13 -1334 -33 l-489 -25 -554 -322 -553
-322 -55 -96 -55 -95 13 -138 c7 -75 17 -141 22 -146 6 -4 91 -25 190 -45 99
-21 201 -42 227 -48 l48 -10 0 -87 c0 -71 -3 -91 -17 -103 -10 -8 -85 -50
-168 -93 -82 -42 -155 -83 -160 -90 -6 -7 -24 -98 -39 -202 -29 -186 -30 -190
-96 -338 l-67 -150 9 -170 9 -170 82 -82 82 -83 447 -100 447 -100 98 10 c54
5 115 12 136 15 l37 5 0 -600 0 -600 773 0 774 0 6 -167 c4 -91 7 -208 7 -260
l0 -93 -663 0 -663 0 -37 -162 c-25 -111 -268 -887 -756 -2423 l-720 -2260
-10 -165 c-6 -94 -13 -848 -17 -1746 l-6 -1581 63 -15 c35 -8 524 -120 1086
-249 l1023 -234 2 -605 c1 -575 -1 -811 -7 -818 -2 -2 -180 -48 -396 -103
-217 -54 -432 -110 -479 -125 l-85 -26 -79 -136 c-44 -76 -113 -190 -155 -254
l-76 -117 -301 -148 -300 -147 -52 -110 c-29 -61 -52 -116 -52 -123 0 -7 22
-61 49 -120 43 -93 69 -182 184 -633 120 -470 139 -555 176 -796 l41 -269 0
-1213 0 -1213 30 -59 c16 -32 38 -61 47 -64 10 -3 209 -60 443 -127 381 -109
447 -125 638 -154 117 -18 214 -34 217 -36 2 -2 -157 -35 -353 -72 l-357 -68
-71 -72 -72 -72 -18 -553 c-17 -531 -17 -573 0 -1105 l18 -552 72 -72 71 -72
357 -68 c196 -37 355 -69 353 -72 -3 -2 -100 -18 -217 -36 -191 -29 -257 -45
-638 -154 -234 -67 -433 -124 -443 -127 -9 -3 -31 -32 -47 -64 l-30 -59 0
-1213 0 -1213 -41 -269 c-37 -241 -56 -327 -176 -796 -116 -455 -141 -539
-183 -632 -28 -59 -50 -113 -50 -120 0 -7 23 -62 51 -123 l52 -110 301 -148
301 -148 76 -117 c42 -64 111 -179 155 -254 l79 -137 105 -30 c58 -17 273 -73
479 -125 205 -52 375 -97 378 -100 8 -7 3 -1410 -5 -1417 -4 -4 -482 -116
-1062 -249 -580 -133 -1066 -244 -1079 -247 l-23 -6 6 -1581 c4 -903 11 -1652
17 -1746 l11 -165 714 -2245 c500 -1569 728 -2298 757 -2422 l42 -178 662 0
663 0 0 -93 c0 -52 -3 -169 -7 -260 l-6 -167 -774 0 -773 0 0 -600 0 -601 -32
5 c-18 3 -80 10 -138 16 l-105 10 -444 -100 -445 -99 -82 -83 -83 -83 -9 -170
-9 -170 67 -150 c66 -148 67 -152 96 -338 15 -104 33 -195 39 -202 5 -7 82
-50 170 -96 88 -45 163 -87 167 -93 4 -6 8 -50 8 -98 l0 -86 -47 -10 c-27 -6
-129 -27 -228 -48 -99 -20 -184 -41 -190 -45 -5 -5 -15 -71 -22 -146 l-12
-136 54 -96 54 -96 554 -322 553 -322 490 -25 c400 -21 648 -27 1364 -34 l875
-8 1445 102 1445 103 1905 235 1905 236 2296 480 2297 480 361 169 c199 93
364 170 366 172 2 2 -164 61 -368 131 l-372 126 -2739 170 -2740 169 -325
-108 c-179 -60 -327 -109 -328 -109 -2 0 -3 302 -3 670 l0 670 124 0 123 0
234 108 234 108 3 115 3 116 527 6 c290 4 2307 20 4482 37 2175 17 4046 33
4158 36 l202 6 0 58 0 58 -282 6 c-156 3 -2038 19 -4183 36 -2145 16 -4126 33
-4402 36 l-503 7 0 286 0 286 -234 108 -235 107 -524 0 -525 0 -199 432 -199
432 -150 33 c-82 18 -190 42 -241 54 l-91 20 -117 206 c-63 114 -114 212 -113
218 2 7 557 1130 1235 2496 l1232 2484 211 710 c117 391 214 712 216 714 2 3
199 26 436 53 l432 49 628 340 629 341 792 139 c807 142 680 122 11872 1840
l2100 323 495 -43 c272 -23 509 -43 525 -43 17 0 741 135 1610 301 l1580 302
127 87 c71 48 261 179 424 291 l296 204 1492 373 c1081 271 1501 372 1526 368
19 -3 50 -7 68 -10 l32 -5 -2 -1021 -3 -1022 -1850 -378 -1850 -378 -1850
-300 c-1017 -165 -1860 -302 -1872 -305 -22 -5 -23 -10 -23 -110 0 -86 3 -105
15 -105 8 0 835 133 1837 296 1003 162 1834 295 1848 295 14 1 87 -24 162 -55
l137 -56 808 165 c1344 273 2221 454 3188 659 883 187 1012 218 3115 735
l2195 540 97 103 97 103 1 288 c0 270 -1 288 -17 283 -28 -8 -1121 -276 -1127
-276 -4 0 -5 197 -4 437 l3 437 105 26 c58 15 461 154 895 309 l790 283 314
161 314 160 148 -48 147 -49 249 93 c241 89 260 98 701 338 l454 246 205 170
c113 93 265 221 338 285 73 65 332 281 576 482 l445 365 273 643 273 642 -274
643 -273 643 -444 364 c-244 201 -505 419 -580 485 -75 67 -226 195 -336 285
l-200 165 -461 250 c-450 245 -466 252 -703 339 l-243 90 -147 -49 -147 -48
-315 161 -314 160 -775 278 c-426 153 -829 292 -895 309 l-120 32 -3 436 c-1
241 1 437 5 437 8 0 1095 -267 1126 -276 16 -5 17 13 17 283 l-1 288 -97 103
-97 103 -2195 540 c-2106 518 -2232 548 -3115 735 -990 210 -1785 375 -3138
649 l-858 175 -137 -56 c-75 -31 -148 -56 -162 -55 -14 0 -845 133 -1846 296
-1002 162 -1829 295 -1838 295 -14 0 -16 -15 -16 -105 0 -100 1 -105 23 -110
12 -3 857 -140 1877 -306 l1855 -300 1845 -378 1845 -377 3 -1022 2 -1021 -35
-6 c-19 -3 -50 -7 -67 -10 -22 -3 -520 117 -1525 369 l-1491 373 -416 287
c-228 157 -421 289 -428 291 -7 3 -726 141 -1598 308 l-1585 303 -520 -44
-520 -45 -2125 327 c-1169 180 -4132 635 -6585 1011 -3677 565 -4599 709
-5252 824 l-792 140 -629 340 -628 340 -432 49 c-238 27 -434 51 -436 53 -2 2
-99 324 -216 714 l-211 710 -1235 2490 c-679 1370 -1234 2493 -1234 2497 0 8
218 397 230 411 4 5 114 32 244 61 130 29 238 55 240 57 2 2 93 196 201 432
l197 427 524 0 524 0 235 108 235 107 0 286 0 286 483 7 c265 3 2224 20 4352
36 2129 17 4020 33 4203 36 l332 6 0 58 0 58 -152 6 c-84 3 -1946 19 -4138 36
-2192 17 -4231 33 -4532 37 l-548 6 0 116 -1 116 -236 108 -235 107 -124 0
-124 0 0 670 c0 369 1 670 3 670 1 0 149 -49 327 -108 l325 -109 2755 172
2755 173 357 123 c196 68 354 127 350 130 -4 3 -168 81 -365 173 l-359 166
-2295 480 -2295 480 -1947 240 -1946 239 -1420 101 c-781 55 -1427 99 -1435
98 -8 -1 -395 -5 -860 -10z"/>
</g>
</svg>
