<?xml version="1.0" standalone="no"?>
<!DOCTYPE svg PUBLIC "-//W3C//DTD SVG 20010904//EN"
 "http://www.w3.org/TR/2001/REC-SVG-20010904/DTD/svg10.dtd">
<svg version="1.0" xmlns="http://www.w3.org/2000/svg"
   viewBox="0 0 4448.000000 1406.000000"
 preserveAspectRatio="xMidYMid meet">
<metadata>
Created by potrace 1.16, written by Peter Selinger 2001-2019
</metadata>
<g transform="translate(0.000000,1406.000000) scale(0.100000,-0.100000)"
fill="#000000" stroke="none">
<path d="M34080 13965 l-1195 -93 -995 -235 c-547 -129 -1034 -240 -1081 -247
-72 -11 -110 -10 -240 3 -85 9 -501 29 -925 43 l-771 27 -833 -16 -834 -16
-93 -93 -93 -93 0 -87 0 -88 30 0 c17 0 30 -4 30 -10 0 -14 -9 -13 -196 21
l-169 30 -115 -21 c-63 -11 -200 -39 -303 -61 -148 -33 -193 -39 -210 -31 -12
6 -317 43 -677 81 -504 54 -706 72 -875 77 l-220 6 -950 -166 -950 -166 -90
-44 -91 -44 -62 -189 c-34 -104 -62 -195 -62 -200 0 -15 67 -10 -2000 -124
-1646 -90 -2029 -114 -2044 -130 -3 -3 -8 -37 -12 -76 l-7 -71 -76 -6 c-42 -3
-830 -49 -1751 -102 l-1675 -95 -659 -265 -660 -265 -430 -33 -431 -33 -370
48 -370 48 -775 13 -775 13 -4105 -282 c-2855 -196 -4122 -286 -4160 -297 -30
-8 -125 -49 -211 -92 l-155 -77 -62 -122 -62 -122 0 -143 c0 -140 1 -147 51
-334 42 -156 62 -213 114 -316 67 -133 168 -275 213 -300 26 -14 24 -15 -68
-27 -52 -8 -105 -17 -117 -21 -12 -4 -346 -287 -742 -630 -628 -543 -721 -627
-725 -655 -3 -18 -14 -216 -24 -442 l-20 -410 23 -415 c13 -228 23 -416 24
-417 12 -18 1449 -1250 1464 -1255 12 -4 65 -13 117 -21 92 -12 94 -13 68 -27
-45 -25 -146 -167 -213 -300 -52 -103 -72 -160 -114 -316 -50 -188 -51 -193
-51 -335 l0 -144 62 -121 63 -122 155 -76 c85 -43 180 -84 210 -92 38 -11
1302 -101 4160 -297 l4105 -282 775 13 775 13 370 48 370 48 430 -33 430 -33
660 -265 660 -265 1675 -95 c921 -53 1709 -99 1751 -102 l76 -6 7 -71 c4 -39
9 -73 12 -76 15 -16 378 -39 2039 -130 2064 -113 2005 -110 2005 -123 0 -6 28
-96 62 -200 l61 -190 91 -44 91 -44 950 -166 950 -166 220 6 c169 5 371 23
875 77 360 38 665 75 677 81 17 8 56 3 185 -26 90 -20 226 -47 302 -62 l140
-25 171 30 c191 35 195 35 195 21 0 -5 -13 -10 -30 -10 l-30 0 0 -88 0 -87 93
-93 94 -93 834 -16 834 -16 770 27 c423 15 839 34 924 43 130 13 168 14 240 3
47 -7 543 -119 1101 -250 l1015 -238 1225 -93 1225 -92 1047 31 1046 32 579
226 c318 125 596 235 618 247 22 11 79 56 127 101 l87 81 438 101 c382 89 450
107 533 146 l95 45 415 563 c228 310 418 569 422 575 4 6 89 333 188 725 118
462 186 750 194 817 7 57 17 107 22 112 11 10 262 93 349 115 50 13 193 17
840 26 429 5 869 10 978 10 l197 0 0 29 0 29 -427 6 c-236 3 -611 10 -836 14
l-407 7 407 243 408 244 285 359 285 360 269 199 268 199 227 315 227 314 112
375 c62 206 112 380 112 387 0 7 -50 181 -112 387 l-112 375 -227 314 -227
315 -268 199 -269 199 -285 360 -285 359 -408 244 -408 243 408 7 c224 4 600
11 836 14 l427 6 0 28 0 27 -702 8 c-387 4 -838 11 -1003 15 l-300 7 -175 57
c-96 32 -179 62 -184 67 -5 4 -15 55 -22 112 -8 67 -76 355 -194 817 -99 392
-184 719 -188 725 -4 6 -194 265 -422 575 l-415 563 -95 45 c-83 39 -151 57
-533 146 l-438 101 -87 81 c-48 45 -105 90 -127 101 -22 12 -300 122 -619 247
l-578 226 -992 30 c-545 16 -1038 29 -1096 29 -58 -1 -643 -43 -1300 -94z"/>
</g>
</svg>
