<?xml version="1.0" standalone="no"?>
<!DOCTYPE svg PUBLIC "-//W3C//DTD SVG 20010904//EN"
 "http://www.w3.org/TR/2001/REC-SVG-20010904/DTD/svg10.dtd">
<svg version="1.0" xmlns="http://www.w3.org/2000/svg"
   viewBox="0 0 4015.000000 1522.000000"
 preserveAspectRatio="xMidYMid meet">
<metadata>
Created by potrace 1.16, written by Peter Selinger 2001-2019
</metadata>
<g transform="translate(0.000000,1522.000000) scale(0.100000,-0.100000)"
fill="#000000" stroke="none">
<path d="M8030 15138 l-395 -80 -240 -177 -239 -176 -202 -330 -203 -330 -55
-204 c-30 -112 -56 -205 -58 -206 -2 -2 -101 -60 -220 -130 l-218 -127 0 -105
0 -104 29 20 c22 16 44 21 91 21 56 0 67 -4 119 -40 50 -35 60 -48 74 -94 21
-66 21 -76 0 -144 -15 -48 -24 -59 -75 -93 -51 -35 -63 -39 -118 -39 -47 0
-69 5 -91 21 l-29 20 0 -111 0 -111 29 20 c22 16 44 21 91 21 56 0 67 -4 119
-40 50 -35 60 -48 74 -94 21 -64 20 -87 -1 -148 -14 -37 -29 -55 -74 -87 -51
-37 -62 -41 -118 -41 -47 0 -69 5 -91 21 l-29 20 0 -56 0 -57 -130 -156 c-111
-133 -135 -168 -160 -234 -18 -45 -30 -96 -30 -123 l0 -45 -75 0 -75 0 0 75 0
75 -1096 -2 -1097 -3 -26 -70 -27 -70 -237 -3 -237 -2 0 33 c0 34 2 32 -175
184 l-60 51 -1187 -56 c-653 -32 -1190 -61 -1194 -64 -4 -4 -9 -40 -11 -80
l-4 -73 118 -225 118 -225 878 -3 877 -2 0 -60 0 -60 -500 0 -500 0 0 -140 0
-140 -47 -1 c-33 0 -80 -14 -147 -43 l-100 -42 -42 -100 -43 -99 0 -207 -1
-207 -42 -5 c-24 -3 -178 -8 -343 -11 -165 -3 -369 -8 -452 -12 l-153 -6 0
-973 0 -972 80 -49 79 -48 1 -752 0 -751 -80 -49 -79 -48 -1 -976 0 -976 272
-6 c150 -4 373 -10 496 -14 l222 -6 0 -204 0 -203 42 -105 43 -104 108 -46
c66 -27 125 -45 148 -45 l39 0 0 -135 0 -135 500 0 500 0 0 -65 0 -65 -874 0
c-687 0 -876 -3 -884 -12 -5 -7 -60 -109 -122 -227 l-112 -215 4 -73 c3 -40 7
-76 10 -78 3 -3 541 -31 1195 -62 l1190 -57 116 99 c102 89 116 104 116 133
l1 32 238 0 237 0 26 -72 26 -73 1097 -3 1096 -2 0 75 0 75 75 0 75 0 -2 -982
-3 -982 -45 -17 -45 -17 -2 -388 -2 -389 44 -33 44 -32 1151 0 1151 0 762 141
c712 131 764 142 790 167 l27 26 0 296 0 296 -27 32 -28 32 -745 135 c-410 75
-757 138 -772 141 l-28 6 0 187 0 188 180 230 180 231 0 316 0 316 418 1 c229
1 444 4 477 8 l60 6 3 43 3 42 405 0 404 0 0 -39 c0 -27 5 -41 18 -47 23 -11
1077 -17 1167 -7 l70 8 3 42 3 43 409 0 409 0 3 -42 3 -43 75 -8 c97 -10 1140
-4 1163 7 9 4 17 19 17 32 l0 24 900 0 c791 0 901 2 906 15 5 13 42 15 245 15
206 0 239 2 239 15 0 13 78 15 640 15 l640 0 0 35 0 35 860 0 859 0 576 85
576 85 1583 0 1584 0 138 85 139 85 298 0 c377 0 357 8 357 -134 l0 -99 47
-69 47 -68 592 0 c509 0 594 2 601 15 7 12 36 5 178 -40 l170 -55 1549 0 1548
0 90 40 c74 33 102 40 153 40 61 0 63 1 88 39 23 35 46 47 289 155 l263 116
1255 -80 1255 -80 730 -250 730 -250 605 86 605 85 905 355 905 356 705 375
c388 206 884 476 1102 600 l397 225 453 496 c250 274 472 522 495 552 70 94
185 301 210 379 13 40 22 75 20 78 -2 2 -323 -3 -713 -10 -997 -20 -6706 -7
-7574 17 -316 9 -594 17 -617 19 l-43 2 90 142 c62 99 90 154 92 179 3 37 3
37 78 58 l75 22 3 656 2 656 -27 7 c-16 3 -52 13 -80 21 -51 15 -53 16 -53 52
-1 29 -20 67 -89 177 -49 77 -88 141 -87 142 2 2 326 12 722 22 632 17 1100
20 3874 25 2439 5 3290 3 3750 -7 327 -7 596 -12 598 -11 2 1 -6 35 -18 76
-23 74 -143 291 -215 386 -20 26 -240 270 -488 543 l-452 497 -370 210 c-203
116 -696 385 -1095 598 l-725 387 -910 359 -910 358 -610 87 -610 87 -736
-251 -736 -252 -1249 -76 -1249 -77 -265 117 c-231 102 -269 122 -289 151 -22
32 -27 34 -77 34 -42 0 -76 10 -155 45 l-102 45 -1541 0 -1540 0 -175 -56
c-123 -39 -177 -52 -184 -45 -8 8 -196 11 -604 11 l-593 0 -45 -67 -45 -68 0
-98 0 -97 -32 -20 c-31 -19 -52 -20 -325 -20 l-292 0 -139 85 -139 85 -1572 0
-1572 0 -576 85 -576 85 -874 0 -873 0 0 40 0 40 -640 0 c-420 0 -640 3 -640
10 0 6 -86 10 -239 10 -203 0 -240 2 -245 15 -5 13 -115 15 -906 15 l-900 0 0
29 c0 26 -3 29 -46 35 -60 8 -1127 8 -1176 0 -37 -6 -38 -8 -38 -50 l0 -44
-410 0 -410 0 0 44 c0 42 -1 44 -37 50 -50 8 -1117 8 -1177 0 l-46 -7 0 -43 0
-44 -405 0 -405 0 0 44 c0 42 -1 44 -37 50 -21 3 -239 6 -484 6 l-446 0 -32
75 -31 75 0 882 0 882 80 117 80 117 0 630 0 630 -84 46 c-46 25 -86 46 -88
45 -1 -1 -181 -37 -398 -81z"/>
</g>
</svg>
