<?xml version="1.0" standalone="no"?>
<!DOCTYPE svg PUBLIC "-//W3C//DTD SVG 20010904//EN"
 "http://www.w3.org/TR/2001/REC-SVG-20010904/DTD/svg10.dtd">
<svg version="1.0" xmlns="http://www.w3.org/2000/svg"
   viewBox="0 0 1763.000000 4876.000000"
 preserveAspectRatio="xMidYMid meet">
<metadata>
Created by potrace 1.16, written by Peter Selinger 2001-2019
</metadata>
<g transform="translate(0.000000,4876.000000) scale(0.100000,-0.100000)"
fill="#000000" stroke="none">
<path d="M11556 48743 c-2 -10 -273 -1186 -600 -2613 l-595 -2595 -260 -825
-260 -825 -326 -2261 c-179 -1244 -325 -2266 -325 -2271 0 -4 -596 -474 -1325
-1043 l-1325 -1034 0 -83 0 -83 -908 0 -908 0 -462 -272 -462 -273 3 -1800 2
-1799 460 -273 460 -272 91 -1 92 0 7 -138 7 -138 94 -29 94 -28 0 -867 0
-866 -28 -27 c-27 -26 -33 -27 -135 -27 -99 0 -112 2 -195 36 l-89 37 -118
266 -117 266 4 182 5 183 -126 -5 c-287 -12 -835 -25 -1065 -25 l-246 0 -30
-60 -30 -60 -54 0 -53 0 -321 -374 -322 -375 -100 -32 -100 -33 -387 -355
-388 -355 -175 -84 c-96 -47 -228 -104 -293 -128 -109 -40 -126 -44 -213 -44
l-94 0 0 -34 0 -34 -220 -78 -220 -79 3 -324 2 -325 217 -100 c120 -56 217
-107 218 -113 0 -7 11 -13 24 -13 38 0 172 -66 415 -204 l223 -128 892 -34
c580 -22 910 -39 946 -47 l55 -13 3 -191 2 -191 -75 -33 c-54 -23 -75 -38 -75
-51 0 -15 -9 -18 -62 -18 -52 0 -113 -16 -351 -92 l-287 -92 0 -763 0 -762
289 -95 c238 -79 301 -96 350 -96 49 0 61 -3 61 -16 0 -9 28 -28 75 -49 l75
-34 0 -190 c0 -171 -2 -190 -17 -196 -36 -13 -268 -26 -1063 -56 l-815 -31
-235 -132 c-248 -140 -380 -206 -411 -206 -10 0 -19 -4 -19 -8 0 -5 -99 -55
-220 -112 l-220 -103 0 -323 0 -322 220 -78 220 -79 0 -37 0 -38 101 0 c91 0
112 -4 200 -35 54 -20 184 -77 288 -128 l190 -92 385 -352 385 -353 103 -36
103 -36 320 -373 320 -374 56 0 55 -1 28 -58 28 -59 557 -6 c306 -4 628 -10
717 -13 l161 -7 -5 181 -5 182 113 257 c63 142 118 263 124 269 6 6 47 25 91
43 74 29 89 31 196 31 108 0 117 -2 137 -23 l22 -23 -2 -869 -3 -869 -92 -29
-91 -29 -7 -139 -8 -139 -91 0 -92 0 -462 -272 -462 -273 3 -1798 2 -1798 464
-275 464 -274 903 0 903 0 3 -84 3 -84 1300 -1012 c715 -557 1310 -1022 1322
-1034 20 -19 48 -200 348 -2290 l326 -2268 260 -822 259 -821 580 -2525 c318
-1389 589 -2567 600 -2617 l22 -93 754 0 754 0 4 23 c5 22 46 283 46 292 0 3
12 5 26 5 14 0 35 6 47 12 17 10 170 12 660 9 572 -3 639 -2 650 12 10 13 46
17 207 23 294 10 307 19 40 28 -189 6 -236 10 -243 22 -7 12 -100 14 -649 14
-478 0 -651 3 -677 12 -20 7 -37 13 -38 13 -1 0 143 1014 321 2253 l322 2252
-116 189 -115 188 -782 877 -783 876 0 273 c0 151 3 308 6 349 l7 75 121 -74
121 -73 6 -93 c4 -50 7 -234 8 -407 l2 -315 370 -390 c204 -214 374 -391 377
-393 4 -1 45 1212 90 2695 l83 2698 245 1102 c134 607 244 1112 244 1122 0 26
-12 28 -165 36 -71 4 -148 10 -170 14 -35 6 -28 8 51 15 l91 7 346 764 347
763 0 1266 0 1266 23 0 c99 0 841 33 912 40 50 5 266 10 481 10 l390 0 30 31
29 31 470 -7 c259 -3 500 -11 536 -16 55 -9 107 -5 320 20 140 17 258 31 262
31 4 0 7 31 7 70 l0 69 -32 5 c-18 3 -136 17 -261 32 -197 22 -241 24 -315 15
-48 -6 -289 -12 -537 -15 l-450 -3 -30 27 -30 28 -500 10 c-275 5 -681 7 -902
5 l-403 -5 0 200 c0 183 2 201 18 206 9 2 107 19 216 37 l199 33 -7 298 -8
298 344 2 c189 2 431 3 538 3 192 1 470 21 470 35 0 14 -279 33 -495 35 -121
0 -363 2 -537 3 l-318 2 0 24 c0 22 -3 23 -42 20 -24 -2 -140 -6 -258 -8
l-215 -5 -345 -131 -345 -131 -113 -6 c-127 -7 -138 -13 -148 -74 -4 -21 -7
-39 -8 -40 0 0 -174 -9 -386 -20 -271 -13 -410 -24 -470 -37 l-85 -18 -545 52
-545 53 -952 -6 -953 -6 0 731 0 732 83 0 82 0 115 116 c63 63 225 223 361
354 l245 239 310 86 c170 48 310 88 312 89 3 4 232 1229 232 1246 0 9 -15 24
-32 34 -145 84 -361 226 -398 261 -27 27 -68 53 -104 66 l-58 23 6 59 c3 33 6
112 6 176 l0 117 75 37 c44 21 75 43 75 52 0 8 6 15 13 15 6 0 102 7 212 15
l200 15 61 68 62 67 818 27 c451 14 1168 34 1594 43 l775 16 630 69 c347 38
722 76 835 86 185 15 207 19 222 38 16 19 18 61 17 511 0 399 -2 493 -13 508
-12 16 -65 22 -412 52 -220 19 -592 57 -829 85 l-430 51 -695 14 c-698 14
-841 19 -1875 55 -308 11 -578 20 -600 21 -36 1 -45 7 -100 69 -52 59 -65 68
-95 69 -19 0 -115 6 -212 13 -157 10 -178 13 -178 28 0 12 -24 28 -75 51 l-75
34 -2 143 c-1 78 -2 158 -2 178 -1 34 2 37 50 57 28 12 75 43 105 68 45 38
249 172 392 258 20 12 37 30 37 39 -1 36 -229 1235 -237 1242 -4 4 -145 44
-313 90 l-305 83 -355 354 -355 353 -88 0 -87 0 0 730 0 730 963 0 962 0 535
51 535 51 110 -21 c81 -15 200 -25 450 -36 187 -8 350 -15 363 -15 16 0 22 -6
22 -22 0 -12 5 -36 12 -54 l11 -32 116 -7 116 -7 355 -133 355 -133 253 -7
c251 -7 252 -7 252 14 0 21 3 21 228 21 125 1 335 5 467 9 132 5 259 6 283 1
27 -5 108 0 229 14 l188 22 -185 20 c-115 12 -201 17 -228 12 -23 -4 -163 -3
-310 2 -147 5 -359 10 -470 10 l-204 0 8 294 7 294 -29 6 c-16 3 -101 17 -189
31 -88 14 -172 28 -187 31 l-28 6 0 199 0 199 293 2 c160 1 317 0 347 -3 30
-2 116 -3 190 -2 74 1 324 5 555 8 l420 6 31 30 32 31 473 -7 c261 -4 499 -11
529 -15 41 -7 121 -1 323 23 l268 31 -3 70 -3 71 -235 27 c-224 26 -245 27
-445 18 -116 -6 -369 -10 -561 -10 l-350 0 -29 30 -28 30 -451 3 c-334 3
-1330 37 -1353 46 -2 1 -3 569 -3 1264 l0 1262 -346 762 -346 762 -56 6 c-142
15 -140 19 18 31 85 7 172 13 193 13 31 1 37 4 37 24 0 12 -110 519 -245 1127
l-244 1105 -81 2635 c-44 1449 -81 2664 -83 2700 l-2 64 -377 -399 -378 -398
-1 -316 c-1 -174 -4 -356 -8 -405 l-6 -89 -120 -74 -120 -74 -6 58 c-4 32 -7
189 -8 348 l0 290 780 873 781 874 117 191 117 191 -322 2250 c-178 1238 -322
2251 -321 2251 1 1 21 9 45 20 40 17 72 18 673 11 569 -7 632 -6 642 9 10 13
49 17 217 25 113 5 237 10 275 11 39 1 -53 7 -204 14 -217 9 -276 14 -285 26
-9 12 -101 14 -648 11 -563 -3 -640 -2 -667 12 -16 9 -39 16 -50 16 -22 0 -22
1 -46 165 -9 61 -19 118 -21 128 -5 16 -50 17 -759 17 -709 0 -754 -1 -759
-17z m592 -10643 l92 -55 0 -358 0 -358 -66 -192 c-37 -106 -70 -195 -73 -199
-4 -4 -29 0 -57 9 l-50 16 28 79 28 78 -7 522 c-4 353 -3 520 4 517 6 -2 51
-29 101 -59z m-511 -2483 c2 -3 -21 -77 -51 -164 -32 -90 -56 -177 -56 -199
l0 -40 -65 7 c-36 3 -67 8 -69 10 -3 3 105 320 137 403 5 14 11 14 53 1 25 -7
48 -16 51 -18z m-107 -22106 c0 -22 24 -109 55 -196 30 -87 55 -161 55 -164 0
-8 -99 -36 -104 -30 -2 2 -32 90 -69 194 -36 105 -68 198 -72 207 -7 17 10 22
103 26 31 2 32 1 32 -37z m642 -1881 l68 -195 0 -356 0 -357 -77 -48 c-43 -26
-89 -55 -102 -63 l-24 -15 6 524 6 525 -24 68 c-14 37 -25 74 -25 81 0 12 62
35 89 32 9 -1 39 -71 83 -196z"/>
</g>
</svg>
