<?xml version="1.0" standalone="no"?>
<!DOCTYPE svg PUBLIC "-//W3C//DTD SVG 20010904//EN"
 "http://www.w3.org/TR/2001/REC-SVG-20010904/DTD/svg10.dtd">
<svg version="1.0" xmlns="http://www.w3.org/2000/svg"
   viewBox="0 0 4083.000000 2015.000000"
 preserveAspectRatio="xMidYMid meet">
<metadata>
Created by potrace 1.16, written by Peter Selinger 2001-2019
</metadata>
<g transform="translate(0.000000,2015.000000) scale(0.100000,-0.100000)"
fill="#000000" stroke="none">
<path d="M20593 20128 c-68 -20 -73 -23 -78 -52 -14 -86 -125 -1221 -121
-1233 3 -8 22 -13 50 -13 25 0 48 -4 51 -10 3 -5 -1 -10 -9 -10 -13 0 -16 -14
-16 -75 l0 -75 -540 0 -540 0 0 -95 0 -95 575 0 575 0 0 -140 0 -140 -67 0
-68 -1 -125 -89 -125 -90 -1257 0 -1258 0 0 34 c0 30 -8 39 -75 90 l-74 56
-2926 0 -2925 0 0 -120 0 -120 -1966 0 -1965 0 -72 -61 -72 -60 -55 5 c-30 3
-219 8 -420 12 -282 5 -375 3 -407 -6 l-43 -13 0 -215 0 -214 -152 3 c-113 2
-163 -1 -190 -11 l-38 -14 0 -293 c0 -262 2 -293 17 -301 21 -12 178 11 -1502
-222 l-1440 -200 -98 -99 -98 -99 -149 -14 -150 -14 -41 98 -41 98 -77 -6
c-42 -3 -517 -32 -1056 -64 -565 -34 -994 -64 -1012 -70 l-33 -12 0 -219 0
-219 -290 0 -290 0 0 -1405 0 -1405 293 0 292 -1 79 -59 79 -60 972 0 971 0
78 95 77 95 172 0 c95 0 182 3 195 6 l22 6 0 -183 0 -184 130 -130 130 -130 0
-157 0 -156 -185 -162 -185 -161 0 -1674 0 -1673 185 -162 185 -161 0 -157 0
-157 -130 -130 -130 -130 0 -184 0 -183 -31 6 c-17 3 -105 6 -195 6 l-163 0
-78 95 -77 95 -971 0 -972 0 -79 -60 -79 -59 -292 -1 -293 0 0 -1405 0 -1405
290 0 290 0 0 -219 0 -219 33 -12 c18 -6 448 -36 1012 -70 539 -32 1014 -62
1056 -65 l76 -6 42 98 41 98 150 -14 149 -13 98 -99 98 -98 1445 -201 c795
-111 1460 -204 1479 -207 30 -5 32 -7 18 -18 -15 -11 -17 -43 -17 -302 l0
-290 39 -11 c22 -7 104 -12 190 -12 l151 0 0 -214 0 -213 45 -13 c34 -10 130
-11 407 -6 200 4 388 9 418 12 l55 5 72 -60 72 -61 1965 0 1966 0 0 -120 0
-120 2925 0 2926 0 74 56 c67 51 75 60 75 90 l0 34 1258 0 1257 0 125 -90 125
-89 68 -1 67 0 0 -140 0 -140 -575 0 -575 0 0 -95 0 -95 540 0 540 0 0 -75 c0
-61 3 -75 16 -75 8 0 12 -4 9 -10 -3 -5 -26 -10 -51 -10 -28 0 -47 -5 -50 -13
-4 -12 107 -1147 121 -1233 5 -29 10 -32 84 -52 104 -29 220 -29 329 -1 45 12
82 27 82 33 0 6 27 272 60 591 33 319 60 599 60 623 0 48 1 47 -85 58 -33 4
-50 9 -37 12 20 3 22 8 22 78 l0 74 300 0 300 0 0 -75 c0 -46 4 -75 11 -75 5
0 7 -5 4 -10 -3 -6 -26 -10 -51 -10 l-44 0 0 -60 c0 -49 95 -1015 116 -1171
l6 -46 77 -22 c104 -28 225 -28 328 0 43 12 79 22 81 23 5 5 122 1169 122
1216 0 56 2 55 -85 66 -39 5 -51 9 -32 12 27 3 27 4 27 78 l0 74 290 0 290 0
0 -75 c0 -46 4 -75 11 -75 5 0 7 -4 4 -10 -3 -5 -26 -10 -51 -10 l-44 0 0 -57
c0 -54 117 -1213 122 -1218 2 -2 37 -12 79 -24 101 -28 227 -28 328 0 42 12
77 22 79 24 6 5 122 1163 122 1217 l0 58 -42 1 c-24 1 -56 5 -73 9 l-30 8 28
1 c27 1 27 1 27 76 l0 75 309 0 309 0 16 -40 16 -40 260 0 c253 0 260 -1 260
-20 0 -19 7 -20 244 -20 l244 0 7 43 c3 23 8 49 11 57 3 13 137 15 1139 12
l1135 -4 0 31 0 30 -122 4 c-68 1 87 4 345 5 l467 2 0 39 0 39 -937 5 c-788 5
-968 9 -1128 24 -129 12 -303 19 -542 21 l-352 2 -5 30 c-3 17 -9 43 -12 60
l-6 30 -244 0 c-210 0 -244 -2 -244 -15 0 -13 -35 -15 -258 -15 l-258 0 -22
-45 -22 -45 -450 0 -450 0 0 140 0 140 67 0 c59 0 74 4 123 34 l55 34 610 7
610 8 112 88 112 89 3 128 3 127 640 513 640 512 113 0 c107 0 116 2 144 25
28 24 36 25 154 25 l125 0 217 175 216 175 144 0 144 0 400 320 401 320 148 0
149 0 0 -40 c0 -25 5 -40 13 -40 9 0 11 -47 9 -209 l-3 -209 91 -89 c50 -48
106 -97 124 -107 l32 -19 31 -216 c20 -138 46 -265 70 -351 l38 -135 55 -32
54 -33 800 0 799 0 41 24 c28 16 64 25 115 29 43 4 78 11 82 19 6 9 61 14 213
16 l206 4 0 29 c0 29 -1 29 -59 29 -84 0 -121 9 -121 30 0 29 -74 50 -180 50
-52 0 -105 3 -116 6 -21 6 -21 7 -8 57 8 29 28 147 45 262 17 116 36 212 42
214 12 4 170 146 210 188 l28 30 -3 207 c-2 113 0 206 5 206 4 0 7 18 7 40 l0
40 43 0 c26 0 51 8 67 20 24 19 44 20 560 20 516 0 536 -1 560 -20 14 -11 41
-20 63 -20 36 0 37 -1 37 -35 0 -20 6 -38 13 -40 9 -4 11 -54 9 -215 l-3 -210
96 -92 c53 -51 109 -100 125 -108 27 -15 28 -18 55 -215 18 -127 43 -254 69
-350 l41 -150 55 -32 54 -33 800 0 799 0 41 24 c29 17 62 25 115 28 46 4 76
10 82 19 6 11 55 15 219 17 l210 4 0 29 c0 29 0 29 -64 29 -89 0 -126 9 -126
30 0 29 -74 50 -180 50 -52 0 -105 3 -116 6 -21 6 -21 6 -4 72 10 37 30 156
45 264 25 173 31 198 47 204 11 3 67 51 124 107 l105 101 -3 208 c-2 114 0
208 5 208 4 0 7 18 7 40 l0 40 83 0 c45 0 109 -7 142 -15 48 -11 155 -14 528
-15 409 0 467 2 467 15 0 13 112 15 950 15 838 0 950 2 950 15 0 13 43 15 330
15 l330 0 0 25 c0 24 3 25 58 26 31 1 109 4 172 8 l115 6 3 33 c2 21 -1 32
-10 32 -7 1 -85 5 -173 10 -120 6 -162 6 -168 -3 -5 -7 -6 5 -3 28 3 22 6 48
6 58 0 15 10 17 78 17 42 0 121 3 175 7 l97 6 0 32 0 32 -107 6 c-58 4 -137 7
-175 7 l-68 0 0 30 c0 28 -3 30 -35 30 l-36 0 16 30 c8 16 24 34 35 40 20 11
20 19 18 515 -2 278 0 505 4 505 5 0 117 101 250 225 l243 225 242 0 243 0 0
105 0 105 50 0 c47 0 50 -2 50 -25 0 -32 -19 -32 389 10 209 21 337 39 342 46
6 10 157 26 272 28 24 1 27 5 27 35 l0 33 -92 7 c-50 3 -117 6 -149 6 -33 0
-59 5 -61 11 -2 7 -137 25 -366 48 l-362 37 0 -23 c0 -21 -4 -23 -50 -23 l-50
0 0 100 0 100 -709 0 -710 0 -193 66 c-106 37 -195 70 -198 75 -3 4 -25 73
-49 153 l-44 146 -329 0 -328 0 -200 -100 -200 -100 -970 0 -970 0 0 427 0
426 -42 73 -43 74 -171 0 -172 0 -6 -45 -7 -45 -719 0 -719 0 -7 45 -6 45
-177 0 -176 0 -37 -66 c-35 -61 -38 -72 -38 -145 l0 -79 -795 0 -795 0 0 149
0 149 135 117 135 117 2 326 3 327 160 20 160 20 3 223 2 222 -37 1 c-76 1
-12 9 261 29 164 13 305 18 342 15 54 -6 522 26 592 41 19 4 22 11 22 49 0 29
4 45 13 45 44 0 641 42 727 50 81 9 120 18 173 43 l67 31 0 51 0 51 -67 32
c-52 24 -92 34 -168 42 -81 8 -685 50 -732 50 -9 0 -13 16 -13 45 0 38 -3 45
-22 49 -72 15 -532 47 -593 41 -42 -4 -182 2 -345 15 -269 20 -333 28 -257 29
l37 1 -2 222 -3 223 -160 20 -160 20 -3 327 -2 327 -135 117 -135 116 0 149 0
149 795 0 795 0 0 -79 c0 -73 3 -84 38 -145 l37 -66 176 0 177 0 6 45 7 45
719 0 719 0 7 -45 6 -45 172 0 171 0 43 74 42 73 0 426 0 427 970 0 970 0 200
-100 200 -100 328 0 328 0 45 146 c24 80 46 149 49 153 3 4 92 37 198 74 l194
67 709 0 709 0 0 100 0 100 50 0 c46 0 50 -2 50 -24 0 -22 3 -24 38 -19 20 2
183 19 362 37 205 21 326 38 328 45 2 6 27 11 61 11 32 0 99 3 149 6 l92 7 0
33 c0 30 -3 34 -27 35 -134 3 -265 17 -272 27 -5 8 -123 24 -346 47 -186 19
-349 35 -362 35 -18 0 -23 -5 -23 -25 0 -23 -3 -25 -50 -25 l-50 0 0 105 0
105 -243 0 -242 0 -242 225 c-133 124 -245 225 -250 225 -4 0 -7 227 -5 505 2
496 2 504 -18 515 -11 6 -27 24 -35 40 l-16 30 36 0 c32 0 35 2 35 30 l0 30
63 0 c34 0 113 3 175 7 l112 6 0 34 c0 32 -1 33 -42 34 -95 2 -297 15 -301 19
-3 3 -8 28 -12 55 -4 29 -3 45 2 38 7 -10 46 -10 168 -3 88 5 166 10 173 10 9
0 12 11 10 33 l-3 32 -115 6 c-63 4 -141 7 -172 8 -55 1 -58 2 -58 26 l0 25
-330 0 c-287 0 -330 2 -330 15 0 13 -112 15 -950 15 -838 0 -950 2 -950 15 0
13 -58 15 -467 15 -373 -1 -480 -4 -528 -15 -33 -8 -97 -15 -142 -15 l-83 0 0
40 c0 22 -3 40 -7 40 -5 0 -7 94 -5 208 l3 208 -101 98 c-56 53 -112 102 -124
108 -21 9 -25 25 -51 206 -15 109 -35 227 -45 264 -21 81 -24 78 104 78 111 0
196 21 196 49 0 26 19 31 111 31 l79 0 0 29 0 29 -210 4 c-164 2 -213 6 -219
17 -6 9 -36 15 -82 19 -53 3 -86 11 -115 28 l-41 24 -802 0 -802 0 -53 -34
-52 -33 -41 -154 c-26 -95 -52 -230 -69 -351 -18 -135 -31 -198 -40 -198 -6 0
-62 -46 -123 -102 l-111 -103 3 -212 c1 -163 -1 -214 -10 -218 -7 -2 -13 -20
-13 -40 0 -33 -2 -35 -36 -35 -21 0 -50 -10 -72 -25 l-37 -25 -518 0 -518 0
-33 25 c-23 17 -46 25 -74 25 l-42 0 0 40 c0 22 -3 40 -7 40 -5 0 -7 93 -5
206 3 187 2 208 -15 226 -29 33 -208 195 -220 199 -6 2 -25 99 -42 215 -17
116 -38 232 -46 259 -11 38 -12 51 -2 57 7 4 55 8 108 8 112 0 199 22 199 50
0 24 20 30 106 30 l74 0 0 29 0 29 -205 3 c-161 3 -208 7 -214 18 -6 9 -35 15
-82 19 -53 3 -86 11 -115 28 l-41 24 -799 0 -800 0 -54 -33 -55 -32 -38 -135
c-24 -86 -50 -213 -70 -351 l-31 -216 -32 -19 c-18 -10 -74 -59 -124 -107
l-91 -89 3 -209 c2 -162 0 -209 -9 -209 -8 0 -13 -15 -13 -40 l0 -40 -149 0
-149 0 -406 325 -406 325 -144 0 -144 0 -211 170 -210 170 -125 0 c-118 0
-126 1 -154 25 -27 22 -38 25 -146 27 l-118 3 -638 510 -639 510 -3 129 -3
129 -111 88 -111 88 -609 7 -609 7 -55 33 c-48 30 -64 34 -123 34 l-67 0 0
140 0 140 450 0 450 0 22 -45 22 -45 258 0 c223 0 258 -2 258 -15 0 -13 34
-15 244 -15 l243 0 12 60 12 60 352 3 c233 2 416 8 542 20 158 15 348 19 1128
23 l937 6 0 39 0 39 -467 2 c-258 1 -413 4 -345 5 l122 4 0 30 0 31 -1135 -4
c-1002 -3 -1136 -1 -1139 12 -3 8 -8 34 -11 58 l-7 42 -244 0 c-237 0 -244 -1
-244 -20 0 -19 -7 -20 -260 -20 l-260 0 -16 -40 -16 -40 -309 0 -309 0 0 75
c0 75 0 75 -27 76 l-28 1 30 8 c17 4 49 8 73 9 l42 1 0 58 c0 54 -116 1212
-122 1217 -2 2 -38 12 -81 24 -103 28 -225 28 -326 0 -42 -12 -77 -22 -79 -23
-5 -6 -122 -1166 -122 -1218 l0 -58 44 0 c25 0 48 -4 51 -10 3 -5 1 -10 -4
-10 -7 0 -11 -29 -11 -75 l0 -75 -290 0 -290 0 0 75 c0 75 0 75 -27 76 l-28 1
30 8 c17 4 49 8 73 9 l42 1 0 56 c0 50 -117 1215 -123 1220 -1 1 -37 11 -80
23 -103 28 -224 28 -328 0 l-77 -22 -6 -46 c-21 -156 -116 -1122 -116 -1171
l0 -60 44 0 c25 0 48 -4 51 -10 3 -5 1 -10 -4 -10 -7 0 -11 -29 -11 -75 l0
-75 -300 0 -300 0 0 75 c0 71 -1 75 -22 76 -36 2 29 16 80 18 l42 1 0 48 c0
26 -27 308 -60 627 -33 319 -60 585 -60 591 0 6 -37 21 -82 33 -107 28 -235
27 -335 -1z"/>
</g>
</svg>
