<?xml version="1.0" standalone="no"?>
<!DOCTYPE svg PUBLIC "-//W3C//DTD SVG 20010904//EN"
 "http://www.w3.org/TR/2001/REC-SVG-20010904/DTD/svg10.dtd">
<svg version="1.0" xmlns="http://www.w3.org/2000/svg"
   viewBox="0 0 3304.000000 2513.000000"
 preserveAspectRatio="xMidYMid meet">
<metadata>
Created by potrace 1.16, written by Peter Selinger 2001-2019
</metadata>
<g transform="translate(0.000000,2513.000000) scale(0.100000,-0.100000)"
fill="#000000" stroke="none">
<path d="M10000 24961 l-825 -167 -960 -481 c-539 -270 -1054 -535 -1175 -605
-181 -104 -325 -202 -916 -624 l-700 -501 -570 -502 -569 -502 -59 -117 c-32
-64 -63 -120 -69 -124 -5 -3 -34 -9 -62 -13 -29 -3 -59 -12 -68 -18 -8 -7 -28
-54 -45 -105 l-31 -92 31 -91 31 -92 -31 -109 -31 -110 135 -168 134 -167 432
-167 c283 -108 446 -166 471 -166 l37 0 0 -269 c0 -197 3 -270 12 -273 9 -3 8
-52 -2 -202 l-14 -198 -98 -130 -98 -131 0 -107 c0 -155 -15 -145 363 -245
l302 -80 3 -183 c2 -154 0 -182 -12 -182 -8 0 -247 -18 -531 -40 -463 -36
-552 -40 -859 -40 l-343 0 -32 -192 -31 -193 0 -687 c0 -430 -4 -688 -10 -688
-28 0 -454 -51 -458 -55 -3 -3 -16 -123 -29 -267 -13 -145 -28 -264 -34 -266
-5 -2 -9 -17 -9 -33 l0 -29 -165 0 -165 0 0 -739 0 -740 -52 -15 c-29 -9 -678
-220 -1443 -469 l-1390 -453 -32 -59 c-32 -60 -32 -60 -33 -210 0 -135 3 -158
26 -227 l26 -78 -26 -78 c-23 -68 -26 -93 -26 -219 0 -139 1 -144 31 -206 l31
-63 1444 -470 1444 -469 0 -737 0 -738 165 0 165 0 0 -34 c0 -19 4 -36 10 -38
5 -1 20 -119 33 -262 15 -158 29 -261 36 -265 6 -4 112 -18 236 -31 l225 -24
0 -685 0 -686 31 -192 32 -193 311 0 c274 1 379 -4 873 -42 l563 -43 0 -181 0
-181 -302 -79 c-257 -67 -307 -83 -335 -107 l-33 -29 0 -109 0 -109 99 -133
98 -132 13 -194 c10 -149 11 -196 2 -199 -9 -3 -12 -75 -12 -273 l0 -269 -37
-1 c-24 0 -199 -62 -471 -167 l-432 -167 -134 -168 -134 -168 19 -67 c44 -153
44 -143 11 -241 l-31 -91 35 -103 34 -103 73 -12 73 -13 59 -120 60 -120 569
-502 568 -502 708 -505 c876 -626 843 -607 2116 -1243 l930 -465 830 -166 829
-166 793 0 793 0 120 30 120 31 204 136 204 136 27 81 c15 44 29 84 33 88 3 4
247 -33 541 -82 490 -82 555 -95 771 -156 l237 -67 683 191 c790 221 698 199
2109 507 l1085 237 3050 1005 3050 1005 3480 1305 3480 1305 710 308 710 309
3 166 c2 156 1 166 -15 161 -10 -3 -328 -80 -708 -170 -379 -91 -2256 -511
-4170 -935 l-3480 -769 -3040 -502 -3040 -501 -1105 -135 -1105 -134 -850 -35
c-776 -32 -852 -36 -875 -53 -14 -10 -119 -85 -234 -167 l-209 -149 -536 134
-536 134 -635 233 c-546 202 -686 257 -1000 400 -201 91 -386 177 -412 192
l-48 26 142 142 141 141 34 203 34 204 -67 300 -66 300 -172 339 -171 340
-330 156 -330 156 -3 256 -2 257 57 11 c32 6 195 44 363 85 245 60 339 88 477
142 l173 68 0 834 0 833 98 -6 c168 -12 260 -34 321 -77 l54 -38 136 -373 136
-373 132 -230 132 -230 138 -69 c199 -99 314 -136 424 -136 l87 0 11 -30 10
-30 740 0 739 0 7 30 7 30 87 0 c75 0 103 6 201 39 63 21 171 66 240 101 l125
62 134 236 134 235 97 356 97 356 204 46 204 45 99 492 99 491 36 12 c20 7 97
42 171 79 130 65 174 79 1155 373 561 169 1286 379 1610 467 634 173 692 186
1710 370 294 53 365 69 525 121 102 34 223 78 270 99 85 39 86 39 425 75 l339
37 531 266 c476 239 557 276 800 367 l270 101 70 103 69 102 -64 130 c-36 72
-72 135 -80 139 -9 5 -135 53 -280 108 -236 88 -323 128 -795 364 l-530 265
-340 38 c-301 33 -346 40 -390 63 -27 14 -142 56 -255 94 -194 65 -228 73
-635 148 -1030 189 -985 179 -1635 356 -333 91 -1063 302 -1624 470 -997 299
-1022 307 -1165 378 -80 40 -155 75 -167 78 -19 5 -29 50 -118 494 -54 269
-99 490 -100 492 -2 1 -92 22 -201 46 -108 25 -201 48 -205 53 -4 4 -49 163
-100 353 l-93 345 -135 238 -135 239 -131 65 c-196 98 -279 125 -411 132
l-109 6 -10 33 -9 32 -741 -2 -740 -3 -10 -32 -9 -33 -96 0 c-84 0 -111 -5
-197 -34 -54 -18 -156 -62 -225 -96 l-127 -64 -139 -245 -140 -246 -129 -358
-129 -359 -49 -36 c-57 -42 -155 -67 -301 -77 -49 -4 -98 -9 -107 -11 -17 -5
-18 41 -20 831 l-3 837 -160 64 c-162 65 -468 150 -770 213 l-130 27 0 258 0
258 335 158 334 159 167 333 166 333 67 303 67 303 -32 197 -32 197 -144 146
c-112 113 -141 148 -131 156 22 18 112 61 463 220 289 132 437 191 985 392
l645 238 531 132 531 133 234 -168 234 -167 835 -34 835 -33 1110 -135 1111
-134 3039 -501 3040 -501 3485 -770 c1957 -433 3795 -845 4193 -940 389 -93
710 -169 712 -169 3 0 5 73 5 163 l0 163 -697 303 -698 304 -3490 1309 -3490
1309 -3050 1005 -3050 1006 -1095 239 c-1395 306 -1345 294 -2129 513 l-664
187 -231 -67 c-211 -60 -276 -74 -761 -155 -291 -49 -537 -89 -546 -89 -11 0
-24 27 -43 88 l-28 87 -207 136 -206 137 -127 31 -127 31 -788 -1 -788 -1
-825 -167z"/>
</g>
</svg>
