<?xml version="1.0" standalone="no"?>
<!DOCTYPE svg PUBLIC "-//W3C//DTD SVG 20010904//EN"
 "http://www.w3.org/TR/2001/REC-SVG-20010904/DTD/svg10.dtd">
<svg version="1.0" xmlns="http://www.w3.org/2000/svg"
   viewBox="0 0 4379.000000 4036.000000"
 preserveAspectRatio="xMidYMid meet">
<metadata>
Created by potrace 1.16, written by Peter Selinger 2001-2019
</metadata>
<g transform="translate(0.000000,4036.000000) scale(0.100000,-0.100000)"
fill="#000000" stroke="none">
<path d="M21800 40334 c-84 -17 -254 -34 -635 -63 l-520 -40 -480 -151 -480
-151 -1300 -185 -1300 -184 -255 -69 c-173 -46 -328 -96 -480 -154 l-225 -85
-760 -96 c-418 -53 -774 -98 -791 -101 -30 -5 -36 -14 -97 -148 -62 -136 -65
-146 -72 -244 l-7 -103 -172 -1 c-94 0 -437 -6 -763 -13 l-592 -13 -43 -28
c-24 -16 -109 -96 -190 -178 l-146 -150 -152 -8 c-83 -4 -154 -10 -158 -14 -4
-4 -5 -127 -2 -273 7 -363 5 -970 -4 -1119 l-7 -123 218 -108 c120 -60 262
-124 315 -141 l98 -33 73 16 73 15 940 -287 939 -287 3 -343 c1 -188 4 -342 6
-342 2 0 636 -63 1410 -140 773 -77 1413 -140 1420 -140 9 0 -24 -57 -79 -137
l-95 -138 0 -1176 0 -1177 -147 -41 c-82 -22 -290 -80 -465 -129 l-316 -89
-81 49 c-80 49 -83 52 -293 327 l-213 278 -44 -28 -44 -28 -19 24 c-11 14 -27
25 -36 25 -15 1 -170 197 -161 204 99 76 98 76 141 60 22 -7 46 -11 53 -6 6 4
69 52 138 107 l126 100 0 95 1 95 -138 87 c-82 53 -147 88 -163 88 -17 0 -54
-22 -104 -60 -43 -33 -81 -60 -85 -60 -7 0 -291 364 -298 382 -2 4 -15 21 -30
37 l-25 30 -36 -28 -36 -28 -255 -12 c-338 -16 -325 -13 -363 -68 -18 -25 -39
-54 -47 -63 -13 -16 -107 -27 -662 -81 -564 -55 -650 -61 -672 -49 -23 12
-247 -10 -1848 -176 l-1822 -189 -936 -571 -936 -570 -3814 -663 c-2098 -365
-3826 -665 -3839 -668 -22 -5 -23 -8 -17 -65 5 -38 14 -66 27 -79 25 -25 26
-87 2 -104 -17 -12 -15 -34 22 -377 l40 -363 30 -3 c17 -2 1898 191 4180 428
l4149 431 1081 14 1080 14 1205 125 c663 69 1208 126 1211 126 3 0 39 43 80
95 48 63 80 95 94 96 11 0 74 6 141 13 l120 12 155 119 c85 66 372 293 639
504 267 212 487 386 489 388 2 1 -9 21 -24 44 l-29 41 40 33 c21 19 42 34 45
35 14 0 149 -191 149 -210 0 -11 7 -32 16 -46 16 -24 16 -26 -13 -57 -48 -52
-154 -206 -200 -293 l-43 -81 -62 -17 c-35 -9 -154 -49 -265 -88 l-203 -72 0
-187 0 -187 -382 -129 c-211 -72 -608 -206 -884 -299 l-501 -169 -47 -142 -47
-141 -82 -30 c-45 -16 -158 -54 -252 -85 l-170 -55 -430 -42 c-236 -22 -442
-43 -456 -46 l-27 -5 -6 -172 c-3 -95 -7 -349 -9 -564 l-4 -393 99 0 98 0 0
-185 0 -185 270 0 270 0 0 -130 0 -130 1280 0 1280 0 0 -150 0 -150 955 0 955
0 0 -95 0 -95 175 0 175 0 0 -35 0 -35 -487 0 -488 0 -235 -63 -235 -62 -640
-5 -640 -5 -17 -164 c-10 -90 -19 -165 -20 -167 -2 -1 -44 -5 -93 -9 -223 -15
-214 -13 -221 -50 -7 -37 -1 -35 -165 -50 l-66 -6 -22 -107 c-21 -105 -21
-124 -21 -1292 l0 -1185 32 -187 c26 -148 36 -188 48 -188 61 0 705 -61 710
-67 4 -4 22 -97 41 -205 l34 -198 516 0 c489 0 636 -7 627 -30 -2 -4 -43 -57
-93 -118 -84 -102 -98 -114 -201 -176 l-111 -67 -7 -78 c-4 -47 -2 -105 5
-145 8 -50 8 -70 -1 -80 -7 -10 -9 -34 -4 -75 l6 -60 57 -6 c111 -12 121 -15
121 -35 0 -20 -12 -20 -753 -20 l-752 0 -83 165 -82 165 -100 0 c-55 0 -100
-2 -100 -3 0 -2 31 -75 69 -163 l69 -159 -66 -5 -67 -5 -16 -175 c-10 -105
-23 -191 -33 -215 l-16 -40 -3040 -515 -3040 -514 0 -886 0 -886 3040 -514
3040 -515 16 -40 c10 -24 23 -110 33 -215 l16 -175 67 -5 66 -5 -69 -159 c-38
-88 -69 -161 -69 -163 0 -1 45 -3 100 -3 l100 0 82 165 83 165 752 0 c741 0
753 0 753 -20 0 -20 -10 -23 -121 -35 l-57 -6 -6 -60 c-5 -41 -3 -65 4 -75 9
-10 9 -30 1 -80 -7 -40 -9 -98 -5 -145 l7 -78 111 -67 c103 -62 117 -74 201
-176 50 -61 91 -114 93 -118 9 -23 -138 -30 -627 -30 l-516 0 -34 -197 c-19
-109 -37 -202 -41 -206 -6 -6 -636 -66 -705 -67 -18 0 -23 -18 -53 -188 l-33
-187 1 -1185 c0 -1168 0 -1187 21 -1292 l22 -107 66 -6 c164 -15 158 -13 165
-50 7 -37 -2 -35 221 -50 49 -4 91 -8 93 -9 1 -2 10 -77 20 -167 l17 -164 640
-5 640 -5 234 -62 234 -63 489 0 488 0 0 -35 0 -35 -175 0 -175 0 0 -95 0 -95
-955 0 -955 0 0 -150 0 -150 -1280 0 -1280 0 0 -130 0 -130 -270 0 -270 0 0
-185 0 -185 -98 0 -99 0 4 -392 c2 -216 6 -470 9 -565 l6 -172 27 -5 c14 -3
220 -24 456 -46 l430 -42 170 -55 c94 -31 207 -69 252 -85 l82 -30 47 -141 47
-142 471 -159 c259 -87 657 -222 884 -299 l412 -139 0 -187 0 -187 203 -72
c111 -39 230 -79 265 -88 l62 -17 43 -81 c46 -87 152 -241 200 -293 29 -31 29
-33 13 -57 -9 -14 -16 -35 -16 -46 0 -19 -135 -210 -149 -210 -3 1 -24 16 -45
35 l-40 33 29 41 c15 23 26 43 24 44 -2 2 -222 176 -489 388 -267 211 -554
438 -638 503 l-154 119 -126 13 c-70 8 -134 14 -142 14 -9 0 -49 43 -89 95
-41 52 -77 95 -80 95 -4 0 -549 57 -1211 126 l-1205 125 -1081 14 -1081 14
-4149 431 c-2281 237 -4162 430 -4179 428 l-30 -3 -40 -363 c-37 -343 -39
-365 -22 -377 24 -17 23 -79 -2 -104 -13 -13 -22 -41 -27 -79 -6 -57 -5 -60
17 -65 13 -3 1741 -303 3839 -668 l3814 -663 936 -570 936 -571 1822 -189
c1600 -166 1825 -188 1848 -176 22 12 108 6 672 -49 555 -54 649 -65 662 -81
8 -9 29 -38 47 -63 38 -55 25 -52 363 -68 l255 -12 36 -28 36 -28 25 30 c15
16 28 33 30 37 7 18 291 382 298 382 4 0 42 -27 85 -60 50 -38 87 -60 104 -60
16 0 81 35 163 88 l138 87 -1 95 0 95 -126 100 c-69 55 -132 103 -138 107 -7
5 -31 1 -53 -6 -43 -16 -42 -16 -141 60 -9 7 146 203 161 204 9 0 25 11 36 25
l19 24 44 -28 44 -28 213 278 c210 275 213 278 293 327 l81 49 291 -82 c161
-45 370 -103 465 -129 l172 -48 0 -1177 0 -1176 95 -138 c53 -78 88 -137 80
-137 -8 0 -647 -63 -1421 -140 -773 -77 -1408 -140 -1410 -140 -2 0 -5 -154
-6 -342 l-3 -343 -939 -287 -940 -287 -73 15 -73 16 -98 -33 c-53 -17 -195
-81 -315 -141 l-218 -108 7 -123 c9 -149 11 -756 4 -1119 -3 -146 -2 -269 2
-273 4 -4 75 -10 158 -14 l152 -8 146 -150 c81 -82 166 -162 190 -178 l43 -28
592 -13 c326 -7 669 -13 763 -13 l172 -1 7 -102 c7 -99 10 -109 72 -245 61
-134 67 -143 97 -148 17 -3 373 -48 791 -101 l760 -96 230 -87 c170 -65 301
-106 505 -159 l275 -72 1255 -175 1255 -175 520 -160 520 -159 505 -36 c380
-28 534 -43 624 -61 112 -23 139 -24 460 -24 l341 0 330 70 c182 38 1345 265
2585 505 2133 411 2338 448 3785 695 1476 251 1640 277 4665 731 1724 258
4190 634 5480 835 l2345 364 193 87 192 87 2 141 c2 77 1 250 -1 385 l-4 245
-28 36 c-23 29 -46 42 -121 69 -51 18 -130 46 -175 62 l-83 30 0 60 c0 59 -2
63 -53 122 -29 34 -79 92 -112 130 l-60 69 309 -7 310 -7 52 -44 c29 -25 56
-45 61 -45 4 0 18 26 31 58 19 49 22 77 22 184 l0 127 -58 45 c-58 44 -65 46
-628 205 l-569 161 -168 -43 -167 -44 0 72 0 72 -185 72 c-118 47 -186 79
-190 89 -3 9 -36 36 -74 59 l-68 43 -1814 13 -1814 14 -31 -35 -32 -35 -267 5
-267 6 -171 -49 -172 -50 -2630 -105 c-1446 -57 -2645 -103 -2664 -102 l-33 3
81 90 81 90 0 68 0 67 168 0 169 0 160 88 161 87 35 116 36 115 1331 385 1331
384 24 36 25 35 0 472 0 472 1110 0 1110 0 0 30 0 30 -1110 0 -1110 0 0 148
c-1 143 -1 148 -26 176 l-25 28 -1397 89 c-768 49 -1398 89 -1400 89 -4 0 5
49 14 81 3 11 -109 104 -386 320 l-390 304 0 200 -1 200 -361 385 c-199 211
-782 828 -1297 1370 -514 542 -956 1007 -981 1033 -41 43 -72 60 -324 172
l-280 125 -607 0 -608 0 -489 382 -488 382 18 94 17 95 -177 190 c-97 104
-215 231 -262 282 l-85 92 -98 -76 c-54 -42 -108 -83 -120 -92 -21 -16 -45 2
-1025 767 -551 431 -1009 784 -1017 784 -25 0 -83 -59 -108 -110 l-24 -48 -89
89 c-49 49 -86 89 -84 89 3 0 187 9 409 19 l404 19 51 57 51 57 1530 69 c842
37 1543 70 1558 73 88 17 135 37 141 60 6 23 11 24 108 30 79 4 5268 137 5326
136 17 0 3 26 -141 266 l-120 201 -315 6 c-174 4 -546 7 -827 7 -281 0 -957 3
-1501 7 l-989 6 -167 197 -166 197 -214 6 c-117 4 -315 10 -440 13 -159 5
-225 10 -223 18 2 6 6 175 10 376 l6 365 -493 -22 c-271 -12 -533 -23 -582
-25 -200 -9 -12 24 659 117 534 74 799 116 1169 185 l479 90 596 0 596 0 1240
70 c682 39 1256 69 1275 68 34 -3 38 -9 133 -164 l97 -162 248 -8 c235 -7
4398 28 4935 42 l238 7 262 188 c256 183 263 189 308 261 58 92 67 116 75 184
6 45 11 55 28 59 12 2 226 22 476 45 l455 41 362 81 362 81 153 132 c84 72
211 187 283 254 132 124 445 448 445 460 0 4 -16 22 -35 41 l-35 34 7 103 6
103 -261 0 -262 0 0 140 0 140 262 0 261 0 -6 103 -7 103 35 34 c19 19 35 37
35 41 0 5 -59 69 -131 144 -72 75 -129 139 -126 142 3 3 884 -3 1956 -13 1073
-10 1954 -15 1957 -11 4 4 5 9 3 11 -2 2 -816 16 -1809 30 -993 14 -1887 29
-1987 32 l-181 6 -129 121 c-70 66 -197 179 -281 252 l-153 132 -362 81 -362
81 -455 41 c-250 23 -464 43 -476 45 -17 4 -22 14 -28 59 -8 68 -17 92 -75
184 -45 72 -52 78 -308 262 l-263 188 -252 6 c-139 3 -1191 16 -2338 27 -1864
19 -2778 21 -2821 4 -8 -3 -56 -75 -108 -161 -51 -85 -100 -158 -108 -161 -8
-3 -587 26 -1287 66 l-1271 71 -586 0 -586 0 -479 90 c-369 69 -637 111 -1169
185 -670 93 -860 126 -659 117 49 -2 311 -14 582 -25 l493 -22 -6 365 c-4 201
-8 370 -10 376 -2 8 64 13 223 18 125 3 323 9 440 13 l214 6 166 197 167 197
995 6 c547 4 1227 7 1510 7 283 0 653 3 821 7 l306 6 120 201 c67 111 128 216
137 234 16 30 15 32 -1 32 -71 -1 -5240 131 -5321 136 -97 6 -102 7 -108 30
-5 18 -18 27 -62 40 -32 9 -70 18 -87 21 -16 2 -716 35 -1555 73 l-1525 68
-51 57 -51 57 -404 18 c-222 11 -406 20 -409 20 -2 0 35 40 84 89 l89 89 24
-48 c25 -51 83 -110 108 -110 8 0 466 353 1017 784 980 765 1004 783 1025 767
12 -9 66 -50 120 -92 l98 -76 85 92 c47 51 165 178 262 282 l177 190 -17 95
-18 94 488 382 489 382 608 0 607 0 280 125 c252 112 283 129 324 172 25 26
467 491 981 1033 515 542 1098 1159 1297 1370 l361 385 1 200 0 200 390 304
c277 216 389 309 386 320 -9 32 -18 81 -14 81 2 0 632 40 1400 89 l1397 89 25
28 c25 28 25 33 26 177 l0 147 1110 0 1110 0 0 30 0 30 -1110 0 -1110 0 0 472
0 472 -25 35 -24 36 -1331 384 -1331 385 -36 115 -35 116 -161 88 -160 87
-169 0 -168 0 0 68 0 67 -81 90 -81 90 33 3 c19 1 1218 -45 2664 -103 l2630
-104 172 -50 171 -49 267 6 267 5 32 -35 31 -35 1814 14 1814 13 68 43 c38 23
71 49 74 58 4 11 75 44 190 89 l185 73 0 72 0 72 167 -44 167 -43 570 160
c564 160 569 161 627 206 l59 45 0 127 c0 107 -3 135 -22 184 -13 32 -27 58
-31 58 -5 0 -32 -20 -61 -45 l-52 -44 -310 -7 -309 -7 58 66 c31 37 82 96 112
131 54 62 55 65 55 124 l0 60 83 30 c45 16 124 44 175 62 75 27 98 40 121 69
l28 36 4 245 c2 135 3 308 1 385 l-2 140 -192 88 -193 87 -2285 355 c-1257
196 -3723 571 -5480 835 -3085 463 -3247 489 -4725 740 -1448 247 -1651 284
-3785 695 -1240 240 -2403 467 -2585 505 l-330 70 -350 -1 c-326 -1 -358 -3
-465 -25z m-6646 -3164 c60 -11 114 -20 120 -20 6 0 3 -5 -7 -11 -26 -15 -179
7 -220 31 -40 25 -29 25 107 0z m294 -3752 l121 -157 -29 -24 -29 -24 44 -65
44 -66 -44 -31 -44 -32 -63 85 c-60 79 -66 84 -113 94 -40 8 -53 7 -66 -4 -8
-8 -28 -14 -43 -14 -52 0 -457 -299 -680 -501 -44 -40 -49 -50 -54 -97 -5 -52
-4 -52 67 -147 l71 -94 -46 -36 -47 -35 -35 46 c-32 41 -39 45 -66 40 -31 -7
-41 -13 -118 -71 l-46 -36 -124 156 c-67 86 -123 160 -123 165 0 4 288 238
640 518 475 378 643 507 651 498 7 -6 66 -82 132 -168z m-1488 -1145 c62 -78
82 -112 89 -147 l8 -45 -258 -202 -259 -202 0 -133 c0 -122 2 -134 20 -147 20
-14 13 -21 -137 -140 -127 -100 -159 -122 -165 -108 -3 9 -14 133 -23 276 -9
143 -22 312 -28 376 l-13 116 129 139 129 139 -7 87 c-8 103 -32 90 205 113
91 9 169 20 175 26 11 11 9 13 135 -148z m16680 -426 c-19 -18 -281 -221 -297
-231 -10 -5 -13 11 -13 72 0 75 1 80 36 120 l35 41 117 4 c64 1 121 4 127 5 5
1 3 -4 -5 -11z m-5336 -4167 c-11 -11 -289 -229 -289 -227 0 1 1 55 3 120 l4
117 146 0 c93 0 143 -3 136 -10z m-3725 -492 l75 -308 724 -2 724 -3 -837
-882 -836 -883 -144 0 -144 0 -12 -34 c-7 -19 -16 -33 -19 -31 -4 3 -13 47
-20 99 l-12 94 -752 449 c-413 246 -760 457 -771 468 -11 11 -188 302 -394
648 l-375 627 -408 0 -408 0 0 35 0 35 1767 -2 1768 -3 74 -307z m2271 -642
c0 -4 -859 -677 -1000 -784 -25 -19 113 123 307 314 l352 349 168 62 c193 71
173 64 173 59z m-2564 -11296 l143 0 836 -882 836 -883 -724 -3 -723 -2 -75
-308 -74 -307 -1768 -3 -1767 -2 0 35 0 35 408 0 408 0 375 627 c206 345 381
635 389 644 8 10 355 221 770 469 l755 450 16 98 c9 53 17 99 18 102 1 3 9
-12 18 -32 l15 -38 144 0z m2069 -1045 c253 -197 469 -367 480 -377 16 -15 4
-13 -65 12 -47 18 -125 46 -173 63 l-88 32 -352 349 c-194 191 -332 333 -307
314 25 -19 252 -195 505 -393z m1874 -1464 l83 -66 -142 -3 c-79 -1 -144 -1
-145 0 -2 2 -5 55 -6 119 l-4 117 65 -51 c36 -28 103 -80 149 -116z m-11766
-3671 c112 -88 117 -93 97 -107 -18 -13 -20 -24 -20 -147 l0 -133 259 -202
258 -202 -8 -46 c-9 -44 -25 -68 -182 -265 -20 -25 -34 -35 -41 -29 -6 5 -85
17 -176 26 -237 23 -213 10 -205 113 l7 87 -129 139 -129 139 13 116 c6 64 19
231 28 371 9 140 18 266 21 278 5 24 5 24 47 -10 23 -19 95 -76 160 -128z
m17032 -443 c77 -60 143 -112 147 -116 4 -3 -48 -5 -115 -3 l-122 3 -37 41
c-37 40 -38 42 -38 120 0 61 3 77 13 72 6 -5 75 -57 152 -117z m-16109 -602
c11 -8 34 -17 51 -21 27 -5 34 -1 66 40 l35 46 46 -36 46 -35 -71 -94 c-71
-95 -72 -95 -67 -147 5 -47 10 -57 54 -97 223 -202 628 -501 680 -501 15 0 35
-6 43 -14 13 -11 26 -12 66 -4 47 10 53 15 113 94 l63 85 44 -32 44 -31 -44
-66 -44 -65 29 -24 29 -24 -130 -169 -131 -169 -141 113 c-78 62 -367 292
-642 510 -275 219 -500 402 -500 406 0 5 56 79 123 165 l124 156 46 -36 c26
-20 56 -42 68 -50z m884 -4805 c8 -5 10 -10 4 -10 -6 0 -60 -9 -120 -20 -136
-25 -147 -25 -107 0 48 29 194 48 223 30z"/>
</g>
</svg>
