<?xml version="1.0" standalone="no"?>
<!DOCTYPE svg PUBLIC "-//W3C//DTD SVG 20010904//EN"
 "http://www.w3.org/TR/2001/REC-SVG-20010904/DTD/svg10.dtd">
<svg version="1.0" xmlns="http://www.w3.org/2000/svg"
   viewBox="0 0 4433.000000 2898.000000"
 preserveAspectRatio="xMidYMid meet">
<metadata>
Created by potrace 1.16, written by Peter Selinger 2001-2019
</metadata>
<g transform="translate(0.000000,2898.000000) scale(0.100000,-0.100000)"
fill="#000000" stroke="none">
<path d="M12260 28930 c-305 -26 -563 -49 -573 -51 -16 -3 -14 -10 19 -52 20
-26 35 -49 33 -51 -2 -2 -64 -25 -137 -51 -114 -42 -137 -54 -161 -84 -29 -38
-261 -374 -326 -474 l-38 -58 29 -32 c16 -18 48 -53 72 -78 l43 -46 -133 -103
c-73 -57 -135 -105 -137 -106 -2 -2 22 -36 53 -76 31 -40 199 -260 374 -489
l317 -417 221 -136 c121 -74 230 -146 241 -158 12 -13 1018 -1330 2237 -2927
l2216 -2904 -58 -43 c-47 -35 -60 -40 -72 -30 -63 52 -198 164 -212 174 -14
12 -23 9 -62 -20 -25 -18 -45 -37 -46 -41 0 -9 826 -1093 839 -1102 5 -3 101
-19 213 -35 111 -16 217 -32 234 -35 27 -5 53 -33 182 -203 83 -108 195 -251
249 -317 l99 -120 429 -152 c804 -285 746 -266 752 -243 6 21 20 25 42 11 12
-8 10 -20 -10 -74 l-24 -64 -280 102 -280 103 -42 -41 c-36 -34 -48 -59 -94
-186 -29 -80 -53 -147 -55 -149 -1 -2 -235 82 -520 186 l-519 189 -270 31
-270 32 -2490 0 c-1663 0 -2502 -4 -2527 -10 -31 -9 -39 -17 -51 -53 l-14 -42
-1849 -6 c-1307 -4 -1864 -9 -1901 -17 -29 -6 -77 -25 -107 -43 l-53 -32 -97
-210 -96 -209 0 -254 0 -254 27 -54 c29 -59 42 -66 133 -66 83 0 83 0 37 -106
-27 -61 -49 -96 -61 -100 -37 -12 -158 -4 -1136 75 -542 44 -1241 96 -1555
116 l-570 37 -1365 -256 c-751 -141 -1366 -252 -1368 -248 -1 5 -27 4 -57 -1
-30 -6 -52 -14 -49 -18 4 -7 -23 -14 -176 -43 -66 -13 -76 -13 -86 0 -11 14
-26 14 -86 -3 -10 -2 -18 -11 -18 -19 0 -8 -2 -14 -3 -14 -17 0 -1281 -241
-1285 -245 -14 -13 -27 -1160 -22 -1857 l0 -48 273 0 c151 0 356 -3 455 -7
l182 -6 0 -127 0 -127 -187 -6 c-104 -4 -308 -7 -455 -7 l-268 0 0 -47 c-6
-702 8 -1845 22 -1859 4 -3 1268 -244 1286 -244 1 0 2 -7 2 -15 0 -8 12 -17
28 -21 15 -3 35 -8 45 -11 10 -3 24 2 30 10 11 14 21 14 87 1 153 -29 180 -36
176 -43 -3 -4 19 -12 49 -18 30 -5 56 -6 57 -1 2 4 617 -107 1368 -248 l1365
-256 570 37 c314 20 1013 72 1555 116 977 79 1099 87 1136 75 12 -4 34 -39 61
-100 46 -106 46 -106 -37 -106 -91 0 -104 -7 -133 -66 l-27 -54 0 -254 0 -254
96 -209 97 -210 53 -32 c30 -18 78 -37 107 -43 37 -8 594 -13 1901 -17 l1849
-6 14 -42 c12 -36 20 -44 51 -53 25 -6 865 -10 2527 -10 l2490 0 265 31 265
31 524 189 c288 105 524 189 526 187 1 -2 25 -69 54 -149 46 -127 58 -152 94
-187 l42 -40 195 72 c107 39 234 86 281 103 l86 31 23 -65 c19 -54 21 -66 9
-74 -21 -13 -39 -11 -39 5 0 8 -3 17 -8 20 -4 2 -270 -89 -592 -202 l-584
-207 -99 -120 c-54 -66 -166 -209 -249 -317 -129 -170 -155 -198 -182 -203
-17 -3 -123 -19 -234 -35 -112 -16 -208 -32 -213 -35 -14 -9 -839 -1093 -839
-1102 1 -4 21 -23 46 -41 39 -29 48 -32 62 -20 14 10 149 122 212 174 12 10
25 5 72 -30 l58 -43 -2216 -2904 c-1219 -1597 -2225 -2914 -2237 -2927 -11
-12 -120 -84 -241 -158 l-221 -136 -190 -250 c-104 -138 -272 -357 -372 -487
-100 -130 -182 -238 -182 -241 0 -3 58 -50 129 -104 72 -55 130 -105 130 -111
0 -7 -7 -18 -15 -25 -9 -7 -38 -39 -66 -72 l-51 -59 37 -57 c65 -99 297 -435
326 -473 24 -30 47 -42 161 -84 73 -26 135 -49 137 -51 2 -2 -12 -25 -33 -50
-20 -26 -34 -49 -33 -51 2 -2 271 -26 598 -53 470 -39 596 -47 605 -37 6 6
1302 1704 2880 3772 1577 2068 2953 3871 3056 4007 104 136 193 250 197 252
15 10 274 -66 309 -89 l35 -24 73 95 c456 595 1174 1541 1175 1549 0 6 -17 14
-37 19 -39 9 -51 2 -97 -64 -14 -20 -15 -20 -143 26 -71 26 -131 50 -134 54
-3 4 -33 30 -67 59 l-62 51 -55 -69 c-61 -76 -99 -110 -52 -45 30 40 93 122
107 138 4 4 43 -18 86 -51 61 -46 104 -69 196 -102 114 -42 119 -43 131 -25 8
11 104 138 215 283 110 145 201 269 201 275 -1 6 -16 49 -34 96 l-33 85 -138
38 -138 39 -22 -29 c-13 -15 -31 -39 -42 -52 l-19 -24 -55 154 -56 154 86 31
86 32 2 128 3 129 -56 38 c-30 20 -60 37 -66 37 -6 0 -65 -19 -131 -42 -109
-38 -121 -44 -133 -74 -13 -30 -51 -52 -65 -36 -4 4 -16 33 -28 64 l-21 58 33
13 c17 7 142 53 277 102 135 49 246 89 247 90 2 1 6 28 9 61 5 50 2 72 -19
132 l-26 71 57 -36 c31 -20 76 -49 99 -64 77 -53 315 -137 496 -175 382 -80
768 -73 1175 21 l22 5 0 -160 c0 -88 3 -160 8 -160 4 0 466 34 1027 75 561 40
1023 71 1027 67 4 -4 8 -23 10 -42 l3 -35 -385 -45 -385 -45 -17 -35 c-16 -32
-16 -48 -6 -160 10 -107 15 -130 36 -158 22 -29 28 -32 59 -26 23 4 39 2 51
-9 9 -8 876 -591 1925 -1296 1381 -927 1915 -1281 1935 -1281 15 0 239 61 497
134 l470 133 8 54 c4 30 6 62 5 71 -2 11 -629 439 -1623 1106 l-1620 1088 -12
79 c-17 118 -17 115 17 115 25 0 33 6 47 35 15 32 16 49 6 161 -9 101 -16 132
-34 158 -17 25 -28 31 -48 29 -215 -27 -706 -82 -708 -79 -2 2 -6 19 -9 37
l-6 34 2954 214 2953 213 6840 583 c4019 342 6854 588 6873 595 27 10 33 17
29 34 -8 38 -638 1491 -653 1506 -13 13 -88 16 -515 20 l-500 5 36 43 37 42
101 0 c93 0 104 2 139 26 l38 27 0 167 0 167 -38 27 c-35 24 -46 26 -139 26
l-101 0 -37 42 -36 43 500 5 c427 4 502 7 515 20 15 15 645 1468 653 1506 8
34 -59 50 -282 68 -110 9 -3186 270 -6835 580 l-6635 565 -2948 213 -2949 213
6 34 c3 18 7 35 9 37 2 3 559 -59 708 -79 20 -2 31 4 48 29 18 26 25 57 34
158 10 112 9 129 -6 161 -14 29 -22 35 -47 35 -34 0 -34 -3 -17 115 l12 79
1620 1089 1620 1088 -3 67 c-2 37 -6 70 -10 73 -12 11 -940 269 -966 269 -17
0 -671 -434 -1933 -1281 -1049 -705 -1916 -1288 -1925 -1296 -12 -11 -28 -13
-51 -9 -31 6 -37 3 -59 -26 -21 -28 -26 -51 -36 -158 -10 -112 -10 -128 6
-160 l17 -35 385 -45 385 -45 -3 -35 c-2 -19 -6 -38 -10 -42 -4 -4 -466 27
-1027 67 -561 41 -1023 75 -1027 75 -5 0 -8 -72 -8 -160 l0 -160 -22 5 c-181
42 -286 58 -449 69 -492 33 -980 -66 -1277 -258 l-101 -65 26 71 c21 60 24 82
19 132 -3 33 -7 60 -9 61 -1 1 -123 46 -272 100 -148 53 -273 99 -277 102 -7
4 28 111 42 126 13 15 58 -12 68 -41 9 -25 22 -33 129 -70 66 -23 125 -42 131
-42 6 0 36 17 66 38 l56 37 -3 129 -2 128 -86 32 -86 31 56 154 55 154 19 -24
c11 -13 29 -37 42 -52 l22 -29 138 39 138 38 33 85 c18 47 33 90 34 96 0 6
-91 130 -201 275 -111 145 -207 272 -215 283 -12 18 -17 17 -131 -24 -93 -34
-134 -56 -196 -103 -44 -32 -82 -55 -86 -51 -8 10 -108 139 -125 163 -8 11 -8
13 2 7 7 -4 37 -39 68 -77 l55 -69 62 51 c34 29 64 55 67 60 3 4 63 28 134 53
l129 45 17 -22 c58 -73 54 -70 96 -61 21 6 38 13 38 18 -1 4 -280 373 -620
819 -341 446 -621 814 -624 819 -3 4 -22 -3 -41 -16 -35 -24 -295 -100 -310
-91 -4 3 -1388 1814 -3075 4025 -2735 3585 -3070 4020 -3093 4019 -14 -1 -276
-23 -581 -49z m2369 -5183 c1695 -2221 3081 -4041 3081 -4045 0 -4 -26 -26
-57 -50 -54 -41 -57 -42 -74 -25 -9 10 -959 1253 -2111 2763 -1152 1510 -2536
3324 -3076 4032 -540 708 -985 1293 -987 1300 -2 7 21 32 53 55 53 39 58 41
74 25 9 -9 1403 -1834 3097 -4055z m13254 -2948 c61 -13 59 -9 72 -109 l7 -46
-1548 -1008 -1547 -1009 -60 7 c-33 3 -62 8 -65 10 -2 3 -9 28 -16 58 l-11 53
1549 1027 c853 566 1553 1028 1556 1028 4 0 32 -5 63 -11z m-7789 -858 c136
-178 246 -324 244 -326 -3 -2 -78 -26 -225 -71 l-41 -13 -257 340 c-141 187
-255 342 -253 343 1 2 62 19 133 38 96 26 133 32 141 24 7 -6 123 -157 258
-335z m-1313 -374 c15 -12 77 -89 139 -172 62 -82 119 -155 126 -161 21 -16
-56 -237 -96 -278 l-29 -29 -118 42 c-65 24 -173 62 -241 86 l-122 43 -56 72
c-40 52 -52 75 -45 84 6 7 51 41 100 77 49 35 94 73 99 83 7 16 197 173 212
175 3 1 17 -9 31 -22z m-741 -411 l115 -33 34 23 c19 13 37 21 40 19 4 -2 29
-36 56 -76 35 -51 46 -74 36 -77 -7 -2 -22 -13 -33 -24 -20 -20 -21 -19 -157
28 l-137 48 -42 63 c-23 35 -39 63 -35 63 5 0 60 -15 123 -34z m1776 -199
l591 -213 -56 -159 -56 -160 -33 3 c-17 2 -32 -1 -32 -6 0 -11 -38 -4 -45 8
-3 4 2 27 10 52 14 39 14 48 1 80 -9 20 -21 38 -28 40 -169 64 -739 268 -749
268 -33 0 -78 -40 -90 -80 -10 -33 -17 -40 -33 -38 -14 2 -21 10 -20 25 0 19
-11 26 -78 49 -43 15 -77 33 -75 38 2 6 26 77 53 159 27 81 49 147 49 147 0 0
266 -96 591 -213z m21424 -4467 c0 -20 -7 -20 -365 -20 -358 0 -365 0 -365 20
0 20 7 20 365 20 358 0 365 0 365 -20z m330 0 c0 -19 -7 -20 -100 -20 -93 0
-100 1 -100 20 0 19 7 20 100 20 93 0 100 -1 100 -20z m320 0 c0 -19 -7 -20
-110 -20 -103 0 -110 1 -110 20 0 19 7 20 110 20 103 0 110 -1 110 -20z m816
8 c4 -5 4 -11 0 -15 -4 -5 -172 -9 -372 -11 -364 -3 -364 -3 -364 18 0 21 0
21 364 18 200 -2 368 -6 372 -10z m-22440 -3946 c28 3 29 2 81 -142 28 -80 52
-152 52 -161 1 -12 -134 -65 -571 -222 -315 -113 -580 -208 -588 -211 -12 -5
-26 24 -64 141 -27 82 -51 153 -53 159 -2 5 32 23 75 38 67 23 78 30 78 49 -1
15 6 23 20 25 16 2 23 -5 33 -38 12 -40 57 -80 90 -80 10 0 580 204 749 268 7
2 19 20 28 40 13 32 13 41 -1 81 -8 24 -15 46 -15 48 0 10 46 19 51 11 3 -5
19 -8 35 -6z m6150 -1209 l1546 -1007 -7 -45 c-13 -102 -10 -97 -76 -110 -53
-11 -64 -10 -87 5 -15 9 -713 472 -1550 1027 l-1524 1010 7 45 c11 76 13 77
108 81 34 1 181 -92 1583 -1006z m-7464 680 c16 -17 42 -74 67 -147 35 -100
39 -120 27 -130 -8 -6 -66 -81 -131 -166 -64 -85 -127 -163 -140 -173 -23 -17
-24 -17 -129 63 -57 44 -107 88 -111 98 -3 9 -46 46 -96 81 -49 36 -94 70
-100 77 -7 9 5 32 46 84 l55 72 123 43 c67 24 172 61 232 83 61 23 115 41 121
41 5 1 22 -11 36 -26z m-663 -32 c10 -10 25 -21 32 -23 10 -3 -1 -26 -36 -77
-27 -40 -52 -74 -56 -76 -3 -2 -21 6 -40 19 l-34 23 -115 -33 c-63 -19 -118
-34 -123 -34 -4 0 12 28 35 63 l42 63 130 46 c72 26 134 47 139 47 4 1 15 -7
26 -18z m1956 -596 c50 -16 91 -29 93 -30 2 -2 -112 -153 -253 -338 l-256
-335 -32 9 c-18 5 -77 21 -132 35 -55 15 -102 28 -103 30 -2 1 112 156 253
343 l257 340 41 -13 c23 -7 83 -26 132 -41z m-2582 -75 c26 -19 47 -38 47 -42
0 -8 -6151 -8072 -6178 -8100 -16 -16 -21 -14 -74 25 -32 23 -55 48 -53 55 4
10 5876 7712 6122 8030 44 56 68 80 77 75 7 -5 34 -24 59 -43z"/>
</g>
</svg>
