<?xml version="1.0" standalone="no"?>
<!DOCTYPE svg PUBLIC "-//W3C//DTD SVG 20010904//EN"
 "http://www.w3.org/TR/2001/REC-SVG-20010904/DTD/svg10.dtd">
<svg version="1.0" xmlns="http://www.w3.org/2000/svg"
   viewBox="0 0 4802.000000 3232.000000"
 preserveAspectRatio="xMidYMid meet">
<metadata>
Created by potrace 1.16, written by Peter Selinger 2001-2019
</metadata>
<g transform="translate(0.000000,3232.000000) scale(0.100000,-0.100000)"
fill="#000000" stroke="none">
<path d="M12810 32079 c-652 -131 -1186 -238 -1187 -239 -9 -1 0 -82 14 -126
9 -30 15 -56 12 -58 -2 -2 -895 -240 -1984 -529 l-1980 -526 -297 -7 c-216 -5
-298 -10 -301 -19 -3 -6 -8 -42 -12 -78 l-7 -67 -133 0 -133 0 -6 68 c-4 37
-10 75 -12 85 -5 16 -72 17 -1220 17 l-1214 0 0 -1165 0 -1165 660 0 660 0 2
-297 c2 -164 1 -483 -1 -709 l-4 -411 109 -36 c720 -237 3285 -1059 3304
-1059 19 1 299 62 538 117 l22 5 0 545 c0 478 2 545 15 545 13 0 15 -59 15
-467 l0 -467 156 -534 157 -533 -453 -1219 -453 -1218 -166 -164 -166 -164
-1905 -384 c-1048 -210 -2432 -489 -3077 -619 l-1172 -236 -158 -211 -158
-211 -134 -7 c-74 -3 -225 -6 -335 -6 -111 0 -238 -3 -283 -7 l-83 -6 -2 -221
-3 -221 -567 -3 c-367 -1 -568 -6 -568 -12 0 -6 -9 -10 -20 -10 -16 0 -20 -9
-26 -60 -5 -50 -10 -60 -25 -60 -14 0 -19 -7 -19 -30 0 -23 5 -30 19 -30 15 0
20 -10 25 -60 6 -51 10 -60 26 -60 11 0 20 -4 20 -10 0 -6 201 -11 568 -12
l567 -3 3 -67 3 -68 -721 0 -720 0 0 -1340 0 -1340 241 0 241 0 49 -41 49 -41
0 -668 0 -668 -49 -41 -49 -41 -241 0 -241 0 0 -1340 0 -1340 720 0 721 0 -3
-67 -3 -68 -568 -3 c-366 -1 -567 -6 -567 -12 0 -6 -9 -10 -20 -10 -16 0 -20
-9 -26 -60 -5 -50 -10 -60 -25 -60 -14 0 -19 -7 -19 -30 0 -23 5 -30 19 -30
15 0 20 -10 25 -60 6 -51 10 -60 26 -60 11 0 20 -4 20 -10 0 -6 201 -11 567
-12 l568 -3 3 -221 2 -221 92 -7 c50 -3 184 -6 298 -6 114 0 260 -3 326 -6
l119 -7 158 -211 158 -210 3080 -621 3080 -621 163 -163 164 -163 452 -1219
453 -1218 -157 -533 -156 -534 0 -492 c0 -431 -2 -492 -15 -492 -13 0 -15 68
-15 548 l0 547 -284 63 -284 64 -1702 -549 -1702 -548 3 -415 c2 -228 3 -547
1 -707 l-2 -293 -660 0 -660 0 0 -1165 0 -1165 1214 0 c999 0 1215 2 1219 13
3 8 8 44 12 80 l7 67 82 0 c44 0 104 3 132 6 l51 6 7 -68 c4 -38 10 -77 12
-86 5 -17 28 -18 297 -19 l292 0 1980 -528 1980 -527 -4 -24 c-3 -14 -5 -47
-5 -74 l-1 -50 1185 -237 c652 -130 1187 -235 1190 -232 3 2 12 32 20 66 19
76 12 74 235 49 l160 -19 3239 333 c1781 183 3240 334 3241 336 8 8 385 1373
383 1385 -2 7 -673 527 -1492 1157 l-1489 1144 -273 106 -273 106 -360 28
c-198 15 -362 30 -365 33 -3 3 41 93 97 201 l102 195 565 8 c311 4 565 8 566
8 1 1 578 1082 1283 2402 l1282 2400 227 206 228 206 2641 1662 2642 1662 328
-50 328 -51 1340 2 1340 3 32 230 c17 127 32 230 32 231 1 0 96 7 211 14 l210
13 0 48 c0 56 5 54 -165 64 -55 3 -131 8 -168 12 l-69 6 7 51 c12 94 -10 86
226 86 l209 0 0 -294 0 -294 49 -84 50 -83 -7 -200 -7 -200 -52 -83 c-41 -63
-53 -92 -53 -122 0 -21 -4 -42 -10 -45 -5 -3 -10 -35 -10 -71 l0 -64 220 2
220 3 889 625 890 625 1 142 0 142 67 3 67 3 68 131 68 132 358 1 c229 1 358
5 360 11 2 5 18 10 36 10 33 0 33 -1 39 -52 3 -29 11 -149 18 -267 l13 -214
80 6 c45 3 255 16 468 28 373 22 388 22 407 5 19 -17 33 -17 368 3 323 19 349
22 365 41 15 19 45 22 480 48 l463 27 -2 110 c-2 61 -5 139 -8 175 l-6 66 698
88 c384 49 713 91 731 94 29 4 32 2 32 -22 0 -14 -1 -27 -2 -27 -2 -1 -93 -7
-203 -13 l-200 -11 -3 -392 -2 -393 1557 0 1557 0 -47 -48 -47 -48 0 -169 0
-170 46 -48 45 -47 967 0 966 0 43 42 43 42 0 181 0 181 -40 39 -41 40 407 5
407 5 88 275 88 275 1 221 0 221 133 6 132 5 180 95 180 95 490 130 491 129
217 96 c163 72 252 105 358 132 123 32 152 43 213 85 40 27 114 94 168 152
l96 105 13 101 c10 81 10 123 0 204 l-13 101 -96 105 c-141 151 -204 191 -377
236 -103 27 -199 62 -359 132 -219 96 -220 97 -716 228 l-497 133 -174 92
-174 93 -132 5 -133 6 0 221 -1 221 -88 275 -88 275 -997 3 -996 2 0 70 0 70
35 0 c34 0 35 1 35 40 l0 40 -58 0 -57 0 -93 93 -92 92 0 63 0 62 2454 0
c1350 0 2461 -3 2470 -6 14 -5 16 -28 16 -145 0 -86 4 -139 10 -139 6 0 10 53
10 139 0 117 2 140 16 145 20 8 1358 8 1378 0 14 -5 16 -28 16 -145 0 -187 19
-184 22 4 l3 142 263 3 262 2 0 345 0 345 -262 2 -263 3 -3 138 c-3 181 -22
183 -22 2 0 -131 -1 -135 -22 -140 -13 -3 -329 -4 -703 -3 l-680 3 -3 138 c-1
77 -7 137 -12 137 -5 0 -11 -60 -12 -137 l-3 -138 -3812 -3 -3813 -2 0 45 c0
57 -29 80 -91 72 -70 -9 -69 -7 -69 -222 0 -173 2 -194 18 -208 20 -19 97 -23
107 -7 11 17 25 11 25 -10 0 -13 -50 -77 -120 -156 -104 -117 -120 -139 -120
-169 l0 -35 85 0 85 0 0 -65 c0 -64 -1 -66 -66 -155 l-66 -90 -49 0 -49 0 0
-40 c0 -38 2 -40 30 -40 l30 0 0 -70 0 -70 -350 0 -350 0 0 -390 c0 -214 1
-391 3 -391 1 -1 92 -7 202 -13 l200 -11 3 -29 c3 -28 2 -29 -30 -24 -18 3
-347 45 -731 94 l-698 89 5 60 c3 33 8 112 12 175 l6 115 -467 28 c-437 25
-468 28 -483 47 -16 19 -43 22 -365 41 -335 21 -348 21 -368 4 -19 -18 -33
-18 -407 4 -213 12 -423 25 -468 28 l-80 6 -13 -214 c-7 -118 -15 -238 -18
-266 -6 -52 -6 -53 -39 -53 -18 0 -34 5 -36 10 -2 7 -131 11 -360 11 l-358 2
-68 131 -68 131 -67 3 -67 3 0 142 -1 142 -889 625 -890 625 -220 3 -220 2 0
-64 c0 -36 5 -68 10 -71 6 -3 10 -24 10 -45 0 -30 12 -59 53 -122 l52 -83 7
-200 7 -200 -50 -83 -49 -84 0 -294 0 -294 -209 0 c-236 0 -214 -8 -226 86
l-7 52 64 5 c35 4 108 9 163 12 55 3 117 8 138 11 l37 6 0 49 c0 40 -3 49 -17
49 -39 0 -398 23 -402 27 -2 1 -18 105 -35 230 l-31 228 -1340 3 -1340 2 -328
-50 -328 -51 -2642 1662 -2642 1663 -227 205 -227 206 -1282 2400 c-705 1320
-1282 2401 -1283 2402 0 0 -255 4 -566 8 l-565 8 -93 177 -92 177 48 6 c26 3
184 16 352 28 l305 22 276 107 276 107 1469 1128 c808 620 1480 1138 1493
1151 l25 23 -194 693 -193 693 -3241 334 -3241 333 -180 -21 c-121 -14 -181
-17 -186 -10 -3 6 -14 46 -24 90 -10 44 -21 81 -24 83 -3 2 -539 -104 -1191
-235z"/>
</g>
</svg>
