<?xml version="1.0" standalone="no"?>
<!DOCTYPE svg PUBLIC "-//W3C//DTD SVG 20010904//EN"
 "http://www.w3.org/TR/2001/REC-SVG-20010904/DTD/svg10.dtd">
<svg version="1.0" xmlns="http://www.w3.org/2000/svg"
   viewBox="0 0 3519.000000 3885.000000"
 preserveAspectRatio="xMidYMid meet">
<metadata>
Created by potrace 1.16, written by Peter Selinger 2001-2019
</metadata>
<g transform="translate(0.000000,3885.000000) scale(0.100000,-0.100000)"
fill="#000000" stroke="none">
<path d="M15255 38695 l-69 -155 -791 0 -790 0 -607 -197 -608 -197 0 -198 0
-198 -112 0 -112 0 -117 -65 -116 -65 -224 0 -224 0 -128 -128 -127 -127 0
-260 0 -260 128 -127 127 -127 105 -3 105 -3 160 -277 160 -277 253 -1 252 0
0 -190 0 -190 -668 0 -667 0 -753 -753 -752 -752 0 -490 0 -490 -428 -428
-427 -427 -1703 0 -1702 0 0 -405 0 -405 -692 0 -693 0 -117 -117 -118 -118 0
-955 0 -955 118 -118 117 -117 693 0 692 0 0 -205 0 -205 -693 0 -692 0 -118
-118 -117 -117 0 -950 0 -950 123 -123 122 -122 688 0 687 0 0 -205 0 -205
869 0 870 0 885 -577 885 -578 1 -867 0 -866 -835 -415 -835 -416 0 -984 0
-984 -517 -354 -518 -354 0 -1740 0 -1739 304 -208 304 -208 -1889 0 -1889 0
-123 -123 -122 -122 0 -363 0 -362 -95 0 -95 0 0 -140 0 -140 -113 0 -112 0
-188 -188 -187 -187 0 -180 0 -180 300 -100 300 -100 0 -203 0 -203 -175 -84
-175 -84 0 -71 0 -70 -542 0 c-334 1 -616 6 -733 14 l-190 13 -402 -269 -403
-268 0 -1658 1 -1657 403 -268 404 -269 224 16 c161 12 366 16 731 16 l507 0
0 -73 0 -72 172 -82 173 -81 3 -205 2 -205 -297 -99 -298 -100 -3 -183 -2
-184 182 -183 183 -183 117 0 118 0 0 -140 0 -140 95 0 95 0 0 -363 0 -362
128 -128 127 -127 968 0 967 0 0 -1110 0 -1110 580 0 580 0 0 -663 0 -664
1393 -418 c765 -230 1406 -422 1424 -427 l32 -9 -52 -90 -52 -91 -180 -78
-180 -78 -106 -113 c-105 -111 -107 -114 -90 -135 10 -12 75 -82 147 -156
l129 -135 290 -80 290 -81 376 -27 377 -27 373 27 374 27 293 81 293 82 146
153 146 153 -39 42 c-21 23 -66 70 -99 105 l-59 62 639 0 639 0 -97 -99 c-53
-54 -97 -102 -97 -106 0 -4 65 -76 144 -159 l144 -152 294 -81 293 -81 385
-27 385 -27 380 30 380 30 270 76 270 77 152 156 152 156 -109 115 -108 115
-179 77 -178 77 -47 79 c-27 43 -48 82 -48 87 0 4 66 7 148 7 l147 0 363 363
362 362 0 1753 0 1752 100 0 100 0 0 -319 0 -318 921 -437 922 -436 148 0 149
0 0 -398 0 -398 73 -72 72 -72 823 0 822 0 0 -875 0 -875 278 2 277 3 25 145
26 145 499 0 499 0 26 -145 26 -145 277 -3 277 -2 0 875 0 875 327 0 328 0 72
72 73 72 0 398 0 398 380 0 380 0 0 -170 0 -170 398 -2 397 -3 29 -83 28 -82
401 2 400 3 30 82 30 83 203 0 204 0 0 170 0 170 363 0 362 0 413 413 412 412
0 118 0 117 228 0 227 -1 595 118 596 118 229 291 230 291 985 314 985 313
705 570 c388 312 717 580 731 595 19 18 73 144 182 421 85 217 210 533 276
701 l121 306 258 92 c141 51 268 100 282 109 14 8 120 91 237 184 194 154 216
175 259 243 25 41 50 75 54 75 4 0 10 8 12 18 3 10 47 81 98 158 l94 139 81
325 81 325 -80 321 -81 322 -97 146 c-54 80 -98 153 -98 161 0 8 -4 15 -9 15
-4 0 -30 33 -57 74 -44 66 -75 94 -274 254 l-225 179 -260 93 c-143 51 -265
98 -271 104 -7 6 -132 317 -279 691 -147 374 -275 692 -284 707 -14 24 -1417
1165 -1459 1187 -9 5 -451 147 -982 316 -531 168 -973 312 -982 318 -9 7 -112
134 -229 282 -116 149 -217 276 -223 283 -7 6 -281 66 -611 132 l-600 120
-222 0 -223 0 0 118 0 117 -408 408 -407 407 -368 0 -367 0 0 175 0 175 -204
0 -204 0 -18 47 c-9 27 -23 63 -30 80 l-13 33 -400 0 -400 0 -28 -80 -28 -80
-397 0 -398 0 0 -175 0 -175 -380 0 -380 0 0 403 0 404 -80 77 -80 78 0 1222
0 1221 -668 668 -668 668 -134 -21 -134 -21 -1020 1020 -1019 1019 21 134 21
133 -672 673 -672 672 -332 0 -333 0 0 1180 0 1180 300 0 300 0 0 364 0 363
298 7 c163 3 438 9 610 12 171 4 312 10 312 14 0 4 -174 10 -387 14 -214 3
-488 9 -610 12 l-223 6 0 163 0 162 122 6 c66 4 196 7 287 7 295 0 811 13 811
20 0 9 -274 17 -832 26 l-388 7 0 358 0 359 -300 0 -300 0 0 1193 0 1193 -45
44 -45 44 207 208 208 208 120 -120 120 -119 288 -2 289 -1 290 299 290 298
-7 236 -7 236 82 219 82 218 -18 202 -17 202 -263 263 -263 263 -202 17 -202
17 -221 -83 -221 -82 -231 9 -230 10 -215 -219 c-118 -120 -250 -255 -294
-300 l-78 -83 2 -282 3 -282 116 -124 116 -123 -207 -207 -207 -207 -50 50
-50 49 0 491 0 490 -748 748 -747 747 -198 0 -197 0 0 190 0 190 313 0 312 1
147 277 146 277 284 6 283 5 895 207 c492 114 903 210 913 213 16 5 17 25 17
235 l0 229 73 0 72 0 110 -80 110 -80 119 0 119 0 701 185 c386 102 709 188
719 191 14 5 17 18 17 83 l0 78 178 18 c157 15 180 20 202 40 24 22 36 24 258
33 181 7 236 13 250 24 15 13 214 17 1549 25 843 5 1536 13 1540 16 3 4 4 9 2
11 -2 1 -696 7 -1543 13 -1373 8 -1539 11 -1547 25 -7 13 -47 17 -244 23 -227
7 -237 8 -264 31 -24 20 -49 25 -182 39 -220 23 -199 13 -199 95 0 57 -3 70
-17 74 -10 3 -334 89 -721 191 l-702 185 -116 0 -116 0 -111 -80 -112 -80
-320 2 -320 3 -61 150 -62 150 -342 0 -342 0 -70 -152 -71 -153 -212 0 -211 0
-65 155 -64 155 -341 0 -340 0 -69 -155z m-268 -16752 l582 -588 1 -2747 0
-2748 -957 1 -958 0 -602 592 -602 592 -1 2743 0 2742 978 0 977 1 582 -588z
m-494 -15483 l187 0 0 -428 0 -427 148 -148 147 -147 78 0 77 0 0 -777 0 -778
-122 -122 -123 -123 -485 0 -485 0 -122 122 -123 123 0 1352 0 1353 -227 3
c-126 2 17 2 317 1 300 -2 629 -4 733 -4z"/>
<path d="M3843 16373 l-163 -75 0 -329 0 -329 670 0 670 0 -2 332 -3 332 -160
73 -160 73 -345 -1 -345 0 -162 -76z"/>
</g>
</svg>
