<?xml version="1.0" standalone="no"?>
<!DOCTYPE svg PUBLIC "-//W3C//DTD SVG 20010904//EN"
 "http://www.w3.org/TR/2001/REC-SVG-20010904/DTD/svg10.dtd">
<svg version="1.0" xmlns="http://www.w3.org/2000/svg"
   viewBox="0 0 1428.000000 4848.000000"
 preserveAspectRatio="xMidYMid meet">
<metadata>
Created by potrace 1.16, written by Peter Selinger 2001-2019
</metadata>
<g transform="translate(0.000000,4848.000000) scale(0.100000,-0.100000)"
fill="#000000" stroke="none">
<path d="M10663 48422 l-153 -57 -2 -934 -3 -934 -970 -268 c-533 -147 -980
-270 -992 -274 l-23 -5 -2 -986 -3 -986 -1160 -532 c-638 -293 -1200 -551
-1249 -574 -49 -23 -90 -41 -91 -40 -6 7 -55 1068 -55 1180 0 69 -3 133 -6
141 -8 23 -154 11 -311 -24 l-131 -30 -6 -122 c-4 -67 -20 -513 -37 -992 -59
-1724 -118 -3287 -123 -3292 -3 -3 -222 -11 -486 -17 l-480 -11 -42 -43 -43
-42 -2 -1523 -1 -1522 46 -47 46 -48 194 0 193 0 -3 -27 -3 -28 -920 -87
c-506 -48 -930 -87 -942 -87 -20 -1 -23 -6 -23 -40 l0 -39 73 -6 c39 -4 432
-24 872 -46 440 -22 833 -43 872 -46 140 -11 208 56 -1022 -1014 l-1095 -952
0 -782 0 -782 -147 -48 c-82 -27 -168 -59 -193 -72 -25 -12 -218 -131 -430
-262 l-385 -240 -3 -296 -2 -296 -274 0 c-150 0 -341 -3 -424 -7 l-152 -6 0
-1288 0 -1289 164 -2 164 -3 -309 -415 -309 -414 0 -161 c0 -89 3 -304 7 -478
5 -255 9 -317 20 -317 11 0 13 -103 13 -585 l0 -585 -160 0 -160 0 0 -414 0
-414 92 -6 c51 -3 266 -10 478 -16 212 -6 400 -13 418 -16 l32 -5 0 -629 0
-629 -32 -5 c-18 -3 -206 -10 -418 -16 -212 -6 -427 -13 -478 -16 l-92 -6 0
-414 0 -414 160 0 160 0 0 -585 c0 -482 -2 -585 -13 -585 -11 0 -15 -62 -20
-317 -4 -174 -7 -390 -7 -480 l0 -163 310 -415 309 -415 -164 0 -165 0 0
-1288 0 -1289 152 -6 c83 -4 274 -7 424 -7 l274 0 2 -296 3 -296 415 -258 415
-257 162 -54 163 -54 0 -781 0 -782 1094 -954 c1224 -1066 1159 -1001 1024
-1012 -40 -3 -433 -24 -873 -46 -440 -22 -833 -42 -872 -46 l-73 -6 0 -39 c0
-34 3 -39 23 -40 12 0 436 -39 942 -87 l920 -87 3 -28 3 -27 -193 0 -194 0
-46 -48 -46 -47 1 -1522 2 -1523 43 -42 42 -43 480 -11 c264 -6 483 -14 486
-17 5 -5 64 -1573 123 -3292 17 -478 33 -925 37 -992 l6 -122 131 -30 c157
-35 303 -47 311 -24 3 8 6 72 6 141 0 112 49 1173 55 1180 1 1 42 -17 91 -40
49 -23 611 -281 1249 -574 l1160 -532 3 -986 2 -986 23 -5 c12 -4 459 -127
992 -274 l970 -268 3 -934 2 -934 158 -58 157 -57 303 0 302 0 0 3540 c0 3045
2 3540 14 3540 10 0 16 -20 20 -72 8 -86 246 -4374 246 -4418 l0 -30 65 0 c39
0 78 6 99 17 30 14 36 22 40 57 3 23 96 1956 207 4296 111 2340 203 4257 205
4259 4 4 1895 220 1932 221 22 0 23 3 20 77 l-3 77 -865 112 c-476 62 -909
118 -962 124 l-98 12 0 34 c0 40 -5 39 230 54 243 16 240 15 240 55 0 32 -2
33 -47 39 -27 3 -120 11 -208 16 -216 15 -205 11 -205 63 l0 43 503 27 c276
15 512 28 525 27 19 0 22 5 22 40 0 31 -4 40 -17 40 -51 0 -1028 62 -1031 65
-6 6 -33 257 -28 262 3 3 1804 132 1854 133 8 0 12 16 12 45 0 41 -2 45 -24
45 -14 0 -431 25 -928 55 -497 30 -909 55 -915 55 -10 0 -13 30 -13 115 l0
115 -35 0 c-19 0 -35 5 -35 10 0 6 17 10 38 11 20 0 235 15 477 32 431 31 440
32 443 53 3 20 -2 22 -75 28 -43 3 -240 13 -438 21 -410 18 -445 21 -445 39 0
17 -109 22 -730 36 -256 6 -489 12 -517 14 l-53 3 0 -124 0 -123 -32 0 c-28 0
-72 -33 -303 -230 l-270 -230 -883 0 -882 0 -1093 948 -1092 948 -3 849 -2
850 217 64 c173 50 269 85 460 170 l243 106 0 1548 0 1547 253 1 252 0 308
445 307 445 0 484 0 485 110 0 110 0 0 574 0 575 140 -6 c121 -5 145 -4 179
12 l39 17 211 -82 211 -82 174 -17 c96 -9 178 -19 181 -22 8 -9 49 -339 42
-345 -3 -3 -225 -87 -494 -186 -268 -99 -490 -182 -492 -184 -2 -2 1 -28 8
-58 9 -39 27 -74 63 -121 45 -58 54 -65 77 -60 14 3 150 39 301 79 l275 73 28
-26 c35 -32 46 -26 -183 -86 -96 -25 -180 -48 -187 -50 -9 -3 -8 -16 2 -54 13
-49 12 -54 -37 -206 -33 -106 -53 -155 -62 -152 -8 3 -49 -107 -129 -357 -65
-198 -117 -369 -117 -379 0 -17 67 -56 96 -57 6 0 22 21 36 48 32 59 228 647
229 687 1 17 11 67 22 112 19 73 23 79 32 59 l10 -24 1785 458 c982 252 1804
463 1826 469 l42 11 -15 68 c-9 37 -17 69 -19 71 -10 11 -300 60 -323 54 -18
-4 94 115 369 393 217 220 473 481 568 580 l173 181 0 703 0 703 -173 181
c-95 99 -351 360 -568 580 -275 278 -387 397 -369 393 23 -6 313 43 323 54 2
2 10 34 19 71 l15 68 -42 11 c-22 6 -844 217 -1826 469 l-1785 458 -10 -24
c-9 -20 -13 -14 -32 59 -11 45 -21 96 -22 112 -1 17 -47 167 -102 335 -95 285
-141 400 -160 400 -22 0 -91 -34 -98 -49 -11 -22 229 -750 246 -744 7 3 29
-52 61 -152 49 -152 50 -157 37 -206 -10 -38 -11 -51 -2 -54 7 -2 91 -25 187
-50 229 -60 218 -54 183 -86 l-28 -26 -275 73 c-151 40 -287 76 -301 79 -23 5
-32 -2 -77 -60 -36 -47 -54 -82 -63 -121 -7 -30 -10 -56 -8 -58 2 -2 224 -85
493 -184 269 -100 491 -183 494 -186 6 -7 -35 -336 -43 -345 -3 -3 -85 -13
-181 -22 l-174 -17 -211 -82 -211 -82 -38 17 c-34 15 -57 17 -180 10 l-140 -7
0 576 0 576 -110 0 -110 0 0 483 0 482 -308 447 -307 447 -252 0 -253 1 0
1548 0 1547 -243 106 c-191 85 -287 120 -460 170 l-217 64 2 850 3 849 1092
948 1093 948 882 0 883 0 270 -230 c231 -197 275 -230 303 -230 l32 0 0 -123
0 -124 53 3 c28 2 261 8 517 14 620 14 730 19 730 35 0 9 19 15 53 19 50 5
808 36 875 36 30 0 33 2 30 28 l-3 27 -475 32 c-261 17 -476 32 -477 32 -2 1
-3 6 -3 11 0 6 16 10 35 10 l35 0 0 115 c0 85 3 115 13 115 6 0 418 25 915 55
497 30 914 55 928 55 22 0 24 4 24 45 0 29 -4 45 -12 45 -52 1 -1851 130
-1854 133 -5 5 22 257 28 262 2 1 237 15 523 31 l520 29 3 43 c3 38 1 42 -20
42 -13 -1 -249 12 -525 27 l-503 27 0 43 c0 50 -10 47 215 63 83 6 171 13 198
16 45 6 47 7 47 38 l0 33 -157 12 c-87 6 -193 14 -235 18 l-78 6 0 37 0 37
253 32 c138 18 572 74 962 125 l710 92 3 75 3 75 -978 108 c-538 59 -978 109
-979 109 -1 1 -92 1919 -203 4262 -111 2343 -204 4278 -207 4301 -4 35 -10 43
-40 57 -21 11 -60 17 -99 17 l-65 0 0 -30 c0 -44 -238 -4332 -246 -4417 -4
-53 -10 -73 -20 -73 -12 0 -14 495 -14 3540 l0 3540 -307 -1 -308 -1 -152 -56z
m-4564 -6836 c-1 -39 -4 -96 -9 -126 l-7 -55 -2 76 c0 42 -4 105 -8 140 -6 59
-5 63 10 50 13 -10 17 -30 16 -85z m5508 -15273 c348 -75 631 -138 630 -140
-4 -4 -1770 -173 -1807 -173 -29 0 -29 0 -24 53 10 99 0 90 146 132 73 20 138
41 144 46 6 5 15 28 18 52 4 23 9 51 12 63 4 16 -1 24 -26 34 -17 7 -29 15
-26 17 4 4 255 50 286 52 8 1 299 -61 647 -136z m-261 -3918 c488 -47 889 -87
891 -88 1 -2 -283 -65 -632 -140 l-634 -138 -147 25 c-80 14 -148 27 -151 29
-2 2 10 10 27 17 25 10 30 18 26 34 -3 12 -8 40 -12 63 -3 24 -12 47 -18 52
-6 5 -71 26 -144 46 -146 42 -136 33 -146 133 -5 52 -5 52 24 52 15 0 428 -38
916 -85z m-5247 -15501 c1 -55 -3 -75 -16 -85 -15 -13 -16 -10 -10 41 4 30 7
93 8 140 2 83 2 84 9 30 5 -30 8 -87 9 -126z"/>
</g>
</svg>
