<?xml version="1.0" standalone="no"?>
<!DOCTYPE svg PUBLIC "-//W3C//DTD SVG 20010904//EN"
 "http://www.w3.org/TR/2001/REC-SVG-20010904/DTD/svg10.dtd">
<svg version="1.0" xmlns="http://www.w3.org/2000/svg"
   viewBox="0 0 3572.000000 1670.000000"
 preserveAspectRatio="xMidYMid meet">
<metadata>
Created by potrace 1.16, written by Peter Selinger 2001-2019
</metadata>
<g transform="translate(0.000000,1670.000000) scale(0.100000,-0.100000)"
fill="#000000" stroke="none">
<path d="M3259 16635 l-34 -65 -55 0 -55 -1 -212 -365 -213 -364 0 -215 0
-215 50 0 50 0 0 -60 0 -60 -65 0 -65 0 -115 -154 -115 -154 0 -61 0 -60 -32
-5 c-18 -3 -105 -10 -193 -16 -88 -6 -184 -13 -212 -16 l-53 -6 0 -404 0 -403
43 -5 c60 -8 417 -46 433 -46 10 0 14 -16 14 -57 l0 -58 61 -49 61 -50 -6 -59
c-3 -33 -6 -68 -6 -78 0 -17 -8 -19 -69 -19 l-69 0 -496 -722 -496 -722 0 -98
0 -98 -632 0 -631 0 -73 -42 -74 -43 0 -482 0 -482 75 -45 76 -46 629 0 630 0
0 -99 0 -100 203 -220 202 -219 93 -1 92 -1 0 -1820 0 -1820 -92 -1 -93 -1
-202 -219 -203 -219 0 -100 0 -100 -632 0 -633 -1 -70 -43 -70 -43 0 -483 0
-483 70 -43 70 -43 633 -1 632 0 0 -98 0 -97 496 -723 496 -722 67 0 68 0 7
-61 c3 -34 6 -70 6 -80 0 -9 -27 -39 -60 -66 l-60 -48 0 -57 c0 -40 -4 -58
-12 -58 -20 0 -409 -40 -445 -46 l-33 -5 0 -403 0 -404 53 -6 c28 -3 129 -10
222 -16 233 -15 215 -9 215 -80 l0 -60 115 -155 115 -155 65 0 65 0 0 -60 0
-60 -50 0 -50 0 0 -214 0 -215 212 -365 213 -365 55 -1 55 0 34 -65 33 -65
1232 0 1231 0 148 445 148 445 6 260 6 260 124 0 124 0 94 77 c70 57 95 83 95
100 l0 23 1110 0 1110 0 0 -45 0 -45 85 0 85 0 0 -110 0 -110 105 0 105 0 0
-35 c0 -31 -3 -35 -34 -40 l-33 -7 111 -279 111 -279 446 0 445 0 111 277 111
278 -34 8 c-30 8 -34 13 -34 43 l0 34 1650 0 1650 0 0 905 0 905 368 1 367 0
845 688 845 687 3 162 2 162 25 0 c22 0 25 4 25 35 l0 35 1855 0 1855 0 0 125
0 125 183 0 182 0 48 55 48 55 580 0 579 0 0 -180 0 -180 -140 0 -140 0 0
-996 0 -996 215 -798 c118 -439 215 -801 215 -804 0 -3 672 -6 1494 -6 l1494
0 11 33 c5 17 102 377 216 798 l205 766 0 874 -1 874 -109 49 -110 48 0 64 0
64 -275 0 -275 0 0 305 0 305 -61 137 c-33 76 -63 144 -66 151 -4 10 132 12
673 10 l679 -3 77 -145 77 -145 1 -292 0 -293 -140 0 -140 0 0 -1001 0 -1000
200 -747 c111 -411 208 -771 216 -799 l15 -53 1494 0 c822 0 1495 2 1495 5 0
2 97 364 215 804 l215 799 -2 868 -3 868 -105 47 -105 48 -3 66 -3 65 -274 0
-275 0 0 304 0 303 -59 131 c-33 73 -63 141 -66 152 -6 20 -3 20 666 18 l672
-3 79 -149 78 -149 0 -288 0 -289 -140 0 -140 0 0 -1002 0 -1003 214 -795 213
-795 1496 -3 1495 -2 7 27 c3 16 101 379 216 807 l209 779 0 863 0 864 358 0
358 0 37 50 c34 45 37 55 37 115 l0 65 635 0 c558 0 635 2 635 15 0 12 17 15
90 15 l90 0 0 45 0 45 -90 0 -90 0 0 180 0 180 165 0 165 0 0 45 0 45 -165 0
c-158 0 -165 1 -165 20 0 20 -7 20 -920 20 l-920 0 0 124 0 124 -106 99 -106
98 -491 5 -492 5 -204 463 -205 462 -413 0 -413 0 0 22 c0 11 -19 45 -41 75
l-41 53 -647 -1 -646 0 -37 -49 c-21 -27 -38 -61 -38 -75 l0 -25 -108 0 -108
0 -27 -55 -27 -55 -788 0 -788 0 -23 55 -23 55 -414 0 -414 0 0 22 c0 11 -18
45 -40 75 l-41 53 -644 0 -645 0 -40 -51 c-22 -28 -40 -62 -40 -75 0 -24 -1
-24 -105 -24 l-105 0 -27 -55 -27 -55 -794 0 -793 0 -24 55 -25 55 -415 0
-415 0 0 23 c0 13 -17 46 -37 75 l-38 51 -647 1 -647 0 -41 -53 c-22 -30 -40
-64 -40 -75 0 -21 -4 -22 -105 -22 l-105 0 -50 -100 c-27 -55 -50 -109 -50
-120 0 -19 -6 -20 -155 -20 l-155 0 -254 -145 -254 -145 -915 0 -915 0 -48 75
-49 75 -183 0 -184 0 81 88 81 87 0 368 0 367 -265 0 -265 0 1 178 0 177 84
-172 84 -173 608 0 608 0 758 247 757 247 0 49 c0 40 3 50 20 54 18 5 20 14
20 88 0 75 -2 84 -20 90 -16 5 -20 15 -20 55 0 39 3 49 20 53 18 5 20 14 20
87 0 73 -2 82 -20 87 -17 4 -20 14 -20 55 0 41 3 51 20 55 18 5 20 14 20 88 0
74 -2 83 -20 88 -17 4 -20 14 -20 54 l0 49 -757 247 -758 248 -608 -1 -608 0
-84 -172 -84 -173 0 178 -1 177 265 0 265 0 0 368 0 367 -81 88 -81 87 184 0
183 0 49 75 48 75 916 0 915 0 253 -145 254 -145 155 0 c149 0 155 -1 155 -20
0 -11 23 -65 50 -120 l50 -100 105 0 c101 0 105 -1 105 -22 0 -11 19 -45 41
-75 l41 -53 647 0 646 1 38 51 c20 29 37 62 37 75 l0 23 415 0 415 0 25 55 24
55 603 0 c332 0 687 3 790 7 l186 6 31 -61 31 -62 105 0 c104 0 105 0 105 -24
0 -13 18 -46 41 -75 l41 -51 644 0 643 0 41 53 c22 30 40 64 40 75 l0 22 414
0 414 0 23 55 23 55 606 0 c334 0 687 3 786 6 l179 7 29 -62 30 -61 108 0
c106 0 108 0 108 -23 0 -13 17 -46 38 -75 l37 -51 646 -1 647 0 41 55 c22 30
41 63 41 75 0 20 4 20 413 20 l413 0 205 465 204 464 489 1 488 0 109 101 109
101 0 124 0 124 920 0 c913 0 920 0 920 20 0 19 7 20 165 20 l165 0 0 45 0 45
-165 0 -165 0 0 180 0 180 90 0 90 0 0 45 0 45 -90 0 c-73 0 -90 3 -90 15 0
13 -77 15 -635 15 l-635 0 0 65 c0 60 -3 70 -37 115 l-37 50 -358 0 -358 0 0
864 0 864 -209 778 c-115 429 -213 791 -216 807 l-7 27 -1495 -2 -1496 -3
-213 -795 -214 -795 0 -1002 0 -1003 140 0 140 0 0 -288 0 -288 -79 -149 -78
-150 -672 -3 c-669 -2 -672 -2 -666 18 3 11 33 79 66 152 l59 131 0 303 0 304
275 0 274 0 3 66 3 66 105 47 105 47 3 868 2 868 -215 800 c-118 440 -215 801
-215 804 0 2 -673 4 -1495 4 l-1494 0 -15 -52 c-9 -29 -105 -389 -216 -800
l-200 -747 0 -1000 0 -1001 140 0 140 0 -1 -292 0 -293 -77 -145 -77 -145
-679 -3 c-541 -2 -677 0 -673 10 3 7 33 75 66 151 l61 138 0 305 0 304 275 0
274 0 3 66 3 65 107 47 108 47 0 874 0 874 -205 766 c-113 421 -211 781 -216
799 l-11 32 -1494 0 c-822 0 -1494 -2 -1494 -5 0 -3 -97 -365 -215 -804 l-215
-800 0 -995 0 -996 140 0 140 0 0 -175 0 -175 -584 0 -585 0 -43 50 -43 50
-182 0 -183 0 0 125 0 125 -1855 0 -1855 0 0 35 c0 31 -3 35 -25 35 l-25 0 -2
162 -3 162 -845 688 -845 687 -367 0 -368 1 0 905 0 905 -1650 0 -1650 0 0 34
c0 30 4 35 34 43 l34 8 -111 278 -111 277 -445 0 -446 0 -111 -279 -111 -279
33 -7 c31 -5 34 -9 34 -40 l0 -35 -105 0 -105 0 0 -110 0 -110 -85 0 -85 0 0
-45 0 -45 -1110 0 -1110 0 0 23 c0 17 -25 43 -95 100 l-94 77 -124 0 -124 0
-6 260 -6 260 -148 445 -148 445 -1231 0 -1232 0 -33 -65z m4609 -1692 c72
-15 132 -30 132 -34 0 -3 -55 -18 -122 -33 -110 -24 -143 -26 -319 -26 -157 0
-216 4 -294 20 -83 17 -136 20 -371 20 l-274 0 0 40 0 40 558 0 557 0 133 -27z
m13465 -3853 l-78 -150 -276 0 -275 0 -127 145 c-70 79 -127 147 -127 150 0 3
216 5 481 5 l481 0 -79 -150z m-6603 -1163 l0 -313 108 -140 108 -139 191 -3
191 -2 -40 -120 -40 -120 -614 0 -614 0 0 575 0 575 355 0 355 0 0 -313z
m1000 -832 l0 -235 -40 0 -40 0 0 115 0 115 -64 0 -64 0 34 107 c19 59 36 113
39 120 3 9 26 13 70 13 l65 0 0 -235z m0 -1490 l0 -236 -67 3 -67 3 -33 105
c-18 58 -33 111 -33 118 0 8 19 12 60 12 l60 0 0 115 0 115 40 0 40 0 0 -235z
m-442 -115 l40 -120 -191 -2 -191 -3 -108 -139 -108 -139 0 -314 0 -313 -355
0 -355 0 0 575 0 575 614 0 614 0 40 -120z m6045 -1880 l79 -150 -481 0 c-265
0 -481 2 -481 5 0 3 57 71 126 150 l127 145 276 0 276 0 78 -150z m-13443
-3789 c69 -16 118 -31 110 -34 -8 -3 -72 -17 -141 -31 l-126 -26 -557 0 -556
0 0 40 0 40 278 0 c231 1 291 4 362 19 67 15 130 19 295 20 196 0 218 -1 335
-28z"/>
</g>
</svg>
