<?xml version="1.0" standalone="no"?>
<!DOCTYPE svg PUBLIC "-//W3C//DTD SVG 20010904//EN"
 "http://www.w3.org/TR/2001/REC-SVG-20010904/DTD/svg10.dtd">
<svg version="1.0" xmlns="http://www.w3.org/2000/svg"
   viewBox="0 0 3655.000000 3296.000000"
 preserveAspectRatio="xMidYMid meet">
<metadata>
Created by potrace 1.16, written by Peter Selinger 2001-2019
</metadata>
<g transform="translate(0.000000,3296.000000) scale(0.100000,-0.100000)"
fill="#000000" stroke="none">
<path d="M9750 32944 c-896 -19 -2899 -99 -2916 -116 -7 -7 -249 -344 -539
-748 -542 -754 -1060 -1511 -2212 -3230 -1029 -1536 -1374 -2035 -1639 -2371
l-229 -291 -331 -262 c-182 -143 -434 -337 -560 -431 l-231 -170 -304 -410
c-168 -225 -415 -573 -550 -773 l-244 -362 45 -41 c30 -26 152 -93 370 -202
318 -160 337 -168 916 -384 326 -122 884 -340 1242 -484 612 -248 650 -265
635 -281 -15 -17 -57 -18 -603 -18 -326 0 -590 4 -596 9 -5 5 -45 11 -88 13
l-80 5 -39 -37 c-33 -30 -38 -40 -30 -56 15 -28 25 -294 13 -309 -11 -14 -7
-691 5 -821 l7 -71 66 -7 c37 -3 105 -6 152 -7 47 0 94 -4 105 -9 26 -11 24
-11 -170 -19 l-160 -6 -3 -95 c-1 -52 -7 -105 -13 -117 -10 -18 -5 -33 28 -95
l39 -73 80 3 c43 2 346 5 673 8 l595 4 98 -65 98 -65 670 0 c663 0 670 0 670
-20 0 -20 -7 -20 -402 -20 l-403 -1 -100 -74 -100 -75 -472 0 c-304 0 -474 4
-478 10 -9 14 -161 12 -185 -2 -16 -10 -24 -10 -40 0 -11 7 -53 12 -97 12 -74
0 -80 -2 -117 -33 -32 -28 -37 -36 -29 -53 15 -27 27 -314 13 -314 -14 0 -14
-746 0 -755 6 -3 10 -35 10 -69 l0 -63 46 -7 c26 -3 79 -6 118 -6 39 0 95 -3
123 -6 98 -12 42 -24 -112 -24 -84 0 -160 -3 -169 -6 -13 -5 -16 -24 -16 -109
0 -58 -4 -107 -10 -110 -6 -3 7 -39 30 -86 l40 -79 80 0 c43 0 82 5 85 10 3 6
17 10 30 10 13 0 27 -4 30 -10 8 -13 162 -13 170 0 4 6 174 10 478 10 l472 0
99 -65 98 -65 404 0 404 0 0 -467 0 -468 -215 -230 -215 -230 0 -685 0 -685
215 -230 215 -230 0 -467 0 -468 -404 0 -404 0 -98 -65 -99 -65 -472 0 c-304
0 -474 4 -478 10 -3 5 -42 10 -85 10 -43 0 -82 -5 -85 -10 -8 -13 -52 -13 -60
0 -3 6 -42 10 -85 10 l-80 0 -40 -79 c-23 -47 -36 -83 -30 -86 6 -3 10 -52 10
-110 0 -85 3 -104 16 -109 9 -3 85 -6 169 -6 85 0 156 -4 159 -9 8 -12 -55
-21 -150 -21 -45 0 -102 -3 -128 -6 l-46 -7 0 -62 c0 -43 -5 -66 -15 -75 -13
-11 -15 -66 -15 -380 0 -328 2 -369 16 -374 13 -5 15 -15 10 -54 -4 -26 -10
-92 -14 -147 -5 -55 -11 -107 -16 -116 -5 -12 4 -25 32 -48 37 -29 46 -31 116
-31 43 0 85 5 96 12 16 10 24 10 40 0 24 -14 176 -16 185 -2 4 6 174 10 478
10 l472 0 100 -75 100 -74 403 -1 c395 0 402 0 402 -20 0 -20 -7 -20 -670 -20
l-670 0 -98 -65 -98 -65 -589 4 c-325 3 -628 6 -674 8 l-85 3 -39 -73 c-33
-62 -38 -77 -28 -95 6 -12 12 -65 13 -117 l3 -95 165 -6 c91 -3 170 -7 175 -9
28 -6 -50 -18 -126 -19 -47 -1 -113 -4 -147 -7 l-60 -7 -7 -71 c-12 -127 -16
-809 -6 -819 13 -13 2 -284 -12 -312 -8 -16 -3 -25 30 -55 40 -35 41 -35 119
-32 44 2 83 8 88 13 6 5 262 9 596 9 546 0 588 -1 603 -17 14 -17 -25 -34
-656 -290 -370 -149 -928 -367 -1242 -484 -555 -207 -578 -217 -895 -376 -218
-109 -340 -175 -370 -202 l-45 -41 244 -362 c135 -200 382 -547 550 -773 l305
-410 230 -170 c126 -93 378 -287 559 -430 l329 -259 230 -293 c263 -333 705
-973 1716 -2483 1052 -1573 1597 -2368 2137 -3120 290 -404 532 -741 539 -748
9 -9 290 -23 1121 -57 1195 -47 2523 -77 2943 -66 l234 6 145 385 c80 212 149
389 153 394 5 5 454 12 1027 17 560 4 1121 13 1247 19 214 10 230 10 239 -6 9
-16 12 -15 32 10 l22 27 399 8 399 8 -400 1 -401 2 -18 32 c-17 28 -20 30 -32
14 -12 -17 -30 -17 -296 -6 -156 7 -706 15 -1224 18 l-941 7 202 535 c111 294
334 906 495 1360 227 642 1015 2855 1085 3052 l14 36 -243 378 -242 378 360
738 361 738 617 751 c539 657 615 754 605 770 -16 26 5 44 46 41 30 -3 1150
208 1208 227 14 5 496 375 1070 823 575 449 1055 820 1066 827 12 6 536 211
1165 456 l1143 445 1135 266 c1029 241 1227 291 2125 534 613 166 1295 343
1790 464 l800 195 635 66 635 65 546 0 547 0 1781 319 c1646 295 1785 321
1816 345 23 18 46 26 74 26 44 0 135 16 166 30 39 17 78 21 85 10 9 -15 868
142 925 169 50 24 348 78 352 64 3 -7 29 -6 76 4 40 7 99 16 132 18 34 3 351
59 705 124 499 93 762 147 1160 241 283 66 518 124 521 128 17 19 109 162 109
169 0 4 -100 28 -223 53 l-222 46 -3 165 -2 166 52 14 53 14 0 285 0 285 -53
14 -52 14 2 166 3 166 222 45 c123 25 223 49 223 53 0 7 -92 150 -109 169 -3
4 -238 61 -521 128 -399 94 -660 148 -1158 241 -354 65 -672 121 -705 124 -34
2 -94 11 -134 18 -47 10 -73 11 -76 4 -4 -14 -302 40 -352 64 -57 28 -915 184
-925 169 -7 -11 -46 -7 -85 10 -31 13 -122 30 -163 30 -24 0 -51 10 -76 26
-35 24 -192 54 -1790 342 l-1751 316 -620 6 -620 6 -590 62 -590 63 -800 196
c-494 120 -1179 298 -1790 463 -899 244 -1094 293 -2125 534 l-1135 266 -1143
445 c-629 245 -1153 450 -1164 456 -12 6 -491 378 -1066 826 -575 448 -1057
819 -1071 824 -57 19 -1178 230 -1208 227 -41 -3 -62 15 -46 41 10 16 -65 112
-605 769 l-616 751 -361 739 -361 738 242 378 243 377 -14 37 c-106 298 -865
2430 -1085 3052 -161 454 -384 1066 -495 1360 l-202 535 931 7 c512 3 1063 11
1224 18 276 11 294 11 306 -6 12 -16 15 -15 32 14 l18 32 401 2 400 1 -399 8
-400 8 -21 27 c-20 25 -23 26 -32 10 -8 -15 -25 -16 -229 -6 -120 6 -682 15
-1247 19 -568 5 -1032 12 -1037 17 -4 5 -72 180 -151 389 -78 209 -145 383
-148 386 -13 15 -749 16 -1381 3z"/>
</g>
</svg>
