<?xml version="1.0" standalone="no"?>
<!DOCTYPE svg PUBLIC "-//W3C//DTD SVG 20010904//EN"
 "http://www.w3.org/TR/2001/REC-SVG-20010904/DTD/svg10.dtd">
<svg version="1.0" xmlns="http://www.w3.org/2000/svg"
   viewBox="0 0 4066.000000 1812.000000"
 preserveAspectRatio="xMidYMid meet">
<metadata>
Created by potrace 1.16, written by Peter Selinger 2001-2019
</metadata>
<g transform="translate(0.000000,1812.000000) scale(0.100000,-0.100000)"
fill="#000000" stroke="none">
<path d="M23930 18078 c-3733 -32 -4670 -37 -5850 -33 l-1405 6 -115 -46 -115
-45 -797 0 -798 0 -131 -175 c-112 -148 -136 -175 -163 -180 -17 -3 -175 -28
-351 -55 l-320 -48 -1017 -384 -1017 -383 -497 -445 c-273 -245 -504 -449
-513 -454 -9 -6 -54 -17 -101 -26 -61 -12 -496 -171 -1530 -559 -795 -299
-1456 -549 -1470 -556 -14 -8 -675 -455 -1470 -994 l-1444 -979 -551 -689
-550 -688 -85 -5 -85 -5 -186 -122 -186 -123 -809 0 -809 0 -283 -206 -282
-207 0 -160 0 -159 155 -210 156 -209 -51 -242 c-28 -132 -52 -243 -55 -245
-2 -3 -130 -17 -284 -33 l-280 -28 -313 -161 c-172 -89 -316 -164 -320 -168
-4 -4 138 -81 314 -171 l322 -164 279 -28 c154 -16 281 -30 283 -32 2 -2 26
-112 54 -246 l51 -243 -156 -207 -155 -208 0 -161 0 -161 287 -210 288 -211
809 0 810 0 183 -120 c169 -110 188 -120 231 -120 26 0 64 -3 85 -6 35 -6 63
-39 586 -693 l549 -686 1458 -989 1457 -988 1461 -548 c1042 -391 1485 -553
1544 -564 46 -9 87 -18 91 -21 4 -2 234 -206 511 -454 l503 -449 1026 -385
1026 -386 310 -46 c171 -25 324 -48 341 -51 26 -5 50 -32 160 -179 l129 -174
797 -1 796 0 116 -45 117 -45 1722 0 c1171 0 3118 -11 6083 -36 l4361 -36 376
81 377 81 575 0 574 0 142 154 142 153 1375 294 1375 294 92 60 c62 40 178
138 346 293 l254 234 5 76 5 77 2772 865 2772 865 197 300 197 300 122 396
122 396 -32 202 c-17 110 -35 204 -39 208 -4 5 -67 19 -140 33 l-132 26 -4715
-321 -4714 -322 -4067 96 c-2237 53 -4069 99 -4073 102 -3 4 63 89 148 190
l155 184 62 201 63 201 1205 6 1206 5 105 109 c58 59 198 203 312 318 l206
210 315 124 316 124 68 144 c37 79 72 147 77 150 5 3 895 20 1977 39 l1968 33
699 434 698 433 486 222 c342 157 495 222 520 222 18 -1 221 -27 449 -58 l416
-57 584 160 584 161 56 281 57 281 -56 281 c-30 154 -60 282 -66 284 -5 3
-268 75 -584 162 l-575 158 -444 -60 -444 -61 -496 228 -497 227 -692 430
-692 430 -278 6 c-153 3 -1025 18 -1938 32 -913 15 -1678 28 -1700 31 l-40 5
-68 147 -69 147 -319 125 -319 125 -306 316 -306 316 -646 6 c-355 4 -898 7
-1207 7 l-562 0 -58 188 c-32 103 -63 196 -68 207 -6 11 -77 100 -160 198 -82
98 -146 181 -144 184 3 3 1836 48 4074 101 l4068 96 1000 -68 c550 -37 2672
-182 4715 -321 l3715 -253 135 26 c74 13 137 26 138 28 2 1 18 95 37 208 l32
206 -120 393 -120 392 -189 290 c-105 160 -197 297 -207 307 -9 9 -1217 391
-2783 879 l-2768 863 -1 76 -1 75 -256 235 c-240 220 -395 341 -457 356 -24 5
-2728 584 -2730 584 -1 0 -66 70 -144 155 l-143 155 -579 0 -579 0 -373 80
-373 80 -230 -1 c-126 -1 -2229 -19 -4674 -41z"/>
</g>
</svg>
