<?xml version="1.0" standalone="no"?>
<!DOCTYPE svg PUBLIC "-//W3C//DTD SVG 20010904//EN"
 "http://www.w3.org/TR/2001/REC-SVG-20010904/DTD/svg10.dtd">
<svg version="1.0" xmlns="http://www.w3.org/2000/svg"
   viewBox="0 0 3603.000000 482.000000"
 preserveAspectRatio="xMidYMid meet">
<metadata>
Created by potrace 1.16, written by Peter Selinger 2001-2019
</metadata>
<g transform="translate(0.000000,482.000000) scale(0.100000,-0.100000)"
fill="#000000" stroke="none">
<path d="M32460 4803 l-135 -15 -95 -85 c-150 -135 -182 -177 -281 -375 l-89
-178 0 -357 c0 -319 3 -367 20 -443 11 -47 20 -90 20 -96 0 -8 -33 -14 -88
-19 -138 -11 -143 -13 -241 -103 l-90 -82 -22 -98 c-22 -95 -24 -99 -91 -173
l-68 -76 0 -293 0 -293 68 -76 c67 -74 69 -78 91 -173 l22 -98 90 -82 c98 -90
103 -92 241 -103 55 -5 88 -11 88 -19 0 -6 -9 -49 -20 -96 -17 -76 -20 -124
-20 -443 l0 -357 89 -178 c100 -197 135 -244 281 -375 l95 -85 160 -16 c195
-20 330 -20 540 -2 257 23 387 44 599 97 163 41 237 66 415 140 279 117 445
204 546 287 153 125 289 258 418 407 171 198 280 298 338 313 37 9 78 42 244
193 l200 181 93 172 93 171 32 218 32 217 -32 218 -32 217 -93 171 -93 172
-200 181 c-166 151 -208 184 -248 196 -62 18 -160 109 -334 310 -129 149 -265
282 -418 407 -101 83 -267 170 -546 287 -178 74 -252 99 -415 140 -391 97
-818 132 -1164 94z"/>
<path d="M1274 4621 l-241 -6 -104 -84 c-57 -46 -108 -87 -112 -91 -12 -10
-52 -320 -73 -558 l-18 -202 -91 0 -91 0 -42 -43 -42 -43 0 -247 0 -247 -47 0
c-39 0 -82 -16 -228 -84 l-180 -85 -3 -523 -2 -524 177 -82 c98 -45 192 -82
208 -82 17 0 40 -3 52 -6 l23 -6 0 -247 0 -247 38 -36 c36 -36 40 -37 133 -44
l96 -7 12 -151 c12 -143 55 -509 67 -569 4 -20 36 -52 114 -116 l107 -88 174
-7 c286 -11 570 -8 818 9 l233 15 157 68 c90 39 253 122 386 199 l230 132 215
227 215 226 132 292 c73 160 133 299 133 308 0 27 11 48 26 48 10 0 14 14 14
53 0 47 5 61 45 117 l45 64 0 -287 0 -287 86 -40 87 -40 1057 0 1057 0 87 40
86 40 0 296 0 296 43 39 c23 21 46 38 50 39 5 0 26 -14 48 -32 l39 -31 0 -116
c0 -202 17 -345 53 -450 37 -106 20 -94 170 -126 l77 -17 0 -232 0 -231 68
-77 67 -77 790 -1 790 0 88 70 87 71 0 228 0 228 53 7 c28 3 77 6 107 6 l55 0
44 68 45 67 -3 275 -2 275 50 50 51 49 60 -59 60 -59 0 -303 0 -302 109 -225
110 -226 117 -125 118 -125 3418 0 3417 0 199 128 200 127 136 236 136 236 0
284 0 285 65 64 65 64 55 -54 55 -54 0 -311 0 -311 110 -224 110 -223 116
-124 116 -123 3418 0 3419 0 188 121 c103 66 196 128 205 137 9 10 75 120 147
245 l131 228 0 284 0 285 23 0 c14 0 44 22 82 60 l59 60 61 -60 c33 -33 66
-60 73 -60 9 0 12 -94 12 -412 l0 -413 98 -63 97 -63 670 6 c629 6 718 4 1460
-24 l790 -30 513 24 c283 14 541 30 575 37 40 7 250 14 587 18 l525 6 145 56
145 56 2 1279 3 1278 -158 57 -157 58 -495 3 c-393 3 -517 7 -600 20 -62 9
-308 25 -605 38 l-500 22 -710 -28 c-618 -23 -807 -27 -1454 -25 l-743 1 -94
-62 -94 -62 0 -413 c0 -330 -3 -414 -13 -414 -7 0 -39 -27 -72 -60 l-59 -60
-61 60 c-38 37 -69 60 -83 60 l-22 0 0 290 0 291 -137 237 -137 237 -198 128
-199 127 -3419 0 -3419 0 -115 -122 -116 -123 -110 -224 -110 -224 0 -316 0
-317 -52 -51 -53 -52 -67 65 -68 66 0 286 0 285 -136 236 -136 236 -199 128
-199 127 -3419 0 -3418 0 -117 -125 -117 -124 -110 -226 -109 -225 0 -301 0
-300 -57 -65 -58 -64 -53 53 -54 52 4 270 3 271 -43 66 -43 65 -61 7 c-33 3
-83 6 -109 6 l-49 0 0 233 0 232 -92 73 -91 72 -782 0 -782 0 -72 -80 -71 -81
0 -233 0 -232 -92 -19 c-51 -10 -101 -22 -110 -27 -10 -5 -29 -47 -47 -102
-33 -104 -51 -256 -51 -444 l0 -113 -31 -27 c-52 -44 -54 -44 -103 -1 l-46 41
0 296 -1 297 -82 38 -82 37 -1065 0 -1065 0 -82 -37 -82 -38 -3 -285 -3 -285
-42 62 c-37 53 -43 69 -43 112 0 37 -4 51 -14 51 -15 0 -26 21 -26 48 0 9 -59
149 -132 309 l-131 293 -219 229 -219 230 -227 130 c-125 71 -297 160 -382
197 l-155 68 -270 17 c-279 19 -306 19 -711 10z"/>
</g>
</svg>
