<?xml version="1.0" standalone="no"?>
<!DOCTYPE svg PUBLIC "-//W3C//DTD SVG 20010904//EN"
 "http://www.w3.org/TR/2001/REC-SVG-20010904/DTD/svg10.dtd">
<svg version="1.0" xmlns="http://www.w3.org/2000/svg"
   viewBox="0 0 4647.000000 1008.000000"
 preserveAspectRatio="xMidYMid meet">
<metadata>
Created by potrace 1.16, written by Peter Selinger 2001-2019
</metadata>
<g transform="translate(0.000000,1008.000000) scale(0.100000,-0.100000)"
fill="#000000" stroke="none">
<path d="M30570 10070 l-135 -5 -8 -75 c-5 -41 -11 -78 -15 -81 -4 -4 -68 -30
-142 -59 -74 -28 -156 -65 -181 -81 -25 -16 -51 -29 -58 -29 -7 0 -194 -92
-415 -205 l-402 -204 -15 -42 -15 -42 -252 -109 c-201 -88 -252 -114 -252
-129 0 -11 -3 -19 -7 -19 -55 0 -560 -63 -883 -109 -344 -50 -528 -84 -1075
-196 -363 -75 -671 -138 -685 -141 -116 -21 -2537 -172 -3340 -209 -447 -20
-2603 -167 -3006 -204 -176 -17 -954 -105 -1729 -196 l-1409 -165 -475 -106
c-262 -58 -622 -135 -801 -170 l-324 -64 -206 -123 -206 -124 -717 -172 -716
-172 -393 -44 c-309 -35 -540 -53 -1077 -85 l-684 -41 -1366 6 c-751 3 -1588
7 -1860 10 -331 4 -496 3 -501 -4 -3 -6 -149 -20 -339 -33 -242 -16 -338 -26
-347 -36 -18 -17 -180 -30 -479 -37 -126 -3 -309 -7 -406 -10 l-176 -5 -7 32
c-11 53 -98 129 -186 162 -57 21 -238 66 -266 66 -2 0 -4 -11 -4 -25 0 -31 -3
-31 -143 -4 -74 14 -112 18 -116 11 -4 -8 -51 -5 -146 7 -77 11 -176 22 -220
25 -91 8 -227 24 -267 32 -20 4 -28 12 -30 31 -3 26 -3 26 -90 24 l-88 -2 0
35 c0 20 -3 36 -6 36 -16 0 -502 61 -523 66 -21 4 -23 9 -18 42 4 20 3 43 -1
50 -10 15 -130 42 -188 42 -57 0 -125 -22 -168 -55 -35 -27 -38 -27 -112 -18
-64 8 -99 6 -208 -13 -111 -19 -148 -30 -243 -74 -103 -48 -113 -55 -127 -91
-9 -22 -16 -60 -16 -84 0 -57 -3 -58 -175 -80 -96 -11 -171 -29 -286 -65 -86
-28 -192 -57 -235 -65 -43 -8 -84 -21 -92 -28 -15 -16 -41 -151 -42 -220 0
-26 7 -80 16 -119 9 -38 12 -74 8 -78 -5 -4 -153 -60 -329 -124 -314 -115
-423 -165 -432 -197 -3 -11 -50 -34 -126 -64 -67 -26 -154 -67 -193 -92 -65
-43 -72 -51 -98 -114 l-28 -68 -125 -77 c-68 -42 -133 -78 -144 -81 -18 -5
-19 -17 -19 -343 0 -313 1 -338 18 -344 9 -4 74 -41 145 -84 l127 -77 27 -67
c25 -64 30 -71 96 -113 39 -25 126 -66 194 -92 68 -27 123 -52 123 -58 1 -27
126 -85 427 -196 181 -67 332 -125 336 -129 5 -4 1 -46 -9 -94 -16 -76 -17
-97 -6 -182 18 -140 21 -145 117 -168 44 -10 151 -41 239 -68 117 -37 196 -55
304 -69 80 -11 148 -22 152 -24 4 -3 10 -31 12 -62 9 -99 15 -106 135 -164 96
-46 124 -54 245 -73 113 -18 151 -21 213 -13 76 9 76 9 114 -21 27 -21 60 -35
107 -45 62 -12 77 -12 153 5 47 10 88 24 93 30 4 7 5 29 2 49 -7 43 -35 36
276 74 294 36 270 29 270 71 l0 36 88 -3 87 -3 3 26 c4 33 2 32 247 58 110 11
248 26 307 33 80 10 108 10 108 2 0 -8 36 -5 118 11 147 29 142 29 142 -2 0
-25 2 -26 38 -19 235 42 371 109 409 201 l18 44 280 0 c258 0 525 -10 703 -26
51 -5 72 -11 72 -20 0 -9 11 -14 29 -14 99 0 657 -43 662 -51 3 -6 187 -8 515
-4 280 2 1103 7 1829 10 l1320 6 695 -41 c554 -32 778 -50 1105 -86 l410 -45
720 -173 720 -173 205 -123 205 -123 295 -57 c162 -32 523 -108 801 -169 l506
-111 1409 -165 c775 -91 1553 -179 1729 -196 400 -37 2556 -184 3000 -204 800
-36 3189 -186 3340 -209 17 -3 327 -66 690 -141 548 -113 730 -146 1075 -196
330 -47 826 -109 881 -109 5 0 9 -9 9 -19 0 -20 -2 -19 344 -169 159 -69 160
-69 175 -111 l15 -42 402 -204 c221 -113 408 -205 415 -205 7 0 33 -13 58 -29
25 -16 107 -53 181 -81 74 -29 138 -55 142 -59 4 -3 10 -40 15 -81 l8 -75 160
-7 c336 -14 752 34 1160 136 l220 54 370 22 370 22 340 105 c187 58 458 150
602 205 l263 101 166 174 166 173 130 0 129 0 62 44 c74 52 185 101 264 116
32 6 131 17 220 24 157 14 164 15 201 45 l39 30 15 -37 c9 -24 27 -44 49 -56
35 -19 37 -18 520 33 l484 52 290 75 c160 42 415 116 567 165 257 84 297 100
562 229 218 107 290 147 306 170 12 16 34 67 49 112 l28 83 84 11 c50 7 354
90 744 202 588 170 679 199 830 265 133 58 820 317 840 317 3 0 5 -21 5 -46 0
-25 9 -78 21 -118 19 -66 25 -75 67 -103 109 -72 168 -89 517 -147 l330 -55
700 -2 700 -3 85 33 c73 28 189 101 190 120 1 3 21 28 45 55 l44 50 208 7
c178 6 216 10 261 28 74 30 112 57 151 109 29 38 35 55 39 113 5 73 -7 118
-41 156 l-19 22 43 22 c24 12 154 75 289 139 368 175 660 361 1022 650 l276
220 125 0 125 0 223 233 224 233 87 224 87 223 -88 213 -87 212 -219 236 -220
236 -122 0 -122 0 -288 228 c-381 300 -637 462 -1062 669 l-294 143 20 23 c34
38 46 83 41 156 -4 58 -10 75 -39 113 -39 53 -78 80 -151 108 -44 17 -87 21
-261 27 l-207 6 -56 65 c-83 97 -127 128 -234 164 l-95 32 -690 -3 -690 -2
-343 -60 c-321 -56 -348 -63 -425 -100 -45 -22 -91 -48 -103 -57 -26 -22 -64
-144 -64 -206 0 -25 -4 -46 -8 -46 -22 0 -725 266 -857 324 -131 58 -235 91
-812 256 -364 104 -699 195 -744 202 l-82 13 -29 84 c-16 49 -39 97 -55 114
-17 17 -141 85 -303 167 -261 131 -289 142 -555 228 -154 50 -410 124 -570
166 l-290 75 -484 52 c-483 51 -485 51 -520 33 -22 -12 -40 -32 -49 -56 l-15
-37 -39 30 c-37 30 -44 31 -201 45 -89 7 -188 18 -220 24 -79 15 -190 64 -264
116 l-62 44 -129 0 -130 0 -166 173 -166 174 -263 101 c-144 55 -415 147 -602
205 l-340 105 -370 22 -370 22 -220 54 c-121 30 -302 68 -402 84 -165 27 -555
63 -622 58 -14 -1 -87 -5 -161 -8z"/>
</g>
</svg>
