<?xml version="1.0" standalone="no"?>
<!DOCTYPE svg PUBLIC "-//W3C//DTD SVG 20010904//EN"
 "http://www.w3.org/TR/2001/REC-SVG-20010904/DTD/svg10.dtd">
<svg version="1.0" xmlns="http://www.w3.org/2000/svg"
   viewBox="0 0 1087.000000 3487.000000"
 preserveAspectRatio="xMidYMid meet">
<metadata>
Created by potrace 1.16, written by Peter Selinger 2001-2019
</metadata>
<g transform="translate(0.000000,3487.000000) scale(0.100000,-0.100000)"
fill="#000000" stroke="none">
<path d="M4117 34683 c-4 -104 -7 -227 -7 -275 l0 -86 -101 -239 -100 -238
-250 -251 -250 -250 -424 -260 -424 -259 -1 -355 c0 -195 -3 -365 -6 -378 l-7
-23 -276 6 c-152 3 -297 8 -323 11 l-48 5 0 -81 c0 -44 -1 -80 -2 -81 -2 0
-203 -26 -448 -57 l-445 -57 -3 -447 -2 -446 57 -6 c32 -3 216 -17 408 -31
471 -34 435 -28 435 -75 l0 -38 -412 -102 c-227 -55 -430 -105 -451 -111 l-37
-10 2 -857 3 -857 440 -62 c242 -34 443 -62 448 -62 4 -1 7 -140 7 -311 l0
-310 164 0 c146 0 166 -2 187 -19 l24 -19 3 -509 c2 -421 0 -555 -16 -781 -11
-150 -21 -274 -23 -276 -2 -2 -236 -14 -519 -26 -466 -19 -551 -26 -890 -66
-206 -24 -384 -47 -396 -49 -17 -4 -26 -21 -44 -84 l-22 -79 -182 -75 -181
-75 0 -293 0 -294 180 -66 180 -66 25 -71 24 -70 44 -7 c27 -4 42 -11 39 -18
-2 -7 -12 -35 -21 -63 l-17 -51 51 -164 c49 -155 58 -174 168 -359 l116 -196
509 -249 508 -249 290 -373 290 -373 88 -337 c49 -186 123 -480 164 -653 l76
-315 46 -690 c25 -379 48 -718 51 -752 l6 -61 -43 -6 c-24 -3 -87 -10 -139
-15 -52 -6 -116 -14 -142 -17 l-48 -7 0 32 0 31 -102 -1 c-57 -1 -151 -4 -209
-8 l-106 -6 -99 -109 -100 -109 9 -86 c4 -47 9 -86 10 -88 2 -1 26 1 55 6 29
4 52 5 52 1 0 -5 -26 -12 -57 -18 -32 -5 -253 -43 -491 -83 l-432 -74 0 -577
0 -578 23 0 c33 -1 894 -88 880 -89 -10 -1 -13 -35 -13 -134 l0 -133 109 -97
110 -96 168 15 c127 12 171 20 180 32 7 8 14 14 16 11 13 -17 372 -1163 476
-1519 l129 -445 71 -540 70 -540 18 -507 17 -508 93 0 93 0 0 -85 0 -85 -245
0 -245 0 0 -285 0 -285 240 0 240 0 0 -90 0 -90 -240 0 -240 0 0 -285 0 -285
240 0 240 0 0 -110 0 -110 -240 0 -240 0 0 -280 0 -280 240 0 240 0 0 -112 c0
-62 3 -122 6 -133 3 -13 -9 -39 -38 -78 l-43 -58 -18 23 c-19 22 -19 22 -270
19 l-252 -3 -143 -106 -142 -107 6 -75 c4 -41 8 -76 9 -78 2 -2 51 1 109 5 65
5 105 5 103 -1 -2 -5 -141 -36 -310 -70 l-307 -60 0 -396 0 -396 275 -38 c151
-22 275 -41 275 -44 0 -2 -43 -1 -95 3 l-95 7 1 -89 c0 -48 4 -109 7 -136 l7
-47 165 -93 165 -92 249 21 c205 17 251 24 261 38 11 15 26 12 168 -37 l155
-53 218 33 c121 18 227 33 237 33 16 0 17 -90 17 -1760 l0 -1759 65 -913 c35
-502 80 -1147 100 -1433 39 -571 72 -1006 110 -1450 l25 -290 99 -305 c55
-167 99 -305 98 -307 -4 -3 -1061 38 -1094 43 -20 3 -33 11 -33 19 0 8 -6 15
-12 15 -7 0 -73 9 -146 19 l-134 18 -119 -96 -119 -96 0 -72 0 -73 30 0 c25 0
30 -4 30 -25 0 -14 -6 -25 -12 -25 -16 0 -544 -78 -575 -85 l-23 -5 0 -304 0
-303 98 -7 c53 -3 151 -8 217 -11 66 -3 139 -8 163 -11 l42 -5 0 -98 0 -97
110 -97 109 -98 186 28 c141 21 185 31 185 42 0 12 153 13 1143 8 l1142 -7
414 46 414 46 212 168 212 169 47 131 47 131 -48 127 -47 127 -213 145 -213
145 -222 38 c-123 21 -224 40 -227 42 -2 3 39 145 92 317 l95 313 13 293 c13
318 14 311 -38 312 l-23 0 0 535 0 535 -40 0 -40 0 0 105 0 105 -40 0 -40 0 0
570 c0 563 0 570 20 570 20 0 20 7 20 320 l0 320 -25 0 -25 0 0 135 0 135 25
0 25 0 0 124 0 124 113 6 c61 4 147 14 190 23 67 14 77 19 77 37 -1 24 162
3250 164 3253 1 1 93 7 206 13 l205 12 245 109 c151 68 380 183 596 301 l350
190 53 94 c41 72 58 118 75 194 l23 99 -25 94 c-21 83 -32 105 -96 193 l-72
99 -305 167 c-200 110 -396 208 -574 287 l-270 120 -260 32 c-143 18 -264 35
-268 39 -4 4 -3 162 3 351 l12 344 74 269 75 268 223 262 c123 143 298 348
389 455 l167 194 0 149 0 148 311 0 310 0 -3 2041 -3 2041 150 -6 c147 -7 158
-6 550 53 l400 59 204 105 204 105 109 172 109 172 30 197 31 197 -31 197 -31
196 -108 173 -109 173 -209 106 -209 107 -425 67 c-234 36 -435 69 -447 72
l-23 5 0 657 c-1 595 3 738 36 1536 21 484 38 881 39 882 0 1 149 21 330 43
267 34 384 54 615 105 247 55 311 73 480 138 l195 74 5 167 5 166 305 266 305
266 83 243 84 244 -84 240 -83 241 -282 252 -283 253 -1 140 c-1 77 -4 166 -8
198 l-6 59 -215 79 c-198 73 -234 83 -455 125 -453 85 -1024 174 -1125 175
-52 1 -122 4 -155 8 -57 6 -60 8 -65 35 -5 29 -9 31 -185 83 -99 29 -207 57
-240 61 l-60 7 -7 358 c-3 197 -9 373 -12 390 -5 31 -1 35 97 108 81 60 139
92 278 154 l176 79 18 87 c9 47 20 91 24 97 3 5 85 31 181 57 96 26 184 52
195 57 11 6 155 86 320 179 l300 169 158 199 157 200 29 490 28 490 -28 486
c-16 267 -32 492 -36 499 -5 7 -75 98 -157 202 l-150 190 -322 193 -323 193
-510 86 -511 87 -5 30 c-15 96 -25 825 -25 1753 l0 1062 -1688 0 -1689 0 -6
-187z m2903 -12210 c-1 -607 -6 -953 -24 -1506 -13 -395 -26 -720 -28 -723 -8
-8 -2542 28 -2551 36 -5 4 -38 340 -74 746 l-66 739 17 310 17 310 70 341 c38
188 82 381 97 429 l27 87 365 -1 c201 -1 475 -3 610 -6 135 -3 461 1 725 8
264 8 555 15 648 16 l167 1 0 -787z m-1060 -16408 l0 -115 25 0 25 0 0 -135 0
-135 -25 0 -25 0 0 -320 c0 -313 0 -320 20 -320 20 0 20 -7 20 -570 l0 -570
-40 0 -40 0 0 -105 0 -105 -30 0 -30 0 0 115 c0 110 -1 115 -21 115 -17 0 -20
4 -15 23 3 12 6 48 6 80 0 50 2 57 20 57 20 0 20 7 20 500 l0 500 -24 0 c-21
0 -24 6 -30 53 -3 28 -6 154 -6 280 l0 227 59 43 60 42 0 228 c1 195 3 227 16
227 12 0 15 -19 15 -115z m-469 -382 l59 -43 0 -137 c0 -76 -3 -202 -7 -280
-6 -141 -6 -143 -30 -143 l-23 0 0 -500 c0 -493 0 -500 20 -500 18 0 20 -7 20
-57 0 -32 3 -68 6 -80 5 -20 2 -23 -20 -23 l-26 0 0 -115 0 -115 -69 0 -69 0
-6 68 c-26 301 -28 583 -11 1248 l18 679 36 51 36 51 3 -31 c3 -25 15 -39 63
-73z"/>
</g>
</svg>
