<?xml version="1.0" standalone="no"?>
<!DOCTYPE svg PUBLIC "-//W3C//DTD SVG 20010904//EN"
 "http://www.w3.org/TR/2001/REC-SVG-20010904/DTD/svg10.dtd">
<svg version="1.0" xmlns="http://www.w3.org/2000/svg"
   viewBox="0 0 4548.000000 3131.000000"
 preserveAspectRatio="xMidYMid meet">
<metadata>
Created by potrace 1.16, written by Peter Selinger 2001-2019
</metadata>
<g transform="translate(0.000000,3131.000000) scale(0.100000,-0.100000)"
fill="#000000" stroke="none">
<path d="M30655 31282 c-341 -13 -622 -26 -624 -28 -1 -1 3 -264 10 -583 7
-320 10 -583 7 -586 -3 -3 -106 -16 -229 -28 -209 -21 -224 -24 -224 -42 0
-18 -60 -29 -909 -167 -499 -81 -910 -149 -913 -152 -3 -3 0 -76 7 -161 7 -86
9 -159 6 -162 -3 -4 -161 -16 -350 -27 l-344 -20 53 -107 c222 -441 516 -1056
521 -1088 l6 -39 -73 -22 c-41 -12 -77 -22 -81 -23 -5 -1 10 -31 31 -67 22
-36 38 -66 36 -68 -1 -2 -1302 -43 -2890 -92 -1588 -49 -2889 -90 -2890 -92
-2 -2 127 -37 287 -78 274 -71 287 -75 242 -82 -27 -3 -94 -7 -148 -7 l-99 -1
7 -235 6 -235 -60 0 c-42 0 -62 -4 -66 -13 -3 -8 -1 -141 3 -296 7 -246 6
-282 -7 -285 -8 -3 -194 -19 -414 -37 -219 -18 -394 -34 -390 -36 5 -1 191
-43 413 -93 223 -50 406 -92 408 -94 2 -1 6 -51 10 -109 5 -89 9 -107 22 -107
126 0 783 30 1480 66 481 25 888 44 905 42 17 -2 -64 -9 -181 -17 l-212 -14
47 -36 c26 -21 81 -62 122 -93 l75 -56 445 -85 c245 -48 490 -92 545 -98 55
-7 106 -15 113 -18 7 -4 -26 -23 -75 -43 l-88 -37 -385 -10 c-285 -8 -401 -14
-445 -26 -41 -10 -238 -25 -610 -45 -302 -17 -587 -33 -631 -36 l-82 -7 -7
-148 -7 -149 -42 -11 c-22 -6 -46 -15 -52 -20 -6 -5 -80 -165 -164 -355 -85
-190 -159 -348 -165 -351 -7 -2 -241 -59 -522 -126 l-511 -122 -1559 -1385
-1559 -1385 -2779 -574 c-1529 -316 -2781 -575 -2782 -576 -2 -1 4 -350 11
-776 8 -426 13 -774 13 -775 -1 -1 -1045 -54 -2321 -119 -1427 -73 -2324 -115
-2332 -109 -8 5 -199 290 -425 634 -226 344 -416 630 -423 637 -10 10 -187 6
-744 -20 l-84 -4 8 234 c4 135 3 233 -2 234 -5 0 -399 -28 -876 -63 -747 -54
-867 -65 -864 -78 3 -8 8 -102 11 -207 l7 -193 -28 0 c-16 1 -397 -14 -848
-32 l-819 -32 -691 -256 -691 -256 -5 -324 c-5 -267 -13 -400 -44 -745 -21
-231 -42 -422 -46 -425 -5 -3 -331 -72 -727 -154 l-718 -149 -128 -358 -127
-358 126 -316 c70 -174 132 -318 138 -320 6 -3 340 -50 741 -106 402 -56 731
-102 732 -103 2 -2 53 -1689 53 -1767 l0 -65 703 -152 702 -152 833 -94 c459
-52 835 -96 836 -98 0 -2 -1 -59 -4 -127 -3 -78 -1 -125 5 -126 10 -3 1701
-126 1723 -125 9 0 12 25 12 90 l0 90 38 -1 c20 0 60 -4 87 -8 l50 -8 755 759
755 758 2310 -96 c1271 -53 2311 -97 2312 -98 1 -1 -12 -311 -29 -689 -16
-378 -28 -694 -25 -701 3 -8 107 -94 232 -192 l226 -179 2582 -468 c2021 -366
2586 -472 2602 -486 11 -10 708 -634 1550 -1387 l1529 -1368 521 -127 520
-126 153 -344 c84 -189 158 -349 165 -355 7 -6 31 -16 53 -22 l42 -12 7 -149
7 -148 82 -6 c44 -4 558 -34 1141 -67 678 -38 1082 -65 1120 -74 38 -9 62 -10
66 -4 4 6 60 6 161 -1 150 -9 170 -14 624 -129 l469 -120 524 -6 c289 -3 527
-8 529 -11 6 -6 -54 -704 -61 -712 -7 -7 -1466 70 -1479 78 -8 5 -7 52 2 164
7 86 10 158 7 161 -6 7 -3480 191 -3737 199 -107 3 -261 8 -342 11 l-146 5 -7
-110 -8 -110 -41 -9 c-309 -66 -774 -178 -751 -180 17 -2 199 -18 405 -35
l375 -32 0 -295 c0 -273 1 -295 18 -298 9 -2 17 -9 17 -15 0 -7 -18 -115 -40
-242 -22 -126 -40 -236 -40 -242 0 -9 16 -13 48 -13 30 0 158 -32 352 -89
l305 -88 1060 -7 c1003 -7 1134 -10 2439 -56 759 -28 1396 -50 1418 -50 24 0
38 -5 38 -12 -1 -7 -19 -42 -40 -78 l-40 -65 35 -8 c29 -7 34 -13 30 -30 -2
-12 -9 -89 -16 -172 l-12 -150 -172 -505 -173 -505 251 -5 252 -5 93 -123 93
-122 211 0 c205 0 218 -1 482 -46 149 -26 273 -48 275 -50 2 -2 -6 -31 -18
-65 -13 -33 -21 -63 -18 -65 3 -3 112 9 243 26 l239 31 102 -17 c93 -16 101
-19 92 -36 -15 -29 -2 -38 53 -38 l50 0 -4 -55 -5 -55 234 0 233 0 -1 -297 c0
-164 -8 -437 -18 -608 -10 -170 -17 -311 -17 -311 1 -1 276 -11 611 -23 336
-11 637 -23 670 -25 l60 -5 60 108 c52 95 826 1243 833 1236 2 -2 62 -3147 62
-3282 l0 -53 45 0 45 0 1 258 c0 141 8 968 18 1837 l17 1580 406 715 c257 453
402 717 394 721 -6 3 -92 21 -191 40 -99 19 -171 35 -159 37 26 4 23 -26 60
562 l28 435 -38 230 c-21 127 -42 247 -47 268 l-10 39 -52 -7 -52 -6 100 61
c55 34 109 70 119 81 20 18 20 27 -15 909 -20 490 -39 893 -43 897 -3 4 -158
17 -344 30 -185 12 -487 34 -671 48 -183 14 -334 25 -335 23 -2 -2 -132 -311
-291 -688 -158 -377 -291 -688 -294 -691 -3 -4 -134 -16 -291 -27 -212 -14
-324 -18 -435 -12 l-151 7 -287 133 c-158 73 -290 131 -292 128 -3 -3 12 -43
34 -89 21 -46 35 -85 30 -87 -4 -2 -121 13 -259 34 l-251 37 -97 -65 -97 -64
-294 8 c-162 4 -296 9 -297 11 -2 2 77 23 175 47 l179 44 43 105 44 106 201
25 200 25 254 202 c214 170 258 209 272 243 l17 41 280 -7 280 -7 -30 112
c-17 62 -28 115 -26 118 3 2 57 7 121 10 l116 6 0 72 0 73 43 -5 43 -5 12 323
c7 178 15 366 19 417 l6 92 -67 0 -66 0 0 85 0 85 -40 0 c-33 0 -40 3 -40 20
0 11 -7 20 -15 20 -8 0 -15 -9 -15 -20 0 -13 -7 -20 -19 -20 -16 0 5 55 136
362 85 200 299 703 475 1118 177 415 323 757 325 760 3 2 277 24 611 47 459
32 768 59 1270 114 l662 72 0 31 c0 17 4 37 8 43 5 7 1218 290 2761 643 1515
346 2756 631 2758 634 2 2 64 322 138 711 73 388 135 708 138 711 2 3 552 118
1222 257 l1217 252 60 85 60 85 -4 150 -3 149 43 9 c23 4 42 14 42 20 1 30 58
478 62 482 3 3 235 63 518 135 282 71 515 131 516 133 2 2 -266 84 -595 182
-330 98 -604 181 -609 184 -5 3 -14 188 -19 411 -11 398 -11 407 -38 497 l-28
92 -51 11 c-28 5 -577 109 -1220 229 -642 121 -1169 221 -1171 223 -5 6 -194
983 -190 986 1 2 1367 23 3035 47 1667 24 3033 45 3035 47 2 2 -1370 20 -3048
41 -1679 21 -3055 41 -3058 45 -4 4 -17 61 -29 127 l-22 120 -2744 650 -2744
650 0 47 c0 27 -4 48 -8 48 -5 0 -181 25 -393 55 l-384 55 -885 55 c-486 31
-887 59 -891 63 -11 11 -1221 3273 -1216 3278 3 4 1139 23 1373 24 l101 0 33
-114 33 -114 31 4 c17 3 319 25 671 49 352 25 646 47 653 50 8 3 12 27 12 70
l0 65 293 1 c160 1 947 7 1747 13 800 7 1259 14 1020 14 -617 3 -3054 22
-3056 25 -1 1 14 353 32 782 19 429 33 793 32 809 -3 25 -17 36 -118 95 l-115
66 78 3 c42 2 77 6 77 10 0 4 -11 221 -25 482 -14 274 -25 591 -25 749 0 244
-2 275 -17 286 -15 11 -11 34 44 286 34 151 63 279 64 285 2 5 -155 278 -350
605 -294 494 -433 713 -825 1306 l-471 711 -35 0 c-19 -1 -314 -12 -655 -26z
m-3021 -3451 c4 -5 -35 -12 -86 -15 -179 -12 -1285 -66 -1329 -65 -24 1 276
21 666 44 391 23 718 43 727 44 9 0 19 -3 22 -8z m-1506 -88 c-21 -2 -57 -2
-80 0 -24 2 -7 4 37 4 44 0 63 -2 43 -4z m-201 -10 c-20 -2 -52 -2 -70 0 -17
2 0 4 38 4 39 0 53 -2 32 -4z m-189 -10 c-16 -2 -40 -2 -55 0 -16 2 -3 4 27 4
30 0 43 -2 28 -4z m-195 -10 c-13 -2 -33 -2 -45 0 -13 2 -3 4 22 4 25 0 35 -2
23 -4z m-195 -10 c-10 -2 -26 -2 -35 0 -10 3 -2 5 17 5 19 0 27 -2 18 -5z
m-191 -9 c-3 -3 -12 -4 -19 -1 -8 3 -5 6 6 6 11 1 17 -2 13 -5z m2653 -906 c0
-18 3 -42 6 -53 5 -20 -6 -21 -802 -63 -443 -24 -808 -42 -809 -40 -2 2 -6 29
-10 61 l-7 57 33 1 c19 0 365 15 769 33 404 19 754 34 778 35 41 1 42 0 42
-31z m53 -494 c21 -196 37 -357 35 -359 -2 -1 -275 -9 -608 -18 l-605 -15
-315 -82 c-173 -44 -323 -83 -332 -86 -17 -5 -18 6 -18 134 0 76 3 186 6 244
l7 106 93 4 c51 2 96 7 99 10 4 3 1 76 -6 162 -7 86 -9 159 -5 163 6 6 1366
85 1571 92 l40 1 38 -356z m-2990 -141 c-7 -2 -19 -2 -25 0 -7 3 -2 5 12 5 14
0 19 -2 13 -5z m-160 -10 c-13 -2 -33 -2 -45 0 -13 2 -3 4 22 4 25 0 35 -2 23
-4z m-160 -10 c-18 -2 -48 -2 -65 0 -18 2 -4 4 32 4 36 0 50 -2 33 -4z m3862
-233 c3 -5 2 -10 -4 -10 -5 0 -13 5 -16 10 -3 6 -2 10 4 10 5 0 13 -4 16 -10z
m2121 -130 c10 -24 23 -40 33 -40 9 0 161 12 338 27 178 15 325 24 328 21 3
-3 66 -215 139 -472 l133 -466 -376 1 c-207 1 -544 5 -750 8 l-374 6 -71 190
-71 189 -373 198 -373 198 -142 11 c-78 6 -143 12 -144 13 -2 2 1616 153 1660
155 23 1 30 -5 43 -39z m-4896 -111 c-52 -4 -120 -7 -151 -8 -55 -1 -57 0 -61
27 l-4 27 156 -20 155 -20 -95 -6z m1265 -19024 c374 -19 704 -38 733 -41 l52
-5 0 -40 0 -39 -47 0 c-68 0 -1445 78 -1448 82 -7 9 9 78 19 78 6 0 317 -16
691 -35z m-2947 -1012 c-10 -2 -28 -2 -40 0 -13 2 -5 4 17 4 22 1 32 -1 23 -4z
m229 -10 c-20 -2 -52 -2 -70 0 -17 2 0 4 38 4 39 0 53 -2 32 -4z m1694 -63
c1804 -70 1719 -66 1719 -92 0 -19 -5 -20 -97 -14 -54 4 -570 29 -1148 57
-1105 52 -2108 106 -2039 108 23 0 727 -26 1565 -59z"/>
</g>
</svg>
