<?xml version="1.0" standalone="no"?>
<!DOCTYPE svg PUBLIC "-//W3C//DTD SVG 20010904//EN"
 "http://www.w3.org/TR/2001/REC-SVG-20010904/DTD/svg10.dtd">
<svg version="1.0" xmlns="http://www.w3.org/2000/svg"
   viewBox="0 0 3651.000000 2221.000000"
 preserveAspectRatio="xMidYMid meet">
<metadata>
Created by potrace 1.16, written by Peter Selinger 2001-2019
</metadata>
<g transform="translate(0.000000,2221.000000) scale(0.100000,-0.100000)"
fill="#000000" stroke="none">
<path d="M6335 22104 l-1530 -104 -1510 -186 c-830 -102 -1510 -186 -1511
-187 -1 -1 -6 -54 -13 -118 -6 -64 -11 -287 -11 -507 l0 -392 -53 -71 c-43
-58 -78 -89 -198 -175 l-147 -104 -403 0 -404 1 -64 89 -64 90 -113 0 -112 0
-87 -121 c-48 -67 -92 -134 -98 -148 -14 -32 -23 -3849 -9 -4151 l9 -195 94
-132 94 -133 51 0 c28 0 79 3 113 6 l62 7 65 88 65 89 399 0 400 0 147 -109
148 -109 179 -286 180 -286 325 5 c179 3 729 10 1221 15 492 5 1596 22 2452
37 1014 18 1561 24 1568 17 20 -20 -1 -53 -37 -60 -43 -8 -44 -9 -126 -286
l-64 -217 20 -35 21 -35 -102 -211 c-66 -136 -112 -248 -132 -317 -17 -60 -47
-157 -65 -218 -19 -60 -36 -126 -40 -145 -3 -21 10 -128 33 -260 l37 -225 175
-132 c225 -170 220 -165 220 -205 1 -63 17 -71 246 -122 199 -43 211 -45 259
-32 28 7 65 21 83 30 33 17 40 16 225 -15 l192 -32 243 13 c134 7 245 10 248
7 3 -3 -5 -58 -18 -124 l-24 -118 -79 -21 c-58 -15 -213 -87 -562 -263 l-483
-241 0 -238 0 -237 -93 -36 -92 -36 0 -123 0 -122 93 -35 92 -36 0 -228 0
-229 488 -244 c353 -176 507 -248 559 -260 l71 -18 15 -66 c26 -113 40 -192
36 -197 -2 -2 -113 3 -247 10 l-242 14 -196 -34 -196 -33 -45 23 c-79 43 -111
42 -335 -10 -215 -51 -237 -61 -239 -114 0 -14 -3 -34 -7 -43 -4 -9 -81 -71
-172 -138 -91 -67 -176 -131 -190 -143 -23 -21 -29 -44 -63 -257 l-39 -235 36
-120 c20 -66 51 -174 71 -240 24 -84 66 -183 137 -328 l101 -208 -20 -41 -19
-41 64 -216 c81 -276 82 -277 125 -285 60 -11 57 -56 -3 -56 -14 0 -689 11
-1500 25 -811 13 -1929 29 -2485 34 -555 6 -1129 13 -1275 16 l-266 6 -179
-286 -180 -287 -147 -109 -148 -109 -400 0 -399 0 -65 89 -65 88 -68 6 c-37 4
-88 7 -113 7 l-45 -1 -94 -132 -95 -132 -8 -195 c-14 -305 -5 -4119 9 -4151 6
-14 50 -81 98 -148 l87 -121 112 0 113 0 64 90 64 89 404 1 403 0 147 -104
c120 -86 155 -117 198 -175 l53 -71 0 -396 c0 -365 13 -624 30 -624 4 0 679
-83 1501 -184 l1494 -184 1601 -108 1602 -108 1823 72 1824 72 2110 219 2110
220 2098 450 c2122 456 3783 829 4487 1009 l385 99 19 66 c11 41 25 68 35 71
9 3 680 205 1491 450 811 244 1806 544 2210 666 404 121 839 253 965 292 349
108 914 321 1832 692 725 292 919 375 1508 646 372 170 677 310 679 310 2 0
-4 -37 -14 -83 l-17 -83 1096 625 1096 625 988 702 987 702 405 503 c223 276
403 504 402 505 -5 5 -1117 -279 -2177 -556 -636 -167 -1187 -304 -1499 -375
l-494 -111 -86 19 -86 19 -1215 -271 c-1079 -241 -1281 -289 -1805 -431 -523
-141 -640 -169 -1030 -245 l-440 -87 -188 102 -187 101 -441 12 -441 12 -1970
-97 c-1083 -53 -2220 -112 -2526 -130 l-557 -34 -884 268 c-486 147 -891 274
-900 281 -9 8 -113 90 -231 184 l-215 171 -635 21 c-349 11 -670 22 -713 23
l-79 3 -66 -160 -67 -160 -240 -22 -240 -23 -585 90 c-322 50 -600 93 -619 96
l-33 5 6 97 c19 314 18 383 -8 625 -14 131 -26 244 -26 251 0 7 -300 307 -666
667 l-666 654 162 21 c142 19 193 21 409 16 l247 -5 9 39 c10 38 11 38 75 49
36 6 79 19 97 28 44 23 56 22 76 -11 9 -15 31 -44 49 -64 l33 -37 610 34 c336
19 618 34 627 35 13 0 25 27 50 107 l33 107 480 291 480 292 3 374 2 374 -483
293 -483 293 -32 103 -31 103 -78 7 c-43 3 -325 20 -628 37 l-549 31 -26 -28
c-14 -16 -37 -44 -51 -62 l-26 -34 -51 26 c-30 15 -78 29 -113 33 -56 6 -60 8
-66 34 l-5 29 -201 0 c-158 0 -241 5 -391 25 -105 14 -195 27 -200 28 -4 2
286 293 645 647 l654 644 23 190 c26 206 32 455 18 689 l-8 127 26 0 c14 0
290 41 613 90 l589 90 244 -23 245 -22 67 -160 66 -160 89 3 c48 1 369 12 713
23 l624 21 232 184 233 185 882 270 882 269 586 -35 c322 -19 1459 -78 2526
-130 l1940 -96 440 12 440 11 190 100 190 99 440 -86 c380 -75 518 -107 1015
-240 476 -127 787 -201 1809 -431 l1234 -277 81 19 81 20 495 -112 c306 -69
871 -210 1480 -369 1084 -283 2192 -566 2197 -562 1 2 -180 229 -402 506
l-405 503 -982 701 -983 701 -1080 616 c-594 339 -1089 622 -1101 628 l-21 11
17 -84 c10 -47 16 -85 14 -85 -2 0 -309 140 -681 311 -590 270 -784 353 -1508
646 -837 337 -1480 582 -1808 687 -98 31 -449 137 -780 236 -434 128 -3026
908 -3908 1176 -11 3 -23 29 -34 69 -16 57 -21 65 -49 74 -17 6 -209 55 -426
110 -722 183 -2301 538 -4420 992 l-2095 450 -2115 220 -2115 220 -1765 69
c-971 38 -1817 69 -1880 69 -63 -1 -803 -48 -1645 -105z m2503 -7400 c346 -39
433 -52 437 -64 2 -8 20 -125 40 -260 l35 -245 -128 -628 c-71 -345 -132 -630
-136 -635 -4 -4 -123 -6 -265 -6 l-257 2 -199 52 c-175 45 -204 55 -235 84
-57 53 -59 54 -225 91 -130 30 -172 36 -221 31 l-62 -6 -49 57 c-42 49 -58 80
-101 202 -29 79 -52 152 -52 163 0 11 18 83 40 161 33 117 60 182 152 369
l112 227 73 17 c86 21 73 -1 153 271 l57 198 -18 36 c-10 20 -15 45 -12 57 5
20 13 18 217 -52 l211 -73 433 -49z m4262 -585 l0 -371 -195 -263 -196 -263
-62 -6 c-119 -11 -595 -26 -992 -32 l-400 -6 -95 -29 c-52 -15 -95 -27 -97
-26 -1 2 115 210 259 463 219 384 273 488 333 634 l71 175 35 3 c114 11 1234
90 1282 91 l57 1 0 -371z m-4005 -4801 c3 -13 61 -300 130 -638 l125 -615 -36
-250 c-21 -137 -38 -251 -39 -253 -2 -2 -198 -25 -436 -52 l-434 -49 -209 -72
c-227 -78 -241 -79 -207 -10 18 35 18 38 -6 121 -59 206 -105 356 -112 363 -5
5 -40 16 -77 26 l-69 17 -106 209 c-95 185 -112 227 -156 380 l-49 171 58 159
c52 142 64 165 105 207 l47 48 61 -6 c47 -4 87 1 190 26 202 48 204 49 252 93
43 39 55 44 241 93 l197 53 262 0 263 1 5 -22z m2080 -272 c77 -23 94 -24 480
-30 397 -6 873 -21 992 -32 l62 -6 196 -263 195 -263 0 -366 c0 -342 -1 -366
-17 -366 -10 0 -308 20 -663 45 -355 25 -656 45 -670 45 -23 0 -30 13 -89 163
-54 134 -106 235 -309 592 -134 237 -255 450 -269 473 -22 39 -23 43 -7 38 11
-3 55 -16 99 -30z"/>
</g>
</svg>
