<?xml version="1.0" standalone="no"?>
<!DOCTYPE svg PUBLIC "-//W3C//DTD SVG 20010904//EN"
 "http://www.w3.org/TR/2001/REC-SVG-20010904/DTD/svg10.dtd">
<svg version="1.0" xmlns="http://www.w3.org/2000/svg"
   viewBox="0 0 4770.000000 2196.000000"
 preserveAspectRatio="xMidYMid meet">
<metadata>
Created by potrace 1.16, written by Peter Selinger 2001-2019
</metadata>
<g transform="translate(0.000000,2196.000000) scale(0.100000,-0.100000)"
fill="#000000" stroke="none">
<path d="M575 21928 l-60 -30 -159 -292 -159 -291 -98 -470 -97 -469 95 -238
c52 -131 107 -253 121 -271 15 -18 164 -156 332 -307 168 -150 319 -286 336
-302 50 -47 293 -131 931 -323 l582 -176 213 -103 c176 -85 238 -109 356 -141
l142 -38 0 -149 0 -148 551 0 552 0 114 -31 115 -32 89 -133 c101 -151 83
-138 299 -214 l135 -48 3 -116 3 -116 -956 0 -956 0 -385 -45 -384 -45 -738 0
-737 -1 -122 -112 -122 -112 0 -1796 -1 -1797 124 -116 124 -116 749 0 749 0
376 -59 c310 -49 384 -64 427 -85 l51 -26 -5 -188 c-3 -103 -8 -224 -11 -269
l-6 -83 -41 -11 c-23 -6 -63 -16 -88 -24 -54 -15 -610 -243 -622 -254 -4 -4
-55 -117 -112 -250 l-105 -241 -21 -440 -21 -440 21 -440 21 -440 105 -241
c57 -133 108 -246 112 -250 11 -11 581 -244 618 -253 17 -4 53 -14 82 -22 l51
-15 6 -82 c3 -45 8 -166 11 -269 l5 -188 -50 -25 c-42 -21 -119 -37 -428 -85
l-377 -60 -749 0 -748 0 -124 -116 -124 -116 1 -1797 0 -1796 122 -112 122
-112 739 -1 739 0 384 -45 383 -45 955 0 956 0 -3 -116 -3 -116 -135 -47
c-216 -76 -197 -62 -299 -215 -50 -75 -93 -136 -96 -136 -3 0 -54 -14 -115
-30 l-110 -30 -550 0 -550 0 0 -148 0 -149 -142 -38 c-118 -32 -180 -56 -356
-141 l-214 -103 -581 -175 c-607 -183 -881 -277 -926 -319 -14 -13 -164 -148
-333 -300 -169 -151 -320 -290 -336 -308 -18 -21 -65 -125 -124 -274 l-96
-241 97 -469 98 -470 159 -291 159 -292 62 -31 62 -30 153 15 c150 16 173 22
1122 290 l969 275 261 20 261 20 1415 371 1415 371 290 148 c280 143 303 152
661 278 l371 131 2549 0 2549 0 313 117 313 117 105 202 105 203 9 158 c17
287 13 406 -21 626 -25 163 -37 218 -68 296 l-39 96 -4 410 -5 410 113 545
113 545 170 494 c94 272 173 496 175 499 3 2 592 7 1309 10 1276 5 1305 5
1310 -14 51 -177 29 -140 343 -558 l294 -393 118 -13 c64 -7 200 -29 302 -49
l185 -37 1510 24 1510 23 87 -27 c82 -26 88 -26 112 -11 14 10 40 17 58 17
l32 0 -32 -33 c-18 -18 -32 -41 -32 -51 0 -10 -45 -113 -99 -230 l-100 -211
-47 -243 -48 -242 27 -83 c21 -66 36 -91 70 -125 l42 -42 879 879 880 880 -46
53 c-46 54 -46 54 -164 84 l-119 31 -75 -23 c-41 -13 -76 -22 -78 -20 -1 2 11
109 28 237 35 269 49 496 50 791 l0 206 73 6 c153 12 2191 47 3167 55 564 5
1026 8 1027 7 7 -5 93 -721 93 -771 0 -2 94 -85 210 -185 l209 -180 3831 0
3831 0 407 307 407 308 245 111 245 111 3 -90 3 -90 933 7 c1038 8 946 13 946
-59 0 -21 18 -69 49 -127 48 -92 49 -96 75 -283 26 -186 66 -456 86 -585 6
-36 37 -152 70 -259 l58 -194 102 -102 103 -103 22 -84 23 -85 -66 -78 c-62
-74 -68 -85 -97 -189 l-31 -111 60 -105 c32 -58 64 -110 70 -117 7 -7 88 -18
206 -27 154 -12 442 -16 1360 -21 1051 -4 1347 -11 1447 -31 27 -5 39 -17 64
-61 19 -33 42 -58 58 -64 32 -13 668 -25 774 -15 l77 8 41 74 41 75 567 -1
c311 0 634 4 716 9 83 6 344 15 580 20 237 6 471 13 520 17 l90 6 86 151 86
152 -10 180 -9 180 -48 66 -48 66 19 93 c11 52 21 96 24 98 3 3 77 44 166 91
l160 86 81 170 c60 126 127 300 258 670 l177 500 258 116 258 116 119 179
c166 251 166 251 267 524 68 185 117 344 201 653 l110 408 61 87 c48 67 101
173 242 481 l179 395 65 473 65 473 -65 473 -65 474 -179 394 c-141 308 -193
413 -241 481 l-62 87 -110 408 c-106 392 -238 790 -306 923 -13 25 -81 132
-152 239 l-129 195 -258 116 -258 116 -177 499 c-130 369 -198 544 -258 670
l-80 170 -161 85 c-88 47 -163 88 -166 91 -2 3 -13 47 -24 99 l-19 93 48 66
48 66 9 180 10 180 -86 152 -86 151 -80 6 c-44 4 -278 11 -520 17 -242 6 -505
15 -585 20 -80 5 -402 9 -716 9 l-572 -1 -41 75 -41 74 -67 8 c-75 8 -756 -2
-788 -11 -11 -3 -34 -32 -52 -64 -27 -48 -38 -60 -65 -65 -95 -20 -409 -26
-1463 -31 -925 -4 -1199 -9 -1350 -21 -112 -9 -194 -20 -201 -27 -6 -7 -38
-59 -70 -117 l-60 -105 31 -111 c29 -104 35 -115 97 -189 l66 -78 -24 -86 -23
-86 -101 -99 -101 -100 -63 -210 c-35 -116 -67 -238 -71 -271 -4 -33 -17 -127
-30 -210 -13 -82 -36 -237 -50 -344 -26 -193 -27 -196 -76 -288 -30 -59 -49
-107 -49 -128 0 -72 91 -66 -946 -59 l-933 7 -3 -90 -3 -90 -245 111 -245 112
-407 307 -407 307 -3831 0 -3831 0 -209 -180 c-116 -100 -210 -183 -210 -185
0 -50 -86 -766 -93 -771 -1 0 -461 3 -1022 7 -959 8 -2983 43 -3161 55 l-81 6
-6 336 c-6 305 -10 363 -42 616 -19 153 -34 281 -32 282 2 2 37 -7 78 -19 l75
-24 118 32 c117 30 118 31 164 84 l45 53 -879 879 -879 879 -42 -42 c-34 -34
-49 -59 -70 -124 l-27 -82 48 -242 47 -242 99 -213 c55 -118 100 -221 100
-231 0 -10 14 -33 32 -51 l32 -33 -27 0 c-14 0 -42 7 -60 16 -33 16 -38 15
-113 -10 l-79 -26 -1514 23 -1513 23 -189 -37 c-104 -20 -241 -42 -304 -49
l-115 -13 -294 -393 c-314 -418 -292 -383 -342 -556 -4 -14 -17 -18 -61 -18
-46 0 -61 5 -93 30 l-38 30 -1013 0 -1013 0 -21 25 c-25 31 -383 185 -430 185
-18 0 -37 6 -42 13 -6 6 -65 172 -132 367 l-122 355 -113 545 -113 545 5 410
4 410 39 96 c31 78 43 133 68 296 34 220 38 339 21 626 l-9 158 -105 203 -105
202 -313 117 -313 117 -2548 0 -2549 0 -371 131 c-359 126 -382 136 -662 279
l-290 148 -1415 370 -1415 371 -262 21 -262 20 -953 271 c-925 263 -958 272
-1113 290 -88 10 -164 18 -170 18 -5 0 -37 -14 -70 -31z"/>
</g>
</svg>
