<?xml version="1.0" standalone="no"?>
<!DOCTYPE svg PUBLIC "-//W3C//DTD SVG 20010904//EN"
 "http://www.w3.org/TR/2001/REC-SVG-20010904/DTD/svg10.dtd">
<svg version="1.0" xmlns="http://www.w3.org/2000/svg"
   viewBox="0 0 4586.000000 1121.000000"
 preserveAspectRatio="xMidYMid meet">
<metadata>
Created by potrace 1.16, written by Peter Selinger 2001-2019
</metadata>
<g transform="translate(0.000000,1121.000000) scale(0.100000,-0.100000)"
fill="#000000" stroke="none">
<path d="M3105 11162 l6 -48 -84 -77 -85 -77 -656 0 -656 0 0 -90 0 -90 293
-146 c160 -80 294 -148 297 -151 3 -3 -4 -11 -14 -19 -15 -11 -59 -14 -193
-14 l-174 0 -133 -125 -134 -125 -229 -1 -228 0 -555 -372 -555 -372 -3 -452
-2 -452 559 -375 560 -376 456 0 c302 0 454 -3 450 -10 -4 -6 -133 -10 -356
-10 l-349 0 0 -228 0 -229 -575 -381 -575 -381 0 -956 0 -956 575 -382 575
-381 0 -228 0 -228 343 0 c286 0 346 -2 363 -15 17 -13 -35 -14 -446 -15
l-465 0 -558 -370 -557 -369 2 -453 3 -453 555 -372 555 -372 225 0 225 -1
135 -125 135 -125 176 0 c161 0 177 -2 194 -19 17 -20 11 -23 -279 -168 l-296
-148 0 -87 0 -88 656 0 656 0 85 -77 84 -77 -6 -48 -7 -48 2226 0 2226 0 170
85 169 85 3 61 3 60 302 153 302 153 333 -299 333 -298 7702 0 7703 0 0 410 0
410 -60 0 c-53 0 -60 2 -60 20 0 20 7 20 1085 20 l1085 0 0 -110 0 -110 50 0
50 0 0 -70 0 -70 -100 0 -100 0 0 -250 0 -250 4285 0 4284 0 910 318 910 317
3 40 c3 39 4 40 53 51 l50 10 3 185 c2 139 -1 202 -13 259 -23 105 -19 99 -60
90 l-36 -8 3 46 c3 42 5 46 36 54 l32 9 0 162 c0 107 -5 180 -14 215 l-14 52
174 0 174 0 0 130 0 130 -200 0 -200 0 0 110 0 110 -25 0 -25 0 0 105 0 105
25 0 c24 0 25 2 25 75 0 60 3 75 15 75 10 0 15 10 15 30 l0 30 185 0 185 0 0
130 0 130 -185 0 -185 0 0 71 c0 42 -8 100 -21 144 -18 61 -24 72 -40 68 -18
-5 -19 1 -19 86 0 90 0 91 25 91 l25 0 0 100 0 100 200 0 200 0 0 130 0 130
-200 0 -200 0 0 25 0 25 105 0 105 0 0 105 0 105 880 0 880 0 0 -85 0 -86 48
-20 47 -21 1980 56 c1089 31 1999 56 2023 56 30 0 42 -4 42 -14 0 -8 38 -35
85 -59 l86 -44 507 17 507 17 830 404 830 404 0 840 0 839 -830 405 -830 404
-505 17 -505 18 -87 -47 c-61 -31 -88 -51 -88 -64 0 -16 -8 -17 -87 -12 -49 3
-959 30 -2023 61 l-1935 56 -47 -21 -48 -20 0 -86 0 -85 -880 0 -880 0 0 105
0 105 -105 0 c-98 0 -105 1 -105 20 0 19 7 20 200 20 l200 0 0 130 0 130 -200
0 -200 0 0 105 0 105 -25 0 c-25 0 -25 1 -25 89 0 81 2 89 18 84 26 -6 62 111
62 205 l0 72 185 0 185 0 0 135 0 135 -185 0 -185 0 0 25 c0 14 -7 28 -15 31
-11 5 -15 24 -15 80 0 72 -1 74 -25 74 l-25 0 0 105 0 105 25 0 25 0 0 110 0
110 200 0 200 0 0 130 0 130 -175 0 -174 0 14 48 c10 33 15 97 15 214 l0 167
-35 7 c-34 6 -35 7 -35 54 l0 49 32 -10 c18 -5 35 -5 38 -1 4 4 15 43 24 87
14 63 17 118 14 264 l-3 185 -50 10 c-48 11 -50 12 -53 48 -3 29 -8 38 -30 46
-15 5 -424 150 -910 321 l-883 311 -4284 0 -4285 0 0 -255 0 -255 100 0 100 0
0 -65 0 -65 -50 0 -50 0 0 -110 0 -110 -1085 0 c-1078 0 -1085 0 -1085 20 0
18 7 20 60 20 l60 0 0 410 0 410 -7703 0 -7702 0 -333 -299 -334 -299 -301
153 -302 154 -3 61 -3 60 -169 85 -170 85 -2226 0 -2226 0 7 -48z"/>
</g>
</svg>
