<?xml version="1.0" standalone="no"?>
<!DOCTYPE svg PUBLIC "-//W3C//DTD SVG 20010904//EN"
 "http://www.w3.org/TR/2001/REC-SVG-20010904/DTD/svg10.dtd">
<svg version="1.0" xmlns="http://www.w3.org/2000/svg"
   viewBox="0 0 4871.000000 2722.000000"
 preserveAspectRatio="xMidYMid meet">
<metadata>
Created by potrace 1.16, written by Peter Selinger 2001-2019
</metadata>
<g transform="translate(0.000000,2722.000000) scale(0.100000,-0.100000)"
fill="#000000" stroke="none">
<path d="M33295 27208 c-3 -7 -20 -58 -39 -113 l-33 -100 -67 2 -66 2 0 -339
c0 -220 4 -340 10 -340 6 0 10 -10 10 -23 0 -14 21 -43 58 -80 50 -49 63 -57
96 -57 32 0 37 -3 31 -17 -4 -10 -27 -74 -52 -143 -25 -69 -49 -128 -52 -132
-3 -3 -292 -13 -641 -22 -349 -9 -679 -18 -732 -21 l-98 -6 0 151 c0 113 -3
150 -12 150 -7 0 -148 -16 -314 -36 l-301 -37 -103 -123 -103 -124 -61 0 c-34
0 -78 -3 -98 -6 l-38 -7 0 -1007 0 -1007 46 -7 c26 -3 71 -6 100 -6 l53 0 102
-123 102 -124 304 -38 c166 -21 306 -35 310 -31 7 6 9 59 13 266 l0 25 672
-22 c370 -12 706 -22 746 -22 84 -1 75 10 122 -149 l28 -92 -62 -59 c-33 -32
-242 -225 -464 -429 -222 -204 -404 -374 -404 -379 -1 -4 86 -20 193 -35 107
-15 195 -27 197 -28 1 0 2 -88 2 -195 l0 -195 338 -2 337 -3 -365 -97 -365
-97 -2167 -9 c-1193 -5 -2170 -11 -2173 -14 -3 -3 -8 -815 -12 -1805 l-6
-1800 59 -7 c32 -3 195 -23 361 -43 265 -32 301 -38 290 -51 -9 -11 -11 -56
-9 -164 l4 -148 -189 0 -188 0 -258 -236 c-205 -188 -257 -241 -257 -261 0
-22 -50 -339 -66 -415 l-6 -28 -1753 0 -1753 0 -7 -60 -7 -60 -106 0 c-118 0
-855 20 -858 23 -1 1 -7 211 -13 467 -6 256 -14 549 -17 653 l-6 187 -457 0
c-251 0 -546 3 -656 7 l-201 6 -238 2159 c-132 1187 -237 2160 -235 2161 2 2
23 18 47 36 l42 33 0 712 0 713 -124 91 -124 92 -104 0 -103 0 -34 123 c-61
217 -57 210 -200 392 -74 94 -148 188 -165 209 l-30 39 109 -7 110 -7 63 115
63 114 47 6 c26 3 689 31 1474 63 784 32 1426 59 1424 60 -1 1 -627 29 -1391
62 -765 34 -1427 64 -1472 67 l-82 6 -64 116 -64 117 -84 3 c-46 1 -627 -11
-1290 -27 l-1206 -30 -173 -71 c-95 -39 -174 -69 -176 -67 -2 2 -14 32 -28 68
l-24 64 -90 3 -91 3 -7 -36 c-3 -20 -4 -135 0 -256 l6 -219 -270 0 -269 0
-221 -267 c-205 -249 -220 -270 -214 -298 4 -16 24 -110 44 -207 l37 -178 -44
0 -44 0 -48 -103 -48 -103 -87 -33 -86 -33 2 -586 3 -586 85 -32 85 -32 44
-100 45 -100 96 -6 96 -7 -38 -357 c-20 -196 -37 -369 -38 -384 0 -27 -2 -28
-55 -28 l-56 0 -48 -103 -48 -103 -87 -33 -86 -33 2 -586 3 -586 85 -32 c141
-53 138 56 23 -1057 -53 -518 -98 -944 -100 -946 -1 -2 -391 -8 -865 -13 -475
-5 -906 -11 -959 -14 l-97 -5 -6 -31 c-3 -17 -6 -57 -6 -89 l0 -59 -75 0 -74
0 -5 -32 c-3 -18 -9 -99 -14 -180 -4 -81 -11 -150 -14 -153 -7 -7 -2128 -36
-2139 -29 -16 9 -464 35 -466 27 -20 -59 -103 -192 -273 -438 l-205 -296 -825
5 c-454 4 -1031 9 -1282 13 l-457 6 -3 126 -3 126 -52 8 -53 9 0 222 c0 123
-3 251 -7 286 l-6 63 159 -6 c87 -4 220 -10 294 -13 l135 -5 75 93 75 92 2
801 c1 440 4 833 8 874 l7 74 161 -4 162 -4 60 110 61 110 44 7 c25 4 678 33
1452 65 774 32 1405 60 1402 62 -2 2 -651 33 -1441 67 -791 35 -1442 66 -1448
68 -5 2 -39 57 -74 123 l-65 119 -115 -3 c-64 -2 -643 -17 -1288 -33 l-1171
-29 -129 -52 c-70 -28 -149 -60 -175 -70 l-48 -19 -25 50 -25 50 -89 0 -88 0
-7 -46 c-3 -26 -6 -75 -6 -109 l0 -63 -57 4 c-32 2 -278 13 -548 24 -269 11
-518 22 -552 24 l-62 5 -47 -148 -46 -148 -507 -72 -506 -72 -137 -137 -138
-137 -1 -435 c-1 -239 1 -496 3 -572 l4 -136 128 -136 128 -136 501 -2 501 -3
45 -137 45 -138 126 -1 c249 -1 2099 -44 2103 -49 3 -3 8 -114 12 -247 l7
-243 -259 0 -258 0 3 -140 4 -140 -184 0 c-259 -1 -1628 -27 -1633 -31 -2 -2
-26 -229 -53 -503 -32 -316 -55 -501 -62 -506 -6 -4 -156 -10 -333 -14 -177
-3 -364 -9 -414 -13 l-93 -6 0 -133 0 -134 -365 0 -365 0 0 115 c0 95 -3 115
-15 115 -12 0 -1365 -248 -1448 -266 l-27 -6 0 141 c0 123 -2 141 -16 141 -15
0 -1058 -183 -1111 -195 -21 -5 -22 -12 -25 -97 l-3 -93 -514 -105 -513 -105
-62 -69 -61 -69 -3 -1211 c-2 -666 -1 -1301 3 -1412 l7 -200 62 -65 61 -65
513 -104 512 -104 0 -93 c0 -51 2 -93 4 -93 2 0 257 -45 566 -100 309 -55 565
-98 571 -95 5 4 9 67 9 141 0 74 3 134 6 134 4 0 335 -61 736 -135 402 -74
734 -135 739 -135 5 0 9 52 9 115 l0 115 365 0 365 0 0 -134 0 -133 152 -6
c84 -4 275 -10 425 -13 l272 -7 5 -46 c4 -25 27 -253 52 -506 25 -253 47 -461
48 -462 3 -3 1569 -33 1719 -33 l99 0 -4 -140 -3 -140 258 0 259 0 -7 -242
c-4 -134 -9 -245 -11 -246 -2 -4 -2002 -51 -2164 -52 l-66 0 -45 -138 -45
-137 -500 -3 -499 -2 -129 -129 -128 -129 -6 -158 c-3 -88 -4 -348 -3 -579 l2
-420 135 -136 136 -136 482 -68 c264 -37 492 -69 507 -72 23 -4 30 -19 73
-149 l47 -144 64 0 c73 0 936 36 1068 45 l87 6 0 -64 c0 -35 3 -85 6 -111 l7
-46 87 0 87 0 27 51 c16 28 33 48 39 46 7 -3 86 -34 177 -71 l165 -65 1200
-31 c660 -16 1239 -30 1287 -30 l87 0 55 102 c30 57 61 111 68 121 13 17 112
23 1458 83 795 35 1459 64 1475 65 17 1 -630 30 -1438 64 -807 35 -1473 65
-1480 68 -7 3 -40 55 -72 116 l-60 112 -161 -7 -161 -7 -8 69 c-4 38 -7 326
-6 639 1 314 -1 678 -5 811 l-7 240 -71 88 -71 88 -170 -6 c-93 -3 -224 -9
-290 -12 l-120 -7 3 284 c3 198 8 286 16 291 6 4 23 8 38 8 57 0 58 2 58 135
l0 122 288 7 c158 3 706 8 1217 11 512 3 957 8 990 11 l60 5 212 -304 c167
-240 265 -397 278 -444 1 -1 93 4 205 12 113 8 243 17 290 20 109 8 2098 -20
2107 -29 4 -3 11 -73 15 -154 5 -81 11 -162 14 -180 l5 -32 74 0 75 0 0 -59
c0 -32 3 -72 6 -89 l6 -30 172 -7 c94 -3 525 -9 958 -13 432 -4 788 -9 790
-12 3 -3 48 -428 101 -945 115 -1113 118 -1004 -24 -1057 l-89 -32 0 -587 0
-587 88 -31 87 -32 46 -102 45 -102 55 -3 55 -3 40 -382 39 -382 -55 -2 c-30
-2 -73 -5 -96 -8 l-41 -6 -44 -99 -43 -99 -88 -33 -88 -32 0 -587 0 -587 88
-31 87 -32 46 -102 45 -102 45 -3 45 -3 -43 -206 -43 -206 58 -70 c31 -39 128
-156 215 -261 l157 -191 273 -5 272 -5 -4 -226 c-2 -124 0 -240 4 -258 l7 -31
88 0 88 0 28 70 c15 38 30 70 34 70 4 0 82 -31 174 -69 l167 -70 1285 -31
c712 -18 1290 -28 1294 -24 4 5 36 59 69 121 62 112 62 112 104 117 23 3 697
34 1497 68 800 35 1430 64 1400 66 -30 1 -662 27 -1405 57 -742 30 -1391 57
-1442 61 l-92 6 -63 115 -62 116 -110 -7 c-90 -6 -108 -5 -99 6 5 7 75 96 155
198 80 102 152 196 160 210 9 14 35 96 58 183 l43 157 103 0 103 0 126 92 125
92 0 718 c0 395 -3 718 -7 718 -5 0 -25 15 -47 33 l-39 33 239 2156 238 2155
111 7 c60 3 356 6 656 6 l547 0 6 193 c3 105 11 399 17 652 6 253 12 461 14
463 3 3 268 10 851 24 l112 3 6 -57 7 -58 1754 0 c965 0 1755 -3 1755 -7 0 -4
16 -99 35 -212 19 -113 36 -219 37 -234 2 -23 52 -74 258 -263 l255 -233 189
-1 188 0 -3 -142 c-2 -95 0 -150 8 -163 11 -20 6 -21 -264 -53 -151 -18 -313
-38 -361 -44 l-85 -11 6 -1800 c4 -990 8 -1802 10 -1804 2 -2 982 -8 2178 -14
l2174 -10 363 -97 364 -97 -341 -3 -341 -2 0 -194 0 -193 -27 -6 c-16 -3 -108
-15 -206 -28 -97 -13 -174 -26 -170 -30 7 -6 901 -826 930 -853 10 -9 6 -32
-16 -106 -48 -157 -43 -150 -98 -150 -27 0 -360 -9 -741 -21 -381 -12 -694
-20 -697 -17 -2 2 -6 68 -7 145 -2 78 -5 143 -8 146 -3 2 -138 -13 -300 -34
-162 -21 -300 -38 -305 -39 -6 0 -57 -56 -114 -125 l-104 -125 -98 0 -99 0 0
-1015 0 -1015 39 0 c21 0 66 -3 100 -6 l61 -7 102 -121 102 -121 275 -34 c152
-18 293 -36 314 -39 l37 -5 0 153 0 152 163 -6 c89 -4 418 -14 732 -22 313 -8
573 -18 576 -22 5 -6 34 -83 107 -279 3 -9 -8 -13 -35 -13 -34 0 -46 -7 -96
-58 -35 -35 -57 -66 -57 -80 0 -12 -4 -22 -10 -22 -6 0 -10 -118 -10 -335 l0
-334 67 -3 66 -3 37 -110 37 -110 77 -3 c43 -2 702 9 1465 23 762 14 1438 25
1501 25 l115 0 45 81 c25 45 54 85 65 90 11 4 173 26 360 49 187 23 357 44
377 47 l37 5 32 -72 33 -73 60 6 c34 3 1437 90 3118 193 1681 104 3054 192
3050 195 -4 3 -693 38 -1532 78 -839 40 -1563 76 -1610 80 -65 5 19 11 365 25
248 10 482 22 520 25 40 3 -770 39 -1910 84 -1089 43 -2014 80 -2055 84 l-75
6 233 113 232 113 0 1284 0 1284 -142 62 c-79 34 -230 112 -335 174 l-193 112
0 276 0 277 -22 6 c-13 3 -44 6 -70 6 l-48 0 0 115 0 115 308 0 c284 -1 313 1
392 21 l85 22 89 168 89 168 76 3 76 3 7 59 c4 32 9 60 10 61 2 1 73 5 159 9
l157 7 7 -69 c4 -38 10 -74 14 -81 6 -8 58 -15 161 -21 l153 -9 345 64 c189
34 348 67 352 71 4 5 243 837 530 1849 287 1012 525 1843 528 1847 4 3 482 31
1062 62 580 31 1091 59 1135 62 l80 6 140 120 c77 66 184 154 238 196 l97 75
0 755 0 754 -902 -7 -901 -8 6 109 c3 60 12 250 18 422 12 302 14 314 33 321
12 4 505 22 1096 40 591 18 1120 36 1175 39 78 6 -158 20 -1055 65 -635 32
-1171 60 -1190 63 l-35 5 3 53 4 54 96 6 c54 3 334 9 625 12 475 6 527 8 527
23 0 51 53 668 72 838 l22 201 35 6 c20 3 275 6 568 6 l532 0 31 44 31 43 132
5 c73 3 1116 43 2320 89 1203 46 2187 86 2187 89 0 3 -1043 45 -2317 94 -2281
88 -2318 89 -2333 110 -8 11 -25 32 -37 46 l-21 25 -564 3 -564 3 -22 202
c-12 111 -34 348 -48 527 -14 179 -27 326 -27 326 -1 1 -281 6 -621 13 -340 6
-620 12 -621 13 -1 2 -4 28 -7 58 l-4 55 1167 60 c642 33 1166 62 1163 64 -3
3 -527 22 -1165 42 -638 20 -1164 41 -1168 45 -5 5 -13 146 -20 314 -6 168
-14 356 -18 419 l-6 114 901 -6 902 -6 0 754 0 754 -102 79 c-57 44 -163 132
-237 195 -130 112 -136 116 -190 121 -31 3 -542 31 -1136 62 -594 31 -1083 60
-1086 63 -4 3 -242 836 -530 1851 -287 1015 -524 1847 -525 1849 -2 2 -158 32
-349 67 l-345 63 -151 -6 c-104 -4 -155 -10 -164 -19 -7 -7 -16 -45 -20 -84
-6 -57 -10 -70 -22 -66 -8 3 -79 6 -158 6 l-144 0 -6 48 c-13 97 -6 91 -92 94
l-76 3 -86 162 -86 161 -80 21 c-73 19 -106 21 -392 21 l-313 0 0 114 0 113
70 7 70 7 0 278 0 279 190 110 c104 60 255 138 335 173 l145 64 0 1285 0 1285
-231 110 c-228 108 -231 110 -193 117 22 4 933 42 2026 85 1093 43 1984 81
1980 84 -4 3 -214 15 -467 25 -256 10 -447 21 -430 25 17 4 710 40 1540 79
831 39 1542 74 1580 78 51 5 -752 58 -2985 196 -1680 104 -3091 191 -3135 194
l-81 5 -33 -72 c-31 -67 -35 -72 -60 -67 -14 3 -177 23 -361 46 -184 22 -350
43 -367 46 -29 4 -38 15 -80 89 l-47 85 -80 0 c-45 0 -679 11 -1411 25 -1559
29 -1664 30 -1670 13z m-14945 -2101 l55 -22 -79 -3 c-43 -2 -80 -1 -83 1 -2
3 2 16 8 31 9 18 17 25 28 20 9 -3 41 -16 71 -27z m40 -22974 c-19 -8 -56 -23
-81 -33 l-46 -19 -16 35 -17 34 98 -1 c96 -1 97 -1 62 -16z"/>
</g>
</svg>
