<?xml version="1.0" standalone="no"?>
<!DOCTYPE svg PUBLIC "-//W3C//DTD SVG 20010904//EN"
 "http://www.w3.org/TR/2001/REC-SVG-20010904/DTD/svg10.dtd">
<svg version="1.0" xmlns="http://www.w3.org/2000/svg"
   viewBox="0 0 3932.000000 2224.000000"
 preserveAspectRatio="xMidYMid meet">
<metadata>
Created by potrace 1.16, written by Peter Selinger 2001-2019
</metadata>
<g transform="translate(0.000000,2224.000000) scale(0.100000,-0.100000)"
fill="#000000" stroke="none">
<path d="M5056 22218 c-3 -13 -6 -42 -6 -66 0 -54 -8 -57 -170 -67 -102 -6
-145 -13 -235 -42 -60 -19 -113 -38 -117 -42 -5 -5 -48 -1413 -48 -1576 l0
-50 138 -49 c75 -27 196 -61 267 -76 l130 -26 0 -386 c0 -213 -3 -390 -8 -394
-4 -4 -49 -3 -100 3 l-92 11 -360 -185 c-198 -102 -361 -186 -362 -187 -1 -1
-54 -495 -118 -1096 -65 -621 -176 -1591 -256 -2240 l-141 -1144 95 -376 c53
-206 106 -424 118 -484 23 -109 23 -109 117 -245 52 -75 138 -199 190 -276 52
-77 108 -148 123 -157 15 -9 72 -50 126 -90 l98 -73 -58 -3 c-42 -2 -217 27
-622 103 l-563 107 -764 -263 -763 -264 -380 -235 -381 -235 -425 -372 -426
-373 -33 -125 -33 -125 33 -125 33 -125 426 -373 425 -372 381 -235 380 -235
763 -264 764 -263 563 107 c405 76 580 105 622 103 l58 -3 -98 -73 c-54 -40
-111 -81 -127 -91 -17 -10 -48 -47 -71 -82 -23 -35 -107 -158 -187 -273 l-145
-208 -43 -187 c-23 -102 -77 -321 -119 -486 l-77 -300 141 -1145 c80 -652 190
-1616 256 -2240 64 -601 117 -1095 118 -1096 1 -1 164 -86 363 -188 l360 -185
92 11 c51 6 95 8 100 4 4 -4 7 -181 7 -394 l0 -386 -130 -26 c-71 -15 -192
-49 -267 -76 l-138 -49 0 -50 c0 -163 43 -1571 48 -1576 4 -4 57 -23 117 -42
90 -29 133 -36 235 -42 162 -10 170 -13 170 -67 0 -94 -15 -88 214 -88 l201 1
372 112 372 112 177 280 177 280 422 880 c232 484 433 901 446 927 23 45 40
57 404 283 258 160 388 235 407 235 l28 0 0 -375 0 -375 -185 0 -185 0 0 -50
0 -50 -135 0 -135 0 0 -45 0 -45 -115 0 -115 0 0 -200 0 -200 115 0 115 0 0
-45 0 -45 135 0 135 0 0 -50 0 -50 1270 0 1270 0 0 65 c0 64 0 65 28 65 15 0
290 13 611 30 452 22 606 33 685 49 80 16 205 25 601 42 391 16 560 28 775 53
l275 31 3 62 3 62 -33 5 c-18 3 -152 19 -298 36 -195 21 -394 35 -755 50 -384
16 -510 25 -582 40 -73 16 -217 25 -702 47 l-611 27 0 58 0 58 -713 0 -714 0
-6 212 c-5 190 -4 217 14 272 15 48 19 91 19 199 0 124 2 137 18 137 74 0 275
26 471 62 197 35 235 45 247 62 7 12 392 856 854 1876 463 1020 849 1869 859
1886 10 17 215 296 456 620 l437 589 436 228 437 229 560 -11 c484 -9 634 -16
1109 -51 l548 -40 822 -166 821 -166 1375 -383 1375 -383 1400 -176 1400 -176
1124 240 c618 132 1128 240 1133 240 4 0 8 -38 8 -85 l0 -85 141 -318 c207
-463 342 -729 462 -908 l102 -151 580 -303 580 -302 470 -150 c258 -82 477
-150 485 -150 8 0 233 118 500 264 343 187 541 301 676 392 l191 127 130 -91
c72 -49 135 -96 140 -103 6 -6 106 -196 223 -422 l213 -410 136 -140 c75 -77
297 -303 494 -502 l358 -362 542 15 542 16 733 154 732 153 498 340 497 340
174 268 174 268 59 178 60 177 161 0 c341 1 509 22 2043 266 l1430 227 225
349 c123 192 228 359 232 371 6 17 -27 109 -140 392 l-149 370 -50 7 c-27 3
-110 7 -184 8 -74 0 -152 4 -172 8 -30 6 -81 45 -252 197 -118 105 -215 194
-215 199 -1 5 103 237 230 515 l232 506 266 192 266 192 235 453 235 453 51
273 50 272 -50 273 -51 272 -235 453 -235 453 -266 192 -266 192 -232 506
c-127 278 -231 510 -230 515 0 5 97 95 215 199 171 152 222 191 252 197 20 4
98 8 172 8 74 1 157 5 184 8 l50 7 149 370 c113 283 146 375 140 392 -4 12
-109 179 -232 371 l-225 349 -1430 227 c-1534 244 -1702 265 -2043 266 l-161
0 -60 178 -59 177 -174 268 -174 268 -497 340 -498 340 -732 153 -733 154
-542 16 -542 15 -358 -362 c-197 -199 -419 -425 -494 -502 l-135 -140 -213
-410 c-118 -225 -218 -416 -223 -422 -6 -7 -69 -54 -141 -103 l-130 -91 -211
139 c-155 103 -335 207 -681 393 -258 140 -476 252 -485 251 -8 -2 -224 -71
-480 -152 l-465 -148 -580 -303 -580 -302 -102 -151 c-120 -179 -255 -445
-462 -908 l-141 -318 0 -85 c0 -47 -4 -85 -9 -85 -5 0 -510 106 -1122 235
-612 129 -1127 235 -1143 235 -17 0 -652 -77 -1411 -171 l-1380 -171 -1375
-383 -1375 -383 -821 -166 -820 -166 -550 -40 c-475 -35 -624 -42 -1109 -51
l-560 -11 -437 229 -436 228 -437 589 c-241 324 -446 603 -456 620 -10 17
-396 866 -859 1886 -462 1020 -847 1864 -854 1876 -12 17 -50 27 -247 62 -196
36 -397 62 -471 62 -16 0 -18 13 -18 138 0 107 -4 150 -19 198 -18 55 -19 82
-14 272 l6 212 714 0 713 0 0 58 0 58 611 27 c486 22 629 31 702 47 72 15 197
24 582 40 361 15 560 28 755 50 146 17 280 32 298 35 l33 6 -3 62 -3 61 -285
33 c-217 25 -410 39 -810 57 -369 18 -543 30 -585 40 -42 11 -239 25 -655 46
-327 16 -605 30 -617 30 -22 0 -23 4 -23 65 l0 65 -1270 0 -1270 0 0 -50 0
-50 -135 0 -135 0 0 -45 0 -45 -115 0 -115 0 0 -200 0 -200 115 0 115 0 0 -45
0 -45 135 0 135 0 0 -50 0 -50 185 0 185 0 0 -375 0 -375 -28 0 c-19 0 -149
75 -407 235 -364 226 -381 238 -404 283 -13 26 -212 440 -442 920 l-418 873
-182 287 -181 288 -377 112 -376 113 -196 -1 c-195 0 -197 0 -203 -22z"/>
</g>
</svg>
