<?xml version="1.0" standalone="no"?>
<!DOCTYPE svg PUBLIC "-//W3C//DTD SVG 20010904//EN"
 "http://www.w3.org/TR/2001/REC-SVG-20010904/DTD/svg10.dtd">
<svg version="1.0" xmlns="http://www.w3.org/2000/svg"
   viewBox="0 0 4184.000000 4375.000000"
 preserveAspectRatio="xMidYMid meet">
<metadata>
Created by potrace 1.16, written by Peter Selinger 2001-2019
</metadata>
<g transform="translate(0.000000,4375.000000) scale(0.100000,-0.100000)"
fill="#000000" stroke="none">
<path d="M28745 43601 l-73 -147 10 -707 c6 -389 9 -709 7 -711 -2 -2 -1066
72 -2364 164 -1298 92 -2363 166 -2367 164 -10 -7 -4 30 -203 -1209 -158 -986
-179 -1131 -166 -1137 9 -3 1044 -75 2301 -158 1257 -84 2286 -153 2286 -154
1 0 5 -113 9 -249 l8 -249 -54 6 c-30 4 -1145 103 -2479 221 -1334 118 -2443
216 -2466 219 l-40 5 -18 -49 c-14 -39 -618 -3838 -612 -3847 2 -2 5294 -453
5315 -453 4 0 -7 -44 -27 -97 -34 -96 -35 -100 -29 -210 l5 -112 -41 5 c-62 7
-5167 394 -5203 394 -27 0 -32 -5 -42 -37 -13 -42 -425 -3373 -418 -3380 2 -3
4430 -341 4614 -353 1 0 -1 -60 -4 -134 l-7 -134 44 -7 c24 -3 806 -104 1737
-224 931 -120 1695 -220 1697 -223 4 -4 95 -662 91 -665 -1 -1 -339 11 -752
27 -628 25 -4320 130 -4581 130 l-83 0 0 -245 c0 -135 1 -245 3 -245 92 -3
3711 -241 3715 -244 15 -16 -231 -1386 -449 -2501 -132 -671 -241 -1232 -242
-1246 l-2 -26 -125 42 c-69 24 -1000 336 -2070 695 l-1944 653 -41 -22 c-93
-50 -84 -13 -87 -384 l-3 -328 912 -407 913 -407 -48 -7 c-26 -4 -547 -14
-1158 -22 l-1111 -15 -339 137 -339 137 -1749 3 -1750 3 -45 33 -46 33 -185 7
-185 6 -58 -35 -58 -35 -412 0 -412 0 -166 -148 -166 -149 -333 5 -333 5 -155
133 -155 134 -71 0 c-39 0 -595 -16 -1235 -36 l-1165 -36 -200 -155 -201 -154
-370 7 c-203 3 -373 9 -377 13 -4 3 -220 440 -481 971 l-474 965 -772 1244
c-425 684 -770 1245 -768 1248 3 2 1122 37 2488 78 1366 41 2518 76 2559 77
l74 3 20 51 20 51 1175 7 c647 4 1178 9 1180 12 2 2 1 7 -2 11 -4 3 -534 9
-1179 14 -645 4 -1174 8 -1175 8 -1 1 -9 21 -18 45 l-17 44 -136 6 c-76 4
-1548 49 -3272 102 l-3135 95 -871 139 -872 140 -1073 9 c-591 6 -1270 13
-1509 16 l-435 5 -83 -66 -83 -67 -200 -43 c-110 -24 -204 -44 -208 -44 -4 0
-18 29 -31 65 l-25 66 -128 -3 -129 -3 -42 -99 c-23 -55 -47 -101 -52 -103 -9
-3 -2651 -183 -2685 -183 -18 0 -19 -9 -19 -130 0 -104 3 -130 14 -130 44 0
2689 -200 2695 -204 4 -3 27 -50 50 -105 l43 -101 109 -2 c60 -1 117 -2 126
-2 11 -1 24 18 41 59 13 33 27 63 30 67 12 12 405 -36 428 -52 11 -8 48 -37
83 -65 l62 -49 1497 3 1497 2 951 120 c522 65 968 119 990 119 l40 0 22 -1107
c13 -610 26 -1213 29 -1340 l6 -233 -30 0 -30 0 -6 -547 c-4 -302 -7 -688 -7
-859 l0 -311 -67 -6 c-38 -4 -121 -7 -186 -7 l-118 0 -182 -86 -182 -86 -3485
-79 -3485 -80 -560 -49 c-308 -27 -572 -49 -587 -50 -25 0 -28 -4 -28 -34 0
-41 -81 -30 725 -96 l620 -50 3403 -75 3403 -75 172 -88 172 -87 1158 -5 1158
-5 -321 -238 -320 -239 -1715 -176 -1715 -177 -183 -145 c-102 -79 -188 -145
-193 -147 -5 -2 -144 206 -308 462 -260 403 -302 464 -320 460 -12 -3 -532
-95 -1156 -205 -624 -110 -1147 -202 -1161 -205 -24 -5 -35 5 -114 105 -48 61
-92 109 -99 107 -6 -2 -164 -50 -351 -107 -187 -57 -341 -103 -342 -104 -1 -1
-5 -85 -9 -188 -4 -103 -10 -191 -13 -196 -3 -5 -467 -113 -1030 -239 l-1024
-230 -1 -1187 -1 -1187 35 -9 c19 -5 480 -108 1025 -230 545 -122 993 -227
996 -232 3 -5 9 -93 13 -196 4 -103 8 -187 9 -188 1 0 155 -47 342 -104 187
-57 345 -105 351 -107 6 -2 49 46 95 106 46 60 91 110 99 110 8 1 539 -91
1179 -204 640 -113 1169 -204 1175 -202 6 3 144 210 306 461 164 254 300 454
306 452 7 -3 94 -69 193 -148 l182 -143 1718 -177 1718 -176 324 -241 323
-241 -1162 0 -1162 0 -179 -90 -179 -89 -3409 -76 -3408 -75 -610 -50 c-795
-66 -715 -55 -715 -96 0 -30 3 -34 28 -34 15 0 283 -23 597 -50 l570 -50 3475
-79 3475 -79 183 -86 183 -86 132 0 c73 0 156 -3 185 -6 l52 -7 0 -311 c0
-171 3 -557 7 -858 l6 -548 30 0 30 0 -6 -233 c-3 -127 -16 -730 -29 -1339
-22 -1091 -23 -1108 -42 -1108 -11 0 -457 54 -991 119 l-970 120 -1498 6
-1497 7 -63 -53 c-34 -29 -70 -60 -80 -68 -12 -10 -81 -22 -220 -37 -111 -12
-205 -20 -208 -18 -4 2 -17 31 -29 64 -12 33 -25 62 -29 64 -3 2 -62 1 -130
-3 l-123 -6 -40 -95 c-21 -52 -42 -98 -46 -102 -6 -6 -2639 -208 -2703 -208
-5 0 -9 -58 -9 -130 0 -117 2 -130 18 -130 34 0 2638 -171 2667 -176 28 -4 33
-12 72 -107 l41 -102 129 -3 128 -3 25 66 c13 36 29 65 35 65 5 0 99 -20 207
-44 l197 -43 83 -67 83 -67 230 5 c127 3 799 11 1495 17 l1265 11 880 139 880
138 3130 95 c1722 53 3196 99 3276 102 l146 6 17 48 17 47 1176 6 c646 3 1178
8 1181 11 3 3 2 9 -2 14 -4 4 -535 8 -1180 10 l-1172 3 -20 52 -20 52 -59 3
c-33 1 -1185 36 -2559 77 -1374 41 -2501 76 -2503 79 -2 2 341 561 763 1242
l768 1239 479 970 c263 534 482 973 485 977 4 4 174 10 377 14 l370 6 198
-150 c197 -150 197 -150 260 -156 63 -5 2269 -77 2363 -76 50 0 51 0 208 136
l158 137 328 5 327 5 169 -152 169 -151 417 0 418 0 48 -30 49 -30 188 0 187
0 47 34 46 34 1750 4 1750 4 338 137 339 137 1141 -16 c628 -9 1150 -19 1159
-22 11 -5 -297 -147 -895 -414 l-912 -406 3 -329 c3 -370 -6 -332 86 -382 l42
-23 2068 696 c1137 383 2069 696 2070 696 0 0 2 -12 3 -28 1 -15 110 -576 242
-1247 217 -1107 465 -2485 449 -2500 -3 -3 -808 -57 -1789 -120 -981 -63
-1817 -117 -1856 -120 l-73 -7 0 -244 0 -244 68 0 c252 0 3972 106 4586 130
418 16 760 29 762 27 3 -3 -86 -661 -91 -665 -2 -2 -768 -102 -1702 -223 -934
-120 -1716 -221 -1737 -225 l-39 -6 7 -134 c3 -74 3 -134 -1 -134 -61 -2
-4606 -349 -4609 -353 -7 -7 405 -3336 418 -3380 9 -31 16 -37 38 -37 35 0
5140 388 5201 395 l46 5 -4 -112 c-5 -109 -4 -116 29 -208 l35 -95 -2621 -224
c-1442 -123 -2639 -227 -2662 -230 l-41 -6 298 -1900 c190 -1208 305 -1916
317 -1945 18 -44 19 -44 63 -41 24 1 1155 101 2513 222 1359 120 2472 217
2474 214 2 -2 1 -114 -3 -249 l-7 -246 -28 0 c-38 0 -4563 -300 -4571 -303 -7
-3 358 -2295 371 -2324 7 -16 18 -23 37 -23 16 0 1079 74 2363 164 1284 90
2337 163 2339 161 2 -3 -1 -322 -7 -712 l-10 -707 73 -146 73 -145 108 3 c60
1 453 11 874 22 l765 19 1321 128 1320 128 177 890 c147 738 209 1078 362
1995 101 608 241 1413 310 1790 69 377 125 693 125 703 0 9 -112 258 -249 552
l-250 534 162 1780 162 1779 360 378 c198 208 381 401 407 429 l46 51 172 944
173 945 -104 218 c-92 192 -106 217 -127 217 -13 0 -528 -59 -1143 -130 -616
-72 -1121 -130 -1123 -130 -5 0 106 454 113 461 3 4 272 17 596 28 325 12 609
24 633 27 l42 5 0 232 0 231 977 2383 c884 2155 979 2383 999 2383 15 0 37 18
65 53 24 28 43 53 44 53 0 1 344 82 765 179 421 97 778 184 794 192 16 8 306
209 645 446 339 237 726 502 860 590 l245 160 552 -6 552 -7 34 87 34 87 499
-4 c275 -3 550 -5 610 -5 l110 0 3 30 3 31 -563 43 c-310 23 -586 45 -614 48
l-50 5 -31 82 -30 81 -186 5 -185 5 178 115 179 115 0 490 0 490 -177 115
-177 115 182 3 182 2 33 88 34 87 595 47 c327 25 602 47 612 47 14 1 18 8 15
29 l-3 27 -610 -3 -610 -4 -32 84 -31 83 -554 -3 -553 -3 -230 151 c-126 83
-511 348 -855 588 -344 240 -641 444 -660 454 -19 10 -377 97 -795 193 l-760
175 -50 55 c-30 33 -58 55 -70 55 -18 0 -147 309 -998 2386 l-977 2385 0 229
0 230 -22 4 c-13 3 -297 14 -633 26 -335 12 -612 24 -614 26 -8 7 -118 464
-112 464 3 0 510 -58 1125 -130 615 -71 1128 -130 1140 -130 18 0 37 35 125
220 l104 220 -172 942 -173 942 -51 58 c-29 31 -212 225 -407 431 l-355 374
-162 1779 -161 1779 249 533 c137 293 249 541 249 551 0 10 -56 326 -125 702
-69 376 -208 1181 -310 1789 -153 915 -215 1258 -362 1995 l-177 891 -1315
127 -1316 128 -750 19 c-412 10 -808 21 -878 23 l-128 4 -74 -146z m-11386
-19320 l166 -139 514 6 c323 3 512 1 510 -5 -2 -5 -98 -129 -214 -276 l-210
-266 -1347 -1 -1348 0 -247 201 c-137 110 -255 208 -263 216 -13 13 61 14 636
7 l650 -7 155 191 154 192 80 1 c182 4 581 15 589 17 4 1 83 -60 175 -137z
m-4019 -46 c39 -19 70 -37 70 -40 0 -3 -89 -5 -197 -5 l-198 1 115 38 c63 22
121 40 128 40 7 1 44 -15 82 -34z m-1156 -410 c-76 -113 -78 -115 -116 -115
-21 0 -38 3 -38 6 0 3 26 48 58 99 52 84 61 94 102 108 25 8 51 16 58 16 6 1
-22 -51 -64 -114z m6151 -3942 c116 -147 212 -270 213 -275 2 -4 -227 -5 -510
-2 l-513 5 -160 -136 -160 -137 -200 6 c-110 3 -264 6 -342 6 l-142 0 -156
193 -157 192 -436 -3 c-240 -1 -536 -5 -657 -8 l-220 -5 25 20 c14 11 133 107
265 215 l240 194 1350 1 1350 0 210 -266z m-6153 45 c43 -62 75 -114 73 -116
-2 -2 -27 4 -57 13 -51 17 -55 21 -110 110 -32 51 -58 96 -58 99 0 3 17 6 38
6 37 0 40 -2 114 -112z m1158 -408 l-75 -40 -115 39 -115 39 190 1 190 0 -75
-39z"/>
</g>
</svg>
