<?xml version="1.0" standalone="no"?>
<!DOCTYPE svg PUBLIC "-//W3C//DTD SVG 20010904//EN"
 "http://www.w3.org/TR/2001/REC-SVG-20010904/DTD/svg10.dtd">
<svg version="1.0" xmlns="http://www.w3.org/2000/svg"
   viewBox="0 0 4497.000000 2658.000000"
 preserveAspectRatio="xMidYMid meet">
<metadata>
Created by potrace 1.16, written by Peter Selinger 2001-2019
</metadata>
<g transform="translate(0.000000,2658.000000) scale(0.100000,-0.100000)"
fill="#000000" stroke="none">
<path d="M6600 26437 l0 -143 -85 -42 -85 -42 -265 0 -265 0 0 -195 0 -195
-35 0 c-35 0 -35 0 -35 -44 0 -43 1 -45 33 -48 l32 -3 3 -212 2 -213 40 0 c32
0 40 -4 40 -19 0 -10 -56 -81 -125 -157 -94 -106 -124 -146 -125 -166 0 -23
-5 -28 -24 -28 -21 0 -99 -103 -520 -687 l-496 -688 0 -1447 0 -1448 -230 0
-230 0 0 -60 c0 -59 -1 -60 -27 -60 -101 1 -621 -24 -633 -31 -8 -4 -269 -236
-581 -516 l-566 -508 -7 -117 -8 -118 -239 0 -239 0 0 -64 0 -65 -58 -16 c-31
-9 -65 -18 -74 -21 -17 -5 -18 -42 -18 -590 l0 -584 -145 0 -145 0 0 -68 0
-68 -75 -22 c-67 -20 -75 -25 -75 -47 0 -32 38 -33 -680 10 -526 31 -704 39
-645 29 21 -4 1267 -84 1304 -84 l21 0 0 -610 0 -610 75 -22 75 -22 0 -68 0
-68 190 0 190 0 0 -206 0 -206 75 -283 c70 -263 75 -289 75 -384 l0 -101 -140
0 -139 0 -5 -32 c-3 -18 -11 -62 -17 -97 -9 -56 -8 -66 5 -73 14 -8 16 -162
16 -1588 0 -1426 -2 -1580 -16 -1588 -13 -7 -14 -17 -5 -73 6 -35 14 -79 17
-96 l5 -33 139 0 140 0 0 -101 c0 -95 -5 -121 -75 -384 l-75 -283 0 -206 0
-206 -190 0 -190 0 0 -68 0 -68 -75 -22 -75 -22 0 -610 0 -610 -24 0 c-40 0
-1279 -80 -1301 -84 -55 -10 95 -3 636 29 726 43 689 42 689 10 0 -22 8 -27
75 -46 l75 -22 0 -69 0 -68 145 0 145 0 0 -584 0 -583 75 -22 75 -23 0 -64 0
-64 239 0 239 0 7 -116 8 -116 551 -495 c303 -273 561 -505 574 -517 21 -19
44 -21 285 -33 144 -6 292 -12 330 -12 l67 -1 0 -60 0 -60 230 0 230 0 0
-1447 0 -1448 494 -685 c413 -573 498 -686 520 -688 21 -3 26 -9 26 -30 1 -20
32 -62 125 -166 69 -76 125 -147 125 -157 0 -15 -7 -19 -40 -19 l-40 0 -2
-212 -3 -213 -33 -3 c-32 -3 -33 -4 -30 -45 3 -39 5 -42 36 -45 l32 -3 0 -195
0 -194 265 0 265 0 85 -42 85 -42 0 -143 0 -143 420 0 419 0 3 116 3 116 130
47 c108 39 131 51 133 69 3 22 6 22 196 22 l193 0 442 90 c243 50 444 90 447
90 2 0 4 16 4 35 l0 35 -450 0 -450 0 0 30 0 30 280 0 280 0 0 145 0 145 -280
0 -280 0 0 35 0 35 450 0 450 0 0 30 c0 24 -5 31 -27 36 -16 3 -34 7 -40 10
-9 2 -13 32 -13 103 l0 100 180 138 179 138 1 302 0 301 125 79 124 78 31 135
c18 74 33 142 36 150 2 8 -30 62 -71 119 -41 57 -75 109 -75 116 0 7 288 1251
639 2766 l639 2754 71 65 71 65 27 123 27 122 306 0 305 0 825 550 824 550
336 0 335 0 89 50 89 50 839 0 839 0 93 -50 93 -50 226 0 227 0 0 -155 0 -155
555 0 556 0 54 -40 54 -40 217 0 218 0 87 -85 86 -85 152 0 c148 0 164 2 578
80 331 62 446 80 515 80 l89 0 -3 -82 -3 -81 -197 -111 -198 -111 0 -57 0 -58
-1645 0 -1645 0 -40 -62 c-22 -33 -40 -65 -40 -69 0 -4 259 -400 576 -879
l575 -872 207 -244 207 -243 2008 -1 c1104 0 2007 2 2007 4 0 2 27 117 60 254
l60 251 0 863 0 863 -77 67 -78 67 -502 1 -503 0 0 170 0 170 -55 0 -55 0 0
80 0 80 558 0 557 0 118 90 117 89 788 161 787 160 238 0 237 0 89 -50 89 -50
226 0 226 0 0 -155 0 -155 788 0 787 -1 130 -124 130 -124 151 -1 c149 0 158
1 657 95 278 52 509 95 512 95 3 0 5 -44 5 -97 l0 -98 -198 -110 -197 -110 -3
-58 -3 -57 -1642 0 -1642 0 -43 -65 -42 -65 579 -878 580 -877 207 -243 206
-242 2006 2 2006 3 58 235 57 235 0 882 1 882 -75 65 -76 66 -504 0 -505 0 0
170 0 170 -55 0 -55 0 0 44 0 44 513 6 c281 3 668 9 858 12 l345 6 219 274
219 274 624 0 625 0 92 -50 92 -50 227 0 226 0 0 -155 0 -155 783 0 784 0 132
-125 132 -125 149 0 c146 0 163 2 608 86 l457 85 58 -27 58 -28 -3 -60 -3 -59
-197 -111 -198 -111 0 -57 0 -58 -1645 0 -1645 0 -35 -55 c-20 -30 -38 -61
-41 -68 -3 -8 255 -407 572 -888 l578 -874 205 -242 206 -242 2007 0 2006 -1
59 233 58 232 3 886 2 886 -79 66 -79 67 -501 0 -501 0 0 120 0 120 213 0
c116 0 703 -5 1302 -10 600 -5 1557 -10 2128 -10 l1038 0 272 55 c459 94 593
114 1143 174 465 50 536 60 568 79 29 17 131 38 459 92 232 39 432 72 443 75
14 3 70 73 158 195 l136 191 0 74 0 75 565 0 c558 0 565 0 565 20 0 20 -7 20
-382 20 -211 0 -400 3 -420 6 l-38 7 0 483 0 484 -85 0 -85 0 0 155 c0 131 -2
155 -15 155 -8 0 -15 8 -15 18 0 15 11 17 110 14 109 -3 110 -3 110 -28 0 -23
2 -24 80 -24 l80 0 0 -146 0 -145 27 3 c23 3 29 11 45 63 27 90 26 550 0 645
-17 57 -22 65 -45 68 l-27 3 0 -130 0 -131 -80 0 c-73 0 -80 -2 -80 -20 0 -17
-7 -20 -42 -20 -24 0 -73 -3 -110 -7 -57 -5 -68 -3 -68 9 0 9 7 18 15 22 12 4
15 30 15 141 l0 135 85 0 85 0 0 85 0 85 -35 0 -35 0 0 150 c0 143 1 150 20
150 19 0 20 -7 20 -135 l0 -135 60 0 60 0 0 1090 0 1090 -60 0 -60 0 0 -135
c0 -128 -1 -135 -20 -135 -19 0 -20 7 -20 150 l0 150 35 0 35 0 0 85 0 85 -85
0 -85 0 0 135 c0 111 -3 137 -15 141 -8 4 -15 13 -15 22 0 13 11 14 77 8 42
-3 91 -6 110 -6 26 0 33 -4 33 -20 0 -18 7 -20 80 -20 l80 0 0 -131 0 -130 27
3 c23 3 29 11 45 63 26 89 26 561 0 650 -16 52 -22 60 -45 63 l-27 3 0 -145 0
-146 -79 0 c-75 0 -80 -1 -83 -22 -3 -22 -8 -23 -110 -26 -92 -2 -108 0 -108
13 0 8 7 15 15 15 13 0 15 24 15 155 l0 155 85 0 85 0 0 490 0 490 420 0 c413
0 420 0 420 20 0 20 -7 20 -565 20 l-565 0 0 74 0 75 -135 190 c-91 128 -143
192 -158 196 -12 3 -212 36 -444 75 -328 54 -430 75 -459 92 -32 19 -103 29
-566 79 -549 60 -700 83 -1148 175 l-265 55 -1045 -1 c-575 0 -1549 -4 -2165
-10 -616 -5 -1200 -10 -1297 -10 l-178 0 0 120 0 120 503 0 502 1 78 67 77 67
0 865 0 865 -61 253 -61 252 -2006 0 -2007 -1 -206 -242 -206 -243 -577 -874
c-317 -480 -575 -879 -572 -886 3 -8 21 -39 41 -69 l35 -55 1645 0 1645 0 0
-57 0 -58 198 -110 197 -110 3 -61 3 -60 -58 -28 -58 -27 -456 85 c-445 84
-458 86 -607 86 l-152 0 -132 -125 -131 -125 -784 0 -783 0 0 -155 0 -155
-229 0 -228 0 -89 -50 -89 -50 -626 0 -625 0 -219 274 -219 274 -315 6 c-174
3 -560 9 -858 12 l-543 6 0 44 0 44 55 0 55 0 0 170 0 170 504 0 505 0 75 66
76 66 0 882 -1 881 -57 235 -58 235 -2006 3 -2006 2 -207 -242 -206 -243 -580
-877 -580 -877 43 -65 43 -66 1642 0 1642 0 3 -57 3 -57 197 -111 198 -110 0
-97 c0 -54 -1 -98 -3 -98 -2 0 -232 43 -512 95 -501 93 -512 95 -660 95 l-150
0 -130 -125 -130 -124 -787 -1 -788 0 0 -155 0 -155 -226 0 -225 0 -91 -50
-91 -50 -236 0 -236 0 -784 160 c-432 88 -794 166 -805 174 -12 7 -66 48 -121
90 l-99 76 -558 0 -558 0 0 80 0 80 55 0 55 0 0 170 0 170 503 0 502 1 78 67
77 67 -2 885 -3 885 -58 233 -59 232 -2006 0 -2007 -1 -206 -243 -207 -242
-576 -874 c-318 -480 -575 -879 -572 -886 3 -8 21 -39 41 -69 l35 -55 1645 0
1645 0 0 -57 0 -58 198 -111 197 -111 3 -81 3 -82 -87 0 c-67 0 -187 19 -514
80 -417 78 -430 80 -581 80 l-154 0 -85 -85 -85 -85 -219 0 -219 0 -53 -40
-53 -40 -556 0 -555 0 0 -155 0 -155 -229 0 -228 0 -89 -50 -89 -50 -841 0
-841 0 -89 50 -89 50 -339 0 -338 0 -67 48 c-36 26 -406 273 -821 550 l-755
502 -306 0 -305 0 -27 123 -27 122 -71 65 -71 65 -639 2754 c-351 1515 -639
2760 -639 2766 0 7 34 59 75 116 41 57 73 111 71 119 -3 8 -18 76 -36 150
l-31 135 -124 78 -125 79 0 301 0 302 -180 138 -180 138 0 100 c0 71 4 101 13
103 6 3 24 7 40 10 22 5 27 12 27 36 l0 30 -450 0 -450 0 0 35 0 35 280 0 280
0 0 145 0 145 -280 0 -280 0 0 30 0 30 450 0 450 0 0 35 c0 19 -2 35 -4 35 -2
0 -203 41 -446 90 l-442 90 -193 0 c-193 0 -194 0 -197 23 -3 19 -23 29 -133
68 l-130 47 -3 116 -3 116 -419 0 -420 0 0 -143z m37000 -11426 c0 -4 -36 -12
-80 -15 l-80 -7 0 -40 0 -39 80 0 c47 0 80 -4 80 -10 0 -6 -38 -10 -95 -10
l-95 0 0 65 0 65 95 0 c52 0 95 -4 95 -9z m0 -3331 c0 -6 -33 -10 -80 -10
l-80 0 0 -39 0 -39 80 -7 c44 -4 80 -11 80 -16 0 -5 -43 -9 -95 -9 l-95 0 0
65 0 65 95 0 c57 0 95 -4 95 -10z"/>
</g>
</svg>
