<?xml version="1.0" standalone="no"?>
<!DOCTYPE svg PUBLIC "-//W3C//DTD SVG 20010904//EN"
 "http://www.w3.org/TR/2001/REC-SVG-20010904/DTD/svg10.dtd">
<svg version="1.0" xmlns="http://www.w3.org/2000/svg"
   viewBox="0 0 3691.000000 2354.000000"
 preserveAspectRatio="xMidYMid meet">
<metadata>
Created by potrace 1.16, written by Peter Selinger 2001-2019
</metadata>
<g transform="translate(0.000000,2354.000000) scale(0.100000,-0.100000)"
fill="#000000" stroke="none">
<path d="M6960 23375 l-1275 -163 -383 -140 c-211 -77 -384 -141 -386 -143 -1
-2 -134 -938 -296 -2079 -161 -1141 -297 -2084 -301 -2096 -4 -11 -274 -237
-601 -501 -326 -264 -598 -487 -604 -494 -17 -22 -68 -1151 -61 -1331 l6 -148
-68 0 c-53 0 -85 -7 -141 -30 -41 -17 -77 -27 -81 -23 -4 5 -139 425 -300 936
l-294 927 -514 -2 -513 -3 -348 -915 -347 -915 15 -158 c14 -146 16 -158 36
-162 18 -3 432 -46 447 -45 3 0 2 -25 -1 -55 -4 -40 -3 -55 6 -55 7 0 14 -4
16 -9 2 -5 230 -34 508 -65 278 -32 518 -61 534 -66 16 -6 33 -10 38 -10 4 0
28 31 52 68 l44 69 318 -33 c176 -18 390 -45 476 -60 l157 -27 3 -89 3 -88
-27 0 c-14 0 -381 -20 -815 -45 -433 -24 -877 -49 -987 -55 -126 -6 -266 -21
-385 -40 -167 -28 -202 -37 -345 -93 -143 -55 -166 -68 -225 -121 -158 -141
-171 -156 -171 -191 0 -70 -10 -90 -57 -115 -34 -18 -51 -35 -67 -70 -20 -44
-21 -55 -21 -635 0 -555 1 -593 19 -638 15 -38 28 -52 67 -74 45 -24 49 -29
54 -72 4 -25 9 -58 11 -73 8 -38 225 -239 382 -352 67 -49 125 -92 127 -96 3
-5 -4 -88 -16 -186 l-22 -178 -113 -155 -114 -156 0 -353 0 -354 114 -156 114
-157 21 -175 c11 -97 21 -178 21 -182 0 -3 -64 -52 -141 -109 -165 -120 -365
-306 -373 -347 -2 -15 -7 -48 -11 -73 -5 -42 -9 -47 -51 -67 -36 -18 -50 -32
-67 -70 -22 -47 -22 -51 -22 -637 0 -557 1 -593 19 -638 16 -40 27 -52 66 -72
50 -25 60 -46 60 -121 0 -29 12 -44 116 -138 117 -104 117 -105 268 -166 141
-58 164 -65 351 -95 110 -18 254 -36 320 -39 66 -4 516 -29 1000 -56 484 -28
885 -50 890 -50 6 0 8 -32 5 -87 l-5 -88 -120 -22 c-108 -21 -740 -93 -804
-93 -21 0 -34 13 -69 65 -43 66 -61 76 -100 56 -9 -5 -244 -35 -522 -65 -278
-31 -506 -60 -508 -66 -2 -5 -9 -10 -16 -10 -9 0 -11 -14 -5 -52 3 -29 6 -54
5 -54 0 -1 -107 -12 -237 -25 l-236 -23 -15 -161 -14 -160 342 -900 c188 -495
345 -908 349 -917 7 -17 41 -18 519 -18 l511 0 295 931 c162 512 298 933 302
935 4 3 35 -7 70 -21 40 -17 91 -29 139 -32 l76 -6 -4 -191 c-2 -123 6 -383
24 -736 l28 -544 590 -479 c325 -263 598 -484 608 -491 16 -12 59 -301 303
-2017 156 -1102 289 -2045 296 -2096 l11 -92 390 -141 390 -141 1286 -163
c707 -90 1287 -163 1287 -162 1 0 156 469 344 1041 188 572 345 1045 349 1051
3 6 272 252 596 548 325 295 594 543 599 551 7 9 -1 48 -23 122 -26 81 -87
213 -246 531 l-212 422 168 513 169 512 -53 50 c-28 28 -425 403 -882 833
-859 809 -1083 1030 -1068 1055 4 8 89 98 188 200 l180 185 490 -265 c366
-198 622 -345 1010 -583 286 -175 531 -323 545 -329 14 -5 242 -45 507 -87
l481 -76 169 56 169 56 23 78 22 77 391 273 c253 176 394 269 402 264 6 -5
268 -200 581 -434 314 -234 721 -540 905 -681 l335 -256 57 -1 c31 0 59 -4 62
-8 2 -4 8 -35 11 -68 l7 -59 -33 -15 c-37 -16 -40 -32 -25 -132 l7 -47 42 2
41 2 131 -830 130 -830 950 4 c523 2 951 4 953 6 2 2 342 1958 342 1970 0 3
150 5 333 5 l332 0 -50 -43 c-27 -23 -66 -56 -85 -74 l-35 -32 30 -29 c17 -16
176 -110 355 -208 l325 -179 492 282 493 283 459 -2 459 -3 -83 -71 -84 -71
27 -26 c22 -21 587 -342 668 -379 18 -8 96 33 511 271 l490 281 1184 -2 1184
-3 470 -2615 c259 -1438 474 -2623 478 -2632 7 -21 45 -24 52 -5 2 6 -204
1191 -458 2632 l-462 2620 877 3 878 2 0 238 c0 132 3 321 7 420 l6 182 32 0
c18 0 39 -8 49 -19 10 -11 36 -21 62 -24 25 -2 47 -7 50 -10 3 -2 12 -179 21
-393 8 -214 17 -390 18 -392 2 -2 1145 51 2541 118 l2539 121 2569 1386 c1412
762 2603 1403 2645 1424 54 29 129 53 263 87 104 26 188 50 188 54 0 7 -87
149 -97 159 -5 4 -150 -10 -323 -31 l-315 -38 -317 45 -317 45 -63 -45 -63
-45 -73 13 c-40 6 -74 9 -77 5 -2 -3 -14 -33 -26 -66 -12 -32 -23 -60 -24 -61
0 -2 -906 -109 -2011 -238 l-2009 -236 -1820 -109 c-1001 -61 -2133 -129
-2515 -153 l-695 -42 -11 -305 c-7 -168 -12 -344 -13 -392 l-1 -88 -43 0 c-34
0 -49 -6 -67 -25 -18 -19 -33 -25 -55 -23 -30 3 -30 3 -27 59 7 114 -19 754
-31 766 -7 6 -313 91 -682 188 -368 97 -671 178 -673 180 -4 3 -21 469 -22
576 l0 76 918 7 917 7 920 60 920 60 588 83 c323 46 589 85 591 87 1 2 33 285
69 629 l67 625 0 1110 -1 1110 -67 615 -67 615 -581 82 -582 82 -903 60 -904
61 -942 7 -943 6 0 76 c1 135 19 573 24 578 3 3 307 85 677 182 415 110 674
183 679 192 9 15 33 652 29 751 l-3 63 30 3 c20 2 36 -4 49 -18 13 -15 30 -20
65 -20 l47 0 6 -172 c4 -95 10 -273 13 -396 7 -215 8 -223 28 -226 12 -3 404
-27 871 -55 468 -29 1593 -96 2500 -151 l1650 -99 1965 -231 c1081 -126 1983
-233 2006 -236 39 -6 41 -8 64 -70 27 -71 28 -72 120 -54 52 10 53 10 117 -35
l65 -45 316 44 317 44 315 -38 c173 -20 318 -36 322 -34 9 6 101 164 97 168
-2 2 -38 11 -79 21 -41 10 -130 33 -197 51 l-121 33 -2634 1420 -2633 1420
-2420 115 c-1331 64 -2475 119 -2542 122 l-123 7 0 -49 c0 -27 -7 -202 -15
-389 -8 -187 -15 -343 -15 -347 0 -5 -19 -8 -43 -8 -33 0 -49 -6 -67 -25 -15
-16 -34 -25 -55 -25 l-32 0 -6 182 c-4 99 -7 288 -7 420 l0 238 -878 2 -878 3
463 2600 c254 1430 461 2606 458 2613 -6 18 -45 15 -52 -5 -4 -9 -218 -1185
-478 -2612 l-471 -2596 -1183 -3 -1184 -2 -489 281 -490 282 -32 -15 c-97 -47
-635 -353 -658 -375 l-27 -26 84 -71 83 -71 -458 -3 -459 -2 -490 281 c-269
155 -493 281 -496 281 -17 1 -666 -366 -686 -388 l-24 -26 30 -26 c17 -15 55
-48 85 -74 l55 -48 -331 0 -332 0 -11 63 c-6 34 -83 478 -170 986 -88 508
-162 926 -164 928 -3 2 -432 7 -953 10 l-949 6 -130 -834 -131 -834 -41 3 -41
4 -12 -73 c-14 -83 -8 -102 35 -107 l28 -4 -7 -65 c-4 -37 -9 -70 -12 -75 -3
-4 -31 -8 -62 -8 l-58 0 -244 -187 c-254 -193 -993 -749 -1371 -1030 l-217
-161 -388 272 -389 271 -24 77 -24 77 -111 39 c-61 22 -137 48 -169 58 l-58
18 -492 -78 -492 -78 -545 -333 c-416 -254 -658 -394 -1022 -590 -263 -141
-482 -255 -487 -253 -5 1 -93 91 -195 198 l-186 195 132 133 c73 74 516 494
983 935 468 440 862 812 878 826 l27 27 -169 514 -170 515 211 413 c164 322
218 438 244 524 19 61 34 116 34 123 0 7 -271 260 -602 562 l-603 550 -203
619 c-434 1324 -486 1474 -502 1473 -8 -1 -589 -74 -1290 -164z m-5275 -7560
c204 -20 376 -39 383 -41 9 -3 4 -17 -18 -48 -16 -25 -34 -47 -38 -50 -8 -5
-792 81 -799 88 -2 1 0 24 3 50 l7 48 46 -5 c25 -4 213 -22 416 -42z m19414
-1351 c-14 -14 -62 -14 -460 -4 -618 15 -619 16 -39 18 466 2 513 1 499 -14z
m1 -5389 c11 -13 -47 -15 -516 -13 -547 2 -552 3 -74 17 489 14 576 13 590 -4z
m-19053 -1252 c18 -26 30 -49 28 -51 -4 -5 -848 -92 -851 -89 -3 4 -14 97 -11
98 18 4 750 87 772 88 25 0 36 -8 62 -46z"/>
</g>
</svg>
