<?xml version="1.0" standalone="no"?>
<!DOCTYPE svg PUBLIC "-//W3C//DTD SVG 20010904//EN"
 "http://www.w3.org/TR/2001/REC-SVG-20010904/DTD/svg10.dtd">
<svg version="1.0" xmlns="http://www.w3.org/2000/svg"
   viewBox="0 0 4775.000000 4771.000000"
 preserveAspectRatio="xMidYMid meet">
<metadata>
Created by potrace 1.16, written by Peter Selinger 2001-2019
</metadata>
<g transform="translate(0.000000,4771.000000) scale(0.100000,-0.100000)"
fill="#000000" stroke="none">
<path d="M19920 47710 c-1 -3 -8 -977 -15 -2165 l-12 -2160 -77 -117 -76 -117
54 -3273 c30 -1800 57 -3280 60 -3288 6 -13 -56 -15 -522 -12 l-529 4 -6 -333
c-4 -183 -7 -462 -7 -620 l0 -287 -22 -5 c-13 -3 -1583 -283 -3490 -623
l-3468 -618 0 -238 c0 -131 2 -238 5 -238 35 0 1795 -262 4715 -703 l2205
-333 -3 -432 -3 -432 214 0 214 0 7 -61 c3 -34 6 -74 6 -89 l0 -27 -131 -5
c-72 -3 -135 -10 -140 -15 -7 -7 -177 -3482 -179 -3660 0 -8 -13 -13 -32 -13
-18 0 -289 -38 -603 -84 l-570 -85 -840 -220 c-462 -121 -1231 -326 -1710
-456 l-870 -236 -3050 -435 -3050 -434 -2175 -235 c-1196 -130 -2442 -267
-2770 -305 -327 -39 -598 -70 -602 -70 -5 0 -8 -72 -8 -161 l0 -161 -130 3
-130 4 0 -118 c0 -85 -3 -119 -12 -122 -17 -6 -550 -58 -913 -90 -159 -14
-309 -28 -332 -31 l-43 -5 0 -89 0 -88 -28 -6 c-15 -3 -213 -17 -439 -32
l-413 -28 0 -506 0 -506 418 -28 c229 -15 427 -29 439 -32 22 -4 23 -9 23 -93
l0 -90 53 -6 c28 -3 246 -23 482 -45 237 -22 505 -47 597 -57 l168 -17 0 -120
0 -121 130 3 130 4 0 -161 c0 -89 4 -161 8 -161 4 0 257 -29 562 -65 305 -36
1552 -173 2770 -305 l2215 -239 3050 -435 3050 -435 890 -241 c490 -133 1259
-338 1710 -456 l820 -215 570 -85 c314 -46 585 -84 603 -84 19 0 32 -5 32 -12
2 -169 172 -3654 178 -3660 5 -5 68 -12 141 -15 l131 -6 0 -27 c0 -15 -3 -55
-6 -89 l-7 -61 -214 0 -214 0 3 -432 3 -432 -2305 -348 c-2930 -442 -4580
-688 -4615 -688 -3 0 -5 -105 -5 -232 l0 -233 628 -117 c345 -65 1903 -345
3462 -623 1559 -278 2847 -508 2863 -511 l27 -6 0 -287 c0 -158 3 -437 7 -620
l6 -333 529 3 c466 4 528 2 522 -11 -3 -8 -30 -1488 -60 -3288 l-54 -3273 76
-117 77 -117 11 -2162 c6 -1189 13 -2164 16 -2166 3 -3 49 956 103 2131 54
1175 100 2151 102 2167 3 17 40 80 83 140 l78 110 52 3240 c29 1782 53 3266
53 3298 l-1 57 178 1 c97 0 186 4 197 8 20 8 21 53 96 2422 41 1328 74 2416
71 2419 -2 3 -53 6 -113 8 l-109 4 0 83 0 83 120 3 c65 2 124 9 129 14 6 6
118 845 248 1865 130 1020 240 1857 245 1860 4 3 139 14 300 24 161 10 473 35
693 57 l400 40 56 55 56 55 23 132 22 132 -19 129 -19 129 32 13 c49 20 95 87
125 180 23 71 28 109 34 251 6 163 6 172 -24 311 -17 78 -31 145 -31 149 0 3
-31 3 -70 0 -38 -3 -70 -4 -70 -1 0 2 21 48 46 102 83 178 212 570 192 586 -1
2 -121 39 -265 82 -145 43 -263 83 -263 89 0 6 23 78 50 160 30 88 50 167 50
193 l0 43 53 -5 c28 -3 126 -10 217 -16 763 -49 1971 -146 2350 -190 336 -39
1169 -141 1630 -200 882 -113 2717 -329 3395 -399 605 -63 722 -78 1055 -137
l375 -65 1690 -124 1690 -123 1095 -6 1095 -6 1045 35 c575 19 1126 42 1225
50 99 9 761 45 1470 80 710 36 1592 82 1960 103 l670 38 153 84 c84 47 155 93
158 102 3 10 19 19 37 22 1137 177 1947 311 2266 373 l394 78 52 65 52 65 204
74 c131 48 234 93 288 125 80 48 86 54 163 170 l81 119 48 186 c44 172 48 199
56 359 4 94 4 250 0 345 -8 159 -12 186 -56 358 l-48 186 -80 119 c-77 114
-84 121 -164 170 -56 34 -151 75 -288 125 l-204 74 -52 65 -52 65 -394 78
c-309 60 -1389 238 -2266 373 -18 3 -34 12 -37 22 -3 10 -77 56 -163 103
l-158 86 -865 47 c-476 26 -1357 71 -1958 101 -602 31 -1171 62 -1265 70 -95
8 -644 31 -1222 50 l-1050 35 -1095 -5 -1095 -6 -1695 -125 -1695 -124 -370
-65 c-330 -58 -444 -72 -1050 -136 -674 -70 -2633 -300 -3440 -404 -407 -52
-1227 -153 -1585 -194 -393 -46 -1557 -140 -2350 -191 -91 -5 -189 -13 -217
-16 -45 -5 -53 -3 -53 11 0 9 -22 94 -50 190 -27 96 -50 180 -50 187 0 9 90
40 263 92 144 43 264 80 265 82 20 16 -109 408 -192 586 -25 54 -46 100 -46
103 0 3 32 2 70 -1 39 -4 70 -4 70 -1 0 4 14 71 31 149 30 139 30 148 24 311
-6 142 -11 180 -34 251 -30 93 -76 160 -125 180 l-32 13 19 129 19 129 -22
132 -23 132 -56 55 -56 55 -400 40 c-220 22 -532 48 -693 57 -161 10 -296 21
-300 24 -5 3 -115 840 -245 1860 -130 1020 -242 1859 -248 1865 -5 5 -64 12
-129 14 l-120 3 0 83 0 83 109 4 c60 2 111 5 114 8 2 3 -31 1091 -72 2419 -75
2369 -76 2414 -96 2422 -11 4 -100 8 -197 8 l-178 1 1 58 c0 31 -24 1515 -53
3297 l-52 3240 -78 110 c-43 61 -80 124 -82 140 -3 17 -48 975 -101 2130 -96
2107 -99 2174 -105 2165z"/>
</g>
</svg>
