<?xml version="1.0" standalone="no"?>
<!DOCTYPE svg PUBLIC "-//W3C//DTD SVG 20010904//EN"
 "http://www.w3.org/TR/2001/REC-SVG-20010904/DTD/svg10.dtd">
<svg version="1.0" xmlns="http://www.w3.org/2000/svg"
   viewBox="0 0 3902.000000 4511.000000"
 preserveAspectRatio="xMidYMid meet">
<metadata>
Created by potrace 1.16, written by Peter Selinger 2001-2019
</metadata>
<g transform="translate(0.000000,4511.000000) scale(0.100000,-0.100000)"
fill="#000000" stroke="none">
<path d="M10278 45003 l-116 -108 -1 -628 -1 -627 57 -25 c31 -14 59 -27 60
-29 2 -2 -86 -142 -196 -312 l-199 -309 -26 -650 c-14 -357 -94 -2313 -176
-4345 -83 -2032 -149 -3713 -148 -3734 l3 -40 238 -154 237 -154 0 -102 0
-102 263 -89 c144 -48 267 -93 274 -99 6 -6 47 -105 90 -221 l78 -210 43 -3
c49 -4 51 -10 17 -42 l-25 -23 0 -384 0 -383 260 0 260 0 0 -484 c0 -266 -3
-491 -6 -500 -6 -14 -71 -16 -634 -16 l-627 0 -182 -202 c-99 -112 -199 -216
-221 -233 -33 -24 -44 -41 -59 -90 -10 -33 -206 -702 -436 -1487 l-419 -1428
-362 0 -362 0 -94 -36 c-51 -19 -266 -87 -478 -151 l-385 -116 -297 -207 -297
-207 -599 -159 -600 -159 -68 -132 -69 -133 -627 0 -628 0 0 58 0 57 -182 38
-183 37 -1510 0 -1511 0 -217 -132 -217 -133 0 -827 0 -828 377 -2 377 -3 194
-272 194 -273 1151 0 1152 1 188 174 188 175 145 0 144 0 0 -400 0 -400 -462
0 -463 0 -901 -311 -901 -312 -174 -211 -173 -211 -123 -434 -123 -435 0 -116
0 -116 -85 -49 -85 -49 0 -236 0 -236 85 -49 85 -49 0 -116 0 -116 123 -435
123 -434 173 -211 174 -211 901 -312 901 -311 463 0 462 0 0 -400 0 -400 -144
0 -145 0 -188 175 -188 174 -1152 1 -1151 0 -194 -273 -194 -272 -377 -3 -377
-2 0 -828 0 -827 217 -133 217 -132 1511 0 1510 0 183 37 182 38 0 57 0 58
628 0 627 0 69 -133 68 -132 527 -139 c289 -77 560 -149 602 -161 68 -20 105
-42 370 -227 l294 -206 385 -115 c212 -64 427 -132 478 -151 l94 -36 388 0
388 0 41 -123 c35 -108 42 -143 56 -302 16 -186 20 -205 62 -342 l25 -82 158
-141 159 -142 50 -149 49 -149 -61 0 -62 0 -42 -75 -43 -74 0 -213 c0 -210 0
-215 36 -364 l36 -150 88 -67 89 -68 85 -257 c48 -141 90 -262 94 -268 4 -7
93 -80 197 -163 137 -108 220 -166 296 -206 l107 -55 954 0 955 0 6 -772 c4
-425 7 -1101 7 -1501 l0 -728 -180 -117 -179 -117 -1 -95 c0 -95 37 -2471 42
-2670 l3 -105 183 -301 182 -302 0 -209 0 -210 -75 -116 -75 -117 0 -288 0
-287 300 -526 300 -527 -7 -221 -6 -221 -113 0 -113 0 -163 -118 c-150 -108
-165 -122 -189 -172 l-26 -54 -17 32 c-9 17 -20 32 -24 32 -4 0 -113 -45 -242
-100 l-235 -99 -3 -624 -2 -625 119 -111 119 -111 250 0 251 0 3 23 c4 32 46
33 107 3 l50 -26 446 0 446 0 64 47 64 48 108 222 108 223 245 0 245 0 80 -80
80 -80 235 0 235 0 80 80 80 80 245 0 245 0 80 -80 80 -80 235 0 235 0 80 80
80 80 245 0 245 0 80 -80 80 -80 232 0 233 0 20 40 c18 35 25 40 55 40 30 0
37 -5 55 -39 l20 -39 72 27 c40 16 106 40 146 55 l72 28 0 331 0 332 -63 26
c-34 15 -99 43 -145 63 l-83 36 -20 -45 c-18 -40 -23 -45 -53 -45 -30 0 -36 5
-57 48 -21 40 -46 63 -179 159 l-155 113 -302 0 -303 0 0 210 0 210 64 0 c59
0 217 17 224 25 16 15 127 1638 114 1659 -3 6 -52 76 -108 156 l-101 145 92
1535 92 1535 61 107 c33 60 69 120 80 135 15 23 55 279 206 1308 109 744 197
1385 212 1530 13 138 27 265 30 283 l5 32 182 1 c100 1 259 4 353 8 l172 6
116 140 117 140 92 8 c140 11 914 25 1870 32 829 7 857 8 857 26 0 18 -9 19
-132 19 -613 -1 -2486 23 -2503 32 -11 6 -30 14 -43 17 -22 6 -7 27 209 288
l234 282 530 1 530 1 1325 603 1325 602 6 310 c3 170 6 310 7 312 1 1 291 2
645 2 l642 1 157 121 158 121 0 656 0 656 90 58 90 58 0 69 0 70 230 0 230 0
0 390 0 390 324 0 324 0 107 115 107 115 678 0 679 0 120 -55 120 -55 280 0
280 0 78 95 78 95 300 0 c289 0 301 -1 313 -20 11 -18 23 -20 108 -20 86 0 98
2 113 22 l18 22 2234 72 c1229 40 2249 73 2267 74 30 0 33 2 27 23 -4 12 -10
25 -14 30 -4 4 -392 21 -861 37 l-854 30 -27 -26 c-24 -23 -32 -25 -71 -19
-23 4 -54 17 -68 30 l-25 22 -1455 37 c-800 20 -1501 39 -1558 42 l-103 6 -80
94 -81 94 -372 0 -372 0 -27 -55 -27 -55 -54 0 c-53 0 -55 1 -77 40 l-23 40
-90 0 -91 0 -275 220 -275 219 -727 1 -727 0 -103 -40 -103 -40 -321 0 -321 0
-7 31 c-3 17 -6 47 -6 65 l0 34 -613 0 -613 0 -45 -125 -44 -125 -142 0 -143
0 -2 197 -3 197 -90 29 -90 28 -1599 87 -1599 87 -70 273 -70 272 -437 0 -438
0 -6 -68 c-4 -37 -10 -82 -13 -99 l-5 -33 -123 0 -123 0 -6 88 c-4 48 -9 94
-12 103 -4 13 6 18 46 23 38 5 50 11 50 24 0 9 14 32 30 49 l30 33 1309 0
1309 0 21 34 c13 21 21 50 21 78 l0 45 68 14 67 14 3 88 c2 64 -1 88 -10 92
-7 2 -39 9 -70 15 l-58 11 0 270 0 269 69 0 68 0 8 -100 7 -100 158 0 159 0
37 70 38 70 127 0 127 0 41 -65 41 -65 151 0 150 0 127 76 c70 41 234 129 365
195 l237 119 0 295 0 295 30 0 c23 0 30 4 30 20 0 19 7 20 134 20 l133 0 7
-212 c8 -219 16 -292 34 -310 13 -13 542 36 573 53 11 6 150 21 307 35 256 22
293 27 340 49 48 23 90 29 433 60 209 19 382 35 385 35 2 0 9 11 14 24 5 14
19 26 31 28 18 2 29 24 63 123 l43 120 454 1 c250 1 543 2 652 3 l197 1 0 70
0 70 53 -6 c158 -17 232 -20 239 -10 5 8 -34 16 -120 27 l-127 17 463 1 462 1
0 230 0 230 65 0 65 0 0 -75 0 -75 90 -72 90 -72 0 -423 0 -423 445 0 c245 0
445 1 445 3 0 2 68 187 152 412 l152 410 5 159 6 159 100 42 100 41 0 634 0
634 -100 41 -100 42 -6 159 -5 159 -152 410 c-84 225 -152 410 -152 412 0 2
-200 3 -445 3 l-445 0 0 -423 0 -423 -90 -72 -90 -72 0 -75 0 -75 -65 0 -65 0
0 230 0 230 -462 1 -463 1 127 17 c86 11 125 19 120 27 -7 10 -81 7 -239 -10
l-53 -6 0 70 0 70 -197 1 c-109 1 -402 2 -652 3 l-454 1 -43 120 c-34 99 -45
121 -63 123 -12 2 -26 14 -31 28 -5 13 -12 24 -14 24 -3 0 -176 16 -385 35
-344 31 -385 37 -433 60 -47 22 -84 27 -340 49 -157 14 -296 29 -307 35 -31
17 -560 66 -573 53 -18 -18 -26 -91 -34 -309 l-7 -213 -133 0 c-127 0 -134 1
-134 20 0 16 -7 20 -30 20 l-30 0 0 295 0 294 -237 120 c-131 66 -295 154
-365 196 l-127 75 -150 0 -151 0 -41 -65 -41 -65 -127 0 -127 0 -38 70 -37 70
-159 0 -158 0 -7 -100 -8 -100 -68 0 -69 0 0 269 0 270 58 11 c31 6 63 13 70
15 9 4 12 28 10 92 l-3 88 -67 14 -68 14 0 45 c0 28 -8 57 -21 78 l-21 34
-1309 0 -1309 0 -30 33 c-16 17 -30 40 -30 49 0 12 -13 19 -47 25 l-48 8 9
103 8 102 123 0 123 0 5 -32 c3 -18 9 -68 13 -110 l6 -78 668 0 668 0 10 48
c6 26 23 110 39 186 l28 139 4191 -6 4191 -6 13 25 13 24 353 0 352 0 16 -25
16 -25 488 0 c268 0 538 3 600 7 l112 6 78 100 c42 56 79 104 82 108 3 5 735
22 1625 39 891 16 1645 31 1675 33 l55 2 126 230 126 230 2671 -4 2672 -3 0
206 0 206 -28 0 c-15 0 -369 14 -786 30 -418 17 -760 29 -761 28 -1 -2 -30
-51 -64 -110 -62 -106 -64 -108 -100 -108 -160 -1 -3427 115 -3432 122 -3 5
-41 101 -84 213 l-77 204 -62 5 c-33 3 -882 44 -1885 91 -1004 47 -1827 88
-1831 90 -4 2 -15 22 -25 45 -10 22 -23 40 -29 40 -6 0 -180 9 -386 20 -206
11 -396 20 -422 20 l-46 0 -38 65 c-21 36 -41 65 -44 65 -3 0 -287 16 -630 35
-343 19 -627 35 -631 35 -4 0 -76 123 -160 273 -83 149 -153 273 -153 274 -2
2 -1877 184 -2008 195 -24 2 -40 -15 -144 -150 l-116 -152 -42 1 c-22 0 -230
12 -461 27 l-420 27 -3 810 -3 810 -154 118 -154 117 -644 0 -644 0 -7 38 c-3
20 -6 161 -6 313 l0 276 -1330 672 -1329 671 -1171 0 c-643 0 -1170 2 -1170 5
0 3 -130 743 -290 1645 -296 1675 -449 2594 -705 4225 -134 850 -169 1043
-194 1068 -6 6 -301 41 -657 80 l-648 69 -96 -47 -95 -47 -59 11 c-33 6 -62
14 -65 17 -3 3 -8 95 -9 205 l-4 199 40 0 c35 0 41 3 51 30 10 30 11 30 83 30
241 0 811 22 835 32 25 10 3208 106 3571 107 l122 1 0 59 0 59 -152 6 c-84 4
-904 27 -1823 51 -1350 36 -1680 47 -1720 59 -38 12 -149 17 -474 24 -399 9
-425 10 -437 28 -27 38 -36 44 -69 44 -28 0 -35 4 -35 20 0 16 14 24 76 42
l76 22 -4 330 c-4 243 -8 338 -18 358 -10 21 -26 31 -66 43 -28 8 -57 15 -63
15 -6 0 -11 16 -11 35 0 33 2 35 36 35 30 0 37 4 45 30 8 21 18 30 32 30 217
0 865 24 885 32 17 6 707 28 1857 59 1007 27 1833 49 1838 49 6 0 11 109 5
110 -2 1 -829 23 -1839 49 -1195 32 -1843 53 -1857 60 -16 8 -628 31 -862 31
-41 0 -47 3 -57 30 -10 26 -16 30 -51 30 l-39 0 -7 111 c-3 62 -5 113 -4 114
2 2 230 49 508 105 278 56 527 106 553 112 44 9 52 15 83 64 19 29 34 65 34
79 0 24 -221 1891 -236 1991 -8 54 -9 54 -275 54 l-208 0 -51 -72 -52 -73 6
190 c3 105 6 220 6 258 l0 67 301 0 301 0 156 114 c134 97 160 120 179 160 20
41 26 46 57 46 30 0 35 -4 51 -45 9 -26 20 -45 25 -43 4 2 71 30 148 63 l142
60 0 331 0 332 -147 54 -148 55 -19 -38 c-17 -33 -25 -39 -53 -39 -27 0 -36 6
-55 40 l-23 40 -235 0 -235 0 -80 -80 -80 -80 -245 0 -245 0 -80 80 -80 80
-230 0 -230 0 -80 -80 -80 -80 -245 0 -245 0 -80 80 -80 80 -235 0 -235 0 -80
-80 -80 -80 -245 0 -245 0 -112 224 -112 223 -65 47 -65 46 -444 0 -444 0 -46
-26 c-58 -32 -110 -30 -115 4 l-3 22 -248 0 -247 0 -116 -107z m211 -1503 c78
-33 147 -60 152 -60 5 0 15 11 21 25 15 34 22 32 43 -15 22 -48 47 -72 178
-165 78 -55 95 -71 80 -76 -10 -4 -20 -5 -23 -4 -11 5 -595 348 -599 351 -11
10 17 -1 148 -56z m4484 -510 c-45 -77 -52 -81 -125 -78 l-68 3 37 53 37 52
68 0 69 0 -18 -30z"/>
</g>
</svg>
