<?xml version="1.0" standalone="no"?>
<!DOCTYPE svg PUBLIC "-//W3C//DTD SVG 20010904//EN"
 "http://www.w3.org/TR/2001/REC-SVG-20010904/DTD/svg10.dtd">
<svg version="1.0" xmlns="http://www.w3.org/2000/svg"
   viewBox="0 0 3878.000000 4847.000000"
 preserveAspectRatio="xMidYMid meet">
<metadata>
Created by potrace 1.16, written by Peter Selinger 2001-2019
</metadata>
<g transform="translate(0.000000,4847.000000) scale(0.100000,-0.100000)"
fill="#000000" stroke="none">
<path d="M22108 48268 c-2 -112 -2 -239 -2 -283 1 -44 2 -260 2 -480 l2 -400
215 -135 c171 -107 215 -139 215 -157 0 -11 -52 -1300 -115 -2863 -63 -1562
-115 -2854 -115 -2871 l0 -29 71 0 71 0 -6 -117 c-3 -65 -8 -208 -11 -318 -3
-110 -8 -244 -11 -297 l-6 -98 -54 0 -54 0 0 -51 c0 -28 -52 -1334 -115 -2903
-64 -1568 -114 -2866 -113 -2885 3 -31 11 -39 106 -99 l102 -66 0 -193 c0
-186 1 -193 20 -193 19 0 20 -7 20 -95 l0 -95 -70 0 -70 0 0 -115 0 -115
-1450 0 -1450 0 0 138 0 137 -447 63 c-247 34 -722 101 -1058 149 l-610 86
-160 233 c-152 223 -162 234 -204 249 -39 13 -312 15 -2296 15 l-2252 0 -32
218 c-18 119 -35 227 -38 240 -5 22 -7 22 -168 22 l-163 0 -6 -27 c-8 -40 -66
-429 -66 -442 0 -7 -30 -11 -88 -11 -55 0 -106 -6 -135 -16 l-47 -16 0 -203 0
-204 -49 17 c-56 19 -124 76 -1109 930 -432 374 -607 521 -615 513 -6 -6 -9
-12 -6 -14 2 -2 220 -201 484 -442 264 -241 638 -595 831 -787 l352 -348 56 0
56 0 0 -250 0 -250 -44 0 -43 0 -1779 -3035 -1779 -3035 -675 0 -675 0 -837
347 -838 348 0 1258 0 1257 -525 0 -525 0 0 181 c0 99 -5 200 -11 223 -16 65
-62 104 -137 118 -156 29 -252 -47 -252 -198 l0 -53 -680 450 -680 449 -57 0
-58 0 -689 434 -688 434 -247 6 c-135 4 -258 9 -274 12 -53 11 -30 -28 63
-106 l90 -74 120 -28 121 -29 578 -381 578 -382 -8 -34 -7 -33 189 -125 c184
-120 192 -124 244 -124 l54 0 551 -364 552 -365 -1 -123 -2 -123 31 -30 30
-29 0 -153 0 -153 -70 0 -70 0 0 -85 0 -85 70 0 70 0 0 -155 0 -155 -70 0 -70
0 0 -85 0 -85 70 0 70 0 0 -155 0 -155 -70 0 -70 0 0 -90 0 -90 70 0 70 0 0
-150 0 -150 -70 0 -70 0 0 -90 0 -90 70 0 70 0 0 -118 0 -118 -30 -29 -30 -29
0 -348 0 -348 -150 0 c-123 0 -150 -3 -150 -14 0 -16 -78 -684 -82 -703 -2 -8
-140 39 -378 128 l-375 140 -255 44 c-140 25 -264 47 -276 50 -19 4 -25 -5
-48 -67 -14 -39 -25 -72 -24 -73 53 -35 232 -116 354 -161 l161 -59 7 -80 c3
-44 6 -169 6 -277 l0 -198 -655 0 -655 0 0 -592 c0 -326 -3 -718 -7 -870 l-6
-278 706 0 707 0 0 -120 0 -120 -707 0 -706 0 6 -278 c4 -152 7 -544 7 -869
l0 -593 655 0 655 0 -1 -217 c-1 -120 -4 -245 -8 -278 l-6 -59 -175 -66 c-136
-51 -278 -117 -338 -155 -1 -1 10 -33 24 -72 20 -53 30 -70 43 -67 9 2 133 24
276 49 l260 45 375 140 c206 76 375 138 376 137 2 -3 84 -698 84 -714 0 -10
37 -13 150 -13 l150 0 0 -348 0 -348 30 -29 30 -29 0 -118 0 -118 -70 0 -70 0
0 -85 0 -85 70 0 70 0 0 -155 0 -155 -70 0 -70 0 0 -90 0 -90 70 0 70 0 0
-155 0 -155 -70 0 -70 0 0 -85 0 -85 70 0 70 0 0 -155 0 -155 -70 0 -70 0 0
-85 0 -85 70 0 70 0 0 -153 0 -153 -31 -30 -30 -29 3 -121 3 -122 -550 -363
-549 -364 -61 -3 c-58 -4 -66 -8 -247 -127 l-187 -124 9 -32 c5 -18 9 -33 7
-34 -1 -1 -262 -173 -579 -383 l-577 -381 -121 -28 -121 -28 -87 -73 c-48 -40
-89 -80 -90 -89 -4 -14 22 -15 270 -8 l273 7 685 431 685 432 65 5 c74 6 -39
-65 1033 643 l387 256 0 -53 c0 -111 47 -178 139 -197 123 -26 226 22 250 117
6 23 11 124 11 223 l0 181 525 0 525 0 0 1258 0 1257 836 347 836 348 677 0
677 0 1774 -3030 1775 -3029 48 -1 47 0 0 -250 0 -250 -51 0 -52 0 -346 -344
c-190 -189 -566 -545 -836 -792 -269 -246 -490 -453 -490 -458 0 -6 6 -10 12
-9 7 2 300 252 650 555 984 853 1005 870 1062 890 l51 17 0 -202 0 -202 49
-18 c32 -11 79 -17 135 -17 50 0 86 -4 86 -10 0 -12 59 -405 66 -442 l6 -28
163 0 c161 0 163 0 168 22 3 13 20 121 38 241 l32 217 2252 0 c1995 0 2256 2
2296 15 42 15 52 27 204 249 l160 234 85 13 c47 6 522 73 1055 148 l970 136 3
138 3 137 1449 0 1450 0 0 -115 0 -115 70 0 70 0 0 -95 c0 -88 -1 -95 -20 -95
-19 0 -20 -7 -20 -192 l0 -193 -105 -67 c-104 -67 -105 -68 -105 -107 0 -21
52 -1318 115 -2882 63 -1564 115 -2867 115 -2896 l0 -53 54 0 54 0 6 -97 c3
-54 8 -192 11 -308 3 -115 8 -254 11 -307 l6 -98 -72 0 -72 0 6 -117 c15 -271
226 -5582 224 -5622 l-3 -45 -213 -134 -213 -134 0 -407 c0 -223 -1 -433 -2
-466 -1 -33 -1 -151 1 -262 l2 -203 645 0 646 0 162 66 c89 36 176 72 192 80
17 8 61 23 99 34 38 11 70 21 71 22 1 2 52 1490 114 3308 62 1818 115 3360
118 3428 l6 122 -88 0 -88 0 7 222 c3 123 9 305 13 405 l6 183 74 0 73 0 0 35
c0 19 41 1093 90 2385 50 1292 90 2366 90 2385 l0 35 555 0 555 0 0 940 c0
933 0 940 -20 940 -19 0 -20 7 -20 95 l0 95 125 0 125 0 0 40 0 40 105 0 c100
0 105 -1 105 -21 l0 -21 630 7 c465 6 630 5 630 -4 0 -14 92 -15 106 -1 5 5
72 11 149 13 l140 3 -142 2 c-81 1 -144 6 -148 12 -3 6 -28 10 -56 10 -27 0
-49 -4 -49 -10 0 -7 -177 -10 -510 -10 -333 0 -510 3 -510 10 0 6 18 10 39 10
37 0 42 4 92 70 l54 70 2006 0 c1391 0 2015 3 2037 11 38 13 47 44 21 70 -19
19 -58 19 -2000 19 l-1980 0 15 22 c10 15 16 44 16 83 l-1 60 -109 138 -110
137 -146 0 -147 0 7 443 c4 245 11 446 16 451 15 15 414 68 418 56 2 -6 113
-10 303 -10 292 0 299 0 299 -20 0 -19 7 -20 238 -20 l237 0 13 48 c7 26 15
59 19 75 4 19 13 29 32 34 36 9 619 8 712 -2 54 -5 78 -4 83 4 9 14 76 15 76
1 0 -13 93 -13 106 0 5 5 72 11 149 13 l140 3 -142 2 c-81 1 -144 6 -148 12
-8 13 -105 13 -105 0 0 -13 -67 -13 -75 0 -8 13 -115 13 -115 0 0 -7 -119 -9
-352 -8 l-352 3 -7 30 c-3 17 -11 42 -17 57 l-12 28 -539 0 c-373 0 -540 -3
-543 -11 -2 -7 -70 -1 -208 18 l-205 28 -3 140 c-2 77 0 290 3 472 l7 333 292
1 291 0 86 92 86 92 42 1020 c23 561 45 1073 48 1138 l6 117 79 0 78 0 0 89 0
90 58 16 c31 9 255 76 496 148 438 132 440 132 448 162 12 45 -8 2626 -21
2634 -5 3 -89 31 -185 61 -139 44 -176 59 -176 73 0 16 43 17 768 16 526 0
758 -4 740 -11 -31 -11 -33 -20 -17 -66 l11 -32 35 15 c31 13 271 15 1832 15
l1796 1 665 349 665 349 0 121 0 122 -665 349 -665 349 -1791 0 c-1528 0
-1797 2 -1832 14 l-41 15 -10 -31 c-16 -45 -14 -53 17 -65 20 -8 -177 -11
-740 -12 -728 -1 -768 0 -768 17 0 14 37 29 185 76 l185 59 0 159 0 158 5124
0 c5048 0 5127 0 5259 20 131 19 137 21 237 78 l102 60 60 103 60 104 0 136 1
137 -59 103 -60 104 -103 61 c-176 104 408 94 -5481 94 l-5132 0 7 643 c3 357
2 655 -2 672 -9 30 -10 30 -506 179 l-497 149 0 89 0 88 -78 0 -79 0 -6 118
c-3 64 -25 576 -48 1137 l-43 1020 -85 92 -86 93 -291 0 -291 0 -6 248 c-4
136 -7 349 -7 473 l0 225 207 28 c146 20 208 25 211 17 3 -8 156 -11 543 -11
l539 0 12 28 c6 15 14 41 17 57 l7 30 637 1 c350 0 640 3 644 7 3 4 -57 7
-135 7 -88 0 -142 4 -142 10 0 6 -25 10 -55 10 -30 0 -55 -4 -55 -10 0 -12
-63 -14 -74 -3 -4 4 -186 7 -404 5 -218 -2 -402 1 -407 5 -10 8 -31 71 -42
126 l-5 27 -239 0 c-232 0 -239 -1 -239 -20 0 -20 -7 -20 -299 -20 -176 0
-301 -4 -303 -9 -4 -11 -406 43 -418 56 -5 4 -12 207 -16 451 l-7 442 146 0
146 0 110 138 110 137 1 60 c0 39 -5 68 -16 83 l-15 22 1986 2 c1898 3 1987 4
2000 21 18 24 7 57 -22 68 -15 5 -832 9 -2036 9 l-2012 1 -54 69 c-50 65 -57
70 -92 70 -22 0 -39 5 -39 10 0 7 228 10 701 9 385 -1 703 2 706 5 4 3 -57 6
-135 6 -88 0 -142 4 -142 10 0 6 -25 10 -55 10 -30 0 -55 -4 -55 -8 0 -4 -283
-6 -630 -4 l-630 4 0 -21 c0 -20 -5 -21 -105 -21 l-105 0 0 40 0 40 -125 0
-125 0 0 95 c0 88 1 95 20 95 20 0 20 7 20 940 l0 940 -555 0 -555 0 0 35 c0
19 -40 1093 -90 2385 -49 1292 -90 2366 -90 2385 l0 35 -73 0 -74 0 -6 188
c-4 103 -10 289 -14 415 l-6 227 86 0 c76 0 87 2 87 18 1 33 -233 6897 -235
6900 -2 2 -90 29 -196 62 -107 32 -222 70 -256 84 l-63 26 -650 0 -650 0 -2
-202z"/>
</g>
</svg>
