<?xml version="1.0" standalone="no"?>
<!DOCTYPE svg PUBLIC "-//W3C//DTD SVG 20010904//EN"
 "http://www.w3.org/TR/2001/REC-SVG-20010904/DTD/svg10.dtd">
<svg version="1.0" xmlns="http://www.w3.org/2000/svg"
   viewBox="0 0 4283.000000 1944.000000"
 preserveAspectRatio="xMidYMid meet">
<metadata>
Created by potrace 1.16, written by Peter Selinger 2001-2019
</metadata>
<g transform="translate(0.000000,1944.000000) scale(0.100000,-0.100000)"
fill="#000000" stroke="none">
<path d="M14500 19195 l0 -245 -312 0 -311 0 7 -307 c3 -170 9 -318 12 -330
l6 -23 -1603 -1 -1604 0 -510 -454 -510 -454 -96 0 c-53 -1 -143 -4 -200 -7
l-104 -7 -100 -158 c-99 -156 -101 -159 -140 -164 -22 -3 -274 -21 -560 -41
l-520 -37 -265 17 c-146 10 -279 20 -296 23 -28 4 -34 0 -60 -40 l-28 -45
-106 -7 c-58 -3 -112 -7 -120 -8 -8 -1 -156 -169 -328 -372 l-313 -370 -287
-111 -287 -111 -3 -122 c-2 -106 -5 -121 -20 -121 -9 0 -149 7 -312 15 l-295
16 -1135 -261 -1135 -260 -28 -35 -29 -35 -1454 0 -1454 0 0 -95 0 -95 1365 0
c751 0 1365 -2 1365 -5 0 -3 -39 -50 -87 -104 -57 -66 -95 -101 -112 -104 -14
-3 -590 -78 -1279 -168 l-1252 -164 0 -1091 0 -1092 33 -5 c17 -3 592 -79
1277 -168 l1244 -162 26 -31 c14 -17 53 -62 87 -101 l63 -70 -1365 -3 -1365
-2 0 -95 0 -95 1447 0 1447 0 41 -39 40 -40 1135 -259 1135 -259 400 23 c219
13 401 21 404 19 2 -3 -3 -277 -11 -610 -13 -533 -13 -677 0 -1210 8 -333 13
-607 11 -610 -3 -2 -184 7 -404 20 l-400 23 -1135 -260 -1135 -259 -40 -40
-41 -39 -1447 0 -1447 0 0 -95 0 -95 1364 -2 1363 -3 -86 -100 -86 -101 -1250
-163 c-687 -90 -1262 -166 -1277 -168 l-28 -5 0 -1092 0 -1091 1253 -164 c688
-89 1264 -165 1278 -168 17 -3 55 -38 112 -104 48 -54 87 -101 87 -104 0 -3
-614 -5 -1365 -5 l-1365 0 0 -95 0 -95 1454 0 1455 0 28 -35 28 -34 1137 -261
1136 -260 288 15 c158 8 298 15 311 15 22 0 22 -3 25 -121 l3 -121 287 -112
288 -111 290 -345 c160 -190 304 -357 321 -372 23 -22 39 -28 77 -28 26 0 77
-3 113 -6 64 -6 66 -7 94 -51 23 -38 31 -43 54 -39 14 3 150 13 301 22 l275
17 515 -37 c283 -20 533 -39 555 -41 39 -5 41 -8 140 -165 l100 -159 60 -2
c33 -1 124 -4 201 -8 l142 -6 511 -453 510 -452 1602 0 1601 0 -6 -22 c-3 -13
-9 -161 -12 -330 l-7 -308 311 0 312 0 0 -245 0 -245 875 0 875 0 0 245 0 245
305 0 305 0 0 183 c0 100 -9 390 -21 645 -11 255 -19 465 -17 466 1 2 177 94
389 205 l387 202 2118 324 c1166 179 2128 325 2139 325 11 0 101 -48 200 -107
l180 -108 905 -5 905 -5 -38 -29 c-37 -29 -41 -29 -235 -41 -169 -11 -241 -21
-507 -73 l-310 -61 -950 -77 c-522 -42 -952 -78 -953 -80 -2 -1 -6 -148 -9
-326 -4 -237 -1 -428 12 -709 l18 -384 426 33 c234 18 2165 176 4291 352 2126
176 4617 378 5535 450 919 72 1684 135 1700 141 51 17 1354 207 1606 234 229
24 268 32 914 179 372 84 679 156 682 160 3 3 2 108 -3 233 -6 126 -9 229 -8
231 0 1 372 -26 825 -61 l824 -62 501 206 c276 114 512 213 525 219 13 7 201
136 417 287 l392 274 168 185 c92 103 188 218 214 258 l47 71 -58 330 -57 331
-102 124 c-90 110 -99 125 -84 135 9 7 127 79 262 161 333 202 589 396 924
702 l258 237 -7 122 -7 122 33 20 c19 12 138 128 265 260 l232 239 268 383
268 383 202 505 201 506 53 467 53 468 -53 467 -53 468 -201 505 -201 505
-270 385 -269 385 -231 238 c-126 131 -245 247 -263 259 l-34 21 7 121 7 121
-258 237 c-341 312 -599 507 -947 718 -255 153 -256 154 -239 176 9 12 55 69
102 127 l85 106 57 328 57 328 -44 68 c-24 38 -120 153 -212 256 l-168 187
-405 283 -405 282 -515 213 -515 212 -824 -63 c-453 -35 -825 -62 -825 -61 -1
2 2 105 8 231 5 125 6 230 3 234 -4 3 -309 75 -679 159 -644 147 -683 155
-908 178 -263 28 -1580 221 -1607 235 -10 5 -747 66 -1638 136 -891 69 -3332
268 -5425 441 -2093 173 -4051 334 -4351 357 l-546 43 -18 -385 c-13 -281 -16
-472 -12 -709 3 -178 7 -325 9 -326 1 -2 431 -38 953 -80 l950 -77 315 -61
c269 -52 343 -63 506 -72 189 -12 192 -12 230 -41 l39 -30 -905 -5 -905 -5
-183 -109 -182 -109 -53 7 c-28 4 -990 151 -2136 326 l-2083 320 -387 201
c-212 111 -388 203 -389 205 -2 1 6 211 17 466 12 255 21 545 21 646 l0 182
-305 0 -305 0 0 245 0 245 -875 0 -875 0 0 -245z m11825 -2740 c193 -36 360
-69 373 -72 17 -4 22 -12 22 -39 0 -29 4 -34 33 -39 17 -4 358 -71 757 -149
l725 -142 9 -92 c8 -82 12 -93 30 -97 12 -3 117 -21 234 -40 205 -34 253 -38
1415 -105 l1202 -69 645 -136 645 -136 388 -28 c213 -15 389 -30 392 -33 3 -2
-12 -28 -32 -56 -35 -51 -37 -52 -87 -52 -28 0 -948 54 -2044 119 l-1992 119
-1435 358 -1435 359 0 38 c0 31 -17 63 -102 190 -129 191 -121 178 -106 172 7
-2 171 -34 363 -70z m6839 -12237 l37 -53 -28 -6 c-15 -4 -183 -17 -373 -29
l-345 -23 -665 -138 -665 -139 -1200 -70 c-1164 -67 -1207 -70 -1415 -105
-118 -19 -225 -37 -236 -40 -19 -4 -22 -14 -28 -94 -6 -72 -11 -91 -24 -95 -9
-3 -341 -69 -737 -146 -396 -78 -730 -144 -742 -147 -18 -4 -23 -12 -23 -39 0
-19 -1 -34 -2 -34 -2 0 -175 -33 -385 -73 l-383 -73 18 26 c9 14 59 87 110
163 76 112 92 143 92 174 l0 38 1436 359 1436 359 1957 117 c1076 65 1995 118
2042 119 l86 1 37 -52z"/>
</g>
</svg>
