<?xml version="1.0" standalone="no"?>
<!DOCTYPE svg PUBLIC "-//W3C//DTD SVG 20010904//EN"
 "http://www.w3.org/TR/2001/REC-SVG-20010904/DTD/svg10.dtd">
<svg version="1.0" xmlns="http://www.w3.org/2000/svg"
   viewBox="0 0 3947.000000 2159.000000"
 preserveAspectRatio="xMidYMid meet">
<metadata>
Created by potrace 1.16, written by Peter Selinger 2001-2019
</metadata>
<g transform="translate(0.000000,2159.000000) scale(0.100000,-0.100000)"
fill="#000000" stroke="none">
<path d="M17770 21490 l-175 -97 -168 -189 -167 -188 2 -305 3 -304 216 -171
c119 -94 280 -221 358 -283 l141 -111 -205 -246 -205 -246 -63 1 c-34 0 -334
11 -667 23 l-605 24 -182 -87 -182 -86 -1 -783 0 -783 176 -85 175 -84 125 0
124 0 0 -1415 0 -1415 -1394 0 -1394 0 -201 163 -200 162 -374 153 -373 152
-1628 -7 -1629 -8 -113 -200 -113 -200 -2216 -162 -2215 -161 -273 -108 -272
-109 -71 -68 -72 -68 -117 76 -118 77 -1506 -88 -1506 -88 -77 -75 -78 -74 0
-1128 0 -1127 76 -70 c89 -82 67 -77 364 -93 118 -6 216 -12 217 -13 2 -2
-108 -29 -244 -61 l-247 -59 -337 -210 -338 -210 -8 -76 c-10 -91 -7 -348 4
-409 l8 -43 336 -208 336 -208 242 -58 c281 -68 283 -65 -49 -84 l-205 -11
-77 -77 -78 -77 1 -1125 1 -1125 76 -71 77 -71 1505 -90 1505 -89 114 73 c63
40 117 73 120 73 4 0 33 -27 66 -60 l59 -60 291 -115 290 -114 2180 -156
c1199 -85 2194 -158 2210 -161 27 -4 40 -23 143 -209 l114 -205 1631 0 1632 0
369 151 370 152 201 163 200 163 1393 1 1392 0 0 -1415 0 -1415 -120 0 -121 0
-179 -87 -180 -86 0 -782 0 -782 179 -87 180 -87 573 20 c315 11 616 23 668
26 l96 6 207 -248 c114 -136 204 -250 200 -253 -5 -4 -167 -132 -360 -284
l-353 -278 0 -305 0 -305 166 -186 166 -187 177 -97 176 -98 2179 0 2178 0
502 50 501 51 56 55 56 56 -4 91 -4 92 110 117 111 116 0 249 0 248 -111 110
-111 110 5 133 5 133 -56 76 -55 76 -92 -6 -92 -5 -7 173 -7 174 437 1458
c240 802 467 1562 505 1688 53 178 172 500 526 1422 l458 1193 1098 0 1097 0
0 -462 c-1 -488 -14 -1051 -25 -1081 -7 -16 56 -17 1239 -17 l1246 0 0 503 0
504 452 6 c248 4 833 7 1300 7 672 0 848 -3 848 -12 -1 -28 33 -743 35 -746 8
-11 292 -102 318 -102 43 0 59 -12 55 -40 -2 -19 -19 -29 -93 -56 -87 -32 -96
-33 -242 -33 l-153 -1 0 -263 0 -263 75 -172 75 -172 0 -165 0 -165 1483 0
1482 1 95 57 c89 54 99 63 170 163 67 93 78 114 95 187 l18 82 554 0 553 0 0
40 0 40 -540 0 c-373 0 -540 3 -540 11 0 5 5 29 11 53 l11 43 165 6 c92 4 306
7 477 7 l311 1 39 49 39 50 454 0 453 0 0 90 0 90 -452 0 -453 1 -40 49 -40
50 -477 0 -478 0 0 65 0 66 -95 61 -95 61 0 66 0 66 111 60 c107 58 117 66
258 215 l146 155 232 452 c231 449 236 458 645 1108 l413 655 155 79 155 80
135 136 c176 178 288 257 416 296 138 41 642 293 824 411 l145 94 78 110 c42
60 105 164 139 230 l62 122 -52 111 c-29 62 -90 167 -137 235 l-85 122 -158
101 c-199 129 -660 359 -811 407 -93 28 -120 43 -207 106 -54 40 -158 131
-231 203 -128 126 -135 132 -279 207 l-148 77 -410 649 c-407 645 -411 652
-645 1106 l-236 456 -144 156 c-141 154 -145 157 -257 217 l-114 61 0 64 0 65
95 62 95 61 0 63 0 63 474 0 475 0 42 50 42 50 454 0 453 0 0 90 0 90 -452 0
-453 1 -44 54 -43 55 -473 0 -473 0 -5 29 c-3 16 -9 40 -13 55 l-6 26 541 0
541 0 0 45 0 45 -553 0 -554 0 -18 80 c-16 71 -27 92 -96 189 -77 106 -81 110
-178 165 l-99 56 -1476 0 -1476 0 0 -168 0 -169 -75 -170 -75 -171 0 -266 0
-266 152 0 c144 0 158 -2 245 -31 89 -29 93 -32 93 -60 0 -27 -3 -29 -37 -29
-21 0 -106 -23 -189 -52 l-151 -52 -12 -271 c-7 -148 -15 -318 -18 -377 l-6
-108 -1299 0 -1298 0 0 505 0 505 -1243 0 -1242 0 7 -67 c3 -38 10 -389 14
-780 l7 -713 -599 0 c-329 0 -824 3 -1100 7 l-501 6 -457 1189 -456 1189 -379
1267 c-209 697 -436 1456 -505 1687 l-126 419 6 175 7 174 92 -6 92 -5 55 78
56 77 -6 134 -5 134 112 107 111 108 0 250 0 250 -111 115 -112 115 5 94 5 95
-53 52 -54 53 -512 52 -513 53 -2170 -1 -2170 0 -175 -98z"/>
</g>
</svg>
