<?xml version="1.0" standalone="no"?>
<!DOCTYPE svg PUBLIC "-//W3C//DTD SVG 20010904//EN"
 "http://www.w3.org/TR/2001/REC-SVG-20010904/DTD/svg10.dtd">
<svg version="1.0" xmlns="http://www.w3.org/2000/svg"
   viewBox="0 0 3521.000000 4646.000000"
 preserveAspectRatio="xMidYMid meet">
<metadata>
Created by potrace 1.16, written by Peter Selinger 2001-2019
</metadata>
<g transform="translate(0.000000,4646.000000) scale(0.100000,-0.100000)"
fill="#000000" stroke="none">
<path d="M15755 46438 c-2 -13 -27 -210 -56 -438 -28 -228 -52 -416 -53 -417
-1 -1 -119 11 -261 27 l-259 30 -25 -23 c-14 -12 -357 -338 -763 -725 l-737
-702 -258 -11 c-142 -6 -269 -15 -282 -20 -27 -11 -814 -563 -829 -582 -5 -7
-85 -246 -177 -532 -92 -286 -171 -524 -176 -529 -7 -8 -1563 -94 -1716 -96
-38 0 -43 -3 -43 -23 0 -29 -89 -22 935 -73 413 -20 751 -38 752 -38 1 -1 -79
-251 -178 -556 -99 -305 -198 -613 -220 -683 l-41 -129 -31 5 c-50 8 -405 -50
-457 -74 -89 -42 -436 -251 -460 -278 l-25 -28 -402 -11 -401 -11 -501 -188
-501 -188 -418 -358 -419 -358 -82 -200 -81 -199 -97 -1288 c-53 -708 -98
-1288 -99 -1290 -1 -2 -217 6 -481 17 -263 12 -507 21 -543 21 l-65 0 -230
-381 c-126 -209 -233 -385 -236 -390 -4 -8 -406 220 -444 251 -5 5 -82 157
-170 339 -92 190 -166 331 -173 331 -8 0 -935 -237 -2060 -527 l-2047 -527
-275 -12 c-151 -7 -300 -13 -332 -13 l-56 -1 -65 -272 -66 -273 -15 -375 c-50
-1183 -136 -3841 -136 -4210 -1 -167 2 -187 47 -427 37 -202 50 -253 62 -253
9 0 160 -14 336 -30 l320 -30 2015 -628 2015 -628 143 240 c79 133 145 242
146 244 2 1 132 -140 290 -313 l287 -315 -8 -92 -8 -92 -936 -135 -937 -136
-6 -44 c-10 -72 -7 -1539 3 -1545 5 -4 432 -92 948 -197 516 -105 940 -194
943 -198 7 -7 -13 -648 -20 -653 -3 -3 -815 -33 -1805 -67 -990 -34 -1847 -65
-1905 -69 -76 -5 425 -27 1793 -78 1044 -39 1901 -74 1904 -78 4 -4 -1 -248
-10 -544 -24 -735 -23 -1597 3 -2348 11 -323 18 -589 15 -592 -2 -3 -850 -34
-1884 -71 -1034 -36 -1878 -68 -1875 -70 2 -3 851 -36 1887 -75 l1882 -71 6
-105 c4 -58 8 -172 9 -255 l3 -149 -934 -191 c-514 -105 -942 -194 -951 -198
-17 -6 -18 -51 -17 -769 1 -420 4 -776 8 -793 l6 -29 935 -136 935 -135 8 -88
8 -88 -38 -44 c-21 -24 -150 -167 -288 -318 l-250 -274 -145 242 -145 242
-2020 -629 -2020 -629 -330 -30 c-181 -17 -330 -31 -331 -32 -1 -1 -22 -112
-48 -247 -44 -235 -46 -253 -46 -426 0 -358 77 -2763 130 -4079 l21 -510 66
-272 65 -273 32 0 c17 0 162 -5 321 -11 l290 -12 2058 -528 c1132 -291 2064
-529 2070 -529 7 0 84 149 172 331 88 182 166 335 172 341 18 15 436 259 438
256 1 -2 107 -176 235 -388 128 -212 235 -387 237 -389 2 -3 246 6 544 18 297
13 542 21 543 19 1 -1 46 -582 99 -1289 l97 -1287 81 -199 82 -200 418 -358
419 -359 501 -188 501 -188 402 -11 401 -11 20 -23 c19 -23 362 -233 455 -279
50 -26 371 -80 452 -78 l47 2 34 -108 c19 -59 128 -396 242 -750 114 -353 206
-644 203 -647 -3 -3 -373 -28 -824 -55 -450 -28 -839 -53 -864 -57 -27 -4 307
-29 858 -63 497 -32 907 -61 911 -66 4 -5 72 -209 150 -454 79 -245 151 -453
160 -462 38 -39 806 -571 835 -578 17 -5 119 -11 226 -15 107 -4 220 -10 251
-14 l56 -6 719 -685 c395 -377 737 -702 760 -722 l40 -37 250 29 c137 15 251
25 254 20 3 -5 30 -207 60 -449 l54 -441 28 0 c32 0 1069 76 1167 86 l63 6 -7
301 c-5 214 -14 354 -29 479 -12 98 -19 178 -14 178 61 0 637 76 703 93 l90
23 -3 170 c-2 93 -7 349 -12 568 -6 220 -9 400 -7 402 2 1 873 44 905 44 8 0
12 20 12 69 l0 68 -87 7 c-49 3 -254 13 -458 22 -203 9 -372 18 -374 21 -6 5
-23 734 -17 740 3 3 2415 68 2724 73 8 0 12 21 12 69 l0 69 -82 6 c-68 4
-2569 67 -2645 66 -23 0 -23 2 -23 130 0 117 2 130 18 130 47 0 1524 71 1570
76 l52 5 0 89 0 88 -102 6 c-57 3 -427 15 -823 27 -396 11 -721 21 -722 22 -4
5 -55 2349 -50 2353 2 2 1281 46 2841 98 1560 51 2838 95 2841 97 2 3 -1174
46 -2613 97 -1439 51 -2649 95 -2688 98 l-72 6 164 276 164 275 -40 105 -41
104 19 32 c10 17 189 303 396 635 l377 605 -30 433 c-21 293 -35 440 -43 451
-7 10 -98 122 -202 249 l-188 231 -1462 617 c-803 339 -1464 620 -1467 624 -8
9 846 4644 857 4648 5 2 308 156 674 342 l664 338 446 819 446 819 55 3 c30 2
824 -18 1764 -43 l1710 -46 322 -109 322 -109 802 113 803 112 398 439 c398
437 399 438 380 459 -11 12 -184 212 -386 446 -202 234 -377 428 -389 433 -12
4 -374 63 -804 132 l-782 125 -318 -101 -318 -101 -895 -5 c-571 -3 -891 -2
-885 5 10 10 2832 913 2945 943 l65 17 57 -29 56 -28 449 44 c246 24 464 47
484 50 l35 5 189 -243 189 -242 1201 227 1200 227 27 -27 28 -26 1347 207
1348 206 1270 106 1270 105 285 52 285 52 45 191 45 190 555 111 c305 62 681
142 835 180 l281 68 132 176 132 177 0 263 0 263 -132 177 -133 177 -280 69
c-154 37 -530 118 -835 179 l-555 111 -45 190 -45 190 -285 52 -285 53 -1260
104 -1260 104 -1357 208 -1358 207 -27 -26 -28 -26 -1155 218 c-635 121 -1175
223 -1200 228 l-46 8 -188 -242 c-183 -236 -189 -242 -220 -238 -17 3 -235 25
-484 49 l-452 45 -58 -29 c-53 -27 -60 -28 -103 -17 -112 29 -2959 942 -2959
949 0 4 399 7 888 5 l887 -4 318 -101 319 -102 800 129 c441 71 804 133 808
137 4 4 168 195 365 423 197 228 369 427 382 441 l24 26 -399 439 -398 439
-801 112 -801 112 -325 -108 -326 -109 -1761 -47 c-968 -26 -1762 -46 -1764
-44 -2 2 -204 373 -448 824 l-444 819 -664 338 c-366 186 -669 339 -674 341
-7 2 -844 4518 -858 4626 -3 24 57 50 1464 645 l1468 621 98 120 c53 66 144
177 200 246 l102 126 31 435 30 435 -389 624 c-213 343 -391 629 -395 635 -4
7 11 59 33 117 l39 106 -125 211 c-69 117 -124 213 -122 216 2 2 746 28 1654
59 907 30 1700 57 1762 61 l112 6 0 88 0 88 -62 6 c-35 3 -895 33 -1911 67
l-1848 61 -44 25 c-25 13 -48 29 -51 34 -5 8 35 2041 40 2045 0 1 568 27 1261
58 693 31 1275 59 1293 62 26 4 32 9 32 29 0 14 -6 25 -13 25 -32 0 -2372 110
-2464 115 l-103 7 0 111 c0 62 4 118 9 126 7 11 209 25 985 70 906 52 976 57
976 73 0 10 -1 18 -2 19 -2 1 -441 27 -975 58 -535 32 -975 60 -978 62 -5 6
10 688 16 693 2 3 426 28 942 58 l937 53 0 27 c0 24 -4 28 -27 28 -31 0 -1847
102 -1849 104 -1 0 6 341 16 756 9 415 14 758 11 761 -18 19 -261 61 -516 90
-159 17 -291 33 -293 34 -1 1 7 76 18 166 15 118 23 248 27 466 l6 301 -54 6
c-46 5 -1141 86 -1161 86 -4 0 -10 -10 -13 -22z"/>
</g>
</svg>
