<?xml version="1.0" standalone="no"?>
<!DOCTYPE svg PUBLIC "-//W3C//DTD SVG 20010904//EN"
 "http://www.w3.org/TR/2001/REC-SVG-20010904/DTD/svg10.dtd">
<svg version="1.0" xmlns="http://www.w3.org/2000/svg"
   viewBox="0 0 3521.000000 4628.000000"
 preserveAspectRatio="xMidYMid meet">
<metadata>
Created by potrace 1.16, written by Peter Selinger 2001-2019
</metadata>
<g transform="translate(0.000000,4628.000000) scale(0.100000,-0.100000)"
fill="#000000" stroke="none">
<path d="M16030 46274 c0 -16 -102 -819 -105 -822 -1 -1 -182 18 -401 43
l-398 46 -81 -79 c-44 -44 -366 -350 -715 -682 -349 -332 -655 -623 -680 -646
l-45 -44 -270 -13 -270 -13 -400 -281 c-220 -155 -408 -287 -417 -295 -10 -8
-84 -220 -188 -543 -94 -291 -173 -531 -175 -534 -5 -4 -1617 -90 -1712 -91
-38 0 -43 -3 -43 -24 0 -28 -80 -22 930 -72 410 -20 747 -39 749 -41 2 -1 -94
-309 -215 -684 l-219 -680 -35 4 c-51 6 -397 -50 -452 -73 -66 -28 -427 -246
-463 -280 l-30 -28 -400 -11 -400 -11 -500 -188 -501 -188 -419 -360 -420
-361 -79 -194 -79 -194 -98 -1288 c-53 -709 -100 -1291 -102 -1294 -3 -2 -219
5 -480 16 -261 12 -504 21 -540 21 l-64 0 -238 -390 c-230 -379 -238 -390
-259 -377 -11 8 -111 66 -221 131 l-200 116 -163 338 -163 338 -2052 -529
-2052 -528 -335 -15 c-184 -9 -338 -19 -341 -22 -4 -4 -34 -122 -68 -263 l-62
-256 -14 -324 c-28 -624 -84 -2234 -116 -3324 l-32 -1100 51 -264 c28 -145 52
-265 54 -266 2 -2 152 -17 333 -33 l330 -31 2009 -625 c1105 -344 2015 -626
2021 -626 6 0 75 109 154 241 l143 242 47 -52 c25 -29 242 -267 481 -530 408
-449 437 -479 475 -485 22 -3 111 -9 198 -13 l157 -6 -6 -36 c-48 -263 -266
-1337 -271 -1339 -5 -1 -116 -51 -248 -110 l-240 -107 -17 -524 c-10 -288 -19
-525 -20 -526 -2 -1 -808 -30 -1793 -64 -984 -34 -1844 -65 -1910 -68 -90 -5
360 -25 1783 -79 1047 -39 1905 -74 1908 -77 3 -3 -2 -211 -10 -464 -22 -628
-20 -1838 3 -2513 9 -278 16 -507 14 -509 -1 -2 -848 -33 -1882 -70 -1034 -36
-1878 -68 -1875 -70 2 -3 851 -36 1887 -75 l1882 -71 15 -450 15 -449 240
-108 c132 -59 244 -108 248 -110 5 -2 275 -1332 277 -1365 0 -2 -37 -3 -81 -3
-45 0 -133 -5 -196 -12 l-114 -12 -480 -528 c-265 -290 -484 -528 -488 -528
-3 0 -69 106 -146 235 -76 129 -145 235 -152 235 -7 0 -919 -282 -2026 -626
l-2012 -626 -325 -30 c-178 -16 -326 -31 -328 -33 -2 -2 -27 -122 -54 -267
l-51 -263 32 -1100 c31 -1086 87 -2694 116 -3324 l14 -325 62 -255 c34 -141
65 -259 68 -263 3 -3 148 -11 321 -18 l315 -12 2064 -529 c1135 -292 2068
-528 2074 -526 6 2 83 153 171 335 l161 332 220 130 c198 116 221 128 233 113
7 -10 114 -185 239 -390 l226 -373 46 0 c25 0 268 9 539 21 271 12 496 19 498
16 3 -3 50 -585 104 -1294 l98 -1288 78 -194 79 -194 418 -359 419 -360 503
-189 504 -188 398 -12 398 -11 30 -28 c31 -29 346 -220 445 -269 42 -21 98
-35 230 -56 96 -15 198 -27 225 -26 l50 1 242 -752 c134 -413 241 -753 240
-755 -2 -1 -391 -27 -866 -57 -474 -29 -863 -55 -866 -57 -2 -3 386 -28 863
-57 477 -29 885 -55 908 -58 l41 -6 148 -458 148 -458 416 -293 416 -292 269
-13 270 -14 35 -33 c227 -213 1328 -1262 1396 -1328 l90 -89 399 46 c219 25
399 44 401 42 2 -2 26 -187 54 -413 29 -225 53 -410 54 -410 1 -1 204 16 451
38 l449 41 -6 280 c-4 190 -13 328 -26 426 -11 80 -18 146 -16 148 1 2 153 20
336 42 300 34 499 69 523 90 4 5 2 259 -4 569 -7 309 -11 563 -9 565 2 2 162
11 354 20 193 9 396 19 453 22 l102 7 0 67 0 68 -82 6 c-46 3 -252 13 -458 22
-206 9 -376 17 -377 18 -1 1 -5 168 -9 372 l-7 372 144 6 c79 3 617 17 1194
31 578 14 1130 28 1228 31 l177 7 0 67 0 68 -82 6 c-46 3 -663 20 -1373 37
-709 17 -1291 31 -1291 32 -1 1 -4 59 -7 130 -5 115 -4 127 11 127 45 -1 1534
71 1580 76 l52 5 0 89 0 88 -102 6 c-57 3 -427 15 -823 27 -396 11 -722 22
-724 25 -3 2 -16 532 -30 1177 -19 847 -23 1173 -15 1175 6 2 1285 45 2843 96
1557 51 2834 95 2836 97 2 2 -1179 46 -2623 97 -1445 51 -2655 96 -2689 100
l-63 7 163 274 164 274 -39 99 c-21 54 -38 103 -38 109 0 6 177 295 394 642
l394 632 -17 240 c-10 132 -15 243 -12 246 5 5 897 60 954 59 15 0 17 12 17
105 l0 105 249 0 249 0 1143 -360 c628 -198 1152 -360 1163 -360 12 1 588 166
1281 369 l1260 367 3 700 2 699 -1274 372 -1275 371 -1156 -364 -1156 -364
-244 0 -245 0 0 110 0 110 -42 1 c-102 1 -2099 129 -2153 138 -33 5 -523 44
-1090 87 -566 43 -1031 79 -1033 80 -6 4 828 4528 836 4536 4 4 282 147 618
317 l612 311 208 0 c182 1 319 -9 1054 -76 l845 -77 182 72 182 71 1619 0
1618 0 143 -100 143 -100 956 110 957 110 2220 90 c1221 50 2241 90 2268 90
l47 0 0 120 c0 108 -2 120 -17 120 -10 0 -1048 43 -2308 95 l-2290 95 -895
105 c-492 58 -906 105 -920 105 -16 0 -78 -37 -167 -100 l-141 -100 -1614 0
-1613 0 -186 73 -185 73 -839 -76 c-462 -43 -841 -76 -842 -75 -2 1 1133 2091
1141 2102 1 1 141 43 310 93 347 102 757 230 841 261 l55 20 0 174 0 174 203
65 c955 307 2723 870 2765 881 53 14 55 14 112 -15 l59 -30 482 50 c450 45
484 48 495 32 80 -112 360 -458 372 -460 10 -1 552 99 1207 222 l1190 225 27
-26 27 -26 1348 206 1348 207 1265 105 1265 105 287 52 c219 40 289 56 293 68
2 8 23 94 45 190 23 96 42 175 43 176 1 0 245 49 542 108 297 59 672 139 833
179 l293 71 129 173 130 173 0 272 0 272 -130 171 -130 172 -267 65 c-148 37
-522 117 -833 179 -311 62 -566 113 -567 113 0 1 -18 71 -38 156 -20 85 -40
171 -46 191 l-9 35 -282 52 -283 52 -1265 105 -1265 105 -1352 207 -1353 207
-27 -26 -28 -26 -1203 227 -1202 227 -185 -238 c-102 -130 -189 -239 -193
-241 -4 -3 -223 18 -487 45 l-480 50 -55 -30 c-48 -25 -60 -28 -95 -20 -37 8
-2956 938 -2963 944 -2 1 -7 80 -10 175 l-7 173 -90 29 c-49 16 -322 98 -605
183 -283 85 -515 156 -516 157 -9 9 -1165 2149 -1162 2151 2 2 385 -32 851
-75 l849 -78 190 74 190 75 1608 0 1609 0 146 -102 c122 -86 151 -102 178
-100 18 2 437 51 932 108 l900 105 2290 94 c1260 52 2291 95 2293 95 1 0 2 51
2 114 l0 115 -52 5 c-29 3 -1059 46 -2288 96 l-2234 91 -901 104 c-495 57
-916 107 -936 109 -33 5 -48 -3 -177 -94 l-141 -100 -1625 0 -1625 0 -179 71
-179 71 -829 -76 c-783 -72 -843 -76 -1092 -76 l-262 0 -573 291 c-314 160
-575 294 -579 298 -8 6 -842 4531 -836 4535 2 2 488 40 1082 85 593 45 1086
86 1095 91 13 7 2037 131 2119 130 21 0 22 3 22 110 l0 109 238 3 237 3 1155
-362 c635 -200 1163 -363 1175 -363 11 1 587 166 1280 369 l1260 367 2 700 3
699 -1274 371 -1275 372 -1153 -364 -1153 -364 -247 0 -248 0 0 105 0 105 -42
1 c-89 1 -927 55 -931 59 -2 3 4 113 14 245 l17 240 -394 633 c-217 348 -394
636 -394 642 0 5 17 54 38 109 l39 99 -127 213 c-71 118 -127 215 -126 216 1
1 749 27 1661 58 913 30 1706 58 1763 61 l102 6 0 88 0 89 -52 5 c-29 3 -888
33 -1908 66 l-1855 61 -50 29 -50 29 3 143 c11 555 42 1902 44 1903 2 1 566
28 1253 59 688 31 1269 59 1293 62 36 5 42 8 42 30 0 15 -6 24 -16 24 -36 0
-2388 110 -2471 116 l-93 6 0 123 0 123 48 6 c26 3 467 29 980 58 915 51 933
53 930 73 -3 19 -29 21 -970 76 -533 30 -971 58 -974 62 -4 3 -3 161 1 352 l7
345 42 1 c22 0 446 24 941 52 l900 52 3 28 c3 25 0 27 -30 27 -52 0 -1843 102
-1846 105 -2 2 4 342 13 755 10 422 13 755 9 760 -24 23 -201 54 -513 90 -189
22 -345 41 -347 43 -1 1 6 67 17 147 13 99 22 236 26 428 6 273 5 282 -13 282
-23 0 -782 67 -841 74 -24 3 -43 3 -43 0z"/>
</g>
</svg>
