<?xml version="1.0" standalone="no"?>
<!DOCTYPE svg PUBLIC "-//W3C//DTD SVG 20010904//EN"
 "http://www.w3.org/TR/2001/REC-SVG-20010904/DTD/svg10.dtd">
<svg version="1.0" xmlns="http://www.w3.org/2000/svg"
   viewBox="0 0 1555.000000 4892.000000"
 preserveAspectRatio="xMidYMid meet">
<metadata>
Created by potrace 1.16, written by Peter Selinger 2001-2019
</metadata>
<g transform="translate(0.000000,4892.000000) scale(0.100000,-0.100000)"
fill="#000000" stroke="none">
<path d="M3722 48716 l-524 -202 -239 -604 c-146 -369 -253 -654 -274 -731
l-35 -127 0 -741 c0 -652 2 -741 15 -741 13 0 15 -95 15 -795 l0 -795 -60 0
-60 0 0 -50 0 -50 -45 0 c-40 0 -45 -3 -52 -27 -10 -37 -10 -161 0 -195 7 -25
12 -28 52 -28 45 0 45 0 45 -35 0 -35 0 -35 -45 -35 -40 0 -45 -3 -52 -27 -10
-37 -10 -161 0 -195 7 -25 12 -28 52 -28 43 0 45 -1 45 -30 0 -28 -2 -30 -40
-30 -28 0 -42 -5 -49 -18 -15 -28 -23 -132 -14 -182 l8 -45 48 -3 47 -3 0 -45
0 -44 60 0 60 0 0 -867 0 -868 137 -287 138 -287 73 -1 72 0 0 -40 0 -40 -84
0 -85 0 -5 -42 c-3 -24 -8 -101 -11 -173 -3 -71 -82 -1431 -175 -3020 -94
-1590 -170 -2921 -170 -2958 0 -66 6 -81 262 -680 l262 -612 4 -600 4 -600
-22 -27 c-19 -25 -28 -28 -81 -28 l-59 0 0 -720 0 -720 -175 0 -175 0 -2 -192
-3 -192 -470 -73 c-259 -40 -471 -72 -472 -73 -2 0 -3 -61 -3 -135 0 -74 -3
-135 -6 -135 -38 0 -1223 -154 -1261 -164 -37 -10 -78 -34 -140 -82 -49 -38
-98 -80 -110 -94 -49 -54 -79 -140 -102 -285 -19 -125 -21 -180 -21 -518 0
-329 3 -394 20 -505 26 -163 50 -227 108 -291 75 -82 195 -166 255 -179 29 -7
306 -43 617 -82 311 -38 582 -73 603 -76 l37 -6 0 -126 0 -127 218 -74 c119
-40 235 -84 258 -97 22 -13 109 -97 192 -187 l151 -163 288 -54 c159 -29 412
-76 563 -104 l275 -51 3 -370 2 -370 -307 -106 -308 -106 0 -863 0 -862 308
-107 307 -106 -2 -370 -3 -370 -275 -51 c-151 -28 -405 -75 -563 -104 l-288
-54 -151 -163 c-83 -90 -169 -174 -192 -187 -23 -13 -139 -57 -258 -97 l-218
-74 0 -127 0 -126 -38 -6 c-20 -3 -291 -38 -602 -76 -311 -39 -588 -75 -617
-82 -60 -13 -180 -97 -255 -179 -58 -64 -82 -128 -108 -291 -17 -111 -20 -176
-20 -505 0 -338 2 -393 21 -518 23 -145 53 -231 102 -285 12 -14 61 -56 110
-94 62 -48 103 -72 140 -82 38 -10 1223 -164 1261 -164 3 0 6 -61 6 -135 0
-74 1 -135 3 -135 1 -1 213 -33 472 -73 l470 -72 3 -193 2 -192 175 0 175 0 0
-720 0 -720 59 0 c53 0 62 -3 81 -27 l22 -28 -4 -600 -4 -600 -262 -612 c-256
-599 -262 -614 -262 -680 0 -37 76 -1368 170 -2958 93 -1589 172 -2948 175
-3020 3 -71 8 -149 11 -173 l5 -42 85 0 84 0 0 -40 0 -40 -72 0 -73 -1 -138
-287 -137 -287 0 -867 0 -868 -60 0 -60 0 0 -44 0 -45 -47 -3 -48 -3 -8 -45
c-9 -50 -1 -154 14 -182 7 -13 21 -18 49 -18 38 0 40 -2 40 -30 0 -29 -2 -30
-45 -30 -40 0 -45 -3 -52 -27 -10 -35 -10 -159 0 -195 7 -25 12 -28 52 -28 45
0 45 0 45 -35 0 -35 0 -35 -45 -35 -40 0 -45 -3 -52 -27 -10 -35 -10 -159 0
-195 7 -25 12 -28 52 -28 l45 0 0 -50 0 -50 60 0 60 0 0 -795 c0 -700 -2 -795
-15 -795 -13 0 -15 -89 -15 -741 l0 -740 31 -116 c18 -69 128 -363 274 -731
l243 -616 529 -203 528 -203 1092 0 1091 0 274 135 273 135 640 35 c859 46
789 39 825 84 31 37 56 104 45 121 -10 16 5 50 21 50 10 0 14 14 15 48 1 26 3
61 5 77 4 48 45 189 59 200 6 5 55 177 109 380 l97 370 74 655 c74 648 76 673
195 2389 66 954 120 1747 120 1763 l0 28 -100 0 -100 0 0 675 0 674 103 3 102
3 26 160 25 160 -24 13 c-13 8 -21 19 -18 27 3 8 8 41 12 74 3 34 11 61 16 61
5 0 26 -9 48 -20 22 -11 43 -20 48 -20 5 0 12 20 15 45 2 25 12 54 20 63 23
25 508 3154 491 3164 -14 9 -7 46 14 70 10 12 119 694 361 2275 l346 2258 -67
3 c-38 2 -68 4 -68 6 0 2 5 27 10 56 9 48 8 56 -11 76 l-20 22 30 188 c17 104
34 201 37 216 l6 28 92 0 93 0 28 168 27 168 43 27 c41 27 45 27 213 27 169 0
171 0 201 26 l31 26 0 866 c1 754 3 870 16 887 10 14 84 42 237 91 l222 70 3
287 2 287 70 0 70 0 0 125 0 125 -70 0 c-63 0 -70 2 -70 20 0 18 7 20 70 20
l70 0 0 99 c0 89 3 106 30 166 29 64 30 73 30 202 0 128 -2 138 -30 203 -26
59 -30 80 -30 159 l0 91 -70 0 -70 0 0 30 0 30 70 0 70 0 0 125 0 125 -70 0
-70 0 0 98 0 99 143 6 c221 11 547 9 547 -3 0 -7 240 -10 700 -10 l700 0 0 40
0 40 -700 0 c-460 0 -700 -3 -700 -10 0 -6 -90 -10 -250 -10 l-250 0 0 35 0
35 -95 0 -95 0 0 60 0 60 175 0 175 0 0 -50 0 -50 53 0 c99 0 247 13 247 22 0
4 -29 8 -65 8 -37 0 -65 4 -65 10 0 6 118 10 335 10 217 0 335 4 335 10 0 6
-118 10 -335 10 -291 0 -335 2 -335 15 0 11 12 15 49 15 27 0 51 5 53 10 2 7
552 13 1618 18 930 5 1327 9 935 10 -374 1 -1102 5 -1617 9 l-938 6 0 34 0 33
-310 0 -310 0 0 79 0 79 -152 128 c-271 228 -380 325 -521 463 l-137 136 0
572 0 573 23 0 c13 0 167 60 343 134 l319 135 32 48 32 48 0 305 1 305 -32 48
-33 48 -319 135 c-176 74 -330 134 -343 134 l-23 0 0 573 0 573 148 145 c131
129 305 282 575 508 l87 73 -2 1406 -3 1406 -222 71 c-153 48 -227 76 -237 90
-13 17 -15 133 -16 887 l0 866 -31 26 c-30 26 -32 26 -201 26 -168 0 -172 0
-213 27 l-43 27 -27 168 -28 168 -93 0 -92 0 -6 28 c-3 15 -20 112 -37 216
l-30 188 20 22 c19 20 20 28 11 76 -5 29 -10 54 -10 56 0 2 30 4 68 6 l67 3
-346 2258 c-243 1582 -351 2263 -361 2275 -21 24 -28 61 -14 70 17 10 -468
3139 -491 3164 -8 9 -18 38 -20 63 -3 25 -10 45 -15 45 -5 0 -26 -9 -48 -20
-22 -11 -43 -20 -48 -20 -5 0 -13 27 -16 61 -4 33 -9 66 -12 74 -3 8 5 19 18
27 l24 13 -25 160 -26 160 -102 3 -103 3 0 674 0 675 100 0 100 0 0 28 c0 16
-54 809 -120 1763 -119 1716 -121 1741 -195 2389 l-74 655 -97 370 c-54 204
-103 375 -110 381 -23 19 -66 210 -64 287 1 26 -3 37 -14 37 -16 0 -31 34 -21
50 11 18 -15 86 -47 124 l-33 38 -715 39 -715 39 -274 135 -273 135 -1097 -1
-1096 0 -523 -203z"/>
</g>
</svg>
