<?xml version="1.0" standalone="no"?>
<!DOCTYPE svg PUBLIC "-//W3C//DTD SVG 20010904//EN"
 "http://www.w3.org/TR/2001/REC-SVG-20010904/DTD/svg10.dtd">
<svg version="1.0" xmlns="http://www.w3.org/2000/svg"
   viewBox="0 0 4362.000000 1060.000000"
 preserveAspectRatio="xMidYMid meet">
<metadata>
Created by potrace 1.16, written by Peter Selinger 2001-2019
</metadata>
<g transform="translate(0.000000,1060.000000) scale(0.100000,-0.100000)"
fill="#000000" stroke="none">
<path d="M7650 10589 c-278 -3 -542 -7 -587 -8 l-83 -1 0 -50 0 -50 -299 0
-299 0 -56 -69 -56 -68 0 -759 1 -759 58 -62 58 -63 288 0 288 0 -6 -102 c-4
-57 -10 -163 -13 -235 l-7 -133 -378 0 c-321 0 -379 -2 -379 -14 0 -18 2 -18
-360 -66 -168 -22 -322 -43 -342 -46 l-38 -6 0 -159 c0 -158 0 -159 -22 -159
-96 -1 -1419 -120 -1435 -129 -37 -19 -54 -42 -48 -62 6 -18 0 -19 -70 -19
-71 0 -80 -2 -117 -31 -21 -17 -41 -29 -44 -26 -3 2 -14 27 -24 53 -10 27 -22
49 -27 48 -4 -1 -124 -34 -265 -75 l-258 -74 0 -211 0 -212 -117 -21 c-175
-32 -159 -15 -168 -181 -7 -131 -9 -142 -29 -150 -11 -5 -325 -88 -696 -185
-371 -96 -682 -179 -690 -184 -9 -5 -19 -33 -24 -67 -5 -32 -10 -61 -12 -62
-1 -2 -177 -52 -391 -111 l-388 -108 -3 -55 -3 -54 -292 -94 c-161 -51 -295
-96 -300 -100 -4 -3 -10 -42 -13 -86 l-5 -79 91 -99 c49 -55 90 -102 90 -105
0 -3 -41 -51 -90 -106 -98 -108 -98 -111 -84 -219 l7 -46 61 -19 c33 -10 168
-53 299 -96 l237 -77 0 -53 c0 -42 4 -55 17 -59 10 -3 164 -46 343 -96 179
-50 348 -98 377 -106 l51 -15 7 -60 c6 -49 11 -62 29 -69 11 -5 327 -89 701
-186 374 -97 685 -181 691 -186 7 -5 15 -63 19 -142 4 -73 10 -138 13 -143 4
-6 57 -21 117 -33 61 -12 120 -24 133 -27 22 -5 22 -6 22 -217 l0 -211 258
-74 c141 -41 261 -74 265 -75 5 -1 18 24 30 55 l22 57 44 -34 c40 -31 49 -34
116 -34 66 0 73 -2 68 -18 -7 -28 48 -70 100 -76 23 -4 326 -29 672 -56 347
-27 654 -52 683 -55 l52 -6 0 -158 0 -157 278 -38 c152 -20 319 -42 370 -48
78 -10 92 -15 92 -30 0 -17 21 -18 379 -18 l378 0 7 -132 c3 -73 9 -179 13
-235 l6 -103 -290 0 -291 0 -56 -64 -56 -64 0 -759 0 -758 58 -67 57 -68 298
0 297 0 0 -49 0 -48 253 -7 c138 -3 576 -9 973 -12 677 -6 722 -6 747 11 27
17 27 17 27 146 l0 129 49 0 c29 0 51 5 53 12 3 8 135 18 464 34 252 13 479
24 504 26 25 2 -125 12 -332 22 l-378 19 0 24 c0 22 -3 23 -84 23 -46 0 -104
3 -130 6 l-46 7 0 83 0 84 -50 0 c-35 0 -50 4 -50 13 0 11 39 13 210 9 l210
-5 0 357 0 356 -210 0 -210 0 0 123 0 123 291 319 c160 176 301 330 313 343
l23 23 566 -27 567 -28 0 -128 0 -128 -25 0 c-14 0 -25 -6 -25 -12 0 -7 -3
-23 -6 -34 -4 -17 0 -23 21 -28 l26 -7 -2 -395 c-2 -309 0 -397 10 -403 7 -5
130 -11 274 -15 144 -3 290 -9 325 -12 60 -6 62 -7 62 -35 0 -24 4 -29 23 -29
47 0 1737 -59 1850 -65 l117 -6 0 31 0 30 63 0 c34 0 305 -9 602 -20 297 -11
564 -20 593 -20 51 0 52 0 52 -30 l0 -30 68 0 c83 0 1734 -57 1890 -65 l112
-6 0 27 0 27 198 -7 c108 -3 251 -9 317 -12 l120 -6 166 105 167 105 823 -30
824 -30 176 -173 c144 -142 182 -174 210 -179 28 -4 2222 -78 2282 -76 15 0
17 10 17 73 0 41 3 156 7 257 l6 183 356 -7 c196 -3 445 -9 554 -13 l197 -6 0
-181 c0 -100 3 -198 6 -219 6 -36 8 -37 40 -31 l34 6 1 -83 c1 -163 -10 -148
182 -267 l169 -104 1572 77 1573 77 100 -66 101 -66 909 45 c499 25 927 45
951 45 37 0 42 3 42 23 l0 22 950 45 950 46 75 74 75 74 642 32 c561 29 716
33 1211 33 l567 1 0 25 c0 14 1 26 3 26 1 1 190 11 419 23 l417 21 123 -132
c112 -120 126 -132 158 -133 19 0 369 16 778 36 409 19 749 33 756 31 7 -3 19
-26 26 -52 l13 -47 186 7 c102 4 217 10 256 14 l70 6 14 52 13 51 87 6 c47 4
743 38 1546 76 803 39 1488 73 1523 76 l62 6 0 84 c0 79 1 84 23 88 12 3 252
14 532 26 281 11 529 23 553 26 l42 5 0 127 c0 171 -1 172 -61 172 -42 0 -49
3 -49 20 0 18 7 20 56 20 l56 0 -4 144 c-1 79 -6 147 -9 150 -3 3 -341 -10
-750 -29 -409 -20 -762 -35 -784 -33 -35 3 -40 6 -43 31 -3 27 -4 27 -83 27
-77 0 -79 -1 -79 -24 0 -46 -19 -52 -166 -59 -136 -6 -139 -6 -164 17 l-25 24
-305 -15 c-196 -10 -308 -20 -312 -27 -29 -44 13 -39 -435 -58 l-73 -3 0 61
c0 61 0 62 31 68 17 3 60 6 94 6 34 0 84 3 110 7 47 6 47 6 42 40 -3 18 -5 34
-4 34 1 1 161 9 356 19 332 17 354 20 376 40 21 20 45 22 496 45 261 14 477
25 480 25 4 0 9 -9 12 -20 7 -26 -11 -26 582 5 264 14 492 25 508 25 l27 0 0
145 0 145 48 0 c27 0 97 3 155 6 l106 7 6 -37 c4 -20 11 -38 15 -41 5 -3 85
-2 178 1 l170 7 5 39 c3 22 7 41 9 44 3 2 69 7 149 11 l144 8 3 136 3 137 31
6 c17 3 43 6 59 6 26 0 29 3 29 34 0 39 14 46 97 46 61 0 83 7 83 26 0 8 10
14 23 14 12 0 63 5 112 11 50 6 160 16 245 23 l155 13 -126 2 c-238 2 -429 14
-429 25 0 14 -163 9 -168 -5 -2 -5 -28 -9 -58 -9 l-54 0 0 50 c0 49 1 50 30
50 l30 0 0 130 0 130 30 0 c28 0 30 2 30 40 l0 40 45 0 45 0 0 218 0 217 -50
27 -50 28 0 150 0 150 28 0 c17 0 38 10 51 24 24 26 31 27 274 40 84 5 87 4
87 -17 0 -43 12 -49 84 -42 64 7 66 8 66 36 0 22 5 29 20 29 18 0 20 7 20 60
0 50 -3 60 -17 60 -13 0 -18 8 -18 30 0 26 4 30 28 30 l27 0 0 84 0 85 43 5
c23 3 150 10 282 16 300 13 345 18 345 35 0 10 44 14 190 20 l190 7 0 33 0 32
-287 6 c-157 4 -366 7 -463 7 -191 0 -300 8 -300 21 0 5 75 10 168 10 92 1
196 5 232 9 49 5 22 7 -111 8 -238 3 -299 9 -299 33 0 11 7 19 15 19 12 0 15
17 15 90 l0 90 36 0 37 0 -5 75 -5 75 37 0 c21 0 52 3 69 6 30 6 31 8 31 64 0
65 -6 70 -87 70 -41 0 -42 1 -48 38 -10 60 -10 60 -57 55 -24 -2 -218 -12
-432 -22 l-389 -19 -51 -58 c-28 -32 -63 -72 -77 -88 l-26 -30 -549 -27 c-302
-16 -572 -28 -601 -29 l-52 0 -57 80 c-32 44 -65 80 -73 80 -9 1 -410 -18
-892 -42 l-877 -42 -72 -88 c-40 -48 -73 -88 -74 -88 -23 -2 -1052 -50 -1077
-50 -33 0 -44 10 -175 155 -131 146 -141 154 -176 155 -54 0 -68 -8 -68 -41
l0 -29 -101 0 c-62 0 -119 -6 -148 -15 -34 -11 -164 -18 -506 -30 -253 -9
-483 -15 -510 -15 l-51 0 -37 115 -38 115 -250 0 -249 0 0 230 0 230 248 0
248 0 38 113 c22 61 42 115 45 119 9 10 1044 -31 1064 -43 10 -5 70 -13 132
-16 l115 -6 0 -27 c0 -25 4 -28 48 -33 l47 -6 60 62 c33 34 101 105 150 158
l90 96 549 -26 548 -27 32 -35 c17 -19 51 -59 76 -88 l45 -53 875 -44 c481
-24 882 -43 890 -43 8 0 41 35 73 79 51 71 61 80 90 80 17 0 286 -11 597 -26
l565 -26 35 -36 c19 -20 56 -61 81 -91 l47 -53 373 -19 c206 -10 402 -18 437
-19 58 0 62 2 62 23 0 48 11 67 39 67 14 0 43 3 64 6 l37 7 0 63 0 64 -75 0
c-72 0 -75 1 -65 19 5 11 10 44 10 74 0 55 0 55 -35 61 l-35 7 0 89 c0 73 -3
90 -15 90 -8 0 -15 6 -15 14 0 19 65 26 264 27 256 1 245 16 -16 21 -203 4
-251 8 -237 22 2 2 239 7 527 11 l522 8 0 32 0 32 -77 7 c-42 3 -127 6 -190 6
-103 0 -113 2 -113 18 0 17 -21 19 -297 31 -164 6 -315 14 -335 17 l-38 6 0
84 0 84 -27 0 c-25 0 -28 4 -28 33 0 27 3 33 18 29 15 -4 17 4 17 57 0 54 -2
61 -20 61 -15 0 -20 7 -20 29 0 28 -3 30 -54 36 -75 10 -90 5 -94 -29 l-4 -29
-161 7 c-154 6 -163 8 -187 31 -21 20 -37 25 -81 26 -29 1 -44 4 -32 6 22 4
23 8 25 151 l3 146 45 26 45 26 3 217 2 217 -45 0 -45 0 0 40 c0 38 -2 40 -30
40 l-30 0 0 130 0 130 -30 0 c-29 0 -30 1 -30 50 l0 50 54 0 c30 0 56 -4 58
-9 5 -14 168 -19 168 -5 0 14 139 23 390 25 l195 2 -160 13 c-285 22 -405 37
-405 50 0 16 -24 24 -75 24 -23 0 -57 3 -74 6 -27 6 -31 11 -31 39 0 33 0 33
-60 40 l-60 7 0 139 0 139 -52 0 c-29 0 -97 3 -150 7 l-97 6 -7 42 -6 43 -168
7 c-93 4 -173 4 -178 1 -5 -3 -13 -22 -17 -42 l-6 -37 -91 7 c-50 3 -120 6
-155 6 l-63 0 0 144 0 144 -92 6 c-141 10 -910 46 -969 46 -42 0 -52 -3 -56
-19 -4 -17 -12 -19 -52 -15 -25 2 -242 13 -481 25 -424 20 -436 21 -456 43
-21 22 -30 23 -355 35 -184 6 -344 14 -355 16 -17 4 -21 12 -20 42 l1 38 -130
6 c-71 4 -133 7 -137 8 -5 0 -8 29 -8 64 l0 62 73 -3 c431 -19 404 -16 425
-42 19 -24 22 -24 326 -39 l306 -15 24 23 c24 23 27 23 170 16 l146 -7 6 -39
7 -39 78 0 c75 0 79 1 79 23 0 12 4 27 8 33 5 8 216 1 786 -27 428 -22 782
-37 785 -33 3 3 8 71 9 150 l4 144 -34 0 c-48 0 -78 10 -78 26 0 10 14 14 49
14 46 0 49 1 55 31 3 17 6 85 6 150 l0 118 -42 5 c-24 3 -248 15 -498 26 -250
11 -490 23 -532 27 l-78 6 0 86 0 86 -1602 78 c-882 43 -1606 78 -1610 77 -3
0 -11 23 -18 50 -7 28 -17 53 -22 56 -12 8 -489 34 -499 28 -3 -2 -12 -24 -19
-50 -7 -25 -19 -48 -26 -51 -11 -4 -1385 60 -1511 71 l-51 4 -128 -136 -128
-137 -416 22 c-228 11 -416 22 -417 22 -2 1 -3 12 -3 26 l0 25 -532 0 c-469 0
-614 4 -1213 35 l-680 34 -71 74 -72 74 -883 42 c-1049 49 -1019 47 -1019 72
0 10 -6 19 -13 19 -7 0 -417 20 -912 45 -495 25 -918 45 -940 45 -33 0 -60
-12 -140 -64 l-100 -65 -1515 74 c-833 41 -1541 76 -1572 77 -57 3 -57 3 -225
-103 -191 -121 -181 -106 -182 -266 l-1 -82 -34 6 c-32 5 -33 4 -39 -33 -4
-22 -7 -120 -7 -220 l0 -181 -242 -6 c-134 -4 -383 -10 -554 -13 l-311 -7 -6
183 c-4 101 -7 218 -7 260 l0 78 -42 -4 c-24 -2 -533 -20 -1133 -39 -599 -20
-1105 -39 -1124 -41 -28 -5 -66 -37 -210 -179 l-176 -173 -825 -28 -825 -28
-165 103 -165 103 -125 -6 c-69 -3 -212 -9 -317 -12 l-193 -7 0 27 c0 20 -5
26 -22 26 -13 0 -448 -16 -968 -35 -520 -19 -975 -35 -1012 -35 -65 0 -67 -1
-70 -27 l-3 -28 -610 -22 c-335 -12 -629 -22 -652 -22 -41 -1 -43 0 -43 29 0
26 -4 30 -27 30 -16 0 -453 -16 -973 -35 -520 -19 -955 -35 -967 -35 -19 0
-23 -6 -23 -29 l0 -28 -137 -6 c-76 -4 -227 -10 -335 -13 l-198 -7 -1 -31 c-1
-17 0 -199 1 -403 l2 -373 -26 0 c-27 0 -30 -8 -20 -47 4 -16 14 -23 30 -23
l25 0 -3 -132 -3 -133 -535 -27 c-294 -15 -549 -27 -567 -25 -27 2 -69 43
-342 342 l-310 340 -1 123 0 122 210 0 210 0 0 355 0 355 -210 0 c-133 0 -210
4 -210 10 0 6 23 10 50 10 l50 0 0 90 0 90 84 0 c123 0 176 9 176 30 0 20 18
21 437 42 139 6 250 14 247 17 -2 3 -215 15 -472 28 -285 14 -468 27 -470 33
-2 5 -26 10 -53 10 l-49 0 0 129 c0 123 -1 131 -22 145 -25 18 -296 19 -1308
5z m28786 -1379 l64 0 0 -106 0 -106 -31 6 c-17 3 -67 6 -110 6 l-79 0 0 106
0 107 46 -7 c26 -3 75 -6 110 -6z m283 -16 l31 -6 0 -101 0 -100 -67 6 c-38 4
-80 7 -95 7 l-28 0 0 100 0 100 64 0 c35 0 78 -3 95 -6z m171 -24 c0 -17 7
-20 45 -20 31 0 47 5 51 15 4 10 20 15 45 15 l39 0 0 -105 0 -105 -97 5 c-54
3 -113 8 -130 11 l-33 5 0 99 0 100 40 0 c33 0 40 -3 40 -20z m468 -6 l172 -7
0 -65 0 -64 -95 4 -95 4 0 -32 c0 -18 -4 -36 -10 -39 -5 -3 -59 -3 -120 1
l-110 7 0 105 0 104 43 -6 c23 -3 120 -8 215 -12z m292 -80 l0 -65 -27 3 c-27
3 -28 6 -31 66 l-3 62 31 0 30 0 0 -66z m-33900 -2294 c36 -29 42 -30 138 -30
l101 0 -9 -31 c-5 -18 -11 -34 -14 -36 -4 -4 -459 -62 -488 -63 -5 0 -8 31 -8
69 l0 69 93 -28 c50 -15 95 -25 98 -21 4 3 14 27 24 54 10 26 20 47 22 47 3 0
22 -13 43 -30z m32580 -969 c539 -26 545 -26 548 -47 3 -21 0 -22 -130 -21
-73 0 -366 7 -650 16 -397 11 -518 18 -518 27 0 7 4 24 9 38 10 24 11 24 103
19 51 -3 338 -17 638 -32z m548 -995 c-3 -21 -15 -22 -548 -47 -300 -15 -586
-29 -637 -32 l-92 -5 -11 35 c-7 19 -10 36 -8 37 8 7 836 33 1056 32 240 0
243 0 240 -20z m-33158 -882 c243 -27 260 -32 260 -76 0 -16 -10 -18 -91 -18
-88 0 -91 -1 -137 -36 l-47 -36 -14 34 c-7 18 -17 43 -22 55 -9 24 4 26 -151
-21 l-48 -14 0 69 c0 38 3 69 8 69 4 0 113 -12 242 -26z m38168 -111 c-10 -2
-28 -2 -40 0 -13 2 -5 4 17 4 22 1 32 -1 23 -4z m-4550 -2233 l3 -35 94 3 95
4 0 -60 0 -60 -42 -5 c-24 -4 -121 -9 -215 -13 l-173 -7 0 101 0 101 53 4 c28
2 81 3 117 3 l65 -1 3 -35z m-268 -75 l0 -105 -39 0 c-25 0 -41 5 -45 15 -4
10 -20 15 -51 15 -38 0 -45 -3 -45 -20 0 -17 -7 -20 -40 -20 l-40 0 0 105 0
104 93 4 c50 1 109 4 130 5 l37 2 0 -105z m-320 -14 l0 -98 -46 -7 c-26 -3
-69 -6 -95 -6 l-49 0 0 99 c0 115 -7 108 113 110 l77 1 0 -99z m-250 -16 l0
-105 -72 0 c-40 0 -90 -3 -110 -6 l-38 -7 0 106 0 106 58 4 c31 2 81 4 110 5
l52 2 0 -105z m1150 20 l0 -65 -30 0 -30 0 0 65 0 65 30 0 30 0 0 -65z"/>
</g>
</svg>
