<?xml version="1.0" standalone="no"?>
<!DOCTYPE svg PUBLIC "-//W3C//DTD SVG 20010904//EN"
 "http://www.w3.org/TR/2001/REC-SVG-20010904/DTD/svg10.dtd">
<svg version="1.0" xmlns="http://www.w3.org/2000/svg"
   viewBox="0 0 3085.000000 3610.000000"
 preserveAspectRatio="xMidYMid meet">
<metadata>
Created by potrace 1.16, written by Peter Selinger 2001-2019
</metadata>
<g transform="translate(0.000000,3610.000000) scale(0.100000,-0.100000)"
fill="#000000" stroke="none">
<path d="M17814 36085 l-350 -10 -146 -87 c-124 -75 -157 -100 -217 -166 l-71
-79 -1507 -7 -1508 -6 -310 -60 c-170 -32 -1820 -350 -3665 -705 l-3355 -645
-230 -74 c-212 -68 -242 -81 -386 -162 -153 -88 -157 -91 -289 -229 -84 -88
-148 -146 -173 -158 -22 -9 -116 -75 -211 -145 -134 -100 -270 -220 -616 -542
-245 -227 -454 -418 -465 -425 -11 -8 -86 -18 -175 -25 l-155 -11 -53 -41 -52
-41 -1443 -28 c-793 -15 -1481 -28 -1529 -29 l-88 0 0 -1362 0 -1363 -365
-185 c-296 -150 -373 -193 -410 -230 l-44 -45 21 -180 c21 -174 22 -220 23
-1375 1 -657 2 -1204 3 -1216 2 -21 6 -21 411 -28 224 -3 766 -18 1202 -31
437 -14 828 -25 869 -25 l75 0 161 -258 161 -257 827 -516 c455 -284 839 -528
854 -543 18 -16 33 -46 41 -79 7 -28 71 -224 141 -434 l128 -381 329 -325
c180 -178 586 -562 901 -853 l573 -529 111 -40 c103 -37 113 -43 137 -81 17
-28 96 -96 237 -207 l211 -166 409 -95 409 -96 850 -105 850 -105 670 -221
c369 -122 675 -225 681 -230 7 -5 20 -53 29 -107 10 -53 24 -105 33 -114 14
-17 10 -18 -79 -18 -52 0 -467 9 -922 20 l-828 21 -32 -23 c-115 -79 -297
-211 -297 -213 0 -2 -42 -172 -94 -377 l-95 -373 -7 -467 -7 -468 -122 0 -123
0 -1013 -1022 -1014 -1023 -126 -195 c-106 -166 -148 -244 -278 -520 l-153
-325 -69 -424 c-38 -233 -69 -438 -69 -455 0 -50 131 -730 144 -743 9 -10
3062 -1302 3291 -1393 l80 -32 205 21 c143 15 272 21 425 21 l219 0 197 50
198 50 422 -2 423 -3 71 -198 72 -199 136 -96 137 -97 0 -1115 0 -1115 -136
-125 -135 -125 -72 -145 -72 -145 -5 -330 -5 -330 -921 -202 -922 -203 -829
-293 -829 -294 -352 -254 -351 -254 -1 -240 0 -241 352 -255 353 -255 829
-293 830 -293 949 -209 950 -209 253 0 253 0 227 -322 c125 -178 308 -437 407
-575 l180 -253 267 0 267 0 125 158 c69 86 188 237 264 334 l139 177 220 161
c162 118 260 182 371 240 l151 80 394 0 394 0 111 -213 110 -212 72 -3 72 -3
0 -94 0 -95 -68 0 -68 0 -32 -65 c-28 -57 -35 -65 -60 -65 -15 0 -407 -56
-870 -125 l-842 -125 -230 -96 -230 -97 2 -1789 3 -1789 225 -95 225 -94 867
-130 868 -130 3044 0 3045 0 260 61 261 61 316 163 317 163 269 243 269 244
179 319 180 318 0 666 0 666 -181 321 -181 320 -264 240 c-214 194 -280 249
-347 285 l-83 45 266 630 266 630 40 8 c21 5 235 60 474 122 l435 112 335 142
335 142 268 256 267 255 0 562 0 562 -266 254 -267 255 -336 143 c-292 124
-359 149 -517 190 l-181 47 355 2170 c195 1194 355 2171 356 2171 1 1 467 24
1036 53 l1035 51 593 177 593 178 569 657 570 658 0 1208 0 1209 -566 654
c-312 360 -567 655 -568 656 -2 2 -270 83 -597 182 l-594 178 -975 63 c-536
34 -976 63 -978 65 -3 2 46 177 51 180 1 1 31 22 67 47 l65 45 320 -19 320
-18 540 25 c297 14 810 46 1140 71 l600 47 905 334 c498 184 914 340 925 348
15 10 740 699 887 843 26 26 32 56 142 657 l114 630 -104 475 c-57 261 -106
486 -109 500 -4 14 -64 83 -135 155 l-128 130 -27 115 c-15 63 -67 321 -115
573 l-87 458 -35 37 c-35 37 -36 39 -143 522 -59 267 -189 827 -290 1245
l-184 760 -71 138 -71 138 26 115 27 115 -57 222 c-31 122 -61 227 -65 232 -5
6 -30 86 -55 178 l-46 168 -92 128 -92 129 -198 128 c-109 70 -287 198 -395
283 -404 318 -522 400 -758 527 -187 100 -314 182 -867 556 -356 241 -656 442
-665 447 -9 4 -115 32 -234 62 l-217 53 -116 276 -116 275 -490 610 c-382 475
-536 657 -694 825 -112 119 -241 261 -287 316 -45 55 -198 213 -338 351 -205
201 -280 268 -384 342 -71 50 -136 91 -145 91 -9 0 -95 9 -191 20 -96 11 -178
20 -182 20 -3 0 -45 69 -92 154 l-86 153 -138 91 c-137 91 -138 91 -324 146
-102 31 -254 74 -337 96 l-150 40 -378 298 c-345 272 -385 301 -463 331 -47
19 -89 38 -95 43 -5 5 -26 53 -46 106 l-36 97 -229 98 c-309 132 -640 245
-923 317 -195 49 -237 63 -255 83 -32 38 -281 226 -313 237 -15 5 -172 39
-348 75 -176 36 -324 67 -330 68 -5 1 -168 -2 -361 -8z"/>
</g>
</svg>
