<?xml version="1.0" standalone="no"?>
<!DOCTYPE svg PUBLIC "-//W3C//DTD SVG 20010904//EN"
 "http://www.w3.org/TR/2001/REC-SVG-20010904/DTD/svg10.dtd">
<svg version="1.0" xmlns="http://www.w3.org/2000/svg"
   viewBox="0 0 3639.000000 1505.000000"
 preserveAspectRatio="xMidYMid meet">
<metadata>
Created by potrace 1.16, written by Peter Selinger 2001-2019
</metadata>
<g transform="translate(0.000000,1505.000000) scale(0.100000,-0.100000)"
fill="#000000" stroke="none">
<path d="M10515 15003 l-600 -43 -205 -59 -205 -58 0 -524 0 -524 110 -28 c61
-16 111 -30 113 -32 2 -2 -461 -1335 -600 -1726 l-9 -27 -408 -7 -407 -7 -100
-82 c-54 -45 -315 -257 -578 -470 -567 -460 -863 -676 -1088 -797 l-158 -84 0
-60 c0 -99 -9 -134 -36 -141 -22 -6 -24 -11 -24 -77 l0 -70 -547 6 c-302 4
-1241 9 -2088 12 -847 3 -1721 7 -1942 10 l-403 4 0 -134 0 -134 -68 -20 c-37
-12 -147 -44 -244 -73 l-178 -53 0 -677 0 -678 610 0 c400 0 610 -3 610 -10 0
-5 19 -10 43 -10 23 0 73 -3 111 -7 l68 -6 -6 -181 c-3 -100 -7 -241 -8 -315
l-3 -134 80 -48 80 -48 390 -1 c215 0 584 5 820 11 237 6 457 9 490 7 l59 -3
-156 -108 -156 -107 -599 -66 c-485 -53 -601 -69 -615 -82 -10 -10 -29 -73
-48 -157 -20 -90 -37 -144 -47 -152 -9 -7 -42 -13 -72 -14 -131 -1 -116 12
-288 -239 l-154 -225 7 -131 6 -131 -46 -13 -46 -13 2 -196 3 -196 43 -15 44
-15 -7 -127 -7 -127 147 -218 c81 -120 153 -224 160 -231 7 -8 48 -15 104 -19
50 -3 98 -11 106 -17 8 -6 28 -73 45 -151 19 -85 38 -147 48 -157 14 -13 131
-29 615 -82 l598 -65 155 -107 c85 -59 153 -109 151 -111 -3 -2 -305 4 -673
13 -368 9 -760 14 -872 11 l-202 -6 -122 -47 -121 -48 6 -283 6 -283 -89 0
c-120 0 -120 0 -120 -70 l0 -58 -42 4 c-97 8 -1918 57 -1923 52 -3 -3 -11
-142 -17 -309 -11 -318 -17 -1983 -7 -1993 3 -3 626 -19 1385 -36 l1379 -29
2558 10 2557 11 103 -82 c90 -73 139 -101 417 -240 l315 -157 520 -136 520
-135 462 -52 463 -52 1587 66 c1410 58 1763 77 1893 103 l25 5 -10 132 -10
132 -105 112 c-117 125 -139 165 -139 258 l-1 61 448 6 c246 4 824 10 1284 14
l837 6 0 -154 c-1 -85 2 -191 6 -237 7 -75 9 -82 29 -82 43 0 667 -41 999 -65
186 -14 340 -25 342 -25 3 0 5 -9 5 -19 0 -17 310 -424 363 -478 12 -12 146
-76 297 -143 l275 -122 472 -44 472 -43 428 78 428 78 265 150 265 150 207
274 c128 170 215 277 230 282 13 4 313 48 668 97 575 81 836 125 2420 405 976
173 1786 316 1799 317 23 3 25 -2 36 -59 6 -35 13 -65 16 -67 2 -2 537 117
1189 265 652 147 1189 267 1193 266 4 -1 -208 -69 -472 -152 -264 -82 -479
-150 -477 -152 2 -2 320 87 706 197 386 111 703 200 705 198 11 -12 65 -210
59 -219 -4 -7 0 -9 12 -5 11 3 58 2 105 -2 l86 -7 -578 -179 c-319 -99 -577
-181 -575 -183 2 -2 286 78 632 178 l629 181 135 -7 c74 -3 161 -8 194 -10 51
-3 75 3 175 42 159 62 301 104 301 90 0 -7 5 -30 11 -51 l11 -39 259 7 260 8
1815 728 c1558 625 1849 739 2061 805 204 64 290 97 497 192 137 63 322 155
410 204 140 79 181 97 311 135 83 25 165 49 183 55 l32 11 0 124 0 124 -72 36
-71 36 -146 -17 c-80 -9 -332 -43 -560 -76 -824 -117 -1002 -132 -2246 -188
-605 -28 -1363 -57 -1685 -66 -322 -9 -772 -22 -1000 -30 -228 -7 -415 -12
-416 -11 0 0 -78 215 -172 476 l-172 476 0 924 0 925 166 470 c91 259 168 473
172 477 4 3 196 0 427 -7 231 -8 681 -21 1000 -30 319 -9 1077 -38 1685 -66
1241 -56 1426 -71 2205 -183 209 -30 461 -64 561 -76 l181 -22 71 36 72 36 0
125 0 124 -82 25 c-46 14 -128 38 -183 55 -74 21 -140 52 -255 117 -85 48
-270 140 -411 205 -213 98 -295 129 -490 190 -199 61 -506 181 -2060 804
l-1827 733 -261 8 -261 9 -12 -53 c-6 -29 -14 -55 -18 -57 -3 -2 -96 32 -205
76 -174 69 -206 78 -245 74 -25 -3 -112 -7 -195 -10 -82 -2 -177 -7 -210 -11
-43 -4 -73 -1 -104 10 -53 19 -67 20 -26 1 17 -8 25 -14 19 -15 -6 0 -276 86
-599 190 -324 105 -590 189 -592 187 -2 -2 242 -89 541 -193 300 -104 539
-190 532 -192 -8 -2 -22 -33 -32 -69 -11 -36 -23 -67 -29 -69 -5 -2 -352 106
-770 240 -418 135 -761 244 -762 242 -2 -1 337 -121 753 -267 416 -145 759
-270 762 -277 2 -7 0 -18 -5 -23 -7 -7 -479 95 -1424 309 -778 176 -1416 318
-1418 316 -3 -2 -10 -32 -16 -67 -10 -57 -13 -62 -36 -59 -13 2 -823 145
-1799 317 -1569 278 -1850 325 -2420 405 -355 50 -655 94 -668 98 -15 4 -100
109 -230 281 l-207 275 -270 152 -270 151 -425 76 -425 77 -470 -44 -470 -44
-275 -122 c-151 -67 -281 -127 -288 -132 -33 -27 -372 -472 -372 -488 0 -15
-11 -19 -67 -24 -162 -15 -1214 -86 -1274 -86 -26 0 -27 -2 -33 -82 -4 -46 -7
-122 -8 -170 l-2 -88 -235 1 c-204 0 -281 5 -563 37 l-327 37 -415 300 -414
300 62 3 c33 2 336 11 671 21 336 10 540 19 454 20 -86 0 -395 -4 -688 -10
l-531 -10 -65 47 c-36 26 -63 50 -60 52 3 3 105 8 227 12 l223 7 -244 1 -243
2 -206 153 c-113 83 -212 157 -221 162 -10 6 -182 12 -435 15 l-420 5 -162
650 c-90 357 -162 650 -161 651 1 0 241 14 532 30 292 16 517 31 500 32 -32 4
-852 -24 -971 -33 l-71 -6 -10 48 c-6 26 -10 50 -8 51 2 2 487 27 1077 56 590
28 1057 52 1038 54 -34 3 -1778 -61 -2011 -74 l-116 -6 -17 66 c-9 36 -16 68
-16 71 0 3 17 5 38 5 21 0 141 35 277 82 l240 82 220 136 c121 74 311 185 423
245 115 63 205 118 208 128 5 15 22 17 152 18 81 0 642 11 1247 24 l1100 24
-1244 -6 -1245 -5 -15 21 c-9 11 -106 69 -216 129 -110 60 -297 168 -415 241
-214 132 -216 133 -450 216 l-235 84 -156 11 c-132 10 -161 10 -180 -2 -25
-15 -33 -15 -1084 4 -187 4 -309 -2 -820 -39z m14411 -7070 c-3 -10 -40 -130
-82 -268 -42 -137 -77 -251 -78 -251 0 -1 -212 4 -471 12 -258 7 -498 13 -532
14 -63 0 -63 0 -83 39 -27 53 -170 390 -170 401 0 14 128 22 778 45 345 12
631 23 635 24 5 0 6 -7 3 -16z m-2718 -145 c-3 -7 -31 -132 -63 -278 -32 -146
-60 -267 -62 -269 -3 -4 -138 60 -474 225 -153 74 -222 119 -255 166 -26 37
-68 126 -61 129 3 2 778 36 856 38 47 1 62 -2 59 -11z m-7718 -428 l0 -79
-107 -87 c-67 -53 -111 -96 -116 -113 -19 -59 -31 -1005 -19 -1505 6 -270 14
-503 18 -517 4 -17 41 -53 114 -110 l109 -84 1 -82 0 -83 -2620 0 c-2608 0
-2621 0 -2610 20 6 11 34 50 62 87 30 40 96 158 157 283 l106 215 0 765 0 765
-106 215 c-58 118 -126 242 -151 275 -25 33 -53 72 -63 88 l-17 27 2621 0
2621 0 0 -80z m7656 -2738 c34 -152 61 -278 60 -279 -4 -4 -847 28 -883 33
l-32 5 15 40 c40 114 107 164 413 308 85 40 197 94 250 121 53 27 101 49 106
49 6 1 38 -124 71 -277z m2698 -149 c44 -142 81 -262 83 -268 3 -10 -1158 24
-1340 40 l-84 7 62 146 c34 81 78 182 98 225 l36 77 68 1 c58 1 815 23 953 27
l46 2 78 -257z"/>
<path d="M15443 13573 c9 -2 25 -2 35 0 9 3 1 5 -18 5 -19 0 -27 -2 -17 -5z"/>
<path d="M15198 13563 c18 -2 45 -2 60 0 15 2 0 4 -33 4 -33 0 -45 -2 -27 -4z"/>
<path d="M14948 13553 c23 -2 61 -2 85 0 23 2 4 4 -43 4 -47 0 -66 -2 -42 -4z"/>
<path d="M14108 13393 c12 -2 30 -2 40 0 9 3 -1 5 -23 4 -22 0 -30 -2 -17 -4z"/>
<path d="M13868 13383 c23 -2 59 -2 80 0 20 2 1 4 -43 4 -44 0 -61 -2 -37 -4z"/>
<path d="M14928 11683 c50 -2 134 -2 185 0 50 1 9 3 -93 3 -102 0 -143 -2 -92
-3z"/>
<path d="M16528 11593 c18 -2 45 -2 60 0 15 2 0 4 -33 4 -33 0 -45 -2 -27 -4z"/>
<path d="M16008 11583 c46 -2 118 -2 160 0 42 1 5 3 -83 3 -88 0 -123 -2 -77
-3z"/>
<path d="M29051 10226 c8 -9 212 -77 216 -72 3 2 -40 19 -94 36 -54 18 -105
35 -113 38 -8 3 -12 2 -9 -2z"/>
<path d="M29938 2043 c7 -3 16 -2 19 1 4 3 -2 6 -13 5 -11 0 -14 -3 -6 -6z"/>
<path d="M27888 1913 c7 -3 16 -2 19 1 4 3 -2 6 -13 5 -11 0 -14 -3 -6 -6z"/>
<path d="M28415 1720 c-13 -5 -14 -9 -5 -9 8 0 24 4 35 9 13 5 14 9 5 9 -8 0
-24 -4 -35 -9z"/>
</g>
</svg>
