<?xml version="1.0" standalone="no"?>
<!DOCTYPE svg PUBLIC "-//W3C//DTD SVG 20010904//EN"
 "http://www.w3.org/TR/2001/REC-SVG-20010904/DTD/svg10.dtd">
<svg version="1.0" xmlns="http://www.w3.org/2000/svg"
   viewBox="0 0 2479.000000 4202.000000"
 preserveAspectRatio="xMidYMid meet">
<metadata>
Created by potrace 1.16, written by Peter Selinger 2001-2019
</metadata>
<g transform="translate(0.000000,4202.000000) scale(0.100000,-0.100000)"
fill="#000000" stroke="none">
<path d="M12110 41990 l0 -30 -355 0 -355 0 0 25 0 25 -565 0 -565 0 0 -135 0
-135 155 0 155 0 0 -50 0 -50 -300 0 -300 0 0 -80 c0 -53 6 -96 18 -127 18
-48 18 -48 -20 -297 -21 -138 -40 -251 -41 -252 -1 -1 -334 -12 -740 -25 -406
-13 -742 -26 -746 -29 -7 -4 -51 -1046 -51 -1204 l0 -48 -80 4 c-49 2 -80 -1
-80 -7 -1 -5 -18 -372 -39 -815 -21 -443 -37 -807 -34 -810 3 -3 128 -5 279
-5 l274 0 0 -2202 0 -2203 -324 0 -324 0 -6 -72 c-3 -40 -24 -505 -46 -1033
-22 -528 -41 -986 -44 -1017 l-4 -57 64 -6 64 -7 -1 -72 c0 -39 -6 -216 -13
-392 l-12 -322 -59 -71 c-33 -40 -70 -84 -82 -99 l-22 -27 -7 -764 -7 -764
966 8 967 7 0 -458 c0 -253 -3 -618 -7 -811 l-6 -353 -816 0 -817 0 -58 -242
c-58 -244 -606 -2422 -609 -2424 -1 0 -60 -6 -132 -13 -71 -7 -140 -15 -152
-18 -13 -3 -39 -31 -63 -68 l-41 -62 -57 -6 c-31 -3 -325 -27 -652 -53 l-595
-47 -539 -184 c-456 -155 -546 -189 -580 -217 -23 -19 -241 -214 -486 -433
l-445 -398 -84 -730 -85 -730 -65 -30 c-73 -33 -81 -39 -81 -74 l0 -24 -402 6
c-222 4 -657 10 -968 13 l-565 7 -762 -193 -763 -193 0 -1428 0 -1428 38 -10
c20 -6 368 -94 772 -196 l735 -186 887 4 888 3 11 -56 11 -55 66 -28 67 -27
99 -658 c54 -361 100 -669 103 -684 4 -20 113 -115 475 -414 l469 -388 517
-156 517 -157 535 -22 c294 -12 571 -24 615 -28 l80 -5 43 -59 43 -58 62 -3
62 -3 3 -57 c3 -64 16 -56 -126 -78 l-72 -12 2 -716 3 -717 95 -17 c52 -9 96
-17 98 -17 1 -1 2 -30 2 -66 l0 -65 273 -137 272 -138 3360 -5 3360 -5 228
104 227 104 0 879 0 878 229 0 229 0 11 30 10 30 200 0 200 0 21 -30 21 -30
129 0 129 0 18 30 c16 28 22 30 74 30 l57 0 36 53 36 52 1175 70 1175 70 0 72
c0 63 -2 73 -17 73 -40 0 -2232 130 -2281 136 -50 5 -55 9 -89 55 -34 48 -36
49 -88 49 -48 0 -56 3 -75 30 l-21 30 -129 0 -129 0 -21 -30 -22 -30 -201 2
-201 3 -10 33 -9 32 -228 0 -229 0 0 345 0 345 500 2 c275 2 551 3 613 3 l112
0 3 -31 3 -32 109 -7 c99 -6 109 -9 114 -29 3 -11 6 -130 6 -263 l0 -242 983
-3 982 -3 675 464 c371 255 681 470 689 477 8 7 15 30 15 51 l1 38 1005 663
c553 365 1025 675 1049 689 l44 27 34 -38 34 -37 476 277 c261 153 482 284
489 292 9 9 14 37 14 82 0 53 4 69 16 74 9 3 113 6 232 6 119 0 227 3 240 6
l22 6 0 758 0 759 -52 5 c-47 5 -433 36 -451 36 -4 0 -7 28 -7 63 0 34 -4 68
-8 74 -5 7 -224 139 -488 292 l-479 280 -37 -36 c-20 -19 -40 -34 -46 -32 -5
2 -478 312 -1051 689 l-1041 685 2 38 c1 22 -4 43 -12 51 -8 8 -318 221 -687
475 l-673 461 -985 0 -985 0 0 -252 c0 -139 -4 -258 -8 -265 -5 -7 -49 -15
-114 -19 l-107 -7 -3 -31 -3 -31 -122 -3 c-80 -2 -123 1 -123 8 0 7 -165 10
-505 10 -330 0 -505 -3 -505 -10 0 -6 -36 -10 -88 -10 l-89 0 -115 453 -115
452 83 3 c72 2 84 5 89 22 6 19 16 20 139 20 107 0 136 -3 146 -15 9 -11 34
-15 95 -15 61 0 86 4 95 15 7 8 29 15 49 15 30 0 40 6 58 34 20 32 27 35 85
40 72 7 1400 86 1442 86 26 0 27 2 24 47 l-3 48 -759 45 -758 45 -27 33 c-21
25 -35 32 -62 32 -23 0 -38 6 -47 20 -11 17 -23 20 -97 20 -74 0 -86 -3 -97
-20 -12 -18 -24 -20 -144 -20 -123 0 -132 1 -137 20 -5 18 -15 20 -153 22
l-147 3 -362 1425 c-199 784 -365 1437 -369 1453 l-6 27 -474 0 -473 0 -6 218
c-4 119 -7 484 -7 811 l0 594 750 -7 750 -7 -5 53 c-4 29 -24 266 -45 526
l-38 472 -94 128 -94 127 -112 880 c-62 484 -112 883 -112 886 0 3 25 11 56
18 30 7 58 19 60 26 4 10 -851 6960 -871 7081 l-5 30 -76 -9 c-42 -4 -77 -7
-79 -5 -1 2 -57 433 -124 958 -68 525 -123 955 -124 955 -1 1 -213 -6 -472
-15 -418 -13 -471 -13 -477 0 -4 8 -23 110 -43 226 -33 197 -34 214 -20 247
10 23 15 69 15 127 l0 90 -305 0 -305 0 0 50 0 50 305 0 305 0 0 25 0 25 355
0 355 0 0 -31 0 -30 118 6 c64 3 655 24 1312 45 657 22 1246 42 1308 46 l112
6 0 43 0 43 -142 6 c-79 4 -678 24 -1333 46 -654 21 -1232 41 -1282 44 l-93 5
0 -29z m-5000 -18291 l24 -62 77 6 77 5 -164 -652 c-91 -358 -169 -668 -175
-688 l-10 -38 -969 0 -970 0 0 -350 0 -350 305 0 305 0 0 -23 0 -24 263 -6
c144 -4 332 -7 418 -7 214 0 279 -7 279 -31 0 -18 29 -19 875 -19 l875 0 0
-27 0 -26 -347 6 c-192 3 -1075 16 -1963 27 -888 12 -1634 23 -1657 26 -34 4
-43 9 -43 25 0 12 -22 36 -56 62 -55 42 -55 42 -50 87 3 25 26 279 51 565 25
286 49 530 53 541 4 12 165 160 357 329 193 169 360 317 372 327 14 13 176 63
470 144 l448 125 525 43 c289 24 543 44 565 45 40 1 40 1 65 -60z m3008 -2316
c-26 -2 -71 -2 -100 0 -29 2 -8 3 47 3 55 0 79 -1 53 -3z m-5118 -3848 l0
-345 305 0 305 0 0 -23 0 -24 198 -6 c108 -4 443 -10 745 -14 l547 -6 0 -604
0 -605 -118 7 -119 7 -22 -60 -23 -60 -71 4 c-40 3 -277 14 -528 24 l-456 20
-429 101 c-236 55 -433 104 -439 109 -155 120 -725 594 -725 603 -1 7 -32 251
-70 542 l-69 530 50 43 c38 34 49 51 49 73 l0 29 435 0 435 0 0 -345z"/>
<path d="M10020 12615 l0 -425 1130 0 1130 0 0 425 0 425 -1130 0 -1130 0 0
-425z"/>
<path d="M18060 12745 l0 -175 200 0 200 0 0 -195 0 -195 -90 0 -90 0 0 -85 0
-84 -27 4 c-16 2 -64 6 -108 9 -152 11 -1741 126 -2070 151 -198 15 -413 25
-537 25 l-208 0 0 -250 0 -250 -353 0 -354 0 -6 153 c-4 83 -10 277 -13 430
l-7 277 -1053 0 -1054 0 -105 -210 -105 -210 -1123 2 -1122 3 -105 207 -105
208 -279 -3 -279 -2 -96 -167 c-53 -91 -98 -164 -101 -161 -3 2 -12 50 -20
106 l-15 102 -1970 -2 c-1391 -2 -1971 -6 -1975 -14 -4 -6 -20 -62 -36 -125
l-29 -114 -80 0 -80 -1 -253 -132 -254 -132 1 -1025 0 -1025 253 -132 253
-133 80 0 80 0 29 -114 c16 -63 32 -119 35 -124 4 -5 784 -11 1976 -13 l1970
-4 15 102 c8 56 17 104 20 107 3 3 48 -71 100 -164 l95 -170 283 3 282 2 103
217 102 218 1125 0 1125 0 101 -218 101 -217 1055 -3 1055 -2 7 277 c3 153 9
347 13 431 l6 152 354 0 353 0 0 -250 0 -250 203 0 c118 0 342 11 537 25 184
14 736 54 1225 90 490 35 911 67 938 69 l47 5 0 -99 0 -100 80 0 80 0 0 -225
0 -225 -230 0 -230 0 0 -195 0 -195 820 0 820 0 0 35 0 35 515 0 515 0 0 -40
c0 -38 1 -40 33 -40 75 -1 4026 132 4065 136 l42 5 0 64 0 63 -122 6 c-103 6
-3948 136 -4001 136 -13 0 -17 -9 -17 -40 l0 -40 -515 0 -515 0 0 35 0 35
-435 0 -435 0 0 225 0 225 100 0 100 0 0 125 0 125 28 0 c40 0 1700 119 1750
126 l42 5 0 434 0 433 123 6 c67 4 408 15 757 26 349 11 692 22 763 26 l127 6
0 38 0 37 -152 6 c-84 4 -454 16 -823 27 -368 11 -698 23 -732 26 l-63 6 0
403 0 403 -27 6 c-16 3 -425 33 -910 68 l-883 62 0 108 0 108 -115 0 -115 0 0
195 0 195 385 0 385 0 0 35 0 35 445 0 445 0 0 -38 0 -38 63 3 c34 2 811 28
1727 58 916 30 1698 58 1738 61 l72 6 0 53 0 53 -112 6 c-140 8 -3340 116
-3425 116 l-63 0 0 -35 0 -35 -445 0 -445 0 0 35 0 35 -715 0 -715 0 0 -175z"/>
<path d="M10020 8770 l0 -820 -895 0 -895 0 0 -209 0 -209 -100 -17 -100 -18
0 -893 0 -893 58 -21 c31 -11 76 -28 100 -37 l42 -16 0 -243 0 -244 210 0 210
0 0 -1445 0 -1445 -210 0 -210 0 0 -619 0 -618 61 -7 c34 -3 268 -6 519 -6
251 0 599 -3 773 -7 l315 -6 33 -91 32 -91 -12 -105 c-7 -58 -15 -156 -18
-217 l-6 -113 327 0 326 0 0 -50 0 -50 -155 0 -155 0 0 -135 0 -135 565 0 565
0 0 25 0 25 354 0 355 0 3 -28 3 -27 1400 47 c770 26 1410 47 1423 47 19 1 22
6 22 45 l0 44 -62 6 c-35 3 -619 24 -1298 46 -679 22 -1292 43 -1362 47 l-128
6 0 -32 0 -31 -355 0 -355 0 0 25 0 25 -305 0 -305 0 0 50 0 50 314 0 314 0 7
73 c10 107 10 102 -10 237 l-18 125 24 85 25 85 595 -4 596 -4 57 229 c31 126
61 246 67 267 l10 37 82 0 82 0 388 1552 c213 854 387 1558 387 1563 0 6 -36
23 -79 39 -47 16 -78 33 -76 39 2 7 99 401 215 877 116 476 215 881 220 901
10 35 12 36 109 64 55 15 104 31 109 34 13 9 204 803 195 811 -5 4 -44 19 -88
35 -44 15 -81 28 -83 30 -2 2 99 424 114 478 5 16 -49 17 -1030 17 l-1036 0 0
820 0 820 -1130 0 -1130 0 0 -820z"/>
</g>
</svg>
