<?xml version="1.0" standalone="no"?>
<!DOCTYPE svg PUBLIC "-//W3C//DTD SVG 20010904//EN"
 "http://www.w3.org/TR/2001/REC-SVG-20010904/DTD/svg10.dtd">
<svg version="1.0" xmlns="http://www.w3.org/2000/svg"
   viewBox="0 0 5000.000000 2595.000000"
 preserveAspectRatio="xMidYMid meet">
<metadata>
Created by potrace 1.16, written by Peter Selinger 2001-2019
</metadata>
<g transform="translate(0.000000,2595.000000) scale(0.100000,-0.100000)"
fill="#000000" stroke="none">
<path d="M8930 24129 l-1475 -1821 -3 -539 -2 -539 80 0 80 0 -1 -47 c0 -27
-6 -147 -12 -268 l-12 -220 -735 -3 -735 -3 -54 -127 c-30 -70 -78 -170 -108
-222 l-53 -95 0 93 0 92 -188 0 -188 0 -57 -58 -57 -58 0 -1200 0 -1200 63
-62 63 -62 182 0 182 0 0 60 0 61 54 -60 c29 -33 79 -103 110 -156 47 -79 61
-95 81 -95 l25 0 0 -515 0 -515 -415 0 -415 0 -27 -90 -28 -90 -135 0 -135 -1
-148 -209 c-147 -208 -147 -209 -147 -264 l0 -56 -1930 0 -1930 0 0 -634 0
-633 -172 -7 c-135 -6 -176 -11 -184 -22 -10 -12 -57 -16 -258 -21 l-246 -6 0
-29 0 -28 245 0 c234 0 245 -1 255 -20 10 -18 21 -20 123 -20 62 0 118 -4 124
-8 9 -6 -3 -20 -37 -45 l-50 -37 0 -119 0 -119 -27 -6 c-16 -3 -164 -8 -330
-12 l-303 -7 0 -152 0 -153 43 -5 c23 -4 171 -9 330 -13 158 -4 287 -10 287
-14 0 -4 -96 -10 -213 -14 -196 -6 -213 -8 -226 -26 -12 -18 -25 -20 -117 -20
l-104 0 0 -45 0 -45 104 0 c94 0 105 -2 118 -21 13 -20 24 -22 193 -26 99 -2
195 -6 213 -9 l32 -5 0 -558 0 -558 -107 -6 c-58 -4 -154 -7 -213 -7 -104 0
-107 -1 -118 -25 -11 -24 -14 -25 -117 -25 l-105 0 0 -45 0 -45 105 0 c94 0
106 -2 117 -20 12 -18 24 -20 138 -21 69 -1 166 -4 215 -8 l90 -6 -95 -8 c-52
-3 -202 -10 -332 -13 l-238 -7 0 -158 0 -159 158 0 c282 0 501 -12 504 -26 2
-8 46 -44 98 -82 l95 -68 3 -81 3 -80 -107 -6 c-59 -4 -138 -7 -176 -7 -52 0
-70 -4 -74 -15 -5 -12 -27 -15 -113 -15 -58 0 -170 -3 -248 -7 l-143 -6 0 -27
0 -27 247 -7 c199 -6 250 -10 256 -22 6 -10 31 -14 100 -14 51 0 129 -3 175
-7 l82 -6 0 -518 0 -519 1930 0 1930 0 0 -58 0 -57 145 -205 145 -205 136 -5
137 -5 30 -87 29 -88 414 0 414 0 0 -520 0 -520 -27 0 c-25 0 -35 -12 -86 -98
-31 -53 -80 -122 -107 -152 l-49 -55 -1 58 0 57 -187 0 -187 0 -58 -57 -58
-57 0 -1201 0 -1201 63 -62 63 -62 181 0 182 0 3 91 3 91 49 -88 c27 -49 75
-147 107 -219 l57 -130 731 -3 731 -2 0 -83 c0 -45 7 -199 15 -342 8 -143 15
-277 15 -297 l0 -38 -80 0 -80 0 0 -537 1 -538 1481 -1827 1480 -1828 454 0
454 0 0 2365 0 2365 -150 0 -150 0 0 38 c0 20 4 152 10 292 5 140 13 344 16
452 l6 198 134 0 134 0 0 45 0 45 155 -95 155 -95 819 0 820 0 60 78 61 77 0
1331 0 1331 -61 77 -61 76 -826 0 -827 0 -147 -44 -148 -44 0 44 0 44 -745 2
-745 3 152 259 152 259 375 -6 375 -7 1916 235 c1053 129 1927 237 1943 240
l27 5 0 -490 0 -490 -65 0 -65 0 0 -50 0 -50 -259 0 -259 0 -81 -89 -81 -89 0
-1233 1 -1234 80 -87 81 -88 259 0 259 0 0 -80 0 -80 2415 0 2415 0 0 -80 0
-80 1138 2 1137 3 68 100 67 99 0 541 0 541 308 13 c175 8 509 12 777 11 259
-2 514 -2 568 -1 96 1 97 1 97 26 l0 25 -142 0 c-647 2 -1394 10 -1490 15
l-118 6 0 225 0 224 101 0 c58 0 110 5 122 12 16 8 203 12 697 14 371 2 710 3
753 4 75 0 77 1 77 25 l0 25 -162 0 c-456 0 -1367 10 -1470 15 l-118 6 -3 667
c-2 367 -7 843 -11 1059 l-6 392 42 6 c86 12 640 75 659 75 19 0 20 -8 19
-272 -2 -491 -1 -498 14 -498 21 0 24 70 18 441 -4 286 -3 339 9 339 8 0 193
21 412 46 219 25 400 45 402 43 2 -2 7 -182 12 -399 l8 -395 29 -3 c16 -2 33
1 39 7 7 7 13 145 18 406 3 218 8 397 10 399 2 2 301 37 665 79 l661 76 129
57 c71 31 164 71 207 90 l77 33 0 -497 c0 -273 0 -575 0 -669 l0 -173 25 0
c24 0 25 2 26 78 0 42 1 372 3 732 l2 655 28 63 29 62 259 0 260 0 45 40 46
40 178 0 179 0 0 165 0 165 165 0 165 0 0 -470 0 -470 138 0 c77 0 179 -3 229
-6 l90 -7 10 -511 c5 -281 10 -611 11 -733 l2 -223 -165 0 -165 0 0 -55 0 -55
-155 0 -155 0 0 -379 0 -378 -217 -8 c-188 -6 -1083 -15 -1520 -15 l-143 0 0
-25 0 -25 143 -1 c78 0 417 0 752 1 347 0 616 -4 624 -9 23 -15 -243 -24 -491
-18 -248 7 -328 2 -328 -19 0 -15 -24 -15 568 -14 188 0 403 -3 477 -6 l135
-7 0 -259 0 -258 -278 0 c-156 0 -282 4 -287 9 -10 9 -623 -24 -633 -34 -3 -3
-3 -7 -1 -9 2 -2 141 -12 308 -21 232 -14 308 -15 322 -7 13 8 103 12 294 12
l275 0 0 -405 0 -405 155 0 155 0 0 -55 0 -55 510 0 510 0 0 -393 c0 -271 -3
-396 -11 -404 -8 -8 -3 -135 16 -459 15 -247 29 -451 31 -453 2 -2 6 -2 9 1 3
2 17 201 32 442 21 348 24 444 15 470 -8 23 -12 146 -12 414 l0 382 2025 0
2025 0 0 -358 c0 -233 -4 -362 -10 -368 -15 -15 40 -904 55 -904 7 0 20 149
38 447 23 395 25 449 12 463 -13 14 -15 72 -15 368 l0 352 1078 1 1077 0 175
128 175 127 3 1001 2 1001 -177 116 -178 116 -409 0 c-368 0 -408 2 -402 16 3
9 6 341 6 739 l0 722 360 8 360 7 0 339 0 339 2390 0 2390 0 0 465 0 465 55 0
55 0 0 -619 0 -619 -82 -6 c-46 -4 -227 -13 -402 -22 -252 -11 -322 -18 -330
-29 -9 -12 -84 -16 -406 -25 -217 -6 -417 -15 -445 -20 -27 -5 -594 -19 -1260
-31 -665 -12 -1212 -23 -1214 -25 -2 -2 -2 -6 1 -9 3 -3 531 1 1174 8 1402 17
2133 13 2151 -10 10 -12 73 -16 410 -23 219 -5 399 -9 401 -10 1 0 2 -108 2
-240 l0 -240 -26 0 c-14 0 -52 -18 -85 -40 l-59 -41 0 -449 0 -450 60 -30 c33
-16 73 -30 90 -30 l30 0 0 -95 0 -95 -1905 0 -1905 0 0 -333 0 -332 1493
-1023 1492 -1022 413 0 412 0 0 -34 c0 -31 25 -63 234 -298 l235 -263 -67 -32
c-37 -18 -84 -32 -104 -33 -34 0 -38 3 -38 25 0 14 -4 25 -9 25 -5 0 -116 -22
-245 -50 -200 -42 -252 -50 -343 -50 -60 0 -236 -7 -393 -15 -157 -8 -699 -21
-1205 -30 -1051 -17 -1280 -24 -1268 -36 5 -5 513 -3 1193 6 652 9 1241 12
1310 8 l125 -6 -130 -29 c-71 -15 -140 -30 -152 -33 -21 -5 -23 -11 -23 -65
l0 -59 -527 -4 c-413 -2 -536 -6 -565 -17 -21 -7 -38 -16 -38 -20 0 -3 21 -14
48 -23 41 -14 116 -18 565 -23 l517 -7 0 -1392 0 -1391 549 -113 c302 -62 558
-115 569 -118 19 -4 21 0 24 46 l3 51 100 -60 100 -60 1362 0 1362 0 115 129
116 129 0 1490 0 1491 -112 130 -113 130 -342 0 -343 1 0 460 0 460 49 0 c27
0 62 5 76 10 17 6 274 12 673 14 356 3 680 5 720 5 63 1 72 3 72 20 0 16 -11
19 -87 24 -48 4 -209 4 -358 1 -255 -5 -947 9 -1082 22 l-63 6 0 229 0 229
114 0 c63 0 127 5 143 11 19 8 308 12 938 14 501 2 949 4 998 4 l87 1 0 29 c0
27 -2 29 -57 35 -32 3 -137 5 -233 5 -96 -1 -519 -1 -940 1 -623 2 -771 5
-799 16 -21 9 -73 14 -142 14 l-109 0 0 155 0 155 219 0 c201 0 223 2 268 21
48 21 57 21 1123 28 745 4 1083 3 1100 -4 17 -8 122 -8 343 -1 l317 9 0 43 0
42 -72 6 c-146 11 -568 17 -585 8 -11 -5 -463 -6 -1098 -3 -985 6 -1083 9
-1119 24 -32 14 -74 17 -267 17 l-229 0 0 660 0 660 570 0 570 0 0 -330 0
-330 433 0 433 0 1491 1208 1492 1207 0 373 1 372 -1860 0 -1860 0 0 283 0
282 333 128 332 127 263 0 262 0 110 83 109 82 0 62 1 61 123 48 c67 26 194
75 282 109 l160 62 5 44 5 43 118 45 117 44 0 36 0 36 143 45 142 45 3 68 3
67 44 0 45 0 0 -126 0 -127 811 5 811 5 136 136 137 137 375 11 c206 6 482 9
612 5 282 -7 358 -2 358 25 0 18 -22 19 -582 20 -321 1 -607 4 -637 7 -53 7
-53 7 -32 26 14 13 21 31 21 56 l0 37 178 7 c97 4 429 7 737 7 308 1 577 3
598 6 28 4 37 9 37 24 0 18 -9 19 -127 19 -637 3 -1245 9 -1325 15 l-98 6 0
80 0 79 370 0 c346 0 372 1 420 20 47 18 74 20 354 20 166 0 553 3 859 7 l557
6 0 53 0 53 -862 3 -863 4 -53 22 c-51 21 -63 22 -417 22 l-365 0 0 74 0 75
93 5 c301 18 675 27 977 23 410 -6 480 -2 480 24 0 22 86 19 -770 23 -316 2
-621 7 -677 11 l-103 7 0 32 c0 21 -8 40 -21 52 l-21 19 43 9 c24 5 311 11
637 13 582 3 592 4 592 23 0 19 -7 20 -112 20 -534 3 -1079 9 -1153 15 l-90 6
-132 131 -131 131 -309 8 c-169 4 -534 8 -810 8 l-503 1 0 -125 0 -125 -45 0
-45 0 0 64 0 65 -144 46 -145 45 -3 37 -3 37 -115 46 -115 46 -5 44 -5 43
-280 108 -280 107 -3 61 -3 61 -111 85 -110 85 -267 0 -267 0 -234 90 c-129
50 -277 107 -327 126 l-93 36 0 169 0 169 1860 0 1860 0 0 373 0 372 -1492
1208 -1493 1207 -432 0 -433 0 0 -220 0 -220 -570 0 -570 0 0 805 0 805 114 0
c63 0 127 5 143 11 20 8 290 12 928 15 495 1 944 3 998 3 l97 1 0 29 0 29
-142 6 c-79 3 -181 5 -228 4 -47 -1 -433 -1 -857 0 -672 1 -777 3 -802 17 -22
11 -61 15 -141 15 l-110 0 0 224 0 224 58 6 c31 3 95 10 142 16 53 6 300 10
660 9 783 -2 732 -4 728 24 l-3 22 -718 3 c-449 1 -726 6 -737 12 -10 6 -44
10 -74 10 l-56 0 0 570 0 570 338 0 339 0 116 133 116 132 1 1491 0 1492 -115
131 -116 131 -1361 0 -1361 0 -98 -60 c-53 -33 -100 -60 -103 -60 -3 0 -6 20
-6 45 0 33 -4 45 -14 45 -15 0 -1076 -217 -1108 -226 -17 -5 -18 -85 -18
-1504 l0 -1499 23 -3 c12 -2 -222 -7 -519 -11 -456 -6 -549 -10 -589 -23 -25
-9 -43 -20 -38 -24 28 -26 115 -29 848 -36 l770 -6 305 -64 c168 -36 313 -67
322 -70 14 -4 17 3 20 39 l3 44 100 -47 100 -46 -94 -7 c-52 -4 -126 -7 -164
-7 -50 0 -73 -4 -81 -15 -10 -13 -97 -15 -671 -16 -363 0 -1107 5 -1653 12
-746 9 -996 9 -1005 0 -8 -8 -5 -11 13 -11 180 3 2429 -43 2465 -50 28 -5 227
-14 444 -19 334 -8 397 -11 406 -24 8 -11 40 -18 103 -24 l92 -8 -160 -180
-160 -180 0 -147 0 -148 -412 0 -413 0 -1490 -1019 -1490 -1019 -3 -331 -2
-331 1847 -1 c1709 0 1846 -1 1816 -16 l-33 -17 0 -452 0 -453 59 -35 c32 -20
70 -36 85 -36 l26 0 0 -355 c0 -195 -1 -355 -2 -356 -2 0 -183 -4 -403 -9
-356 -8 -401 -11 -412 -26 -11 -15 -49 -16 -430 -14 -230 1 -497 2 -593 1 -96
-1 -651 4 -1233 10 -581 7 -1060 9 -1064 6 -3 -4 -4 -9 -2 -11 2 -2 549 -13
1214 -25 666 -12 1233 -26 1260 -31 28 -5 227 -13 444 -18 348 -8 396 -11 406
-26 11 -14 67 -19 411 -36 220 -11 400 -20 402 -20 1 0 2 -227 2 -505 l0 -505
-55 0 -55 0 0 465 0 465 -2390 0 -2390 0 0 340 0 340 -360 0 -360 0 -2 740 -3
740 403 0 402 0 180 120 180 120 -2 1002 -3 1002 -174 123 -175 123 -1078 0
-1078 0 0 242 c0 199 3 244 15 258 13 14 12 68 -12 463 -18 302 -31 447 -38
447 -16 0 -70 -889 -55 -904 6 -6 10 -100 10 -258 l0 -248 -2025 0 -2025 0 0
280 c0 201 3 286 12 299 9 16 6 113 -15 462 -15 243 -29 445 -32 447 -3 3 -7
3 -9 1 -2 -2 -16 -206 -30 -453 -20 -320 -24 -452 -17 -459 7 -7 11 -105 11
-294 l0 -283 -510 0 -510 0 0 -55 0 -55 -155 0 -155 0 0 -511 0 -511 -377 3
c-376 3 -823 -15 -823 -33 0 -4 21 -8 48 -8 26 -1 139 -7 252 -14 135 -9 323
-11 553 -8 l347 5 0 -256 0 -255 -82 -7 c-46 -3 -311 -8 -590 -11 -413 -4
-508 -7 -508 -18 0 -18 126 -28 260 -20 58 4 209 3 335 -2 220 -8 226 -9 130
-16 -55 -4 -352 -7 -660 -7 -827 2 -765 4 -765 -26 l0 -25 138 0 c633 -3 1409
-10 1560 -15 l182 -6 0 -264 0 -265 155 0 155 0 0 -60 0 -60 165 0 165 0 -4
-622 c-3 -343 -8 -674 -12 -735 l-7 -113 -229 0 -228 0 0 -470 0 -470 -165 0
-165 0 0 160 0 160 -178 0 -178 0 -39 40 -39 40 -266 0 -265 1 -30 67 -30 67
-1 535 c-2 773 1 700 -29 700 l-25 0 0 -172 c0 -95 0 -345 0 -556 l0 -382 -32
13 c-18 8 -114 48 -213 90 l-180 76 -620 71 c-341 39 -639 73 -662 76 l-43 6
-1 242 c0 132 -4 264 -7 291 -7 49 -8 50 -42 50 l-35 0 -6 -282 c-3 -156 -7
-285 -10 -287 -2 -2 -188 18 -414 45 -225 26 -412 48 -414 49 -2 0 -1 98 2
218 7 242 2 332 -19 332 -15 0 -17 -49 -14 -389 l1 -163 -23 5 c-13 3 -175 22
-362 44 l-339 38 7 166 c4 92 4 214 0 273 -6 92 -9 106 -24 106 -10 0 -20 -10
-23 -22 -5 -22 -7 -204 -3 -415 0 -50 -1 -94 -4 -96 -3 -3 -107 6 -231 21
l-226 25 -7 81 c-3 45 -6 165 -6 269 l0 187 203 0 202 1 68 100 67 100 0 549
0 550 99 0 c55 0 110 4 123 9 19 7 830 15 1313 12 167 -1 215 6 215 29 0 26
-87 31 -450 24 -277 -4 -858 6 -1187 22 l-113 5 0 224 0 224 118 6 c182 9
1265 21 1282 14 8 -3 89 -3 180 0 161 6 165 6 168 29 4 27 45 26 -683 23 -309
-1 -609 3 -700 10 -88 6 -206 13 -262 15 l-103 5 0 650 0 649 -67 100 -66 100
-1139 0 -1138 0 0 -75 0 -75 -2415 0 -2415 0 0 -80 0 -80 -253 0 -252 0 -88
-88 -87 -87 0 -1240 0 -1240 83 -82 82 -81 258 -7 257 -7 0 -44 0 -44 65 0 65
0 0 -490 c0 -269 -3 -490 -7 -490 -4 0 -869 106 -1922 235 l-1916 236 -396 -3
-396 -3 -150 255 -149 255 743 3 743 2 0 45 c0 25 3 45 6 45 3 0 75 -20 158
-45 l153 -45 814 0 814 0 63 80 62 80 0 1330 0 1330 -62 80 -63 80 -815 0
-815 -1 -155 -94 -155 -93 -3 39 -3 39 -127 0 c-70 0 -132 4 -138 8 -7 4 -13
89 -17 242 -4 129 -10 297 -14 373 l-6 137 151 0 152 0 0 2360 0 2360 -458 0
-457 0 -1475 -1821z m1714 -2921 c4 -20 27 -628 26 -700 l0 -28 -1220 0 -1220
0 -52 105 -53 105 -84 0 -84 0 6 103 c4 56 9 172 13 257 3 85 7 161 9 168 4 9
278 12 1329 12 l1326 0 4 -22z m16746 -3933 l0 -735 -80 0 -80 0 -2 393 c-1
215 -1 408 0 427 1 19 2 112 1 205 0 135 -3 172 -15 181 -11 9 -14 40 -14 138
l0 126 95 0 95 0 0 -735z m-7920 215 l0 -110 921 0 920 0 -7 -262 c-3 -145 -7
-264 -8 -265 -1 -1 -429 47 -950 107 l-947 110 -334 0 -333 0 -113 193 c-62
105 -132 225 -156 265 l-43 72 525 0 525 0 0 -110z m-6838 -1297 c972 -97
1766 -178 1765 -180 -2 -1 -819 -3 -1816 -3 l-1814 -2 -99 169 c-55 92 -102
174 -105 181 -4 9 30 12 148 12 129 1 446 -28 1921 -177z m7681 65 l977 -92 0
-93 0 -93 -755 0 -755 0 0 -190 0 -190 -195 0 -195 0 0 205 c0 190 -1 205 -18
205 -12 0 -46 48 -112 161 -52 89 -96 165 -98 170 -8 21 234 4 1151 -83z
m1310 -124 l187 -17 0 -69 0 -68 -225 0 -225 0 0 59 c0 32 -3 73 -7 91 l-6 33
44 -6 c24 -3 128 -14 232 -23z m635 -60 l302 -28 0 -28 0 -28 -345 0 -345 0 0
61 0 62 43 -6 c23 -3 178 -18 345 -33z m662 -64 l175 -17 -232 -2 -233 -1 0
25 c0 24 1 25 58 19 31 -3 136 -14 232 -24z m-16750 -666 l0 -637 -46 7 c-26
3 -91 6 -145 6 l-99 0 0 442 0 443 -127 127 -128 128 -82 0 -83 0 0 60 0 60
355 0 355 0 0 -636z m0 -4504 l0 -630 -355 0 -355 0 0 60 0 60 87 0 88 0 122
122 123 123 0 447 0 448 145 0 145 0 0 -630z m13610 -445 l0 -185 478 0 c262
0 602 -3 755 -7 l277 -6 0 -88 0 -87 -47 -6 c-27 -3 -454 -44 -951 -91 -665
-63 -932 -85 -1017 -83 l-114 3 97 167 c66 115 102 168 115 168 16 0 17 16 17
200 l0 200 195 0 195 0 0 -185z m2020 -221 c6 -14 10 -43 10 -64 0 -45 20 -40
-244 -65 -231 -22 -206 -30 -206 70 l0 85 215 0 215 0 10 -26z m1224 18 c4 -6
-1080 -114 -1136 -112 -14 0 -18 9 -18 44 0 83 -56 76 580 76 313 0 571 -4
574 -8z m-8696 -15 c108 -2 -108 -25 -1650 -180 -1675 -168 -1783 -178 -1946
-175 l-172 3 105 180 106 180 1717 -3 c944 -1 1773 -3 1840 -5z m13062 -1272
l0 -735 -95 0 c-90 0 -95 1 -95 21 0 12 6 27 14 33 12 9 15 46 15 176 1 91 0
181 -1 200 -1 19 -1 261 0 538 l2 502 80 0 80 0 0 -735z m-5576 289 c3 -107 3
-201 -1 -207 -5 -7 -7 -73 -5 -147 l3 -135 -32 48 -31 47 -205 0 -204 0 7 268
c4 147 8 269 10 271 4 5 367 48 415 50 l36 1 7 -196z m-514 -124 l0 -270 -915
0 -915 0 0 -105 0 -105 -520 0 c-286 0 -520 3 -520 6 0 3 69 123 153 266 l152
261 315 -6 315 -5 965 113 c531 62 966 113 968 114 1 0 2 -120 2 -269z
m-10625 -3442 c-3 -46 -9 -256 -15 -468 -6 -212 -13 -395 -16 -408 l-4 -22
-1328 2 -1327 3 -11 235 c-6 129 -14 299 -18 378 l-6 142 87 0 88 1 52 109 52
110 1225 0 1225 0 -4 -82z"/>
</g>
</svg>
