<?xml version="1.0" standalone="no"?>
<!DOCTYPE svg PUBLIC "-//W3C//DTD SVG 20010904//EN"
 "http://www.w3.org/TR/2001/REC-SVG-20010904/DTD/svg10.dtd">
<svg version="1.0" xmlns="http://www.w3.org/2000/svg"
   viewBox="0 0 4339.000000 4328.000000"
 preserveAspectRatio="xMidYMid meet">
<metadata>
Created by potrace 1.16, written by Peter Selinger 2001-2019
</metadata>
<g transform="translate(0.000000,4328.000000) scale(0.100000,-0.100000)"
fill="#000000" stroke="none">
<path d="M17340 42945 c0 -184 -3 -335 -7 -335 -5 0 -512 -14 -1128 -30 -616
-16 -1165 -30 -1220 -31 -77 -1 897 -30 2318 -68 l27 -1 0 -195 0 -195 -27 0
c-57 0 -2719 -70 -2753 -72 -19 -2 548 -18 1260 -36 712 -18 1346 -35 1408
-39 l112 -6 0 -156 0 -156 692 -945 692 -945 84 -284 84 -285 58 -65 58 -66
152 -500 c84 -275 154 -505 157 -511 2 -6 -16 -36 -40 -67 l-45 -57 38 -153
c30 -120 45 -214 70 -450 17 -164 29 -301 26 -305 -4 -3 -503 -26 -1111 -51
l-1104 -46 -133 -130 c-73 -72 -212 -207 -308 -299 l-174 -169 -12 -251 c-7
-138 -17 -735 -23 -1326 -6 -591 -13 -1188 -16 -1326 l-6 -250 322 -285 c177
-156 339 -298 359 -316 l36 -31 1215 -31 c667 -17 1273 -33 1344 -37 l131 -6
27 -281 c15 -155 27 -290 27 -299 0 -17 -19 -18 -250 -18 l-250 0 -239 -190
c-132 -105 -242 -198 -245 -208 -3 -9 -127 -483 -277 -1052 -149 -569 -273
-1037 -275 -1039 -1 -2 -945 -29 -2096 -61 -1151 -32 -2055 -58 -2008 -59 47
-1 977 -26 2066 -54 l1982 -52 -197 -750 c-187 -711 -198 -750 -222 -757 -13
-4 -1467 -44 -3231 -90 -1764 -45 -3205 -84 -3204 -85 3 -4 4482 -123 4604
-123 l82 0 0 -415 0 -415 -22 0 c-13 0 -178 7 -368 15 -190 8 -360 15 -377 15
l-33 0 0 -110 0 -111 -172 6 c-95 3 -201 8 -235 11 l-63 5 0 -828 0 -828 -102
2 c-57 1 -524 7 -1038 13 -514 6 -1196 15 -1515 21 l-581 11 -254 -72 c-140
-40 -260 -75 -267 -79 -7 -3 -92 -81 -189 -171 -175 -163 -178 -167 -325 -382
-82 -119 -149 -224 -149 -232 0 -8 -5 -18 -11 -21 -6 -4 -628 -20 -1382 -35
-755 -16 -1463 -31 -1573 -34 l-201 -5 -7 267 c-3 147 -9 294 -12 328 l-6 60
-216 108 -217 108 -3180 -142 c-1749 -77 -3195 -143 -3212 -146 -27 -4 -33 -9
-33 -29 0 -23 -4 -25 -50 -25 -48 0 -59 -6 -198 -101 -129 -88 -148 -104 -152
-132 -6 -38 23 -1073 30 -1080 3 -3 70 -13 150 -21 80 -9 162 -19 183 -22 l37
-6 0 -313 0 -314 -52 -5 c-29 -4 -102 -11 -163 -17 -60 -5 -112 -12 -114 -15
-3 -3 -26 -125 -51 -272 l-46 -267 47 -273 c25 -150 48 -274 50 -276 2 -2 77
-9 167 -16 l162 -13 0 -316 0 -317 -177 -18 c-98 -10 -182 -23 -188 -28 -10
-9 -44 -1002 -37 -1078 3 -33 11 -40 158 -138 138 -91 159 -102 199 -102 41 0
45 -2 45 -25 0 -22 4 -25 38 -25 20 -1 1466 -65 3212 -144 l3175 -143 216 108
217 108 5 53 c4 29 9 176 13 326 l7 272 76 0 c93 0 2954 -59 3030 -62 50 -3
55 -5 62 -29 3 -15 71 -120 150 -235 140 -204 149 -213 324 -380 l180 -170
270 -77 270 -77 385 10 c292 8 2586 41 2803 40 l37 0 0 -826 0 -825 235 7 235
7 0 -109 0 -109 400 15 400 15 0 -411 0 -411 -127 -6 c-71 -3 -1131 -32 -2356
-64 -1225 -32 -2224 -59 -2220 -60 4 -2 1461 -41 3237 -88 1776 -47 3232 -88
3235 -91 3 -3 93 -341 201 -752 l196 -747 -135 -7 c-75 -3 -990 -28 -2033 -54
-1043 -27 -1895 -50 -1893 -52 3 -3 3925 -111 4055 -112 l66 0 273 -1042 c150
-574 276 -1050 280 -1059 3 -10 114 -103 246 -208 l240 -190 248 -1 c228 0
247 -1 247 -17 0 -43 -54 -569 -59 -574 -3 -4 -582 -21 -1286 -38 -704 -18
-1308 -34 -1343 -37 l-62 -6 -353 -311 -352 -311 3 -325 c14 -1575 23 -2280
33 -2531 l11 -295 192 -188 c105 -103 245 -239 312 -302 l121 -115 1104 -46
c607 -25 1106 -47 1108 -49 2 -2 -11 -140 -29 -307 -25 -240 -40 -334 -69
-454 l-38 -150 44 -55 43 -55 -156 -515 -157 -514 -57 -60 -58 -60 -83 -285
-83 -285 -693 -947 -693 -947 0 -161 0 -160 -102 0 c-184 -1 -2608 -67 -2613
-71 -2 -3 589 -19 1313 -37 724 -18 1336 -35 1360 -38 l42 -5 0 -195 0 -194
-42 0 c-138 2 -2204 -54 -2210 -59 -6 -6 2068 -63 2215 -61 l47 0 0 -340 0
-340 73 26 c50 18 968 557 3052 1790 l2980 1763 1090 1056 c600 581 1098 1064
1107 1073 12 12 235 917 708 2872 380 1570 694 2863 698 2873 5 12 135 81 352
187 221 108 346 175 351 187 3 10 127 466 274 1013 148 547 272 999 276 1004
4 5 1447 50 3206 101 1759 51 3164 93 3123 94 -423 9 -6222 179 -6225 183 -5
5 948 3544 957 3553 6 7 2415 575 2434 575 7 0 15 -24 19 -56 4 -32 12 -57 20
-61 8 -2 802 92 1764 211 l1750 217 1042 254 c573 140 1060 255 1081 255 22 0
46 6 54 14 7 8 32 17 55 21 34 6 52 2 99 -20 l58 -28 414 111 414 112 2396 50
c1318 27 2403 50 2412 50 13 0 16 11 16 54 l0 53 -182 7 c-101 3 -1065 24
-2143 46 -1078 22 -2006 43 -2062 46 l-101 6 -5 36 c-2 21 -3 38 -2 40 1 1
179 21 396 44 l394 41 1230 304 c676 167 1233 307 1237 311 4 4 114 163 246
353 l239 347 247 237 247 238 -33 34 c-18 19 -127 123 -241 231 l-209 197
-246 355 c-135 195 -247 357 -249 359 -1 2 -553 141 -1225 307 l-1223 303
-407 43 -407 43 6 40 c3 22 6 41 7 42 2 2 4290 93 4394 93 l93 0 -3 58 -3 57
-2420 52 -2420 51 -404 110 -404 111 -59 -30 c-54 -27 -61 -29 -106 -18 -26 7
-51 18 -55 26 -5 8 -26 13 -56 13 -28 0 -460 101 -1072 251 l-1024 251 -1765
218 c-970 120 -1767 216 -1770 214 -3 -3 -10 -31 -15 -62 -9 -49 -13 -57 -30
-54 -26 4 -2419 565 -2423 568 -6 4 -963 3556 -960 3559 2 2 1398 43 3103 92
1782 50 3074 91 3040 95 -33 4 -1450 46 -3150 94 -1699 47 -3092 88 -3094 90
-2 2 -127 461 -278 1021 -151 560 -276 1019 -276 1019 -1 1 -157 77 -347 169
-190 92 -346 169 -347 170 -2 1 -311 1272 -687 2826 -376 1553 -690 2846 -696
2872 -12 46 -56 90 -1118 1120 l-1106 1072 -2970 1759 c-2656 1572 -3075 1816
-3127 1816 -5 0 -9 -134 -9 -335z m-2440 -18919 l0 -184 -227 -6 c-126 -4
-885 -20 -1688 -36 -803 -16 -1552 -32 -1664 -35 -153 -5 -201 -4 -196 5 4 6
78 64 164 128 137 102 175 124 316 188 l161 71 224 8 c174 6 1680 29 2798 44
l112 1 0 -184z m-1905 -4541 c913 -19 1715 -35 1783 -35 l122 0 0 -185 0 -185
-132 0 c-274 0 -2415 31 -2703 39 l-300 9 -158 71 c-139 62 -178 85 -323 192
-90 66 -164 123 -164 125 0 7 212 4 1875 -31z"/>
</g>
</svg>
