<?xml version="1.0" standalone="no"?>
<!DOCTYPE svg PUBLIC "-//W3C//DTD SVG 20010904//EN"
 "http://www.w3.org/TR/2001/REC-SVG-20010904/DTD/svg10.dtd">
<svg version="1.0" xmlns="http://www.w3.org/2000/svg"
   viewBox="0 0 3648.000000 734.000000"
 preserveAspectRatio="xMidYMid meet">
<metadata>
Created by potrace 1.16, written by Peter Selinger 2001-2019
</metadata>
<g transform="translate(0.000000,734.000000) scale(0.100000,-0.100000)"
fill="#000000" stroke="none">
<path d="M6166 7323 c-3 -10 -10 -54 -16 -98 -20 -138 -6 -125 -129 -125
l-107 0 -42 -43 -42 -43 0 -306 0 -306 -30 -12 -30 -12 0 -179 0 -179 -30 0
-30 0 0 110 c0 108 -1 111 -25 122 l-25 11 0 306 0 305 -42 43 -42 43 -108 0
-107 0 -6 33 c-3 17 -11 70 -18 117 l-13 85 -811 3 -811 2 -17 -120 -18 -120
-106 0 -107 0 -47 -48 -47 -48 0 -302 0 -302 -25 -12 c-19 -9 -25 -19 -25 -45
0 -18 -3 -33 -7 -33 -3 0 -30 14 -60 30 -29 17 -61 30 -72 30 -26 0 -67 51
-88 110 -17 48 -19 50 -55 50 -34 0 -41 -5 -70 -50 l-33 -50 -98 0 c-64 0
-110 -5 -134 -15 -20 -8 -67 -15 -107 -15 -43 -1 -81 -6 -96 -15 -15 -9 -54
-14 -97 -15 l-73 0 0 150 0 149 -51 7 c-35 5 -47 10 -40 17 6 6 11 21 11 33 0
20 -5 21 -138 27 -75 4 -165 3 -200 -2 -35 -5 -77 -7 -95 -4 -34 5 -363 -22
-391 -33 -10 -4 -16 -18 -16 -35 0 -16 -5 -29 -12 -29 -21 0 -1052 -90 -1095
-96 l-41 -5 0 -929 0 -929 31 -6 c37 -5 1064 -95 1096 -95 14 0 21 -6 21 -20
0 -38 51 -57 176 -65 63 -4 114 -10 114 -14 0 -3 -314 -35 -697 -70 -384 -34
-716 -65 -738 -68 l-41 -5 -107 -249 c-71 -166 -107 -262 -107 -287 0 -25 34
-117 107 -288 l107 -252 45 -5 c25 -3 358 -34 739 -68 380 -35 692 -66 692
-70 0 -4 -51 -10 -114 -14 -124 -7 -176 -27 -176 -65 0 -12 -7 -20 -17 -20
-29 0 -1086 -91 -1110 -96 l-21 -4 0 -929 0 -930 51 -6 c53 -6 1070 -95 1088
-95 5 0 9 -13 9 -29 0 -17 6 -31 16 -35 27 -10 357 -38 391 -32 18 2 60 1 95
-5 35 -5 125 -6 202 -2 l138 6 -5 33 c-5 32 -5 33 39 40 l44 6 0 149 0 149 78
0 c52 -1 83 -5 96 -15 13 -10 44 -15 92 -15 41 0 87 -6 107 -15 24 -10 70 -15
134 -15 l98 0 33 -50 c29 -46 35 -50 71 -50 37 0 39 2 51 44 15 53 64 116 91
116 11 0 43 14 72 30 30 17 57 30 60 30 4 0 7 -15 7 -33 0 -26 6 -36 25 -45
l25 -12 0 -303 0 -303 48 -47 48 -47 105 0 106 0 18 -120 17 -120 811 2 811 3
13 85 c7 47 15 100 18 118 l6 32 107 0 108 0 42 43 42 43 0 307 0 307 25 10
c25 9 25 11 25 120 l0 110 30 0 30 0 0 -179 0 -179 30 -12 30 -12 0 -306 0
-306 42 -43 42 -43 107 0 c123 0 109 13 129 -125 6 -44 13 -88 16 -97 5 -17
52 -18 813 -18 l808 0 18 120 18 120 107 0 106 0 42 43 42 43 0 306 0 306 30
12 30 12 0 134 c0 149 -5 140 73 128 l37 -7 0 -280 0 -281 42 -43 42 -43 111
0 111 0 18 -125 19 -125 808 0 809 0 4 22 c3 13 10 57 16 98 6 41 13 87 16
103 l6 27 107 0 107 0 42 43 42 43 0 182 0 182 99 0 99 0 56 64 56 64 0 164 0
165 1148 6 c631 4 1582 7 2115 7 l967 0 0 -25 0 -25 275 0 275 0 0 25 0 25
1255 0 1255 0 0 -180 0 -180 845 0 845 0 88 -50 88 -50 320 0 320 0 49 50 49
50 133 0 133 0 0 185 0 185 570 0 c500 0 570 -2 570 -15 0 -13 33 -15 240 -15
l240 0 0 25 0 25 2660 0 c2653 0 2660 0 2660 -20 0 -17 7 -20 50 -20 l50 0 0
-44 0 -43 118 -16 118 -16 809 -420 810 -421 1478 0 1479 0 221 105 221 105
145 0 146 0 28 34 c15 19 27 42 27 50 0 14 35 16 300 16 165 0 300 2 300 5 0
8 -141 609 -143 612 -2 1 -45 23 -97 47 l-95 46 168 0 c137 0 167 -3 167 -14
0 -8 19 -28 42 -45 l42 -31 -52 0 -52 0 1 -32 c0 -18 17 -109 37 -203 l37
-169 45 -16 c44 -15 45 -17 75 -103 l30 -87 284 0 283 0 334 243 334 242 0 62
0 63 -402 2 -401 3 41 29 c24 16 42 37 42 47 0 18 24 19 730 19 l730 0 0 68 0
69 -1102 6 c-607 4 -2301 10 -3766 14 l-2662 6 0 24 0 23 -207 0 -208 0 -634
883 -633 882 56 3 c41 2 56 7 56 17 0 13 28 15 170 15 107 0 170 4 170 10 0 7
208 10 603 10 331 0 1274 3 2095 7 l1492 6 0 77 0 77 -1427 6 c-784 4 -1727 7
-2095 7 -439 0 -668 3 -668 10 0 6 -63 10 -170 10 -144 0 -170 2 -170 15 0 12
-13 15 -56 15 -31 0 -54 4 -52 8 2 5 287 403 633 885 l630 877 208 0 207 0 0
23 0 24 2598 6 c1428 4 3122 10 3765 14 l1167 6 0 69 0 68 -730 0 c-706 0
-730 1 -730 19 0 10 -18 31 -42 47 l-41 29 401 3 402 2 0 63 0 62 -334 242
-334 243 -283 0 -284 0 -31 -88 c-30 -85 -32 -87 -75 -102 l-44 -16 -37 -169
c-20 -94 -37 -185 -37 -202 l-1 -33 52 0 52 0 -42 -31 c-23 -17 -42 -37 -42
-45 0 -12 -30 -14 -167 -14 l-168 1 94 45 c52 24 96 46 97 47 3 3 144 603 144
612 0 3 -135 5 -300 5 -265 0 -300 2 -300 16 0 8 -12 31 -27 50 l-28 34 -146
0 -145 0 -221 105 -221 105 -1479 0 -1478 0 -808 -420 -809 -419 -109 -16
c-60 -8 -114 -15 -119 -15 -6 0 -10 -20 -10 -45 l0 -45 -50 0 c-43 0 -50 -3
-50 -20 0 -20 -7 -20 -2660 -20 l-2660 0 0 25 0 25 -240 0 c-207 0 -240 -2
-240 -15 0 -13 -70 -15 -570 -15 l-570 0 0 185 0 185 -133 0 -133 0 -49 50
-49 50 -321 0 -320 0 -89 -50 -89 -50 -843 0 -844 0 0 -180 0 -180 -1255 0
-1255 0 0 25 0 25 -275 0 -275 0 0 -25 0 -25 -838 0 c-461 0 -1413 3 -2115 7
l-1277 6 0 165 0 164 -56 64 -56 64 -99 0 -99 0 0 182 0 182 -42 43 -42 43
-107 0 -107 0 -6 28 c-3 15 -10 61 -16 102 -6 41 -13 85 -16 98 l-4 22 -809 0
-808 0 -19 -125 -18 -125 -111 0 -111 0 -42 -43 -42 -43 0 -281 0 -280 -37 -7
c-78 -12 -73 -21 -73 128 l0 134 -30 12 -30 12 0 306 0 306 -42 43 -42 43
-106 0 -107 0 -18 120 -18 120 -808 0 c-761 0 -808 -1 -813 -17z m25001 -725
c9 -21 -1 -32 -124 -136 -125 -107 -136 -114 -189 -121 -45 -6 -62 -15 -97
-48 -23 -22 -145 -136 -272 -253 -126 -117 -231 -217 -233 -222 -2 -4 -29 -8
-60 -7 l-57 1 36 11 c26 9 146 116 430 385 217 206 395 380 397 388 3 11 -27
14 -165 17 -141 2 -128 3 78 5 l246 2 10 -22z m1303 18 c0 -2 -71 -69 -158
-149 l-157 -144 -94 -17 -95 -18 -245 -231 c-135 -128 -247 -235 -249 -239 -2
-5 -29 -8 -60 -7 l-57 1 36 11 c26 9 146 116 430 385 217 206 395 380 397 388
3 11 -36 14 -225 17 -176 2 -148 3 125 5 193 1 352 0 352 -2z m395 -16 c52
-24 44 -24 -30 0 -34 11 -49 19 -35 19 14 0 43 -9 65 -19z m-2785 -64 c0 -2
-48 -40 -107 -84 -95 -70 -116 -81 -173 -91 -61 -12 -79 -22 -307 -187 -166
-120 -243 -181 -243 -194 0 -10 36 -52 81 -94 l81 -76 -232 0 -231 0 3 22 c5
34 1048 708 1095 708 18 0 33 -2 33 -4z m3097 -67 c26 -12 74 -24 106 -28 l58
-6 -66 -77 c-61 -69 -72 -77 -114 -83 -142 -21 -121 -5 -317 -236 -99 -116
-180 -215 -182 -220 -2 -5 -36 -9 -75 -8 -63 0 -68 2 -42 11 17 6 36 16 44 22
18 14 504 595 522 624 8 12 15 22 16 22 1 0 23 -10 50 -21z m-5177 -869 c0
-19 8 -20 184 -22 l184 -3 -633 -880 -632 -880 -58 -3 c-48 -3 -58 -6 -63 -24
-5 -20 -9 -21 -140 -14 -74 3 -1331 6 -2794 6 l-2658 0 0 25 c0 24 -3 25 -61
25 -33 0 -59 4 -57 8 2 5 282 397 623 870 l619 862 83 0 c82 0 83 0 83 25 l0
25 2660 0 c2643 0 2660 0 2660 -20z m-5800 -15 c0 -10 16 -15 63 -17 l63 -3
-622 -865 -621 -865 -67 -3 c-50 -2 -66 -6 -66 -17 0 -13 -199 -15 -1540 -15
l-1540 0 0 30 0 29 -69 3 -70 3 533 740 533 740 261 3 262 2 0 110 0 110 165
0 165 0 0 -110 0 -110 47 -60 46 -60 461 0 461 1 43 56 42 56 0 128 0 129 725
0 c628 0 725 -2 725 -15z m-7070 -20 c0 -23 3 -24 74 -27 l74 -3 -348 -485
c-192 -267 -355 -489 -363 -494 -14 -9 -1289 97 -1336 112 -18 5 -33 28 -61
92 l-37 85 -654 52 c-360 28 -706 52 -770 52 l-116 1 -6 30 -6 30 -326 0 -325
0 0 -30 c0 -20 -5 -30 -15 -30 -13 0 -15 23 -15 145 l0 145 -30 0 -30 0 0 75
0 75 30 0 30 0 0 95 0 95 798 3 c438 1 1390 3 2115 5 l1317 2 0 -25z m1740 -1
c0 -16 28 -67 72 -130 l71 -104 362 0 362 0 13 25 c8 14 50 49 94 77 83 53 76
51 314 93 l32 6 0 -90 0 -91 195 -2 195 -3 -533 -740 -534 -740 -76 -3 -77 -3
0 -29 0 -30 -720 0 -720 0 0 64 0 64 -105 80 c-95 72 -110 80 -162 86 -89 11
-93 13 -93 51 l0 33 -147 36 c-82 20 -161 36 -178 36 -25 0 -51 21 -161 131
l-131 130 -76 8 c-42 4 -79 9 -81 12 -3 3 155 230 352 505 l358 499 92 3 c90
3 92 3 92 27 l0 25 595 0 595 0 0 -26z m-4451 -803 c451 -36 616 -53 622 -62
4 -8 7 -14 6 -15 -2 -2 -1275 110 -1347 119 -19 2 -3 4 35 5 39 1 346 -21 684
-47z m-10059 -75 c0 -3 -9 -10 -20 -16 -19 -10 -20 -8 -20 31 l0 42 20 -26
c11 -14 20 -28 20 -31z m9761 -107 l1006 -93 67 -165 c68 -170 73 -187 56
-176 -5 3 -61 -11 -125 -31 l-115 -37 0 -48 0 -49 -110 0 -110 0 0 175 0 175
-945 0 -946 0 3 147 3 147 63 18 c34 10 62 24 62 30 0 7 15 9 43 5 23 -3 495
-47 1048 -98z m1764 -194 c281 -20 516 -39 523 -41 8 -2 -4 -27 -35 -69 l-47
-65 -448 0 c-420 0 -448 -1 -448 -17 0 -10 -27 42 -60 116 -33 73 -60 135 -60
137 0 2 15 -3 33 -11 22 -9 192 -25 542 -50z m905 -70 c41 -4 80 -11 85 -15 6
-5 9 -27 7 -49 l-4 -41 -165 0 c-129 0 -163 3 -157 13 5 6 23 34 42 60 33 46
36 48 76 43 22 -3 75 -8 116 -11z m12193 -764 c4 -16 15 -20 62 -23 l58 -3
632 -880 633 -880 -184 -3 c-176 -2 -184 -3 -184 -22 0 -20 -17 -20 -2660 -20
l-2660 0 0 25 c0 25 -1 25 -83 25 l-83 0 -619 862 c-341 474 -621 865 -623
870 -2 4 24 8 57 8 58 0 61 1 61 25 l0 25 2633 3 c1447 1 2705 3 2793 5 153 2
162 1 167 -17z m-9623 -41 l0 -29 77 -3 77 -3 533 -740 534 -740 -196 -3 -195
-2 0 -90 c0 -50 -1 -90 -2 -90 -2 0 -61 11 -133 23 -122 22 -135 27 -211 75
-44 29 -87 63 -94 77 l-13 25 -362 0 -361 0 -72 -102 c-47 -67 -72 -113 -72
-130 l0 -28 -595 0 -595 0 0 25 c0 24 -2 24 -92 27 l-91 3 -358 499 c-197 275
-356 502 -353 505 2 3 39 8 81 12 l76 8 131 130 c110 110 136 131 161 131 17
0 96 16 177 36 l147 36 3 36 3 36 75 11 c73 10 78 13 178 89 l102 79 0 63 0
64 720 0 720 0 0 -30z m3590 15 c0 -11 16 -15 66 -17 l67 -3 622 -865 621
-865 -63 -3 c-47 -2 -63 -7 -63 -17 0 -13 -97 -15 -725 -15 l-725 0 0 129 0
128 -42 56 -43 56 -461 1 -461 0 -46 -60 -47 -60 0 -110 0 -110 -165 0 -165 0
0 110 0 110 -261 2 -262 3 -532 740 -533 740 69 3 69 3 0 29 0 30 1540 0
c1341 0 1540 -2 1540 -15z m-7940 -213 l0 -48 115 -37 c63 -21 119 -35 125
-32 17 11 12 -6 -57 -175 l-67 -166 -1045 -97 c-709 -66 -1047 -93 -1051 -86
-4 5 -33 18 -66 28 l-59 17 -3 147 -3 147 946 0 945 0 0 175 0 175 110 0 110
0 0 -48z m869 -182 l447 0 47 -65 c31 -42 43 -67 35 -69 -7 -2 -242 -20 -523
-40 -361 -26 -520 -41 -543 -52 -19 -8 -32 -10 -30 -5 26 72 114 256 116 245
3 -12 69 -14 451 -14z m1003 -41 c2 -22 -1 -44 -7 -49 -5 -4 -44 -11 -85 -15
-41 -3 -94 -8 -116 -11 -40 -5 -43 -3 -76 43 -19 26 -37 54 -42 61 -6 9 28 12
157 12 l165 0 4 -41z m44 -794 l353 -490 -75 -3 c-71 -3 -74 -4 -74 -27 l0
-25 -793 0 c-437 0 -1388 3 -2115 7 l-1322 6 0 94 0 93 -30 0 -30 0 0 75 0 75
30 0 30 0 0 145 c0 122 2 145 15 145 10 0 15 -10 15 -30 l0 -30 325 0 326 0 6
30 6 30 96 0 c87 0 1377 95 1426 105 15 3 31 27 55 85 19 45 39 85 45 88 14 9
1238 120 1305 119 l54 -2 352 -490z m-12566 356 c0 -4 -9 -16 -20 -26 -20 -18
-20 -17 -20 19 0 34 2 36 20 26 11 -6 20 -14 20 -19z m10684 -5 c-4 -9 -26
-17 -57 -21 -160 -17 -1221 -95 -1272 -93 -43 2 1116 114 1317 127 11 1 15 -4
12 -13z m19618 -1120 c2 -8 84 -109 182 -225 128 -150 186 -212 205 -215 14
-3 56 -10 92 -16 65 -11 66 -12 134 -88 l69 -77 -60 -6 c-32 -4 -81 -16 -108
-28 -39 -17 -51 -19 -57 -9 -4 7 -123 153 -266 325 -197 238 -266 315 -292
325 l-34 13 29 6 c55 12 102 10 106 -5z m-3332 -72 c-44 -42 -80 -85 -80 -95
0 -12 80 -75 243 -192 227 -164 246 -176 307 -187 57 -11 79 -23 173 -92 59
-44 107 -82 107 -84 0 -2 -15 -4 -32 -4 -47 0 -1091 675 -1096 708 l-3 22 230
0 231 0 -80 -76z m922 68 c2 -6 223 -213 505 -474 46 -42 57 -48 97 -48 42 0
51 -6 184 -117 129 -109 139 -119 129 -140 l-10 -23 -246 2 c-206 2 -219 3
-78 5 140 3 168 6 165 18 -2 8 -180 182 -397 387 -283 269 -404 376 -430 385
l-36 11 57 1 c31 1 58 -3 60 -7z m1455 -224 c135 -128 252 -237 259 -241 8 -4
53 -15 101 -23 l87 -15 158 -146 c87 -80 158 -147 158 -149 0 -2 -159 -3 -352
-2 -273 2 -301 3 -125 5 192 3 228 6 225 18 -2 8 -180 182 -397 387 -283 269
-404 376 -430 385 l-36 11 53 1 53 1 246 -232z m1158 -558 c-22 -10 -51 -19
-65 -19 -16 0 -4 7 30 19 71 23 86 23 35 0z"/>
</g>
</svg>
