<?xml version="1.0" standalone="no"?>
<!DOCTYPE svg PUBLIC "-//W3C//DTD SVG 20010904//EN"
 "http://www.w3.org/TR/2001/REC-SVG-20010904/DTD/svg10.dtd">
<svg version="1.0" xmlns="http://www.w3.org/2000/svg"
   viewBox="0 0 4597.000000 1420.000000"
 preserveAspectRatio="xMidYMid meet">
<metadata>
Created by potrace 1.16, written by Peter Selinger 2001-2019
</metadata>
<g transform="translate(0.000000,1420.000000) scale(0.100000,-0.100000)"
fill="#000000" stroke="none">
<path d="M30760 14135 l0 -65 -621 0 -622 0 -245 -140 -245 -141 -496 -29
c-1225 -73 -2438 -166 -3316 -255 -768 -78 -907 -94 -1442 -175 -537 -81 -633
-99 -1038 -189 l-445 -100 -239 -98 -239 -98 86 -3 c78 -3 3355 71 3635 82
l117 4 0 -661 c0 -364 2 -683 6 -708 l6 -46 96 -47 95 -47 29 28 29 29 702
-132 c386 -73 718 -136 738 -139 l37 -6 72 104 72 105 60 4 59 3 52 -82 c29
-44 61 -84 72 -87 11 -3 41 -6 66 -6 l47 0 6 -44 c7 -43 8 -44 49 -50 23 -3
174 -6 334 -7 l293 -2 60 52 61 53 107 -7 107 -7 18 -41 c9 -22 15 -42 13 -45
-3 -2 -159 -12 -348 -22 -189 -10 -344 -19 -345 -19 -2 -1 -3 -193 -2 -428 0
-506 24 -1339 40 -1436 l11 -68 212 6 c196 6 1605 34 1733 35 l58 1 47 62 c25
34 49 73 53 87 6 24 8 25 88 22 l82 -4 128 -214 128 -214 134 0 135 0 0 -335
0 -335 -595 0 -595 0 0 -115 0 -115 -267 2 -266 3 -20 58 -19 57 -389 0 -389
0 0 145 c0 80 -1 145 -2 145 -2 1 -542 85 -1200 189 -659 103 -1201 191 -1205
195 -5 4 -10 190 -12 412 -3 393 -4 404 -23 404 -10 0 -1396 77 -3080 170
l-3060 170 -107 87 c-58 47 -111 90 -117 94 -5 5 -828 45 -1828 90 l-1818 82
-47 -47 -48 -48 -1099 47 -1099 47 -405 218 c-223 120 -712 387 -1088 592
l-683 374 -55 87 -56 87 -1361 1 -1362 1 -50 57 -50 57 -545 7 c-300 4 -767 7
-1038 7 l-494 0 4 70 3 70 -72 0 -73 0 0 183 c0 100 -3 192 -6 205 -5 16 -240
173 -883 589 l-876 568 -210 29 -210 29 -1732 4 -1733 3 0 -230 c0 -134 -4
-238 -10 -248 -5 -9 -19 -41 -30 -70 -19 -49 -20 -77 -20 -417 0 -346 1 -367
21 -422 12 -32 25 -62 30 -68 5 -5 9 -46 9 -92 l0 -83 -359 0 c-197 0 -378 -3
-403 -6 l-45 -6 -9 -1732 c-11 -2194 -11 -4038 0 -6232 l9 -1731 96 -7 c53 -3
234 -6 404 -6 l307 0 0 -83 c0 -46 -4 -87 -9 -92 -5 -6 -18 -36 -30 -68 -20
-55 -21 -76 -21 -422 0 -340 1 -368 20 -417 11 -29 25 -61 30 -70 6 -10 10
-114 10 -248 l0 -230 1675 0 1674 0 253 30 c139 16 260 31 268 33 9 2 410 259
892 571 640 413 877 572 882 589 3 12 6 106 6 210 l0 187 70 0 70 0 0 63 0 64
1033 7 1032 6 58 60 59 60 1358 0 1358 0 56 87 56 88 682 373 c376 206 865
472 1088 592 l405 218 1099 47 1098 47 48 -47 48 -47 1818 81 c1000 45 1823
86 1829 90 5 4 58 47 117 94 l106 87 3079 171 c1693 94 3079 172 3080 173 1 1
6 183 10 404 5 244 12 405 18 410 6 5 537 91 1180 191 644 100 1180 185 1193
188 22 5 22 8 22 149 l0 144 389 0 389 0 19 58 20 57 266 3 267 2 0 -115 0
-115 595 0 595 0 0 -335 0 -335 -135 0 -134 0 -128 -215 -128 -214 -82 -1
c-76 0 -82 2 -88 23 -4 12 -28 50 -54 84 l-46 63 -65 0 c-36 0 -486 9 -1000
20 -514 10 -935 18 -936 17 -1 -1 -9 -54 -18 -117 -10 -76 -19 -278 -26 -595
-9 -425 -14 -1214 -7 -1216 1 0 156 -8 345 -18 188 -10 345 -20 347 -23 3 -2
-3 -23 -12 -45 l-18 -41 -107 -7 -108 -7 -60 53 -61 53 -302 -3 c-166 -1 -316
-4 -334 -7 -29 -6 -33 -10 -39 -50 l-6 -44 -47 0 c-73 0 -83 -7 -136 -91 l-50
-79 -61 0 -61 0 -73 106 -72 106 -37 -7 c-20 -4 -345 -65 -723 -136 -378 -71
-695 -129 -704 -129 -10 0 -30 12 -45 26 l-26 25 -96 -47 -95 -47 -6 -46 c-4
-25 -6 -343 -6 -706 l0 -660 -172 3 c-95 3 -963 23 -1928 46 -965 23 -1756 42
-1757 41 -1 0 110 -47 246 -103 l248 -102 449 -100 c406 -91 506 -109 1039
-190 534 -81 670 -97 1440 -175 705 -71 1030 -98 1905 -160 580 -41 1246 -85
1480 -99 l425 -25 246 -140 246 -141 622 0 621 0 0 -65 0 -65 805 0 805 0 0
194 0 194 63 6 c34 3 108 8 165 12 l102 7 0 -38 0 -37 1178 6 c2881 17 4254
57 5432 161 556 49 659 61 1072 125 l457 71 256 83 255 83 -247 7 c-1983 54
-8102 227 -8230 232 l-173 6 0 -69 0 -70 -97 -6 c-54 -4 -128 -7 -165 -7 l-68
0 0 35 c0 19 -13 147 -30 285 -16 138 -30 284 -30 324 l0 73 570 328 570 327
0 159 0 159 40 0 40 0 0 75 0 75 78 0 79 0 6 337 c9 434 9 1971 1 2052 l-7 61
-813 0 -814 0 0 335 0 335 175 0 175 0 0 315 0 315 675 0 675 0 0 -90 0 -90
943 0 c518 0 1432 -5 2031 -11 872 -9 1090 -8 1097 2 4 7 20 59 35 117 15 57
32 106 38 107 6 2 90 9 186 14 96 6 194 14 218 17 l42 5 0 85 c0 46 1 85 3 85
1 1 157 11 347 24 l345 22 82 -44 c111 -59 163 -60 267 -3 l73 40 304 0 304 0
69 -40 c93 -54 151 -56 237 -5 l60 35 311 0 311 0 64 -35 c88 -49 150 -49 252
0 l73 35 325 7 c274 5 326 4 334 -8 5 -8 9 -46 9 -85 0 -39 3 -99 6 -133 l7
-61 76 0 c42 0 192 -5 334 -12 l257 -11 51 -44 51 -43 622 0 623 0 99 30 99
30 436 0 437 0 12 66 13 66 86 -7 c47 -4 104 -11 126 -15 38 -9 49 -4 209 78
l169 87 69 167 69 168 -69 167 -69 168 -168 87 c-164 84 -171 86 -215 78 -25
-5 -82 -12 -126 -15 l-81 -7 -13 66 -12 66 -437 0 -436 0 -99 30 -99 30 -625
0 -624 0 -49 -43 -49 -43 -263 -12 c-144 -7 -294 -12 -333 -12 l-71 0 -7 -61
c-3 -34 -6 -94 -6 -133 0 -39 -4 -77 -9 -85 -8 -12 -60 -13 -335 -7 l-325 6
-73 35 c-101 49 -163 48 -251 0 l-64 -35 -311 0 -311 0 -60 35 c-86 51 -144
49 -237 -5 l-69 -40 -304 0 -304 0 -72 40 c-62 34 -81 40 -131 40 -50 -1 -70
-7 -135 -43 l-77 -42 -348 21 c-192 12 -350 22 -351 23 -2 0 -3 39 -3 86 0 47
-3 85 -7 86 -5 0 -107 8 -228 17 l-219 17 -32 113 c-17 62 -34 115 -37 118 -3
3 -502 1 -1109 -5 -607 -6 -1520 -11 -2030 -11 l-928 0 0 -90 0 -90 -675 0
-675 0 0 315 0 315 -175 0 -175 0 0 335 0 335 814 0 813 0 7 61 c8 81 8 1618
-1 2052 l-6 337 -79 0 -78 0 0 75 0 75 -40 0 -40 0 0 159 0 159 -570 328 -570
327 0 73 c0 40 14 186 30 324 17 138 30 267 30 288 l0 37 117 -7 c65 -3 139
-7 166 -7 l47 -1 0 -70 c0 -51 4 -70 13 -70 7 0 162 5 343 10 181 6 2091 60
4244 120 2153 60 3945 111 3981 112 l67 3 -257 83 -257 83 -450 69 c-405 63
-510 75 -1069 124 -1184 105 -2550 146 -5422 162 l-1193 7 0 -38 0 -38 -102 7
c-57 4 -131 9 -165 12 l-63 6 0 194 0 194 -805 0 -805 0 0 -65z"/>
</g>
</svg>
