<?xml version="1.0" standalone="no"?>
<!DOCTYPE svg PUBLIC "-//W3C//DTD SVG 20010904//EN"
 "http://www.w3.org/TR/2001/REC-SVG-20010904/DTD/svg10.dtd">
<svg version="1.0" xmlns="http://www.w3.org/2000/svg"
   viewBox="0 0 4475.000000 1862.000000"
 preserveAspectRatio="xMidYMid meet">
<metadata>
Created by potrace 1.16, written by Peter Selinger 2001-2019
</metadata>
<g transform="translate(0.000000,1862.000000) scale(0.100000,-0.100000)"
fill="#000000" stroke="none">
<path d="M3580 18490 l0 -130 -151 0 -150 0 -297 -256 c-163 -142 -308 -267
-321 -280 l-24 -22 61 -84 60 -83 -514 -3 -514 -2 0 -400 0 -400 -58 0 -58 0
-71 -72 -71 -73 -83 -252 -84 -253 -356 0 -356 0 -154 -31 c-136 -28 -171 -39
-296 -98 l-143 -66 0 -613 0 -613 138 -66 c121 -58 155 -70 297 -99 154 -33
167 -34 387 -34 l228 0 0 -495 0 -495 891 -2 892 -3 -154 -68 -154 -67 -570 0
c-314 0 -580 -3 -592 -6 l-23 -6 0 -1067 0 -1066 -65 -244 -65 -243 0 -234 0
-234 -290 0 -290 0 0 -135 0 -135 -180 0 -180 0 0 -275 0 -275 180 0 c173 0
180 -1 180 -20 0 -18 -7 -20 -85 -20 l-85 0 0 -160 0 -160 85 0 c78 0 85 -2
85 -20 0 -19 -7 -20 -180 -20 l-180 0 0 -275 0 -275 180 0 180 0 0 -135 0
-135 290 0 290 0 0 -234 0 -234 65 -243 65 -244 0 -1066 0 -1067 23 -6 c12 -3
278 -6 592 -6 l570 0 154 -67 154 -68 -892 -3 -891 -2 0 -495 0 -495 -229 0
c-222 0 -234 -1 -388 -33 -139 -30 -174 -42 -296 -100 l-137 -66 0 -613 1
-613 142 -66 c126 -59 161 -71 297 -98 l153 -31 356 0 356 0 84 -253 83 -252
71 -73 71 -72 58 0 58 0 0 -400 0 -400 514 -2 514 -3 -60 -83 -61 -84 24 -22
c13 -13 158 -138 321 -280 l297 -256 150 0 151 0 0 -130 0 -130 235 0 235 0 0
130 0 130 449 0 449 0 6 22 c3 13 6 33 6 46 0 13 35 72 79 133 l78 110 343 0
343 0 92 -98 c100 -107 109 -120 119 -175 l7 -38 364 0 363 0 7 49 c5 39 21
69 81 152 l74 104 343 5 343 5 100 -107 c84 -91 101 -114 110 -155 l10 -48
1327 -3 1327 -2 0 -130 0 -130 235 0 235 0 0 130 0 130 1070 0 1070 0 0 -130
0 -130 155 0 155 0 0 130 0 130 224 0 225 0 420 279 420 278 -127 134 -128
133 -357 -246 -357 -247 -2679 -16 c-1474 -8 -2760 -20 -2858 -25 -288 -15
-244 -28 -357 105 l-97 115 -50 0 -49 0 0 110 0 110 79 0 79 0 224 255 223
254 367 1 367 0 222 -100 222 -100 1678 0 1677 0 801 491 801 491 0 429 0 429
464 0 464 0 123 46 c68 26 129 53 135 60 30 38 34 14 34 -218 l-1 -233 48
-177 48 -178 1203 0 1202 0 0 -33 c0 -23 8 -41 28 -60 l28 -27 240 0 240 0 27
28 c18 19 27 39 27 60 l0 32 513 1 512 0 138 179 137 178 0 231 0 231 55 0 55
0 0 -228 0 -228 45 -164 c25 -91 48 -173 51 -182 5 -17 71 -18 1210 -18 l1204
0 0 -38 c0 -27 7 -45 23 -60 23 -21 31 -22 268 -22 244 0 246 0 267 23 14 15
22 36 22 60 l0 37 513 0 514 0 136 176 137 177 0 233 0 234 60 0 60 0 0 -237
0 -237 47 -173 48 -173 1202 0 1203 0 0 -33 c0 -23 8 -41 28 -60 l28 -27 239
0 239 0 28 27 c20 19 28 37 28 60 l0 33 512 2 512 3 137 175 138 175 0 233 1
232 55 0 55 0 0 -145 0 -145 312 0 311 0 98 38 99 37 0 38 0 37 215 0 215 0 0
-150 0 -150 145 0 145 0 0 150 0 150 35 0 35 0 0 -220 0 -220 140 0 140 0 0
220 0 220 35 0 35 0 0 -150 0 -150 145 0 145 0 0 150 c0 143 1 150 20 150 20
0 20 -7 20 -360 l0 -360 -68 0 -68 0 -88 -114 -88 -115 -47 5 c-174 17 -413
24 -817 24 -310 0 -486 4 -532 12 l-69 12 -274 247 -274 247 -97 -131 -98
-132 23 -22 c12 -12 155 -137 317 -277 l295 -256 153 0 152 0 0 -135 0 -135
235 0 235 0 0 135 0 135 450 0 c352 0 451 3 455 13 2 6 6 28 9 47 4 21 36 77
79 138 l72 102 348 1 348 0 98 -107 c85 -92 100 -113 106 -150 l6 -44 364 0
c397 0 375 -3 375 59 0 17 27 63 78 134 l77 108 345 0 345 1 97 -104 c63 -66
100 -114 103 -133 4 -16 9 -38 11 -47 5 -17 77 -18 1330 -18 l1324 0 0 -135 0
-135 240 0 240 0 0 135 0 135 1065 0 1065 0 0 -135 0 -135 155 0 155 0 0 135
0 135 229 0 230 0 416 275 416 276 -126 134 -127 135 -27 -19 c-14 -10 -174
-121 -356 -247 l-330 -229 -2555 -12 c-2259 -11 -3077 -21 -3202 -39 -36 -5
-37 -4 -134 110 l-98 116 -53 0 -53 0 0 360 0 360 40 0 40 0 0 -150 0 -150
145 0 145 0 0 150 0 150 35 0 35 0 0 -220 0 -220 140 0 140 0 0 220 0 220 35
0 35 0 0 -150 0 -150 145 0 145 0 0 150 0 150 195 0 195 0 0 -38 0 -38 103
-37 c56 -21 108 -37 115 -37 9 0 12 -25 12 -90 l0 -90 1360 0 1360 0 2761 595
2761 595 49 41 c27 23 245 284 484 581 l435 540 0 784 0 784 -500 0 -500 0 0
125 0 125 -1550 0 -1549 0 -3 59 -3 58 -240 207 -240 206 -478 0 -479 0 -109
71 -109 71 0 87 1 86 85 54 c54 34 91 65 101 85 9 17 22 36 28 41 22 17 28 74
32 308 l4 227 244 0 245 0 0 95 0 95 -255 0 -255 0 0 385 0 385 35 0 35 0 0
215 0 215 220 0 220 0 0 95 0 95 -245 0 -244 0 -4 228 c-5 238 -11 300 -32
308 -7 3 -19 19 -26 35 -8 21 -41 50 -101 90 l-88 60 0 83 0 83 108 72 108 71
480 0 479 0 240 206 240 207 3 58 3 59 1549 0 1550 0 0 125 0 125 500 0 500 0
0 784 0 785 -437 542 c-241 298 -458 560 -483 581 l-46 38 -2761 595 -2762
595 -1360 0 -1361 0 0 -90 c0 -65 -3 -90 -12 -90 -7 0 -59 -16 -115 -37 l-103
-37 0 -38 0 -38 -195 0 -195 0 0 150 0 150 -145 0 -145 0 0 -150 0 -150 -35 0
-35 0 0 220 0 220 -140 0 -140 0 0 -220 0 -220 -35 0 -35 0 0 150 0 150 -145
0 -145 0 0 -150 0 -150 -40 0 -40 0 0 360 0 360 53 0 53 0 98 116 c97 114 98
115 134 110 117 -17 907 -27 2822 -36 1185 -6 2328 -10 2540 -10 l385 0 253
-175 c139 -96 302 -208 362 -250 l108 -75 127 135 127 135 -417 275 -416 275
-230 0 -229 0 0 135 0 135 -155 0 -155 0 0 -135 0 -135 -1065 0 -1065 0 0 135
0 135 -240 0 -240 0 0 -135 0 -135 -1324 0 c-1253 0 -1325 -1 -1330 -17 -2
-10 -7 -31 -11 -48 -3 -19 -40 -67 -103 -133 l-97 -104 -345 1 -345 0 -77 108
c-51 71 -78 117 -78 134 0 62 22 59 -375 59 l-364 0 -6 -44 c-6 -39 -20 -58
-107 -151 l-99 -106 -347 0 -347 1 -72 102 c-43 61 -75 117 -79 138 -3 19 -7
41 -9 48 -4 9 -103 12 -455 12 l-450 0 0 135 0 135 -235 0 -235 0 0 -135 0
-135 -152 0 -153 0 -295 -256 c-162 -140 -305 -265 -317 -277 l-22 -22 97
-132 97 -131 274 247 274 247 69 12 c46 8 222 12 534 12 404 0 587 5 811 24
l51 4 89 -114 88 -114 68 0 67 0 0 -360 c0 -353 0 -360 -20 -360 -19 0 -20 7
-20 150 l0 150 -145 0 -145 0 0 -150 0 -150 -35 0 -35 0 0 220 0 220 -140 0
-140 0 0 -220 0 -220 -35 0 -35 0 0 150 0 150 -145 0 -145 0 0 -150 0 -150
-215 0 -215 0 0 38 0 37 -98 38 -98 37 -312 0 -312 0 0 -95 0 -95 -55 0 -55 0
-1 183 0 182 -138 175 -137 175 -512 3 -512 2 0 33 c0 23 -8 41 -28 60 l-28
27 -239 0 -239 0 -28 -27 c-20 -19 -28 -37 -28 -60 l0 -33 -1203 0 -1202 0
-48 -173 -47 -173 0 -187 0 -187 -60 0 -60 0 0 184 0 183 -137 177 -136 176
-514 0 -513 0 0 38 c0 27 -7 45 -23 60 -23 21 -31 22 -268 22 -244 0 -246 0
-267 -23 -14 -15 -22 -36 -22 -60 l0 -37 -1204 0 c-1139 0 -1205 -1 -1210 -17
-3 -10 -26 -92 -51 -183 l-45 -164 0 -178 0 -178 -55 0 -55 0 0 181 0 181
-137 178 -138 179 -512 0 -513 1 0 32 c0 21 -9 41 -27 60 l-27 28 -241 0 -241
0 -27 -28 c-18 -19 -27 -39 -27 -60 l0 -32 -1202 0 -1203 0 -48 -178 -48 -177
1 -182 0 -183 -65 0 c-58 0 -65 -2 -65 -20 0 -11 -1 -20 -3 -20 -1 0 -38 14
-80 30 l-78 30 -465 0 -464 0 0 429 0 429 -801 491 -801 491 -1677 0 -1678 0
-223 -100 -222 -100 -367 0 -366 1 -223 254 -223 255 -80 0 -79 0 0 110 0 110
50 0 49 0 97 115 c90 108 98 115 133 115 20 0 119 -5 221 -10 102 -5 1390 -17
2863 -25 l2678 -16 356 -247 357 -246 127 134 128 133 -420 279 -420 278 -225
0 -224 0 0 130 0 130 -155 0 -155 0 0 -130 0 -130 -1070 0 -1070 0 0 130 0
130 -235 0 -235 0 0 -130 0 -130 -1327 -2 -1327 -3 -10 -47 c-9 -40 -27 -65
-110 -155 l-100 -108 -343 5 -343 5 -74 104 c-60 83 -76 113 -81 152 l-7 49
-363 0 -364 0 -7 -37 c-10 -55 -16 -65 -118 -174 l-93 -100 -343 0 -343 0 -78
110 c-44 61 -79 120 -79 133 0 13 -3 33 -6 46 l-6 22 -449 0 -449 0 0 130 0
130 -235 0 -235 0 0 -130z m1351 -517 c45 -60 88 -111 94 -115 5 -4 38 -8 73
-8 l62 0 0 -110 0 -110 -1112 0 c-1081 0 -1112 1 -1093 18 11 11 110 100 221
200 l200 180 83 16 c68 13 174 16 595 17 281 1 552 4 601 8 50 5 113 9 141 9
l51 2 84 -107z m1424 92 c39 0 120 4 180 8 l110 8 89 -116 89 -115 59 0 58 0
0 -110 0 -110 -550 0 -550 0 0 110 0 110 40 0 c45 0 44 -1 158 138 l77 93 85
-8 c47 -4 117 -8 155 -8z m26240 -1629 c110 0 216 3 235 7 35 6 35 6 124 -108
l89 -115 63 0 64 0 0 -360 c0 -353 0 -360 -20 -360 -19 0 -20 7 -20 150 l0
150 -145 0 -145 0 0 -150 0 -150 -35 0 -35 0 0 220 0 220 -145 0 -145 0 0
-220 0 -220 -30 0 -30 0 0 150 0 150 -145 0 -145 0 0 -150 0 -150 -35 0 -35 0
0 360 0 360 45 0 44 0 97 115 c89 106 98 114 122 108 15 -5 117 -8 227 -7z
m-14165 -326 c0 -6 -30 -10 -70 -10 -40 0 -70 4 -70 10 0 6 30 10 70 10 40 0
70 -4 70 -10z m4500 0 c0 -6 -28 -10 -65 -10 -37 0 -65 4 -65 10 0 6 28 10 65
10 37 0 65 -4 65 -10z m4510 0 c0 -6 -30 -10 -70 -10 -40 0 -70 4 -70 10 0 6
30 10 70 10 40 0 70 -4 70 -10z m-24210 -2685 l0 -55 -100 0 -100 0 0 -65 0
-65 -70 0 -70 0 0 33 c1 31 5 34 163 119 89 48 165 87 170 87 4 1 7 -24 7 -54z
m-1358 -199 l208 -62 -120 -39 -120 -39 0 -393 0 -393 -110 0 -110 0 0 500 0
500 23 -5 c12 -3 115 -34 229 -69z m-32 -1325 l0 -150 -52 -26 c-29 -14 -79
-52 -110 -83 l-58 -56 0 232 0 232 110 0 110 0 0 -149z m163 -687 c31 -10 57
-21 57 -25 0 -12 -116 -39 -170 -39 l-54 0 44 45 c25 25 49 44 55 41 5 -2 36
-12 68 -22z m7 -3763 c39 -11 59 -21 50 -25 -8 -3 -42 -15 -75 -26 l-59 -20
-46 45 -45 45 55 0 c30 0 84 -9 120 -19z m-235 -550 c22 -12 45 -21 52 -21 10
0 13 -37 13 -155 l0 -155 -110 0 -110 0 0 232 0 232 58 -56 c31 -31 75 -66 97
-77z m65 -974 l0 -393 120 -39 120 -39 -227 -68 c-126 -37 -229 -68 -230 -68
-2 0 -3 225 -3 500 l0 500 110 0 110 0 0 -393z m1190 -612 l0 -65 100 0 100 0
0 -55 c0 -30 -3 -55 -7 -55 -5 1 -80 40 -168 88 -152 83 -160 89 -163 120 l-3
32 70 0 71 0 0 -65z m29100 -2345 l0 -150 145 0 145 0 0 150 0 150 30 0 30 0
0 -220 0 -220 145 0 145 0 0 220 0 220 35 0 35 0 0 -150 0 -150 145 0 145 0 0
150 c0 143 1 150 20 150 20 0 20 -7 20 -360 l0 -360 -64 0 -63 0 -84 -107
c-46 -59 -86 -110 -89 -113 -3 -4 -70 -2 -150 4 -129 10 -220 8 -342 -7 -37
-5 -39 -4 -133 109 l-96 114 -44 0 -45 0 0 360 0 360 35 0 35 0 0 -150z
m-13700 -460 c0 -6 -30 -10 -70 -10 -40 0 -70 4 -70 10 0 6 30 10 70 10 40 0
70 -4 70 -10z m4500 0 c0 -6 -28 -10 -65 -10 -37 0 -65 4 -65 10 0 6 28 10 65
10 37 0 65 -4 65 -10z m4510 0 c0 -6 -30 -10 -70 -10 -40 0 -70 4 -70 10 0 6
30 10 70 10 40 0 70 -4 70 -10z m-22280 -1630 l0 -110 -62 0 c-35 0 -68 -4
-73 -8 -6 -4 -49 -56 -95 -116 l-85 -108 -70 7 c-38 3 -347 10 -685 14 -441 6
-629 12 -665 21 -44 11 -75 35 -250 193 -110 99 -209 189 -220 199 -19 17 13
18 1093 18 l1112 0 0 -110z m1780 0 l0 -110 -58 0 -59 0 -89 -115 -89 -116
-110 8 c-140 10 -228 10 -335 0 l-85 -8 -77 93 c-114 139 -113 138 -158 138
l-40 0 0 110 0 110 550 0 550 0 0 -110z"/>
</g>
</svg>
