<?xml version="1.0" standalone="no"?>
<!DOCTYPE svg PUBLIC "-//W3C//DTD SVG 20010904//EN"
 "http://www.w3.org/TR/2001/REC-SVG-20010904/DTD/svg10.dtd">
<svg version="1.0" xmlns="http://www.w3.org/2000/svg"
   viewBox="0 0 3814.000000 1642.000000"
 preserveAspectRatio="xMidYMid meet">
<metadata>
Created by potrace 1.16, written by Peter Selinger 2001-2019
</metadata>
<g transform="translate(0.000000,1642.000000) scale(0.100000,-0.100000)"
fill="#000000" stroke="none">
<path d="M10528 16184 c-161 -129 -298 -241 -305 -247 -6 -7 -186 -748 -398
-1647 -212 -899 -388 -1642 -391 -1651 -3 -9 -14 -19 -24 -22 -15 -4 -20 -14
-20 -41 l0 -36 540 0 540 0 0 -35 0 -35 -1005 0 -1005 0 0 40 c0 22 5 40 10
40 7 0 10 281 10 823 l0 824 -132 -5 -133 -4 -200 -105 c-110 -58 -201 -106
-202 -107 0 0 -66 -310 -145 -688 -123 -594 -145 -688 -160 -688 -12 0 -18 -8
-18 -25 l0 -25 415 0 415 0 0 -40 0 -40 -588 0 -588 0 -299 -240 c-165 -133
-402 -327 -527 -433 l-227 -192 0 -417 -1 -418 -360 0 -359 0 -3 -127 -3 -128
-190 -3 c-104 -2 -250 0 -322 3 l-133 7 0 64 0 64 -374 0 c-342 0 -375 -1
-393 -17 -11 -10 -37 -57 -58 -105 l-38 -88 -52 0 -53 0 -36 -86 c-20 -47 -36
-90 -36 -95 0 -5 10 -9 23 -9 12 0 32 -3 43 -6 l22 -6 -21 -49 c-21 -49 -21
-49 -67 -49 l-47 0 -36 -93 c-20 -51 -37 -96 -37 -100 0 -4 16 -7 35 -7 19 0
35 -2 35 -5 0 -2 -24 -60 -54 -127 l-55 -123 -227 -3 c-159 -2 -231 1 -240 9
-10 8 -14 35 -14 85 0 41 -3 74 -7 74 -5 0 -437 -31 -962 -69 -1094 -79 -997
-62 -981 -171 5 -36 10 -221 10 -412 l0 -348 -22 -4 c-13 -3 -232 -21 -488
-41 -256 -19 -480 -38 -497 -41 -27 -4 -33 -10 -33 -29 0 -21 -5 -25 -30 -25
l-30 0 0 -500 0 -500 30 0 c25 0 30 -4 30 -25 0 -20 6 -25 32 -29 36 -6 949
-76 986 -76 l22 0 0 -352 c0 -194 -5 -382 -10 -418 -16 -109 -107 -93 931
-165 497 -35 930 -66 961 -68 l57 -5 3 81 3 82 239 0 238 0 49 -109 c68 -153
67 -146 25 -146 -20 0 -36 -3 -36 -7 0 -4 17 -49 37 -100 l36 -93 47 0 c47 0
47 0 68 -50 l20 -49 -48 -3 -48 -3 40 -97 41 -98 52 0 52 0 39 -87 c21 -48 48
-95 58 -105 18 -17 46 -18 393 -18 l373 0 0 70 0 70 323 -2 322 -3 3 -127 3
-128 359 0 360 0 1 -417 0 -418 222 -187 c122 -102 360 -297 529 -432 l308
-246 585 0 585 0 0 -40 0 -40 -415 0 -415 0 0 -25 c0 -17 5 -25 18 -25 15 0
36 -88 156 -663 76 -364 140 -672 143 -684 4 -17 52 -47 205 -128 l200 -105
109 0 c66 0 109 -4 109 -10 0 -5 11 -10 25 -10 l25 0 0 825 c0 543 -3 825 -10
825 -5 0 -10 18 -10 40 l0 40 1005 0 1005 0 0 -35 0 -35 -540 0 -540 0 0 -36
c0 -27 5 -37 20 -41 13 -3 23 -19 29 -42 6 -20 182 -763 391 -1651 210 -888
385 -1618 388 -1621 4 -3 140 -112 302 -242 l295 -235 358 -4 357 -3 0 1937
c0 1931 0 1938 -20 1938 -16 0 -20 7 -20 35 0 24 5 35 14 35 8 0 28 8 45 18
l31 17 0 237 c0 233 0 237 -22 252 -20 14 -187 16 -1587 16 l-1564 0 -323 167
-324 168 0 97 0 98 476 2 476 3 202 312 201 312 908 0 c900 1 907 1 907 21 0
18 7 20 85 20 l85 0 0 125 0 125 210 0 210 0 0 -428 c0 -419 0 -429 20 -447
20 -18 45 -17 923 63 496 44 903 79 905 77 2 -2 7 -28 11 -59 4 -31 12 -61 17
-65 5 -5 62 -21 127 -37 65 -16 122 -31 127 -34 5 -3 23 -181 40 -395 17 -214
32 -390 34 -392 2 -3 32 1 66 7 49 9 65 9 70 -1 6 -9 341 22 1421 132 l1414
144 -1 92 c-1 106 -13 97 134 109 l82 6 0 -186 0 -186 -299 0 -298 0 5 -25 c2
-14 9 -25 16 -25 7 0 48 -252 116 -717 l106 -718 144 -111 145 -111 103 -5
102 -5 0 859 c0 565 -3 858 -10 858 -6 0 -10 71 -10 194 l0 193 77 7 c131 11
120 18 125 -74 3 -45 9 -85 14 -89 5 -5 982 94 2214 225 1213 128 2214 234
2225 234 18 0 20 7 20 88 l0 87 103 10 102 11 0 -188 0 -188 -295 0 -295 0 0
-25 c0 -16 6 -25 15 -25 8 0 15 -4 15 -9 0 -18 209 -1423 212 -1426 2 -1 70
-52 152 -113 l149 -112 62 0 c35 0 77 -3 94 -6 l31 -6 0 861 c0 567 -3 861
-10 861 -6 0 -10 71 -10 194 l0 194 43 5 c23 4 72 9 108 13 l66 6 6 -68 c8
-97 11 -103 55 -97 20 3 892 100 1937 217 l1900 212 0 77 0 76 35 5 c19 3 59
8 88 12 l52 6 0 -201 0 -201 -300 0 c-178 0 -300 -4 -300 -9 0 -5 8 -17 17
-26 13 -13 40 -175 119 -713 57 -384 104 -704 104 -713 0 -9 67 -67 153 -131
l153 -115 93 -5 94 -4 -4 1065 -4 1066 84 8 c45 5 85 7 86 5 2 -2 9 -35 15
-73 6 -38 12 -71 14 -72 1 -2 2515 299 5587 667 3071 369 5587 670 5591 670
15 0 -5 303 -21 328 -4 6 -419 -30 -1116 -98 -610 -59 -1115 -106 -1122 -103
-6 3 -14 23 -17 46 -11 81 -27 329 -23 334 3 2 49 6 103 9 55 3 140 10 189 15
50 4 288 26 530 48 242 22 441 40 443 40 1 1 2 23 2 50 l0 48 61 7 c116 12
116 12 123 -39 7 -44 8 -45 44 -45 20 0 67 3 105 7 l67 6 0 47 0 47 68 6 c120
12 122 11 122 -25 0 -63 -13 -62 339 -32 223 20 321 32 321 40 0 6 22 14 50
18 l50 7 -6 97 c-3 53 -7 103 -10 109 -2 8 -22 13 -54 13 -46 0 -50 2 -50 24
0 14 -4 27 -8 30 -4 2 -194 -9 -422 -25 -228 -16 -429 -29 -446 -29 l-31 0
-14 88 -14 87 -533 3 c-343 1 -532 6 -532 12 0 6 -57 10 -148 10 -82 0 -224 3
-315 7 l-167 6 0 99 0 98 48 1 c378 7 574 16 581 27 5 9 132 12 537 14 l529 3
15 85 15 85 390 -27 c215 -15 418 -27 453 -27 62 -1 62 -1 62 28 0 28 1 28 50
23 58 -5 58 -6 62 133 l3 90 -47 3 c-34 2 -48 7 -48 18 0 7 -3 14 -7 14 -5 0
-149 12 -322 26 -345 29 -331 30 -331 -35 l0 -34 -61 7 c-34 3 -77 6 -95 6
-34 0 -34 0 -34 49 l0 49 -87 7 c-49 4 -95 9 -105 11 -13 4 -17 -6 -23 -47
l-7 -52 -61 7 c-33 3 -73 6 -88 6 -28 0 -29 2 -29 50 0 48 -1 49 -32 54 -18 3
-199 19 -403 36 -203 17 -413 37 -465 45 -52 7 -157 17 -234 21 l-138 7 6 66
c3 36 8 107 11 156 8 126 13 152 31 159 9 3 505 -41 1102 -99 598 -58 1098
-104 1112 -103 30 4 36 33 45 209 l5 116 -47 7 c-27 3 -2525 303 -5553 666
-3028 363 -5524 663 -5547 666 l-41 6 -13 -77 -12 -76 -51 6 c-28 3 -67 8 -87
11 l-36 5 5 1066 5 1066 -24 -6 c-13 -4 -56 -7 -95 -7 l-70 0 -150 -112 -150
-112 -106 -718 c-80 -543 -110 -721 -122 -733 -9 -9 -16 -21 -16 -26 0 -5 122
-9 300 -9 l300 0 0 -201 c0 -186 -1 -200 -17 -195 -10 2 -50 8 -89 11 l-71 7
5 79 c4 66 2 79 -11 79 -8 0 -880 97 -1938 215 -1058 118 -1927 211 -1931 207
-5 -5 -11 -43 -14 -86 l-7 -78 -41 6 c-23 3 -71 8 -108 12 l-68 6 0 194 c0
123 4 194 10 194 7 0 10 293 10 859 l0 858 -97 -5 -98 -4 -147 -110 c-110 -83
-148 -117 -152 -137 -8 -38 -206 -1386 -206 -1399 0 -7 -7 -12 -15 -12 -9 0
-15 -9 -15 -25 l0 -25 295 0 295 0 0 -186 0 -186 -97 7 c-54 4 -101 9 -104 11
-3 1 -5 41 -5 88 l1 85 -45 6 c-25 3 -1026 109 -2224 235 -1419 150 -2183 227
-2189 221 -6 -6 -12 -47 -15 -92 l-5 -81 -71 7 c-39 3 -83 8 -98 11 l-28 6 0
194 c0 123 4 194 10 194 7 0 10 293 10 859 l0 858 -97 -5 -98 -4 -147 -110
c-81 -60 -149 -117 -152 -126 -3 -9 -51 -332 -107 -717 -58 -398 -107 -704
-114 -710 -6 -5 -14 -18 -18 -27 -6 -17 12 -18 293 -18 l300 0 0 -191 0 -191
-42 5 c-24 4 -73 9 -109 13 l-67 6 2 94 c2 52 0 94 -3 94 -3 0 -640 63 -1415
141 -1009 102 -1410 138 -1415 130 -5 -8 -24 -8 -70 0 -34 6 -64 9 -66 7 -3
-3 -65 -748 -65 -782 0 -2 -61 -19 -135 -37 l-135 -33 -5 -33 c-17 -111 -11
-101 -58 -96 -23 2 -429 40 -902 83 l-860 78 -22 -21 -23 -20 0 -429 0 -428
-210 0 -210 0 0 125 0 125 -85 0 c-78 0 -85 2 -85 20 0 20 -7 20 -907 20
l-908 1 -205 319 -205 320 -472 0 -473 0 0 93 0 94 319 166 320 167 1568 0
c1519 1 1569 1 1591 19 22 19 22 23 22 255 l0 235 -30 16 c-16 8 -36 15 -45
15 -11 0 -15 10 -15 35 0 28 4 35 20 35 20 0 20 7 20 1938 l0 1937 -354 3
-354 2 -294 -236z m842 -3679 l0 -35 -390 0 -390 0 0 35 0 35 390 0 390 0 0
-35z m24270 -3880 c267 -19 297 -23 199 -24 -64 0 -218 2 -342 6 -211 6 -227
7 -227 25 0 22 -27 22 370 -7z m428 -32 c-16 -2 -40 -2 -55 0 -16 2 -3 4 27 4
30 0 43 -2 28 -4z m-323 -788 c-176 -13 -355 -26 -397 -29 -74 -6 -78 -5 -78
14 0 18 7 20 58 21 31 1 165 5 297 8 422 12 449 9 120 -14z m-24375 -3890 l0
-35 -390 0 -390 0 0 35 0 35 390 0 390 0 0 -35z"/>
</g>
</svg>
