<?xml version="1.0" standalone="no"?>
<!DOCTYPE svg PUBLIC "-//W3C//DTD SVG 20010904//EN"
 "http://www.w3.org/TR/2001/REC-SVG-20010904/DTD/svg10.dtd">
<svg version="1.0" xmlns="http://www.w3.org/2000/svg"
   viewBox="0 0 4599.000000 3057.000000"
 preserveAspectRatio="xMidYMid meet">
<metadata>
Created by potrace 1.16, written by Peter Selinger 2001-2019
</metadata>
<g transform="translate(0.000000,3057.000000) scale(0.100000,-0.100000)"
fill="#000000" stroke="none">
<path d="M16352 30301 c-148 -259 -151 -266 -132 -281 20 -15 15 -24 -155
-319 -97 -167 -174 -305 -173 -306 2 -2 242 -144 533 -317 512 -303 537 -320
743 -482 116 -92 212 -170 212 -172 0 -3 -47 -140 -105 -305 -70 -201 -105
-315 -105 -343 l0 -43 334 -194 c205 -119 332 -198 327 -204 -5 -5 -189 -316
-411 -689 -380 -641 -402 -680 -384 -693 10 -8 1329 -802 2929 -1765 1601
-963 2917 -1756 2926 -1762 15 -10 -2 -44 -141 -281 l-159 -269 57 -36 c31
-20 702 -436 1490 -925 788 -489 1428 -892 1421 -895 -6 -4 4 -10 22 -14 26
-5 576 -335 614 -368 5 -4 -165 -8 -378 -8 l-387 0 -17 35 -17 35 -93 0 -93 0
0 30 0 30 -400 0 -400 0 0 -30 0 -30 -545 0 -545 0 0 30 0 30 -400 0 c-260 0
-400 -3 -400 -10 0 -7 -193 -10 -560 -10 -367 0 -560 3 -560 10 0 6 -29 10
-68 10 -66 0 -68 1 -151 60 l-84 60 -76 0 c-42 -1 -171 -5 -288 -10 l-212 -8
-174 -61 -174 -61 -371 0 c-241 0 -372 4 -372 10 0 7 -140 10 -400 10 -260 0
-400 -3 -400 -10 0 -7 -177 -10 -510 -10 -333 0 -510 3 -510 10 0 6 -138 10
-395 10 -257 0 -395 -4 -395 -10 0 -7 -238 -10 -694 -10 l-694 0 -8 123 -9
122 -1554 3 -1554 2 6 143 c4 78 7 220 7 315 l0 172 3505 0 3505 0 0 205 0
204 -3499 3 c-1925 2 -3502 6 -3505 9 -4 4 -9 297 -13 653 -6 581 -8 646 -22
646 -29 0 -395 31 -417 35 -20 5 -22 12 -29 173 l-7 169 -301 6 c-305 7 -577
9 -577 5 -1 -2 -20 -95 -44 -208 l-42 -205 -1309 0 -1308 0 -110 209 -110 209
-121 -6 c-67 -4 -776 -27 -1576 -52 -800 -26 -1465 -48 -1477 -51 -19 -3 -25
-20 -50 -126 l-29 -123 -181 -3 c-177 -2 -181 -3 -187 -25 -3 -12 -6 -191 -6
-397 0 -413 -19 -1552 -26 -1559 -3 -3 -59 -7 -126 -9 -68 -3 -136 -10 -153
-18 l-32 -13 -6 -233 c-4 -128 -7 -504 -7 -834 l0 -602 143 5 143 6 -11 -99
-10 -99 -138 -3 -137 -3 0 -197 0 -197 -105 -53 -105 -52 0 -257 0 -258 -97
-142 -97 -143 -151 0 c-84 0 -253 -3 -376 -6 l-224 -6 -121 198 -121 199 -219
6 c-120 4 -717 9 -1326 12 l-1108 6 0 -2319 0 -2318 743 4 c408 2 1004 7 1324
10 l583 6 122 199 123 199 166 0 c91 0 261 -3 377 -7 l210 -6 96 -139 96 -140
0 -231 0 -232 105 -53 105 -53 0 -225 0 -224 139 0 140 0 6 -47 c3 -27 7 -58
9 -70 3 -23 3 -23 -140 -23 l-144 0 0 -602 c0 -332 3 -708 7 -836 l6 -232 50
-15 c31 -9 92 -15 157 -15 l107 0 6 -258 c4 -141 10 -576 13 -967 3 -390 7
-720 10 -733 4 -22 6 -22 184 -22 l179 0 9 -32 c5 -18 19 -76 32 -129 l23 -97
281 -6 c155 -4 812 -13 1461 -21 649 -9 1242 -16 1317 -18 l137 -2 42 178 43
177 1375 -2 1375 -3 36 -145 c20 -80 40 -157 43 -172 l7 -28 328 0 c180 0 377
3 439 7 l111 6 7 138 8 139 26 0 c51 1 421 37 426 42 3 2 8 518 12 1146 l6
1142 1546 2 1546 3 9 122 8 121 2387 -3 2386 -2 158 -56 158 -57 242 -10 c361
-15 317 -21 427 58 l95 67 1017 -2 1018 -3 0 25 0 25 545 0 545 0 0 -25 0 -25
400 0 c349 0 400 2 400 15 0 13 43 15 325 15 l325 0 0 -63 0 -62 -1627 -1009
c-896 -555 -1631 -1012 -1635 -1015 -4 -3 64 -127 152 -276 l159 -269 -27 -16
c-15 -9 -1334 -803 -2932 -1764 -1598 -962 -2911 -1754 -2918 -1761 -11 -10
58 -133 395 -701 l410 -689 -71 -41 c-39 -22 -189 -110 -333 -193 l-263 -153
0 -43 c0 -29 35 -141 106 -345 58 -166 102 -306 97 -310 -4 -5 -101 -82 -216
-172 -198 -157 -229 -177 -737 -478 -292 -172 -530 -314 -530 -315 0 -1 79
-138 175 -305 170 -294 174 -303 155 -319 -19 -16 -16 -23 129 -276 82 -143
153 -261 158 -262 4 -2 350 165 768 370 l760 373 1613 950 1613 949 44 70 44
70 708 175 708 176 2580 1549 c1419 852 3140 1886 3825 2299 1221 735 1248
751 1390 804 80 29 146 55 148 57 2 2 -2 13 -8 25 -10 18 -7 25 18 48 19 18
32 42 36 69 7 41 1 51 -400 727 -225 377 -413 686 -419 686 -6 0 -43 -15 -82
-34 l-72 -35 -26 45 c-22 38 -29 43 -45 34 -16 -8 -22 -4 -41 30 -25 44 -37
48 -90 35 -24 -6 -30 1 -79 83 l-54 88 -190 -112 -191 -112 -208 -17 c-178
-15 -210 -16 -222 -4 -7 8 -133 218 -280 467 l-267 452 7 223 c3 122 8 259 11
304 l6 83 744 0 c733 0 743 0 754 -20 11 -20 20 -20 768 -19 416 1 816 4 889
8 l132 6 1439 1179 1439 1179 7 1008 c5 555 5 1463 0 2018 l-7 1010 -1223
1002 c-673 551 -1222 1004 -1219 1007 2 2 1469 1 3260 -3 l3256 -8 37 -73 36
-74 143 0 143 0 37 75 38 75 234 -2 234 -3 116 -481 116 -481 169 -266 168
-266 191 -166 192 -165 82 0 83 0 0 1098 0 1097 2763 168 c1519 93 2784 171
2812 175 31 5 -951 68 -2715 175 -1521 93 -2786 171 -2812 174 l-48 6 0 1093
0 1094 -87 0 -88 -1 -186 -162 -185 -162 -171 -270 -171 -270 -106 -445 c-59
-245 -111 -462 -117 -482 l-10 -38 -232 0 -233 0 -36 80 -36 80 -144 0 -144 0
-39 -80 -39 -80 -2916 0 c-1603 0 -3283 3 -3732 7 l-818 6 0 84 0 83 -545 0
-545 0 0 -84 c0 -98 2 -96 -106 -96 l-74 0 0 -95 0 -95 -390 0 -390 0 0 95 0
95 -99 0 -98 0 -193 -204 -192 -204 -55 -7 c-30 -4 -57 -4 -60 -2 -2 3 111
201 251 439 l256 434 218 -21 218 -20 181 -107 c99 -60 183 -108 186 -108 3 0
29 38 58 85 l52 85 47 -6 c41 -5 49 -4 54 12 4 11 15 30 25 44 16 20 22 22 34
12 12 -11 19 -5 41 32 l26 45 80 -36 c44 -20 82 -34 84 -32 2 2 187 312 410
688 l407 684 -7 44 c-6 44 -11 51 -47 76 -15 10 -16 18 -8 39 8 21 7 28 -7 33
-9 4 -73 27 -141 52 -115 42 -190 85 -1080 620 -2213 1332 -6668 4006 -6696
4019 -16 8 -329 88 -695 179 -366 91 -681 170 -700 175 -29 8 -43 22 -77 78
l-42 68 -1633 961 -1633 960 -610 298 c-335 164 -671 328 -745 365 l-135 68
-153 -267z m10311 -10162 c-10 -3 -73 -11 -140 -18 l-123 -12 -469 318 c-259
175 -471 322 -471 326 0 5 11 28 26 52 l25 44 585 -352 c423 -254 580 -353
567 -358z m292 -284 c83 -8 167 -18 188 -21 l37 -6 0 -100 0 -101 -42 5 c-34
4 -79 30 -208 117 -191 130 -195 133 -155 126 17 -3 98 -12 180 -20z m1242
-135 c27 0 44 -10 81 -45 l47 -45 -107 0 -106 0 -4 51 -3 51 29 -6 c16 -3 44
-6 63 -6z m-1332 -9192 c-27 -17 -343 -208 -702 -424 l-652 -392 -26 45 c-14
25 -25 48 -25 52 0 3 246 173 548 378 l547 372 180 0 180 1 -50 -32z"/>
</g>
</svg>
