<?xml version="1.0" standalone="no"?>
<!DOCTYPE svg PUBLIC "-//W3C//DTD SVG 20010904//EN"
 "http://www.w3.org/TR/2001/REC-SVG-20010904/DTD/svg10.dtd">
<svg version="1.0" xmlns="http://www.w3.org/2000/svg"
   viewBox="0 0 4696.000000 1593.000000"
 preserveAspectRatio="xMidYMid meet">
<metadata>
Created by potrace 1.16, written by Peter Selinger 2001-2019
</metadata>
<g transform="translate(0.000000,1593.000000) scale(0.100000,-0.100000)"
fill="#000000" stroke="none">
<path d="M18827 15892 l-57 -37 0 -207 0 -207 -55 -15 c-30 -9 -79 -23 -109
-31 l-54 -16 -15 -67 c-8 -37 -34 -155 -58 -262 l-43 -196 -216 -111 -215
-111 -3 -1150 -2 -1151 47 -32 c27 -18 50 -33 52 -35 1 -1 -12 -41 -29 -88
l-33 -86 -301 0 -301 0 -683 -137 -684 -136 -118 -91 -119 -91 -1 -215 0 -215
-303 -329 -302 -328 -720 -304 -720 -305 -345 -55 -345 -56 -135 -76 c-109
-61 -177 -110 -352 -254 l-217 -178 -266 0 -266 0 -379 161 -379 160 -148 24
c-148 24 -149 24 -329 112 l-180 88 -88 97 c-147 163 -132 156 -537 259 l-350
89 -1867 -2 -1867 -3 -128 -64 c-70 -35 -138 -71 -150 -81 -12 -10 -69 -90
-126 -179 -88 -136 -118 -174 -194 -244 l-91 -82 -385 -21 -386 -22 -534 -253
-534 -254 -21 -58 c-14 -41 -26 -59 -41 -62 -11 -2 -166 -21 -344 -40 l-324
-36 -206 -140 -206 -139 -445 0 -445 0 -288 48 -288 49 -85 -17 -86 -18 -151
-158 c-84 -88 -180 -189 -214 -225 l-63 -66 90 -64 90 -64 -3 -154 -2 -155
-80 -57 c-44 -32 -80 -64 -80 -72 0 -8 92 -111 204 -228 l205 -214 90 -19 91
-19 307 52 307 51 418 0 418 0 215 -144 215 -144 335 -37 c184 -20 338 -39
341 -41 3 -2 16 -29 27 -61 l21 -58 533 -252 533 -252 385 -22 385 -21 86 -77
c73 -65 102 -101 199 -249 l113 -172 86 -48 c47 -26 120 -62 161 -81 l75 -33
1864 6 1864 6 340 86 c393 100 382 94 522 255 l80 91 190 93 190 92 142 22
142 22 383 163 384 162 265 -4 266 -4 210 -173 c165 -135 240 -189 348 -250
l137 -78 351 -58 352 -58 715 -303 715 -304 56 -59 c31 -33 167 -181 303 -329
l246 -268 0 -214 0 -213 111 -86 c60 -47 120 -90 132 -95 12 -5 317 -68 677
-140 l655 -130 315 0 315 0 29 -78 c16 -42 31 -82 33 -89 3 -7 -18 -26 -46
-43 l-51 -32 0 -1153 0 -1153 218 -111 217 -111 58 -262 c32 -144 59 -263 60
-263 1 -1 49 -15 107 -31 l105 -30 3 -209 3 -210 53 -32 c30 -18 56 -33 59
-33 3 0 55 89 116 198 109 194 115 202 376 517 234 283 282 346 405 541 146
232 159 256 194 394 l22 85 115 3 115 3 39 79 c21 44 46 82 54 84 9 3 108 25
221 50 162 36 257 64 452 135 l247 89 357 284 356 283 534 635 534 635 466
678 466 677 98 0 99 0 32 -86 33 -86 91 6 c49 4 245 13 435 21 190 8 382 18
428 21 l82 6 17 59 16 59 1013 0 1013 0 1234 180 1234 180 419 120 c230 67
427 123 437 126 15 5 17 22 17 163 l0 158 132 104 c72 57 139 108 147 114 35
21 199 23 746 8 314 -8 571 -16 572 -17 0 0 37 -138 81 -304 44 -167 82 -305
84 -306 2 -2 102 -67 222 -146 l220 -143 915 -187 916 -186 3 -56 3 -56 -396
-97 -395 -97 0 -563 0 -563 393 -96 394 -97 384 -15 384 -15 395 51 395 51
425 115 c234 63 432 117 440 120 9 2 33 26 53 53 l37 48 0 348 0 348 -37 48
c-30 39 -47 51 -87 63 -88 25 -803 216 -810 216 -3 0 -6 53 -6 118 l0 119 523
131 522 130 1525 36 c839 20 1558 37 1599 39 l74 2 55 -135 c31 -74 57 -137
59 -139 1 -2 120 15 263 38 l261 42 483 189 483 189 304 187 c167 102 318 192
334 200 17 7 363 86 770 174 l740 162 340 111 340 111 116 84 c115 84 118 86
273 132 l156 47 58 -93 c48 -79 63 -95 97 -108 l41 -16 125 54 126 54 124 -14
c139 -16 243 -12 390 16 l95 18 121 124 c140 144 303 320 303 328 0 3 -18 19
-39 36 l-40 30 38 45 c48 57 51 94 11 128 l-30 26 25 90 c21 77 25 111 25 235
0 122 -4 159 -24 235 l-25 90 28 30 c40 42 36 85 -12 133 l-37 37 42 36 42 36
-69 74 c-38 41 -133 141 -211 223 l-143 148 -68 15 c-163 35 -267 41 -413 25
l-137 -16 -123 53 -123 53 -41 -16 c-36 -14 -49 -28 -96 -106 -30 -49 -59 -89
-65 -90 -5 0 -77 20 -158 45 -144 43 -151 46 -266 129 l-117 86 -335 109 -334
110 -758 166 -759 166 -320 196 -321 196 -481 189 -481 189 -263 42 -263 43
-17 -40 c-10 -23 -36 -85 -58 -138 l-39 -98 -80 0 c-44 0 -773 18 -1620 40
l-1540 40 -500 128 -500 127 -3 117 c-2 104 -1 117 15 122 10 3 205 55 433
117 228 61 415 111 416 112 0 1 17 23 37 48 l37 46 0 350 0 349 -37 50 -37 51
-436 116 -435 117 -390 51 -390 51 -385 -12 -385 -13 -365 -89 c-201 -49 -382
-93 -402 -99 l-38 -10 0 -562 0 -563 361 -88 c198 -48 376 -92 395 -97 33 -10
34 -11 34 -64 0 -43 -4 -55 -17 -59 -10 -2 -423 -86 -918 -187 l-900 -182
-215 -140 c-118 -77 -220 -146 -226 -153 -6 -7 -45 -147 -88 -312 l-78 -299
-522 -14 c-517 -14 -680 -14 -757 -1 -30 5 -73 34 -179 117 l-139 110 -3 160
-3 159 -430 124 -430 123 -1260 184 -1260 185 -990 0 -990 0 -20 58 -20 57
-435 22 c-239 12 -472 22 -517 22 l-81 1 -30 -77 -29 -78 -104 -2 -104 -3
-458 668 -458 669 -535 637 -536 637 -358 287 -359 287 -253 92 c-215 79 -285
100 -468 138 -117 25 -215 47 -216 48 -1 1 -20 39 -43 85 l-41 82 -113 0 -113
0 -18 78 c-29 124 -56 179 -202 409 -121 192 -168 254 -396 528 -143 170 -277
339 -297 375 -21 36 -74 129 -118 207 l-79 142 -57 -37z m2248 -3355 l190 -42
32 -125 c18 -69 71 -272 117 -453 l84 -327 -58 50 -58 50 -581 0 -581 0 0 186
0 185 248 278 247 277 85 -18 c47 -11 171 -38 275 -61z m-1185 -697 l0 -150
-235 0 c-143 0 -235 4 -235 10 0 5 48 72 108 150 l107 140 128 0 127 0 0 -150z
m1538 -7777 c-37 -148 -89 -350 -114 -450 -34 -134 -51 -184 -63 -187 -9 -3
-132 -30 -274 -62 l-259 -57 -23 24 c-13 13 -125 138 -249 278 l-226 253 0
189 0 189 586 0 586 0 51 45 c29 25 52 45 53 45 1 0 -30 -120 -68 -267z
m-1538 22 l0 -155 -127 0 -128 1 -105 138 c-58 76 -106 146 -108 155 -3 14 21
16 232 16 l236 0 0 -155z"/>
</g>
</svg>
