<?xml version="1.0" standalone="no"?>
<!DOCTYPE svg PUBLIC "-//W3C//DTD SVG 20010904//EN"
 "http://www.w3.org/TR/2001/REC-SVG-20010904/DTD/svg10.dtd">
<svg version="1.0" xmlns="http://www.w3.org/2000/svg"
   viewBox="0 0 4442.000000 2862.000000"
 preserveAspectRatio="xMidYMid meet">
<metadata>
Created by potrace 1.16, written by Peter Selinger 2001-2019
</metadata>
<g transform="translate(0.000000,2862.000000) scale(0.100000,-0.100000)"
fill="#000000" stroke="none">
<path d="M17233 28327 l-263 -292 0 -98 0 -98 -59 45 -59 46 -256 0 -256 0 0
-975 0 -975 253 0 252 -1 62 68 62 68 1 -975 c0 -536 4 -980 8 -987 4 -6 6
-126 4 -267 l-3 -256 -177 0 -177 0 -172 -252 -173 -252 0 -367 c0 -201 3
-750 7 -1220 l6 -854 419 -305 c231 -168 433 -309 449 -315 l29 -9 0 -243 0
-243 -497 0 -498 0 -92 -106 -93 -105 0 -180 0 -180 -32 6 c-18 4 -143 28
-278 53 l-245 47 -3 605 -2 605 -205 205 -205 205 -2652 -3 -2653 -3 -1715
-551 c-943 -303 -1736 -557 -1761 -564 -46 -14 -47 -16 -89 -107 l-43 -94
-216 -6 c-119 -4 -219 -3 -222 1 -4 4 -76 166 -160 360 l-153 352 -102 0 -102
0 -22 123 c-12 67 -24 129 -26 139 -3 9 -42 37 -87 63 -81 46 -85 47 -243 67
-161 20 -162 20 -316 0 -151 -19 -156 -20 -236 -66 -44 -26 -83 -55 -86 -64
-2 -9 -14 -72 -27 -139 l-23 -123 -167 0 -167 0 -10 48 c-6 26 -18 91 -28 144
l-17 98 -81 47 c-79 46 -84 47 -241 68 -159 20 -161 20 -315 2 -153 -18 -156
-19 -240 -66 l-85 -48 -30 -146 -30 -147 -116 0 -116 0 -25 -57 c-14 -32 -72
-158 -128 -280 l-102 -223 -478 0 -478 0 -71 -95 -71 -94 0 -225 0 -225 -47
-14 c-27 -8 -121 -33 -210 -57 l-163 -43 0 -907 0 -907 157 -42 c87 -23 182
-49 211 -57 l52 -15 1 -112 0 -112 71 -57 70 -58 129 0 129 0 0 -519 0 -518
51 -7 50 -7 -3 -51 -3 -51 -162 -75 c-143 -66 -163 -78 -163 -99 0 -22 -3 -23
-80 -23 l-80 0 0 178 0 178 -43 42 -42 42 -510 -100 c-281 -55 -513 -100 -518
-100 -4 0 -6 -498 -5 -1107 l3 -1107 515 -103 515 -104 42 48 43 47 0 178 0
178 80 0 80 0 0 -28 c0 -27 8 -33 163 -104 l162 -75 3 -51 3 -51 -50 -7 -51
-7 0 -518 0 -519 -129 0 -129 0 -70 -57 -71 -58 0 -112 -1 -112 -52 -15 c-29
-8 -124 -34 -211 -57 l-157 -42 2 -905 3 -906 208 -55 207 -54 0 -227 0 -227
72 -96 73 -96 479 -3 479 -3 123 -270 123 -270 119 -3 118 -3 28 -147 27 -147
86 -49 c84 -48 88 -49 242 -68 157 -20 158 -20 313 0 154 19 156 20 239 68
l83 49 30 148 29 147 166 -2 166 -3 27 -135 c14 -74 27 -138 27 -142 1 -3 38
-27 83 -53 80 -47 85 -48 236 -67 154 -20 155 -20 316 0 158 20 162 21 243 67
45 26 84 54 87 63 2 10 15 74 27 144 l22 128 103 0 102 0 152 350 c85 193 157
353 162 356 5 3 105 3 222 -1 l214 -8 43 -91 44 -91 1758 -566 1758 -567 2655
-3 2654 -3 205 204 205 205 0 606 0 607 264 51 c145 28 271 51 280 51 14 0 16
-20 16 -180 l0 -179 93 -105 92 -106 498 0 497 0 0 -243 0 -243 -29 -9 c-16
-6 -218 -147 -449 -315 l-419 -305 -6 -845 c-4 -465 -7 -1014 -7 -1220 l0
-376 173 -252 172 -252 178 0 177 0 2 -247 c0 -137 0 -255 -2 -263 -2 -8 -7
-455 -10 -993 l-5 -978 -60 71 -59 70 -253 0 -253 0 0 -980 0 -980 256 0 255
0 57 46 57 47 5 -99 5 -99 260 -292 260 -292 623 -1 c342 0 622 2 622 5 0 17
64 291 69 296 3 4 139 24 302 45 l295 37 73 66 72 66 96 505 c52 278 97 507
100 510 2 2 684 16 1516 31 832 15 1513 28 1515 28 2 1 2 20 0 44 l-3 42 -95
6 c-52 4 -538 10 -1080 14 -542 4 -1155 10 -1364 14 l-378 6 91 74 91 73 0
779 0 779 259 0 258 0 947 1026 946 1027 0 96 c0 53 -9 698 -19 1434 l-19
1338 -47 55 c-26 30 -45 58 -41 61 3 3 394 44 868 90 l863 83 272 -10 273 -10
205 -115 c113 -63 211 -115 219 -115 17 0 16 6 66 -315 22 -143 42 -270 45
-282 l5 -23 1339 0 1338 0 28 178 c112 713 132 832 137 838 4 3 1159 162 2567
353 2397 325 2563 349 2593 371 18 13 162 126 320 252 l288 228 869 0 869 0
167 175 168 175 51 -54 c30 -32 100 -84 173 -129 l123 -76 814 -12 815 -12 63
66 63 66 844 30 844 31 136 59 136 58 1900 -18 c1045 -10 2065 -19 2268 -21
l367 -3 0 112 0 111 -112 6 c-139 8 -4097 136 -4188 136 l-65 0 -61 78 -60 77
-500 184 c-274 101 -500 185 -500 185 -1 1 10 32 25 70 l26 69 175 59 175 58
465 0 466 0 488 433 488 432 81 11 82 11 457 316 c251 173 513 347 582 387 77
45 126 79 127 89 0 9 87 75 209 159 l209 143 3 437 c2 240 2 633 0 872 l-3
435 -67 44 c-187 122 -345 237 -352 256 -5 13 -58 50 -137 95 -70 41 -330 214
-578 386 l-450 311 -85 12 c-64 8 -90 17 -110 35 -14 12 -233 208 -487 435
l-462 411 -478 0 -478 0 -159 53 -159 53 -27 70 -26 69 502 189 503 188 58 74
58 74 70 0 c38 0 1006 32 2150 70 1144 38 2095 70 2113 70 l32 0 0 116 0 117
-537 -7 c-296 -4 -1318 -13 -2271 -22 l-1732 -16 -134 56 -134 56 -848 34
-849 34 -55 62 -56 62 -744 -6 c-410 -4 -780 -9 -822 -12 -75 -6 -81 -8 -201
-84 -68 -42 -143 -98 -167 -124 -23 -25 -46 -46 -50 -46 -5 0 -82 79 -171 175
l-164 175 -873 0 -873 0 -307 243 c-169 134 -312 246 -318 250 -7 4 -1163 162
-2570 352 -1406 190 -2560 347 -2562 350 -5 5 -162 986 -162 1013 0 9 -275 12
-1340 12 l-1340 0 -5 -22 c-2 -13 -23 -142 -45 -288 -51 -329 -49 -320 -66
-320 -8 0 -108 -51 -222 -114 l-207 -114 -268 -8 -268 -9 -582 56 c-320 31
-713 69 -874 84 l-291 28 48 58 48 57 6 214 c3 117 13 761 22 1431 l15 1219
-33 39 c-18 21 -442 484 -943 1028 l-910 990 -262 0 -263 1 0 778 0 779 -91
76 -91 77 38 0 c22 0 676 7 1454 16 1046 12 1417 19 1422 27 4 7 8 29 8 50 l0
37 -67 0 c-108 0 -2967 51 -2969 53 -1 1 -45 230 -97 509 l-96 507 -38 34
c-114 102 -78 90 -383 131 -151 20 -287 39 -301 42 -22 4 -27 13 -38 67 -7 34
-22 101 -33 150 l-20 87 -621 0 -622 -1 -262 -292z m2497 -8461 l0 -184 -75
-56 -74 -56 -211 0 -210 0 0 233 c0 129 3 237 7 240 3 4 132 7 285 7 l278 0 0
-184z m-4210 -2501 c0 -45 0 -45 -36 -45 -35 0 -35 1 -32 37 3 33 7 39 33 44
17 4 31 7 33 8 1 0 2 -19 2 -44z m2 -6110 c3 -43 2 -44 -22 -39 -47 10 -50 13
-50 49 0 33 2 35 34 35 33 0 34 -1 38 -45z m4136 -2257 l71 -53 1 -188 0 -187
-282 2 -283 3 -3 238 -2 237 213 0 213 0 72 -52z"/>
</g>
</svg>
