<?xml version="1.0" standalone="no"?>
<!DOCTYPE svg PUBLIC "-//W3C//DTD SVG 20010904//EN"
 "http://www.w3.org/TR/2001/REC-SVG-20010904/DTD/svg10.dtd">
<svg version="1.0" xmlns="http://www.w3.org/2000/svg"
   viewBox="0 0 4172.000000 1460.000000"
 preserveAspectRatio="xMidYMid meet">
<metadata>
Created by potrace 1.16, written by Peter Selinger 2001-2019
</metadata>
<g transform="translate(0.000000,1460.000000) scale(0.100000,-0.100000)"
fill="#000000" stroke="none">
<path d="M19205 14568 c-256 -27 -264 -29 -505 -98 l-245 -70 -1835 -175
-1835 -175 -810 -35 c-445 -19 -990 -41 -1210 -50 -220 -8 -429 -17 -465 -20
-99 -8 -1697 -72 -1840 -74 -69 -1 -577 -17 -1129 -36 -770 -27 -1041 -40
-1160 -55 -121 -15 -514 -40 -630 -40 -10 0 -35 -14 -56 -30 -45 -35 -67 -35
-75 0 -4 14 -13 24 -21 24 -44 -4 -1137 -338 -1150 -352 -38 -39 -263 -401
-280 -451 -17 -47 -19 -86 -19 -306 l0 -252 -77 -7 c-42 -3 -117 -6 -167 -6
-92 0 -452 -26 -493 -35 -14 -3 -23 -15 -27 -32 -3 -16 -8 -180 -12 -365 l-6
-338 -309 0 -309 0 -2 -367 c0 -203 -1 -438 -2 -523 l-1 -155 -2213 -515
c-1468 -342 -2216 -521 -2223 -530 -5 -8 -9 -149 -9 -312 l0 -297 -46 -218
-47 -218 12 -210 c15 -276 15 -1614 0 -1890 l-12 -210 47 -218 46 -218 0 -297
c0 -163 4 -303 9 -311 6 -10 768 -192 2223 -530 l2213 -516 1 -155 c1 -85 2
-320 2 -522 l2 -368 309 0 309 0 6 -337 c4 -186 9 -350 12 -366 4 -17 13 -29
27 -32 40 -9 411 -35 507 -35 52 0 125 -3 163 -7 l67 -6 0 -252 c0 -220 2
-259 19 -306 17 -50 243 -413 280 -450 13 -14 1108 -349 1150 -353 8 0 17 10
21 24 8 35 30 35 75 0 21 -16 49 -30 62 -30 121 0 499 -24 623 -40 120 -15
384 -28 1165 -55 556 -19 1066 -35 1135 -36 138 -1 1727 -65 1830 -74 36 -3
247 -12 470 -20 223 -9 767 -31 1210 -50 l805 -35 1835 -175 1835 -175 245
-70 c243 -70 247 -70 510 -98 l265 -27 253 17 c203 13 278 22 385 47 99 23
185 34 347 46 365 26 11461 864 11522 870 l57 6 21 -41 c17 -33 26 -40 49 -40
16 0 31 6 35 15 6 17 76 21 76 4 0 -7 14 -8 43 -4 28 5 69 26 122 64 l80 57
554 77 c318 45 566 84 582 93 28 14 49 42 49 65 0 12 -110 11 -863 -7 -248 -6
-259 -6 -255 12 4 24 -12 21 586 95 l513 64 13 45 c11 38 8 104 -6 114 -1 1
-212 22 -468 45 -256 24 -478 46 -493 50 -26 6 -34 20 -77 124 l-49 118 60
157 c42 111 83 249 138 469 43 172 76 313 73 313 -7 0 -862 160 -888 166 -12
3 -24 18 -30 37 -9 31 -12 32 -77 41 -68 8 -69 9 -89 52 -16 31 -29 44 -47 47
-14 2 665 5 1509 6 1330 1 1709 6 2835 30 l1301 28 779 470 c429 258 906 547
1060 640 l280 171 454 23 454 24 50 133 c27 73 55 131 60 129 6 -2 22 -36 35
-75 13 -40 27 -72 30 -72 4 1 39 41 77 91 39 50 75 97 81 104 6 8 232 79 504
159 271 80 495 147 497 149 5 6 22 251 17 256 -2 3 -223 -4 -490 -14 l-486
-18 -116 117 -117 117 -55 -5 c-30 -3 -85 -8 -122 -12 -48 -4 -68 -10 -68 -20
0 -10 -14 -14 -47 -14 -62 0 -1065 58 -1068 62 -2 2 39 40 90 86 l93 82 6 203
c3 111 8 369 11 574 l5 371 -143 48 -144 47 0 187 0 187 144 47 143 48 -5 371
c-3 205 -8 463 -11 575 l-6 203 -93 82 c-51 45 -91 83 -90 85 3 4 1004 62
1068 62 34 0 47 -4 47 -14 0 -11 20 -16 78 -21 42 -3 97 -8 122 -11 l45 -5
117 117 117 118 485 -19 c268 -10 488 -16 490 -14 5 5 -12 250 -18 256 -2 2
-226 69 -497 149 -271 80 -497 151 -503 159 -89 116 -152 194 -158 195 -3 0
-17 -32 -30 -72 -13 -39 -29 -73 -35 -75 -5 -2 -32 54 -58 124 -26 70 -50 131
-54 134 -3 4 -208 17 -456 29 l-450 22 -275 168 c-151 92 -628 380 -1060 640
l-784 473 -1291 28 c-1116 24 -1498 28 -2835 30 -850 1 -1533 4 -1519 6 18 3
31 16 47 47 20 43 21 44 89 52 65 9 68 10 77 41 6 19 18 34 30 37 26 6 881
166 888 166 3 0 -30 141 -73 313 -56 223 -96 359 -138 470 l-60 156 49 118
c43 104 52 118 77 124 15 4 237 26 493 50 256 23 467 44 468 45 14 10 17 76 6
114 l-13 45 -513 64 c-593 73 -582 71 -586 94 -4 21 -60 20 596 6 282 -6 516
-9 518 -6 13 13 -11 55 -39 70 -21 11 -213 42 -572 92 -297 41 -549 77 -560
80 -11 2 -53 29 -93 58 -72 54 -152 83 -160 57 -6 -16 -70 -12 -80 6 -16 29
-63 14 -85 -29 l-19 -37 -62 6 c-33 3 -2700 205 -5926 449 -5469 414 -5871
446 -5960 470 -74 19 -145 28 -320 40 -124 8 -243 16 -265 18 -22 2 -157 -10
-300 -25z m13067 -1125 c28 -114 30 -142 5 -71 -8 24 -27 73 -41 111 -24 61
-24 67 -8 67 14 0 23 -21 44 -107z m-1032 -2039 c0 -15 9 -16 65 -10 36 4 70
9 77 11 7 3 19 -4 26 -15 12 -20 10 -20 -173 -20 -111 0 -185 4 -185 10 0 5
17 12 38 16 20 3 53 10 72 14 59 13 80 12 80 -6z m168 -8194 c-7 -11 -19 -18
-26 -15 -7 2 -41 7 -77 11 -56 6 -65 5 -65 -10 0 -20 -5 -20 -103 -1 -43 8
-81 15 -83 15 -2 0 -4 5 -4 10 0 6 68 10 185 10 183 0 185 0 173 -20z m864
-2053 c-21 -86 -30 -107 -44 -107 -16 0 -16 6 8 68 14 37 33 86 41 110 25 71
23 43 -5 -71z"/>
</g>
</svg>
