<?xml version="1.0" standalone="no"?>
<!DOCTYPE svg PUBLIC "-//W3C//DTD SVG 20010904//EN"
 "http://www.w3.org/TR/2001/REC-SVG-20010904/DTD/svg10.dtd">
<svg version="1.0" xmlns="http://www.w3.org/2000/svg"
   viewBox="0 0 3331.000000 3898.000000"
 preserveAspectRatio="xMidYMid meet">
<metadata>
Created by potrace 1.16, written by Peter Selinger 2001-2019
</metadata>
<g transform="translate(0.000000,3898.000000) scale(0.100000,-0.100000)"
fill="#000000" stroke="none">
<path d="M19217 38967 l-359 -9 -157 -94 c-143 -86 -165 -103 -237 -184 l-79
-89 -1605 -1 -1605 0 -485 -94 c-267 -52 -2051 -394 -3965 -761 l-3480 -666
-255 -81 c-248 -78 -260 -84 -434 -182 l-178 -101 -146 -153 c-84 -88 -156
-155 -170 -159 -14 -3 -114 -73 -223 -154 -163 -122 -279 -223 -657 -573 -536
-496 -536 -496 -570 -496 -14 0 -89 -5 -166 -11 l-141 -11 -56 -43 -57 -43
-1613 -31 c-888 -17 -1631 -31 -1651 -31 l-38 0 -2 -1471 -3 -1472 -399 -203
c-320 -162 -408 -211 -443 -246 l-44 -44 23 -200 c22 -196 22 -219 23 -1454 1
-690 2 -1280 3 -1311 l2 -56 393 -7 c728 -14 2368 -63 2377 -72 4 -5 83 -130
174 -279 l166 -269 885 -552 c487 -304 902 -566 923 -582 30 -25 40 -42 56
-98 10 -38 79 -252 152 -475 l134 -406 363 -355 c199 -195 637 -609 973 -919
l610 -565 122 -43 c116 -41 122 -44 144 -84 18 -32 79 -84 258 -223 l235 -180
425 -103 425 -103 945 -118 945 -119 720 -239 720 -238 25 -116 c14 -64 31
-123 39 -132 17 -20 120 -21 -1039 8 -520 14 -949 21 -955 17 -5 -4 -83 -60
-172 -125 -160 -116 -162 -118 -177 -169 -8 -29 -55 -209 -105 -402 l-90 -350
-10 -486 c-5 -267 -7 -495 -4 -507 5 -22 4 -22 -129 -22 l-135 0 -1097 -1107
-1097 -1108 -129 -200 c-115 -177 -149 -242 -301 -564 l-171 -363 -75 -475
-76 -474 74 -391 c40 -215 78 -396 84 -403 5 -7 258 -117 560 -245 303 -128
1118 -472 1813 -766 l1262 -534 228 24 c193 20 261 23 452 19 l225 -5 238 61
238 61 438 0 438 0 79 -217 79 -218 147 -105 147 -105 1 -1205 0 -1206 -145
-137 -146 -137 -82 -162 -82 -163 -5 -349 -5 -350 -1000 -221 -1000 -222 -885
-313 -885 -313 -382 -276 -382 -276 0 -257 -1 -256 379 -276 379 -276 894
-316 893 -316 1035 -229 1035 -229 271 0 270 0 34 -48 c18 -26 114 -164 214
-307 169 -245 471 -669 581 -817 l50 -67 286 -1 286 0 95 122 c53 68 181 230
285 361 l188 237 245 181 c207 153 269 193 402 260 l158 79 427 0 428 0 118
-230 118 -230 74 0 75 0 0 -105 0 -105 -73 0 -73 0 -30 -62 -31 -62 -941 -142
-941 -143 -246 -102 -245 -103 2 -1935 3 -1935 242 -102 242 -102 923 -136
923 -136 3307 0 3307 0 275 64 274 64 343 177 344 176 291 264 291 263 191
346 192 345 0 716 0 716 -192 343 -193 344 -289 263 c-241 221 -302 272 -375
311 -47 26 -86 51 -86 56 0 4 128 312 285 684 l285 676 42 6 c22 3 253 60 512
126 l472 121 360 153 360 153 289 277 290 278 0 606 -1 607 -289 276 -290 276
-368 156 c-335 142 -383 160 -552 202 -102 26 -186 48 -188 49 -4 5 759 4680
765 4686 2 3 509 30 1126 61 l1122 57 634 190 c406 122 640 197 651 209 9 10
288 332 619 715 l601 698 0 1293 0 1294 -616 714 -616 714 -642 193 -641 193
-1050 66 c-577 36 -1053 69 -1057 73 -4 3 1 28 11 55 10 28 22 69 26 91 6 37
14 47 77 93 48 35 81 51 102 51 17 0 186 -7 376 -16 l345 -17 600 27 c427 18
776 40 1210 76 l610 50 983 363 982 364 493 474 493 474 123 680 123 680 -116
535 -116 534 -42 46 c-24 25 -86 90 -139 145 l-97 100 -31 130 c-17 72 -74
352 -126 624 l-94 494 -36 37 -37 37 -123 554 c-68 305 -211 913 -319 1353
l-196 799 -72 137 -71 138 28 131 28 130 -53 198 c-29 109 -61 225 -72 258
-11 33 -41 137 -67 230 l-47 170 -100 138 -101 138 -224 146 c-131 85 -326
225 -469 337 -402 315 -513 392 -745 516 -179 96 -320 188 -946 610 l-736 498
-241 58 -241 58 -123 293 -123 293 -529 657 c-436 544 -571 703 -771 918 -134
143 -279 303 -323 355 -44 52 -199 213 -344 356 -225 223 -283 276 -403 360
l-140 99 -209 22 c-116 13 -214 27 -219 32 -5 5 -48 78 -96 162 l-86 154 -148
101 -147 102 -253 70 c-138 40 -303 85 -366 101 -62 17 -121 36 -130 44 -9 8
-191 153 -405 322 -383 303 -391 309 -495 350 l-106 43 -38 103 c-21 57 -43
109 -50 115 -26 24 -525 228 -732 299 -121 42 -341 107 -488 145 -256 66 -270
70 -300 103 -18 19 -95 83 -172 143 l-140 108 -390 78 c-214 43 -394 77 -400
76 -5 -1 -171 -5 -368 -11z"/>
</g>
</svg>
