<?xml version="1.0" standalone="no"?>
<!DOCTYPE svg PUBLIC "-//W3C//DTD SVG 20010904//EN"
 "http://www.w3.org/TR/2001/REC-SVG-20010904/DTD/svg10.dtd">
<svg version="1.0" xmlns="http://www.w3.org/2000/svg"
   viewBox="0 0 3243.000000 1500.000000"
 preserveAspectRatio="xMidYMid meet">
<metadata>
Created by potrace 1.16, written by Peter Selinger 2001-2019
</metadata>
<g transform="translate(0.000000,1500.000000) scale(0.100000,-0.100000)"
fill="#000000" stroke="none">
<path d="M6200 14799 l-685 -199 -250 0 -250 0 -47 -54 -48 -55 0 -500 0 -501
-174 0 c-172 0 -175 0 -181 -22 -4 -13 -65 -101 -136 -195 -143 -191 -169
-211 -169 -128 l0 45 -200 0 -200 0 0 -45 0 -45 -180 0 -180 0 0 45 0 45 -187
1 -188 0 54 21 53 20 -5 39 -5 39 244 0 244 0 0 25 0 25 -216 0 -215 0 -15 37
c-9 20 -24 43 -34 52 -14 12 -20 37 -25 99 l-6 82 190 0 189 0 12 35 12 35 99
0 c91 0 99 2 99 19 0 18 -13 19 -299 23 -165 1 -302 6 -305 9 -3 3 -14 113
-24 245 -10 131 -23 248 -29 259 -6 11 -8 26 -6 33 3 6 2 12 -1 12 -3 0 -146
-50 -316 -112 l-311 -111 -37 20 -37 21 -1215 -426 c-668 -234 -1217 -427
-1218 -428 -2 -1 9 -19 24 -38 25 -32 59 -48 279 -136 l250 -100 628 0 627 0
0 -1583 0 -1582 -563 -73 c-309 -41 -578 -78 -597 -83 -19 -5 -83 -20 -141
-33 -131 -30 -353 -102 -367 -119 -5 -7 -12 -133 -15 -292 l-5 -280 152 -101
152 -101 650 -132 c357 -73 778 -158 936 -190 283 -58 286 -58 292 -37 17 63
26 59 -231 110 -131 27 -268 55 -305 63 l-68 15 0 172 1 171 38 18 c77 35 76
36 73 -128 l-3 -145 295 0 296 0 0 -30 c0 -25 4 -30 25 -30 21 0 25 -5 25 -30
l0 -30 335 0 335 0 0 30 0 30 190 0 190 0 0 30 0 30 90 0 90 0 0 -1160 0
-1160 -90 0 -90 0 0 30 0 30 -190 0 -190 0 0 30 0 30 -335 0 -335 0 0 -30 c0
-25 -4 -30 -25 -30 -21 0 -25 -5 -25 -30 l0 -30 -296 0 -295 0 3 -145 c3 -164
4 -163 -73 -127 l-38 17 -1 171 0 171 98 20 c53 12 190 40 305 64 224 46 218
42 201 105 -6 21 -9 21 -292 -37 -158 -32 -579 -117 -936 -190 l-650 -132
-152 -101 -152 -101 5 -280 c3 -159 10 -285 15 -292 14 -17 236 -89 367 -118
58 -14 120 -28 136 -33 17 -5 285 -42 597 -83 l568 -74 0 -1582 0 -1583 -627
0 -628 0 -250 -100 c-219 -88 -254 -106 -279 -136 -15 -20 -26 -37 -24 -38 1
-1 550 -194 1218 -428 l1215 -426 37 21 37 20 311 -111 c170 -62 313 -112 316
-112 3 0 4 6 1 13 -2 6 0 21 6 32 6 11 19 128 29 259 10 132 21 242 24 245 3
3 140 8 305 9 286 4 299 5 299 23 0 17 -8 19 -99 19 l-99 0 -12 35 -12 35
-189 0 -190 0 6 82 c5 62 11 87 25 99 10 9 25 32 34 52 l15 37 215 0 216 0 0
25 0 25 -244 0 -245 0 6 36 c4 25 2 39 -8 45 -8 5 44 9 134 9 l147 0 0 60 0
60 175 0 175 0 0 -60 0 -60 205 0 205 0 0 60 c0 100 20 86 169 -112 71 -95
132 -183 136 -195 6 -23 9 -23 181 -23 l174 0 0 -501 0 -500 47 -55 48 -54
248 0 249 0 691 -200 691 -200 2754 0 2755 0 -6 269 -6 269 62 6 c34 3 438 29
897 57 l835 50 1475 210 1475 211 1235 319 c743 193 1238 326 1243 334 4 7 24
19 45 26 20 7 56 20 79 30 l42 18 -22 66 c-17 53 -30 74 -60 98 l-39 30 -79
-13 -79 -12 -68 41 c-37 22 -76 47 -85 54 -15 11 24 29 285 135 266 107 376
144 908 307 981 301 1458 429 2285 614 391 88 744 165 786 171 72 12 88 10
360 -35 l284 -47 655 145 655 145 296 -29 296 -30 484 237 c333 162 610 289
888 406 228 95 624 274 905 408 420 199 567 275 906 468 612 346 1646 1005
2007 1279 94 71 251 197 347 279 166 140 190 166 423 443 208 246 311 382 313
412 0 3 -35 1 -77 -3 -62 -7 -219 -46 -413 -103 -13 -4 -15 27 -15 235 0 208
2 239 15 235 194 -57 351 -96 413 -103 42 -4 77 -7 77 -5 0 26 -109 171 -307
407 -225 269 -256 302 -406 429 -386 329 -653 516 -1497 1049 -739 466 -1159
701 -1794 1002 -511 243 -1187 535 -1356 586 -52 16 -343 130 -646 253 l-551
224 -191 -30 -191 -29 -618 137 -618 137 -285 -47 c-273 -46 -288 -47 -360
-36 -41 7 -403 86 -805 177 -804 181 -1155 274 -2286 608 -584 173 -603 179
-895 302 -165 69 -300 127 -300 128 -1 0 38 25 86 54 l88 53 80 -12 80 -12 39
30 c30 24 43 45 60 97 12 36 18 68 14 70 -4 3 -38 16 -76 31 -39 14 -75 32
-81 40 -6 8 -524 147 -1245 334 l-1234 319 -1475 211 -1475 210 -835 50 c-459
28 -863 54 -897 57 l-62 6 6 269 6 269 -2759 -1 -2759 -1 -685 -199z m-3110
-1659 l0 -40 -51 0 c-46 0 -50 2 -47 21 2 15 17 27 48 40 25 10 46 18 48 18 1
1 2 -17 2 -39z m-1270 -3785 l65 -13 -87 -1 c-79 -1 -110 8 -75 22 18 8 25 7
97 -8z m360 -193 c0 -34 -4 -40 -35 -55 -30 -14 -69 -17 -241 -17 l-206 0 7
38 c4 20 10 38 14 40 5 1 17 9 27 17 15 11 62 14 227 15 l207 0 0 -38z m-35
-3269 c31 -15 35 -21 35 -55 l0 -38 -205 0 c-176 0 -210 2 -233 17 -15 9 -28
17 -29 17 0 1 -4 18 -8 39 l-7 37 206 0 c172 0 211 -3 241 -17z m-325 -249
c-66 -14 -110 -11 -110 6 0 6 36 10 88 9 l87 -1 -65 -14z m1270 -3784 l0 -40
-47 19 c-34 13 -49 25 -51 40 -3 19 1 21 47 21 l51 0 0 -40z"/>
</g>
</svg>
