<?xml version="1.0" standalone="no"?>
<!DOCTYPE svg PUBLIC "-//W3C//DTD SVG 20010904//EN"
 "http://www.w3.org/TR/2001/REC-SVG-20010904/DTD/svg10.dtd">
<svg version="1.0" xmlns="http://www.w3.org/2000/svg"
   viewBox="0 0 3863.000000 1632.000000"
 preserveAspectRatio="xMidYMid meet">
<metadata>
Created by potrace 1.16, written by Peter Selinger 2001-2019
</metadata>
<g transform="translate(0.000000,1632.000000) scale(0.100000,-0.100000)"
fill="#000000" stroke="none">
<path d="M5810 16295 c0 -11 -9 -175 -20 -365 -11 -190 -20 -357 -20 -372 0
-46 -194 -171 -620 -401 -435 -235 -400 -198 -355 -370 58 -222 44 -197 160
-287 58 -45 107 -85 110 -90 3 -5 1 -20 -6 -32 -7 -12 -29 -105 -51 -207 -28
-137 -38 -208 -38 -277 l0 -94 -1030 0 -1030 0 0 -549 0 -548 -787 -10 -788
-10 -220 -47 -220 -47 -47 -50 c-28 -30 -124 -177 -241 -372 l-193 -322 -207
-615 -207 -615 0 -2455 0 -2455 207 -615 207 -615 193 -322 c117 -195 213
-342 241 -372 l47 -50 220 -47 220 -47 788 -10 787 -10 0 -549 0 -548 1030 0
1030 0 0 -94 c0 -69 10 -140 38 -277 22 -102 44 -195 51 -207 7 -12 9 -27 6
-32 -3 -5 -52 -45 -110 -90 -116 -90 -102 -65 -160 -287 -45 -172 -80 -135
355 -370 426 -230 620 -355 620 -401 0 -15 9 -182 20 -372 11 -190 20 -354 20
-365 0 -20 1 -20 3004 -17 l3005 4 178 70 178 70 510 99 c484 94 538 103 1065
165 l555 67 203 114 202 114 -6 142 c-4 78 -9 168 -13 199 l-6 57 -232 255
-233 255 0 451 c0 395 -2 454 -16 475 -15 23 -15 24 8 29 29 6 2854 55 3176
56 l142 0 0 -600 0 -600 2008 0 2007 0 923 1100 922 1099 0 210 0 209 128 6
c319 17 635 37 643 42 6 3 187 231 224 281 1 2 127 12 281 23 153 11 450 37
659 59 l380 40 933 295 934 295 46 43 c26 24 412 379 857 790 l810 746 91 274
91 274 -50 57 c-27 31 -45 57 -41 57 18 1 246 39 249 42 1 2 10 125 18 273
l16 270 41 123 42 122 -42 123 -41 122 -16 270 c-8 149 -17 271 -18 273 -1 1
-58 11 -125 22 -68 12 -125 22 -126 23 -1 1 19 26 45 56 l48 55 -91 274 -91
274 -810 746 c-445 411 -831 766 -857 790 l-46 43 -934 295 -933 295 -380 40
c-209 22 -506 48 -659 59 -154 11 -280 21 -281 23 -1 1 -43 55 -94 120 l-91
117 55 0 55 0 0 105 c0 58 1 105 3 105 1 1 1959 27 4351 60 2392 33 4351 61
4354 64 2 3 17 58 33 122 16 64 31 119 34 122 3 3 452 18 998 33 545 15 1060
29 1144 32 l152 6 44 -72 c39 -65 47 -72 78 -74 19 -2 699 37 1512 86 l1479
88 69 69 70 69 -70 67 c-64 61 -73 67 -123 72 -29 3 -690 42 -1468 86 -778 44
-1433 81 -1456 83 l-41 4 -47 -79 -47 -78 -107 5 c-140 8 -2059 75 -2132 75
l-56 0 -29 93 c-16 50 -32 96 -36 100 -6 8 -7714 96 -8426 97 l-283 0 0 85 0
85 -879 0 -879 0 -504 600 -503 600 -2007 0 -2008 0 0 -600 0 -600 -147 0
c-316 1 -3143 51 -3171 56 -23 5 -23 6 -8 29 14 21 16 80 16 475 l0 451 233
255 232 255 6 57 c4 31 9 121 13 199 l6 142 -202 114 -203 115 -555 66 c-528
62 -580 71 -1065 165 l-510 99 -178 70 -178 70 -3005 4 c-3002 3 -3004 3
-3004 -17z m2250 -3401 c312 -31 373 -39 500 -73 l145 -38 186 5 c145 3 234 0
410 -18 l224 -22 108 21 c101 20 140 21 635 21 290 0 522 -4 516 -8 -6 -4
-141 -199 -298 -434 -292 -436 -289 -431 -416 -531 -8 -7 -30 -24 -48 -39
l-34 -28 -505 0 c-278 0 -603 -5 -722 -11 -204 -10 -230 -10 -471 15 -140 14
-354 35 -475 46 -121 12 -221 23 -222 24 -2 1 -6 236 -9 522 l-6 519 31 37
c27 31 36 36 64 32 17 -2 192 -20 387 -40z m1290 -8320 c349 -3 640 -9 646
-13 6 -3 29 -20 50 -38 21 -17 65 -52 96 -78 49 -39 100 -109 344 -473 157
-235 291 -430 298 -434 6 -4 -225 -8 -514 -8 -493 0 -532 1 -638 21 l-112 21
-218 -22 c-163 -16 -267 -21 -417 -19 l-200 3 -140 -38 c-123 -32 -186 -42
-520 -76 l-380 -38 -34 36 -34 37 7 519 c3 286 7 521 9 522 1 2 171 19 377 39
206 20 407 40 445 45 39 4 122 6 185 4 63 -2 401 -7 750 -10z"/>
</g>
</svg>
