<?xml version="1.0" standalone="no"?>
<!DOCTYPE svg PUBLIC "-//W3C//DTD SVG 20010904//EN"
 "http://www.w3.org/TR/2001/REC-SVG-20010904/DTD/svg10.dtd">
<svg version="1.0" xmlns="http://www.w3.org/2000/svg"
   viewBox="0 0 4591.000000 945.000000"
 preserveAspectRatio="xMidYMid meet">
<metadata>
Created by potrace 1.16, written by Peter Selinger 2001-2019
</metadata>
<g transform="translate(0.000000,945.000000) scale(0.100000,-0.100000)"
fill="#000000" stroke="none">
<path d="M34090 9426 l-255 -21 -57 -160 c-31 -88 -57 -163 -57 -166 -1 -4
111 -49 248 -100 138 -51 249 -94 248 -96 -2 -1 -194 13 -427 31 l-425 34
-210 -19 c-115 -11 -703 -58 -1305 -104 -602 -47 -1144 -90 -1205 -95 -60 -5
-328 -10 -595 -10 -376 0 -638 -7 -1170 -30 -713 -31 -1265 -48 -3220 -100
l-1165 -31 -730 20 -730 21 -1350 -91 -1350 -90 -440 -95 -440 -95 -1035 -65
-1035 -66 -1005 -386 -1005 -386 -420 -38 c-231 -20 -424 -36 -428 -35 -5 1
330 93 745 203 l753 200 99 183 100 184 -3 146 c-1 80 -4 147 -5 148 -1 1
-431 84 -956 185 l-955 182 -350 -17 c-327 -16 -2743 -183 -2792 -193 -23 -4
-23 -6 -23 -172 l0 -168 126 -530 c69 -291 127 -530 129 -532 2 -2 228 5 502
17 274 12 518 21 543 20 25 -1 -337 -25 -805 -55 -467 -29 -866 -52 -885 -52
-25 0 204 32 272 37 4 1 5 22 2 49 -3 26 -34 343 -69 706 -35 362 -66 659 -67
661 -9 6 -1881 -56 -2069 -69 l-227 -16 -727 -330 c-401 -181 -729 -331 -731
-333 -2 -1 1 -69 6 -150 l10 -148 105 -153 c71 -105 112 -155 127 -159 13 -3
256 -54 541 -113 285 -60 514 -110 510 -111 -4 -1 -96 -7 -203 -12 l-196 -11
-1089 155 -1089 154 -766 -74 -766 -75 -600 -130 -599 -131 -535 -180 -535
-180 -565 -276 -565 -277 -336 -272 -336 -273 -123 -276 c-68 -152 -123 -282
-123 -288 0 -7 55 -137 123 -290 l123 -277 334 -274 333 -273 563 -276 563
-277 535 -180 534 -181 595 -130 595 -131 770 -73 770 -73 1083 150 1083 150
205 -7 c113 -4 204 -9 202 -11 -2 -2 -240 -53 -528 -114 -288 -60 -530 -116
-536 -122 -6 -7 -55 -77 -108 -155 l-96 -141 -10 -148 c-6 -81 -9 -148 -7
-150 1 -1 328 -152 727 -334 l725 -333 265 -18 c252 -17 2028 -74 2037 -66 2
3 33 301 68 663 35 363 67 680 70 705 l5 46 -132 14 c-274 27 -83 20 621 -22
399 -24 717 -45 706 -48 -11 -2 -201 4 -423 14 -221 10 -404 16 -407 14 -2 -3
-60 -243 -129 -535 l-126 -531 0 -166 0 -166 42 -5 c101 -13 2473 -177 2783
-192 l340 -17 955 183 c525 100 956 183 957 184 1 0 2 66 4 146 l3 145 -99
183 c-88 161 -103 183 -130 190 -415 111 -1473 397 -1472 398 1 1 191 -14 422
-33 l420 -36 1004 -389 1005 -388 1045 -65 1046 -64 440 -95 440 -95 1335 -92
1335 -92 740 20 740 20 1155 -28 c1782 -43 2260 -57 3144 -94 647 -28 917 -35
1288 -35 258 0 522 -5 586 -10 147 -13 2285 -185 2522 -203 166 -12 193 -12
540 14 201 15 394 30 430 33 62 5 53 1 -183 -88 -137 -52 -251 -96 -253 -99
-3 -3 102 -324 110 -334 1 -1 130 -12 287 -24 l286 -23 209 67 c115 36 294 84
397 107 125 27 207 50 245 69 31 16 244 130 473 253 l417 224 178 13 c99 7
262 25 363 41 l185 29 525 -99 c484 -92 563 -104 996 -154 l470 -54 1200 245
c660 134 1280 255 1377 269 l177 25 744 268 c872 315 757 259 1552 748 l510
313 490 561 490 561 253 622 253 621 -247 605 c-135 333 -253 617 -262 631
-10 14 -233 274 -497 578 l-480 552 -487 300 c-268 165 -565 344 -660 397
l-173 97 -744 268 -744 268 -176 24 c-96 14 -713 134 -1371 266 l-1195 242
-465 -52 c-425 -48 -512 -61 -1004 -152 l-540 -100 -163 25 c-90 14 -250 33
-356 42 l-192 15 -472 254 -472 254 -193 41 c-106 23 -287 71 -403 106 -115
35 -223 63 -240 63 -16 -1 -145 -11 -285 -23z m-21287 -2303 c-7 -2 -21 -2
-30 0 -10 3 -4 5 12 5 17 0 24 -2 18 -5z m-190 -10 c-18 -2 -48 -2 -65 0 -18
2 -4 4 32 4 36 0 50 -2 33 -4z m-1875 -4670 c-10 -2 -26 -2 -35 0 -10 3 -2 5
17 5 19 0 27 -2 18 -5z m1635 -100 c-24 -2 -62 -2 -85 0 -24 2 -5 4 42 4 47 0
66 -2 43 -4z m180 -10 c-13 -2 -35 -2 -50 0 -16 2 -5 4 22 4 28 0 40 -2 28 -4z
m180 -10 c-7 -2 -19 -2 -25 0 -7 3 -2 5 12 5 14 0 19 -2 13 -5z"/>
</g>
</svg>
