<?xml version="1.0" standalone="no"?>
<!DOCTYPE svg PUBLIC "-//W3C//DTD SVG 20010904//EN"
 "http://www.w3.org/TR/2001/REC-SVG-20010904/DTD/svg10.dtd">
<svg version="1.0" xmlns="http://www.w3.org/2000/svg"
   viewBox="0 0 3863.000000 1632.000000"
 preserveAspectRatio="xMidYMid meet">
<metadata>
Created by potrace 1.16, written by Peter Selinger 2001-2019
</metadata>
<g transform="translate(0.000000,1632.000000) scale(0.100000,-0.100000)"
fill="#000000" stroke="none">
<path d="M5810 16305 c0 -5 -9 -170 -20 -365 -11 -195 -20 -367 -20 -381 0
-47 -207 -180 -627 -405 l-372 -199 -1 -39 c0 -34 18 -112 66 -283 15 -54 15
-54 233 -220 2 -1 -3 -20 -12 -40 -33 -77 -87 -373 -87 -476 l0 -97 -1030 0
-1030 0 0 -550 0 -550 -392 -1 c-216 0 -571 -4 -788 -8 l-395 -8 -220 -47
-220 -47 -50 -52 c-32 -34 -118 -166 -241 -372 l-192 -320 -206 -613 -206
-614 0 -2458 0 -2458 206 -613 207 -612 194 -323 c117 -196 212 -343 241 -373
l47 -49 225 -48 225 -48 520 -7 c286 -4 638 -7 783 -8 l262 -1 0 -550 0 -550
1030 0 1030 0 0 -95 c0 -99 55 -405 85 -473 8 -18 15 -34 15 -37 0 -2 -49 -42
-109 -89 -81 -64 -112 -95 -120 -119 -35 -113 -72 -273 -69 -304 l3 -37 375
-202 c414 -224 620 -356 620 -399 0 -40 41 -759 43 -761 1 0 1357 2 3012 6
l3010 8 170 67 170 68 505 98 c479 93 534 102 1065 165 l560 67 203 114 202
114 -6 132 c-3 73 -9 162 -13 199 l-6 67 -232 255 -233 255 0 451 c0 430 -1
453 -19 479 l-20 27 942 18 c1284 24 2018 35 2230 36 l177 0 0 -600 0 -600
2008 0 2007 0 923 1101 922 1100 0 208 0 209 128 6 c70 4 237 13 371 21 134 8
249 15 256 15 8 0 62 62 121 137 59 76 111 142 114 146 4 4 130 17 281 27 151
11 447 37 659 59 l385 40 933 295 934 295 57 53 c31 29 417 385 857 790 l800
737 87 268 c48 147 88 272 87 277 0 5 -20 33 -45 62 l-46 53 33 5 c18 3 76 13
128 22 52 8 95 16 96 17 1 1 8 124 17 272 l16 270 41 123 42 122 -42 123 -41
122 -16 270 c-9 149 -17 271 -18 273 -3 3 -231 41 -249 42 -5 0 12 24 38 54
25 30 46 60 46 67 0 8 -39 132 -87 277 l-88 264 -810 747 c-445 410 -831 765
-857 789 l-47 44 -933 295 -933 295 -375 39 c-206 21 -503 48 -659 59 l-284
21 -21 27 c-11 15 -53 67 -92 117 l-72 90 54 3 54 3 0 104 c0 58 1 105 3 106
1 0 1959 27 4351 59 2392 33 4351 62 4354 65 3 2 17 57 33 121 15 63 30 119
34 122 3 4 444 19 978 33 535 15 1049 30 1144 33 l172 6 42 -71 c23 -39 48
-73 54 -76 13 -4 2893 163 2972 173 35 4 55 17 114 72 l72 68 -72 66 c-65 60
-77 67 -124 72 -29 3 -689 42 -1467 86 -778 44 -1433 81 -1456 83 l-41 4 -48
-79 -47 -80 -67 6 c-36 3 -553 22 -1147 43 l-1082 37 -30 96 -30 95 -163 7
c-90 4 -2040 26 -4334 49 -2293 22 -4180 43 -4192 45 -22 4 -23 9 -23 84 l0
80 -879 0 -879 0 -503 600 -503 600 -2008 0 -2008 0 0 -600 0 -600 -137 0
c-336 1 -3130 50 -3171 56 -33 5 -33 6 -18 29 14 21 16 82 16 477 l1 453 233
255 234 255 6 100 c3 55 7 144 9 199 l2 98 -200 113 -200 113 -555 66 c-526
63 -581 72 -1065 165 l-510 100 -178 70 -178 69 -3005 4 c-2058 2 -3004 0
-3004 -7z m2250 -3411 c303 -29 374 -40 486 -69 131 -35 133 -35 350 -35 149
0 283 -7 424 -21 l207 -21 103 21 c97 20 134 21 633 21 426 0 528 -2 515 -12
-9 -7 -142 -202 -296 -434 -261 -392 -284 -424 -348 -475 -38 -29 -82 -66 -99
-82 -16 -15 -39 -29 -50 -32 -11 -2 -310 -7 -665 -11 -355 -3 -692 -7 -750 -7
-84 -1 -967 78 -978 87 -1 2 -5 237 -9 522 l-6 520 32 36 c27 31 37 36 64 32
18 -2 192 -20 387 -40z m1300 -8320 l636 -6 41 -37 c23 -20 69 -58 102 -84 55
-43 91 -93 342 -470 155 -232 288 -428 297 -434 13 -11 -87 -13 -508 -13 -490
0 -530 1 -636 21 l-114 21 -217 -22 c-182 -19 -249 -21 -402 -16 l-184 7 -156
-41 c-142 -37 -190 -44 -539 -78 l-384 -38 -30 35 -30 36 6 519 c3 286 7 520
8 522 2 1 194 21 428 43 234 23 432 43 440 45 8 3 71 3 140 0 69 -2 411 -7
760 -10z"/>
</g>
</svg>
