<?xml version="1.0" standalone="no"?>
<!DOCTYPE svg PUBLIC "-//W3C//DTD SVG 20010904//EN"
 "http://www.w3.org/TR/2001/REC-SVG-20010904/DTD/svg10.dtd">
<svg version="1.0" xmlns="http://www.w3.org/2000/svg"
   viewBox="0 0 4179.000000 312.000000"
 preserveAspectRatio="xMidYMid meet">
<metadata>
Created by potrace 1.16, written by Peter Selinger 2001-2019
</metadata>
<g transform="translate(0.000000,312.000000) scale(0.100000,-0.100000)"
fill="#000000" stroke="none">
<path d="M18756 3076 l-36 -44 0 -135 0 -135 -65 -13 -65 -13 -22 -65 c-20
-62 -21 -91 -26 -454 l-4 -389 -31 -34 -30 -35 -39 37 -38 38 0 233 0 233 -36
50 -36 50 -94 0 -94 0 -2 227 -3 227 -55 33 -55 33 -605 0 -605 -1 -42 -40
-43 -40 0 -147 c0 -81 -4 -163 -9 -182 -6 -19 -15 -54 -20 -76 l-11 -42 -70
-4 c-38 -2 -71 -6 -74 -9 -3 -2 -16 -44 -30 -93 -21 -70 -29 -130 -38 -283
-12 -189 -13 -194 -39 -218 l-26 -26 -27 36 c-15 19 -36 35 -47 35 -18 0 -19
8 -19 172 l0 171 -72 132 -72 132 -116 76 -116 77 -1906 0 -1906 0 -66 -71
c-53 -57 -79 -97 -126 -197 l-60 -125 0 -178 0 -178 -42 -40 -43 -39 -37 41
-38 40 0 161 -1 161 -78 139 -78 138 -113 74 -114 74 -1907 0 -1907 0 -66 -74
c-51 -56 -80 -102 -126 -199 l-60 -125 0 -181 c0 -147 -3 -181 -14 -181 -7 0
-26 -16 -41 -36 l-27 -36 -37 36 c-20 20 -43 36 -50 36 -10 0 -11 31 -5 149 7
145 6 150 -16 183 -35 50 -49 58 -107 58 l-53 0 0 134 0 134 -53 41 -54 41
-450 0 -450 0 -42 -45 -41 -45 0 -134 0 -134 -61 -14 c-61 -13 -61 -13 -80
-63 -12 -31 -23 -97 -29 -174 l-10 -125 -37 -39 -38 -38 -33 35 c-18 20 -37
36 -42 36 -6 0 -10 61 -10 160 l0 160 -50 25 -49 25 -611 0 -611 0 -49 -25
-50 -25 0 -118 0 -117 -20 25 c-11 14 -20 41 -20 63 0 20 -4 37 -10 37 -5 0
-10 7 -10 15 0 8 -43 110 -95 226 l-95 210 -152 161 -153 160 -165 93 c-91 52
-212 114 -270 138 l-105 45 -205 12 c-133 8 -282 10 -425 6 l-220 -7 -76 -62
-77 -62 -17 -130 c-10 -71 -23 -188 -29 -260 l-11 -130 -65 -3 c-54 -3 -70 -7
-93 -29 -25 -25 -27 -32 -27 -115 0 -72 -3 -88 -15 -88 -13 0 -15 22 -15 134
l0 134 -49 41 -49 41 -455 0 -455 0 -41 -49 -41 -49 0 -130 c0 -144 4 -136
-73 -147 -46 -7 -46 -7 -67 -69 -13 -40 -23 -100 -27 -178 -6 -116 -6 -117
-40 -149 l-33 -33 -33 32 c-18 18 -41 32 -50 32 -15 0 -17 16 -17 164 l0 163
-51 22 c-39 16 -73 21 -135 21 l-84 0 0 -640 0 -640 84 0 c62 0 96 5 135 21
l51 22 0 158 c0 118 3 159 12 159 7 0 29 17 50 37 l38 37 33 -33 c34 -32 34
-33 40 -149 4 -78 14 -138 27 -178 21 -62 21 -62 67 -69 77 -11 73 -3 73 -147
l0 -130 41 -49 41 -49 455 0 455 0 49 41 49 41 0 134 c0 112 2 134 15 134 12
0 15 -16 15 -88 0 -83 2 -90 27 -115 23 -22 39 -26 93 -29 l65 -3 11 -130 c6
-72 19 -188 29 -260 l17 -130 77 -62 76 -61 220 -8 c144 -4 291 -2 425 6 l205
12 105 45 c58 24 179 86 270 138 l165 93 153 160 152 161 95 210 c52 116 95
218 95 226 0 8 5 15 10 15 6 0 10 17 10 38 0 21 9 48 20 62 l20 25 0 -117 0
-118 50 -25 49 -25 611 0 611 0 49 25 50 25 1 153 1 152 42 37 43 37 37 -38
37 -38 9 -119 c6 -73 17 -139 29 -169 19 -50 19 -50 80 -63 l61 -14 0 -134 0
-134 41 -45 42 -45 450 0 450 0 54 41 53 41 0 134 0 134 53 0 c58 0 72 8 107
59 22 32 23 37 16 177 -6 123 -5 144 7 144 8 0 29 16 46 36 l32 36 44 -39 43
-38 1 -174 1 -173 60 -125 c46 -97 75 -143 126 -199 l66 -74 1907 0 1907 0
114 74 113 74 78 138 78 139 1 160 0 161 39 38 39 39 41 -43 41 -43 0 -172 0
-172 60 -125 c47 -100 73 -140 126 -197 l66 -71 1906 0 1906 0 116 77 116 76
72 132 72 132 0 166 c0 124 3 167 12 167 7 0 29 17 50 37 l39 38 22 -29 c21
-26 24 -46 35 -216 9 -146 18 -208 38 -276 14 -49 27 -90 29 -93 2 -2 36 -6
75 -9 l70 -5 11 -41 c5 -22 14 -57 20 -76 5 -19 9 -101 9 -182 l0 -147 43 -40
42 -40 605 -1 605 0 55 33 55 33 3 227 2 227 94 0 94 0 36 50 36 50 0 228 0
228 38 37 38 37 31 -32 31 -33 5 -385 c4 -360 5 -389 25 -451 l22 -65 65 -13
65 -13 0 -135 0 -135 36 -44 36 -44 455 0 455 0 49 38 48 37 1 138 0 137 64 0
c63 0 64 0 90 40 l26 40 0 423 0 423 38 37 38 37 37 -38 37 -38 0 -152 0 -152
50 -25 49 -25 611 0 610 0 0 -98 c0 -94 1 -99 28 -125 22 -22 38 -26 92 -29
l65 -3 11 -130 c6 -72 19 -188 29 -260 l17 -130 77 -62 76 -61 220 -8 c144 -4
291 -2 425 6 l205 12 105 45 c58 24 179 86 270 138 l165 94 152 159 151 158
90 200 c50 109 94 211 97 227 4 15 11 27 16 27 5 0 9 16 9 35 0 22 11 51 28
77 l27 42 3 -420 2 -420 45 -22 c45 -22 48 -22 665 -22 618 0 620 0 665 22
l45 22 0 173 0 173 29 0 c22 0 37 9 57 35 l27 35 42 -37 c38 -34 43 -43 44
-83 3 -143 40 -310 67 -310 7 0 36 -5 64 -11 l50 -11 0 -134 0 -135 37 -45 37
-44 454 0 454 0 49 37 48 38 1 138 0 137 64 0 c63 0 64 0 90 40 l26 40 0 235
0 235 40 0 40 0 0 -255 0 -256 43 -19 c40 -19 71 -20 664 -20 621 0 623 0 668
22 l45 22 0 443 c0 285 4 443 10 443 5 0 25 17 44 37 l34 37 45 -39 45 -40 1
-232 1 -232 52 -36 53 -35 425 0 c234 0 616 -7 850 -16 395 -15 447 -15 740 1
173 10 464 23 645 29 324 12 331 13 403 41 l72 28 0 226 0 225 37 38 37 38 28
-27 c27 -26 28 -30 28 -127 1 -201 34 -415 73 -463 5 -8 33 -13 66 -13 31 0
61 -4 67 -8 6 -4 20 -46 32 -94 17 -69 22 -117 22 -227 l0 -140 44 -35 43 -36
601 0 600 0 56 33 56 32 0 233 0 232 99 0 98 0 37 55 37 56 -7 227 -6 227 41
40 41 39 33 -39 32 -39 6 -391 c5 -360 7 -394 25 -445 l21 -55 61 -13 62 -14
0 -134 0 -134 41 -45 42 -45 452 0 452 0 52 41 51 41 0 134 0 134 63 0 62 0
28 44 27 43 0 420 0 419 40 39 40 39 40 -44 40 -43 0 -424 0 -424 53 -24 52
-25 602 0 602 0 56 24 55 25 0 428 0 429 38 37 38 37 27 -28 c26 -27 27 -33
27 -133 1 -196 35 -410 72 -457 6 -7 34 -12 67 -12 31 0 61 -4 67 -8 6 -4 20
-46 32 -94 17 -69 22 -117 22 -227 l0 -139 42 -36 42 -36 602 0 602 0 56 33
56 32 0 233 0 232 99 0 98 0 36 54 35 53 -5 279 -6 279 40 -35 c32 -28 42 -46
51 -91 10 -48 20 -64 65 -106 50 -47 57 -51 121 -58 l68 -7 -7 -31 c-4 -18 -9
-133 -12 -257 l-4 -225 51 -110 c47 -99 60 -118 132 -187 75 -72 84 -77 137
-85 86 -12 354 -9 471 6 211 27 498 122 685 226 83 47 192 141 300 261 133
147 201 211 231 218 15 4 79 55 143 113 105 95 121 115 169 204 49 90 55 108
72 223 19 124 19 128 0 252 -17 115 -23 133 -72 223 -48 89 -64 109 -169 204
-64 58 -128 109 -143 113 -30 7 -98 71 -231 218 -112 124 -219 216 -309 265
-192 106 -464 195 -676 222 -118 15 -385 18 -472 6 -53 -8 -62 -13 -137 -85
-71 -69 -85 -89 -131 -187 l-51 -110 4 -225 c3 -124 8 -239 12 -257 l7 -31
-68 -7 c-64 -7 -71 -11 -121 -58 -45 -42 -55 -58 -65 -106 -9 -45 -19 -63 -51
-91 l-40 -35 6 279 5 279 -35 53 -36 54 -98 0 -99 0 0 233 0 232 -56 32 -56
33 -602 0 -602 0 -42 -36 -42 -36 0 -139 c0 -110 -5 -158 -22 -227 -12 -48
-26 -90 -32 -94 -6 -4 -36 -8 -67 -8 -33 0 -61 -5 -67 -12 -38 -47 -71 -261
-72 -462 0 -106 -1 -111 -27 -138 l-27 -28 -38 37 -38 37 0 434 0 433 -55 25
-56 24 -602 0 -602 0 -52 -25 -53 -24 0 -430 0 -430 -42 -39 -41 -39 -39 40
-38 40 0 420 0 420 -27 43 -28 44 -62 0 -63 0 0 134 0 134 -51 41 -52 41 -452
0 -452 0 -42 -45 -41 -45 0 -134 0 -134 -62 -14 -61 -13 -21 -55 c-19 -51 -20
-81 -24 -450 l-3 -395 -36 -37 -37 -37 -39 42 -39 42 6 227 7 227 -37 56 -37
55 -98 0 -99 0 0 233 0 232 -56 33 -56 32 -600 0 -601 0 -43 -36 -44 -35 0
-140 c0 -110 -5 -158 -22 -227 -12 -48 -26 -90 -32 -94 -6 -4 -36 -8 -67 -8
-33 0 -61 -5 -66 -13 -39 -49 -72 -262 -73 -468 0 -102 -1 -106 -28 -132 l-28
-27 -37 38 -37 38 0 230 0 231 -72 28 c-72 28 -79 29 -403 41 -181 6 -472 19
-645 29 -293 16 -345 16 -740 1 -234 -9 -616 -16 -850 -16 l-425 0 -53 -35
-52 -36 0 -239 c0 -180 -3 -240 -12 -240 -7 0 -27 -14 -45 -32 l-33 -32 -33
32 c-18 18 -38 32 -45 32 -9 0 -12 106 -12 448 l0 448 -45 22 c-45 22 -47 22
-668 22 -593 0 -624 -1 -664 -20 l-43 -19 0 -256 0 -255 -40 0 -40 0 0 235 0
235 -26 40 c-26 40 -27 40 -90 40 l-64 0 0 138 -1 137 -48 38 -49 37 -454 0
-454 0 -37 -44 -37 -45 0 -135 0 -134 -50 -11 c-28 -6 -57 -11 -64 -11 -27 0
-66 -177 -66 -307 0 -37 -6 -48 -42 -83 l-43 -40 -33 35 c-20 22 -42 35 -57
35 l-25 0 0 173 0 173 -45 22 c-45 22 -47 22 -665 22 -617 0 -620 0 -665 -22
l-45 -22 -2 -420 -3 -420 -27 42 c-17 26 -28 55 -28 77 0 19 -4 35 -9 35 -5 0
-12 12 -16 28 -3 15 -47 117 -97 226 l-90 200 -152 159 -151 159 -165 93 c-91
52 -212 114 -270 138 l-105 45 -205 12 c-133 8 -282 10 -425 6 l-220 -7 -76
-62 -77 -62 -17 -130 c-10 -71 -23 -188 -29 -260 l-11 -130 -65 -3 c-54 -3
-70 -7 -92 -29 -27 -26 -28 -31 -28 -125 l0 -98 -610 0 -611 0 -49 -25 -50
-25 0 -156 0 -155 -37 -40 -37 -39 -38 37 -38 37 0 428 0 428 -26 40 c-26 40
-27 40 -90 40 l-64 0 0 138 -1 137 -48 38 -49 37 -455 0 -455 0 -36 -44z
m6681 -1384 c10 -103 10 -164 1 -263 l-12 -130 -39 -41 -39 -41 -37 37 c-20
20 -47 36 -59 36 l-22 0 0 270 0 270 23 0 c13 0 37 15 57 35 l33 34 41 -37 41
-37 12 -133z"/>
</g>
</svg>
