<?xml version="1.0" standalone="no"?>
<!DOCTYPE svg PUBLIC "-//W3C//DTD SVG 20010904//EN"
 "http://www.w3.org/TR/2001/REC-SVG-20010904/DTD/svg10.dtd">
<svg version="1.0" xmlns="http://www.w3.org/2000/svg"
   viewBox="0 0 2322.000000 1471.000000"
 preserveAspectRatio="xMidYMid meet">
<metadata>
Created by potrace 1.16, written by Peter Selinger 2001-2019
</metadata>
<g transform="translate(0.000000,1471.000000) scale(0.100000,-0.100000)"
fill="#000000" stroke="none">
<path d="M9175 14588 c-6 -107 19 -476 198 -2888 198 -2661 205 -2766 189
-2800 l-17 -35 -502 -3 -503 -2 0 -425 0 -425 -30 0 -30 0 0 273 0 273 -76 52
-76 52 -891 -2 -891 -3 -100 -217 -100 -218 -393 0 -393 0 0 215 0 215 -105 0
-105 0 0 -215 0 -215 -1190 0 c-1183 0 -1190 0 -1190 20 0 20 -7 20 -1348 20
l-1349 0 -123 -135 c-67 -75 -121 -137 -119 -139 2 -2 42 -12 89 -23 l85 -21
-102 -1 -103 -1 0 -585 0 -585 98 -1 97 -1 -83 -21 -83 -22 122 -138 123 -137
1348 0 c1341 0 1348 0 1348 20 0 20 7 20 1190 20 l1190 0 0 -215 0 -215 105 0
105 0 0 215 0 215 394 0 393 0 101 -217 101 -218 888 -2 888 -2 78 55 77 55 0
269 0 270 30 0 30 0 0 -420 0 -420 493 0 494 0 20 -22 c26 -29 42 -79 32 -98
-4 -8 -98 -1249 -209 -2758 -174 -2353 -201 -2759 -195 -2857 5 -82 11 -115
20 -115 7 0 33 -3 57 -6 l45 -6 7 56 c6 46 11 56 27 56 10 0 19 6 19 13 1 43
379 5169 382 5172 1 2 73 9 158 15 85 7 157 14 159 16 3 2 5 70 5 151 l1 146
-100 19 c-206 38 -205 38 -205 59 0 14 7 19 25 19 24 0 25 2 25 70 l0 70 258
0 c196 -1 261 -4 274 -14 16 -12 13 -163 -67 -2682 -47 -1468 -85 -2717 -85
-2776 0 -66 4 -108 10 -108 6 0 10 -27 10 -60 l0 -60 60 0 60 0 0 38 c0 51 10
82 26 82 7 0 15 14 18 33 3 17 39 1168 81 2557 42 1389 78 2526 79 2528 2 1
73 10 158 19 l155 16 7 75 c3 41 6 108 6 148 0 68 -2 74 -22 79 -20 4 -241 35
-253 35 -3 0 -5 20 -5 45 l0 45 60 0 60 0 1 298 c1 163 4 287 6 275 l4 -23
528 0 527 0 49 50 49 50 443 0 c385 0 444 2 449 15 5 13 36 15 190 15 l184 0
0 155 0 155 285 0 285 0 0 50 0 50 310 0 310 0 0 -50 0 -50 1032 0 1032 0 24
-22 c34 -32 132 -32 183 0 l36 22 1137 0 1136 0 0 -30 0 -30 210 0 210 0 0 30
0 30 385 0 385 0 0 -315 0 -315 505 0 505 0 0 365 0 365 55 0 55 0 0 -50 0
-50 75 0 c71 0 75 -1 75 -23 0 -14 18 -41 48 -70 l48 -47 175 0 175 0 47 48
c27 28 47 57 47 70 l0 22 345 0 345 0 0 -35 0 -35 65 0 65 0 0 35 c0 32 2 35
30 35 l30 0 0 130 0 130 50 0 50 0 0 94 0 94 30 7 c16 4 32 11 35 16 4 5 24 9
46 9 l39 0 0 -93 c0 -143 40 -195 130 -168 62 18 70 53 70 289 0 172 -3 202
-19 239 -16 35 -25 43 -57 49 -90 17 -124 -31 -124 -173 l0 -93 -40 0 c-22 0
-40 4 -40 9 0 4 -15 12 -32 17 l-33 10 -3 92 -3 92 -49 0 -50 0 0 135 0 135
-30 0 c-28 0 -30 3 -30 35 l0 35 -65 0 -65 0 0 -35 0 -35 -345 0 -345 0 0 23
c0 14 -18 41 -48 70 l-48 47 -175 0 -175 0 -47 -48 c-27 -28 -47 -57 -47 -70
0 -21 -4 -22 -75 -22 l-75 0 0 -55 0 -55 -55 0 -55 0 0 365 0 365 -505 0 -505
0 0 -310 0 -310 -385 0 -385 0 0 30 0 30 -210 0 -210 0 0 -30 0 -30 -1140 0
c-1121 0 -1141 0 -1177 20 -52 27 -141 27 -176 0 -25 -20 -40 -20 -1056 -20
l-1031 0 0 -55 0 -55 -310 0 -310 0 0 55 0 55 -285 0 -285 0 0 150 0 150 -184
0 c-154 0 -185 2 -190 15 -5 13 -64 15 -449 15 l-443 0 -54 55 -54 55 -518 0
-519 0 -9 -22 c-5 -15 -9 85 -9 270 l-1 292 -60 0 -60 0 0 48 0 48 103 13 c56
6 120 15 141 18 l39 6 -6 145 c-4 80 -9 147 -12 150 -2 3 -74 12 -158 20
l-154 16 -6 155 c-3 86 -38 1225 -77 2531 -39 1306 -73 2390 -76 2408 -3 18
-11 32 -18 32 -18 0 -26 22 -26 71 l0 39 -60 0 -60 0 -1 -32 c-1 -18 0 -43 0
-55 1 -11 -3 -24 -8 -28 -7 -4 -11 -49 -11 -113 0 -59 38 -1306 85 -2772 78
-2455 83 -2666 68 -2682 -15 -16 -39 -18 -259 -18 -133 0 -249 3 -258 6 -13 5
-16 22 -16 76 0 70 0 70 -25 66 -21 -4 -25 -1 -25 17 0 19 7 24 43 29 23 4 93
16 156 28 l114 21 -5 144 c-3 79 -8 146 -12 150 -3 4 -73 11 -155 17 -82 6
-152 14 -156 18 -5 5 -384 5090 -385 5166 0 6 -9 12 -19 12 -16 0 -21 10 -26
55 l-7 55 -58 0 -58 0 -7 -122z"/>
<path d="M22840 10483 c0 -1176 3 -2270 7 -2430 l6 -293 29 0 28 0 0 -137 c0
-173 3 -183 45 -183 25 0 34 5 39 23 3 12 9 259 13 550 l6 527 34 0 33 0 0
2040 0 2040 -120 0 -120 0 0 -2137z"/>
<path d="M5720 9075 l0 -105 40 0 40 0 0 105 0 105 -40 0 -40 0 0 -105z"/>
<path d="M22916 7248 c-3 -13 -6 -85 -6 -160 l0 -138 -28 0 -29 0 -6 -292 c-4
-161 -7 -1252 -7 -2424 l0 -2131 53 -7 c28 -3 82 -6 120 -6 l67 0 0 2045 0
2045 -33 0 -34 0 -6 523 c-4 287 -10 532 -13 545 -5 17 -14 22 -39 22 -25 0
-34 -5 -39 -22z"/>
<path d="M5720 5645 l0 -105 40 0 40 0 0 105 0 105 -40 0 -40 0 0 -105z"/>
</g>
</svg>
