<?xml version="1.0" standalone="no"?>
<!DOCTYPE svg PUBLIC "-//W3C//DTD SVG 20010904//EN"
 "http://www.w3.org/TR/2001/REC-SVG-20010904/DTD/svg10.dtd">
<svg version="1.0" xmlns="http://www.w3.org/2000/svg"
   viewBox="0 0 4945.000000 3914.000000"
 preserveAspectRatio="xMidYMid meet">
<metadata>
Created by potrace 1.16, written by Peter Selinger 2001-2019
</metadata>
<g transform="translate(0.000000,3914.000000) scale(0.100000,-0.100000)"
fill="#000000" stroke="none">
<path d="M7589 39118 l-11 -21 -469 7 c-403 6 -469 5 -469 -7 0 -12 -32 -15
-174 -19 -96 -2 -177 -6 -179 -8 -5 -6 -10 -486 -8 -792 l1 -198 174 0 175 0
6 -42 7 -43 349 3 349 4 0 -22 c0 -12 -4 -29 -9 -39 -9 -17 -48 -18 -570 -25
-308 -4 -573 -11 -588 -16 -16 -5 -758 -10 -1671 -13 -903 -2 -1645 -7 -1649
-11 -3 -3 -3 -9 1 -13 4 -5 751 -11 1659 -15 909 -4 1740 -12 1847 -17 107 -5
367 -10 577 -10 438 -1 403 8 403 -100 l0 -60 -42 -5 c-41 -5 -730 -27 -834
-26 -48 0 -52 -2 -70 -35 -10 -20 -28 -38 -39 -40 -11 -2 -413 -7 -894 -10
-714 -6 -879 -10 -907 -21 -28 -12 -355 -15 -2051 -19 -1110 -3 -2127 -8
-2260 -11 -224 -6 -243 -8 -243 -24 0 -16 18 -18 213 -24 116 -3 1133 -8 2258
-11 1705 -4 2053 -7 2086 -19 31 -11 212 -15 926 -21 l888 -8 22 -38 c21 -37
24 -39 72 -39 112 0 812 -21 843 -26 l32 -5 0 -72 -1 -72 -72 -32 -72 -32
-1145 -11 c-630 -5 -1220 -10 -1312 -10 -161 0 -168 -1 -168 -20 0 -19 7 -20
203 -20 111 0 703 -5 1315 -11 l1114 -10 69 -31 69 -31 0 -158 0 -159 -372 0
c-728 0 -1438 -12 -1438 -25 0 -12 809 -25 1522 -25 l288 0 0 -160 0 -160
-246 0 -245 0 -22 -50 -22 -50 -63 0 c-34 0 -1402 -40 -3039 -90 -1637 -49
-2989 -90 -3005 -90 -28 0 -28 -1 -28 -60 0 -33 3 -60 8 -60 41 1 5963 -162
6037 -166 l100 -6 23 -39 23 -39 239 0 240 0 0 -325 0 -325 -1779 0 -1778 0
-7 -37 c-3 -21 -6 -316 -6 -655 l0 -618 826 0 826 0 19 -22 c15 -20 18 -40 19
-135 l0 -113 -1755 0 -1755 0 0 -915 0 -915 1060 0 1060 0 0 -115 0 -115
-1767 0 -1766 0 6 -832 c4 -458 7 -960 7 -1115 l0 -283 2950 0 2950 0 0 -213
0 -214 178 -37 c97 -21 193 -42 212 -47 30 -8 48 -28 130 -145 l95 -136 292 5
291 4 6 -56 c3 -31 8 -90 11 -132 l6 -76 -395 -144 -396 -144 0 -592 0 -593
-37 0 c-34 0 -41 -6 -72 -50 -18 -28 -37 -50 -41 -50 -3 0 -24 25 -46 56 l-38
57 -126 -7 c-69 -3 -213 -6 -321 -6 l-197 0 -87 -117 c-49 -65 -89 -119 -90
-121 -2 -2 -85 -23 -186 -48 -101 -24 -201 -49 -221 -55 l-38 -10 0 -717 0
-718 198 -38 c108 -22 205 -42 214 -45 9 -3 59 -67 111 -141 l94 -135 325 -3
326 -2 30 71 29 71 49 -71 c46 -67 51 -71 87 -71 l37 0 0 -289 0 -289 108 -39
c59 -22 378 -138 710 -259 l602 -218 0 -58 0 -58 -469 0 -468 0 -84 -39 -84
-38 -1040 -7 c-1295 -8 -1585 -14 -1585 -32 0 -8 1 -15 3 -15 1 -1 594 -7
1317 -13 l1315 -12 77 -37 77 -37 467 0 467 0 -7 -77 c-3 -42 -6 -98 -6 -125
l0 -48 -347 0 -348 0 -53 -25 -54 -25 -969 -8 c-533 -5 -972 -12 -976 -15 -3
-4 -3 -10 1 -14 4 -4 444 -11 978 -16 l971 -8 48 -25 48 -24 347 0 347 0 -6
-171 c-3 -94 -7 -172 -9 -174 -2 -1 -403 -14 -893 -29 -489 -15 -905 -29 -923
-32 -25 -4 -37 -13 -49 -40 l-17 -34 -310 -1 c-806 -3 -1491 -15 -1520 -27
-22 -10 -540 -15 -2285 -22 -1241 -5 -2257 -9 -2258 -9 -2 -1 -3 -12 -3 -25
l0 -23 2256 -8 c1822 -5 2264 -9 2294 -20 29 -10 204 -15 771 -19 404 -4 807
-9 895 -12 l161 -6 16 -34 17 -34 82 -1 c46 0 378 -11 738 -23 l655 -23 -416
-2 c-229 0 -585 -4 -792 -8 l-377 -6 -2 -536 -3 -535 -600 -181 c-330 -99
-606 -183 -614 -186 -12 -4 -14 -121 -14 -760 l0 -754 614 -185 614 -186 3
-535 2 -536 473 -6 c259 -4 609 -8 777 -8 l305 -2 -655 -23 c-360 -12 -685
-23 -723 -23 -66 -1 -68 -1 -83 -35 l-17 -34 -241 -6 c-132 -3 -535 -8 -895
-12 -494 -4 -662 -9 -690 -19 -29 -10 -494 -14 -2294 -20 l-2257 -7 0 -24 c0
-23 3 -24 68 -24 37 -1 1053 -5 2257 -10 1680 -6 2197 -11 2220 -21 29 -11
849 -26 1581 -28 l250 -1 17 -34 c15 -33 19 -35 79 -40 35 -3 450 -17 923 -32
473 -14 861 -28 863 -29 2 -2 6 -78 9 -169 l6 -166 -337 0 -337 0 -58 -29 -58
-30 -971 -8 c-534 -4 -974 -11 -978 -15 -4 -5 -5 -11 -1 -14 3 -3 445 -10 981
-15 l976 -9 50 -25 49 -25 346 0 345 0 0 -48 c0 -27 3 -83 6 -125 l7 -77 -472
0 -471 0 -73 -37 -72 -37 -1315 -11 c-723 -7 -1316 -13 -1317 -13 -2 -1 -3 -8
-3 -16 0 -17 338 -23 1675 -32 l960 -7 77 -38 78 -39 470 0 470 0 0 -57 0 -58
-688 -249 c-378 -137 -697 -254 -709 -259 l-23 -10 0 -289 0 -288 -39 0 c-36
0 -40 -3 -86 -72 l-47 -71 -30 72 -30 71 -326 -2 -327 -3 -93 -135 c-51 -74
-101 -138 -110 -141 -9 -3 -106 -23 -214 -44 l-198 -37 0 -719 0 -718 38 -10
c20 -6 116 -29 212 -52 96 -23 180 -44 186 -48 7 -3 51 -59 99 -123 l87 -118
232 0 c128 0 273 -3 322 -6 l90 -7 39 57 c21 31 41 56 45 56 3 0 23 -22 43
-50 32 -43 42 -50 72 -50 l35 0 2 -592 3 -592 275 -101 c151 -56 328 -121 393
-144 l118 -44 -6 -76 c-3 -42 -8 -100 -11 -128 l-5 -53 -292 0 -292 0 -90
-127 c-49 -69 -93 -131 -96 -136 -5 -7 -394 -97 -421 -97 -5 0 -8 -94 -8 -210
l0 -210 -2950 0 -2950 0 0 -287 c0 -159 -3 -663 -7 -1120 l-6 -833 1766 0
1767 0 0 -115 0 -115 -1060 0 -1060 0 0 -917 0 -916 1753 4 1752 4 3 -113 c2
-95 0 -116 -15 -137 l-18 -24 -827 -1 -828 0 0 -619 c0 -340 3 -633 6 -650 l6
-31 1779 0 1779 0 0 -330 0 -330 -240 0 -239 0 -23 -39 -22 -39 -131 -6 c-71
-4 -1374 -40 -2895 -81 -1521 -41 -2845 -77 -2942 -81 l-178 -7 0 -58 0 -59
43 0 c23 0 1380 -41 3016 -90 1636 -50 2998 -90 3026 -90 l51 0 21 -50 21 -50
246 0 246 0 0 -160 0 -160 -357 0 c-725 0 -1453 -13 -1453 -25 0 -12 797 -25
1513 -25 l297 0 0 -157 -1 -158 -72 -32 -72 -32 -1175 -11 c-646 -5 -1237 -10
-1312 -10 -131 0 -138 -1 -138 -20 0 -19 7 -20 233 -20 127 0 718 -5 1312 -10
l1080 -10 73 -32 72 -31 0 -73 0 -73 -52 -5 c-49 -5 -741 -27 -835 -26 -38 0
-44 -4 -59 -33 -9 -17 -21 -35 -26 -38 -5 -3 -408 -9 -895 -13 -715 -6 -893
-11 -925 -22 -33 -11 -412 -15 -2294 -20 l-2254 -7 0 -22 0 -23 463 -6 c254
-3 1270 -8 2258 -11 1504 -4 1802 -7 1835 -19 32 -11 207 -15 927 -21 l888 -8
21 -37 22 -37 460 -14 461 -14 3 -62 c5 -112 45 -103 -441 -103 -232 -1 -498
-6 -592 -11 -97 -6 -869 -14 -1807 -17 -900 -4 -1640 -10 -1644 -15 -4 -4 -5
-10 -2 -13 3 -3 743 -7 1644 -10 902 -3 1657 -9 1679 -14 22 -5 289 -12 593
-16 516 -6 554 -8 562 -25 6 -10 10 -28 10 -40 l0 -22 -349 5 -349 4 -6 -37
c-7 -46 -20 -49 -212 -49 l-144 0 -1 -197 c-2 -254 2 -787 6 -791 1 -2 82 -6
179 -9 141 -5 176 -9 176 -20 0 -12 63 -13 403 -8 221 3 430 8 464 10 57 5 62
4 81 -22 l19 -26 2239 16 c1231 9 2432 20 2667 23 l428 7 24 47 24 48 233 6
c128 4 638 13 1133 21 495 8 1009 17 1142 21 l241 6 7 44 c4 32 11 44 23 44
134 -2 7299 243 7330 250 23 5 143 10 267 10 l225 0 0 54 0 53 -67 6 c-38 4
-150 7 -250 7 l-183 0 0 25 c0 17 -5 25 -17 25 -10 -1 -1658 43 -3663 96
-2376 64 -3647 101 -3652 108 -4 5 -10 31 -13 57 l-7 47 -349 7 -349 7 0 104
0 104 65 0 65 0 0 979 0 979 -65 7 -65 7 0 407 c0 224 -3 470 -7 545 l-6 137
-1419 -7 -1419 -7 26 59 c15 32 42 96 61 140 l35 82 102 6 c56 3 275 11 487
17 355 11 385 13 400 31 14 17 47 19 515 29 275 6 1153 14 1950 18 798 4 1451
8 1453 9 21 16 -212 20 -1425 26 -786 4 -1489 11 -1563 16 -74 6 -311 10 -526
10 -387 0 -392 0 -406 21 -13 20 -26 21 -403 35 -215 7 -411 13 -437 14 l-47
0 15 38 c9 20 19 40 22 43 4 4 270 14 592 24 322 9 595 18 608 21 12 2 27 15
33 28 l11 23 621 5 c424 4 631 9 650 17 20 8 311 11 1016 11 1530 0 2671 11
2671 25 0 10 -417 14 -1837 20 -1011 4 -1848 11 -1859 16 -12 4 -301 11 -642
15 l-620 7 -13 24 c-7 12 -22 23 -33 24 -12 0 -254 8 -538 17 -284 10 -520 20
-523 24 -4 4 5 37 21 73 l28 65 279 0 278 0 59 30 59 30 378 0 c777 0 1563 13
1563 25 0 13 -746 25 -1527 25 l-414 0 -59 30 -59 30 -242 0 c-141 0 -239 4
-237 9 2 5 271 631 598 1392 l595 1383 3 -212 2 -212 2420 0 2420 0 0 313 c0
171 3 491 7 710 l6 397 -890 0 c-856 0 -891 1 -907 19 -14 15 -16 37 -14 142
l3 124 1908 -3 1907 -4 0 465 0 464 1233 7 c677 3 1334 9 1458 12 l226 7 22
43 c11 24 25 44 31 44 6 0 1350 40 2987 90 1637 49 3011 90 3055 90 l78 0 0
59 0 59 -112 6 c-62 3 -1442 42 -3067 86 -1625 44 -2958 83 -2963 86 -4 3 -17
23 -28 45 l-20 39 -236 0 -236 0 6 23 c3 12 6 32 6 45 l0 22 309 0 309 0 65
29 65 29 976 8 c810 6 976 9 976 20 0 11 -26 14 -117 15 -65 0 -505 4 -978 9
l-860 8 -58 26 -58 26 -304 0 c-197 0 -305 4 -305 10 0 6 59 10 157 10 l157 0
69 68 68 67 1207 6 c780 4 1216 3 1232 -3 25 -10 515 -4 673 9 l77 6 0 43 c0
24 -1 45 -2 45 -2 1 -165 7 -363 14 -272 9 -366 9 -385 0 -19 -8 -329 -9
-1234 -4 l-1209 8 -66 65 -67 66 -137 0 -137 0 0 39 c0 21 3 53 6 70 l7 31
227 0 c206 0 232 2 271 20 42 19 67 20 495 20 497 0 934 9 934 20 0 4 -312 10
-694 13 -664 7 -697 8 -741 27 -42 18 -69 20 -267 20 l-219 0 6 53 c3 28 46
472 95 985 48 514 90 935 92 936 1 2 566 -1 1254 -7 l1252 -11 4 -48 c3 -27 7
-50 9 -53 3 -2 468 -83 1034 -179 l1030 -175 2715 -215 2716 -215 2109 -731
2110 -731 1120 -25 1120 -26 1675 -167 1675 -168 1410 63 c776 35 1430 63
1454 63 l44 1 -6 300 c-3 165 -2 300 1 300 22 2 168 22 302 43 l155 23 636
420 635 420 562 438 c393 305 571 449 590 478 22 35 26 51 24 97 -2 47 25 151
166 642 l168 585 -165 727 -166 726 -580 397 c-319 218 -870 588 -1225 822
l-645 426 -230 104 c-126 57 -232 106 -234 108 -3 3 10 102 28 220 18 119 30
219 26 222 -3 4 -666 12 -1473 19 l-1467 12 -1668 -124 -1667 -125 -1132 -16
-1133 -15 -2110 -524 -2110 -524 -2730 -80 -2730 -81 -995 -170 c-547 -93
-1005 -172 -1017 -175 -17 -4 -24 -15 -29 -45 l-7 -40 -106 0 c-58 0 -990 11
-2071 25 l-1965 25 -3854 -95 c-3759 -93 -3878 -95 -4819 -95 l-964 0 -239
164 c-199 136 -246 173 -278 217 l-39 54 1082 -32 c594 -17 1136 -32 1204 -32
l122 -1 0 595 0 595 88 0 c48 0 454 -7 902 -16 l816 -16 454 190 c250 104 699
289 998 412 l542 223 0 48 c0 41 9 63 66 158 l67 111 -67 111 c-57 95 -66 117
-66 158 l0 48 -577 238 c-318 131 -767 317 -997 413 l-420 174 -845 -16 c-466
-9 -872 -16 -903 -16 l-58 0 -2 598 -3 597 -1095 -32 c-602 -18 -1141 -31
-1197 -30 l-103 2 33 47 c26 38 80 81 274 213 l241 165 984 0 c963 0 1062 -2
4828 -95 l3845 -94 1905 24 c1048 14 1975 25 2061 25 l156 0 7 -40 c5 -30 12
-41 29 -45 12 -3 471 -82 1020 -175 l998 -170 2729 -80 2728 -80 2109 -524
2108 -524 1135 -16 1135 -16 1665 -124 1665 -124 1467 12 c807 7 1470 15 1474
18 3 4 -9 103 -27 222 -18 118 -31 218 -28 220 2 3 108 51 234 108 l230 104
665 440 c366 242 917 612 1225 823 l560 382 166 727 165 726 -168 586 c-142
495 -168 594 -166 642 3 49 -1 62 -28 100 -22 31 -205 179 -605 489 l-574 445
-620 409 -620 409 -150 24 c-145 22 -277 41 -302 42 -9 0 -10 74 -6 300 l6
300 -29 1 c-16 0 -670 28 -1454 63 l-1425 63 -1680 -167 -1680 -168 -1115 -25
-1115 -25 -2110 -731 -2110 -731 -2720 -216 -2720 -215 -1024 -175 c-564 -96
-1026 -176 -1029 -179 -2 -2 -7 -24 -9 -50 -3 -25 -6 -46 -7 -46 -2 -3 -2501
-26 -2504 -23 -2 1 -43 422 -92 935 -49 514 -92 958 -95 987 l-6 52 221 0
c204 0 224 2 261 21 40 20 59 21 740 26 384 4 699 9 699 13 0 12 -325 20 -856
20 -499 0 -524 1 -565 20 -40 18 -66 20 -275 20 l-231 0 -7 31 c-3 17 -6 49
-6 70 l0 39 137 0 137 0 67 66 66 66 1209 8 c916 5 1215 4 1234 -4 19 -9 110
-9 385 0 198 6 361 12 363 13 1 1 2 21 2 45 l0 44 -52 6 c-106 11 -684 19
-704 9 -12 -7 -433 -8 -1227 -3 l-1208 6 -67 67 -68 67 -157 0 c-98 0 -157 4
-157 10 0 6 108 10 305 10 l306 0 52 27 52 27 795 7 c437 4 879 8 983 8 151 1
187 4 187 15 0 11 -159 15 -977 21 l-976 7 -61 29 -61 29 -312 0 -313 0 0 23
c0 12 -3 32 -6 43 -6 21 -4 21 234 29 l240 7 17 38 17 37 171 7 c95 4 1414 40
2932 81 1518 41 2824 77 2903 81 l142 6 0 59 0 59 -65 0 c-36 0 -1405 41
-3042 90 -1637 50 -2987 90 -3000 90 -18 0 -28 10 -45 44 l-21 44 -131 6 c-72
3 -698 8 -1391 11 -693 3 -1290 8 -1327 11 l-68 6 0 460 0 460 -1907 -3 -1908
-3 -3 123 c-2 105 0 127 14 142 16 18 51 19 907 19 l890 0 -6 398 c-4 218 -7
538 -7 710 l0 312 -2420 0 -2420 0 -2 -211 -3 -212 -595 1383 c-327 760 -596
1386 -598 1391 -2 5 98 9 231 9 l235 0 67 30 67 30 337 0 c186 0 622 3 969 7
517 5 632 9 632 20 0 10 -49 13 -252 14 -139 1 -579 4 -978 8 l-725 7 -52 27
-52 27 -279 0 -278 0 -28 66 c-15 37 -23 70 -19 74 4 4 195 12 423 19 228 6
470 14 537 18 112 5 122 7 131 28 l10 22 623 8 c343 4 633 11 645 15 12 5 848
12 1858 16 1401 5 1836 10 1836 19 0 16 -943 25 -2497 25 -845 0 -1169 3
-1190 11 -19 8 -220 14 -646 18 -597 6 -619 7 -633 25 -8 11 -14 23 -14 26 0
4 -275 15 -611 25 l-611 19 -18 40 c-9 23 -14 42 -11 43 3 1 199 9 436 17 406
14 430 16 445 35 14 19 32 20 435 25 231 3 755 9 1165 15 410 5 1099 10 1533
10 691 1 787 3 787 16 0 13 -172 15 -1442 19 -794 2 -1672 9 -1953 15 -476 11
-511 13 -525 31 -14 17 -45 19 -380 29 -201 6 -420 14 -487 17 l-121 6 -61
141 -61 140 1419 -6 1418 -6 6 136 c4 75 7 319 7 543 l0 408 31 6 c17 3 47 6
65 6 l34 0 0 980 0 980 -65 0 -65 0 0 103 0 104 218 6 c119 4 276 7 349 7
l131 0 7 48 c3 26 9 53 13 59 5 7 1200 42 3632 107 1994 53 3642 97 3663 96
33 0 37 3 37 25 l0 25 153 0 c83 0 196 3 250 7 l97 6 0 54 0 53 -202 0 c-111
0 -238 5 -282 11 -63 8 -7132 249 -7313 249 -42 0 -42 0 -48 44 l-7 44 -191 6
c-106 3 -606 13 -1112 21 -506 8 -1038 18 -1183 21 l-263 7 -25 48 c-13 27
-25 49 -27 49 -11 3 -4654 39 -4949 40 -387 0 -387 0 -399 -22z m-346 -5513
c15 -21 17 -42 15 -137 l-3 -113 -395 -3 c-217 -2 -594 0 -837 4 l-443 6 0
110 c0 88 3 114 18 133 l17 24 805 0 805 0 18 -24z m415 -102 c12 -71 22 -134
22 -141 0 -10 -32 -12 -142 -10 l-143 3 -3 115 c-4 163 -6 160 133 160 l111 0
22 -127z m-1068 -2088 l0 -115 -1195 0 -1195 0 0 115 0 115 1195 0 1195 0 0
-115z m834 63 c3 -29 7 -81 10 -115 l4 -63 -359 0 -359 0 0 115 0 115 349 0
350 0 5 -52z m9370 -1627 c14 -15 16 -37 14 -142 l-3 -124 -642 -3 -643 -2 0
145 0 145 628 0 c601 0 630 -1 646 -19z m4366 -1866 c0 -15 -51 -567 -56 -602
l-5 -43 -1320 0 -1319 0 0 122 c0 99 3 125 17 140 15 17 64 18 1155 18 l1138
0 0 185 0 185 195 0 c107 0 195 -2 195 -5z m-5602 -377 c8 -8 12 -54 12 -140
l0 -128 -74 0 -73 0 -61 140 -60 140 122 0 c82 0 126 -4 134 -12z m2744 -5
c16 -14 18 -33 18 -140 l0 -123 -1305 0 -1305 0 0 122 c0 99 3 125 17 140 15
17 68 18 1286 18 1168 0 1272 -1 1289 -17z m-2732 -15925 c-1 -86 -5 -128 -14
-140 -11 -15 -31 -18 -134 -18 l-120 0 60 140 61 140 73 0 74 0 0 -122z m2750
0 c0 -99 -3 -125 -17 -140 -15 -17 -68 -18 -1286 -18 -1168 0 -1272 1 -1289
17 -16 14 -18 33 -18 140 l0 123 1305 0 1305 0 0 -122z m2784 80 c5 -36 56
-588 56 -603 0 -3 -88 -5 -195 -5 l-195 0 0 185 0 185 -1137 0 c-1043 0 -1138
1 -1155 17 -16 14 -18 33 -18 140 l0 123 1319 0 1320 0 5 -42z m-4294 -2325
c0 -104 -3 -130 -17 -145 -15 -17 -48 -18 -645 -18 l-628 0 0 145 0 145 645 0
645 0 0 -127z m-10220 -1708 l0 -115 -1195 0 -1195 0 0 115 0 115 1195 0 1195
0 0 -115z m845 68 c-3 -27 -7 -78 -11 -115 l-6 -68 -349 0 -349 0 0 115 0 115
360 0 359 0 -4 -47z m-177 -2121 c2 -95 0 -116 -15 -137 l-18 -24 -803 -1
-804 0 -19 23 c-15 18 -18 39 -19 133 0 61 3 114 7 117 3 4 380 6 837 5 l831
-3 3 -113z m422 111 c0 -5 -9 -68 -21 -140 l-22 -133 -110 0 c-93 0 -112 3
-123 18 -14 18 -20 242 -7 255 9 10 283 9 283 0z"/>
</g>
</svg>
