<?xml version="1.0" standalone="no"?>
<!DOCTYPE svg PUBLIC "-//W3C//DTD SVG 20010904//EN"
 "http://www.w3.org/TR/2001/REC-SVG-20010904/DTD/svg10.dtd">
<svg version="1.0" xmlns="http://www.w3.org/2000/svg"
   viewBox="0 0 4840.000000 4574.000000"
 preserveAspectRatio="xMidYMid meet">
<metadata>
Created by potrace 1.16, written by Peter Selinger 2001-2019
</metadata>
<g transform="translate(0.000000,4574.000000) scale(0.100000,-0.100000)"
fill="#000000" stroke="none">
<path d="M735 45728 c-3 -7 -16 -47 -28 -89 l-24 -76 83 -105 84 -106 -424
-1338 -425 -1339 195 -456 c181 -424 200 -465 272 -567 133 -191 5081 -6341
6116 -7602 l988 -1205 354 -355 354 -356 -4 -453 -5 -453 34 -124 c19 -67 35
-125 35 -127 0 -3 -774 -315 -1721 -693 l-1721 -689 -916 -1185 c-587 -759
-933 -1216 -963 -1270 -46 -81 -59 -126 -307 -1060 l-260 -975 -22 -435 c-22
-416 -22 -464 -12 -1117 8 -490 8 -876 0 -1370 -10 -653 -9 -709 11 -1113 l22
-425 260 -979 c218 -819 266 -990 297 -1048 22 -42 408 -551 963 -1271 l927
-1200 1715 -686 c944 -378 1719 -689 1722 -692 3 -4 -10 -62 -29 -131 l-35
-124 5 -454 4 -454 -359 -361 -359 -360 -968 -1180 c-975 -1189 -6000 -7434
-6131 -7620 -63 -90 -89 -146 -266 -559 l-196 -459 424 -1339 425 -1338 -84
-106 -83 -106 28 -86 c18 -58 32 -86 41 -85 28 5 453 175 467 186 10 9 570
644 576 654 1 2 93 -33 205 -77 113 -44 210 -78 217 -76 53 21 130 104 362
391 653 809 1177 1374 1755 1891 55 49 672 708 1371 1464 l1272 1375 72 30 71
30 569 665 c469 549 1084 1236 1557 1740 15 17 26 44 31 75 6 46 20 64 231
312 l224 263 170 0 c159 0 171 1 216 24 120 62 537 521 921 1014 l146 188 66
-16 c63 -16 71 -16 270 11 112 16 209 29 214 29 6 0 47 33 91 73 l81 72 617
250 616 250 547 445 548 446 342 493 342 493 333 219 c332 218 333 219 388
219 308 -1 3551 -229 4805 -339 163 -14 823 47 1382 128 370 54 478 73 497 87
14 11 259 210 545 443 l520 425 2328 801 c3720 1281 5901 2018 6002 2030 40 4
519 161 1349 440 l1287 433 458 211 459 212 2081 119 2082 119 187 40 187 40
4253 246 c2339 135 4272 248 4296 251 l42 5 0 135 0 134 -35 0 c-45 0 -3545
-197 -3647 -206 -77 -6 -78 -6 -78 17 0 13 -4 30 -9 38 -8 13 -366 -6 -2515
-128 -1386 -79 -2534 -140 -2569 -137 -206 19 -371 14 -1662 -47 -737 -35
-1341 -63 -1342 -63 0 1 589 248 1310 550 l1312 549 1090 559 1090 559 380
481 c209 264 384 486 388 494 4 8 61 259 126 559 l118 545 -119 551 -119 551
-389 491 -389 491 -1076 552 -1076 552 -1319 553 c-726 304 -1319 554 -1317
555 1 1 640 -28 1419 -64 1352 -63 1422 -65 1499 -50 79 15 148 11 2592 -128
1382 -79 2524 -144 2539 -144 23 0 28 5 34 35 3 19 11 35 18 35 6 0 843 -47
1861 -105 1017 -58 1858 -105 1868 -105 16 0 17 11 15 137 l-3 138 -4280 247
-4280 247 -190 41 -190 40 -2090 120 -2090 120 -465 214 -465 214 -1280 430
c-704 236 -1305 433 -1335 436 -30 4 -80 14 -110 23 -193 53 -8078 2749 -8215
2808 -16 7 -272 210 -567 452 l-537 438 -479 68 c-365 52 -576 77 -887 103
-225 18 -425 31 -444 29 -62 -9 -1776 -141 -2706 -209 -489 -36 -1183 -82
-1542 -102 l-652 -37 -338 223 -338 223 -330 479 c-181 263 -346 494 -365 512
-19 19 -270 225 -557 458 l-521 424 -614 248 c-551 224 -618 254 -667 295
-130 111 -97 98 -333 131 -200 28 -216 29 -268 15 -30 -8 -60 -15 -67 -15 -6
0 -74 80 -149 178 -372 480 -801 954 -916 1013 -57 29 -60 29 -226 29 l-168 0
-224 262 c-210 246 -224 266 -233 314 -8 51 -18 62 -504 590 -334 364 -684
759 -1075 1215 l-579 677 -70 28 -70 29 -1272 1375 c-904 978 -1309 1409
-1401 1490 -365 326 -897 875 -1246 1285 -117 138 -331 396 -475 575 -242 300
-336 400 -374 400 -6 0 -97 -34 -204 -75 -106 -41 -198 -75 -204 -75 -6 0
-140 147 -298 328 l-287 327 -236 93 c-130 50 -237 92 -239 92 -2 0 -6 -6 -8
-12z"/>
</g>
</svg>
