<?xml version="1.0" standalone="no"?>
<!DOCTYPE svg PUBLIC "-//W3C//DTD SVG 20010904//EN"
 "http://www.w3.org/TR/2001/REC-SVG-20010904/DTD/svg10.dtd">
<svg version="1.0" xmlns="http://www.w3.org/2000/svg"
   viewBox="0 0 3781.000000 4821.000000"
 preserveAspectRatio="xMidYMid meet">
<metadata>
Created by potrace 1.16, written by Peter Selinger 2001-2019
</metadata>
<g transform="translate(0.000000,4821.000000) scale(0.100000,-0.100000)"
fill="#000000" stroke="none">
<path d="M10710 48179 c-97 -28 -109 -34 -160 -83 -52 -50 -61 -55 -150 -76
-52 -12 -99 -26 -103 -30 -5 -4 -64 -405 -133 -891 l-125 -884 8 -260 8 -259
95 -29 c52 -16 96 -30 98 -32 3 -3 -977 -5007 -981 -5011 -1 -1 -526 14 -1167
33 l-1165 36 -661 -212 -662 -211 -144 0 -145 0 -6 -142 c-9 -185 -9 -2580 0
-2764 l6 -141 146 -7 146 -7 665 -204 665 -204 1155 34 c635 18 1156 31 1158
30 2 -2 -2 -322 -7 -711 -6 -390 -11 -852 -11 -1026 l0 -318 -207 -1 c-115 -1
-277 -4 -361 -8 l-153 -6 -289 -259 c-160 -142 -290 -261 -290 -265 0 -4 43
-32 96 -62 53 -29 98 -59 101 -66 4 -10 -260 -1063 -655 -2608 l-158 -620 -79
-5 -79 -5 -31 -125 -31 -125 -105 -3 c-57 -1 -315 -6 -574 -10 l-470 -9 -390
-147 c-214 -81 -396 -151 -403 -155 -26 -15 -321 -647 -410 -881 l-90 -235
-485 -3 -485 -2 -100 252 c-54 139 -105 270 -113 291 -13 37 -14 37 -54 32
-22 -3 -492 -48 -1044 -100 -552 -52 -1005 -96 -1007 -98 -2 -1 -10 -58 -18
-126 -8 -68 -17 -125 -18 -127 -12 -12 -556 -59 -901 -79 -230 -13 -421 -26
-425 -30 -9 -9 -9 -2171 0 -2181 4 -4 304 -23 667 -43 l658 -35 17 -146 c10
-79 19 -146 20 -147 3 -4 2025 -163 2065 -163 27 0 29 4 138 298 l110 297 492
3 491 2 0 -795 0 -795 -488 0 -489 0 -113 288 c-62 158 -114 288 -115 289 -3
4 -2086 -194 -2090 -199 -2 -2 -11 -57 -19 -122 -8 -65 -17 -120 -20 -123 -14
-14 -560 -63 -921 -83 -220 -12 -402 -24 -405 -27 -8 -8 -13 -1790 -5 -1999
l7 -190 660 -36 c363 -20 661 -38 663 -40 2 -1 11 -66 19 -142 9 -77 19 -142
22 -145 4 -5 2087 -171 2090 -167 0 0 38 102 84 226 45 124 96 260 112 303
l30 77 489 0 489 0 0 -730 0 -730 -489 0 -488 0 -62 158 c-169 432 -165 422
-186 421 -51 -1 -2065 -195 -2069 -200 -3 -2 -12 -60 -20 -128 -8 -68 -17
-125 -18 -126 -17 -11 -591 -59 -914 -77 l-412 -22 -7 -180 c-8 -201 -3 -2001
5 -2010 4 -4 1245 -76 1311 -76 13 0 19 -27 33 -147 10 -82 18 -148 19 -149 5
-3 2090 -164 2092 -162 1 2 53 139 115 306 l112 302 491 -2 491 -3 36 -175
c25 -119 71 -280 144 -505 59 -181 110 -333 114 -337 4 -3 174 -94 377 -201
l371 -194 579 -97 c319 -54 580 -98 581 -99 2 -3 561 -4432 560 -4433 0 -1
-221 -7 -491 -13 -470 -12 -737 -27 -931 -52 -89 -11 -90 -11 -109 -47 -22
-41 -44 -49 -142 -51 -61 -1 -63 0 -63 24 0 14 -7 28 -16 32 -8 3 -124 -4
-257 -16 -199 -17 -260 -27 -342 -51 -55 -17 -130 -40 -167 -50 -65 -20 -67
-21 -112 -94 l-46 -74 0 -102 0 -101 46 -65 c43 -60 49 -65 112 -84 37 -10
112 -33 167 -50 88 -26 130 -32 342 -46 132 -9 248 -14 257 -11 10 4 16 18 16
37 l0 31 53 -6 c141 -16 133 -13 152 -54 l17 -39 112 -7 c61 -3 181 -15 266
-25 95 -12 367 -27 705 -41 303 -12 551 -23 553 -24 1 -1 23 -161 48 -356 25
-194 46 -354 47 -355 1 -1 630 -293 1397 -649 767 -356 1400 -652 1406 -658 6
-7 386 -2194 844 -4862 457 -2667 834 -4862 837 -4877 5 -28 5 -28 -53 -28
-33 0 -83 -3 -111 -6 l-53 -7 0 -373 0 -374 319 0 320 0 119 -152 119 -153
1277 0 1277 1 111 142 c110 141 111 142 151 142 23 0 87 18 150 42 106 41 113
46 161 105 l51 63 75 0 c41 0 892 16 1890 35 l1815 34 100 24 c98 24 126 25
1470 63 754 21 1363 40 1355 41 -8 2 -629 19 -1379 38 -1358 35 -1364 35
-1475 60 l-111 25 -1867 28 c-1027 15 -1869 30 -1871 32 -3 3 23 388 57 855
l61 850 -97 3 -98 3 5 42 c3 23 125 1876 271 4117 147 2241 269 4077 271 4080
3 3 101 4 219 4 153 -1 214 2 214 10 0 45 71 871 75 875 3 2 178 16 389 31
l384 25 6 -59 c3 -33 7 -60 9 -62 1 -1 342 43 757 98 l755 101 303 195 302
195 0 53 0 54 94 0 c51 0 108 3 125 6 31 6 32 5 63 -66 l32 -73 266 7 c146 3
347 9 446 12 l181 7 23 64 c13 36 28 67 35 70 7 2 241 10 519 16 l506 12 0
-52 0 -53 94 0 c103 0 106 2 106 72 0 15 4 29 9 32 8 5 1043 36 1212 36 l89 0
0 -50 0 -50 90 0 90 0 0 55 0 55 38 0 c67 0 2074 49 2204 54 l127 4 7 -44 6
-44 79 0 c85 0 81 -3 91 65 3 18 13 21 113 26 61 4 308 10 550 13 242 4 452 9
468 12 25 5 27 3 27 -28 0 -76 1 -76 108 -70 54 3 100 10 104 16 4 6 10 28 13
48 5 30 11 38 28 38 12 0 238 7 502 15 264 8 488 15 498 15 16 0 17 -16 17
-190 l0 -189 33 -5 c17 -3 183 -19 367 -36 l335 -31 1130 90 c622 50 1175 97
1230 105 55 9 300 56 545 106 1558 318 1921 391 2410 485 801 153 780 150
1251 205 370 43 477 59 724 111 160 33 298 63 308 65 13 4 17 16 17 59 0 48
-3 55 -22 60 -13 3 -149 32 -303 64 -238 51 -344 67 -710 110 -236 28 -495 62
-575 76 -189 33 -1254 238 -1435 275 -544 114 -2118 432 -2196 445 -52 8 -606
56 -1230 105 l-1134 91 -350 -31 c-192 -17 -360 -33 -372 -36 -23 -4 -23 -5
-23 -194 0 -105 -3 -190 -7 -190 -5 0 -224 7 -488 15 -264 8 -494 15 -511 15
-29 0 -33 4 -43 44 l-11 44 -97 4 c-60 2 -101 -1 -105 -7 -4 -5 -8 -29 -8 -52
0 -28 -4 -43 -12 -43 -7 0 -265 7 -572 15 -425 11 -562 18 -568 27 -4 7 -8 27
-8 44 l0 31 -82 5 c-46 3 -85 4 -86 3 -2 -2 -6 -22 -9 -46 l-6 -42 -201 7
c-111 3 -601 15 -1091 26 -489 11 -932 23 -982 26 l-93 6 0 43 c0 41 -1 43
-37 49 -21 3 -62 6 -90 6 l-53 0 0 -51 0 -50 -152 6 c-84 3 -376 10 -648 16
-357 8 -497 14 -502 22 -4 7 -8 29 -8 50 l0 37 -62 0 c-35 0 -80 3 -100 6
l-38 7 0 -57 0 -57 -232 7 c-128 3 -363 9 -523 13 l-290 6 -17 68 c-9 38 -18
70 -20 72 -8 8 -882 25 -888 18 -4 -4 -17 -36 -30 -70 l-22 -63 -58 0 c-31 0
-91 3 -133 6 l-77 7 0 56 -1 56 -301 198 -302 198 -755 104 c-416 57 -757 102
-758 101 -2 -1 -6 -29 -9 -62 l-6 -59 -354 21 c-195 11 -356 23 -358 25 -5 5
291 4122 300 4177 l5 32 418 0 417 0 19 135 c10 74 22 140 26 146 5 8 220 23
700 50 636 35 734 43 1169 94 347 40 777 79 1595 145 616 49 1131 91 1145 92
20 3 26 10 31 41 3 20 9 40 12 43 9 10 596 59 604 51 4 -4 9 -33 11 -65 l4
-57 137 12 c75 6 153 12 174 12 l37 1 0 70 c0 54 3 70 14 70 28 0 602 50 628
54 23 5 31 -2 60 -46 18 -28 35 -55 38 -59 3 -5 397 34 875 86 479 52 878 95
888 95 16 0 17 44 17 775 0 733 -1 775 -18 775 -18 0 -1647 176 -1717 185
l-41 6 -39 -82 -40 -81 -50 6 c-27 3 -162 15 -300 26 -137 11 -265 23 -282 26
l-33 5 0 64 c0 55 -3 65 -17 65 -22 0 -232 18 -290 25 l-43 5 0 -48 c0 -80 14
-77 -271 -53 -381 33 -347 25 -355 77 -6 42 -8 43 -48 49 -22 3 -399 37 -836
75 -491 44 -1097 105 -1585 161 l-790 90 -689 38 c-482 27 -690 42 -695 50 -4
7 -16 66 -26 132 l-18 119 -544 -7 -543 -6 0 51 0 52 543 0 543 0 18 128 c10
70 20 136 22 147 5 20 25 22 692 58 638 35 724 42 1202 97 381 43 795 81 1590
144 591 47 1094 88 1118 92 38 5 42 8 42 32 0 15 4 33 8 40 6 8 104 21 308 41
164 16 301 27 303 25 3 -3 7 -31 9 -64 3 -47 8 -60 21 -60 31 0 286 21 309 26
20 4 22 10 22 69 0 61 1 65 23 65 26 0 530 47 598 56 l46 5 38 -59 c37 -57 40
-59 74 -55 20 3 419 46 886 97 l850 92 3 772 c1 425 0 772 -2 772 -11 0 -1707
180 -1737 184 l-35 6 -39 -80 -39 -79 -40 5 c-40 5 -603 54 -618 54 -4 0 -8
29 -8 63 l0 64 -127 12 c-71 6 -149 14 -174 17 l-46 6 -5 -56 c-3 -31 -7 -58
-10 -61 -3 -3 -132 6 -286 20 -155 14 -290 25 -301 25 -15 0 -21 11 -27 47
l-9 48 -840 72 c-625 54 -1048 97 -1655 168 l-815 94 -660 36 c-397 21 -662
40 -665 46 -4 5 -15 64 -25 131 l-19 121 -558 -7 -558 -8 0 121 0 121 558 0
558 0 19 135 c10 74 22 139 25 145 3 5 305 25 670 45 613 33 706 40 1190 95
378 44 837 85 1642 150 615 50 1122 90 1128 90 5 0 10 15 10 33 0 17 4 37 8
44 7 12 600 69 610 58 3 -3 8 -33 10 -66 l5 -61 36 5 c20 3 98 11 174 18 l137
13 0 66 0 66 279 23 c154 12 304 25 334 28 l54 5 39 -56 c21 -31 45 -56 53
-56 17 0 1659 178 1719 186 l42 6 0 769 c0 423 -1 769 -2 770 -2 0 -401 44
-888 98 l-885 97 -37 -78 c-26 -55 -42 -78 -55 -78 -10 0 -161 12 -335 27
l-317 27 -3 65 -3 66 -130 12 c-71 6 -149 12 -171 12 l-42 1 -4 -55 c-3 -30
-7 -57 -9 -58 -3 -3 -599 48 -606 52 -1 1 -5 21 -9 46 -4 28 -11 45 -20 45 -7
0 -391 34 -851 75 -508 45 -1147 110 -1623 165 l-785 90 -680 36 c-374 21
-681 38 -683 40 -2 1 -13 60 -24 131 l-21 128 -711 -7 c-391 -4 -712 -5 -714
-4 -1 2 -139 993 -305 2202 l-302 2198 -311 261 -312 262 -98 6 c-55 4 -155 7
-224 7 -69 0 -135 3 -147 6 l-23 6 0 813 0 813 -62 7 c-35 3 -91 11 -124 17
-61 9 -62 10 -68 46 -3 20 -6 106 -6 190 l0 152 123 0 c67 0 385 7 707 15 322
8 645 15 718 15 l132 0 0 205 0 205 140 0 140 0 0 80 0 80 790 0 790 0 0 119
0 119 43 -4 c54 -5 779 -54 800 -54 14 0 17 -17 19 -112 l3 -113 280 -43 280
-42 2030 -129 c1117 -70 2031 -127 2032 -126 2 1 6 67 9 147 l7 145 176 48
c97 27 180 52 186 57 15 13 34 291 34 504 l1 191 68 7 c37 4 137 16 222 28
l155 21 1743 -12 1743 -12 163 63 162 63 65 82 c62 79 66 82 115 88 28 4 91 2
139 -4 62 -8 98 -8 120 0 19 6 922 26 2480 54 l2450 44 115 31 115 31 1884 57
c1036 31 1871 60 1855 64 -16 3 -860 27 -1875 53 l-1847 47 -133 33 -134 34
-2505 36 c-1378 19 -2552 39 -2610 43 l-104 7 -63 90 c-35 49 -69 92 -76 96
-6 4 -81 28 -165 54 l-153 47 -1821 -13 c-1805 -12 -1836 -11 -2065 17 l-43 5
0 177 c0 213 -19 493 -34 509 -6 6 -90 33 -186 60 l-175 50 -7 54 c-3 30 -6
96 -7 147 l-1 94 -62 -6 c-35 -4 -954 -63 -2043 -131 -1825 -115 -2000 -128
-2230 -160 -137 -20 -262 -38 -277 -41 l-28 -6 0 -108 0 -109 -32 -5 c-18 -3
-267 -24 -553 -46 -511 -41 -525 -41 -827 -34 l-308 7 0 138 0 139 -1335 0
-1335 0 -5 23 c-17 79 -108 865 -180 1557 -101 973 -91 900 -114 900 -14 0
-20 10 -25 43 -3 23 -100 787 -216 1697 -171 1346 -306 2367 -334 2530 l-5 25
704 -3 703 -4 89 31 c78 29 91 37 118 76 l29 44 81 5 c44 3 460 15 925 26 744
18 856 23 940 40 83 17 195 22 860 40 1254 34 1247 31 155 61 -880 24 -967 28
-1045 47 -79 19 -144 22 -930 37 -465 8 -875 15 -911 15 l-66 0 -35 53 c-33
49 -39 53 -120 80 l-84 27 -746 -7 -745 -6 -13 89 c-7 49 -22 153 -34 231
l-21 142 -153 154 -153 154 -157 32 -157 31 -1145 -1 -1145 -1 -105 -29z
m-3802 -18293 c1 -2 -14 -71 -35 -154 l-37 -150 -45 -4 c-37 -4 -105 -40 -355
-186 l-309 -182 -380 0 c-320 0 -378 2 -363 13 18 13 18 20 -1 218 l-19 204
67 135 c37 74 75 145 85 157 13 15 92 47 248 101 l229 79 456 -114 c250 -63
457 -116 459 -117z m-1999 -672 c2 -2 -27 -4 -65 -3 -47 1 -61 3 -44 8 23 7
99 3 109 -5z m1526 -2303 l300 -197 0 -418 0 -418 -310 -179 -309 -179 -443 0
-443 0 0 795 0 795 453 -1 452 0 300 -198z m-2 -3682 l307 -202 0 -347 0 -347
-310 -182 -309 -181 -446 0 -445 0 0 730 0 730 448 0 447 0 308 -201z m-20
-3540 c161 -105 296 -195 301 -199 6 -6 67 -441 62 -446 0 -1 -214 -22 -474
-48 l-472 -46 -224 112 -223 111 -55 159 -55 160 39 156 c21 86 43 174 49 195
l10 37 375 0 375 0 292 -191z"/>
</g>
</svg>
