<?xml version="1.0" standalone="no"?>
<!DOCTYPE svg PUBLIC "-//W3C//DTD SVG 20010904//EN"
 "http://www.w3.org/TR/2001/REC-SVG-20010904/DTD/svg10.dtd">
<svg version="1.0" xmlns="http://www.w3.org/2000/svg"
   viewBox="0 0 3486.000000 4454.000000"
 preserveAspectRatio="xMidYMid meet">
<metadata>
Created by potrace 1.16, written by Peter Selinger 2001-2019
</metadata>
<g transform="translate(0.000000,4454.000000) scale(0.100000,-0.100000)"
fill="#000000" stroke="none">
<path d="M9942 44439 c-288 -54 -533 -104 -545 -112 -18 -12 -263 -813 -1455
-4773 -901 -2995 -1510 -5035 -1642 -5504 -116 -410 -224 -788 -240 -842 -17
-53 -30 -99 -30 -102 0 -8 130 -68 148 -69 11 0 8 -32 -4 -46 -2 -2 -36 11
-76 29 -58 25 -97 35 -188 45 -63 7 -118 10 -121 6 -3 -3 -50 -153 -104 -334
l-98 -327 57 -85 56 -85 108 1 c153 1 151 0 178 90 l23 75 423 354 c232 195
431 362 443 372 20 16 23 13 99 -79 l78 -95 -22 -54 c-12 -29 -20 -59 -17 -66
2 -7 -6 -21 -19 -30 -22 -18 -23 -17 -61 27 l-38 45 -80 -68 c-44 -38 -203
-172 -353 -300 -150 -127 -273 -234 -275 -237 -1 -3 16 -26 39 -53 l40 -47
-101 -85 -102 -85 19 -85 c11 -46 20 -86 22 -87 1 -1 35 -16 74 -32 l73 -30
80 34 c43 18 95 47 115 64 19 17 39 31 44 31 5 0 34 -30 65 -66 l56 -66 -33
-38 c-46 -53 -129 -174 -168 -245 l-33 -61 -126 -41 c-69 -22 -165 -55 -213
-73 l-88 -32 0 -151 0 -152 -458 -154 c-251 -85 -575 -195 -719 -244 l-262
-89 -39 -116 -38 -116 -200 -66 -199 -67 -375 -37 c-206 -21 -376 -39 -378
-41 -1 -1 -6 -208 -9 -459 l-6 -456 81 0 82 0 0 -155 0 -155 215 0 215 0 0
-100 0 -100 1045 0 1045 0 0 -125 0 -125 775 0 775 0 0 -80 0 -80 145 0 145 0
0 -25 0 -25 -402 0 -403 0 -194 -50 -193 -50 -514 0 -513 0 -5 -42 c-3 -24
-10 -86 -16 -138 -6 -52 -12 -96 -14 -98 -2 -1 -53 -6 -112 -9 -123 -6 -144
-13 -144 -48 0 -23 -4 -25 -49 -25 -26 0 -68 -3 -93 -6 l-45 -6 -16 -87 c-15
-78 -17 -192 -17 -1052 l0 -965 26 -144 c14 -80 29 -147 34 -150 5 -3 136 -16
292 -29 156 -13 286 -26 289 -30 4 -3 19 -79 35 -168 l27 -163 431 -1 c237 0
448 -3 468 -7 l38 -7 -84 -100 c-71 -86 -95 -107 -169 -150 l-87 -50 1 -176 1
-177 30 -6 c17 -3 43 -6 58 -6 39 0 60 -9 60 -26 0 -12 -96 -14 -615 -14
l-615 0 -67 135 -68 135 -78 0 c-92 0 -90 16 -17 -151 l49 -114 -53 -3 -53 -3
-12 -113 c-6 -61 -11 -124 -11 -139 0 -16 -9 -44 -19 -65 l-19 -37 -2443 -413
c-1344 -228 -2454 -416 -2466 -419 l-23 -5 0 -718 0 -718 22 -5 c13 -3 1123
-191 2466 -418 l2444 -413 18 -36 c14 -28 41 -231 40 -307 0 -8 20 -13 54 -15
l55 -3 -49 -114 c-73 -167 -75 -151 17 -151 l78 0 68 135 67 135 615 0 c519 0
615 -2 615 -14 0 -18 -22 -26 -68 -26 -84 0 -80 10 -81 -188 l0 -177 92 -55
c77 -46 103 -69 164 -145 40 -49 73 -92 73 -96 0 -15 -97 -19 -501 -19 l-426
0 -27 -162 c-16 -90 -31 -166 -35 -169 -3 -4 -134 -17 -291 -29 -157 -13 -288
-26 -292 -29 -4 -3 -18 -71 -32 -151 l-26 -144 0 -965 c0 -860 2 -974 17
-1051 l16 -88 51 -6 c28 -3 70 -6 94 -6 38 0 42 -2 42 -25 0 -35 21 -42 143
-48 60 -3 110 -7 112 -9 4 -3 35 -246 35 -270 0 -5 232 -8 516 -8 l516 0 192
-50 192 -50 402 0 402 0 0 -25 0 -25 -145 0 -145 0 0 -80 0 -80 -775 0 -775 0
0 -125 0 -125 -1045 0 -1045 0 0 -100 0 -100 -215 0 -215 0 0 -155 0 -155 -82
0 -81 0 6 -456 c3 -251 8 -458 9 -459 2 -2 171 -20 377 -40 l373 -37 201 -67
201 -67 38 -116 39 -116 382 -129 c210 -71 534 -181 719 -244 l338 -114 0
-151 0 -152 168 -59 c92 -33 188 -65 213 -72 41 -11 48 -18 79 -74 39 -73 121
-194 168 -247 l32 -38 -56 -66 c-31 -36 -60 -66 -65 -66 -4 0 -24 14 -43 30
-19 17 -71 47 -115 66 l-80 35 -75 -32 -74 -31 -17 -77 c-9 -42 -17 -80 -19
-86 -1 -5 43 -48 99 -95 l102 -86 -44 -49 c-23 -27 -39 -52 -35 -55 43 -37
620 -525 658 -557 l50 -42 38 44 c36 44 38 44 61 29 14 -9 21 -22 18 -30 -3
-8 5 -39 17 -68 l22 -54 -74 -89 c-40 -48 -76 -90 -80 -93 -4 -3 -205 161
-448 365 l-441 369 -21 71 c-11 38 -25 76 -31 83 -7 8 -46 12 -136 12 l-126
-1 -54 -85 -53 -85 98 -327 c53 -180 100 -330 103 -333 3 -4 57 -1 118 6 87 9
130 20 188 45 41 18 77 31 79 29 12 -14 15 -46 4 -46 -18 -1 -148 -61 -148
-69 0 -3 15 -56 34 -118 19 -61 132 -455 250 -876 139 -491 726 -2459 1639
-5490 1406 -4668 1423 -4725 1452 -4739 23 -12 1053 -211 1062 -206 1 0 -4 22
-12 48 -17 55 -26 51 129 66 l98 10 72 68 c39 37 142 136 229 221 l158 153
-36 96 c-20 53 -34 97 -33 98 2 2 65 32 140 68 l137 65 -14 49 c-8 26 -86 284
-173 573 l-159 525 -142 187 -142 188 -1299 4342 c-714 2389 -1318 4397 -1342
4462 l-43 120 -390 324 c-214 178 -402 330 -418 338 l-27 15 76 89 c42 50 79
90 81 90 2 0 18 -7 35 -16 17 -9 34 -12 38 -7 4 4 80 104 170 222 140 184 172
219 224 252 34 21 68 39 76 39 8 0 180 -45 383 -101 l367 -102 0 -955 0 -954
101 -148 100 -147 252 -139 252 -139 3420 -5 3419 -5 -154 -47 -155 -47 -1655
-66 c-910 -36 -1670 -65 -1687 -65 l-33 0 0 -75 0 -75 35 0 c20 0 47 -7 60
-16 20 -13 259 -24 1639 -78 888 -34 1618 -64 1621 -68 3 -3 11 -32 17 -64
l11 -59 168 -140 169 -140 0 -52 0 -53 -469 0 -470 0 -313 121 -313 121 -1723
-383 -1723 -383 -63 22 c-49 18 -75 21 -122 17 -112 -12 -104 -4 -104 -98 l0
-83 -285 -295 -284 -294 2 -200 2 -200 90 -5 89 -5 133 -220 c86 -142 140
-221 152 -223 10 -2 275 13 589 33 l570 35 219 -50 219 -51 977 61 c538 33
997 60 1022 60 l45 0 -38 -63 -38 -62 -225 -55 c-169 -42 -272 -75 -419 -132
l-195 -77 -635 -36 -635 -37 -57 -58 -58 -58 0 -116 c0 -84 3 -118 13 -121 6
-3 856 -12 1887 -21 1031 -9 1945 -19 2030 -23 l155 -7 240 -106 c295 -129
774 -315 875 -340 41 -10 255 -34 475 -54 360 -32 421 -35 605 -30 282 8 572
41 852 97 193 39 281 65 668 198 243 83 367 132 490 192 l165 81 1745 254
c960 140 2236 322 2835 405 l1090 150 2510 430 c1455 249 3035 526 3760 659
688 126 1459 267 1715 313 l465 83 -2 59 c-2 33 -12 112 -24 175 l-22 115 -91
-7 c-50 -3 -115 -7 -143 -7 l-53 -1 0 56 0 55 -230 299 -230 299 0 83 0 84
-140 29 c-77 15 -139 29 -138 31 2 1 73 28 158 59 l155 58 360 -37 c198 -20
365 -36 371 -36 6 0 33 -27 59 -60 l49 -61 18 48 c29 78 25 102 -29 154 l-48
46 -462 117 -462 117 -228 -136 c-156 -93 -230 -142 -233 -156 -12 -47 -50 15
-133 221 -76 187 -84 213 -91 295 -4 50 -13 119 -21 155 -12 59 -18 69 -67
112 -45 40 -59 47 -95 48 -72 0 -90 -12 -98 -67 l-6 -48 -1602 -57 -1602 -56
-105 55 -105 56 -2510 -148 -2510 -147 -115 -72 -115 -72 -1615 9 -1615 9 -85
29 c-47 17 -95 37 -107 45 -17 11 -63 14 -210 14 l-188 0 -70 65 -70 64 -296
1 -295 0 -23 -40 -22 -40 -271 0 -270 0 -106 -100 -106 -100 -215 0 -216 0
199 199 198 198 9 854 c5 470 10 993 12 1163 l2 310 115 67 115 67 5 64 5 65
753 -588 c414 -324 756 -589 760 -589 14 0 70 57 85 86 21 42 39 156 26 169
-5 5 -373 294 -817 641 l-807 630 -5 161 -5 162 -269 288 c-149 158 -638 675
-1087 1148 l-818 861 -228 102 -228 102 -487 0 -487 0 -398 311 c-311 243
-398 316 -397 333 0 11 4 46 8 78 l8 56 -212 226 -211 226 -91 -70 c-50 -38
-93 -70 -97 -70 -3 0 -147 110 -319 245 -173 135 -320 245 -327 245 -7 0 -31
-20 -53 -45 -33 -38 -41 -56 -52 -120 -12 -72 -12 -78 6 -95 10 -10 125 -100
254 -200 129 -101 241 -189 249 -196 8 -8 -58 15 -147 49 l-162 62 -671 665
-672 665 44 6 c24 4 172 12 329 19 l285 11 41 47 42 47 1258 56 c1328 60 1355
63 1367 108 4 17 19 19 148 25 172 8 4077 106 4197 106 l82 0 -24 48 c-14 26
-65 112 -114 192 l-88 145 -810 6 c-445 3 -1108 7 -1474 8 l-665 2 -137 163
-137 164 -355 7 -355 7 5 272 c3 149 6 288 8 308 l4 37 -67 -5 c-128 -9 -739
-34 -802 -33 -54 1 -59 2 -34 10 71 21 1272 174 1872 239 575 62 673 70 840
70 233 -1 8724 410 8738 422 6 5 12 82 15 172 l5 163 38 43 39 42 379 -4 379
-3 0 71 c0 49 -4 73 -13 77 -30 11 -204 28 -367 35 l-174 7 69 52 70 52 3 -34
c4 -38 -2 -36 162 -61 l116 -17 419 103 c231 56 427 109 435 116 14 13 22 125
10 137 -3 3 -182 56 -398 119 l-392 113 0 65 0 66 395 113 c391 113 394 114
400 143 7 30 -1 96 -13 113 -4 6 -198 57 -431 114 l-424 104 -116 -17 c-165
-25 -159 -23 -163 -61 l-3 -34 -70 52 -69 52 164 7 c165 7 349 24 376 35 10 4
14 24 14 77 l0 72 -377 -4 -378 -4 -42 43 -42 44 -3 162 c-2 91 -7 166 -13
171 -14 13 -8494 423 -8730 422 -170 0 -264 8 -885 75 -657 71 -1831 223
-1863 242 -17 9 -10 9 543 -16 212 -10 385 -17 385 -17 0 1 -3 138 -6 306 -4
168 -7 306 -6 307 1 0 161 4 355 8 l353 8 137 163 137 163 620 2 c341 1 1004
5 1474 8 l854 6 89 145 c49 80 100 166 114 193 l24 47 -77 0 c-112 0 -4008 98
-4191 106 -146 6 -154 7 -162 28 -6 16 -22 26 -57 35 -29 7 -532 34 -1306 69
l-1259 58 -41 47 -42 46 -329 15 c-180 8 -329 16 -330 18 -1 2 301 302 671
668 l673 665 137 53 c75 29 138 51 140 48 2 -2 -102 -86 -232 -187 l-236 -184
6 -50 c3 -27 10 -66 15 -86 11 -39 66 -107 91 -111 10 -2 144 96 305 222 158
124 295 230 304 237 14 10 32 0 113 -63 l96 -74 211 226 212 227 -8 56 c-16
113 -50 77 383 415 l392 306 491 0 492 0 229 102 229 101 818 861 c450 474
939 991 1087 1149 l270 289 5 165 5 166 805 629 c443 346 815 637 828 646 21
16 22 20 12 77 -6 33 -12 69 -15 80 -6 30 -74 105 -94 105 -9 0 -358 -267
-776 -594 l-760 -593 -5 60 -5 60 -115 67 -115 66 -2 310 c-2 170 -7 693 -12
1163 l-9 854 -198 198 -199 199 216 0 216 0 106 -100 105 -100 270 0 271 0 22
-40 23 -40 294 0 294 0 71 65 71 65 166 0 c181 0 193 3 326 53 l90 35 1620 9
1619 10 115 -72 115 -72 2510 -148 2509 -148 106 56 105 56 1525 -54 c839 -30
1559 -55 1601 -55 l76 0 9 -52 c10 -58 22 -65 99 -67 34 0 48 7 93 48 49 43
55 54 67 112 8 35 17 105 21 154 7 82 15 108 91 295 51 125 92 212 106 224 22
18 22 18 25 -1 2 -13 74 -61 233 -156 l231 -137 461 117 462 117 48 44 c54 51
59 76 29 155 l-18 47 -50 -60 c-27 -33 -53 -60 -59 -60 -5 0 -173 -16 -372
-36 l-362 -36 -153 57 c-84 32 -154 59 -156 60 -1 1 61 15 138 31 l140 28 0
84 0 83 230 299 230 300 0 56 0 56 143 -7 144 -7 22 113 c12 63 22 141 24 174
l2 59 -435 78 c-239 43 -997 181 -1685 308 -707 129 -2343 417 -3765 660
l-2515 431 -1145 159 c-630 88 -1917 271 -2861 409 l-1716 250 -129 64 c-71
36 -147 73 -169 82 -48 20 -513 182 -680 237 -310 101 -780 174 -1195 184
-194 5 -253 3 -610 -30 -225 -20 -427 -44 -470 -54 -103 -25 -581 -211 -873
-339 l-242 -106 -160 -8 c-88 -4 -799 -12 -1580 -19 -781 -6 -1627 -14 -1880
-18 l-460 -7 -3 -118 -3 -118 58 -59 58 -58 640 -37 640 -38 175 -70 c132 -54
234 -86 414 -131 l240 -61 38 -62 38 -63 -38 0 c-20 0 -480 27 -1021 60 l-985
61 -220 -50 -221 -51 -560 36 c-308 19 -572 33 -587 32 -24 -3 -44 -30 -161
-223 l-133 -220 -90 -5 -89 -5 -2 -200 -2 -200 284 -294 285 -294 0 -83 c0
-95 -8 -87 104 -99 47 -4 73 -1 123 17 l63 23 1722 -384 1723 -383 313 121
313 121 469 0 470 0 0 -52 -1 -53 -168 -140 -168 -140 -11 -59 c-6 -32 -14
-61 -17 -64 -3 -3 -732 -34 -1621 -68 -1392 -53 -1618 -64 -1639 -78 -13 -9
-40 -16 -60 -16 l-35 0 0 -75 0 -75 43 0 c23 0 782 -29 1687 -65 l1645 -66
160 -49 160 -49 -3419 0 -3419 -1 -258 -141 -258 -141 -100 -148 -101 -148 0
-954 0 -954 -367 -102 c-203 -56 -375 -102 -383 -102 -8 0 -42 18 -76 39 -52
33 -83 68 -224 252 -89 118 -166 218 -170 222 -4 5 -22 1 -40 -8 -37 -19 -24
-29 -129 93 -35 40 -62 74 -60 75 2 2 15 8 29 14 14 6 201 157 415 335 l390
324 43 120 c24 65 627 2073 1342 4461 l1298 4341 145 194 144 193 172 569 c94
313 170 570 168 571 -1 1 -63 29 -137 64 -74 35 -136 64 -138 66 -1 1 13 46
33 99 l36 96 -168 163 c-92 89 -195 188 -229 220 l-61 57 -89 10 c-49 6 -103
13 -121 16 l-32 5 14 46 c8 26 13 48 12 48 -1 1 -237 -42 -525 -96z m969 -919
c34 -18 39 -24 33 -43 -14 -42 -813 -2710 -1820 -6078 l-1009 -3377 -47 24
-46 23 32 108 c18 59 655 2190 1416 4736 761 2545 1388 4627 1392 4627 5 0 27
-9 49 -20z m14085 -8195 c82 -8 168 -17 191 -20 l41 -6 -73 -112 c-41 -62 -80
-120 -87 -129 -12 -16 -31 -17 -226 -9 -117 5 -215 10 -217 12 -6 7 199 279
211 279 6 0 78 -7 160 -15z m3913 -421 c2 -2 -3 -4 -11 -4 -9 0 -26 9 -39 20
l-24 21 35 -17 c19 -9 37 -18 39 -20z m-21329 -1439 c217 -96 190 -95 303 -13
38 27 70 48 72 46 5 -5 -25 -142 -33 -149 -4 -3 -47 -39 -95 -79 l-88 -73 -94
38 c-83 33 -97 36 -112 24 -10 -8 -78 -65 -153 -128 l-134 -113 -29 33 c-15
19 -61 75 -101 124 l-73 90 64 197 64 198 109 -55 c60 -30 195 -93 300 -140z
m7420 -5099 c0 -5 -232 -188 -234 -184 -1 2 0 45 2 96 l3 92 115 0 c63 0 114
-2 114 -4z m-3026 -403 l61 -243 590 -2 591 -3 -677 -715 -678 -715 -119 -3
-120 -3 -13 -31 c-12 -28 -13 -29 -20 -10 -4 11 -11 48 -15 81 l-7 60 -621
372 -621 371 -310 519 -309 519 -333 0 -333 0 0 25 0 25 1437 -2 1437 -3 60
-242z m-232 -9705 l120 -3 677 -715 677 -715 -590 -3 -591 -2 -61 -243 -60
-242 -1437 -3 -1437 -2 0 25 0 25 333 0 332 0 310 519 310 519 621 372 621
371 7 56 c4 32 9 68 13 82 l6 25 15 -32 15 -31 119 -3z m3160 -1993 l115 -90
-120 -3 c-66 -1 -121 -1 -122 0 -2 2 -5 46 -7 100 -2 67 0 94 8 90 6 -4 63
-47 126 -97z m-7512 -4864 c69 -57 133 -111 142 -119 15 -13 28 -10 112 23
l95 38 88 -73 c48 -40 91 -76 95 -79 8 -7 38 -144 33 -149 -2 -2 -34 19 -72
46 -113 82 -86 83 -303 -13 -105 -47 -240 -110 -300 -140 l-109 -55 -62 193
c-34 105 -62 195 -63 199 -3 15 197 248 208 241 6 -4 67 -54 136 -112z m1995
-5131 c1323 -4423 1554 -5197 1562 -5218 3 -7 -13 -20 -42 -33 -26 -11 -48
-19 -50 -17 -1 1 -633 2111 -1403 4688 -771 2577 -1408 4706 -1416 4733 l-14
48 46 23 c26 13 48 21 49 18 1 -4 572 -1913 1268 -4242z m19524 3366 c-2 -2
-20 -11 -39 -21 l-35 -18 19 22 c11 11 28 21 39 21 11 0 18 -2 16 -4z m-3807
-203 c24 -38 62 -96 85 -130 l42 -62 -42 -6 c-94 -12 -360 -35 -364 -31 -21
20 -200 272 -197 276 3 2 82 7 177 10 95 4 191 7 214 8 42 2 43 1 85 -65z"/>
</g>
</svg>
