<?xml version="1.0" standalone="no"?>
<!DOCTYPE svg PUBLIC "-//W3C//DTD SVG 20010904//EN"
 "http://www.w3.org/TR/2001/REC-SVG-20010904/DTD/svg10.dtd">
<svg version="1.0" xmlns="http://www.w3.org/2000/svg"
   viewBox="0 0 4370.000000 3663.000000"
 preserveAspectRatio="xMidYMid meet">
<metadata>
Created by potrace 1.16, written by Peter Selinger 2001-2019
</metadata>
<g transform="translate(0.000000,3663.000000) scale(0.100000,-0.100000)"
fill="#000000" stroke="none">
<path d="M22847 36374 l-388 -254 -2467 2 c-1357 1 -2664 4 -2905 5 -433 3
-439 3 -477 -18 l-38 -21 -7 -232 c-3 -127 -5 -271 -3 -320 l3 -90 198 -79
197 -80 0 -72 0 -72 -60 -13 -60 -13 0 -262 0 -263 58 -14 57 -14 3 -626 c1
-344 -1 -643 -6 -664 -7 -36 -11 -39 -57 -49 l-50 -10 -3 -266 -2 -266 55 -12
55 -12 0 -688 c0 -378 -3 -904 -7 -1168 l-6 -480 -326 -135 -326 -135 -3 -170
-2 -170 -903 -445 -902 -445 -3 -396 -2 -397 -45 0 -45 0 0 -1115 0 -1115
-1765 0 -1765 0 0 965 0 965 -4815 0 -4815 0 0 -240 0 -240 -30 0 -30 0 0 115
0 115 -345 0 -345 0 0 -1149 0 -1149 55 -31 55 -31 0 -184 0 -184 -70 -18 -70
-18 0 -1173 0 -1173 360 0 360 0 0 155 0 155 30 0 30 0 0 -360 0 -360 855 0
855 0 0 -25 0 -25 -1465 0 -1465 0 0 -3580 0 -3580 1465 0 1465 0 0 -25 0 -25
-855 0 -855 0 0 -360 0 -360 -30 0 -30 0 0 155 0 155 -360 0 -360 0 2 -1172 3
-1171 25 -8 c14 -4 44 -13 68 -19 l42 -11 0 -184 0 -184 -55 -31 -55 -31 0
-1145 0 -1144 345 0 345 0 0 110 0 110 30 0 30 0 0 -235 0 -235 4815 0 4815 0
0 960 0 960 1765 0 1765 0 0 -1115 0 -1115 45 0 45 0 0 -412 1 -413 902 -445
902 -446 3 -170 2 -170 329 -134 329 -135 6 -640 c4 -352 6 -878 4 -1170 l-3
-530 -50 -10 -50 -11 -3 -266 -2 -267 43 -6 c78 -12 72 49 75 -684 l3 -660
-61 -13 -60 -12 0 -262 0 -262 58 -14 57 -14 0 -73 0 -73 -197 -80 -198 -81 0
-146 c0 -80 3 -224 7 -319 l6 -173 44 -26 43 -25 418 4 c289 2 423 7 438 15
13 8 25 8 35 2 9 -6 937 -7 2459 -3 l2445 6 390 -256 390 -255 368 -1 368 0
902 130 c496 72 912 132 925 135 21 5 22 9 22 138 l0 133 85 49 c79 46 85 52
85 83 0 17 1 33 3 33 1 1 1132 29 2513 63 l2511 62 46 38 47 38 0 76 c0 76 0
76 -42 119 l-42 43 -2518 -7 -2518 -6 0 34 0 35 -107 39 c-60 22 -133 42 -164
45 l-57 5 -215 194 -215 195 -6 570 c-3 314 -8 1428 -11 2476 -3 1048 -8 2176
-11 2506 l-6 601 71 22 71 22 0 568 0 569 -145 108 -146 109 678 6 c373 3 710
7 749 8 l72 1 331 266 331 267 0 213 0 214 360 0 c233 0 360 4 360 10 0 7
1508 10 4505 10 l4505 0 0 55 0 55 -4505 0 c-2997 0 -4505 3 -4505 10 0 6
-127 10 -360 10 l-360 0 0 1330 0 1330 1240 0 1241 0 59 30 60 30 0 587 c0
488 2 589 14 602 9 10 20 74 30 171 10 85 19 167 22 182 l6 28 2366 0 2367 1
190 312 191 312 2029 -3 c1117 -2 3075 0 4353 4 l2322 6 0 193 c0 148 -5 216
-20 301 -11 60 -25 174 -31 254 -15 208 -7 190 -89 190 l-70 0 0 245 0 244
-32 5 c-18 3 -719 60 -1558 126 -839 66 -1553 123 -1587 126 l-63 6 0 1368 0
1368 58 6 c31 4 741 60 1577 126 836 66 1539 123 1563 126 l42 5 0 245 0 244
70 0 69 0 5 33 c3 17 10 93 16 169 6 75 19 185 30 244 16 83 20 151 20 300 l0
192 -2042 7 c-1124 4 -3082 6 -4352 4 l-2309 -4 -191 312 -191 312 -2367 1
-2366 0 -6 28 c-3 15 -12 97 -22 182 -10 97 -21 161 -30 171 -12 13 -14 114
-14 602 l0 587 -57 29 -58 30 708 1 707 0 0 100 0 100 61 0 c46 0 60 3 56 13
-8 21 -1206 3914 -1213 3942 l-6 25 191 0 c121 0 191 4 191 10 0 7 1033 10
3080 10 l3080 0 0 60 0 60 -3080 0 c-2047 0 -3080 3 -3080 10 0 6 -79 10 -218
10 l-218 0 -35 118 -35 117 873 3 873 2 0 63 0 62 135 29 c115 24 135 31 135
47 0 11 -9 21 -22 24 -158 36 -203 45 -223 45 -24 0 -25 3 -25 65 l0 65 -937
2 -936 3 -50 163 -50 162 -2230 0 -2229 0 6 458 c3 251 8 1395 11 2542 3 1147
8 2290 11 2540 l7 455 219 198 219 197 49 0 c33 0 85 13 160 41 l110 41 0 35
0 34 2515 -7 2516 -7 44 43 c45 44 45 44 45 115 0 70 0 71 -43 113 l-43 42
-2474 60 c-1361 33 -2493 60 -2517 60 -41 0 -42 1 -45 37 -3 34 -8 40 -85 85
l-83 49 0 133 0 134 -32 6 c-18 3 -438 64 -934 136 l-901 130 -359 -1 -359 -1
-388 -254z"/>
</g>
</svg>
