<?xml version="1.0" standalone="no"?>
<!DOCTYPE svg PUBLIC "-//W3C//DTD SVG 20010904//EN"
 "http://www.w3.org/TR/2001/REC-SVG-20010904/DTD/svg10.dtd">
<svg version="1.0" xmlns="http://www.w3.org/2000/svg"
   viewBox="0 0 4680.000000 1968.000000"
 preserveAspectRatio="xMidYMid meet">
<metadata>
Created by potrace 1.16, written by Peter Selinger 2001-2019
</metadata>
<g transform="translate(0.000000,1968.000000) scale(0.100000,-0.100000)"
fill="#000000" stroke="none">
<path d="M33021 19641 c-23 -29 -31 -49 -31 -79 l0 -39 -337 -6 c-283 -4 -361
-9 -478 -27 l-140 -23 -48 -46 c-27 -25 -59 -66 -72 -91 -12 -25 -94 -279
-181 -565 l-159 -520 -319 -365 -319 -365 -206 -104 -206 -104 -775 -139 -775
-140 -995 -47 -995 -48 -155 -76 c-85 -41 -222 -103 -305 -138 -143 -60 -169
-75 -523 -317 -352 -240 -375 -257 -393 -299 -17 -40 -19 -71 -19 -294 l0
-249 -22 -4 c-69 -15 -676 -68 -689 -60 -3 1 -41 137 -84 301 l-78 298 -349
263 -349 262 -2591 0 -2591 0 -696 -244 -696 -244 -631 -350 -631 -349 -289
-27 c-412 -38 -3878 -159 -4017 -140 -97 14 -252 52 -334 84 -89 34 -277 178
-458 352 -93 90 -235 213 -314 273 l-143 110 5 38 c3 21 7 41 10 43 3 3 335
-4 739 -15 543 -16 966 -21 1631 -21 l897 0 0 763 0 764 -3047 6 c-1675 4
-3637 7 -4359 7 l-1312 0 -32 -87 c-24 -67 -45 -173 -89 -447 l-59 -360 28
-91 c15 -49 30 -100 34 -111 6 -19 2 -22 -33 -28 -26 -4 -90 -38 -183 -98 -79
-51 -368 -214 -642 -363 l-500 -271 -54 -156 -54 -156 -332 -112 c-182 -62
-470 -160 -641 -217 l-310 -103 -88 -155 -88 -155 -204 0 -203 0 -871 -332
-871 -333 0 -95 c0 -126 18 -269 37 -300 9 -14 78 -88 153 -165 113 -116 306
-337 333 -381 3 -6 27 -143 53 -305 l46 -294 5 -607 6 -607 41 -6 c22 -3 53
-8 68 -11 l28 -6 0 -1478 0 -1478 -28 -6 c-15 -3 -46 -8 -68 -11 l-41 -6 -6
-607 -5 -607 -46 -294 c-26 -162 -50 -299 -53 -305 -27 -44 -220 -265 -333
-381 -75 -77 -144 -151 -153 -165 -19 -31 -37 -174 -37 -300 l0 -95 871 -332
871 -333 203 0 204 0 88 -155 88 -155 325 -108 c179 -60 467 -157 641 -217
l317 -107 54 -156 54 -156 500 -271 c274 -149 563 -312 642 -363 93 -60 157
-94 183 -98 35 -6 39 -9 33 -28 -4 -11 -19 -62 -34 -111 l-28 -91 59 -360 c44
-274 65 -380 89 -447 l32 -87 1312 0 c722 0 2684 3 4359 7 l3047 6 0 644 0
643 757 0 756 0 166 31 c91 17 166 32 167 32 1 1 27 89 59 195 l58 192 519 0
519 0 33 25 32 24 234 -130 235 -131 696 -244 697 -244 2591 0 2590 0 349 262
349 263 78 298 c43 164 81 300 84 301 13 8 620 -45 689 -60 l22 -4 0 -249 c0
-223 2 -254 19 -294 18 -42 41 -59 393 -299 354 -242 380 -257 523 -317 83
-35 220 -97 305 -138 l155 -76 995 -47 995 -48 775 -140 775 -139 206 -104
206 -104 319 -365 319 -365 159 -520 c87 -286 169 -540 181 -565 13 -25 45
-66 72 -91 l48 -46 140 -23 c117 -18 195 -23 478 -27 l337 -6 0 -39 c0 -30 8
-50 31 -79 l31 -39 421 0 422 0 28 34 c20 27 27 46 27 80 l0 46 460 0 460 0 0
-42 c0 -29 8 -54 26 -80 l27 -38 423 0 422 0 31 39 c25 31 31 49 31 85 l0 46
455 0 455 0 0 -46 c0 -36 6 -54 31 -85 l31 -39 422 0 423 0 27 38 c20 29 26
50 26 90 l0 52 460 0 460 0 0 -52 c0 -40 6 -61 26 -90 l27 -38 423 0 422 0 31
39 c26 33 31 48 31 93 l0 55 77 7 c42 3 110 6 152 6 42 0 208 12 371 26 l295
25 205 64 205 64 50 57 50 56 72 525 72 526 57 96 c45 74 119 165 331 403
l274 307 322 195 322 195 202 178 201 178 439 184 c341 144 679 300 1531 706
l1093 522 29 62 30 63 0 433 0 433 33 6 c17 3 142 19 277 36 135 17 283 39
330 50 78 18 88 23 137 72 l53 53 6 680 6 680 -53 41 c-72 55 -108 58 -439 39
-146 -8 -286 -15 -312 -15 l-48 0 0 413 c0 410 0 412 -23 452 l-23 40 -1107 3
-1107 2 0 115 0 115 -2767 0 -2768 0 -76 -76 -76 -76 -204 -24 -204 -24 -1903
0 -1903 0 -44 30 c-42 29 -48 30 -148 30 -67 0 -120 5 -147 15 -62 22 -592 22
-664 0 -31 -9 -90 -15 -158 -15 -100 0 -112 -2 -146 -25 -36 -24 -42 -25 -209
-25 -162 0 -174 1 -185 20 -12 19 -24 20 -245 20 l-232 0 -43 50 -43 50 -360
0 -360 0 -37 25 c-20 14 -50 25 -67 25 -16 0 -33 5 -36 10 -4 6 -55 10 -120
10 -65 0 -116 -4 -120 -10 -4 -6 -91 -10 -229 -10 -220 0 -223 0 -244 -23 -18
-19 -22 -35 -22 -90 l0 -67 -252 -1 -253 0 -70 -28 c-57 -23 -74 -35 -90 -65
l-20 -37 -60 6 c-33 2 -202 12 -375 20 -173 9 -334 18 -357 21 l-43 5 0 280 0
279 -759 0 -758 0 -327 -70 c-179 -38 -327 -70 -329 -70 -2 0 49 182 112 405
l116 404 38 17 37 17 0 557 0 557 -37 17 -38 17 -116 404 c-63 223 -114 405
-112 405 2 0 150 -31 329 -70 l327 -70 758 0 759 0 0 280 0 279 33 5 c17 3
178 12 357 21 179 8 352 18 385 21 l60 5 20 -37 c17 -30 32 -42 90 -65 l70
-28 253 0 252 -1 0 -68 c0 -59 3 -72 23 -90 22 -21 31 -22 243 -22 142 0 224
-4 231 -11 6 -6 49 -9 119 -6 140 6 181 14 224 43 l35 24 360 0 360 0 43 50
43 50 232 0 c221 0 233 1 245 20 11 19 23 20 185 20 167 0 173 -1 209 -25 34
-23 46 -25 146 -25 68 0 127 -6 158 -15 72 -22 602 -22 664 0 27 10 80 15 147
15 100 0 106 1 148 30 l44 30 1903 0 1903 0 204 -24 204 -24 76 -76 76 -76
2768 0 2767 0 0 115 0 115 1107 2 1107 3 23 40 c23 40 23 42 23 453 l0 412 48
0 c26 0 166 -7 312 -15 331 -19 367 -16 439 39 l53 41 -6 680 -6 680 -53 53
c-49 49 -59 54 -137 72 -47 11 -195 33 -330 50 -135 17 -260 33 -277 36 l-33
6 0 433 0 433 -30 63 -29 62 -1093 522 c-852 406 -1190 562 -1531 706 l-439
184 -201 178 -202 178 -322 195 -322 195 -274 307 c-212 238 -286 329 -331
403 l-57 96 -72 526 -72 525 -50 56 -50 57 -205 64 -205 64 -295 25 c-162 15
-326 26 -365 26 -38 0 -107 3 -152 7 l-83 6 0 55 c0 45 -5 60 -31 93 l-31 39
-422 0 -423 0 -27 -38 c-20 -29 -26 -50 -26 -90 l0 -52 -460 0 -460 0 0 52 c0
40 -6 61 -26 90 l-27 38 -423 0 -422 0 -31 -39 c-25 -31 -31 -49 -31 -85 l0
-46 -455 0 -455 0 0 46 c0 36 -6 54 -31 85 l-31 39 -422 0 -423 0 -27 -38
c-18 -26 -26 -51 -26 -80 l0 -42 -460 0 -460 0 0 46 c0 34 -7 53 -27 80 l-28
34 -422 0 -421 0 -31 -39z m-16523 -15568 c170 -92 182 -83 -108 -82 l-255 0
70 26 c39 15 95 43 125 64 30 21 61 38 68 38 8 1 53 -20 100 -46z"/>
</g>
</svg>
