<?xml version="1.0" standalone="no"?>
<!DOCTYPE svg PUBLIC "-//W3C//DTD SVG 20010904//EN"
 "http://www.w3.org/TR/2001/REC-SVG-20010904/DTD/svg10.dtd">
<svg version="1.0" xmlns="http://www.w3.org/2000/svg"
   viewBox="0 0 4494.000000 786.000000"
 preserveAspectRatio="xMidYMid meet">
<metadata>
Created by potrace 1.16, written by Peter Selinger 2001-2019
</metadata>
<g transform="translate(0.000000,786.000000) scale(0.100000,-0.100000)"
fill="#000000" stroke="none">
<path d="M8775 7850 c-137 -4 -329 -8 -425 -9 l-175 -1 -201 -163 -201 -162
-46 -355 c-26 -195 -59 -492 -73 -660 -15 -168 -28 -307 -30 -309 -2 -3 -78
-7 -168 -9 l-164 -5 -64 -70 -63 -71 -5 -343 -5 -342 -94 44 -93 45 -1443 0
-1443 0 -116 -54 -116 -55 0 -375 c0 -352 -1 -376 -18 -376 -9 0 -64 -38 -121
-85 -103 -84 -104 -85 -125 -67 -12 10 -55 48 -97 85 -60 52 -84 67 -108 67
l-31 0 0 376 0 375 -114 55 -114 54 -1445 0 -1445 0 -116 -56 -116 -56 2
-1399 3 -1400 115 -55 115 -54 1443 0 1444 0 114 54 114 55 0 375 0 376 30 0
c27 0 66 28 206 152 21 18 22 18 125 -67 57 -47 112 -85 121 -85 17 0 18 -24
18 -376 l0 -375 116 -55 116 -54 1443 0 1443 0 93 45 94 44 5 -342 5 -343 63
-71 64 -70 164 -5 c90 -2 166 -6 168 -9 2 -2 15 -141 30 -309 14 -168 47 -465
73 -660 l46 -355 201 -161 201 -161 595 -12 595 -12 480 30 480 30 278 120
c250 108 316 141 680 350 l402 231 388 406 c214 224 392 417 397 428 4 12 108
242 230 511 130 287 224 507 227 530 8 76 12 85 37 85 28 0 36 28 36 124 l0
62 133 192 c110 160 132 187 134 164 1 -15 7 -112 13 -217 15 -267 26 -333 73
-472 l42 -121 110 -22 c60 -12 127 -26 148 -31 l37 -10 0 -317 0 -317 96 -107
95 -108 1067 0 1067 0 122 98 123 97 0 317 0 316 149 7 149 7 61 95 61 94 0
402 1 402 44 38 45 38 59 -48 60 -48 0 -411 1 -411 118 -56 119 -57 1444 0
1444 0 115 55 115 55 3 414 2 414 55 47 55 46 45 -37 45 -38 0 -136 c0 -149
14 -374 31 -490 6 -41 29 -125 51 -186 l39 -111 132 -27 c73 -15 140 -30 150
-32 16 -5 17 -29 17 -325 l0 -320 93 -104 92 -104 1068 -1 1068 0 124 100 125
101 0 313 0 313 98 6 c53 4 120 7 147 7 l50 1 60 94 60 94 -4 355 c-2 296 -1
356 11 356 7 0 51 38 98 85 l85 85 87 -87 88 -88 0 -190 c0 -220 14 -461 36
-625 14 -99 36 -183 115 -436 l10 -31 167 -13 c92 -6 169 -13 170 -15 2 -2 26
-91 53 -197 l48 -193 1 -335 0 -335 98 -87 97 -88 1417 0 1417 0 125 76 126
75 0 533 0 533 98 6 c53 4 156 7 229 7 l132 0 80 117 81 117 0 543 0 543 28 0
c21 0 46 19 112 85 l85 85 85 -85 c56 -56 93 -85 108 -85 22 0 22 -1 22 -158
0 -182 24 -552 45 -691 8 -52 38 -172 67 -266 l53 -172 171 -13 170 -12 47
-192 47 -191 0 -337 0 -336 98 -91 97 -90 1418 -1 1419 0 129 77 129 78 0 531
0 531 92 7 c50 3 152 6 227 6 l137 0 81 122 82 123 -6 538 -6 537 39 0 c35 0
46 8 125 86 l86 85 80 -85 80 -86 52 0 51 0 0 -153 c0 -186 24 -554 46 -694 8
-57 39 -178 67 -270 l52 -168 171 -14 170 -14 47 -191 47 -191 0 -336 0 -337
99 -91 99 -91 1417 0 1417 0 129 77 129 78 0 531 0 531 92 7 c50 3 153 6 228
6 l137 0 82 123 81 123 -5 559 -5 560 33 -133 33 -133 125 -114 c138 -127 117
-118 319 -136 69 -6 126 -12 127 -13 1 -1 -11 -62 -27 -136 l-29 -135 -1 -480
0 -480 119 -241 c136 -277 165 -315 385 -514 l127 -115 182 -22 c241 -28 509
-30 797 -3 364 33 504 56 800 130 267 68 284 73 580 198 417 176 580 263 745
399 185 150 406 368 591 583 88 102 203 224 256 272 83 76 104 90 163 109 65
20 75 28 344 274 l276 253 122 229 122 228 43 296 42 295 -43 295 -43 294
-124 231 -125 232 -274 250 c-266 243 -276 250 -342 271 -61 18 -78 30 -171
117 -57 53 -178 183 -269 288 -182 211 -395 419 -578 568 -156 126 -333 219
-736 388 -293 124 -317 132 -580 199 -296 75 -475 103 -869 137 -226 19 -519
13 -763 -15 -139 -17 -149 -19 -180 -47 -17 -17 -82 -76 -144 -132 -175 -161
-207 -206 -338 -476 l-115 -237 0 -477 0 -478 29 -134 c16 -74 29 -135 28
-136 -1 -1 -74 -9 -161 -19 l-160 -16 -105 -96 c-58 -53 -114 -104 -125 -114
-12 -11 -31 -66 -52 -151 l-34 -133 5 560 5 560 -82 122 -83 123 -175 0 c-96
0 -199 3 -227 6 l-53 7 0 531 0 531 -129 78 -129 77 -1417 0 -1417 0 -99 -92
-99 -91 0 -339 0 -338 -47 -188 c-25 -103 -46 -188 -47 -189 -1 -1 -74 -7
-163 -14 -90 -7 -167 -15 -172 -18 -16 -10 -110 -333 -125 -431 -21 -133 -46
-514 -46 -702 l0 -158 -52 0 -53 0 -79 -86 -79 -86 -86 86 c-79 78 -90 86
-125 86 l-39 0 6 543 6 542 -82 122 -82 122 -175 1 c-96 0 -199 3 -227 6 l-53
7 0 531 -1 531 -130 78 -131 77 -1415 0 -1415 0 -99 -91 -99 -92 0 -339 0
-338 -47 -188 c-25 -103 -46 -188 -47 -188 -1 -1 -68 -7 -151 -14 -82 -6 -159
-13 -171 -15 -17 -4 -29 -32 -73 -175 -29 -94 -59 -212 -66 -263 -21 -138 -45
-509 -45 -694 0 -163 0 -163 -23 -163 -15 0 -50 -28 -107 -85 l-85 -85 -85 85
c-65 65 -92 85 -113 85 l-27 0 0 548 -1 547 -80 118 -80 117 -177 0 c-97 0
-201 3 -229 6 l-53 7 0 532 0 533 -128 76 -128 76 -1415 0 -1414 0 -97 -88
-97 -87 -1 -335 -1 -335 -48 -193 c-27 -106 -51 -195 -53 -197 -1 -2 -75 -9
-163 -15 -88 -7 -165 -18 -171 -24 -17 -17 -104 -311 -121 -406 -22 -133 -42
-445 -43 -670 l0 -205 -88 -88 -87 -87 -85 85 c-47 47 -91 85 -98 85 -12 0
-13 60 -11 356 l4 355 -60 93 -60 93 -147 8 -148 7 0 314 0 313 -125 101 -124
100 -1068 0 -1068 -1 -92 -104 -93 -104 0 -320 c0 -296 -1 -320 -17 -325 -10
-2 -77 -17 -150 -32 l-132 -27 -39 -111 c-22 -61 -45 -145 -51 -186 -17 -112
-31 -338 -31 -490 l0 -136 -45 -38 -45 -37 -55 46 -55 47 -2 414 -3 414 -115
55 -115 55 -1444 0 -1444 0 -119 -57 -118 -56 -1 -411 0 -411 -60 -48 -59 -48
-45 38 -44 38 -1 402 0 402 -60 94 -61 94 -149 8 -150 7 0 316 0 317 -123 97
-122 98 -1067 0 -1067 0 -95 -107 -96 -108 0 -316 c0 -244 -3 -318 -12 -321
-7 -3 -74 -18 -148 -33 l-136 -27 -41 -122 c-47 -138 -58 -205 -73 -471 -6
-104 -12 -202 -13 -217 -2 -23 -24 4 -134 164 l-133 192 0 62 c0 96 -8 124
-36 124 -25 0 -29 9 -37 85 -3 24 -95 240 -226 529 -122 268 -226 498 -231
511 -5 12 -183 206 -397 429 l-388 406 -403 231 c-363 209 -429 243 -680 350
l-277 120 -474 29 c-481 30 -596 32 -1076 20z"/>
</g>
</svg>
