<?xml version="1.0" standalone="no"?>
<!DOCTYPE svg PUBLIC "-//W3C//DTD SVG 20010904//EN"
 "http://www.w3.org/TR/2001/REC-SVG-20010904/DTD/svg10.dtd">
<svg version="1.0" xmlns="http://www.w3.org/2000/svg"
   viewBox="0 0 4552.000000 1782.000000"
 preserveAspectRatio="xMidYMid meet">
<metadata>
Created by potrace 1.16, written by Peter Selinger 2001-2019
</metadata>
<g transform="translate(0.000000,1782.000000) scale(0.100000,-0.100000)"
fill="#000000" stroke="none">
<path d="M14278 17799 l-287 -17 -88 -60 -88 -59 -960 -52 c-528 -28 -994 -54
-1035 -57 l-75 -6 -185 -269 -185 -269 -307 0 -306 0 -59 80 -58 79 -412 1
-412 0 -61 -80 -61 -80 -384 0 -385 0 -622 -243 -623 -243 -911 -502 -911
-503 -239 -247 c-131 -136 -273 -282 -313 -325 l-75 -78 31 -31 c30 -30 35
-31 150 -39 65 -4 326 -8 580 -8 l463 -1 59 -118 59 -118 124 -22 c67 -11 265
-42 438 -67 173 -25 325 -48 338 -50 l22 -5 0 -1079 0 -1078 -140 -64 -140
-64 0 -527 0 -527 -57 -7 c-32 -4 -132 -2 -223 5 -91 6 -368 11 -616 11 -435
0 -452 1 -477 20 -18 14 -76 29 -203 51 l-179 32 -180 290 c-99 159 -184 296
-190 304 -15 21 -176 -16 -530 -120 l-290 -86 -245 -26 c-135 -15 -249 -31
-254 -36 -6 -5 -55 -9 -110 -9 l-100 0 -66 -64 -65 -64 -435 -72 c-427 -70
-437 -72 -530 -115 -52 -24 -107 -48 -122 -54 -28 -10 -28 -11 -28 -105 l0
-95 -32 -5 c-18 -3 -140 -12 -272 -21 l-239 -15 -146 -63 -146 -63 -3 -214 -2
-215 -123 -61 c-67 -34 -205 -92 -307 -129 l-185 -68 -257 -255 -257 -256 -72
-133 c-63 -119 -75 -136 -112 -155 -23 -11 -60 -34 -82 -51 -22 -17 -41 -31
-42 -32 -2 -1 -12 -68 -24 -149 l-21 -147 21 -136 c12 -75 22 -137 24 -138 1
-1 20 -15 42 -32 22 -17 59 -40 82 -51 37 -19 49 -36 114 -156 l73 -135 255
-254 256 -254 175 -62 c96 -35 235 -93 307 -129 l133 -66 2 -215 3 -214 147
-63 148 -63 267 -18 268 -18 3 -95 3 -96 112 -53 112 -53 445 -74 445 -75 65
-64 66 -65 97 0 c54 0 106 -4 115 -9 9 -5 127 -21 262 -36 l245 -27 300 -89
c234 -69 466 -129 500 -129 2 0 88 137 191 304 l188 303 180 32 c126 23 187
38 204 52 24 18 44 19 466 19 242 0 524 5 626 12 102 6 206 8 233 4 l47 -7 0
-527 1 -527 139 -64 140 -64 0 -1078 0 -1077 -27 -6 c-16 -3 -167 -26 -338
-51 -170 -24 -366 -55 -433 -67 l-124 -22 -59 -118 -59 -118 -468 -1 c-257 0
-518 -4 -580 -8 -109 -7 -114 -8 -144 -39 l-32 -31 94 -98 c52 -54 193 -200
314 -325 l219 -227 916 -504 916 -505 619 -241 618 -241 384 0 383 0 61 -80
61 -80 412 0 412 1 58 79 59 80 307 0 306 0 185 -268 185 -267 85 -8 c47 -4
512 -30 1035 -58 l949 -51 88 -59 88 -60 356 -21 355 -21 53 52 c28 28 57 51
64 51 9 0 12 246 12 1120 l0 1120 128 0 c90 -1 150 -6 207 -20 l80 -19 840
451 840 452 617 439 618 440 240 324 240 324 0 294 0 295 409 0 409 0 628 -95
c345 -53 629 -97 629 -98 1 -1 53 -99 115 -217 61 -118 113 -216 114 -217 1
-2 123 -7 272 -13 l269 -11 416 -135 c323 -104 428 -134 470 -134 30 0 209 16
398 36 l344 37 98 -49 98 -48 123 18 c68 10 130 20 139 22 14 4 125 158 131
183 2 5 -96 85 -216 178 l-219 168 -39 100 c-22 55 -41 101 -43 103 -1 2 -40
13 -85 25 l-83 22 -37 85 -37 85 176 6 c97 4 242 7 322 8 133 1 148 3 164 21
18 20 18 20 40 0 l21 -20 749 95 c413 52 766 97 785 100 36 6 36 6 69 -62 l33
-69 181 -96 182 -96 260 -61 c238 -56 280 -63 494 -81 162 -14 320 -20 512
-20 154 0 279 -4 279 -8 0 -5 9 -57 20 -117 23 -124 4 -101 192 -245 l117 -90
446 0 446 0 102 70 c56 38 125 91 154 117 l52 48 16 160 c8 88 18 176 21 196
l5 36 170 39 c94 21 174 41 178 44 4 3 38 199 75 435 37 237 71 434 76 439 4
4 69 3 147 -4 l138 -12 440 52 c767 90 1474 206 1980 325 20 4 23 -6 49 -173
29 -176 38 -212 56 -212 29 0 630 -506 630 -531 0 -3 -36 -37 -81 -75 l-81
-69 -1376 -5 -1375 -5 -102 -250 c-117 -288 -189 -454 -251 -577 -43 -85 -44
-90 -44 -183 l0 -95 306 0 307 0 139 80 140 80 970 0 970 0 248 -155 249 -156
359 36 c198 19 363 35 366 35 3 0 11 -20 17 -43 9 -36 29 -62 108 -141 l98
-98 109 -18 c268 -45 298 -46 527 -13 l209 30 98 98 99 99 22 93 23 93 185 0
c156 0 330 14 1071 85 l885 85 260 69 c143 37 265 65 270 60 6 -4 80 -98 165
-208 l155 -200 55 5 c141 13 2015 143 2018 140 1 -2 4 -16 5 -31 l2 -28 -530
-137 c-363 -94 -576 -144 -675 -159 -119 -17 -327 -28 -1175 -62 -566 -22
-1032 -42 -1034 -44 -11 -11 57 -160 105 -231 l55 -81 42 3 c142 13 1361 65
1712 73 464 11 570 22 1245 126 205 32 388 53 600 70 l305 23 770 167 c548
118 810 179 910 212 77 25 592 228 1144 451 l1003 405 292 156 291 156 188
235 c103 129 212 267 243 307 l55 72 62 333 63 333 -1005 3 -1006 2 -217 -217
-218 -218 0 143 0 142 -725 0 -725 0 -40 -36 -40 -36 -15 35 c-8 19 -28 68
-44 109 l-29 73 -123 13 c-68 7 -149 11 -179 10 l-54 -3 -52 -344 c-29 -189
-57 -355 -63 -368 l-11 -23 -212 0 -213 0 142 143 141 142 71 225 70 225 11
310 c5 171 10 331 10 358 l0 47 -313 0 -313 0 -49 50 -49 50 -343 0 c-189 0
-343 4 -343 9 0 5 7 28 15 52 16 43 16 43 -27 139 l-43 97 -415 123 c-228 68
-450 134 -493 147 l-77 24 2 681 3 681 490 146 491 145 42 96 c42 96 43 96 27
139 -8 24 -15 47 -15 52 0 5 154 9 343 9 l343 0 49 50 49 50 313 0 313 0 0 48
c0 26 -5 187 -10 357 l-11 310 -70 225 -71 225 -141 143 -142 142 213 0 212 0
11 -23 c6 -13 34 -179 63 -368 l52 -344 54 -3 c30 -1 111 3 179 10 l123 13 29
73 c16 41 36 90 44 109 l15 35 42 -36 42 -36 723 0 723 0 0 147 0 148 218
-218 217 -217 1003 0 c836 0 1002 2 1002 14 0 26 -119 646 -126 658 -5 7 -114
145 -243 308 l-234 295 -286 153 -286 154 -1010 408 c-555 224 -1073 428
-1150 454 -99 32 -362 94 -905 211 l-765 166 -305 24 c-209 16 -399 38 -605
70 -697 107 -777 115 -1235 126 -372 9 -1587 61 -1716 74 l-51 5 -56 -83 c-49
-71 -117 -221 -106 -231 2 -2 472 -23 1044 -45 930 -38 1056 -45 1195 -67 102
-16 330 -70 665 -157 l510 -134 -2 -28 c-1 -15 -3 -29 -5 -30 -2 -2 -469 30
-1038 70 -961 68 -1035 72 -1047 57 -77 -105 -312 -397 -319 -396 -5 1 -135
34 -289 73 l-280 71 -860 80 c-713 66 -892 80 -1046 80 l-185 0 -24 99 -23
100 -91 90 -91 90 -90 15 c-49 8 -150 22 -222 32 -140 18 -193 15 -468 -28
l-70 -11 -102 -100 c-84 -83 -103 -106 -112 -144 l-12 -45 -47 6 c-26 3 -190
20 -365 37 l-318 30 -250 -155 -249 -156 -969 0 -969 0 -140 80 -139 80 -307
0 -306 0 0 -95 c0 -93 1 -98 44 -183 62 -123 134 -289 251 -577 l102 -250
1376 -5 1377 -5 80 -69 c44 -38 79 -72 78 -77 -2 -4 -84 -81 -183 -169 -186
-168 -427 -360 -450 -360 -17 0 -18 -2 -51 -213 -23 -147 -31 -176 -44 -172
-8 2 -166 36 -350 75 -402 85 -1007 178 -1630 251 -440 51 -493 54 -670 33
-25 -2 -50 -1 -57 3 -6 5 -41 194 -79 438 -37 237 -71 433 -76 436 -5 3 -84
23 -177 44 l-169 39 -5 35 c-3 20 -13 110 -23 201 l-17 165 -61 51 c-34 28
-102 78 -153 112 l-92 62 -447 0 -447 0 -70 -52 c-121 -90 -212 -169 -219
-192 -4 -11 -14 -65 -23 -118 l-17 -98 -292 0 c-203 0 -359 -6 -516 -20 -204
-17 -247 -25 -480 -81 l-255 -61 -181 -95 -181 -95 -34 -69 c-32 -66 -34 -69
-63 -64 -17 3 -370 48 -785 100 l-754 96 -22 -21 c-21 -19 -21 -19 -40 -1 -18
18 -45 20 -342 28 l-322 8 35 80 c19 44 41 85 49 90 7 6 47 19 88 28 l74 18
38 97 c21 53 47 107 59 118 11 12 109 88 216 169 107 82 198 151 202 154 4 4
-21 49 -56 101 l-63 95 -134 20 -134 21 -99 -49 -99 -49 -341 36 c-188 20
-368 36 -402 36 -51 0 -129 -22 -475 -134 l-414 -134 -180 -6 c-99 -4 -221 -9
-271 -12 l-91 -6 -113 -217 c-62 -119 -114 -217 -114 -218 -1 -1 -285 -45
-633 -97 l-632 -96 -405 0 -406 0 0 295 0 295 -241 324 -240 325 -619 440
-618 440 -837 450 -838 450 -88 -19 c-61 -14 -126 -20 -209 -20 l-120 0 0
1120 c0 907 -2 1120 -13 1120 -7 0 -35 23 -62 50 l-49 50 -71 -1 c-38 -1 -199
-10 -357 -20z m12087 -5606 c-16 -98 -14 -94 -48 -88 -18 3 -142 19 -277 35
-135 17 -263 33 -285 37 -64 11 292 50 468 52 l148 1 -6 -37z m-11 -6500 c3
-16 8 -45 12 -65 l6 -38 -118 0 c-114 -1 -528 39 -518 49 4 4 541 76 596 80
10 1 18 -9 22 -26z"/>
</g>
</svg>
