<?xml version="1.0" standalone="no"?>
<!DOCTYPE svg PUBLIC "-//W3C//DTD SVG 20010904//EN"
 "http://www.w3.org/TR/2001/REC-SVG-20010904/DTD/svg10.dtd">
<svg version="1.0" xmlns="http://www.w3.org/2000/svg"
   viewBox="0 0 4440.000000 2005.000000"
 preserveAspectRatio="xMidYMid meet">
<metadata>
Created by potrace 1.16, written by Peter Selinger 2001-2019
</metadata>
<g transform="translate(0.000000,2005.000000) scale(0.100000,-0.100000)"
fill="#000000" stroke="none">
<path d="M25220 20034 c-463 -12 -488 -14 -997 -68 -453 -48 -589 -67 -1035
-142 -282 -48 -524 -86 -538 -84 -60 8 -171 2 -240 -14 -250 -57 -467 -150
-489 -209 -8 -20 -72 -42 -504 -179 -494 -156 -497 -157 -1284 -477 l-788
-319 -1300 -117 c-715 -64 -1300 -117 -1301 -118 -19 -19 -37 -458 -20 -504 5
-15 15 -23 31 -23 17 0 26 -7 29 -22 3 -13 7 -167 9 -344 l3 -320 -515 -72
-516 -72 -826 0 c-454 0 -941 -3 -1082 -7 l-257 -6 0 -48 c0 -43 -2 -47 -27
-54 -16 -3 -52 -13 -80 -21 l-53 -15 0 -120 0 -119 80 0 80 0 0 -219 0 -218
-61 -7 c-34 -3 -356 -6 -715 -6 -412 0 -662 -4 -679 -10 -15 -6 -129 -26 -253
-45 -125 -19 -237 -37 -249 -40 -22 -5 -23 -9 -23 -115 l0 -110 -160 0 -160 0
0 -650 0 -650 -116 0 -116 0 -53 -48 -53 -49 -1488 -6 c-818 -4 -1808 -7
-2200 -7 l-714 0 -5 -22 c-2 -13 -66 -383 -141 -823 -74 -440 -136 -800 -137
-801 -1 -1 -146 -11 -322 -23 -176 -12 -330 -24 -342 -27 l-23 -4 0 -245 c0
-192 -3 -245 -13 -245 -7 0 -1253 -81 -2769 -180 -1516 -99 -2768 -180 -2783
-180 l-25 0 0 -540 0 -540 215 0 215 0 0 -740 0 -740 -215 0 -215 0 0 -540 0
-540 26 0 c14 0 1266 -81 2782 -180 1517 -99 2763 -180 2770 -180 9 0 12 -56
12 -245 l0 -245 22 -4 c13 -3 167 -15 343 -27 176 -12 321 -22 322 -23 1 -1
63 -361 137 -801 75 -440 139 -810 141 -822 l5 -23 729 0 c400 0 1390 -3 2200
-7 l1473 -6 53 -49 53 -48 116 0 116 0 0 -650 0 -650 160 0 160 0 0 -110 c0
-106 1 -110 23 -115 12 -3 124 -21 249 -40 124 -19 238 -39 253 -45 17 -6 267
-10 679 -10 359 0 681 -3 715 -6 l61 -7 0 -218 0 -219 -80 0 -80 0 0 -119 0
-120 53 -15 c28 -8 64 -18 80 -21 25 -7 27 -11 27 -54 l0 -48 257 -6 c141 -4
628 -7 1082 -7 l826 0 515 -72 516 -72 -4 -305 c-1 -168 -5 -317 -8 -329 -4
-19 -9 -23 -29 -18 -20 5 -25 1 -31 -27 -17 -68 1 -475 22 -496 2 -2 590 -57
1306 -121 l1303 -117 780 -318 c708 -288 812 -328 1125 -427 190 -60 415 -131
501 -159 122 -38 158 -53 162 -68 19 -72 434 -221 622 -224 44 -1 89 0 100 2
11 1 247 -36 525 -83 453 -78 562 -93 1065 -146 l560 -59 625 -14 625 -15 797
39 797 39 1273 245 1273 245 4865 479 c2693 266 5512 539 6315 611 798 72
1460 133 1472 135 11 3 58 47 102 99 77 89 85 104 172 302 137 313 259 658
355 1004 99 353 316 1235 312 1265 -2 11 -13 24 -25 30 -13 5 -23 13 -23 17 0
5 123 502 274 1106 151 603 290 1178 310 1277 47 244 67 479 55 655 -12 177
-12 169 11 290 31 164 34 152 -90 358 -102 167 -113 182 -143 186 -18 3 -768
31 -1667 63 l-1635 58 -42 39 -43 39 0 376 0 377 356 70 c304 59 357 72 367
89 17 32 21 157 5 176 -8 10 -134 43 -365 95 l-353 79 0 45 c0 48 -19 79 -57
99 -14 7 -115 11 -302 11 -181 0 -281 4 -281 10 0 6 100 10 281 10 187 0 288
4 302 11 38 20 57 51 57 99 l0 45 353 79 c231 52 357 85 365 95 16 19 12 144
-5 176 -10 17 -63 30 -367 89 l-356 70 0 377 0 376 43 39 42 39 1635 58 c899
32 1649 60 1667 63 30 4 41 19 143 186 124 206 121 194 90 358 -23 121 -23
113 -11 290 12 176 -8 411 -55 655 -20 99 -161 683 -315 1297 -153 615 -279
1122 -279 1128 0 5 11 10 25 10 18 0 26 7 31 24 7 30 -184 816 -307 1258 -99
357 -220 701 -358 1018 -84 193 -94 211 -171 301 -80 95 -82 97 -133 103 -29
3 -700 65 -1492 136 -792 72 -3625 347 -6295 610 l-4855 479 -1270 245 -1270
244 -750 36 c-808 39 -900 40 -1655 20z"/>
</g>
</svg>
