<?xml version="1.0" standalone="no"?>
<!DOCTYPE svg PUBLIC "-//W3C//DTD SVG 20010904//EN"
 "http://www.w3.org/TR/2001/REC-SVG-20010904/DTD/svg10.dtd">
<svg version="1.0" xmlns="http://www.w3.org/2000/svg"
   viewBox="0 0 4727.000000 712.000000"
 preserveAspectRatio="xMidYMid meet">
<metadata>
Created by potrace 1.16, written by Peter Selinger 2001-2019
</metadata>
<g transform="translate(0.000000,712.000000) scale(0.100000,-0.100000)"
fill="#000000" stroke="none">
<path d="M26325 7034 c-566 -46 -1273 -101 -1570 -123 -732 -55 -645 -41 -682
-109 -29 -54 -33 -74 -68 -372 -21 -173 -41 -319 -45 -323 -3 -4 -171 -20
-372 -36 -201 -16 -371 -31 -377 -35 -7 -5 -11 -53 -11 -142 l0 -134 -1005 0
-1005 0 0 -95 0 -95 -1537 0 -1538 1 -120 109 -120 110 -377 0 -378 0 0 89 0
89 -597 148 -598 147 160 36 160 37 3 232 2 232 -37 17 c-31 14 -67 18 -181
18 l-144 0 -100 -245 c-55 -135 -104 -249 -108 -254 -5 -5 -126 20 -287 58
-341 83 -313 75 -313 92 0 11 -21 14 -110 14 -67 0 -110 4 -110 10 0 6 -107
10 -300 10 l-300 0 0 -25 0 -25 -692 1 -693 1 163 36 162 37 0 232 0 233 -37
17 c-30 14 -67 17 -177 18 l-140 0 -115 -287 -115 -288 -253 0 -253 0 0 -65 0
-65 -252 1 -253 1 150 32 150 32 3 236 2 235 -43 17 c-35 13 -72 16 -178 14
l-133 -3 -114 -282 -115 -283 -1163 0 -1164 0 0 -134 0 -134 -235 -176 -235
-176 -1377 -2 -1378 -3 -3 -37 -3 -37 -1262 2 c-694 1 -1313 -2 -1375 -6
l-112 -9 0 51 0 51 1065 0 1065 0 0 40 0 40 -2105 0 -2105 0 0 -40 0 -40 555
0 555 0 0 -53 0 -54 -167 -6 c-91 -4 -255 -7 -364 -7 l-198 0 -3 -97 -3 -98
-197 -34 -198 -34 0 -94 0 -93 -210 0 -210 0 0 -132 c-1 -164 1 -162 -145
-173 -81 -6 -102 -11 -113 -26 -10 -14 -25 -19 -62 -19 -61 0 -80 -7 -80 -31
0 -15 -7 -19 -31 -19 -46 0 -69 -16 -69 -50 l0 -30 145 0 145 0 0 -230 0 -230
-75 0 -75 0 0 -655 0 -655 75 0 75 0 0 -235 0 -235 -145 0 -145 0 0 -29 c0
-32 14 -41 66 -41 29 0 34 -3 34 -24 0 -25 28 -36 93 -36 17 0 38 -6 46 -14 9
-7 61 -18 116 -25 148 -17 145 -14 145 -176 l0 -135 210 0 210 0 0 -90 c0 -85
1 -90 23 -95 12 -2 90 -16 172 -30 83 -14 162 -28 177 -31 l28 -6 0 -99 0 -99
365 0 365 0 0 -60 0 -60 -555 0 -555 0 0 -35 0 -35 2105 0 2105 0 0 35 0 35
-1065 0 -1065 0 0 52 0 51 257 -6 c141 -4 759 -7 1374 -7 l1118 0 3 -32 3 -33
1377 -5 1378 -5 234 -175 235 -175 1 -137 0 -138 1166 -2 1166 -3 112 -280
112 -280 133 -3 c106 -2 143 1 178 14 l43 17 -2 235 -3 235 -140 33 -140 32
243 1 242 1 0 -65 0 -65 253 0 253 0 114 -285 115 -285 135 0 c100 0 145 4
177 16 l43 17 0 233 0 233 -72 15 c-40 9 -113 25 -163 35 l-90 19 693 1 692 1
0 -25 0 -25 300 0 c193 0 300 4 300 10 0 6 43 10 110 10 98 0 110 2 110 18 0
14 46 28 284 85 156 38 292 70 301 70 12 2 41 -58 119 -248 l102 -250 134 -3
c107 -2 144 1 182 15 l48 17 0 232 0 233 -54 11 c-255 53 -272 57 -241 65 17
5 284 72 595 150 l565 141 3 92 3 92 380 0 380 0 115 105 115 105 1540 0 1539
0 0 -95 0 -95 1005 0 1005 0 0 -135 c0 -100 3 -137 13 -140 6 -2 176 -17 376
-34 200 -16 367 -33 371 -38 4 -4 24 -150 45 -323 35 -300 39 -318 68 -373 18
-31 37 -57 43 -57 55 0 1458 -109 2507 -195 433 -36 792 -65 797 -65 6 0 10
27 10 61 l0 61 68 -6 c37 -3 123 -8 192 -12 l125 -6 39 107 39 106 36 -5 c20
-3 158 -13 307 -22 l271 -17 37 -69 37 -69 616 3 616 3 54 60 c67 73 73 88 73
176 0 59 3 69 18 69 9 0 292 -23 627 -50 336 -27 640 -50 678 -50 l67 0 0
-165 0 -165 185 0 185 0 0 174 0 174 188 6 c103 4 220 9 260 12 l72 6 0 -186
0 -186 185 0 185 0 0 80 0 80 28 -6 c15 -4 94 -26 177 -49 148 -42 150 -42
175 -24 24 18 27 18 85 0 55 -17 60 -21 63 -50 4 -37 -11 -35 257 -31 102 1
183 6 186 12 3 5 12 34 18 64 7 30 18 54 24 54 7 -1 65 -16 130 -34 115 -33
118 -33 141 -15 23 18 25 18 107 -6 46 -13 85 -29 87 -34 2 -6 11 -19 20 -29
16 -17 32 -18 197 -14 l181 4 28 99 c16 55 32 101 35 103 3 2 141 7 306 10
l300 7 45 -55 45 -55 247 -1 248 0 55 82 55 83 0 117 0 118 268 0 c250 0 268
1 279 19 6 10 29 22 50 26 21 3 86 18 146 32 l107 25 0 459 0 458 153 3 152 3
3 233 2 232 555 0 555 0 308 91 c169 50 498 146 732 214 l425 123 845 118 845
117 279 124 279 123 123 15 c67 8 124 15 127 15 3 0 10 -14 16 -30 l10 -31 78
7 c43 4 80 8 82 10 2 2 17 -14 33 -36 24 -33 34 -38 56 -34 15 3 222 33 461
68 329 48 437 67 445 79 6 8 16 23 21 32 8 12 50 22 170 40 l160 23 47 -25 46
-25 314 4 c308 5 315 5 411 33 77 23 97 32 97 47 0 17 14 18 223 18 160 0 226
3 235 12 8 8 12 48 12 115 l0 103 415 0 415 0 0 -39 0 -38 -52 -7 c-29 -3
-144 -6 -255 -6 l-203 0 0 -24 c0 -13 7 -27 16 -30 9 -3 335 -6 724 -6 l709 0
213 45 c278 59 261 53 235 89 -13 18 -23 17 -243 -28 -255 -51 -282 -53 -691
-39 l-203 6 0 39 0 38 365 0 365 0 0 41 0 40 53 -6 c43 -6 70 -2 135 19 70 22
173 49 265 70 23 5 27 12 27 39 l0 34 -81 17 c-45 10 -125 31 -178 48 -69 22
-113 30 -158 29 l-63 -2 0 41 0 40 -365 0 -365 0 0 40 0 40 348 0 347 0 190
-39 c105 -22 202 -42 216 -46 21 -5 27 -2 37 19 13 30 31 24 -243 86 l-180 40
-735 -2 -735 -3 -3 -27 -3 -28 255 0 256 0 0 -40 0 -40 -415 0 -415 0 0 94 c0
52 -3 101 -6 110 -5 14 -35 16 -234 16 -227 0 -229 0 -232 22 -2 18 -19 26
-98 48 -90 26 -110 27 -405 34 l-310 7 -49 -27 -48 -27 -163 23 -163 24 -15
31 -15 32 -464 66 -463 65 -30 -34 -30 -34 -86 7 -86 6 -7 -27 c-7 -30 -13
-31 -154 -15 -93 10 -110 16 -378 135 l-282 124 -858 120 c-727 102 -875 125
-973 154 -64 19 -393 116 -732 215 l-617 181 -546 0 -546 0 -2 228 -3 227
-152 3 -153 3 0 462 0 462 -148 33 c-84 19 -152 39 -158 47 -9 13 -55 15 -278
15 l-266 0 0 119 0 118 -56 87 -56 86 -243 0 -243 0 -47 -55 -47 -55 -306 2
-306 3 -31 105 -31 105 -185 2 -184 3 -20 -32 c-17 -27 -31 -35 -95 -51 -68
-17 -78 -17 -102 -4 -24 14 -35 13 -145 -19 -65 -18 -123 -33 -129 -34 -5 0
-18 32 -28 70 l-18 70 -167 0 c-91 0 -190 -3 -218 -6 -50 -6 -53 -8 -53 -35 0
-25 -5 -30 -52 -44 -64 -19 -78 -19 -103 -1 -18 12 -38 9 -170 -29 -83 -23
-162 -45 -177 -49 l-28 -6 0 80 0 80 -185 0 -185 0 0 -186 c0 -172 -1 -185
-17 -180 -10 2 -127 8 -260 12 l-243 7 0 173 0 174 -185 0 -185 0 0 -165 0
-165 -66 0 c-61 0 -1151 -82 -1271 -96 l-53 -5 0 70 c0 90 -9 110 -77 182
l-56 59 -613 0 -613 0 -37 -68 -38 -69 -210 -12 c-116 -6 -254 -14 -307 -18
l-97 -6 -38 102 -39 103 -125 -6 c-69 -4 -155 -9 -192 -12 l-68 -6 0 61 0 61
-37 -1 c-21 -1 -501 -39 -1068 -85z"/>
</g>
</svg>
