<?xml version="1.0" standalone="no"?>
<!DOCTYPE svg PUBLIC "-//W3C//DTD SVG 20010904//EN"
 "http://www.w3.org/TR/2001/REC-SVG-20010904/DTD/svg10.dtd">
<svg version="1.0" xmlns="http://www.w3.org/2000/svg"
   viewBox="0 0 4366.000000 3534.000000"
 preserveAspectRatio="xMidYMid meet">
<metadata>
Created by potrace 1.16, written by Peter Selinger 2001-2019
</metadata>
<g transform="translate(0.000000,3534.000000) scale(0.100000,-0.100000)"
fill="#000000" stroke="none">
<path d="M23980 34980 l0 -360 85 0 85 0 0 -1065 0 -1065 -85 0 -85 0 0 -200
0 -200 1660 0 1660 0 0 -215 0 -215 -1604 0 -1603 0 -142 -112 -141 -113 0
-222 0 -223 -35 0 -35 0 0 -590 0 -590 -1680 0 -1680 0 0 -260 0 -260 60 0 60
0 0 -775 0 -775 -60 0 -60 0 0 -139 c0 -120 2 -140 16 -143 12 -2 -117 -204
-480 -750 l-496 -747 0 -86 0 -85 -1015 0 -1015 0 0 943 0 944 -290 1104
c-159 607 -288 1105 -286 1106 2 2 34 6 72 9 38 3 74 7 80 9 8 2 -12 97 -60
289 l-71 286 -40 27 c-22 15 -90 59 -151 99 l-112 71 -293 6 c-162 4 -380 10
-484 14 l-191 6 7 -79 c4 -43 8 -100 8 -126 l1 -48 -44 0 -44 0 -252 260 -253
260 -833 0 -834 0 0 335 0 336 -32 -6 c-18 -3 -449 -50 -957 -105 l-924 -101
-56 -51 c-31 -28 -116 -106 -188 -172 l-133 -121 0 -57 0 -58 -223 0 -223 0
-216 -212 -216 -213 -41 -1385 c-40 -1312 -42 -1437 -41 -2377 l0 -993 -267
-1 -268 0 -420 -480 c-231 -264 -425 -485 -432 -490 -13 -12 -886 42 -1130 70
l-153 17 0 -122 0 -122 85 -7 85 -7 0 -344 0 -344 -1712 0 -1713 0 -1530 -394
-1530 -393 -3 -1212 -2 -1211 76 0 76 0 103 -87 104 -88 0 -168 c1 -93 -2
-166 -6 -163 -5 2 -46 56 -93 120 l-85 115 -550 0 -550 0 -77 -133 -78 -133 0
-904 1 -904 77 -130 78 -130 549 -2 550 -2 90 121 90 122 3 -199 c1 -110 1
-204 -2 -210 -2 -6 -33 -21 -70 -34 l-66 -23 0 -248 0 -247 68 -25 67 -25 3
-212 2 -213 -92 126 -93 126 -550 -3 -549 -2 -78 -130 -77 -130 -1 -904 0
-904 77 -133 78 -133 550 0 550 0 85 115 c47 64 88 118 93 120 4 3 7 -70 6
-163 l0 -168 -104 -87 -103 -88 -76 0 -76 0 2 -1211 3 -1212 1530 -393 1530
-394 1713 0 1712 0 0 -344 0 -344 -85 -7 -85 -7 0 -122 0 -122 153 17 c244 28
1117 82 1130 70 7 -5 201 -226 432 -490 l420 -480 268 0 267 -1 0 -1007 c-1
-969 1 -1062 42 -2401 l43 -1392 217 -210 216 -210 221 0 221 0 0 -54 0 -54
188 -174 188 -173 949 -103 c523 -57 953 -103 958 -102 4 0 7 149 7 330 l0
330 833 0 832 1 250 259 250 259 48 0 47 1 -1 -47 c0 -27 -4 -83 -7 -125 l-7
-78 115 5 c63 3 283 10 488 16 l373 10 147 97 147 97 71 286 70 287 -50 6
c-28 3 -66 6 -85 6 -27 0 -32 3 -29 17 3 10 134 509 292 1109 l286 1092 0 961
0 961 1015 0 1015 0 0 -85 0 -86 480 -723 480 -723 0 -141 0 -142 60 0 60 0 0
-770 0 -770 -60 0 -60 0 0 -260 0 -260 1680 0 1680 0 0 -620 0 -620 35 0 35 0
0 -222 0 -223 141 -113 142 -112 1603 0 1604 0 0 -215 0 -215 -1660 0 -1660 0
0 -200 0 -200 85 0 85 0 0 -1065 0 -1065 -85 0 -85 0 0 -360 0 -360 2480 0
2480 0 0 95 0 95 95 0 95 0 0 1454 0 1454 410 571 410 572 0 1474 0 1475 -95
0 -95 0 0 155 0 155 -545 0 -545 0 0 -60 0 -60 -750 0 -750 0 0 220 0 220 -80
0 c-47 0 -80 4 -80 10 0 6 3 10 6 10 4 0 52 7 108 16 82 13 115 24 177 57 55
31 348 270 1097 896 l1022 854 0 469 0 468 1090 0 c600 0 1090 -4 1090 -8 0
-5 -7 -17 -15 -28 -9 -11 -14 -42 -15 -76 l0 -58 450 0 450 0 0 85 0 85 110 0
c67 0 110 4 110 10 0 6 -43 10 -110 10 -91 0 -110 3 -110 15 0 13 100 15 840
15 l840 0 0 -45 0 -45 -210 0 c-133 0 -210 -4 -210 -10 0 -7 592 -10 1755 -10
1163 0 1755 3 1755 10 0 7 -465 10 -1375 10 l-1375 0 0 45 0 45 390 0 390 0 0
35 0 35 -1400 0 -1400 0 0 95 0 95 120 0 120 0 0 1033 0 1032 443 49 c243 27
457 51 475 54 l32 5 0 120 0 120 -72 -7 c-125 -12 -832 -86 -855 -89 -23 -4
-23 -3 -23 104 0 90 3 109 15 109 13 0 15 29 15 198 0 108 3 206 6 217 3 12
229 199 519 430 l514 410 0 2975 0 2975 -514 410 c-290 231 -516 418 -519 430
-3 11 -6 109 -6 218 0 168 -2 197 -15 197 -11 0 -15 12 -15 50 l0 50 1585 0
c1050 0 1585 3 1585 10 0 7 -377 10 -1110 10 l-1110 0 0 119 0 118 -32 5 c-18
3 -232 27 -475 54 l-443 49 0 93 0 92 335 0 c291 0 335 2 335 15 0 13 -44 15
-335 15 l-335 0 0 925 0 925 -120 0 -120 0 0 95 0 95 2435 0 2435 0 0 -30 0
-30 -95 0 -95 0 0 -55 0 -55 950 0 c627 0 950 3 950 10 0 7 448 10 1325 10
l1325 0 0 35 0 35 -395 0 -395 0 0 40 0 40 1375 0 c1216 0 1375 2 1375 15 0
13 -202 15 -1755 15 -1553 0 -1755 -2 -1755 -15 0 -13 30 -15 210 -15 l210 0
0 -40 0 -40 -760 0 c-500 0 -760 3 -760 10 0 7 -147 10 -420 10 l-420 0 0 30
0 30 60 0 60 0 0 90 0 90 -60 0 -60 0 0 175 0 175 -435 0 -435 0 0 -175 0
-175 -2435 0 -2435 0 0 90 0 90 -450 0 -450 0 0 -52 c0 -35 7 -64 20 -86 11
-18 20 -35 20 -37 0 -3 -85 -5 -190 -5 l-190 0 0 -90 0 -90 248 0 247 0 53
-90 c28 -48 52 -91 52 -94 0 -3 -526 -6 -1170 -6 l-1170 0 0 239 0 239 -35 12
-35 12 0 372 0 373 -101 84 -102 84 1737 3 c1146 1 1736 5 1736 12 0 7 -593
10 -1750 10 l-1751 0 -105 88 -105 87 47 3 c41 3 49 0 72 -27 21 -26 32 -31
68 -31 37 0 44 3 44 20 0 20 7 20 1210 20 l1210 0 0 55 0 55 -800 0 -800 0 0
25 0 25 1165 0 c770 0 1165 3 1165 10 0 6 -40 10 -100 10 -82 0 -100 3 -100
15 0 13 48 15 348 18 301 2 282 3 -148 5 l-495 2 3 315 3 315 -130 0 -131 0 0
-295 0 -295 120 0 c113 0 120 -1 120 -20 0 -19 -7 -20 -162 -20 l-163 0 3 315
3 315 -130 0 -131 0 0 -265 0 -265 -150 0 -150 0 0 -40 0 -40 -65 0 -65 0 0
305 0 305 -130 0 -130 0 0 -295 0 -295 125 0 c77 0 125 -4 125 -10 0 -6 -62
-10 -165 -10 l-165 0 0 305 0 305 -130 0 -130 0 0 -295 0 -295 120 0 c73 0
120 -4 120 -10 0 -6 -60 -10 -160 -10 l-160 0 0 305 0 305 -130 0 -130 0 0
-295 0 -295 120 0 c73 0 120 -4 120 -10 0 -6 -60 -10 -160 -10 l-160 0 0 305
0 305 -130 0 -130 0 0 -295 0 -295 120 0 c73 0 120 -4 120 -10 0 -6 -61 -10
-164 -10 -163 0 -165 0 -169 23 l-4 22 -2 -22 c-1 -23 -3 -23 -126 -23 l-125
0 -6 26 c-4 15 -4 73 -1 130 l5 104 -42 -6 c-69 -10 -66 -5 -66 -113 0 -55 -3
-106 -6 -115 -9 -23 -264 -24 -264 -1 0 12 -16 15 -84 15 -80 0 -86 2 -123 33
-39 32 -40 34 -87 225 l-48 192 -184 0 c-111 0 -185 4 -189 10 -4 7 49 10 151
10 144 0 156 1 152 18 -2 9 -33 131 -69 269 l-64 253 -285 2 -285 3 284 2
c263 3 283 5 279 21 -3 9 -20 79 -39 156 -27 111 -38 142 -56 153 -18 12 -61
15 -205 15 l-182 0 -42 -49 -43 -48 -3 -110 c-4 -106 -4 -104 -6 36 l-2 145
43 51 42 52 159 0 c140 1 157 3 146 16 -10 12 -41 15 -164 14 l-151 0 -50 -62
-50 -61 -5 -257 -5 -257 -140 119 c-184 156 -266 202 -401 223 -56 9 -104 16
-108 16 -3 0 -6 5 -6 10 0 6 33 10 80 10 l80 0 0 220 0 220 750 0 750 0 0 -60
0 -60 545 0 545 0 0 155 0 155 95 0 95 0 0 1475 0 1474 -410 572 -410 571 0
1454 0 1454 -95 0 -95 0 0 95 0 95 -2480 0 -2480 0 0 -360z m2490 -6950 l0
-510 135 0 c83 0 135 -4 135 -10 0 -7 -407 -10 -1200 -10 l-1200 0 0 170 0
170 45 0 45 0 0 350 0 350 1020 0 1020 0 0 -510z m-3690 -725 l0 -155 -302 2
-302 3 -52 145 c-29 80 -53 148 -53 153 -1 4 159 7 354 7 l355 0 0 -155z
m4927 -152 c-2 -27 -3 -5 -3 47 0 52 1 74 3 48 2 -27 2 -69 0 -95z m-963 -84
c3 -17 6 -152 6 -300 l0 -269 -170 0 -170 0 0 -70 0 -70 -860 0 -860 0 0 192
0 191 -122 170 c-68 94 -124 174 -126 179 -2 4 514 8 1146 8 l1150 0 6 -31z
m342 18 c16 -7 154 -115 306 -242 l277 -230 0 -167 1 -168 -100 0 -100 0 0 40
0 40 -90 0 -90 0 0 70 0 70 -85 0 -85 0 0 138 0 137 -50 63 c-28 34 -55 62
-60 62 -11 0 -13 120 -4 169 7 34 25 39 80 18z m621 -734 c-1 -43 -3 -8 -3 77
0 85 2 120 3 78 2 -43 2 -113 0 -155z m1478 32 c0 -90 -2 -100 -19 -103 -29
-6 -36 16 -36 116 l0 93 28 -3 27 -3 0 -100z m2325 -105 c0 -5 -7 -10 -15 -10
-8 0 -15 5 -15 10 0 6 7 10 15 10 8 0 15 -4 15 -10z m570 -55 c0 -13 -39 -15
-302 -13 l-303 3 288 2 c180 2 287 7 287 13 0 6 7 10 15 10 8 0 15 -7 15 -15z
m-3007 -2 c-13 -2 -33 -2 -45 0 -13 2 -3 4 22 4 25 0 35 -2 23 -4z m110 0 c-7
-2 -21 -2 -30 0 -10 3 -4 5 12 5 17 0 24 -2 18 -5z m80 0 c-13 -2 -33 -2 -45
0 -13 2 -3 4 22 4 25 0 35 -2 23 -4z m-2853 -58 c0 -24 -2 -25 -70 -25 -56 0
-70 -3 -70 -15 0 -13 -91 -15 -760 -15 l-760 0 0 21 c0 11 -5 29 -10 40 -11
19 2 19 830 19 l840 0 0 -25z m2690 4 c0 -40 -22 -49 -123 -49 -81 0 -96 3
-112 20 -18 20 -17 20 63 20 66 0 82 3 82 15 0 11 12 15 45 15 39 0 45 -3 45
-21z m90 -4 c0 -21 -5 -25 -30 -25 -25 0 -30 4 -30 25 0 21 5 25 30 25 25 0
30 -4 30 -25z m500 0 l0 -25 -245 0 -245 0 0 25 0 25 245 0 245 0 0 -25z
m-2380 -15 c0 -5 -4 -10 -10 -10 -5 0 -10 5 -10 10 0 6 5 10 10 10 6 0 10 -4
10 -10z m-1632 -237 c-169 -2 -448 -2 -620 0 -172 1 -34 2 307 2 341 0 482 -1
313 -2z m1632 -3 c0 -6 -32 -10 -75 -10 -43 0 -75 4 -75 10 0 6 32 10 75 10
43 0 75 -4 75 -10z m903 -7 c-7 -2 -21 -2 -30 0 -10 3 -4 5 12 5 17 0 24 -2
18 -5z m187 -3 c0 -5 -6 -10 -14 -10 -8 0 -18 5 -21 10 -3 6 3 10 14 10 12 0
21 -4 21 -10z m-1090 -120 c0 -47 -2 -50 -25 -50 -14 0 -25 -4 -25 -10 0 -5
-22 -10 -50 -10 l-50 0 0 60 0 60 75 0 75 0 0 -50z m-1177 23 l467 -6 0 -44 0
-43 -90 0 -90 0 0 -30 0 -30 90 0 c50 0 90 -3 90 -7 -1 -5 -43 -46 -95 -93
-74 -67 -94 -91 -94 -112 -1 -28 -1 -28 -71 -28 l-69 0 -120 -105 -119 -105
-641 0 -641 0 0 305 0 305 458 0 c252 0 669 -3 925 -7z m2582 -63 c3 -5 1 -10
-4 -10 -6 0 -11 5 -11 10 0 6 2 10 4 10 3 0 8 -4 11 -10z m208 -175 l97 -80 0
-206 0 -206 -481 168 -482 169 -448 0 -449 0 0 120 0 120 38 0 c20 0 54 -3 75
-6 34 -6 37 -9 37 -40 l0 -34 430 0 430 0 0 35 0 35 315 0 c213 0 315 3 315
10 0 15 14 6 123 -85z m-20648 -995 c163 -18 178 -21 166 -33 -8 -8 -11 -98
-11 -294 l0 -283 -145 0 -145 0 0 310 0 310 23 0 c12 0 63 -5 112 -10z m24864
-2500 c207 -21 392 -41 411 -43 19 -2 -162 -5 -402 -5 l-438 -2 0 45 c0 42 2
45 26 45 15 0 196 -18 403 -40z m-31329 -1885 l0 -73 -40 -32 -40 -32 0 52 c0
28 10 80 22 115 19 55 25 62 40 54 15 -8 18 -23 18 -84z m0 -672 c0 -32 -1
-33 -40 -33 l-40 0 0 56 0 55 40 -22 c34 -19 40 -28 40 -56z m0 -455 l0 -93
-40 -23 -40 -23 0 116 0 115 40 0 40 0 0 -92z m0 -807 l0 -147 -33 -12 c-18
-7 -36 -12 -40 -12 -4 0 -7 86 -7 191 l0 191 40 -32 40 -32 0 -147z m-33
-1003 l33 -12 0 -147 0 -147 -40 -32 -40 -32 0 191 c0 105 3 191 7 191 4 0 22
-5 40 -12z m33 -965 l0 -93 -40 0 -40 0 0 115 0 116 40 -23 40 -23 0 -92z m0
-456 c0 -28 -6 -37 -40 -56 l-40 -22 0 55 0 56 40 0 c39 0 40 -1 40 -33z m0
-672 c0 -60 -3 -76 -17 -84 -15 -8 -21 -1 -40 52 -13 35 -23 85 -23 115 l0 54
40 -32 40 -32 0 -73z m6620 -4058 c0 -196 3 -286 11 -294 8 -8 0 -13 -32 -17
-73 -10 -223 -26 -246 -26 l-23 0 0 310 0 310 145 0 145 0 0 -283z m20590
-332 l0 -145 -325 0 c-207 0 -325 4 -325 10 0 6 -104 11 -277 13 -153 1 -16 3
305 5 l582 2 0 90 0 90 -555 0 -555 0 0 40 0 40 575 0 575 0 0 -145z m2767
138 c-2 -5 -41 -70 -86 -145 l-82 -138 -1100 0 -1099 0 0 145 0 145 1186 0
c652 0 1183 -3 1181 -7z m-2767 -675 l0 -373 -956 -798 c-792 -661 -963 -799
-999 -809 -25 -7 -48 -9 -52 -5 -12 13 -17 197 -5 197 6 0 34 28 62 62 l50 63
0 937 0 938 130 65 130 65 495 0 c433 0 495 2 495 15 0 13 43 15 325 15 l325
0 0 -372z m-2420 -601 l0 -553 75 -74 76 -75 -3 -337 c-2 -185 -6 -339 -9
-342 -3 -3 -531 -5 -1173 -4 l-1167 3 145 204 146 204 0 224 0 223 30 42 30
41 0 434 0 433 793 1 792 0 125 64 c69 35 128 64 133 64 4 1 7 -248 7 -552z
m-3820 -1532 l0 -155 -345 0 c-190 0 -345 1 -345 3 0 2 23 66 50 142 28 77 52
146 55 153 3 9 71 12 295 12 l290 0 0 -155z m3960 -265 c0 -6 -52 -10 -135
-10 l-135 0 0 -510 0 -510 -1020 0 -1020 0 0 350 0 350 -45 0 -45 0 0 170 0
170 1200 0 c793 0 1200 -3 1200 -10z"/>
</g>
</svg>
