<?xml version="1.0" standalone="no"?>
<!DOCTYPE svg PUBLIC "-//W3C//DTD SVG 20010904//EN"
 "http://www.w3.org/TR/2001/REC-SVG-20010904/DTD/svg10.dtd">
<svg version="1.0" xmlns="http://www.w3.org/2000/svg"
   viewBox="0 0 2612.000000 1179.000000"
 preserveAspectRatio="xMidYMid meet">
<metadata>
Created by potrace 1.16, written by Peter Selinger 2001-2019
</metadata>
<g transform="translate(0.000000,1179.000000) scale(0.100000,-0.100000)"
fill="#000000" stroke="none">
<path d="M11955 11778 c-3 -7 -13 -38 -23 -68 l-19 -55 -1066 -3 -1067 -2 0
29 c0 16 -3 43 -6 60 l-6 31 -747 0 -747 0 -119 -75 -120 -75 -287 0 -288 0 0
-130 0 -130 165 0 165 0 0 -68 0 -68 119 -42 120 -42 1205 0 1206 0 0 -615 0
-615 -157 0 -158 -1 -190 -117 c-143 -88 -196 -127 -214 -155 l-24 -37 -489 0
-488 0 0 -169 c0 -151 2 -170 18 -177 9 -5 229 -10 489 -12 451 -3 472 -4 489
-23 16 -18 34 -19 386 -19 202 0 368 -2 368 -5 0 -3 -193 -231 -429 -508
l-430 -502 0 -112 -1 -113 -230 0 -229 0 -60 -127 c-34 -71 -65 -135 -69 -143
-5 -8 -82 -62 -170 -118 l-162 -104 0 -44 0 -44 -103 0 -104 0 -6 -97 c-4 -54
-7 -200 -7 -325 l0 -228 -260 0 -260 0 -2 473 -3 472 -455 -22 c-250 -12 -462
-22 -471 -22 -12 -1 -20 -18 -29 -61 l-13 -60 -273 0 -274 0 0 185 0 185 -149
0 c-139 0 -151 -1 -164 -20 -13 -18 -16 -19 -27 -5 -18 21 -325 22 -349 1 -10
-9 -145 -35 -356 -68 -325 -52 -341 -55 -352 -79 -9 -17 -13 -88 -13 -236 l0
-213 -345 0 -345 0 0 40 0 40 -184 0 c-184 0 -185 0 -188 22 -2 17 -11 24 -33
26 -16 1 -286 -20 -599 -48 -314 -27 -589 -50 -613 -50 -39 0 -43 2 -43 24 0
19 -39 57 -184 177 l-185 154 0 118 -1 117 -1034 0 -1034 0 -73 -92 c-40 -51
-76 -98 -81 -104 -4 -6 -22 -206 -39 -445 l-32 -434 0 -900 0 -900 31 -444
c18 -244 35 -448 39 -455 4 -6 40 -50 81 -98 l75 -88 1033 0 1034 0 0 110 0
109 185 163 c109 96 185 170 185 180 0 26 50 24 687 -27 307 -25 569 -45 582
-45 21 0 23 3 18 30 l-6 30 189 0 190 0 0 35 0 35 344 0 345 0 3 -225 c2 -146
7 -228 14 -235 6 -6 163 -35 349 -65 295 -47 339 -56 352 -74 13 -20 24 -21
177 -21 134 0 166 3 176 15 12 14 15 14 30 0 13 -12 46 -15 163 -15 l147 0 0
175 0 175 274 0 274 0 13 -50 c11 -44 16 -50 38 -50 14 0 208 -9 431 -20 223
-11 424 -20 448 -20 l42 0 0 470 0 470 260 0 260 0 0 -217 c0 -120 3 -269 7
-331 l6 -112 104 0 103 0 0 -38 0 -38 163 -104 164 -103 65 -146 65 -146 231
-3 232 -2 0 -105 0 -104 431 -513 432 -513 -365 -3 -365 -2 -23 -25 -23 -25
-489 0 -488 0 0 -170 0 -170 490 0 490 0 21 -43 c19 -39 36 -51 216 -155 l195
-112 154 0 154 0 0 -610 0 -610 -1196 0 -1196 0 -115 -41 c-63 -22 -121 -43
-129 -46 -10 -4 -14 -24 -14 -69 l0 -64 -165 0 -165 0 0 -135 0 -135 289 0
290 0 115 -80 116 -80 749 0 749 0 6 31 c3 17 6 42 6 55 l0 24 1068 0 1068 0
20 -62 20 -63 177 -3 177 -2 102 69 103 69 445 42 c512 49 456 31 557 173 l56
77 1554 0 1553 0 0 75 0 74 -197 4 c-109 3 -783 25 -1498 51 -1106 40 -1348
46 -1618 41 l-319 -7 6 54 c3 29 20 294 37 588 16 294 32 545 35 558 l4 22
419 0 418 0 131 270 c112 228 192 406 192 425 0 3 -272 5 -605 5 -333 0 -605
2 -605 4 0 1 56 231 125 510 l125 506 0 190 0 190 155 0 155 0 0 85 0 85 183
0 182 1 73 96 72 96 0 -336 0 -336 44 -31 45 -30 433 0 433 0 66 103 c96 148
119 213 119 337 l0 100 228 0 c164 0 231 3 240 12 9 9 15 9 24 0 9 -9 152 -12
580 -12 l568 0 0 -185 0 -185 145 0 145 0 0 -30 c0 -29 -2 -30 -44 -30 l-45 0
16 -45 c12 -37 19 -45 39 -45 l24 0 0 -155 c0 -146 1 -155 19 -155 21 0 25
-22 34 -162 l4 -58 -259 0 -258 0 0 -90 0 -90 118 0 118 0 104 -120 104 -120
523 0 523 0 0 210 0 210 -96 0 -97 0 7 53 c3 28 6 78 6 110 0 54 1 57 25 57
l25 0 0 155 0 155 23 0 c19 0 26 8 35 39 16 52 17 51 -23 51 -32 0 -35 2 -35
30 l0 30 140 0 140 0 0 80 0 80 -50 0 c-43 0 -50 3 -50 20 0 16 7 20 30 20 25
0 30 4 30 25 0 21 -5 25 -30 25 -24 0 -30 4 -30 23 0 12 9 28 20 35 15 9 20
23 20 52 l0 40 233 1 c127 0 294 0 370 -1 l137 -2 0 162 0 161 46 56 c27 34
110 105 208 179 l163 122 7 -66 c3 -37 6 -183 6 -324 l0 -258 207 0 c338 0
227 -18 -159 -26 l-348 -7 0 -39 0 -38 138 0 c77 0 234 -3 350 -7 l211 -6 30
-67 c21 -49 75 -122 200 -273 94 -113 171 -208 171 -211 0 -3 -11 -6 -25 -6
-21 0 -25 -4 -20 -22 3 -13 19 -117 35 -233 17 -115 32 -219 35 -231 4 -20 -5
-22 -228 -53 -320 -46 -287 -36 -287 -87 l0 -44 -290 0 -290 0 0 -155 c0 -141
-2 -155 -17 -155 -10 0 -173 -7 -363 -15 -190 -8 -355 -15 -367 -15 -19 0 -23
-6 -23 -30 0 -22 5 -30 18 -30 9 0 100 -7 201 -15 159 -13 187 -17 206 -35 12
-11 34 -20 50 -20 16 0 36 -7 46 -16 15 -14 73 -18 366 -30 191 -7 374 -13
406 -14 l57 0 0 -47 c1 -38 10 -65 44 -127 l44 -79 288 -104 287 -103 831 0
831 1 205 214 204 213 112 52 112 52 44 221 44 222 -81 51 c-79 51 -84 59 -70
102 3 9 59 12 235 12 182 0 238 3 267 15 29 12 97 15 384 15 l349 0 0 35 0 35
-606 0 c-481 0 -605 3 -601 13 17 45 88 370 83 382 -3 8 -14 15 -25 15 -13 0
-90 83 -237 255 l-217 255 -295 0 c-276 0 -294 1 -288 18 12 30 79 207 80 209
1 0 62 6 136 13 113 9 142 15 177 36 l42 24 74 -70 74 -70 636 0 636 0 66 94
c36 52 65 99 65 105 0 8 204 11 735 11 l735 0 0 80 0 80 455 0 455 0 0 105 0
105 -455 0 -455 0 0 90 0 90 -784 0 -784 0 -22 35 -22 35 -129 0 c-71 0 -129
4 -129 8 0 4 33 82 73 172 l74 165 46 13 47 13 0 92 c0 115 16 153 78 182 l42
19 0 72 0 72 133 6 c72 3 292 8 487 11 195 3 448 8 563 12 l207 6 0 23 c0 13
-4 25 -9 28 -9 6 -473 19 -1083 32 l-298 6 0 68 c0 59 -3 70 -19 75 -34 11
-71 46 -86 82 -10 23 -15 69 -15 129 0 93 0 94 -24 94 -59 0 -69 12 -144 178
-39 88 -72 162 -72 166 0 3 58 6 129 6 l129 0 29 45 28 45 778 0 777 0 0 90 0
90 455 0 455 0 0 95 0 95 -455 0 -455 0 0 85 0 85 -735 0 c-581 0 -735 3 -735
13 0 6 -28 53 -63 102 l-63 90 -639 3 -639 2 -41 -38 c-22 -20 -55 -51 -73
-67 l-33 -30 -45 24 c-37 20 -71 27 -177 35 l-131 11 -43 110 c-24 61 -43 111
-43 113 0 1 132 2 293 2 l292 0 217 254 c168 198 223 255 246 260 l29 7 -43
177 c-24 97 -46 187 -49 200 l-5 22 605 0 605 0 0 40 0 39 -367 6 c-203 3
-481 7 -619 10 l-252 6 -4 24 c-4 20 6 32 73 80 57 41 79 63 79 78 -1 12 -20
114 -43 226 l-42 204 -110 51 -110 51 -205 212 -205 213 -834 0 -835 0 -283
-102 -284 -101 -44 -82 c-34 -63 -45 -93 -45 -127 l0 -45 -406 -13 -406 -13
-15 -24 c-11 -16 -25 -23 -47 -23 -17 0 -41 -6 -52 -14 -13 -9 -74 -18 -174
-25 -85 -6 -176 -14 -202 -17 -46 -6 -48 -7 -48 -38 l0 -33 113 -6 c61 -4 200
-7 308 -7 108 0 230 -3 272 -6 l77 -7 0 -153 0 -154 290 0 290 0 0 -49 c0 -59
-29 -49 280 -92 129 -18 236 -33 236 -33 1 -1 -15 -110 -35 -243 l-37 -243 40
0 40 0 -41 -42 c-22 -24 -107 -122 -189 -218 -125 -147 -154 -186 -177 -246
l-28 -71 -211 -6 c-116 -4 -273 -7 -350 -7 l-138 0 0 -30 0 -30 210 0 c129 0
210 -4 210 -10 0 -5 59 -11 143 -13 123 -2 115 -3 -60 -5 l-203 -2 -1 -272
c-1 -150 -4 -298 -8 -330 l-6 -56 -162 117 c-103 74 -178 137 -207 172 l-46
56 0 162 0 163 -137 -2 c-76 -1 -243 -1 -370 -1 l-233 1 0 40 c0 29 -5 42 -20
50 -12 6 -20 21 -20 35 0 21 5 25 30 25 27 0 30 3 30 30 0 27 -3 30 -30 30
-20 0 -30 5 -30 15 0 11 12 15 50 15 l50 0 0 90 0 90 -140 0 c-133 0 -140 1
-140 20 0 16 7 20 35 20 40 0 39 -1 23 51 -9 31 -16 39 -35 39 l-23 0 0 160
c0 154 -1 160 -20 160 -26 0 -27 4 -34 128 l-6 102 95 0 95 0 0 205 0 205
-524 0 -524 0 -103 -120 -104 -119 -117 -1 -118 0 0 -85 0 -85 259 0 259 0 -4
-62 c-11 -153 -14 -168 -35 -168 -18 0 -19 -9 -19 -160 l0 -160 -23 0 c-19 0
-26 -8 -35 -39 -16 -52 -17 -51 28 -51 33 0 40 -3 40 -20 0 -19 -7 -20 -145
-20 l-145 0 0 -195 0 -195 -577 -2 c-318 -2 -687 -2 -820 0 l-243 3 0 97 c0
84 -4 110 -31 183 -17 46 -57 125 -91 177 l-61 92 -434 0 -435 0 -44 -36 -44
-36 -2 -330 -3 -329 -75 100 -74 101 -178 0 -178 0 0 70 0 70 -155 0 -155 0 0
200 0 200 -125 500 c-69 275 -125 502 -125 505 0 3 273 5 606 5 481 0 605 3
602 13 -3 6 -15 41 -27 77 -12 36 -82 189 -155 340 l-133 275 -421 3 -422 2
-4 23 c-3 12 -19 265 -36 562 -17 297 -33 563 -36 590 l-6 50 219 -7 c247 -7
3016 60 3021 74 2 4 91 8 198 8 l194 0 0 75 0 75 -788 0 c-434 0 -1133 3
-1554 7 l-766 6 -51 72 c-28 39 -66 86 -84 103 l-32 31 -450 37 -450 37 -98
69 -98 68 -175 0 c-131 0 -176 -3 -179 -12z"/>
</g>
</svg>
