<?xml version="1.0" standalone="no"?>
<!DOCTYPE svg PUBLIC "-//W3C//DTD SVG 20010904//EN"
 "http://www.w3.org/TR/2001/REC-SVG-20010904/DTD/svg10.dtd">
<svg version="1.0" xmlns="http://www.w3.org/2000/svg"
   viewBox="0 0 4492.000000 2055.000000"
 preserveAspectRatio="xMidYMid meet">
<metadata>
Created by potrace 1.16, written by Peter Selinger 2001-2019
</metadata>
<g transform="translate(0.000000,2055.000000) scale(0.100000,-0.100000)"
fill="#000000" stroke="none">
<path d="M9390 20451 l-415 -97 -278 -124 -277 -123 2 -504 3 -504 279 -124
c275 -122 282 -125 395 -140 63 -8 120 -15 126 -16 5 0 -61 -36 -147 -80
l-158 -79 0 -630 c0 -413 3 -630 10 -630 6 0 10 -5 10 -12 0 -6 -75 -203 -166
-438 l-166 -426 -1161 -188 -1162 -188 -977 -284 -977 -284 -463 -185 -463
-185 -535 25 c-593 28 -1123 75 -1422 125 -97 17 -209 30 -249 30 l-74 0 -557
-372 c-307 -204 -558 -374 -558 -378 0 -21 226 -101 827 -291 370 -117 671
-214 670 -214 -11 -8 -933 -870 -935 -876 -1 -3 193 -161 433 -349 l437 -343
189 -283 189 -284 -190 0 -190 0 0 -535 0 -535 1920 0 1920 0 0 -660 0 -660
-1920 0 -1920 0 0 -535 0 -535 190 0 190 0 -187 -281 -187 -280 -433 -340
c-238 -187 -435 -344 -438 -349 -3 -4 203 -203 457 -440 255 -237 464 -435
466 -439 1 -4 -307 -105 -685 -225 -379 -121 -716 -233 -751 -250 l-63 -32
565 -377 566 -377 66 0 c36 0 148 14 247 31 316 53 796 96 1408 125 l556 27
479 -191 479 -191 970 -280 970 -280 1149 -186 c633 -102 1151 -187 1153 -189
8 -7 333 -851 333 -863 0 -7 -4 -13 -10 -13 -7 0 -10 -216 -10 -628 l0 -627
161 -80 160 -80 -128 -16 -129 -16 -279 -124 -280 -125 -2 -504 -3 -505 288
-126 287 -127 397 -91 396 -91 1152 0 1151 0 479 60 c263 33 483 60 489 60 6
0 40 58 76 130 l65 130 0 435 0 435 333 0 333 0 605 96 c332 52 612 100 621
107 9 7 96 77 192 157 l175 145 0 722 1 723 -189 158 -190 158 -588 92 -588
93 -627 -1 c-592 0 -628 1 -627 18 0 9 10 81 22 159 l22 142 85 95 84 96 236
0 c233 0 237 0 320 28 l85 29 3 328 2 327 76 84 76 84 1042 1 1041 0 610 92
610 92 3 533 2 532 877 0 878 0 -90 -91 -90 -91 -310 -155 c-230 -115 -367
-177 -531 -239 -219 -82 -223 -83 -355 -94 -74 -6 -149 -13 -166 -16 l-33 -5
0 -92 0 -93 103 -32 102 -32 840 -26 c462 -13 941 -27 1065 -30 282 -7 3235
46 4770 86 l1155 30 785 65 c432 36 1494 122 2360 191 l1575 124 1330 170
c732 93 1415 179 1519 190 104 11 809 119 1565 239 l1376 219 395 97 c217 53
726 165 1130 251 l735 154 440 146 c269 89 574 199 784 282 l345 137 -424 5
-424 5 298 89 299 90 720 313 720 313 473 0 474 0 0 -60 0 -60 35 0 c20 0 53
9 74 20 38 19 39 19 56 0 17 -19 32 -20 219 -20 187 -1 951 44 986 58 13 5
-666 60 -762 61 l-38 1 0 93 0 94 98 6 c53 3 364 18 690 34 l592 27 0 33 0 33
-660 0 -660 0 0 30 c0 27 -3 30 -30 30 -27 0 -30 3 -30 30 l0 30 133 0 c72 0
395 16 717 35 322 19 653 35 735 36 l150 1 -160 54 c-88 30 -168 57 -177 60
-15 4 -18 -1 -18 -25 l0 -31 -533 0 -533 0 -29 30 -29 30 502 0 502 0 0 30 0
30 470 0 470 0 0 35 0 35 247 0 c135 0 244 2 242 5 -3 2 -126 16 -274 30 -240
22 -314 25 -712 25 l-443 0 0 30 0 30 -630 0 -630 0 0 94 0 95 53 5 c50 6 730
55 792 57 92 4 -878 68 -1036 68 l-185 1 -34 -35 c-23 -24 -43 -35 -62 -35
-26 0 -28 3 -28 37 l0 37 -35 -34 c-26 -25 -35 -42 -35 -67 l0 -33 -6345 0
-6345 0 0 660 0 660 6345 0 6345 0 0 -28 c0 -19 11 -39 35 -62 l35 -34 0 32
c0 28 3 32 28 32 18 0 38 -11 57 -30 l29 -30 240 1 c271 0 1017 50 936 62 -38
6 -740 57 -777 57 -10 0 -13 26 -13 95 l0 95 630 0 630 0 0 30 0 30 470 0 470
0 0 35 0 35 248 1 c136 1 240 3 232 5 -8 2 -112 14 -230 26 -182 19 -290 22
-702 25 l-488 4 0 29 0 30 -507 0 -507 0 29 30 29 30 565 0 566 1 160 33 c88
19 156 34 151 35 -18 2 -312 52 -338 57 -26 5 -28 3 -28 -25 0 -28 -3 -31 -32
-31 -18 0 -258 14 -533 30 -275 16 -571 30 -657 30 l-158 0 0 30 c0 27 3 30
30 30 28 0 30 3 30 35 l0 35 660 0 660 0 0 30 c0 24 -4 30 -22 30 -13 0 -302
14 -643 30 -341 16 -641 30 -667 30 l-48 0 0 95 c0 52 4 95 8 95 26 0 718 51
772 57 90 9 -751 71 -984 72 -163 1 -171 0 -194 -21 -22 -22 -24 -22 -34 -5
-8 14 -13 16 -24 6 -11 -9 -18 -8 -32 5 -10 9 -33 16 -50 16 l-32 0 0 -65 0
-65 -470 0 -470 0 -723 314 -723 315 -314 95 -315 95 435 1 435 1 -285 115
c-172 70 -478 180 -774 279 l-488 164 -738 156 c-405 85 -912 198 -1126 250
l-389 95 -1380 221 c-759 121 -1479 231 -1600 244 -121 13 -803 99 -1515 190
l-1295 165 -1560 125 c-858 68 -1598 127 -1645 130 -47 3 -398 33 -780 65
l-695 60 -1100 30 c-605 16 -1921 44 -2925 62 l-1825 32 -1030 -31 -1030 -32
-92 -31 -93 -32 0 -94 c0 -83 2 -94 18 -94 9 -1 85 -7 167 -15 150 -13 150
-13 360 -93 150 -56 302 -125 530 -240 l320 -160 90 -91 c49 -50 83 -91 75
-91 -8 0 -278 14 -600 30 -322 16 -597 30 -612 30 -24 0 -28 -4 -28 -30 l0
-30 -504 0 -504 0 -565 345 -564 345 -220 0 -219 0 -29 30 -29 30 -253 0 -253
0 0 125 0 125 -219 0 -219 0 -189 207 -188 208 -5 329 -5 329 -100 34 -99 33
-222 0 -223 0 -83 91 -83 90 -22 142 c-12 78 -22 150 -22 160 -1 16 35 17 623
17 l625 0 573 90 c315 49 583 93 596 97 12 5 105 77 207 162 l185 154 0 721 0
721 -189 158 -190 157 -599 95 -600 95 -341 0 -341 0 0 435 0 435 -65 129
c-63 127 -65 129 -102 135 -21 3 -255 33 -520 66 l-482 60 -1113 -1 -1113 0
-415 -98z"/>
</g>
</svg>
