<?xml version="1.0" standalone="no"?>
<!DOCTYPE svg PUBLIC "-//W3C//DTD SVG 20010904//EN"
 "http://www.w3.org/TR/2001/REC-SVG-20010904/DTD/svg10.dtd">
<svg version="1.0" xmlns="http://www.w3.org/2000/svg"
   viewBox="0 0 4378.000000 1608.000000"
 preserveAspectRatio="xMidYMid meet">
<metadata>
Created by potrace 1.16, written by Peter Selinger 2001-2019
</metadata>
<g transform="translate(0.000000,1608.000000) scale(0.100000,-0.100000)"
fill="#000000" stroke="none">
<path d="M2645 15854 c-143 -124 -270 -235 -282 -247 l-22 -22 54 -72 c30 -40
55 -75 55 -78 0 -3 -207 -5 -460 -5 l-460 0 0 -350 0 -350 -47 0 c-45 0 -51
-4 -110 -62 l-63 -62 -77 -233 -78 -233 -331 0 c-314 0 -338 -1 -454 -25 -96
-19 -149 -37 -246 -82 l-123 -58 -1 -547 0 -546 117 -57 c97 -47 143 -62 256
-86 127 -27 154 -29 347 -29 l210 0 0 -440 0 -440 795 -2 795 -3 -141 -62
-140 -63 -509 0 c-279 0 -515 -3 -524 -6 -14 -6 -16 -98 -16 -949 l0 -943 -60
-225 -60 -224 0 -201 0 -202 -255 0 -255 0 0 -120 0 -120 -160 0 -160 0 0
-250 0 -250 160 0 c136 0 160 -2 160 -15 0 -12 -15 -15 -75 -15 l-75 0 0 -140
0 -140 75 0 c60 0 75 -3 75 -15 0 -13 -24 -15 -160 -15 l-160 0 0 -250 0 -250
160 0 160 0 0 -120 0 -120 255 0 255 0 0 -202 0 -201 60 -224 60 -225 0 -943
c0 -851 2 -943 16 -949 9 -3 245 -6 524 -6 l509 0 140 -62 141 -63 -795 -3
-795 -2 0 -440 0 -440 -210 0 c-193 0 -220 -2 -347 -29 -112 -24 -160 -40
-255 -85 l-118 -57 0 -547 1 -547 123 -58 c97 -45 150 -63 246 -82 116 -24
140 -25 454 -25 l331 0 78 -233 77 -233 63 -62 c59 -58 65 -62 110 -62 l47 0
0 -350 0 -350 460 0 c253 0 460 -2 460 -5 0 -3 -25 -38 -55 -78 l-54 -72 22
-22 c12 -12 139 -123 282 -247 l260 -225 746 -1 746 0 7 42 c5 28 28 71 73
134 l66 93 305 3 305 3 86 -93 c63 -69 89 -104 97 -135 l11 -42 326 -3 327 -2
0 24 c0 39 14 68 80 159 l62 86 304 3 305 3 89 -96 c73 -79 91 -104 96 -138
l7 -41 2680 0 2680 0 368 243 c203 133 369 244 369 247 0 3 -51 58 -113 122
l-112 117 -313 -218 -314 -218 -681 -7 c-375 -3 -1287 -8 -2027 -12 -1310 -5
-2339 -18 -2410 -30 -34 -5 -37 -3 -123 100 -88 105 -89 106 -133 106 l-44 0
0 100 0 100 73 0 74 0 197 225 198 225 322 0 323 0 199 -90 198 -90 1492 0
1492 0 711 436 711 436 0 384 0 384 418 0 417 0 113 41 c67 25 112 47 112 56
0 7 4 13 9 13 6 0 11 -90 13 -217 l3 -218 44 -153 44 -152 1068 0 1069 0 0
-28 c0 -17 10 -37 23 -50 22 -21 31 -22 238 -22 212 0 216 0 237 23 12 13 22
35 22 50 l0 27 454 0 454 0 126 162 126 162 0 208 0 208 50 0 50 0 1 -217 0
-218 42 -150 42 -150 1073 -3 1072 -2 0 -33 c0 -64 10 -67 257 -67 200 0 221
2 236 18 10 10 17 33 17 50 l0 32 458 1 457 0 123 159 122 159 0 210 0 211 50
0 50 0 0 -207 0 -208 40 -145 c23 -80 43 -153 46 -162 5 -17 65 -18 1075 -18
l1069 0 0 -33 c0 -64 10 -67 257 -67 217 0 220 0 241 23 12 13 22 35 22 50 l0
27 453 0 454 0 121 157 122 157 0 163 0 163 55 0 55 0 0 -166 c0 -163 1 -168
42 -320 l42 -154 1068 0 1068 0 0 -28 c0 -17 10 -37 23 -50 22 -21 31 -22 244
-22 200 0 221 2 236 18 10 10 17 33 17 50 l0 32 457 2 457 3 122 155 123 155
0 163 1 162 50 0 50 0 0 -85 0 -86 283 3 282 3 83 33 c80 33 82 34 82 68 l0
34 190 0 190 0 0 -130 0 -130 130 0 130 0 0 130 0 130 30 0 30 0 0 -195 0
-195 125 0 125 0 0 195 0 195 30 0 30 0 0 -130 0 -130 130 0 130 0 0 130 c0
123 1 130 20 130 20 0 20 -7 20 -320 l0 -320 -62 0 -63 -1 -79 -101 -79 -101
-96 8 c-53 4 -334 10 -626 14 -291 5 -542 12 -557 17 -15 5 -136 107 -269 227
l-241 218 -83 -113 c-46 -62 -83 -117 -82 -123 0 -5 127 -119 281 -252 l280
-243 742 0 742 0 6 23 c3 12 6 31 6 42 1 11 31 62 68 113 l67 92 309 1 309 0
87 -94 c71 -77 88 -101 94 -135 l6 -42 325 0 324 0 6 43 c5 30 26 69 73 135
l67 93 307 0 306 0 86 -90 c48 -51 88 -103 92 -118 3 -16 8 -36 11 -45 4 -17
140 -18 2681 -18 l2677 0 365 243 c201 133 365 247 366 252 1 6 -47 61 -107
123 l-108 113 -317 -219 -316 -220 -1297 -7 c-1697 -9 -3618 -25 -3752 -31
l-107 -5 -83 100 -83 101 -48 0 -48 0 0 320 0 320 35 0 35 0 0 -130 0 -130
130 0 130 0 0 130 0 130 30 0 30 0 0 -195 0 -195 125 0 125 0 0 195 0 195 35
0 35 0 0 -130 0 -130 125 0 125 0 0 130 0 130 174 0 175 0 3 -36 c3 -36 3 -37
101 -72 l97 -36 0 -73 0 -73 1223 0 1223 0 2440 526 c2389 515 2440 526 2481
558 23 18 217 250 432 517 l391 484 0 698 0 697 -445 0 -445 0 0 115 0 115
-1380 0 -1380 0 0 48 0 48 -212 182 -212 182 -425 0 -425 0 -103 68 -103 67 0
70 0 70 80 50 c44 28 80 52 80 55 0 3 10 21 22 40 43 68 48 97 48 298 l0 192
220 0 220 0 0 85 0 85 -230 0 -230 0 0 345 0 345 30 0 30 0 0 195 0 195 200 0
200 0 0 85 0 85 -220 0 -220 0 0 193 c0 200 -5 229 -48 297 -12 19 -22 37 -22
40 0 3 -36 28 -80 55 l-80 50 0 70 0 70 103 68 103 67 425 0 425 0 212 182
212 182 0 48 0 48 1380 0 1380 0 0 115 0 115 445 0 445 0 0 698 0 697 -391
484 c-214 266 -409 499 -432 517 -41 32 -86 42 -2481 558 l-2439 526 -1224 0
-1223 0 0 -73 0 -73 -97 -36 c-98 -35 -98 -36 -101 -72 l-3 -36 -175 0 -174 0
0 135 0 135 -125 0 -125 0 0 -135 0 -135 -35 0 -35 0 0 195 0 195 -125 0 -125
0 0 -195 0 -195 -30 0 -30 0 0 135 0 135 -130 0 -130 0 0 -135 0 -135 -35 0
-35 0 0 320 0 320 43 0 c52 0 55 2 147 113 l73 88 106 -5 c129 -5 2042 -22
3772 -31 l1276 -7 317 -220 317 -219 108 113 c60 62 108 118 107 123 0 6 -165
119 -366 252 l-365 243 -2677 0 -2678 0 -6 -27 c-3 -16 -8 -36 -11 -46 -3 -10
-43 -59 -90 -108 l-85 -90 -306 0 -307 0 -67 93 c-47 66 -68 105 -73 136 l-6
42 -324 0 -325 0 -6 -42 c-6 -34 -22 -58 -95 -135 l-87 -94 -308 0 -309 1 -67
92 c-37 51 -67 102 -68 113 0 11 -3 30 -6 43 l-6 22 -742 0 -743 0 -279 -242
c-154 -134 -281 -247 -282 -251 -2 -4 35 -60 81 -123 l85 -115 243 220 c134
121 254 223 268 226 15 4 265 11 556 15 292 4 573 11 626 15 l95 8 80 -99 79
-99 63 -3 62 -3 0 -319 c0 -313 0 -320 -20 -320 -19 0 -20 7 -20 135 l0 135
-130 0 -130 0 0 -135 0 -135 -30 0 -30 0 0 195 0 195 -125 0 -125 0 0 -195 0
-195 -30 0 -30 0 0 135 0 135 -130 0 -130 0 0 -135 0 -135 -190 0 -190 0 0 34
c0 34 -2 35 -82 68 l-83 33 -282 3 -283 3 0 -86 0 -85 -50 0 -50 0 -1 163 0
162 -123 155 -122 155 -457 3 -457 2 0 34 c0 63 -10 66 -257 66 -217 0 -220 0
-241 -23 -12 -13 -22 -35 -22 -50 l0 -27 -1068 0 -1068 0 -42 -154 c-41 -152
-42 -157 -42 -320 l0 -166 -55 0 -55 0 0 163 0 163 -122 157 -121 157 -454 0
-453 0 0 28 c0 17 -10 37 -23 50 -22 21 -31 22 -244 22 -200 0 -221 -2 -236
-18 -10 -10 -17 -33 -17 -50 l0 -32 -1069 0 c-1010 0 -1070 -1 -1075 -17 -3
-10 -23 -83 -46 -163 l-40 -145 0 -207 0 -208 -50 0 -50 0 0 211 0 211 -122
159 -123 158 -457 1 -458 0 0 33 c0 64 -10 67 -257 67 -200 0 -221 -2 -236
-18 -10 -10 -17 -33 -17 -50 l0 -32 -1072 -2 -1072 -3 -43 -150 -42 -150 -1
-217 0 -218 -50 0 -50 0 0 208 0 208 -126 162 -126 162 -454 0 -454 0 0 33 c0
64 -10 67 -257 67 -217 0 -220 0 -241 -23 -12 -13 -22 -35 -22 -50 l0 -27
-1069 0 -1068 0 -44 -152 -44 -153 -3 -217 c-2 -128 -7 -218 -13 -218 -5 0 -9
6 -9 13 0 9 -45 31 -112 56 l-113 41 -417 0 -418 0 0 384 0 384 -711 436 -711
436 -1492 0 -1492 0 -198 -90 -199 -90 -322 0 -323 0 -198 225 -197 225 -74 0
-73 0 0 100 0 100 44 0 c44 0 45 1 133 106 86 103 89 105 123 100 70 -12 1136
-25 2460 -30 745 -4 1649 -9 2007 -12 l653 -7 312 -218 313 -218 112 117 c62
64 113 119 113 122 0 3 -166 114 -369 248 l-368 242 -2680 0 -2680 0 -7 -41
c-5 -34 -23 -58 -96 -138 l-90 -96 -304 3 -304 3 -62 86 c-66 91 -80 120 -80
159 l0 24 -327 -2 -326 -3 -11 -42 c-8 -31 -34 -66 -97 -135 l-86 -93 -305 3
-305 3 -66 93 c-45 63 -68 106 -73 134 l-7 42 -746 0 -746 -1 -260 -225z
m1725 -100 c97 -127 93 -124 155 -124 l55 0 0 -100 0 -100 -985 0 c-542 0
-985 2 -985 4 0 2 88 83 195 180 l194 176 78 15 c62 12 176 15 548 16 259 1
511 4 560 8 50 5 97 8 105 9 8 0 44 -37 80 -84z m1295 72 c88 0 177 4 197 8
l37 7 82 -106 83 -105 53 0 53 0 0 -100 0 -100 -495 0 -495 0 0 99 0 100 42 3
c40 3 47 8 128 105 84 101 85 102 120 95 19 -4 107 -7 195 -6z m27290 -1459
c6 0 67 4 136 8 l126 7 79 -101 79 -101 52 0 53 0 0 -320 c0 -278 -2 -320 -15
-320 -13 0 -15 22 -15 135 l0 135 -130 0 -130 0 0 -135 0 -135 -30 0 -30 0 0
195 0 195 -125 0 -125 0 0 -195 0 -195 -30 0 -30 0 0 135 0 135 -130 0 -130 0
0 -135 0 -135 -30 0 -30 0 0 320 0 320 39 0 c37 0 42 5 122 101 l83 101 101
-8 c55 -4 105 -7 110 -7z m-16602 -284 c-18 -2 -48 -2 -65 0 -18 2 -4 4 32 4
36 0 50 -2 33 -4z m4000 0 c-18 -2 -48 -2 -65 0 -18 2 -4 4 32 4 36 0 50 -2
33 -4z m4010 0 c-18 -2 -48 -2 -65 0 -18 2 -4 4 32 4 36 0 50 -2 33 -4z m4000
0 c-18 -2 -48 -2 -65 0 -18 2 -4 4 32 4 36 0 50 -2 33 -4z m-25493 -2383 l0
-50 -90 0 -90 0 0 -60 0 -60 -65 0 c-65 0 -65 0 -65 28 0 26 11 34 153 110 83
45 153 82 155 82 1 0 2 -22 2 -50z m-1034 -233 c2 -2 -44 -18 -101 -37 l-105
-34 0 -348 0 -348 -95 0 -95 0 0 444 0 443 197 -58 c108 -32 198 -60 199 -62z
m-206 -1125 l0 -138 -37 -13 c-21 -8 -64 -39 -95 -69 l-58 -55 0 206 0 207 95
0 95 0 0 -138z m147 -609 c29 -9 53 -19 53 -23 0 -11 -90 -30 -142 -30 l-52 0
34 35 c39 41 37 40 107 18z m8 -3345 c25 -7 45 -15 45 -18 0 -4 -27 -15 -61
-25 l-60 -19 -37 37 -37 37 53 0 c28 0 72 -5 97 -12z m-192 -499 l37 -13 0
-138 0 -138 -95 0 -95 0 0 207 0 206 58 -55 c31 -30 74 -61 95 -69z m37 -857
l0 -348 105 -34 c57 -19 103 -35 101 -37 -1 -2 -91 -29 -199 -62 l-197 -58 0
443 0 444 95 0 95 0 0 -348z m1060 -542 l0 -60 90 0 90 0 0 -51 0 -51 -127 68
c-191 101 -183 96 -183 127 0 27 1 27 65 27 l65 0 0 -60z m29870 -2080 l0
-130 130 0 130 0 0 130 0 130 30 0 30 0 0 -195 0 -195 125 0 125 0 0 195 0
195 30 0 30 0 0 -130 0 -130 130 0 130 0 0 130 c0 109 2 130 15 130 13 0 15
-42 15 -320 l0 -320 -54 0 -53 0 -78 -101 -77 -101 -127 8 c-151 9 -134 9
-251 0 l-95 -8 -84 101 c-80 96 -86 101 -123 101 l-38 0 0 320 0 320 30 0 30
0 0 -130z m-16207 -417 c-18 -2 -48 -2 -65 0 -18 2 -4 4 32 4 36 0 50 -2 33
-4z m4000 0 c-18 -2 -48 -2 -65 0 -18 2 -4 4 32 4 36 0 50 -2 33 -4z m4010 0
c-18 -2 -48 -2 -65 0 -18 2 -4 4 32 4 36 0 50 -2 33 -4z m4000 0 c-18 -2 -48
-2 -65 0 -18 2 -4 4 32 4 36 0 50 -2 33 -4z m-23783 -1443 l0 -100 -55 0 c-62
0 -58 3 -155 -124 -57 -76 -68 -85 -90 -80 -14 3 -272 8 -575 10 -417 4 -569
9 -628 19 l-78 15 -194 176 c-107 97 -195 178 -195 180 0 2 443 4 985 4 l985
0 0 -100z m1590 0 l0 -100 -53 0 -53 0 -83 -105 c-76 -97 -84 -105 -109 -98
-26 6 -375 8 -418 1 -15 -2 -41 22 -105 97 -80 94 -87 100 -127 103 l-42 3 0
100 0 99 495 0 495 0 0 -100z"/>
</g>
</svg>
