<?xml version="1.0" standalone="no"?>
<!DOCTYPE svg PUBLIC "-//W3C//DTD SVG 20010904//EN"
 "http://www.w3.org/TR/2001/REC-SVG-20010904/DTD/svg10.dtd">
<svg version="1.0" xmlns="http://www.w3.org/2000/svg"
   viewBox="0 0 4655.000000 827.000000"
 preserveAspectRatio="xMidYMid meet">
<metadata>
Created by potrace 1.16, written by Peter Selinger 2001-2019
</metadata>
<g transform="translate(0.000000,827.000000) scale(0.100000,-0.100000)"
fill="#000000" stroke="none">
<path d="M10765 8116 l-100 -155 -807 0 -807 -1 -108 65 -108 65 -1375 0
c-1127 -1 -1378 -3 -1392 -14 -16 -12 -18 -34 -18 -203 0 -134 4 -193 12 -201
9 -9 145 -12 550 -12 l538 0 0 -225 0 -225 -29 0 c-16 0 -34 -6 -40 -14 -14
-16 -11 -560 3 -588 7 -17 0 -18 -96 -18 -88 0 -107 -3 -120 -17 -12 -14 -24
-140 -57 -588 -23 -313 -44 -594 -47 -622 l-6 -53 -57 0 -57 0 -63 -70 -62
-70 -76 0 c-41 0 -320 29 -618 65 -299 36 -548 65 -554 65 -7 0 -11 39 -11
110 l0 110 445 0 444 0 -5 158 c-2 86 -7 217 -10 290 l-6 132 -972 -2 -971 -3
-3 -255 c-2 -140 0 -270 3 -287 l6 -33 324 0 325 0 0 -85 0 -84 -27 4 c-164
29 -307 35 -822 35 l-541 0 0 140 0 140 -330 0 -330 0 0 224 c0 180 -3 226
-14 235 -22 19 -2734 -175 -2758 -196 -17 -15 -18 -55 -18 -574 0 -625 12
-905 38 -926 12 -8 57 -12 140 -13 l122 0 0 -290 0 -290 -123 0 c-83 0 -129
-4 -140 -12 -26 -20 -37 -296 -37 -927 l0 -558 23 -12 c31 -16 2725 -212 2750
-199 15 8 17 29 17 233 l0 225 330 0 330 0 0 140 0 140 528 0 c464 0 546 3
687 20 88 11 163 20 168 20 4 0 7 -38 7 -85 l0 -85 -324 0 -324 0 -6 -22 c-8
-30 -8 -522 0 -542 6 -14 101 -16 974 -16 l968 0 6 133 c3 72 8 203 10 289 l5
158 -444 0 -445 0 0 110 0 109 33 6 c140 24 1060 125 1137 125 l95 0 55 -64
55 -65 61 0 61 -1 6 -52 c3 -29 25 -309 48 -623 33 -450 45 -574 57 -587 13
-15 33 -18 125 -18 l109 0 -16 -25 c-14 -21 -16 -62 -16 -297 1 -295 3 -308
54 -308 l26 0 0 -225 0 -225 -538 0 c-405 0 -541 -3 -550 -12 -17 -17 -17
-379 0 -396 9 -9 333 -12 1398 -12 l1385 0 100 60 100 60 810 0 810 0 99 -150
99 -150 598 0 599 0 0 50 0 50 190 0 190 0 0 -50 0 -50 1195 0 1195 0 0 50 0
50 185 0 185 0 0 -50 0 -50 1195 0 1195 0 0 50 0 50 190 0 190 0 0 -50 0 -50
1195 0 1195 0 0 50 0 50 185 0 185 0 0 -50 0 -50 1200 0 1200 0 0 50 0 50 185
0 185 0 0 -50 0 -50 1195 0 1195 0 0 50 0 50 185 0 185 0 0 -50 0 -50 1195 0
1195 0 0 50 0 50 190 0 190 0 0 -50 0 -50 1200 0 1200 0 0 50 0 50 180 0 180
0 0 -50 0 -50 588 0 c444 0 591 3 600 12 7 7 12 44 12 95 l0 83 88 0 c55 0 92
4 100 12 9 9 12 84 12 275 l0 263 23 0 c12 0 231 7 487 15 256 8 491 15 523
15 44 0 57 3 57 15 0 11 -11 15 -37 15 -21 0 -247 7 -503 15 -256 8 -484 15
-507 15 l-43 0 0 64 c0 76 0 76 -116 76 l-84 0 0 40 c0 32 4 40 18 40 10 0 28
7 40 16 22 15 22 17 22 298 0 261 -1 284 -18 299 -16 15 -45 17 -202 17 l-183
0 7 53 c3 28 6 60 6 70 0 16 19 17 258 17 186 0 312 6 452 20 182 19 266 20
1292 20 1091 0 1098 0 1098 20 0 19 7 20 115 20 l115 0 0 -25 c0 -24 1 -25 58
-19 31 3 414 32 850 64 437 32 795 60 797 62 2 2 -380 38 -848 80 -636 57
-854 73 -859 65 -4 -7 -9 -16 -11 -22 -2 -6 -51 -12 -110 -13 -101 -4 -107 -3
-107 16 0 18 -9 21 -87 26 -69 5 -100 13 -143 35 -30 16 -345 180 -699 366
l-644 338 -571 48 c-314 26 -572 48 -574 48 -2 1 0 6 3 11 4 7 267 10 756 10
l749 0 0 50 0 50 1060 0 1059 0 7 -60 c11 -100 -36 -96 631 -55 740 45 1930
122 2098 135 72 5 839 64 1705 130 866 66 1591 123 1610 126 48 9 55 17 70 72
7 26 16 50 19 53 3 4 34 10 69 13 l62 7 0 -49 c0 -28 6 -54 13 -60 9 -8 88 -3
277 18 326 36 2413 254 2640 275 l166 16 218 84 c120 46 220 86 221 87 1 2 14
26 29 55 25 49 26 60 25 195 0 134 -2 146 -27 198 l-27 55 -220 86 -220 86
-145 12 c-140 12 -2442 253 -2762 289 -184 21 -188 20 -188 -55 l0 -50 -52 5
c-73 6 -81 13 -101 75 -17 53 -17 54 -70 65 -28 6 -326 32 -662 57 -335 25
-1049 79 -1585 120 -536 41 -1121 84 -1300 95 -179 11 -523 34 -765 50 -242
16 -715 46 -1051 66 -670 41 -674 41 -674 -15 0 -14 -3 -43 -6 -63 l-7 -38
-1058 0 -1059 0 0 50 0 50 -747 2 c-412 0 -732 3 -713 5 19 3 274 24 566 48
l531 43 698 368 c383 202 703 374 710 381 9 8 40 13 89 13 69 0 76 2 76 20 0
19 7 20 109 20 101 0 110 -2 116 -20 5 -15 15 -20 38 -20 46 0 1668 148 1672
152 2 2 -352 30 -786 62 -435 32 -819 61 -855 64 -60 4 -64 4 -64 -17 0 -19
-6 -21 -54 -21 -29 0 -81 -3 -115 -6 -56 -6 -61 -5 -61 13 0 20 -12 20 -1117
27 -990 6 -1139 9 -1322 26 -133 13 -287 20 -432 20 l-226 0 -7 53 c-11 96
-30 87 182 87 133 0 192 4 200 12 9 9 12 89 12 296 0 260 -2 286 -17 298 -10
7 -28 14 -40 14 -20 0 -23 5 -23 40 l0 40 88 0 c55 0 92 4 100 12 7 7 12 38
12 69 l0 57 68 6 c37 3 282 11 545 17 365 10 477 15 477 25 0 16 -86 21 -555
34 -203 6 -407 13 -452 16 l-83 6 0 264 c0 307 10 284 -119 284 l-81 0 0 83
c0 51 -5 88 -12 95 -9 9 -156 12 -600 12 l-588 0 0 -50 0 -50 -180 0 -180 0 0
50 0 50 -1200 0 -1200 0 0 -50 0 -50 -190 0 -190 0 0 50 0 50 -1195 0 -1195 0
0 -50 0 -50 -185 0 -185 0 0 50 0 50 -1195 0 -1195 0 0 -50 0 -50 -185 0 -185
0 0 50 0 50 -1200 0 -1200 0 0 -50 0 -50 -185 0 -185 0 0 50 0 50 -1195 0
-1195 0 0 -50 0 -50 -190 0 -190 0 0 50 0 50 -1195 0 -1195 0 0 -50 0 -50
-185 0 -185 0 0 50 0 50 -1195 0 -1195 0 0 -50 0 -50 -190 0 -190 0 0 50 0 50
-598 0 -597 0 -100 -154z m12582 -1544 c-25 -27 -24 -153 1 -175 10 -9 128
-62 262 -117 l245 -100 102 0 102 0 3 -42 c5 -67 10 -68 338 -68 202 -1 303
-5 345 -14 54 -13 14 -14 -382 -15 l-443 -1 0 -180 0 -180 -2149 0 -2149 0
-241 -200 -240 -200 -1238 0 -1238 0 -65 148 -66 147 -1109 2 -1110 3 -105
-203 -105 -202 -230 -3 -229 -2 -68 67 -68 67 -2048 4 -2048 4 -26 332 c-15
182 -25 332 -24 334 2 1 515 6 1141 9 l1138 6 436 298 436 298 5424 0 c5254 1
5424 0 5408 -17z m11252 -493 c-17 -6 -123 -7 -290 -1 l-264 9 290 1 c196 0
282 -3 264 -9z m-20391 -3189 l103 -200 1112 0 1112 0 65 145 64 145 1241 0
1241 0 239 -200 240 -200 2148 0 2147 0 0 -180 0 -180 498 -1 c291 -1 480 -5
457 -10 -22 -4 -197 -8 -390 -8 -312 -1 -354 -3 -385 -19 -31 -15 -35 -22 -38
-59 l-3 -43 -107 0 -107 0 -235 -96 c-129 -53 -245 -104 -257 -113 -19 -14
-22 -25 -23 -85 0 -51 4 -74 17 -88 16 -17 -154 -18 -5410 -18 l-5426 0 -441
300 -441 300 -1135 0 -1135 0 7 73 c3 39 16 191 28 337 l21 265 2052 3 2051 2
59 65 58 64 235 1 235 0 103 -200z"/>
</g>
</svg>
