<?xml version="1.0" standalone="no"?>
<!DOCTYPE svg PUBLIC "-//W3C//DTD SVG 20010904//EN"
 "http://www.w3.org/TR/2001/REC-SVG-20010904/DTD/svg10.dtd">
<svg version="1.0" xmlns="http://www.w3.org/2000/svg"
   viewBox="0 0 3799.000000 4749.000000"
 preserveAspectRatio="xMidYMid meet">
<metadata>
Created by potrace 1.16, written by Peter Selinger 2001-2019
</metadata>
<g transform="translate(0.000000,4749.000000) scale(0.100000,-0.100000)"
fill="#000000" stroke="none">
<path d="M16454 47426 l-1342 -63 -739 -183 -739 -183 -73 -202 -73 -201 -746
-238 -747 -238 -830 -376 -830 -376 -527 -306 -527 -305 -398 -510 -399 -510
-348 -775 c-192 -426 -349 -776 -350 -777 -2 -2 -72 125 -157 282 -85 157
-158 284 -164 282 -5 -2 -1298 -352 -2872 -778 l-2863 -774 0 -3860 0 -3861
2863 -774 c1574 -425 2867 -775 2872 -777 6 -2 175 356 376 794 l367 798 1323
5 1324 5 1948 579 1947 579 0 1054 0 1053 148 0 147 -1 210 -334 210 -334 248
-142 247 -142 0 -1301 0 -1301 -373 -271 -372 -270 -3 -807 -2 -807 -1604 0
-1603 0 -238 -277 -238 -278 -421 -127 -421 -128 -3562 0 -3563 0 0 -359 0
-360 43 -5 c23 -3 1333 -89 2911 -191 1578 -102 2871 -187 2873 -189 2 -2
-154 -332 -346 -733 -193 -401 -351 -733 -351 -739 0 -5 58 -57 129 -114 l129
-105 -27 -36 c-14 -19 -214 -280 -444 -580 l-417 -544 -1329 -148 -1328 -149
-1024 -324 -1024 -324 -1339 -221 -1339 -221 -111 -95 c-171 -148 -370 -423
-469 -646 -54 -121 -58 -138 -78 -285 l-22 -157 21 -156 c20 -149 24 -164 81
-293 60 -137 133 -254 285 -455 67 -89 251 -261 300 -282 12 -4 615 -106 1341
-225 l1320 -216 1025 -325 1025 -324 1330 -150 c1131 -127 1332 -151 1346
-166 9 -10 189 -243 399 -518 211 -275 405 -528 431 -561 l49 -62 -126 -102
c-69 -56 -128 -108 -130 -115 -3 -6 153 -340 345 -740 193 -401 348 -732 343
-735 -4 -4 -1280 -89 -2837 -189 -1556 -101 -2865 -185 -2907 -188 l-78 -6 0
-363 0 -364 3571 0 3570 0 402 -121 c221 -67 409 -125 417 -129 8 -5 119 -130
245 -279 l230 -270 1608 0 1607 -1 0 -807 0 -808 373 -271 372 -270 0 -1304 0
-1304 -245 -141 -244 -141 -211 -334 -212 -335 -146 -3 -147 -3 -2 1057 -3
1057 -1945 581 -1945 580 -1325 6 -1324 5 -244 530 c-134 292 -298 649 -365
795 l-122 265 -2870 -776 -2870 -776 -3 -3861 -2 -3861 52 -15 c153 -44 5678
-1536 5687 -1536 5 0 78 128 162 283 l153 284 351 -781 352 -781 399 -509 399
-508 523 -303 523 -304 827 -375 827 -375 745 -237 c410 -130 750 -243 755
-249 6 -7 41 -98 79 -204 l69 -191 38 -10 c21 -6 355 -89 741 -185 l703 -174
1380 -62 1381 -63 924 667 925 667 88 0 c48 0 87 -3 87 -7 0 -5 23 -159 50
-343 27 -184 50 -338 50 -342 0 -5 154 -8 343 -8 l342 -1 75 -94 c41 -52 79
-95 84 -95 5 0 389 102 854 226 l844 226 906 329 907 329 858 422 857 422 0
183 0 182 -130 353 -130 353 0 530 0 530 130 50 130 50 -1 60 c0 33 -10 380
-22 770 -22 702 -22 720 -6 1520 14 738 17 813 34 845 10 19 19 37 21 39 2 2
45 11 95 20 l91 16 450 960 449 960 35 280 c18 154 36 297 40 318 l6 37 -726
0 -726 0 0 125 0 125 -958 0 -957 0 -211 333 -210 332 -245 141 -244 140 0
1304 0 1304 372 270 373 271 0 343 0 342 2069 0 2068 0 928 2064 929 2063 80
7 c45 3 340 6 656 7 632 1 1430 14 1471 24 25 7 30 -1 154 -237 70 -133 128
-244 129 -244 3 -4 392 53 726 106 l384 60 521 185 521 185 128 -66 c74 -39
135 -64 146 -61 18 5 1767 1191 1842 1249 65 51 228 244 673 798 l438 545 199
790 198 790 -195 775 c-107 426 -201 786 -208 800 -20 38 -860 1079 -978 1213
l-104 117 -925 630 c-543 370 -934 630 -947 630 -13 0 -79 -28 -147 -62 l-124
-61 -528 186 -529 187 -385 59 c-456 71 -699 105 -706 98 -3 -2 -61 -110 -129
-238 l-123 -234 -49 2 c-26 2 -527 7 -1113 13 -585 6 -1068 14 -1072 18 -4 4
-424 932 -932 2062 l-925 2055 -2068 5 c-1137 3 -2069 6 -2070 8 -2 1 -4 156
-5 344 l-3 342 -372 270 -373 271 0 1301 0 1300 247 142 247 142 207 327 207
328 961 3 961 2 0 125 0 125 725 0 c399 0 725 1 725 3 0 1 -18 145 -39 320
l-40 318 -446 952 c-245 524 -452 957 -460 963 -8 6 -52 16 -99 23 l-84 13
-18 46 c-16 42 -19 127 -34 842 -15 788 -15 802 7 1535 13 407 22 757 21 779
l-3 39 -125 47 -125 48 -3 530 -2 531 130 353 130 353 -2 184 -3 184 -850 419
-850 419 -910 331 -910 330 -795 213 c-437 117 -821 220 -853 228 l-57 15 -77
-94 -77 -94 -343 0 c-212 0 -343 -4 -343 -10 0 -5 -22 -160 -50 -345 -27 -185
-50 -338 -50 -340 0 -3 -41 -5 -90 -5 l-90 0 -918 662 c-867 626 -919 662
-962 664 -25 1 -649 -26 -1386 -60z"/>
</g>
</svg>
