<?xml version="1.0" standalone="no"?>
<!DOCTYPE svg PUBLIC "-//W3C//DTD SVG 20010904//EN"
 "http://www.w3.org/TR/2001/REC-SVG-20010904/DTD/svg10.dtd">
<svg version="1.0" xmlns="http://www.w3.org/2000/svg"
   viewBox="0 0 4228.000000 1908.000000"
 preserveAspectRatio="xMidYMid meet">
<metadata>
Created by potrace 1.16, written by Peter Selinger 2001-2019
</metadata>
<g transform="translate(0.000000,1908.000000) scale(0.100000,-0.100000)"
fill="#000000" stroke="none">
<path d="M21135 19012 l-120 -67 -539 -5 -539 -5 -607 -1740 -608 -1740 584
-3 584 -2 -106 -211 c-100 -199 -112 -219 -224 -352 l-118 -142 -230 -142
c-127 -79 -288 -180 -359 -227 l-129 -84 -31 -524 c-18 -310 -28 -551 -24
-593 l6 -69 358 -82 c197 -45 359 -83 361 -85 1 -2 65 -112 141 -244 76 -132
139 -241 140 -242 1 -2 185 -27 410 -55 l408 -53 -601 -3 -601 -2 -338 157
-338 157 -1805 12 -1805 13 -1030 -75 c-566 -41 -1044 -77 -1062 -80 -27 -4
-34 -11 -43 -42 -5 -20 -10 -67 -10 -104 l0 -67 -42 -5 c-24 -3 -137 -8 -253
-11 -115 -3 -278 -8 -360 -11 l-150 -7 -18 38 c-10 21 -84 129 -165 240 l-147
201 -305 72 -305 72 -299 -72 -300 -73 -152 -210 c-109 -149 -160 -228 -175
-271 l-22 -61 -210 -6 c-116 -4 -241 -7 -278 -7 l-67 0 -44 113 c-39 100 -60
134 -194 318 l-149 206 -303 73 -304 72 -302 -72 -301 -72 -152 -209 c-148
-203 -154 -212 -204 -346 -29 -76 -56 -142 -60 -147 -4 -5 -110 -12 -236 -17
-125 -4 -244 -11 -264 -13 l-36 -6 -44 117 c-41 108 -55 131 -197 327 l-154
211 -301 73 -302 72 -303 -72 -303 -72 -153 -210 c-151 -209 -153 -212 -211
-366 l-59 -155 -73 3 -73 4 0 -35 c0 -32 -3 -35 -38 -41 -20 -3 -55 -6 -78 -6
-31 0 -46 -6 -67 -28 l-27 -28 0 -466 0 -466 -28 -6 c-15 -3 -81 -13 -147 -22
-103 -14 -130 -23 -191 -56 -78 -41 -79 -43 -89 -110 -4 -25 -10 -50 -15 -57
-5 -9 -460 -87 -1301 -223 -1015 -165 -1299 -208 -1319 -200 -14 6 -67 29
-118 51 -90 40 -95 41 -202 41 -126 0 -144 -6 -303 -104 -63 -40 -97 -67 -97
-78 0 -10 -4 -18 -10 -18 -5 0 -10 -8 -10 -18 0 -18 -18 -19 -292 -25 -161 -4
-353 -7 -425 -7 -105 0 -133 -3 -133 -13 0 -11 58 -15 293 -20 160 -4 346 -7
412 -7 66 0 126 -4 133 -9 7 -4 16 -33 19 -63 l6 -55 -39 -7 c-22 -4 -48 -13
-59 -20 -11 -7 -40 -20 -65 -30 -25 -10 -88 -42 -140 -72 -86 -50 -98 -61
-132 -117 -20 -35 -43 -88 -51 -120 -13 -51 -13 -63 0 -114 8 -32 31 -85 51
-119 34 -56 46 -68 132 -117 52 -31 120 -65 150 -77 30 -12 59 -25 65 -30 5
-4 27 -11 49 -15 l39 -8 -6 -54 c-3 -30 -9 -58 -12 -62 -7 -6 -402 -18 -687
-20 -133 -1 -158 -3 -158 -16 0 -13 23 -15 148 -15 81 0 272 -3 425 -7 260 -6
277 -7 277 -25 0 -10 5 -18 10 -18 6 0 10 -8 10 -18 0 -11 34 -39 98 -78 147
-92 181 -104 305 -104 111 0 118 2 259 67 l78 36 1292 -209 c710 -115 1297
-214 1303 -221 7 -7 16 -33 20 -59 10 -69 11 -70 88 -112 62 -33 89 -41 197
-56 69 -10 135 -20 148 -23 l22 -5 0 -463 0 -463 26 -31 c22 -27 32 -31 74
-31 26 0 62 -3 79 -6 27 -6 31 -10 31 -41 l0 -34 72 3 73 3 61 -158 c60 -156
62 -159 212 -365 l151 -208 303 -72 303 -72 302 73 301 72 151 207 c140 192
154 215 198 328 41 109 49 121 67 116 12 -3 118 -8 236 -12 118 -3 230 -9 248
-13 33 -6 35 -10 90 -152 55 -141 62 -152 207 -351 l149 -205 303 -73 302 -72
283 67 c156 38 292 71 304 76 12 4 88 99 169 211 134 182 153 214 193 315 l44
113 76 0 c43 0 168 -3 278 -7 l201 -6 22 -61 c15 -44 65 -121 175 -271 l153
-210 299 -72 299 -73 305 72 306 72 146 202 c81 110 155 218 165 239 l18 38
155 -7 c85 -3 252 -8 370 -11 118 -3 230 -8 248 -11 l32 -5 0 -67 c0 -37 5
-84 10 -104 9 -31 16 -38 43 -42 18 -3 498 -39 1067 -80 l1035 -75 1800 13
1800 12 337 157 338 157 602 -1 603 -1 -370 -49 c-203 -26 -388 -51 -410 -54
l-40 -6 -139 -242 c-77 -133 -141 -244 -142 -245 -1 -2 -164 -41 -361 -86
l-358 -81 -7 -90 c-5 -63 3 -243 25 -594 l32 -503 145 -95 c80 -52 241 -153
358 -226 l213 -131 120 -144 c112 -134 126 -156 222 -345 56 -111 103 -205
105 -209 2 -5 -260 -9 -581 -10 l-585 -3 608 -1740 608 -1740 538 -5 539 -5
122 -67 122 -68 8970 0 8971 0 0 95 0 95 490 0 490 0 0 85 0 85 -490 0 -490 0
0 385 0 385 -357 0 -358 0 -93 180 -93 180 48 0 c86 0 958 41 962 46 2 2 1 7
-2 11 -5 5 -822 46 -1082 54 l-60 2 55 7 c30 5 107 9 170 9 63 1 139 4 168 7
49 6 52 8 52 35 0 25 -4 28 -42 33 -38 5 -406 36 -428 36 -4 0 -18 28 -30 63
l-22 62 -157 41 -156 40 -3 105 c-2 57 0 186 3 286 l7 183 294 214 c272 199
308 222 501 320 l208 106 157 142 156 141 21 111 c36 192 41 270 24 360 -15
79 -79 336 -85 341 -94 77 -407 297 -531 374 -158 98 -192 113 -570 267 l-401
164 -2567 0 -2566 0 -7 37 c-3 21 -6 63 -6 93 -1 48 -5 60 -34 94 l-33 39
-1139 98 c-627 54 -1140 98 -1141 98 -2 1 -3 255 -3 565 l0 564 48 36 c48 35
53 36 353 85 l304 50 991 40 c545 22 999 44 1008 47 9 3 195 222 413 485 418
505 443 540 443 634 0 24 3 56 6 72 l6 29 296 23 c238 17 848 92 3047 373
l2750 350 243 -22 c236 -21 256 -21 825 -10 l582 12 110 40 c99 36 116 47 173
102 53 51 62 66 60 91 -2 20 -11 34 -28 42 -15 7 -19 13 -10 13 21 0 210 119
217 136 4 11 38 14 164 14 135 0 159 2 159 15 0 13 -22 15 -140 15 -77 0 -140
3 -140 6 0 3 13 22 29 42 16 21 35 63 43 97 l14 60 127 3 c118 2 127 4 127 22
0 18 -9 20 -127 22 l-127 3 -14 60 c-8 34 -27 76 -43 97 -16 20 -29 39 -29 42
0 3 63 6 140 6 118 0 140 2 140 15 0 13 -24 15 -160 15 -102 0 -160 4 -160 10
0 11 -156 115 -202 135 l-29 11 26 12 c45 21 34 59 -37 129 -57 54 -74 65
-173 101 l-110 40 -584 12 c-570 12 -589 11 -825 -10 l-241 -22 -2750 351
c-2204 281 -2809 355 -3047 372 l-296 23 -6 29 c-3 16 -6 48 -6 72 0 94 -25
129 -444 635 -242 293 -406 482 -419 485 -12 3 -483 26 -1047 50 l-1025 45
-264 45 c-256 44 -266 47 -313 81 l-48 36 0 564 c0 310 1 564 3 565 1 0 514
45 1140 98 l1137 98 35 39 c30 34 34 46 35 94 0 30 3 72 6 93 l7 37 2566 0
2567 0 401 164 c389 159 406 167 586 279 146 91 318 212 515 362 6 5 70 262
85 340 17 93 10 206 -26 373 l-22 102 -155 141 -155 140 -205 104 c-191 96
-225 118 -501 319 l-297 216 -7 183 c-3 100 -5 229 -3 287 l3 104 156 40 157
41 22 62 c12 35 25 63 28 63 20 0 395 31 430 36 38 5 42 8 42 33 0 26 -4 29
-46 35 -26 3 -99 6 -163 7 -64 1 -143 5 -176 9 l-60 7 50 2 c365 13 1087 49
1092 54 3 4 4 9 2 12 -3 2 -231 14 -506 27 l-502 22 92 178 92 178 358 0 357
0 0 385 0 385 490 0 490 0 0 85 0 85 -490 0 -490 0 0 95 0 95 -8972 0 -8973
-1 -120 -67z"/>
</g>
</svg>
