<?xml version="1.0" standalone="no"?>
<!DOCTYPE svg PUBLIC "-//W3C//DTD SVG 20010904//EN"
 "http://www.w3.org/TR/2001/REC-SVG-20010904/DTD/svg10.dtd">
<svg version="1.0" xmlns="http://www.w3.org/2000/svg"
   viewBox="0 0 3854.000000 4815.000000"
 preserveAspectRatio="xMidYMid meet">
<metadata>
Created by potrace 1.16, written by Peter Selinger 2001-2019
</metadata>
<g transform="translate(0.000000,4815.000000) scale(0.100000,-0.100000)"
fill="#000000" stroke="none">
<path d="M18368 47653 c-255 -274 -506 -544 -558 -600 -94 -102 -95 -103 -135
-98 -22 2 -615 35 -1319 72 l-1279 68 -117 105 -118 105 -958 275 c-526 151
-965 273 -974 273 -10 -1 -340 -92 -734 -202 -394 -111 -718 -201 -720 -201
-3 0 -37 -63 -77 -140 -68 -130 -76 -141 -109 -150 -22 -6 -586 -10 -1532 -10
l-1497 0 -72 225 -73 225 -35 -5 c-20 -3 -349 -35 -731 -71 -382 -35 -1908
-182 -3391 -324 -1483 -143 -2705 -260 -2715 -260 -15 -1 -209 -151 -257 -199
-21 -21 30 -68 138 -128 l113 -62 1743 -115 c959 -64 1769 -119 1798 -123 l55
-8 14 -55 c7 -30 17 -58 20 -62 4 -4 833 -140 1841 -303 l1834 -295 284 0 284
0 48 45 48 45 -28 133 c-16 72 -29 138 -29 145 0 13 299 15 583 3 l148 -6
-126 -94 -125 -93 0 -299 0 -299 465 0 465 0 -2 -462 -3 -462 -250 -112 c-137
-62 -251 -116 -252 -121 -1 -4 -23 -187 -48 -407 l-45 -398 -421 -581 -422
-580 -286 -861 -287 -861 67 -985 68 -985 0 -617 1 -617 -53 -15 c-206 -60
-411 -126 -416 -134 -3 -5 -61 -82 -127 -173 -67 -90 -129 -180 -139 -199 -10
-19 -105 -160 -211 -312 -159 -227 -199 -277 -221 -282 -16 -3 -1376 -215
-3023 -471 -1647 -256 -3004 -467 -3015 -470 -15 -3 -205 -345 -735 -1321
l-715 -1317 4 -165 4 -165 36 -58 c20 -32 43 -59 51 -59 270 -9 7091 -318
7095 -322 3 -3 3 -170 -1 -372 l-7 -366 -375 0 -374 0 -1477 -621 c-812 -342
-1513 -637 -1558 -656 l-83 -35 0 -5538 0 -5538 48 -20 c26 -11 732 -306 1568
-656 l1521 -636 365 0 365 0 7 -366 c4 -202 4 -369 2 -372 -5 -4 -6929 -309
-7076 -312 -32 0 -38 -5 -71 -63 l-37 -62 -3 -165 -3 -165 715 -1315 715
-1315 3030 -472 c1666 -259 3034 -472 3041 -472 14 -1 364 -501 407 -581 16
-30 87 -131 157 -225 l129 -170 230 -70 230 -70 -1 -620 0 -620 -68 -985 -67
-985 284 -853 284 -853 402 -557 c221 -306 412 -572 424 -589 21 -29 28 -74
68 -420 24 -214 45 -394 46 -402 2 -8 116 -65 253 -126 l250 -113 3 -466 2
-466 -465 0 -465 0 0 -295 0 -294 121 -93 122 -93 -64 -6 c-35 -4 -198 -7
-361 -8 -233 -1 -298 2 -298 12 0 6 13 72 29 145 l29 132 -52 46 -51 46 -280
-5 -280 -6 -1830 -291 c-1007 -160 -1834 -292 -1839 -293 -6 -2 -17 -30 -26
-63 -13 -47 -22 -60 -41 -66 -13 -4 -822 -60 -1797 -124 l-1773 -116 -111 -62
c-74 -40 -117 -71 -130 -91 -10 -16 -18 -33 -18 -36 0 -7 205 -170 236 -188
17 -10 2597 -261 5749 -561 578 -54 1073 -102 1101 -105 l51 -6 72 220 72 221
1497 0 c946 0 1510 -4 1532 -10 33 -9 41 -20 108 -149 l72 -139 78 -21 c42
-11 372 -102 732 -201 l655 -179 964 272 963 272 120 109 120 110 1317 67
1316 67 21 -22 c12 -11 261 -277 555 -591 496 -531 535 -570 568 -573 20 -1
284 11 586 27 l550 29 2560 441 2560 441 2048 697 2047 697 0 103 c0 92 -2
104 -22 126 l-23 24 -2000 -358 -2000 -359 -2565 -230 c-1411 -126 -2577 -230
-2592 -230 l-28 0 0 399 0 399 48 16 c26 8 317 97 647 196 330 99 615 186 633
191 l32 11 0 214 0 214 33 0 c79 -1 3494 91 3594 96 l111 6 143 109 142 109
296 0 c231 1 9418 87 9429 89 1 1 2 30 2 65 l0 64 -322 6 c-339 6 -8896 87
-9219 86 l-186 0 -134 103 c-74 56 -140 106 -147 111 -7 4 -621 23 -1364 41
-742 19 -1352 35 -1353 37 -2 2 723 588 1611 1302 1406 1132 1614 1302 1614
1325 0 14 -22 339 -49 721 l-49 695 530 1190 531 1190 1187 3165 1186 3165
350 141 c249 100 844 367 2074 928 949 434 1804 829 1900 879 132 68 426 252
1195 746 987 634 1031 664 1345 905 225 172 363 286 449 370 165 161 1011
1092 1120 1231 77 99 140 211 632 1127 l547 1018 -544 1016 c-468 875 -555
1032 -625 1123 -98 130 -950 1069 -1121 1237 -87 86 -220 196 -451 374 -320
245 -357 270 -1339 902 -861 553 -1038 663 -1197 742 -337 169 -3643 1673
-3986 1814 -181 74 -335 140 -342 146 -6 6 -545 1433 -1196 3171 l-1185 3160
-530 1190 -531 1190 50 695 c27 382 49 706 49 720 0 22 -231 211 -1610 1320
l-1609 1295 37 7 c20 4 602 21 1292 38 690 17 1283 33 1317 36 61 5 66 8 198
109 l135 103 93 6 c50 3 2178 23 4727 46 2549 22 4699 43 4778 46 l142 6 0 63
0 62 -432 7 c-238 3 -2426 24 -4863 47 -2436 22 -4435 43 -4442 47 -7 4 -73
53 -146 110 l-134 102 -1809 45 c-995 25 -1835 45 -1866 45 l-58 0 0 218 0
219 -352 107 c-194 58 -499 151 -678 205 l-325 98 -3 401 c-2 392 -2 402 17
402 11 0 1177 -106 2593 -235 l2573 -236 2000 -358 2000 -358 22 26 c21 23 23
37 23 131 l0 105 -2048 692 -2047 693 -2565 446 -2565 446 -560 29 c-308 16
-568 29 -577 29 -10 0 -214 -211 -480 -497z m-8018 -1327 c0 -2 -42 -35 -92
-73 l-93 -69 -510 -22 c-280 -13 -522 -22 -537 -22 -28 0 -35 18 -54 139 l-6
40 48 4 c65 5 1244 8 1244 3z m-680 -44339 l485 -22 98 -74 c54 -41 95 -76 93
-78 -3 -3 -293 -2 -645 2 -460 6 -641 11 -641 19 0 6 7 48 16 94 l17 82 46 -1
c25 0 264 -10 531 -22z"/>
</g>
</svg>
