<?xml version="1.0" standalone="no"?>
<!DOCTYPE svg PUBLIC "-//W3C//DTD SVG 20010904//EN"
 "http://www.w3.org/TR/2001/REC-SVG-20010904/DTD/svg10.dtd">
<svg version="1.0" xmlns="http://www.w3.org/2000/svg"
   viewBox="0 0 4104.000000 3963.000000"
 preserveAspectRatio="xMidYMid meet">
<metadata>
Created by potrace 1.16, written by Peter Selinger 2001-2019
</metadata>
<g transform="translate(0.000000,3963.000000) scale(0.100000,-0.100000)"
fill="#000000" stroke="none">
<path d="M2100 39619 c-228 -5 -543 -16 -700 -26 l-285 -18 -491 -285 -490
-285 -48 -84 -48 -84 12 -126 c7 -69 13 -127 14 -129 2 -1 95 -22 207 -45
l204 -44 0 -83 0 -83 -145 -78 c-80 -43 -148 -79 -153 -81 -4 -2 -21 -83 -37
-181 -28 -162 -35 -188 -87 -304 l-56 -128 6 -155 6 -155 73 -70 73 -70 397
-89 c426 -96 402 -93 591 -69 l47 6 0 -532 0 -531 683 0 684 0 6 -97 c4 -54 7
-158 7 -230 l0 -133 -587 -2 -587 -3 -42 -170 c-23 -93 -326 -1059 -672 -2146
l-630 -1975 -12 -225 c-8 -158 -10 -615 -8 -1548 l3 -1324 860 -197 c473 -108
904 -207 958 -219 l97 -23 0 -628 c0 -590 -1 -629 -17 -634 -10 -3 -153 -39
-318 -81 -165 -42 -349 -90 -408 -107 l-108 -31 -71 -121 c-39 -67 -100 -168
-137 -225 l-66 -105 -271 -132 -270 -132 -48 -104 -48 -105 48 -94 c42 -84 60
-144 166 -564 104 -413 123 -502 158 -737 l40 -268 0 -1050 0 -1051 25 -49
c14 -28 27 -50 28 -50 2 0 182 -52 401 -115 345 -99 422 -118 584 -142 l186
-27 -164 -32 c-91 -17 -232 -44 -315 -59 l-150 -28 -68 -66 -68 -66 -17 -490
c-16 -459 -16 -521 0 -980 l17 -489 68 -66 68 -66 312 -59 c172 -32 311 -60
310 -61 -1 -1 -84 -14 -185 -29 -159 -23 -236 -42 -579 -141 -217 -63 -396
-114 -399 -114 -2 0 -15 -22 -29 -50 l-25 -49 0 -1053 0 -1053 -39 -263 c-35
-229 -55 -325 -157 -725 -101 -400 -123 -476 -166 -567 l-49 -105 48 -104 47
-104 271 -132 270 -132 66 -104 c37 -57 99 -158 138 -225 l71 -121 102 -30
c57 -17 248 -65 426 -108 l322 -79 0 -632 0 -632 -22 -5 c-13 -3 -428 -99
-923 -212 -495 -113 -917 -210 -938 -216 l-37 -10 0 -1357 c0 -903 4 -1420 11
-1547 l12 -190 629 -1975 c346 -1086 649 -2051 672 -2145 l42 -170 587 -3 587
-2 0 -133 c0 -72 -3 -176 -7 -230 l-6 -97 -684 0 -683 0 0 -530 c0 -403 -3
-530 -12 -530 -6 0 -62 5 -122 11 l-111 11 -395 -86 -395 -87 -73 -73 -73 -72
-6 -155 -6 -154 56 -128 c52 -116 59 -142 87 -304 16 -98 33 -179 37 -181 5
-2 73 -38 153 -80 l145 -77 0 -84 0 -85 -204 -43 c-112 -24 -205 -44 -207 -45
-1 -2 -7 -60 -14 -129 l-12 -126 48 -84 48 -85 492 -285 491 -286 454 -21
c335 -16 662 -23 1249 -28 l795 -6 1210 87 1210 86 1730 214 1730 214 2025
424 2025 424 318 149 c174 81 317 150 317 153 0 4 -144 55 -320 115 l-320 108
-2432 153 -2433 153 -289 -99 c-159 -55 -291 -99 -293 -99 -2 0 -3 268 -3 595
l0 595 108 0 107 0 213 96 212 97 0 102 0 102 533 7 c292 3 2046 17 3897 31
1851 14 3479 28 3618 31 l252 6 0 54 0 54 -287 1 c-159 0 -2025 15 -4148 32
l-3860 32 -3 256 -2 255 -211 97 -211 97 -462 0 -461 0 -174 378 c-96 207
-175 378 -176 380 -1 1 -98 24 -216 50 l-214 49 -75 131 c-41 72 -88 155 -104
185 l-30 55 1093 2203 1093 2204 188 634 c104 348 192 637 197 641 4 4 179 26
388 49 l380 42 556 300 557 300 733 129 c603 107 1771 289 6543 1020 l5810
891 450 -39 451 -39 1415 270 1415 270 375 257 375 257 1310 327 c773 193
1328 326 1355 326 25 0 55 -3 68 -6 l22 -6 0 -903 0 -903 -47 -10 c-27 -6
-777 -159 -1668 -341 l-1620 -330 -1545 -250 c-850 -138 -1581 -257 -1625
-264 l-80 -12 -3 -98 -3 -98 33 5 c18 3 310 51 648 105 338 55 1061 172 1607
261 l991 162 131 -51 130 -50 793 159 c907 182 1562 317 2732 565 710 150
1008 220 2143 499 725 178 1599 392 1943 476 l625 152 93 96 92 96 0 254 c0
237 -1 253 -17 248 -10 -3 -232 -58 -493 -121 -261 -64 -483 -118 -493 -121
-16 -5 -17 16 -15 382 l3 387 100 27 c55 14 411 138 790 274 l690 248 280 144
280 144 130 -43 130 -44 223 84 c205 76 254 100 622 300 l400 217 183 150
c100 82 234 195 297 250 64 56 294 247 511 425 l396 325 242 570 241 571 -242
571 -243 572 -400 328 c-220 180 -454 376 -520 435 -66 59 -198 169 -292 246
-170 137 -178 142 -575 360 -377 206 -417 225 -623 302 l-220 82 -130 -44
-129 -43 -281 142 -280 142 -690 247 c-379 136 -735 260 -790 275 l-100 27 -3
387 c-2 366 -1 387 15 382 10 -3 232 -57 493 -121 261 -63 483 -118 493 -121
16 -5 17 11 17 248 l0 253 -93 96 -92 97 -1735 426 c-954 234 -1827 448 -1940
475 -339 82 -2405 517 -3933 827 l-628 128 -130 -53 -130 -53 -1517 247 c-834
136 -1560 253 -1612 261 -52 8 -107 17 -122 20 l-28 6 0 -96 c0 -53 1 -96 3
-96 2 0 53 -9 114 -20 60 -11 794 -130 1629 -264 937 -151 1623 -266 1789
-301 149 -31 500 -103 780 -160 601 -122 2147 -439 2223 -455 l52 -12 0 -903
0 -903 -22 -6 c-13 -3 -44 -6 -70 -6 -29 0 -556 127 -1355 326 l-1308 327
-373 258 -372 259 -1414 268 -1413 268 -455 -38 -455 -39 -5839 895 c-4784
734 -5966 918 -6543 1020 l-704 125 -555 302 -556 302 -385 43 c-211 25 -386
46 -388 47 -1 2 -88 289 -192 638 l-189 634 -1091 2199 c-600 1210 -1091 2205
-1091 2210 1 6 47 92 103 190 l102 180 213 47 c117 26 215 49 216 51 2 1 81
173 177 380 l174 378 460 0 460 0 213 96 212 97 0 253 0 253 53 5 c28 2 1627
16 3552 31 1925 14 3769 29 4098 32 l597 6 0 52 0 53 -302 6 c-167 3 -1804 17
-3638 31 -1834 14 -3566 28 -3847 31 l-513 7 0 101 0 102 -213 97 -212 97
-107 0 -108 0 0 596 c0 473 3 595 13 592 6 -3 138 -47 292 -98 l280 -93 2435
151 2435 150 317 109 c175 59 318 110 318 113 0 3 -143 72 -317 154 l-318 148
-2025 424 -2025 425 -1690 210 -1690 209 -1245 90 -1245 90 -555 -2 c-305 -1
-742 -5 -970 -9z"/>
</g>
</svg>
