<?xml version="1.0" standalone="no"?>
<!DOCTYPE svg PUBLIC "-//W3C//DTD SVG 20010904//EN"
 "http://www.w3.org/TR/2001/REC-SVG-20010904/DTD/svg10.dtd">
<svg version="1.0" xmlns="http://www.w3.org/2000/svg"
   viewBox="0 0 3881.000000 1102.000000"
 preserveAspectRatio="xMidYMid meet">
<metadata>
Created by potrace 1.16, written by Peter Selinger 2001-2019
</metadata>
<g transform="translate(0.000000,1102.000000) scale(0.100000,-0.100000)"
fill="#000000" stroke="none">
<path d="M6080 10995 c0 -23 -4 -25 -45 -25 -42 0 -49 -4 -130 -82 l-86 -83 0
-375 1 -374 82 -83 c80 -81 84 -83 130 -83 41 0 48 -3 48 -20 0 -19 7 -20 210
-20 l210 0 1 23 c0 12 29 -51 64 -141 61 -153 64 -165 48 -180 -15 -16 -84
-17 -830 -18 -448 -1 -817 -4 -820 -8 -3 -3 -3 -12 0 -20 5 -12 121 -14 818
-15 675 -1 816 -4 829 -15 8 -8 26 -16 39 -18 21 -2 30 -17 62 -98 l36 -95
-80 -5 c-81 -5 -81 -5 -90 -36 l-9 -31 -656 -7 c-446 -4 -659 -3 -666 4 -6 6
-142 10 -389 10 -322 0 -381 -2 -391 -15 -9 -12 -87 -15 -493 -21 -447 -7
-483 -8 -483 -24 0 -16 36 -18 480 -25 389 -6 482 -10 491 -21 9 -12 80 -14
393 -14 226 0 386 4 391 9 6 6 261 8 667 4 l656 -6 9 -31 9 -31 129 -5 129 -5
22 -55 22 -55 -61 -3 c-34 -2 -66 -7 -72 -12 -5 -5 -280 -13 -610 -19 -329 -7
-601 -14 -604 -16 -2 -3 27 -5 65 -5 311 -1 1140 -22 1148 -30 6 -6 46 -10 91
-10 l80 0 43 -112 c23 -61 41 -113 39 -115 -2 -1 -204 -8 -448 -13 -244 -6
-486 -13 -537 -16 l-94 -6 -149 -180 c-82 -99 -149 -188 -149 -198 0 -21 -106
-1077 -116 -1152 l-6 -48 -177 0 c-128 0 -180 -3 -189 -12 -10 -10 -101 -14
-367 -16 l-355 -3 0 160 0 161 -170 0 -170 0 0 -40 0 -40 -380 0 -380 0 0 40
0 40 -175 0 -175 0 0 -701 0 -702 -37 7 c-21 3 -156 6 -300 6 l-263 0 0 31 0
30 -525 -3 -525 -3 0 58 0 57 260 0 260 0 0 175 0 175 104 0 103 0 7 53 c8 68
8 1306 0 1375 l-7 52 -1023 0 -1024 0 0 -740 0 -740 115 0 115 0 0 -175 0
-175 325 0 325 0 0 -105 0 -105 -27 0 c-16 0 -45 -3 -65 -6 l-38 -7 0 -252 0
-252 31 -7 c17 -3 47 -6 65 -6 l34 0 0 -150 0 -150 -320 0 -320 0 0 -155 0
-154 -117 -3 -118 -3 -3 -734 c-2 -581 0 -736 10 -743 7 -4 468 -8 1024 -8
l1011 0 7 61 c8 81 8 1287 0 1368 l-7 61 -98 0 -98 0 -3 153 -3 152 -262 3
-263 2 0 103 0 102 525 -3 525 -3 0 31 0 30 300 0 300 0 0 -695 0 -695 175 0
175 0 0 40 0 40 380 0 380 0 0 -40 0 -40 170 0 170 0 0 146 0 146 350 -3 c260
-3 352 -7 362 -17 9 -9 62 -12 190 -12 l177 0 5 -32 c7 -40 126 -1226 126
-1250 0 -9 67 -97 149 -196 l149 -180 94 -6 c51 -3 293 -10 537 -16 244 -5
446 -11 448 -13 2 -2 -9 -36 -24 -76 l-28 -71 -91 0 c-62 0 -101 -5 -120 -15
-22 -11 -67 -15 -189 -15 -352 0 -1018 -14 -985 -21 19 -4 292 -10 605 -13
352 -4 571 -10 573 -16 2 -6 41 -10 87 -10 l84 0 -22 -60 -22 -59 -145 -3
-144 -3 -9 -31 -9 -31 -655 -7 c-461 -5 -659 -4 -666 3 -8 8 -135 11 -390 11
-323 0 -381 -2 -391 -15 -9 -12 -81 -15 -461 -20 -477 -6 -515 -8 -515 -29 0
-14 351 -26 751 -26 181 0 198 -2 222 -20 24 -19 40 -20 393 -20 302 0 370 3
383 14 14 12 116 13 670 9 l653 -6 14 -33 14 -33 94 -3 94 -3 -37 -95 -36 -95
-40 -3 c-22 -2 -47 -10 -55 -17 -13 -12 -158 -15 -830 -19 -448 -2 -816 -5
-817 -5 -2 -1 -3 -8 -3 -16 0 -10 10 -15 28 -16 15 0 382 -2 817 -5 646 -4
792 -7 805 -18 8 -8 22 -16 31 -17 14 -3 5 -36 -60 -202 -42 -109 -77 -189
-79 -177 -3 19 -9 20 -213 20 -202 0 -209 -1 -209 -20 0 -17 -7 -20 -48 -20
-46 0 -50 -2 -130 -83 l-82 -83 0 -374 0 -374 42 -44 c83 -85 136 -122 179
-122 35 0 39 -3 39 -25 l0 -25 210 0 c203 0 210 1 210 20 0 19 7 20 230 20
223 0 230 -1 230 -20 0 -19 7 -20 210 -20 198 0 210 1 210 18 0 17 12 20 98
25 53 4 140 7 193 7 l97 0 108 83 109 82 3 377 2 376 -110 76 -111 76 -73 0
c-40 0 -128 3 -194 7 -110 5 -122 8 -122 25 0 17 -12 18 -205 18 -113 0 -205
3 -205 8 0 4 168 284 373 622 l373 615 322 -3 323 -4 50 33 c31 20 107 97 200
203 134 153 170 203 342 473 l192 302 783 1 782 0 0 -122 0 -123 63 -18 c34
-10 155 -53 270 -95 l207 -76 0 -78 0 -78 85 0 85 0 29 -65 c52 -114 62 -103
-96 -109 -76 -3 -293 -10 -482 -16 -317 -10 -362 -13 -350 -24 2 -2 173 -9
379 -16 206 -7 433 -15 504 -19 l129 -6 29 -69 c16 -37 26 -71 23 -75 -4 -3
-275 -6 -603 -7 -608 -1 -992 -10 -992 -24 0 -14 415 -22 1021 -21 l606 2 45
-103 45 -103 59 -5 c55 -5 69 -12 224 -117 l165 -112 258 -3 257 -3 0 113 0
112 43 0 c23 0 48 4 55 9 8 4 21 39 31 77 l17 69 135 2 c74 2 192 0 264 -5
l129 -7 8 -45 c19 -119 14 -110 62 -110 24 0 58 -3 75 -6 l31 -7 0 -168 0
-169 45 0 45 0 0 170 0 170 153 0 153 0 64 147 c35 82 96 220 135 308 40 88
75 168 79 179 6 17 15 18 90 14 l85 -4 6 83 c6 64 11 84 24 87 9 3 140 37 291
76 151 39 296 78 323 87 l47 17 0 98 0 98 2740 0 2740 0 0 -57 c0 -32 3 -74 6
-94 l6 -36 89 -18 89 -18 0 -47 0 -47 -422 -5 c-241 -3 -428 -2 -434 3 -14 11
-868 -21 -872 -33 -2 -4 -53 -8 -113 -8 -60 0 -109 -4 -109 -8 0 -5 231 -12
513 -15 685 -9 838 -14 850 -26 7 -7 110 -11 299 -11 166 0 288 -4 288 -9 0
-12 -107 -18 -499 -31 -240 -8 -318 -13 -330 -24 -13 -11 -105 -15 -451 -20
-239 -4 -532 -11 -650 -16 -118 -5 -399 -10 -625 -10 -390 0 -455 -3 -455 -20
0 -3 270 -10 600 -14 352 -3 610 -10 625 -16 16 -6 208 -10 485 -10 295 0 461
-4 465 -10 4 -7 -73 -10 -224 -10 -224 0 -231 -1 -231 -20 0 -25 -12 -25 650
-21 l495 3 24 -26 c20 -21 34 -26 72 -26 l48 0 3 -56 3 -55 243 -110 c241
-109 245 -110 345 -119 56 -5 197 -9 313 -10 l211 0 -5 -325 c-4 -288 -3 -325
11 -325 21 0 25 45 33 368 l7 272 108 0 109 0 0 -355 c0 -294 2 -355 14 -355
11 0 15 45 20 232 3 128 9 288 12 356 l6 122 37 0 36 0 -3 -465 c-4 -462 -4
-465 17 -465 15 0 21 8 25 32 4 29 27 763 26 861 0 36 1 37 35 37 l36 0 -7
-240 -7 -240 21 0 c21 0 22 4 22 113 0 63 3 169 7 235 l6 122 137 0 c75 0 252
-3 392 -7 l255 -6 -5 -594 -5 -593 21 0 c27 0 27 12 47 664 8 286 17 521 19
523 2 2 54 0 116 -3 l113 -7 -5 -314 c-4 -246 -2 -313 8 -313 19 0 23 36 30
344 l7 289 231 -6 c127 -4 265 -7 306 -7 l75 0 -3 -170 c-3 -148 -1 -170 13
-170 12 0 15 12 15 58 0 31 3 108 7 170 6 109 7 112 30 112 l23 0 0 -395 c0
-378 1 -395 19 -395 17 0 19 15 25 213 3 116 9 293 12 392 l7 180 331 0 331 0
235 98 c129 54 256 112 281 128 l46 29 6 167 c4 91 7 221 7 289 l0 122 53 12
c28 6 69 15 90 21 l37 10 0 114 0 115 156 0 157 0 -6 -183 c-4 -100 -7 -312
-8 -471 l-1 -290 308 -179 309 -179 350 50 c193 27 352 46 355 41 3 -4 14 -56
24 -114 19 -105 19 -106 45 -101 14 3 103 17 196 31 94 14 181 27 195 30 l25
6 -3 -441 c-4 -400 -3 -440 12 -440 11 0 16 9 16 33 0 17 5 217 12 442 l12
411 450 67 c248 37 456 68 461 67 7 0 9 -150 7 -435 -3 -391 -2 -435 12 -435
12 0 16 11 17 48 2 189 27 823 33 829 4 4 252 44 552 90 305 46 552 88 561 95
15 12 14 53 -4 169 l-5 36 348 49 348 49 235 183 c231 178 236 183 243 225 3
23 7 304 7 625 l1 582 155 0 155 0 0 -415 c0 -325 3 -415 13 -415 14 0 368 47
415 55 l32 6 1 -53 c1 -93 -28 -90 344 -42 182 24 656 73 1055 109 l726 65
1258 180 c692 99 1260 180 1262 180 2 0 4 242 4 539 l0 538 58 6 c31 4 181 16
332 27 151 11 290 23 308 26 l32 5 0 88 0 88 167 6 c91 4 433 7 760 7 575 0
593 1 593 19 0 14 -10 21 -37 26 -36 7 -780 21 -1260 24 -216 1 -223 2 -223
21 0 20 7 20 395 20 342 0 396 2 401 15 5 13 51 15 328 15 176 0 338 3 359 6
35 6 37 8 37 45 l0 39 -354 0 c-302 0 -355 2 -366 15 -10 12 -47 15 -199 16
-102 1 -280 5 -396 9 l-210 6 274 2 c243 2 277 4 293 19 17 15 64 17 488 21
l470 5 0 33 0 33 -147 4 -148 3 148 2 147 2 0 24 0 23 -632 8 c-523 6 -636 9
-649 21 -11 10 -45 14 -127 14 l-112 0 0 30 c0 17 -5 30 -10 30 -6 0 -167 18
-357 40 -191 22 -351 40 -355 40 -5 0 -8 234 -8 520 l0 520 -22 4 c-13 3 -590
73 -1283 155 -942 113 -1429 166 -1930 211 -368 33 -695 65 -725 70 -108 18
-675 110 -682 110 -5 0 -8 -34 -8 -76 l0 -76 -27 6 c-16 3 -107 14 -203 26
-96 11 -190 22 -207 25 l-33 6 0 -229 0 -229 -61 -7 c-34 -4 -102 -4 -150 0
l-89 7 0 456 c0 251 -3 480 -6 508 l-7 53 -229 176 c-126 96 -241 179 -256
184 -15 5 -173 30 -352 55 -179 26 -326 48 -328 50 -2 2 1 38 7 80 15 104 14
122 -6 130 -10 4 -262 44 -561 90 -298 45 -545 85 -548 88 -5 4 -32 707 -34
855 0 32 -4 42 -16 42 -15 0 -16 -42 -13 -445 3 -292 1 -445 -6 -445 -37 0
-901 135 -906 142 -4 6 -30 768 -29 876 0 23 -5 32 -16 32 -15 0 -16 -40 -12
-455 4 -453 4 -454 -17 -450 -11 3 -96 16 -190 30 -93 14 -184 27 -201 30
l-31 5 -19 -105 c-10 -59 -21 -110 -24 -114 -3 -5 -162 14 -355 42 l-350 51
-309 -180 -308 -179 1 -305 c1 -168 4 -371 8 -452 l6 -148 -157 0 -156 0 0
204 0 203 -62 16 c-35 9 -75 19 -90 23 l-28 6 0 122 c0 68 -3 197 -7 288 l-6
166 -51 30 c-28 17 -154 75 -281 129 l-230 98 -331 0 -331 0 -7 180 c-3 99 -9
276 -12 393 -6 197 -8 212 -25 212 -18 0 -19 -17 -19 -395 l0 -395 -23 0 c-23
0 -24 3 -30 113 -4 61 -7 138 -7 170 0 45 -3 57 -15 57 -14 0 -16 -22 -13
-169 l3 -168 -185 -6 c-102 -4 -240 -7 -306 -7 l-122 0 -6 288 c-7 306 -11
342 -30 342 -10 0 -12 -67 -8 -313 l5 -314 -48 -6 c-26 -4 -78 -7 -115 -7
l-67 0 -6 138 c-4 75 -11 313 -17 527 -13 494 -15 515 -42 515 l-21 0 5 -589
5 -589 -226 -6 c-124 -3 -301 -8 -392 -10 l-166 -5 -6 127 c-4 70 -7 178 -7
240 0 108 -1 112 -22 112 l-21 0 7 -240 7 -240 -36 0 c-35 0 -35 0 -35 43 0
100 -21 806 -26 845 -4 34 -9 42 -25 42 -20 0 -21 -4 -17 -465 l3 -465 -36 0
-37 0 -6 118 c-3 64 -9 224 -12 355 -5 191 -9 237 -20 237 -12 0 -14 -60 -14
-354 l0 -353 -52 -7 c-29 -3 -78 -6 -109 -6 l-57 0 -6 283 c-8 321 -11 357
-33 357 -14 0 -15 -36 -11 -318 l4 -318 -306 -11 -307 -10 -214 -96 c-323
-143 -289 -122 -289 -184 l0 -53 -50 0 c-42 0 -52 -4 -66 -25 l-16 -25 -579 0
c-572 0 -579 0 -579 -20 0 -19 7 -20 118 -21 64 -1 168 -1 230 0 62 0 111 -3
108 -7 -3 -5 -218 -12 -477 -16 -262 -4 -480 -11 -490 -17 -11 -5 -250 -9
-591 -9 -544 0 -618 -3 -618 -20 0 -3 270 -10 599 -13 356 -4 611 -11 626 -17
16 -6 205 -10 483 -10 428 0 459 -1 473 -18 14 -16 51 -19 418 -29 222 -7 406
-14 409 -17 20 -21 60 -19 -1253 -50 -632 -15 -783 -21 -630 -25 39 -1 93 -6
120 -11 81 -14 895 -43 908 -32 8 7 132 7 342 2 182 -5 372 -9 423 -10 l92 0
0 -44 0 -44 -50 -11 c-27 -6 -67 -14 -89 -17 -35 -6 -39 -9 -45 -43 -3 -20 -6
-62 -6 -93 l0 -58 -115 0 c-94 0 -117 -3 -121 -15 -5 -13 -204 -15 -1703 -15
-933 0 -2111 3 -2618 7 l-923 6 0 94 0 94 -32 14 c-18 7 -171 49 -340 92
l-308 78 0 30 c0 17 -3 54 -6 83 l-7 52 -84 0 c-71 0 -85 3 -90 18 -3 9 -47
109 -98 222 -50 113 -111 252 -135 309 l-44 103 -153 -3 -153 -4 0 172 0 173
-45 0 -45 0 0 -175 0 -175 -75 0 -74 0 -6 -32 c-3 -18 -9 -55 -13 -83 l-7 -50
-265 0 -264 0 -16 63 c-17 73 -37 92 -92 92 l-38 0 0 110 0 110 -257 0 -256 0
-166 -112 c-155 -106 -170 -113 -224 -118 l-58 -5 -41 -93 -41 -93 -601 2
c-603 1 -1036 -8 -1036 -21 0 -14 319 -22 963 -24 350 -2 640 -6 644 -9 6 -7
-42 -124 -58 -141 -11 -12 -271 -24 -691 -32 -181 -4 -328 -10 -328 -14 0 -12
179 -20 437 -20 150 0 244 -4 248 -10 4 -6 65 -10 151 -10 168 0 157 13 98
-116 l-33 -74 -86 0 -85 0 0 -78 0 -79 -217 -81 c-120 -44 -240 -87 -268 -95
l-50 -14 -3 -132 -3 -131 -793 0 -794 0 -180 283 c-161 250 -198 302 -335 458
-102 116 -171 185 -202 203 l-46 28 -322 -4 -321 -3 -373 615 c-205 338 -373
618 -373 623 0 4 92 7 205 7 193 0 205 1 205 18 0 17 12 20 113 25 61 4 149 7
194 7 l82 0 111 76 110 76 -2 376 -3 377 -109 82 -108 83 -97 0 c-53 0 -140 3
-193 7 -86 5 -98 8 -98 25 0 17 -12 18 -210 18 -203 0 -210 -1 -210 -20 0 -19
-7 -20 -230 -20 -223 0 -230 1 -230 20 0 19 -7 20 -210 20 l-210 0 0 -25z
m880 -1120 c0 -8 -2 -15 -4 -15 -2 0 -6 7 -10 15 -3 8 -1 15 4 15 6 0 10 -7
10 -15z m13584 -2621 c3 -26 6 -52 6 -59 0 -17 -2248 -28 -4041 -19 l-1439 7
0 59 0 58 2734 0 2733 0 7 -46z m5489 -136 c4 -62 7 -141 7 -175 l0 -63 -160
0 -160 0 0 175 0 175 153 0 154 0 6 -112z m-15323 -68 c0 -113 -3 -140 -14
-140 -16 0 -26 30 -26 78 l0 32 -295 0 -295 0 0 -55 0 -55 -244 0 -245 0 -19
28 c-10 15 -51 78 -90 140 l-72 112 650 0 650 0 0 -140z m-5576 -180 c6 -6 84
-10 189 -10 l179 0 -6 -37 c-3 -21 -11 -91 -17 -156 -10 -98 -15 -117 -28
-115 -12 2 -17 18 -19 61 l-3 57 -504 0 -505 0 0 112 0 111 352 -6 c210 -4
356 -11 362 -17z m10446 -1335 l0 -1005 -255 0 -254 0 -3 116 -3 117 -255 86
-255 86 3 67 c3 67 3 68 -30 88 -24 15 -50 20 -100 20 l-68 0 0 44 0 43 -122
56 c-68 30 -139 60 -158 65 -22 7 -469 13 -1242 17 l-1206 7 -94 -45 c-51 -24
-103 -47 -115 -51 -20 -6 -23 -14 -23 -57 l0 -49 -39 0 -38 0 -7 -61 c-3 -34
-6 -77 -6 -95 0 -30 -4 -34 -37 -44 -21 -5 -155 -43 -298 -83 l-260 -74 -3
-106 c-2 -82 -6 -107 -16 -107 -16 0 -26 30 -26 78 l0 32 -295 0 -295 0 0 -55
0 -55 -95 0 c-52 0 -95 2 -95 6 0 3 62 103 139 222 76 119 146 232 156 251 12
24 19 68 22 151 l6 117 261 6 c144 4 336 7 429 7 l167 0 0 195 c0 107 -1 195
-2 196 -2 0 -194 8 -428 17 l-425 17 -8 89 c-4 49 -14 104 -22 122 -10 26
-166 275 -313 502 l-14 22 111 0 111 0 0 -60 0 -60 295 0 295 0 0 38 c0 52 10
82 26 82 11 0 14 -21 14 -98 l0 -98 268 -74 c147 -40 282 -77 300 -82 28 -8
32 -13 32 -42 0 -18 3 -61 6 -95 l7 -61 38 0 39 0 0 -47 0 -48 113 -53 112
-52 1196 0 1196 0 74 24 c41 14 118 45 172 70 l97 46 0 45 0 45 69 0 c48 0 79
6 101 18 30 17 31 18 28 86 l-3 70 255 87 255 87 3 111 3 111 254 0 255 0 0
-1005z m4970 946 c0 -32 3 -72 6 -89 l6 -31 88 -7 88 -6 7 -99 c3 -55 8 -99
10 -99 2 0 110 -23 242 -51 236 -51 240 -52 451 -56 l212 -5 0 -78 c0 -50 4
-81 13 -87 6 -5 59 -25 117 -44 l105 -34 353 -5 c396 -6 372 0 372 -83 l0 -47
578 2 577 3 3 61 3 61 263 6 262 6 109 47 c60 25 129 49 154 53 l46 6 3 71 3
71 243 6 244 5 215 48 215 47 7 106 c4 62 11 109 18 113 7 4 28 8 47 8 19 0
52 3 73 6 36 6 37 8 37 50 l0 44 159 0 158 0 6 -67 c4 -38 7 -201 7 -363 l0
-295 319 -128 318 -128 1998 16 c1099 9 2003 19 2010 23 7 4 112 86 233 182
l222 175 0 293 0 292 145 0 145 0 0 -758 c0 -418 3 -834 7 -925 l6 -167 -151
0 -152 0 0 178 0 177 -230 183 -231 183 -1996 15 -1997 16 -323 -128 -323
-129 0 -247 0 -248 -165 0 -165 0 0 39 0 39 -82 8 -83 9 -9 107 c-7 85 -12
109 -25 112 -9 3 -108 26 -220 51 l-205 45 -238 0 -238 0 0 74 0 74 -42 7
c-24 3 -96 29 -160 56 -104 44 -124 49 -190 49 -40 0 -157 3 -260 7 l-187 6
-3 61 -3 61 -577 3 -578 2 0 -49 c0 -88 29 -81 -339 -81 -353 0 -360 -1 -546
-62 l-70 -23 -3 -81 -3 -81 -202 -6 c-194 -5 -212 -7 -451 -56 -138 -28 -251
-51 -252 -51 -1 0 -6 -45 -9 -99 l-7 -100 -67 -6 c-123 -11 -121 -8 -121 -137
l0 -78 -821 0 c-776 0 -820 1 -815 18 2 9 7 31 11 49 6 31 6 31 83 37 42 3
307 8 587 12 441 5 512 8 528 22 16 14 17 66 16 836 0 635 -3 829 -13 856
l-13 35 -586 3 -587 2 0 54 c0 54 0 55 -32 58 -17 2 -33 9 -36 16 -3 9 169 12
837 12 l841 0 0 -59z m-15143 -516 l-6 -55 50 0 49 0 0 -400 0 -400 -49 0 -50
0 6 -55 6 -55 -492 0 -491 0 0 130 0 130 153 0 153 0 120 44 119 44 0 217 0
217 -110 40 c-107 39 -114 40 -272 45 l-163 6 0 73 0 74 491 0 492 0 -6 -55z
m67 -1567 c4 -35 9 -84 13 -110 l6 -48 -170 0 c-139 0 -173 -3 -183 -15 -11
-13 -64 -15 -366 -15 l-354 0 0 65 0 65 505 0 505 0 0 60 c0 52 3 60 19 60 15
0 20 -10 25 -62z m20564 -438 c-3 -143 -7 -262 -9 -264 -2 -3 -73 -6 -157 -8
l-152 -3 0 268 0 267 161 0 162 0 -5 -260z m-15958 130 l0 -60 295 0 295 0 0
38 c0 52 10 82 26 82 11 0 14 -28 14 -145 l0 -145 -640 0 -641 0 37 58 c20 31
62 96 92 145 l55 87 234 0 233 0 0 -60z m10466 -221 c-3 -17 -6 -44 -6 -60 l0
-29 -2735 0 -2735 0 0 60 0 60 2741 0 2742 0 -7 -31z m-13586 -2724 c0 -8 -4
-15 -10 -15 -5 0 -7 7 -4 15 4 8 8 15 10 15 2 0 4 -7 4 -15z"/>
</g>
</svg>
