<?xml version="1.0" standalone="no"?>
<!DOCTYPE svg PUBLIC "-//W3C//DTD SVG 20010904//EN"
 "http://www.w3.org/TR/2001/REC-SVG-20010904/DTD/svg10.dtd">
<svg version="1.0" xmlns="http://www.w3.org/2000/svg"
   viewBox="0 0 4465.000000 4806.000000"
 preserveAspectRatio="xMidYMid meet">
<metadata>
Created by potrace 1.16, written by Peter Selinger 2001-2019
</metadata>
<g transform="translate(0.000000,4806.000000) scale(0.100000,-0.100000)"
fill="#000000" stroke="none">
<path d="M19180 48049 c-437 -3 -834 -7 -882 -8 l-87 -1 -187 -270 -187 -270
-606 0 c-333 0 -811 -3 -1062 -7 l-456 -6 -879 -1376 -879 -1376 2 -131 2
-130 93 -163 c64 -111 99 -163 113 -166 11 -2 352 -38 757 -79 l737 -75 87 29
c48 17 91 30 96 30 4 0 8 -10 8 -22 0 -16 -12 -30 -40 -46 l-40 -23 0 -287 c0
-158 -3 -540 -7 -849 l-6 -563 -2383 0 -2383 0 -828 -171 c-455 -94 -831 -174
-835 -177 -4 -4 -34 -45 -67 -92 l-61 -85 0 -227 0 -228 -402 0 -403 0 -1170
-281 c-643 -155 -1172 -283 -1174 -285 -4 -4 -52 -330 -104 -706 l-23 -168 88
-57 88 -58 0 -580 0 -581 -88 -61 -88 -61 60 -433 c55 -391 63 -433 81 -441
11 -4 535 -132 1165 -284 l1145 -276 1645 -6 1645 -5 288 -309 288 -308 918 0
919 0 141 254 141 254 83 7 83 6 34 67 35 67 268 3 267 2 0 -238 0 -239 -90
-106 -90 -106 0 -80 0 -81 -69 0 -69 0 -309 -382 -308 -383 -604 -3 -604 -2
-1263 -595 -1263 -595 -1620 0 -1620 0 -223 -313 c-123 -173 -587 -826 -1032
-1453 l-810 -1139 -830 -189 c-457 -104 -837 -191 -843 -194 -9 -3 -13 -26
-13 -67 0 -34 -3 -83 -6 -107 l-6 -45 -127 -56 -126 -56 -5 -153 -6 -153 -407
-1235 -407 -1235 -1 -995 0 -995 -62 -44 c-34 -25 -214 -148 -401 -275 -186
-126 -339 -234 -341 -240 -58 -221 -55 -215 -89 -221 -17 -3 -317 -39 -666
-81 -379 -45 -671 -84 -725 -98 l-90 -22 -3 -200 -2 -201 110 -43 110 -43 0
-347 0 -347 -110 -43 -110 -42 2 -201 3 -201 91 -22 c50 -12 380 -56 735 -98
354 -42 653 -79 665 -81 16 -4 26 -21 42 -77 12 -40 25 -91 30 -112 7 -38 16
-45 277 -223 149 -100 330 -224 402 -275 l133 -93 0 -995 0 -994 407 -1236
407 -1235 6 -153 5 -153 123 -54 c68 -29 126 -56 129 -59 3 -2 8 -52 10 -110
5 -85 9 -106 22 -110 9 -3 387 -89 841 -192 l826 -188 1031 -1450 1031 -1451
1622 -3 1623 -2 1263 -595 1263 -595 603 -1 603 0 309 -385 308 -384 69 0 69
0 0 -81 0 -81 90 -105 90 -104 0 -240 0 -239 -267 2 -266 3 -33 60 c-47 86
-45 85 -129 85 l-73 0 -140 252 -140 253 -923 2 -924 2 -285 -307 -285 -307
-1645 -5 -1645 -5 -1150 -278 c-632 -152 -1157 -281 -1165 -286 -11 -6 -30
-113 -76 -441 l-60 -432 88 -59 88 -60 0 -579 0 -579 -68 -48 c-37 -27 -77
-55 -89 -63 l-20 -15 61 -432 c34 -238 64 -434 66 -436 3 -2 532 -130 1176
-285 l1172 -282 401 0 401 0 0 -226 0 -226 65 -94 c37 -52 70 -94 74 -94 5 0
379 -77 832 -170 l823 -170 2382 0 2381 0 6 -562 c4 -310 7 -692 7 -850 l0
-287 40 -23 c31 -18 40 -29 40 -50 l0 -27 -82 30 -81 30 -751 -71 c-413 -39
-760 -73 -771 -75 -14 -3 -49 -55 -113 -166 l-93 -163 -2 -130 -2 -131 879
-1376 879 -1376 576 -6 c317 -4 795 -7 1062 -7 l486 0 188 -270 187 -270 96
-1 c54 0 520 -4 1037 -9 l940 -8 458 115 c431 107 464 116 537 159 43 24 83
50 88 57 38 46 113 283 223 699 l120 458 176 318 176 319 495 6 c272 4 710 7
973 7 456 0 478 1 484 19 5 15 20 19 103 24 53 4 144 7 200 7 95 0 104 -2 109
-20 5 -19 11 -20 167 -14 88 4 663 23 1276 43 l1115 36 3 47 3 46 -93 6 c-51
3 -563 22 -1138 41 -575 19 -1108 38 -1186 41 l-141 7 -7 -28 -7 -28 -142 6
c-78 4 -167 7 -198 7 -52 0 -57 2 -63 25 l-6 25 -408 1 c-224 1 -622 5 -885 8
l-477 6 554 995 c419 754 626 1115 856 1490 166 272 458 756 647 1075 l345
580 -15 385 -16 385 77 113 c42 63 83 118 90 124 7 6 398 64 870 129 l857 119
2732 110 c1503 60 2745 110 2760 110 24 0 33 9 59 57 l31 56 269 -2 c148 -1
762 -8 1364 -16 602 -8 1197 -15 1321 -15 l226 0 83 -125 c71 -108 87 -125
114 -130 17 -3 328 -37 691 -76 481 -52 679 -69 730 -65 163 13 3460 331 4007
386 l597 60 308 85 c296 82 318 87 561 116 l253 30 135 80 c129 76 144 83 357
145 122 36 422 121 667 189 245 68 543 152 662 187 l218 63 0 52 c0 50 -1 52
-32 61 -18 5 -150 44 -293 85 -143 42 -393 112 -555 157 -162 44 -428 119
-590 166 -294 86 -295 86 -433 166 l-137 81 -245 29 c-233 28 -257 33 -552
114 l-308 85 -630 64 c-346 35 -1359 134 -2250 220 -891 85 -1658 159 -1705
164 -74 7 -170 -1 -770 -65 -377 -41 -692 -74 -700 -74 -8 0 -52 -56 -97 -124
l-82 -124 -333 -6 c-702 -14 -2838 -37 -2847 -31 -6 3 -22 28 -37 54 l-26 49
-87 6 c-47 3 -1281 54 -2741 111 l-2655 106 -1165 160 -1165 161 -887 -47
c-488 -26 -893 -45 -900 -43 -10 4 -17 86 -28 344 l-15 339 -1081 3 -1082 2
-58 -95 -59 -94 -155 -1 -156 0 -38 -70 c-30 -57 -42 -70 -62 -70 l-24 0 0
205 0 205 448 0 447 0 123 123 122 122 0 1588 0 1587 150 0 150 0 0 -199 0
-200 75 -88 75 -88 0 -228 0 -228 -75 -92 -75 -91 0 -123 0 -123 304 0 304 0
1346 642 1346 642 0 196 0 195 893 99 c490 54 906 101 924 104 27 4 35 12 55
57 l23 53 160 22 c88 12 170 24 182 27 19 4 26 -4 50 -51 26 -53 29 -56 58
-51 16 3 260 30 540 60 281 30 529 58 551 61 l42 6 41 107 41 108 0 904 0 904
-40 104 c-21 57 -41 106 -44 109 -3 3 -531 63 -1173 134 l-1166 130 -31 -36
-31 -35 -181 26 -180 26 -22 33 c-12 19 -32 36 -44 38 -13 3 -599 69 -1303
146 -704 77 -1290 143 -1302 146 l-23 4 0 618 0 618 -755 1049 -755 1050 0
323 c0 258 3 322 13 322 7 0 687 65 1510 145 824 80 1507 145 1517 145 20 0
20 17 20 1460 0 1246 -2 1460 -14 1460 -8 0 -688 65 -1513 145 -824 80 -1506
145 -1515 145 -17 0 -18 22 -18 323 l0 322 753 1045 752 1045 5 625 5 625
1319 146 c1275 142 1321 147 1338 169 10 13 22 29 26 36 4 8 76 22 187 38
l180 25 30 -35 31 -35 1167 129 c642 71 1170 132 1173 135 3 2 23 51 44 108
l40 104 0 905 0 905 -41 107 -41 107 -42 6 c-22 3 -268 30 -546 60 -278 30
-521 58 -540 61 -35 5 -36 4 -62 -50 -25 -51 -30 -55 -55 -51 -46 8 -314 45
-324 45 -5 0 -21 25 -36 55 -15 30 -30 55 -33 56 -3 0 -417 46 -920 102 l-915
102 -3 196 -2 196 -1345 642 -1345 641 -305 0 -305 0 0 -123 0 -122 75 -92 75
-91 0 -228 0 -227 -75 -88 -75 -88 0 -196 0 -195 -150 0 -150 0 0 1583 0 1582
-123 123 -122 122 -448 0 -447 0 0 205 0 205 24 0 c20 0 32 -13 62 -70 l38
-70 156 0 155 0 58 -95 59 -95 1079 0 1079 0 0 310 0 310 71 0 c47 0 115 11
209 35 128 32 151 35 289 35 l149 0 52 70 52 70 158 0 159 0 53 -70 53 -69
805 0 805 -1 51 118 51 117 873 3 872 2 96 -80 96 -80 383 0 382 0 898 632
c494 347 899 632 901 633 1 1 7 30 13 64 l11 61 128 0 128 0 7 -42 c13 -86
-19 -78 310 -78 l293 0 6 30 c3 17 9 44 12 60 l6 30 128 0 128 0 8 -57 9 -58
297 -3 296 -2 7 42 c13 84 2 78 145 78 l128 0 7 -60 7 -60 534 0 534 0 0 165
0 165 275 0 275 0 0 160 c0 158 0 160 23 164 12 3 189 19 392 36 204 17 396
33 428 37 l57 6 0 498 0 499 376 0 c368 0 377 1 411 21 32 20 52 22 252 27
168 4 218 8 224 18 12 20 395 20 411 0 9 -12 199 -11 1281 4 699 10 1271 18
1273 19 1 1 2 12 2 25 l0 24 -727 8 c-401 5 -1069 9 -1485 8 -417 0 -758 4
-758 8 0 4 -96 8 -212 8 l-213 0 -417 127 -418 128 0 68 0 67 622 0 621 0 301
96 c165 53 310 102 321 109 16 10 488 14 2325 19 1268 3 2344 9 2393 12 82 6
87 8 87 29 0 21 -5 23 -92 29 -51 3 -1129 9 -2394 12 l-2302 7 -16 33 -16 34
-925 0 -925 0 0 90 0 90 1038 0 1038 0 30 40 29 40 1113 0 1112 0 0 104 0 104
233 6 c127 3 948 15 1822 26 875 11 1751 23 1948 26 l357 7 0 47 0 48 -252 6
c-139 3 -957 15 -1818 26 -861 11 -1728 23 -1927 26 l-363 7 0 53 0 54 -283 0
-283 0 -39 40 -39 40 -1858 0 -1858 0 0 670 0 670 -2227 0 -2228 -1 -48 -64
-47 -65 -1962 0 -1962 0 -157 65 -158 65 -665 0 -666 0 0 -215 0 -215 -337 2
-337 3 -74 135 c-41 74 -353 614 -694 1198 -341 585 -618 1065 -616 1068 2 2
399 6 881 10 l877 7 6 22 c5 21 13 22 141 28 75 4 165 7 199 7 60 0 64 -1 70
-26 l7 -26 126 6 c69 4 594 22 1166 41 572 19 1091 37 1153 41 l112 6 0 49 0
49 -73 0 c-82 0 -2112 65 -2338 75 -143 7 -146 6 -152 -14 -5 -19 -12 -21 -84
-21 -44 0 -134 3 -201 7 -106 5 -122 8 -127 25 -6 17 -25 18 -358 18 -194 0
-632 3 -974 7 l-623 6 -168 307 -169 307 -126 471 c-90 334 -142 507 -178 594
l-50 123 -84 47 c-80 45 -110 54 -545 163 l-460 115 -152 -2 c-84 -1 -511 -5
-948 -9z"/>
</g>
</svg>
