<?xml version="1.0" standalone="no"?>
<!DOCTYPE svg PUBLIC "-//W3C//DTD SVG 20010904//EN"
 "http://www.w3.org/TR/2001/REC-SVG-20010904/DTD/svg10.dtd">
<svg version="1.0" xmlns="http://www.w3.org/2000/svg"
   viewBox="0 0 3864.000000 4798.000000"
 preserveAspectRatio="xMidYMid meet">
<metadata>
Created by potrace 1.16, written by Peter Selinger 2001-2019
</metadata>
<g transform="translate(0.000000,4798.000000) scale(0.100000,-0.100000)"
fill="#000000" stroke="none">
<path d="M17542 47936 l-1423 -42 -23 -25 c-18 -19 -38 -87 -97 -326 -66 -275
-75 -303 -93 -303 -12 0 -683 -43 -1493 -94 l-1472 -93 -63 -56 c-35 -31 -763
-681 -1618 -1446 l-1555 -1390 -551 0 -551 -1 -74 -145 -74 -145 -307 0 -308
0 0 118 c0 78 -4 122 -12 130 -9 9 -140 12 -528 12 -502 0 -555 -2 -2013 -75
-823 -41 -1512 -75 -1531 -75 -33 0 -35 -2 -58 -67 -23 -67 -23 -72 -23 -533
0 -256 4 -482 8 -502 8 -39 137 -225 222 -321 l50 -57 1296 -150 1295 -150
497 0 496 0 24 33 c13 17 57 85 97 150 l72 117 180 0 179 0 -3 -34 c-3 -28
-60 -98 -360 -438 l-356 -404 -404 -13 c-221 -7 -408 -16 -415 -19 -6 -4 -607
-707 -1335 -1562 l-1323 -1555 -332 -3 -332 -2 -100 -128 -101 -127 0 -296 0
-295 27 -26 c24 -21 44 -27 133 -37 77 -8 809 -11 2748 -11 l2642 0 0 -30 c0
-33 -18 -217 -26 -267 l-5 -33 -459 0 -460 0 0 -200 0 -200 -793 0 -792 0 -78
-78 -77 -77 -2 -1239 -3 -1239 -230 -138 c-214 -128 -283 -177 -1000 -721
l-770 -584 -5 -275 -5 -274 -37 -56 -37 -56 -868 -6 -868 -5 -30 -36 -30 -36
-197 0 -197 0 -28 35 -29 35 -648 -2 -648 -3 -129 -210 -129 -210 0 -2451 0
-2450 128 -210 129 -209 650 -3 651 -2 26 35 27 35 197 0 197 0 30 -41 30 -41
638 7 637 8 0 -117 0 -116 -558 0 -557 0 -310 -266 c-171 -146 -339 -292 -375
-324 l-65 -57 -23 -94 -22 -94 0 -1275 0 -1275 23 -87 22 -88 375 -322 375
-322 557 -4 558 -5 0 -108 0 -109 -639 0 -640 0 -27 -35 -26 -35 -198 0 -198
0 -31 35 -30 35 -645 0 -644 0 -131 -213 -131 -214 0 -2451 0 -2451 132 -215
132 -216 643 0 642 0 28 35 28 35 201 0 202 0 31 -35 30 -35 865 0 864 0 41
-66 41 -65 0 -267 0 -267 772 -585 c724 -549 786 -594 1005 -724 l233 -139 0
-1236 0 -1236 78 -78 77 -77 793 0 792 0 0 -205 0 -205 460 0 459 0 5 -32 c8
-51 26 -235 26 -268 l0 -30 -2677 0 c-1638 0 -2707 -4 -2753 -10 -61 -8 -79
-14 -98 -35 -22 -26 -22 -29 -22 -320 l0 -295 103 -130 102 -130 330 0 331 0
1323 -1555 c728 -856 1327 -1558 1332 -1560 4 -3 191 -12 415 -20 224 -7 410
-17 414 -22 5 -4 166 -187 359 -407 289 -328 351 -403 351 -427 l0 -29 -181 2
-182 3 -87 139 c-48 76 -95 143 -105 149 -13 7 -183 8 -524 4 l-506 -6 -1274
-148 -1275 -147 -40 -44 c-23 -25 -82 -100 -133 -169 -84 -114 -92 -129 -103
-191 -7 -46 -10 -210 -8 -508 3 -433 3 -440 27 -501 l23 -61 72 -6 c39 -3 715
-37 1501 -76 l1430 -71 555 3 555 3 3 128 3 127 306 -2 306 -3 74 -143 75
-142 547 0 548 0 1623 -1450 c1580 -1410 1625 -1450 1665 -1451 22 0 693 -41
1490 -92 l1450 -92 75 -302 c63 -254 79 -307 100 -327 l25 -24 1493 -43 c1442
-41 1496 -42 1566 -25 114 27 116 30 116 217 0 151 -2 164 -85 609 l-84 454
-331 331 -330 330 -300 1125 c-273 1022 -314 1189 -455 1826 l-155 700 0 315
0 315 -50 49 c-27 27 -50 55 -50 62 0 7 18 18 40 24 22 7 45 18 50 24 6 7 43
592 85 1306 111 1932 114 1993 116 2377 2 336 1 355 -17 373 -17 16 -58 22
-304 45 -156 14 -285 26 -287 27 -1 1 139 455 311 1007 305 979 344 1096 1534
4565 671 1958 1224 3568 1227 3578 7 16 82 17 1389 17 l1381 0 305 263 305
263 6 64 c4 36 7 164 8 286 l1 221 1038 5 1037 5 423 147 423 146 666 -382
666 -381 111 -23 110 -22 1820 339 c1181 220 2078 382 2551 460 l730 120 694
181 694 180 1331 633 c1712 814 1805 860 2307 1158 l406 242 13 215 c10 175 9
249 -2 394 l-13 179 -385 229 c-235 140 -505 290 -695 387 -170 87 -906 441
-1635 786 l-1325 628 -685 179 -685 179 -725 119 c-449 75 -1422 250 -2559
462 l-1834 342 -111 -22 -111 -22 -650 -371 c-357 -205 -656 -377 -663 -384
-10 -9 -109 22 -443 137 l-431 148 -456 0 c-251 0 -717 3 -1034 7 l-578 6 0
201 c0 111 -3 238 -6 283 l-7 82 -305 263 -306 263 -1384 5 -1385 5 -1224
3570 c-1189 3468 -1233 3598 -1534 4565 -170 547 -312 1002 -314 1011 -5 13
32 18 278 39 254 21 286 26 308 44 l24 21 -6 445 c-4 290 -16 600 -33 890 -14
245 -56 951 -91 1570 -72 1238 -61 1143 -132 1156 -46 9 -42 31 17 89 l50 49
0 313 0 313 154 697 c140 631 183 806 455 1828 l301 1130 330 327 330 326 85
456 c84 451 85 459 85 616 l0 159 -27 19 c-45 30 -142 52 -229 51 -43 -1 -719
-20 -1502 -43z"/>
</g>
</svg>
