<?xml version="1.0" standalone="no"?>
<!DOCTYPE svg PUBLIC "-//W3C//DTD SVG 20010904//EN"
 "http://www.w3.org/TR/2001/REC-SVG-20010904/DTD/svg10.dtd">
<svg version="1.0" xmlns="http://www.w3.org/2000/svg"
   viewBox="0 0 3846.000000 1636.000000"
 preserveAspectRatio="xMidYMid meet">
<metadata>
Created by potrace 1.16, written by Peter Selinger 2001-2019
</metadata>
<g transform="translate(0.000000,1636.000000) scale(0.100000,-0.100000)"
fill="#000000" stroke="none">
<path d="M29465 15058 c-236 -714 -433 -1298 -437 -1298 -4 0 -83 -94 -177
-208 l-169 -209 -11 -270 c-6 -149 -11 -301 -11 -337 l0 -66 -52 0 c-47 0 -62
-6 -162 -71 l-111 -71 -115 -294 -114 -294 -818 0 -817 0 -34 -30 -35 -30
-151 0 -151 0 0 -400 0 -400 153 0 153 0 34 -35 34 -35 428 0 428 0 0 -27 0
-26 -2777 6 -2778 6 -1220 -239 -1220 -240 -195 -80 c-169 -70 -209 -82 -305
-96 -70 -10 -326 -74 -705 -176 l-595 -161 -330 -150 c-181 -82 -376 -165
-432 -184 -55 -19 -193 -52 -305 -74 l-203 -39 -5400 -50 c-2970 -27 -5733
-52 -6140 -55 -603 -6 -807 -4 -1102 9 l-362 16 -83 -39 c-46 -22 -114 -62
-153 -90 l-70 -50 -1284 -161 -1285 -162 -193 -166 c-157 -135 -193 -171 -189
-187 3 -11 6 -33 6 -50 1 -52 11 -57 132 -74 101 -15 113 -18 116 -37 2 -17
-14 -31 -88 -73 l-90 -52 0 -129 0 -129 90 -52 c74 -42 90 -56 88 -73 -3 -19
-15 -22 -116 -37 -121 -17 -131 -22 -132 -74 0 -16 -3 -39 -6 -50 -4 -16 32
-52 189 -187 l194 -166 1284 -162 1284 -161 70 -50 c39 -28 107 -68 153 -90
l83 -39 362 16 c295 13 499 15 1102 9 407 -3 3170 -28 6140 -55 l5400 -50 203
-39 c112 -22 250 -55 305 -74 56 -19 251 -102 432 -184 l330 -150 595 -161
c379 -102 635 -166 705 -176 96 -14 136 -26 305 -96 l195 -80 1220 -240 1220
-239 2778 6 2777 6 0 -26 0 -27 -428 0 -428 0 -34 -35 -34 -35 -153 0 -153 0
0 -400 0 -400 151 0 151 0 35 -30 34 -30 817 0 818 0 114 -294 115 -294 111
-71 c100 -65 115 -71 162 -71 l52 0 0 -66 c0 -36 5 -188 11 -337 l11 -270 169
-208 c93 -114 173 -209 178 -211 4 -1 201 -583 435 -1293 235 -710 428 -1293
429 -1296 2 -4 461 186 475 196 2 2 11 699 22 1550 10 851 22 1550 27 1554 4
4 30 25 58 47 58 46 94 84 95 101 0 8 24 10 88 7 105 -6 1889 -74 1938 -74 43
0 44 16 4 87 -16 29 -30 55 -30 57 0 3 41 2 90 -1 90 -6 90 -6 90 18 0 14 -80
150 -183 313 l-182 290 -50 13 c-28 7 -66 15 -85 18 -31 5 -1620 379 -1662
391 -17 5 -18 25 -18 235 l0 229 88 0 87 0 123 203 122 202 0 78 c0 92 -14 82
177 122 72 15 136 31 141 34 12 7 42 175 32 179 -4 1 -43 6 -86 11 -47 5 236
8 706 7 l784 -1 55 -77 54 -78 153 0 154 0 77 -110 78 -110 650 0 651 0 44 45
44 45 354 0 353 0 80 46 79 46 555 -3 555 -3 35 34 c23 22 31 37 25 45 -5 6
-10 42 -12 80 -3 64 -5 70 -25 73 -19 3 -23 10 -23 42 0 35 3 39 30 45 l30 7
-2 246 -3 247 -27 3 c-25 3 -28 7 -28 42 0 32 4 39 25 44 24 6 25 10 25 76 0
38 4 72 10 75 6 4 -3 23 -22 45 l-31 40 -209 -7 -208 -6 0 67 c0 44 4 68 13
71 6 3 264 17 572 32 618 30 1199 41 1221 22 15 -12 251 -3 269 11 6 4 34 15
64 25 l53 17 -7 66 c-4 37 -13 76 -21 87 -11 15 -14 62 -14 200 0 192 -3 205
-47 205 -23 0 -23 1 -23 139 l0 139 35 12 35 12 0 268 0 268 -35 12 -35 12 0
139 c0 138 0 139 23 139 44 0 47 13 47 205 0 138 3 185 14 200 8 11 17 50 21
87 l7 66 -53 17 c-30 10 -58 21 -64 25 -18 14 -254 23 -269 11 -22 -19 -603
-8 -1221 22 -308 15 -566 29 -572 32 -9 3 -13 27 -13 71 l0 67 208 -6 209 -7
31 40 c19 22 28 41 22 45 -6 3 -10 37 -10 75 0 66 -1 70 -25 76 -21 5 -25 12
-25 44 0 35 3 39 28 42 l27 3 3 247 2 246 -30 7 c-27 6 -30 10 -30 45 0 32 4
39 23 42 20 3 22 9 25 73 2 38 7 74 12 80 6 8 -2 23 -25 45 l-35 34 -555 -3
-555 -3 -79 46 -80 46 -353 0 -354 0 -44 45 -44 45 -651 0 -650 0 -78 -110
-77 -110 -154 0 -153 0 -54 -77 -55 -78 -784 -1 c-470 -1 -753 2 -706 7 43 5
82 10 86 11 10 4 -20 172 -32 179 -5 3 -69 19 -141 34 -191 40 -177 30 -177
122 l0 78 -122 202 -123 203 -87 0 -88 0 0 229 c0 210 1 230 18 235 42 12
1631 386 1662 391 19 3 57 11 85 18 l50 13 182 290 c103 163 183 299 183 313
0 24 0 24 -90 18 -49 -3 -90 -4 -90 -3 0 2 16 34 36 72 l36 69 -35 3 c-31 3
-1796 -61 -1969 -71 -47 -3 -68 -1 -68 7 0 16 -64 80 -116 118 l-42 30 -6 241
c-3 133 -10 694 -16 1247 -14 1443 -18 1617 -39 1623 -9 3 -115 47 -236 99
l-220 94 -430 -1298z"/>
</g>
</svg>
