<?xml version="1.0" standalone="no"?>
<!DOCTYPE svg PUBLIC "-//W3C//DTD SVG 20010904//EN"
 "http://www.w3.org/TR/2001/REC-SVG-20010904/DTD/svg10.dtd">
<svg version="1.0" xmlns="http://www.w3.org/2000/svg"
   viewBox="0 0 4236.000000 4574.000000"
 preserveAspectRatio="xMidYMid meet">
<metadata>
Created by potrace 1.16, written by Peter Selinger 2001-2019
</metadata>
<g transform="translate(0.000000,4574.000000) scale(0.100000,-0.100000)"
fill="#000000" stroke="none">
<path d="M712 45651 l-30 -89 84 -105 85 -105 -425 -1339 -425 -1338 195 -457
c181 -423 201 -464 272 -566 136 -194 5051 -6302 6100 -7582 l1014 -1235 349
-350 350 -351 -2 -464 -1 -465 32 -113 c17 -63 30 -116 27 -118 -2 -2 -777
-314 -1722 -693 l-1718 -689 -919 -1188 c-588 -761 -934 -1218 -962 -1269 -41
-74 -65 -156 -304 -1060 l-260 -980 -22 -435 c-20 -410 -21 -473 -11 -1112 8
-476 8 -880 0 -1355 -10 -640 -9 -703 11 -1113 l22 -435 260 -980 c239 -904
263 -986 304 -1060 28 -51 374 -508 962 -1269 l919 -1188 1718 -689 c945 -379
1720 -691 1722 -693 3 -2 -10 -55 -27 -118 l-32 -113 1 -465 2 -464 -350 -351
-349 -350 -1014 -1235 c-1049 -1279 -5964 -7388 -6100 -7582 -72 -102 -91
-143 -272 -566 l-195 -457 425 -1338 425 -1339 -85 -105 -84 -106 29 -85 c16
-47 30 -87 32 -88 2 -2 109 38 239 89 l237 92 290 332 291 331 202 -79 c112
-43 206 -79 211 -79 34 0 136 110 371 400 144 179 359 438 476 575 341 401
900 978 1246 1285 93 83 481 495 1401 1490 l1272 1375 71 30 71 29 574 671
c391 457 731 842 1070 1210 273 297 501 550 506 563 5 13 9 37 9 53 0 24 42
78 227 294 l227 265 169 0 169 0 58 31 c117 62 551 541 910 1004 72 94 135
174 140 179 5 5 35 2 72 -7 61 -15 70 -15 277 14 l215 30 54 47 c30 26 69 59
86 74 20 16 272 123 645 275 l613 248 496 403 c274 222 523 426 554 453 44 38
131 156 388 529 183 264 346 491 363 504 18 13 171 115 342 227 l310 203 670
-37 c667 -38 1939 -129 3475 -250 l805 -64 404 33 c311 26 509 48 860 98 251
36 468 69 482 74 14 5 257 198 540 429 283 230 528 429 544 440 35 25 3995
1389 6420 2211 1933 655 1853 629 1925 637 32 3 598 188 1340 437 l1285 430
835 385 c459 212 973 444 1142 514 l307 129 551 0 c539 0 550 0 562 20 13 20
24 20 1864 20 l1850 0 17 35 c12 24 15 48 11 78 l-6 44 -247 6 c-135 4 -969 7
-1853 7 -1423 0 -1608 2 -1608 15 0 12 -16 15 -82 16 -46 1 -166 4 -267 8
l-184 6 977 409 976 409 1077 552 1076 553 388 491 388 490 119 551 119 550
-119 550 -119 551 -388 491 -388 490 -1085 557 -1085 556 -968 405 -968 405
194 6 c107 4 227 7 267 8 57 1 72 4 72 16 0 13 189 15 1643 15 904 0 1738 3
1854 7 l211 6 6 44 c4 30 1 54 -11 78 l-17 35 -1850 0 c-1840 0 -1851 0 -1864
20 -12 20 -23 20 -562 20 l-551 0 -307 129 c-169 70 -683 302 -1142 514 l-835
385 -1285 430 c-742 249 -1308 434 -1340 437 -72 8 9 -19 -1925 637 -2431 824
-6385 2186 -6420 2211 -16 11 -262 210 -545 441 -282 230 -525 423 -540 428
-14 5 -230 38 -481 74 -351 50 -549 72 -860 98 l-404 33 -805 -64 c-1536 -121
-2808 -212 -3475 -250 l-670 -37 -310 203 c-171 112 -324 214 -342 227 -17 13
-181 240 -363 504 -257 372 -344 491 -388 529 -31 27 -280 231 -554 453 l-496
403 -614 249 c-557 225 -618 252 -667 295 -127 109 -96 97 -332 130 -207 29
-216 29 -277 14 -37 -9 -67 -12 -72 -7 -5 5 -68 86 -140 179 -359 463 -793
942 -910 1004 l-58 31 -169 0 -169 0 -227 265 c-185 216 -227 270 -227 294 0
16 -4 40 -9 53 -5 13 -233 266 -506 563 -340 370 -678 752 -1070 1210 l-574
671 -71 29 -71 30 -1272 1375 c-920 995 -1308 1407 -1401 1490 -346 307 -905
884 -1246 1285 -117 138 -332 396 -476 575 -235 290 -337 400 -371 400 -5 0
-99 -36 -211 -79 l-202 -79 -291 332 -291 331 -236 92 c-131 51 -238 93 -239
93 0 0 -15 -40 -31 -89z"/>
</g>
</svg>
