<?xml version="1.0" standalone="no"?>
<!DOCTYPE svg PUBLIC "-//W3C//DTD SVG 20010904//EN"
 "http://www.w3.org/TR/2001/REC-SVG-20010904/DTD/svg10.dtd">
<svg version="1.0" xmlns="http://www.w3.org/2000/svg"
   viewBox="0 0 4755.000000 1981.000000"
 preserveAspectRatio="xMidYMid meet">
<metadata>
Created by potrace 1.16, written by Peter Selinger 2001-2019
</metadata>
<g transform="translate(0.000000,1981.000000) scale(0.100000,-0.100000)"
fill="#000000" stroke="none">
<path d="M33211 19771 c-23 -29 -31 -49 -31 -80 0 -41 0 -41 -37 -41 -293 -3
-668 -22 -790 -40 l-143 -21 -49 -52 c-28 -29 -60 -73 -71 -98 -12 -25 -93
-279 -179 -563 l-156 -518 -325 -370 -325 -370 -205 -102 -205 -103 -805 -141
-805 -142 -525 -35 c-392 -27 -638 -38 -970 -45 l-445 -8 -150 -72 c-82 -40
-222 -102 -310 -139 -155 -64 -173 -75 -537 -321 l-376 -255 -21 -53 c-19 -49
-21 -74 -21 -298 l0 -244 -22 -4 c-51 -11 -690 -69 -694 -63 0 1 -36 137 -80
302 l-79 299 -345 263 -345 262 -2617 0 -2616 1 -690 -240 -690 -241 -639
-354 -638 -353 -260 -26 c-272 -27 -427 -34 -2305 -96 -503 -17 -1084 -37
-1291 -44 -455 -17 -536 -10 -781 70 -111 37 -272 156 -493 368 -99 94 -244
220 -321 279 -100 76 -141 113 -139 125 2 9 6 28 9 42 l5 25 718 -22 c550 -16
934 -22 1641 -22 l922 -1 0 769 0 769 -3812 6 c-2097 4 -4069 6 -4382 4 l-569
-3 -30 -80 c-21 -58 -44 -172 -83 -410 -30 -181 -57 -342 -60 -357 l-6 -28
-171 -1 c-108 0 -184 -5 -204 -12 -47 -18 -378 -405 -549 -642 l-144 -200
-118 -65 -117 -65 -53 -157 -54 -156 -647 -218 -646 -218 -85 -153 -85 -152
-205 -1 -205 -1 -875 -337 -875 -337 -3 -90 c-2 -50 2 -134 8 -188 10 -95 12
-101 54 -155 24 -31 86 -97 136 -147 144 -140 328 -359 335 -398 3 -17 26
-164 50 -326 l45 -293 0 -588 0 -588 70 -7 70 -7 0 -1489 c0 -1183 -3 -1490
-12 -1494 -7 -2 -39 -6 -70 -10 l-58 -6 0 -588 0 -588 -50 -323 -50 -322 -92
-111 c-51 -62 -153 -175 -228 -252 -190 -195 -188 -191 -200 -311 -6 -54 -10
-139 -8 -188 l3 -89 860 -331 860 -330 219 -6 219 -5 86 -154 86 -154 647
-216 647 -216 53 -157 53 -158 115 -62 115 -62 140 -194 c77 -107 228 -297
335 -422 176 -206 199 -229 237 -239 23 -6 114 -11 202 -11 158 0 161 0 165
-22 3 -13 28 -165 56 -338 35 -220 60 -344 83 -413 l32 -97 4382 0 4383 0 0
650 0 650 766 0 765 0 162 30 c89 17 164 34 168 38 3 4 18 45 32 92 14 47 39
131 57 188 l31 102 526 0 527 0 28 27 c23 22 32 25 46 17 9 -6 121 -67 247
-137 l230 -126 686 -240 685 -241 2611 0 2611 0 348 263 349 264 79 299 c43
164 80 301 82 303 5 6 410 -26 572 -45 l142 -17 0 -247 c0 -228 2 -251 21
-297 20 -50 25 -54 398 -306 370 -251 380 -257 562 -336 101 -44 240 -106 309
-139 l126 -60 384 -6 c278 -5 551 -18 980 -47 l595 -40 795 -140 795 -139 203
-103 203 -102 327 -371 327 -371 153 -509 c84 -280 166 -536 182 -569 16 -33
49 -79 73 -103 43 -43 44 -43 188 -68 128 -22 183 -26 487 -31 l342 -6 0 -39
c0 -28 9 -53 30 -84 l31 -44 419 0 419 0 36 46 c26 35 35 57 35 85 l0 39 424
0 c233 0 438 3 455 6 31 6 31 6 31 -37 0 -32 8 -55 33 -91 l32 -47 421 -1 421
0 31 44 c25 34 32 55 32 90 l0 46 460 0 460 0 0 -46 c0 -35 7 -56 32 -90 l31
-44 421 0 421 1 33 47 c25 38 32 59 32 95 l0 47 455 0 455 0 0 -49 c0 -40 6
-56 35 -95 l36 -46 419 0 419 0 31 44 c24 36 30 55 30 99 0 53 1 55 31 61 17
3 75 6 128 6 53 0 240 11 416 26 l320 26 210 63 210 64 53 57 c28 32 52 62 52
67 0 6 32 245 70 531 l71 520 62 102 c49 81 121 169 333 406 l270 303 325 194
324 195 200 177 200 178 450 190 c344 145 707 312 1540 709 l1090 519 32 59
32 59 1 441 0 442 33 5 c17 4 145 20 282 38 138 17 286 39 330 50 74 17 83 23
137 76 l57 58 2 682 1 683 -58 47 -57 47 -346 -17 c-190 -10 -357 -17 -370
-17 l-24 0 6 332 c4 182 8 333 10 334 1 1 300 11 665 20 l662 18 0 43 c0 40
-2 43 -27 43 -52 1 -977 30 -1146 37 l-168 6 -25 43 -26 44 -1109 0 -1109 0 0
110 0 110 -2787 0 -2788 0 -75 -74 -75 -74 -230 -25 -230 -25 -1887 2 -1887 2
-44 32 c-44 31 -47 32 -156 32 -77 0 -123 5 -148 15 -52 22 -591 22 -653 0
-28 -10 -81 -15 -156 -15 -105 0 -118 -2 -154 -25 -38 -24 -45 -25 -214 -25
-165 0 -176 1 -186 20 -10 19 -21 20 -243 20 l-233 0 -49 50 -49 50 -361 0
c-342 0 -361 1 -390 20 -16 11 -44 20 -60 20 -17 0 -36 5 -42 11 -7 7 -54 8
-139 4 -71 -3 -228 -8 -349 -11 -262 -6 -255 -3 -255 -106 l0 -68 -244 0 -244
0 -86 -31 c-77 -28 -87 -35 -98 -65 -7 -19 -17 -34 -23 -34 -5 0 -196 9 -422
22 l-413 22 0 283 0 283 -758 0 -759 0 -328 -70 c-181 -39 -332 -69 -336 -68
-4 2 46 185 110 407 l116 403 38 19 37 19 0 559 0 558 -37 17 -38 17 -114 397
c-63 218 -116 402 -118 408 -2 6 146 -22 334 -62 l338 -73 758 -1 757 0 0 284
0 284 63 6 c34 3 202 13 372 21 171 8 331 17 358 20 47 4 48 4 62 -33 14 -35
22 -40 103 -70 l87 -32 243 0 242 0 0 -63 c0 -53 4 -67 23 -85 21 -20 35 -22
242 -26 121 -3 276 -8 344 -11 82 -4 127 -3 134 4 6 6 22 11 37 11 14 0 40 9
58 20 31 19 50 20 396 20 l364 0 42 50 42 50 232 0 c220 0 234 1 251 20 17 19
31 20 199 20 164 0 183 -2 206 -20 21 -17 41 -20 136 -20 73 0 126 -5 154 -15
62 -22 631 -22 683 0 25 10 71 15 144 15 102 0 111 2 148 28 l40 27 1900 3
1900 2 220 -25 220 -26 75 -75 75 -74 2788 0 2787 0 0 115 0 115 1110 0 1110
0 25 39 26 39 107 6 c97 6 1088 36 1190 36 l42 0 0 45 0 45 -47 0 c-72 -1
-1278 32 -1281 35 -1 1 -5 152 -9 336 l-6 334 224 -12 c123 -7 291 -13 373
-13 l148 -1 55 43 55 43 -1 680 -2 680 -57 58 c-46 46 -69 61 -112 73 -42 11
-624 94 -662 94 -5 0 -8 197 -8 438 l0 437 -27 62 -28 62 -1085 517 c-834 398
-1192 563 -1547 713 l-461 196 -197 175 -197 175 -328 200 -329 200 -271 305
c-206 231 -286 329 -331 403 l-59 97 -71 533 -71 532 -52 53 -52 53 -205 64
-204 64 -285 25 c-157 14 -360 28 -452 32 l-168 7 0 59 c0 52 -4 65 -31 99
l-31 39 -421 0 -422 -1 -32 -43 c-27 -35 -33 -52 -33 -94 l0 -52 -132 0 c-73
0 -278 3 -455 7 l-323 6 0 45 c0 35 -7 54 -32 88 l-33 43 -421 1 -421 0 -31
-39 c-27 -33 -32 -49 -32 -90 l0 -51 -407 0 c-225 0 -432 3 -460 6 l-53 7 0
44 c0 35 -7 53 -32 84 l-31 39 -421 0 -421 -1 -32 -43 c-25 -32 -33 -53 -33
-84 l0 -42 -455 0 -455 0 0 42 c0 31 -8 52 -32 84 l-33 43 -422 1 -421 0 -31
-39z m-16592 -15677 c67 -36 121 -68 121 -70 0 -2 -118 -4 -262 -3 l-263 0 78
29 c43 17 104 48 135 69 31 22 60 40 64 40 4 1 61 -29 127 -65z"/>
</g>
</svg>
