<?xml version="1.0" standalone="no"?>
<!DOCTYPE svg PUBLIC "-//W3C//DTD SVG 20010904//EN"
 "http://www.w3.org/TR/2001/REC-SVG-20010904/DTD/svg10.dtd">
<svg version="1.0" xmlns="http://www.w3.org/2000/svg"
   viewBox="0 0 3467.000000 4570.000000"
 preserveAspectRatio="xMidYMid meet">
<metadata>
Created by potrace 1.16, written by Peter Selinger 2001-2019
</metadata>
<g transform="translate(0.000000,4570.000000) scale(0.100000,-0.100000)"
fill="#000000" stroke="none">
<path d="M15687 45668 c-3 -18 -27 -204 -53 -413 -26 -209 -50 -383 -53 -387
-4 -4 -159 10 -346 32 l-340 40 -35 -34 c-36 -34 -1340 -1276 -1421 -1353
l-46 -44 -269 -12 -269 -13 -407 -287 -407 -288 -86 -267 c-48 -147 -125 -385
-172 -529 -48 -149 -90 -263 -96 -263 -35 1 -1676 -82 -1694 -86 -14 -3 -23
-12 -23 -23 0 -23 -31 -21 880 -66 399 -20 737 -39 751 -43 l25 -7 -163 -505
c-90 -278 -191 -589 -224 -692 l-60 -188 -211 0 -211 0 -186 -107 c-196 -112
-299 -177 -317 -199 -8 -10 -101 -16 -405 -24 l-394 -12 -497 -186 -497 -185
-408 -350 c-224 -192 -413 -359 -419 -371 -7 -11 -46 -102 -87 -201 l-75 -180
-98 -1318 c-54 -725 -101 -1323 -105 -1329 -6 -9 -799 10 -1124 28 l-111 6
-218 -404 c-120 -221 -221 -407 -225 -411 -5 -4 -109 44 -232 108 l-224 116
-175 324 c-96 179 -181 325 -188 325 -7 0 -908 -254 -2002 -565 l-1989 -564
-292 -21 c-161 -11 -306 -20 -323 -20 l-31 0 -52 -272 -52 -273 -16 -350 c-25
-574 -20 -1604 14 -2910 l30 -1100 85 -350 c48 -192 90 -353 95 -358 4 -4 147
-17 317 -28 l309 -20 2002 -565 c1101 -310 2014 -567 2030 -570 28 -5 30 -1
136 206 60 115 111 210 115 210 4 0 188 -200 409 -444 l402 -444 58 -7 c32 -4
119 -11 193 -14 l136 -6 -132 -668 c-72 -367 -135 -672 -140 -677 -5 -5 -112
-55 -239 -111 -126 -56 -233 -104 -236 -108 -4 -3 -14 -235 -24 -516 -9 -280
-18 -512 -21 -514 -2 -2 -837 -34 -1856 -71 -1019 -36 -1833 -69 -1808 -73 25
-3 857 -36 1850 -73 993 -36 1806 -67 1808 -69 1 -1 -4 -200 -13 -441 -21
-611 -20 -1758 2 -2446 9 -296 14 -540 11 -543 -2 -3 -853 -36 -1889 -73
-1036 -37 -1873 -68 -1859 -70 14 -1 864 -34 1889 -72 1025 -38 1867 -72 1870
-75 5 -6 29 -631 30 -800 l1 -81 244 -108 c193 -86 245 -113 250 -130 13 -54
256 -1295 256 -1308 0 -12 -26 -16 -142 -22 -79 -3 -165 -9 -191 -12 l-48 -7
-396 -436 c-218 -240 -401 -441 -407 -448 -8 -9 -39 41 -121 202 -60 118 -114
215 -120 215 -5 0 -915 -257 -2023 -571 l-2014 -571 -321 -21 -322 -22 -88
-355 -88 -355 -29 -1100 c-35 -1306 -40 -2320 -15 -2910 l16 -360 52 -267 c51
-266 52 -268 77 -268 14 0 159 -9 322 -21 l298 -20 1997 -569 c1098 -313 1999
-567 2003 -565 3 2 85 150 181 328 l174 325 226 116 226 116 223 -411 223
-411 141 7 c450 19 1090 35 1095 26 3 -5 50 -603 104 -1328 l98 -1318 82 -199
82 -199 411 -353 412 -354 493 -186 494 -186 405 -10 405 -10 70 -58 c39 -31
149 -103 246 -158 l175 -102 217 0 c119 0 217 -2 217 -5 0 -3 111 -348 246
-766 135 -418 243 -763 240 -766 -3 -3 -383 -30 -843 -58 -461 -29 -840 -54
-843 -55 -3 -1 392 -28 878 -60 486 -32 886 -60 888 -63 3 -3 70 -207 150
-453 80 -247 148 -451 153 -454 4 -3 188 -132 408 -287 l401 -283 268 -12 269
-12 725 -689 c399 -380 737 -701 751 -714 l25 -23 354 40 c194 22 357 37 361
33 3 -5 31 -207 62 -451 30 -244 57 -445 60 -448 4 -5 965 66 1121 82 l58 6
-4 307 c-4 239 -10 343 -27 474 -13 93 -20 171 -17 175 3 3 97 16 209 29 222
25 386 59 395 82 3 8 0 259 -7 559 -6 300 -9 547 -6 550 5 5 717 41 833 42
l62 0 0 70 c0 64 -2 70 -22 74 -13 3 -217 13 -454 22 l-431 18 -7 364 c-4 200
-6 365 -4 367 2 2 528 17 1168 34 641 17 1247 33 1348 37 l182 6 0 68 0 67
-172 6 c-95 4 -686 18 -1313 32 -627 15 -1159 28 -1182 31 l-43 5 0 125 c0 93
3 124 13 124 37 -1 1547 72 1575 76 l32 5 0 89 0 90 -42 1 c-221 2 -1579 46
-1583 51 -8 7 -60 2307 -52 2314 3 3 1272 47 2820 97 1549 51 2814 93 2813 94
-1 2 -1199 46 -2661 98 -1463 53 -2661 97 -2662 99 -2 2 41 77 95 167 54 90
126 212 160 270 l62 107 -40 102 c-30 78 -37 107 -29 121 5 10 181 292 391
626 l381 608 -32 430 c-22 304 -36 434 -45 445 -7 8 -95 116 -196 240 -111
138 -194 231 -214 241 -17 8 -665 283 -1440 610 -775 327 -1411 600 -1413 606
-6 14 826 4555 836 4564 3 4 303 158 665 342 l659 335 710 1314 711 1314 80
23 c207 59 731 218 914 278 l202 65 0 173 0 172 1453 463 c798 255 1469 467
1490 472 33 7 46 5 90 -20 l52 -29 479 48 c412 42 481 46 490 34 180 -236 353
-454 361 -455 6 0 540 99 1188 221 l1178 222 27 -25 27 -25 1295 198 1295 198
1300 111 c1286 110 1303 112 1558 159 141 26 259 50 262 52 2 3 24 87 47 187
37 156 46 184 63 188 11 2 277 56 590 119 314 63 674 141 800 173 l230 58 132
173 133 173 0 261 0 260 -130 173 c-115 153 -134 174 -167 183 -204 55 -553
133 -1033 230 l-575 116 -44 186 -44 186 -251 47 c-248 46 -267 48 -1539 157
l-1287 110 -1318 203 -1317 203 -30 -27 -30 -28 -1150 217 c-632 120 -1164
220 -1182 224 -31 6 -33 3 -213 -228 -156 -200 -187 -235 -209 -235 -14 0
-229 20 -478 46 l-451 45 -51 -25 c-28 -14 -61 -26 -74 -26 -21 0 -2933 923
-2943 933 -2 2 -7 80 -10 173 l-7 169 -226 70 c-124 38 -391 119 -593 180
-202 61 -373 116 -379 122 -5 5 -329 599 -718 1319 l-707 1309 -665 339 -665
339 -418 2276 c-229 1252 -417 2281 -416 2287 0 6 622 273 1383 594 760 321
1409 596 1442 610 58 26 69 38 257 268 l196 241 6 63 c3 35 18 228 32 429 l27
367 -391 625 -392 626 41 105 41 105 -125 208 c-69 114 -124 209 -123 211 2 1
725 27 1607 57 882 30 1664 57 1737 61 l132 6 0 89 c0 49 -1 89 -2 90 -2 0
-847 29 -1879 63 l-1877 64 -51 28 -51 29 0 75 c0 118 42 1935 45 1938 1 1
542 27 1201 57 660 30 1232 57 1272 61 67 5 72 7 72 29 0 30 80 25 -1250 85
-608 27 -1147 53 -1197 56 l-93 6 0 124 c0 122 0 124 23 124 12 0 447 25 965
55 519 30 945 55 947 55 3 0 5 9 5 20 0 11 -3 20 -7 20 -31 -1 -1865 102
-1891 106 l-32 5 6 337 c4 185 10 340 13 345 6 6 1725 107 1824 107 23 0 27 4
27 30 0 29 -2 30 -42 30 -70 0 -1800 99 -1804 103 -2 2 3 280 11 618 8 338 15
673 15 746 l0 131 -107 25 c-60 14 -202 36 -316 48 -114 13 -213 26 -219 30
-8 5 -5 56 10 180 14 112 24 271 28 447 l7 272 -29 0 c-16 0 -270 18 -564 40
-294 22 -547 40 -561 40 -22 0 -28 -5 -32 -32z"/>
</g>
</svg>
