<?xml version="1.0" standalone="no"?>
<!DOCTYPE svg PUBLIC "-//W3C//DTD SVG 20010904//EN"
 "http://www.w3.org/TR/2001/REC-SVG-20010904/DTD/svg10.dtd">
<svg version="1.0" xmlns="http://www.w3.org/2000/svg"
   viewBox="0 0 4716.000000 1352.000000"
 preserveAspectRatio="xMidYMid meet">
<metadata>
Created by potrace 1.16, written by Peter Selinger 2001-2019
</metadata>
<g transform="translate(0.000000,1352.000000) scale(0.100000,-0.100000)"
fill="#000000" stroke="none">
<path d="M23768 13399 l-133 -121 -6 -136 c-4 -76 -7 -292 -8 -481 l-1 -343
-66 -257 -66 -257 -236 -20 -235 -19 -73 -235 c-53 -170 -79 -272 -93 -370
-28 -182 -61 -671 -61 -894 l0 -182 -51 -49 -51 -50 -109 114 -109 113 0 732
0 731 -209 98 -209 97 -2672 0 -2672 0 -209 -97 -209 -98 0 -695 0 -695 -148
-148 -147 -147 -148 148 -147 147 0 695 0 695 -207 98 -208 97 -2672 0 -2673
0 -205 -96 -205 -97 -2 -1861 -3 -1861 -87 127 -88 127 0 125 0 126 -39 0
c-45 0 -46 1 -56 104 -6 62 -35 131 -304 725 -164 361 -312 687 -328 724 -28
64 -68 108 -574 638 l-544 570 -250 144 c-919 529 -859 496 -1280 677 l-390
167 -675 42 -675 42 -838 -18 -839 -17 -278 -225 c-212 -171 -280 -231 -284
-251 -29 -144 -125 -956 -160 -1349 -23 -265 -45 -485 -49 -489 -3 -4 -109
-10 -234 -15 l-228 -8 -92 -96 -93 -95 0 -619 0 -618 -31 -7 c-17 -3 -75 -6
-128 -6 l-96 0 -442 -207 -443 -206 0 -1307 0 -1307 442 -206 443 -207 105 0
c58 0 115 -3 128 -6 l22 -6 0 -619 0 -619 93 -95 92 -96 227 -8 c126 -4 231
-11 235 -15 4 -3 26 -224 49 -489 35 -391 121 -1123 159 -1343 5 -26 47 -64
278 -251 149 -120 277 -222 282 -225 6 -3 386 -14 845 -23 l835 -18 666 42
c366 23 679 45 695 50 16 5 193 79 394 165 l365 157 573 327 572 327 548 573
c301 315 549 578 551 585 2 7 149 332 327 723 292 646 323 718 329 780 10 103
11 104 56 104 l39 0 0 126 0 125 87 127 88 127 3 -1861 2 -1861 206 -96 206
-97 2671 0 2672 0 208 97 207 98 0 695 0 695 148 148 147 147 148 -148 147
-147 0 -695 1 -695 209 -97 209 -98 2672 0 2671 0 209 98 209 97 0 733 0 732
109 113 110 112 50 -50 51 -49 0 -182 c0 -223 33 -712 61 -894 14 -98 40 -200
93 -370 l73 -235 235 -19 236 -20 66 -257 66 -257 1 -343 c1 -189 4 -405 8
-480 l6 -136 133 -122 132 -121 1961 0 1961 0 184 111 184 110 0 740 0 739
173 1 c94 1 237 4 316 8 l144 6 109 159 108 159 0 885 0 885 122 -6 c66 -4
161 -7 210 -7 l88 0 0 -973 0 -972 208 -98 207 -97 2672 0 2671 0 206 97 206
96 2 1796 3 1795 35 -152 34 -153 201 -183 c110 -100 216 -196 235 -213 l35
-31 285 -27 c157 -16 289 -31 293 -35 4 -4 -17 -122 -47 -262 l-55 -255 6
-884 6 -883 218 -441 217 -440 114 -131 c119 -139 584 -571 623 -579 11 -3
161 -20 333 -40 306 -34 321 -35 713 -35 472 0 759 20 1354 96 l360 46 495
124 495 125 564 237 c483 202 607 259 860 391 l296 155 225 183 c125 102 340
293 485 431 223 211 305 298 570 604 246 283 350 395 502 538 l193 181 124 37
124 37 508 463 507 462 229 426 229 426 80 546 81 546 -81 544 -80 544 -228
426 -228 426 -507 462 -507 463 -103 31 c-57 17 -113 34 -125 38 -13 4 -108
87 -213 185 -151 142 -255 253 -504 540 -267 308 -352 398 -566 601 -141 135
-355 324 -486 430 l-233 191 -292 153 c-247 129 -378 189 -853 388 l-561 235
-490 125 -490 125 -345 44 c-190 25 -502 59 -695 76 -340 30 -362 31 -750 26
-378 -5 -417 -8 -704 -42 l-303 -35 -246 -223 c-169 -152 -282 -264 -361 -357
l-116 -134 -216 -436 -216 -436 -6 -884 -6 -885 55 -258 c31 -142 54 -260 53
-262 -2 -2 -125 -15 -274 -29 -148 -15 -282 -30 -297 -34 -14 -4 -122 -95
-239 -202 -117 -107 -219 -200 -227 -206 -8 -6 -31 -80 -52 -165 l-38 -154 -1
1811 -1 1811 -206 96 -206 97 -2671 0 -2672 0 -207 -97 -208 -97 0 -977 0
-977 -92 -6 c-51 -3 -146 -7 -210 -10 l-118 -4 0 892 0 893 -108 159 -109 159
-139 6 c-76 4 -219 7 -316 8 l-178 1 0 739 0 740 -184 110 -184 111 -1961 0
-1960 0 -133 -121z m-7478 -6639 l0 -1175 -148 -148 -147 -147 -148 148 -147
147 0 1175 0 1175 147 147 148 148 147 -147 148 -148 0 -1175z m6452 1413 l48
-47 0 -206 c0 -223 30 -709 55 -885 9 -60 25 -148 37 -195 19 -79 19 -87 5
-135 -46 -144 -97 -734 -97 -1107 l0 -204 -50 -49 -50 -49 -110 109 -110 110
0 1245 0 1245 107 107 c59 60 110 108 112 108 3 0 27 -21 53 -47z"/>
</g>
</svg>
