<?xml version="1.0" standalone="no"?>
<!DOCTYPE svg PUBLIC "-//W3C//DTD SVG 20010904//EN"
 "http://www.w3.org/TR/2001/REC-SVG-20010904/DTD/svg10.dtd">
<svg version="1.0" xmlns="http://www.w3.org/2000/svg"
   viewBox="0 0 4273.000000 2098.000000"
 preserveAspectRatio="xMidYMid meet">
<metadata>
Created by potrace 1.16, written by Peter Selinger 2001-2019
</metadata>
<g transform="translate(0.000000,2098.000000) scale(0.100000,-0.100000)"
fill="#000000" stroke="none">
<path d="M23260 20515 l0 -465 -647 0 -648 0 -131 193 -131 192 -425 3 -424 2
-133 -195 -132 -195 -2577 0 -2578 0 -78 -797 c-43 -439 -82 -835 -88 -880
l-11 -83 -1622 0 -1622 0 -68 195 c-37 108 -71 197 -74 199 -15 10 -61 -8 -66
-25 -4 -10 22 -98 60 -204 l66 -186 -19 -32 c-10 -18 -146 -458 -302 -979
l-284 -948 -4803 0 -4803 0 0 -30 0 -30 -560 0 -560 0 0 -303 0 -303 -205
-108 -205 -108 0 -1701 0 -1702 -93 -36 -92 -36 0 -1463 0 -1463 92 -36 93
-36 0 -1702 0 -1701 205 -108 205 -108 0 -303 0 -303 560 0 560 0 0 -30 0 -30
4803 0 4803 0 284 -947 c156 -522 292 -962 302 -980 l19 -32 -66 -186 c-38
-106 -64 -194 -60 -204 5 -17 51 -35 66 -25 3 2 37 91 74 199 l68 195 1622 0
1622 0 11 -82 c6 -46 45 -442 88 -881 l78 -797 2578 0 2577 0 132 -195 133
-195 424 2 425 3 131 192 131 193 648 0 647 0 0 -465 0 -465 3060 0 3060 0 0
465 0 465 120 0 120 0 0 -44 c0 -55 1 -56 195 -56 194 0 195 1 195 56 0 24 5
44 10 44 6 0 10 -20 10 -44 0 -37 4 -45 23 -50 29 -8 315 -8 345 0 21 6 22 11
22 110 0 86 3 104 15 104 12 0 15 -18 15 -104 0 -99 1 -104 23 -110 12 -3 90
-6 172 -6 208 0 195 -6 195 100 0 52 4 90 10 92 6 2 13 36 17 76 l6 72 -27 0
c-16 0 -26 5 -26 15 0 13 21 15 125 15 118 0 125 1 125 20 0 19 7 20 255 20
l255 0 0 1005 0 1005 -40 0 -40 0 0 475 0 475 415 0 415 0 0 175 0 175 3235 0
3235 0 0 35 0 35 -3235 0 -3235 0 0 611 0 611 28 -6 c26 -6 31 0 145 194 95
164 117 208 117 240 0 29 11 56 40 102 22 35 40 73 40 85 0 20 6 21 113 27 61
3 600 15 1197 26 597 11 1131 23 1188 26 l102 6 0 29 0 29 2010 0 2010 0 0 55
0 55 -2195 0 -2195 0 0 50 0 50 -1300 0 -1300 0 0 85 0 85 2045 0 2044 0 5
1128 c2 620 8 1156 12 1191 l9 64 210 83 210 83 1224 1 1224 0 -6 -40 c-3 -22
-2 -42 3 -45 9 -5 20 29 20 63 0 13 4 20 10 17 6 -3 10 -24 10 -46 0 -22 5
-39 11 -39 7 0 10 17 7 45 l-3 45 667 0 668 0 0 35 0 35 -675 0 c-443 0 -675
3 -675 10 0 6 35 10 85 10 69 0 85 3 85 15 0 12 -16 15 -85 15 l-86 0 6 38 c3
20 8 47 11 60 l4 22 1210 0 1210 0 0 -55 c0 -42 3 -55 15 -55 12 0 15 13 15
55 l0 55 380 0 380 0 0 -55 c0 -42 3 -55 15 -55 12 0 15 13 15 55 0 48 2 55
20 55 30 0 28 47 -2 53 -13 2 5 5 40 6 l62 1 0 60 0 60 -60 0 -60 0 0 85 c0
69 -3 85 -15 85 -12 0 -15 -16 -15 -85 l0 -85 -380 0 -380 0 0 85 c0 69 -3 85
-15 85 -12 0 -15 -16 -15 -85 l0 -85 -2142 0 c-1178 0 -2139 2 -2137 4 2 2
100 49 218 105 l214 101 939 0 938 0 0 25 0 25 -882 1 c-874 1 -883 1 -843 20
37 17 67 18 378 19 l337 0 0 45 0 45 -237 1 -238 1 105 50 c58 27 107 54 110
58 3 5 222 12 488 16 444 6 482 8 482 24 0 16 -38 18 -482 24 -266 4 -485 11
-488 16 -3 4 -52 31 -110 58 l-105 50 238 1 237 1 0 45 0 45 -337 0 c-311 1
-341 2 -378 19 -40 19 -31 19 843 20 l882 1 0 25 0 25 -938 0 -939 0 -214 101
c-118 56 -216 103 -218 105 -2 2 959 4 2137 4 l2142 0 0 -85 c0 -69 3 -85 15
-85 12 0 15 16 15 85 l0 85 380 0 380 0 0 -85 c0 -69 3 -85 15 -85 12 0 15 16
15 85 l0 85 60 0 60 0 0 60 0 60 -62 1 c-35 1 -53 4 -40 6 30 6 32 53 2 53
-18 0 -20 7 -20 55 0 42 -3 55 -15 55 -12 0 -15 -13 -15 -55 l0 -55 -380 0
-380 0 0 55 c0 42 -3 55 -15 55 -12 0 -15 -13 -15 -55 l0 -55 -1210 0 -1210 0
-4 23 c-3 12 -8 39 -11 60 l-6 37 86 0 c69 0 85 3 85 15 0 12 -16 15 -85 15
-50 0 -85 4 -85 10 0 7 232 10 675 10 l675 0 0 35 0 35 -668 0 -667 0 3 45 c3
28 0 45 -7 45 -6 0 -11 -17 -11 -39 0 -22 -4 -43 -10 -46 -6 -3 -10 4 -10 17
0 34 -11 68 -20 63 -5 -3 -6 -23 -3 -45 l6 -40 -1224 0 -1224 1 -210 83 -210
83 -9 64 c-4 35 -10 571 -12 1192 l-5 1127 -2044 0 -2045 0 0 85 0 85 1300 0
1300 0 0 50 0 50 2195 0 2195 0 0 55 0 55 -2010 0 -2010 0 0 29 0 29 -112 6
c-62 3 -597 15 -1188 26 -591 11 -1126 23 -1187 26 -107 6 -113 7 -113 27 0
12 -18 50 -40 85 -29 46 -40 73 -40 102 0 32 -22 76 -117 240 -114 194 -119
200 -145 194 l-28 -6 0 611 0 611 3235 0 3235 0 0 35 0 35 -3235 0 -3235 0 0
175 0 175 -415 0 -415 0 0 475 0 475 40 0 40 0 0 1005 0 1005 -255 0 c-248 0
-255 1 -255 20 0 19 -7 20 -125 20 -104 0 -125 2 -125 15 0 10 10 15 26 15
l27 0 -6 72 c-4 40 -11 74 -17 76 -6 2 -10 40 -10 92 0 106 13 100 -195 100
-82 0 -160 -3 -172 -6 -22 -6 -23 -11 -23 -110 0 -86 -3 -104 -15 -104 -12 0
-15 18 -15 104 0 99 -1 104 -22 110 -13 3 -90 6 -173 6 -194 0 -195 -1 -195
-56 0 -24 -4 -44 -10 -44 -5 0 -10 20 -10 44 0 55 -1 56 -195 56 -194 0 -195
-1 -195 -56 l0 -44 -120 0 -120 0 0 465 0 465 -3060 0 -3060 0 0 -465z m13370
-9145 c10 -7 -21 -10 -97 -10 -69 0 -113 4 -113 10 0 13 190 13 210 0z m2695
0 c4 -7 -402 -10 -1209 -10 -804 0 -1216 3 -1216 10 0 7 410 10 1209 10 796 0
1212 -3 1216 -10z m-2570 -50 c12 -5 -49 -9 -157 -9 -113 -1 -178 3 -178 9 0
12 306 12 335 0z m2564 -37 c-4 -27 -8 -54 -8 -60 -1 -10 -286 -13 -1398 -11
-1048 2 -1175 4 -505 5 l892 3 0 45 0 45 -710 0 c-467 0 -710 3 -710 10 0 7
414 10 1223 10 l1224 0 -8 -47z m31 -65 c0 -5 -4 -8 -10 -8 -5 0 -10 10 -10
23 0 18 2 19 10 7 5 -8 10 -18 10 -22z m-562 -65 c-291 -2 -765 -2 -1055 0
-291 1 -53 2 527 2 580 0 818 -1 528 -2z m565 0 c-7 -2 -19 -2 -25 0 -7 3 -2
5 12 5 14 0 19 -2 13 -5z m1835 0 c-335 -2 -881 -2 -1215 0 -335 1 -61 2 607
2 668 0 942 -1 608 -2z m1205 0 c-106 -2 -280 -2 -385 0 -106 1 -20 2 192 2
212 0 298 -1 193 -2z m-3605 -1330 c-291 -2 -765 -2 -1055 0 -291 1 -53 2 527
2 580 0 818 -1 528 -2z m565 0 c-7 -2 -19 -2 -25 0 -7 3 -2 5 12 5 14 0 19 -2
13 -5z m1835 0 c-335 -2 -881 -2 -1215 0 -335 1 -61 2 607 2 668 0 942 -1 608
-2z m1205 0 c-106 -2 -280 -2 -385 0 -106 1 -20 2 192 2 212 0 298 -1 193 -2z
m-3082 -65 c0 -7 4 -34 8 -60 l8 -48 -1224 0 c-809 0 -1223 3 -1223 10 0 7
243 10 710 10 l710 0 0 45 0 45 -892 3 c-670 1 -543 3 505 5 1112 2 1397 -1
1398 -10z m39 5 c0 -5 -5 -15 -10 -23 -8 -12 -10 -11 -10 8 0 12 5 22 10 22 6
0 10 -3 10 -7z m-2595 -103 c-29 -12 -335 -12 -335 0 0 6 65 10 178 9 108 0
169 -4 157 -9z m-125 -50 c-20 -13 -210 -13 -210 0 0 6 44 10 113 10 76 0 107
-3 97 -10z m2695 0 c-4 -7 -420 -10 -1216 -10 -799 0 -1209 3 -1209 10 0 7
412 10 1216 10 807 0 1213 -3 1209 -10z"/>
</g>
</svg>
