<?xml version="1.0" standalone="no"?>
<!DOCTYPE svg PUBLIC "-//W3C//DTD SVG 20010904//EN"
 "http://www.w3.org/TR/2001/REC-SVG-20010904/DTD/svg10.dtd">
<svg version="1.0" xmlns="http://www.w3.org/2000/svg"
   viewBox="0 0 4618.000000 3204.000000"
 preserveAspectRatio="xMidYMid meet">
<metadata>
Created by potrace 1.16, written by Peter Selinger 2001-2019
</metadata>
<g transform="translate(0.000000,3204.000000) scale(0.100000,-0.100000)"
fill="#000000" stroke="none">
<path d="M13680 31960 l-685 -77 -2655 -706 -2655 -705 -301 -8 -302 -7 -7
-65 c-4 -36 -9 -71 -12 -79 -4 -10 -36 -13 -133 -13 l-128 0 -12 85 -12 85
-1214 0 -1214 0 0 -1165 0 -1165 660 0 660 0 2 -297 c2 -164 1 -483 -1 -710
l-4 -411 264 -86 c145 -47 911 -294 1702 -549 l1437 -464 193 43 c105 24 234
53 285 65 l92 21 0 544 c0 477 2 544 15 544 13 0 15 -59 15 -471 l0 -472 155
-529 154 -529 -451 -1217 -450 -1217 -167 -165 -166 -166 -3079 -619 -3079
-620 -516 -687 -516 -688 -777 0 -778 0 0 -1340 0 -1340 241 0 240 0 50 -42
49 -43 0 -665 0 -665 -49 -43 -50 -42 -240 0 -241 0 0 -1340 0 -1340 779 0
779 0 515 -687 516 -688 1083 -218 c596 -120 1982 -399 3081 -621 l1998 -402
163 -165 163 -164 451 -1217 452 -1217 -155 -528 -155 -528 0 -482 c0 -423 -2
-483 -15 -483 -13 0 -15 67 -15 544 l0 544 -112 26 c-62 14 -191 43 -286 65
l-173 38 -1697 -548 -1697 -547 0 -414 c0 -227 -2 -547 -3 -710 l-2 -298 -660
0 -660 0 0 -1165 0 -1165 1214 0 1214 0 12 85 12 85 128 0 c97 0 129 -3 133
-13 3 -8 8 -43 12 -79 l7 -65 302 -7 301 -7 2670 -709 2670 -708 696 -77 697
-76 3228 331 c1776 182 3234 333 3239 334 6 2 97 315 203 696 160 572 191 695
180 706 -7 7 -680 525 -1495 1151 l-1482 1138 -278 107 -278 106 -349 26
c-192 14 -351 28 -354 30 -2 3 40 87 94 189 l97 184 561 7 c541 7 561 8 575
27 7 11 586 1091 1286 2401 l1272 2382 229 207 228 207 2620 1648 c1440 907
2630 1655 2643 1662 21 11 69 6 348 -37 l325 -51 1339 0 1339 0 5 22 c3 13 18
119 33 235 l28 213 36 0 c19 0 115 5 213 12 l177 11 0 48 c0 57 16 53 -230 69
-90 6 -166 13 -168 15 -2 2 -1 33 3 69 l7 66 214 0 214 0 0 -296 0 -296 46
-77 47 -76 -6 -206 -5 -207 -56 -86 -55 -86 -7 -105 -7 -105 219 1 219 0 890
628 890 627 3 142 3 142 63 0 64 0 70 133 70 132 146 0 146 0 0 -76 0 -77 249
-3 c137 -3 252 -7 255 -10 4 -3 11 -80 17 -170 6 -90 12 -165 14 -167 1 -1
210 10 463 25 445 26 462 26 481 9 20 -18 33 -18 373 3 326 20 354 23 368 41
14 19 46 22 475 47 253 14 463 29 467 32 3 3 2 73 -2 155 -5 83 -8 151 -7 152
2 2 275 64 607 138 333 75 655 147 715 161 61 14 116 25 123 25 8 0 12 -21 12
-74 0 -63 -3 -75 -17 -80 -10 -2 -97 -7 -193 -11 -96 -4 -183 -9 -192 -11 -17
-5 -18 -32 -18 -395 l0 -389 1791 0 1792 0 -5 -69 c-3 -37 -8 -74 -12 -80 -6
-9 -68 -10 -245 -5 -175 5 -242 4 -259 -5 -20 -11 -22 -19 -22 -106 l0 -93 33
-10 c17 -6 104 -16 192 -22 88 -7 173 -15 188 -19 27 -6 25 -8 -40 -43 l-68
-37 -74 -298 c-41 -164 -78 -313 -83 -331 -8 -29 -13 -32 -47 -32 -47 0 -51
-10 -51 -128 0 -77 2 -83 23 -91 12 -4 256 -18 543 -31 l521 -24 164 29 c115
20 169 34 179 46 14 16 41 16 455 -4 264 -12 443 -24 447 -31 4 -6 91 -13 210
-17 112 -4 261 -10 331 -13 l128 -6 -3 27 -3 28 -335 26 c-184 15 -495 34
-690 43 -195 9 -395 19 -443 23 -87 6 -89 6 -99 34 -10 29 -10 29 -101 30
-163 2 -199 -42 398 493 l534 478 78 119 78 119 182 0 181 0 16 47 c8 27 47
148 85 269 l71 221 0 230 0 230 134 5 135 5 173 93 173 93 500 133 c498 132
501 133 716 227 156 69 255 105 355 132 180 47 249 90 384 240 l95 105 13 92
c10 75 11 114 1 201 l-13 108 -100 109 c-139 151 -202 189 -381 236 -100 26
-194 61 -353 131 -217 95 -218 95 -717 228 l-500 133 -174 93 -174 93 -133 4
-134 5 0 230 0 230 -71 221 c-38 122 -77 242 -85 268 l-15 48 -182 2 -182 3
-81 120 -82 120 -530 475 c-593 530 -558 487 -395 489 l91 1 10 29 c10 29 12
29 104 35 51 4 242 13 423 21 306 14 971 60 1023 71 16 3 22 11 22 31 l0 26
-92 -6 c-51 -4 -198 -10 -326 -13 -155 -5 -238 -11 -245 -19 -8 -7 -158 -18
-452 -32 -412 -19 -441 -19 -455 -4 -10 12 -66 26 -180 46 l-164 29 -520 -23
c-287 -12 -531 -27 -543 -32 -21 -8 -23 -15 -23 -91 0 -118 4 -126 52 -130
l41 -3 81 -328 81 -328 69 -37 69 -36 -34 -7 c-19 -4 -104 -12 -189 -19 -85
-6 -170 -16 -187 -22 l-33 -10 0 -93 c0 -87 2 -95 22 -106 16 -9 84 -10 259
-5 180 6 239 4 244 -5 5 -6 10 -43 13 -80 l5 -69 -1792 0 -1791 0 0 -389 0
-389 28 -6 c15 -3 101 -8 192 -11 91 -4 173 -9 183 -11 14 -5 17 -17 17 -80 0
-47 -4 -74 -11 -74 -6 0 -129 27 -272 59 -144 33 -467 105 -717 161 -250 56
-455 102 -457 103 -1 2 2 72 6 157 5 85 8 155 8 156 -1 0 -211 13 -467 27
-435 26 -466 29 -480 47 -14 19 -41 22 -368 41 -339 21 -353 21 -372 4 -19
-18 -37 -17 -481 9 -254 15 -462 26 -464 24 -2 -2 -8 -77 -14 -167 -6 -90 -13
-166 -16 -169 -3 -3 -117 -7 -255 -10 l-250 -5 0 -72 0 -73 -92 -7 c-51 -4
-117 -5 -147 -3 l-53 3 -70 133 -70 132 -64 0 -63 0 -3 142 -3 142 -890 628
-890 627 -219 0 -219 1 7 -105 7 -105 55 -86 56 -86 5 -207 6 -206 -47 -76
-46 -77 0 -296 0 -296 -214 0 -214 0 -7 66 c-4 36 -5 67 -3 70 3 2 74 8 159
14 85 6 173 13 197 16 l42 5 0 48 0 48 -92 6 c-51 4 -146 10 -211 13 -71 4
-120 12 -123 18 -2 6 -15 99 -29 206 -14 107 -28 207 -31 223 l-6 27 -1339 0
-1340 0 -325 -50 c-218 -34 -330 -47 -342 -41 -9 5 -1199 753 -2644 1663
l-2627 1653 -227 206 -227 205 -1278 2394 c-704 1317 -1283 2397 -1287 2401
-4 4 -259 11 -568 15 l-560 7 -93 175 c-51 96 -90 176 -88 178 3 3 159 16 348
30 l344 26 278 106 277 107 1483 1138 c815 626 1488 1144 1495 1151 11 11 -20
134 -180 706 -106 381 -197 694 -203 696 -20 6 -6461 664 -6490 663 -16 -1
-338 -36 -715 -79z"/>
</g>
</svg>
