<?xml version="1.0" standalone="no"?>
<!DOCTYPE svg PUBLIC "-//W3C//DTD SVG 20010904//EN"
 "http://www.w3.org/TR/2001/REC-SVG-20010904/DTD/svg10.dtd">
<svg version="1.0" xmlns="http://www.w3.org/2000/svg"
   viewBox="0 0 4061.000000 884.000000"
 preserveAspectRatio="xMidYMid meet">
<metadata>
Created by potrace 1.16, written by Peter Selinger 2001-2019
</metadata>
<g transform="translate(0.000000,884.000000) scale(0.100000,-0.100000)"
fill="#000000" stroke="none">
<path d="M31640 8830 c-490 -12 -1275 -96 -1725 -184 -352 -69 -450 -100 -640
-200 l-150 -79 -29 -96 c-51 -167 -41 -155 -137 -175 l-84 -19 -114 -173 c-75
-114 -121 -176 -135 -179 -537 -129 -1758 -435 -2096 -525 -376 -100 -507
-140 -755 -230 -285 -102 -344 -120 -1165 -334 -476 -124 -875 -229 -887 -232
-23 -6 -23 -5 -23 100 0 58 -3 106 -7 106 -4 0 -297 70 -651 156 l-643 155
-250 -7 -250 -7 -13 -31 c-7 -17 -23 -62 -36 -101 -13 -38 -31 -76 -39 -82 -8
-7 -34 -13 -56 -13 l-42 0 -9 77 c-9 74 -10 77 -55 115 -37 31 -59 41 -110 49
-153 25 -757 -32 -878 -84 -18 -8 -49 -34 -68 -58 -33 -42 -35 -47 -31 -110
l3 -66 -165 -5 -165 -6 -543 -193 -542 -194 0 -56 0 -57 -172 -6 c-332 -11
-1927 -27 -3753 -36 -1012 -5 -1957 -12 -2100 -15 l-260 -5 -579 122 -580 123
-590 -42 c-325 -23 -1723 -141 -3107 -263 -1384 -121 -2521 -220 -2527 -220
-9 0 -12 -71 -12 -270 0 -251 -1 -270 -17 -270 -10 0 -441 -29 -958 -65 -827
-58 -1152 -86 -2704 -235 -1068 -103 -1769 -174 -1777 -181 -20 -17 -21 -601
0 -618 8 -7 727 -80 1782 -181 1548 -148 1886 -178 2702 -235 513 -36 942 -65
953 -65 18 0 19 -9 19 -270 0 -216 3 -270 13 -270 7 0 1145 -99 2527 -220
1383 -121 2780 -240 3105 -263 l590 -43 580 124 580 123 275 -6 c151 -3 1101
-10 2110 -15 1835 -9 3460 -25 3748 -36 l152 -6 0 -57 0 -56 540 -193 541
-193 167 -6 167 -6 -3 -66 c-4 -65 -3 -68 33 -111 21 -25 52 -51 69 -58 115
-50 697 -106 864 -83 64 8 80 14 120 49 46 38 47 41 56 116 l9 77 50 -3 c57
-3 54 1 100 -128 l34 -95 250 -8 251 -8 643 155 c354 86 647 156 652 156 4 0
7 48 7 106 0 105 0 106 23 100 12 -3 411 -108 887 -232 824 -215 879 -231
1165 -334 364 -132 814 -254 2040 -555 440 -108 807 -198 816 -201 9 -3 68
-83 130 -178 l114 -173 84 -19 c96 -20 86 -8 137 -175 l29 -96 150 -79 c191
-100 290 -131 639 -200 303 -59 646 -103 1218 -154 285 -26 373 -30 680 -30
l353 -1 150 44 c83 25 169 48 192 52 23 3 46 12 52 18 5 7 37 82 71 167 34 85
65 159 69 163 8 8 661 105 846 125 55 6 132 20 170 30 39 11 853 270 1811 576
l1741 557 689 328 689 328 391 245 392 245 148 17 c220 25 201 18 215 87 6 32
17 65 23 73 6 8 154 93 330 189 l319 174 73 184 74 183 0 626 0 626 -74 184
-74 184 -318 174 c-176 95 -323 177 -327 182 -5 4 -15 37 -23 73 -18 77 1 69
-217 93 l-149 16 -391 246 -392 245 -690 329 -689 328 -1770 566 c-974 311
-1800 571 -1836 579 -36 7 -96 16 -135 20 -136 13 -818 114 -826 122 -4 4 -35
78 -69 163 -34 85 -66 160 -71 167 -6 6 -29 15 -52 19 -23 3 -107 26 -187 49
-175 51 -240 55 -680 45z"/>
</g>
</svg>
