<?xml version="1.0" standalone="no"?>
<!DOCTYPE svg PUBLIC "-//W3C//DTD SVG 20010904//EN"
 "http://www.w3.org/TR/2001/REC-SVG-20010904/DTD/svg10.dtd">
<svg version="1.0" xmlns="http://www.w3.org/2000/svg"
   viewBox="0 0 3871.000000 1192.000000"
 preserveAspectRatio="xMidYMid meet">
<metadata>
Created by potrace 1.16, written by Peter Selinger 2001-2019
</metadata>
<g transform="translate(0.000000,1192.000000) scale(0.100000,-0.100000)"
fill="#000000" stroke="none">
<path d="M25361 11896 l-253 -18 -220 -97 c-201 -89 -229 -105 -343 -192
l-125 -94 -40 -125 c-22 -69 -40 -144 -40 -165 0 -65 -9 -83 -46 -95 -43 -15
-285 -276 -379 -409 -63 -89 -66 -95 -104 -249 -25 -98 -42 -195 -46 -258 l-7
-101 -286 -6 c-157 -4 -412 -7 -566 -7 -212 0 -405 -9 -786 -35 -500 -33 -511
-34 -1090 -120 -587 -86 -896 -122 -2100 -245 -327 -33 -764 -78 -970 -100
-424 -44 -1187 -91 -1890 -115 -239 -8 -458 -15 -486 -15 l-51 0 -13 -55 c-7
-31 -17 -58 -21 -61 -5 -2 -48 -9 -96 -15 -140 -16 -133 -13 -133 -63 l0 -43
-2487 -6 -2488 -6 -246 -55 -246 -54 -232 -132 -231 -133 -88 -8 c-104 -9
-335 -23 -842 -49 -437 -23 -836 -47 -935 -55 -98 -9 -492 -63 -540 -75 -22
-5 -283 -30 -580 -55 l-540 -46 -863 -271 -864 -270 -226 -29 c-125 -16 -474
-58 -777 -94 l-550 -65 -47 -47 -48 -47 0 -87 0 -86 -52 -12 c-43 -9 -72 -27
-150 -93 -73 -60 -98 -87 -98 -104 0 -16 -7 -25 -22 -28 -13 -3 -142 -8 -288
-11 -146 -3 -510 -17 -810 -30 -300 -14 -583 -25 -628 -25 -83 0 -84 0 -95
-29 -10 -27 -14 -29 -91 -36 -127 -11 -131 -14 -149 -142 -25 -172 -26 -185
-42 -448 -8 -137 -15 -329 -15 -426 l0 -176 52 -7 c29 -3 70 -6 91 -6 20 0 37
-4 37 -10 0 -5 -17 -10 -37 -10 -21 0 -62 -3 -91 -6 l-52 -7 0 -176 c0 -97 7
-289 15 -426 16 -263 17 -276 42 -448 18 -128 22 -131 151 -142 75 -7 83 -10
88 -31 5 -18 14 -24 47 -28 64 -8 1229 -55 1507 -62 135 -3 255 -7 267 -10 16
-3 23 -12 23 -28 0 -17 25 -44 97 -104 79 -66 108 -84 151 -93 l52 -12 0 -86
0 -87 48 -47 47 -47 550 -65 c303 -36 652 -78 776 -94 l226 -28 864 -271 864
-271 540 -46 c297 -25 558 -50 580 -55 48 -12 442 -66 540 -75 99 -8 498 -32
935 -55 507 -26 738 -40 842 -49 l88 -8 231 -133 232 -132 245 -54 245 -54
2489 -7 2488 -6 0 -43 c0 -48 -1 -48 125 -60 103 -10 109 -14 124 -76 l13 -54
492 -17 c712 -25 1494 -71 1901 -112 481 -49 1702 -176 2150 -225 204 -21 638
-78 965 -125 565 -82 617 -88 1035 -116 412 -28 716 -37 1646 -49 l37 0 7
-102 c4 -65 21 -160 45 -257 37 -148 41 -158 102 -246 87 -126 327 -387 377
-410 42 -18 51 -36 51 -100 0 -21 18 -96 40 -165 l40 -125 124 -93 c111 -83
144 -101 342 -189 l219 -97 255 -21 255 -20 255 21 255 20 215 84 215 84 119
95 118 96 45 105 c25 58 48 127 52 153 l6 49 133 49 134 49 446 0 446 0 83
-32 c76 -30 83 -35 83 -61 0 -15 19 -86 42 -158 l42 -131 131 -98 c121 -91
145 -104 345 -191 l215 -93 255 -21 255 -20 255 21 255 21 215 84 c213 83 215
84 330 175 l115 92 48 113 c26 63 50 138 55 168 l7 53 120 49 120 48 274 1
274 0 172 -55 c95 -30 179 -55 188 -55 8 0 17 -13 21 -32 4 -18 22 -83 41
-145 l35 -112 125 -95 c115 -89 141 -103 342 -193 l218 -97 255 -20 255 -21
260 22 260 21 217 85 216 84 110 91 109 91 49 113 c45 104 49 120 52 209 l4
96 52 22 c44 19 66 40 163 159 189 231 239 308 300 467 52 133 55 148 68 290
8 84 14 272 15 427 0 255 1 277 18 282 9 3 123 33 252 66 129 33 246 65 260
71 14 6 64 36 112 66 l87 55 173 24 c172 24 174 25 438 125 263 101 267 102
524 258 230 139 282 175 475 334 171 140 259 222 419 390 184 192 216 231 346
422 132 193 152 229 241 425 80 180 106 250 156 430 l60 215 25 307 26 308
-26 307 -25 308 -60 215 c-50 179 -76 251 -156 429 -87 196 -107 231 -240 425
-131 192 -163 230 -347 423 -160 168 -248 250 -419 390 -193 159 -245 195
-475 334 -257 156 -261 157 -524 258 -264 100 -267 101 -438 125 l-173 24 -87
55 c-48 30 -98 60 -112 66 -14 6 -131 38 -260 71 -129 33 -243 63 -252 66 -17
5 -18 27 -18 282 -1 152 -7 345 -15 427 -13 142 -16 157 -67 290 -62 158 -111
234 -301 467 -97 119 -119 140 -164 159 l-51 22 -4 96 c-3 89 -6 104 -52 209
l-49 113 -109 91 -110 91 -216 86 -217 85 -260 20 -260 21 -260 -21 -260 -20
-211 -96 c-190 -85 -224 -105 -333 -187 -66 -51 -124 -98 -128 -104 -4 -7 -26
-72 -48 -146 l-41 -133 -185 -59 -184 -59 -275 1 -275 0 -120 48 -119 49 -11
63 c-6 35 -30 111 -55 167 l-45 104 -113 90 c-112 90 -114 91 -335 178 l-222
88 -250 19 c-243 18 -257 18 -504 -1 l-254 -18 -223 -98 c-211 -93 -230 -103
-347 -194 l-123 -95 -42 -131 c-23 -71 -42 -142 -42 -157 0 -26 -7 -31 -83
-60 l-83 -33 -446 0 -446 0 -134 49 -133 49 -6 49 c-3 26 -26 95 -51 153 l-46
105 -118 96 -119 96 -210 83 -210 84 -260 20 c-258 21 -262 21 -514 2z"/>
</g>
</svg>
