<?xml version="1.0" standalone="no"?>
<!DOCTYPE svg PUBLIC "-//W3C//DTD SVG 20010904//EN"
 "http://www.w3.org/TR/2001/REC-SVG-20010904/DTD/svg10.dtd">
<svg version="1.0" xmlns="http://www.w3.org/2000/svg"
   viewBox="0 0 4925.000000 1356.000000"
 preserveAspectRatio="xMidYMid meet">
<metadata>
Created by potrace 1.16, written by Peter Selinger 2001-2019
</metadata>
<g transform="translate(0.000000,1356.000000) scale(0.100000,-0.100000)"
fill="#000000" stroke="none">
<path d="M4149 13523 l-137 -35 -98 -80 c-145 -117 -146 -119 -241 -277 -85
-144 -87 -149 -134 -331 -27 -102 -49 -202 -49 -222 l0 -38 -54 0 -54 0 -26
-70 -26 -71 63 -79 62 -79 303 -3 304 -3 54 -128 c29 -71 55 -135 56 -143 2
-9 -580 -337 -1762 -992 l-1765 -978 -3 -150 -2 -149 -53 -20 c-48 -19 -52
-23 -57 -59 l-5 -38 -260 -82 -260 -82 -3 -557 -2 -557 265 0 265 0 0 -35 0
-35 370 0 370 0 0 -90 0 -90 190 0 190 0 0 -1270 0 -1270 -190 0 -190 0 0 -90
0 -90 -370 0 -370 0 0 -35 0 -35 -265 0 -265 0 2 -557 3 -557 260 -82 260 -81
5 -39 c5 -36 9 -40 57 -59 l53 -20 2 -149 3 -150 1765 -978 c1036 -574 1764
-983 1763 -990 -2 -7 -27 -71 -57 -143 l-54 -130 -303 -3 -304 -3 -62 -79 -63
-79 26 -71 26 -70 54 0 54 0 0 -37 c0 -21 22 -121 49 -223 48 -182 50 -187
135 -330 93 -159 95 -161 240 -278 l100 -80 143 -36 143 -36 270 0 270 0 0
460 0 460 40 0 40 0 0 -460 0 -460 268 0 c224 0 278 3 337 18 67 18 73 18 140
0 59 -15 113 -18 343 -18 l272 0 0 460 0 460 40 0 40 0 0 -460 0 -461 283 3
c198 3 299 8 339 18 51 12 65 12 130 -3 59 -14 123 -17 341 -17 l267 0 0 460
0 460 40 0 40 0 0 -460 0 -460 265 0 264 0 148 36 148 35 122 100 122 99 92
153 92 152 48 189 c27 103 49 204 49 222 l0 34 54 0 c43 0 55 4 59 18 2 9 14
40 25 69 l21 52 -65 80 -65 81 -292 0 -293 0 -167 403 -167 402 0 138 0 137
269 0 268 0 263 95 c144 52 267 95 271 95 5 0 9 -127 9 -282 l0 -283 82 -222
82 -223 1375 0 1376 0 200 -163 200 -162 3 -133 3 -132 334 0 335 0 0 -90 0
-90 325 0 325 0 0 90 0 90 555 0 555 0 0 -235 0 -235 255 0 c243 0 255 1 255
19 0 11 9 21 23 25 29 8 1765 8 1795 0 13 -4 22 -14 22 -25 0 -18 12 -19 260
-19 l260 0 0 235 c0 196 2 235 14 235 8 0 84 -58 170 -130 l155 -130 96 0 95
0 0 -212 c0 -117 3 -223 6 -235 l6 -23 254 0 c242 0 254 1 254 19 0 11 9 21
23 25 29 8 1746 8 1786 0 21 -5 31 -12 31 -25 0 -18 12 -19 255 -19 l255 0 0
235 0 234 97 3 97 3 110 352 110 353 88 0 88 0 0 -185 0 -185 255 0 255 0 0
24 c0 19 6 24 38 30 48 8 1716 8 1765 0 31 -6 37 -11 37 -30 l0 -24 255 0 255
0 0 240 0 240 145 0 145 0 146 135 146 135 169 0 169 0 0 124 0 125 -31 3
c-30 3 -29 4 54 80 l84 76 549 258 c709 332 694 325 694 314 0 -6 -7 -10 -15
-10 -27 0 -20 -122 12 -217 l28 -83 60 0 c111 0 754 39 7040 420 3443 209
6395 387 6560 396 165 9 301 17 302 18 1 0 40 183 86 406 l85 405 -38 828
c-21 456 -39 830 -41 832 -2 2 -142 7 -312 11 l-307 7 -9 36 c-5 20 -14 60
-21 88 l-12 53 -329 0 -329 0 0 155 0 155 305 0 305 0 0 65 0 65 1755 0 1755
0 0 -635 0 -635 40 0 40 0 0 635 0 635 480 0 480 0 0 -635 0 -635 40 0 40 0 0
635 0 635 480 0 480 0 0 -635 0 -635 40 0 40 0 0 635 0 635 480 0 480 0 0
-635 0 -635 40 0 40 0 0 635 0 635 475 0 475 0 0 -635 0 -635 45 0 45 0 0 635
0 635 200 0 200 0 0 70 c0 56 3 70 15 70 12 0 15 -13 15 -55 l0 -55 180 0 180
0 0 55 0 55 130 0 130 0 0 210 0 210 -130 0 -130 0 0 55 0 55 -180 0 c-152 0
-180 -2 -180 -15 0 -9 -6 -12 -15 -9 -8 4 -15 17 -15 30 l0 24 -200 0 -200 0
0 635 0 635 -45 0 -45 0 0 -635 0 -635 -475 0 -475 0 0 415 0 415 380 0 380 0
0 25 c0 24 3 25 55 25 l55 0 0 100 0 100 -55 0 c-54 0 -55 0 -55 30 l0 30
-380 0 -380 0 0 65 0 65 -40 0 -40 0 0 -65 0 -65 -480 0 -480 0 0 65 0 65 -40
0 -40 0 0 -65 0 -65 -480 0 -480 0 0 65 0 65 -40 0 -40 0 0 -65 0 -65 -480 0
-480 0 0 65 0 65 -40 0 -40 0 0 -65 0 -65 -1385 0 -1385 0 0 83 c1 45 11 305
24 577 l24 495 -84 405 c-47 222 -86 405 -87 406 -1 1 -137 9 -302 18 -165 9
-3153 190 -6640 401 -5382 326 -6622 400 -6974 417 l-44 2 -28 -79 c-33 -94
-41 -225 -14 -225 8 0 15 -4 15 -10 0 -10 16 -18 -704 320 l-540 252 -83 77
c-84 75 -84 76 -54 79 l31 3 0 125 0 124 -169 0 -168 0 -147 135 -146 135
-145 0 -145 0 0 240 0 240 -255 0 -255 0 0 -24 c0 -19 -6 -24 -37 -30 -21 -3
-418 -6 -883 -6 -465 0 -862 3 -882 6 -32 6 -38 11 -38 30 l0 24 -255 0 -255
0 0 -185 0 -185 -88 0 -88 0 -110 353 -110 352 -97 3 -97 3 0 234 0 235 -255
0 c-243 0 -255 -1 -255 -19 0 -13 -10 -20 -31 -25 -17 -3 -417 -6 -889 -6
-472 0 -872 3 -889 6 -21 5 -31 12 -31 25 0 18 -12 19 -254 19 l-254 0 -6 -22
c-3 -13 -6 -119 -6 -235 l0 -213 -96 0 -96 0 -155 -130 c-85 -71 -161 -130
-169 -130 -12 0 -14 37 -14 235 l0 235 -260 0 c-248 0 -260 -1 -260 -19 0 -11
-9 -21 -22 -25 -30 -8 -1766 -8 -1795 0 -14 4 -23 14 -23 25 0 18 -12 19 -255
19 l-255 0 0 -235 0 -235 -555 0 -555 0 0 90 0 90 -325 0 -325 0 0 -90 0 -90
-335 0 -334 0 -3 -132 -3 -132 -200 -163 -200 -162 -1376 -1 -1375 0 -82 -223
-82 -222 0 -283 c0 -155 -3 -282 -8 -282 -4 0 -126 43 -271 95 l-263 95 -269
0 -269 0 0 138 0 137 167 403 167 402 293 0 292 0 65 81 65 80 -21 52 c-11 29
-23 60 -25 70 -4 13 -16 17 -59 17 l-54 0 0 34 c0 18 -22 119 -49 222 l-49
189 -89 150 -90 150 -124 102 -123 102 -143 35 -143 36 -270 0 -270 0 0 -460
0 -460 -40 0 -40 0 0 460 0 460 -267 0 c-217 0 -282 -3 -340 -17 -69 -16 -77
-16 -145 0 -59 14 -124 17 -340 17 l-268 0 0 -460 0 -460 -40 0 -40 0 0 460 0
460 -267 0 c-217 0 -282 -3 -340 -17 -69 -16 -77 -16 -145 0 -59 14 -124 17
-340 17 l-268 0 0 -460 0 -460 -40 0 -40 0 0 460 0 460 -277 -1 -278 -1 -136
-35z m1347 -1300 c-4 -10 -28 -69 -53 -131 l-47 -112 -510 2 -510 3 -34 80
c-19 44 -42 101 -53 128 l-19 47 616 0 c583 0 616 -1 610 -17z m1444 12 c0 -3
-23 -62 -51 -130 l-52 -125 -510 2 -510 3 -47 110 c-25 61 -49 118 -53 128 -6
16 27 17 608 17 338 0 615 -2 615 -5z m1435 -16 c-18 -55 -114 -272 -115 -257
0 17 -33 18 -502 20 l-501 3 -47 110 c-25 61 -49 118 -53 128 -6 16 27 17 609
17 l615 0 -6 -21z m35585 -4674 l0 -415 -1755 0 -1755 0 0 65 0 65 -305 0
-305 0 0 155 0 155 329 0 329 0 12 53 c7 28 16 68 21 88 l9 36 309 8 308 7 7
52 c3 28 6 72 6 99 l0 47 1395 0 1395 0 0 -415z m1040 0 l0 -415 -480 0 -480
0 0 415 0 415 480 0 480 0 0 -415z m1040 0 l0 -415 -480 0 -480 0 0 415 0 415
480 0 480 0 0 -415z m1040 0 l0 -415 -480 0 -480 0 0 415 0 415 480 0 480 0 0
-415z m-7480 -130 l0 -155 -785 0 -785 0 0 90 0 90 435 0 435 0 0 25 0 25
-435 0 -435 0 0 40 0 40 785 0 785 0 0 -155z m0 -1270 l0 -155 -785 0 -785 0
0 40 0 40 435 0 435 0 0 25 0 25 -435 0 -435 0 0 90 0 90 785 0 785 0 0 -155z
m-31225 -4804 l6 -21 -615 0 c-582 0 -615 1 -609 18 4 9 28 67 53 127 l47 110
501 3 c469 2 502 3 502 20 1 15 97 -202 115 -257z m-2926 113 c29 -69 50 -128
48 -130 -2 -2 -279 -3 -615 -2 l-610 3 48 118 c27 64 52 122 55 127 4 6 192
10 514 10 l508 0 52 -126z m1440 0 c29 -69 50 -128 48 -130 -2 -2 -279 -3
-615 -2 l-610 3 48 118 c27 64 52 122 55 127 4 6 192 10 514 10 l508 0 52
-126z"/>
</g>
</svg>
