<?xml version="1.0" standalone="no"?>
<!DOCTYPE svg PUBLIC "-//W3C//DTD SVG 20010904//EN"
 "http://www.w3.org/TR/2001/REC-SVG-20010904/DTD/svg10.dtd">
<svg version="1.0" xmlns="http://www.w3.org/2000/svg"
   viewBox="0 0 3548.000000 1582.000000"
 preserveAspectRatio="xMidYMid meet">
<metadata>
Created by potrace 1.16, written by Peter Selinger 2001-2019
</metadata>
<g transform="translate(0.000000,1582.000000) scale(0.100000,-0.100000)"
fill="#000000" stroke="none">
<path d="M23520 15804 c-3538 -31 -6880 -54 -7893 -54 l-1098 0 -90 -35 -91
-35 -698 0 -698 0 -116 -153 -116 -153 -293 -44 -292 -43 -898 -338 -898 -338
-442 -394 -442 -394 -70 -12 c-45 -8 -528 -185 -1350 -494 l-1280 -481 -1275
-863 -1275 -864 -472 -592 c-260 -325 -482 -598 -495 -604 -13 -7 -49 -13 -81
-13 -56 0 -61 -2 -218 -105 l-160 -105 -705 0 -704 0 -255 -186 -255 -185 0
-135 0 -135 137 -182 c75 -100 136 -189 136 -197 -2 -18 -84 -414 -87 -417 -1
-1 -113 -13 -248 -27 l-246 -25 -276 -143 c-152 -78 -276 -145 -276 -148 0 -3
124 -70 276 -148 l276 -143 246 -25 c135 -13 247 -25 248 -27 2 -2 23 -97 47
-213 l43 -209 -138 -184 -138 -184 0 -138 0 -138 255 -185 255 -186 707 0 708
0 155 -104 155 -103 78 -5 c42 -3 79 -7 81 -9 2 -2 217 -272 478 -599 l474
-595 1275 -865 1274 -866 1265 -474 c868 -325 1291 -479 1348 -490 l82 -16
441 -394 c243 -217 455 -401 472 -408 16 -7 421 -159 899 -338 l868 -324 296
-44 c219 -33 299 -48 307 -60 7 -9 57 -76 112 -151 l100 -134 691 -1 690 0
103 -40 102 -40 1457 0 c801 0 2481 -9 3732 -20 1251 -11 2986 -27 3855 -34
l1580 -13 344 73 343 74 493 0 492 0 118 130 c65 71 126 132 134 135 9 2 550
119 1202 259 l1186 255 79 48 c55 33 152 114 307 258 l227 209 0 66 0 65 2419
754 2418 754 176 266 175 266 104 342 105 342 -28 177 c-16 97 -30 178 -32
180 -10 10 -217 44 -265 44 -50 0 -6496 -435 -7671 -517 l-533 -38 -3517 83
c-1934 46 -3535 84 -3558 85 l-42 2 139 166 139 167 54 173 54 174 1050 3
1050 2 272 279 272 280 276 108 276 108 64 133 c35 72 65 132 66 132 1 0 775
14 1720 30 945 16 1723 33 1730 37 7 4 282 174 612 378 l600 371 430 196 431
195 386 -54 386 -55 478 132 c264 72 493 135 509 141 l31 9 48 245 49 245 -49
245 -48 245 -31 9 c-16 6 -245 69 -508 141 l-478 131 -392 -51 -392 -52 -430
198 -430 198 -609 378 -610 378 -125 0 c-69 0 -767 11 -1551 25 -784 14 -1500
25 -1591 25 l-166 0 -63 133 -62 133 -279 109 -280 108 -271 278 -271 279
-1048 0 -1048 0 -46 148 c-25 81 -51 161 -56 179 -6 17 -73 105 -149 195
l-139 163 182 7 c100 3 1702 41 3559 84 l3378 78 502 -32 c277 -18 2110 -143
4075 -277 1965 -135 3594 -245 3621 -245 53 0 252 37 265 49 4 5 21 86 36 182
l28 174 -107 345 -106 345 -164 250 c-89 138 -170 257 -179 266 -11 12 -4242
1341 -4793 1506 l-48 14 0 62 0 62 -227 210 c-133 123 -261 231 -308 262 l-80
51 -1135 242 c-624 133 -1164 248 -1200 257 l-65 15 -120 133 -120 134 -512 0
-513 1 -329 70 c-272 58 -343 70 -412 69 -46 -1 -739 -8 -1539 -15z"/>
</g>
</svg>
