<?xml version="1.0" standalone="no"?>
<!DOCTYPE svg PUBLIC "-//W3C//DTD SVG 20010904//EN"
 "http://www.w3.org/TR/2001/REC-SVG-20010904/DTD/svg10.dtd">
<svg version="1.0" xmlns="http://www.w3.org/2000/svg"
   viewBox="0 0 4639.000000 1336.000000"
 preserveAspectRatio="xMidYMid meet">
<metadata>
Created by potrace 1.16, written by Peter Selinger 2001-2019
</metadata>
<g transform="translate(0.000000,1336.000000) scale(0.100000,-0.100000)"
fill="#000000" stroke="none">
<path d="M14543 13353 c-7 -2 -13 -22 -13 -43 0 -42 11 -50 66 -50 27 0 34 -4
34 -20 0 -13 -7 -20 -18 -20 -13 0 -109 -154 -358 -576 l-339 -576 -60 -28
-60 -27 -292 -501 -293 -500 0 -286 c0 -279 0 -286 20 -286 18 0 20 -7 20 -70
0 -66 -1 -70 -23 -70 -13 0 -68 -33 -125 -75 l-102 -76 0 -74 0 -75 125 0 125
0 0 -85 0 -85 -590 0 -590 0 0 -75 0 -75 -220 0 -220 0 0 125 0 125 -362 310
-361 310 -2305 0 -2305 0 -239 -146 -238 -146 -1807 -484 c-994 -266 -1808
-484 -1810 -484 -2 0 -3 -155 -3 -345 0 -190 -4 -345 -8 -345 -4 0 -13 5 -19
11 -7 7 -47 0 -137 -27 l-126 -37 0 -492 0 -492 127 -57 c87 -39 130 -53 137
-46 5 5 14 10 18 10 4 0 8 -76 8 -170 l0 -170 -942 0 c-784 0 -964 -3 -1077
-15 -75 -9 -146 -18 -158 -21 l-23 -4 0 -1094 0 -1093 83 -13 c62 -10 326 -14
1100 -17 l1017 -4 0 -174 c0 -96 -2 -175 -5 -175 -3 0 -13 5 -23 11 -13 8 -42
-1 -137 -43 l-120 -54 0 -494 0 -494 119 -35 c92 -27 122 -32 136 -23 10 6 21
8 24 5 3 -4 6 -160 6 -347 l0 -341 1808 -483 1807 -484 237 -144 237 -144
2313 0 2313 1 358 306 357 307 0 128 0 128 145 0 145 0 0 -125 0 -125 378 0
379 0 76 -96 77 -97 0 -182 0 -182 -162 -94 -163 -93 -101 -175 -101 -176
-637 -3 -636 -2 0 -205 0 -205 637 -2 637 -3 100 -174 101 -174 179 -103 179
-104 201 0 201 0 80 46 c44 25 94 54 112 65 l32 20 18 -62 c10 -35 24 -64 30
-66 7 -3 4 19 -8 58 -11 35 -18 68 -15 74 2 7 28 26 58 42 35 20 61 44 73 67
17 31 24 36 55 36 32 0 37 -4 49 -35 l12 -35 258 0 258 0 76 -55 75 -55 484 0
484 0 205 60 c146 44 272 90 442 163 l237 102 -2 323 -3 323 -228 99 c-294
128 -628 230 -749 230 l-78 0 0 235 0 235 80 97 80 96 0 494 0 493 -140 0
-140 0 0 75 0 75 15645 0 15645 0 0 250 0 250 -285 0 -285 0 0 35 c0 34 1 35
40 35 33 0 40 3 40 20 0 19 7 20 105 20 l105 0 0 165 0 165 -105 0 c-98 0
-105 1 -105 20 0 17 -7 20 -40 20 l-40 0 0 40 0 40 -895 0 -895 0 0 200 0 200
380 0 c360 0 380 1 380 18 0 13 17 24 68 40 63 20 89 22 323 23 l254 0 85 42
c100 50 112 67 45 67 -41 0 -46 2 -35 15 16 20 3 34 -95 109 l-72 56 -119 0
c-102 0 -123 3 -149 20 -21 14 -47 20 -87 20 -51 0 -58 -2 -58 -20 0 -18 -7
-20 -80 -20 l-80 0 0 100 0 100 -1851 0 -1851 0 -141 -135 -140 -135 -999 0
-999 0 -139 135 -139 135 -1072 0 -1072 0 -142 -135 -143 -135 -2152 0 -2152
0 -141 135 -140 135 -1072 0 -1072 0 -140 -135 -141 -135 -1579 0 -1579 0
-141 135 -141 135 -2560 0 -2561 0 -139 -135 -140 -135 -892 0 -892 0 -134
-127 c-95 -91 -134 -134 -134 -150 l0 -23 -1550 0 -1550 0 0 239 0 240 53 6
c66 7 2454 195 2485 195 l22 0 0 654 0 655 -52 6 c-65 7 -2459 195 -2487 195
-21 0 -21 4 -21 245 l0 245 1550 0 1550 0 0 -24 c0 -17 36 -59 135 -155 l135
-131 893 0 892 0 135 -130 135 -129 2566 -1 2566 0 135 130 136 130 1584 0
1583 0 137 -130 136 -130 1077 0 1077 0 136 130 137 130 2158 0 2158 0 133
-130 133 -130 1078 0 1078 0 137 130 138 130 1002 0 1002 0 136 -130 135 -130
1854 0 1853 0 0 95 0 95 80 0 c73 0 80 -2 80 -20 0 -18 7 -20 58 -20 41 0 64
6 82 20 22 17 41 20 148 20 l123 0 89 72 c50 39 90 77 90 83 0 6 -5 16 -12 23
-9 9 -1 12 37 12 49 0 49 0 30 19 -11 10 -57 35 -101 55 l-82 36 -258 1 c-220
0 -267 3 -309 18 -37 13 -51 23 -53 39 l-3 22 -380 0 -379 0 0 195 0 195 895
0 895 0 0 40 0 40 40 0 c33 0 40 3 40 20 0 19 7 20 105 20 l105 0 0 165 0 165
-105 0 c-98 0 -105 1 -105 20 0 17 -7 20 -40 20 l-40 0 0 40 0 40 285 0 285 0
0 250 0 250 -15645 0 -15645 0 0 75 0 75 155 0 155 0 0 440 0 440 -230 0 -230
0 0 85 0 85 125 0 125 0 0 150 0 150 -115 0 -115 0 0 70 0 70 70 0 71 0 -3
107 -3 108 -63 14 -62 15 2 410 3 410 63 14 62 13 0 795 0 794 -22 0 c-57 0
-68 10 -68 56 0 44 0 44 -35 44 -28 0 -35 4 -35 20 0 17 7 20 40 20 34 0 40 3
40 21 0 22 0 22 174 15 183 -7 226 -3 226 21 0 13 -26 14 -200 8 -200 -8 -200
-8 -200 14 0 21 -2 21 -237 20 -131 0 -244 -3 -250 -6z m377 -113 c0 -19 -7
-20 -130 -20 -123 0 -130 1 -130 20 0 19 7 20 130 20 123 0 130 -1 130 -20z
m-2850 -4225 l0 -65 35 0 35 0 0 -75 0 -75 -255 0 -255 0 0 140 0 140 220 0
220 0 0 -65z m70 -2185 l0 -240 -255 0 -255 0 0 240 0 240 255 0 255 0 0 -240z
m0 -1665 l0 -245 -255 0 -255 0 0 245 0 245 255 0 255 0 0 -245z m0 -2040 l0
-75 -110 0 -110 0 0 -65 0 -65 -145 0 -145 0 0 140 0 140 255 0 255 0 0 -75z"/>
</g>
</svg>
