<?xml version="1.0" standalone="no"?>
<!DOCTYPE svg PUBLIC "-//W3C//DTD SVG 20010904//EN"
 "http://www.w3.org/TR/2001/REC-SVG-20010904/DTD/svg10.dtd">
<svg version="1.0" xmlns="http://www.w3.org/2000/svg"
   viewBox="0 0 4283.000000 2148.000000"
 preserveAspectRatio="xMidYMid meet">
<metadata>
Created by potrace 1.16, written by Peter Selinger 2001-2019
</metadata>
<g transform="translate(0.000000,2148.000000) scale(0.100000,-0.100000)"
fill="#000000" stroke="none">
<path d="M11489 21132 l-357 -347 -1 -275 c-1 -151 -8 -844 -16 -1540 -8 -696
-15 -1394 -15 -1552 l0 -288 -382 0 c-640 0 -1763 -19 -1766 -30 -2 -6 -35
-10 -73 -10 l-69 0 0 -365 0 -365 70 0 c40 0 70 -4 70 -10 0 -5 9 -10 20 -10
20 0 20 -7 20 -509 l0 -508 -80 -498 -80 -498 0 -298 0 -299 -1275 0 -1275 0
0 -135 0 -135 -1075 0 -1075 0 0 -70 0 -70 -665 0 -665 0 0 -250 0 -250 -630
0 -630 0 0 -318 0 -319 -25 -11 c-14 -7 -35 -12 -45 -12 -13 0 -20 -7 -20 -19
0 -12 -74 -76 -225 -192 l-224 -174 -1 -117 0 -118 -500 0 -500 0 0 -800 0
-800 500 0 500 0 0 -107 0 -108 225 -174 c148 -115 225 -181 225 -193 0 -11 7
-18 20 -18 10 0 31 -5 45 -12 l25 -11 0 -329 0 -328 630 0 630 0 0 -240 0
-240 665 0 665 0 0 -70 0 -70 1075 0 1075 0 0 -145 0 -145 1275 0 1275 0 0
-289 0 -289 80 -500 80 -499 0 -506 c0 -500 0 -507 -20 -507 -11 0 -20 -4 -20
-10 0 -6 -30 -10 -70 -10 l-70 0 0 -375 0 -375 70 0 c40 0 70 -4 70 -10 0 -7
365 -10 1075 -10 l1075 0 0 -162 c0 -90 7 -912 16 -1828 l17 -1665 356 -357
356 -358 8182 0 8183 0 402 346 c222 190 409 351 415 358 7 6 91 276 187 599
144 485 178 591 197 606 13 11 620 503 1349 1095 l1325 1076 1830 0 1830 0
115 -115 115 -115 795 0 795 0 115 115 115 115 511 0 512 0 7 682 c8 821 12
1954 6 2058 l-4 75 1419 235 1419 235 583 864 582 864 0 1657 0 1656 -579 860
c-402 596 -587 861 -603 867 -13 4 -648 111 -1413 238 -764 126 -1390 231
-1391 232 -1 1 -7 88 -13 192 -7 121 -11 629 -11 1398 l0 1207 -512 1 -513 1
-114 124 -113 124 -797 -1 -796 0 -114 -125 -113 -124 -1832 1 -1831 0 -1350
1105 -1350 1104 -166 563 c-91 309 -170 574 -175 589 -6 17 -151 145 -422 372
l-413 346 -8182 0 -8182 -1 -356 -347z"/>
</g>
</svg>
