<?xml version="1.0" standalone="no"?>
<!DOCTYPE svg PUBLIC "-//W3C//DTD SVG 20010904//EN"
 "http://www.w3.org/TR/2001/REC-SVG-20010904/DTD/svg10.dtd">
<svg version="1.0" xmlns="http://www.w3.org/2000/svg"
   viewBox="0 0 4451.000000 2488.000000"
 preserveAspectRatio="xMidYMid meet">
<metadata>
Created by potrace 1.16, written by Peter Selinger 2001-2019
</metadata>
<g transform="translate(0.000000,2488.000000) scale(0.100000,-0.100000)"
fill="#000000" stroke="none">
<path d="M33951 24797 l-50 -83 -56 -744 c-30 -410 -107 -1600 -170 -2644 -63
-1045 -119 -1902 -124 -1905 -5 -3 -95 -33 -199 -66 l-191 -60 -35 -64 c-20
-35 -36 -69 -36 -76 0 -7 13 -42 29 -78 26 -57 33 -66 63 -71 18 -4 104 -33
190 -64 l158 -57 -5 -60 c-6 -65 -75 -1199 -75 -1237 0 -14 -25 24 -63 97 -35
66 -101 182 -148 259 l-85 138 -589 255 -590 254 -695 25 -695 25 -1819 -150
c-1000 -82 -1819 -151 -1820 -153 -1 -2 -66 -93 -143 -203 l-141 -201 -40
-179 -40 -180 15 -189 15 -189 84 -196 c74 -173 81 -197 66 -203 -9 -4 -726
-136 -1592 -294 l-1575 -286 -875 -69 c-481 -38 -880 -69 -887 -69 -7 0 -21
42 -34 98 -12 53 -27 106 -34 117 -7 11 -54 67 -105 125 l-92 105 -641 5 -641
5 -21 80 -22 80 -3096 3 -3096 2 -15 -51 c-9 -28 -18 -66 -22 -85 l-6 -34
-2782 -1 -2781 0 -105 -116 -105 -116 -40 -171 -41 -171 -438 -3 c-428 -2
-438 -3 -443 -22 -5 -19 -14 -20 -167 -20 -157 0 -165 -1 -261 -33 l-100 -34
-72 -113 c-65 -103 -74 -124 -102 -236 -31 -122 -31 -127 -31 -379 l0 -255
-2686 0 -2685 0 -112 -26 c-103 -23 -126 -33 -292 -127 -98 -56 -220 -134
-270 -173 -90 -72 -91 -72 -115 -147 -21 -70 -23 -86 -17 -219 6 -129 19 -244
33 -290 4 -14 -20 -30 -114 -77 l-120 -60 -35 -108 c-43 -132 -80 -345 -103
-598 -25 -267 -25 -923 -1 -1185 24 -254 62 -474 104 -603 l35 -108 117 -57
c64 -31 117 -57 118 -57 1 -1 -4 -37 -12 -80 -8 -44 -18 -147 -21 -228 -7
-138 -6 -153 16 -222 23 -73 24 -75 113 -146 51 -41 170 -117 271 -175 166
-93 190 -104 294 -128 l112 -26 2685 0 2685 0 0 -255 c0 -252 0 -257 31 -378
28 -112 37 -133 103 -237 l73 -114 98 -33 c96 -32 104 -33 262 -33 138 0 163
-2 163 -15 0 -13 55 -15 439 -15 410 0 440 -1 445 -17 3 -10 21 -87 41 -172
19 -85 41 -162 47 -172 7 -10 56 -65 108 -123 l95 -104 2781 -1 2782 -1 6 -30
c3 -17 13 -55 22 -85 l15 -55 3096 2 3096 3 22 80 21 80 640 5 640 5 79 90
c43 50 89 102 103 117 17 18 32 58 49 132 19 82 28 106 41 106 10 0 411 -31
892 -69 l875 -69 1570 -286 c864 -158 1578 -290 1587 -294 14 -6 6 -32 -67
-203 l-83 -196 -15 -189 -15 -189 40 -179 40 -179 140 -198 c77 -109 143 -201
149 -204 5 -3 827 -73 1826 -156 l1818 -150 687 25 687 25 592 254 592 255 85
139 c47 76 114 192 149 258 56 108 63 116 63 85 1 -19 18 -314 39 -655 21
-341 36 -623 32 -627 -10 -11 -293 -114 -334 -122 -36 -7 -41 -12 -68 -73 -16
-35 -29 -71 -29 -78 0 -7 16 -41 36 -76 l37 -64 187 -59 c103 -32 193 -62 199
-65 8 -5 48 -620 126 -1907 63 -1044 140 -2234 171 -2644 l55 -744 50 -83 50
-83 1412 0 1412 0 14 23 c8 12 245 440 527 950 l512 928 403 962 403 962 146
545 146 545 51 5 c34 4 60 13 75 27 l23 22 135 -19 135 -18 84 45 c80 44 84
48 112 108 l28 63 -29 65 c-17 39 -37 68 -49 72 -36 11 -40 27 -26 93 8 38 10
77 5 100 -21 101 -21 99 9 111 19 8 37 32 59 77 l33 66 -29 62 c-28 59 -34 66
-111 110 l-82 47 -75 -11 c-42 -6 -77 -10 -80 -8 -2 2 19 431 46 954 28 522
50 966 50 987 l0 39 -1332 -4 -1333 -4 -112 -52 c-62 -29 -115 -52 -118 -52
-3 0 -5 52 -5 115 0 87 3 115 13 115 7 0 355 54 772 120 501 80 1093 182 1735
302 l975 181 560 213 560 213 630 317 630 317 389 266 389 266 329 335 329
335 48 121 c35 89 66 146 118 220 39 54 141 210 226 346 86 136 187 286 226
332 l71 85 38 221 37 220 -38 221 -37 222 -70 82 c-38 46 -143 199 -232 342
-89 142 -192 300 -229 352 -51 70 -78 121 -111 209 l-43 115 -334 339 -334
339 -386 263 -386 263 -626 316 -626 317 -564 214 -564 214 -972 181 c-648
120 -1229 221 -1747 303 l-776 123 0 113 c0 132 -15 126 138 56 l96 -45 1333
-6 1333 -6 0 41 c0 22 -18 382 -40 798 -22 417 -40 775 -40 796 l0 38 115 0
c114 0 115 0 115 24 l0 24 598 7 c328 4 713 5 855 2 l257 -6 0 27 0 27 -560
-4 -560 -3 0 21 c0 21 -1 21 -295 21 l-295 0 0 45 0 45 1145 0 1145 0 0 45 0
45 -1145 0 -1145 0 0 155 0 155 -164 0 -163 0 -17 63 c-10 34 -20 70 -22 80
-5 16 69 17 1455 17 1233 0 1461 2 1461 14 0 7 -15 17 -32 22 -25 7 -8 9 75
12 86 2 107 6 107 17 0 13 -197 15 -1547 17 l-1546 3 -42 155 -41 155 305 6
c168 4 549 8 846 9 297 1 621 5 720 9 108 4 -229 9 -850 14 -566 4 -1031 9
-1032 11 -2 2 -74 266 -159 586 l-156 584 -399 953 c-219 524 -414 983 -433
1020 -19 38 -257 471 -529 963 l-495 895 -1415 3 -1416 2 -50 -83z m1049
-7717 c0 -17 -7 -20 -37 -20 l-38 1 35 19 c19 11 36 19 38 20 1 0 2 -9 2 -20z
m-27756 -1555 c-4 -9 -19 -15 -35 -15 -19 0 -29 5 -29 15 0 10 11 15 35 15 26
0 33 -3 29 -15z m0 -6170 c4 -12 -3 -15 -29 -15 -24 0 -35 5 -35 15 0 10 10
15 29 15 16 0 31 -6 35 -15z m27756 -1555 c0 -20 -1 -20 -32 -4 -46 23 -46 24
-5 24 30 0 37 -4 37 -20z"/>
</g>
</svg>
