<?xml version="1.0" standalone="no"?>
<!DOCTYPE svg PUBLIC "-//W3C//DTD SVG 20010904//EN"
 "http://www.w3.org/TR/2001/REC-SVG-20010904/DTD/svg10.dtd">
<svg version="1.0" xmlns="http://www.w3.org/2000/svg"
   viewBox="0 0 3394.000000 4881.000000"
 preserveAspectRatio="xMidYMid meet">
<metadata>
Created by potrace 1.16, written by Peter Selinger 2001-2019
</metadata>
<g transform="translate(0.000000,4881.000000) scale(0.100000,-0.100000)"
fill="#000000" stroke="none">
<path d="M14440 48788 c-1318 -17 -1377 -19 -2160 -58 l-805 -41 -240 -113
-240 -114 -196 -179 -196 -178 -130 -236 -130 -235 -41 -180 c-36 -156 -42
-200 -48 -344 -5 -159 -4 -172 30 -361 l35 -197 120 -238 119 -239 199 -197
198 -198 238 -124 c131 -69 254 -130 273 -136 35 -12 36 -13 30 -54 -3 -22
-49 -484 -101 -1026 l-96 -985 -62 -55 c-34 -30 -80 -73 -102 -95 -32 -31
-355 -628 -1509 -2790 -808 -1512 -1473 -2755 -1480 -2762 -6 -6 -1323 -757
-2926 -1669 -2930 -1665 -3887 -2216 -3894 -2244 -3 -8 -105 -719 -227 -1580
-122 -861 -223 -1566 -224 -1568 -1 -1 -146 -7 -321 -13 -354 -11 -423 -18
-502 -51 l-54 -23 6 -177 c4 -98 9 -191 12 -207 7 -34 88 -95 139 -105 17 -3
350 -15 740 -26 589 -16 2749 -40 3645 -40 l155 0 24 -132 c13 -73 75 -338
137 -589 90 -362 127 -533 179 -830 l65 -374 92 -269 91 -269 71 -67 70 -67
595 -192 596 -192 608 1 607 0 0 54 c0 29 3 81 6 115 l7 61 683 0 c449 0 684
-3 684 -10 0 -6 132 -10 375 -10 243 0 375 4 375 10 0 6 32 10 75 10 43 0 75
-4 75 -10 0 -6 130 -10 369 -10 236 0 372 4 376 10 4 6 121 10 318 10 l312 0
255 -52 255 -52 38 -40 c22 -23 93 -101 159 -173 l120 -133 -3215 0 -3214 0
-7 -77 c-11 -139 -6 -653 9 -823 13 -149 19 -182 67 -337 l53 -173 183 0 182
0 0 -940 0 -940 -183 0 -182 0 -53 -172 c-48 -156 -54 -189 -67 -338 -15 -170
-20 -684 -9 -823 l7 -77 3212 -2 3213 -3 -92 -100 c-50 -55 -119 -131 -153
-169 l-63 -68 -256 -54 -256 -54 -313 0 c-199 0 -316 4 -320 10 -4 6 -140 10
-376 10 -239 0 -369 -4 -369 -10 0 -6 -32 -10 -75 -10 -43 0 -75 4 -75 10 0 6
-132 10 -375 10 -243 0 -375 -4 -375 -10 0 -7 -235 -10 -684 -10 l-683 0 -7
61 c-3 34 -6 86 -6 115 l0 54 -611 0 -610 0 -591 -190 -591 -191 -66 -60 c-36
-34 -69 -67 -74 -74 -4 -7 -47 -130 -96 -272 l-89 -258 -67 -380 c-53 -305
-88 -466 -175 -815 -60 -239 -121 -500 -136 -580 -14 -80 -29 -148 -33 -151
-3 -4 -710 -12 -1571 -18 -1878 -14 -2937 -39 -3005 -71 -89 -44 -96 -54 -105
-170 -5 -58 -9 -149 -10 -202 l0 -97 31 -17 c84 -43 106 -46 477 -59 200 -8
365 -15 366 -17 2 -2 103 -707 225 -1568 122 -861 224 -1572 227 -1580 8 -27
894 -538 3869 -2229 1617 -920 2945 -1677 2951 -1684 7 -7 674 -1252 1483
-2767 1155 -2164 1479 -2763 1509 -2790 21 -19 65 -60 99 -90 l62 -55 96 -985
c52 -542 98 -1004 101 -1026 6 -41 5 -42 -31 -54 -20 -7 -141 -66 -268 -132
l-232 -121 -203 -201 -204 -201 -119 -239 -120 -238 -35 -197 c-35 -191 -35
-200 -29 -368 6 -153 12 -191 49 -345 l41 -174 125 -229 125 -229 195 -180
195 -181 245 -117 245 -116 800 -41 c784 -40 828 -41 2185 -58 l1385 -17 1955
28 1955 27 1349 682 1348 682 146 125 146 125 640 845 640 845 2838 2239 2839
2239 96 191 97 191 4 763 c2 419 7 762 11 762 3 0 201 13 438 29 l432 30 41
32 40 32 0 199 0 198 922 0 922 0 33 22 c30 21 33 28 33 72 l0 49 -652 -9
c-653 -9 -1164 -8 -1225 2 -33 5 -33 6 -33 59 l0 55 1478 1 c812 1 1504 4
1537 8 l60 6 3 63 3 62 -1171 0 -1170 0 0 60 0 60 133 0 c72 0 196 3 275 7
l142 6 0 39 0 38 -645 0 -645 0 0 75 c0 65 2 75 18 75 74 0 1756 101 1761 105
5 5 51 2925 46 2932 0 1 -170 48 -376 103 l-374 101 -467 -6 -468 -7 0 161 0
161 -27 6 c-16 3 -60 14 -99 24 -66 16 -101 16 -545 4 -261 -7 -498 -13 -526
-14 l-53 0 1 153 c1 83 4 184 8 222 l6 70 180 16 c99 9 192 22 208 29 l27 13
0 553 0 553 -30 23 -30 22 0 1131 0 1132 73 7 c39 3 93 9 120 12 l47 7 0 283
c0 156 -2 284 -6 284 -38 0 -2996 829 -3011 844 -2 2 85 201 195 442 l198 439
379 560 379 559 103 536 c56 294 103 542 103 550 0 8 -64 102 -141 208 l-140
192 -60 0 c-32 0 -59 1 -59 3 0 2 20 100 44 217 25 118 44 216 43 217 -10 9
-203 43 -247 43 l-56 0 21 190 c20 182 20 190 3 190 -16 0 -18 11 -18 120 0
109 2 120 18 120 17 0 17 8 -3 190 l-21 190 52 0 c43 0 241 34 250 43 2 1 -17
99 -42 217 -24 117 -44 215 -44 217 0 2 27 3 60 3 l59 0 129 178 c71 97 135
186 142 198 11 18 -1 95 -91 565 l-104 543 -379 561 -379 560 -199 439 c-109
241 -197 441 -195 443 12 12 1013 296 1950 553 l1067 294 0 282 0 282 -42 6
c-24 3 -78 9 -120 12 l-78 7 0 526 0 526 280 175 280 175 0 36 c0 32 6 41 53
76 43 33 65 63 125 168 l72 127 0 148 0 147 77 7 c42 3 142 6 222 6 80 0 271
3 424 7 l277 6 0 27 0 27 -332 6 c-182 4 -400 7 -484 7 -84 0 -159 3 -168 6
-14 5 -16 28 -16 152 l0 146 -75 132 c-62 110 -84 138 -124 168 -42 30 -50 41
-53 73 -3 37 -4 37 -250 192 l-248 155 0 97 0 97 -42 16 c-24 8 -81 17 -128
21 -47 3 -109 8 -137 11 l-53 6 0 124 0 123 -35 7 -35 6 0 94 0 94 73 -1 c39
0 275 -6 522 -13 l450 -12 103 24 102 24 0 160 0 161 463 -8 462 -7 380 102
c209 56 380 102 381 103 5 9 -43 2927 -48 2932 -5 5 -1658 104 -1750 105 l-28
0 0 75 0 75 645 0 645 0 0 38 0 39 -122 6 c-66 4 -190 7 -275 7 l-153 0 0 60
0 60 1170 0 1170 0 0 64 0 63 -77 7 c-42 3 -735 6 -1540 6 l-1463 0 0 59 0 59
323 7 c177 4 399 4 492 1 94 -3 378 -8 633 -11 l462 -6 0 48 c0 43 -4 50 -33
71 l-33 22 -922 0 -922 0 0 198 0 199 -41 32 -41 33 -421 29 c-232 16 -429 29
-438 29 -15 0 -17 67 -21 763 l-4 762 -97 192 -96 191 -2793 2203 c-1536 1211
-2816 2222 -2844 2245 -34 29 -267 329 -689 886 l-639 843 -138 118 -138 117
-1351 684 -1351 684 -1827 26 c-1004 14 -1896 27 -1981 28 -85 2 -765 -5
-1510 -14z m-1446 -21848 c3 -16 9 -43 12 -60 9 -46 -3 -36 -36 30 l-30 60 24
0 c19 0 26 -6 30 -30z m12 -5020 c-3 -16 -9 -43 -12 -60 -4 -24 -11 -30 -30
-30 l-24 0 30 60 c33 66 45 76 36 30z"/>
</g>
</svg>
