<?xml version="1.0" standalone="no"?>
<!DOCTYPE svg PUBLIC "-//W3C//DTD SVG 20010904//EN"
 "http://www.w3.org/TR/2001/REC-SVG-20010904/DTD/svg10.dtd">
<svg version="1.0" xmlns="http://www.w3.org/2000/svg"
   viewBox="0 0 4732.000000 3042.000000"
 preserveAspectRatio="xMidYMid meet">
<metadata>
Created by potrace 1.16, written by Peter Selinger 2001-2019
</metadata>
<g transform="translate(0.000000,3042.000000) scale(0.100000,-0.100000)"
fill="#000000" stroke="none">
<path d="M25502 30385 c-29 -20 -68 -53 -87 -73 -30 -33 -32 -39 -21 -57 12
-19 8 -26 -60 -87 l-74 -67 -28 16 -28 16 -3044 -2758 c-1673 -1517 -3048
-2758 -3054 -2759 -6 0 -42 8 -79 18 -63 18 -74 25 -137 94 l-69 75 -103 -43
c-57 -24 -110 -42 -118 -41 -8 0 -136 1 -285 1 -239 -1 -298 -4 -509 -31 -657
-82 -1315 -308 -1726 -593 -135 -93 -164 -119 -247 -216 l-94 -110 -2257 0
-2257 0 -1145 -94 c-830 -69 -1157 -99 -1190 -111 -28 -9 -67 -38 -102 -72
l-56 -56 -166 42 c-162 40 -166 41 -201 24 -31 -15 -35 -21 -35 -57 0 -37 7
-47 92 -133 l92 -94 -140 -140 -140 -140 -1624 -209 c-1534 -198 -1742 -223
-3710 -436 l-2085 -225 -407 -257 -408 -257 0 -352 0 -353 2065 0 2065 0 0
-826 0 -826 -22 6 c-13 4 -61 13 -108 22 -47 8 -95 17 -107 19 -20 5 -23 0
-29 -55 l-7 -60 -239 0 -240 0 -147 44 c-80 25 -177 50 -216 56 -38 6 -80 13
-91 16 -19 5 -22 0 -28 -55 l-7 -61 -388 0 -388 0 -26 -77 c-14 -43 -33 -116
-42 -163 -8 -47 -18 -95 -21 -107 l-4 -23 -338 -2 -337 -3 -27 -195 c-15 -107
-27 -196 -28 -197 0 -2 -112 -3 -250 -3 l-249 0 -15 -28 -15 -29 256 -6 c141
-4 258 -9 260 -11 2 -2 -4 -60 -13 -130 l-17 -126 -267 0 -268 0 -160 -142
-161 -143 0 -2535 0 -2535 162 -142 161 -143 267 0 266 0 17 -126 c9 -69 16
-128 14 -129 -2 -2 -119 -7 -260 -11 l-257 -7 15 -28 15 -29 248 0 249 0 5
-23 c3 -12 16 -100 28 -194 l23 -173 337 0 338 0 10 -55 c6 -30 16 -81 22
-112 12 -64 41 -160 59 -192 11 -21 15 -21 395 -21 l384 0 7 -60 c5 -49 10
-60 23 -56 9 2 50 10 91 16 41 7 140 32 220 56 l145 44 241 0 242 0 7 -60 c6
-55 9 -59 28 -55 12 2 60 11 107 20 47 8 95 18 108 21 l22 6 0 -826 0 -826
-2065 0 -2065 0 0 -352 0 -353 408 -256 407 -257 2055 -222 c1942 -209 2146
-233 3709 -435 l1654 -213 140 -140 139 -139 -91 -95 c-83 -87 -91 -99 -91
-135 0 -35 4 -41 36 -56 34 -17 38 -16 200 25 l165 42 57 -57 c35 -35 74 -62
102 -72 32 -12 374 -43 1195 -110 l1150 -95 2251 0 2252 0 93 -108 c81 -94
115 -123 247 -215 411 -287 1067 -512 1736 -596 230 -29 272 -32 528 -31 l277
2 101 -42 101 -41 69 73 c63 68 74 76 143 97 l74 24 3039 -2755 c1672 -1514
3045 -2757 3051 -2761 7 -4 24 0 38 9 25 16 26 16 92 -47 56 -51 68 -69 68
-94 0 -40 37 -84 109 -130 62 -39 71 -38 117 12 55 59 55 61 -22 156 -38 48
-74 87 -79 87 -6 0 -19 -5 -30 -12 -16 -11 -27 -5 -87 49 -57 51 -68 66 -66
90 2 23 -9 42 -55 90 -31 34 -1380 1259 -2997 2724 -1617 1464 -2948 2669
-2958 2678 -17 16 -16 19 22 49 l40 32 138 -10 c124 -8 1655 -60 2243 -75 129
-3 2424 -57 5100 -121 l4865 -114 1440 0 c792 0 1483 3 1536 7 l97 6 4 51 c5
56 -13 103 -62 166 -15 19 -44 67 -65 105 -20 39 -56 98 -79 132 l-41 63 -140
56 c-77 31 -248 94 -380 140 -210 74 -267 99 -469 206 -337 178 -439 251 -629
450 -172 182 -228 246 -337 392 l-75 100 -500 102 c-275 56 -628 131 -785 167
l-285 66 -60 -60 -61 -59 -34 39 -35 38 -1152 129 c-634 71 -1153 131 -1153
134 0 7 -607 -135 6290 1471 3308 770 6355 1477 6770 1570 415 94 1561 350
2545 569 1424 318 2701 613 3025 700 29 8 42 22 82 87 44 73 49 90 89 283 l42
205 4 972 5 972 -21 30 c-20 27 -21 42 -21 251 0 209 1 224 21 251 l21 30 -4
967 -4 967 -44 215 c-42 208 -45 218 -91 289 l-47 74 -649 158 c-356 87 -1476
342 -2488 568 -1012 225 -2132 476 -2490 556 -546 123 -12599 2924 -12915
3002 -58 14 -108 29 -112 32 -4 4 511 65 1145 136 l1152 129 35 38 35 37 60
-59 60 -58 300 69 c165 38 512 112 770 164 259 53 477 98 487 101 9 3 49 48
89 102 113 150 159 204 331 384 195 205 295 277 633 457 206 110 255 131 470
206 132 45 303 108 380 139 l140 57 42 62 c23 34 53 87 68 117 15 30 44 78 65
105 60 81 77 123 72 181 l-4 52 -96 6 c-54 3 -752 6 -1552 7 l-1455 1 -4870
-115 c-2678 -64 -4976 -119 -5105 -122 -533 -14 -2065 -66 -2199 -75 l-143 -9
-39 31 c-38 30 -39 33 -22 49 10 9 1348 1221 2973 2693 1625 1472 2974 2699
2998 2727 32 38 41 56 36 73 -4 19 7 34 67 89 71 64 73 65 97 49 24 -16 26
-15 54 18 93 110 116 146 106 165 -15 28 -80 95 -93 95 -5 0 -34 -16 -63 -35z"/>
</g>
</svg>
