<?xml version="1.0" standalone="no"?>
<!DOCTYPE svg PUBLIC "-//W3C//DTD SVG 20010904//EN"
 "http://www.w3.org/TR/2001/REC-SVG-20010904/DTD/svg10.dtd">
<svg version="1.0" xmlns="http://www.w3.org/2000/svg"
   viewBox="0 0 4716.000000 850.000000"
 preserveAspectRatio="xMidYMid meet">
<metadata>
Created by potrace 1.16, written by Peter Selinger 2001-2019
</metadata>
<g transform="translate(0.000000,850.000000) scale(0.100000,-0.100000)"
fill="#000000" stroke="none">
<path d="M41060 8489 c-223 -13 -449 -44 -476 -66 -86 -68 -343 -314 -411
-394 -77 -90 -91 -116 -232 -404 l-151 -308 0 -626 0 -625 37 -168 c20 -93 34
-170 32 -172 -2 -2 -96 -14 -209 -25 l-204 -21 -41 -38 c-22 -21 -95 -89 -162
-150 l-121 -113 -42 -177 -42 -177 -109 -115 -108 -115 -1 606 0 605 -79 121
-79 120 -163 7 c-90 4 -176 9 -191 12 l-28 6 0 403 0 404 -155 125 -155 126
-1389 0 -1390 0 -120 -136 -121 -137 0 -411 0 -411 -190 -39 c-104 -22 -190
-40 -190 -40 0 -1 -23 -64 -50 -141 -32 -89 -56 -174 -65 -238 -19 -125 -45
-496 -45 -642 l0 -110 -80 -80 -80 -79 -95 99 -95 100 2 716 1 716 -102 152
-102 151 -52 1 c-29 1 -160 4 -292 8 l-240 6 -3 690 -2 690 -171 103 -170 102
-1831 0 -1830 0 -129 -117 -129 -118 0 -438 0 -437 -61 -245 -61 -245 -32 -4
c-17 -3 -116 -12 -220 -21 -104 -8 -190 -16 -191 -18 -1 -1 -32 -99 -68 -218
-45 -145 -73 -258 -87 -345 -29 -191 -60 -695 -60 -970 l0 -240 -60 -59 -60
-59 -71 69 -71 70 7 744 7 743 -103 153 -104 152 -125 7 c-69 3 -196 6 -282 6
-86 0 -163 3 -172 6 -14 6 -16 76 -16 694 l0 687 -169 102 -169 101 -1830 0
-1829 0 -127 -116 -126 -116 0 -429 0 -429 -61 -248 c-34 -136 -66 -251 -71
-257 -4 -5 -103 -17 -220 -27 -116 -10 -213 -20 -215 -22 -17 -17 -137 -432
-153 -531 -31 -179 -60 -630 -60 -930 l0 -260 -86 -85 -86 -85 -103 108 c-56
59 -110 107 -119 107 -14 0 -16 64 -18 712 l-3 711 -262 98 -262 98 -848 7
c-826 6 -852 7 -1018 30 -138 20 -343 33 -1080 69 l-910 43 -1340 -50 -1340
-50 -1243 7 -1243 6 -164 -106 -165 -107 -1 -732 -1 -731 -125 -100 c-68 -55
-130 -104 -137 -109 -10 -7 -46 19 -126 88 -62 54 -121 103 -131 109 -18 11
-19 34 -19 498 l0 486 -140 66 -140 67 -1885 0 -1885 0 -145 -67 -145 -68 0
-1810 0 -1810 154 -73 154 -72 1866 0 1866 0 147 70 148 70 3 487 c2 432 4
488 18 496 9 5 67 54 129 108 63 54 116 99 119 99 4 0 61 -46 128 -101 68 -56
128 -104 135 -106 10 -4 13 -155 13 -738 l0 -732 162 -108 163 -107 1235 7
1235 6 1344 -50 1345 -50 865 39 c756 34 896 43 1101 69 l235 30 835 6 835 5
260 98 260 98 3 712 c2 670 3 712 20 712 9 -1 63 48 119 107 l102 108 85 -85
86 -85 0 -255 c0 -295 29 -747 60 -925 16 -99 136 -514 153 -531 2 -2 99 -12
215 -22 117 -10 216 -22 220 -27 5 -6 37 -121 71 -257 l61 -248 0 -429 0 -430
127 -115 127 -116 1829 0 1829 0 169 101 169 102 2 691 3 691 235 6 c129 4
262 7 295 8 l60 2 104 153 103 154 -7 736 -8 736 71 72 71 73 61 -60 60 -59 0
-235 c0 -270 32 -775 60 -965 14 -87 42 -200 87 -345 36 -119 67 -217 68 -218
1 -2 87 -10 191 -18 104 -9 203 -18 220 -21 l32 -4 61 -245 61 -245 0 -437 0
-438 129 -117 129 -118 1830 0 1829 0 171 102 172 102 0 693 0 693 168 0 c92
0 225 3 295 7 l128 6 101 150 101 150 -2 710 -3 710 99 99 98 98 77 -77 78
-78 0 -110 c0 -146 26 -517 45 -642 9 -64 32 -149 64 -238 28 -76 52 -139 53
-141 2 -1 87 -20 191 -41 l187 -38 0 -412 0 -413 126 -140 125 -140 1378 0
1378 0 161 128 161 127 0 407 1 406 38 6 c20 3 106 8 190 12 l153 6 80 119 79
118 0 613 1 613 108 -115 109 -115 27 -115 c15 -63 34 -144 43 -179 l17 -65
161 -148 162 -148 203 -21 c112 -12 206 -23 208 -25 2 -2 -12 -79 -32 -172
l-37 -168 0 -625 0 -626 151 -308 c141 -289 156 -315 232 -404 70 -82 337
-337 413 -395 41 -30 373 -64 704 -72 308 -7 532 8 1005 67 227 28 283 40 605
121 l355 90 400 169 c253 106 473 207 600 273 188 99 212 114 375 250 265 218
480 431 733 722 129 149 278 309 351 376 111 103 133 118 183 133 32 8 72 21
90 28 18 7 191 157 385 334 l353 322 160 298 160 298 56 383 57 382 -57 383
-56 382 -160 298 -160 298 -352 322 -353 322 -92 31 c-91 29 -96 33 -211 140
-65 60 -222 228 -349 373 -257 295 -506 540 -758 745 -139 114 -175 138 -355
232 -127 67 -345 166 -600 274 l-400 168 -355 90 c-322 81 -378 93 -605 121
-531 66 -857 82 -1235 60z"/>
<path d="M2376 8154 l-559 -14 -194 -157 c-107 -86 -196 -160 -199 -164 -13
-21 -96 -702 -120 -991 -27 -307 -30 -327 -49 -332 -11 -3 -86 -6 -166 -6
l-146 0 -66 -74 -67 -74 0 -435 0 -435 -96 -7 -96 -8 -307 -143 -306 -143 0
-926 0 -927 308 -144 309 -144 94 -6 94 -7 0 -434 0 -435 66 -74 66 -74 138 0
c76 0 151 -3 167 -6 l29 -6 28 -326 c38 -443 109 -980 133 -1003 10 -10 99
-83 198 -163 171 -138 182 -146 225 -147 25 0 281 -6 570 -13 l525 -13 470 28
c259 15 489 30 511 33 23 3 165 58 315 123 246 106 314 142 672 347 l397 228
384 401 384 402 235 520 c188 415 237 532 242 578 6 55 7 57 36 57 l29 0 0 90
0 90 165 238 165 237 0 550 0 550 -165 237 -165 237 0 90 0 91 -29 0 c-29 0
-30 2 -36 58 -5 45 -54 163 -242 577 l-235 520 -387 403 -386 403 -395 226
c-354 203 -423 239 -670 345 -151 65 -291 121 -310 123 -19 3 -224 16 -455 30
-231 14 -449 27 -485 29 -36 2 -317 -2 -624 -10z"/>
</g>
</svg>
