<?xml version="1.0" standalone="no"?>
<!DOCTYPE svg PUBLIC "-//W3C//DTD SVG 20010904//EN"
 "http://www.w3.org/TR/2001/REC-SVG-20010904/DTD/svg10.dtd">
<svg version="1.0" xmlns="http://www.w3.org/2000/svg"
   viewBox="0 0 4809.000000 1842.000000"
 preserveAspectRatio="xMidYMid meet">
<metadata>
Created by potrace 1.16, written by Peter Selinger 2001-2019
</metadata>
<g transform="translate(0.000000,1842.000000) scale(0.100000,-0.100000)"
fill="#000000" stroke="none">
<path d="M42030 18397 c0 -24 -2 -24 -141 -30 -124 -6 -147 -10 -183 -31 -39
-22 -52 -24 -296 -30 l-254 -7 -86 -35 c-63 -27 -98 -49 -137 -87 -29 -28 -51
-53 -49 -55 2 -2 20 1 40 6 20 6 36 7 36 2 0 -4 -18 -64 -40 -133 l-40 -125 0
-684 0 -683 -220 -990 c-121 -544 -220 -991 -220 -992 0 -2 -9 -3 -19 -3 -15
0 -21 -8 -23 -32 l-3 -33 -322 -3 -323 -2 0 -165 0 -165 -78 0 -77 0 -305
-247 c-168 -136 -540 -437 -827 -670 l-522 -423 -1110 0 -1109 0 -785 -336
-785 -336 -58 -82 c-32 -44 -69 -96 -83 -114 l-25 -34 2330 4 2329 3 473 313
473 312 644 0 645 0 0 -675 c0 -371 -3 -675 -7 -675 -5 0 -55 7 -113 15 -58 8
-111 15 -117 15 -9 0 -13 21 -13 70 0 60 -3 70 -17 70 -10 0 -171 18 -358 39
l-340 40 -22 -21 c-23 -21 -23 -26 -23 -261 l0 -240 -107 6 c-58 4 -226 7
-373 7 l-267 0 -89 81 -89 80 -67 -4 -68 -4 0 185 0 186 -27 28 c-19 20 -36
28 -62 28 -32 0 -39 5 -63 48 l-27 47 -318 -3 -318 -4 -250 96 c-234 91 -251
96 -280 84 -44 -19 -2186 -19 -2230 0 -29 12 -45 7 -265 -80 l-235 -92 -334
-6 -335 -5 -26 -45 -26 -44 -1104 -186 c-608 -103 -1110 -188 -1116 -191 -20
-7 -324 -377 -324 -394 0 -12 -15 -15 -85 -15 l-85 0 0 -30 0 -30 -69 0 c-69
0 -69 0 -76 -30 l-7 -30 -393 0 -393 0 -7 30 -7 30 -109 0 -109 0 0 540 c0
297 -1 540 -2 541 -2 0 -46 6 -98 13 l-95 11 -3 131 -3 132 -42 6 c-23 3 -240
26 -482 51 l-440 46 -204 -54 -204 -53 -17 -44 c-10 -24 -23 -46 -30 -48 -11
-4 -200 13 -265 24 l-31 5 26 235 26 235 -136 114 -136 114 -199 7 c-110 3
-205 9 -212 13 -9 4 -1 24 25 64 30 46 42 57 65 57 22 0 27 5 27 24 0 20 6 25
38 29 71 11 102 19 102 28 0 5 86 9 190 9 131 0 190 3 190 11 0 11 80 9 426
-7 115 -5 132 -4 137 10 4 9 4 23 0 32 -5 13 -22 15 -127 10 -326 -16 -436
-18 -436 -7 0 8 -59 11 -187 11 -166 0 -193 3 -232 20 -24 11 -56 20 -72 20
-26 0 -29 4 -29 30 l0 30 -249 0 -248 0 -7 -37 c-3 -21 -6 -55 -6 -75 0 -21
-4 -38 -10 -38 -6 0 -10 27 -10 60 0 47 -3 60 -15 60 -12 0 -15 -13 -15 -61 0
-37 -4 -58 -10 -54 -5 3 -10 31 -10 61 0 41 -4 54 -15 54 -12 0 -15 -13 -15
-55 0 -30 -4 -55 -10 -55 -5 0 -10 25 -10 55 0 42 -3 55 -15 55 -12 0 -15 -13
-15 -55 0 -30 -4 -55 -10 -55 -5 0 -10 25 -10 55 0 30 -4 55 -10 55 -6 0 -10
-52 -10 -135 0 -83 4 -135 10 -135 6 0 10 27 10 60 0 33 4 60 10 60 6 0 10
-27 10 -60 0 -47 3 -60 15 -60 12 0 15 13 15 60 0 33 4 60 10 60 6 0 10 -27
10 -60 0 -47 3 -60 15 -60 12 0 15 13 15 55 0 30 5 55 10 55 6 0 10 -25 10
-55 0 -42 3 -55 15 -55 12 0 15 13 15 58 1 57 1 57 16 29 8 -16 23 -36 33 -46
32 -32 74 -92 68 -97 -3 -3 -439 13 -969 35 -530 23 -966 41 -970 41 -5 0 -8
-9 -8 -20 0 -17 -5 -18 -47 -14 -27 3 -223 20 -438 38 l-390 32 -999 -42 -999
-43 -52 -51 -51 -51 -130 16 c-110 13 -352 15 -1651 15 l-1523 0 0 90 0 90
133 0 c157 0 2135 58 2255 66 l82 6 0 641 0 642 -393 193 -392 193 -243 59
c-134 33 -284 69 -334 81 l-91 21 5 99 5 99 -33 25 c-25 19 -96 41 -292 90
-218 54 -266 63 -308 57 -38 -6 -50 -12 -52 -27 -2 -11 -18 -51 -35 -88 -27
-61 -33 -68 -56 -65 -24 3 -26 7 -29 65 -2 35 1 79 7 98 9 35 8 37 -30 65 -32
23 -89 40 -290 89 -305 74 -352 77 -366 22 -5 -21 -58 -138 -68 -149 -1 -2
-15 0 -30 4 l-27 7 5 76 c3 42 8 86 12 98 13 42 -51 70 -330 139 -207 52 -263
62 -304 57 -46 -5 -51 -8 -57 -37 -3 -17 -21 -58 -38 -92 l-31 -61 -500 123
-500 123 -1460 0 -1460 1 -1180 -496 c-649 -273 -1186 -501 -1192 -506 -7 -6
-53 -67 -103 -136 l-90 -125 0 -661 0 -661 104 -105 c89 -90 107 -113 120
-157 l15 -53 -275 0 -274 0 0 -105 0 -105 -407 0 -406 0 -49 -31 c-45 -29 -48
-33 -48 -75 l0 -44 -295 0 -295 0 0 578 0 577 -245 29 c-144 17 -263 26 -290
23 -43 -6 -46 -5 -86 38 -23 25 -49 45 -58 45 -9 0 -24 12 -34 28 -9 15 -28
39 -41 55 l-25 27 -343 0 -343 -1 -40 -54 -40 -54 -69 -1 c-68 0 -80 -4 -577
-220 l-507 -220 -1226 -235 c-675 -129 -1232 -235 -1237 -235 -5 0 -9 57 -9
130 l0 130 -255 0 -255 0 0 52 c0 29 -14 105 -32 170 l-32 118 -321 0 c-232 0
-584 -12 -1280 -45 -1151 -54 -1105 -51 -1105 -76 0 -18 -14 -19 -495 -19
l-495 0 0 -75 0 -75 140 0 140 0 0 -945 0 -945 40 0 40 0 0 89 0 89 55 4 55 3
0 -92 0 -93 35 0 35 0 0 105 c0 116 -3 111 75 131 l25 6 0 -121 0 -121 35 0
35 0 0 134 0 134 31 11 c18 6 34 11 35 11 2 0 4 -63 4 -140 l0 -140 325 0 325
0 0 -185 0 -185 -380 0 -380 0 0 -115 0 -115 -88 0 -89 0 -101 -112 -101 -113
-1 -272 0 -273 100 -110 100 -110 0 -269 0 -269 -100 -111 -100 -110 0 -271 0
-272 102 -114 102 -114 88 0 88 0 0 -115 0 -115 380 0 380 0 0 -185 0 -185
-325 0 -325 0 0 -139 0 -139 -35 11 -35 10 0 134 0 133 -35 0 -35 0 0 -120 c0
-66 -1 -120 -3 -120 -2 0 -24 7 -50 16 l-47 16 0 104 0 104 -35 0 -35 0 0 -88
0 -88 -55 -1 -55 -1 0 89 0 89 -40 0 -40 0 0 -940 0 -940 -140 0 -140 0 0 -80
0 -80 495 0 c488 0 495 0 495 -20 0 -11 1 -20 3 -20 1 0 466 -23 1032 -50 771
-37 1110 -50 1350 -50 l321 0 32 118 c18 65 32 141 32 170 l0 52 255 0 255 0
0 130 c0 91 3 130 11 130 11 0 920 -173 1993 -380 l470 -90 507 -220 c493
-214 509 -220 576 -221 l68 0 41 -52 40 -52 345 -2 344 -3 40 55 c22 30 47 54
56 55 9 0 35 20 57 44 l40 44 64 -4 c36 -3 159 7 288 23 l225 28 3 578 2 577
295 0 295 0 0 -44 c0 -42 3 -46 48 -75 l49 -31 406 0 407 0 0 -105 0 -105 274
0 275 0 -15 -52 c-13 -45 -31 -68 -120 -158 l-104 -105 0 -660 0 -660 85 -120
c48 -66 94 -127 103 -136 9 -9 548 -240 1197 -513 l1181 -496 1454 0 1455 0
505 124 505 123 31 -61 c17 -34 35 -75 38 -92 7 -29 11 -32 57 -36 74 -7 542
108 599 147 33 23 40 33 35 49 -4 12 -9 55 -12 97 l-5 76 27 7 c15 4 29 6 30
4 10 -11 63 -128 69 -150 5 -23 13 -28 53 -34 70 -10 540 104 598 146 32 22
39 33 35 52 -3 12 -5 57 -5 98 0 73 1 75 26 78 23 3 29 -4 56 -65 17 -37 33
-77 35 -88 2 -15 14 -21 51 -27 40 -5 91 4 302 56 181 45 266 70 293 89 l39
25 -5 100 -5 99 339 83 339 83 388 193 387 194 0 639 0 639 -62 6 c-79 7
-1722 56 -2115 63 l-293 6 0 88 0 89 1520 0 c1331 0 1537 2 1652 16 l130 16
53 -52 52 -51 999 -42 999 -43 380 32 c209 18 406 35 438 38 53 5 57 4 57 -15
0 -20 3 -21 98 -15 224 14 1844 78 1849 72 6 -6 -67 -106 -78 -106 -3 0 -14
-15 -23 -32 l-16 -33 0 58 c0 44 -3 57 -15 57 -12 0 -15 -13 -15 -55 0 -30 -4
-55 -10 -55 -5 0 -10 25 -10 55 0 42 -3 55 -15 55 -11 0 -15 -13 -15 -54 0
-30 -4 -58 -10 -61 -6 -4 -10 17 -10 54 0 48 -3 61 -15 61 -12 0 -15 -13 -15
-60 0 -33 -4 -60 -10 -60 -6 0 -10 27 -10 60 0 33 -4 60 -10 60 -6 0 -10 -52
-10 -135 0 -83 4 -135 10 -135 6 0 10 25 10 55 0 30 5 55 10 55 6 0 10 -25 10
-55 0 -42 3 -55 15 -55 12 0 15 13 15 55 0 30 5 55 10 55 6 0 10 -25 10 -55 0
-42 3 -55 15 -55 12 0 15 13 15 60 0 33 4 60 10 60 6 0 10 -27 10 -60 0 -47 3
-60 15 -60 12 0 15 13 15 60 0 33 4 60 10 60 6 0 10 -17 10 -39 0 -21 3 -53 6
-70 l7 -31 248 0 249 0 0 24 c0 19 6 25 33 29 17 3 50 12 72 21 31 12 82 15
228 16 128 0 187 3 187 11 0 11 110 9 436 -7 105 -5 122 -3 127 10 4 9 4 23 0
32 -5 13 -23 15 -132 10 -381 -17 -431 -18 -431 -7 0 8 -59 11 -190 11 -104 0
-190 4 -190 9 0 9 -31 17 -102 28 -32 4 -38 9 -38 29 0 19 -5 24 -27 24 -23 0
-35 11 -65 57 -26 40 -34 60 -25 64 7 4 102 10 212 14 l199 7 136 114 136 114
-26 234 -26 235 31 5 c65 11 254 28 265 24 7 -2 20 -24 30 -48 l17 -43 208
-54 208 -54 472 51 c259 27 474 50 478 50 4 0 7 60 7 134 l0 133 83 7 c45 4
90 9 100 12 16 5 17 40 17 560 l0 554 110 0 c109 0 110 0 116 25 l6 25 393 0
393 0 6 -25 c6 -24 10 -25 76 -25 l70 0 0 -30 0 -30 85 0 c76 0 85 -2 85 -18
0 -20 315 -402 331 -402 6 0 505 -83 1108 -185 604 -102 1100 -185 1102 -185
3 0 15 -20 29 -45 l25 -45 315 0 315 0 255 -99 c238 -91 257 -97 282 -85 40
21 2196 21 2236 0 25 -12 43 -7 277 85 l250 98 320 -6 320 -6 24 47 c21 40 28
46 55 46 23 0 41 9 64 33 l32 33 0 187 0 187 69 0 69 0 87 79 87 79 242 6
c132 3 301 9 374 12 l132 6 0 -254 c0 -243 1 -256 20 -273 20 -18 30 -17 353
19 182 20 344 39 359 42 26 5 27 8 30 72 l3 67 90 12 c50 6 105 12 123 12 l32
1 0 -685 0 -685 -645 0 -644 0 -476 315 -476 315 -2324 0 -2324 0 80 -113 80
-114 787 -336 788 -337 1107 0 1108 0 827 -670 827 -670 78 0 77 0 0 -165 0
-165 323 -2 322 -3 3 -32 c2 -25 8 -33 23 -33 10 0 19 -1 19 -3 0 -1 99 -448
220 -992 l220 -990 0 -683 0 -684 40 -125 c22 -69 40 -129 40 -133 0 -5 -16
-4 -36 2 -20 5 -38 8 -40 6 -2 -2 20 -27 49 -55 39 -38 74 -60 137 -86 l86
-35 254 -7 c244 -7 257 -8 297 -31 28 -16 57 -24 91 -24 27 0 90 -3 140 -6 88
-7 92 -8 92 -30 l0 -24 338 1 c185 0 356 4 380 7 34 6 57 21 122 80 l80 73 0
140 0 139 -55 0 c-30 0 -55 2 -55 4 0 2 7 23 15 46 8 24 15 77 15 121 l0 79
44 40 44 41 4 197 c4 169 10 228 41 412 28 160 512 2393 543 2503 3 9 14 17
25 17 15 0 19 7 19 35 l0 35 63 0 c35 0 84 7 109 15 l45 16 26 102 c26 99 27
119 46 727 11 344 23 680 26 748 l7 122 -221 0 -221 0 0 105 0 105 -103 0
-102 0 -90 90 -90 90 -72 0 -73 0 0 726 0 725 22 -3 c20 -3 24 -11 30 -62 4
-32 9 -60 10 -62 2 -1 478 33 1058 76 l1055 78 735 161 c472 103 798 179 912
213 l177 54 171 137 170 138 0 329 0 329 48 6 c26 3 58 9 72 12 14 3 87 8 163
10 75 2 137 8 137 12 0 5 88 12 195 16 146 5 195 10 195 20 0 18 -57 25 -227
25 -90 0 -154 4 -158 10 -4 6 -62 10 -141 10 -74 0 -134 4 -134 9 0 5 -34 12
-75 16 l-75 7 0 127 0 128 46 7 c26 3 60 6 75 6 16 0 29 5 29 10 0 6 52 10
135 10 83 0 135 4 135 10 0 6 51 10 134 10 166 0 256 9 256 25 0 13 -150 25
-307 25 -49 0 -83 4 -83 10 0 6 -50 10 -130 10 -71 0 -139 4 -152 9 -13 6 -49
13 -80 16 l-58 6 0 342 0 342 -161 130 c-89 72 -171 135 -183 141 -77 40 -440
131 -1105 274 l-736 159 -1043 77 c-573 42 -1045 75 -1047 72 -3 -3 -9 -32
-13 -64 -6 -51 -10 -59 -30 -62 l-22 -3 0 715 0 716 73 0 72 0 90 90 90 90
102 0 103 0 0 105 0 105 221 0 221 0 -7 123 c-3 67 -14 403 -25 747 -20 610
-21 627 -46 727 l-27 101 -41 16 c-23 9 -72 16 -109 16 l-67 0 0 35 c0 28 -4
35 -19 35 -11 0 -22 8 -25 18 -30 108 -515 2342 -542 2502 -32 185 -38 243
-42 412 l-4 197 -44 41 -44 40 0 84 c0 52 -6 97 -15 119 -8 20 -15 39 -15 42
0 3 25 5 55 5 l55 0 -1 143 -1 142 -86 77 -87 78 -372 0 -373 0 0 -23z m1155
-2807 c140 -633 232 -1066 226 -1068 -6 -2 -13 -19 -17 -38 l-6 -34 -224 0
-224 0 1 1113 c0 611 2 1108 4 1102 2 -5 110 -489 240 -1075z m-2305 -410 l0
-730 -139 0 c-147 0 -151 1 -151 50 0 10 -5 20 -11 22 -8 3 37 226 142 696 84
381 155 692 156 692 2 0 3 -328 3 -730z m-40410 -2361 c0 -115 -2 -130 -16
-125 -9 3 -33 6 -55 6 l-39 0 0 125 0 125 55 0 55 0 0 -131z m170 -28 l0 -159
-50 16 -50 16 0 143 0 143 50 0 50 0 0 -159z m140 -21 c0 -105 -4 -180 -9
-180 -5 0 -21 4 -35 10 l-26 10 0 170 0 170 35 0 35 0 0 -180z m0 -7115 l0
-175 -35 0 -35 0 0 165 c0 162 0 166 23 175 47 19 47 20 47 -165z m-140 -20
l0 -155 -50 0 -50 0 0 138 0 138 48 16 c26 9 48 17 50 17 1 1 2 -69 2 -154z
m-170 -30 l0 -125 -55 0 -55 0 0 119 0 120 48 4 c26 2 50 4 55 5 4 1 7 -54 7
-123z m40409 -2367 c0 -411 -4 -720 -9 -703 -5 17 -75 329 -156 694 -100 454
-143 666 -136 669 7 2 12 12 12 22 0 49 4 50 151 50 l139 0 -1 -732z m2515
698 c4 -19 11 -36 17 -38 6 -2 -88 -441 -230 -1078 l-239 -1075 -1 1113 -1
1112 224 0 224 0 6 -34z"/>
</g>
</svg>
