<?xml version="1.0" standalone="no"?>
<!DOCTYPE svg PUBLIC "-//W3C//DTD SVG 20010904//EN"
 "http://www.w3.org/TR/2001/REC-SVG-20010904/DTD/svg10.dtd">
<svg version="1.0" xmlns="http://www.w3.org/2000/svg"
   viewBox="0 0 4510.000000 1361.000000"
 preserveAspectRatio="xMidYMid meet">
<metadata>
Created by potrace 1.16, written by Peter Selinger 2001-2019
</metadata>
<g transform="translate(0.000000,1361.000000) scale(0.100000,-0.100000)"
fill="#000000" stroke="none">
<path d="M12680 13540 c0 -63 -2 -70 -20 -70 -11 0 -58 -14 -105 -32 l-85 -32
0 -366 0 -365 95 -39 95 -38 -2 -1076 -3 -1075 -245 -69 c-135 -37 -269 -75
-297 -83 l-53 -16 0 -474 0 -475 -630 0 -630 0 0 78 0 78 45 37 45 38 0 1379
c0 1220 -2 1380 -15 1380 -12 0 -15 16 -15 80 l0 80 -100 0 -100 0 0 -40 0
-40 -100 0 -100 0 0 -40 c0 -32 -4 -40 -18 -40 -10 0 -22 -4 -28 -10 -6 -6
-108 -11 -244 -12 l-235 -3 -24 -67 -25 -68 -67 0 -66 0 -28 70 -28 70 -174 0
-173 0 0 -165 0 -165 -50 0 -50 0 0 -413 0 -414 -55 -12 -55 -12 0 -293 0
-293 55 -12 55 -12 0 -703 0 -703 -158 -111 -158 -110 -82 -7 -82 -8 0 42 0
41 -314 0 -313 0 -7 98 c-13 197 -18 232 -32 232 -12 0 -1225 -182 -1301 -195
l-32 -6 -3 -142 -3 -142 -750 -67 c-412 -37 -767 -67 -787 -67 l-37 -1 -3
-127 -3 -127 -2310 -286 -2310 -285 -282 -350 c-155 -193 -283 -352 -283 -356
0 -3 86 -41 190 -85 l190 -79 -2 -163 -3 -164 -185 -78 c-102 -44 -184 -84
-182 -90 1 -6 127 -166 279 -355 255 -318 279 -344 312 -349 44 -7 4570 -566
4582 -566 5 0 9 -56 9 -124 l0 -125 43 -6 c42 -5 1503 -135 1525 -135 9 0 12
-41 12 -143 l0 -143 672 -102 c369 -56 673 -101 674 -99 1 1 8 75 15 165 l12
162 314 0 313 0 0 45 0 46 33 -5 c17 -3 57 -8 87 -12 50 -5 70 -17 205 -113
l150 -106 3 -703 c2 -557 0 -703 -10 -707 -7 -2 -32 -9 -55 -15 l-43 -11 0
-294 c0 -274 1 -295 18 -295 9 0 34 -5 55 -11 l37 -10 0 -414 0 -415 50 0 50
0 0 -160 0 -160 174 0 174 0 27 65 28 65 68 0 67 0 24 -65 23 -65 231 0 c194
0 234 -2 244 -15 7 -8 21 -15 31 -15 15 0 19 -7 19 -35 l0 -35 100 0 100 0 0
-40 0 -40 100 0 100 0 0 75 c0 60 3 75 15 75 13 0 15 160 15 1384 l0 1384 -45
33 -44 34 -1 78 0 77 630 0 630 0 0 -473 0 -473 300 -84 300 -84 0 -1075 0
-1076 -95 -39 -95 -38 0 -364 0 -364 38 -16 c20 -8 67 -25 104 -37 l68 -22 0
-62 0 -63 85 0 85 0 0 35 0 35 75 0 75 0 0 30 c0 28 3 30 35 30 32 0 35 -2 35
-30 l0 -30 375 0 375 0 0 30 0 30 85 0 85 0 0 36 0 36 68 -6 c37 -4 120 -9
185 -12 l117 -6 0 -29 0 -29 150 0 150 0 0 40 0 40 45 0 45 0 0 365 0 365 65
0 65 0 0 310 0 310 -35 17 -35 17 0 438 0 438 -30 0 -30 0 0 255 0 255 -25 0
c-25 0 -25 1 -25 80 l0 80 780 0 780 0 0 140 0 140 1188 -1 c653 0 1181 -3
1175 -6 -9 -3 -13 -31 -13 -89 l0 -84 -185 0 -185 0 0 -640 0 -640 185 0 185
0 0 -85 0 -85 -40 0 -40 0 0 -115 c0 -96 -3 -115 -15 -115 -12 0 -15 -19 -15
-113 0 -130 9 -147 73 -147 l37 0 0 -45 0 -45 1388 0 1387 0 100 -70 100 -70
1220 0 1220 0 90 -65 90 -64 2080 -1 2080 0 169 135 169 135 425 0 425 0 332
-200 333 -200 731 0 731 0 0 165 0 165 -200 0 -200 0 0 190 0 190 200 0 200 0
0 154 0 153 41 52 41 51 531 0 c293 0 630 3 750 7 l217 6 0 74 0 73 549 0 549
0 117 -135 117 -135 1224 0 1224 0 1 93 0 92 63 -160 64 -160 81 -3 81 -3 0
-164 0 -165 515 0 515 0 0 88 c0 49 3 123 6 165 l7 77 828 0 829 0 0 -75 c0
-41 3 -75 8 -75 4 0 120 -11 257 -25 242 -24 275 -25 1003 -25 l752 0 0 -40
c0 -36 -2 -40 -25 -40 l-25 0 0 -145 c0 -90 -4 -145 -10 -145 -5 0 -10 -25
-10 -55 l0 -55 35 0 c28 0 35 -4 35 -20 0 -19 7 -20 130 -20 l130 0 0 -25 0
-25 585 0 c491 0 585 2 585 14 0 15 50 20 328 32 78 4 142 10 142 14 0 8 -230
20 -377 20 -76 0 -93 3 -93 15 0 13 -32 15 -230 15 l-230 0 0 136 c0 131 1
137 25 166 23 27 25 38 25 124 l0 94 725 0 725 0 0 25 c0 18 6 26 23 29 12 3
142 10 290 17 249 11 267 13 267 30 0 15 -7 19 -32 19 -63 0 -483 21 -515 26
-27 4 -33 9 -33 29 l0 25 -725 0 -725 0 0 213 0 213 -52 97 c-29 53 -58 97
-65 97 -9 0 -13 15 -13 45 l0 45 -40 0 -40 0 0 65 c0 58 2 65 20 65 11 0 20 7
20 15 0 8 5 15 10 15 6 0 10 47 10 120 0 73 -4 120 -10 120 -6 0 -10 52 -10
135 0 128 -1 135 -20 135 -16 0 -20 7 -20 35 0 34 1 35 40 35 l40 0 0 440 0
440 -40 0 c-29 0 -40 4 -40 15 0 10 10 15 30 15 l30 0 0 95 c0 78 3 95 15 95
12 0 15 18 15 105 l0 105 -45 0 -45 0 0 70 c0 68 1 70 25 70 l25 0 0 140 0
140 55 0 c40 0 55 4 55 14 0 11 41 15 208 20 114 4 221 10 237 13 l30 6 -25 8
c-14 4 -70 7 -125 8 -196 2 -325 13 -325 28 0 9 -16 13 -55 13 l-55 0 0 225 0
225 -25 0 c-24 0 -25 2 -25 65 0 58 2 65 20 65 17 0 20 7 20 44 0 35 -4 45
-20 49 -21 5 -26 36 -14 96 6 27 10 31 40 31 l34 0 0 135 0 135 -25 0 c-23 0
-25 3 -25 48 1 54 17 82 49 82 26 0 51 22 51 44 0 14 33 16 295 16 256 0 295
2 295 15 0 12 15 15 78 15 140 0 382 13 382 20 0 4 -57 10 -127 14 -306 15
-333 18 -333 32 0 12 -52 14 -305 14 l-305 0 0 35 0 35 -1110 0 -1110 0 0
-110 0 -110 -747 0 c-412 0 -1231 -3 -1820 -7 l-1073 -6 0 571 0 572 1093 0
c600 0 1419 -3 1820 -7 l727 -6 0 -109 0 -108 1110 0 1110 0 0 35 0 35 305 0
c258 0 305 2 305 14 0 22 18 24 248 32 116 3 212 10 212 14 0 9 -114 20 -221
20 -141 0 -239 11 -239 26 0 12 -54 14 -295 14 -262 0 -295 2 -295 16 0 23
-25 44 -54 44 -32 0 -46 26 -46 84 0 42 2 46 25 46 l25 0 0 135 0 135 -34 0
c-37 0 -46 15 -46 81 0 28 5 38 20 42 16 4 20 14 20 45 0 32 -4 42 -20 47 -17
5 -20 15 -20 66 0 56 1 59 25 59 l25 0 0 225 0 225 55 0 c40 0 55 4 55 14 0
20 32 26 136 26 137 0 334 12 334 20 0 4 -71 10 -157 14 -256 10 -313 16 -313
32 0 10 -15 14 -55 14 l-55 0 0 135 0 135 -25 0 c-24 0 -25 2 -25 70 l0 70 45
0 45 0 0 110 c0 91 -3 110 -15 110 -12 0 -15 17 -15 90 l0 90 -30 0 c-20 0
-30 5 -30 15 0 11 11 15 40 15 l40 0 0 445 0 445 -40 0 c-38 0 -40 2 -40 30 0
23 4 30 20 30 19 0 20 7 20 140 0 87 4 140 10 140 6 0 10 47 10 120 0 73 -4
120 -10 120 -5 0 -10 7 -10 15 0 8 -9 15 -20 15 -18 0 -20 7 -20 65 l0 65 40
0 c40 0 40 0 40 39 0 24 5 41 14 44 8 3 37 48 65 99 l51 93 0 213 0 212 725 0
725 0 0 30 c0 24 4 30 23 30 51 0 475 21 515 26 27 3 42 10 42 20 0 8 -6 14
-12 14 -7 0 -130 7 -273 15 -143 8 -268 15 -277 15 -12 0 -18 8 -18 25 l0 25
-725 0 -725 0 0 96 c0 86 -2 98 -25 128 -24 31 -25 40 -25 164 l0 132 230 0
c186 0 230 3 230 13 0 15 143 26 339 28 117 1 162 13 81 22 -30 4 -137 9 -237
13 -145 5 -183 9 -183 20 0 12 -96 14 -585 14 -578 0 -585 0 -585 -20 0 -19
-7 -20 -130 -20 -123 0 -130 -1 -130 -20 0 -16 -7 -20 -35 -20 l-35 0 0 -60
c0 -33 4 -60 10 -60 6 0 10 -55 10 -145 l0 -145 25 0 c22 0 25 -4 25 -35 l0
-35 -717 0 c-693 0 -727 -1 -988 -25 -148 -14 -280 -28 -292 -31 -21 -4 -23
-10 -23 -79 l0 -75 -829 0 -828 0 -7 77 c-3 42 -6 118 -6 170 l0 93 -515 0
-515 0 0 -170 0 -169 -82 -3 -82 -3 -63 -160 -62 -160 -1 93 0 92 -1227 0
-1228 -1 -115 -134 -114 -135 -548 0 -548 0 0 73 0 74 -217 6 c-120 4 -457 7
-749 7 l-532 0 -41 55 -41 54 0 151 0 150 -200 0 -200 0 0 190 0 190 200 0
200 0 0 165 0 165 -734 0 -735 0 -324 -195 -325 -195 -434 0 -433 0 -162 130
-163 130 -2083 0 -2084 0 -92 -65 -92 -65 -1220 0 -1219 0 -94 -65 -94 -65
-1391 0 -1391 0 0 -45 0 -45 -38 0 c-64 0 -72 -18 -72 -153 0 -97 3 -117 15
-117 12 0 15 -19 15 -115 l0 -115 40 0 40 0 0 -80 0 -80 -185 0 -185 0 0 -640
0 -640 184 0 185 0 3 -90 3 -90 -1177 0 -1178 0 0 135 0 135 -780 0 -780 0 0
80 c0 79 0 80 25 80 l25 0 0 255 0 255 30 0 30 0 0 440 0 440 35 17 35 17 0
308 0 308 -65 0 -65 0 0 365 0 365 -45 0 -45 0 0 45 0 45 -150 0 -150 0 0 -34
0 -34 -127 -6 c-71 -3 -154 -8 -185 -12 l-58 -6 0 36 0 36 -85 0 -85 0 0 30 0
30 -375 0 -375 0 0 -30 c0 -28 -3 -30 -35 -30 -33 0 -35 2 -35 35 l0 35 -75 0
-75 0 0 35 0 35 -85 0 -85 0 0 -70z m29368 -1941 c-3 -40 -4 -41 -95 -90 l-93
-50 0 75 0 76 -350 0 c-304 0 -350 2 -350 15 0 13 56 15 446 15 l445 0 -3 -41z
m-272 -4111 l114 -93 -58 -3 c-51 -2 -83 7 -302 89 -135 50 -247 93 -249 95
-2 2 82 4 188 4 l192 0 115 -92z m9 -1363 l-117 -95 -191 1 -192 0 250 94
c208 78 260 94 309 94 l58 1 -117 -95z m179 -4035 l86 -45 0 -42 0 -43 -445 0
c-438 0 -445 0 -445 20 0 20 7 20 350 20 l350 0 0 71 c0 39 4 69 9 67 5 -1 48
-23 95 -48z"/>
</g>
</svg>
