<?xml version="1.0" standalone="no"?>
<!DOCTYPE svg PUBLIC "-//W3C//DTD SVG 20010904//EN"
 "http://www.w3.org/TR/2001/REC-SVG-20010904/DTD/svg10.dtd">
<svg version="1.0" xmlns="http://www.w3.org/2000/svg"
   viewBox="0 0 3926.000000 1938.000000"
 preserveAspectRatio="xMidYMid meet">
<metadata>
Created by potrace 1.16, written by Peter Selinger 2001-2019
</metadata>
<g transform="translate(0.000000,1938.000000) scale(0.100000,-0.100000)"
fill="#000000" stroke="none">
<path d="M19802 19357 c-57 -16 -73 -24 -77 -41 -8 -41 -115 -1122 -115 -1163
0 -43 0 -43 38 -43 20 0 44 -5 52 -10 13 -8 12 -10 -2 -10 -16 0 -18 -10 -18
-75 l0 -75 -520 0 -520 0 0 -90 0 -90 555 0 555 0 0 -130 0 -130 -59 0 c-59 0
-61 -1 -187 -90 l-127 -90 -1214 0 -1213 0 0 38 c-1 34 -6 41 -65 85 l-64 47
-2816 0 -2815 0 0 -115 0 -115 -1891 0 -1891 0 -66 -56 -67 -55 -225 6 c-416
12 -613 11 -642 -2 l-28 -13 0 -205 0 -205 -152 2 c-104 2 -162 -1 -180 -9
l-28 -13 0 -285 c0 -259 2 -285 17 -285 79 0 -182 -39 -1416 -210 l-1419 -197
-91 -95 -90 -94 -141 -13 c-79 -8 -146 -9 -150 -5 -5 5 -24 45 -43 89 -30 72
-37 80 -63 83 -60 5 -2000 -117 -2032 -128 l-32 -12 0 -209 0 -209 -257 0
c-142 0 -268 -3 -281 -6 l-22 -6 0 -1344 0 -1344 275 0 276 0 81 -60 82 -60
933 0 933 0 72 89 73 90 90 0 c50 1 134 4 188 8 l97 6 0 -174 0 -174 130 -130
130 -130 0 -100 c0 -55 -3 -123 -6 -151 l-6 -51 -174 -149 -173 -149 0 -1615
0 -1615 173 -149 174 -149 6 -51 c3 -28 6 -96 6 -151 l0 -100 -130 -130 -130
-130 0 -174 0 -174 -97 6 c-54 4 -138 7 -188 8 l-90 0 -73 90 -72 89 -933 0
-933 0 -82 -60 -82 -60 -275 0 -275 0 0 -1344 0 -1344 23 -6 c12 -3 138 -6
280 -6 l257 0 0 -209 0 -209 33 -12 c31 -11 1970 -133 2031 -128 26 3 33 11
63 83 19 44 38 84 43 89 4 4 71 3 150 -5 l141 -13 90 -94 91 -94 1419 -198
c1231 -171 1497 -210 1416 -210 -15 0 -17 -26 -17 -284 l0 -284 42 -17 c37
-14 63 -16 180 -10 l138 7 0 -206 0 -206 27 -13 c30 -13 196 -14 628 -2 l240
6 67 -55 66 -56 1891 0 1891 0 0 -115 0 -115 2815 0 2816 0 64 48 c59 43 64
50 65 85 l0 37 1213 0 1214 0 127 -90 c126 -89 128 -90 187 -90 l59 0 0 -130
0 -130 -555 0 -555 0 0 -90 0 -90 520 0 520 0 0 -75 c0 -65 2 -75 18 -75 14 0
15 -2 2 -10 -8 -5 -32 -10 -52 -10 -38 0 -38 0 -38 -42 0 -42 107 -1123 115
-1164 4 -17 21 -25 87 -43 47 -12 113 -21 151 -21 76 0 237 37 237 54 0 6 27
272 60 591 33 319 60 589 60 601 0 19 -8 22 -72 29 -40 5 -65 10 -55 12 14 4
17 16 17 79 l0 74 295 0 295 0 0 -75 c0 -53 4 -75 13 -76 27 -1 -30 -18 -65
-18 -25 -1 -38 -6 -38 -14 0 -8 27 -275 60 -595 33 -320 60 -590 60 -600 0
-14 18 -23 84 -40 107 -28 198 -28 306 -1 l85 22 58 566 c32 311 58 587 57
612 l0 47 -67 8 c-38 4 -58 10 -45 12 20 3 22 8 22 78 l0 74 280 0 280 0 0
-75 c0 -53 4 -75 13 -75 8 0 7 -4 -3 -10 -8 -5 -32 -10 -52 -10 -36 0 -38 -2
-38 -32 0 -37 118 -1190 122 -1194 2 -1 40 -12 85 -23 103 -27 192 -27 298 0
l84 21 6 42 c12 92 115 1113 115 1147 l0 36 -72 9 c-42 4 -61 9 -45 12 27 3
27 4 27 78 l0 74 293 0 293 0 22 -45 22 -45 250 0 c216 0 250 -2 250 -15 0
-13 33 -15 234 -15 l234 0 7 60 7 60 99 0 c59 0 99 -4 99 -10 0 -7 338 -10
995 -10 l995 0 0 35 0 35 335 0 335 0 0 39 0 39 -907 5 c-755 5 -939 9 -1093
24 -121 11 -301 18 -521 20 l-337 4 -7 54 -6 55 -235 0 c-201 0 -234 -2 -234
-15 0 -13 -34 -15 -250 -15 l-250 0 -20 -40 -20 -40 -435 0 -435 0 0 130 0
130 61 0 c55 0 69 5 125 40 l64 40 575 0 576 0 109 86 109 86 3 122 3 123 619
497 619 496 109 0 c94 0 113 3 136 20 23 17 49 22 152 27 l125 6 203 164 204
163 138 0 138 0 387 310 387 310 144 0 144 0 0 -35 c0 -20 6 -38 13 -40 9 -4
11 -53 9 -209 l-3 -204 103 -96 c56 -53 108 -96 115 -96 14 0 15 -5 48 -235
13 -93 41 -231 61 -306 l38 -137 47 -31 48 -31 776 0 c738 0 778 1 813 19 20
10 69 22 107 26 39 4 73 12 77 19 5 7 73 13 205 17 109 4 199 7 201 8 1 0 2
12 2 26 0 25 -1 25 -90 25 -88 0 -90 0 -90 24 0 34 -37 44 -181 52 -103 6
-119 9 -114 23 16 54 37 166 55 301 26 192 27 198 44 202 8 2 60 45 116 97
l101 93 -3 204 c-2 156 0 205 10 209 6 2 12 20 12 40 0 34 1 35 38 35 20 0 51
9 67 20 29 19 48 20 536 20 491 0 507 -1 532 -20 16 -13 40 -20 66 -20 l41 0
0 -40 c0 -31 4 -40 17 -40 13 0 14 -3 5 -12 -9 -9 -12 -66 -11 -203 l1 -190
105 -97 c57 -54 111 -98 119 -98 7 0 14 -3 14 -7 2 -64 68 -434 96 -537 l37
-136 47 -30 47 -30 777 0 c738 0 779 1 814 19 20 10 68 21 107 25 38 4 73 12
77 19 5 8 68 14 205 18 109 4 199 7 201 8 1 0 2 12 2 26 0 25 -1 25 -90 25
-88 0 -90 0 -90 24 0 34 -37 44 -181 52 -65 4 -119 10 -119 13 0 3 7 27 15 53
7 26 26 130 40 230 31 224 32 226 49 230 8 2 60 45 116 97 l101 93 -3 204 c-2
158 0 204 10 204 7 0 12 15 12 40 l0 40 73 0 c39 -1 99 -7 132 -15 91 -22 965
-22 965 0 0 13 108 15 910 15 600 0 910 3 910 10 0 6 112 10 315 10 l315 0 0
24 c0 28 28 36 134 36 39 0 101 3 139 7 65 6 67 7 67 34 0 34 -6 35 -200 44
-74 3 -135 7 -137 9 -1 1 0 18 3 38 6 33 9 36 52 42 24 3 81 6 126 6 45 0 98
3 119 6 32 6 37 10 37 34 0 25 -4 28 -46 34 -26 3 -77 6 -113 6 -36 0 -90 3
-119 6 -44 6 -53 11 -58 30 -5 18 -13 24 -35 24 l-30 0 16 31 c9 16 23 33 31
36 12 4 14 77 14 494 0 296 4 489 9 489 5 0 116 99 246 220 l237 220 229 0
229 0 0 95 0 95 28 0 c15 0 37 3 50 6 19 6 22 3 22 -25 0 -27 3 -31 23 -27 12
3 169 20 350 38 245 24 327 35 327 45 0 9 15 13 48 13 26 0 91 3 145 7 l97 6
0 32 0 33 -142 7 c-79 4 -146 11 -149 16 -4 7 -625 78 -686 79 -7 0 -13 -12
-13 -26 0 -22 -3 -25 -22 -20 -13 3 -35 6 -50 6 l-28 0 0 95 0 95 -678 0 -677
0 -190 63 -190 63 -48 147 -48 147 -320 0 -319 0 -190 -95 -190 -95 -935 0
-935 0 0 419 0 420 -36 60 -36 61 -164 0 -163 0 -8 -42 -9 -43 -689 0 -689 0
-9 43 -8 42 -169 0 -169 0 -36 -61 c-32 -55 -35 -67 -35 -140 l0 -79 -770 0
-770 0 0 143 1 142 134 114 135 115 0 312 0 312 28 6 c15 3 87 13 160 22 l132
17 0 213 0 214 -42 1 c-24 1 88 12 247 25 199 17 302 21 328 15 26 -6 118 -2
300 15 144 13 270 24 280 24 13 0 17 9 17 44 l0 44 63 6 c34 3 172 13 307 21
379 24 434 31 513 67 l67 32 0 46 0 46 -67 32 c-80 37 -139 44 -508 67 -137 8
-278 18 -312 21 l-63 6 0 44 c0 35 -4 44 -17 44 -10 1 -136 11 -281 24 -180
16 -274 21 -300 15 -25 -6 -130 -2 -327 15 -159 13 -271 24 -247 25 l42 1 0
215 c0 119 -4 215 -9 215 -5 0 -76 9 -157 20 -82 11 -150 20 -151 20 -2 0 -3
141 -3 313 l0 313 -135 114 -134 115 -1 143 0 142 770 0 770 0 0 -79 c0 -74 3
-84 36 -140 l36 -61 169 0 168 0 8 43 9 42 689 0 689 0 9 -42 8 -43 164 0 164
0 36 63 35 64 0 416 0 417 933 0 934 0 196 -95 196 -95 315 0 315 0 48 147 48
147 190 63 190 63 677 0 678 0 0 95 0 95 28 0 c15 0 37 3 50 6 19 5 22 2 22
-20 0 -14 6 -26 13 -26 61 1 682 72 686 79 3 5 70 12 149 16 l142 7 0 33 0 32
-97 6 c-54 4 -119 7 -145 7 -33 0 -48 4 -48 13 0 10 -80 21 -327 46 -181 17
-338 34 -350 37 -20 4 -23 0 -23 -27 0 -28 -3 -31 -22 -25 -13 3 -35 6 -50 6
l-28 0 0 95 0 95 -229 0 -229 0 -237 220 c-130 121 -241 220 -246 220 -5 0 -9
193 -9 489 0 417 -2 490 -14 494 -8 3 -22 20 -31 36 l-16 31 30 0 c22 0 30 6
35 24 7 27 49 36 171 36 40 0 93 3 119 6 42 6 46 9 46 34 0 24 -5 28 -37 34
-21 3 -74 6 -119 6 -45 0 -102 3 -126 6 -43 6 -46 9 -52 42 -3 20 -4 37 -2 39
1 1 63 5 137 8 192 9 199 10 199 44 0 27 -2 28 -61 35 -34 3 -97 6 -139 6
-112 0 -140 7 -140 36 l0 24 -315 0 c-203 0 -315 4 -315 10 0 7 -310 10 -910
10 -802 0 -910 2 -910 15 0 22 -874 22 -965 0 -33 -8 -93 -14 -132 -15 l-73 0
0 40 c0 25 -5 40 -12 40 -10 0 -12 46 -10 204 l3 204 -101 93 c-56 52 -108 95
-116 97 -17 4 -18 6 -49 230 -14 100 -33 204 -40 230 -8 26 -15 50 -15 53 0 3
53 9 117 13 140 8 183 20 183 53 0 22 3 23 90 23 89 0 90 0 90 25 0 33 -9 34
-223 37 -125 2 -180 7 -185 15 -4 7 -39 15 -77 19 -46 4 -85 15 -112 30 l-42
24 -763 0 -764 0 -55 -35 -56 -34 -37 -137 c-28 -103 -94 -473 -96 -536 0 -5
-7 -8 -14 -8 -8 0 -62 -44 -119 -97 l-105 -98 -1 -190 c-1 -137 2 -194 11
-203 9 -9 8 -12 -5 -12 -13 0 -17 -9 -17 -40 l0 -40 -41 0 c-26 0 -50 -7 -66
-20 -25 -19 -41 -20 -532 -20 -488 0 -507 1 -536 20 -16 11 -47 20 -67 20 -38
0 -38 0 -38 40 0 25 -5 40 -12 40 -10 0 -12 46 -10 204 l3 204 -103 96 c-57
53 -109 96 -115 96 -16 0 -18 10 -43 200 -18 135 -39 247 -55 301 -5 14 11 17
114 23 144 8 181 18 181 52 0 24 2 24 90 24 89 0 90 0 90 25 0 33 -9 34 -223
37 -120 2 -180 7 -185 14 -4 7 -38 15 -77 19 -38 4 -87 16 -107 26 -35 18 -75
19 -813 19 l-776 0 -48 -31 -47 -31 -38 -137 c-20 -75 -48 -212 -61 -306 -33
-230 -34 -235 -48 -235 -7 0 -59 -43 -115 -96 l-103 -96 3 -204 c2 -158 0
-204 -9 -204 -8 0 -13 -15 -13 -40 l0 -40 -144 0 -144 0 -387 310 -387 310
-138 0 -138 0 -206 165 -205 166 -123 5 c-99 5 -128 10 -150 25 -23 16 -45 19
-136 19 l-109 0 -619 496 -619 497 -3 123 -3 122 -109 86 -109 86 -576 0 -575
0 -64 40 c-56 35 -70 40 -125 40 l-61 0 0 130 0 130 435 0 435 0 20 -40 20
-40 250 0 c216 0 250 -2 250 -15 0 -13 33 -15 234 -15 l235 0 6 54 7 55 352 4
c239 3 392 9 481 20 90 12 213 17 401 17 149 0 575 3 947 7 l677 6 0 39 0 38
-335 0 -335 0 0 35 0 35 -995 0 c-657 0 -995 -3 -995 -10 0 -6 -40 -10 -99
-10 l-99 0 -7 60 -7 60 -234 0 c-201 0 -234 -2 -234 -15 0 -13 -34 -15 -250
-15 l-250 0 -22 -45 -22 -45 -293 0 -293 0 0 74 c0 74 0 75 -27 78 -16 3 3 8
45 12 l72 9 0 36 c0 34 -103 1055 -115 1147 l-6 42 -84 21 c-106 27 -195 27
-298 0 -45 -11 -83 -22 -85 -23 -4 -4 -122 -1157 -122 -1193 0 -31 2 -33 38
-33 20 0 44 -5 52 -10 10 -6 11 -10 3 -10 -9 0 -13 -22 -13 -75 l0 -75 -280 0
-280 0 0 75 c0 71 -1 75 -22 76 -34 2 27 16 75 18 l37 1 0 48 c1 26 -25 302
-57 613 l-58 566 -81 22 c-106 27 -203 27 -310 -1 -66 -17 -84 -26 -84 -40 0
-10 -27 -280 -60 -600 -33 -320 -60 -587 -60 -595 0 -8 13 -13 38 -14 35 0 92
-17 65 -18 -9 -1 -13 -23 -13 -76 l0 -75 -295 0 -295 0 0 74 c0 63 -3 75 -17
79 -10 2 15 7 55 12 65 7 72 10 72 29 0 12 -27 283 -60 601 -33 319 -60 585
-60 591 0 6 -38 21 -85 33 -105 26 -214 26 -313 -2z"/>
</g>
</svg>
