<?xml version="1.0" standalone="no"?>
<!DOCTYPE svg PUBLIC "-//W3C//DTD SVG 20010904//EN"
 "http://www.w3.org/TR/2001/REC-SVG-20010904/DTD/svg10.dtd">
<svg version="1.0" xmlns="http://www.w3.org/2000/svg"
   viewBox="0 0 2457.000000 621.000000"
 preserveAspectRatio="xMidYMid meet">
<metadata>
Created by potrace 1.16, written by Peter Selinger 2001-2019
</metadata>
<g transform="translate(0.000000,621.000000) scale(0.100000,-0.100000)"
fill="#000000" stroke="none">
<path d="M6990 6140 c0 -66 -1 -70 -22 -70 -43 1 -1053 -61 -1075 -66 -23 -4
-23 -6 -23 -177 l0 -173 558 -35 557 -34 3 -67 3 -68 134 0 c127 0 135 -1 135
-20 0 -14 -11 -22 -42 -30 -24 -6 -49 -13 -56 -15 -8 -3 -109 -21 -225 -40
l-212 -35 -217 -107 c-218 -107 -218 -108 -218 -140 l0 -33 -721 0 -720 0
-532 -70 -532 -71 -650 -194 -650 -194 -207 -16 c-114 -8 -217 -15 -228 -15
-18 0 -20 -6 -20 -70 l0 -70 -35 0 -35 0 0 -353 0 -352 -927 -63 c-511 -35
-952 -66 -980 -69 l-53 -6 0 -383 c0 -359 1 -384 18 -384 9 0 439 -29 956 -65
516 -36 949 -65 962 -65 l24 0 0 -355 0 -355 35 0 35 0 0 -68 0 -68 229 -16
229 -17 639 -191 638 -192 510 -69 510 -69 753 0 752 0 0 -38 0 -37 207 -103
206 -104 226 -39 c274 -47 325 -60 329 -82 3 -15 -10 -17 -132 -17 l-136 0 0
-69 0 -70 -42 -5 c-41 -5 -1024 -66 -1060 -66 -17 0 -18 -15 -18 -174 l0 -175
53 -5 c50 -6 1013 -66 1050 -66 15 0 17 -10 17 -70 l0 -70 458 0 457 0 665 70
665 71 270 67 270 68 3 142 c2 130 1 142 -15 143 -10 0 -153 17 -318 38 -340
43 -342 38 35 75 l245 24 704 -13 705 -14 195 -195 196 -196 560 0 559 0 242
138 c219 124 244 141 260 175 l17 37 256 0 c141 0 419 7 618 16 336 16 366 16
421 0 46 -12 104 -16 267 -16 l209 0 111 -36 110 -37 456 106 456 105 419 211
419 210 236 263 237 263 496 260 496 260 0 208 0 207 280 0 280 0 0 34 c0 34
0 35 53 40 28 3 310 20 626 37 l575 31 103 69 102 69 283 0 283 0 70 -69 70
-70 655 35 655 34 145 36 144 35 901 44 c495 25 917 45 938 45 l37 0 0 85 c0
51 -4 85 -10 85 -6 0 -428 20 -938 45 l-927 46 -137 34 -136 35 -668 35 -668
36 -71 -71 -70 -70 -278 0 -278 0 -104 70 -105 70 -622 35 c-342 19 -623 35
-625 35 -2 0 -3 16 -3 35 l0 35 -280 0 -280 0 0 209 0 208 -499 263 -499 262
-234 260 -233 260 -425 213 -425 212 -448 104 -449 103 -112 -37 -112 -37
-213 0 c-164 0 -225 -4 -267 -16 -50 -14 -84 -14 -387 0 -182 9 -461 16 -618
16 l-286 0 -17 38 c-15 33 -40 50 -258 175 l-240 137 -567 0 -566 0 -195 -195
-195 -195 -711 -12 -711 -12 -284 28 c-156 16 -285 29 -286 30 -1 0 145 19
323 41 l325 39 -3 140 -3 140 -270 68 -270 68 -655 70 -654 70 -468 0 -468 0
0 -70z"/>
</g>
</svg>
