<?xml version="1.0" standalone="no"?>
<!DOCTYPE svg PUBLIC "-//W3C//DTD SVG 20010904//EN"
 "http://www.w3.org/TR/2001/REC-SVG-20010904/DTD/svg10.dtd">
<svg version="1.0" xmlns="http://www.w3.org/2000/svg"
   viewBox="0 0 4842.000000 2164.000000"
 preserveAspectRatio="xMidYMid meet">
<metadata>
Created by potrace 1.16, written by Peter Selinger 2001-2019
</metadata>
<g transform="translate(0.000000,2164.000000) scale(0.100000,-0.100000)"
fill="#000000" stroke="none">
<path d="M19230 21439 c-674 -109 -2096 -338 -3160 -509 l-1935 -310 -1260
-311 c-693 -171 -1270 -317 -1283 -325 -12 -8 -53 -44 -91 -79 l-69 -65 -128
-24 c-71 -13 -265 -54 -431 -91 l-303 -66 -697 -324 -698 -324 -434 -372 -433
-371 -72 -17 c-60 -15 -104 -38 -281 -149 l-210 -133 -22 -87 c-12 -48 -22
-99 -22 -113 -1 -23 -7 -27 -55 -39 -54 -13 -54 -13 -60 -58 -3 -25 -6 -71 -6
-103 0 -46 -3 -59 -17 -63 -10 -3 -112 -21 -228 -41 l-210 -36 -405 -151
c-223 -83 -422 -157 -444 -166 -61 -24 -81 -94 -107 -377 l-13 -130 -2712
-1519 c-3082 -1726 -2857 -1591 -2912 -1751 -29 -83 -32 -104 -38 -270 -5
-147 -3 -189 9 -231 l15 -52 -112 -81 -112 -82 -123 -417 -123 -417 -22 -483
-22 -482 22 -483 22 -482 123 -417 123 -417 112 -82 112 -81 -15 -52 c-12 -42
-14 -84 -9 -231 6 -166 9 -187 38 -270 55 -160 -170 -25 2912 -1751 l2712
-1519 13 -130 c26 -283 46 -353 107 -377 22 -9 221 -83 444 -166 l405 -151
210 -36 c116 -20 218 -38 228 -41 14 -4 17 -17 17 -63 0 -32 3 -78 6 -103 6
-45 6 -45 60 -58 48 -12 54 -16 55 -39 0 -14 10 -65 22 -113 l22 -87 210 -133
c177 -111 221 -134 281 -149 l72 -17 433 -371 434 -372 698 -324 697 -324 303
-66 c166 -37 360 -78 431 -91 l128 -24 69 -65 c38 -35 79 -71 91 -79 13 -8
590 -154 1283 -325 l1260 -311 1870 -299 c1029 -165 2455 -394 3170 -509
l1300 -209 1055 28 c748 20 1245 38 1710 63 360 20 711 36 780 36 124 0 131 1
1776 335 l1652 335 400 159 400 158 211 179 211 179 567 189 c313 104 573 193
579 197 6 5 19 59 29 119 l19 110 150 0 c83 0 387 5 675 10 l524 10 1136 369
1136 368 252 156 252 156 633 26 c348 15 647 28 663 31 24 3 36 15 58 54 l28
50 621 0 c378 0 634 4 652 10 24 7 1806 41 2134 40 59 0 62 1 62 24 l0 24
-222 6 c-123 3 -617 13 -1098 22 -508 9 -879 19 -885 24 -7 6 -246 11 -588 12
l-576 3 128 217 128 217 54 -55 53 -54 1512 0 1511 0 252 54 c138 29 253 55
255 57 7 8 176 556 175 570 0 8 -17 57 -38 109 l-39 95 -96 3 -96 3 0 129 c0
109 -2 130 -15 130 -13 0 -15 143 -15 1223 l0 1224 167 6 c91 4 215 7 275 7
l108 0 0 38 0 39 -262 7 c-144 4 -264 9 -266 11 -3 2 6 17 19 32 13 16 59 90
103 165 l79 136 81 16 c51 10 130 38 206 72 l125 57 210 27 c164 22 256 40
418 84 115 31 212 56 216 56 5 0 11 -100 14 -222 4 -123 9 -237 12 -253 l7
-30 340 -88 340 -88 771 -51 772 -51 635 91 c349 51 1101 148 1670 217 569 69
1067 130 1105 137 50 8 135 40 303 115 226 100 234 103 305 103 l73 0 675 309
674 309 0 213 c0 118 -4 240 -8 272 l-8 57 -470 0 c-452 0 -471 -1 -509 -20
l-40 -20 0 349 0 350 55 17 55 18 0 104 0 105 -115 -7 c-63 -4 -115 -3 -115 1
0 5 25 72 56 148 152 379 152 771 0 1150 -31 76 -56 143 -56 148 0 4 52 5 115
1 l115 -7 0 105 0 104 -55 18 -55 17 0 350 0 349 40 -20 c38 -19 57 -20 509
-20 l470 0 8 58 c4 31 8 153 8 271 l0 213 -674 309 -675 309 -73 0 c-71 0 -79
3 -305 103 -168 75 -253 107 -303 115 -38 7 -536 68 -1105 137 -569 69 -1321
166 -1670 217 l-635 91 -771 -51 -771 -51 -341 -88 -340 -88 -7 -30 c-3 -16
-8 -130 -12 -252 -3 -123 -9 -223 -14 -223 -4 0 -101 25 -216 56 -162 44 -254
62 -418 84 l-210 27 -125 57 c-76 34 -155 62 -206 72 l-81 16 -79 136 c-44 75
-90 149 -103 165 -13 15 -22 30 -19 32 2 2 122 7 266 11 l262 7 0 39 0 38
-108 0 c-60 0 -184 3 -275 7 l-167 6 0 1224 c0 1080 2 1223 15 1223 13 0 15
21 15 130 l0 129 96 3 96 3 39 95 c21 52 38 101 38 109 1 14 -168 562 -175
570 -2 2 -117 28 -255 57 l-252 54 -1511 0 -1512 0 -53 -54 -54 -55 -128 217
-128 217 576 3 c342 1 581 6 588 12 6 5 377 15 885 24 481 9 975 19 1098 22
l222 6 0 24 c0 23 -3 24 -62 24 -328 -1 -2110 33 -2134 40 -18 6 -274 10 -652
10 l-621 0 -28 50 c-22 39 -34 51 -58 54 -16 3 -315 16 -663 31 l-633 26 -252
156 -252 156 -1136 368 -1136 369 -524 10 c-288 5 -592 10 -675 10 l-150 0
-19 110 c-10 60 -23 114 -29 119 -6 4 -266 93 -579 197 l-567 189 -211 179
-211 179 -400 158 -400 159 -1652 335 c-1625 330 -1653 335 -1771 335 -66 0
-464 18 -885 40 -557 28 -999 45 -1625 59 -473 12 -905 23 -960 25 -92 3 -192
-11 -1325 -195z m16660 -4034 c0 -8 -2 -15 -4 -15 -2 0 -6 7 -10 15 -3 8 -1
15 4 15 6 0 10 -7 10 -15z m1095 -701 l360 -172 3 -276 2 -276 -37 15 c-21 9
-142 61 -270 116 l-231 101 -7 36 c-4 19 -19 57 -34 83 -15 27 -180 216 -367
420 -186 205 -345 381 -351 390 -7 9 119 -46 280 -123 160 -78 454 -219 652
-314z m10157 -4116 c75 -35 135 -64 134 -65 -1 -1 -76 17 -166 40 -148 38
-165 44 -168 65 -6 39 50 28 200 -40z m118 -3481 c-14 -6 -76 -35 -139 -64
-127 -59 -185 -69 -179 -30 3 20 20 26 163 64 168 43 196 49 155 30z m-9917
-3998 c-5 -3 -269 -131 -588 -284 -319 -153 -611 -293 -649 -312 -52 -26 -65
-30 -55 -16 8 11 167 187 353 392 187 204 352 393 367 420 15 26 30 64 34 83
l7 36 231 101 c128 55 248 107 267 115 l35 14 3 -271 c1 -149 -1 -274 -5 -278z
m-1453 -874 c0 -8 -4 -15 -10 -15 -5 0 -7 7 -4 15 4 8 8 15 10 15 2 0 4 -7 4
-15z"/>
</g>
</svg>
