<?xml version="1.0" standalone="no"?>
<!DOCTYPE svg PUBLIC "-//W3C//DTD SVG 20010904//EN"
 "http://www.w3.org/TR/2001/REC-SVG-20010904/DTD/svg10.dtd">
<svg version="1.0" xmlns="http://www.w3.org/2000/svg"
   viewBox="0 0 4728.000000 2455.000000"
 preserveAspectRatio="xMidYMid meet">
<metadata>
Created by potrace 1.16, written by Peter Selinger 2001-2019
</metadata>
<g transform="translate(0.000000,2455.000000) scale(0.100000,-0.100000)"
fill="#000000" stroke="none">
<path d="M28590 23974 c-156 -316 -288 -577 -292 -580 -4 -3 -391 -50 -860
-105 -836 -97 -855 -100 -978 -139 -68 -21 -125 -38 -126 -37 -1 1 -9 192 -17
424 -8 232 -18 426 -21 432 -4 6 -12 8 -20 5 -7 -3 -275 -22 -595 -43 -320
-21 -586 -42 -592 -48 -6 -6 2 -191 26 -547 20 -296 34 -540 31 -544 -9 -8
-577 -162 -600 -162 -12 0 -103 20 -204 45 l-183 45 -127 -49 c-232 -90 -964
-380 -967 -383 -2 -2 -44 -70 -94 -153 l-91 -150 -69 -31 -69 -32 -127 332
c-70 182 -128 332 -130 334 -1 1 -117 -54 -256 -124 -140 -69 -400 -197 -579
-284 -524 -253 -1524 -809 -2170 -1205 -662 -406 -625 -381 -644 -423 l-17
-34 173 -286 c148 -248 288 -472 431 -694 l37 -58 -37 -23 c-175 -108 -292
-177 -301 -177 -11 0 -1572 1548 -1572 1559 1 3 113 120 249 260 l248 254 349
-17 c206 -10 387 -14 442 -10 91 7 92 7 92 33 0 15 14 211 30 436 l30 410
-137 136 -138 137 -825 80 -825 81 -335 -79 -335 -78 -367 21 -366 21 -759
-59 c-417 -32 -760 -60 -762 -61 -10 -9 45 -125 192 -399 88 -165 174 -327
192 -360 36 -69 9 -57 353 -157 l183 -54 -161 -137 -160 -137 0 -150 c0 -113
-3 -150 -12 -150 -7 0 -155 -7 -330 -16 -174 -9 -322 -14 -330 -12 -7 3 -42
71 -77 151 -46 105 -69 147 -84 151 -11 2 -214 -43 -451 -100 l-431 -105 -41
-45 -41 -45 -224 -24 c-123 -13 -343 -31 -489 -40 -146 -9 -275 -18 -287 -21
l-23 -4 0 -435 0 -434 33 -5 c66 -10 645 -38 1047 -50 l415 -13 -390 -2 c-214
0 -453 -4 -530 -7 l-141 -7 -177 -246 -178 -246 247 -3 c190 -2 245 -5 241
-15 -2 -6 -19 -74 -38 -149 -18 -76 -36 -138 -39 -138 -3 0 -30 62 -59 138
-30 75 -55 139 -57 141 -5 6 -918 -222 -933 -233 -7 -6 -24 -27 -36 -46 l-23
-36 -148 -12 c-160 -14 -828 -62 -857 -62 -16 0 -17 -26 -15 -442 l3 -443 205
-12 c113 -7 293 -16 400 -20 l195 -8 -60 -34 -60 -34 -188 2 -187 2 -298 -246
-297 -247 -7 -51 c-3 -29 -6 -94 -7 -144 l-1 -93 33 -1 c17 0 39 -3 48 -7 14
-7 -330 -268 -1170 -890 l-206 -152 -45 47 c-25 27 -65 71 -90 99 l-45 51
-1002 98 -1001 98 -414 -97 -413 -97 -440 28 -440 29 -908 -72 c-500 -40 -911
-75 -914 -78 -13 -13 60 -163 230 -474 102 -185 198 -367 215 -405 58 -127 21
-108 466 -237 218 -63 396 -118 396 -121 0 -6 -732 -399 -743 -399 -2 0 -8 25
-12 56 l-7 57 -131 -7 c-73 -3 -712 -22 -1422 -42 l-1290 -36 -77 -50 c-104
-67 -305 -280 -376 -399 -68 -114 -68 -113 -38 -152 14 -19 26 -38 26 -43 0
-5 -20 -22 -45 -39 -24 -16 -49 -41 -54 -55 -6 -14 -17 -90 -26 -170 -17 -154
-71 -561 -80 -596 -4 -18 10 -29 100 -75 58 -30 105 -58 105 -63 0 -5 -11 -29
-25 -53 -14 -23 -46 -114 -70 -201 l-45 -157 0 -242 0 -242 41 -148 c22 -81
55 -177 72 -212 26 -53 29 -65 17 -69 -8 -3 -55 -26 -105 -52 -77 -41 -90 -51
-88 -71 2 -13 16 -121 32 -239 17 -118 38 -284 48 -368 18 -167 22 -174 98
-229 l29 -21 -27 -41 c-15 -22 -27 -43 -27 -47 0 -3 27 -52 61 -108 73 -122
263 -323 377 -400 l74 -50 1291 -37 c711 -20 1351 -39 1424 -41 l132 -5 8 57
8 57 377 -201 c207 -111 375 -202 374 -204 -2 -1 -180 -54 -397 -117 -442
-129 -422 -119 -469 -232 -13 -32 -110 -216 -215 -408 -169 -311 -246 -468
-234 -479 2 -3 414 -38 914 -78 l910 -74 442 28 441 29 413 -96 412 -95 981
95 c539 53 991 98 1003 100 11 3 58 47 104 97 45 51 85 94 89 96 8 3 185 -127
864 -633 l536 -400 -51 -9 -52 -9 6 -139 c6 -130 8 -141 29 -158 13 -10 149
-122 303 -250 l280 -233 181 7 180 7 58 -33 58 -33 -44 -7 c-24 -3 -155 -12
-293 -18 -137 -6 -296 -14 -352 -17 l-103 -6 0 -442 0 -441 263 -18 c144 -9
368 -26 497 -36 129 -11 242 -20 251 -20 9 0 22 -13 29 -29 24 -59 36 -63 513
-180 252 -62 460 -111 461 -110 2 2 27 66 56 142 30 75 56 137 60 137 3 0 21
-62 40 -138 19 -75 36 -143 38 -149 3 -10 -53 -13 -242 -15 l-245 -3 178 -245
177 -245 705 -5 704 -5 -610 -17 c-336 -10 -751 -25 -923 -35 l-312 -17 0
-438 0 -438 22 -4 c13 -3 142 -12 288 -21 146 -9 366 -27 489 -40 l224 -24 41
-45 41 -45 431 -105 c237 -57 440 -102 451 -100 15 4 38 45 83 151 35 80 70
147 78 151 14 5 438 -12 595 -25 l77 -6 0 -147 0 -147 155 -134 c85 -73 155
-135 155 -139 0 -3 -105 -36 -233 -74 -127 -38 -240 -73 -250 -78 -9 -5 -33
-41 -53 -81 -20 -40 -103 -196 -185 -347 -151 -281 -197 -376 -185 -387 3 -3
346 -33 762 -67 l756 -60 366 21 367 21 338 -79 337 -78 826 83 826 83 134
134 134 134 -30 415 c-16 228 -30 424 -30 436 0 21 -6 23 -87 30 -55 4 -222 0
-440 -11 l-351 -18 -249 253 c-136 139 -249 255 -251 259 -1 3 351 359 781
789 l784 784 169 -102 c93 -57 171 -104 172 -106 2 -1 -14 -29 -36 -61 -59
-87 -295 -467 -458 -739 l-145 -241 16 -34 c9 -19 31 -44 48 -56 18 -12 282
-174 587 -360 778 -476 1667 -965 2372 -1307 279 -135 538 -261 576 -280 l68
-34 124 324 c68 178 126 328 130 334 5 8 29 0 73 -21 l66 -33 93 -152 93 -151
533 -212 c293 -116 546 -211 562 -211 15 0 104 18 197 40 92 22 178 40 191 40
28 0 583 -149 595 -160 5 -4 -8 -249 -28 -545 -23 -355 -32 -542 -26 -548 10
-10 1199 -92 1208 -83 3 2 11 195 20 428 8 232 15 424 16 425 1 1 63 -16 137
-38 131 -38 163 -43 985 -138 467 -54 851 -103 852 -107 2 -5 129 -263 282
-574 l279 -565 59 -3 c101 -6 3897 89 3918 97 18 8 28 59 103 517 74 453 94
556 184 929 l102 420 184 210 c102 116 190 219 197 230 19 30 177 593 170 605
-3 5 -69 100 -146 211 -77 111 -137 204 -134 207 3 4 82 30 175 58 l169 52
357 259 c197 142 361 261 366 264 4 3 27 169 51 369 l43 365 -257 233 -256
234 -73 167 c-40 91 -75 173 -78 181 -3 8 61 -47 143 -122 l149 -136 406 203
405 203 816 552 816 553 -59 286 c-32 157 -72 348 -87 424 l-29 137 362 459
361 459 155 292 155 292 988 -5 c543 -2 991 -7 994 -11 13 -13 -92 -667 -159
-989 l-70 -338 -457 -779 -457 -778 -414 -451 -413 -451 -466 -356 c-256 -196
-473 -363 -481 -371 -13 -13 9 -14 175 -9 105 4 214 9 244 13 l55 6 -123 -119
-124 -119 -183 -7 -183 -6 -628 -501 c-346 -275 -648 -518 -671 -539 l-44 -38
170 -113 171 -113 678 127 c373 70 949 185 1280 256 332 71 605 129 607 129 3
0 143 179 312 398 l306 397 -202 5 -202 5 87 130 c48 72 92 136 99 143 9 10
105 17 367 27 1665 69 2397 107 2415 128 1 1 110 218 242 482 l240 481 434
424 433 425 560 344 560 344 650 197 650 197 290 42 c160 23 298 45 307 47 11
3 17 -2 20 -18 l3 -23 330 -11 c182 -7 475 -9 653 -6 l322 5 0 807 0 807 -129
13 -130 12 -5 72 c-3 39 -8 162 -12 272 l-6 202 84 6 c45 3 171 8 278 11 249
8 240 5 240 55 0 37 -3 41 -30 47 -16 3 -30 9 -30 13 0 10 -1026 24 -1139 15
l-91 -7 0 -50 0 -51 -37 7 c-21 3 -788 6 -1705 6 l-1667 0 -3 52 -3 52 -1070
323 c-588 177 -1222 368 -1407 424 l-338 102 0 1268 0 1267 48 16 c26 8 639
193 1362 411 723 218 1336 403 1363 411 l47 16 0 49 0 49 243 0 c133 -1 898 1
1699 3 1252 3 1458 2 1463 -10 3 -8 5 -29 5 -47 l0 -33 77 -7 c127 -10 843 -7
843 4 0 6 57 10 150 10 110 0 160 4 186 15 33 13 35 17 32 52 l-3 38 -224 6
c-157 4 -226 9 -229 17 -2 8 -29 12 -73 12 l-69 0 1 58 c1 110 17 473 21 477
2 2 46 9 98 15 52 6 110 13 128 16 l32 5 0 803 0 804 -187 7 c-185 8 -700 2
-980 -11 -130 -6 -143 -9 -143 -26 0 -10 -7 -18 -15 -18 -8 0 -148 20 -312 45
l-298 46 -615 186 c-338 102 -628 189 -645 194 -16 5 -281 163 -588 351 l-557
343 -436 425 -436 425 -240 480 c-132 264 -242 482 -244 484 -15 17 -321 37
-1089 71 -901 40 -1607 70 -1657 70 -25 0 -39 17 -123 143 l-95 142 200 3
c110 1 200 5 200 8 0 3 -136 182 -302 397 -166 216 -302 393 -303 394 -1 2
-264 59 -586 128 -492 106 -1926 385 -1977 385 -9 0 -92 -50 -185 -112 l-168
-112 43 -38 c24 -21 325 -263 669 -538 l627 -500 184 -6 183 -7 120 -114 120
-114 -205 6 c-113 3 -223 8 -245 11 -34 4 -38 3 -25 -8 9 -7 227 -175 485
-373 l469 -360 415 -452 414 -452 457 -778 458 -778 71 -340 c62 -300 172
-978 160 -989 -2 -2 -449 -5 -993 -7 l-990 -4 -160 297 -161 298 -356 451
-356 451 73 356 c40 196 79 387 87 424 l15 68 -822 556 -821 557 -403 199
-402 200 -123 -113 c-67 -62 -133 -122 -146 -134 l-23 -20 14 35 c8 19 42 97
74 173 l59 139 258 236 c141 130 257 243 257 252 0 39 -83 716 -89 721 -3 3
-168 123 -366 266 l-360 260 -110 32 c-60 18 -140 41 -177 52 l-67 19 151 215
150 215 -86 297 c-49 170 -94 305 -104 317 -11 12 -97 111 -192 220 l-174 200
-98 400 c-90 364 -107 450 -187 936 l-87 535 -110 7 c-60 4 -449 14 -864 23
-872 18 -2694 62 -2886 69 l-130 5 -284 -575z m-11825 -4410 c99 -80 203 -165
232 -188 l51 -43 -306 -355 c-169 -195 -322 -372 -340 -392 l-32 -37 -290 258
c-160 141 -290 261 -290 266 0 4 37 58 81 118 62 83 134 160 296 315 l215 204
102 0 101 0 180 -146z m-1587 -1915 c131 -106 243 -197 250 -203 10 -10 3 -25
-36 -77 -116 -154 -820 -1174 -947 -1372 -108 -170 -141 -215 -147 -200 -14
36 -129 603 -126 622 2 10 165 334 363 720 320 623 363 701 383 701 16 0 102
-63 260 -191z m13582 -741 l795 -100 461 -129 c253 -71 546 -149 649 -174 104
-25 190 -47 191 -48 2 -1 -25 -67 -59 -147 l-62 -145 -142 -120 -143 -120 0
-377 0 -378 -1113 0 -1114 0 -24 37 c-13 21 -67 70 -119 109 l-95 71 -400 107
c-511 135 -778 197 -885 205 l-85 6 -22 555 c-12 305 -22 601 -22 656 l-1 101
698 -4 697 -4 795 -101z m-3165 -594 c19 -287 35 -540 35 -563 l0 -41 -93 0
-94 0 -249 -226 -249 -226 -591 5 -592 5 -121 97 -122 98 -307 120 -307 121
-268 5 -268 6 378 212 c341 191 413 227 728 363 348 151 353 153 842 300 443
135 514 153 725 191 128 23 296 56 373 73 l140 32 2 -25 c2 -15 19 -260 38
-547z m7219 -987 c329 -251 780 -632 769 -649 -2 -5 -323 -8 -714 -8 l-709 0
0 233 c1 127 5 318 10 423 l9 192 51 101 51 102 91 -63 c50 -35 249 -184 442
-331z m766 -5472 c-34 -41 -421 -376 -540 -467 -345 -265 -563 -429 -658 -496
l-102 -72 -50 101 -50 100 -10 197 c-5 108 -10 299 -10 425 l0 227 716 0 c644
0 715 -2 704 -15z m-3129 -862 l0 -378 144 -120 143 -120 59 -139 c32 -77 59
-143 61 -147 2 -4 -50 -19 -115 -34 -208 -47 -340 -82 -758 -200 l-410 -116
-775 -101 -775 -100 -727 -5 -728 -6 1 104 c0 57 10 352 22 654 l22 550 80 6
c98 7 474 96 943 223 l354 95 95 71 c52 39 104 87 115 106 l20 34 1114 0 1114
0 1 -377z m-5255 61 l249 -225 95 4 95 4 -39 -586 c-21 -322 -40 -588 -42
-590 -2 -2 -67 10 -146 27 -79 17 -244 50 -368 73 -194 36 -292 62 -715 189
-489 147 -491 148 -845 301 -318 137 -393 174 -720 357 -201 113 -369 208
-375 213 -5 5 95 9 237 9 l247 0 323 124 323 124 125 101 125 100 591 1 592 0
248 -226z m-10232 -1274 c208 -300 401 -573 429 -608 27 -35 46 -67 41 -71 -5
-4 -116 -94 -246 -199 -187 -152 -243 -192 -266 -192 -29 0 -37 14 -391 703
-198 387 -361 711 -361 720 0 9 29 154 65 322 36 169 65 309 65 313 0 3 64
-95 142 -219 78 -123 313 -469 522 -769z m1750 -2183 l335 -388 -57 -48 c-31
-26 -134 -109 -229 -185 l-172 -137 -103 -5 -103 -5 -218 208 c-163 156 -238
235 -298 317 -44 60 -78 113 -77 118 5 13 572 518 580 515 3 -1 157 -177 342
-390z"/>
</g>
</svg>
