<?xml version="1.0" standalone="no"?>
<!DOCTYPE svg PUBLIC "-//W3C//DTD SVG 20010904//EN"
 "http://www.w3.org/TR/2001/REC-SVG-20010904/DTD/svg10.dtd">
<svg version="1.0" xmlns="http://www.w3.org/2000/svg"
   viewBox="0 0 4320.000000 3119.000000"
 preserveAspectRatio="xMidYMid meet">
<metadata>
Created by potrace 1.16, written by Peter Selinger 2001-2019
</metadata>
<g transform="translate(0.000000,3119.000000) scale(0.100000,-0.100000)"
fill="#000000" stroke="none">
<path d="M20856 31159 l-69 -29 -2189 0 -2188 0 0 -4123 0 -4122 -731 -685
c-401 -377 -741 -693 -753 -704 -20 -15 -121 -29 -632 -87 -335 -38 -612 -69
-615 -69 -4 0 -10 -117 -14 -260 l-7 -260 -1222 0 -1221 1 -292 -38 -293 -37
0 -158 0 -158 -562 0 c-727 0 -3244 -42 -4703 -80 l-1140 -29 -595 -147 c-327
-80 -599 -150 -605 -154 -5 -5 -53 -112 -105 -239 l-95 -231 -55 0 c-30 0
-251 -38 -490 -85 -239 -47 -436 -85 -437 -85 -2 0 -4 -149 -5 -332 l-3 -332
-680 -368 c-374 -203 -690 -376 -702 -386 -18 -14 -61 -160 -237 -798 l-216
-781 0 -787 0 -788 216 -781 c148 -536 221 -787 233 -797 10 -8 327 -181 704
-385 l686 -370 1 -332 c0 -183 3 -333 8 -333 4 0 203 -38 442 -85 239 -47 458
-85 485 -85 l50 0 98 -238 98 -239 607 -147 607 -147 960 -24 c1316 -35 3565
-75 4587 -82 l848 -6 2 -156 3 -155 245 -33 245 -32 1266 -1 1267 0 7 -265 c4
-146 10 -265 14 -265 32 0 1201 -132 1217 -138 12 -4 357 -322 768 -706 l746
-699 0 -4124 0 -4123 2186 0 2185 0 75 -31 75 -31 74 31 75 31 2000 0 2000 0
75 -31 74 -32 78 32 78 31 2033 0 2032 0 73 -31 73 -30 77 30 78 31 1749 0
1750 0 2 4122 3 4122 665 187 665 187 703 98 703 97 27 -25 c15 -13 109 -97
209 -187 l182 -161 373 -151 c205 -83 378 -153 385 -156 8 -3 17 12 24 41 6
26 15 49 19 51 7 4 585 -6 983 -18 l97 -3 0 541 0 540 748 194 c411 107 756
199 768 205 11 6 452 345 980 753 l959 742 554 1013 555 1013 172 1166 172
1165 -172 1165 -172 1165 -554 1013 -555 1013 -955 736 c-525 404 -962 741
-970 748 -8 7 -356 102 -772 211 l-758 198 0 542 0 542 -162 -5 c-388 -12
-913 -22 -918 -18 -3 3 -12 25 -20 49 l-15 43 -385 -154 -385 -155 -95 -86
c-52 -47 -146 -130 -207 -185 l-113 -100 -701 98 -702 97 -666 187 -666 188
-3 4121 -2 4121 -1754 0 -1753 0 -73 30 -72 30 -70 -30 -70 -30 -2042 0 -2041
0 -72 30 -71 30 -72 -30 -73 -30 -2007 0 -2008 0 -70 30 c-39 17 -72 30 -74
29 -2 0 -34 -14 -72 -30z"/>
</g>
</svg>
