<?xml version="1.0" standalone="no"?>
<!DOCTYPE svg PUBLIC "-//W3C//DTD SVG 20010904//EN"
 "http://www.w3.org/TR/2001/REC-SVG-20010904/DTD/svg10.dtd">
<svg version="1.0" xmlns="http://www.w3.org/2000/svg"
   viewBox="0 0 4333.000000 1577.000000"
 preserveAspectRatio="xMidYMid meet">
<metadata>
Created by potrace 1.16, written by Peter Selinger 2001-2019
</metadata>
<g transform="translate(0.000000,1577.000000) scale(0.100000,-0.100000)"
fill="#000000" stroke="none">
<path d="M28850 15724 c-371 -23 -873 -54 -1115 -68 -242 -14 -486 -29 -542
-32 l-103 -7 0 -208 0 -209 43 0 c23 0 152 7 287 15 135 8 270 15 301 15 l57
0 7 -82 c4 -46 15 -165 26 -266 10 -101 19 -189 19 -196 0 -10 -82 -14 -372
-20 -205 -3 -373 -8 -373 -9 -1 -1 2 -128 7 -282 4 -154 11 -423 16 -597 4
-174 10 -319 14 -323 3 -4 190 -16 415 -27 390 -19 451 -19 1398 -8 545 6
1149 14 1343 17 l352 6 0 -28 c0 -15 -7 -153 -16 -307 l-16 -280 -54 -140
c-52 -134 -65 -154 -357 -596 l-302 -457 -6 -255 c-4 -140 -7 -347 -8 -459
l-1 -204 -162 7 c-89 4 -212 12 -273 17 -60 5 -204 13 -320 18 -173 7 -213 6
-231 -6 -27 -17 -3320 -216 -3944 -237 l-405 -15 -1795 315 c-1488 261 -1976
351 -2850 525 -580 115 -1124 228 -1208 251 l-153 41 -1092 614 -1092 614
-832 -6 -833 -7 0 608 0 609 -166 140 c-104 89 -177 143 -197 147 -18 4 -210
17 -427 28 -217 11 -428 23 -467 26 l-73 6 0 59 0 59 -2940 0 -2940 0 0 -70
c0 -49 -4 -70 -12 -70 -7 0 -160 -9 -340 -20 -325 -20 -334 -21 -1079 -139
-413 -66 -754 -122 -757 -126 -26 -26 7 -1938 34 -1964 3 -3 334 -58 736 -122
707 -113 739 -118 932 -123 111 -4 265 -9 344 -12 l142 -6 0 -108 0 -108 -43
-5 c-23 -4 -172 -14 -332 -23 l-290 -18 -760 -146 -760 -146 -2 -30 c-1 -16
-5 -77 -8 -136 l-7 -106 -157 -105 -158 -105 -404 -125 -404 -124 -813 -352
c-447 -193 -816 -351 -820 -351 -4 0 -29 41 -56 91 -36 67 -53 90 -65 86 -9
-2 -321 -98 -693 -213 l-678 -209 0 -36 c0 -20 -3 -64 -6 -98 l-7 -61 -72 0
-72 0 -7 -162 c-4 -89 -8 -163 -10 -165 -1 -2 -191 -104 -422 -227 l-419 -224
-3 -1405 -2 -1405 417 -222 c230 -123 421 -226 425 -229 4 -4 11 -77 14 -163
l7 -156 69 -4 c38 -3 71 -7 73 -9 2 -3 7 -46 11 -97 l7 -92 126 -39 c829 -260
1255 -390 1260 -385 3 3 26 45 51 92 25 48 50 86 55 85 6 -1 375 -159 822
-351 l811 -351 398 -122 398 -123 160 -108 161 -109 6 -57 c4 -31 7 -92 8
-134 1 -72 3 -78 23 -83 13 -3 352 -68 753 -146 l730 -141 340 -23 c187 -13
341 -23 343 -24 1 -1 2 -50 2 -109 l0 -109 -187 -6 c-104 -4 -253 -7 -333 -8
-136 0 -190 -8 -890 -122 l-745 -122 -7 -65 c-20 -199 -44 -1887 -27 -1904 3
-3 352 -59 775 -125 720 -112 786 -120 1039 -135 149 -9 294 -19 323 -22 l52
-6 0 -69 0 -69 2940 0 2940 0 0 65 0 65 43 0 c23 0 238 11 477 25 239 14 442
25 450 25 9 0 59 36 112 80 92 77 98 80 150 82 l53 1 -45 6 -45 6 67 55 67 55
0 614 1 613 178 -6 c97 -3 470 -9 829 -12 l651 -6 1087 612 1087 612 137 39
c75 21 633 138 1241 259 924 183 1395 270 2873 530 l1767 310 428 -15 c235 -8
1211 -62 2168 -119 1379 -82 1747 -107 1765 -119 20 -12 45 -13 139 -7 63 4
127 6 142 3 14 -3 104 2 200 11 95 10 441 32 768 51 l595 34 705 95 c946 128
2049 244 2720 286 267 16 580 39 695 50 116 11 311 23 435 26 213 6 234 8 395
44 296 67 1405 293 1410 288 3 -3 10 -74 15 -158 6 -85 12 -156 15 -158 2 -2
72 -19 155 -38 l151 -35 242 51 c221 47 674 172 1022 281 143 45 709 245 1099
389 137 50 252 87 256 83 4 -4 59 -104 121 -221 83 -155 118 -212 129 -209 8
2 233 130 500 285 436 252 519 304 815 513 398 281 485 349 637 495 106 102
122 114 177 129 33 10 68 26 77 36 13 14 26 17 58 13 35 -5 50 0 101 31 127
77 156 106 261 261 183 270 260 423 344 685 l57 176 -53 164 c-28 90 -66 196
-82 235 -57 131 -217 399 -347 580 -17 22 -70 68 -120 101 -121 82 -129 86
-168 75 -28 -8 -37 -6 -59 13 -15 13 -50 29 -78 36 -45 11 -67 28 -173 129
-176 167 -243 219 -622 487 -315 223 -376 261 -830 522 -269 154 -494 282
-500 283 -5 1 -60 -91 -120 -203 -61 -112 -115 -211 -120 -220 -9 -14 -32 -8
-195 52 -447 166 -1211 433 -1269 444 -14 3 -171 47 -348 99 -196 58 -419 115
-567 146 l-245 52 -154 -33 -155 -32 -6 -86 c-19 -257 -16 -241 -40 -236 -11
3 -307 63 -656 135 -349 71 -700 144 -780 163 -139 33 -155 35 -395 41 -221 5
-442 19 -452 29 -2 2 -6 314 -9 693 l-7 689 -292 450 c-160 248 -297 459 -303
470 -5 11 -33 80 -61 154 l-51 133 14 145 c8 80 17 147 19 149 2 2 321 -80
708 -182 l704 -187 335 -147 335 -147 375 -239 375 -240 157 -214 c150 -206
161 -224 255 -426 l98 -211 188 -19 c103 -11 187 -18 187 -16 0 2 -58 239
-130 528 l-129 524 -257 441 -256 442 -388 484 -387 483 -354 264 -354 263
-750 332 -750 331 -765 226 -765 226 -650 53 c-648 54 -652 54 -1260 65 -916
15 -1012 13 -1775 -36z"/>
</g>
</svg>
