<?xml version="1.0" standalone="no"?>
<!DOCTYPE svg PUBLIC "-//W3C//DTD SVG 20010904//EN"
 "http://www.w3.org/TR/2001/REC-SVG-20010904/DTD/svg10.dtd">
<svg version="1.0" xmlns="http://www.w3.org/2000/svg"
   viewBox="0 0 4597.000000 3326.000000"
 preserveAspectRatio="xMidYMid meet">
<metadata>
Created by potrace 1.16, written by Peter Selinger 2001-2019
</metadata>
<g transform="translate(0.000000,3326.000000) scale(0.100000,-0.100000)"
fill="#000000" stroke="none">
<path d="M18283 32992 c-174 -191 -268 -305 -333 -399 l-91 -133 -222 -1 -222
-1 -171 -201 -170 -202 -3436 0 -3436 -1 -2173 -1226 -2174 -1227 -3 -356 -2
-355 1577 0 1578 0 183 -165 c101 -90 191 -166 200 -169 9 -3 67 -17 127 -31
61 -14 127 -30 148 -36 l37 -10 0 -399 0 -400 -4581 -2 -4582 -3 -67 -157 -68
-158 177 0 178 0 21 -177 c13 -106 22 -234 22 -315 l0 -138 401 0 401 0 -6
-37 c-3 -21 -11 -153 -17 -293 -7 -140 -16 -259 -20 -264 -5 -5 -154 -15 -331
-22 -178 -7 -405 -20 -506 -29 l-184 -17 -167 -119 c-93 -65 -173 -124 -178
-131 -10 -12 -69 -467 -61 -472 1 -2 82 -56 178 -120 l175 -118 315 6 c173 3
379 9 458 12 116 5 141 3 138 -8 -3 -7 -12 -39 -21 -70 l-16 -58 -68 0 c-106
0 -101 6 -101 -131 l0 -119 1148 0 1147 -1 -1054 -1047 c-1051 -1045 -1054
-1048 -1044 -1078 6 -16 126 -296 267 -623 l256 -593 34 -182 c18 -99 32 -182
31 -184 -1 -1 -231 -129 -511 -285 l-510 -282 -470 -340 -471 -340 -5 -1250
c-4 -1115 -3 -1266 12 -1397 9 -81 18 -150 21 -153 3 -3 59 -39 125 -81 l119
-76 379 3 379 4 88 -170 c49 -93 90 -173 91 -176 2 -4 170 -1 373 7 204 7 405
13 448 14 l77 0 0 -90 0 -90 168 0 167 0 145 -145 145 -145 347 0 348 0 0 -30
0 -30 -348 0 -347 0 -150 -150 -150 -150 -162 0 -163 0 0 -88 0 -87 -72 2
c-379 14 -668 23 -740 23 l-87 0 -88 -172 -88 -173 -377 4 -377 4 -117 -74
c-65 -41 -121 -77 -127 -80 -5 -4 -17 -76 -27 -160 -15 -140 -16 -264 -12
-1400 l5 -1246 475 -343 474 -343 507 -280 c278 -154 507 -280 508 -281 1 -1
-13 -86 -32 -189 l-34 -188 -268 -615 -268 -615 675 -672 c371 -370 848 -844
1060 -1055 l385 -382 -1152 0 -1153 0 0 -120 0 -120 63 -1 c101 -2 109 -6 125
-72 8 -32 12 -60 9 -63 -3 -3 -207 0 -453 5 l-449 11 -165 -112 c-91 -61 -171
-116 -178 -123 -11 -10 -8 -53 15 -244 l28 -231 177 -126 177 -125 153 -14
c84 -8 313 -22 508 -30 208 -9 357 -19 360 -25 4 -6 12 -124 19 -263 6 -138
14 -269 17 -289 l6 -38 -401 0 -401 0 0 -147 c0 -89 -8 -209 -20 -303 -11 -85
-20 -161 -20 -167 0 -10 -42 -13 -179 -13 l-179 0 68 -158 67 -157 4577 -3
4576 -2 0 -403 0 -403 -159 -38 -158 -38 -171 -154 -170 -154 -1596 0 -1596 0
2 -356 3 -355 2170 -1220 2170 -1219 10389 0 10388 0 1834 1218 1833 1217 1
693 0 692 -1787 1 -1788 0 -123 141 c-68 77 -122 142 -120 144 2 2 132 26 288
54 280 50 312 58 1720 452 1028 287 1822 516 2800 809 l1365 408 1053 380
1052 379 470 289 470 288 1525 1180 1524 1180 120 40 120 40 1143 1435 c1098
1378 1188 1492 1188 1503 0 2 -40 8 -90 11 l-89 7 5 27 c2 15 103 713 224
1552 121 839 230 1601 244 1695 l25 170 -244 1700 c-135 935 -247 1712 -249
1727 l-5 27 94 3 95 3 -1156 1455 c-635 800 -1165 1465 -1177 1476 -12 12 -73
38 -135 59 l-113 37 -1519 1177 -1520 1176 -475 292 -474 292 -1058 376 -1058
375 -1350 410 c-1208 366 -1502 451 -2800 809 -1413 389 -1457 400 -1725 447
-151 26 -279 51 -283 55 -5 3 52 76 125 160 l134 154 1787 3 1787 2 0 688 0
688 -1844 1232 -1844 1232 -510 0 -510 0 -392 190 -392 190 -789 0 -789 0 0
303 c0 167 -3 352 -7 410 l-6 107 -4521 0 -4521 -1 -242 -267z"/>
</g>
</svg>
