<?xml version="1.0" standalone="no"?>
<!DOCTYPE svg PUBLIC "-//W3C//DTD SVG 20010904//EN"
 "http://www.w3.org/TR/2001/REC-SVG-20010904/DTD/svg10.dtd">
<svg version="1.0" xmlns="http://www.w3.org/2000/svg"
   viewBox="0 0 4922.000000 1678.000000"
 preserveAspectRatio="xMidYMid meet">
<metadata>
Created by potrace 1.16, written by Peter Selinger 2001-2019
</metadata>
<g transform="translate(0.000000,1678.000000) scale(0.100000,-0.100000)"
fill="#000000" stroke="none">
<path d="M1900 16590 l0 -190 -310 0 -310 0 0 40 0 40 -110 0 -110 0 0 -40 0
-40 -198 0 -198 0 -97 -126 -97 -127 0 -2931 0 -2931 -170 -170 -169 -170 -66
-154 -65 -155 0 -1246 0 -1246 65 -155 66 -154 169 -170 170 -170 0 -2931 0
-2931 97 -127 97 -126 198 0 198 0 0 -40 0 -40 110 0 110 0 0 40 0 40 310 0
310 0 0 -190 0 -190 180 0 180 0 0 95 0 95 9810 0 9810 0 0 -95 0 -95 180 0
180 0 0 95 0 95 1985 0 1985 0 0 -95 0 -95 180 0 180 0 0 95 0 95 9805 0 9805
0 0 -95 0 -95 180 0 180 0 0 190 0 190 310 0 310 0 0 -40 0 -40 110 0 110 0 0
40 0 40 199 0 200 0 95 124 96 125 0 2983 0 2983 -98 98 -97 97 -758 0 -757 0
0 65 0 65 250 0 250 0 0 130 0 130 140 0 140 0 0 25 0 25 188 0 c188 0 189 0
212 25 l23 25 727 0 c710 0 1030 6 1030 20 0 4 -395 10 -877 13 -860 7 -877 7
-898 27 -20 19 -35 20 -227 20 l-205 0 -15 90 -15 90 68 0 c37 0 71 5 74 10 4
6 184 10 503 11 273 1 508 5 522 9 14 4 -210 8 -497 9 -336 1 -524 5 -528 11
-3 6 -40 10 -81 10 l-74 0 0 30 0 30 -105 0 -105 0 0 125 0 125 128 0 128 0
47 48 47 48 0 90 0 91 146 7 c80 4 156 11 169 16 21 8 627 19 1317 23 264 2
322 6 307 21 -2 2 -355 7 -784 11 -620 5 -794 9 -848 21 -38 8 -112 14 -165
14 -146 0 -142 -2 -142 90 0 92 -4 90 142 90 53 0 127 6 165 14 54 12 229 16
848 21 429 4 782 9 784 11 15 15 -44 19 -307 21 -690 4 -1296 15 -1317 23 -13
5 -89 12 -169 16 l-146 7 0 91 0 92 -48 47 -48 47 -127 0 -127 0 0 125 0 125
105 0 105 0 0 30 0 30 74 0 c41 0 78 5 81 10 4 6 192 10 528 11 301 0 514 4
502 9 -11 5 -246 9 -522 9 -323 1 -504 5 -508 11 -3 6 -37 10 -74 10 l-68 0
15 90 15 90 205 0 c193 0 207 1 227 20 21 20 37 21 898 27 483 3 877 9 877 13
0 14 -305 20 -1021 20 l-736 0 -23 25 c-23 25 -24 25 -212 25 l-188 0 0 25 0
25 -140 0 -140 0 0 130 0 130 -250 0 -250 0 0 65 0 65 758 0 757 0 98 98 97
97 0 2983 0 2983 -96 125 -95 124 -200 0 -199 0 0 40 0 40 -110 0 -110 0 0
-40 0 -40 -310 0 -310 0 0 190 0 190 -180 0 -180 0 0 -95 0 -95 -9805 0 -9805
0 0 95 0 95 -180 0 -180 0 0 -95 0 -95 -1985 0 -1985 0 0 95 0 95 -180 0 -180
0 0 -95 0 -95 -9810 0 -9810 0 0 95 0 95 -180 0 -180 0 0 -190z m19980 -120
l0 -70 -2200 0 -2200 0 0 40 0 40 -110 0 -110 0 0 -40 0 -40 -198 0 -197 0
-98 -128 -97 -128 0 -1290 0 -1290 -537 -132 c-296 -73 -541 -133 -545 -132
-5 0 -8 642 -8 1426 l0 1426 -95 124 -96 124 -199 0 -200 0 0 40 0 40 -110 0
-110 0 0 -40 0 -40 -6255 0 -6255 0 0 70 0 70 9810 0 9810 0 0 -70z m4330 0
l0 -70 -1985 0 -1985 0 0 70 0 70 1985 0 1985 0 0 -70z m19970 0 l0 -70 -6255
0 -6255 0 0 40 0 40 -110 0 -110 0 0 -40 0 -40 -199 0 -198 0 -97 -126 -96
-127 0 -2981 0 -2981 97 -97 98 -98 667 0 668 0 0 -65 0 -65 -2160 0 -2160 0
0 65 0 65 762 0 763 0 97 97 98 98 0 2978 0 2978 -100 130 -101 129 -199 0
-200 0 0 40 0 40 -110 0 -110 0 0 -40 0 -40 -2200 0 -2200 0 0 70 0 70 9805 0
9805 0 0 -70z m-21850 -6545 l0 -65 -30 0 -30 0 0 65 0 65 30 0 30 0 0 -65z
m2598 0 l-43 -65 -94 0 -93 0 17 28 c10 15 30 44 44 64 l26 38 93 0 92 0 -42
-65z m2710 0 l42 -65 -104 0 -103 0 -25 38 c-14 20 -33 49 -42 65 l-18 27 103
0 104 0 43 -65z m5390 0 l-43 -65 -97 0 c-54 0 -98 2 -98 5 0 4 19 33 42 65
l42 60 98 0 98 0 -42 -65z m2692 6 c22 -33 40 -62 40 -65 0 -4 -42 -6 -94 -6
l-93 0 -25 38 c-14 20 -33 49 -42 65 l-18 27 95 0 96 0 41 -59z m4780 -6 l0
-65 -2170 0 -2170 0 0 65 0 65 2170 0 2170 0 0 -65z m628 0 l-42 -65 -99 0
-99 0 18 28 c9 15 28 44 42 65 l25 37 98 0 98 0 -41 -65z m2692 6 c22 -33 40
-62 40 -65 0 -4 -42 -6 -94 -6 l-93 0 -25 38 c-14 20 -33 49 -42 65 l-18 27
95 0 96 0 41 -59z m-21490 -3076 l0 -65 -30 0 -30 0 0 65 0 65 30 0 30 0 0
-65z m2598 0 l42 -65 -92 0 -93 0 -26 38 c-14 20 -34 49 -44 65 l-17 27 93 0
94 0 43 -65z m2710 0 l-43 -65 -104 0 -103 0 18 28 c9 15 28 44 42 65 l25 37
103 0 104 0 -42 -65z m4752 0 l0 -65 -667 0 -668 0 -97 -97 -98 -98 0 -2981 0
-2981 96 -127 97 -126 198 0 199 0 0 -40 0 -40 110 0 110 0 0 40 0 40 6255 0
6255 0 0 -70 0 -70 -9805 0 -9805 0 0 70 0 70 2200 0 2200 0 0 -40 0 -40 110
0 110 0 0 40 0 40 200 0 199 0 101 129 100 130 0 2978 0 2978 -97 97 -98 98
-762 0 -763 0 0 65 0 65 2160 0 2160 0 0 -65z m638 0 l42 -65 -98 0 -98 0 -42
60 c-23 32 -42 61 -42 65 0 3 44 5 98 5 l97 0 43 -65z m2732 59 c0 -3 -18 -32
-40 -65 l-41 -59 -96 0 -95 0 18 28 c9 15 28 44 42 65 l25 37 93 0 c52 0 94
-2 94 -6z m4740 -59 l0 -65 -2170 0 -2170 0 0 65 0 65 2170 0 2170 0 0 -65z
m629 0 l40 -65 -98 0 -98 0 -25 38 c-14 20 -33 49 -42 65 l-18 27 100 0 100 0
41 -65z m2731 59 c0 -3 -18 -32 -40 -65 l-41 -59 -96 0 -95 0 18 28 c9 15 28
44 42 65 l25 37 93 0 c52 0 94 -2 94 -6z m-29727 -3566 l537 -132 0 -1290 0
-1290 97 -128 98 -128 197 0 198 0 0 -40 0 -40 110 0 110 0 0 40 0 40 2200 0
2200 0 0 -70 0 -70 -9810 0 -9810 0 0 70 0 70 6255 0 6255 0 0 -40 0 -40 110
0 110 0 0 40 0 40 200 0 199 0 96 124 95 124 0 1426 c0 784 3 1426 8 1426 4 1
249 -59 545 -132z m10077 -3038 l0 -70 -1985 0 -1985 0 0 70 0 70 1985 0 1985
0 0 -70z"/>
</g>
</svg>
