<?xml version="1.0" standalone="no"?>
<!DOCTYPE svg PUBLIC "-//W3C//DTD SVG 20010904//EN"
 "http://www.w3.org/TR/2001/REC-SVG-20010904/DTD/svg10.dtd">
<svg version="1.0" xmlns="http://www.w3.org/2000/svg"
   viewBox="0 0 3636.000000 1836.000000"
 preserveAspectRatio="xMidYMid meet">
<metadata>
Created by potrace 1.16, written by Peter Selinger 2001-2019
</metadata>
<g transform="translate(0.000000,1836.000000) scale(0.100000,-0.100000)"
fill="#000000" stroke="none">
<path d="M16788 18353 l-68 -4 0 -49 0 -50 -1279 0 -1279 0 -67 -105 -68 -106
-26 17 c-14 10 -62 41 -106 71 l-80 53 -22 -27 c-13 -16 -23 -31 -23 -34 0 -4
47 -37 105 -75 71 -47 103 -74 99 -83 -2 -8 -105 -174 -227 -368 l-222 -352
-85 -1 -85 -2 -155 -165 c-85 -90 -172 -184 -193 -208 l-38 -44 45 -98 c37
-80 50 -99 73 -107 15 -5 29 -10 31 -11 1 -1 -237 -382 -530 -846 l-533 -844
-5 -474 -5 -475 -1405 -383 -1405 -383 -1132 0 -1133 0 0 -22 c0 -21 11 -98
25 -185 l6 -33 672 -1 c370 -1 661 -5 647 -9 -14 -4 -325 -8 -691 -9 l-666 -1
-18 140 -18 140 -257 0 c-299 0 -266 -14 -300 135 -11 50 -22 100 -25 111 -4
20 -9 21 -42 13 -52 -12 -53 -12 -53 10 0 15 10 21 40 26 22 4 40 11 40 15 0
11 -339 1619 -346 1643 -4 11 -12 16 -22 13 -64 -19 -74 -19 -70 0 2 12 16 21
41 27 20 5 37 14 37 20 0 7 -10 60 -22 118 l-21 106 -61 -15 c-34 -8 -160 -35
-281 -61 l-220 -48 -2 -44 c-2 -24 12 -339 30 -699 l33 -655 -23 -10 c-13 -5
-21 -15 -19 -22 3 -7 1 -15 -4 -18 -6 -4 -10 -53 -10 -111 l0 -104 -29 -6
c-35 -7 -32 6 -66 -249 -15 -104 -29 -193 -33 -196 -4 -4 -142 -66 -307 -138
l-300 -132 -370 -290 -369 -289 -388 0 -388 0 0 60 0 60 65 0 c63 0 65 1 65
25 l0 25 -275 0 -275 0 0 -25 c0 -24 2 -25 65 -25 l65 0 0 -60 0 -60 -437 0
-438 -1 -85 -113 c-79 -105 -99 -121 -100 -76 0 9 29 55 65 104 37 51 65 98
65 112 0 33 -28 31 -40 -2 -13 -33 -884 -1172 -919 -1201 -19 -16 -23 -25 -15
-33 19 -20 56 8 114 86 46 61 60 74 83 74 l29 0 -29 -38 c-15 -21 -54 -72 -85
-113 -58 -76 -58 -76 -58 -146 l0 -71 311 -203 311 -203 -6 -45 c-3 -25 -10
-48 -14 -52 -4 -3 -187 79 -407 182 -380 180 -450 209 -415 175 21 -21 882
-469 903 -470 9 -1 17 -5 16 -10 -2 -18 26 -26 37 -10 21 27 107 83 118 77 6
-4 37 -24 68 -45 50 -34 64 -38 117 -38 l61 0 0 -90 c0 -49 -4 -90 -8 -90 -4
0 -379 -81 -832 -180 -454 -100 -834 -182 -844 -183 -14 -2 -35 26 -87 113
-38 63 -68 118 -69 123 0 4 25 7 55 7 l55 0 0 50 0 50 -100 0 c-93 0 -100 1
-100 20 0 11 7 20 15 20 11 0 15 12 15 50 l0 50 -80 0 -80 0 0 -50 c0 -49 1
-50 30 -50 23 0 30 -4 30 -20 0 -17 -7 -20 -40 -20 l-40 0 0 -50 0 -50 40 0
c29 0 40 -4 40 -15 0 -10 -10 -15 -30 -15 -29 0 -30 -1 -30 -50 0 -49 1 -50
30 -50 l30 0 0 -95 c0 -57 -4 -95 -10 -95 -7 0 -10 -177 -10 -510 0 -333 3
-510 10 -510 6 0 10 -37 10 -90 l0 -90 -30 0 c-30 0 -30 -1 -30 -55 0 -54 0
-55 30 -55 20 0 30 -5 30 -15 0 -11 -11 -15 -40 -15 l-40 0 0 -50 0 -50 40 0
c33 0 40 -3 40 -20 0 -16 -7 -20 -30 -20 -29 0 -30 -1 -30 -50 l0 -50 80 0 80
0 0 50 c0 38 -4 50 -15 50 -8 0 -15 9 -15 20 0 19 7 20 100 20 l100 0 0 50 0
50 -55 0 c-30 0 -55 3 -55 8 1 4 31 59 69 122 52 87 73 115 87 113 10 -1 390
-83 844 -183 453 -99 828 -180 832 -180 4 0 8 -40 8 -90 l0 -90 -61 0 c-53 0
-67 -4 -117 -38 -31 -21 -62 -41 -68 -45 -11 -6 -97 50 -118 77 -11 16 -39 8
-37 -10 1 -5 -7 -9 -16 -10 -22 -1 -882 -449 -903 -469 -34 -35 34 -6 415 174
220 103 403 185 407 182 4 -4 11 -27 14 -52 l6 -44 -311 -204 -311 -204 0 -70
0 -71 77 -100 c42 -56 81 -107 86 -114 7 -9 2 -12 -19 -12 -24 1 -38 13 -84
75 -58 77 -95 105 -114 85 -8 -8 -4 -17 15 -33 35 -29 906 -1168 919 -1201 12
-33 40 -35 40 -2 0 14 -28 61 -65 112 -36 49 -65 95 -65 104 1 45 21 29 100
-76 l85 -113 438 -1 437 0 0 -60 0 -60 -65 0 c-63 0 -65 -1 -65 -25 l0 -25
275 0 275 0 0 25 c0 24 -2 25 -65 25 l-65 0 0 60 0 60 388 0 388 0 369 -289
369 -289 300 -132 c166 -73 304 -136 308 -139 4 -3 18 -91 33 -196 34 -255 31
-242 66 -249 l29 -5 0 -105 c0 -58 4 -107 10 -111 5 -3 7 -11 4 -18 -2 -7 6
-17 19 -22 l23 -10 -33 -655 c-18 -360 -32 -675 -30 -699 l2 -44 220 -48 c121
-26 247 -53 281 -61 l61 -15 21 106 c12 58 22 111 22 118 0 6 -17 15 -37 20
-25 6 -39 15 -41 27 -4 19 6 19 70 0 10 -3 18 2 22 13 7 24 346 1632 346 1643
0 5 -18 11 -40 15 -30 5 -40 11 -40 26 0 22 1 22 53 10 33 -8 38 -7 42 13 3
11 14 62 25 111 34 149 1 135 300 135 l257 0 18 140 18 140 666 -1 c366 -1
677 -5 691 -9 14 -4 -277 -8 -647 -9 l-672 -1 -6 -32 c-14 -88 -25 -165 -25
-185 l0 -23 1133 0 1132 0 1405 -383 1405 -383 5 -475 5 -474 533 -844 c293
-464 531 -845 530 -846 -2 -1 -16 -6 -31 -11 -23 -8 -36 -27 -73 -107 l-45
-98 38 -44 c21 -24 108 -118 193 -208 l155 -165 85 -2 85 -1 222 -352 c122
-194 223 -359 225 -366 2 -9 -35 -41 -97 -83 -55 -38 -101 -72 -102 -76 -2 -4
7 -20 20 -35 l22 -28 104 71 c57 38 105 70 106 70 2 0 33 -47 70 -105 l67
-105 1279 0 1279 0 0 -49 0 -48 78 -5 c44 -2 154 -2 245 0 l167 5 0 53 0 54
-95 0 c-52 0 -95 3 -94 8 0 4 447 979 993 2167 546 1188 992 2161 991 2162 -1
2 -130 32 -287 68 -195 44 -308 65 -354 66 -66 0 -86 7 -394 137 l-325 138 4
118 c2 65 7 130 11 145 6 24 8 23 14 -17 l8 -42 66 -1 67 0 84 -111 84 -111
331 6 c182 4 685 10 1119 14 l787 6 0 179 c0 139 3 179 13 176 8 -3 15 -60 23
-194 7 -104 12 -191 13 -193 0 -2 183 -2 406 1 223 2 402 1 398 -3 -5 -4 -186
-9 -403 -11 -302 -3 -401 -7 -419 -17 -32 -18 -14 -34 24 -21 40 13 3724 51
3748 38 26 -13 44 2 22 19 -15 10 -102 13 -424 15 l-406 2 290 7 c160 3 340 7
400 8 l110 1 -7 128 c-4 70 -9 157 -11 195 -4 60 -2 67 14 67 18 0 19 -11 19
-175 l0 -175 298 0 c163 0 476 3 695 7 l397 6 0 174 c0 95 4 173 9 173 10 0
18 -74 27 -256 l6 -131 332 3 c219 1 300 0 241 -6 -49 -4 -198 -9 -330 -9
-184 -1 -246 -5 -265 -16 -22 -12 -23 -14 -8 -20 9 -4 22 -4 28 0 19 12 3442
47 3467 36 20 -9 33 -6 33 9 0 23 -66 28 -371 25 -195 -2 -294 0 -249 5 41 4
189 8 329 9 l253 1 -6 53 c-3 28 -9 116 -12 195 -7 138 -6 142 14 142 11 0 23
-7 26 -16 3 -9 6 -85 6 -170 l0 -154 128 0 c70 0 292 3 494 7 l367 6 -5 651
c-2 358 -7 751 -10 874 l-6 222 -212 0 c-116 0 -336 -3 -488 -7 l-278 -6 0
-169 0 -168 -26 0 -26 0 8 194 7 195 -329 -4 c-212 -2 -297 -1 -239 5 50 4
197 8 327 9 239 1 292 8 281 37 -4 11 -10 11 -26 3 -27 -15 -3442 -54 -3474
-40 -20 9 -33 6 -33 -9 0 -23 66 -28 375 -25 220 2 293 1 220 -5 -60 -4 -209
-8 -331 -9 l-221 -1 -7 -61 c-3 -34 -6 -98 -6 -143 0 -100 -10 -186 -21 -186
-5 0 -9 79 -9 175 l0 175 -297 0 c-164 0 -477 -3 -695 -7 l-398 -6 0 -174 c0
-153 -2 -173 -16 -173 -14 0 -15 8 -10 53 3 28 7 115 8 192 l3 140 -400 -1
c-351 -1 -373 -1 -180 6 121 4 303 8 405 9 185 2 223 8 213 38 -4 10 -10 10
-26 1 -27 -14 -3752 -60 -3779 -47 -23 12 -28 11 -28 -5 0 -8 7 -17 17 -20 9
-4 198 -6 421 -6 222 1 407 -1 410 -4 3 -3 -105 -6 -240 -6 -135 0 -319 -3
-410 -7 l-165 -6 -7 -185 c-6 -173 -9 -202 -20 -191 -3 2 -8 82 -12 177 l-7
172 -451 -6 c-248 -3 -748 -9 -1112 -13 -538 -5 -664 -9 -677 -20 -15 -12 -17
-11 -17 2 0 11 20 22 63 35 34 10 189 59 345 107 l282 88 0 31 0 31 358 146
357 146 940 152 c517 83 945 151 951 151 6 0 29 -43 50 -95 l39 -95 64 0 c84
0 8692 129 8836 132 l109 3 26 98 25 97 47 0 48 0 0 -95 0 -95 98 0 c53 0 480
7 947 15 468 8 1240 15 1717 15 l867 0 638 -576 c461 -416 638 -582 638 -597
1 -16 6 -21 22 -20 12 1 39 -14 66 -37 40 -36 46 -38 58 -24 12 15 7 22 -34
60 -30 27 -47 50 -45 61 2 13 -3 18 -19 18 -16 0 -207 169 -628 555 l-606 555
293 3 293 2 42 42 43 42 0 306 0 306 -52 50 c-29 28 -81 74 -115 103 l-63 53
0 797 0 798 23 21 23 22 837 0 837 0 0 30 0 30 -293 0 c-162 0 -490 3 -731 7
l-437 6 26 27 26 27 -17 263 c-12 170 -23 268 -31 278 -10 14 -12 -32 -13
-248 l0 -264 -42 -43 c-23 -24 -49 -43 -57 -43 -9 0 4 19 32 48 l47 48 0 305
0 305 -43 42 -42 42 -293 2 -293 3 606 555 c421 386 612 555 628 555 16 0 21
5 19 18 -2 11 15 34 45 61 41 38 46 45 34 60 -12 14 -18 12 -58 -24 -27 -23
-54 -38 -66 -37 -16 1 -21 -4 -22 -20 0 -15 -177 -181 -638 -597 l-638 -576
-867 0 c-477 0 -1247 7 -1712 15 -465 8 -891 15 -947 15 l-103 0 0 -95 0 -95
-48 0 -47 0 -25 98 -26 97 -109 3 c-145 3 -8747 132 -8833 132 l-67 0 -39 -95
c-21 -52 -44 -95 -50 -95 -6 0 -434 68 -951 151 l-940 152 -357 146 -358 146
0 31 0 31 -282 88 c-156 48 -311 97 -345 107 -43 13 -63 24 -63 35 0 13 2 14
17 2 13 -11 140 -15 687 -21 369 -3 870 -9 1114 -12 l442 -6 0 62 c0 140 13
288 25 288 9 0 14 -52 19 -187 4 -104 10 -190 13 -193 5 -6 791 -17 871 -12
44 3 52 6 52 23 0 17 7 19 85 19 84 0 85 0 85 -25 l0 -25 248 0 c137 0 486 -3
775 -7 l527 -6 0 21 c0 21 5 22 85 22 77 0 85 -2 85 -19 0 -16 10 -20 61 -26
33 -4 58 -9 56 -11 -2 -2 -377 0 -833 5 -2000 24 -2099 24 -2123 11 -28 -15
-14 -37 15 -23 16 8 1223 -3 3464 -29 157 -2 295 -7 308 -12 15 -6 22 -5 22 3
0 26 -61 32 -440 40 l-395 8 398 1 398 2 -7 190 c-7 173 -6 190 9 190 15 0 17
-19 17 -173 l0 -174 398 -6 c218 -4 531 -7 695 -7 l297 0 0 175 c0 96 4 175 9
175 11 0 21 -86 21 -186 0 -45 3 -109 6 -143 l7 -61 226 -1 c124 -1 273 -5
331 -9 69 -6 -7 -7 -224 -5 -310 3 -376 -1 -376 -25 0 -15 13 -18 33 -9 32 14
3447 -25 3474 -40 16 -8 22 -8 26 3 11 29 -42 36 -276 37 -128 1 -275 5 -327
9 -62 6 20 7 234 5 l329 -3 -7 194 -8 194 26 0 26 0 0 -168 0 -169 287 -6
c157 -4 377 -7 489 -7 l202 0 6 223 c3 122 8 515 10 873 l5 651 -361 6 c-199
4 -421 7 -495 7 l-133 0 0 -154 c0 -85 -3 -161 -6 -170 -3 -9 -15 -16 -26 -16
-20 0 -21 4 -14 143 3 78 9 166 12 195 l6 52 -243 1 c-134 1 -284 5 -334 9
-59 6 23 7 240 5 308 -2 375 2 375 25 0 15 -13 18 -33 9 -25 -11 -3441 25
-3469 36 -29 12 -44 -6 -17 -21 18 -10 87 -14 269 -15 135 0 283 -5 330 -9 56
-6 -29 -7 -246 -6 l-332 3 -6 -131 c-9 -182 -17 -256 -27 -256 -5 0 -9 78 -9
173 l0 174 -392 6 c-215 4 -528 7 -695 7 l-303 0 0 -175 c0 -164 -1 -175 -19
-175 -16 0 -18 7 -14 68 2 37 7 124 11 195 l7 127 -105 1 c-58 1 -238 5 -400
9 l-295 6 406 2 c322 2 409 5 424 15 22 17 4 32 -22 19 -24 -13 -3708 25
-3748 38 -38 13 -56 -3 -24 -21 18 -10 119 -14 419 -17 217 -2 398 -7 403 -11
4 -4 -175 -5 -398 -3 -223 3 -406 3 -406 1 -1 -2 -6 -89 -13 -193 -8 -134 -15
-191 -23 -194 -10 -3 -13 37 -13 176 l0 179 -782 7 c-431 3 -934 9 -1119 13
l-336 6 -84 -111 -84 -111 -67 0 -66 -1 -8 -42 c-6 -40 -8 -41 -14 -17 -4 15
-9 80 -11 145 l-4 118 325 138 c309 130 328 137 394 138 47 0 158 20 354 65
157 36 286 66 287 68 1 1 -447 979 -995 2172 l-997 2170 99 3 98 3 0 49 0 50
-112 0 c-62 0 -142 2 -178 4 -36 2 -95 1 -132 -1z m-4738 -4792 l0 -360 -290
-228 -290 -228 0 -92 0 -93 -102 1 c-57 1 -132 4 -166 8 l-64 6 -187 320 -187
320 -78 3 -77 3 -67 -140 -67 -141 -1025 1 c-591 0 -1017 4 -1005 9 11 5 453
6 1005 3 l985 -6 67 124 66 124 -587 5 -587 5 1325 357 c729 196 1327 357
1329 357 1 1 2 -161 2 -358z m10280 -47 c465 -4 852 -10 860 -15 10 -5 -6 -9
-42 -9 -51 0 -58 -2 -58 -20 0 -18 -7 -20 -85 -20 -77 0 -85 2 -85 19 0 17
-11 19 -122 25 -68 3 -419 8 -780 11 l-658 6 0 -20 c0 -20 -6 -21 -85 -21 -78
0 -85 2 -85 20 0 17 -7 20 -44 20 -25 0 -48 5 -52 11 -5 9 44 10 192 6 109 -4
579 -10 1044 -13z m5660 -64 c140 -4 216 -7 168 -8 -81 -2 -88 -4 -88 -22 0
-18 -7 -20 -85 -20 -77 0 -85 2 -85 19 0 18 -18 19 -432 25 -238 3 -558 7
-711 9 l-277 2 0 -22 c0 -20 -5 -23 -39 -23 -82 0 -131 12 -131 31 0 16 -11
19 -87 22 -49 2 272 2 712 -1 440 -2 915 -8 1055 -12z m-24900 -1020 l0 -60
-115 0 -115 0 0 60 0 60 115 0 115 0 0 -60z m-1336 -296 c3 -9 3 -21 -1 -27
-4 -7 -136 -181 -295 -388 -260 -340 -290 -376 -312 -372 -24 5 -21 10 61 117
47 61 185 240 306 399 121 158 223 287 227 287 4 0 11 -7 14 -16z m24716 -503
c0 -18 17 -19 393 -25 215 -3 533 -7 705 -9 l312 -2 0 24 c0 22 3 23 38 17 20
-3 58 -6 85 -6 40 0 47 -3 47 -20 0 -17 9 -20 93 -23 50 -2 -261 -2 -693 1
-724 4 -1460 16 -1242 20 85 2 92 4 92 22 0 18 7 20 85 20 77 0 85 -2 85 -19z
m-24750 -1164 l50 -34 -35 -33 c-19 -18 -32 -37 -29 -42 3 -4 1 -8 -4 -8 -6 0
-13 11 -16 25 -4 14 -10 25 -14 25 -5 0 -16 6 -26 13 -16 11 -16 15 -1 50 8
20 18 37 21 37 2 0 27 -15 54 -33z m-1556 -472 c3 -8 1 -15 -4 -15 -6 0 -10 7
-10 15 0 8 2 15 4 15 2 0 6 -7 10 -15z m80 -143 c31 -54 56 -101 56 -104 0 -3
-27 -11 -61 -17 -34 -7 -67 -15 -75 -18 -11 -4 -14 11 -14 81 0 70 3 86 15 86
10 0 15 11 15 35 0 19 2 35 4 35 2 0 29 -44 60 -98z m-5 -1223 c34 -6 61 -14
61 -17 0 -3 -26 -51 -57 -106 l-58 -101 -3 43 c-2 28 -8 42 -18 42 -11 0 -14
17 -14 81 0 65 3 80 14 76 8 -3 41 -11 75 -18z m-75 -264 c-4 -8 -8 -15 -10
-15 -2 0 -4 7 -4 15 0 8 4 15 10 15 5 0 7 -7 4 -15z m1542 -363 c-3 -5 10 -24
29 -42 l35 -33 -50 -34 c-27 -18 -52 -33 -54 -33 -3 0 -13 17 -21 37 -15 35
-15 39 1 50 10 7 21 13 26 13 4 0 10 11 14 25 3 14 10 25 16 25 5 0 7 -4 4 -8z
m-249 -1359 c159 -208 292 -383 296 -390 9 -14 -2 -45 -15 -41 -5 2 -145 181
-312 398 -268 350 -300 396 -282 402 12 3 22 6 23 7 1 1 132 -169 290 -376z
m26686 130 c-85 -3 -93 -6 -93 -23 0 -17 -7 -20 -47 -20 -27 0 -65 -3 -85 -6
-35 -6 -38 -5 -38 17 l0 24 -322 -2 c-178 -2 -495 -6 -705 -9 -366 -6 -383 -7
-383 -25 0 -17 -8 -19 -85 -19 -78 0 -85 2 -85 20 0 17 -8 20 -92 23 -122 4
50 8 742 16 542 7 1356 9 1193 4z m-5010 -50 c-59 -4 -63 -5 -63 -28 0 -25 -1
-25 -85 -25 -80 0 -85 1 -85 22 l0 21 -547 -6 c-302 -4 -650 -7 -774 -7 l-227
0 -6 -25 c-6 -24 -9 -25 -92 -25 -81 0 -86 1 -81 20 5 18 0 20 -43 20 -27 0
-52 5 -55 10 -4 7 113 10 342 11 191 1 569 5 838 8 531 8 978 9 878 4z
m-20043 -793 l0 -60 -115 0 -115 0 0 60 0 60 115 0 115 0 0 -60z m8380 -222
l0 -93 290 -228 290 -228 0 -359 0 -359 -107 29 c-60 16 -657 177 -1329 357
l-1220 328 587 5 587 5 -66 124 -67 124 -985 -6 c-542 -3 -994 -2 -1005 3 -11
5 428 9 1005 9 l1025 1 67 -141 67 -140 77 3 78 3 187 320 187 320 59 6 c32 3
106 6 166 7 l107 2 0 -92z m16600 -768 c0 -18 7 -20 88 -22 48 -1 -30 -4 -174
-8 -279 -8 -1908 -20 -1761 -13 76 3 87 6 87 22 0 21 40 31 123 31 42 0 47 -2
47 -22 l0 -23 267 2 c148 2 467 6 711 9 424 6 442 7 442 25 0 17 8 19 85 19
78 0 85 -2 85 -20z m-4980 -50 c0 -18 7 -20 58 -21 39 0 51 -3 37 -8 -11 -5
-402 -11 -870 -15 -467 -3 -935 -9 -1039 -13 -141 -4 -187 -3 -182 6 4 6 27
11 52 11 37 0 44 3 44 20 0 18 7 20 85 20 79 0 85 -1 85 -20 l0 -21 658 6
c361 3 712 8 780 11 111 6 122 8 122 25 0 17 8 19 85 19 78 0 85 -2 85 -20z"/>
<path d="M34828 8247 l62 -63 0 -264 c1 -216 3 -262 13 -248 8 10 19 108 31
279 l17 262 -48 49 c-43 43 -52 48 -92 48 l-45 0 62 -63z"/>
</g>
</svg>
