<?xml version="1.0" standalone="no"?>
<!DOCTYPE svg PUBLIC "-//W3C//DTD SVG 20010904//EN"
 "http://www.w3.org/TR/2001/REC-SVG-20010904/DTD/svg10.dtd">
<svg version="1.0" xmlns="http://www.w3.org/2000/svg"
   viewBox="0 0 4249.000000 2592.000000"
 preserveAspectRatio="xMidYMid meet">
<metadata>
Created by potrace 1.16, written by Peter Selinger 2001-2019
</metadata>
<g transform="translate(0.000000,2592.000000) scale(0.100000,-0.100000)"
fill="#000000" stroke="none">
<path d="M18120 25880 l0 -40 -90 0 -90 0 0 -35 0 -35 -380 0 -380 0 0 -30 0
-30 -70 0 -70 0 0 -250 c0 -224 4 -278 35 -534 35 -285 35 -286 35 -708 l0
-424 58 -57 58 -57 322 0 322 0 0 -45 0 -45 285 0 285 0 0 -270 0 -270 1729 0
1728 0 6 -52 c4 -29 12 -122 18 -205 l12 -153 135 0 c111 0 133 -2 129 -14
-32 -82 -87 -247 -87 -260 0 -8 7 -19 15 -23 12 -7 12 -15 -3 -55 -11 -31 -13
-50 -7 -56 6 -5 231 -94 502 -198 l492 -189 -57 -6 c-31 -4 -87 -7 -123 -8
-42 -1 -71 -6 -78 -14 -7 -9 -17 -173 -27 -468 -9 -250 -17 -455 -18 -455 0
-1 -336 -80 -745 -175 l-743 -174 -1479 -1353 -1479 -1353 -168 -29 c-92 -16
-669 -128 -1282 -249 -613 -121 -1716 -331 -2450 -466 -734 -135 -1343 -248
-1352 -251 -11 -3 -18 -15 -18 -30 0 -28 13 -27 -168 -14 -73 5 -139 7 -146 4
-7 -3 -11 -15 -9 -28 5 -22 12 -24 164 -41 141 -16 159 -20 159 -36 0 -19 4
-18 -238 -87 -57 -17 -105 -32 -107 -34 -1 -1 -14 -43 -29 -93 l-26 -90 0
-667 c0 -627 -1 -668 -17 -668 -10 0 -1045 -75 -2300 -166 l-2283 -165 -44 38
-44 38 54 3 54 3 0 123 0 123 -567 521 -568 522 -189 0 -189 0 -59 51 -59 52
-60 -6 -59 -5 0 159 0 159 -42 -1 c-24 0 -403 -30 -843 -67 l-800 -67 -3 -166
-2 -167 -53 -6 c-28 -3 -410 -38 -847 -76 l-795 -71 -96 -95 -96 -96 -629 -44
c-346 -24 -639 -44 -651 -44 -23 0 -23 0 -25 -187 -1 -104 -3 -164 -5 -135 -2
28 -8 52 -14 52 -5 0 -9 11 -9 25 l0 25 -170 0 -170 0 0 -455 c0 -297 3 -455
10 -455 6 0 10 -28 10 -65 0 -36 -4 -65 -10 -65 -6 0 -11 -92 -12 -242 l-3
-243 -300 -56 c-165 -31 -317 -59 -337 -63 l-38 -7 0 396 0 395 -30 0 -30 0 0
-399 c0 -372 -1 -400 -17 -405 -10 -2 -58 -12 -108 -21 -88 -16 -91 -18 -137
-68 l-47 -52 -1 -87 0 -88 -30 0 -30 0 0 -450 0 -450 30 0 30 0 0 -87 1 -88
48 -52 c48 -51 51 -52 137 -68 49 -9 97 -19 107 -21 16 -5 17 -33 17 -405 l0
-399 30 0 30 0 0 396 c0 373 1 396 17 392 10 -3 163 -31 340 -64 l323 -59 0
-242 c0 -155 4 -243 10 -243 6 0 10 -28 10 -65 0 -37 -4 -65 -10 -65 -7 0 -10
-158 -10 -455 l0 -455 170 0 170 0 0 25 c0 14 4 25 9 25 6 0 12 24 14 53 2 28
4 -32 5 -135 l2 -188 28 0 c15 0 308 -20 651 -44 l624 -44 96 -95 96 -96 795
-70 c437 -39 819 -74 847 -77 l53 -6 2 -167 3 -166 805 -67 c443 -37 822 -67
843 -67 l37 -1 0 160 0 160 59 -7 60 -6 57 52 58 51 190 0 191 0 568 522 567
521 0 123 0 123 -54 3 -54 3 44 38 44 38 2288 -165 c1258 -92 2293 -166 2300
-166 9 0 12 -140 12 -667 l0 -668 26 -90 c15 -49 28 -92 29 -93 2 -2 50 -17
107 -34 242 -69 238 -68 238 -87 0 -16 -18 -20 -159 -36 -152 -17 -159 -19
-164 -41 -2 -13 2 -25 9 -28 7 -3 73 -1 146 4 181 13 168 14 168 -14 0 -15 7
-27 18 -30 9 -3 640 -120 1402 -260 762 -141 1864 -350 2450 -466 586 -116
1140 -224 1232 -240 l168 -29 572 -524 c315 -288 981 -897 1479 -1353 l907
-829 743 -174 c409 -95 745 -174 745 -175 1 0 9 -205 18 -455 10 -295 20 -459
27 -468 7 -8 36 -13 78 -14 36 -1 92 -4 123 -8 l57 -6 -492 -189 c-271 -104
-496 -193 -502 -198 -6 -5 -4 -25 7 -56 15 -40 15 -48 3 -55 -8 -4 -15 -15
-15 -23 0 -13 55 -178 87 -260 4 -12 -18 -14 -129 -14 l-135 0 -12 -152 c-6
-84 -14 -177 -18 -206 l-6 -52 -1728 0 -1729 0 0 -270 0 -270 -285 0 -285 0 0
-45 0 -45 -323 0 -323 0 -57 -58 -57 -58 0 -422 c0 -422 0 -423 -35 -708 -31
-256 -35 -310 -35 -534 l0 -250 70 0 70 0 0 -30 0 -30 380 0 380 0 0 -35 0
-35 90 0 90 0 0 -40 0 -40 7560 0 7560 0 0 40 0 40 160 0 160 0 0 83 0 82 98
42 c53 22 98 47 99 55 2 7 -141 422 -316 923 l-319 910 -161 3 -161 2 0 98 c0
158 -11 204 -66 267 -43 51 -50 55 -90 55 l-44 0 0 170 0 170 2155 0 2155 0 0
55 0 55 -2150 0 -2150 0 0 220 0 220 -354 0 -354 0 -13 -37 c-6 -21 -39 -116
-71 -211 l-60 -172 -192 0 c-185 0 -210 -3 -761 -80 l-570 -80 -2400 -40
c-1320 -22 -2451 -40 -2512 -40 l-113 0 0 203 c0 111 -3 212 -6 225 l-6 22
-507 0 -506 0 90 49 c50 26 144 77 209 112 l119 64 24 70 c14 39 29 74 33 78
4 5 27 3 50 -3 36 -10 56 -8 130 10 84 21 90 24 151 86 58 59 66 71 85 142
l21 77 54 -3 c417 -19 618 -37 723 -63 43 -11 194 -65 335 -119 l257 -100 770
0 769 1 208 43 c115 24 213 48 219 54 5 5 101 212 212 458 l202 449 2552 3
2552 2 0 50 0 50 -2525 0 c-1639 0 -2525 3 -2525 10 0 5 12 34 27 64 l26 54
56 6 c31 3 110 8 176 12 117 6 122 6 172 -20 29 -14 56 -26 61 -26 5 0 15 13
22 30 9 22 21 31 44 34 17 3 213 17 436 31 223 14 440 28 483 31 l77 7 0 466
0 467 -512 33 c-282 18 -514 34 -516 36 -1 1 18 45 43 98 l44 97 106 0 c86 0
105 3 105 15 0 11 -20 15 -98 17 l-98 3 417 925 c230 509 419 929 421 934 2 4
546 52 1208 106 663 55 1373 117 1578 139 205 23 377 41 382 41 6 0 10 239 10
664 l0 664 73 6 c39 3 369 17 731 31 363 14 663 28 667 32 13 14 341 776 360
838 14 44 21 106 26 238 6 169 7 178 27 182 12 3 141 22 287 43 l266 38 99
-77 c56 -45 103 -75 109 -70 5 4 48 38 93 74 46 37 89 67 95 67 7 0 720 104
1586 231 l1575 232 140 -70 141 -69 397 38 397 39 666 368 c366 203 672 374
680 381 29 24 115 187 115 218 0 30 -20 60 -43 64 -7 1 66 5 162 8 l174 5 48
150 c67 209 67 263 0 470 l-49 150 -173 5 c-96 3 -169 7 -162 8 23 4 43 34 43
64 0 31 -86 194 -115 218 -9 7 -315 179 -681 381 l-665 369 -397 38 -397 38
-141 -69 -140 -70 -1589 234 -1588 234 -90 72 -91 72 -25 -19 c-14 -10 -59
-45 -100 -77 l-74 -60 -266 39 c-146 21 -275 40 -287 43 -20 4 -21 13 -27 182
-5 132 -12 194 -26 238 -19 63 -347 824 -360 838 -4 4 -304 19 -667 32 -362
14 -692 28 -731 31 l-73 6 0 664 c0 365 -4 664 -8 664 -4 0 -176 18 -382 41
-206 22 -917 84 -1580 139 -662 54 -1206 102 -1208 107 -2 4 -191 424 -421
933 l-417 925 98 3 c78 2 98 6 98 17 0 12 -19 15 -105 15 l-106 0 -44 97 c-25
53 -44 97 -43 99 2 1 234 17 516 35 l512 33 0 467 0 466 -72 6 c-40 4 -257 18
-483 32 -225 14 -424 28 -441 31 -23 3 -35 12 -44 34 -7 17 -17 30 -22 30 -5
0 -32 -12 -60 -26 -50 -25 -57 -26 -168 -20 -63 3 -142 9 -176 12 l-61 6 -26
54 c-15 30 -27 59 -27 64 0 7 886 10 2525 10 l2525 0 0 50 0 50 -2552 2 -2552
3 -202 450 c-112 248 -211 455 -221 461 -10 7 -110 30 -223 53 l-205 41 -765
0 -766 0 -256 -100 c-141 -54 -292 -108 -335 -119 -91 -23 -525 -60 -767 -66
-5 0 -19 35 -30 77 -19 71 -27 83 -85 142 -61 62 -67 65 -151 86 -74 18 -94
20 -130 10 -23 -6 -46 -8 -50 -3 -4 4 -19 40 -33 78 l-24 70 -119 64 c-65 35
-159 86 -209 112 l-90 49 506 0 507 0 6 23 c3 12 6 113 6 225 l0 202 118 0
c64 0 1195 -18 2512 -40 l2395 -40 570 -80 c551 -77 576 -80 761 -80 l192 0
60 -172 c32 -95 65 -190 71 -210 l13 -38 354 0 354 0 0 220 0 220 2150 0 2150
0 0 55 0 55 -2155 0 -2155 0 0 170 0 170 44 0 c40 0 47 4 90 55 55 63 66 109
66 268 l0 97 153 0 c83 0 157 4 162 8 15 10 647 1821 642 1836 -3 6 -48 29
-101 51 l-96 40 0 83 0 82 -160 0 -160 0 0 40 0 40 -7560 0 -7560 0 0 -40z
m11708 -2607 l-3 -57 -110 -19 c-108 -19 -149 -19 -2025 -3 -2186 18 -2480 23
-2480 40 0 8 64 26 163 47 l162 34 1290 5 c710 3 1676 6 2148 8 l858 2 -3 -57z
m-749 -2347 c-10 -8 -89 -13 -89 -5 0 5 21 9 47 9 25 0 44 -2 42 -4z m886 -46
c220 -12 415 -23 433 -26 l32 -5 0 -419 0 -420 -27 -1 c-16 0 -242 -13 -503
-28 -261 -15 -478 -23 -481 -19 -3 5 -40 14 -82 22 -43 7 -79 15 -81 17 -8 9
-76 162 -73 165 1 2 74 13 162 24 l160 22 111 61 111 60 -119 276 c-66 152
-122 282 -125 288 -4 10 6 12 38 8 24 -3 224 -14 444 -25z m-28488 -6077 c-1
-54 -3 -12 -3 92 0 105 2 149 3 98 2 -51 2 -136 0 -190z m0 -490 c-1 -60 -3
-11 -3 107 0 118 2 167 3 108 2 -60 2 -156 0 -215z m3 -298 c0 -69 -3 -85 -15
-85 -8 0 -15 5 -15 10 0 6 5 10 10 10 6 0 10 32 10 75 0 41 2 75 5 75 3 0 5
-38 5 -85z m-2 -2112 l-2 -88 -3 78 c-2 42 -8 77 -13 77 -6 0 -10 5 -10 10 0
6 7 10 15 10 12 0 15 -15 13 -87z m-1 -510 c-1 -60 -3 -11 -3 107 0 118 2 167
3 108 2 -60 2 -156 0 -215z m0 -460 c-1 -54 -3 -12 -3 92 0 105 2 149 3 98 2
-51 2 -136 0 -190z m28493 -4998 c245 -14 448 -25 453 -25 6 0 11 -839 5 -841
-6 -2 -943 -56 -945 -54 -2 1 53 130 121 287 l123 285 -108 60 -109 60 -162
22 c-89 12 -164 23 -165 25 -3 3 65 156 73 165 2 2 38 10 81 17 43 8 79 18 81
22 1 5 26 7 55 5 28 -2 252 -15 497 -28z m-891 -941 c2 -2 -17 -4 -42 -4 -26
0 -47 4 -47 9 0 8 79 3 89 -5z m646 -2272 l100 -17 3 -58 3 -58 -2123 6 -2123
6 -187 36 c-128 25 -188 41 -188 50 0 8 15 13 43 14 256 5 3478 36 3862 37
438 1 524 -2 610 -16z"/>
</g>
</svg>
