<?xml version="1.0" standalone="no"?>
<!DOCTYPE svg PUBLIC "-//W3C//DTD SVG 20010904//EN"
 "http://www.w3.org/TR/2001/REC-SVG-20010904/DTD/svg10.dtd">
<svg version="1.0" xmlns="http://www.w3.org/2000/svg"
   viewBox="0 0 1618.000000 4872.000000"
 preserveAspectRatio="xMidYMid meet">
<metadata>
Created by potrace 1.16, written by Peter Selinger 2001-2019
</metadata>
<g transform="translate(0.000000,4872.000000) scale(0.100000,-0.100000)"
fill="#000000" stroke="none">
<path d="M6660 48644 c-229 -60 -336 -96 -635 -209 -404 -153 -628 -261 -776
-374 -72 -55 -96 -81 -152 -165 -104 -159 -112 -194 -297 -1209 l-160 -882
-710 -4870 c-391 -2678 -713 -4882 -716 -4897 l-6 -28 -108 0 -108 0 -11 -32
c-17 -56 -29 -129 -215 -1408 l-182 -1245 -299 -271 c-241 -219 -301 -278
-308 -305 -5 -19 -14 -41 -21 -49 -9 -10 -44 -292 -100 -790 -48 -426 -86
-784 -86 -796 0 -18 8 -22 53 -28 28 -3 66 -6 84 -6 30 0 31 -2 27 -32 -17
-114 -152 -1273 -149 -1276 2 -3 260 -15 572 -28 312 -14 573 -26 579 -28 6
-2 86 -100 177 -217 l167 -212 0 -108 0 -109 -346 0 -346 0 -79 -62 -79 -63 0
-242 0 -241 -40 -32 c-22 -17 -40 -40 -40 -51 0 -15 -7 -19 -35 -19 l-35 0 0
-450 0 -450 75 0 75 0 0 -155 0 -155 670 0 670 0 0 -35 0 -35 -1124 0 -1124 0
-239 -245 -238 -245 -82 0 -83 0 0 -50 0 -50 250 0 250 0 0 -403 0 -404 -134
-6 c-244 -12 -306 -19 -306 -33 0 -11 -18 -14 -70 -14 l-70 0 0 -30 0 -30
-400 0 -400 0 0 -155 0 -155 400 0 400 0 0 -50 0 -50 -400 0 -400 0 0 -160 0
-160 400 0 c324 0 400 -2 400 -13 0 -7 -25 -21 -55 -31 l-55 -17 0 -419 0
-419 55 -17 c30 -10 55 -24 55 -31 0 -11 -76 -13 -400 -13 l-400 0 0 -160 0
-160 400 0 400 0 0 -50 0 -50 -400 0 -400 0 0 -155 0 -155 400 0 400 0 0 -30
0 -30 70 0 c52 0 70 -3 70 -14 0 -14 53 -20 303 -32 l137 -7 0 -399 0 -398
-250 0 -250 0 0 -55 0 -55 83 0 83 0 238 -245 238 -245 1124 0 1124 0 0 -35 0
-35 -670 0 -670 0 0 -155 0 -155 -75 0 -75 0 0 -450 0 -450 35 0 c28 0 35 -4
35 -19 0 -11 18 -34 40 -51 l40 -32 0 -241 0 -242 79 -62 79 -63 346 0 346 0
0 -109 0 -108 -167 -212 c-91 -117 -171 -215 -177 -217 -6 -2 -266 -14 -579
-27 -312 -13 -569 -26 -572 -28 -3 -4 131 -1158 149 -1277 l5 -32 -80 0 c-65
0 -81 -3 -86 -17 -10 -27 168 -1585 183 -1604 8 -8 17 -30 20 -47 5 -26 61
-81 297 -294 160 -145 295 -266 300 -270 6 -3 90 -557 188 -1230 180 -1236
202 -1377 220 -1435 l11 -33 108 0 108 0 6 -27 c3 -16 325 -2219 716 -4898
l710 -4870 160 -880 c185 -1015 194 -1053 297 -1210 55 -84 80 -111 152 -166
145 -111 371 -220 766 -370 289 -110 400 -146 635 -209 l285 -77 5 1511 5
1511 493 4855 c271 2670 491 4875 490 4900 l-3 45 -140 96 c-86 59 -141 103
-143 115 -2 16 269 2343 283 2429 l5 30 218 54 c119 30 218 54 218 55 7 5 164
722 365 1665 l239 1123 0 279 0 279 -689 0 -689 0 -115 107 -115 108 -1 243
-1 242 59 0 c39 0 85 9 129 25 68 24 76 25 349 25 l279 0 38 110 c22 64 46
115 56 120 15 8 519 190 527 190 2 0 3 285 3 633 0 461 -3 636 -11 644 -9 9
-2 39 26 121 l38 110 136 27 c75 15 325 76 556 137 347 90 594 165 1420 428
2851 909 3131 991 4520 1330 176 43 340 86 364 94 63 23 99 53 195 164 77 89
86 104 110 183 25 83 26 92 26 369 0 277 -1 286 -26 369 -24 79 -33 94 -110
183 -90 103 -130 139 -179 158 -17 7 -340 90 -720 185 -1203 302 -1558 408
-4365 1305 -643 205 -868 272 -1240 369 -250 66 -507 129 -571 141 l-115 21
-39 110 c-28 83 -35 113 -26 122 8 8 11 183 11 643 l0 632 -27 10 c-16 5 -123
44 -239 85 -312 112 -275 86 -319 216 l-38 111 -277 0 c-269 0 -279 1 -350 25
-45 15 -96 25 -132 25 l-58 0 1 243 1 242 114 107 115 108 690 0 689 0 0 279
0 279 -239 1124 c-205 961 -358 1660 -364 1664 -1 1 -100 25 -219 55 l-218 54
-5 30 c-14 86 -285 2413 -283 2429 2 12 55 56 143 116 l140 96 3 45 c1 24
-219 2229 -490 4899 l-493 4855 -5 1511 -5 1511 -275 -73z m-1610 -21529 l0
-35 -335 0 -335 0 0 35 0 35 335 0 335 0 0 -35z m-4270 -1650 l0 -25 -330 0
-330 0 0 25 0 25 330 0 330 0 0 -25z m0 -120 l0 -35 -330 0 -330 0 0 35 0 35
330 0 330 0 0 -35z m0 -275 l0 -40 -330 0 -330 0 0 40 0 40 330 0 330 0 0 -40z
m0 -120 l0 -30 -330 0 -330 0 0 30 0 30 330 0 330 0 0 -30z m0 -1180 l0 -30
-330 0 -330 0 0 30 0 30 330 0 330 0 0 -30z m0 -120 l0 -40 -330 0 -330 0 0
40 0 40 330 0 330 0 0 -40z m0 -270 l0 -40 -330 0 -330 0 0 40 0 40 330 0 330
0 0 -40z m0 -125 l0 -25 -330 0 -330 0 0 25 0 25 330 0 330 0 0 -25z m4270
-1650 l0 -35 -335 0 -335 0 0 35 0 35 335 0 335 0 0 -35z"/>
</g>
</svg>
