<?xml version="1.0" standalone="no"?>
<!DOCTYPE svg PUBLIC "-//W3C//DTD SVG 20010904//EN"
 "http://www.w3.org/TR/2001/REC-SVG-20010904/DTD/svg10.dtd">
<svg version="1.0" xmlns="http://www.w3.org/2000/svg"
   viewBox="0 0 4692.000000 602.000000"
 preserveAspectRatio="xMidYMid meet">
<metadata>
Created by potrace 1.16, written by Peter Selinger 2001-2019
</metadata>
<g transform="translate(0.000000,602.000000) scale(0.100000,-0.100000)"
fill="#000000" stroke="none">
<path d="M4160 5980 l-205 -39 -1087 -1 -1088 0 0 -25 c0 -14 -1 -25 -2 -26
-2 0 -401 -58 -888 -128 l-885 -127 -3 -1092 c-2 -967 0 -1092 13 -1092 13 0
15 -55 15 -440 0 -385 -2 -440 -15 -440 -13 0 -15 -125 -13 -1092 l3 -1092
885 -127 c487 -70 886 -128 888 -128 1 -1 2 -12 2 -26 l0 -25 1083 0 1083 0
219 -40 219 -40 568 0 568 0 0 40 0 40 370 0 370 0 0 155 0 155 1788 0 c1478
0 1817 -3 1962 -15 145 -12 484 -15 1956 -15 l1781 0 241 30 242 30 830 0 830
0 0 -45 0 -45 4105 0 4105 0 0 -45 0 -45 151 0 c92 0 220 -8 327 -21 l177 -21
1155 16 c635 9 1592 21 2125 26 534 6 1321 15 1750 20 429 6 1518 15 2420 20
5109 30 4777 25 5690 95 360 28 532 48 1055 119 860 117 1289 180 1530 226
113 22 250 47 305 55 251 40 518 92 845 166 195 44 526 112 735 150 802 148
1438 314 2420 631 l500 162 256 166 c237 153 288 181 700 383 l444 218 117
180 117 179 -117 179 -117 180 -450 221 c-416 205 -469 234 -700 384 l-250
162 -500 162 c-983 317 -1618 483 -2420 631 -209 38 -540 106 -735 150 -350
79 -491 107 -792 156 -84 14 -245 43 -358 65 -241 46 -671 109 -1530 226 -521
71 -697 91 -1055 118 -909 71 -584 66 -5685 96 -905 5 -1994 14 -2420 20 -426
5 -1214 14 -1750 20 -536 5 -1495 17 -2130 26 l-1155 17 -172 -22 c-109 -13
-230 -21 -328 -21 l-155 0 0 -45 0 -45 -4105 0 -4105 0 0 -45 0 -45 -832 0
-833 0 -240 30 -240 30 -1780 0 c-1472 0 -1810 -3 -1955 -15 -145 -12 -484
-15 -1962 -15 l-1788 0 0 155 0 155 -370 0 -370 0 0 40 0 40 -577 -1 -578 -1
-205 -38z"/>
</g>
</svg>
