<?xml version="1.0" standalone="no"?>
<!DOCTYPE svg PUBLIC "-//W3C//DTD SVG 20010904//EN"
 "http://www.w3.org/TR/2001/REC-SVG-20010904/DTD/svg10.dtd">
<svg version="1.0" xmlns="http://www.w3.org/2000/svg"
   viewBox="0 0 4504.000000 1486.000000"
 preserveAspectRatio="xMidYMid meet">
<metadata>
Created by potrace 1.16, written by Peter Selinger 2001-2019
</metadata>
<g transform="translate(0.000000,1486.000000) scale(0.100000,-0.100000)"
fill="#000000" stroke="none">
<path d="M20350 14840 c0 -19 -8 -20 -307 -22 l-307 -3 -29 -72 -29 -73 -399
0 c-346 0 -400 -2 -405 -15 -5 -12 -29 -15 -129 -15 l-122 0 -7 -77 c-3 -42
-6 -114 -6 -160 l0 -83 -783 0 -782 0 -110 -110 -110 -110 -222 0 -223 0 -925
-462 -925 -463 0 -92 0 -93 -1075 0 -1075 0 0 -155 0 -155 -450 0 -450 0 0
230 0 230 -1140 0 -1140 0 0 -145 0 -145 -335 0 -335 0 0 -90 0 -90 -660 0
-660 0 0 89 c0 49 -4 100 -9 113 -8 21 -52 35 -457 146 l-449 123 -811 -1
c-784 0 -813 -1 -869 -20 -57 -20 -84 -20 -1808 -20 l-1751 0 -246 -145 -247
-145 -201 0 c-110 0 -203 -4 -206 -9 -3 -4 -39 -21 -81 -37 l-75 -29 0 -262 0
-263 35 0 35 0 0 -155 0 -155 -35 0 -35 0 0 -324 c0 -349 -2 -336 51 -336 17
0 19 -8 19 -60 l0 -60 -35 0 -35 0 0 -98 0 -98 80 -39 c56 -27 80 -44 80 -57
0 -17 14 -18 198 -18 l197 0 253 -185 252 -185 466 -2 466 -3 -449 -156 -448
-157 -3 -211 -2 -211 -94 0 c-78 0 -97 -3 -119 -20 -14 -11 -39 -20 -56 -20
l-31 0 0 -860 0 -860 27 0 c14 0 41 -11 59 -25 29 -23 42 -25 126 -25 76 0 98
4 123 20 22 14 47 20 91 20 l61 0 18 -40 18 -39 196 -6 c108 -3 373 -8 589
-10 l392 -5 0 -69 0 -69 -106 -26 -107 -27 -90 31 c-49 17 -93 28 -97 23 -16
-17 -52 -145 -43 -154 4 -4 26 -15 48 -22 l40 -14 0 -73 0 -73 -43 -15 c-24
-8 -45 -19 -48 -26 -2 -6 6 -43 19 -81 23 -66 26 -70 52 -67 15 2 57 15 93 29
l66 24 108 -26 108 -27 0 -69 0 -69 -392 -5 c-216 -2 -481 -7 -589 -10 l-196
-6 -18 -39 -18 -40 -61 0 c-44 0 -69 6 -91 20 -25 16 -47 20 -123 20 -84 0
-97 -2 -126 -25 -18 -14 -45 -25 -59 -25 l-27 0 0 -860 0 -860 31 0 c17 0 42
-9 56 -20 22 -17 41 -20 119 -20 l94 0 2 -211 3 -211 448 -157 449 -156 -469
-5 -468 -5 -252 -182 -251 -183 -196 0 c-182 0 -196 -1 -196 -18 0 -13 -24
-30 -80 -57 l-80 -39 0 -98 0 -98 35 0 35 0 0 -60 c0 -52 -2 -60 -19 -60 -53
0 -51 13 -51 -336 l0 -324 35 0 35 0 0 -155 0 -155 -35 0 -35 0 0 -263 0 -262
75 -29 c42 -16 78 -33 81 -37 3 -5 96 -9 206 -9 l201 0 247 -145 246 -145
1751 0 c1724 0 1751 0 1808 -20 56 -19 85 -20 869 -20 l811 -1 449 123 c405
111 449 125 457 146 5 13 9 64 9 113 l0 89 660 0 660 0 0 -90 0 -90 335 0 335
0 0 -145 0 -145 1140 0 1140 0 0 230 0 230 450 0 450 0 0 -155 0 -155 1075 0
1075 0 0 -93 0 -92 925 -463 925 -462 223 0 222 0 110 -110 110 -110 782 0
783 0 0 -83 c0 -46 3 -118 6 -160 l7 -77 122 0 c100 0 124 -3 129 -15 5 -13
59 -15 405 -15 l399 0 29 -72 29 -73 307 -3 c299 -2 307 -3 307 -22 0 -20 8
-20 510 -20 502 0 510 0 510 20 0 19 8 20 307 22 l307 3 29 73 29 72 399 0
c346 0 400 2 405 15 5 12 25 15 95 15 l89 0 0 50 0 50 40 0 40 0 0 115 0 115
138 0 138 0 869 820 869 820 2638 0 c2633 0 2638 0 2638 20 0 20 5 20 1047 18
l1047 -3 16 -65 16 -65 305 -3 304 -2 18 63 19 64 2269 5 2269 6 60 38 60 39
0 128 0 127 -205 0 -205 0 0 230 0 230 555 0 555 0 2 602 3 603 410 112 c226
61 420 114 433 118 22 5 22 7 22 185 l0 180 300 0 c273 0 300 2 300 17 0 15
18 16 207 9 164 -5 213 -10 232 -22 21 -14 51 -15 220 -10 108 3 240 9 294 12
93 6 97 7 97 29 0 30 47 26 -835 75 -401 22 -749 43 -772 46 l-43 5 0 425 0
424 398 0 c218 0 583 3 810 7 391 6 412 7 412 25 0 17 -20 18 -463 18 -255 0
-620 3 -810 7 l-347 6 0 364 0 363 -890 0 -890 0 0 675 0 675 375 0 375 0 0
135 0 135 515 0 515 0 0 85 0 85 35 0 c34 0 35 1 35 40 l0 40 485 0 485 0 98
-55 99 -55 645 0 645 0 69 -28 69 -29 875 33 c481 18 903 33 938 34 52 0 62 3
63 18 0 9 42 50 94 92 l95 75 0 48 0 47 134 0 135 0 18 30 17 30 303 0 303 0
0 45 0 45 -309 0 c-196 0 -312 4 -316 10 -4 6 -63 10 -146 10 -104 0 -139 3
-140 13 0 6 -42 46 -94 87 -52 41 -95 82 -95 90 0 14 -116 20 -939 50 l-939
34 -66 -27 -66 -27 -830 0 c-547 0 -830 3 -830 10 0 6 95 10 265 10 l266 0 22
24 22 24 1915 17 c1053 9 1917 19 1919 21 2 2 2 6 -1 9 -2 3 -865 13 -1917 24
l-1912 18 -23 22 c-22 20 -30 21 -289 21 l-267 0 0 200 0 200 -55 0 -55 0 0
60 0 60 -380 0 -380 0 0 310 0 310 -22 5 c-13 4 -207 57 -433 118 l-410 112
-3 233 -2 232 882 2 883 3 -3 63 -4 62 231 0 c147 0 231 4 231 10 0 6 46 10
118 10 90 0 123 4 140 16 19 13 111 15 794 13 425 0 817 2 871 6 91 7 97 9 97
30 0 21 -5 22 -132 29 -73 4 -466 7 -873 6 -644 -1 -743 1 -760 14 -15 12 -49
15 -137 16 l-118 0 0 70 0 70 -235 0 -235 0 0 180 0 180 -482 2 -481 3 -52
155 c-47 140 -54 155 -76 157 -148 15 -1046 43 -1366 43 l-403 0 0 30 0 30
205 0 205 0 0 128 0 127 -58 38 -59 37 -353 0 -354 0 52 53 52 53 0 197 0 197
-55 0 c-48 0 -55 3 -60 23 -4 19 -115 753 -115 763 0 2 -902 4 -2003 4 l-2004
0 -394 -372 c-217 -204 -479 -454 -584 -555 l-189 -183 -2136 1 -2135 0 -515
494 -515 495 -525 0 -525 0 -247 -247 -248 -248 -2 -191 -3 -191 -734 694
-735 693 -138 0 -138 0 0 115 0 115 -40 0 -40 0 0 50 0 50 -89 0 c-70 0 -90 3
-95 15 -5 13 -59 15 -405 15 l-399 0 -29 73 -29 72 -307 3 c-299 2 -307 3
-307 22 0 20 -8 20 -510 20 -502 0 -510 0 -510 -20z m-10810 -4075 l0 -215
-238 0 -239 0 -22 85 -23 85 -101 1 -102 1 125 23 c69 12 136 27 150 33 14 6
68 53 120 106 l95 96 117 0 118 0 0 -215z m-8400 49 l0 -86 -42 7 c-35 6 -57
21 -118 78 -41 39 -79 75 -84 79 -6 4 47 8 117 8 l127 0 0 -86z m8400 -6719
l0 -215 -118 0 -117 0 -99 99 c-110 110 -112 111 -290 141 l-101 18 102 1 101
1 23 85 22 85 239 0 238 0 0 -215z m-8400 -50 l0 -85 -127 0 -126 0 83 78 c76
71 104 88 153 91 15 1 17 -9 17 -84z"/>
</g>
</svg>
