<?xml version="1.0" standalone="no"?>
<!DOCTYPE svg PUBLIC "-//W3C//DTD SVG 20010904//EN"
 "http://www.w3.org/TR/2001/REC-SVG-20010904/DTD/svg10.dtd">
<svg version="1.0" xmlns="http://www.w3.org/2000/svg"
   viewBox="0 0 4694.000000 996.000000"
 preserveAspectRatio="xMidYMid meet">
<metadata>
Created by potrace 1.16, written by Peter Selinger 2001-2019
</metadata>
<g transform="translate(0.000000,996.000000) scale(0.100000,-0.100000)"
fill="#000000" stroke="none">
<path d="M21090 9938 c0 -16 -5 -18 -32 -14 -18 3 -89 10 -158 16 l-125 11
-620 -80 c-618 -79 -620 -80 -705 -117 -74 -32 -120 -43 -375 -84 -211 -35
-399 -75 -690 -145 -330 -81 -420 -99 -515 -105 -113 -8 -119 -9 -350 -98
l-235 -91 0 -31 c0 -31 -4 -33 -119 -86 -80 -36 -160 -83 -243 -143 l-124 -90
-131 -30 c-115 -28 -218 -68 -837 -328 -662 -278 -715 -302 -850 -387 l-144
-90 -116 17 c-64 10 -132 20 -151 23 -34 6 -37 3 -85 -62 -27 -37 -52 -71 -55
-75 -3 -4 -97 -12 -210 -19 l-205 -12 -485 -118 -485 -118 -610 -217 c-335
-119 -713 -256 -840 -305 l-230 -90 -440 15 c-242 8 -638 15 -880 15 -242 0
-483 3 -535 6 l-96 7 -173 706 c-95 388 -175 714 -177 723 -4 14 4 17 48 20
l52 3 31 135 c21 94 35 136 45 137 8 2 602 23 1320 48 718 25 1351 48 1408 51
l103 6 -3 36 -3 37 -1375 62 c-756 33 -1395 63 -1420 65 l-45 3 -30 118 -30
117 -1076 0 -1077 0 -120 -108 -121 -107 -1 -191 c0 -135 3 -193 12 -202 9 -9
-8 -12 -78 -12 l-91 0 -26 -68 -27 -67 0 -423 0 -422 -65 0 -64 0 -23 -47
c-21 -44 -23 -66 -28 -258 l-5 -210 -670 234 -670 233 -570 -96 c-313 -53
-578 -96 -587 -96 -9 0 -32 21 -50 47 -28 39 -48 53 -136 95 -98 46 -107 48
-190 48 -77 0 -471 -52 -604 -80 -39 -8 -188 -92 -188 -106 0 -12 -31 -208
-33 -211 -2 -1 -448 -78 -992 -171 l-990 -168 -3 -717 c-1 -394 -5 -717 -10
-717 -4 0 -128 -16 -275 -35 l-268 -35 -69 -41 -70 -41 0 -427 0 -426 68 -42
68 -42 270 -36 c148 -19 272 -35 277 -35 4 0 7 -321 7 -714 0 -672 1 -715 18
-720 9 -3 455 -80 991 -171 536 -91 976 -167 978 -168 2 -3 33 -199 33 -211 0
-14 149 -98 188 -106 128 -27 532 -80 606 -80 81 0 90 2 188 48 88 42 108 56
136 95 18 26 41 47 50 47 9 1 274 -43 587 -96 l570 -96 670 234 670 234 5
-211 c5 -192 7 -214 28 -257 l23 -48 64 0 65 0 0 -422 0 -423 27 -67 26 -68
91 0 c70 0 87 -3 78 -12 -9 -9 -12 -67 -12 -202 l1 -191 121 -107 122 -108
1076 0 1076 0 28 115 c15 63 31 117 35 120 4 2 635 32 1402 65 767 34 1404 63
1417 66 18 3 22 11 22 38 l0 34 -102 6 c-57 4 -688 27 -1403 51 -715 25 -1309
46 -1320 48 -16 2 -24 22 -50 137 l-31 135 -53 3 c-49 3 -53 5 -47 25 3 12 83
338 178 723 l172 701 74 7 c41 3 282 6 536 6 254 0 659 7 901 15 l439 15 231
-90 c127 -49 509 -187 850 -308 l620 -219 480 -116 c477 -115 481 -116 657
-126 98 -6 188 -11 201 -11 17 0 36 -19 77 -76 53 -74 55 -76 90 -70 19 3 87
13 151 23 l116 17 144 -90 c134 -84 191 -110 849 -386 619 -260 721 -301 837
-328 l132 -31 125 -90 c81 -58 165 -108 243 -143 114 -53 118 -55 118 -86 l0
-31 235 -90 c230 -88 237 -90 350 -98 93 -7 191 -27 513 -105 283 -69 483
-111 691 -145 253 -42 304 -54 376 -85 93 -40 65 -36 894 -141 429 -55 443
-56 555 -45 64 6 133 13 154 16 32 5 37 3 37 -13 0 -18 7 -19 113 -15 61 2
639 21 1282 42 l1170 39 910 140 910 139 852 231 852 231 758 321 757 321 601
404 600 404 420 463 420 463 1363 444 1362 445 0 87 c0 49 3 88 8 88 4 0 178
14 387 30 209 16 390 30 402 30 15 0 46 29 104 100 l83 100 51 0 c27 0 721 20
1540 45 820 25 1499 45 1511 45 16 0 27 17 54 80 l34 80 143 0 143 0 0 -25 c0
-18 5 -25 18 -25 11 0 963 25 2118 55 2369 62 3789 96 5189 125 894 18 1695
51 1695 70 0 3 -163 16 -362 28 -251 16 -660 29 -1323 42 -1672 35 -3812 87
-6350 155 -511 14 -942 25 -957 25 -23 0 -28 -4 -28 -25 l0 -25 -142 0 -143 0
-35 80 c-21 50 -40 80 -50 80 -8 0 -685 20 -1505 45 -819 25 -1515 45 -1545
45 l-56 0 -83 100 c-45 55 -90 100 -99 100 -9 0 -188 14 -397 30 -209 16 -386
30 -392 30 -10 0 -13 24 -13 88 l0 88 -1363 444 -1362 445 -420 463 -420 463
-601 404 -600 403 -757 321 -756 321 -853 231 -853 231 -910 140 -910 139
-1165 39 c-641 21 -1218 40 -1282 43 -111 4 -118 3 -118 -15z"/>
</g>
</svg>
