<?xml version="1.0" standalone="no"?>
<!DOCTYPE svg PUBLIC "-//W3C//DTD SVG 20010904//EN"
 "http://www.w3.org/TR/2001/REC-SVG-20010904/DTD/svg10.dtd">
<svg version="1.0" xmlns="http://www.w3.org/2000/svg"
   viewBox="0 0 3960.000000 1181.000000"
 preserveAspectRatio="xMidYMid meet">
<metadata>
Created by potrace 1.16, written by Peter Selinger 2001-2019
</metadata>
<g transform="translate(0.000000,1181.000000) scale(0.100000,-0.100000)"
fill="#000000" stroke="none">
<path d="M21730 11455 l0 -355 25 0 25 0 0 -180 0 -180 -271 0 -271 0 -78 -55
c-43 -30 -81 -55 -84 -55 -3 0 -6 52 -6 115 l0 115 -1916 0 -1916 0 -2185
-260 -2186 -260 -1594 0 -1595 0 -20 25 c-17 22 -27 25 -89 25 l-69 0 0 60 0
60 30 0 30 0 0 230 0 230 -40 0 c-36 0 -40 3 -40 25 0 21 5 25 30 25 l30 0 0
255 0 255 -179 0 -179 0 -91 -186 c-88 -180 -91 -189 -91 -255 l0 -69 35 0
c31 0 35 -3 35 -25 l0 -25 -103 0 -102 0 -73 -145 -72 -145 -445 0 -445 0 0
-170 0 -170 -560 0 -560 0 0 -123 0 -122 -267 -30 -268 -30 -3 -122 -3 -123
271 0 270 0 0 -25 0 -25 -1615 0 -1615 0 0 304 c0 167 -3 311 -6 320 -6 14
-103 16 -995 16 l-989 0 0 -300 c0 -165 -1 -300 -2 -300 -2 0 -57 -7 -123 -15
-65 -8 -121 -15 -122 -15 -2 0 -3 -243 -3 -539 l0 -539 68 -7 c37 -3 93 -8
125 -11 l57 -6 0 -129 0 -129 130 0 130 0 0 -235 0 -235 45 0 c25 0 45 -4 45
-10 0 -7 -225 -10 -655 -10 l-655 0 0 -45 0 -45 -265 0 -265 0 0 -1105 0
-1105 265 0 265 0 0 -45 0 -45 610 0 610 0 0 -215 0 -215 -130 0 -130 0 0
-134 0 -134 -108 -7 c-59 -4 -115 -9 -124 -11 -17 -5 -18 -40 -18 -543 l0
-539 98 -11 c53 -7 109 -14 124 -17 l28 -6 0 -299 0 -299 989 0 c892 0 989 2
995 16 3 9 6 155 6 325 l0 309 1615 0 1615 0 0 -305 0 -305 560 0 560 0 0 -84
0 -83 -82 -6 c-46 -4 -307 -7 -580 -7 l-498 0 0 -283 0 -283 577 -170 578
-171 3 -97 3 -96 183 0 184 0 7 -88 c3 -48 9 -99 11 -114 l6 -28 -66 0 -66 0
0 -375 0 -375 103 0 104 0 9 -85 9 -85 -46 0 -46 0 -6 -122 c-4 -66 -7 -222
-7 -345 l0 -223 201 2 201 3 99 335 c55 184 99 338 99 342 0 4 -30 8 -66 8
l-66 0 6 58 c4 31 9 69 12 84 l6 28 409 0 409 0 0 375 0 375 -371 0 -371 0 7
107 c4 60 9 111 12 115 2 5 159 8 349 8 l344 0 0 154 c0 139 2 155 18 160 9 3
94 21 187 41 94 20 180 39 193 42 l22 5 0 307 0 307 -207 50 -208 50 -3 82 -3
82 1677 0 1676 0 2180 -235 2181 -235 1933 0 1934 0 0 90 0 90 82 -55 83 -55
272 0 273 0 0 -180 0 -180 -25 0 -25 0 0 -360 0 -360 530 0 530 0 0 185 0 184
43 11 c23 7 68 19 100 27 l57 16 0 78 0 78 -68 20 c-38 12 -83 24 -100 27 -30
6 -32 9 -32 50 0 40 -2 44 -25 44 l-25 0 0 180 c0 153 2 180 15 180 13 0 15
31 15 218 l0 219 212 6 c116 4 277 7 357 7 l146 0 -4 -600 -3 -600 1351 0
1351 0 0 -39 0 -39 78 -9 c93 -10 855 -9 965 1 l77 8 0 39 0 39 2415 0 2415 0
0 420 0 420 90 0 90 0 0 95 0 95 373 -2 372 -3 3 -26 3 -26 432 5 432 5 1375
166 1375 167 3 122 3 122 469 0 470 0 0 -104 0 -104 143 -4 142 -5 273 140
272 140 0 727 0 727 -337 -63 c-186 -34 -372 -68 -413 -76 l-75 -14 -3 -47 -3
-47 -470 0 -469 0 0 98 0 97 648 119 c356 65 686 126 735 135 l87 16 0 672 0
673 125 0 c118 0 125 -1 125 -20 0 -19 7 -20 123 -20 186 0 817 30 860 41 l37
10 0 64 0 64 93 4 92 3 -92 2 -93 2 0 64 c0 59 -2 64 -25 70 -36 9 -731 46
-872 46 l-123 0 0 -25 0 -25 -125 0 -125 0 -2 677 -3 677 -635 116 c-349 65
-679 125 -732 135 l-98 17 0 74 0 74 470 0 470 0 0 -48 0 -48 398 -73 c218
-40 405 -75 415 -78 16 -4 17 35 17 724 l0 728 -269 138 -268 137 -147 0 -146
0 0 -110 0 -110 -470 0 -470 0 0 149 0 149 -42 6 c-24 3 -655 80 -1404 171
l-1361 165 -407 0 -406 0 0 -23 0 -24 -242 -6 c-133 -4 -301 -7 -375 -7 l-133
0 0 101 0 101 -90 -8 -90 -7 0 408 0 407 -2415 -7 -2415 -8 0 56 0 55 -127 8
c-177 11 -788 11 -900 0 l-93 -9 0 -53 0 -54 -1345 0 -1345 0 0 -606 0 -607
-77 7 c-42 3 -204 6 -360 6 l-283 0 0 225 c0 193 -2 225 -15 225 -13 0 -15 27
-15 180 l0 180 25 0 c22 0 25 4 25 40 0 43 -1 43 148 80 l52 14 0 80 0 81 -97
25 -98 26 -3 182 -2 182 -530 0 -530 0 0 -355z m-15020 -3500 l0 -575 -334 0
-335 0 -5 -52 c-32 -306 -32 -940 0 -1195 l5 -43 335 0 334 0 0 -580 0 -580
-1615 0 -1614 0 -3 73 -3 72 -152 5 -152 5 -39 52 -39 52 -6 143 c-4 79 -7
171 -7 205 l0 63 165 225 165 226 0 655 0 656 -165 226 -165 227 1 90 c0 49 4
153 7 231 l7 141 43 56 43 57 149 0 150 0 0 70 0 70 1615 0 1615 0 0 -575z"/>
</g>
</svg>
