<?xml version="1.0" standalone="no"?>
<!DOCTYPE svg PUBLIC "-//W3C//DTD SVG 20010904//EN"
 "http://www.w3.org/TR/2001/REC-SVG-20010904/DTD/svg10.dtd">
<svg version="1.0" xmlns="http://www.w3.org/2000/svg"
   viewBox="0 0 4272.000000 2142.000000"
 preserveAspectRatio="xMidYMid meet">
<metadata>
Created by potrace 1.16, written by Peter Selinger 2001-2019
</metadata>
<g transform="translate(0.000000,2142.000000) scale(0.100000,-0.100000)"
fill="#000000" stroke="none">
<path d="M1222 21274 c-89 -80 -162 -149 -162 -154 0 -34 180 -296 377 -547
l228 -292 80 -25 c123 -39 3494 -1032 3545 -1045 25 -7 51 -14 58 -16 15 -6
-136 -234 -155 -235 -6 0 -607 164 -1335 364 -728 200 -1331 366 -1339 368 -9
2 -59 -44 -123 -112 -59 -63 -113 -116 -120 -118 -10 -2 -1850 576 -2187 687
l-86 29 219 -372 c121 -204 232 -387 246 -406 53 -71 441 -456 957 -950 613
-587 1251 -1225 1454 -1454 l140 -158 -52 -48 c-153 -141 -88 -336 148 -444
50 -23 88 -30 227 -43 l167 -16 32 -33 32 -33 32 -541 c18 -297 35 -543 37
-546 3 -2 126 -31 274 -63 269 -59 270 -59 399 -54 l130 5 82 -118 c69 -99
126 -163 345 -381 l263 -262 632 -80 c348 -44 637 -82 642 -85 18 -11 963
-1377 957 -1383 -5 -5 -2357 -102 -2502 -103 l-61 0 -6 -107 c-3 -60 -4 -109
-4 -109 12 -8 3436 -125 3655 -124 l292 0 0 -85 c0 -61 3 -85 13 -85 6 0 158
-9 337 -20 419 -25 1574 -53 2028 -48 l352 3 0 -75 c0 -41 3 -92 6 -112 l7
-38 93 0 94 0 0 -1100 0 -1100 -94 0 -93 0 -7 -37 c-3 -21 -6 -72 -6 -113 l0
-75 -357 3 c-463 5 -1618 -23 -2028 -48 -176 -11 -326 -20 -332 -20 -10 0 -13
-24 -13 -85 l0 -85 -297 0 c-224 1 -3638 -116 -3650 -124 0 -1 1 -49 4 -108
l6 -108 66 0 c151 -1 2492 -97 2497 -103 6 -6 -939 -1371 -957 -1382 -5 -3
-293 -42 -641 -86 l-633 -80 -263 -262 c-217 -216 -277 -283 -345 -380 l-82
-119 -128 5 c-127 6 -129 5 -399 -53 -149 -33 -273 -62 -276 -64 -2 -3 -19
-249 -37 -546 l-32 -541 -32 -33 -32 -33 -167 -16 c-140 -13 -177 -20 -227
-43 -236 -108 -301 -303 -148 -444 l53 -48 -146 -164 c-210 -235 -815 -839
-1444 -1443 -529 -507 -908 -884 -962 -955 -14 -19 -112 -181 -218 -360 -106
-179 -204 -345 -220 -371 l-27 -45 1126 358 c619 196 1133 357 1141 358 8 0
64 -54 125 -119 l110 -118 45 13 c147 43 2633 724 2643 724 19 -1 171 -229
155 -234 -244 -70 -3670 -1081 -3676 -1085 -5 -3 -114 -141 -244 -306 -144
-185 -260 -344 -301 -414 -37 -62 -67 -117 -67 -121 0 -9 308 -290 325 -297 6
-2 789 255 1741 571 l1729 574 2145 485 2145 486 2450 406 c1348 223 2453 406
2457 408 3 1 50 58 103 126 53 68 176 214 273 325 96 111 181 208 189 217 11
13 -2 34 -93 152 -58 75 -109 137 -113 137 -5 0 -1095 -171 -2422 -380 l-2414
-379 -1097 -236 c-603 -129 -1101 -235 -1106 -235 -9 0 -236 260 -231 265 2 2
703 148 1558 324 l1554 321 2336 351 c2004 301 2338 354 2353 370 9 11 21 19
27 19 5 0 51 53 100 118 l91 118 1752 166 c1105 105 2800 257 4585 409 l2833
242 199 -132 199 -133 3668 371 3669 371 3250 624 3250 624 2074 908 2073 908
-28 23 c-43 34 -80 41 -284 53 -181 11 -1280 7 -1962 -6 l-298 -6 0 485 0 485
45 50 45 50 0 672 0 672 -45 50 -45 50 0 485 0 485 303 -6 c166 -4 685 -8
1152 -9 939 -2 1006 1 1080 50 l42 28 -2076 909 -2076 908 -3250 624 -3250
624 -3668 371 -3669 371 -199 -133 -199 -132 -2828 242 c-1786 152 -3474 303
-4585 408 l-1757 167 -90 118 c-50 65 -95 118 -101 118 -6 0 -18 9 -27 19 -15
16 -345 68 -2353 370 l-2336 351 -1554 321 c-855 177 -1556 322 -1557 324 -6
5 220 265 229 265 5 0 503 -106 1107 -235 l1097 -236 2385 -375 c1312 -206
2401 -377 2421 -380 l36 -6 107 138 c92 119 104 140 92 153 -7 9 -95 110 -195
225 -101 116 -224 263 -274 328 -50 65 -95 118 -99 118 -4 0 -1108 183 -2455
406 l-2448 405 -2145 486 -2145 485 -1728 574 c-950 316 -1731 574 -1736 574
-4 0 -80 -66 -169 -146z m6723 -7368 c376 -47 953 -109 1590 -171 l1000 -97
166 -165 166 -165 -4 -101 c-2 -56 -6 -148 -9 -205 l-6 -103 -1038 7 -1038 7
-7 -101 -8 -102 -276 0 -276 1 -455 630 c-250 347 -457 635 -459 641 -2 5 11
7 30 4 19 -4 300 -39 624 -80z m3998 -407 c172 -17 754 -59 1295 -93 540 -35
984 -65 986 -67 2 -2 -6 -147 -17 -321 l-21 -318 -297 0 -298 0 -5 53 c-3 28
-7 65 -8 82 -3 25 -8 30 -38 36 -19 4 -316 13 -659 19 l-625 11 -55 51 c-422
386 -601 554 -601 565 0 17 -18 18 343 -18z m5946 -389 c1554 -99 2945 -187
3090 -195 146 -9 266 -17 267 -18 1 -1 -932 -44 -2074 -94 l-2077 -93 -1072
-5 c-590 -3 -1073 -2 -1073 2 0 4 9 127 20 273 11 146 20 275 20 288 0 19 5
22 36 22 20 0 1309 -81 2863 -180z m4779 -524 c354 -24 645 -46 647 -48 2 -2
-160 -41 -361 -88 -200 -46 -368 -87 -373 -90 -4 -3 -11 -19 -14 -36 -5 -27 0
-39 39 -84 24 -28 44 -53 44 -55 0 -2 -60 -35 -132 -73 l-133 -69 -706 90
-706 90 -38 -29 -37 -28 -1037 128 c-1105 137 -1124 139 -1101 150 11 4 2987
174 3240 185 14 0 314 -19 668 -43z m-5788 -266 l0 -30 233 0 233 0 610 -90
c335 -49 621 -91 635 -94 21 -4 27 0 37 28 l12 32 952 -136 c774 -111 952
-139 949 -151 -2 -8 -6 -21 -8 -31 -6 -21 -46 -14 602 -103 302 -42 551 -77
553 -79 2 -2 -39 -26 -90 -54 l-93 -49 -435 23 c-239 13 -456 23 -482 24 l-48
0 0 -350 0 -350 -395 0 -395 0 0 65 0 65 -945 0 -945 0 0 -93 0 -94 -277 -6
c-153 -4 -437 -7 -630 -7 l-353 0 0 225 0 225 36 0 c20 0 60 7 90 16 l54 15 0
149 0 148 -44 11 c-31 8 -265 11 -755 11 l-711 0 0 123 c0 68 -3 165 -6 215
-7 89 -6 92 15 92 20 0 21 4 21 110 l0 110 44 0 c24 0 46 4 48 9 3 7 1063 46
1366 50 l122 1 0 -30z m-2102 -140 c1 -57 6 -107 11 -110 4 -3 11 -101 15
-217 l6 -213 -25 0 -25 0 0 -175 0 -175 714 0 713 0 5 -290 c3 -160 3 -421 0
-580 l-5 -290 -713 0 -714 0 0 -175 0 -175 25 0 25 0 -6 -212 c-4 -117 -11
-215 -15 -218 -5 -3 -10 -53 -11 -110 l-3 -105 -385 3 c-212 1 -485 5 -606 8
l-222 6 -4 94 c-2 51 -7 96 -10 99 -3 3 -257 11 -564 16 -307 5 -559 11 -561
12 -1 2 -8 56 -15 120 l-12 117 -98 0 -98 0 0 1100 0 1100 98 0 98 0 12 117
c7 64 14 118 15 120 2 1 254 7 561 12 307 6 561 13 564 16 4 3 8 48 10 100 l4
95 57 1 c255 7 839 15 981 15 l175 -1 3 -105z m2865 -1607 l217 -6 0 -94 0
-93 945 0 945 0 0 65 0 65 395 0 395 0 0 -350 0 -350 48 0 c26 0 243 11 482
24 l435 24 93 -50 c51 -28 92 -52 90 -53 -2 -2 -251 -38 -553 -80 -647 -89
-608 -82 -602 -103 2 -10 6 -23 8 -31 3 -12 -175 -40 -948 -151 l-953 -136
-11 33 c-8 27 -15 32 -32 28 -12 -3 -299 -45 -638 -95 l-616 -90 -232 0 -231
0 0 -30 c0 -24 -4 -30 -22 -30 -127 -2 -1464 45 -1466 52 -2 4 -24 8 -48 8
l-44 0 0 110 c0 106 -1 110 -21 110 -21 0 -22 3 -15 92 3 50 6 147 6 215 l0
123 711 0 c490 0 724 3 755 11 l44 11 0 148 0 149 -54 15 c-30 9 -70 16 -90
16 l-36 0 0 225 0 225 413 0 c226 0 510 -3 630 -7z m4885 -1269 c67 -36 122
-67 122 -69 0 -2 -20 -27 -44 -55 -39 -45 -44 -57 -39 -84 3 -17 10 -33 14
-36 5 -3 173 -44 373 -90 201 -46 363 -86 361 -88 -2 -2 -289 -23 -637 -47
l-633 -43 -1635 89 c-899 49 -1642 92 -1650 95 -8 4 -10 8 -5 10 14 5 2098
264 2126 264 12 0 38 -12 57 -26 l35 -27 701 90 c385 50 708 89 716 86 8 -2
70 -33 138 -69z m-8321 -901 c11 -175 19 -320 17 -322 -2 -2 -446 -32 -986
-67 -541 -34 -1123 -76 -1295 -93 -361 -36 -343 -35 -343 -18 0 8 127 130 283
273 155 142 302 278 327 301 l46 42 619 11 c341 7 638 15 660 19 35 6 40 10
43 36 1 17 5 54 8 83 l5 52 298 0 297 0 21 -317z m4970 214 c1139 -50 2071
-93 2070 -94 -1 -1 -81 -6 -177 -12 -96 -6 -1501 -95 -3122 -198 -1621 -102
-2950 -185 -2952 -182 -2 2 -11 108 -20 234 -9 127 -19 258 -22 293 l-6 63
1078 -6 1079 -5 2072 -93z m-10412 -8 l7 -102 1038 8 1038 7 6 -103 c3 -57 7
-150 9 -206 l4 -101 -166 -165 -166 -165 -1000 -97 c-684 -66 -1196 -121
-1620 -175 -341 -43 -622 -77 -623 -75 -2 2 202 289 455 639 l458 635 276 1
276 0 8 -101z"/>
</g>
</svg>
