<?xml version="1.0" standalone="no"?>
<!DOCTYPE svg PUBLIC "-//W3C//DTD SVG 20010904//EN"
 "http://www.w3.org/TR/2001/REC-SVG-20010904/DTD/svg10.dtd">
<svg version="1.0" xmlns="http://www.w3.org/2000/svg"
   viewBox="0 0 3927.000000 2255.000000"
 preserveAspectRatio="xMidYMid meet">
<metadata>
Created by potrace 1.16, written by Peter Selinger 2001-2019
</metadata>
<g transform="translate(0.000000,2255.000000) scale(0.100000,-0.100000)"
fill="#000000" stroke="none">
<path d="M12855 22344 l-500 -205 -159 -525 -160 -526 -688 -549 -688 -549 0
-253 c0 -239 -1 -255 -19 -271 -32 -29 -51 -102 -51 -195 0 -47 -4 -91 -8 -97
-4 -7 -291 -52 -658 -104 l-650 -93 -24 -41 c-21 -36 -24 -57 -29 -201 l-6
-160 -68 -10 c-63 -9 -71 -13 -98 -49 l-29 -40 0 -341 0 -341 29 -40 30 -40
313 -48 c172 -26 322 -51 333 -54 18 -5 -54 -17 -368 -62 l-87 -12 -25 -42
c-24 -41 -25 -49 -25 -228 l0 -186 -71 -7 c-68 -7 -71 -8 -95 -46 l-24 -39 0
-345 c0 -338 1 -347 22 -384 l22 -38 253 -39 c139 -21 253 -41 253 -44 0 -4
-60 -14 -132 -24 -189 -25 -181 -23 -206 -66 -21 -37 -22 -50 -22 -244 l0
-204 -64 -7 c-74 -8 -78 -10 -100 -52 -14 -28 -16 -77 -16 -375 0 -304 2 -348
18 -385 9 -24 20 -43 24 -43 3 0 309 -47 679 -105 370 -58 673 -105 673 -105
2 0 -12 -433 -18 -597 l-6 -163 37 -15 c29 -12 106 -17 387 -23 l351 -7 -180
-352 -180 -353 -591 0 -591 0 -7 -77 c-3 -42 -6 -98 -6 -125 l0 -48 -510 0
-510 0 -257 153 -258 152 -1535 -7 c-844 -4 -1566 -10 -1605 -13 l-70 -6 -174
-150 -175 -149 -455 0 c-251 0 -534 -3 -629 -7 l-172 -6 0 -102 0 -102 -52 -7
c-29 -3 -80 -6 -113 -6 -34 0 -400 -31 -815 -70 -733 -68 -765 -71 -1090 -130
l-335 -61 -295 -131 -295 -131 -135 -124 c-74 -68 -138 -134 -142 -146 -8 -29
-8 -835 0 -865 4 -12 68 -78 142 -146 l135 -124 297 -132 297 -131 328 -59
c318 -58 351 -62 1083 -129 415 -39 808 -73 873 -76 l117 -7 0 -124 0 -124
640 0 639 0 163 -139 163 -140 70 -6 c39 -3 765 -9 1615 -13 l1545 -7 250 152
250 153 507 0 508 0 0 -48 c0 -27 3 -83 6 -125 l7 -77 591 -2 591 -3 187 -365
c103 -201 188 -368 188 -371 0 -4 -156 -10 -347 -13 -278 -6 -357 -10 -390
-23 l-43 -16 5 -111 c15 -317 24 -641 17 -646 -4 -4 -284 -51 -622 -104 -338
-54 -640 -103 -671 -108 -88 -15 -89 -19 -89 -428 0 -431 -4 -417 132 -435
l47 -6 3 -207 c3 -178 6 -212 22 -243 l19 -37 176 -23 176 -24 -271 -43 -270
-44 -22 -41 c-21 -41 -22 -51 -22 -380 0 -332 0 -339 23 -377 23 -40 29 -43
119 -56 l46 -6 4 -187 c3 -173 5 -189 26 -226 l23 -41 209 -28 c115 -16 224
-31 241 -35 23 -5 -65 -22 -302 -59 l-334 -53 -27 -32 c-14 -17 -29 -47 -32
-67 -8 -48 -8 -610 0 -650 4 -17 21 -46 38 -64 27 -29 40 -34 99 -40 l67 -8 0
-160 c0 -151 1 -162 24 -201 l25 -42 648 -89 c490 -67 651 -93 661 -104 7 -10
12 -47 12 -97 0 -89 21 -170 52 -195 16 -14 18 -37 21 -269 l2 -255 685 -544
c377 -299 688 -549 691 -555 8 -14 295 -942 310 -1001 l10 -41 505 -204 c278
-112 507 -201 510 -199 2 3 26 113 52 244 41 203 51 239 65 236 9 -2 17 0 17
3 0 45 81 581 111 740 40 208 42 214 250 792 l208 583 81 1042 c139 1808 177
2269 186 2277 5 5 146 49 314 98 168 49 1622 474 3233 944 l2927 854 0 131 c0
72 -3 146 -6 163 l-6 31 -2934 2 -2933 3 366 708 366 707 889 0 888 0 210 105
c116 58 210 109 210 114 0 5 30 21 68 36 l67 27 495 19 c987 37 2180 61 2810
57 l595 -4 395 -173 395 -173 595 -39 595 -39 575 11 c516 10 637 15 1182 55
l607 44 188 65 189 65 980 174 979 174 1570 67 1570 66 2240 205 c1232 112
2605 238 3050 279 l810 75 385 84 c469 103 712 177 863 262 54 31 114 70 133
86 31 28 34 35 34 88 0 53 -3 60 -34 88 -19 16 -79 55 -134 87 -152 85 -419
166 -879 266 l-368 79 -1025 95 c-564 52 -1936 177 -3050 279 l-2025 185
-1565 66 -1565 66 -985 175 -984 175 -187 64 -188 65 -603 44 c-546 40 -659
45 -1188 55 l-585 11 -590 -39 -590 -38 -395 -173 -395 -172 -585 -5 c-612 -5
-1758 17 -2825 56 l-490 18 -67 27 c-38 16 -68 33 -68 40 0 6 -92 57 -205 114
l-205 102 -904 0 -904 0 -361 692 c-198 380 -360 693 -358 694 1 1 979 5 2172
8 1194 3 2513 9 2933 12 l762 6 0 163 0 164 -52 15 c-2486 713 -6416 1850
-6423 1857 -10 10 -63 638 -205 2414 l-72 900 -210 578 c-200 554 -210 585
-248 774 -29 140 -120 728 -120 769 0 1 -8 1 -17 0 -14 -1 -25 38 -67 242 -27
133 -52 242 -55 241 -3 0 -231 -93 -506 -205z"/>
</g>
</svg>
