<?xml version="1.0" standalone="no"?>
<!DOCTYPE svg PUBLIC "-//W3C//DTD SVG 20010904//EN"
 "http://www.w3.org/TR/2001/REC-SVG-20010904/DTD/svg10.dtd">
<svg version="1.0" xmlns="http://www.w3.org/2000/svg"
   viewBox="0 0 4182.000000 1585.000000"
 preserveAspectRatio="xMidYMid meet">
<metadata>
Created by potrace 1.16, written by Peter Selinger 2001-2019
</metadata>
<g transform="translate(0.000000,1585.000000) scale(0.100000,-0.100000)"
fill="#000000" stroke="none">
<path d="M8359 15767 l-405 -82 -251 -183 -250 -183 -208 -340 c-129 -213
-214 -362 -225 -398 -10 -31 -36 -129 -60 -217 l-42 -161 -229 -134 -229 -133
0 -109 0 -108 29 20 c22 16 44 21 96 21 62 0 71 -3 123 -41 51 -36 59 -47 79
-104 l21 -64 -21 -66 c-19 -58 -28 -71 -74 -105 -50 -38 -56 -40 -126 -40 -49
0 -80 5 -93 15 -10 8 -22 15 -26 15 -5 0 -8 -50 -8 -111 l0 -111 34 21 c24 15
50 21 95 21 56 0 66 -4 119 -42 54 -40 61 -48 78 -108 19 -64 19 -66 0 -130
-18 -59 -25 -69 -78 -107 -54 -40 -63 -43 -119 -43 -45 0 -71 6 -95 21 l-34
21 0 -59 0 -58 -135 -160 c-122 -145 -138 -169 -170 -250 -19 -49 -35 -107
-35 -127 l0 -38 -75 0 -75 0 0 75 0 75 -1142 -2 -1142 -3 -27 -70 -26 -70
-247 -3 -246 -2 0 28 c0 24 -20 46 -123 138 l-123 109 -1239 -59 c-682 -33
-1242 -61 -1243 -62 -2 -1 -8 -35 -14 -76 l-10 -73 123 -235 c67 -129 127
-238 133 -242 6 -4 419 -8 919 -8 l907 0 0 -65 0 -65 -520 0 -520 0 0 -140 0
-140 -34 0 c-18 0 -87 -22 -152 -49 l-119 -49 -47 -108 -47 -109 -1 -212 0
-212 -32 -5 c-18 -3 -175 -8 -348 -11 -173 -3 -390 -8 -483 -12 l-167 -6 2
-1016 3 -1015 75 -47 75 -46 0 -789 0 -788 -75 -47 -75 -46 -3 -1015 -2 -1016
122 -6 c68 -3 260 -8 428 -11 168 -3 344 -8 392 -11 l88 -6 0 -210 0 -209 42
-102 c22 -56 46 -107 52 -114 20 -21 235 -103 271 -103 l35 0 0 -140 0 -140
520 0 520 0 0 -65 0 -65 -907 0 c-500 0 -913 -4 -919 -8 -6 -4 -66 -114 -133
-244 l-123 -238 7 -63 c4 -35 10 -69 14 -74 3 -6 491 -34 1246 -70 l1239 -60
123 110 c104 92 123 114 123 138 l0 29 246 -2 246 -3 27 -70 27 -70 1142 -3
1142 -2 0 75 0 75 75 0 75 0 0 -1024 0 -1024 -50 -18 -50 -18 0 -402 0 -402
49 -36 49 -36 1193 0 1192 0 800 146 c764 140 801 148 823 173 23 26 23 26 23
341 0 310 0 315 -22 342 -21 26 -46 31 -832 175 l-810 149 -3 189 -2 190 195
247 195 247 0 330 0 331 448 0 c246 0 471 3 500 6 l52 7 0 43 0 44 420 0 420
0 0 -44 0 -43 53 -7 c68 -8 1146 -8 1215 0 l52 7 0 43 0 44 420 0 420 0 0 -44
0 -43 53 -7 c68 -8 1146 -8 1215 0 49 6 52 8 52 35 l0 29 939 0 c825 0 940 2
945 15 5 13 42 15 251 15 157 0 245 4 245 10 0 7 230 10 670 10 l670 0 0 45 0
45 920 0 920 0 566 85 567 85 1655 0 1655 0 147 90 147 90 309 0 c290 0 311
-1 342 -20 l32 -20 0 -106 0 -105 46 -65 46 -64 623 0 c416 0 624 3 627 10 2
6 76 -13 177 -45 l174 -55 1620 0 1619 0 104 45 c81 36 115 45 158 45 53 0 57
2 78 35 20 30 54 48 298 156 l275 122 1301 -82 1302 -81 768 -261 767 -260
635 90 634 90 945 372 945 372 756 405 c417 222 929 501 1140 620 l383 217
479 525 c263 289 494 545 513 570 75 100 205 335 222 403 10 37 16 69 14 71
-2 2 -274 -3 -604 -10 -470 -11 -1311 -12 -3890 -8 -2946 5 -3370 7 -4055 25
-420 11 -765 21 -766 22 -1 1 41 69 92 150 75 118 94 155 94 185 l0 37 85 24
85 23 0 683 0 682 -85 23 -85 23 0 38 c0 30 -18 66 -94 186 l-95 148 52 3
c546 27 1259 34 4482 43 2889 8 3515 7 4095 -6 376 -8 686 -12 689 -10 2 3 -6
38 -17 79 -24 82 -156 314 -240 418 -27 35 -256 289 -509 566 l-459 503 -379
215 c-209 118 -724 399 -1145 624 l-765 408 -941 371 -942 370 -634 91 -635
90 -764 -260 -764 -261 -1305 -81 -1305 -82 -273 120 c-243 108 -276 125 -299
158 -25 34 -29 36 -83 36 -46 0 -77 9 -159 45 l-101 45 -1616 0 -1616 0 -176
-56 c-114 -36 -178 -52 -180 -45 -3 8 -176 11 -627 11 l-623 0 -46 -65 -46
-66 0 -108 0 -107 -35 -17 c-31 -15 -75 -17 -341 -17 l-306 0 -150 90 -149 90
-1658 0 -1658 0 -567 85 -566 85 -915 0 -915 0 0 40 0 40 -670 0 c-589 0 -670
2 -670 15 0 13 -34 15 -245 15 -209 0 -246 2 -251 15 -5 13 -120 15 -945 15
l-939 0 0 29 c0 27 -2 28 -61 35 -34 3 -304 6 -599 6 -295 0 -565 -3 -599 -6
l-61 -7 0 -43 0 -44 -420 0 -420 0 0 44 0 43 -61 7 c-81 8 -1117 8 -1198 0
l-61 -7 0 -43 0 -44 -420 0 -420 0 0 45 c0 25 -1 46 -2 47 -2 1 -230 4 -507 7
l-504 6 -34 78 -33 79 0 914 0 914 85 124 85 124 0 654 0 654 -84 47 c-47 26
-90 47 -98 46 -7 0 -195 -37 -419 -82z"/>
</g>
</svg>
