<?xml version="1.0" standalone="no"?>
<!DOCTYPE svg PUBLIC "-//W3C//DTD SVG 20010904//EN"
 "http://www.w3.org/TR/2001/REC-SVG-20010904/DTD/svg10.dtd">
<svg version="1.0" xmlns="http://www.w3.org/2000/svg"
   viewBox="0 0 4492.000000 2741.000000"
 preserveAspectRatio="xMidYMid meet">
<metadata>
Created by potrace 1.16, written by Peter Selinger 2001-2019
</metadata>
<g transform="translate(0.000000,2741.000000) scale(0.100000,-0.100000)"
fill="#000000" stroke="none">
<path d="M15703 27397 l-43 -10 0 -120 0 -120 70 5 c68 5 70 5 70 -18 0 -23 3
-24 75 -24 l75 0 0 -30 c0 -29 -2 -30 -44 -30 -24 0 -58 -3 -75 -6 l-31 -6 0
-154 0 -154 50 0 c67 0 66 -16 -6 -108 -52 -68 -58 -72 -95 -72 l-39 0 0 -156
0 -157 350 5 350 5 0 -113 0 -114 -327 -1 -328 0 -460 -476 -460 -477 0 -290
0 -290 105 -46 105 -47 3 -109 3 -110 -111 -48 -110 -49 0 -336 0 -337 39 -38
39 -38 731 7 731 8 0 -287 0 -286 -448 0 -448 0 -32 -33 -32 -33 0 -355 0
-355 38 -37 38 -37 647 0 647 0 0 -65 0 -65 1025 0 1025 0 0 -209 0 -210 -47
-3 -47 -3 -43 -255 c-23 -140 -45 -265 -48 -277 l-5 -23 -476 0 -475 0 -125
-106 -124 -106 0 -1094 0 -1094 -239 0 -239 0 -287 -295 -287 -295 -1412 0
c-1085 0 -1415 -3 -1424 -12 -7 -7 -12 -31 -12 -55 l0 -43 -325 0 -325 0 0 98
0 97 -75 43 c-41 23 -79 42 -85 42 -7 0 -10 90 -10 268 l0 267 -155 108 -155
107 -2671 0 -2671 0 -154 -107 -154 -106 0 -91 0 -91 -210 -79 -210 -80 2
-1334 3 -1335 205 -77 205 -78 3 -129 3 -128 149 -102 148 -103 131 0 131 0 0
-159 0 -159 -192 -6 c-106 -4 -517 -13 -913 -21 -396 -8 -784 -17 -862 -20
l-143 -6 0 78 0 78 -156 172 -155 173 -78 0 -77 0 -200 453 -200 452 -77 3
-77 3 0 134 0 135 75 0 75 0 0 393 0 393 -73 72 -72 72 -635 0 -636 0 -72 -73
-72 -72 0 -393 0 -392 75 0 75 0 0 -135 0 -135 -654 0 -654 0 -63 -145 -64
-145 -242 0 -243 0 0 -105 0 -105 -312 -1 -313 0 -190 -47 -190 -47 -3 -1066
-2 -1066 185 -47 c117 -29 207 -46 245 -46 l60 0 0 -160 0 -160 -60 0 c-38 0
-128 -17 -245 -46 l-185 -47 2 -1066 3 -1066 190 -47 190 -47 313 0 312 -1 0
-105 0 -105 243 0 242 0 64 -145 63 -145 654 0 654 0 0 -135 0 -135 -75 0 -75
0 0 -393 0 -393 73 -72 72 -72 635 0 635 0 72 72 73 72 0 393 0 393 -75 0 -75
0 0 135 0 134 77 3 77 3 200 453 200 452 77 0 77 0 156 173 156 172 0 78 0 78
143 -6 c78 -3 471 -12 872 -20 402 -8 812 -18 913 -21 l182 -6 0 -159 0 -159
-131 0 -131 0 -148 -102 -149 -103 -3 -128 -3 -129 -205 -78 -205 -77 -3
-1335 -2 -1334 210 -80 210 -79 0 -91 0 -91 154 -106 154 -107 2671 0 2671 0
155 108 155 107 0 268 c0 177 3 267 10 267 6 0 44 19 85 42 l75 43 0 98 0 97
325 0 325 0 0 -43 c0 -24 5 -48 12 -55 9 -9 339 -12 1424 -12 l1412 0 287
-295 287 -295 239 0 239 0 0 -1094 0 -1094 124 -106 125 -106 475 0 476 0 5
-22 c3 -13 25 -138 48 -278 l43 -255 47 -3 47 -3 0 -210 0 -209 -1025 0 -1025
0 0 -65 0 -65 -648 0 -648 0 -37 -38 -37 -38 0 -355 0 -355 33 -32 33 -32 447
0 447 0 0 -110 0 -110 153 -285 152 -285 143 0 142 0 0 -52 c1 -47 26 -109
215 -533 l214 -480 256 -3 255 -2 0 -250 0 -250 -69 0 c-68 0 -69 0 -74 -30
l-6 -30 -151 0 -150 0 0 -184 c0 -113 -4 -187 -10 -191 -17 -11 -11 -51 11
-71 l21 -19 -42 -5 c-41 -5 -42 -5 -71 -80 -28 -70 -29 -79 -19 -128 l11 -52
209 0 208 0 12 50 c10 42 10 56 -4 90 -9 22 -16 45 -16 50 0 6 43 10 105 10
58 0 105 -2 105 -5 0 -3 -7 -22 -15 -42 -18 -42 -19 -65 -4 -116 l10 -37 207
2 206 3 12 45 c9 38 8 53 -8 95 -10 28 -18 51 -18 53 0 1 49 2 109 2 l109 0
-19 -50 c-16 -43 -17 -56 -7 -100 l11 -50 208 0 208 0 11 53 c11 49 10 57 -18
127 -29 72 -31 75 -67 80 l-37 5 21 19 c20 18 28 56 15 69 -3 3 -5 89 -4 191
l1 186 -149 0 -149 0 -6 30 c-6 30 -7 30 -72 30 l-65 0 0 250 0 250 690 0 690
0 0 -250 0 -250 -64 0 c-63 0 -65 0 -71 -30 l-7 -30 -149 0 -149 0 0 -184 c0
-113 -4 -187 -10 -191 -15 -9 -12 -51 5 -65 24 -20 18 -29 -21 -32 -35 -3 -37
-5 -66 -78 -28 -70 -29 -78 -18 -127 l11 -53 208 0 208 0 11 50 c10 44 9 56
-8 100 l-20 50 110 0 c61 0 110 -2 110 -4 0 -2 -9 -25 -19 -49 -17 -40 -18
-51 -7 -94 l12 -48 207 -3 206 -2 10 37 c15 51 14 74 -4 116 -8 20 -15 39 -15
42 0 3 47 5 105 5 62 0 105 -4 105 -10 0 -5 -7 -28 -16 -50 -14 -34 -14 -48
-4 -90 l12 -50 207 0 208 0 11 53 c11 48 10 57 -17 127 -28 72 -31 75 -66 80
l-37 5 27 25 27 25 656 5 657 5 -645 5 c-403 4 -654 10 -668 16 -24 10 -24 10
-22 197 l1 187 -150 0 -149 0 -7 30 c-6 30 -8 30 -71 30 l-64 0 0 250 0 250
208 0 207 0 203 481 c179 426 202 487 202 535 l0 54 168 0 167 0 158 280 157
280 0 115 0 115 205 0 205 0 0 50 c0 48 1 50 28 50 39 0 82 46 82 88 0 32 1
32 48 32 79 0 82 7 82 207 0 197 -3 203 -83 203 -45 0 -47 1 -47 28 0 34 -55
92 -88 92 -20 0 -22 5 -22 50 l0 50 -225 0 -225 0 0 65 0 65 -190 0 -190 0 0
210 0 210 49 0 48 0 78 212 c43 117 89 243 103 281 l24 67 567 0 566 1 78 107
77 107 0 192 0 192 -26 20 c-23 18 -41 21 -120 21 l-94 0 0 430 0 430 91 0
c76 0 96 3 120 21 l29 20 0 1073 c0 1206 8 1096 -79 1106 l-46 5 0 110 0 110
48 7 c78 11 77 8 77 198 0 149 -2 169 -18 183 -10 10 -29 17 -43 17 -68 1 -69
2 -69 120 l0 108 55 7 c39 4 58 12 65 25 6 12 10 182 10 449 l0 431 483 1
c265 0 591 6 724 13 l243 12 39 38 40 39 36 -31 c21 -19 47 -32 63 -32 15 0
207 16 427 35 l400 34 37 43 37 43 1 152 0 152 33 5 c17 3 60 8 95 11 l62 6 0
-223 0 -223 56 -49 55 -48 317 27 c174 14 327 28 340 31 17 3 22 11 22 38 0
33 0 33 58 39 31 4 129 11 217 18 150 11 162 13 188 37 20 19 27 35 27 63 0
24 5 39 16 43 9 3 109 6 223 6 l207 0 82 94 c74 85 82 99 82 135 l0 41 139 0
c83 0 142 4 146 10 3 6 21 10 38 10 21 0 44 10 64 28 32 27 32 27 48 188 8 89
15 164 15 168 0 3 14 6 30 6 l30 0 0 -270 c0 -233 2 -270 15 -270 13 0 15 37
15 269 l0 269 35 4 34 4 48 -108 48 -108 93 0 92 0 0 -54 c0 -51 3 -57 35 -82
l35 -26 0 -224 0 -224 -40 0 -40 0 0 -155 0 -155 -155 0 -155 0 0 -95 0 -95
63 -1 c46 0 89 -10 167 -38 l105 -38 3 -451 2 -452 -25 0 c-25 0 -25 -1 -25
-90 l0 -90 -30 0 -30 0 0 -65 0 -65 -99 0 -99 0 -11 -30 -10 -30 -95 0 -94 0
-61 -66 -61 -67 0 -194 0 -194 58 -65 57 -64 96 0 97 0 12 -30 12 -30 128 0
128 0 47 -55 47 -55 282 0 281 0 43 55 43 55 85 0 86 0 11 30 11 30 198 0 198
0 46 -70 47 -70 208 0 208 0 45 47 46 48 0 364 0 363 -41 49 -41 49 -213 0
-214 0 -43 -63 -44 -62 -201 -3 -201 -2 -10 30 c-10 28 -14 30 -61 30 l-51 0
0 330 c0 285 -2 331 -15 336 -13 5 -15 54 -15 354 0 300 2 349 15 354 11 4 15
20 15 56 l0 50 -45 0 -45 0 0 155 0 155 -35 0 -35 0 0 228 0 227 30 20 c27 18
30 25 30 78 l0 57 94 0 95 0 50 53 51 52 0 273 0 272 150 0 150 0 0 -112 0
-113 73 -47 73 -48 325 0 324 1 48 64 47 65 249 0 249 0 48 -65 48 -65 333 0
334 0 74 50 75 51 0 154 0 155 234 0 234 0 125 -130 126 -130 163 0 163 0 86
-86 87 -86 228 -29 c126 -15 235 -28 242 -29 9 0 12 -14 10 -46 l-3 -47 -92
-35 -93 -35 0 -113 0 -114 485 0 c415 0 495 2 550 16 l65 16 0 49 0 49 190 0
190 0 0 -114 0 -113 98 -60 97 -60 3 -221 2 -222 208 0 208 0 22 30 23 30 127
0 128 0 29 -30 c28 -29 31 -30 122 -30 l93 0 0 220 0 220 430 0 430 0 533
-340 534 -340 470 0 471 0 6 -22 c3 -13 6 -80 6 -150 l0 -127 34 -16 c19 -9
42 -25 52 -36 14 -16 31 -19 109 -19 88 0 92 1 120 30 16 16 37 30 47 30 17 0
18 12 18 155 l0 155 115 0 115 0 0 -63 c0 -35 3 -105 6 -155 6 -77 10 -92 24
-92 9 0 29 -13 45 -30 28 -29 32 -30 120 -30 88 0 92 1 120 30 16 16 37 30 47
30 17 0 18 12 18 155 l0 155 114 0 113 0 7 -61 c3 -34 6 -104 6 -155 0 -84 2
-94 18 -94 10 0 31 -14 47 -30 28 -29 32 -30 120 -30 88 0 92 1 120 30 16 16
37 30 47 30 17 0 18 12 18 155 l0 155 174 0 175 0 11 58 c7 31 15 73 19 92 6
30 11 35 37 38 28 3 32 -2 59 -58 l29 -60 173 0 173 0 30 60 c27 53 34 60 60
60 17 0 30 5 30 10 0 6 38 10 95 10 95 0 95 0 125 32 29 33 29 33 30 161 l0
127 83 1 c45 1 111 6 146 13 l64 11 46 82 46 83 448 0 447 0 0 140 0 140 265
0 265 0 0 55 0 55 -265 0 c-170 0 -265 4 -265 10 0 6 94 10 262 10 230 0 264
2 280 17 17 15 73 17 573 21 l555 5 0 23 0 24 -449 0 c-289 0 -452 4 -456 10
-3 6 -52 10 -110 10 -58 0 -107 4 -110 10 -4 6 -107 10 -276 10 l-269 0 0 80
0 80 -292 2 c-298 1 -301 4 -38 27 58 5 170 9 250 10 l146 1 66 68 66 67 101
265 c56 146 129 322 161 392 l60 126 0 272 0 272 -60 126 c-32 70 -105 246
-161 392 l-101 265 -67 68 -67 68 -245 10 c-407 15 -449 25 -111 27 l292 2 0
80 0 80 269 0 c169 0 272 4 276 10 3 6 52 10 110 10 58 0 107 4 110 10 4 6
167 10 456 10 l449 0 0 24 0 23 -555 5 c-500 4 -556 6 -573 21 -16 15 -50 17
-280 17 -168 0 -262 4 -262 10 0 6 95 10 265 10 l265 0 0 55 0 55 -265 0 -265
0 0 140 0 140 -447 0 -448 0 -46 83 -46 82 -64 11 c-35 7 -101 12 -146 13
l-83 1 0 128 c-1 127 -1 127 -30 160 -30 32 -30 32 -125 32 -57 0 -95 4 -95
10 0 6 -13 10 -30 10 -26 0 -33 7 -60 60 l-30 60 -173 0 -173 0 -29 -60 c-27
-56 -31 -61 -59 -58 -26 3 -31 8 -37 38 -4 19 -12 61 -19 93 l-11 57 -175 0
-174 0 0 155 c0 143 -1 155 -18 155 -10 0 -31 14 -47 30 -28 29 -32 30 -120
30 -88 0 -92 -1 -120 -30 -16 -16 -37 -30 -47 -30 -16 0 -18 -10 -18 -94 0
-51 -3 -121 -6 -155 l-7 -61 -113 0 -114 0 0 155 c0 143 -1 155 -18 155 -10 0
-31 14 -47 30 -28 29 -32 30 -120 30 -88 0 -92 -1 -120 -30 -16 -16 -36 -30
-45 -30 -14 0 -18 -15 -24 -92 -3 -50 -6 -120 -6 -155 l0 -63 -115 0 -115 0 0
155 c0 143 -1 155 -18 155 -10 0 -31 14 -47 30 -28 29 -32 30 -118 30 -83 0
-92 -2 -126 -28 -20 -16 -44 -32 -53 -35 -16 -6 -18 -22 -18 -134 0 -70 -3
-138 -6 -151 l-6 -22 -471 0 -470 0 -534 -340 -533 -340 -430 0 -430 0 0 220
0 220 -93 0 c-91 0 -94 -1 -122 -30 l-29 -30 -128 0 -127 0 -23 30 -22 30
-208 0 -208 0 -2 -222 -3 -221 -97 -60 -98 -60 0 -113 0 -114 -190 0 -190 0 0
49 0 49 -65 16 c-55 14 -135 16 -550 16 l-485 0 0 -114 0 -114 93 -34 92 -33
3 -48 c2 -33 -1 -47 -10 -47 -7 0 -116 -13 -242 -29 l-228 -29 -87 -86 -86
-86 -164 0 -165 0 -124 -130 -124 -130 -234 0 -234 0 0 155 0 154 -75 51 -74
50 -334 0 -333 0 -48 -65 -48 -65 -249 0 -249 0 -47 65 -48 64 -324 1 -325 0
-73 -47 -73 -48 0 -112 0 -113 -150 0 -150 0 0 273 0 272 -51 53 -50 52 -95 0
-94 0 0 58 c0 53 -2 58 -33 80 -18 12 -48 22 -65 22 l-32 0 0 468 c0 448 -1
468 -20 492 -19 24 -20 44 -20 510 0 467 1 486 20 515 13 19 20 47 20 78 l0
47 130 0 c149 0 144 -3 138 101 l-3 54 -309 3 c-241 2 -311 -1 -318 -10 -12
-20 -9 -123 4 -136 7 -7 25 -12 40 -12 l28 0 0 -808 0 -808 -72 -30 -73 -29
-3 -218 c-2 -214 -3 -217 -24 -217 -11 0 -37 -12 -55 -26 -33 -25 -35 -29 -31
-80 l3 -54 -95 0 -95 0 -48 -108 -48 -108 -34 4 -35 4 0 269 c0 232 -2 269
-15 269 -13 0 -15 -37 -15 -270 l0 -270 -30 0 c-16 0 -30 3 -30 6 0 4 -7 79
-15 168 -16 161 -16 161 -48 189 -20 17 -43 27 -64 27 -17 0 -35 5 -38 10 -4
6 -63 10 -146 10 l-139 0 0 41 c0 36 -8 50 -82 135 l-82 94 -207 0 c-114 0
-214 3 -223 6 -11 4 -16 19 -16 43 0 28 -7 44 -27 63 -26 24 -38 26 -188 37
-88 7 -186 14 -217 18 -58 6 -58 6 -58 39 0 27 -5 35 -22 38 -13 3 -166 17
-340 31 l-317 27 -55 -48 -56 -49 0 -223 0 -223 -62 6 c-35 3 -78 8 -95 11
l-33 5 0 152 -1 152 -37 43 -37 43 -399 34 c-220 19 -412 35 -428 35 -16 0
-41 -12 -63 -32 l-36 -31 -40 39 -39 38 -243 12 c-133 7 -459 13 -724 13
l-483 1 0 431 c0 267 -4 437 -10 449 -7 13 -26 21 -65 25 l-55 7 0 108 c0 118
1 119 71 120 53 0 59 21 59 202 0 187 1 185 -77 196 l-48 7 0 110 0 110 48 7
c27 3 55 12 63 18 12 11 14 163 14 1086 l0 1073 -29 20 c-24 18 -44 21 -120
21 l-91 0 0 430 0 430 94 0 c79 0 97 3 120 21 l26 20 0 193 0 192 -77 107 -78
107 -567 0 -566 0 -10 28 c-5 15 -47 128 -92 252 -45 124 -87 237 -92 253 -9
24 -15 27 -59 27 l-49 0 0 210 0 210 190 0 190 0 0 65 0 65 225 0 225 0 0 50
c0 46 2 50 23 50 32 0 87 59 87 93 0 26 2 27 48 27 79 0 82 7 82 207 0 197 -3
203 -83 203 -47 0 -47 0 -47 33 0 41 -44 87 -83 87 -26 0 -27 2 -27 49 l0 49
-205 7 -205 7 0 662 0 662 -115 48 -115 49 0 107 0 107 110 48 c61 26 113 52
116 57 3 5 3 135 -1 289 l-8 280 -466 475 -466 475 -537 -4 -538 -3 0 113 0
113 352 0 351 0 -6 235 -7 235 50 0 50 0 0 154 0 154 -31 6 c-17 3 -51 6 -75
6 -42 0 -44 1 -44 30 l0 30 75 0 c72 0 75 1 75 24 0 23 2 23 70 18 l70 -5 0
120 0 120 -51 11 c-35 8 -201 12 -540 12 l-489 0 -66 -25 -66 -25 -555 0
c-375 0 -568 -4 -599 -11 l-44 -11 0 -94 0 -94 70 0 c63 0 70 -2 70 -20 0 -18
7 -20 75 -20 l75 0 0 -30 c0 -29 -2 -30 -44 -30 -24 0 -58 -3 -75 -6 l-31 -6
0 -139 0 -139 -295 0 -295 0 0 139 0 139 -31 6 c-17 3 -51 6 -75 6 -42 0 -44
1 -44 30 l0 30 75 0 c68 0 75 2 75 20 0 18 7 20 70 20 l70 0 0 94 0 94 -44 11
c-31 7 -224 11 -600 11 l-555 0 -69 25 -69 25 -494 -1 c-298 -1 -511 -5 -536
-12z m1025 -282 c49 -7 52 -8 52 -36 0 -28 -2 -29 -44 -29 -24 0 -58 -3 -75
-6 l-31 -6 0 -138 0 -137 -122 -6 c-66 -4 -147 -7 -180 -7 l-58 0 0 144 0 144
-31 6 c-17 3 -51 6 -75 6 -42 0 -44 1 -44 30 0 28 3 30 38 31 20 1 48 5 62 9
27 10 423 5 508 -5z m830 0 c49 -7 52 -8 52 -36 0 -28 -2 -29 -44 -29 -24 0
-58 -3 -75 -6 l-31 -6 0 -139 0 -139 -180 0 -180 0 0 139 0 139 -31 6 c-17 3
-51 6 -75 6 -42 0 -44 1 -44 30 0 28 3 30 38 31 20 1 48 5 62 9 27 10 423 5
508 -5z m1890 0 c49 -7 52 -8 52 -36 0 -28 -2 -29 -44 -29 -24 0 -58 -3 -75
-6 l-31 -6 0 -134 0 -134 -180 0 -180 0 0 134 0 134 -31 6 c-17 3 -51 6 -75 6
-42 0 -44 1 -44 30 0 28 3 30 38 31 20 1 48 5 62 9 27 10 423 5 508 -5z m830
0 c49 -7 52 -8 52 -36 0 -28 -2 -29 -44 -29 -24 0 -58 -3 -75 -6 l-31 -6 0
-134 0 -134 -180 0 -180 0 0 134 0 134 -31 6 c-17 3 -51 6 -75 6 -42 0 -44 1
-44 30 0 28 3 30 38 31 20 1 48 5 62 9 27 10 423 5 508 -5z m-4018 -9428 c0
-1 -51 -52 -112 -112 l-113 -110 110 113 c102 104 115 117 115 109z m-420
-430 c0 -1 -62 -63 -137 -137 l-138 -135 135 138 c125 127 140 142 140 134z
m-957 -977 l-548 -560 -67 -157 -66 -158 -1 -832 -1 -833 -28 0 c-21 0 -43
-15 -87 -60 l-59 -60 -258 0 -258 0 0 31 c0 26 -23 55 -151 190 l-152 159
-122 0 -122 0 -107 115 -108 115 -294 0 -294 0 0 335 0 335 133 1 132 0 145
102 145 103 3 827 2 827 410 0 410 0 0 -43 c0 -24 5 -48 12 -55 9 -9 211 -12
848 -12 l835 0 95 95 c52 52 96 95 98 95 2 0 -244 -252 -545 -560z m-6443
-1705 l0 -325 -375 0 -375 0 0 325 0 325 375 0 375 0 0 -325z m1120 0 l0 -325
-380 0 -380 0 0 325 0 325 380 0 380 0 0 -325z m1120 0 l0 -325 -380 0 -380 0
0 325 0 325 380 0 380 0 0 -325z m1120 -10 l0 -335 -205 0 c-130 0 -205 4
-205 10 0 6 -65 10 -175 10 l-175 0 0 325 0 325 380 0 380 0 0 -335z m2285
-2325 c44 -45 66 -60 87 -60 l28 0 1 -832 1 -833 66 -158 67 -157 549 -563
c302 -309 504 -518 450 -464 l-99 97 -836 0 c-636 0 -838 -3 -847 -12 -7 -7
-12 -31 -12 -55 l0 -43 -410 0 -410 0 -2 827 -3 827 -145 103 -145 102 -132 0
-133 1 0 335 0 335 294 0 294 0 107 115 107 115 123 0 122 0 152 159 c128 135
151 164 151 190 l0 31 258 0 258 0 59 -60z m-2285 -885 l0 -335 -380 0 -380 0
0 325 0 325 175 0 c110 0 175 4 175 10 0 6 75 10 205 10 l205 0 0 -335z
m-3360 -10 l0 -325 -375 0 -375 0 0 325 0 325 375 0 375 0 0 -325z m1120 0 l0
-325 -380 0 -380 0 0 325 0 325 380 0 380 0 0 -325z m1120 0 l0 -325 -380 0
-380 0 0 325 0 325 380 0 380 0 0 -325z m5035 -2555 c77 -77 137 -140 135
-140 -3 0 -68 63 -145 140 -77 77 -137 140 -135 140 3 0 68 -63 145 -140z
m545 -557 c0 -8 -13 5 -110 105 l-105 107 108 -105 c59 -57 107 -106 107 -107z"/>
</g>
</svg>
