<?xml version="1.0" standalone="no"?>
<!DOCTYPE svg PUBLIC "-//W3C//DTD SVG 20010904//EN"
 "http://www.w3.org/TR/2001/REC-SVG-20010904/DTD/svg10.dtd">
<svg version="1.0" xmlns="http://www.w3.org/2000/svg"
   viewBox="0 0 3197.000000 5000.000000"
 preserveAspectRatio="xMidYMid meet">
<metadata>
Created by potrace 1.16, written by Peter Selinger 2001-2019
</metadata>
<g transform="translate(0.000000,5000.000000) scale(0.100000,-0.100000)"
fill="#000000" stroke="none">
<path d="M23356 49958 c-3 -24 -32 -1150 -65 -2503 -34 -1353 -64 -2515 -67
-2582 l-6 -123 302 0 302 0 -6 118 c-3 64 -33 1226 -67 2582 -33 1356 -62
2484 -65 2508 l-5 42 -159 0 -159 0 -5 -42z"/>
<path d="M23190 44710 c0 -5 -13 -119 -30 -253 -29 -238 -32 -250 -100 -466
l-71 -222 -44 -822 c-24 -452 -46 -850 -49 -884 l-5 -63 104 0 105 0 0 -765 0
-765 -160 0 -160 0 0 -230 0 -230 -100 0 -100 0 0 240 0 240 -409 0 -408 0 -6
-57 c-3 -32 -34 -561 -69 -1175 l-62 -1118 -67 -85 c-62 -79 -67 -90 -73 -148
-3 -34 -51 -872 -106 -1862 -55 -990 -103 -1819 -106 -1842 l-5 -43 -1129 0
-1129 0 -15 -22 c-9 -12 -16 -33 -16 -45 l0 -23 -420 0 c-365 0 -421 -2 -426
-15 -5 -12 -32 -15 -154 -15 -122 0 -149 3 -154 15 -5 13 -70 15 -504 15 -432
0 -501 -2 -512 -15 -10 -12 -41 -15 -155 -15 -118 0 -144 3 -149 15 -5 13 -76
15 -555 15 l-549 0 -31 -48 c-27 -43 -31 -57 -31 -120 l0 -72 -147 0 c-374 1
-4197 -31 -4350 -36 l-173 -6 0 -64 0 -64 103 0 c56 0 1092 -9 2302 -20 1210
-11 2215 -20 2233 -20 l32 0 0 -70 c0 -60 4 -76 31 -120 l31 -50 548 0 c478 0
549 2 554 15 4 12 31 15 155 15 123 0 150 -3 155 -15 5 -13 70 -15 506 -15
436 0 501 2 506 15 5 12 32 15 155 15 124 0 151 -3 155 -15 5 -13 62 -15 425
-15 415 0 419 0 419 -20 0 -12 7 -32 16 -45 l16 -25 1494 0 1493 0 18 31 c17
29 21 30 63 25 25 -2 192 -13 373 -23 l327 -17 0 -193 c0 -106 -3 -193 -7
-193 -30 0 -173 50 -238 84 l-80 41 143 3 142 3 0 114 0 115 -765 0 -765 0 0
-2870 0 -2871 -192 2 c-106 2 -208 -1 -225 -5 l-33 -8 0 -71 c0 -127 -11 -205
-29 -210 -9 -2 -26 -32 -40 -71 -13 -37 -29 -69 -35 -72 -40 -13 -426 -54
-518 -54 -62 0 -349 -16 -638 -35 -289 -19 -626 -40 -750 -45 -124 -5 -488
-27 -810 -50 -322 -22 -1156 -76 -1855 -120 -698 -44 -1313 -84 -1365 -89
-145 -16 -518 -35 -2125 -111 -814 -39 -1883 -90 -2375 -115 -499 -25 -1549
-67 -2375 -95 -1581 -53 -2764 -109 -2925 -138 l-95 -17 -6 -37 c-3 -20 -10
-43 -16 -50 -17 -21 -34 -141 -27 -190 l6 -46 -221 -7 c-121 -4 -379 -4 -573
0 l-353 7 -930 -92 c-843 -83 -987 -100 -1543 -181 -495 -72 -635 -89 -729
-89 l-116 0 -101 -100 c-93 -91 -105 -107 -139 -187 -20 -49 -46 -127 -57
-175 -20 -88 -20 -88 0 -175 11 -49 37 -127 57 -176 34 -80 46 -96 139 -187
l101 -100 116 0 c94 0 234 -17 729 -89 556 -81 700 -98 1543 -181 l930 -92
351 7 c194 4 452 4 574 0 l222 -7 -6 -46 c-7 -49 10 -169 27 -190 6 -7 13 -30
16 -50 l6 -37 95 -17 c161 -29 1344 -85 2925 -138 826 -28 1876 -70 2375 -95
492 -25 1561 -76 2375 -115 1607 -76 1980 -95 2125 -111 52 -5 667 -45 1365
-89 699 -44 1533 -98 1855 -120 322 -23 686 -45 810 -50 124 -5 461 -26 750
-45 289 -19 576 -35 638 -35 92 0 478 -41 518 -54 6 -3 22 -35 35 -72 14 -39
31 -69 40 -71 18 -5 29 -83 29 -210 l0 -71 33 -8 c17 -4 119 -7 225 -5 l192 2
0 -2871 0 -2870 765 0 765 0 0 115 0 114 -142 3 -143 3 80 41 c65 34 208 84
238 84 4 0 7 -87 7 -193 l0 -193 -327 -17 c-181 -10 -348 -21 -373 -23 -42 -5
-46 -4 -63 25 l-18 31 -1493 0 -1494 0 -16 -25 c-9 -13 -16 -33 -16 -45 0 -20
-4 -20 -419 -20 -363 0 -420 -2 -425 -15 -8 -22 -301 -22 -310 0 -5 13 -70 15
-506 15 -436 0 -501 -2 -506 -15 -9 -22 -302 -22 -310 0 -5 13 -76 15 -554 15
l-548 0 -31 -50 c-27 -44 -31 -60 -31 -120 l0 -70 -32 0 c-18 0 -1023 -9
-2233 -20 -1210 -11 -2246 -20 -2302 -20 l-103 0 0 -64 0 -64 173 -6 c153 -5
3976 -37 4350 -36 l147 0 0 -71 c0 -62 4 -77 32 -122 l32 -52 545 3 c463 2
548 5 557 17 17 22 286 22 304 0 19 -23 1008 -23 1016 0 5 12 32 15 154 15
122 0 149 -3 154 -15 5 -13 61 -15 426 -15 l420 0 0 -23 c0 -12 7 -33 16 -45
l15 -22 1129 0 1129 0 5 -42 c3 -24 51 -853 106 -1843 55 -990 103 -1828 106
-1862 6 -58 11 -69 73 -148 l67 -85 62 -1118 c35 -614 66 -1143 69 -1174 l6
-58 408 0 409 0 0 240 0 240 100 0 100 0 0 -230 0 -230 160 0 160 0 0 -765 0
-765 -105 0 -104 0 5 -62 c3 -35 25 -433 49 -885 l44 -822 71 -222 c68 -216
71 -228 100 -466 17 -134 30 -248 30 -253 0 -6 123 -10 330 -10 216 0 330 3
330 10 0 6 13 120 30 255 29 239 31 249 100 465 l71 220 44 823 c24 452 46
850 48 885 l5 62 -104 0 -104 0 0 765 0 765 160 0 160 0 0 230 0 230 95 0 95
0 0 -240 0 -240 480 0 480 0 0 28 c0 15 93 1636 207 3602 146 2541 207 3655
210 3853 l4 277 94 0 95 0 0 -65 0 -65 50 0 c27 0 65 8 85 17 l35 17 0 2703 0
2702 -30 16 c-16 8 -54 15 -85 15 l-55 0 0 -65 0 -65 -95 0 -95 0 0 135 0 135
198 0 197 1 45 61 45 62 220 38 c213 37 225 38 390 33 131 -4 249 0 510 20
306 23 430 26 1242 35 880 10 903 11 950 31 26 12 149 57 273 100 l225 79 93
93 93 93 -9 167 -8 167 -49 50 -49 50 352 0 352 0 0 140 0 140 488 0 489 0 30
43 c53 74 58 141 58 847 0 706 -5 773 -58 848 l-30 42 -489 0 -488 0 0 140 0
140 -352 0 -352 0 49 50 49 50 8 167 9 167 -93 93 -93 93 -225 79 c-124 43
-247 88 -273 100 -47 20 -69 21 -950 31 -813 9 -936 12 -1242 35 -261 20 -379
24 -510 20 -165 -5 -177 -4 -390 33 l-220 38 -45 62 -45 61 -197 1 -198 0 0
135 0 135 95 0 95 0 0 -65 0 -65 55 0 c31 0 69 7 85 15 l30 16 0 2702 0 2703
-35 17 c-20 9 -58 17 -85 17 l-50 0 0 -65 0 -65 -95 0 -94 0 -4 278 c-3 197
-64 1311 -210 3852 -114 1966 -207 3587 -207 3603 l0 27 -480 0 -480 0 0 -240
0 -240 -95 0 -95 0 0 230 0 230 -160 0 -160 0 0 765 0 765 104 0 104 0 -5 63
c-2 34 -24 432 -48 884 l-44 823 -71 220 c-69 216 -71 226 -100 465 -17 135
-30 249 -30 255 0 7 -114 10 -330 10 -207 0 -330 -4 -330 -10z m-410 -4870 l0
-30 -100 0 -100 0 0 30 0 30 100 0 100 0 0 -30z m1670 0 l0 -30 -95 0 -95 0 0
30 0 30 95 0 95 0 0 -30z m-1670 -120 l0 -40 -100 0 -100 0 0 40 0 40 100 0
100 0 0 -40z m1670 0 l0 -40 -95 0 -95 0 0 40 0 40 95 0 95 0 0 -40z m-1670
-610 l0 -440 -100 0 -100 0 0 440 0 440 100 0 100 0 0 -440z m1670 0 l0 -440
-95 0 -95 0 0 440 0 440 95 0 95 0 0 -440z m-1670 -2125 l0 -1115 -100 0 -100
0 0 1115 0 1115 100 0 100 0 0 -1115z m1670 0 l0 -1115 -95 0 -95 0 0 1115 0
1115 95 0 95 0 0 -1115z m-1840 -1685 c0 -296 -2 -340 -15 -340 -13 0 -15 44
-15 340 0 296 2 340 15 340 13 0 15 -44 15 -340z m1840 0 c0 -220 -4 -340 -10
-340 -6 0 -10 120 -10 340 0 220 4 340 10 340 6 0 10 -120 10 -340z m-1670
-859 l0 -289 -62 -6 c-35 -3 -202 -13 -372 -22 -304 -17 -309 -17 -323 2 -14
19 -8 19 272 22 l285 2 0 290 0 290 100 0 100 0 0 -289z m1670 -436 l0 -725
-75 0 -75 0 0 -115 0 -114 143 -3 142 -3 -80 -41 c-65 -34 -208 -84 -238 -84
-4 0 -7 407 -7 905 l0 905 95 0 95 0 0 -725z m-8920 -75 l0 -50 69 0 c39 0 73
-4 76 -10 3 -5 24 -10 46 -10 28 0 39 -4 39 -15 0 -13 -24 -15 -155 -15 l-155
0 0 75 0 75 40 0 40 0 0 -50z m4470 -4 c0 -25 -4 -48 -10 -51 -5 -3 -10 -15
-10 -26 0 -19 -12 -19 -500 -19 -438 0 -500 2 -500 15 0 11 11 15 39 15 22 0
43 5 46 10 3 6 37 10 76 10 l69 0 0 45 0 45 395 0 395 0 0 -44z m-3450 14 c0
-6 41 -10 104 -10 59 0 108 4 111 10 4 6 77 10 186 10 l179 0 0 -35 0 -35 64
0 c36 0 68 -4 71 -10 3 -5 26 -10 51 -10 32 0 44 -4 44 -15 0 -13 -94 -15
-785 -15 -691 0 -785 2 -785 15 0 11 11 15 39 15 22 0 43 5 46 10 3 6 37 10
76 10 l69 0 0 35 0 35 265 0 c170 0 265 -4 265 -10z m1315 0 c4 -6 55 -10 121
-10 69 0 114 4 114 10 0 6 110 10 310 10 l310 0 0 -35 0 -35 69 0 c39 0 73 -4
76 -10 3 -5 24 -10 46 -10 28 0 39 -4 39 -15 0 -13 -94 -15 -785 -15 -691 0
-785 2 -785 15 0 11 12 15 44 15 25 0 48 5 51 10 3 6 35 10 71 10 l64 0 0 35
0 35 124 0 c73 0 127 -4 131 -10z m-2105 -334 c0 -14 -84 -26 -182 -26 l-48 0
0 -55 c0 -59 -5 -63 -57 -49 -21 6 -23 12 -23 75 l0 69 155 0 c124 0 155 -3
155 -14z m1600 0 c0 -14 -84 -26 -182 -26 l-48 0 0 -40 0 -40 -180 0 c-113 0
-180 4 -180 10 0 6 -43 10 -109 10 -63 0 -112 -4 -116 -10 -4 -6 -103 -10
-266 -10 l-259 0 0 40 0 40 -47 0 c-99 0 -183 12 -183 26 0 12 131 14 785 14
654 0 785 -2 785 -14z m1590 0 c0 -14 -84 -26 -182 -26 l-48 0 0 -40 0 -40
-309 0 c-265 0 -310 2 -315 15 -4 12 -27 15 -116 15 -89 0 -112 -3 -116 -15
-5 -12 -29 -15 -130 -15 l-124 0 0 40 0 40 -47 0 c-99 0 -183 12 -183 26 0 12
131 14 785 14 654 0 785 -2 785 -14z m1038 -13 c6 -15 12 -46 12 -70 l0 -43
-395 0 -395 0 0 50 0 50 -47 0 c-99 0 -183 12 -183 26 0 12 85 14 498 14 l497
0 13 -27z m-3590 -120 c-71 -2 -185 -2 -255 0 -71 1 -13 3 127 3 140 0 198 -2
128 -3z m655 0 c-45 -2 -122 -2 -170 0 -48 1 -11 3 82 3 94 0 133 -2 88 -3z
m735 0 c-32 -2 -86 -2 -120 0 -35 2 -9 3 57 3 66 0 94 -1 63 -3z m785 0 c-84
-2 -222 -2 -305 0 -84 1 -16 3 152 3 168 0 236 -2 153 -3z m5776 -16414 c42
-12 112 -40 156 -63 l80 -41 -142 -3 -143 -3 0 -114 0 -115 75 0 75 0 0 -725
0 -725 -95 0 -95 0 0 905 c0 498 3 905 7 905 4 0 41 -10 82 -21z m-8819 -584
l0 -55 48 0 c98 0 182 -12 182 -26 0 -11 -31 -14 -155 -14 l-155 0 0 69 c0 74
2 77 58 80 20 1 22 -3 22 -54z m868 48 c-71 -2 -185 -2 -255 0 -71 1 -13 3
127 3 140 0 198 -2 128 -3z m655 0 c-45 -2 -122 -2 -170 0 -48 1 -11 3 82 3
94 0 133 -2 88 -3z m735 0 c-32 -2 -86 -2 -120 0 -35 2 -9 3 57 3 66 0 94 -1
63 -3z m785 0 c-84 -2 -222 -2 -305 0 -84 1 -16 3 152 3 168 0 236 -2 153 -3z
m1427 -46 c0 -24 -6 -55 -12 -70 l-13 -27 -497 0 c-413 0 -498 2 -498 14 0 14
84 26 183 26 l47 0 0 50 0 50 395 0 395 0 0 -43z m-3455 13 c4 -6 53 -10 116
-10 66 0 109 4 109 10 0 6 67 10 180 10 l180 0 0 -40 0 -40 48 0 c98 0 182
-12 182 -26 0 -12 -131 -14 -785 -14 -654 0 -785 2 -785 14 0 14 84 26 183 26
l47 0 0 40 0 40 259 0 c163 0 262 -4 266 -10z m1319 -5 c4 -12 27 -15 116 -15
89 0 112 3 116 15 5 13 50 15 315 15 l309 0 0 -40 0 -40 48 0 c98 0 182 -12
182 -26 0 -12 -131 -14 -785 -14 -654 0 -785 2 -785 14 0 14 84 26 183 26 l47
0 0 40 0 40 124 0 c101 0 125 -3 130 -15z m-2104 -330 c0 -11 -11 -15 -39 -15
-22 0 -43 -4 -46 -10 -3 -5 -37 -10 -76 -10 l-69 0 0 -50 0 -50 -40 0 -40 0 0
75 0 75 155 0 c131 0 155 -2 155 -15z m1600 0 c0 -11 -12 -15 -44 -15 -25 0
-48 -4 -51 -10 -3 -5 -35 -10 -71 -10 l-64 0 0 -35 0 -35 -179 0 c-109 0 -182
4 -186 10 -3 6 -52 10 -111 10 -63 0 -104 -4 -104 -10 0 -6 -95 -10 -265 -10
l-265 0 0 35 0 35 -69 0 c-39 0 -73 5 -76 10 -3 6 -24 10 -46 10 -28 0 -39 4
-39 15 0 13 94 15 785 15 691 0 785 -2 785 -15z m1590 0 c0 -11 -11 -15 -39
-15 -22 0 -43 -4 -46 -10 -3 -5 -37 -10 -76 -10 l-69 0 0 -35 0 -35 -310 0
c-200 0 -310 4 -310 10 0 6 -45 10 -114 10 -66 0 -117 -4 -121 -10 -4 -6 -58
-10 -131 -10 l-124 0 0 35 0 35 -64 0 c-36 0 -68 5 -71 10 -3 6 -26 10 -51 10
-32 0 -44 4 -44 15 0 13 94 15 785 15 691 0 785 -2 785 -15z m1030 -4 c0 -11
5 -23 10 -26 6 -3 10 -26 10 -51 l0 -44 -395 0 -395 0 0 45 0 45 -69 0 c-39 0
-73 5 -76 10 -3 6 -24 10 -46 10 -28 0 -39 4 -39 15 0 13 62 15 500 15 488 0
500 0 500 -19z m2465 -281 c182 -11 331 -20 333 -20 1 0 2 -130 2 -290 l0
-290 -100 0 -100 0 0 290 0 290 -285 0 c-283 0 -286 0 -275 20 13 25 8 25 425
0z m165 -1170 c0 -296 -2 -340 -15 -340 -13 0 -15 44 -15 340 0 296 2 340 15
340 13 0 15 -44 15 -340z m1840 0 c0 -220 -4 -340 -10 -340 -6 0 -10 120 -10
340 0 220 4 340 10 340 6 0 10 -120 10 -340z m-1670 -1685 l0 -1115 -100 0
-100 0 0 1115 0 1115 100 0 100 0 0 -1115z m1670 0 l0 -1115 -95 0 -95 0 0
1115 0 1115 95 0 95 0 0 -1115z m-1670 -2125 l0 -440 -100 0 -100 0 0 440 0
440 100 0 100 0 0 -440z m1670 0 l0 -440 -95 0 -95 0 0 440 0 440 95 0 95 0 0
-440z m-1670 -610 l0 -40 -100 0 -100 0 0 40 0 40 100 0 100 0 0 -40z m1670 0
l0 -40 -95 0 -95 0 0 40 0 40 95 0 95 0 0 -40z m-1670 -120 l0 -30 -100 0
-100 0 0 30 0 30 100 0 100 0 0 -30z m1670 0 l0 -30 -95 0 -95 0 0 30 0 30 95
0 95 0 0 -30z"/>
<path d="M23224 5128 c3 -68 33 -1230 67 -2583 33 -1353 62 -2479 65 -2502 l5
-43 159 0 159 0 5 43 c3 23 32 1151 65 2507 34 1356 64 2518 67 2583 l6 117
-302 0 -302 0 6 -122z"/>
</g>
</svg>
