<?xml version="1.0" standalone="no"?>
<!DOCTYPE svg PUBLIC "-//W3C//DTD SVG 20010904//EN"
 "http://www.w3.org/TR/2001/REC-SVG-20010904/DTD/svg10.dtd">
<svg version="1.0" xmlns="http://www.w3.org/2000/svg"
   viewBox="0 0 4516.000000 3784.000000"
 preserveAspectRatio="xMidYMid meet">
<metadata>
Created by potrace 1.16, written by Peter Selinger 2001-2019
</metadata>
<g transform="translate(0.000000,3784.000000) scale(0.100000,-0.100000)"
fill="#000000" stroke="none">
<path d="M18087 37822 c-9 -10 -42 -36 -72 -58 l-55 -39 0 -307 0 -308 -138 0
-138 0 -85 -542 -85 -543 -117 -3 -117 -3 0 -213 0 -214 -72 -6 c-40 -3 -287
-12 -548 -20 -498 -16 -488 -15 -502 -58 -2 -5 -284 -13 -658 -19 -360 -5
-819 -14 -1020 -18 -201 -5 -908 -9 -1571 -10 -1409 -1 -1959 -9 -1959 -26 0
-11 1819 -25 3325 -25 300 0 534 -4 553 -10 19 -5 324 -12 678 -16 l645 -7 15
-29 c14 -27 17 -28 87 -28 122 0 808 -20 875 -26 l62 -6 0 -299 0 -299 55 0
c65 0 62 12 35 -155 -11 -66 -20 -123 -20 -127 0 -5 119 -8 265 -8 l265 0 0
-435 0 -435 -364 0 -364 0 -142 -80 -142 -80 -457 0 -456 0 -28 -50 -28 -50
-1144 0 c-847 0 -1151 -3 -1170 -12 -21 -9 -25 -18 -25 -55 0 -37 4 -45 26
-53 16 -6 450 -10 1169 -10 l1144 0 27 -50 27 -50 323 0 324 0 2 -321 3 -320
274 -155 274 -154 254 0 253 0 0 -271 0 -271 45 -58 c43 -56 45 -62 45 -124
l0 -66 -45 0 -45 0 0 -185 0 -185 -249 0 -250 0 -21 -30 -21 -30 -805 0 -804
0 0 -50 0 -50 808 0 807 0 17 -30 17 -30 251 0 250 0 0 -195 0 -195 29 0 c62
0 61 4 61 -187 l0 -174 -45 7 -45 6 0 -391 0 -391 -170 0 -170 0 0 -90 0 -90
-645 0 -645 0 0 -435 0 -435 -2310 0 -2310 0 0 -465 0 -465 -390 0 -390 0 0
-130 0 -130 -2275 0 -2275 0 0 -370 0 -370 -634 0 -633 0 -6 68 c-4 37 -7 239
-7 450 l0 382 -465 -2 -465 -3 -61 -132 -62 -133 -826 0 -826 0 -62 133 -62
132 -473 3 -473 3 -467 -103 -468 -103 0 -1272 0 -1273 22 -5 c13 -3 219 -50
459 -105 l437 -100 479 0 480 0 36 80 36 80 883 0 883 0 31 -78 32 -77 464 -3
465 -2 6 112 c4 62 7 218 7 347 l0 234 398 -6 c218 -4 504 -7 635 -7 l237 0 0
-199 0 -199 368 -7 c400 -8 4057 2 4135 11 l47 6 0 -1523 0 -1524 -2275 3
-2275 2 0 -200 0 -200 -635 0 -635 0 0 228 c0 125 -3 278 -7 340 l-6 112 -465
-2 -464 -3 -32 -77 -31 -78 -883 0 -883 0 -36 80 -36 80 -481 0 -481 -1 -455
-103 -455 -103 -3 -1274 -2 -1275 467 -103 468 -102 473 3 474 3 61 133 61
132 828 -2 829 -3 59 -130 59 -130 465 -3 464 -2 4 449 c1 247 6 452 9 455 4
4 290 3 638 0 l631 -7 0 -364 0 -363 2214 0 c1217 0 2241 -3 2275 -6 l61 -7 0
-118 0 -119 390 0 390 0 0 -213 c0 -118 3 -356 7 -530 l6 -317 -1976 0 -1977
0 -55 -110 c-30 -60 -55 -119 -55 -130 0 -20 -6 -20 -355 -20 l-356 0 -47 -24
-48 -24 -952 -9 c-523 -5 -955 -12 -958 -16 -4 -4 -5 -9 -3 -12 3 -2 434 -9
957 -15 l952 -10 50 -25 49 -25 356 0 355 0 0 -65 0 -65 -355 0 -356 0 -51
-26 -51 -26 -948 -7 c-521 -4 -951 -10 -955 -14 -4 -4 -4 -10 0 -14 4 -4 434
-11 956 -15 l948 -7 51 -25 50 -26 356 0 355 0 0 -22 c0 -13 25 -74 57 -135
l58 -113 1976 0 1976 0 6 -202 c4 -112 7 -310 7 -440 l0 -238 3270 0 3270 0 0
265 0 265 2478 0 c1363 0 2729 -3 3035 -7 l557 -6 0 -244 0 -243 724 0 723 0
7 -122 c3 -68 8 -278 11 -468 3 -190 8 -360 11 -377 l5 -33 239 0 240 0 0 -80
0 -80 -35 0 -35 0 0 -70 0 -70 -88 0 c-49 0 -1164 -112 -2480 -250 -2371 -247
-2394 -250 -2663 -302 l-271 -53 -357 -181 -356 -182 -3 -110 -3 -109 -402 -7
c-221 -3 -653 -9 -959 -12 -524 -6 -558 -8 -558 -24 0 -16 15 -19 143 -24 78
-3 423 -8 767 -11 344 -3 712 -8 818 -11 l192 -6 0 -194 c0 -107 -1 -194 -2
-195 -11 -2 -1184 -38 -1260 -39 -97 0 -98 0 -112 -28 l-15 -29 -646 -7 c-359
-4 -657 -11 -671 -16 -15 -6 -794 -12 -1954 -17 -1465 -5 -1930 -9 -1930 -18
0 -17 538 -25 1945 -26 666 -1 1372 -5 1570 -10 198 -5 659 -13 1025 -19 366
-6 666 -14 668 -19 15 -43 -7 -41 672 -62 355 -11 660 -22 678 -25 l32 -5 0
-78 0 -78 360 -212 360 -211 125 0 125 0 2 -212 3 -212 490 -138 490 -137 228
-1 227 0 0 -485 0 -485 -3465 0 -3465 0 1 -987 0 -988 4619 -4090 c2541 -2250
4635 -4103 4654 -4119 l35 -29 1188 491 c653 270 1212 501 1241 513 l52 22 0
4593 0 4594 -558 0 -559 0 -6 317 c-4 174 -7 396 -7 493 l0 177 450 129 450
128 0 213 0 213 110 0 110 0 0 190 0 190 228 0 c125 0 904 7 1732 15 828 8
1612 15 1743 15 l237 0 0 30 0 30 -202 0 c-112 0 -959 7 -1883 15 -924 8
-1719 15 -1767 15 l-88 0 0 829 0 828 358 7 c196 3 1005 11 1797 16 792 6
1518 13 1613 16 l172 6 0 24 0 24 -157 0 c-87 0 -835 7 -1663 15 -828 8 -1643
15 -1812 15 l-308 0 0 150 0 150 -170 0 -170 0 0 28 c0 15 -3 44 -6 65 -6 33
-10 37 -35 37 l-29 0 0 80 0 80 224 0 224 0 6 123 c3 67 11 253 16 412 6 160
13 332 16 382 l6 93 794 0 794 0 0 1460 0 1460 23 4 c12 3 85 15 162 26 76 11
140 22 141 23 1 1 45 79 98 173 61 109 96 182 96 201 l0 30 572 6 c314 4 803
7 1087 7 284 0 600 3 704 7 l187 6 0 132 0 132 503 6 c276 4 681 10 900 14
l397 6 0 22 0 22 -347 6 c-192 4 -559 9 -818 12 -258 3 -507 8 -552 11 l-83 6
0 149 0 149 -145 0 -145 0 0 349 0 350 268 3 c147 2 276 -1 288 -5 11 -5 137
-5 280 0 l259 8 3 38 3 37 -188 2 c-103 1 -351 0 -550 -2 l-363 -3 0 243 0
243 372 -5 c204 -4 452 -4 550 -1 l178 6 0 33 c0 32 -1 33 -52 38 -105 11
-472 14 -497 5 -15 -6 -128 -7 -288 -3 l-263 7 0 203 0 203 43 5 c23 3 295 13
605 22 l563 18 14 25 c8 14 18 32 23 39 7 10 318 19 1538 42 841 16 1591 30
1667 30 l137 0 0 25 0 25 -1293 0 c-712 0 -1463 3 -1671 7 l-376 6 -20 32 -20
32 -262 7 c-145 3 -417 9 -605 12 -326 6 -343 8 -343 25 0 18 10 19 123 19
185 0 167 -23 167 210 l0 197 243 6 c133 4 519 9 857 12 338 3 634 8 658 11
33 4 42 9 42 24 0 14 -9 20 -32 24 -18 3 -253 7 -523 11 -269 3 -660 8 -867
12 l-378 6 0 82 0 82 -757 6 c-417 4 -991 7 -1275 7 l-518 0 0 31 c0 43 -187
378 -215 384 -11 3 -80 16 -154 30 -73 13 -136 27 -140 30 -3 4 -7 255 -9 559
l-3 553 233 6 c128 4 951 18 1828 33 877 14 1605 28 1618 30 20 4 22 10 22 58
l0 55 -52 5 c-29 3 -766 16 -1638 31 -872 14 -1681 28 -1797 32 l-213 6 0 153
0 154 574 0 574 0 12 30 c7 17 18 30 24 30 38 -1 877 42 904 46 23 4 32 10 32
24 0 10 -3 21 -8 24 -4 2 -207 14 -452 26 -245 12 -455 23 -466 26 -12 2 -27
17 -34 34 l-12 30 -570 2 -569 3 205 149 206 149 0 134 0 133 2855 0 2855 0 0
-70 0 -70 195 0 195 0 -5 -22 c-17 -75 -106 -651 -101 -656 5 -4 1343 114
1527 135 l46 5 5 -71 c3 -40 8 -75 12 -78 4 -4 147 6 319 21 l312 29 985 264
c542 145 999 268 1017 272 l32 9 36 -102 c20 -56 39 -106 43 -113 5 -7 88 9
269 54 l262 65 22 65 21 65 102 -6 c55 -3 452 -11 880 -18 l779 -12 18 23 c10
12 27 34 37 48 l19 26 1719 42 c945 24 1720 44 1722 44 1 1 2 12 2 25 0 24 -1
24 -132 30 -112 5 -3133 66 -3268 66 -43 0 -46 3 -78 51 l-34 51 -666 -7
c-367 -4 -665 -5 -662 -2 3 2 124 33 270 67 146 35 266 64 267 64 1 1 5 56 9
124 6 106 9 122 24 122 10 0 52 27 94 61 l76 61 0 258 0 258 -79 61 c-44 33
-86 61 -95 61 -13 0 -16 13 -17 63 -1 34 -4 89 -8 122 l-6 60 -230 57 -230 57
630 -6 630 -5 21 63 20 64 145 7 c79 3 736 11 1459 17 723 6 1438 14 1588 17
l272 7 0 22 c0 22 -3 23 -142 29 -79 3 -782 11 -1563 17 -781 6 -1496 14
-1590 18 l-169 6 -22 68 -21 69 -154 -1 c-224 -2 -1288 -20 -1466 -25 l-152
-5 -22 59 -21 59 -247 60 c-135 33 -254 61 -264 63 -15 2 -25 -15 -53 -91 -19
-52 -36 -96 -38 -98 -1 -2 -461 120 -1022 271 l-1019 274 -313 27 c-172 15
-316 25 -319 22 -3 -4 -8 -38 -11 -78 l-5 -71 -41 6 c-91 12 -1537 148 -1541
145 -3 -3 68 -398 109 -611 l6 -28 -195 0 -195 0 0 -70 0 -70 -2472 0 -2473 0
-19 40 -19 40 -364 0 -363 0 0 69 0 69 93 6 c82 5 2943 47 3145 46 l82 0 0 50
c0 28 -1 50 -2 50 -26 3 -3221 50 -3358 50 l-196 0 -92 67 -92 66 0 469 0 468
-160 0 -160 0 0 155 0 155 -955 0 -955 0 0 -65 0 -65 -305 0 -304 0 -3 62 -3
62 -90 26 c-49 15 -108 38 -130 52 l-40 26 -1960 0 -1960 0 -60 -33 c-33 -18
-87 -40 -120 -50 -33 -9 -68 -18 -77 -21 -16 -5 -18 -21 -18 -148 l0 -143 -52
-7 c-29 -3 -162 -6 -295 -6 l-243 0 0 90 0 90 -390 0 -390 0 0 390 0 391 -60
-7 -60 -7 0 176 0 176 60 7 60 7 0 488 0 489 -60 0 -60 0 0 46 c0 40 7 54 60
124 l60 79 0 270 0 271 2151 0 2152 0 418 112 419 112 0 28 0 28 173 0 172 0
145 43 145 42 3 43 3 42 1374 0 1374 0 36 65 37 65 424 0 424 0 0 95 0 95
-423 0 -423 0 -38 65 -38 65 -1374 0 -1374 0 0 44 c0 34 -4 46 -17 50 -10 3
-76 21 -148 41 -125 34 -136 35 -302 35 l-172 0 -3 62 -3 62 -415 123 -414
123 -622 0 c-341 0 -750 3 -907 7 l-287 6 0 429 0 428 176 0 176 0 -6 38 c-4
20 -103 626 -221 1345 -118 720 -215 1313 -215 1318 0 5 -84 9 -200 9 l-200 0
0 303 0 304 -80 61 -81 62 -567 0 -568 0 -76 -57 -77 -58 0 -307 -1 -308 -520
0 -520 0 0 308 0 307 -75 58 -76 57 -573 0 c-541 0 -574 -1 -589 -18z m1163
-472 l0 -240 -570 0 -570 0 0 240 0 240 570 0 570 0 0 -240z m2480 0 l0 -240
-570 0 -570 0 0 240 0 240 570 0 570 0 0 -240z m70 -3380 l0 -430 -1890 0
-1890 0 0 430 0 430 1890 0 1890 0 0 -430z m-2680 -2151 l0 -270 60 -79 c53
-70 60 -84 60 -124 l0 -46 -60 0 -60 0 0 -489 0 -488 60 -7 60 -7 0 -97 c0
-53 3 -134 6 -178 l7 -81 -49 8 c-94 15 -84 59 -84 -381 l0 -390 -390 0 -390
0 0 390 0 391 -60 -7 -60 -7 0 176 0 176 60 7 60 7 0 488 0 489 -60 0 -60 0 0
46 c0 40 7 54 60 124 l60 79 0 270 0 271 390 0 390 0 0 -271z m-13130 -6603
c0 -21 -5 -24 -67 -29 -38 -4 -323 -7 -635 -7 l-568 0 0 30 0 30 635 0 635 0
0 -24z m0 -4596 l0 -30 -522 0 c-288 0 -574 -3 -635 -7 l-113 -6 0 36 0 37
635 0 635 0 0 -30z m17560 -9797 c0 -197 -3 -415 -7 -485 l-6 -128 -389 0
-388 0 0 485 0 485 395 0 395 0 0 -357z m1500 -128 l0 -485 -390 0 -390 0 0
485 0 485 390 0 390 0 0 -485z"/>
</g>
</svg>
