<?xml version="1.0" standalone="no"?>
<!DOCTYPE svg PUBLIC "-//W3C//DTD SVG 20010904//EN"
 "http://www.w3.org/TR/2001/REC-SVG-20010904/DTD/svg10.dtd">
<svg version="1.0" xmlns="http://www.w3.org/2000/svg"
   viewBox="0 0 4085.000000 2390.000000"
 preserveAspectRatio="xMidYMid meet">
<metadata>
Created by potrace 1.16, written by Peter Selinger 2001-2019
</metadata>
<g transform="translate(0.000000,2390.000000) scale(0.100000,-0.100000)"
fill="#000000" stroke="none">
<path d="M5190 23705 l0 -195 -385 0 -385 0 -290 -176 -290 -177 0 -398 0
-399 120 0 120 0 0 -35 0 -35 -170 0 -170 0 -342 -296 c-189 -163 -353 -306
-366 -318 l-22 -21 69 -95 69 -95 -589 -3 -589 -2 0 -455 0 -455 -63 0 -62 0
-81 -82 -81 -83 -99 -292 -99 -293 -410 0 -410 0 -175 -36 c-162 -34 -186 -42
-330 -110 l-155 -74 -3 -703 -2 -703 162 -76 c153 -72 174 -78 340 -112 176
-36 179 -36 432 -36 l256 0 0 -565 0 -565 1028 0 1027 0 -179 -80 -178 -80
-657 0 c-361 0 -666 -3 -678 -6 l-23 -6 0 -1217 0 -1217 -72 -259 -72 -260 -5
-285 -6 -285 -332 -3 -333 -2 0 -155 0 -155 -205 0 -205 0 0 -320 0 -320 205
0 c198 0 205 -1 205 -20 0 -19 -7 -20 -95 -20 l-95 0 0 -180 0 -180 95 0 c88
0 95 -1 95 -20 0 -19 -7 -20 -205 -20 l-205 0 0 -320 0 -320 205 0 205 0 0
-155 0 -155 333 -2 332 -3 6 -285 5 -285 72 -260 72 -259 0 -1217 0 -1217 23
-6 c12 -3 317 -6 678 -6 l657 0 178 -80 179 -80 -1027 0 -1028 0 0 -565 0
-565 -257 0 c-256 0 -258 0 -433 -36 -163 -33 -186 -41 -338 -112 l-162 -75 2
-704 3 -703 155 -74 c144 -68 168 -76 330 -110 l175 -36 410 0 410 0 99 -292
99 -293 81 -82 81 -83 62 0 63 0 0 -455 0 -455 589 -2 589 -3 -69 -95 -69 -95
22 -21 c13 -12 177 -155 365 -318 l343 -296 170 0 170 0 0 -35 0 -35 -120 0
-120 0 0 -398 0 -399 290 -176 290 -177 385 0 385 0 0 -195 0 -195 285 0 285
0 0 195 0 195 905 0 905 0 0 -195 0 -195 290 0 290 0 0 195 0 195 1405 0 1405
0 0 -195 0 -195 285 0 285 0 0 195 0 195 445 0 446 0 279 178 280 177 0 398 0
397 -240 0 -240 0 0 35 0 35 1225 0 1225 0 0 -150 0 -150 175 0 175 0 0 150 0
150 258 0 259 0 469 311 c258 171 473 314 477 318 4 5 -58 76 -138 159 l-145
150 -412 -284 -411 -284 -516 0 c-1156 0 -5599 -31 -5776 -40 -104 -5 -221
-10 -260 -10 l-70 1 -108 129 -107 130 -55 0 -55 0 0 125 0 125 88 0 87 0 259
295 260 295 409 0 409 0 256 -115 255 -115 1926 0 1926 0 910 558 910 558 3
492 2 492 531 0 532 0 148 56 c82 32 149 61 149 65 0 5 7 9 15 9 13 0 15 -36
15 -263 l0 -263 44 -159 c24 -88 49 -179 56 -202 l11 -43 1374 0 1375 0 0 -37
c1 -28 9 -47 30 -70 l30 -33 278 0 278 0 27 28 c21 21 27 38 27 70 l0 42 588
1 587 0 158 203 157 204 0 261 0 261 65 0 65 0 0 -165 0 -165 349 0 349 0 113
44 114 44 3 41 3 41 250 0 249 0 0 -165 0 -165 165 0 165 0 0 165 0 165 40 0
40 0 0 -250 0 -250 160 0 160 0 0 250 0 250 40 0 40 0 0 -165 0 -165 165 0
165 0 0 165 c0 158 1 165 20 165 20 0 20 -7 20 -405 l0 -405 -67 0 c-38 0 -73
-4 -79 -8 -6 -4 -52 -61 -104 -127 -51 -66 -96 -123 -99 -126 -3 -4 -51 -2
-106 3 -55 5 -406 13 -780 17 -459 6 -698 13 -736 21 -55 11 -66 20 -370 294
l-313 283 -109 -148 c-59 -81 -109 -151 -109 -155 0 -4 163 -148 362 -320
l362 -314 174 0 174 0 0 -35 0 -35 -125 0 -125 0 0 -398 0 -399 290 -176 291
-177 384 0 385 0 0 -195 0 -195 290 0 290 0 0 195 0 195 905 0 905 0 0 -195 0
-195 290 0 290 0 0 195 0 195 1400 0 1400 0 0 -195 0 -195 290 0 290 0 0 195
0 195 443 0 443 0 277 176 277 176 0 399 0 399 -235 0 -235 0 0 35 0 35 1220
0 1220 0 0 -150 0 -150 175 0 175 0 0 150 0 150 261 0 261 0 474 313 c260 171
473 316 473 321 1 5 -64 75 -143 155 l-145 147 -408 -283 -408 -282 -325 -1
c-1408 -1 -5674 -31 -5945 -42 -176 -7 -327 -13 -336 -13 -9 0 -65 59 -125
130 l-110 130 -57 3 -57 3 0 404 0 405 45 0 45 0 0 -165 0 -165 165 0 165 0 0
165 0 165 40 0 40 0 0 -250 0 -250 160 0 160 0 0 250 0 250 40 0 40 0 0 -165
0 -165 165 0 165 0 0 165 0 165 224 0 225 0 3 -41 3 -41 114 -44 c62 -24 119
-44 127 -44 11 0 14 -21 14 -100 l0 -100 1557 0 1556 0 3136 675 c1725 372
3147 680 3161 686 58 22 164 144 630 724 l490 609 0 893 0 893 -575 0 -575 0
0 145 0 145 -1770 0 -1770 0 -1 63 0 62 -277 237 -277 238 -548 0 -547 0 -130
87 -130 86 0 89 0 88 105 67 c82 53 108 76 121 105 9 20 22 39 29 42 22 8 28
72 32 344 l4 262 284 0 285 0 0 110 0 110 -295 0 -295 0 0 445 0 445 40 0 40
0 0 245 0 245 255 0 255 0 0 110 0 110 -285 0 -284 0 -4 263 c-4 271 -10 335
-32 343 -7 3 -20 22 -29 42 -13 29 -40 52 -121 105 l-105 68 0 88 0 88 130 86
130 87 547 0 548 0 277 238 277 237 0 63 1 62 1770 0 1770 0 0 145 0 145 575
0 575 0 0 893 0 893 -490 610 c-466 579 -572 701 -630 723 -14 6 -1436 314
-3160 686 l-3135 675 -1558 0 -1557 0 0 -100 c0 -88 -2 -100 -17 -101 -10 0
-67 -19 -128 -43 l-110 -43 -3 -42 -3 -41 -225 0 -224 0 0 165 0 165 -165 0
-165 0 0 -165 0 -165 -40 0 -40 0 0 250 0 250 -160 0 -160 0 0 -250 0 -250
-40 0 -40 0 0 165 0 165 -165 0 -165 0 0 -165 0 -165 -45 0 -45 0 0 405 0 404
57 3 57 3 110 130 c60 72 116 130 125 130 9 0 165 -6 346 -13 276 -11 4604
-41 5960 -42 l300 0 404 -280 c223 -154 408 -280 411 -280 10 0 290 287 290
296 -1 5 -214 150 -474 322 l-473 312 -262 0 -261 0 0 150 0 150 -175 0 -175
0 0 -150 0 -150 -1220 0 -1220 0 0 35 0 35 235 0 235 0 0 399 0 399 -276 176
-275 176 -445 0 -444 0 0 195 0 195 -290 0 -290 0 0 -195 0 -195 -1400 0
-1400 0 0 195 0 195 -290 0 -290 0 0 -195 0 -195 -905 0 -905 0 0 195 0 195
-290 0 -290 0 0 -195 0 -195 -385 0 -384 0 -291 -176 -290 -177 0 -398 0 -399
125 0 125 0 0 -35 0 -35 -174 0 -174 0 -365 -316 -366 -316 57 -77 c31 -42 81
-110 112 -152 l56 -76 313 282 312 283 88 16 c75 13 179 16 657 17 364 0 634
5 749 13 99 8 183 11 186 7 3 -3 48 -60 99 -126 52 -66 98 -123 104 -127 6 -4
41 -8 79 -8 l67 0 0 -405 c0 -398 0 -405 -20 -405 -19 0 -20 7 -20 165 l0 165
-165 0 -165 0 0 -165 0 -165 -40 0 -40 0 0 250 0 250 -160 0 -160 0 0 -250 0
-250 -40 0 -40 0 0 165 0 165 -165 0 -165 0 0 -165 0 -165 -249 0 -250 0 -3
41 -3 42 -110 43 -110 43 -352 0 -353 1 0 -165 0 -165 -65 0 -65 0 0 261 0
261 -157 204 -158 203 -587 1 -588 0 0 42 c0 32 -6 49 -27 70 l-27 28 -281 0
-281 0 -27 -28 c-21 -21 -27 -38 -27 -70 l0 -42 -1375 0 -1374 0 -12 -42 c-6
-24 -31 -115 -55 -202 l-44 -160 0 -263 c0 -227 -2 -263 -15 -263 -8 0 -15 4
-15 9 0 5 -66 34 -148 65 l-147 56 -533 0 -532 0 -2 492 -3 492 -910 558 -910
558 -1926 0 -1925 0 -257 -115 -256 -115 -409 0 -408 0 -259 295 -259 295 -88
0 -88 0 0 125 0 125 55 0 55 0 107 130 108 129 71 1 c39 0 161 -4 270 -10 181
-9 4655 -40 5800 -40 l482 0 405 -280 c222 -154 409 -280 415 -280 16 0 294
292 285 301 -4 4 -219 147 -477 318 l-468 311 -259 0 -259 0 0 150 0 150 -175
0 -175 0 0 -150 0 -150 -1225 0 -1225 0 0 35 0 35 240 0 240 0 0 398 0 397
-279 178 -279 177 -446 0 -446 0 0 195 0 195 -285 0 -285 0 0 -195 0 -195
-1405 0 -1405 0 0 195 0 195 -290 0 -290 0 0 -195 0 -195 -905 0 -905 0 0 195
0 195 -285 0 -285 0 0 -195z m6770 -1380 l0 -35 -1514 0 c-1434 0 -1515 -1
-1519 -17 -3 -10 -8 -34 -11 -54 -5 -29 -31 -63 -119 -158 l-113 -121 -393 0
-394 0 -88 122 c-49 68 -89 133 -89 144 0 12 -3 36 -6 53 l-7 31 -416 -2 -416
-3 -10 -52 c-9 -47 -21 -63 -125 -175 l-115 -123 -390 2 -390 2 -87 118 c-78
106 -87 124 -93 176 l-8 57 -513 0 -514 0 0 35 0 35 3665 0 3665 0 0 -35z
m-6320 -485 l101 -130 74 0 75 0 0 -125 0 -125 -1267 0 -1268 0 25 24 c14 13
127 116 251 228 l226 204 99 17 c85 15 179 17 674 18 316 1 616 4 665 8 50 5
125 9 167 9 l76 2 102 -130z m1620 115 c36 0 126 4 200 8 l135 8 84 -110 c121
-159 111 -151 186 -151 l65 0 0 -125 0 -125 -630 0 -630 0 0 125 0 125 45 0
c52 0 46 -6 175 149 l95 113 105 -8 c58 -5 134 -9 170 -9z m24370 -1500 l0
-35 -1514 0 -1514 0 -7 -42 c-11 -62 -24 -81 -137 -201 l-103 -108 -390 -2
-390 -2 -88 122 c-51 72 -90 136 -93 155 -3 18 -7 43 -10 56 l-4 22 -415 0
c-461 0 -416 7 -430 -71 -5 -27 -33 -64 -120 -157 l-113 -122 -393 0 -392 0
-88 122 c-75 106 -88 130 -94 175 l-6 53 -515 0 -514 0 0 35 0 35 3665 0 3665
0 0 -35z m-4809 -364 c65 -7 149 -7 220 -1 63 5 138 10 168 12 l53 3 102 -130
102 -130 72 -3 72 -3 0 -404 0 -405 -25 0 -25 0 0 165 0 165 -165 0 -165 0 0
-165 0 -165 -40 0 -40 0 0 250 0 250 -165 0 -165 0 0 -250 0 -250 -35 0 -35 0
0 165 0 165 -165 0 -165 0 0 -165 0 -165 -40 0 -40 0 0 405 0 405 45 0 c53 0
50 -3 184 157 82 98 97 111 120 108 14 -3 74 -9 132 -14z m-5761 -371 c0 -6
-33 -10 -80 -10 -47 0 -80 4 -80 10 0 6 33 10 80 10 47 0 80 -4 80 -10z
m-17370 -3065 l0 -65 -120 0 -120 0 0 -75 0 -75 -80 0 -80 0 0 34 c0 34 0 35
193 139 105 58 195 105 200 106 4 1 7 -28 7 -64z m-1566 -226 l249 -73 -136
-45 -137 -45 0 -448 0 -448 -125 0 -125 0 0 571 c0 453 3 570 13 567 6 -3 124
-38 261 -79z m-24 -1516 l0 -178 -58 -25 c-36 -15 -81 -47 -124 -89 l-68 -64
0 266 0 267 125 0 125 0 0 -177z m181 -784 c35 -12 68 -25 72 -29 13 -12 -138
-50 -199 -50 l-58 0 49 50 c27 28 54 50 60 50 6 0 40 -10 76 -21z m5 -4300
c40 -12 72 -25 69 -28 -2 -4 -38 -18 -80 -31 l-76 -24 -52 52 -52 52 58 0 c33
0 92 -10 133 -21z m-244 -639 l58 -25 0 -177 0 -178 -125 0 -125 0 0 267 0
266 68 -64 c43 -42 88 -74 124 -89z m58 -1108 l0 -448 136 -45 137 -45 -249
-73 c-137 -41 -255 -76 -261 -78 -10 -4 -13 113 -13 566 l0 571 125 0 125 0 0
-448z m1350 -697 l0 -75 120 0 120 0 0 -65 c0 -65 0 -66 -22 -54 -13 6 -103
54 -200 106 -177 95 -178 95 -178 129 l0 34 80 0 80 0 0 -75z m22970 -2680 l0
-165 165 0 165 0 0 165 0 165 35 0 35 0 0 -250 0 -250 165 0 165 0 0 250 0
250 40 0 40 0 0 -165 0 -165 165 0 165 0 0 165 0 165 25 0 25 0 0 -405 0 -405
-70 0 -70 0 -87 -112 c-49 -61 -97 -122 -108 -134 l-20 -22 -160 14 c-148 13
-317 8 -411 -11 -17 -4 -39 16 -106 98 -139 167 -139 167 -192 167 l-46 0 0
405 0 405 40 0 40 0 0 -165z m-5360 -525 c0 -6 -33 -10 -80 -10 -47 0 -80 4
-80 10 0 6 33 10 80 10 47 0 80 -4 80 -10z m5355 -472 c87 -93 115 -130 120
-157 14 -78 -31 -71 430 -71 l415 0 4 23 c3 12 7 37 10 55 3 19 42 83 93 155
l88 122 390 -2 390 -2 112 -118 c105 -111 113 -122 124 -175 l12 -58 1513 0
1514 0 0 -35 0 -35 -3665 0 -3665 0 0 35 0 35 514 0 514 0 7 53 c6 44 21 71
96 177 l89 125 391 -2 391 -3 113 -122z m-20525 -1393 l0 -125 -74 0 -75 0
-102 -131 -103 -130 -80 5 c-45 3 -376 8 -736 11 -547 4 -672 8 -758 22 l-104
17 -226 204 c-125 112 -238 215 -252 228 l-25 24 1268 0 1267 0 0 -125z m2040
0 l0 -125 -65 0 c-75 0 -65 8 -186 -151 l-84 -110 -130 8 c-166 10 -256 10
-380 -1 l-100 -8 -95 113 c-129 155 -123 149 -175 149 l-45 0 0 125 0 125 630
0 630 0 0 -125z m-1188 -475 c102 -110 114 -127 123 -173 l10 -52 416 -3 416
-2 7 31 c3 17 6 41 6 53 0 11 40 76 89 144 l88 122 394 1 394 0 112 -122 c102
-110 113 -125 123 -175 l11 -54 1515 0 1514 0 0 -35 0 -35 -3665 0 -3665 0 0
35 0 35 514 0 513 0 7 55 c6 55 27 89 161 270 l22 30 391 -2 391 -2 113 -121z"/>
</g>
</svg>
