<?xml version="1.0" standalone="no"?>
<!DOCTYPE svg PUBLIC "-//W3C//DTD SVG 20010904//EN"
 "http://www.w3.org/TR/2001/REC-SVG-20010904/DTD/svg10.dtd">
<svg version="1.0" xmlns="http://www.w3.org/2000/svg"
   viewBox="0 0 3430.000000 2685.000000"
 preserveAspectRatio="xMidYMid meet">
<metadata>
Created by potrace 1.16, written by Peter Selinger 2001-2019
</metadata>
<g transform="translate(0.000000,2685.000000) scale(0.100000,-0.100000)"
fill="#000000" stroke="none">
<path d="M7183 26684 l-963 -165 -882 -378 c-486 -208 -895 -385 -910 -392
l-28 -12 0 -172 0 -172 -37 -7 c-21 -3 -74 -6 -119 -6 -137 0 -171 -8 -194
-45 l-20 -32 -182 -7 -183 -7 -550 -156 c-302 -86 -552 -158 -553 -159 -2 -1
-1 -124 3 -273 l8 -271 913 0 914 0 0 -109 0 -108 53 -7 c28 -3 69 -6 90 -6
37 0 37 0 37 -40 l0 -40 -275 0 -275 0 0 -800 0 -800 275 0 275 0 -2 -171 -3
-172 -108 -47 c-93 -40 -118 -56 -173 -111 l-64 -64 6 -78 7 -78 63 -55 c44
-39 94 -69 171 -103 l108 -49 -1 -214 c-1 -117 -4 -378 -9 -580 l-7 -368 -269
0 -268 0 -80 -91 -81 -91 0 -381 0 -381 -34 -106 c-19 -58 -42 -130 -50 -160
-15 -54 -17 -56 -98 -102 -46 -26 -140 -74 -210 -107 l-128 -60 0 -535 0 -536
210 -105 210 -105 0 -93 0 -94 -571 -6 -570 -6 -70 -65 c-67 -62 -79 -68 -257
-138 l-187 -74 -3 -149 c-2 -104 -6 -152 -15 -157 -7 -4 -32 -8 -57 -8 -25 0
-51 -4 -58 -8 -10 -7 -12 -158 -10 -723 l3 -714 35 -3 c19 -1 50 -5 67 -8 l32
-5 3 -151 3 -152 187 -81 c162 -70 308 -152 308 -175 0 -3 -62 -18 -137 -33
-76 -14 -565 -113 -1088 -218 l-950 -192 -79 -76 c-43 -42 -105 -116 -137
-164 -80 -121 -166 -381 -200 -603 l-22 -151 26 -164 c20 -124 40 -204 82
-328 66 -197 112 -274 243 -404 l88 -88 1084 -220 c596 -121 1086 -221 1088
-223 2 -2 -23 -24 -55 -49 -38 -29 -123 -72 -250 -127 l-193 -84 0 -147 c0
-164 3 -158 -80 -159 -19 0 -41 -4 -48 -8 -10 -7 -12 -158 -10 -723 l3 -714
35 -3 c19 -1 50 -5 68 -8 l32 -5 0 -153 0 -153 188 -73 c183 -72 189 -76 258
-142 l72 -68 344 0 c190 0 447 -3 571 -7 l227 -6 0 -91 0 -91 -210 -105 -210
-105 0 -536 0 -536 143 -67 c78 -37 173 -86 211 -109 l68 -42 33 -115 c19 -63
41 -135 49 -159 14 -37 16 -103 16 -423 l0 -380 81 -94 82 -94 267 0 267 0 7
-297 c3 -164 9 -424 12 -578 l7 -280 -110 -48 c-101 -44 -213 -120 -234 -160
-4 -6 -10 -46 -13 -87 l-7 -75 73 -66 c57 -51 95 -75 175 -110 l103 -44 0
-167 0 -168 -275 0 -275 0 0 -798 0 -799 182 -6 c99 -4 223 -7 275 -7 l93 0 0
-40 0 -40 -90 0 -90 0 0 -115 0 -115 -915 0 -915 0 0 -269 0 -269 33 -11 c17
-6 267 -78 554 -161 l521 -150 139 0 c185 0 210 -5 236 -45 l21 -33 163 -7
163 -7 0 -177 1 -176 917 -392 917 -392 985 -164 985 -165 760 13 760 13 1000
206 1000 206 526 180 527 180 638 329 c408 210 640 336 645 348 3 10 10 75 14
145 5 85 11 128 19 129 6 0 466 48 1021 107 l1010 108 3 45 3 46 -587 6 c-323
4 -784 7 -1025 7 l-437 0 -6 38 c-4 20 -9 50 -12 65 l-6 28 -686 -6 -687 -6
-533 49 c-293 27 -535 52 -538 55 -3 3 198 230 446 504 380 419 504 563 778
908 310 391 332 421 487 675 88 146 167 280 174 298 12 28 18 32 49 32 39 0
1743 58 1832 62 54 3 54 3 63 40 8 35 11 37 60 42 57 6 930 66 961 66 16 0 18
6 13 41 -3 22 -7 42 -9 43 -1 2 -230 18 -508 35 -278 18 -508 35 -511 37 -4 2
-10 24 -13 49 -6 37 -11 45 -29 45 -129 2 -1689 59 -1692 62 -2 2 1 15 8 28 9
18 244 148 913 505 l901 480 744 533 744 533 396 377 397 377 349 418 350 417
228 499 228 499 146 -4 c354 -10 1329 -12 1376 -3 245 47 1895 324 2015 338
l155 18 598 -76 597 -76 628 32 c914 47 2077 125 2967 199 l780 64 1219 165
c854 116 1227 170 1243 181 30 19 39 41 57 127 8 37 16 70 18 73 12 11 691
128 1018 175 201 29 368 55 372 58 4 4 1 96 -7 206 -12 175 -12 201 1 211 8 6
78 40 157 75 78 35 376 186 662 337 507 267 522 275 585 341 36 37 173 180
305 319 l240 253 99 257 98 257 -16 45 c-9 25 -53 141 -98 258 l-81 212 -191
201 c-105 110 -239 253 -298 317 l-107 117 -528 278 c-290 153 -591 305 -668
339 -77 34 -148 68 -157 77 -16 15 -16 30 -2 215 8 110 13 201 11 203 -2 1
-161 25 -353 53 -453 64 -1025 167 -1041 187 -6 8 -17 46 -24 83 -9 54 -19 75
-41 97 -28 27 -31 27 -1226 190 l-1197 162 -775 65 c-897 76 -1995 150 -2966
201 l-681 36 -594 -77 -594 -76 -150 17 c-131 14 -1304 210 -1870 311 l-200
36 -745 -6 -745 -7 -230 496 -230 496 -346 422 -346 422 -398 378 -398 379
-746 532 -746 533 -899 479 c-703 375 -900 484 -907 503 -5 13 -8 25 -7 26 2
2 389 16 860 31 l856 28 7 43 c3 23 11 46 18 50 6 4 236 22 511 39 377 24 501
36 507 46 5 7 9 25 9 40 0 24 -4 27 -42 32 -49 6 -919 66 -959 66 -23 0 -28 5
-33 35 -4 19 -11 37 -17 40 -5 4 -438 21 -962 40 -523 19 -953 34 -954 34 -2
1 -9 16 -16 34 -8 17 -85 149 -172 292 -149 245 -177 284 -479 665 -266 336
-395 487 -755 885 -239 264 -447 494 -463 511 l-28 30 582 52 583 53 645 -9
c355 -5 646 -8 648 -7 2 2 8 32 14 69 l11 66 1023 0 1024 0 0 49 0 48 -42 6
c-24 3 -484 52 -1024 109 l-981 103 -10 143 c-5 78 -12 144 -14 146 -2 2 -290
150 -639 330 l-635 328 -523 179 -522 180 -1018 209 -1017 209 -695 10 c-382
6 -733 11 -780 10 -60 -1 -370 -50 -1047 -165z"/>
</g>
</svg>
