<?xml version="1.0" standalone="no"?>
<!DOCTYPE svg PUBLIC "-//W3C//DTD SVG 20010904//EN"
 "http://www.w3.org/TR/2001/REC-SVG-20010904/DTD/svg10.dtd">
<svg version="1.0" xmlns="http://www.w3.org/2000/svg"
   viewBox="0 0 3804.000000 1268.000000"
 preserveAspectRatio="xMidYMid meet">
<metadata>
Created by potrace 1.16, written by Peter Selinger 2001-2019
</metadata>
<g transform="translate(0.000000,1268.000000) scale(0.100000,-0.100000)"
fill="#000000" stroke="none">
<path d="M35490 12644 c-492 -28 -573 -35 -630 -54 -75 -24 -319 -80 -351 -80
-12 0 -97 27 -188 61 l-166 60 -225 -17 -225 -16 -349 -95 -350 -95 -285 19
c-305 21 -323 21 -1713 -22 l-236 -8 -101 -101 -100 -101 -11 -300 c-17 -504
-15 -551 25 -760 29 -147 53 -233 129 -456 52 -151 97 -282 101 -291 7 -17
-38 -18 -849 -18 l-855 0 -11 -42 c-21 -80 -82 -293 -85 -296 -2 -2 -150 9
-330 24 -279 23 -330 25 -349 14 -38 -25 -138 -71 -146 -68 -4 2 -77 92 -163
201 -142 181 -165 206 -273 291 l-119 93 -240 91 -240 91 -310 10 c-208 6
-373 6 -502 -1 l-193 -11 -61 27 c-46 20 -119 35 -288 61 l-225 33 -431 -24
-430 -25 -650 -159 -651 -159 -503 -60 -504 -59 -151 -151 c-177 -178 -188
-197 -261 -470 -24 -91 -71 -250 -105 -353 -57 -177 -62 -187 -95 -207 -20
-11 -230 -77 -468 -146 -237 -69 -438 -128 -444 -130 -7 -2 -13 -3 -13 0 0 2
101 131 225 287 l225 283 0 351 0 351 -225 284 -226 284 -342 107 c-188 59
-351 108 -362 108 -30 0 -698 -209 -712 -223 -6 -7 -106 -136 -222 -287 l-211
-275 1 -350 0 -350 219 -285 219 -285 -22 -17 c-13 -10 -40 -18 -63 -18 -22 0
-72 -11 -111 -24 l-70 -24 -524 44 c-465 38 -596 53 -1166 133 l-643 90 -117
-56 c-64 -30 -128 -59 -143 -63 l-26 -8 -268 682 c-146 374 -293 757 -325 849
-46 136 -63 173 -87 192 l-29 24 -778 1 -778 0 -39 -22 c-39 -23 -41 -27 -125
-259 -48 -129 -90 -241 -95 -249 -6 -10 -210 -5 -1096 29 -599 22 -1132 44
-1184 47 l-95 6 -34 111 c-19 62 -39 130 -46 152 l-12 40 101 108 101 108 435
33 434 34 58 63 57 64 1 357 0 356 -148 91 -148 90 -574 11 -574 11 -127 120
c-69 65 -132 126 -139 134 -11 13 -102 15 -724 15 l-711 -1 -150 -134 -150
-135 -866 0 -866 0 -44 24 c-24 14 -114 54 -198 90 l-155 66 -858 0 -857 0
-148 -57 c-82 -32 -181 -77 -221 -100 -69 -41 -76 -43 -153 -43 -142 0 -340
-54 -1146 -311 l-758 -241 -132 -106 c-73 -59 -133 -111 -133 -117 1 -5 45
-104 98 -220 l98 -210 224 -92 225 -93 465 -30 c256 -16 490 -32 521 -34 l56
-5 77 119 77 119 957 -5 c526 -2 1532 -7 2235 -10 l1277 -6 0 -24 c0 -17 -7
-25 -28 -31 -15 -4 -171 -41 -347 -83 -368 -87 -321 -57 -386 -244 l-39 -114
0 -446 0 -446 41 -83 c23 -45 42 -83 43 -84 1 -1 143 -47 316 -101 l315 -100
6 -88 c4 -49 8 -136 8 -194 1 -62 7 -117 15 -135 l13 -30 -76 -37 -76 -36 -40
39 c-23 21 -48 39 -56 39 -9 0 -125 -25 -258 -55 l-242 -55 -174 106 -173 105
-267 463 c-221 382 -273 466 -304 486 -20 13 -87 55 -149 92 l-112 69 -320 34
-320 34 -538 -143 -537 -143 -220 -97 c-178 -78 -227 -104 -255 -135 -31 -34
-52 -43 -195 -88 -88 -28 -282 -76 -432 -108 l-272 -57 -173 25 -173 25 -1375
-429 c-756 -236 -1386 -434 -1399 -440 -12 -5 -145 -95 -295 -199 l-272 -189
-169 -267 c-94 -146 -173 -272 -177 -278 -6 -10 157 -265 191 -299 6 -6 192
-32 414 -57 381 -43 402 -46 401 -65 -1 -11 -10 -123 -20 -248 -18 -225 -18
-231 3 -465 11 -130 20 -238 19 -239 -1 -1 -167 -20 -371 -43 -203 -22 -387
-44 -407 -47 -34 -5 -43 -15 -132 -147 -53 -77 -96 -148 -96 -156 0 -8 78
-136 173 -285 l172 -270 277 -192 276 -193 1391 -436 1390 -435 176 25 175 26
281 -60 c154 -33 346 -80 427 -106 129 -40 151 -51 182 -83 28 -30 81 -58 265
-139 l230 -102 530 -141 530 -140 315 32 315 32 65 35 c36 20 106 62 156 94
l91 58 268 463 267 463 168 102 c93 56 179 102 192 102 13 -1 129 -25 258 -55
l235 -53 41 40 c47 45 47 45 143 -1 l56 -26 -12 -35 c-7 -19 -12 -71 -12 -115
-1 -44 -4 -129 -7 -190 l-7 -110 -317 -100 -318 -100 -41 -83 -41 -82 0 -448
0 -447 48 -140 49 -140 194 -46 c107 -26 265 -64 352 -84 145 -35 157 -39 157
-60 l0 -23 -402 -6 c-222 -3 -1228 -8 -2235 -11 l-1833 -6 -75 116 c-70 108
-76 115 -107 115 -18 0 -253 -14 -522 -31 l-488 -32 -227 -93 -226 -93 -97
-211 c-54 -117 -98 -215 -98 -220 0 -8 236 -202 265 -217 51 -27 1547 -495
1669 -522 96 -21 165 -31 224 -31 83 0 87 -1 161 -44 42 -25 140 -70 219 -100
l144 -56 866 0 867 0 155 66 c85 36 174 76 197 90 l42 24 861 0 862 0 151
-135 151 -135 710 0 711 0 141 134 141 134 489 6 c269 4 528 9 576 12 l87 6
143 87 143 87 3 354 2 353 -25 31 c-13 17 -39 48 -57 68 l-33 37 -430 31 -430
32 -106 110 -107 111 24 76 c13 42 33 109 46 149 12 41 26 76 32 78 6 2 493
21 1081 43 589 23 1118 43 1176 47 l106 6 47 -126 c25 -69 67 -182 92 -251 44
-119 48 -125 89 -150 l44 -25 769 0 769 0 35 33 c31 28 44 56 96 207 44 129
382 1001 579 1498 9 21 30 14 165 -49 l130 -61 656 92 c583 81 714 96 1165
133 l507 41 68 -22 c38 -12 85 -22 106 -22 21 0 51 -8 67 -17 l30 -18 -6 -100
c-3 -55 -8 -127 -11 -161 l-5 -60 -337 -28 c-185 -15 -510 -38 -722 -51 -357
-23 -396 -27 -540 -60 -85 -19 -163 -38 -173 -41 -10 -3 -51 -46 -92 -95 -80
-97 -75 -82 -90 -260 l-5 -67 88 -78 c57 -52 112 -90 157 -111 69 -32 76 -33
560 -82 407 -42 598 -56 1132 -83 l643 -32 397 23 398 24 330 117 330 118 3
219 2 219 -209 109 -210 109 -115 181 c-63 99 -111 181 -107 183 16 5 876
-250 914 -272 37 -21 38 -24 102 -221 35 -110 80 -263 100 -340 20 -77 52
-179 72 -227 35 -84 42 -92 192 -241 l156 -155 495 -57 495 -57 649 -160 649
-159 436 -25 435 -26 221 33 c169 24 236 38 288 60 l69 29 196 -11 c134 -7
295 -8 502 -1 l305 9 230 87 c126 48 238 92 249 98 10 6 69 50 130 98 77 61
131 113 176 171 35 46 106 137 157 202 l93 117 38 -15 c20 -9 58 -28 83 -44
l46 -28 329 28 c181 15 330 26 330 26 1 -1 16 -54 34 -117 17 -63 38 -139 46
-168 l15 -52 856 0 c810 0 855 -1 848 -17 -4 -10 -53 -144 -110 -298 -103
-277 -104 -282 -129 -459 -25 -169 -26 -200 -26 -615 l0 -436 103 -102 102
-101 150 -6 c83 -4 464 -16 847 -26 697 -20 697 -20 976 0 l279 19 348 -95
349 -95 227 -16 226 -17 173 63 174 63 125 -27 c69 -15 169 -39 222 -55 92
-27 116 -29 705 -61 l610 -33 209 74 208 75 71 94 71 94 185 56 c102 31 195
63 206 71 11 8 209 183 441 387 l420 373 33 75 33 76 -34 84 -34 84 -410 352
c-225 193 -413 354 -418 358 -4 4 -12 44 -17 89 -8 64 -127 639 -156 758 -7
27 8 33 196 79 80 20 162 40 183 46 l37 10 0 418 c0 390 -1 419 -17 424 -10 2
-88 24 -173 47 -146 40 -220 75 -220 102 0 6 43 71 95 144 l95 134 0 399 0
398 -49 105 c-29 61 -60 113 -75 124 -20 15 -34 47 -67 159 l-41 140 32 115
c50 177 47 172 121 198 l65 23 33 93 33 94 -26 84 -25 84 -66 23 -65 23 0
1237 0 1237 30 29 30 29 0 150 1 151 94 84 95 84 0 260 0 259 -85 90 -85 89 7
62 c3 34 9 72 14 83 4 12 194 182 422 378 l414 356 33 85 33 84 -33 74 -32 74
-434 384 -434 384 -196 61 -195 60 -65 89 c-35 49 -70 92 -77 96 -6 4 -101 39
-210 78 -165 59 -208 71 -255 70 -31 -1 -311 -16 -622 -35z"/>
</g>
</svg>
