<?xml version="1.0" standalone="no"?>
<!DOCTYPE svg PUBLIC "-//W3C//DTD SVG 20010904//EN"
 "http://www.w3.org/TR/2001/REC-SVG-20010904/DTD/svg10.dtd">
<svg version="1.0" xmlns="http://www.w3.org/2000/svg"
   viewBox="0 0 4586.000000 1041.000000"
 preserveAspectRatio="xMidYMid meet">
<metadata>
Created by potrace 1.16, written by Peter Selinger 2001-2019
</metadata>
<g transform="translate(0.000000,1041.000000) scale(0.100000,-0.100000)"
fill="#000000" stroke="none">
<path d="M19780 10398 l-215 -9 -65 -44 -65 -43 -150 -5 c-166 -5 -200 -13
-590 -135 l-190 -59 -315 -12 c-410 -15 -404 -14 -463 -63 l-48 -40 -242 -14
c-583 -34 -1411 -85 -1623 -100 l-232 -17 -47 37 c-26 20 -57 36 -69 36 -21 0
-715 -54 -853 -66 l-72 -7 -108 -87 -108 -87 -229 -18 c-126 -9 -313 -25 -415
-34 l-186 -17 -105 66 -106 67 -339 -34 c-849 -83 -1322 -134 -1340 -145 -11
-6 -61 -45 -112 -86 l-93 -74 -207 -24 c-113 -14 -214 -30 -222 -37 -9 -6 -55
-45 -103 -85 l-88 -73 0 -229 0 -228 -77 -66 -78 -66 -92 0 c-51 0 -93 2 -93
4 0 2 34 31 75 65 l75 62 0 132 c0 72 -5 169 -11 217 l-11 86 -107 61 -108 61
-622 -79 -623 -80 -62 -47 c-33 -25 -79 -63 -101 -83 -38 -35 -45 -37 -146
-47 l-107 -11 -103 54 -104 54 -450 -65 c-247 -35 -462 -64 -476 -64 -15 0
-46 11 -70 24 -43 23 -46 24 -124 11 -117 -20 -122 -20 -130 13 l-6 28 -147
-23 c-81 -13 -220 -35 -310 -49 l-163 -26 -99 41 c-54 22 -110 41 -123 41 -29
0 -759 -126 -803 -138 -17 -5 -74 -42 -127 -81 l-96 -72 -202 -35 c-193 -34
-205 -37 -259 -74 -45 -31 -75 -42 -141 -54 -133 -23 -510 -94 -679 -127 -121
-24 -169 -39 -220 -66 -53 -28 -98 -41 -240 -68 -554 -106 -710 -135 -719
-135 -7 0 -11 -28 -11 -74 l0 -74 -50 -7 -50 -7 0 -598 0 -598 50 -11 c27 -6
68 -14 90 -17 22 -4 42 -10 45 -14 5 -9 -109 -25 -336 -46 l-176 -16 -100 51
c-54 28 -111 51 -124 51 -28 0 -617 -67 -665 -76 -22 -4 -46 2 -81 20 l-50 25
-104 -15 c-88 -12 -111 -19 -156 -49 l-53 -35 0 -58 0 -59 -158 -16 -158 -17
-101 45 -101 44 -203 -26 -203 -27 -103 -65 -102 -66 0 -1190 -1 -1190 103
-67 102 -67 203 -27 204 -26 101 45 102 44 155 -16 155 -16 3 -61 3 -60 57
-35 c48 -30 72 -37 155 -47 95 -12 98 -12 147 13 32 16 58 23 77 19 15 -3 177
-22 358 -44 l330 -38 103 54 103 55 244 -25 c135 -14 251 -29 260 -33 11 -6
-14 -15 -80 -28 l-95 -18 0 -598 c0 -665 -7 -599 67 -614 l33 -7 0 -68 0 -68
192 -36 c682 -131 710 -137 776 -173 55 -30 99 -42 335 -88 150 -29 357 -68
462 -87 183 -32 192 -34 253 -75 35 -24 73 -43 85 -43 12 0 101 -14 197 -31
l174 -31 100 -76 99 -75 416 -73 416 -72 108 44 109 44 141 -25 c78 -13 203
-34 277 -45 74 -11 149 -22 167 -25 28 -5 32 -3 38 25 8 35 3 34 118 15 88
-14 88 -14 140 11 l52 25 420 -60 c231 -32 443 -62 470 -66 46 -5 58 -2 155
47 l105 53 103 -12 103 -12 103 -84 104 -84 103 -12 c57 -7 337 -41 623 -77
l519 -64 107 60 107 60 12 83 c6 45 11 143 11 218 l0 137 -81 66 -82 66 97 0
97 0 79 -67 80 -66 0 -231 1 -231 100 -83 100 -83 211 -25 211 -25 102 -84
102 -84 434 -45 c239 -25 616 -64 838 -86 l405 -39 105 66 106 66 365 -32
c201 -17 389 -34 418 -37 48 -6 63 -15 157 -90 l105 -84 431 -35 c238 -19 452
-35 476 -35 35 0 54 7 90 35 25 19 49 35 53 35 4 0 63 -4 131 -10 162 -13 794
-52 1438 -90 349 -20 519 -34 530 -42 9 -7 33 -27 54 -44 42 -35 6 -31 549
-54 l228 -10 207 -64 c395 -122 402 -124 566 -129 l149 -4 60 -43 60 -42 262
-11 262 -10 51 39 c48 37 50 42 57 98 14 133 16 128 -99 268 l-105 128 0 152
0 153 98 46 99 46 6 48 c4 26 7 92 7 145 l0 97 101 132 100 131 6 70 6 70 67
0 c37 0 82 -3 99 -6 l31 -6 0 -92 0 -91 -100 -88 c-92 -80 -100 -91 -101 -125
-1 -20 -4 -102 -8 -180 l-6 -144 -72 -30 -73 -31 0 -212 0 -212 79 -84 78 -84
109 -5 110 -5 93 -77 c56 -45 107 -79 125 -82 17 -3 115 -6 217 -7 l187 -1
105 81 105 81 109 0 c79 1 113 5 127 15 16 12 57 15 202 15 169 0 182 -1 187
-19 2 -10 51 -55 107 -100 l103 -81 616 0 c339 0 811 5 1049 10 l433 11 104
82 c98 77 104 84 104 119 l1 37 53 5 c28 3 217 10 419 15 l367 10 103 -35 c96
-33 111 -35 213 -33 105 2 115 0 210 -35 l99 -37 206 9 205 10 108 -31 107
-31 0 -44 0 -45 93 6 c50 4 193 12 317 18 l224 12 103 48 c101 47 103 49 103
82 l0 33 209 13 210 12 106 -28 107 -27 730 57 c624 49 733 59 753 74 13 10
61 50 107 89 l83 72 155 13 155 12 53 44 c30 23 59 43 65 43 7 0 101 9 209 20
l197 19 108 50 108 51 414 44 414 44 104 -30 105 -30 316 37 317 38 100 50
100 51 420 56 420 57 105 -24 c103 -24 107 -24 210 -9 98 14 112 13 205 -4
l100 -19 265 41 265 41 52 43 c43 34 62 43 110 48 32 4 217 34 411 67 l354 60
109 51 109 51 0 36 c0 36 1 37 97 85 l97 48 376 63 c206 35 395 68 420 73 32
8 75 7 150 -2 l105 -13 250 48 c822 159 776 148 883 204 89 46 97 53 100 82 4
36 1 35 122 58 54 11 123 35 190 67 87 41 139 57 310 95 193 42 211 44 306 39
113 -7 111 -7 504 86 183 43 230 58 315 101 62 31 140 60 205 77 l104 26 101
-24 c122 -29 177 -21 250 35 63 48 123 65 201 57 37 -4 82 -2 112 6 50 11 51
11 106 -24 30 -19 77 -46 103 -59 45 -22 51 -23 96 -10 l47 14 0 88 0 88 53
14 c51 14 53 14 103 -13 l51 -28 99 30 c78 24 110 29 150 24 47 -5 84 5 400
107 293 95 359 119 409 154 84 58 498 205 605 215 62 6 114 24 295 97 121 50
245 106 276 126 31 20 99 53 150 73 65 26 110 52 147 84 39 35 88 62 190 105
133 56 140 61 232 149 72 69 107 95 140 105 25 7 91 33 148 56 109 46 160 83
289 208 63 62 71 73 61 91 -9 17 -5 24 28 50 21 17 60 50 86 73 26 23 66 48
88 54 29 9 56 29 91 68 61 70 56 64 104 109 22 21 63 64 92 96 53 59 79 118
116 267 l14 57 -41 5 c-22 3 -207 2 -411 -3 -203 -5 -405 -9 -447 -10 l-78 0
0 49 c0 28 4 52 8 55 5 3 223 0 485 -6 263 -6 479 -9 482 -6 5 5 -19 102 -51
200 -21 63 -36 88 -77 132 -29 30 -61 65 -73 78 -11 13 -36 37 -55 54 -19 17
-51 51 -71 76 -25 30 -52 50 -85 63 -26 9 -64 32 -83 50 -19 17 -56 49 -82 69
-40 32 -46 41 -38 60 7 20 -6 35 -116 137 -131 121 -165 140 -353 206 -69 24
-85 35 -171 118 -93 89 -98 92 -228 146 -104 42 -147 65 -193 105 -38 33 -84
60 -131 78 -40 16 -111 50 -158 77 -132 74 -509 220 -595 230 -103 11 -509
157 -585 209 -47 34 -113 59 -395 150 -300 97 -347 110 -409 110 -49 0 -100 9
-166 29 l-95 29 -50 -29 c-50 -28 -51 -28 -103 -13 l-52 16 0 88 0 89 -54 12
-54 12 -97 -58 -98 -57 -53 11 c-31 7 -77 9 -111 6 -76 -9 -133 7 -197 54 -80
59 -124 66 -248 36 l-103 -24 -95 24 c-52 13 -147 48 -210 78 -118 56 -178 73
-555 156 -152 34 -181 37 -275 34 -95 -4 -123 -1 -295 36 -155 34 -212 51
-310 95 -85 38 -148 59 -217 72 l-98 18 0 33 c0 32 -4 35 -101 84 -117 58
-112 57 -699 170 l-425 81 -112 -11 c-109 -11 -118 -10 -305 23 -106 20 -290
51 -408 70 -208 35 -219 38 -322 88 -107 52 -108 53 -109 88 0 35 -1 35 -112
87 -109 50 -120 53 -377 97 -146 24 -330 55 -410 67 -141 21 -147 23 -200 64
l-55 42 -250 38 c-274 42 -263 42 -386 19 -78 -14 -97 -14 -190 0 -102 15
-106 15 -207 -9 l-103 -25 -417 55 -417 55 -115 54 -115 55 -306 35 -306 35
-105 -29 -104 -30 -417 44 -417 45 -108 50 -107 50 -208 21 -208 20 -52 39
-53 40 -153 16 c-85 8 -161 21 -170 27 -9 7 -56 46 -105 87 l-89 75 -731 59
-731 59 -108 -28 -109 -27 -191 12 c-106 6 -200 11 -209 11 -12 0 -18 10 -20
36 -3 36 -5 37 -108 83 l-105 48 -260 12 c-143 6 -284 14 -312 17 l-53 6 0
-44 0 -45 -106 -32 -106 -33 -207 11 -207 11 -104 -41 c-104 -41 -106 -41
-207 -36 -98 6 -107 4 -205 -29 l-103 -36 -245 6 c-135 4 -325 9 -422 13
l-178 6 0 37 c0 35 -6 42 -104 122 l-105 85 -403 6 c-222 4 -693 10 -1048 13
l-645 6 -100 -81 c-55 -44 -104 -90 -109 -101 -9 -19 -18 -20 -190 -20 -138 1
-187 4 -206 15 -17 10 -58 14 -131 15 l-106 0 -107 81 -106 82 -212 -7 -211
-8 -100 -81 -100 -81 -108 -4 -108 -5 -76 -83 -75 -83 2 -211 3 -212 73 -30
72 -31 0 -101 c0 -56 3 -137 6 -181 l7 -81 98 -84 98 -85 1 -97 0 -98 -100 0
-100 0 0 43 c0 72 -15 103 -114 232 l-96 125 -1 102 c0 57 -4 122 -7 146 l-7
43 -95 43 -95 43 -3 155 -2 156 105 126 c116 138 115 136 98 274 -6 50 -9 56
-58 93 -44 33 -59 39 -96 37 -24 0 -141 -5 -259 -10z m-13095 -2390 c54 -21
157 -77 194 -106 33 -26 23 -49 -50 -116 -101 -93 -99 -94 -99 23 l0 100 -87
52 c-139 83 -138 82 -68 73 33 -3 82 -15 110 -26z m176 -5419 c44 -53 46 -60
22 -82 -27 -24 -142 -86 -198 -108 -49 -19 -155 -37 -155 -26 0 3 45 31 100
63 l100 59 0 103 0 103 46 -33 c26 -18 64 -54 85 -79z"/>
</g>
</svg>
