<?xml version="1.0" standalone="no"?>
<!DOCTYPE svg PUBLIC "-//W3C//DTD SVG 20010904//EN"
 "http://www.w3.org/TR/2001/REC-SVG-20010904/DTD/svg10.dtd">
<svg version="1.0" xmlns="http://www.w3.org/2000/svg"
   viewBox="0 0 3859.000000 2156.000000"
 preserveAspectRatio="xMidYMid meet">
<metadata>
Created by potrace 1.16, written by Peter Selinger 2001-2019
</metadata>
<g transform="translate(0.000000,2156.000000) scale(0.100000,-0.100000)"
fill="#000000" stroke="none">
<path d="M11242 21345 c-722 -117 -1328 -216 -1347 -219 -32 -6 -72 -47 -275
-279 -27 -31 -46 -80 -106 -270 l-74 -232 0 -127 0 -128 -347 -297 c-277 -236
-818 -686 -1236 -1027 l-48 -39 -172 17 c-99 10 -519 30 -987 47 l-815 29
-870 -31 -870 -32 -380 -93 c-341 -85 -423 -101 -800 -159 -231 -36 -430 -68
-442 -70 l-23 -5 0 -933 0 -932 298 -45 297 -45 0 -87 c0 -49 -2 -305 -3 -571
l-2 -484 -64 -11 c-35 -7 -71 -12 -80 -12 -15 0 -16 39 -16 435 0 239 -3 435
-7 435 -39 -1 -2846 -239 -2848 -242 -17 -16 -25 -346 -25 -975 l0 -733 25 0
c22 0 310 15 432 23 l53 4 0 -267 0 -267 -128 -7 c-391 -20 -359 -16 -368 -45
-4 -14 -9 -577 -11 -1249 l-4 -1224 131 7 130 8 0 -422 0 -421 -130 0 -130 0
0 -1177 c0 -1081 4 -1291 25 -1312 3 -2 111 -10 242 -17 131 -7 239 -13 241
-13 1 -1 2 -121 2 -267 l0 -267 -132 7 c-73 3 -188 9 -256 13 l-122 6 0 -734
c0 -617 8 -961 24 -976 2 -3 2812 -243 2840 -243 14 0 16 49 16 478 l0 479 80
-16 80 -15 1 -490 c0 -270 4 -545 8 -611 4 -66 7 -121 6 -122 -1 -2 -589 -93
-601 -93 -2 0 -4 -421 -4 -935 0 -517 4 -935 9 -935 4 0 206 -31 447 -69 392
-62 479 -79 809 -161 l370 -92 865 -32 865 -32 870 32 c479 18 923 38 987 45
l117 12 48 -40 c26 -22 397 -329 823 -683 l775 -642 6 -142 c6 -141 6 -141 76
-358 l71 -218 103 -116 c57 -64 120 -133 139 -155 l35 -38 1368 -221 1368
-220 892 1 892 0 225 98 225 97 2 679 3 680 -95 50 c-84 44 -95 53 -99 80 -3
16 -21 606 -41 1310 -20 704 -43 1474 -51 1711 l-14 431 -35 103 c-30 88 -33
105 -20 114 8 6 15 29 17 51 l3 40 315 121 c315 122 315 122 685 329 l370 207
320 108 c234 78 413 147 665 255 l345 147 1705 144 1705 143 2195 236 2195
235 2145 281 2145 281 960 -66 960 -67 951 185 950 185 1525 400 1526 401 499
174 499 174 474 263 474 264 152 167 152 168 46 127 c26 71 65 205 88 300 l42
171 -38 164 c-21 89 -61 226 -88 303 l-51 140 -149 165 -150 165 -478 267
-479 266 -492 172 -493 172 -1520 399 -1520 400 -950 185 c-536 104 -974 184
-1005 184 -30 0 -464 -29 -965 -65 l-910 -64 -2131 279 -2132 279 -2238 240
-2239 240 -1680 141 -1679 141 -341 146 c-243 104 -432 176 -664 255 l-325
109 -376 210 -377 210 -309 118 -309 118 2 50 c2 50 2 50 -38 66 l-40 16 14
33 c8 18 32 74 54 123 l41 90 6 375 c6 425 73 2821 82 2947 l6 82 104 56 104
56 0 678 0 678 -227 97 -228 96 -915 -1 -915 -1 -1313 -213z"/>
</g>
</svg>
