<?xml version="1.0" standalone="no"?>
<!DOCTYPE svg PUBLIC "-//W3C//DTD SVG 20010904//EN"
 "http://www.w3.org/TR/2001/REC-SVG-20010904/DTD/svg10.dtd">
<svg version="1.0" xmlns="http://www.w3.org/2000/svg"
   viewBox="0 0 4726.000000 2104.000000"
 preserveAspectRatio="xMidYMid meet">
<metadata>
Created by potrace 1.16, written by Peter Selinger 2001-2019
</metadata>
<g transform="translate(0.000000,2104.000000) scale(0.100000,-0.100000)"
fill="#000000" stroke="none">
<path d="M8765 20812 c-232 -146 -404 -262 -483 -326 l-122 -98 0 -192 0 -191
-352 -113 c-194 -63 -437 -141 -540 -174 l-188 -60 0 -1187 0 -1186 -218 -340
c-120 -187 -265 -413 -323 -502 l-104 -162 -3 364 -2 365 -983 -1 -982 0 -84
-110 -83 -109 -592 0 -591 0 -23 106 c-13 58 -26 112 -29 120 -4 12 27 14 191
14 l196 0 0 35 0 35 -204 0 c-186 0 -205 2 -210 18 -11 38 -25 141 -30 219
l-5 81 179 -5 179 -6 12 47 11 46 94 0 c87 0 94 1 94 20 0 19 -7 20 -138 20
-77 0 -206 3 -289 6 l-149 7 -17 278 c-10 153 -22 291 -28 308 -6 17 -8 38 -5
47 4 11 2 14 -6 11 -7 -3 -141 -62 -297 -133 -239 -107 -287 -125 -302 -116
-11 7 -28 17 -38 24 -16 10 -184 -60 -1160 -488 -628 -274 -1141 -503 -1141
-509 0 -5 15 -26 33 -47 24 -27 91 -66 263 -152 l231 -116 586 0 587 0 0
-1852 0 -1853 -513 -83 c-372 -61 -552 -95 -657 -124 -159 -44 -365 -122 -392
-147 -15 -14 -17 -51 -19 -349 l-2 -334 134 -110 c74 -60 143 -114 154 -119
20 -9 434 -115 1263 -324 255 -64 470 -119 477 -121 10 -4 16 8 20 41 4 25 5
49 1 52 -3 4 -133 39 -288 78 l-283 72 4 214 c2 118 5 217 8 222 2 4 25 7 51
7 l47 0 -3 -170 -3 -170 301 0 300 0 0 -70 0 -70 133 0 132 0 0 -930 0 -930
-132 0 -133 0 0 -70 0 -70 -300 0 -301 0 3 -170 3 -170 -47 0 c-26 0 -49 3
-51 8 -3 4 -6 103 -8 221 l-4 215 245 61 c135 34 265 68 289 74 l43 12 -5 45
c-2 25 -6 47 -8 49 -2 2 -297 -71 -654 -161 -358 -90 -752 -190 -877 -221
l-227 -57 -142 -117 -142 -117 2 -334 c2 -298 4 -335 19 -349 27 -25 233 -103
392 -147 105 -29 285 -63 657 -124 l513 -83 0 -1852 0 -1853 -591 0 -590 0
-234 -120 c-177 -92 -239 -129 -259 -155 -14 -18 -26 -37 -26 -42 0 -8 2267
-1003 2285 -1003 6 0 23 11 39 23 l29 24 295 -134 c163 -73 297 -133 298 -133
2 0 1 7 -2 15 -3 8 -1 29 5 46 6 17 18 155 28 308 l17 278 119 7 c66 3 196 6
289 6 161 0 168 1 168 20 0 19 -7 20 -94 20 l-94 0 -11 46 -12 46 -179 -4
-179 -3 5 80 c5 76 19 179 30 218 5 15 24 17 210 17 l204 0 0 35 0 35 -201 0
c-160 0 -199 3 -191 13 5 6 21 60 33 120 l24 107 592 0 592 0 81 -105 81 -105
985 0 984 0 2 360 3 360 105 -163 c57 -89 202 -315 322 -502 l218 -340 0
-1186 0 -1187 78 -24 c42 -14 285 -92 540 -173 l462 -149 0 -191 0 -191 122
-99 c85 -70 234 -170 487 -327 l365 -228 2003 0 2002 0 361 229 c232 148 404
266 485 331 l125 102 0 309 0 309 535 0 535 0 0 -189 0 -189 123 -100 c88 -72
230 -167 493 -329 l369 -229 2005 6 2005 5 350 223 c207 133 402 265 477 325
l127 102 1 313 0 312 535 0 535 0 0 -134 c0 -73 3 -161 6 -195 l7 -61 121 -99
c82 -66 238 -171 486 -326 l365 -227 2004 6 2003 7 357 227 c222 142 402 265
479 327 l123 100 -3 1228 -3 1227 66 0 c36 0 87 -3 113 -6 l46 -7 0 -562 0
-562 53 4 c28 2 401 19 827 39 l775 35 699 78 699 78 166 -38 166 -38 565 70
c539 66 585 74 1005 160 343 71 2472 543 2546 565 15 4 17 94 21 955 3 522 7
952 10 954 3 3 49 -15 104 -40 l99 -45 955 0 956 0 158 70 158 71 203 191
c116 109 206 201 210 215 3 13 16 28 28 33 12 5 314 61 670 125 l648 115 634
0 633 0 1044 431 1043 430 990 530 990 531 115 112 115 113 177 36 177 37 483
376 c266 207 492 385 503 395 17 16 39 130 141 737 l122 717 -120 720 c-115
688 -122 721 -147 746 -14 14 -241 194 -505 399 l-479 373 -178 36 -179 36
-113 112 -112 112 -986 528 -986 529 -1046 432 -1046 432 -633 0 -633 0 -645
115 c-355 63 -655 117 -668 120 -14 4 -29 19 -37 38 -8 19 -96 109 -214 220
l-201 188 -156 69 -156 70 -958 0 -957 0 -99 -45 -99 -44 -6 242 c-3 133 -7
562 -8 954 l-1 712 -37 10 c-147 38 -2173 488 -2523 560 -413 85 -463 93
-1005 160 l-570 71 -165 -38 -165 -37 -695 77 -695 77 -770 35 c-423 20 -798
38 -832 40 l-63 5 0 -563 0 -563 -67 -6 c-38 -4 -88 -7 -113 -7 l-45 0 3 1228
3 1227 -125 101 c-77 63 -260 188 -481 329 l-357 228 -2001 5 -2002 4 -370
-231 c-249 -155 -408 -261 -486 -325 l-116 -95 -7 -62 c-3 -34 -6 -122 -6
-195 l0 -134 -535 0 -535 0 0 313 -1 312 -127 102 c-76 60 -270 192 -482 327
l-355 226 -1365 0 c-751 0 -1651 3 -2000 6 l-635 6 -366 -229 c-246 -155 -407
-263 -492 -332 l-127 -102 0 -189 0 -190 -535 0 -535 0 0 309 0 310 -127 103
c-85 69 -250 181 -485 331 l-357 227 -2008 -1 -2008 -1 -360 -226z m-7060
-8406 l50 -14 -79 -1 c-69 -1 -77 1 -66 14 15 18 31 19 95 1z m345 -224 c0
-46 -2 -50 -39 -70 -36 -20 -52 -22 -225 -22 l-186 0 0 58 c0 32 5 63 12 70 9
9 73 12 225 12 l213 0 0 -48z m-35 -3254 c32 -21 35 -27 35 -70 l0 -48 -213 0
c-152 0 -216 3 -225 12 -7 7 -12 38 -12 70 l0 58 190 0 c180 0 192 -1 225 -22z
m-323 -296 c-58 -14 -64 -14 -79 1 -16 16 -12 17 62 16 l80 -1 -63 -16z"/>
</g>
</svg>
