<?xml version="1.0" standalone="no"?>
<!DOCTYPE svg PUBLIC "-//W3C//DTD SVG 20010904//EN"
 "http://www.w3.org/TR/2001/REC-SVG-20010904/DTD/svg10.dtd">
<svg version="1.0" xmlns="http://www.w3.org/2000/svg"
   viewBox="0 0 4385.000000 480.000000"
 preserveAspectRatio="xMidYMid meet">
<metadata>
Created by potrace 1.16, written by Peter Selinger 2001-2019
</metadata>
<g transform="translate(0.000000,480.000000) scale(0.100000,-0.100000)"
fill="#000000" stroke="none">
<path d="M25300 4790 c0 -6 43 -10 108 -10 59 0 185 -3 280 -7 l172 -6 0 -29
0 -28 -260 0 -260 0 0 -30 0 -30 -222 -2 -223 -3 -3 -52 -3 -51 -47 -6 c-55
-7 -983 -103 -2052 -211 -410 -41 -1094 -111 -1520 -155 -426 -44 -882 -90
-1013 -103 -131 -14 -240 -26 -242 -29 -3 -3 1 -54 9 -114 8 -60 13 -110 12
-111 -3 -3 -2747 -133 -2803 -133 l-43 0 0 43 c0 24 -3 85 -6 135 l-7 92
-2958 0 c-2624 0 -2959 2 -2959 15 0 12 19 15 115 15 70 0 115 4 115 10 0 6
-45 10 -115 10 -95 0 -115 3 -115 15 0 12 25 15 148 17 l147 3 3 68 3 67 -701
0 -701 0 3 -32 3 -33 335 -37 c184 -20 363 -37 398 -37 48 -1 62 -4 62 -16 0
-13 -42 -15 -320 -15 -207 0 -320 -4 -320 -10 0 -6 93 -10 260 -10 224 0 260
-2 260 -15 0 -13 -126 -15 -1070 -15 -1063 0 -1070 0 -1070 -20 0 -20 -7 -20
-840 -20 -740 0 -840 -2 -840 -15 0 -13 100 -15 840 -15 694 0 840 -2 840 -13
0 -17 -2047 -27 -5467 -27 l-2283 0 0 -29 c0 -33 -24 -24 286 -115 l121 -36
217 0 c185 0 216 -2 216 -15 0 -13 -56 -15 -442 -15 -489 -1 -478 1 -478 -62
l0 -35 -85 -7 c-47 -3 -93 -10 -103 -16 -9 -5 -69 -19 -132 -30 -63 -11 -139
-25 -167 -31 l-53 -10 0 -127 0 -127 -165 -138 -165 -139 0 -506 0 -507 165
-138 165 -139 0 -118 c0 -104 2 -119 18 -124 9 -3 85 -17 167 -32 111 -19 154
-31 167 -45 11 -13 30 -19 56 -19 21 0 60 -3 86 -6 44 -6 46 -8 46 -39 0 -18
6 -38 14 -44 10 -9 140 -14 460 -18 245 -3 446 -10 446 -15 0 -4 -93 -8 -207
-8 l-208 -1 -210 -62 -210 -62 -3 -33 -3 -33 2718 5 c1495 3 2762 8 2816 12
84 5 97 3 97 -10 0 -14 104 -16 1060 -16 936 0 1060 -2 1060 -15 0 -13 -100
-15 -840 -15 -553 0 -840 -3 -840 -10 0 -7 287 -10 840 -10 l840 0 0 -25 0
-25 1070 0 c707 0 1070 -3 1070 -10 0 -6 -93 -10 -260 -10 -224 0 -260 -2
-260 -15 0 -13 42 -15 320 -15 207 0 320 -4 320 -10 0 -5 -8 -10 -17 -10 -27
0 -734 -70 -760 -76 -19 -3 -23 -11 -23 -39 l0 -35 700 0 700 0 0 69 0 68 -31
7 c-17 3 -85 6 -150 6 -73 0 -119 4 -119 10 0 6 45 10 115 10 96 0 115 3 115
15 0 12 -19 15 -115 15 -70 0 -115 4 -115 10 0 7 993 10 2959 10 l2959 0 7
140 8 140 66 -5 c36 -3 676 -33 1421 -66 745 -34 1356 -62 1357 -63 2 -2 -4
-51 -12 -111 -9 -60 -12 -112 -7 -117 4 -4 318 -39 697 -77 1075 -109 1288
-131 1314 -137 22 -5 23 -8 18 -60 -4 -38 -2 -54 6 -54 7 0 109 -11 227 -25
272 -31 250 -32 250 8 0 65 9 77 52 77 l40 0 -7 -59 -7 -60 34 -5 c61 -10 441
-46 445 -42 2 2 7 29 10 59 l6 54 41 -4 c22 -3 424 -44 891 -92 l850 -87 3
-52 3 -52 225 0 224 0 0 -35 0 -35 260 0 260 0 0 -30 0 -30 -280 0 c-242 0
-280 -2 -280 -15 0 -13 72 -15 590 -15 518 0 590 2 590 15 0 13 -25 15 -165
15 l-165 0 0 30 0 30 295 0 295 0 0 35 c0 28 4 35 20 35 16 0 19 8 22 60 l3
59 140 -86 c99 -61 148 -86 168 -85 15 2 271 43 569 92 477 80 642 102 1402
190 473 55 878 103 900 106 38 6 38 6 33 45 -3 21 -3 39 -1 39 3 0 251 40 552
89 301 50 615 97 697 106 83 9 231 24 330 35 99 11 212 22 250 25 81 7 155 25
155 38 0 5 -24 7 -52 3 -188 -20 -155 -9 94 34 l287 49 193 151 c106 83 199
161 205 173 8 14 13 63 13 131 0 99 1 107 18 100 41 -19 188 -11 1273 70 631
47 1156 86 1168 86 20 0 21 -4 21 -140 0 -135 -1 -140 -21 -140 -28 0 -253
-19 -306 -26 -34 -4 -43 -9 -43 -25 0 -14 7 -19 28 -19 29 0 226 16 303 25 44
5 47 4 54 -22 10 -40 24 -53 56 -53 21 0 29 -5 29 -18 0 -16 41 -14 683 30
375 26 694 47 708 47 17 1 28 8 31 19 4 14 75 31 429 100 l424 84 540 44 c297
24 585 48 640 54 55 5 411 35 790 65 380 31 758 62 840 70 83 8 265 24 405 35
294 24 299 25 293 50 -6 22 -28 19 547 65 516 41 520 42 520 61 0 12 -10 14
-47 9 -53 -6 -369 -34 -733 -65 -129 -11 -252 -21 -272 -24 -32 -3 -38 -1 -38
14 0 19 -3 18 153 36 26 3 47 9 47 13 0 5 91 11 202 15 l202 8 37 33 c27 24
49 34 85 39 119 14 397 37 401 32 16 -15 -10 -36 -44 -37 -21 0 -58 -4 -83 -9
-85 -17 139 1 440 35 l45 5 -3 -55 c-5 -72 3 -101 31 -119 20 -13 37 -13 157
5 74 11 144 26 156 33 27 19 213 40 272 32 25 -3 86 -1 136 5 75 9 100 17 143
45 28 18 54 42 58 53 9 28 -11 60 -47 75 -30 13 -28 13 41 20 100 10 161 42
266 137 50 44 90 84 90 88 0 3 -40 44 -90 90 -109 101 -163 130 -256 138 l-69
6 36 31 c47 41 41 69 -26 113 -38 26 -66 34 -136 44 -48 6 -105 9 -128 5 -61
-8 -268 14 -288 31 -9 8 -75 23 -153 34 -125 19 -138 19 -161 5 -29 -20 -37
-48 -32 -120 l3 -56 -30 5 c-32 5 -381 42 -452 47 -23 2 -40 0 -37 -3 2 -4 40
-10 84 -13 70 -6 80 -10 80 -27 0 -23 18 -23 -225 1 -110 11 -205 20 -212 20
-6 0 -29 17 -50 38 l-38 37 -208 3 c-128 2 -205 7 -202 13 9 13 -8 17 -107 24
-78 6 -88 9 -88 26 0 10 1 19 3 19 13 0 520 -44 682 -59 354 -33 408 -36 403
-20 -4 11 -116 23 -504 56 -274 23 -514 42 -531 42 -28 1 -33 5 -33 25 0 28
10 26 -315 51 -110 9 -265 22 -345 30 -80 8 -482 42 -895 75 -412 33 -766 62
-785 65 -19 3 -287 25 -595 50 l-560 45 -385 76 c-500 98 -480 93 -480 109 0
19 -5 19 -695 65 -335 22 -636 43 -667 46 -54 6 -58 5 -58 -15 0 -16 -6 -21
-27 -21 -37 0 -49 -9 -57 -42 -5 -24 -11 -28 -44 -28 -40 0 -244 17 -304 25
-35 5 -38 3 -38 -20 0 -17 6 -25 18 -25 9 0 91 -7 182 -15 91 -8 166 -15 168
-15 1 0 2 -63 2 -141 l0 -141 -62 7 c-192 18 -2226 165 -2296 165 -46 0 -92
-5 -103 -10 -18 -10 -19 -6 -19 92 0 57 -3 113 -6 126 -4 14 -82 82 -208 181
l-201 157 -302 49 c-166 27 -301 51 -299 53 4 3 197 -14 249 -23 18 -3 27 0
27 9 0 8 -15 16 -32 20 -50 8 -377 44 -518 56 -214 18 -279 27 -867 122 l-571
93 1 39 2 40 -910 107 c-815 95 -967 115 -1460 198 l-551 92 -134 -82 c-73
-44 -140 -83 -147 -86 -10 -4 -13 9 -13 52 0 48 -3 58 -20 62 -14 4 -20 14
-20 34 l0 29 -295 0 -295 0 0 28 0 29 113 6 c61 4 136 7 165 7 28 0 52 5 52
10 0 7 -203 10 -590 10 -387 0 -590 -3 -590 -10z m6307 -826 c-3 -3 -12 -4
-19 -1 -8 3 -5 6 6 6 11 1 17 -2 13 -5z m76 -11 c-7 -2 -21 -2 -30 0 -10 3 -4
5 12 5 17 0 24 -2 18 -5z m-25103 -188 c0 -13 -174 -15 -1510 -15 -1336 0
-1510 2 -1510 15 0 13 174 15 1510 15 1336 0 1510 -2 1510 -15z m32210 -656
c5 -7 1826 -168 1908 -169 6 0 12 -7 12 -15 0 -8 -8 -15 -18 -15 -10 0 -373
34 -807 75 -434 42 -795 73 -802 71 -9 -4 -13 -27 -13 -76 l0 -70 -32 0 c-18
0 -132 7 -253 15 -121 8 -228 15 -237 15 -14 0 -18 8 -18 34 0 30 -4 36 -35
46 -33 11 -35 14 -35 55 0 75 -9 72 167 57 87 -7 160 -17 163 -23z m3582 -379
c134 -14 148 -17 148 -36 0 -14 -8 -16 -47 -11 -27 4 -87 9 -135 13 -77 6 -88
9 -88 25 0 22 -8 22 122 9z m321 -40 c28 0 37 -4 37 -16 0 -14 -8 -16 -52 -10
-29 3 -63 6 -75 6 -15 0 -23 6 -23 16 0 14 7 15 38 10 20 -3 54 -6 75 -6z m37
-559 c0 -15 -28 -21 -91 -21 -60 0 -81 15 -31 23 53 8 122 7 122 -2z m-210
-26 c0 -8 -3 -15 -8 -15 -7 0 -85 -9 -219 -25 -37 -4 -43 -2 -43 14 0 16 12
20 93 29 146 15 177 14 177 -3z m-3442 -357 c4 -3 48 -2 97 2 50 5 401 39 780
74 380 36 705 68 723 70 22 3 32 1 32 -9 0 -7 -6 -15 -12 -18 -7 -2 -436 -40
-952 -83 -554 -47 -944 -83 -950 -90 -6 -6 -80 -16 -165 -23 -173 -14 -171
-15 -171 55 0 36 3 42 35 57 29 14 35 22 35 47 0 16 1 30 3 31 1 0 121 8 267
17 l265 17 3 -70 c2 -38 6 -73 10 -77z m-32498 -713 c0 -13 -174 -15 -1510
-15 -1336 0 -1510 2 -1510 15 0 13 174 15 1510 15 1336 0 1510 -2 1510 -15z
m25127 -181 c-3 -3 -12 -4 -19 -1 -8 3 -5 6 6 6 11 1 17 -2 13 -5z"/>
</g>
</svg>
