<?xml version="1.0" standalone="no"?>
<!DOCTYPE svg PUBLIC "-//W3C//DTD SVG 20010904//EN"
 "http://www.w3.org/TR/2001/REC-SVG-20010904/DTD/svg10.dtd">
<svg version="1.0" xmlns="http://www.w3.org/2000/svg"
   viewBox="0 0 4596.000000 1540.000000"
 preserveAspectRatio="xMidYMid meet">
<metadata>
Created by potrace 1.16, written by Peter Selinger 2001-2019
</metadata>
<g transform="translate(0.000000,1540.000000) scale(0.100000,-0.100000)"
fill="#000000" stroke="none">
<path d="M1346 15369 c-3 -17 -6 -149 -6 -293 0 -143 -3 -332 -7 -418 l-6
-158 -169 0 -168 0 0 -101 c0 -86 -4 -113 -30 -186 l-30 -85 0 -463 0 -463 30
-85 c26 -73 30 -100 30 -186 l0 -101 620 0 620 0 0 -134 0 -133 -1095 -5
c-602 -2 -1098 -7 -1101 -11 -7 -7 -25 -3452 -25 -4847 0 -1359 18 -4840 25
-4847 3 -3 498 -8 1101 -11 l1095 -5 0 -133 0 -134 -620 0 -620 0 0 -101 c0
-86 -4 -113 -30 -186 l-30 -85 0 -463 0 -463 30 -85 c26 -73 30 -100 30 -186
l0 -101 168 0 169 0 6 -157 c4 -87 7 -276 7 -419 0 -144 3 -276 6 -294 l7 -32
351 4 351 5 1375 352 c756 194 1392 357 1413 362 20 5 37 15 37 22 0 7 -61 44
-135 82 l-135 70 449 5 448 5 1021 715 c916 641 1022 718 1026 745 3 17 7 69
9 118 l3 87 -867 0 -867 0 -6 63 c-3 34 -8 92 -11 130 l-6 67 411 0 410 0 0
63 0 64 533 6 c292 4 757 7 1032 7 l501 0 52 60 53 60 1360 0 1359 0 57 88 56
88 771 422 c424 231 913 497 1086 591 l315 169 1097 47 1097 48 54 -47 55 -47
1794 81 c986 44 1802 80 1813 80 11 0 73 43 138 96 l117 95 3047 169 c1677 94
3062 170 3079 170 l31 0 7 378 c4 207 9 393 12 412 l5 35 1177 183 c647 101
1187 186 1200 189 22 5 22 8 22 149 l0 144 388 0 389 0 18 60 18 60 269 0 268
0 0 -115 0 -115 595 0 595 0 0 -237 c0 -131 -3 -282 -7 -335 l-6 -98 -131 0
-131 0 -126 -213 -126 -212 -84 0 c-77 0 -84 2 -89 22 -3 11 -26 49 -52 82
-41 52 -53 61 -80 61 -18 0 -467 9 -997 20 -530 11 -966 19 -967 17 -2 -2 -13
-66 -24 -143 -18 -126 -21 -218 -28 -959 -5 -451 -8 -821 -6 -823 1 -2 157
-11 348 -21 190 -9 347 -19 349 -21 3 -3 -3 -23 -13 -46 l-18 -41 -107 -6
-108 -7 -61 54 -61 53 -335 -6 -335 -6 -3 -47 -3 -48 -63 0 -63 0 -57 -85 -56
-85 -59 0 -58 0 -73 105 c-40 58 -77 105 -83 105 -6 0 -333 -61 -727 -135
-395 -74 -723 -135 -730 -135 -8 0 -26 12 -41 26 l-26 25 -97 -48 c-85 -42
-96 -51 -101 -78 -8 -48 -10 -370 -7 -935 l2 -525 101 -62 101 -61 26 28 27
29 620 -134 620 -133 -1842 -1 -1842 -1 -373 -129 c-205 -71 -381 -132 -391
-136 -15 -6 -17 -17 -15 -59 l3 -51 3210 -527 3210 -527 793 0 792 -1 0 350 0
350 30 0 30 0 0 -65 0 -65 805 0 805 0 0 200 0 200 35 0 35 0 0 -485 0 -485
788 0 787 1 3215 527 3215 527 3 52 c3 49 2 51 -30 63 -18 6 -194 67 -391 136
l-359 124 -3474 0 -3474 0 0 51 0 50 -175 -7 -175 -7 0 71 c0 39 -13 184 -30
322 -16 138 -30 270 -30 293 l0 42 575 330 575 330 0 158 0 157 40 0 40 0 0
80 0 79 78 -6 79 -6 6 588 c9 747 9 1607 0 1753 l-6 112 -814 0 -813 0 0 335
0 335 175 0 175 0 0 315 0 315 675 0 675 0 0 -88 0 -89 1628 -6 c895 -4 1809
-10 2032 -13 l405 -7 34 122 c32 115 35 121 60 121 40 0 341 20 388 26 l42 5
3 87 3 87 345 21 345 21 77 -44 c105 -59 156 -59 268 -3 l80 40 301 0 301 0
67 -40 c91 -54 146 -55 235 -5 l63 35 309 0 310 0 64 -35 c91 -48 154 -48 250
0 l70 35 334 7 334 6 7 -146 7 -147 77 0 c42 0 193 -5 336 -12 l260 -11 50
-44 50 -43 621 0 621 0 99 30 99 30 437 0 c492 0 441 -9 454 84 l7 48 86 -7
c47 -4 105 -11 128 -16 41 -9 48 -6 210 78 l168 88 67 160 c37 88 67 167 67
175 0 8 -30 87 -67 175 l-67 160 -167 88 c-163 85 -169 87 -210 78 -24 -5 -82
-12 -129 -16 l-86 -7 -7 48 c-13 93 38 84 -454 84 l-437 0 -99 30 -99 30 -621
0 -621 0 -50 -43 -50 -44 -260 -11 c-143 -7 -294 -12 -336 -12 l-77 0 -7 -147
-7 -146 -335 7 -334 6 -69 35 c-96 48 -159 48 -250 0 l-64 -35 -309 0 -309 0
-62 35 c-90 50 -146 49 -237 -5 l-67 -40 -301 0 -301 0 -80 40 c-112 56 -163
56 -268 -3 l-77 -43 -345 20 -345 21 -3 87 -3 86 -37 6 c-20 3 -123 11 -229
17 l-192 12 -33 120 -33 120 -430 -6 c-236 -4 -1151 -10 -2032 -14 l-1603 -6
0 -89 0 -88 -675 0 -675 0 0 315 0 315 -175 0 -175 0 0 335 0 335 813 0 814 0
6 113 c9 145 9 1005 0 1752 l-6 587 -79 -4 -78 -5 0 79 0 78 -40 0 -40 0 0
158 0 157 -575 330 -575 330 0 42 c0 23 14 155 30 293 17 138 30 281 30 318
l0 67 175 -3 175 -3 0 51 0 50 3474 0 3474 0 348 121 c192 67 368 128 392 136
l43 15 -3 52 -3 51 -3210 527 -3210 527 -792 0 -793 1 0 -480 0 -480 -35 0
-35 0 0 195 0 195 -805 0 -805 0 0 -65 0 -65 -30 0 -30 0 0 350 0 350 -792 -1
-793 0 -3210 -527 -3210 -527 -3 -51 c-3 -48 -1 -52 25 -62 15 -7 186 -67 378
-134 l350 -123 1850 -5 1849 -5 -614 -132 -615 -132 -27 29 -26 28 -101 -61
-101 -62 -2 -525 c-3 -565 -1 -887 7 -935 5 -27 16 -36 102 -79 l97 -48 26 29
25 28 730 -137 c402 -76 735 -138 741 -138 6 0 44 47 84 105 l73 105 61 0 61
-1 53 -84 54 -85 63 0 64 0 3 -47 3 -48 335 -6 335 -6 61 54 61 53 108 -7 107
-6 18 -41 c10 -23 16 -43 13 -46 -2 -2 -159 -12 -349 -21 -191 -10 -347 -19
-348 -21 -2 -2 1 -372 6 -823 7 -741 10 -833 28 -959 11 -77 22 -141 23 -143
2 -1 435 6 963 17 527 11 975 20 996 20 33 0 41 6 86 63 27 34 51 71 53 82 4
18 12 20 89 20 l84 0 126 -212 125 -213 131 0 131 0 6 -97 c4 -54 7 -205 7
-335 l0 -238 -595 0 -595 0 0 -115 0 -115 -268 0 -269 0 -18 60 -18 60 -389 0
-388 0 0 145 c0 80 -1 145 -2 145 -2 0 -543 85 -1203 189 l-1200 187 -6 30
c-4 16 -7 201 -8 412 l-1 382 -32 0 c-18 0 -1404 76 -3081 170 l-3047 169
-117 95 c-65 53 -124 96 -133 96 -8 0 -824 36 -1813 81 l-1798 80 -55 -47 -55
-46 -1097 47 -1097 47 -315 170 c-173 93 -662 359 -1086 591 l-772 421 -56 88
-56 88 -1359 0 -1360 0 -53 60 -52 60 -447 0 c-245 0 -710 3 -1032 7 l-587 6
0 64 0 63 -410 0 -411 0 6 78 c3 42 8 101 11 130 l5 52 868 0 867 0 -3 88 c-2
48 -6 101 -9 117 -4 27 -110 104 -1026 745 l-1020 715 -449 5 -449 5 135 70
c74 39 135 75 135 82 0 7 -17 17 -37 22 -21 5 -657 169 -1413 363 l-1375 353
-351 3 -351 3 -7 -32z m26489 -1436 l-60 -4 -53 -78 -54 -78 -66 -7 c-117 -11
-107 -16 -157 84 l-45 90 247 -2 c137 -1 221 -3 188 -5z m-227 -12299 l61 -7
53 -78 53 -78 60 -3 c33 -2 -51 -5 -188 -6 l-247 -2 45 90 c51 101 42 96 163
84z"/>
</g>
</svg>
