<?xml version="1.0" standalone="no"?>
<!DOCTYPE svg PUBLIC "-//W3C//DTD SVG 20010904//EN"
 "http://www.w3.org/TR/2001/REC-SVG-20010904/DTD/svg10.dtd">
<svg version="1.0" xmlns="http://www.w3.org/2000/svg"
   viewBox="0 0 4172.000000 4186.000000"
 preserveAspectRatio="xMidYMid meet">
<metadata>
Created by potrace 1.16, written by Peter Selinger 2001-2019
</metadata>
<g transform="translate(0.000000,4186.000000) scale(0.100000,-0.100000)"
fill="#000000" stroke="none">
<path d="M13226 41736 l-116 -124 0 -559 0 -560 247 -110 247 -109 21 24 20
24 33 -69 c31 -66 36 -71 195 -190 l163 -123 717 0 717 0 0 -60 0 -60 -800 0
-800 0 0 -634 0 -633 75 -72 75 -71 0 -60 c0 -55 -2 -60 -22 -60 -13 -1 -34
-7 -48 -15 -33 -19 -60 -19 -60 0 0 13 -23 15 -148 15 l-148 0 -61 -62 c-60
-62 -61 -64 -61 -118 0 -76 92 -530 124 -612 l27 -67 138 -59 c117 -51 140
-58 150 -46 10 12 15 10 30 -15 10 -17 33 -40 51 -52 l33 -21 -3 -282 -3 -282
-74 -74 -75 -74 0 -1954 0 -1953 66 -115 c55 -94 81 -127 146 -185 66 -61 93
-77 176 -109 l97 -38 3 -71 c3 -62 0 -76 -20 -101 -16 -20 -32 -29 -54 -29
-27 -1 -59 -28 -222 -186 l-190 -185 -174 0 -173 0 -136 110 -135 110 -87 -17
-87 -17 0 -1196 0 -1196 87 -21 88 -22 135 110 135 109 171 0 171 0 52 -41 51
-41 0 -199 0 -199 -650 0 -650 0 0 37 c0 30 -8 45 -42 80 l-42 43 -236 0 -236
0 -42 -43 c-34 -35 -42 -50 -42 -80 l0 -37 -75 0 -75 0 0 37 c0 30 -8 45 -42
80 l-42 43 -229 0 -228 0 -50 -42 c-43 -36 -49 -46 -49 -80 l0 -38 -75 0 -75
0 0 37 c0 30 -8 45 -42 80 l-42 43 -231 0 -231 0 -47 -48 c-36 -37 -47 -55
-47 -80 l0 -32 -164 0 -164 0 -139 -122 -139 -123 -7 -584 c-4 -321 -7 -716
-7 -877 l0 -292 -431 -816 -432 -816 -383 0 -384 0 -92 -35 c-51 -20 -276 -91
-499 -159 l-406 -123 -297 -207 c-164 -114 -307 -211 -319 -216 -12 -5 -287
-80 -612 -166 -324 -86 -596 -160 -604 -164 -7 -4 -46 -67 -86 -141 l-71 -134
-202 0 c-111 0 -400 1 -642 3 l-440 2 0 60 c0 33 -2 60 -5 60 -3 0 -94 18
-201 40 l-196 40 -1537 0 -1537 0 -227 -137 -226 -138 -1 -852 0 -853 388 0
387 -1 195 -277 195 -277 1191 -3 1191 -2 194 180 194 180 148 0 147 0 0 -415
0 -415 -479 0 -479 0 -924 -319 -923 -318 -181 -219 -180 -219 -127 -450 -127
-450 0 -115 0 -116 -85 -49 -85 -50 0 -245 0 -245 85 -48 85 -48 0 -117 0
-117 128 -450 127 -451 178 -216 c153 -186 183 -219 220 -232 23 -9 440 -153
927 -321 l885 -305 477 0 478 0 0 -415 0 -415 -147 0 -148 0 -193 180 -193
180 -1192 0 -1192 -1 -195 -277 -195 -277 -388 -3 -387 -2 2 -852 3 -852 225
-138 225 -138 1535 0 1535 0 202 42 203 42 0 63 0 63 642 -2 643 -3 72 -135
c39 -74 80 -138 90 -142 10 -4 281 -77 603 -163 322 -85 596 -160 609 -166 14
-5 157 -103 319 -216 l294 -205 392 -118 c215 -65 440 -137 500 -159 l109 -41
393 0 392 0 41 -123 c36 -109 42 -145 60 -327 17 -175 25 -221 56 -315 l36
-110 164 -145 c140 -124 166 -151 175 -185 6 -22 26 -86 45 -142 19 -57 35
-107 35 -113 0 -6 -27 -10 -62 -10 l-63 0 -43 -74 -42 -73 0 -219 c0 -217 0
-220 36 -374 l37 -155 90 -70 91 -70 94 -275 94 -275 195 -154 c131 -104 230
-173 303 -212 l108 -59 2086 0 c1662 0 2086 -3 2086 -12 0 -36 321 -2908 328
-2938 5 -21 171 -265 410 -604 l402 -569 0 -69 0 -69 -151 -167 -150 -167 5
-75 c3 -41 38 -466 76 -943 39 -477 70 -872 70 -877 0 -6 152 -10 395 -10
l395 0 0 -27 c0 -16 3 -52 6 -80 l7 -53 -525 0 -525 0 -164 -125 c-156 -119
-166 -128 -196 -190 l-31 -65 -19 24 -18 25 -247 -111 -248 -110 0 -560 0
-560 118 -124 117 -124 258 0 c245 0 257 1 257 19 0 31 56 33 112 5 l47 -24
465 0 464 0 67 52 67 53 110 247 111 248 251 0 251 0 80 -80 80 -80 245 0 245
0 80 80 80 80 250 0 250 0 80 -80 80 -80 250 0 250 0 80 80 80 80 250 0 250 0
80 -80 80 -80 247 0 247 0 18 30 c25 42 69 42 104 -1 24 -30 28 -31 60 -21 19
6 87 27 152 47 l117 36 0 268 0 267 -142 43 c-78 24 -147 45 -154 48 -7 2 -20
-9 -30 -26 -15 -26 -25 -31 -55 -31 -30 0 -41 6 -56 29 -10 17 -92 86 -183
155 l-165 126 -306 0 -306 0 -6 128 c-4 70 -7 220 -7 335 l0 207 159 0 160 0
5 43 c7 54 96 1301 96 1346 0 24 -27 78 -103 205 l-104 172 19 269 c11 148 21
272 24 274 2 2 36 -8 75 -24 65 -25 73 -26 117 -15 26 7 49 15 51 17 2 1 57
663 121 1470 l116 1468 -13 289 c-8 159 -12 290 -11 291 2 2 339 6 751 10 698
7 747 9 747 25 0 16 -49 18 -747 25 -412 4 -750 9 -753 12 -3 2 -6 38 -8 79
-4 68 -6 75 -28 80 -13 3 -24 9 -24 12 0 4 20 27 44 52 l44 45 11 155 c6 85
11 165 11 178 0 22 2 22 122 22 l122 0 1368 622 1368 623 0 318 0 317 661 0
661 0 164 125 164 126 0 675 0 674 90 58 90 57 0 78 0 77 235 0 235 0 0 395 0
395 338 1 337 1 108 119 109 119 700 0 699 0 131 -60 130 -60 278 0 277 0 87
105 87 105 305 0 304 0 12 -25 c11 -24 14 -25 113 -25 98 0 102 1 115 25 12
22 20 25 74 25 34 0 824 25 1756 55 932 30 1913 62 2180 70 267 8 527 18 578
21 89 6 92 7 86 27 -3 12 -9 25 -13 29 -4 4 -402 21 -886 38 l-878 31 -28 -27
c-24 -23 -32 -25 -71 -19 -23 4 -54 17 -68 30 l-25 23 -1210 41 c-808 28
-1340 41 -1602 41 l-392 0 -78 94 -78 95 -391 0 -391 1 -23 -50 -23 -50 -61 0
c-61 0 -61 0 -84 40 l-23 40 -93 0 -94 0 -133 108 c-74 60 -201 161 -282 225
l-148 117 -748 0 -747 0 -103 -40 -102 -40 -334 0 c-374 0 -345 -7 -345 81 l0
49 -632 -2 -631 -3 -45 -122 -45 -123 -148 0 -149 0 0 200 0 199 -99 31 -99
31 -1637 88 c-900 49 -1638 91 -1640 92 -1 2 -31 112 -65 244 -33 132 -66 257
-71 278 l-10 37 -448 0 -449 0 -6 -42 c-3 -24 -8 -71 -12 -105 l-7 -63 -127 0
-128 0 -6 118 c-4 64 -10 132 -13 150 l-5 32 -79 0 -79 0 0 395 0 395 23 -5
c12 -3 193 -32 402 -65 209 -33 392 -63 408 -66 l27 -6 0 -259 0 -259 324 0
324 0 37 -152 38 -151 831 6 c457 4 977 7 1156 7 l326 0 34 131 c19 72 37 134
40 139 3 4 379 29 835 54 l830 47 135 59 135 58 812 35 812 36 918 658 c891
639 918 660 921 693 2 19 1 72 -3 117 l-7 83 -435 2 -435 3 -99 205 -99 205 0
147 0 147 73 -5 c138 -9 146 -11 225 -60 l77 -49 258 -45 257 -45 475 24 c328
17 486 22 512 15 59 -15 117 4 353 114 154 71 234 103 282 111 36 6 113 27
170 47 56 20 167 58 245 85 212 72 295 117 375 201 61 64 67 75 78 134 20 105
2 173 -67 254 -45 52 -74 75 -147 113 -50 27 -134 62 -186 78 -52 16 -140 47
-195 68 -110 43 -225 77 -295 87 -25 4 -142 52 -260 107 -235 110 -293 129
-350 114 -25 -7 -182 -2 -510 15 l-475 25 -259 -45 -259 -45 -81 -50 c-80 -50
-80 -50 -188 -56 l-108 -6 0 146 0 146 100 206 100 207 434 0 433 0 7 61 c3
34 6 87 6 118 l-1 56 -601 430 c-330 237 -745 533 -920 659 l-319 229 -822 37
-822 38 -120 55 -120 55 -835 47 c-459 27 -837 52 -840 56 -3 4 -20 66 -39
137 l-34 129 -1016 8 c-559 4 -1017 8 -1019 9 -1 2 10 62 25 136 l28 132 1187
-4 1187 -3 29 -28 28 -27 880 0 881 0 24 26 24 27 2186 -8 2186 -7 17 26 16
26 365 0 365 0 16 -25 16 -25 412 0 c226 0 502 3 614 7 l203 6 87 114 c77 100
90 113 117 113 16 0 737 14 1600 30 864 16 1624 30 1690 30 l120 0 135 246
135 247 1105 -6 c608 -4 2172 -10 3476 -14 l2370 -6 62 100 62 100 0 81 0 80
-72 6 c-40 3 -725 30 -1523 61 -797 30 -1486 57 -1530 60 l-80 5 -65 -115
c-37 -64 -72 -115 -80 -115 -40 -1 -3406 111 -3475 116 l-80 5 -84 220 c-46
120 -86 219 -90 219 -3 0 -859 41 -1901 90 -1042 50 -1912 90 -1935 90 -38 0
-41 3 -65 48 l-25 47 -420 22 c-231 12 -431 22 -445 22 -20 1 -32 13 -59 62
-18 33 -38 62 -45 65 -10 3 -1222 74 -1278 74 -24 0 -40 25 -184 281 -86 154
-162 283 -168 285 -12 4 -1978 194 -2042 197 l-42 2 -119 -155 -120 -155 -44
2 c-190 11 -3600 321 -3798 346 l-254 32 -612 840 -612 840 -276 1995 c-152
1097 -293 2119 -312 2270 -20 151 -71 532 -115 845 -44 314 -80 574 -80 578 0
6 965 18 1530 18 66 0 168 0 228 0 59 0 157 -1 217 -2 61 -1 160 2 221 6 110
7 111 7 172 -24 l61 -31 392 0 c440 0 469 3 469 53 l0 30 275 -5 c257 -5 275
-4 275 12 0 38 42 50 175 50 133 0 175 -12 175 -50 0 -16 16 -13 143 26 122
38 154 44 233 44 57 0 94 -4 102 -12 7 -7 12 -36 12 -65 l0 -53 101 0 c56 0
119 5 140 12 l39 11 0 59 0 58 238 0 c130 0 971 9 1867 20 897 11 1669 20
1718 20 l87 0 0 45 c0 25 -1 45 -2 46 -2 0 -907 11 -2012 24 -1822 22 -2010
25 -2019 40 -5 9 -20 20 -34 26 -20 7 -286 49 -315 49 -5 0 -8 7 -8 15 0 9
-34 24 -102 45 -57 17 -125 38 -152 47 -43 14 -147 15 -930 9 -525 -4 -902
-11 -933 -17 l-53 -10 0 -47 c0 -36 6 -52 27 -74 l27 -28 -215 0 c-118 0 -407
3 -642 7 l-428 6 -20 39 -19 38 -550 0 -550 0 -4 23 c-3 12 -51 348 -106 747
-55 399 -107 766 -114 815 -8 50 -12 93 -9 98 2 4 13 7 23 7 10 0 32 11 48 25
29 24 30 28 37 140 l7 115 504 0 c422 0 504 -2 504 -14 0 -22 80 -36 213 -36
111 0 126 2 142 20 16 17 31 20 109 20 75 0 95 -4 116 -20 37 -29 200 -29 237
0 37 29 186 29 223 0 21 -16 41 -20 121 -20 83 0 98 3 114 20 16 17 31 20 109
20 l91 0 63 -80 62 -80 389 0 388 0 39 31 c22 17 40 32 42 34 1 1 -10 50 -26
108 l-29 105 191 6 c105 3 430 8 722 11 l532 6 36 -86 c20 -48 36 -91 36 -95
0 -4 -16 -18 -36 -29 -56 -33 -40 -46 65 -49 92 -3 94 -2 137 30 24 18 44 38
44 44 0 5 -14 48 -30 93 -17 46 -28 86 -26 89 4 3 3451 50 3884 52 l82 0 0 44
0 45 -52 5 c-29 3 -937 14 -2018 26 l-1965 21 -31 36 c-31 36 -33 36 -165 54
-74 10 -140 19 -146 19 -7 0 -13 6 -13 14 0 8 -46 32 -117 61 -102 40 -131 48
-227 56 -169 13 -649 12 -664 -3 -8 -8 -89 -13 -272 -16 l-260 -5 0 72 c0 65
-2 71 -22 75 -13 3 -860 46 -1882 96 l-1859 92 -36 28 -36 28 -363 18 -363 18
6 45 c12 90 7 85 150 166 73 42 138 82 143 88 5 7 20 94 34 195 15 101 28 185
30 187 2 2 81 8 175 13 163 9 174 11 202 35 26 21 44 26 123 31 126 9 3586
176 3637 176 l41 0 0 85 0 85 -27 1 c-16 0 -365 17 -778 38 l-750 39 328 1
c307 1 330 2 367 21 22 11 49 20 61 20 12 0 23 -8 26 -20 5 -19 14 -20 187
-20 l181 1 88 83 88 83 -9 41 c-6 25 -6 44 0 50 6 6 -18 139 -63 353 -54 258
-81 362 -105 414 l-31 70 -171 73 c-94 39 -175 72 -180 72 -5 0 -14 -10 -19
-22 -10 -22 -11 -22 -29 16 -14 30 -49 62 -139 128 l-119 88 -866 0 -867 0
-12 -22 c-6 -13 -115 -86 -245 -165 l-233 -143 -195 0 -194 0 -78 668 c-42
367 -79 679 -82 695 l-6 27 -155 0 -155 0 6 31 c3 17 6 159 6 315 l0 284 156
0 157 0 155 118 c85 64 168 134 185 155 25 30 37 37 67 37 29 0 39 -5 54 -31
11 -18 23 -28 32 -25 7 3 75 24 149 47 l135 43 0 270 0 271 -149 46 -149 45
-16 -28 c-14 -23 -24 -28 -56 -28 -32 0 -43 6 -60 30 l-21 30 -237 0 -237 0
-85 -85 -85 -85 -250 0 -250 0 -85 85 -85 85 -240 0 -240 0 -85 -85 -85 -85
-250 0 -250 0 -85 85 -85 85 -235 0 -235 0 -85 -85 -85 -85 -251 0 -252 0
-113 253 -113 252 -62 48 -63 47 -466 0 c-446 0 -467 -1 -505 -20 -22 -11 -57
-20 -80 -20 -33 0 -40 3 -40 20 0 19 -7 20 -259 20 l-259 0 -116 -124z m6279
-4086 l59 -60 171 0 171 0 59 60 59 60 181 0 180 0 79 -164 c64 -134 85 -169
114 -190 l37 -26 -55 0 c-30 1 -305 14 -610 30 -510 26 -578 32 -835 69 -154
23 -299 41 -322 41 -24 0 -43 3 -43 7 0 3 8 30 17 60 l17 53 91 0 91 0 59 60
59 60 181 0 181 0 59 -60z m2610 -2013 c-11 -8 -41 -26 -67 -41 -40 -23 -48
-33 -48 -57 l0 -28 -287 4 c-159 3 -434 7 -613 10 -322 5 -325 5 -342 27 -9
13 -15 24 -13 26 4 4 1220 68 1335 71 48 1 52 0 35 -12z m1739 -132 c18 -13 1
-15 -150 -15 -151 1 -167 2 -150 15 28 21 272 21 300 0z m-5200 -13277 c4 -35
9 -84 13 -110 l6 -48 543 0 c299 0 544 -2 544 -5 0 -3 -10 -44 -21 -90 l-21
-85 -324 0 -324 0 0 -260 c0 -143 -1 -260 -2 -260 -2 0 -195 -31 -430 -68
l-428 -68 0 418 0 418 79 0 c92 0 85 -9 96 133 l7 87 128 0 127 0 7 -62z"/>
</g>
</svg>
