<?xml version="1.0" standalone="no"?>
<!DOCTYPE svg PUBLIC "-//W3C//DTD SVG 20010904//EN"
 "http://www.w3.org/TR/2001/REC-SVG-20010904/DTD/svg10.dtd">
<svg version="1.0" xmlns="http://www.w3.org/2000/svg"
   viewBox="0 0 3291.000000 4779.000000"
 preserveAspectRatio="xMidYMid meet">
<metadata>
Created by potrace 1.16, written by Peter Selinger 2001-2019
</metadata>
<g transform="translate(0.000000,4779.000000) scale(0.100000,-0.100000)"
fill="#000000" stroke="none">
<path d="M18672 47647 c-238 -79 -434 -146 -437 -149 -2 -2 -1 -206 4 -453 5
-248 8 -451 7 -452 -1 -1 -96 22 -211 50 l-210 52 -78 59 -79 60 -895 -38
-895 -37 -296 -121 -297 -120 -1000 -84 -1000 -83 -202 -47 c-112 -26 -207
-50 -212 -53 -12 -8 -241 -386 -241 -398 0 -5 21 -32 48 -61 l47 -52 415 -6
c228 -4 433 -10 455 -14 l40 -8 -49 -1 c-37 -1 -477 -96 -482 -104 -119 -198
-234 -395 -234 -403 0 -6 21 -34 48 -62 l47 -52 927 -19 927 -18 38 -29 38
-29 1185 -32 c652 -17 1244 -35 1317 -38 l132 -7 12 -71 c9 -56 23 -89 61
-151 43 -68 47 -80 35 -95 -7 -9 -90 -104 -184 -211 -93 -107 -288 -339 -433
-515 -262 -318 -307 -371 -468 -537 l-84 -87 -664 -10 -665 -10 -260 -141
-259 -142 0 -273 c0 -217 3 -275 14 -284 9 -8 241 -14 777 -21 420 -6 792 -13
827 -16 l62 -6 0 -352 0 -352 45 -44 45 -44 0 -82 0 -81 -41 -18 c-32 -15 -46
-30 -70 -77 l-29 -58 -763 0 -762 0 -194 85 -193 85 -813 0 c-447 0 -827 -3
-844 -6 l-31 -6 0 -189 0 -189 -382 -2 -383 -3 -34 -52 -34 -53 -623 0 -624 0
0 110 0 110 -1037 0 -1038 0 -28 -118 -27 -117 0 -1320 -1 -1320 28 -122 28
-123 1037 0 1038 0 0 110 0 110 625 0 626 0 17 -31 c9 -17 25 -42 35 -55 l18
-24 380 0 379 0 0 -189 0 -188 31 -7 c17 -3 395 -6 840 -6 l809 0 194 85 195
85 763 -2 763 -3 34 -64 c27 -51 41 -67 72 -80 l39 -16 0 -85 0 -86 -45 -37
-45 -38 0 -504 c0 -474 -1 -505 -17 -506 -10 0 -219 -19 -465 -42 -443 -42
-447 -42 -452 -22 -2 11 -19 111 -36 223 l-33 202 -562 0 -562 0 -241 -222
-242 -221 0 -533 0 -532 241 -216 242 -216 563 0 563 0 7 48 c20 138 62 373
67 379 4 3 701 -60 1549 -141 943 -89 1587 -146 1656 -146 l112 0 0 -483 0
-483 65 -48 65 -48 0 -74 c0 -73 0 -74 -35 -96 -31 -21 -40 -39 -107 -225
l-72 -203 -744 0 -743 0 -199 85 -199 85 -804 0 c-443 0 -819 -3 -836 -6 l-31
-6 0 -189 0 -189 -380 0 -380 0 -35 -55 -36 -55 -624 0 -625 0 0 105 0 105
-1038 0 -1039 0 -21 -102 c-22 -103 -22 -104 -22 -1453 l0 -1349 22 -103 23
-103 1037 0 1038 0 0 110 0 110 623 0 623 0 34 -52 35 -53 383 -3 382 -2 0
-195 0 -195 843 0 844 0 194 85 194 85 802 0 802 0 11 -39 c6 -25 22 -48 45
-65 34 -26 35 -29 35 -96 l0 -68 -65 -48 -65 -48 0 -436 0 -435 -225 -73 -225
-72 0 -110 0 -110 -642 -1 -643 0 -135 -159 c-74 -88 -138 -168 -142 -177 -4
-10 -111 -382 -238 -827 l-231 -809 -187 -196 -187 -196 -214 -660 -214 -660
-282 -207 -282 -208 -196 -437 c-108 -241 -205 -459 -217 -485 l-21 -48 -74 0
c-87 0 -934 -27 -1078 -34 l-98 -5 -15 34 c-8 19 -14 52 -14 74 l0 40 -67 -5
c-38 -2 -234 -9 -438 -14 -203 -6 -770 -24 -1260 -40 -1321 -44 -2132 -70
-2206 -70 l-65 0 -33 -74 -33 -74 -81 -6 c-45 -4 -101 -7 -124 -9 l-41 -2
-766 -890 -765 -890 -1 -852 0 -852 768 -893 768 -893 120 -3 120 -3 28 -67
c16 -37 33 -71 37 -76 4 -4 704 -30 1556 -57 851 -26 1742 -55 1978 -64 568
-20 505 -23 505 24 0 21 9 60 21 86 l21 48 179 -5 c99 -3 181 -7 183 -9 2 -2
-4 -128 -14 -279 l-18 -275 -310 -1182 -310 -1181 -97 -186 -97 -186 -2775 0
-2775 0 -308 -210 -308 -210 -1524 0 -1524 0 -332 210 c-206 130 -342 210
-358 210 -14 0 -516 -65 -1115 -145 -599 -80 -1094 -145 -1099 -145 -6 0 -136
-120 -290 -267 l-280 -266 0 -2171 0 -2171 275 -260 c151 -143 285 -263 297
-268 13 -4 519 -73 1125 -153 l1102 -146 343 136 343 136 928 0 927 0 596
-315 596 -315 884 0 884 0 0 -154 c0 -139 2 -155 18 -160 9 -3 589 -122 1287
-266 699 -144 1275 -267 1281 -273 16 -18 324 -556 324 -567 0 -5 -49 -85
-109 -177 l-110 -168 -7 -175 -7 -175 136 -171 135 -172 -66 -6 c-37 -3 -602
-40 -1257 -81 -654 -42 -1205 -78 -1222 -81 -23 -3 -33 -10 -33 -22 0 -16 -64
-20 -837 -50 -461 -18 -860 -36 -888 -39 -48 -5 -52 -8 -94 -67 l-44 -61 49
-93 c27 -51 85 -159 129 -240 l80 -146 208 -52 208 -52 774 -68 c426 -37 773
-69 772 -70 -1 -2 -158 -12 -347 -24 -190 -12 -355 -23 -368 -26 -12 -2 -22
-11 -22 -19 0 -8 -10 -17 -23 -19 -12 -2 -393 -18 -847 -36 -454 -17 -843 -33
-865 -36 -35 -4 -45 -12 -84 -65 l-44 -61 18 -36 c26 -57 226 -426 235 -435 4
-5 102 -33 216 -62 l209 -54 645 -56 c355 -30 652 -57 660 -58 8 -1 -106 -10
-254 -20 -260 -16 -276 -19 -288 -49 -2 -3 -347 -20 -768 -37 -421 -17 -818
-34 -883 -37 l-118 -7 -45 -58 c-25 -33 -44 -66 -42 -74 2 -7 59 -117 128
-243 l125 -229 205 -51 205 -52 1000 -86 1000 -86 312 -144 313 -144 892 -30
c849 -28 893 -29 912 -12 11 9 49 42 83 72 l62 56 446 139 446 139 50 88 50
87 9 352 c5 193 10 352 12 354 2 1 68 23 148 48 l145 45 53 87 53 88 9 360 c8
282 7 364 -3 376 -6 8 4 4 23 -9 46 -32 344 -242 349 -247 3 -2 35 -274 71
-606 l67 -602 -224 -420 -223 -421 -293 -266 c-251 -230 -418 -394 -570 -564
l-36 -40 19 -340 c11 -186 20 -342 20 -346 0 -4 43 -39 96 -78 l96 -71 103 41
c91 37 104 45 107 67 l3 26 30 -25 c30 -26 36 -26 1477 -169 l1446 -143 79
-89 c43 -48 77 -96 76 -105 -1 -9 11 -30 25 -47 l27 -30 417 145 418 145 934
860 934 861 4353 1208 c2395 665 4368 1214 4384 1221 l30 12 79 782 c43 430
77 783 75 785 -2 2 -215 61 -474 132 l-470 128 -180 3 c-99 2 -2450 19 -5225
38 l-5045 36 -786 195 -787 196 -282 314 -282 315 85 92 c47 51 139 151 206
222 l121 130 0 153 0 152 468 0 469 0 1120 250 1120 250 1090 0 1090 0 1118
524 c614 289 1118 526 1119 528 100 140 265 450 980 1835 l816 1582 0 131 0
130 -236 338 c-130 185 -243 344 -252 353 -10 9 -320 108 -689 219 l-673 204
-242 188 c-134 104 -251 197 -261 207 -17 17 -17 33 -5 329 l13 312 705 766
705 766 280 -4 280 -5 588 -201 589 -202 1408 0 1409 0 7 72 7 71 822 -7 822
-7 24 88 24 88 147 3 146 3 32 -78 c18 -43 40 -97 50 -121 l19 -42 636 2 636
3 47 107 47 108 156 0 156 0 73 -121 c71 -119 73 -121 104 -116 17 3 467 50
1000 104 l969 98 19 30 c17 28 18 60 18 468 0 473 -2 491 -53 501 -12 3 -452
48 -977 101 -525 52 -967 97 -982 100 -24 4 -32 -4 -99 -115 l-72 -120 -157 0
-156 0 -48 110 -48 110 -636 -2 -636 -3 -47 -115 -48 -115 -148 -3 -149 -2
-18 74 c-11 41 -23 81 -27 88 -7 10 -126 14 -598 18 -324 3 -592 7 -595 10 -3
3 478 241 1069 529 l1074 524 48 86 48 86 295 32 c162 17 298 32 303 32 4 1
21 31 38 69 29 62 38 72 129 139 l98 71 8 109 c12 140 12 1483 1 1633 l-9 115
-99 73 c-89 67 -102 80 -131 140 l-33 67 -315 34 c-173 18 -316 36 -318 41 -1
4 -17 31 -35 61 l-32 53 -1006 491 c-554 269 -1005 492 -1003 494 1 2 69 -7
149 -19 81 -12 152 -19 159 -17 6 3 36 44 65 91 l53 86 123 0 124 0 16 -55 c8
-30 17 -55 19 -55 2 0 353 27 781 60 428 33 797 60 822 60 38 0 55 -8 134 -66
l90 -66 262 11 c144 6 276 11 293 11 l31 0 29 110 29 110 60 0 c33 0 69 3 80
6 19 5 24 -7 58 -117 20 -67 38 -123 39 -124 2 -2 235 20 520 48 l516 51 21
43 c21 43 21 56 21 564 0 497 -1 521 -20 558 -17 35 -24 40 -67 45 -56 7 -965
96 -981 96 -6 0 -28 -54 -48 -120 l-37 -120 -81 0 -81 0 -29 110 c-15 61 -31
110 -35 111 -3 0 -134 6 -291 13 l-285 13 -89 -65 c-49 -35 -94 -66 -100 -68
-7 -3 -367 22 -802 56 -434 33 -801 60 -816 60 -24 0 -29 -6 -38 -42 -6 -24
-13 -51 -16 -60 -5 -16 -20 -18 -132 -18 l-127 0 -53 91 c-50 84 -56 90 -80
85 -15 -3 -207 -33 -427 -66 -220 -33 -410 -63 -422 -65 -20 -5 -23 -1 -23 24
0 15 -3 43 -6 60 l-6 31 -1410 0 -1409 0 -582 -205 -582 -205 -388 0 c-213 0
-387 1 -387 3 0 1 -24 133 -54 292 l-53 290 -91 194 -92 194 -8 386 -7 386
133 291 133 290 392 186 392 185 55 106 55 106 94 3 93 3 88 135 c67 105 1092
1824 1628 2733 l82 138 0 1815 0 1815 -62 107 c-57 99 -315 537 -359 609 -20
32 -20 32 138 -43 l158 -74 -2 -52 c-2 -35 -9 -58 -23 -73 -25 -27 -25 -50 1
-112 13 -31 27 -50 37 -50 9 -1 319 48 687 107 369 60 911 145 1205 190 294
45 666 101 825 126 160 24 524 80 810 124 286 44 535 83 553 86 33 5 33 6 27
47 -4 23 -19 59 -33 82 -14 22 -41 73 -59 114 l-34 73 -50 -4 -50 -5 45 31 45
31 1 1017 0 1018 -42 27 -42 28 48 3 48 3 35 77 c20 42 46 92 58 112 13 19 26
54 30 76 l6 41 -108 17 c-1107 165 -2251 342 -3313 512 -360 57 -667 104 -682
104 -23 0 -31 -7 -44 -37 -28 -66 -29 -101 -5 -126 14 -16 22 -39 23 -71 l3
-48 -550 -258 c-384 -180 -563 -259 -592 -261 l-43 -4 -325 398 -325 398 0
1565 0 1565 -760 606 -760 607 0 357 c0 325 -2 359 -17 377 -10 12 -130 83
-268 159 l-250 138 -982 3 -981 4 28 60 c16 34 154 225 315 437 l286 377 1312
188 1312 188 3770 40 3770 39 395 91 c390 89 396 91 433 126 26 26 37 45 37
65 0 19 -99 213 -282 556 -154 289 -282 527 -282 528 -1 0 -353 60 -782 133
l-782 131 -51 -31 -51 -32 -1558 347 -1557 347 -760 461 c-745 453 -761 462
-825 469 -36 4 -870 15 -1855 23 -984 9 -2022 18 -2305 21 l-515 5 -433 -144z
m613 -1701 l400 -137 77 -132 76 -132 5 -352 5 -353 -818 0 -818 0 -58 26 -59
27 70 19 c62 16 122 20 498 25 l427 6 0 50 c0 32 6 57 16 68 14 15 13 46 -6
320 l-20 303 -55 72 c-49 65 -59 73 -103 84 l-49 11 -7 91 c-9 131 -8 151 7
146 6 -3 192 -66 412 -142z m9935 -61 l465 -108 98 -446 c54 -245 98 -451 97
-457 0 -5 -107 -34 -237 -62 -183 -40 -257 -52 -318 -52 l-80 1 184 89 c168
82 183 91 178 112 -3 13 -38 167 -77 343 -39 175 -73 321 -76 324 -2 3 -153
50 -335 106 l-331 101 -39 83 c-37 80 -38 83 -16 79 12 -3 231 -53 487 -113z
m-11863 -652 c104 -6 111 -7 115 -28 4 -19 -8 -28 -89 -69 l-93 -46 -145 0
-145 0 57 75 58 74 65 1 c36 0 115 -3 177 -7z m857 -75 c25 -34 44 -63 42 -65
-2 -3 -45 16 -95 41 -82 42 -97 46 -161 46 -38 0 -70 2 -70 4 0 2 -3 11 -6 20
-5 14 9 16 119 16 l125 0 46 -62z m8875 -288 l165 -89 -260 5 c-142 3 -1098
13 -2124 24 -1026 11 -2057 22 -2293 26 l-427 7 117 57 118 58 2270 1 2270 0
164 -89z m-7079 -2678 l0 -137 301 -235 301 -235 -1140 -3 -1139 -2 -85 -128
-85 -127 -119 -53 c-102 -44 -128 -52 -181 -52 l-62 0 -33 60 c-27 49 -41 63
-75 77 l-43 18 0 82 0 82 50 42 50 42 0 354 0 353 1130 0 1130 0 0 -138z
m-1960 -4364 c87 -38 122 -59 134 -79 14 -23 16 -66 16 -275 l0 -248 42 -43
42 -43 723 0 723 0 65 32 c66 33 66 33 166 190 l101 158 601 0 600 0 180 101
c149 83 182 98 193 87 87 -89 752 -834 746 -835 -4 -1 -380 -50 -836 -108
l-829 -105 -1151 0 -1151 0 -315 -30 c-173 -16 -323 -30 -332 -30 -17 0 -18
27 -18 430 l0 429 -50 47 -50 47 0 79 0 79 45 20 c40 18 50 29 78 85 l31 64
64 0 c55 0 80 -7 182 -52z m3763 -2972 c742 -90 1352 -167 1357 -172 7 -8 508
-841 594 -988 l29 -49 -66 36 -65 37 -1461 0 -1461 0 -85 -128 -86 -128 -117
-52 c-99 -44 -126 -52 -177 -52 l-60 0 -74 201 c-65 175 -79 204 -108 226 -32
25 -33 28 -33 97 l0 72 65 48 65 48 0 484 0 484 168 0 c153 -1 277 -14 1515
-164z m-1370 -4886 c167 -75 157 -52 157 -353 l0 -251 42 -43 42 -43 723 0
723 0 68 34 c65 33 74 42 185 190 l117 156 584 0 584 0 61 34 c34 19 61 34 61
32 0 -4 -778 -1307 -784 -1313 -3 -3 -20 24 -38 61 l-32 66 -839 0 -838 0
-251 -60 c-209 -50 -265 -60 -339 -60 l-89 0 0 110 0 110 -225 72 -225 73 0
437 0 436 -65 47 -65 46 0 69 c0 67 1 70 35 97 19 15 35 33 35 40 0 6 4 23 10
37 9 26 10 26 130 26 l120 0 113 -50z m309 -4197 c128 -47 235 -88 237 -89 2
-2 7 -177 12 -390 l9 -386 -61 -197 c-34 -108 -64 -199 -68 -203 -3 -4 -480
-23 -1058 -43 l-1053 -35 -269 191 -269 191 -6 141 c-3 78 -8 255 -11 392 l-5
250 130 93 130 93 962 38 c530 21 991 39 1025 40 56 1 89 -9 295 -86z m-2708
-9532 l439 -6 108 -355 c59 -195 109 -362 111 -371 2 -9 -107 -158 -247 -337
l-250 -321 -1695 -1 -1696 0 68 578 c37 317 67 586 68 597 0 18 44 32 383 127
l382 107 945 -6 c520 -3 1143 -8 1384 -12z m7715 -10217 l90 -55 5 -62 c8 -84
76 -1282 76 -1333 0 -40 -3 -44 -77 -100 l-78 -58 -1725 -507 c-949 -279
-1726 -506 -1728 -505 -1 2 89 58 200 126 l203 124 1427 431 1427 431 72 65
72 64 -17 567 -16 567 -29 63 -28 63 -129 24 c-237 42 -222 37 -234 82 -6 22
-14 47 -17 55 -4 12 26 14 206 14 l211 0 89 -56z m-14433 -589 c44 -25 91 -45
107 -45 32 0 31 3 12 -64 l-16 -53 -181 -7 c-142 -5 -184 -4 -194 6 -15 16
-134 187 -134 193 0 7 65 12 196 13 l132 2 78 -45z m1813 -215 c68 -17 80 -25
131 -77 31 -32 166 -169 300 -305 l243 -247 8 -1007 9 -1006 -174 -247 -174
-246 -418 -273 -418 -272 -100 0 -101 1 25 22 c14 12 130 112 258 221 l232
199 321 431 320 431 -6 60 c-3 33 -32 411 -65 840 -33 429 -63 794 -65 810 -3
19 -81 130 -210 300 l-205 270 0 57 c0 32 3 58 8 58 4 0 40 -9 81 -20z m-990
-4072 l-2 -123 -9 109 c-9 100 -7 136 7 136 3 0 4 -55 4 -122z"/>
</g>
</svg>
