<?xml version="1.0" standalone="no"?>
<!DOCTYPE svg PUBLIC "-//W3C//DTD SVG 20010904//EN"
 "http://www.w3.org/TR/2001/REC-SVG-20010904/DTD/svg10.dtd">
<svg version="1.0" xmlns="http://www.w3.org/2000/svg"
   viewBox="0 0 4678.000000 930.000000"
 preserveAspectRatio="xMidYMid meet">
<metadata>
Created by potrace 1.16, written by Peter Selinger 2001-2019
</metadata>
<g transform="translate(0.000000,930.000000) scale(0.100000,-0.100000)"
fill="#000000" stroke="none">
<path d="M32402 9272 c-19 -16 -32 -36 -32 -49 l0 -23 -940 0 -940 0 0 -655 0
-655 208 -2 c133 -2 -942 -40 -3008 -106 -1768 -57 -3257 -106 -3308 -109 -86
-5 -94 -8 -103 -29 -4 -13 -14 -24 -21 -24 -7 0 -87 -7 -178 -15 -91 -7 -264
-17 -386 -21 l-221 -7 -25 33 -26 33 -3189 -102 c-1753 -56 -3221 -104 -3260
-107 l-73 -6 0 -354 0 -354 -1235 0 -1235 0 0 85 0 85 -142 0 c-103 0 -376 22
-978 81 l-835 80 -320 86 -320 87 -2155 -42 -2155 -41 -2417 -233 -2418 -233
0 -27 c0 -16 -1 -28 -2 -28 -2 -1 -606 -139 -1343 -308 l-1340 -307 -3 -1348
-2 -1347 27 -7 c16 -3 620 -142 1343 -308 l1315 -301 3 -27 c2 -18 10 -28 25
-31 12 -3 1104 -109 2427 -235 l2405 -231 2145 -41 2145 -41 316 86 316 86
827 80 c630 61 863 80 981 80 l155 0 0 85 0 85 1235 0 1235 0 0 -354 0 -354
143 -6 c78 -4 1679 -56 3557 -117 l3415 -110 30 36 30 35 140 -7 c108 -5 156
-12 209 -30 38 -12 87 -23 109 -23 22 0 48 -6 56 -14 23 -20 682 -44 716 -26
28 15 533 -1 544 -17 7 -13 190 -21 207 -10 7 4 131 5 277 4 211 -3 269 -7
283 -18 14 -11 408 -27 2188 -85 1447 -48 2090 -72 1929 -73 l-243 -1 0 -660
0 -660 940 0 940 0 0 -24 c0 -15 12 -33 34 -50 l35 -26 246 0 246 0 35 26 c22
17 34 35 34 50 l0 24 310 0 310 0 0 -24 c0 -15 12 -34 31 -50 l31 -26 251 0
251 0 28 27 c15 15 28 37 28 50 l0 23 340 0 340 0 0 -22 c0 -14 14 -34 34 -51
l35 -27 247 0 247 0 34 26 c21 16 33 33 33 50 l0 24 295 0 295 0 0 -24 c0 -17
12 -34 33 -50 l34 -26 247 0 247 0 35 28 c20 16 34 36 34 50 l0 22 330 0 c324
0 330 0 330 -20 0 -11 15 -34 33 -50 l32 -29 252 -1 251 0 31 26 c18 15 31 35
31 49 l0 23 303 5 302 5 312 124 312 125 130 154 c70 85 270 318 442 519 l314
365 510 392 c281 216 516 401 523 410 9 12 12 38 10 75 l-4 56 35 6 c20 3 171
6 336 6 297 0 303 1 635 45 184 24 533 78 775 119 242 42 487 83 545 91 70 11
243 57 520 140 343 103 478 149 780 267 342 134 386 154 683 313 l318 170 222
179 c210 169 230 188 385 369 96 112 185 205 215 227 l52 36 31 177 31 178
-31 175 -31 176 -55 39 c-33 24 -119 114 -215 227 -152 179 -169 195 -385 368
l-225 181 -320 170 c-300 160 -342 180 -683 312 -311 121 -423 159 -775 262
l-412 120 -550 95 c-302 52 -703 115 -890 139 l-340 45 -329 0 -329 0 6 66 c4
37 2 74 -3 84 -5 10 -240 196 -522 413 l-513 395 -380 443 c-210 244 -409 478
-442 519 l-62 75 -303 120 -303 120 -312 3 -313 3 0 24 c0 14 -13 34 -31 49
l-31 26 -249 0 -250 0 -35 -27 c-20 -17 -34 -37 -34 -50 l0 -23 -330 0 -330 0
0 23 c0 13 -14 33 -34 50 l-35 27 -247 0 -247 0 -34 -26 c-21 -16 -33 -33 -33
-50 l0 -24 -295 0 -295 0 0 24 c0 17 -12 34 -33 50 l-34 26 -247 0 -247 0 -35
-26 c-22 -17 -34 -35 -34 -50 l0 -24 -340 0 -340 0 0 23 c0 13 -13 35 -28 50
l-28 27 -251 0 -251 0 -31 -26 c-19 -16 -31 -35 -31 -50 l0 -24 -310 0 -310 0
0 24 c0 17 -12 34 -33 50 l-34 26 -249 0 -249 -1 -33 -27z"/>
</g>
</svg>
