<?xml version="1.0" standalone="no"?>
<!DOCTYPE svg PUBLIC "-//W3C//DTD SVG 20010904//EN"
 "http://www.w3.org/TR/2001/REC-SVG-20010904/DTD/svg10.dtd">
<svg version="1.0" xmlns="http://www.w3.org/2000/svg"
   viewBox="0 0 3959.000000 2212.000000"
 preserveAspectRatio="xMidYMid meet">
<metadata>
Created by potrace 1.16, written by Peter Selinger 2001-2019
</metadata>
<g transform="translate(0.000000,2212.000000) scale(0.100000,-0.100000)"
fill="#000000" stroke="none">
<path d="M11775 21935 c-616 -100 -1240 -201 -1387 -225 l-267 -43 -141 -159
-141 -158 -75 -238 -74 -237 0 -132 0 -132 -342 -293 c-253 -216 -1177 -984
-1325 -1100 -6 -5 -74 -2 -170 7 -87 9 -546 31 -1020 48 l-863 32 -882 -33
-883 -33 -405 -99 c-369 -90 -443 -104 -835 -164 -236 -36 -433 -66 -437 -66
-5 0 -8 -431 -8 -959 l0 -958 28 -6 c15 -2 154 -24 310 -48 l284 -43 -6 -55
c-3 -31 -8 -293 -12 -583 -4 -291 -7 -528 -8 -528 -8 0 -125 -22 -138 -26 -17
-5 -18 21 -18 446 l0 451 -47 -6 c-27 -3 -664 -57 -1418 -120 -753 -63 -1392
-118 -1420 -122 l-50 -8 -12 -140 c-7 -89 -12 -408 -12 -874 l-1 -734 113 6
c61 4 178 10 259 13 l148 7 0 -271 0 -271 -32 -5 c-18 -3 -107 -8 -198 -11
-91 -3 -188 -8 -216 -11 l-51 -6 -11 -88 c-9 -62 -12 -426 -12 -1274 l0 -1186
135 0 135 0 0 -430 0 -430 -135 0 -135 0 1 -1197 c0 -866 4 -1220 12 -1278
l12 -80 125 -7 c69 -4 180 -10 247 -13 l123 -7 0 -274 0 -274 -30 0 c-26 0
-304 15 -438 23 l-52 4 0 -711 c0 -455 4 -772 12 -879 11 -156 13 -168 32
-172 12 -2 646 -56 1411 -120 765 -64 1416 -119 1448 -122 l57 -6 0 492 c0
270 1 491 3 491 8 0 124 -22 138 -26 15 -4 17 -61 23 -547 3 -298 9 -580 12
-627 l6 -85 -253 -39 c-140 -21 -280 -43 -311 -48 l-58 -10 0 -957 0 -957 442
-68 c404 -63 478 -77 843 -166 l400 -98 883 -33 882 -33 878 33 c482 18 937
39 1009 47 l133 14 849 -702 850 -703 0 -129 1 -128 75 -239 75 -239 140 -158
141 -158 1412 -227 1412 -228 905 1 905 1 235 103 235 102 3 605 c2 332 0 645
-3 696 l-7 92 -93 51 -94 50 -5 52 c-3 29 -14 386 -26 793 -11 407 -34 1187
-51 1733 l-30 994 -38 109 c-36 102 -38 109 -20 114 15 5 19 16 19 50 0 32 5
45 18 50 9 4 152 58 316 121 l299 114 391 219 391 218 310 103 c230 76 404
142 675 257 l365 155 1529 129 c841 71 1530 128 1532 126 3 -3 -335 -3609
-339 -3613 -1 -1 -63 24 -137 56 l-135 58 -580 -54 c-319 -29 -588 -53 -597
-54 -17 0 -18 -19 -18 -254 l0 -254 38 -6 c20 -3 290 -29 598 -57 l562 -50
142 60 142 61 1781 0 1782 0 130 35 130 35 1650 0 1650 0 77 -23 76 -22 499
36 c274 21 499 38 501 38 1 1 2 66 2 146 0 107 -3 145 -12 145 -7 0 -231 16
-497 36 l-485 36 -81 -21 c-80 -21 -83 -21 -1737 -21 l-1658 0 -112 32 c-83
23 -143 33 -224 37 l-111 6 502 2020 502 2019 489 53 c269 29 1468 180 2664
336 l2175 284 969 -68 969 -68 979 190 979 189 1562 410 1562 410 505 176 505
176 497 276 498 277 152 169 151 168 49 132 c28 72 69 211 93 309 l43 178 -43
177 c-24 97 -65 236 -91 307 l-48 130 -153 171 -153 170 -498 277 -497 276
-503 176 -504 175 -1564 411 -1565 410 -977 190 -977 189 -939 -65 c-517 -36
-964 -66 -995 -66 -31 0 -1021 126 -2201 281 -1180 154 -2367 305 -2638 334
-271 29 -494 55 -495 57 -2 2 -228 911 -503 2019 l-500 2015 110 6 c78 5 143
16 221 38 l110 31 1664 0 c1650 0 1665 0 1738 -21 l73 -20 483 35 c265 20 490
36 500 36 16 0 17 12 15 147 l-3 148 -499 36 -499 36 -81 -24 -80 -23 -1644 0
-1643 0 -150 40 -150 40 -1774 0 -1774 0 -131 56 -131 57 -577 -52 c-317 -29
-587 -54 -599 -57 l-23 -4 0 -255 0 -255 28 0 c15 -1 284 -24 599 -53 l572
-53 133 58 c72 31 133 56 135 54 4 -3 343 -3609 340 -3613 -2 -1 -691 56
-1532 127 l-1530 129 -350 148 c-245 105 -449 183 -682 262 l-332 113 -389
216 -388 217 -312 119 -312 119 0 53 0 53 -40 12 c-23 7 -39 17 -36 23 2 6 28
63 56 126 l52 115 9 390 c15 746 79 2980 87 3044 l7 65 102 53 101 54 7 92 c3
51 5 364 3 697 l-3 605 -235 102 -235 103 -930 -1 -930 -1 -1120 -183z"/>
</g>
</svg>
