<?xml version="1.0" standalone="no"?>
<!DOCTYPE svg PUBLIC "-//W3C//DTD SVG 20010904//EN"
 "http://www.w3.org/TR/2001/REC-SVG-20010904/DTD/svg10.dtd">
<svg version="1.0" xmlns="http://www.w3.org/2000/svg"
   viewBox="0 0 4475.000000 1862.000000"
 preserveAspectRatio="xMidYMid meet">
<metadata>
Created by potrace 1.16, written by Peter Selinger 2001-2019
</metadata>
<g transform="translate(0.000000,1862.000000) scale(0.100000,-0.100000)"
fill="#000000" stroke="none">
<path d="M3580 18490 l0 -130 -151 0 -150 0 -297 -256 c-163 -142 -308 -267
-321 -280 l-24 -22 61 -84 60 -83 -514 -3 -514 -2 0 -400 0 -400 -58 0 -58 0
-71 -72 -71 -73 -83 -252 -84 -253 -356 0 -356 0 -153 -31 c-136 -27 -171 -39
-297 -98 l-142 -66 -1 -613 0 -613 138 -66 c121 -58 156 -70 295 -100 154 -32
166 -33 388 -33 l229 0 0 -495 0 -495 891 -2 892 -3 -154 -68 -154 -67 -570 0
c-314 0 -580 -3 -592 -6 l-23 -6 0 -1067 0 -1066 -65 -244 -65 -243 0 -234 0
-234 -290 0 -290 0 0 -135 0 -135 -180 0 -180 0 0 -275 0 -275 180 0 c173 0
180 -1 180 -20 0 -18 -7 -20 -85 -20 l-85 0 0 -160 0 -160 85 0 c78 0 85 -2
85 -20 0 -19 -7 -20 -180 -20 l-180 0 0 -275 0 -275 180 0 180 0 0 -135 0
-135 290 0 290 0 0 -234 0 -234 65 -243 65 -244 0 -1066 0 -1067 23 -6 c12 -3
278 -6 592 -6 l570 0 154 -67 154 -68 -892 -3 -891 -2 0 -495 0 -495 -229 0
c-222 0 -234 -1 -388 -33 -139 -30 -174 -42 -296 -100 l-137 -66 0 -613 0
-613 144 -67 c126 -58 163 -70 297 -97 l152 -31 356 0 356 0 84 -253 83 -252
71 -73 71 -72 58 0 58 0 0 -400 0 -400 515 -2 514 -3 -61 -83 -61 -84 24 -22
c13 -13 158 -138 321 -280 l297 -256 150 0 151 0 0 -130 0 -130 235 0 235 0 0
130 0 130 449 0 449 0 6 22 c3 13 6 33 6 46 0 13 35 72 79 133 l78 110 343 0
343 0 92 -98 c100 -107 109 -120 119 -175 l7 -38 364 0 363 0 7 49 c5 39 21
69 81 152 l74 104 343 5 343 5 100 -107 c84 -91 101 -114 110 -155 l10 -48
1327 -3 1327 -2 0 -130 0 -130 235 0 235 0 0 130 0 130 1070 0 1070 0 0 -130
0 -130 155 0 155 0 0 130 0 130 224 0 224 0 421 278 420 278 -128 134 -127
134 -357 -246 -356 -247 -2680 -16 c-1474 -9 -2761 -20 -2858 -25 -288 -15
-244 -28 -357 105 l-97 115 -50 0 -49 0 0 110 0 110 79 0 80 0 223 255 223
254 367 1 367 0 222 -100 222 -100 1678 0 1677 0 801 491 801 491 0 429 0 429
464 0 464 0 123 46 c68 26 129 53 135 60 30 38 34 14 34 -218 l-1 -233 48
-177 48 -178 1203 0 1202 0 0 -33 c0 -23 8 -41 28 -60 l28 -27 240 0 240 0 27
28 c18 19 27 39 27 60 l0 32 513 1 512 0 138 179 137 178 0 231 0 231 55 0 55
0 0 -228 0 -228 45 -164 c25 -91 48 -173 51 -182 5 -17 71 -18 1210 -18 l1204
0 0 -38 c0 -27 7 -45 23 -60 23 -21 31 -22 268 -22 244 0 246 0 267 23 14 15
22 36 22 60 l0 37 513 0 514 0 136 176 137 177 0 233 0 234 60 0 60 0 0 -237
0 -237 47 -173 48 -173 1202 0 1203 0 0 -33 c0 -23 8 -41 28 -60 l28 -27 239
0 239 0 28 27 c20 19 28 37 28 60 l0 33 512 2 512 3 137 175 138 175 0 233 1
232 55 0 55 0 0 -145 0 -145 312 0 312 0 98 37 98 38 0 37 0 38 215 0 215 0 0
-150 0 -150 145 0 145 0 0 150 0 150 35 0 35 0 0 -220 0 -220 140 0 140 0 0
220 0 220 35 0 35 0 0 -150 0 -150 145 0 145 0 0 150 c0 143 1 150 20 150 20
0 20 -7 20 -360 l0 -360 -67 0 -68 0 -89 -114 -88 -115 -47 5 c-174 17 -413
24 -817 24 -310 0 -486 4 -532 12 l-69 12 -274 247 -274 247 -97 -131 -97
-132 22 -22 c12 -12 155 -137 317 -277 l295 -256 153 0 152 0 0 -135 0 -135
235 0 235 0 0 135 0 135 450 0 c352 0 451 3 455 13 2 6 6 28 9 47 4 22 35 76
79 138 l74 102 346 1 346 0 99 -106 c87 -93 101 -112 107 -151 l6 -44 364 0
c397 0 375 -3 375 59 0 17 27 63 78 134 l77 108 345 0 345 1 97 -104 c63 -66
100 -114 103 -133 4 -16 9 -38 11 -47 5 -17 77 -18 1330 -18 l1324 0 0 -135 0
-135 240 0 240 0 0 135 0 135 1065 0 1065 0 0 -135 0 -135 155 0 155 0 0 135
0 135 229 0 230 0 416 275 417 275 -127 135 -127 135 -107 -74 c-58 -41 -220
-152 -358 -248 l-253 -174 -2587 -12 c-2283 -11 -2957 -19 -3150 -37 l-52 -5
-97 115 -98 115 -53 0 -53 0 0 360 0 360 40 0 40 0 0 -150 0 -150 145 0 145 0
0 150 0 150 35 0 35 0 0 -220 0 -220 140 0 140 0 0 220 0 220 35 0 35 0 0
-150 0 -150 145 0 145 0 0 150 0 150 195 0 195 0 0 -38 0 -38 103 -37 c56 -21
108 -37 115 -37 9 0 12 -25 12 -90 l0 -90 1361 0 1360 0 2762 595 2761 595 46
38 c25 21 242 283 483 581 l437 542 0 785 0 784 -500 0 -500 0 0 125 0 125
-1550 0 -1549 0 -3 59 -3 58 -240 207 -240 206 -478 0 -479 0 -109 71 -109 71
0 84 0 83 88 60 c60 40 93 69 101 90 7 16 19 32 26 35 21 8 27 70 32 309 l4
227 244 0 245 0 0 95 0 95 -255 0 -255 0 0 385 0 385 35 0 35 0 0 215 0 215
220 0 220 0 0 95 0 95 -245 0 -244 0 -4 228 c-4 233 -10 290 -32 307 -6 6 -19
24 -28 41 -10 20 -47 51 -101 85 l-85 54 -1 87 0 86 110 71 110 71 478 0 477
0 240 206 240 207 3 58 3 59 1549 0 1550 0 0 125 0 125 500 0 500 0 0 784 0
785 -434 539 c-239 296 -457 558 -484 580 l-50 42 -2760 595 -2761 595 -1360
0 -1361 0 0 -90 c0 -65 -3 -90 -12 -90 -7 0 -59 -16 -115 -37 l-103 -37 0 -38
0 -38 -195 0 -195 0 0 150 0 150 -145 0 -145 0 0 -150 0 -150 -35 0 -35 0 0
220 0 220 -140 0 -140 0 0 -220 0 -220 -35 0 -35 0 0 150 0 150 -145 0 -145 0
0 -150 0 -150 -40 0 -40 0 0 360 0 360 53 0 54 0 97 115 97 115 52 -5 c194
-18 858 -26 3145 -37 l2592 -12 253 -174 c138 -96 300 -207 358 -248 l107 -74
127 135 127 135 -417 275 -416 275 -230 0 -229 0 0 135 0 135 -155 0 -155 0 0
-135 0 -135 -1065 0 -1065 0 0 135 0 135 -240 0 -240 0 0 -135 0 -135 -1324 0
c-1253 0 -1325 -1 -1330 -17 -2 -10 -7 -31 -11 -48 -3 -19 -40 -67 -103 -133
l-97 -104 -345 1 -345 0 -77 108 c-51 71 -78 117 -78 134 0 62 22 59 -375 59
l-364 0 -6 -44 c-6 -39 -20 -58 -107 -151 l-99 -106 -347 0 -347 1 -72 102
c-43 61 -75 117 -79 138 -3 19 -7 41 -9 48 -4 9 -103 12 -455 12 l-450 0 0
135 0 135 -235 0 -235 0 0 -135 0 -135 -152 0 -153 0 -295 -256 c-162 -140
-305 -265 -317 -277 l-22 -22 97 -132 97 -131 274 247 274 247 69 12 c46 8
222 12 532 12 404 0 643 7 817 24 l47 5 88 -115 89 -114 68 0 67 0 0 -360 c0
-353 0 -360 -20 -360 -19 0 -20 7 -20 150 l0 150 -145 0 -145 0 0 -150 0 -150
-35 0 -35 0 0 220 0 220 -140 0 -140 0 0 -220 0 -220 -35 0 -35 0 0 150 0 150
-145 0 -145 0 0 -150 0 -150 -215 0 -215 0 0 38 0 37 -98 38 -98 37 -312 0
-312 0 0 -95 0 -95 -55 0 -55 0 -1 183 0 182 -138 175 -137 175 -512 3 -512 2
0 33 c0 23 -8 41 -28 60 l-28 27 -239 0 -239 0 -28 -27 c-20 -19 -28 -37 -28
-60 l0 -33 -1203 0 -1202 0 -48 -173 -47 -173 0 -187 0 -187 -60 0 -60 0 0
184 0 183 -137 177 -136 176 -514 0 -513 0 0 38 c0 27 -7 45 -23 60 -23 21
-31 22 -268 22 -244 0 -246 0 -267 -23 -14 -15 -22 -36 -22 -60 l0 -37 -1204
0 c-1139 0 -1205 -1 -1210 -17 -3 -10 -26 -92 -51 -183 l-45 -164 0 -178 0
-178 -55 0 -55 0 0 181 0 181 -137 178 -138 179 -512 0 -513 1 0 32 c0 21 -9
41 -27 60 l-27 28 -241 0 -241 0 -27 -28 c-18 -19 -27 -39 -27 -60 l0 -32
-1202 0 -1203 0 -48 -178 -48 -177 1 -182 0 -183 -65 0 c-58 0 -65 -2 -65 -20
0 -11 -1 -20 -3 -20 -1 0 -38 14 -80 30 l-78 30 -465 0 -464 0 0 429 0 429
-801 491 -801 491 -1677 0 -1678 0 -222 -100 -222 -100 -367 0 -367 1 -223
254 -224 255 -79 0 -79 0 0 110 0 110 49 0 50 0 97 115 c113 133 69 120 357
105 98 -5 1384 -17 2858 -25 l2679 -16 357 -247 357 -246 128 133 128 134
-421 279 -420 278 -225 0 -224 0 0 130 0 130 -155 0 -155 0 0 -130 0 -130
-1070 0 -1070 0 0 130 0 130 -235 0 -235 0 0 -130 0 -130 -1327 -2 -1327 -3
-10 -48 c-9 -41 -26 -64 -110 -155 l-100 -107 -343 5 -343 5 -74 104 c-60 83
-76 113 -81 152 l-7 49 -363 0 -364 0 -7 -37 c-10 -56 -19 -69 -119 -176 l-92
-98 -343 0 -343 0 -78 110 c-44 61 -79 120 -79 133 0 13 -3 33 -6 46 l-6 22
-449 0 -449 0 0 130 0 130 -235 0 -235 0 0 -130z m1351 -517 c45 -60 88 -111
94 -115 5 -4 38 -8 73 -8 l62 0 0 -110 0 -110 -1112 0 c-1081 0 -1112 1 -1093
18 11 11 110 100 221 200 l200 180 83 16 c68 13 174 16 595 17 281 1 552 4
601 8 50 5 113 9 141 9 l51 2 84 -107z m1424 92 c39 0 120 4 180 8 l110 8 89
-116 89 -115 59 0 58 0 0 -110 0 -110 -550 0 -550 0 0 110 0 110 40 0 c45 0
44 -1 158 138 l77 93 85 -8 c47 -4 117 -8 155 -8z m26140 -1633 c44 -4 145 -2
225 4 80 6 148 9 151 5 3 -3 43 -54 89 -113 l83 -108 63 0 64 0 0 -360 c0
-353 0 -360 -20 -360 -19 0 -20 7 -20 150 l0 150 -145 0 -145 0 0 -150 0 -150
-35 0 -35 0 0 220 0 220 -145 0 -145 0 0 -220 0 -220 -30 0 -30 0 0 150 0 150
-145 0 -145 0 0 -150 0 -150 -35 0 -35 0 0 360 0 360 45 0 44 0 96 114 c94
113 96 114 133 109 20 -2 73 -7 117 -11z m-14065 -322 c0 -6 -30 -10 -70 -10
-40 0 -70 4 -70 10 0 6 30 10 70 10 40 0 70 -4 70 -10z m4500 0 c0 -6 -28 -10
-65 -10 -37 0 -65 4 -65 10 0 6 28 10 65 10 37 0 65 -4 65 -10z m4510 0 c0 -6
-30 -10 -70 -10 -40 0 -70 4 -70 10 0 6 30 10 70 10 40 0 70 -4 70 -10z
m-24210 -2685 l0 -55 -100 0 -100 0 0 -65 0 -65 -70 0 -70 0 0 33 c1 31 5 34
163 119 89 48 165 87 170 87 4 1 7 -24 7 -54z m-1358 -199 l208 -62 -120 -39
-120 -39 0 -393 0 -393 -110 0 -110 0 0 500 0 500 23 -5 c12 -3 115 -34 229
-69z m-32 -1325 l0 -150 -52 -26 c-29 -14 -79 -52 -110 -83 l-58 -56 0 232 0
232 110 0 110 0 0 -149z m146 -681 c32 -11 66 -23 74 -26 24 -10 -108 -44
-170 -44 l-54 0 44 45 c24 25 45 45 46 45 0 0 27 -9 60 -20z m24 -3769 c39
-11 59 -21 50 -25 -8 -3 -42 -15 -75 -26 l-59 -20 -46 45 -45 45 55 0 c30 0
84 -9 120 -19z m-222 -556 l52 -26 0 -150 0 -149 -110 0 -110 0 0 232 0 232
58 -56 c31 -31 81 -69 110 -83z m52 -968 l0 -393 120 -39 120 -39 -208 -62
c-114 -35 -217 -66 -229 -69 l-23 -5 0 500 0 500 110 0 110 0 0 -393z m1190
-612 l0 -65 100 0 100 0 0 -56 c0 -32 -4 -54 -10 -52 -5 2 -81 41 -169 88
-157 83 -161 86 -161 118 l0 32 70 0 70 0 0 -65z m29100 -2345 l0 -150 145 0
145 0 0 150 0 150 30 0 30 0 0 -220 0 -220 145 0 145 0 0 220 0 220 35 0 35 0
0 -150 0 -150 145 0 145 0 0 150 c0 143 1 150 20 150 20 0 20 -7 20 -360 l0
-360 -64 0 -64 0 -88 -115 -89 -115 -35 7 c-47 10 -428 10 -462 1 -24 -7 -33
1 -122 107 l-97 115 -44 0 -45 0 0 360 0 360 35 0 35 0 0 -150z m-13700 -460
c0 -6 -30 -10 -70 -10 -40 0 -70 4 -70 10 0 6 30 10 70 10 40 0 70 -4 70 -10z
m4500 0 c0 -6 -28 -10 -65 -10 -37 0 -65 4 -65 10 0 6 28 10 65 10 37 0 65 -4
65 -10z m4510 0 c0 -6 -30 -10 -70 -10 -40 0 -70 4 -70 10 0 6 30 10 70 10 40
0 70 -4 70 -10z m-22280 -1630 l0 -110 -62 0 c-35 0 -68 -4 -73 -8 -6 -4 -49
-56 -95 -116 l-85 -108 -70 7 c-38 3 -347 10 -685 14 -440 6 -629 12 -665 21
-44 11 -74 35 -250 193 -110 99 -209 188 -220 199 -19 17 12 18 1093 18 l1112
0 0 -110z m1780 0 l0 -110 -58 0 -59 0 -89 -115 -89 -116 -110 8 c-140 10
-228 10 -335 0 l-85 -8 -77 93 c-114 139 -113 138 -158 138 l-40 0 0 110 0
110 550 0 550 0 0 -110z"/>
</g>
</svg>
