<?xml version="1.0" standalone="no"?>
<!DOCTYPE svg PUBLIC "-//W3C//DTD SVG 20010904//EN"
 "http://www.w3.org/TR/2001/REC-SVG-20010904/DTD/svg10.dtd">
<svg version="1.0" xmlns="http://www.w3.org/2000/svg"
   viewBox="0 0 4647.000000 806.000000"
 preserveAspectRatio="xMidYMid meet">
<metadata>
Created by potrace 1.16, written by Peter Selinger 2001-2019
</metadata>
<g transform="translate(0.000000,806.000000) scale(0.100000,-0.100000)"
fill="#000000" stroke="none">
<path d="M19170 7898 l1 -163 87 -52 87 -53 -130 0 -130 0 -23 -83 c-13 -45
-26 -88 -31 -95 -4 -7 -203 -66 -441 -133 -239 -66 -520 -150 -625 -187 -172
-60 -207 -76 -368 -173 l-178 -107 -189 -223 -189 -224 -1 -132 0 -132 -197 6
c-109 3 -319 0 -468 -6 -264 -12 -1129 -54 -1372 -67 l-123 -7 0 -69 c0 -46
-4 -70 -12 -72 -7 -2 -76 -9 -153 -14 -77 -6 -180 -19 -228 -28 -78 -14 -87
-18 -82 -35 6 -18 -6 -19 -387 -19 -1215 0 -9632 30 -10160 36 l-628 7 0 -52
c0 -51 0 -51 33 -52 17 0 59 -8 92 -17 l60 -17 3 -142 3 -142 -33 -5 c-18 -3
-658 -44 -1423 -91 -1153 -71 -1689 -111 -1700 -128 -1 -1 -23 -32 -48 -68
l-47 -67 0 -166 0 -166 100 0 c55 0 100 -3 99 -7 0 -5 -61 -62 -135 -128 -75
-66 -158 -144 -185 -173 l-49 -54 0 -362 0 -362 83 -81 c45 -44 128 -122 184
-173 57 -51 103 -97 103 -101 0 -5 -45 -9 -100 -9 l-100 0 0 -165 0 -165 47
-65 c26 -36 56 -68 68 -70 109 -23 426 -47 1650 -125 781 -49 1435 -90 1453
-90 l32 0 0 -144 0 -143 -58 -17 c-32 -9 -75 -16 -95 -16 l-37 0 0 -56 0 -57
192 7 c186 6 3193 18 8462 32 2526 7 2528 7 2522 -13 -6 -18 2 -21 96 -37 57
-9 165 -22 241 -28 l137 -11 0 -68 0 -68 53 -5 c49 -6 143 -11 627 -36 559
-29 885 -40 1168 -40 l312 0 0 -132 1 -133 187 -222 c181 -214 194 -227 362
-360 l175 -137 190 -68 c173 -62 229 -76 630 -159 242 -50 442 -93 445 -96 3
-2 16 -43 30 -91 l26 -87 130 -5 129 -5 -87 -50 -87 -50 -1 -167 0 -168 1400
0 1400 0 0 168 0 167 -86 50 -85 50 132 5 133 5 26 88 25 87 441 0 440 0 27
-90 27 -89 132 -3 132 -3 -84 -50 -85 -51 -3 -167 -2 -167 1400 0 1400 0 -2
167 -3 167 -85 51 -84 50 131 3 131 3 22 72 c12 40 23 80 26 90 5 16 36 17
517 15 l511 -3 26 -87 25 -88 135 0 135 0 -87 -52 -88 -53 0 -167 0 -168 1395
0 1395 0 0 168 0 167 -87 53 -88 52 135 0 135 0 26 93 25 92 475 96 c261 53
542 113 624 133 l150 37 163 162 c90 89 249 264 353 389 l189 226 0 93 0 92
188 -9 c103 -5 241 -9 307 -9 186 0 1717 14 2223 21 l452 6 0 24 c0 15 6 24
16 24 13 0 15 7 9 43 -4 23 -9 44 -11 46 -3 3 -45 7 -94 9 l-90 4 0 77 0 77
83 20 82 20 3 70 3 70 84 28 85 27 0 93 0 93 -88 32 c-79 28 -99 31 -205 31
-102 0 -117 2 -117 16 0 14 -9 16 -60 11 l-60 -5 0 104 0 104 248 0 c240 0
254 1 442 35 l195 36 1835 58 1835 59 690 140 c547 112 714 149 803 181 63 23
123 41 134 41 10 0 26 7 34 15 9 8 27 15 42 15 15 0 131 7 257 16 127 8 291
15 365 15 149 -1 262 6 1255 79 999 74 1044 78 1200 111 80 17 291 47 490 69
219 25 375 47 416 59 39 13 147 28 279 41 208 20 516 78 610 115 19 7 105 23
190 35 176 25 200 29 200 39 0 4 -85 19 -190 34 -104 15 -198 31 -207 37 -48
27 -384 91 -600 114 -125 14 -250 31 -278 39 -71 21 -84 23 -435 61 -174 19
-369 47 -435 61 -177 38 -194 40 -1045 105 -1130 86 -1195 90 -1389 91 -243 0
-724 32 -729 47 -2 7 -12 12 -22 12 -10 0 -69 18 -132 41 -91 33 -250 68 -823
184 l-710 143 -1805 56 -1805 57 -201 34 c-194 34 -210 35 -457 35 l-257 0 0
106 0 107 60 -7 c56 -7 60 -6 60 14 0 19 6 20 122 20 105 0 133 4 205 27 l83
27 0 96 0 97 -82 24 -83 24 -3 71 -3 70 -82 20 -82 20 -3 75 c-3 89 -4 89 114
89 l71 0 7 38 c9 54 8 62 -9 62 -8 0 -15 9 -15 19 0 17 -10 20 -72 25 -83 7
-2706 27 -2735 21 -10 -2 -96 -6 -190 -9 l-173 -5 0 90 0 91 -187 224 c-176
212 -195 231 -352 358 l-166 133 -160 38 c-252 59 -1079 286 -1086 297 -4 6
-17 48 -29 94 l-23 83 -128 3 -129 3 80 49 80 48 0 164 0 164 -1395 0 -1395 0
0 -164 0 -164 83 -49 82 -48 -131 -3 -131 -3 -24 -84 -23 -85 -514 0 c-401 0
-514 3 -517 13 -2 6 -13 44 -25 84 l-21 72 -130 3 -130 3 85 50 86 50 0 163 0
162 -1400 0 -1400 0 2 -162 3 -162 85 -53 84 -53 -132 0 c-97 0 -134 -3 -137
-12 -2 -7 -13 -46 -25 -85 l-21 -73 -443 0 -443 0 -24 85 -23 84 -131 3 -130
3 82 50 82 50 1 163 0 162 -1400 0 -1400 0 0 -162z"/>
</g>
</svg>
