<?xml version="1.0" standalone="no"?>
<!DOCTYPE svg PUBLIC "-//W3C//DTD SVG 20010904//EN"
 "http://www.w3.org/TR/2001/REC-SVG-20010904/DTD/svg10.dtd">
<svg version="1.0" xmlns="http://www.w3.org/2000/svg"
   viewBox="0 0 4872.000000 1254.000000"
 preserveAspectRatio="xMidYMid meet">
<metadata>
Created by potrace 1.16, written by Peter Selinger 2001-2019
</metadata>
<g transform="translate(0.000000,1254.000000) scale(0.100000,-0.100000)"
fill="#000000" stroke="none">
<path d="M23383 12497 l-61 -42 -18 -90 c-9 -49 -17 -91 -18 -92 -1 -1 -96
-29 -211 -63 l-210 -62 -254 -147 -254 -146 -166 -189 -166 -189 -40 -135 -40
-136 -50 -12 c-28 -7 -95 -22 -150 -34 l-100 -23 -150 -148 -150 -148 -135
-230 -135 -231 -902 0 c-783 0 -903 2 -903 15 0 17 10 14 -375 105 -170 40
-315 78 -321 84 -7 6 -28 61 -48 121 -20 61 -40 115 -44 121 -4 6 -97 74 -206
152 -166 118 -214 147 -286 173 l-87 31 -12 86 c-7 48 -15 95 -18 105 -2 10
-35 38 -71 62 l-67 45 -755 0 -755 0 -67 -45 c-54 -36 -68 -51 -73 -77 -3 -18
-11 -66 -18 -107 l-12 -75 -80 -31 c-59 -23 -133 -69 -279 -173 l-199 -142
-69 -124 c-37 -68 -74 -128 -81 -134 -6 -5 -65 -38 -130 -72 l-118 -62 -302 3
-302 3 -90 -46 c-108 -56 -140 -88 -239 -241 l-76 -117 0 -138 0 -137 76 -120
c42 -66 91 -135 108 -153 17 -19 76 -56 130 -84 l100 -50 120 1 121 1 -80 -51
c-55 -36 -138 -109 -268 -238 -162 -160 -203 -208 -298 -343 l-110 -158 -65 0
c-36 0 -174 -18 -306 -40 -133 -23 -244 -37 -248 -33 -3 4 -22 62 -42 128 -20
66 -48 159 -63 208 l-26 87 -675 0 c-371 0 -674 2 -674 5 0 3 -25 267 -55 588
l-55 582 -38 98 -37 97 -105 90 c-95 82 -123 100 -295 184 l-190 93 -197 32
-197 31 -193 -32 c-188 -30 -196 -33 -328 -94 -202 -94 -235 -114 -355 -217
l-110 -94 -34 -94 -33 -94 -39 -520 c-21 -286 -38 -525 -39 -530 0 -6 -45 -48
-100 -93 -74 -61 -121 -110 -182 -192 -65 -86 -85 -107 -94 -97 -7 6 -62 102
-123 212 l-111 200 -185 73 -184 73 -203 24 c-282 35 -544 35 -788 0 l-175
-24 -141 -73 -141 -73 -112 -255 -111 -255 -65 -319 c-36 -175 -65 -319 -65
-320 0 -2 -167 -6 -372 -9 l-371 -7 -196 -50 c-108 -28 -335 -89 -506 -135
-260 -70 -342 -87 -510 -110 -110 -15 -272 -42 -360 -60 -88 -19 -196 -39
-240 -45 l-81 -12 -209 84 c-197 79 -218 90 -332 174 l-121 89 -90 205 c-49
113 -93 221 -96 239 -19 105 -15 101 -187 226 l-162 117 -351 14 c-193 7 -373
13 -401 14 l-50 0 -74 109 -74 108 -266 7 -266 7 -225 -61 c-163 -45 -275 -83
-410 -140 -185 -77 -189 -79 -478 -279 -275 -191 -292 -205 -322 -258 -21 -37
-35 -79 -41 -122 -5 -36 -11 -83 -14 -103 l-5 -37 178 -131 178 -132 -28 -30
-28 -30 0 -235 c0 -218 -1 -234 -17 -231 -11 2 -28 -10 -45 -32 l-27 -35 -1
-338 0 -337 27 -41 c21 -31 31 -39 48 -35 11 3 47 8 78 12 l57 7 0 -33 0 -33
-57 7 c-31 4 -67 9 -78 12 -17 4 -27 -4 -48 -35 l-27 -41 0 -337 1 -338 27
-35 c17 -22 34 -34 45 -32 16 3 17 -13 17 -231 l0 -235 28 -30 28 -30 -178
-132 -178 -131 5 -37 c3 -20 9 -67 14 -103 6 -43 20 -85 41 -122 30 -53 47
-67 322 -258 289 -200 293 -202 478 -279 135 -57 247 -95 410 -140 l225 -61
266 7 266 7 74 108 74 109 50 0 c28 1 208 7 401 14 l351 14 162 117 c172 125
168 121 187 226 3 18 47 126 96 239 l90 205 121 89 c114 84 135 95 332 174
l209 84 81 -12 c44 -6 152 -26 240 -45 88 -18 250 -45 360 -60 173 -23 249
-40 565 -125 201 -54 429 -115 507 -134 l143 -36 370 -7 c203 -3 370 -7 370
-9 0 -1 29 -145 65 -320 l65 -319 111 -255 112 -255 141 -73 141 -73 175 -24
c244 -35 506 -35 788 0 l203 24 184 73 185 73 111 200 c61 110 116 206 123
212 9 10 29 -11 94 -97 61 -82 108 -131 182 -192 55 -45 100 -87 100 -93 1 -5
18 -244 39 -530 l39 -520 33 -94 34 -94 110 -94 c119 -102 153 -123 355 -217
132 -62 139 -64 328 -95 l193 -31 197 31 197 32 190 93 c172 84 200 102 295
184 l105 90 37 97 38 98 55 582 c30 321 55 585 55 588 0 3 303 5 674 5 l675 0
26 88 c15 48 43 141 63 207 20 66 39 124 42 128 4 4 115 -10 248 -33 132 -22
270 -40 305 -40 l64 0 111 -157 c95 -135 138 -185 299 -344 131 -130 212 -202
268 -238 l80 -51 -121 1 -120 1 -100 -50 c-54 -28 -113 -65 -130 -84 -17 -18
-66 -87 -108 -153 l-76 -120 0 -137 0 -138 76 -117 c99 -153 131 -185 239
-241 l90 -46 302 3 302 3 118 -62 c65 -34 124 -67 130 -72 7 -6 44 -66 81
-134 l69 -124 199 -142 c146 -104 220 -150 279 -173 l80 -31 12 -75 c7 -41 15
-89 18 -107 5 -26 19 -41 73 -77 l67 -45 755 0 755 0 67 45 c36 24 69 52 71
62 3 10 11 57 18 105 l12 86 87 31 c72 26 120 55 286 173 109 78 202 146 206
152 4 6 24 61 44 121 20 61 41 115 48 121 6 6 151 44 321 84 385 91 375 88
375 105 0 13 120 15 903 15 l902 0 135 -231 135 -230 150 -148 150 -148 100
-23 c55 -12 122 -27 150 -34 l50 -12 40 -136 40 -136 166 -189 166 -188 254
-146 254 -147 210 -62 c115 -34 210 -62 211 -63 1 -1 9 -42 18 -92 l18 -90 64
-43 64 -42 763 0 762 0 66 44 66 45 13 80 c8 44 16 85 19 89 3 5 103 38 221
73 l215 63 257 151 257 150 160 183 c153 175 162 187 182 255 11 40 29 102 40
138 l20 65 172 38 c95 20 240 50 322 65 135 25 175 38 403 130 355 143 351
141 475 239 62 49 220 163 352 254 216 148 261 175 446 261 l207 97 1494 0
1494 0 64 65 64 65 182 0 182 0 168 160 168 160 192 0 192 0 71 -90 c42 -53
80 -91 93 -94 13 -3 129 -17 258 -31 233 -25 242 -25 1080 -25 l846 0 53 128
c30 70 57 130 60 134 3 4 245 16 536 27 l530 20 149 58 150 58 82 99 82 99 23
105 c19 83 27 106 44 113 19 7 262 39 302 39 13 0 45 -31 91 -87 l71 -88 208
-92 208 -92 250 -25 c176 -18 340 -27 555 -31 277 -6 326 -4 535 18 l230 24
215 101 214 100 127 157 127 157 21 91 c11 51 29 128 39 172 l18 80 179 42
c99 24 284 63 410 88 127 25 239 48 251 50 18 4 25 28 63 212 55 268 91 422
100 428 4 2 34 -34 66 -81 53 -79 107 -129 260 -245 6 -4 95 -12 199 -19 148
-9 232 -9 380 0 l190 12 66 52 c36 28 83 66 106 83 l41 32 37 -167 38 -167
120 -150 c67 -82 127 -155 135 -162 8 -6 107 -52 221 -103 l206 -92 250 -31
250 -31 256 32 257 32 204 91 c112 50 210 96 218 102 7 6 68 79 135 162 l122
150 39 172 38 172 -32 196 c-18 108 -31 204 -28 214 2 9 77 123 166 253 l162
237 112 35 c62 19 157 48 213 65 l101 31 13 117 c17 164 25 184 80 204 34 12
46 22 48 40 2 13 8 28 13 33 5 6 9 27 9 48 0 22 5 41 13 43 6 3 78 9 159 13
122 7 151 11 168 27 19 17 51 19 638 21 675 4 1702 21 1710 29 3 3 -35 5 -84
5 -49 1 -438 7 -864 14 -426 7 -845 9 -930 5 -86 -4 -186 -4 -225 1 -38 5
-106 10 -149 10 -57 0 -84 4 -96 15 -13 12 -57 18 -170 25 -107 6 -156 13
-161 22 -5 7 -9 29 -9 49 0 19 -4 39 -9 45 -5 5 -11 20 -13 33 -2 18 -14 28
-48 40 -55 20 -63 40 -80 204 l-13 117 -101 31 c-56 17 -151 46 -213 65 l-112
35 -162 237 c-89 130 -164 244 -166 253 -3 10 10 106 28 214 l32 196 -38 172
-39 172 -122 150 c-67 83 -128 156 -135 162 -8 6 -106 52 -218 102 l-204 91
-257 32 -256 32 -250 -31 -250 -31 -206 -92 c-114 -51 -213 -97 -221 -103 -8
-7 -68 -79 -135 -162 l-120 -150 -38 -167 -37 -167 -41 32 c-23 17 -70 55
-106 83 l-66 52 -190 12 c-148 9 -232 9 -380 0 -104 -7 -193 -15 -199 -19
-140 -105 -209 -170 -261 -246 -31 -47 -61 -82 -65 -80 -9 6 -45 160 -100 428
-38 184 -45 208 -63 212 -12 2 -124 25 -251 50 -126 25 -311 64 -410 88 l-179
42 -18 80 c-10 44 -28 121 -39 172 l-21 91 -127 157 -127 157 -214 100 -215
101 -230 24 c-209 22 -258 24 -535 18 -215 -4 -379 -13 -555 -31 l-250 -25
-208 -92 -208 -92 -71 -88 c-46 -56 -78 -87 -91 -87 -40 0 -283 32 -302 39
-17 7 -25 30 -44 113 l-23 105 -82 99 -82 99 -150 58 -149 58 -530 20 c-291
11 -533 23 -536 27 -3 4 -30 64 -60 135 l-53 127 -846 0 c-838 0 -847 0 -1080
-25 -129 -14 -245 -28 -258 -31 -13 -3 -51 -41 -93 -94 l-71 -90 -192 0 -192
0 -168 160 -168 160 -182 0 -182 0 -64 65 -64 65 -1494 0 -1494 0 -207 97
c-185 86 -231 113 -444 260 -131 90 -290 204 -352 254 -126 99 -122 97 -477
240 -228 92 -268 105 -403 130 -82 15 -227 45 -322 65 l-172 38 -20 65 c-11
36 -29 98 -40 138 -20 68 -29 80 -182 255 l-160 183 -257 150 -257 151 -215
63 c-118 35 -218 68 -221 73 -3 4 -11 45 -19 89 l-13 80 -66 45 -66 44 -765
-1 -765 0 -62 -42z"/>
</g>
</svg>
