<?xml version="1.0" standalone="no"?>
<!DOCTYPE svg PUBLIC "-//W3C//DTD SVG 20010904//EN"
 "http://www.w3.org/TR/2001/REC-SVG-20010904/DTD/svg10.dtd">
<svg version="1.0" xmlns="http://www.w3.org/2000/svg"
   viewBox="0 0 3819.000000 2974.000000"
 preserveAspectRatio="xMidYMid meet">
<metadata>
Created by potrace 1.16, written by Peter Selinger 2001-2019
</metadata>
<g transform="translate(0.000000,2974.000000) scale(0.100000,-0.100000)"
fill="#000000" stroke="none">
<path d="M6379 29722 c-13 -18 -32 -18 -364 -13 -274 5 -352 3 -358 -6 -6 -9
-45 -13 -136 -13 l-129 0 -7 -155 c-4 -85 -4 -254 0 -374 l7 -219 92 -6 c50
-4 109 -7 131 -9 36 -2 40 -5 43 -30 l3 -28 265 3 265 3 -3 -30 -3 -30 -405
-7 c-223 -5 -989 -10 -1702 -13 -1091 -5 -1298 -8 -1298 -19 0 -12 202 -15
1258 -21 691 -3 1457 -9 1702 -13 l445 -7 3 -61 3 -61 -228 -7 c-125 -3 -283
-9 -351 -12 -120 -6 -123 -7 -138 -34 l-16 -27 -682 -6 c-400 -3 -691 -9 -706
-15 -16 -6 -710 -12 -1845 -16 -1991 -7 -2225 -10 -2225 -32 0 -12 172 -14
1123 -15 1310 -2 2668 -13 3645 -31 l694 -13 14 -26 13 -26 223 -7 c123 -3
280 -9 351 -12 l127 -7 0 -58 0 -59 -50 -25 -49 -25 -528 0 c-825 0 -1473 -11
-1473 -25 0 -13 737 -25 1548 -25 l453 0 49 -25 50 -25 0 -119 0 -118 -182 -6
c-99 -4 -408 -7 -685 -7 -329 0 -503 -3 -503 -10 0 -5 6 -11 13 -11 6 -1 314
-5 682 -8 l670 -6 3 -117 3 -118 -186 0 -187 0 -15 -39 -15 -39 -157 -6 c-86
-4 -1078 -33 -2206 -66 -1127 -33 -2105 -62 -2172 -66 l-123 -6 0 -44 0 -44
58 0 c91 0 4333 -119 4477 -126 l131 -6 16 -29 17 -29 181 0 180 0 0 -274 0
-275 37 -3 37 -3 68 -400 c37 -220 67 -408 67 -419 1 -17 -5 -18 -59 -13 l-60
5 0 -175 0 -176 90 6 c50 4 90 5 90 2 0 -9 380 -2289 385 -2312 5 -20 1 -21
-93 -28 -53 -4 -119 -8 -147 -8 l-49 -2 -46 82 -45 83 -160 0 c-88 0 -197 -3
-242 -7 l-83 -6 -67 -77 -68 -78 -148 -53 c-81 -29 -153 -56 -160 -61 -9 -5
-14 -119 -19 -475 -8 -517 -5 -610 21 -617 9 -3 72 -17 141 -31 69 -14 132
-28 140 -31 9 -2 49 -49 90 -104 l74 -100 244 2 244 3 41 102 40 103 241 -6
c133 -4 242 -7 242 -8 1 -1 4 -49 8 -108 l7 -108 -53 0 c-52 0 -190 -48 -1060
-367 l-98 -35 0 -494 0 -494 -52 0 c-52 0 -54 1 -88 51 l-35 50 -80 -5 c-44
-3 -154 -6 -245 -6 l-166 0 -64 -90 c-72 -101 -50 -90 -271 -141 l-139 -33 0
-547 0 -547 118 -22 c227 -42 199 -27 281 -145 l73 -105 252 0 251 0 33 85 34
85 49 0 49 0 2 -307 3 -308 265 -95 c146 -53 388 -140 538 -194 l272 -98 0
-44 0 -44 -355 0 -356 0 -57 -29 -57 -29 -997 -9 c-549 -5 -1001 -13 -1005
-16 -3 -4 -4 -9 -1 -12 3 -3 455 -11 1004 -16 l998 -11 58 -29 57 -29 351 0
350 0 0 -95 0 -95 -265 0 c-224 0 -272 -3 -303 -16 -33 -15 -123 -17 -774 -23
-405 -3 -740 -9 -744 -13 -4 -5 -5 -10 -2 -13 3 -3 336 -8 739 -12 689 -5 737
-7 778 -24 39 -17 71 -19 303 -19 l260 0 -4 -124 c-2 -69 -6 -127 -9 -130 -3
-4 -318 -17 -700 -31 l-694 -24 -20 -25 -20 -25 -680 -7 c-545 -5 -685 -9
-707 -20 -22 -12 -175 -14 -861 -14 -1623 0 -3207 -12 -3207 -25 0 -14 1229
-25 2905 -25 947 0 1138 -2 1166 -14 27 -11 166 -15 709 -21 l675 -7 20 -25
21 -25 474 -17 c471 -16 474 -17 300 -24 -96 -4 -329 -7 -517 -7 l-343 0 0
-409 0 -409 -52 -16 c-29 -8 -241 -70 -471 -138 l-417 -122 2 -574 3 -575 468
-140 467 -140 0 -409 0 -408 672 0 c369 0 669 -2 666 -5 -3 -3 -286 -14 -629
-25 l-624 -20 -17 -22 c-10 -13 -18 -26 -18 -29 0 -3 -306 -8 -680 -12 -515
-4 -685 -9 -702 -18 -18 -10 -456 -14 -2048 -20 -1114 -4 -2026 -7 -2027 -8
-2 0 -3 -7 -3 -14 0 -12 341 -15 2023 -21 1208 -4 2036 -11 2057 -16 19 -6
336 -14 705 -19 l670 -10 20 -25 20 -24 691 -24 c380 -14 696 -28 702 -32 8
-5 12 -47 12 -132 l0 -124 -260 0 c-220 0 -266 -3 -298 -16 -33 -15 -121 -18
-774 -23 -405 -4 -740 -10 -744 -14 -4 -4 -5 -10 -2 -13 3 -3 336 -8 739 -11
689 -5 737 -6 778 -24 39 -17 71 -19 307 -19 l264 0 0 -95 0 -95 -350 0 -351
0 -59 -30 -59 -30 -474 0 c-261 0 -711 -3 -1000 -7 -430 -5 -527 -9 -527 -20
0 -8 12 -13 33 -13 17 0 470 -5 1006 -11 l974 -10 48 -25 48 -24 361 0 361 0
-3 -42 -3 -42 -535 -196 -535 -196 -3 -307 -2 -307 -49 0 -49 0 -33 84 -33 83
-150 7 c-82 3 -195 6 -250 6 l-101 0 -74 -110 c-84 -124 -52 -106 -283 -151
l-118 -23 0 -543 0 -542 38 -10 c20 -5 98 -24 172 -42 l135 -32 59 -83 c32
-46 64 -88 70 -93 6 -5 120 -11 252 -13 l242 -5 36 48 c35 47 38 49 86 49 l50
0 0 -494 c0 -461 1 -494 18 -501 9 -3 257 -94 551 -201 448 -163 542 -194 588
-194 l54 0 -7 -107 c-4 -60 -12 -111 -18 -115 -6 -5 -116 -7 -245 -5 l-233 2
-38 95 -38 95 -244 3 -244 2 -74 -99 c-73 -100 -74 -100 -129 -112 -31 -6
-101 -21 -156 -33 l-100 -23 -6 -44 c-6 -50 0 -968 7 -1014 4 -29 9 -32 160
-84 l156 -54 71 -83 72 -84 100 0 c55 0 163 -3 240 -6 l140 -6 45 87 45 87
105 -7 c58 -3 123 -8 146 -11 l41 -6 -196 -1170 -196 -1170 -88 4 -87 3 0
-167 0 -168 61 0 61 0 -6 -28 c-3 -15 -33 -191 -66 -392 -33 -201 -62 -375
-65 -387 -4 -19 -12 -23 -40 -23 l-35 0 0 -280 0 -280 -182 0 -183 0 -17 -30
c-11 -20 -25 -30 -40 -30 -13 0 -1051 -29 -2308 -65 -1257 -36 -2295 -65
-2307 -65 -20 0 -23 -5 -23 -43 l0 -44 163 -6 c89 -4 1100 -34 2247 -67 1147
-33 2121 -63 2166 -66 80 -6 81 -6 97 -40 l17 -34 185 0 185 0 0 -118 0 -119
-232 -6 c-128 -4 -437 -7 -685 -7 -249 0 -453 -4 -453 -8 0 -14 333 -22 873
-22 l497 0 0 -123 0 -123 -47 -24 -48 -24 -960 -7 c-1152 -8 -1045 -6 -1045
-23 0 -11 165 -15 1003 -21 l1002 -7 48 -24 47 -24 0 -58 0 -58 -347 -12 -348
-11 -20 -25 -20 -25 -675 -10 c-387 -6 -690 -15 -710 -21 -22 -6 -323 -10
-815 -10 -1647 0 -3255 -13 -3255 -25 0 -14 567 -20 2779 -31 701 -3 1284 -10
1296 -14 12 -4 328 -11 704 -15 l682 -8 14 -27 14 -27 208 -7 c114 -3 272 -9
351 -13 l143 -6 -3 -56 -3 -56 -150 -6 c-82 -3 -847 -12 -1700 -19 -852 -7
-1552 -15 -1554 -17 -2 -1 -2 -5 0 -8 3 -2 664 -10 1470 -16 805 -7 1570 -15
1699 -18 l235 -6 3 -25 3 -25 -264 3 -264 4 -6 -31 -7 -31 -129 0 -129 0 -7
-244 c-4 -134 -3 -304 1 -377 l9 -134 133 -3 c113 -2 132 -5 132 -19 0 -14 12
-15 93 -10 50 4 210 7 355 9 243 1 263 0 275 -16 13 -18 70 -18 1508 -7 822 6
1734 14 2027 17 l533 7 20 38 c11 22 25 39 32 39 575 9 2060 41 2067 45 6 3
10 17 10 31 0 13 1 24 3 25 1 0 1244 43 2762 95 1518 52 2860 100 2983 106
l222 11 0 37 0 37 -192 8 c-112 4 -196 11 -199 17 -4 7 -1001 38 -2784 88
-2291 64 -2779 80 -2786 91 -5 8 -9 22 -9 31 0 49 6 48 -276 48 l-264 0 0 85
0 85 50 0 50 0 0 745 0 745 -43 0 -44 0 -6 187 c-4 104 -7 290 -7 416 l0 227
-1075 0 c-591 0 -1075 4 -1075 8 0 8 75 180 81 186 2 2 168 9 369 16 288 9
368 15 381 26 21 19 607 31 1962 40 559 4 1017 11 1017 15 0 5 -498 11 -1107
14 -1516 7 -1853 12 -1872 29 -12 10 -94 16 -340 25 -178 5 -326 13 -329 15
-2 3 1 19 8 36 12 29 14 30 84 31 39 0 246 6 460 13 363 12 390 14 403 32 13
18 37 19 496 26 265 5 1067 12 1782 16 1573 11 1505 10 1505 20 0 5 -631 12
-1402 16 -835 4 -1409 11 -1419 17 -10 5 -213 9 -482 9 -454 0 -465 0 -478 20
-13 19 -32 21 -421 33 -224 8 -410 16 -413 18 -3 3 5 29 17 57 l22 52 212 0
c184 0 218 2 256 18 40 18 94 19 782 25 406 4 741 9 744 12 3 3 2 8 -2 13 -4
4 -341 10 -749 13 -668 5 -745 7 -774 22 -27 14 -64 17 -223 17 -104 0 -190 2
-190 4 0 2 7 20 15 40 l15 36 68 0 c80 0 112 8 112 26 0 10 -21 14 -80 16
l-79 3 228 530 c125 292 342 794 481 1118 l252 587 44 0 44 0 0 110 0 110 245
0 245 0 0 -100 0 -100 116 0 117 0 158 83 159 82 0 687 0 686 -163 90 c-90 50
-175 92 -189 94 -25 3 -22 11 291 738 l316 735 38 3 37 3 0 -100 0 -101 111 0
112 0 163 87 164 88 0 532 0 533 53 0 c112 1 3142 -64 3147 -67 2 -2 52 -506
110 -1121 l105 -1117 -280 -2 -280 -3 -45 -49 -45 -49 -125 -7 -125 -6 -26 47
-26 48 -94 -2 c-142 -4 -129 16 -129 -195 0 -100 3 -199 6 -220 l7 -37 109 0
108 0 26 43 26 42 86 -7 c48 -3 105 -7 127 -7 37 -1 43 -6 83 -61 l42 -60 238
5 c130 3 685 8 1233 11 l996 6 16 33 16 33 113 6 c62 3 1042 33 2178 66 1136
33 2134 62 2218 66 l152 6 0 44 0 43 -42 5 c-24 3 -1006 30 -2183 61 -1177 30
-2209 58 -2293 62 l-153 6 -15 28 -15 29 -182 0 -183 0 4 40 4 40 244 0 c230
0 247 1 286 21 41 21 53 22 785 27 616 4 775 9 741 23 -2 1 -338 4 -748 8
-673 6 -748 9 -777 24 -28 15 -66 17 -278 17 -162 0 -244 3 -240 10 4 6 58 10
130 10 l123 0 46 52 46 53 1118 2 c614 1 1161 2 1215 2 l98 1 -3 38 -3 37
-273 9 c-154 4 -282 4 -293 0 -11 -5 -431 -6 -940 -3 l-920 6 -52 51 -53 52
-102 0 -102 0 0 27 c0 30 160 1676 163 1679 1 1 337 -2 747 -6 410 -5 838 -9
953 -10 l207 0 0 -40 c0 -22 3 -40 8 -40 4 0 360 -61 792 -135 l785 -135 2060
-185 2060 -184 1602 -555 1603 -556 867 -20 868 -20 1250 -124 1250 -125 1110
47 1110 47 0 230 0 230 35 3 c19 2 96 12 171 22 l137 20 478 316 c420 278 532
358 911 650 267 207 439 346 452 367 12 20 21 51 21 75 0 23 57 242 126 487
l126 446 -117 517 c-64 284 -121 534 -126 554 -9 35 -35 54 -450 338 -242 166
-664 449 -938 628 -472 310 -507 331 -669 402 -148 65 -170 78 -167 95 16 75
46 308 40 313 -4 4 -520 11 -1148 15 l-1142 8 -1275 -95 -1275 -95 -815 -6
-815 -6 -1610 -400 -1610 -400 -2080 -39 -2080 -39 -750 -130 c-412 -72 -760
-133 -772 -136 -18 -4 -23 -13 -23 -35 l0 -30 -112 1 c-62 0 -759 8 -1548 18
l-1435 19 -2925 -69 c-2501 -59 -3036 -69 -3693 -69 l-768 0 -177 120 c-102
70 -189 136 -205 158 l-28 37 73 3 c40 2 408 -6 818 -18 410 -11 787 -20 838
-20 l92 0 0 455 0 456 33 -5 c17 -3 327 -11 688 -17 l655 -12 285 120 c156 66
497 207 757 314 460 189 472 194 472 221 0 15 22 74 49 131 l48 104 -48 67
c-38 51 -49 75 -49 104 l0 37 -438 179 c-240 98 -581 240 -757 314 l-320 135
-385 -7 c-212 -3 -521 -9 -687 -13 l-303 -6 0 458 0 458 -127 -6 c-292 -14
-1683 -50 -1689 -44 -17 17 75 98 236 207 l175 119 660 1 c549 0 1169 -13
3675 -75 l3015 -74 1530 19 c842 11 1544 20 1562 20 29 0 32 -3 35 -32 l3 -33
780 -131 780 -132 2075 -61 2075 -60 1605 -399 1605 -399 850 -12 850 -11
1267 -95 1268 -95 1118 11 c614 6 1118 12 1120 14 2 2 -7 77 -21 167 -13 89
-23 164 -22 166 2 2 81 38 177 81 162 73 203 98 638 386 256 169 675 451 932
627 438 300 468 323 477 357 5 20 62 269 127 554 l117 517 -127 443 c-74 260
-126 460 -126 486 0 23 -8 56 -17 72 -10 16 -213 181 -453 368 -403 314 -470
362 -915 653 l-480 315 -110 17 c-61 10 -128 20 -150 22 -22 3 -50 7 -63 10
l-23 5 3 224 c2 124 1 225 -2 225 -3 0 -501 23 -1108 50 l-1102 51 -1278 -130
-1277 -130 -835 -17 -835 -16 -1615 -558 -1615 -558 -2055 -161 -2055 -162
-775 -130 c-426 -72 -783 -133 -792 -135 -13 -4 -18 -16 -18 -39 l0 -33 -172
-6 c-251 -8 -1738 -19 -1738 -12 0 3 -36 379 -80 835 -44 456 -80 834 -80 840
0 7 35 11 102 11 l102 0 56 54 55 54 923 5 c591 3 925 1 928 -5 6 -10 328 -4
497 8 l77 6 0 33 0 32 -77 7 c-43 3 -170 5 -283 4 -113 -1 -623 0 -1135 2
l-930 2 -55 54 -55 53 -120 4 c-66 1 -14 4 116 5 206 2 242 4 280 21 41 17 90
19 783 25 406 3 741 8 744 11 3 3 2 8 -2 13 -4 4 -341 10 -749 13 -618 4 -746
8 -767 20 -19 11 -84 15 -280 19 l-255 5 -3 38 -3 37 178 0 179 0 17 29 c16
28 22 30 100 35 45 3 1096 34 2335 68 l2252 63 0 41 0 42 -82 6 c-46 3 -1021
33 -2168 66 -1147 33 -2159 63 -2248 67 l-164 6 -15 32 -16 33 -666 6 c-366 3
-922 8 -1236 11 l-570 6 -38 -54 c-43 -60 -31 -56 -217 -73 l-76 -6 -27 41
-27 41 -109 0 -108 0 -7 -37 c-3 -21 -6 -120 -6 -219 l0 -181 46 -7 c26 -3 77
-6 113 -6 l66 0 28 51 c20 36 32 49 45 45 9 -2 65 -7 125 -11 l107 -7 42 -49
41 -49 277 0 276 0 -101 -1110 c-56 -611 -104 -1113 -107 -1115 -2 -3 -630
-18 -1394 -34 -764 -17 -1482 -33 -1596 -36 l-208 -6 0 533 0 533 -166 88
-165 87 -109 0 -110 0 0 -101 0 -100 -37 3 -38 3 -316 735 -316 735 36 5 c20
3 105 44 189 90 l152 84 0 688 0 688 -160 80 -160 80 -115 0 -115 0 0 -100 0
-100 -239 0 c-209 0 -240 2 -245 16 -3 9 -6 58 -6 109 l0 94 -42 3 -42 3 -483
1120 c-265 616 -482 1123 -482 1128 -1 4 35 7 79 7 71 0 80 2 80 19 0 16 -11
19 -92 26 -52 4 -96 12 -100 18 -22 35 -11 37 172 37 165 0 185 2 222 21 41
21 53 22 785 27 617 4 773 9 741 23 -2 1 -338 4 -748 8 -671 7 -748 9 -777 24
-27 14 -65 17 -248 17 -118 0 -215 2 -215 4 0 2 -11 28 -24 58 l-24 55 411 12
c382 12 413 14 427 31 14 18 46 20 500 30 267 7 1114 14 1883 16 1227 4 1397
6 1397 19 0 13 -170 15 -1402 19 -772 2 -1619 10 -1883 16 -443 11 -481 13
-495 30 -14 16 -52 19 -474 30 l-458 13 -13 31 c-13 29 -12 31 9 37 13 4 160
10 327 14 226 5 308 10 319 20 21 18 726 33 1983 41 548 4 995 10 991 13 -3 3
-510 9 -1127 14 -1394 9 -1835 17 -1845 34 -8 12 -412 32 -657 33 l-90 0 -47
112 -48 111 1080 -6 1080 -6 0 227 c0 125 3 311 7 414 l6 187 44 7 43 6 0 744
0 744 -50 0 -50 0 0 80 0 80 153 1 c83 1 204 4 267 8 l114 6 7 33 c4 18 10 36
13 40 6 5 5211 148 5514 151 45 1 52 4 52 21 0 19 7 20 195 20 l195 0 0 45 0
45 -194 0 c-107 0 -196 4 -198 8 -1 4 -1218 47 -2703 95 -1485 48 -2739 90
-2787 94 -81 5 -88 7 -88 27 0 11 -4 26 -8 32 -5 8 -310 16 -1002 28 -547 9
-1014 16 -1037 16 -40 0 -44 3 -63 40 l-20 40 -138 0 c-75 0 -913 7 -1862 15
-2234 19 -2054 19 -2071 -3z"/>
</g>
</svg>
