<?xml version="1.0" standalone="no"?>
<!DOCTYPE svg PUBLIC "-//W3C//DTD SVG 20010904//EN"
 "http://www.w3.org/TR/2001/REC-SVG-20010904/DTD/svg10.dtd">
<svg version="1.0" xmlns="http://www.w3.org/2000/svg"
   viewBox="0 0 3540.000000 1128.000000"
 preserveAspectRatio="xMidYMid meet">
<metadata>
Created by potrace 1.16, written by Peter Selinger 2001-2019
</metadata>
<g transform="translate(0.000000,1128.000000) scale(0.100000,-0.100000)"
fill="#000000" stroke="none">
<path d="M21464 10353 l-720 -928 -52 -3 -52 -3 0 32 0 32 -82 -6 c-46 -4
-100 -7 -121 -7 l-39 0 7 -225 8 -225 -42 0 -41 0 0 171 0 172 -172 277 -172
277 -64 16 -65 15 -209 -130 c-115 -72 -210 -129 -211 -127 -2 2 -45 103 -95
223 -74 174 -102 231 -138 273 l-46 53 -227 0 c-168 0 -230 3 -240 13 -9 9
-178 12 -773 12 -600 0 -762 -3 -765 -12 -4 -10 -66 -13 -268 -13 l-263 0 -53
-64 c-30 -36 -58 -65 -64 -65 -5 -1 -336 82 -735 184 -465 119 -885 219 -1170
280 -245 52 -560 119 -700 150 -140 30 -506 98 -812 149 l-556 94 -129 60
c-329 155 -744 228 -1075 188 -132 -16 -295 -60 -382 -103 -27 -14 -88 -31
-135 -39 -47 -8 -142 -30 -211 -49 l-125 -36 -495 -24 c-799 -38 -904 -45
-1135 -72 -204 -23 -252 -25 -667 -25 l-446 0 -6 -21 c-10 -37 -7 -64 9 -77 8
-7 15 -23 15 -35 0 -28 -17 -25 363 -66 163 -18 297 -35 297 -39 0 -3 -139 -4
-309 -2 l-308 5 -6 -29 c-6 -31 9 -264 18 -272 2 -3 145 -33 317 -68 599 -120
602 -121 857 -237 186 -85 251 -120 366 -200 137 -94 141 -98 153 -144 7 -27
17 -65 23 -85 5 -21 16 -38 23 -38 10 0 12 -19 9 -77 -3 -43 -1 -109 4 -148
l8 -70 165 -27 c91 -15 168 -27 172 -28 11 0 58 -188 74 -295 4 -27 11 -53 16
-56 5 -3 20 -45 33 -94 14 -48 27 -90 29 -93 3 -2 99 -20 213 -38 114 -18 217
-36 228 -38 13 -4 44 -48 85 -122 36 -63 66 -120 68 -124 2 -5 -12 -17 -31
-27 -19 -10 -49 -36 -68 -57 l-34 -39 0 -214 0 -213 -35 0 c-49 0 -1063 61
-1076 65 -5 1 -127 202 -270 445 -202 346 -267 447 -294 466 l-35 24 -540 0
-541 0 -274 -55 c-150 -30 -275 -53 -277 -52 -2 2 360 138 804 301 445 164
836 311 870 328 35 16 77 31 95 33 43 4 435 150 453 169 21 20 -3 88 -32 92
-22 4 -454 -151 -463 -166 -7 -10 -77 -40 -83 -34 -2 3 -499 -178 -1103 -401
-604 -223 -1103 -404 -1109 -401 -6 2 -17 22 -25 45 -7 23 -16 41 -19 41 -3 0
-83 -9 -176 -19 l-170 -18 -256 -131 -255 -132 -1099 -217 -1100 -217 -400 66
-400 65 -542 -41 c-298 -23 -545 -45 -549 -49 -4 -3 -56 -217 -116 -474 -60
-258 -111 -476 -114 -485 -5 -16 -24 -18 -216 -18 l-210 0 -441 -237 c-265
-141 -457 -250 -479 -272 l-38 -35 0 -846 0 -846 38 -35 c22 -21 216 -132 479
-272 l441 -237 210 0 c192 0 211 -2 216 -17 3 -10 54 -228 114 -486 60 -257
112 -470 116 -474 4 -4 253 -26 554 -49 l547 -41 380 63 c209 35 391 64 405
64 14 0 515 -97 1114 -215 l1089 -215 256 -131 256 -132 170 -18 c93 -10 173
-19 176 -19 3 0 12 18 19 41 8 23 19 43 25 45 6 3 505 -178 1110 -401 604
-223 1100 -404 1102 -401 6 5 76 -23 83 -34 9 -14 441 -170 463 -166 30 4 53
72 32 93 -19 18 -409 164 -453 168 -18 2 -60 17 -95 33 -34 17 -425 164 -870
328 -444 163 -806 299 -804 301 2 1 127 -22 277 -52 l274 -55 541 0 540 0 35
24 c27 19 92 120 294 466 143 243 265 444 270 446 13 4 1025 64 1076 64 l35 0
0 -213 0 -214 34 -39 c19 -21 49 -47 68 -57 19 -10 33 -22 31 -27 -2 -4 -32
-61 -68 -124 -41 -74 -72 -118 -85 -122 -11 -2 -114 -20 -228 -38 -114 -18
-210 -36 -213 -38 -2 -3 -15 -45 -29 -93 -13 -49 -28 -91 -33 -94 -5 -3 -12
-28 -16 -56 -16 -107 -63 -295 -74 -295 -4 -1 -81 -13 -172 -28 l-165 -27 -8
-70 c-5 -39 -7 -105 -4 -147 3 -59 1 -78 -9 -78 -7 0 -18 -17 -23 -37 -6 -21
-16 -59 -23 -86 -12 -46 -16 -50 -153 -144 -115 -80 -180 -115 -366 -200 -255
-116 -258 -117 -857 -237 -172 -35 -315 -65 -317 -68 -9 -8 -24 -241 -18 -272
l6 -29 308 5 c170 3 309 2 309 -2 0 -3 -134 -21 -297 -39 -380 -41 -363 -38
-363 -66 0 -12 -7 -28 -15 -35 -16 -13 -19 -40 -9 -76 l6 -22 446 0 c415 0
463 -2 667 -25 230 -27 321 -33 1135 -72 l495 -25 140 -39 c77 -21 169 -42
205 -46 38 -4 88 -19 120 -35 362 -181 979 -146 1463 82 l129 60 551 93 c304
51 698 125 877 163 179 39 496 107 705 151 220 47 685 159 1105 266 399 101
730 185 735 184 6 0 34 -29 64 -65 l53 -64 263 0 c202 0 264 -3 268 -12 6 -19
1520 -19 1538 0 10 9 72 12 240 12 l227 0 45 53 c36 41 65 99 138 272 51 121
94 222 96 224 1 2 96 -55 211 -127 l209 -130 65 15 64 16 172 277 172 277 0
172 0 171 41 0 42 0 -8 -225 -7 -225 39 0 c21 0 75 -3 121 -7 l82 -6 0 32 0
32 52 -3 52 -3 718 -925 718 -925 41 2 c23 1 43 3 44 5 9 9 104 592 98 601 -3
6 -388 503 -855 1104 -756 974 -848 1097 -848 1128 l0 35 -115 0 c-63 0 -116
-1 -116 -2 -1 -2 -5 -106 -8 -233 l-6 -230 -42 -3 -43 -3 0 411 0 411 -34 20
c-24 14 -33 25 -29 36 3 8 1 18 -5 22 -7 4 7 37 38 91 27 47 50 90 50 97 0 6
30 63 66 126 l66 115 28 -16 c26 -15 27 -18 15 -42 -12 -23 -11 -33 3 -72 l16
-46 461 -275 c253 -152 515 -307 582 -346 l123 -71 185 0 c102 0 185 -3 185
-7 0 -5 130 -6 290 -5 l289 4 195 -176 194 -176 414 0 c227 0 592 3 811 7
l398 6 -3 71 -3 70 -172 35 -173 34 0 67 0 68 283 6 c155 3 2087 20 4292 37
l4010 31 278 -96 279 -96 724 0 724 0 0 186 0 187 124 -7 c113 -6 124 -5 131
11 4 10 57 164 118 343 l111 325 -52 147 -51 148 56 0 56 0 -7 40 c-5 30 -86
158 -334 527 -180 269 -341 507 -357 531 l-30 44 -599 -6 c-330 -4 -604 -10
-610 -15 -18 -14 -9299 -77 -9304 -63 -5 16 -35 15 -50 0 -10 -10 -158 -14
-652 -16 -352 -2 -640 0 -640 5 0 4 85 37 188 72 103 35 224 84 269 108 81 44
82 45 90 91 4 26 8 130 8 232 0 102 -4 206 -8 232 -8 46 -9 47 -90 91 -45 24
-166 73 -269 108 -103 35 -188 68 -188 72 0 5 288 7 640 5 494 -2 642 -6 652
-15 15 -16 45 -17 50 -1 5 14 9286 -49 9304 -63 5 -4 280 -11 610 -14 l599 -7
30 44 c16 24 177 262 357 531 248 369 329 497 334 527 l7 40 -56 0 -56 0 51
148 52 147 -111 325 c-61 179 -114 333 -118 343 -7 16 -18 17 -131 11 l-124
-7 0 187 0 186 -724 0 -724 0 -279 -96 -278 -96 -4000 31 c-2200 17 -4132 34
-4292 37 l-293 6 0 68 0 67 173 34 172 35 3 70 3 71 -398 6 c-219 4 -584 7
-811 7 l-414 0 -195 -176 -194 -176 -290 3 c-159 2 -289 1 -289 -3 0 -5 -84
-8 -186 -8 l-186 0 -96 -56 c-54 -31 -315 -187 -582 -346 l-486 -290 -16 -46
c-14 -39 -15 -49 -3 -72 12 -24 11 -27 -15 -42 l-28 -16 -66 115 c-36 63 -66
120 -66 126 0 7 -23 50 -50 97 -31 54 -45 87 -38 91 6 4 8 14 5 22 -4 11 5 22
29 36 l34 20 0 411 0 411 43 -3 42 -3 6 -230 c3 -126 7 -231 8 -232 0 -2 53
-3 116 -3 l115 0 0 35 c0 31 92 154 849 1129 466 601 851 1098 855 1104 5 8
-90 591 -98 599 -1 1 -20 5 -42 8 l-40 7 -720 -929z m715 511 c2 -2 8 -27 12
-55 l8 -51 -671 -877 c-369 -482 -676 -882 -683 -890 -9 -9 -23 -11 -44 -6
-30 6 -31 8 -31 66 l0 60 668 885 667 885 35 -6 c19 -4 37 -9 39 -11z m-12819
-1290 c15 -39 13 -44 -25 -60 -45 -18 -43 -19 -59 19 -13 32 -13 32 23 49 48
22 50 22 61 -8z m6130 -1171 l1 -458 178 -195 c149 -163 184 -196 211 -200
l33 -5 -89 -68 c-72 -55 -94 -67 -114 -62 -55 13 -1229 155 -1283 155 -54 0
-113 22 -645 239 -323 131 -602 242 -619 246 -23 4 -33 12 -33 25 0 21 -8 19
250 55 l185 26 365 136 365 136 385 48 c212 27 391 49 398 49 6 0 12 6 12 13
0 7 66 78 148 159 152 151 147 148 235 156 16 2 17 -26 17 -455z m6460 -230
c-63 -42 -118 -81 -122 -87 -12 -17 -10 -546 2 -546 6 0 10 -53 10 -140 l0
-140 -275 -1 c-151 -1 -279 -2 -285 -3 -10 -1 -194 293 -188 299 2 2 93 56
203 120 286 167 255 135 255 273 l0 117 153 92 152 91 105 1 105 1 -115 -77z
m6825 7 c2849 -22 5321 -43 5493 -46 l312 -6 0 -71 0 -70 -522 7 c-288 3
-2852 24 -5698 46 -2846 22 -5293 43 -5437 46 l-263 6 0 70 0 70 468 -6 c257
-4 2798 -24 5647 -46z m-9315 -810 c25 -44 48 -80 51 -80 6 0 79 -116 79 -126
0 -2 -15 -4 -32 -4 -28 0 -41 9 -81 59 -27 32 -70 94 -97 139 l-49 81 27 4
c15 2 34 5 42 5 9 1 33 -30 60 -78z m1410 40 c0 -5 19 -15 43 -20 40 -11 46
-17 114 -128 83 -135 88 -115 -51 -195 l-85 -48 -105 70 c-58 39 -113 71 -122
71 -13 0 -15 7 -9 38 5 30 1 47 -20 84 l-26 47 32 17 c31 15 33 15 45 -1 12
-16 19 -14 91 28 83 49 93 53 93 37z m-2041 -172 l52 -78 -28 0 c-22 0 -43 16
-98 75 l-71 75 41 8 c22 5 43 6 46 3 4 -3 30 -41 58 -83z m-301 13 c67 -18 80
-26 162 -100 l88 -81 79 0 c43 0 83 -4 89 -9 17 -16 102 -19 121 -5 14 10 66
13 213 14 l195 0 -91 -55 c-81 -48 -93 -59 -107 -97 -8 -24 -17 -82 -20 -131
-5 -84 -4 -88 20 -107 l24 -19 -33 5 c-18 2 -319 40 -668 84 -473 59 -731 97
-1012 147 l-376 68 28 35 29 35 593 116 c326 64 593 117 593 118 0 0 33 -8 73
-18z m787 -71 c18 -20 17 -20 -31 -20 l-49 0 30 20 c17 11 30 20 31 20 0 0 9
-9 19 -20z m335 -116 c0 -9 -33 -33 -45 -34 -6 0 -16 9 -23 20 -11 19 -10 20
28 20 22 0 40 -3 40 -6z m1066 -45 c41 -28 74 -54 74 -58 -1 -3 -152 -95 -337
-204 l-336 -197 -126 15 c-69 9 -136 18 -148 20 -31 7 -118 152 -102 171 9 10
9 17 0 28 -9 10 -6 17 13 29 23 16 25 15 57 -35 25 -38 44 -55 72 -64 38 -13
39 -13 160 56 67 38 203 118 302 178 173 106 182 110 238 111 55 1 64 -2 133
-50z m-1021 -355 c15 -25 25 -47 23 -50 -3 -2 -46 2 -97 9 l-92 12 63 37 c35
21 66 38 70 38 3 0 18 -21 33 -46z m763 -2144 c182 -107 332 -198 332 -201 0
-4 -33 -30 -74 -58 -67 -46 -79 -51 -129 -51 -52 0 -64 6 -243 114 -104 62
-241 143 -306 179 -115 66 -117 66 -155 54 -28 -10 -47 -27 -72 -65 -33 -50
-33 -51 -58 -35 -16 10 -21 19 -14 26 6 6 6 15 -1 26 -8 13 0 34 37 94 25 42
47 77 48 78 9 4 267 37 283 35 11 0 169 -89 352 -196z m-738 144 c0 -4 -40
-78 -55 -102 -1 -1 -35 17 -76 40 l-73 43 84 11 c109 14 120 15 120 8z m-442
-65 c-26 -20 -28 -25 -28 -99 0 -55 6 -96 20 -132 18 -50 25 -56 107 -106 l88
-52 -190 0 c-143 1 -194 4 -208 14 -19 14 -104 11 -121 -5 -6 -5 -46 -9 -89
-9 l-79 0 -88 -81 c-80 -73 -95 -82 -157 -98 l-68 -18 -598 116 -599 116 -28
35 -28 35 376 68 c276 49 555 90 1037 151 363 47 665 85 670 85 6 0 -2 -9 -17
-20z m1720 -399 l103 -61 -23 -37 c-13 -21 -45 -74 -73 -120 -43 -70 -54 -83
-83 -88 -18 -4 -39 -13 -47 -21 -12 -12 -25 -7 -95 33 -75 44 -81 46 -94 29
-12 -16 -14 -16 -44 -1 -18 9 -32 19 -32 21 0 3 12 24 26 46 21 33 24 48 19
80 -6 33 -4 39 12 40 10 0 63 31 118 69 55 38 102 69 106 69 3 1 51 -26 107
-59z m-1365 36 c26 -20 21 -26 -23 -26 -38 0 -39 1 -28 20 15 23 26 25 51 6z
m-805 -196 c-55 -82 -67 -89 -123 -74 -17 4 -11 15 49 79 55 59 75 75 98 75
l28 0 -52 -80z m487 60 c-18 -19 -24 -19 -65 10 -11 7 -2 10 34 10 48 0 49 0
31 -20z m275 15 c0 -9 -63 -110 -75 -120 -6 -5 -31 -44 -55 -85 -23 -41 -44
-76 -45 -78 -1 -1 -20 0 -43 4 l-40 6 48 81 c27 44 70 106 97 138 40 50 53 59
81 59 17 0 32 -2 32 -5z m1981 -95 l269 0 0 -140 c0 -87 -4 -140 -10 -140 -6
0 -10 -96 -10 -268 0 -312 -17 -268 145 -376 l100 -66 -102 0 -101 0 -156 93
-155 92 -1 117 c0 138 31 106 -255 273 -110 64 -201 118 -203 120 -2 1 38 71
89 154 64 106 97 150 107 146 7 -3 135 -5 283 -5z m-5746 -217 l88 -68 -33 -5
c-27 -4 -62 -37 -211 -200 l-178 -195 -1 -458 0 -458 -52 7 c-52 6 -55 9 -200
152 -82 81 -148 152 -148 159 0 7 -6 13 -12 13 -7 0 -186 22 -398 49 l-385 48
-365 136 -365 136 -185 26 c-258 36 -250 34 -250 55 0 13 10 21 33 25 17 4
296 115 619 246 520 212 592 239 641 239 66 0 1208 136 1252 149 52 16 60 12
150 -56z m18755 -582 l0 -69 -322 -6 c-178 -3 -2652 -24 -5498 -46 -2846 -22
-5383 -42 -5637 -46 l-463 -6 0 71 c0 39 1 71 3 72 4 1 11291 96 11615 98
l302 1 0 -69z m-13066 -1805 l685 -894 -8 -51 c-4 -28 -10 -53 -12 -55 -2 -2
-20 -7 -39 -11 l-35 -6 -667 885 -668 885 0 59 c0 54 2 59 28 69 15 6 28 11
29 12 1 1 310 -401 687 -893z m-12168 348 c26 -7 29 -19 14 -58 -9 -25 -9 -25
-55 -10 -25 9 -43 19 -40 24 2 4 9 19 15 35 7 19 15 25 26 21 9 -3 27 -9 40
-12z"/>
</g>
</svg>
