<?xml version="1.0" standalone="no"?>
<!DOCTYPE svg PUBLIC "-//W3C//DTD SVG 20010904//EN"
 "http://www.w3.org/TR/2001/REC-SVG-20010904/DTD/svg10.dtd">
<svg version="1.0" xmlns="http://www.w3.org/2000/svg"
   viewBox="0 0 4772.000000 1055.000000"
 preserveAspectRatio="xMidYMid meet">
<metadata>
Created by potrace 1.16, written by Peter Selinger 2001-2019
</metadata>
<g transform="translate(0.000000,1055.000000) scale(0.100000,-0.100000)"
fill="#000000" stroke="none">
<path d="M5327 10503 c-22 -47 -22 -55 -25 -559 -2 -494 -2 -514 18 -563 14
-37 20 -75 20 -131 l0 -80 -560 0 -560 0 -189 115 -190 115 -261 0 -261 0 -52
35 -52 35 -380 0 -380 0 -52 -35 -52 -35 -528 0 -528 1 -59 44 c-55 42 -64 45
-121 45 -59 0 -62 -1 -108 -48 -39 -40 -47 -54 -47 -85 l0 -37 -120 0 -120 0
0 40 0 40 -95 0 -96 0 -89 -72 -90 -72 0 -1093 c0 -1088 0 -1093 -20 -1093
-14 0 -40 -26 -80 -82 l-60 -82 0 -273 0 -273 -42 -1 c-40 0 -46 -4 -95 -64
l-53 -64 0 -956 0 -957 51 -59 c49 -55 55 -59 95 -59 l44 0 0 -276 0 -276 62
-84 c38 -51 69 -84 80 -84 17 0 18 -48 18 -1090 l0 -1089 87 -71 88 -70 97 0
98 0 0 40 0 40 120 0 120 0 0 -43 c0 -40 4 -47 49 -85 46 -39 54 -42 110 -42
57 0 66 3 123 45 l62 45 518 0 519 0 52 -35 52 -35 387 0 388 0 54 35 55 35
260 0 259 0 186 110 185 110 561 0 560 0 0 -80 c0 -56 -6 -94 -20 -130 -19
-48 -20 -74 -20 -545 0 -481 1 -496 21 -552 12 -32 27 -61 33 -65 6 -4 1096
-8 2421 -8 1862 0 2414 3 2423 12 9 9 12 195 12 775 l0 763 955 0 955 0 313
-140 314 -140 2560 0 2560 0 870 520 870 520 327 0 c179 0 326 -2 326 -5 0 -8
100 -640 106 -667 l6 -28 147 0 148 0 48 293 c26 160 51 318 57 349 l10 58
762 0 761 0 44 -323 c24 -177 46 -334 48 -349 l6 -28 162 0 c161 0 163 0 168
23 3 12 29 169 58 349 l53 328 736 0 736 0 48 -333 c26 -182 49 -340 52 -349
5 -16 21 -18 149 -18 l143 0 10 57 c5 32 32 190 58 350 l49 293 2460 0 2461 0
286 179 286 179 269 -217 268 -217 3 -282 2 -282 1220 0 1220 0 2 279 3 278
120 -99 c66 -54 126 -105 133 -112 8 -8 26 -119 47 -302 19 -159 37 -308 40
-331 l6 -43 2592 0 2592 0 1050 630 1050 630 898 0 898 0 262 250 262 249 708
1 707 0 0 478 0 478 30 17 30 18 0 290 0 289 426 0 426 0 279 75 278 75 265 0
265 0 162 70 163 70 158 0 158 0 0 80 0 80 205 0 205 0 0 160 0 160 -205 0
-205 0 0 75 0 75 -150 0 -151 0 -170 70 -169 70 -265 0 -264 0 -287 80 -288
80 -418 0 -418 0 0 289 0 289 -30 12 -30 12 0 484 0 484 -708 0 -709 0 -259
245 -258 245 -896 0 -895 0 -1055 630 -1054 630 -2593 0 -2592 0 -6 -42 c-3
-24 -21 -173 -40 -332 -22 -184 -39 -294 -47 -302 -7 -7 -67 -56 -133 -108
l-120 -96 -3 275 -2 275 -1220 0 -1220 0 0 -277 0 -278 -271 -218 -270 -219
-282 176 -281 176 -2466 0 -2465 0 -53 323 c-29 177 -55 334 -58 350 l-6 27
-143 0 c-105 0 -144 -3 -148 -12 -2 -7 -26 -165 -53 -350 l-48 -338 -735 0
-736 0 -54 333 c-30 182 -56 340 -59 350 -4 15 -21 17 -168 17 l-163 0 -6 -42
c-4 -24 -25 -180 -48 -348 l-42 -305 -761 -3 -761 -2 -58 350 -58 350 -148 0
c-146 0 -149 0 -154 -22 -5 -26 -105 -662 -105 -672 0 -3 -145 -6 -322 -6
l-323 0 -299 179 c-209 125 -293 181 -280 184 11 3 46 8 79 12 100 10 95 5 95
105 0 87 0 88 -27 98 -16 5 -135 49 -266 96 l-239 86 -166 0 -166 0 -243 145
-243 145 -2552 0 -2553 0 -324 -145 -324 -145 -949 0 -948 0 -2 773 -3 772
-2428 3 -2428 2 -22 -47z"/>
</g>
</svg>
