<?xml version="1.0" standalone="no"?>
<!DOCTYPE svg PUBLIC "-//W3C//DTD SVG 20010904//EN"
 "http://www.w3.org/TR/2001/REC-SVG-20010904/DTD/svg10.dtd">
<svg version="1.0" xmlns="http://www.w3.org/2000/svg"
   viewBox="0 0 3110.000000 5000.000000"
 preserveAspectRatio="xMidYMid meet">
<metadata>
Created by potrace 1.16, written by Peter Selinger 2001-2019
</metadata>
<g transform="translate(0.000000,5000.000000) scale(0.100000,-0.100000)"
fill="#000000" stroke="none">
<path d="M19210 49994 c0 -7 -79 -361 -86 -385 -4 -15 -18 -14 -141 12 -76 15
-139 27 -140 25 -2 -2 -138 -685 -303 -1517 -164 -833 -319 -1599 -343 -1704
-25 -104 -50 -215 -56 -246 -11 -52 -17 -60 -89 -123 -42 -37 -141 -106 -219
-153 l-143 -85 -1287 -1347 -1288 -1347 -118 -185 c-83 -131 -143 -211 -206
-279 l-89 -95 -2048 -5 -2049 -5 -145 -54 -145 -53 -239 6 c-131 3 -241 8
-243 10 -3 3 31 107 76 232 45 125 81 239 81 252 0 25 986 2819 1000 2835 4 5
43 2 85 -7 100 -21 115 -20 115 2 0 15 -13 21 -72 31 -111 19 -109 18 -103 54
6 37 0 48 -37 64 -26 12 -27 10 -39 -25 -6 -20 -15 -41 -19 -45 -4 -5 -44 -1
-90 7 -104 20 -110 20 -110 -2 0 -15 16 -21 86 -35 48 -9 89 -19 92 -21 3 -3
-203 -594 -458 -1313 -359 -1013 -471 -1320 -499 -1362 -23 -34 -64 -132 -113
-270 -42 -119 -77 -211 -77 -206 -1 6 21 135 49 288 27 153 50 290 50 305 0
35 871 4885 879 4894 4 4 46 0 94 -9 79 -14 111 -13 95 2 -3 3 -46 13 -94 22
-49 9 -90 17 -92 18 -1 1 1 21 6 43 9 39 9 40 -19 44 -29 5 -39 -10 -39 -58 0
-21 -1 -21 -72 -8 -40 8 -85 16 -100 19 -19 3 -28 0 -28 -9 0 -8 28 -17 84
-26 47 -7 89 -16 95 -20 11 -6 -845 -4805 -873 -4890 -8 -25 -45 -217 -83
-427 l-67 -383 -58 0 -58 0 0 -1271 0 -1272 369 7 368 8 155 -41 155 -41 304
0 c167 0 530 -3 807 -7 l502 -6 0 -386 0 -386 -682 -367 -682 -368 -368 0
-368 0 0 -115 0 -115 -350 0 -350 0 0 -125 0 -125 -320 0 -320 0 0 80 0 80
-225 0 -225 0 0 -785 0 -785 225 0 225 0 0 80 0 80 170 0 171 0 -6 -277 c-3
-153 -8 -425 -11 -604 l-6 -327 -79 -33 -79 -34 0 -75 0 -75 1055 3 1055 4 0
-420 0 -419 -292 -108 c-161 -59 -317 -116 -345 -127 l-53 -19 0 -68 c0 -67 0
-68 -25 -63 -16 3 -25 11 -25 23 0 14 -7 19 -25 19 l-25 0 0 -135 0 -135 -220
0 -220 0 0 165 0 165 -1724 0 -1725 0 -65 -119 -66 -120 0 -143 0 -144 -45
-44 c-58 -57 -58 -78 0 -131 l45 -42 0 -144 0 -144 66 -120 65 -119 1725 0
1724 0 0 165 0 165 220 0 220 0 0 -136 0 -137 38 6 c20 4 42 3 49 -1 7 -4 13
-37 15 -76 l3 -68 178 -66 177 -65 -2 -226 -3 -225 -177 -66 -178 -65 0 -67
c0 -66 -1 -68 -25 -66 -19 2 -25 8 -25 25 0 18 -6 23 -25 23 l-25 0 0 -135 0
-135 -220 0 -220 0 0 160 0 160 -1727 -2 -1728 -3 -62 -114 -63 -114 0 -141 0
-142 -45 -44 c-60 -59 -60 -86 0 -137 l45 -37 0 -146 0 -145 64 -115 63 -115
1726 -3 1727 -2 0 165 0 165 220 0 220 0 0 -140 0 -140 24 0 c13 0 26 4 28 10
2 5 13 7 26 4 20 -6 22 -12 22 -78 l0 -71 178 -65 177 -65 3 -60 c2 -33 1
-118 -3 -190 l-7 -130 -56 -35 c-33 -19 -412 -170 -887 -351 l-830 -317 -6
-153 c-4 -85 -7 -173 -8 -196 l-1 -43 -1055 0 -1054 0 -62 40 c-34 22 -65 40
-68 40 -4 0 -198 30 -431 67 l-425 68 -998 5 -999 5 -158 310 -159 310 -146
520 c-81 286 -148 521 -149 522 -1 2 -40 -8 -87 -21 -94 -27 -218 -51 -224
-44 -3 3 17 50 44 105 27 56 64 134 81 174 17 41 212 453 433 917 435 914 399
850 463 825 11 -4 15 -3 11 5 -4 6 -20 13 -37 17 -19 4 -27 11 -24 20 10 25
-6 38 -26 20 -13 -12 -23 -13 -44 -5 -33 12 -36 12 -36 1 0 -5 14 -12 31 -16
22 -5 29 -11 26 -23 -10 -34 -779 -1638 -792 -1652 -7 -8 -58 -107 -112 -220
-109 -226 -99 -215 -221 -246 -57 -14 -71 -22 -66 -34 3 -8 8 -27 11 -41 l5
-26 -258 -6 c-141 -4 -620 -8 -1063 -9 l-806 -2 1067 -6 c587 -3 1069 -8 1071
-10 2 -3 82 -284 177 -625 95 -341 175 -626 178 -632 3 -10 -92 -13 -456 -13
l-460 0 -92 -76 c-50 -42 -104 -79 -118 -83 -15 -5 -226 -36 -469 -71 l-443
-64 0 -53 0 -53 -180 0 -180 0 0 -70 0 -70 -290 -391 c-182 -247 -287 -396
-281 -403 4 -6 135 -187 289 -403 l282 -392 0 -143 0 -143 -290 -429 -289
-428 107 -157 c58 -86 189 -275 289 -421 172 -250 183 -268 183 -312 0 -43 -2
-47 -31 -57 -18 -6 -101 -11 -190 -11 l-159 0 0 -120 0 -120 159 0 c89 0 172
-5 190 -11 29 -10 31 -14 31 -57 0 -44 -11 -62 -186 -317 -103 -148 -233 -338
-290 -421 l-104 -152 290 -428 290 -429 0 -143 0 -143 -281 -392 c-155 -216
-286 -397 -290 -403 -6 -7 98 -155 281 -403 l290 -391 0 -70 0 -70 180 0 180
0 0 -53 0 -53 442 -63 c244 -34 455 -66 470 -71 15 -5 68 -43 118 -84 l92 -76
460 0 c364 0 459 -3 456 -12 -3 -7 -83 -292 -178 -633 -95 -341 -175 -622
-177 -625 -2 -2 -484 -7 -1071 -10 l-1067 -6 806 -2 c443 -1 922 -5 1063 -9
l258 -6 -5 -26 c-3 -14 -8 -33 -11 -41 -5 -12 9 -20 66 -34 122 -31 112 -20
221 -246 54 -113 105 -212 112 -220 13 -15 782 -1618 792 -1652 3 -12 -4 -18
-26 -23 -17 -4 -31 -11 -31 -16 0 -11 3 -11 36 1 21 8 31 7 45 -6 17 -15 19
-15 25 -1 3 9 3 20 0 26 -3 5 7 12 24 16 16 4 33 11 36 17 7 11 3 10 -54 -8
-15 -4 -79 124 -419 838 -221 464 -415 876 -433 917 -17 40 -54 118 -81 174
-27 55 -47 102 -44 105 6 7 130 -17 224 -44 47 -13 86 -23 87 -21 1 1 68 236
149 522 l146 520 159 310 158 310 993 5 994 5 435 68 435 68 63 40 63 39 1055
0 1054 0 1 -42 c1 -24 4 -112 8 -196 l6 -154 830 -317 c479 -182 854 -331 887
-351 l56 -35 7 -130 c4 -71 5 -157 3 -190 l-3 -60 -177 -65 -178 -65 0 -71 c0
-66 -2 -72 -22 -78 -13 -3 -24 -1 -26 4 -2 6 -15 10 -28 10 l-24 0 0 -135 0
-135 -220 0 -220 0 0 160 0 160 -1727 -2 -1727 -3 -63 -115 -63 -115 0 -145 0
-146 -45 -37 c-33 -28 -45 -45 -45 -65 0 -20 13 -41 45 -72 l45 -44 0 -142 0
-141 63 -114 62 -114 1728 -3 1727 -2 0 160 0 160 220 0 220 0 0 -135 0 -135
25 0 c19 0 25 5 25 23 0 17 6 23 25 25 24 2 25 0 25 -66 l0 -67 178 -65 177
-65 3 -226 2 -226 -177 -65 -178 -65 -3 -69 c-2 -39 -8 -72 -15 -76 -7 -4 -29
-5 -49 -1 l-38 6 0 -137 0 -136 -220 0 -220 0 0 165 0 165 -1724 0 -1725 0
-65 -119 -66 -120 0 -144 0 -144 -45 -42 c-58 -53 -58 -74 0 -131 l45 -44 0
-144 0 -143 66 -120 65 -119 1725 0 1724 0 0 165 0 165 220 0 220 0 0 -135 0
-135 25 0 c18 0 25 5 25 19 0 12 9 20 25 23 25 5 25 4 25 -62 l0 -68 218 -80
c119 -45 274 -102 345 -128 l127 -47 0 -413 0 -412 -67 -8 c-38 -4 -512 -4
-1056 0 l-987 7 0 -78 0 -78 80 -34 c64 -27 80 -38 80 -55 0 -12 7 -462 15
-1001 13 -806 18 -982 29 -990 8 -5 703 -381 1545 -835 l1531 -825 0 -386 0
-386 -527 -6 c-289 -4 -652 -7 -806 -7 l-280 0 -154 -41 -154 -40 -370 7 -369
7 0 -1271 0 -1272 58 0 58 0 67 -383 c38 -210 75 -402 83 -427 28 -84 885
-4883 873 -4890 -6 -4 -48 -13 -95 -20 -58 -8 -84 -16 -84 -26 0 -9 8 -12 28
-8 186 35 172 34 172 10 0 -48 10 -63 39 -58 28 4 28 5 19 44 -5 22 -7 42 -6
43 2 1 43 9 92 18 48 9 91 19 94 22 16 15 -16 16 -95 2 -48 -9 -90 -13 -94 -9
-8 9 -879 4859 -879 4895 0 15 -22 152 -50 305 -27 152 -50 282 -49 287 0 6
35 -87 77 -206 49 -138 90 -236 113 -270 28 -42 140 -348 499 -1362 255 -719
461 -1310 458 -1313 -3 -2 -44 -12 -92 -21 -70 -14 -86 -20 -86 -35 0 -22 6
-22 110 -2 46 8 86 12 90 7 4 -4 13 -25 19 -45 12 -35 13 -37 39 -25 37 16 43
27 37 64 -6 36 -8 35 103 54 59 10 72 16 72 31 0 22 -15 23 -115 2 -42 -9 -80
-12 -85 -7 -14 16 -1000 2810 -1000 2835 0 14 -36 127 -81 252 -45 125 -79
230 -76 232 3 3 112 8 244 11 l238 5 145 -53 145 -54 2049 -5 2048 -5 89 -95
c63 -68 123 -148 206 -279 l117 -184 1289 -1347 1288 -1348 142 -85 c78 -47
177 -116 219 -153 72 -63 78 -71 89 -123 6 -31 31 -141 56 -246 24 -104 179
-871 343 -1704 165 -832 300 -1515 302 -1516 2 -2 65 9 140 24 123 25 138 26
142 12 7 -24 86 -378 86 -385 0 -3 20 -6 45 -6 32 0 45 4 45 14 0 8 -20 103
-45 212 -25 108 -44 198 -43 199 2 1 137 28 300 61 l297 60 7 -30 c3 -17 30
-138 60 -270 30 -131 54 -240 54 -242 0 -2 14 -4 31 -4 24 0 29 4 25 18 -3 9
-24 100 -47 201 -32 144 -39 189 -30 203 8 13 7 33 -3 78 -11 46 -12 62 -3 65
50 17 613 121 617 115 3 -5 38 -160 79 -344 72 -325 75 -336 98 -336 13 0 23
6 23 14 0 7 -34 164 -75 347 -41 183 -73 334 -71 337 2 2 147 32 323 68 175
35 342 69 371 75 l52 10 0 136 c0 132 -6 167 -229 1437 -127 715 -244 1398
-261 1516 -18 118 -117 691 -221 1274 -105 582 -188 1065 -185 1072 3 9 21 14
43 14 21 0 55 3 76 6 l37 7 0 763 0 763 -47 7 c-27 4 -127 19 -223 33 l-175
27 -3 889 c-2 747 1 964 17 1348 11 253 22 462 25 465 4 3 33 8 65 10 l59 4 6
92 c3 50 8 174 11 276 44 1482 55 1841 59 1933 l5 108 -29 6 c-35 6 -35 7 -49
323 -9 181 -6 310 14 815 22 539 39 760 71 968 l6 37 85 0 85 0 -7 -113 c-3
-61 -55 -1286 -115 -2721 l-110 -2609 0 -918 0 -919 414 0 413 0 934 895 c737
707 941 908 967 953 19 31 210 337 424 678 l391 622 121 7 121 7 77 57 77 56
0 145 0 145 -77 56 c-76 56 -78 56 -160 62 -46 3 -86 7 -88 10 -3 2 110 1228
251 2723 141 1496 254 2731 253 2745 -2 18 -107 143 -340 404 l-338 378 0 296
c0 261 2 305 19 366 11 39 24 89 30 112 l12 42 116 3 116 3 109 178 108 178 0
675 0 675 50 188 c42 160 50 202 50 279 l0 90 93 29 c50 16 215 67 364 114
l273 84 0 1158 c0 636 2 1157 4 1157 3 0 335 61 740 135 404 74 740 135 745
135 8 0 11 93 11 295 l0 295 30 0 30 0 0 89 0 88 68 6 c37 4 109 9 160 13 l92
7 0 68 0 69 195 0 195 0 0 -350 0 -350 217 2 216 3 224 349 223 348 0 124 0
124 128 0 c91 1 134 5 152 15 21 12 133 14 693 15 l667 0 0 -100 c0 -82 3
-100 15 -100 12 0 15 18 15 100 l0 100 175 0 175 0 0 -45 0 -45 104 0 104 0
31 -55 31 -56 152 3 152 3 30 53 c27 46 34 52 63 52 l33 0 0 -90 c0 -73 3 -90
15 -90 12 0 15 17 15 90 l0 90 45 0 45 0 0 140 0 140 -45 0 -45 0 0 90 c0 73
-3 90 -15 90 -12 0 -15 -17 -15 -90 l0 -90 -33 0 c-29 0 -36 6 -63 53 l-30 52
-152 3 -152 3 -31 -56 -31 -55 -104 0 -104 0 0 -45 0 -45 -175 0 -175 0 0 100
c0 82 -3 100 -15 100 -12 0 -15 -18 -15 -100 l0 -100 -667 0 c-560 1 -672 3
-693 15 -18 10 -61 14 -152 15 l-128 0 0 124 0 124 -223 348 -224 349 -216 3
-217 2 0 -350 0 -350 -195 0 -195 0 0 69 0 68 -92 7 c-51 4 -123 9 -160 13
l-68 6 0 88 0 89 -30 0 -30 0 0 295 c0 190 -4 295 -10 295 -5 0 -341 61 -746
135 -404 74 -737 135 -740 135 -2 0 -4 521 -4 1158 l0 1157 -273 84 c-149 47
-314 98 -364 114 l-93 29 0 90 c0 77 -8 119 -50 279 l-50 188 -1 678 0 678
-108 175 -108 175 -116 3 -116 3 -12 42 c-6 23 -19 73 -30 112 -17 61 -19 105
-19 366 l0 297 338 377 c233 261 338 386 340 404 1 14 -112 1250 -253 2745
-140 1495 -253 2721 -250 2724 3 3 42 7 87 10 82 4 84 5 160 61 l77 56 0 145
0 145 -77 57 -77 56 -121 7 -122 7 -390 622 c-214 341 -405 647 -424 679 -26
45 -228 244 -967 952 l-933 895 -414 0 -414 0 0 -919 0 -918 110 -2609 c60
-1435 112 -2660 115 -2721 l7 -113 -85 0 -85 0 -6 38 c-32 207 -49 428 -71
967 -20 505 -23 634 -14 815 14 313 15 317 47 323 l27 6 -1 178 c-1 98 -4 214
-8 258 -3 44 -17 465 -31 935 -14 470 -28 896 -31 946 l-6 91 -60 6 c-33 3
-62 7 -65 10 -2 3 -13 211 -24 464 -16 384 -19 601 -17 1348 l3 889 175 27
c96 14 196 29 223 33 l47 7 0 764 0 764 -57 6 c-85 9 -103 14 -103 28 0 6 85
487 189 1067 104 580 203 1152 221 1270 17 118 134 801 261 1516 223 1270 229
1305 229 1437 l0 136 -52 10 c-391 79 -692 141 -694 144 -2 2 30 153 71 336
41 183 75 339 75 347 0 8 -10 14 -23 14 -23 0 -26 -11 -98 -336 -41 -184 -76
-339 -79 -344 -4 -6 -567 98 -617 115 -9 3 -8 19 3 65 10 45 11 65 3 78 -9 14
-2 59 30 203 23 101 44 192 47 202 4 14 -1 17 -25 17 -17 0 -31 -1 -31 -3 0
-13 -120 -530 -124 -534 -5 -5 -584 105 -594 112 -1 1 18 91 43 200 25 109 45
204 45 211 0 10 -14 14 -45 14 -25 0 -45 -3 -45 -6z m-8895 -16361 c0 -27 0
-27 155 -54 85 -16 170 -31 188 -34 l32 -6 0 -124 0 -124 -32 -6 c-18 -3 -103
-19 -188 -34 l-155 -27 2 -47 c3 -44 2 -46 -20 -38 -22 8 -22 10 -25 259 -3
266 -5 252 38 261 3 0 6 -11 5 -26z m11041 -1896 l58 -487 -49 -100 c-27 -55
-51 -97 -54 -95 -2 3 -21 127 -42 277 l-37 271 29 306 c16 168 29 313 30 321
2 35 10 -30 65 -493z m-11044 -195 l-4 -29 191 -33 192 -34 -3 -125 -3 -126
-155 -27 c-85 -15 -170 -30 -189 -33 l-33 -6 7 -46 c6 -40 5 -45 -10 -39 -9 3
-21 6 -26 6 -5 0 -9 105 -9 250 0 251 0 251 23 260 12 5 22 9 23 9 0 1 -1 -12
-4 -27z m3 -12626 c-7 -45 -7 -45 26 -51 19 -3 104 -18 189 -33 l155 -27 3
-126 3 -125 -133 -23 c-278 -48 -250 -40 -246 -71 4 -25 2 -27 -16 -20 -20 7
-21 15 -24 258 -3 267 -4 254 41 261 5 0 5 -19 2 -43z m11040 -662 c-33 -274
-61 -491 -63 -483 -1 8 -15 151 -31 319 l-29 305 34 255 c19 140 37 266 40
280 5 21 13 10 57 -77 l51 -102 -59 -497z m-11038 -1431 l-2 -46 185 -33 c102
-19 186 -34 188 -34 1 0 2 -56 2 -125 l0 -124 -32 -6 c-18 -3 -103 -18 -188
-33 l-155 -28 0 -27 c1 -19 -3 -26 -13 -22 -7 3 -18 5 -23 5 -5 0 -9 105 -9
250 0 251 0 251 23 260 12 5 23 9 24 9 2 1 2 -20 0 -46z"/>
</g>
</svg>
