<?xml version="1.0" standalone="no"?>
<!DOCTYPE svg PUBLIC "-//W3C//DTD SVG 20010904//EN"
 "http://www.w3.org/TR/2001/REC-SVG-20010904/DTD/svg10.dtd">
<svg version="1.0" xmlns="http://www.w3.org/2000/svg"
   viewBox="0 0 3800.000000 2223.000000"
 preserveAspectRatio="xMidYMid meet">
<metadata>
Created by potrace 1.16, written by Peter Selinger 2001-2019
</metadata>
<g transform="translate(0.000000,2223.000000) scale(0.100000,-0.100000)"
fill="#000000" stroke="none">
<path d="M11125 22223 c-92 -3 -102 -6 -127 -30 l-28 -27 0 -221 0 -221 28
-27 c27 -26 33 -27 125 -27 58 0 97 -4 97 -10 0 -7 -199 -10 -577 -10 l-578 0
-192 -192 -193 -193 0 -1665 0 -1665 193 -193 192 -192 773 0 c765 0 772 0
772 -20 0 -18 -7 -20 -68 -20 -59 0 -72 -3 -90 -23 -21 -22 -22 -31 -22 -247
l0 -224 27 -28 c26 -28 28 -28 146 -28 l119 0 56 120 57 120 203 0 202 0 0
-195 0 -195 -389 0 -388 0 -59 125 c-67 145 -31 129 -289 125 -157 -2 -161 -2
-187 -28 l-28 -26 0 -220 c0 -212 1 -221 22 -243 l21 -23 -439 0 -439 0 -193
-193 -192 -192 0 -1163 0 -1162 -155 0 -155 0 0 265 0 265 -95 0 -95 0 0 3330
0 3330 -1520 0 -1520 0 0 -100 0 -100 -1643 0 -1643 0 -57 -58 c-41 -42 -57
-65 -57 -85 l0 -27 -137 0 -138 1 -253 -68 -252 -67 0 -768 0 -767 43 -12 c23
-6 132 -35 242 -65 199 -54 200 -54 348 -54 l147 0 0 -325 0 -325 -137 0 -138
0 -250 -68 -250 -68 -3 -752 -2 -752 -63 0 c-59 0 -65 -2 -97 -35 l-34 -35
-806 0 -807 0 -21 -23 -22 -23 0 -983 c0 -978 0 -983 21 -1012 l20 -29 130 0
129 0 0 -295 0 -295 -170 0 -170 0 0 -210 0 -210 -35 0 -35 0 0 -250 0 -250
35 0 35 0 0 -1770 0 -1770 -35 0 -35 0 0 -250 0 -250 35 0 35 0 0 -210 0 -210
170 0 170 0 0 -295 0 -295 -129 0 -130 0 -20 -29 c-21 -29 -21 -34 -21 -1013
l0 -985 23 -21 23 -22 805 0 805 0 34 -35 c32 -33 38 -35 97 -35 l63 0 2 -752
3 -752 250 -68 250 -68 138 0 137 0 0 -325 0 -325 -147 0 c-148 0 -149 0 -348
-54 -110 -30 -219 -59 -242 -65 l-43 -12 0 -767 0 -768 253 -67 252 -68 138 1
137 0 0 -27 c0 -20 16 -43 57 -85 l57 -58 1643 0 1643 0 0 -100 0 -100 1520 0
1520 0 0 3330 0 3330 95 0 95 0 0 265 0 265 155 0 155 0 0 -1163 0 -1162 193
-193 192 -192 439 0 439 0 -21 -23 c-21 -22 -22 -31 -22 -243 l0 -220 28 -27
27 -26 192 -3 c106 -1 194 0 197 2 2 3 29 58 59 123 l56 117 390 0 391 0 0
-190 0 -190 -202 0 -203 0 -57 120 -56 120 -118 0 c-114 0 -119 -1 -146 -27
l-28 -27 0 -226 c0 -224 0 -227 23 -248 19 -18 35 -22 90 -22 60 0 67 -2 67
-20 0 -20 -7 -20 -772 -20 l-773 0 -192 -192 -193 -193 0 -1665 0 -1665 192
-192 193 -193 577 0 c379 0 578 -3 578 -10 0 -6 -39 -10 -98 -10 -95 0 -99 -1
-125 -28 l-27 -28 0 -219 0 -219 27 -28 c26 -27 30 -28 125 -28 59 0 98 -4 98
-10 0 -5 14 -10 30 -10 17 0 30 5 30 10 0 6 30 10 69 10 l68 0 56 120 57 120
355 0 355 0 0 -55 0 -55 570 0 570 0 0 55 0 55 438 0 438 0 57 -118 c32 -64
57 -123 57 -129 0 -8 13 -13 30 -13 17 0 30 5 30 10 0 6 63 10 168 10 l168 0
27 28 27 28 0 215 0 215 -33 32 -33 32 -162 0 c-101 0 -162 4 -162 10 0 7 204
10 593 10 l592 0 193 193 192 192 0 1665 0 1665 -193 193 -192 192 -773 0
c-765 0 -772 0 -772 20 0 18 7 20 58 20 48 0 62 4 80 23 21 23 22 31 22 253 0
288 8 274 -153 274 l-108 0 -57 -119 -57 -120 -237 0 -238 -1 0 190 0 190 405
0 405 0 60 -120 c70 -139 36 -124 280 -121 l155 3 33 31 32 31 0 215 c0 207
-1 216 -22 238 l-21 23 454 0 454 0 192 192 193 193 0 1347 0 1348 245 0 245
0 0 -1348 0 -1347 193 -193 192 -192 439 0 439 0 -21 -23 c-21 -22 -22 -31
-22 -238 l0 -215 33 -31 32 -31 155 -3 c252 -4 217 -18 283 121 l56 120 390 0
391 0 0 -190 0 -190 -202 0 -203 1 -57 119 -57 120 -117 0 c-114 0 -119 -1
-146 -27 l-28 -27 0 -226 c0 -224 0 -227 23 -248 19 -18 35 -22 90 -22 60 0
67 -2 67 -20 0 -20 -7 -20 -772 -20 l-773 0 -192 -192 -193 -193 0 -1665 0
-1665 192 -192 193 -193 577 0 c379 0 578 -3 578 -10 0 -6 -39 -10 -98 -10
-95 0 -99 -1 -125 -28 l-27 -28 0 -219 0 -219 27 -28 c26 -27 30 -28 125 -28
59 0 98 -4 98 -10 0 -5 14 -10 30 -10 17 0 30 5 30 10 0 6 30 10 69 10 l68 0
57 120 57 120 354 0 355 0 0 -55 0 -55 570 0 570 0 0 55 0 55 438 0 437 0 58
-115 c31 -63 57 -122 57 -130 0 -10 10 -15 30 -15 17 0 30 5 30 10 0 6 63 10
168 10 l168 0 27 28 27 28 0 215 0 215 -33 32 -33 32 -162 0 c-101 0 -162 4
-162 10 0 7 204 10 593 10 l592 0 193 193 192 192 0 1665 0 1665 -193 193
-192 192 -773 0 c-765 0 -772 0 -772 20 0 18 7 20 58 20 48 0 62 4 80 23 21
23 22 31 22 253 0 288 8 274 -154 274 l-107 0 -57 -120 -57 -119 -237 -1 -238
0 0 190 0 190 405 0 405 0 60 -120 c70 -139 36 -124 280 -121 l155 3 33 31 32
31 0 215 c0 207 -1 216 -22 238 l-21 23 454 0 454 0 192 192 193 193 0 1227 0
1228 1115 0 1115 0 0 123 0 122 225 89 224 89 3 91 3 91 48 9 47 8 0 198 0
198 -50 7 -50 7 0 259 0 259 435 0 435 0 0 -355 0 -355 285 0 285 0 0 -55 0
-55 80 0 80 0 0 55 0 55 290 0 290 0 0 -34 c0 -24 16 -62 51 -120 45 -75 59
-90 113 -121 l61 -36 0 -397 0 -397 54 -36 c104 -69 268 -67 376 5 l56 37 -1
396 -1 396 58 35 c47 28 67 49 97 99 l37 63 364 0 365 0 0 55 0 55 150 0 150
0 0 -32 c0 -20 18 -63 51 -119 45 -75 60 -91 113 -124 l61 -37 0 -397 0 -396
54 -36 c42 -28 71 -39 121 -46 66 -9 179 2 208 20 9 7 12 -35 12 -195 l0 -203
-35 -24 -35 -24 0 -708 0 -709 155 0 155 0 0 -211 0 -211 41 -49 41 -49 364 0
364 0 0 1595 0 1595 -50 0 -50 0 0 55 0 55 -155 0 -155 0 0 70 c0 40 4 70 10
70 6 0 10 25 10 55 l0 55 589 0 589 0 161 167 161 166 0 139 c0 85 4 138 10
138 6 0 10 -9 10 -20 0 -20 7 -20 791 -20 l791 0 96 -70 96 -70 68 0 c63 0 69
-2 80 -25 11 -24 15 -25 105 -25 90 0 94 1 105 25 11 25 12 25 138 25 125 0
128 -1 144 -25 16 -24 21 -25 110 -25 89 0 93 1 104 25 11 25 13 25 140 25
128 0 129 0 140 -25 11 -24 15 -25 105 -25 90 0 94 1 105 25 11 25 13 25 136
25 121 0 124 -1 140 -25 16 -24 21 -25 110 -25 89 0 93 1 104 25 l12 25 150 0
150 0 0 160 0 160 -547 0 -548 0 -24 35 -24 35 -168 0 -169 0 0 55 c0 48 2 55
20 55 16 0 20 7 20 30 l0 30 460 0 460 0 0 -30 c0 -28 2 -30 40 -30 38 0 40 2
40 30 0 24 4 30 21 30 11 0 101 23 200 52 l179 52 0 68 c0 63 1 68 22 68 12 0
33 11 47 24 15 14 50 34 79 45 50 20 72 21 413 21 l361 0 45 40 46 40 241 1
c241 0 241 0 351 33 l110 32 0 254 0 254 -110 32 c-110 33 -110 33 -351 33
l-241 1 -46 40 -45 40 -361 0 c-341 0 -363 1 -413 21 -29 11 -64 31 -79 45
-14 13 -35 24 -47 24 -21 0 -22 5 -22 68 l0 68 -179 52 c-99 29 -189 52 -200
52 -17 0 -21 6 -21 30 0 28 -2 30 -40 30 -38 0 -40 -2 -40 -30 l0 -30 -460 0
-460 0 0 30 c0 23 -4 30 -20 30 -18 0 -20 7 -20 55 l0 55 169 0 168 0 24 35
24 35 548 0 547 0 0 160 0 160 -150 0 -150 0 -12 25 c-11 24 -15 25 -104 25
-89 0 -94 -1 -110 -25 -16 -24 -19 -25 -140 -25 -123 0 -125 0 -136 25 -11 24
-15 25 -105 25 -90 0 -94 -1 -105 -25 -11 -25 -12 -25 -140 -25 -127 0 -129 0
-140 25 -11 24 -15 25 -104 25 -89 0 -94 -1 -110 -25 -16 -24 -19 -25 -144
-25 -126 0 -127 0 -138 25 -11 24 -15 25 -105 25 -90 0 -94 -1 -105 -25 -11
-23 -17 -25 -80 -25 l-68 0 -96 -70 -96 -70 -791 0 c-784 0 -791 0 -791 -20 0
-11 -4 -20 -10 -20 -6 0 -10 53 -10 138 l0 139 -161 166 -161 167 -589 0 -589
0 0 55 c0 30 -4 55 -10 55 -6 0 -10 30 -10 70 l0 70 155 0 155 0 0 55 0 55 50
0 50 0 0 1595 0 1595 -364 0 -364 0 -41 -49 -41 -49 0 -211 0 -211 -155 0
-155 0 0 -709 0 -708 35 -24 35 -24 0 -203 c0 -160 -3 -202 -12 -195 -29 18
-142 29 -208 20 -50 -7 -79 -18 -121 -46 l-54 -36 0 -396 0 -397 -61 -37 c-53
-33 -68 -49 -113 -124 -33 -56 -51 -99 -51 -119 l0 -32 -150 0 -150 0 0 55 0
55 -365 0 -364 0 -37 63 c-30 50 -50 71 -97 99 l-58 35 1 396 1 396 -56 37
c-108 72 -272 74 -376 5 l-54 -36 0 -397 0 -397 -61 -36 c-54 -31 -68 -46
-113 -121 -35 -58 -51 -96 -51 -120 l0 -34 -290 0 -290 0 0 55 0 55 -80 0 -80
0 0 -55 0 -55 -285 0 -285 0 0 -355 0 -355 -435 0 -435 0 0 259 0 259 50 7 50
7 0 198 0 198 -47 8 -48 9 -3 91 -3 91 -224 89 -225 89 0 123 0 122 -1115 0
-1115 0 0 1228 0 1227 -193 193 -192 192 -454 0 -454 0 21 23 c21 22 22 31 22
238 l0 215 -32 31 -33 31 -155 3 c-245 3 -210 19 -282 -126 l-63 -125 -402 0
-403 0 0 195 0 195 238 0 237 -1 57 -119 57 -120 109 0 c160 0 152 -14 152
276 0 228 0 231 -23 252 -18 17 -36 22 -80 22 -50 0 -57 2 -57 20 0 20 7 20
772 20 l773 0 192 192 193 193 0 1665 0 1665 -193 193 -192 192 -593 0 c-388
0 -592 3 -592 10 0 6 61 10 163 10 l163 0 32 33 32 33 0 215 0 215 -27 26
c-28 26 -29 26 -223 30 l-195 3 -59 -122 -60 -123 -438 0 -438 0 0 55 0 55
-570 0 -570 0 0 -55 0 -55 -355 0 -354 0 -57 120 -57 120 -71 2 c-39 1 -127 0
-196 -1 -119 -3 -126 -4 -152 -29 l-28 -26 0 -221 0 -221 28 -27 c27 -26 33
-27 125 -27 58 0 97 -4 97 -10 0 -7 -199 -10 -577 -10 l-578 0 -192 -192 -193
-193 0 -1665 0 -1665 193 -193 192 -192 773 0 c765 0 772 0 772 -20 0 -18 -7
-20 -68 -20 -59 0 -72 -3 -90 -23 -21 -22 -22 -31 -22 -248 l0 -225 28 -27
c27 -26 32 -27 146 -27 l117 0 57 120 57 119 203 1 202 0 0 -195 0 -195 -389
0 -388 0 -58 125 c-68 145 -32 130 -285 126 l-155 -3 -32 -31 -33 -31 0 -215
c0 -207 1 -216 22 -238 l21 -23 -439 0 -439 0 -193 -193 -192 -192 0 -1348 0
-1347 -245 0 -245 0 0 1347 0 1348 -192 192 -193 193 -454 0 -454 0 21 23 c21
22 22 31 22 238 l0 215 -32 31 -33 31 -155 3 c-245 3 -210 19 -282 -126 l-63
-125 -402 0 -403 0 0 195 0 195 238 -1 237 0 57 -120 57 -119 109 0 c160 0
152 -14 152 276 0 228 0 231 -23 252 -18 17 -36 22 -80 22 -50 0 -57 2 -57 20
0 20 7 20 773 20 l772 0 193 193 192 192 0 1665 0 1665 -192 192 -193 193
-592 0 c-389 0 -593 3 -593 10 0 6 61 10 163 10 l163 0 32 33 32 33 0 215 0
215 -27 26 c-28 26 -29 26 -223 30 l-195 4 -59 -123 -59 -123 -439 0 -438 0 0
55 0 55 -570 0 -570 0 0 -55 0 -55 -355 0 -355 0 -57 120 -56 120 -52 0 c-29
0 -72 2 -96 3 -24 2 -89 2 -144 0z m1115 -563 c0 -7 -167 -10 -480 -10 -313 0
-480 3 -480 10 0 7 167 10 480 10 313 0 480 -3 480 -10z m2130 0 c0 -7 -172
-10 -495 -10 -323 0 -495 3 -495 10 0 7 172 10 495 10 323 0 495 -3 495 -10z
m4680 0 c0 -7 -167 -10 -480 -10 -313 0 -480 3 -480 10 0 7 167 10 480 10 313
0 480 -3 480 -10z m2130 0 c0 -7 -172 -10 -495 -10 -323 0 -495 3 -495 10 0 7
172 10 495 10 323 0 495 -3 495 -10z m-8940 -4130 c0 -20 -7 -20 -280 -20
-273 0 -280 0 -280 20 0 20 7 20 280 20 273 0 280 0 280 -20z m1770 0 c0 -20
-7 -20 -315 -20 -308 0 -315 0 -315 20 0 20 7 20 315 20 308 0 315 0 315 -20z
m5040 0 c0 -20 -7 -20 -280 -20 -273 0 -280 0 -280 20 0 20 7 20 280 20 273 0
280 0 280 -20z m1770 0 c0 -20 -7 -20 -315 -20 -308 0 -315 0 -315 20 0 20 7
20 315 20 308 0 315 0 315 -20z m-7660 -525 l0 -195 -350 0 -350 0 0 195 0
195 350 0 350 0 0 -195z m6810 0 l0 -195 -350 0 -350 0 0 195 0 195 350 0 350
0 0 -195z m-18175 -2635 c26 -28 34 -30 97 -30 l67 0 3 -152 3 -153 245 -67
245 -67 143 0 142 -1 0 -45 0 -45 -850 0 -850 0 0 295 0 295 363 0 363 0 29
-30z m28521 -1218 c-11 -10 -15 4 -8 28 l7 25 3 -23 c2 -13 1 -26 -2 -30z
m3524 -1182 l0 -50 -65 0 -65 0 0 -38 c0 -31 -7 -45 -40 -77 -40 -39 -40 -39
-40 -117 l0 -78 -277 0 -277 0 -28 27 c-28 27 -28 28 -28 155 l0 128 335 0
335 0 0 50 0 50 75 0 75 0 0 -50z m300 0 l0 -50 -125 0 -125 0 0 50 0 50 125
0 125 0 0 -50z m330 -35 l0 -85 -140 0 -140 0 0 85 0 85 140 0 140 0 0 -85z
m320 0 l0 -85 -140 0 -140 0 0 85 0 85 140 0 140 0 0 -85z m1968 -502 c-21 -2
-55 -2 -75 0 -21 2 -4 4 37 4 41 0 58 -2 38 -4z m0 -630 c-21 -2 -55 -2 -75 0
-21 2 -4 4 37 4 41 0 58 -2 38 -4z m-3128 -251 c0 -78 0 -78 40 -117 33 -32
40 -46 40 -77 l0 -38 65 0 65 0 0 -50 0 -50 -75 0 -75 0 0 50 0 50 -335 0
-335 0 0 127 c0 124 1 128 27 155 l27 28 278 0 278 0 0 -78z m840 -247 l0 -85
-140 0 -140 0 0 85 0 85 140 0 140 0 0 -85z m320 0 l0 -85 -140 0 -140 0 0 85
0 85 140 0 140 0 0 -85z m-650 -35 l0 -50 -125 0 -125 0 0 50 0 50 125 0 125
0 0 -50z m-3821 -1207 c0 -25 -1 -26 -9 -8 -12 27 -12 35 0 35 6 0 10 -12 9
-27z m-27579 -678 l0 -45 -142 -1 -143 0 -245 -67 -245 -67 -3 -153 -3 -152
-67 0 c-63 0 -71 -2 -97 -30 l-29 -30 -363 0 -363 0 0 295 0 295 850 0 850 0
0 -45z m10420 -3150 l0 -195 -350 0 -350 0 0 195 0 195 350 0 350 0 0 -195z
m6810 0 l0 -195 -350 0 -350 0 0 195 0 195 350 0 350 0 0 -195z m-7730 -525
c0 -20 -7 -20 -280 -20 -273 0 -280 0 -280 20 0 20 7 20 280 20 273 0 280 0
280 -20z m1770 0 c0 -20 -7 -20 -315 -20 -308 0 -315 0 -315 20 0 20 7 20 315
20 308 0 315 0 315 -20z m5040 0 c0 -20 -7 -20 -280 -20 -273 0 -280 0 -280
20 0 20 7 20 280 20 273 0 280 0 280 -20z m1770 0 c0 -20 -7 -20 -315 -20
-308 0 -315 0 -315 20 0 20 7 20 315 20 308 0 315 0 315 -20z m-8580 -4130 c0
-7 -167 -10 -480 -10 -313 0 -480 3 -480 10 0 7 167 10 480 10 313 0 480 -3
480 -10z m2130 0 c0 -7 -172 -10 -495 -10 -323 0 -495 3 -495 10 0 7 172 10
495 10 323 0 495 -3 495 -10z m4680 0 c0 -7 -167 -10 -480 -10 -313 0 -480 3
-480 10 0 7 167 10 480 10 313 0 480 -3 480 -10z m2130 0 c0 -7 -172 -10 -495
-10 -323 0 -495 3 -495 10 0 7 172 10 495 10 323 0 495 -3 495 -10z"/>
</g>
</svg>
