<?xml version="1.0" standalone="no"?>
<!DOCTYPE svg PUBLIC "-//W3C//DTD SVG 20010904//EN"
 "http://www.w3.org/TR/2001/REC-SVG-20010904/DTD/svg10.dtd">
<svg version="1.0" xmlns="http://www.w3.org/2000/svg"
   viewBox="0 0 4000.000000 1264.000000"
 preserveAspectRatio="xMidYMid meet">
<metadata>
Created by potrace 1.16, written by Peter Selinger 2001-2019
</metadata>
<g transform="translate(0.000000,1264.000000) scale(0.100000,-0.100000)"
fill="#000000" stroke="none">
<path d="M11139 12586 c-12 -55 -13 -56 -48 -55 -20 0 -145 12 -278 28 l-243
27 0 -55 c-1 -108 -39 -823 -45 -829 -3 -3 -74 0 -157 6 -83 7 -152 11 -153
10 -1 -2 -33 -306 -70 -677 l-69 -674 -416 6 c-228 4 -982 12 -1674 19 l-1260
11 -385 190 -386 189 -685 -181 c-633 -167 -4688 -1181 -5075 -1268 l-170 -39
-7 -150 c-10 -200 -12 -5265 -3 -5565 l8 -236 316 -73 c477 -109 4266 -1056
4986 -1246 l630 -166 385 187 384 186 1406 15 c773 7 1527 15 1676 16 l270 3
69 -674 69 -674 101 7 c55 3 125 9 156 12 l56 6 7 -73 c3 -41 13 -240 22 -444
10 -203 18 -371 19 -373 1 -1 122 11 268 28 147 16 270 30 275 30 5 0 14 -25
21 -55 9 -41 17 -55 30 -55 16 0 1759 243 1829 255 29 5 32 9 32 39 l0 33 68
7 c37 4 976 99 2087 211 l2020 205 1068 178 c587 98 1070 182 1073 185 4 3 -8
122 -25 263 -18 140 -31 258 -29 260 3 2 240 33 528 68 451 55 525 66 537 82
7 10 55 96 105 190 l92 172 41 6 c22 3 135 8 250 11 116 3 234 8 263 11 51 5
52 6 52 39 0 28 4 34 28 39 15 3 333 58 707 121 1787 304 2282 393 2525 456
129 33 243 62 253 65 13 4 17 -1 17 -24 l0 -29 532 -6 c293 -4 533 -5 534 -4
1 1 5 56 9 122 3 66 8 139 11 162 l5 43 975 0 974 0 0 118 c0 66 3 186 6 268
l7 150 111 27 111 28 800 14 c440 8 862 15 938 15 l137 0 0 45 c0 25 3 45 7
45 73 0 2509 163 2514 168 4 4 46 147 94 317 49 171 90 312 91 314 2 2 138 14
304 26 165 12 303 25 307 28 3 4 10 166 14 360 5 193 11 412 15 485 l6 132
437 0 436 0 116 -218 116 -217 423 -3 424 -2 178 77 178 78 2 175 3 174 1735
143 c954 78 1743 142 1753 143 15 0 17 10 17 73 l0 74 113 6 c61 4 284 7 495
7 l382 0 0 109 0 108 -485 5 c-267 3 -488 8 -491 11 -3 3 -9 36 -12 74 l-7 68
-1730 142 c-951 78 -1740 142 -1752 142 -22 1 -23 3 -25 177 l-3 176 -175 79
-175 79 -423 -3 -423 -2 -117 -217 -117 -218 -436 0 -437 0 -6 133 c-4 72 -10
291 -15 484 -4 194 -10 356 -14 359 -3 4 -129 15 -279 25 -150 10 -286 20
-303 21 l-29 3 -92 320 -91 320 -1254 82 c-690 45 -1257 82 -1261 82 -5 1 -8
19 -8 40 l0 39 -192 6 c-106 3 -483 11 -838 16 -791 12 -827 14 -961 47 l-106
27 -7 150 c-3 82 -6 200 -6 263 l0 113 -974 0 -973 0 -7 31 c-3 17 -6 57 -6
89 0 31 -3 91 -6 133 l-7 77 -533 0 -534 0 0 -31 c0 -24 -4 -29 -17 -25 -10 3
-124 32 -253 65 -236 61 -575 121 -2797 498 l-463 78 0 38 0 37 -47 0 c-97 1
-509 20 -534 25 -22 5 -42 35 -125 191 -55 102 -103 188 -109 190 -5 2 -243
32 -528 67 -285 36 -520 67 -523 69 -2 3 10 120 28 261 17 141 29 259 27 262
-3 2 -491 85 -1084 184 l-1080 180 -2045 206 c-1125 113 -2060 208 -2077 211
-30 6 -33 10 -33 40 0 30 -3 34 -32 39 -18 3 -424 59 -903 125 -478 66 -886
122 -907 126 l-36 5 -13 -55z"/>
</g>
</svg>
