<?xml version="1.0" standalone="no"?>
<!DOCTYPE svg PUBLIC "-//W3C//DTD SVG 20010904//EN"
 "http://www.w3.org/TR/2001/REC-SVG-20010904/DTD/svg10.dtd">
<svg version="1.0" xmlns="http://www.w3.org/2000/svg"
   viewBox="0 0 5000.000000 1478.000000"
 preserveAspectRatio="xMidYMid meet">
<metadata>
Created by potrace 1.16, written by Peter Selinger 2001-2019
</metadata>
<g transform="translate(0.000000,1478.000000) scale(0.100000,-0.100000)"
fill="#000000" stroke="none">
<path d="M29830 14548 c-206 -125 -395 -246 -420 -267 l-45 -39 47 -90 47 -89
-32 -31 c-28 -29 -30 -33 -15 -49 8 -10 67 -81 130 -159 l116 -141 603 -1146
c332 -631 608 -1147 613 -1147 5 0 106 56 223 125 117 69 217 125 221 125 5 0
41 -40 81 -90 40 -49 76 -90 80 -90 3 0 66 55 139 122 120 109 132 117 113 80
-12 -23 -21 -46 -21 -52 0 -11 208 -270 217 -270 3 0 37 27 77 59 l73 60 129
-177 c71 -97 131 -180 132 -184 2 -4 -105 -8 -237 -8 l-241 0 0 85 0 85 -1662
0 -1663 0 -1738 -140 c-956 -77 -1742 -140 -1748 -140 -5 0 -9 -71 -9 -175 0
-173 0 -175 23 -179 51 -11 3435 -187 3580 -186 l157 0 0 -110 0 -110 -249 0
-250 0 -19 -52 c-11 -29 -32 -90 -46 -136 l-28 -82 -1621 6 -1622 6 -420 -86
c-231 -47 -444 -90 -472 -96 l-53 -12 0 -223 c0 -194 -2 -224 -16 -229 -9 -3
-760 -6 -1670 -6 l-1654 0 0 140 0 140 -1715 0 -1715 0 0 -135 0 -135 -60 0
-60 0 0 235 0 235 -115 0 -115 0 0 1130 0 1130 -305 0 -304 0 -26 44 -25 43
-189 55 -189 55 -189 -55 -190 -54 -24 -44 -24 -44 -856 0 c-550 0 -859 4
-861 10 -1 5 -88 34 -192 65 l-189 55 -171 -50 c-94 -27 -184 -56 -201 -65
-26 -13 -111 -15 -595 -18 l-565 -2 -19 -120 c-10 -66 -19 -121 -21 -123 -1
-1 -179 -28 -396 -60 l-394 -58 -3 -502 -2 -502 -58 0 c-31 0 -97 11 -145 24
l-88 24 -90 -24 c-68 -18 -116 -24 -195 -24 l-104 0 1 268 1 267 194 184 c107
101 194 188 194 193 0 5 -30 22 -66 39 -75 33 -77 22 13 123 29 33 53 62 53
66 0 3 -679 364 -1508 803 l-1508 797 -367 0 -367 0 0 -880 0 -880 -120 0
-119 0 -3 -86 -3 -86 -182 -71 -183 -72 0 -805 0 -805 185 -70 185 -70 0 -88
0 -88 436 7 436 7 -4 -84 c-3 -63 -15 -117 -47 -216 l-42 -133 -55 0 -54 0 0
-225 0 -225 -1385 0 -1385 0 0 -435 0 -435 -185 0 -185 0 0 -68 0 -69 -297 -7
c-186 -4 -300 -11 -304 -17 -4 -7 -640 -30 -1809 -65 -992 -30 -1806 -56
-1808 -59 -3 -3 -3 -7 0 -10 2 -3 816 -29 1807 -59 1166 -35 1806 -58 1810
-64 4 -7 119 -13 304 -18 l297 -7 0 -68 0 -69 185 0 185 0 0 -435 0 -435 1385
0 1385 0 0 -225 0 -225 54 0 55 0 42 -132 c32 -100 44 -154 47 -217 l4 -84
-436 7 -436 8 0 -89 0 -88 -185 -70 -185 -69 0 -806 0 -805 182 -71 183 -72 3
-86 3 -86 119 0 120 0 0 -880 0 -880 366 0 367 0 1508 797 c830 439 1509 800
1509 804 0 3 -24 32 -53 65 -90 101 -88 90 -13 123 36 17 66 34 66 40 0 5 -87
92 -194 192 l-194 184 -1 268 -1 267 104 0 c79 0 127 -6 194 -24 l89 -24 89
24 c49 13 115 24 147 24 l57 0 0 -500 0 -500 23 -5 c12 -3 190 -30 396 -60
205 -30 375 -56 376 -57 2 -2 11 -57 21 -123 l19 -120 565 -2 c487 -3 569 -5
595 -18 17 -9 107 -38 202 -65 l172 -48 188 54 c103 30 189 59 191 64 2 6 310
10 861 10 l856 0 24 -44 24 -43 190 -55 190 -55 186 54 c102 30 191 61 196 68
6 7 18 27 27 44 l17 31 306 0 305 0 0 1130 0 1130 115 0 115 0 0 235 0 235 60
0 60 0 0 -135 0 -135 1715 0 1715 0 0 140 0 140 1670 0 1670 0 0 -230 c0 -126
2 -230 4 -230 1 0 214 -43 472 -96 l469 -96 1621 8 1621 7 28 -84 c15 -46 36
-108 47 -136 l19 -53 250 0 249 0 0 -110 0 -110 -192 -1 c-106 0 -951 -42
-1878 -92 l-1685 -92 -3 -178 c-2 -128 1 -177 9 -177 6 0 794 -63 1751 -140
l1740 -140 1659 0 1659 0 0 85 0 85 241 0 c132 0 239 -4 237 -8 -1 -4 -61 -87
-132 -184 l-130 -176 -72 59 c-40 32 -75 59 -78 59 -9 0 -216 -258 -216 -270
0 -6 9 -29 21 -52 18 -36 6 -27 -112 81 -73 66 -136 121 -140 121 -4 0 -40
-40 -80 -90 -40 -49 -76 -90 -81 -90 -4 0 -107 58 -228 129 l-220 130 -19 -37
c-11 -20 -283 -536 -604 -1146 -618 -1173 -580 -1107 -782 -1354 l-68 -83 31
-31 31 -31 -47 -89 -47 -89 43 -38 c23 -20 213 -141 422 -268 301 -183 382
-228 393 -219 8 6 176 209 373 451 197 242 655 799 1017 1239 363 439 666 810
673 825 13 25 11 28 -43 83 -46 47 -54 59 -44 72 9 10 20 12 40 6 26 -7 33 -1
136 127 l108 134 -47 48 -48 49 264 321 263 321 718 0 c572 0 717 -3 711 -12
-30 -49 -236 -348 -240 -348 -3 0 -37 26 -76 57 l-71 57 -34 -39 c-19 -22 -68
-82 -110 -133 l-75 -93 21 -51 21 -51 -78 74 c-114 109 -190 171 -200 165 -5
-3 -42 -46 -82 -95 -72 -89 -73 -90 -99 -76 -14 7 -118 68 -231 134 l-205 120
-27 -52 c-15 -29 -290 -551 -611 -1162 l-585 -1110 -117 -143 -117 -144 27
-28 27 -29 -52 -96 -52 -97 37 -32 c21 -17 211 -138 424 -268 316 -194 388
-234 397 -222 6 7 13 12 15 10 2 -2 328 392 724 876 396 484 852 1040 1014
1236 161 197 305 372 319 390 l25 33 -61 55 c-70 63 -74 90 -13 79 l37 -6 107
130 c59 71 107 133 107 136 0 3 -23 27 -51 53 l-50 47 258 318 257 317 719 0
c572 0 717 -3 711 -12 -21 -35 -247 -348 -251 -348 -3 0 -36 25 -74 55 -37 30
-72 55 -76 54 -4 0 -56 -60 -114 -132 l-107 -132 25 -49 c25 -49 24 -48 -109
72 -73 67 -136 122 -140 122 -4 0 -39 -39 -79 -88 -40 -48 -75 -91 -79 -95 -4
-4 -110 53 -236 127 -126 73 -230 133 -231 132 -2 -1 -278 -526 -616 -1167
l-612 -1164 -114 -138 -114 -138 27 -28 26 -27 -51 -99 -52 -98 43 -36 c24
-20 215 -140 424 -268 301 -183 383 -229 389 -217 5 8 11 13 15 11 4 -2 349
414 767 925 418 511 885 1081 1037 1266 l277 337 -61 61 c-66 68 -69 89 -9 79
l36 -6 108 132 108 133 -51 51 -50 51 262 317 263 317 757 0 758 0 0 -100 0
-100 745 0 745 0 0 -145 0 -145 791 0 791 0 66 -55 66 -55 1588 0 1587 0 43
55 c38 49 47 55 80 55 21 0 38 5 38 11 0 26 31 438 36 477 l5 42 172 0 172 1
819 1008 819 1008 1106 7 c608 3 1280 9 1494 13 l387 6 0 22 0 23 -777 6
c-428 4 -1082 10 -1454 14 l-676 7 178 220 c98 121 184 223 191 227 10 6 1311
167 1354 168 5 0 19 24 32 54 l23 53 312 7 c172 3 426 9 565 12 l252 7 0 148
0 149 -52 0 c-166 1 -911 20 -915 24 -2 2 7 27 21 55 23 45 26 62 26 159 l0
109 178 7 c97 3 304 9 460 12 l282 7 0 127 0 128 -257 6 c-142 3 -349 9 -460
12 l-203 6 0 110 c0 97 -3 114 -26 159 -14 28 -23 53 -21 55 4 5 714 23 895
24 l72 0 0 149 0 148 -232 7 c-128 3 -382 9 -565 12 l-332 7 -23 53 c-13 30
-27 54 -31 54 -11 0 -1328 159 -1345 163 -7 1 -95 103 -196 227 l-183 225 626
7 c344 4 998 10 1454 14 l827 6 0 23 0 22 -357 7 c-197 3 -839 8 -1428 11
-588 3 -1101 8 -1140 11 l-70 6 -815 1004 -815 1003 -172 1 -172 0 -5 43 c-3
23 -10 112 -16 197 -6 85 -13 185 -16 223 l-7 67 -36 0 c-32 0 -41 6 -78 55
l-43 55 -1588 0 -1588 0 -66 -55 -66 -55 -791 0 -791 0 0 -145 0 -145 -745 0
-745 0 0 -100 0 -100 -757 0 -758 0 -263 317 -262 317 51 52 50 51 -108 132
-108 133 -37 -6 c-58 -9 -56 11 11 78 l61 61 -323 392 c-177 215 -644 785
-1037 1266 -393 481 -718 873 -722 871 -4 -3 -10 2 -15 10 -6 12 -87 -33 -389
-217 -209 -128 -400 -248 -424 -268 l-43 -36 52 -98 52 -98 -27 -28 -26 -27
114 -140 114 -139 589 -1119 c324 -615 600 -1140 614 -1165 l26 -47 229 135
c126 74 232 130 236 126 4 -4 39 -47 79 -96 60 -73 75 -86 90 -78 16 9 93 77
220 195 l43 41 -25 -50 -25 -50 107 -132 c58 -72 110 -132 114 -132 5 -1 39
24 75 54 37 30 69 55 73 55 6 0 229 -307 253 -347 6 -10 -139 -13 -711 -13
l-719 0 -257 318 -258 317 51 48 c27 27 50 51 50 53 0 3 -48 64 -107 135
l-106 130 -37 -6 c-62 -11 -58 16 12 79 44 40 58 59 51 68 -5 7 -133 164 -285
348 -151 184 -614 749 -1028 1255 -414 506 -754 918 -756 915 -2 -3 -9 3 -16
12 -12 15 -50 -6 -394 -216 -210 -127 -400 -248 -423 -268 l-42 -36 52 -97 51
-96 -27 -29 -27 -29 115 -139 115 -139 600 -1139 c329 -627 605 -1151 613
-1166 l14 -27 205 121 c113 66 217 126 231 134 26 13 28 12 99 -77 40 -49 77
-92 82 -95 10 -6 76 48 197 162 l80 75 -21 -50 -21 -49 107 -131 c59 -72 110
-131 114 -131 4 0 38 26 77 58 l70 58 107 -157 c59 -87 114 -169 124 -183 l16
-26 -718 0 -719 0 -263 321 -264 321 48 49 c35 35 45 51 37 61 -5 7 -54 67
-108 133 -92 112 -99 119 -130 116 -54 -4 -52 17 9 78 54 54 55 57 42 83 -8
14 -301 374 -652 800 -351 425 -811 985 -1022 1243 -211 259 -389 473 -395
476 -7 3 -181 -97 -387 -223z"/>
<path d="M45030 11309 l0 -170 103 6 c56 3 1142 30 2412 60 1271 31 2343 58
2383 61 l72 6 0 44 0 44 -92 0 c-111 0 -4531 106 -4735 114 l-143 5 0 -170z"/>
<path d="M45030 3471 l0 -170 138 5 c215 8 4615 114 4730 114 l102 0 0 44 0
45 -52 5 c-29 3 -1099 30 -2378 60 -1279 31 -2373 58 -2432 61 l-108 6 0 -170z"/>
</g>
</svg>
