<?xml version="1.0" standalone="no"?>
<!DOCTYPE svg PUBLIC "-//W3C//DTD SVG 20010904//EN"
 "http://www.w3.org/TR/2001/REC-SVG-20010904/DTD/svg10.dtd">
<svg version="1.0" xmlns="http://www.w3.org/2000/svg"
   viewBox="0 0 4648.000000 4238.000000"
 preserveAspectRatio="xMidYMid meet">
<metadata>
Created by potrace 1.16, written by Peter Selinger 2001-2019
</metadata>
<g transform="translate(0.000000,4238.000000) scale(0.100000,-0.100000)"
fill="#000000" stroke="none">
<path d="M5365 42369 c-480 -5 -824 -14 -1130 -30 l-439 -22 -516 -300 c-283
-165 -520 -304 -527 -309 -6 -5 -34 -48 -61 -97 l-50 -87 13 -133 c7 -73 15
-134 17 -136 2 -2 91 -22 198 -44 107 -23 205 -43 218 -46 22 -5 23 -9 20 -96
l-3 -91 -161 -85 -161 -85 -31 -191 c-30 -186 -33 -197 -92 -326 l-61 -135 7
-162 7 -162 81 -80 81 -80 420 -94 420 -93 115 12 c63 6 123 12 133 12 16 1
17 -33 17 -569 l0 -570 730 0 730 0 1 -52 c1 -29 4 -140 8 -246 l6 -192 -630
0 -630 0 -34 -148 c-28 -125 -610 -1984 -626 -2000 -2 -3 -485 55 -1072 127
-588 73 -1259 151 -1493 174 l-425 42 -220 -20 -220 -20 -3 -157 -3 -157 33
-6 c18 -3 438 -59 933 -125 768 -103 1065 -146 1220 -177 30 -6 30 -6 -75
-103 l-105 -98 -3 -82 c-3 -49 -9 -83 -16 -85 -6 -2 -173 -18 -371 -36 -399
-36 -398 -36 -409 -108 -3 -20 -22 -271 -42 -559 -35 -522 -35 -522 -15 -550
18 -26 40 -33 317 -97 164 -39 291 -71 283 -72 -8 -1 -144 -14 -304 -28 -319
-30 -329 -32 -340 -99 -2 -17 -18 -233 -35 -481 -16 -247 -32 -486 -36 -530
-8 -124 -27 -114 397 -213 195 -46 356 -86 358 -88 3 -2 -1 -89 -7 -192 l-11
-187 117 -117 117 -116 305 -21 c168 -12 311 -21 318 -21 9 0 12 -162 12 -775
0 -426 2 -775 5 -775 7 0 1963 -449 2008 -461 l37 -10 0 -673 0 -673 -402
-101 c-222 -56 -428 -110 -458 -120 l-55 -19 -87 -148 c-48 -81 -115 -189
-148 -240 l-61 -92 -284 -139 -284 -139 -51 -112 -52 -111 50 -109 c43 -94 67
-178 177 -608 111 -434 132 -533 166 -755 l39 -255 0 -1147 0 -1148 27 -54 26
-54 441 -125 c397 -113 460 -128 631 -152 104 -15 191 -28 192 -29 1 -1 -152
-30 -340 -66 l-342 -64 -70 -67 -70 -68 -18 -525 c-18 -511 -18 -541 0 -1051
l18 -525 67 -67 66 -66 334 -63 c183 -35 340 -65 348 -67 8 -1 -73 -15 -180
-31 -175 -25 -241 -41 -636 -153 l-441 -125 -26 -54 -27 -54 0 -1148 0 -1147
-39 -256 c-34 -222 -55 -320 -166 -755 -111 -436 -134 -513 -178 -607 l-50
-107 52 -113 53 -112 284 -139 284 -140 60 -91 c33 -51 100 -159 148 -241 l87
-148 75 -23 c41 -13 247 -67 458 -119 l382 -97 0 -673 c0 -632 -1 -673 -17
-678 -19 -6 -2022 -466 -2029 -466 -2 0 -4 -349 -4 -775 0 -731 -1 -775 -17
-775 -10 0 -153 -9 -318 -21 l-300 -20 -118 -117 -117 -117 10 -140 c5 -77 10
-163 10 -191 l0 -51 -360 -84 c-337 -79 -361 -86 -380 -112 l-21 -28 21 -312
c56 -820 54 -795 81 -821 23 -23 41 -26 326 -52 167 -15 302 -28 300 -29 -1
-1 -134 -33 -295 -70 -274 -64 -295 -71 -313 -97 l-20 -28 35 -522 c20 -288
39 -540 42 -560 11 -70 12 -70 415 -107 200 -18 367 -36 371 -40 3 -3 8 -41
10 -85 l3 -78 105 -98 c105 -97 105 -97 75 -104 -131 -26 -517 -82 -1260 -181
-478 -63 -882 -118 -897 -121 l-28 -6 0 -154 c0 -85 1 -154 3 -155 1 -1 101
-11 222 -23 l220 -21 425 42 c234 23 905 102 1493 174 587 73 1069 130 1072
127 16 -16 590 -1847 622 -1985 l38 -163 630 0 630 0 -6 -192 c-4 -106 -7
-217 -8 -245 l-1 -53 -730 0 -730 0 0 -570 c0 -450 -3 -570 -12 -569 -7 0 -66
6 -132 13 l-119 12 -421 -93 -421 -94 -81 -80 -81 -81 -7 -161 -7 -162 61
-135 c59 -130 62 -142 92 -327 l31 -191 161 -85 161 -85 3 -90 c3 -87 2 -90
-21 -96 -13 -3 -111 -24 -217 -46 -107 -22 -196 -42 -198 -44 -2 -3 -10 -64
-17 -137 l-13 -134 52 -90 52 -90 525 -306 524 -305 445 -22 c326 -17 674 -25
1300 -32 l855 -10 1335 95 1335 95 1830 226 1830 225 2175 455 2175 454 347
162 c192 89 346 163 345 165 -2 2 -154 55 -338 119 l-334 116 -2605 164 -2605
163 -305 -101 c-168 -55 -311 -103 -317 -106 -10 -3 -13 127 -13 632 l0 636
118 0 117 1 225 103 225 104 3 111 3 111 112 0 c62 0 1995 16 4297 35 2302 19
4247 35 4323 35 l137 0 0 60 c0 33 -1 60 -2 60 -25 2 -8395 70 -8590 70 l-278
0 0 274 0 273 -212 99 -213 99 -509 5 -509 5 -184 400 c-102 220 -188 404
-193 408 -4 5 -108 31 -231 58 -123 28 -224 51 -225 52 -1 1 -51 90 -112 198
l-112 196 1171 2360 1170 2360 203 679 202 679 411 46 412 46 596 323 596 323
732 129 c579 102 1653 270 5127 803 2417 372 5234 804 6260 962 l1865 286 495
-42 495 -42 1503 289 1503 288 397 274 397 273 1410 354 c1353 339 1413 353
1477 347 l68 -7 0 -968 c0 -913 -1 -968 -17 -973 -10 -3 -810 -167 -1778 -365
l-1760 -359 -1747 -283 -1748 -283 0 -104 0 -104 28 6 c15 3 804 132 1753 286
l1727 279 137 -55 137 -55 647 131 c1162 236 2271 466 3141 650 796 169 997
216 2930 691 1141 280 2082 513 2090 517 9 4 55 48 103 98 l88 92 2 276 c2
243 0 275 -13 271 -20 -6 -1070 -265 -1076 -265 -2 0 -4 186 -4 414 l0 414 93
22 c50 13 436 146 857 296 l765 274 293 150 294 151 139 -46 140 -47 235 88
c226 84 255 98 666 321 l429 234 172 141 c95 77 235 196 312 264 77 67 333
282 569 476 l429 353 257 607 258 608 -257 607 -258 608 -434 357 c-239 197
-495 411 -569 477 -74 65 -213 182 -308 260 l-172 141 -429 234 c-411 223
-439 236 -665 321 l-237 88 -138 -47 -139 -47 -293 151 -294 151 -765 273
c-421 150 -807 283 -857 296 l-93 22 0 414 c0 228 2 414 4 414 5 0 1066 -259
1081 -264 7 -2 10 89 8 271 l-2 275 -88 92 c-48 50 -94 94 -103 98 -12 6
-3191 790 -3989 984 -356 87 -2323 499 -4172 874 l-646 131 -138 -55 -137 -55
-1726 280 c-950 153 -1739 282 -1754 285 l-28 6 0 -104 0 -104 1752 -284 1753
-284 1770 -361 1770 -362 3 -970 2 -970 -67 -7 c-65 -6 -124 8 -1478 348
l-1410 353 -395 273 -395 273 -1505 289 -1505 289 -500 -42 -500 -41 -4040
620 c-2222 342 -5025 772 -6228 957 -1575 242 -2401 373 -2947 469 l-758 134
-597 322 -596 323 -412 46 -411 47 -203 679 -202 679 -1170 2359 -1171 2360
111 196 c61 108 112 197 113 198 1 1 102 24 225 52 123 27 227 53 231 58 5 4
91 188 193 408 l184 400 509 5 509 5 213 99 212 99 0 274 0 273 248 0 c168 0
8571 68 8620 70 1 0 2 27 2 60 l0 60 -112 0 c-62 0 -1996 16 -4298 35 -2302
19 -4247 35 -4322 35 l-137 0 -3 111 -3 111 -225 104 -225 104 -117 0 -118 0
0 635 c0 349 1 635 3 635 1 0 143 -47 314 -104 l312 -104 2608 163 2608 163
334 116 c184 64 336 118 338 119 1 2 -153 76 -345 165 l-347 162 -2175 455
-2175 454 -1825 225 -1825 225 -1340 96 c-1011 72 -1382 95 -1510 93 -93 -1
-480 -5 -860 -9z"/>
</g>
</svg>
