<?xml version="1.0" standalone="no"?>
<!DOCTYPE svg PUBLIC "-//W3C//DTD SVG 20010904//EN"
 "http://www.w3.org/TR/2001/REC-SVG-20010904/DTD/svg10.dtd">
<svg version="1.0" xmlns="http://www.w3.org/2000/svg"
   viewBox="0 0 3487.000000 2967.000000"
 preserveAspectRatio="xMidYMid meet">
<metadata>
Created by potrace 1.16, written by Peter Selinger 2001-2019
</metadata>
<g transform="translate(0.000000,2967.000000) scale(0.100000,-0.100000)"
fill="#000000" stroke="none">
<path d="M13480 27745 c-888 -1058 -1625 -1937 -1637 -1953 l-23 -28 178 -520
177 -519 -297 -3 -298 -2 0 -272 0 -271 -607 6 -608 5 -292 86 -291 86 -1003
0 -1002 0 6 -307 c4 -170 7 -605 7 -967 l0 -659 998 5 997 6 293 81 292 81
725 0 725 0 0 -180 0 -179 33 -9 c17 -5 224 -57 460 -117 l427 -108 0 -958 0
-957 -460 -114 -460 -113 0 -380 0 -380 -285 -273 -285 -273 0 -390 0 -389
-970 0 -970 0 0 -345 0 -345 -1765 0 -1765 0 0 83 0 84 -517 6 c-285 4 -715 7
-955 7 l-438 0 0 48 c0 26 -3 71 -6 100 l-7 52 -88 0 -89 0 0 -101 0 -102
-108 6 c-80 5 -1874 12 -1927 8 -6 -1 -9 -83 -6 -235 2 -189 1 -234 -10 -238
-8 -3 -185 -76 -394 -163 -209 -86 -386 -159 -392 -162 -10 -4 -13 13 -13 66
0 55 -3 71 -14 71 -8 0 -192 -27 -409 -60 -218 -33 -398 -60 -401 -60 -9 0 -6
-3297 2 -3345 l7 -40 85 -7 c47 -3 193 -11 325 -17 132 -6 282 -13 334 -16
l93 -6 -7 79 -7 79 462 7 c254 4 463 6 465 4 2 -2 7 -285 11 -630 l7 -628
1028 0 1029 0 0 134 0 134 124 7 123 7 7 60 c3 34 6 90 6 124 l0 64 358 1
c196 1 409 4 472 8 l115 6 3 128 3 127 364 0 365 0 0 90 0 90 1770 0 1770 0 0
-375 0 -375 38 0 c20 0 208 -7 417 -15 209 -8 406 -15 438 -15 l57 0 0 -325 0
-325 965 0 965 0 0 290 0 290 59 0 59 0 6 -242 c3 -134 8 -714 11 -1290 l5
-1048 -70 0 -70 0 0 -60 0 -60 -230 0 -230 0 0 -354 0 -353 -37 -7 c-21 -3
-90 -6 -154 -6 -113 0 -117 1 -123 23 -3 12 -6 129 -6 260 l0 237 -93 0 c-52
0 -161 3 -243 6 l-149 6 -225 -212 c-124 -116 -250 -235 -280 -265 l-54 -55
-12 -942 c-6 -518 -8 -954 -4 -969 5 -15 137 -187 294 -382 l286 -354 236 -7
c130 -4 239 -5 242 -1 3 3 8 165 10 360 l5 355 147 0 147 0 6 -82 c4 -46 7
-214 7 -374 l0 -291 855 -739 855 -739 0 -1361 0 -1361 -76 -137 c-42 -75 -80
-136 -85 -136 -5 0 -9 -29 -9 -65 0 -56 13 -103 92 -333 l92 -267 123 -130
123 -130 0 -87 0 -87 -42 -5 c-24 -3 -79 -8 -123 -10 -178 -12 -742 -57 -772
-62 -20 -3 -33 -11 -33 -19 0 -8 4 -15 9 -15 5 0 139 -11 298 -25 158 -13 362
-29 453 -35 236 -16 210 1 210 -140 l0 -120 1045 0 1045 0 0 100 0 100 110 0
c103 0 110 -1 110 -20 0 -18 7 -20 80 -20 l80 0 0 175 0 175 -80 0 c-73 0 -80
-2 -80 -20 0 -19 -7 -20 -110 -20 l-110 0 0 200 0 200 -65 0 -65 0 0 1903 0
1903 55 48 55 47 0 722 0 723 -55 54 -55 54 0 227 0 227 110 128 109 129 0
800 0 800 -109 130 -110 130 0 268 0 267 -175 0 -175 0 0 50 0 50 -635 0 -635
0 0 275 0 275 -61 99 -60 99 3 295 c2 163 6 298 9 302 4 3 38 -1 77 -10 57
-13 84 -27 136 -66 l65 -50 -20 -32 c-21 -36 -24 -50 -9 -45 6 2 120 194 255
428 l244 425 330 3 331 2 0 325 0 325 110 0 110 0 0 -65 0 -65 294 0 293 0 7
46 c3 26 6 129 6 230 l0 184 110 0 110 0 0 120 0 120 1330 0 1330 0 0 -65 0
-65 1805 0 1805 0 0 -35 0 -35 59 0 58 0 8 -160 7 -160 508 0 507 0 7 61 c3
34 6 79 6 100 l0 39 95 0 95 0 0 -368 c0 -203 3 -841 6 -1418 l7 -1049 -148
-193 -148 -192 -264 0 -263 0 0 82 0 81 -367 -6 c-203 -4 -554 -7 -780 -7
l-413 0 0 -1132 0 -1131 452 6 c248 4 595 7 770 7 l318 0 0 86 0 86 293 -7
c160 -4 293 -8 293 -9 1 0 51 -127 112 -281 l110 -280 218 -5 219 -5 3 -137 3
-138 509 0 510 0 0 140 0 140 209 0 c158 0 210 3 214 12 10 25 169 414 199
485 l30 73 594 0 594 0 0 -1357 0 -1358 805 -298 c714 -265 806 -297 823 -285
11 7 1354 1077 2986 2378 l2966 2364 0 548 0 548 -3790 0 -3790 0 0 -360 0
-360 -590 0 -590 0 0 57 c0 56 -2 59 -130 255 l-130 199 0 265 0 264 55 0 55
0 0 810 0 810 -55 0 -55 0 0 340 0 340 490 0 490 0 0 43 0 44 217 7 c119 3
219 10 223 15 5 10 627 31 898 31 101 0 162 4 162 10 0 6 -62 10 -165 10 -91
0 -165 4 -165 8 0 5 6 15 13 24 10 13 174 18 1362 37 743 13 1360 24 1373 27
12 2 22 10 22 18 0 11 -240 14 -1372 20 l-1373 7 -25 28 c-14 16 -32 31 -40
33 -8 3 192 8 445 11 567 9 835 17 835 28 0 4 -380 9 -845 11 -826 3 -844 3
-859 23 -13 18 -31 20 -353 25 -226 3 -345 9 -354 16 -8 6 -69 54 -137 106
l-122 96 0 1592 c0 876 2 1595 4 1598 3 2 110 51 238 107 l233 102 3 177 2
176 325 0 325 0 22 35 23 35 917 0 918 0 49 63 50 62 1 255 0 256 -47 62 -48
62 -917 0 -918 0 -22 35 -23 35 -322 0 -323 0 0 230 0 230 -775 0 -775 0 0
175 0 175 -350 0 -350 0 0 -175 c0 -149 -2 -175 -15 -175 -8 0 -15 3 -15 6 0
3 -56 276 -125 606 -69 331 -125 607 -125 614 0 12 267 14 1640 14 l1640 0 0
359 0 359 -1981 1509 c-1090 829 -1989 1511 -1998 1516 -10 5 -201 -58 -551
-182 l-535 -189 -3 -1686 -2 -1686 550 0 550 0 0 -620 c0 -407 -3 -620 -10
-620 -6 0 -10 60 -10 159 0 88 -3 166 -6 175 -5 14 -32 16 -199 16 l-193 0 -7
-175 -7 -175 -314 0 -314 0 0 -170 0 -170 -80 0 -80 0 0 -62 c0 -35 -3 -73 -6
-86 l-6 -23 -1032 6 c-567 3 -1376 7 -1798 10 l-768 6 0 -59 0 -59 -262 -6
c-145 -4 -734 -7 -1310 -7 l-1048 0 0 160 0 160 -95 0 c-90 0 -95 1 -99 23 -7
33 -39 1147 -34 1153 3 2 145 32 317 67 l311 62 0 132 c0 73 1 133 3 134 1 0
216 6 477 14 l475 14 90 29 90 30 1415 11 c778 6 1508 11 1623 11 l207 0 0 25
0 25 -212 1 c-117 0 -852 6 -1633 14 l-1420 13 -90 30 c-89 29 -92 30 -390 36
-165 3 -375 9 -467 13 l-167 6 -3 111 -3 111 -307 50 c-169 28 -310 54 -314
58 -4 4 21 7 56 7 l64 0 71 74 70 75 1315 1 c723 0 1387 0 1475 -1 88 -1 267
2 398 6 l237 7 0 52 0 52 -385 12 c-283 8 -393 8 -417 0 -23 -8 -384 -9 -1327
-4 l-1296 6 -75 75 -75 74 -63 3 -64 3 91 63 91 63 0 368 0 368 -86 59 -86 59
63 3 64 3 70 74 70 74 1315 1 c723 0 1389 0 1480 -1 91 -1 270 2 398 6 l232 7
0 53 0 53 -307 8 c-170 5 -348 7 -398 5 -49 -2 -682 -3 -1405 -2 l-1315 1 -75
75 -75 75 -63 0 c-62 0 -62 0 -62 29 0 29 1 29 83 41 45 6 183 26 307 43 l225
33 3 122 3 122 77 0 c42 0 257 5 477 11 l400 11 95 29 95 29 1625 15 c894 8
1626 15 1628 15 1 0 2 9 2 19 0 17 -11 19 -132 25 -73 3 -807 10 -1630 16
l-1497 11 -88 30 -88 29 -460 11 c-253 6 -470 13 -482 15 -22 4 -23 8 -23 134
l0 130 -122 0 c-68 0 -147 3 -175 6 l-53 7 0 143 0 144 1098 0 1098 0 30 53
30 52 352 3 352 2 0 80 0 80 -350 0 -350 0 -31 50 -31 50 -1099 0 -1099 0 0
189 c0 104 -3 202 -6 219 -6 29 -15 34 -205 111 l-198 81 -131 0 -130 0 0 215
0 215 90 0 90 0 0 -35 0 -35 648 0 c356 0 920 3 1255 7 l607 6 0 1598 0 1599
-22 5 c-13 2 -320 47 -683 99 l-660 94 -557 6 -558 6 -87 -49 c-48 -28 -88
-49 -88 -48 -1 1 9 376 21 832 12 457 23 867 23 911 l1 82 -287 6 c-159 3
-324 8 -368 11 l-80 5 -1615 -1925z m2448 -988 c6 -5 12 -27 12 -48 l0 -39
-92 0 -93 0 3 90 3 91 77 -42 c42 -23 83 -46 90 -52z m-138 -219 c0 -40 -33
-258 -39 -258 -3 0 -5 63 -3 140 3 131 4 140 23 140 13 0 19 -7 19 -22z m150
-25 c0 -25 -2 -44 -4 -42 -8 10 -13 89 -5 89 5 0 9 -21 9 -47z m-180 -903 l0
-540 -24 0 -24 0 4 103 c5 123 24 863 24 930 0 26 5 47 10 47 7 0 10 -187 10
-540z m0 -695 c0 -11 30 -212 35 -232 5 -19 1 -23 -20 -23 -23 0 -25 3 -25 50
0 43 -3 50 -20 50 -18 0 -20 7 -20 80 0 79 0 80 25 80 14 0 25 -2 25 -5z m167
-247 c-3 -8 -6 -5 -6 6 -1 11 2 17 5 13 3 -3 4 -12 1 -19z m-2453 -23 c534
-14 1012 -26 1061 -28 50 -2 -413 -4 -1027 -5 l-1118 -2 0 30 c0 37 -132 36
1084 5z m1436 -471 l0 -27 -842 7 c-1346 10 -1678 16 -1678 32 0 12 207 14
1260 14 l1260 0 0 -26z m14570 -6859 l0 -255 -869 0 -870 0 -18 30 -17 30
-330 0 -329 0 7 53 c3 28 6 114 6 190 l0 137 320 0 320 0 22 35 23 35 868 0
867 0 0 -255z m-12897 -345 l-138 -150 -3 35 c-3 30 -7 35 -28 35 l-24 0 0
115 0 115 165 0 166 0 -138 -150z m1645 133 l382 -6 0 -89 0 -88 30 0 29 0 -5
-167 c-4 -93 -11 -235 -17 -318 -6 -82 -10 -327 -9 -542 l2 -393 -1154 0
c-635 0 -1161 3 -1170 6 -9 4 -16 18 -16 34 0 27 -2 28 -65 32 -35 2 -66 6
-67 8 -2 3 -2 137 0 298 l3 292 107 75 c68 47 117 74 135 75 25 0 27 3 27 46
l0 46 342 349 342 349 361 0 c198 0 532 -3 743 -7z m772 -102 c0 -94 1 -99 23
-105 12 -3 104 -6 205 -6 l182 0 0 -402 c0 -222 3 -535 7 -695 l6 -293 -285 0
-285 0 -6 386 c-3 213 -10 391 -16 398 -5 6 -12 152 -16 324 l-8 312 32 0 31
0 0 90 0 90 65 0 65 0 0 -99z m1833 -118 l107 -6 0 -689 0 -688 -194 0 c-106
0 -214 3 -240 6 l-46 7 0 688 0 689 133 0 c74 0 182 -3 240 -7z m767 -1718 l0
-1715 -211 0 -212 0 7 61 c3 34 6 322 6 640 l0 578 113 3 112 3 3 383 2 382
-120 0 -120 0 0 238 c0 131 3 442 7 690 l6 452 204 0 203 0 0 -1715z m970
1707 c42 -7 45 -9 48 -39 l3 -33 80 0 c64 0 79 -3 79 -15 0 -11 13 -15 53 -16
28 -1 173 -4 321 -8 l270 -6 58 -80 57 -80 1 -1335 0 -1335 -47 -143 -48 -144
-335 4 -335 3 3 -87 4 -88 -61 0 c-48 0 -61 -3 -61 -15 0 -13 -34 -15 -250
-15 l-250 0 0 1720 0 1720 183 -1 c100 0 202 -4 227 -7z m-13260 -472 l0 -260
-47 0 c-27 0 -65 -3 -85 -6 l-38 -7 0 -323 0 -324 -310 0 c-303 0 -310 0 -310
20 0 17 -7 20 -45 20 l-45 0 0 -57 c0 -32 -3 -75 -6 -95 l-7 -38 -1683 0
-1684 0 0 560 0 560 365 0 365 0 0 105 0 105 1765 0 1765 0 0 -260z m-880
-1725 l0 -105 45 0 c44 0 45 1 45 32 l0 31 173 -6 c94 -4 234 -7 310 -7 l137
0 0 -280 0 -280 90 0 90 0 0 -330 0 -330 -1770 0 -1770 0 0 100 0 100 -367 0
-366 0 6 272 c4 149 7 415 7 590 l0 318 1685 0 1685 0 0 -105z m8345 46 c-6
-5 -111 -95 -235 -200 l-225 -192 -7 43 c-3 24 -7 114 -7 201 l-1 157 242 0
c142 0 238 -4 233 -9z m1858 -139 c-5 -132 -4 -151 12 -176 17 -26 17 -46 6
-389 -6 -199 -14 -401 -17 -449 l-6 -88 -34 0 -34 0 0 -110 0 -110 -912 0
c-502 0 -991 3 -1085 7 l-173 6 0 109 0 108 -109 0 -108 0 -6 83 c-4 45 -7
135 -7 199 l0 117 74 28 c70 26 75 30 78 60 3 30 41 64 448 393 l445 359 717
1 717 0 -6 -148z m787 -114 c0 -145 -3 -435 -7 -645 l-6 -383 -179 0 -178 0 0
-90 0 -90 -80 0 -80 0 0 110 0 110 -35 0 -35 0 0 453 c0 383 2 456 15 473 11
15 14 53 15 172 l0 152 285 0 285 0 0 -262z m1513 -205 c4 -256 7 -547 7 -645
l0 -178 -240 0 -240 0 0 508 c0 280 3 570 7 645 l6 137 227 0 227 0 6 -467z
m6357 -6083 l0 -680 -590 0 -590 0 0 680 0 680 590 0 590 0 0 -680z"/>
</g>
</svg>
