<?xml version="1.0" standalone="no"?>
<!DOCTYPE svg PUBLIC "-//W3C//DTD SVG 20010904//EN"
 "http://www.w3.org/TR/2001/REC-SVG-20010904/DTD/svg10.dtd">
<svg version="1.0" xmlns="http://www.w3.org/2000/svg"
   viewBox="0 0 4358.000000 3941.000000"
 preserveAspectRatio="xMidYMid meet">
<metadata>
Created by potrace 1.16, written by Peter Selinger 2001-2019
</metadata>
<g transform="translate(0.000000,3941.000000) scale(0.100000,-0.100000)"
fill="#000000" stroke="none">
<path d="M33200 39403 c-18 -3 -69 -58 -177 -191 l-153 -187 0 -147 0 -148
-642 0 -643 -1 -625 -1059 -625 -1059 -50 -5 c-27 -3 -273 -10 -545 -16 l-495
-12 -140 -35 -140 -36 -2225 -27 c-1224 -16 -2226 -29 -2227 -29 -2 -1 -3 -10
-3 -21 0 -11 1 -20 3 -21 1 0 1003 -13 2227 -29 l2225 -29 140 -34 140 -35
435 -11 c239 -7 436 -14 438 -16 2 -2 -95 -172 -217 -378 -126 -213 -221 -384
-221 -398 0 -18 12 -31 49 -54 l49 -30 -49 -83 c-66 -111 -65 -121 17 -167 50
-28 64 -41 59 -53 -4 -10 -29 -81 -57 -159 l-50 -143 -37 0 c-20 0 -601 -11
-1291 -25 -690 -14 -1283 -25 -1317 -25 -60 0 -63 -1 -63 -25 0 -25 0 -25 98
-25 224 -1 2544 -49 2549 -53 4 -4 -612 -1756 -620 -1764 -2 -1 -102 -5 -223
-9 l-219 -5 -284 -67 -283 -67 -30 -58 c-20 -41 -28 -70 -26 -95 l3 -37 253
-25 c238 -23 254 -26 270 -48 12 -16 41 -29 92 -42 65 -17 111 -20 338 -20
145 0 262 -4 260 -8 -1 -5 -83 -204 -182 -443 l-178 -434 -965 -375 -965 -375
-272 -460 -271 -460 -300 -6 c-266 -6 -359 -12 -830 -62 l-530 -55 -349 -217
c-191 -119 -374 -237 -406 -262 -44 -35 -79 -81 -156 -199 -87 -134 -103 -153
-131 -159 -43 -8 -200 -182 -205 -227 l-3 -32 -975 -174 c-824 -147 -978 -177
-997 -195 l-23 -20 0 -1498 0 -1498 -246 -3 c-145 -2 -249 1 -255 7 -5 5 -9
108 -9 240 l0 230 -33 39 -33 39 -709 -27 -709 -26 -33 -32 -33 -32 -2 -230
-3 -231 -172 -3 -173 -2 0 222 -1 223 -32 37 -32 37 -710 -80 -710 -80 -30
-37 -30 -36 -5 -240 -5 -241 -1376 -411 -1377 -411 -178 -94 -178 -94 -60 -82
-60 -83 -258 -837 -257 -838 -1 -138 c0 -129 -2 -140 -25 -177 -24 -39 -25
-44 -25 -230 0 -104 -2 -190 -4 -190 -2 0 -136 -18 -298 -40 -161 -22 -296
-40 -300 -40 -4 0 -24 -29 -45 -65 -20 -36 -40 -65 -43 -65 -3 -1 -165 -20
-361 -43 l-355 -42 -515 41 c-283 23 -859 71 -1281 105 l-767 63 -3 144 -3
145 246 -8 246 -7 8 29 c8 32 8 342 -1 419 l-6 50 -65 11 c-36 7 -66 13 -68
15 -3 3 -18 442 -27 808 l-3 105 60 9 c33 5 63 14 67 20 10 14 10 134 2 254
l-7 92 -328 0 c-181 0 -329 -3 -329 -6 0 -3 -92 -354 -205 -779 -113 -425
-205 -779 -205 -785 0 -14 91 -129 156 -197 22 -24 37 -43 32 -43 -4 0 -8 -54
-8 -120 l0 -121 -57 6 c-32 3 -357 30 -722 60 -480 39 -667 58 -673 67 -4 7
-8 57 -8 110 l0 97 -32 4 c-18 2 89 5 239 5 205 2 274 5 280 15 7 11 6 467 -1
475 -2 1 -34 8 -72 15 -62 12 -69 16 -71 38 -6 69 -24 881 -20 885 2 2 32 9
65 15 73 13 68 -2 64 212 l-3 157 -282 0 c-155 0 -304 -3 -332 -6 l-50 -6
-208 -785 -208 -784 95 -114 c72 -85 103 -115 123 -118 l28 -4 -27 -2 -28 -1
0 -91 0 -91 -97 6 c-54 4 -110 9 -125 12 -22 4 -40 -8 -122 -86 l-95 -92 -503
-39 c-277 -21 -515 -39 -530 -39 l-28 0 0 264 0 265 -32 4 c-18 2 92 5 244 5
l277 2 7 23 c10 29 5 424 -6 452 -7 18 -19 24 -62 29 -29 4 -58 10 -65 14 -8
5 -15 139 -24 455 -14 490 -16 467 43 467 15 0 38 4 52 10 26 9 26 10 26 132
0 68 -3 147 -6 176 l-7 52 -326 0 -327 0 -207 -782 c-114 -431 -207 -788 -207
-793 0 -6 41 -60 91 -120 71 -86 98 -111 123 -116 l31 -6 -32 -2 -33 -1 0
-284 0 -283 -92 -8 c-111 -8 -208 -43 -238 -85 -18 -26 -26 -28 -117 -35 -80
-5 -116 -14 -198 -46 l-100 -40 -645 -58 -645 -59 -1530 -16 c-841 -9 -1603
-19 -1693 -22 -160 -6 -162 -6 -162 -29 0 -23 2 -23 143 -29 78 -3 585 -10
1127 -16 541 -6 985 -12 986 -13 1 -1 -65 -76 -147 -167 l-148 -165 0 -770 0
-770 145 -163 c80 -90 144 -165 142 -168 -3 -2 -508 -11 -1124 -19 -615 -8
-1120 -15 -1121 -15 -2 0 -3 -11 -3 -25 0 -14 1 -25 3 -26 1 -1 783 -11 1737
-24 l1735 -23 597 -56 597 -56 98 -39 c80 -32 116 -40 197 -46 95 -7 101 -9
130 -40 42 -43 127 -73 236 -81 l90 -7 0 -283 0 -284 33 -1 c30 -2 30 -2 4 -6
-20 -3 -51 -32 -118 -111 -50 -58 -93 -112 -96 -119 -3 -7 89 -366 203 -798
l208 -785 327 0 326 0 7 46 c10 73 7 302 -4 309 -5 3 -33 9 -61 12 -31 4 -53
12 -56 21 -11 27 18 896 29 904 6 3 35 9 65 13 43 5 56 11 63 29 11 29 16 413
5 449 l-7 28 -269 -2 c-148 -1 -272 1 -276 5 -3 3 8 6 25 6 l32 0 0 265 c0
246 1 265 18 265 9 0 249 -18 532 -40 l515 -40 91 -91 90 -90 110 11 c60 5
117 10 127 10 15 0 17 -11 17 -89 l0 -90 27 -4 28 -4 -26 -2 c-21 -1 -48 -26
-123 -116 l-97 -115 209 -787 208 -788 332 -3 332 -2 1 157 c1 152 0 195 -6
201 -1 1 -25 5 -53 9 -27 3 -55 9 -62 13 -15 9 7 901 23 912 6 3 33 9 61 12
28 4 56 10 63 14 14 9 23 459 10 480 -7 10 -66 13 -273 11 -145 -1 -267 1
-271 4 -3 4 8 7 25 7 l32 0 0 98 c0 53 4 102 8 109 5 8 229 30 692 67 377 31
702 58 722 61 l38 5 0 -120 c0 -107 2 -120 18 -121 14 0 14 -2 -3 -8 -23 -10
-195 -213 -195 -231 0 -11 409 -1563 413 -1566 1 -1 149 -4 328 -6 l326 -3 7
95 c8 127 7 242 -2 257 -4 6 -35 15 -70 19 l-63 7 5 56 c3 31 8 166 11 301 3
135 8 316 11 402 l7 157 67 12 68 12 6 51 c9 76 10 387 1 419 l-7 27 -257 -5
c-141 -3 -250 -3 -243 1 9 4 12 42 12 140 0 131 1 134 22 138 37 8 2478 206
2535 206 46 0 724 -77 728 -83 1 -1 18 -30 39 -65 21 -34 40 -62 44 -62 4 0
137 -18 297 -40 159 -22 293 -40 297 -40 5 0 8 -86 8 -190 0 -186 1 -191 25
-230 24 -37 25 -48 25 -177 l0 -138 258 -838 257 -838 62 -83 61 -83 178 -94
178 -93 1376 -411 1375 -412 5 -240 5 -239 30 -38 30 -37 710 -79 710 -79 32
37 33 37 0 223 0 222 169 0 c145 0 170 -2 175 -16 3 -9 6 -113 6 -233 l0 -217
33 -32 33 -32 709 -27 708 -26 33 39 33 39 3 235 3 235 253 3 252 2 0 -1498 0
-1499 23 -20 c19 -18 167 -47 977 -192 525 -94 965 -173 978 -176 17 -4 22
-12 22 -35 0 -23 18 -50 81 -120 83 -93 104 -109 136 -111 12 0 51 -52 118
-155 123 -190 116 -184 574 -469 l334 -208 526 -55 c466 -48 561 -55 831 -61
l304 -6 272 -460 272 -460 953 -371 c524 -205 959 -376 967 -380 7 -5 94 -205
192 -444 l179 -435 -282 -6 c-287 -6 -378 -18 -399 -51 -4 -7 -11 -18 -15 -24
-5 -6 -108 -21 -238 -33 -302 -29 -285 -25 -285 -67 0 -19 13 -60 29 -92 l29
-58 279 -66 278 -67 227 -7 227 -6 19 -57 c11 -31 151 -427 311 -879 161 -453
290 -826 287 -829 -5 -5 -2234 -52 -2498 -53 l-148 0 0 -24 0 -23 228 -7 c125
-3 733 -15 1352 -27 619 -12 1126 -22 1127 -23 1 -1 27 -73 57 -159 l55 -157
-64 -37 c-50 -29 -65 -43 -65 -60 0 -12 22 -60 49 -105 l49 -83 -49 -30 c-37
-23 -48 -36 -49 -55 0 -15 87 -173 221 -399 121 -205 219 -375 216 -377 -2 -2
-197 -9 -433 -15 l-429 -11 -165 -38 -165 -38 -1970 -21 c-1083 -12 -2077 -24
-2207 -27 -224 -6 -238 -7 -238 -25 0 -11 1 -19 3 -20 1 -1 1001 -14 2222 -29
l2220 -28 140 -35 140 -36 548 -15 c302 -8 550 -16 551 -18 2 -2 285 -481 631
-1066 l628 -1062 638 0 639 0 0 -143 0 -143 151 -184 c83 -102 158 -188 167
-192 9 -4 147 -7 306 -7 l290 -1 46 50 46 50 584 0 584 0 46 -50 46 -50 290 1
c159 0 297 3 306 7 9 4 84 90 167 192 l151 184 0 150 0 149 1045 -7 1045 -6 0
1530 c0 841 3 1530 7 1530 4 0 81 -73 170 -162 l163 -163 0 -802 0 -802 163
71 c89 38 166 73 170 78 5 4 55 393 113 866 58 472 106 859 108 861 1 2 72
-29 157 -67 l154 -70 289 59 c158 32 292 63 296 68 5 4 342 594 749 1311 l741
1302 -2 472 -3 472 -50 13 c-27 7 -101 13 -162 13 l-113 0 0 25 c0 24 2 25 70
25 66 0 77 3 153 47 131 74 130 74 172 174 l38 93 -16 46 c-52 147 -56 151
-175 218 l-111 62 -115 0 -116 0 0 53 0 53 1153 22 c633 12 1216 25 1295 29
141 6 142 6 142 29 0 24 0 24 -122 24 -68 0 -663 11 -1323 25 l-1200 25 -87
37 c-81 34 -88 40 -88 65 l0 28 -155 0 -155 0 0 -35 0 -35 -105 0 -105 0 0
-90 0 -90 -65 0 -65 0 0 -69 c0 -38 -4 -71 -8 -73 -4 -1 -23 -24 -42 -50 l-33
-48 -71 0 c-64 0 -73 3 -101 29 l-30 29 -344 -47 -343 -47 -24 -29 c-22 -28
-24 -38 -24 -161 0 -188 -30 -170 394 -228 l339 -47 27 26 c23 22 34 25 103
25 l77 0 32 -45 c27 -38 37 -45 65 -45 29 0 33 -3 33 -25 l0 -25 -105 0 c-64
0 -131 -6 -170 -16 l-65 -16 0 -334 0 -333 -256 -193 -255 -192 -115 57 -114
57 -2 190 -3 191 -340 158 -340 159 -63 -24 c-34 -13 -91 -35 -127 -48 l-65
-25 0 32 -1 32 -732 333 -732 333 -215 2684 -215 2684 -482 173 -483 173 -1
940 0 940 -237 227 -237 228 -352 0 -353 0 0 45 c0 29 4 45 13 45 6 0 316 9
687 20 371 11 687 20 703 20 20 0 27 5 27 20 0 19 -7 20 -132 21 -73 0 -394 8
-713 17 l-580 17 -3 67 -3 68 -149 0 -150 0 0 80 0 80 78 0 c42 0 300 5 572
11 362 8 515 15 570 26 62 12 291 17 1284 28 664 8 1211 16 1214 20 3 3 3 7 1
9 -2 3 -540 10 -1194 16 -1089 10 -1198 13 -1290 30 -81 15 -170 20 -470 24
-203 4 -459 9 -567 13 l-198 6 0 69 0 68 -150 0 -150 0 2 702 3 702 322 61
c177 34 325 64 328 67 3 3 64 88 136 189 l129 183 0 1321 0 1322 -131 184
c-72 101 -133 186 -134 187 -2 2 -150 31 -329 65 l-326 62 0 703 0 702 150 0
150 0 0 70 0 70 48 0 c26 0 279 4 562 10 431 8 535 13 635 30 112 18 201 20
1294 29 645 6 1176 13 1179 16 3 3 3 7 1 10 -3 2 -538 9 -1189 15 -1079 11
-1194 13 -1285 30 -78 14 -172 20 -425 24 -179 4 -436 9 -572 13 l-248 6 0 79
0 78 150 0 150 0 0 64 0 64 83 6 c78 5 1199 37 1300 36 40 0 47 3 47 20 0 18
-7 20 -67 20 -57 1 -1353 38 -1360 39 -2 1 -3 21 -3 46 l0 45 353 0 352 0 235
225 235 226 5 942 5 941 479 173 c263 95 479 173 480 175 2 2 98 1207 216
2678 131 1648 217 2679 224 2686 6 6 336 159 733 340 l723 329 0 31 0 32 127
-48 c117 -44 129 -47 157 -34 17 7 171 78 341 157 l310 145 3 191 2 191 115
57 114 57 255 -193 256 -193 0 -333 0 -332 58 -17 c38 -10 97 -16 170 -16
l112 0 0 -25 c0 -22 -5 -25 -32 -25 -28 0 -38 -7 -67 -50 l-34 -50 -71 0 c-64
0 -73 2 -101 30 l-30 29 -340 -45 c-424 -57 -395 -40 -395 -234 0 -193 -32
-174 392 -232 l343 -47 30 30 c28 26 37 29 101 29 l71 0 34 -50 c19 -27 37
-50 42 -50 4 0 7 -31 7 -70 l0 -70 65 0 65 0 0 -90 0 -90 105 0 105 0 0 -35 0
-35 155 0 155 0 0 28 c0 25 7 31 88 65 l87 37 1217 25 c669 14 1264 25 1322
25 l106 0 0 25 c0 14 -1 25 -2 25 -25 3 -2362 50 -2455 50 l-133 0 0 55 0 55
118 0 117 0 110 63 110 62 39 98 40 97 -40 98 -39 97 -110 63 c-104 59 -112
62 -177 62 -65 0 -68 1 -68 24 0 24 0 24 138 28 75 2 149 10 165 16 l27 12 0
469 0 469 -741 1304 c-407 716 -744 1307 -749 1311 -4 5 -137 35 -296 67
l-288 58 -155 -69 c-85 -38 -156 -67 -157 -66 -2 2 -50 389 -108 861 -58 472
-108 861 -111 864 -3 3 -78 38 -168 77 l-162 71 -3 -801 -2 -800 -170 -170
-170 -170 0 1533 0 1532 -1045 0 -1045 0 0 148 0 147 -153 187 -152 186 -50 7
c-27 4 -166 5 -308 3 l-259 -3 -40 -47 -40 -48 -588 0 -588 0 -40 48 -40 47
-284 1 c-155 1 -294 0 -308 -3z m-7320 -10459 c0 -9 -44 -86 -97 -171 l-98
-155 -164 6 c-90 3 -287 6 -438 6 l-273 0 0 29 c0 21 -12 39 -46 71 -25 23
-44 44 -42 46 3 2 67 33 144 70 l139 66 425 23 c234 12 431 23 438 24 6 0 12
-6 12 -15z m-94 -18314 c51 -80 93 -152 93 -162 1 -14 -9 -15 -76 -11 -43 2
-242 13 -443 22 l-365 18 -140 69 -140 69 48 44 c35 33 47 51 47 73 l0 28 441
-2 442 -3 93 -145z"/>
</g>
</svg>
