<?xml version="1.0" standalone="no"?>
<!DOCTYPE svg PUBLIC "-//W3C//DTD SVG 20010904//EN"
 "http://www.w3.org/TR/2001/REC-SVG-20010904/DTD/svg10.dtd">
<svg version="1.0" xmlns="http://www.w3.org/2000/svg"
   viewBox="0 0 3831.000000 1363.000000"
 preserveAspectRatio="xMidYMid meet">
<metadata>
Created by potrace 1.16, written by Peter Selinger 2001-2019
</metadata>
<g transform="translate(0.000000,1363.000000) scale(0.100000,-0.100000)"
fill="#000000" stroke="none">
<path d="M34885 12925 l-820 -704 -414 -1 -414 0 -168 -87 c-145 -74 -169 -90
-169 -110 l0 -23 1891 0 1892 0 -7 -61 c-3 -34 -6 -95 -6 -135 l0 -74 -2189 0
-2188 0 -594 -310 -594 -310 -431 0 c-416 0 -432 -1 -457 -20 -21 -17 -40 -20
-124 -20 -82 0 -102 4 -123 20 -22 17 -41 20 -143 20 l-118 0 -30 -35 -31 -35
-418 0 c-395 0 -420 1 -461 20 -41 18 -67 20 -356 20 l-313 0 0 -34 0 -34
-152 -6 c-84 -3 -1114 -20 -2288 -37 -1174 -17 -2136 -32 -2137 -33 -1 -1 978
-16 2175 -34 1197 -18 2228 -35 2290 -38 l112 -6 0 -34 0 -34 310 0 c291 0
313 1 350 20 37 19 59 20 465 20 l426 0 30 -35 31 -35 100 0 100 0 -41 -49
c-23 -27 -38 -51 -33 -53 4 -1 23 -22 41 -45 l33 -41 -71 -233 c-39 -128 -75
-237 -79 -241 -24 -24 -184 -30 -1411 -53 -723 -14 -1316 -26 -1317 -28 -2 -1
540 -13 1204 -25 1231 -23 1462 -29 1481 -41 8 -5 3 -29 -15 -79 l-27 -72
-626 -206 c-344 -113 -637 -214 -651 -224 -15 -11 -39 -52 -60 -104 l-35 -86
-92 0 c-51 0 -93 1 -93 3 0 2 18 45 40 96 22 50 40 94 40 97 0 2 -74 4 -165 4
l-165 0 -232 -96 c-337 -139 -295 -107 -391 -299 l-82 -165 -99 0 -99 0 -223
-132 c-180 -107 -224 -138 -228 -158 -3 -14 -10 -54 -16 -90 l-11 -65 -132
-86 -132 -87 -92 -6 -93 -6 0 209 0 208 -157 6 c-87 4 -616 7 -1175 7 l-1018
0 -55 -27 -55 -27 0 -253 0 -253 60 -30 c43 -21 74 -30 110 -30 47 0 50 -2 50
-25 l0 -25 -157 0 c-87 0 -181 -3 -209 -6 -50 -6 -51 -7 -84 -69 l-33 -62 -76
44 c-42 23 -79 43 -82 43 -4 0 -14 -20 -23 -45 -10 -25 -20 -45 -23 -45 -3 0
-72 36 -153 80 l-147 80 -294 0 c-162 0 -310 3 -330 6 -31 5 -38 12 -51 48
l-15 41 -419 3 -419 2 -19 -45 -18 -45 -406 2 -405 3 -15 43 -14 42 -473 0
-473 0 -6 -45 -7 -45 -589 0 -589 0 -7 45 -6 45 -584 0 -583 0 -12 -41 c-15
-50 -35 -59 -130 -59 l-69 0 0 103 0 102 -1258 378 -1259 377 -204 1 -204 0
-375 457 c-206 251 -538 651 -737 889 -200 238 -363 435 -363 439 0 3 63 3
141 -1 l140 -8 110 74 109 73 0 247 0 246 -92 62 -93 61 356 0 357 0 6 -30 6
-30 91 0 c90 0 92 1 159 42 l68 42 73 186 72 185 32 227 32 227 -32 228 -32
228 -73 185 -73 185 -69 43 c-67 41 -70 42 -157 42 -94 0 -101 -4 -101 -52 0
-20 -4 -20 -61 -14 -34 3 -318 6 -630 6 l-569 0 0 103 0 103 -565 -4 -565 -5
0 40 0 40 -482 6 c-265 4 -662 7 -883 7 l-402 0 -266 -147 -267 -148 0 -782 0
-783 -222 0 -223 0 -138 -57 -137 -57 2 -385 3 -386 135 -57 135 -57 741 -1
741 0 12 -167 c6 -92 13 -167 14 -168 1 0 31 -10 67 -21 l65 -20 3 -76 3 -77
-160 -382 -161 -381 -23 -187 -23 -186 -1619 -6 c-891 -3 -2417 -7 -3391 -8
l-1770 -1 -29 -157 c-15 -87 -31 -161 -34 -165 -3 -3 -413 7 -911 22 -498 16
-1006 30 -1130 30 l-225 0 -253 -67 -252 -67 0 -83 c0 -76 -2 -83 -20 -83 -20
0 -20 -7 -20 -1535 0 -1518 0 -1535 20 -1535 17 0 19 -8 22 -82 l3 -82 250
-67 250 -68 158 0 c86 -1 592 13 1124 29 532 17 972 29 978 26 6 -2 24 -76 40
-165 l29 -161 1775 -1 c977 -1 2503 -5 3391 -8 l1614 -6 23 -184 23 -184 160
-382 c159 -380 160 -381 160 -457 l0 -77 -69 -22 -69 -22 -6 -61 c-3 -34 -9
-109 -12 -168 l-7 -108 -741 0 -741 0 -138 -57 -137 -57 2 -385 3 -386 135
-57 135 -57 222 -1 223 0 2 -782 3 -782 268 -149 269 -148 879 7 879 7 0 39 0
38 565 0 565 0 0 105 0 105 630 0 c614 0 630 0 630 -19 0 -47 8 -51 98 -51 84
0 87 1 158 45 l72 45 72 183 72 182 33 230 32 230 -32 230 -33 230 -73 183
-73 183 -73 44 c-72 44 -76 45 -157 45 -88 0 -96 -4 -96 -51 0 -18 -12 -19
-357 -19 l-357 0 92 62 92 63 0 246 0 245 -107 73 -108 73 -147 -4 -146 -3 42
50 c213 251 705 841 1036 1243 l405 492 195 -1 195 0 1267 378 1268 378 0 103
0 102 89 0 89 0 17 -50 17 -50 583 0 583 0 7 50 7 50 588 0 588 0 7 -50 7 -50
472 0 472 0 15 47 15 48 404 2 405 3 22 -50 22 -50 417 2 418 3 15 47 15 48
330 0 331 1 150 84 149 84 20 -47 c11 -26 21 -49 22 -50 1 -2 35 15 76 39 40
23 76 43 79 45 4 2 22 -25 40 -60 l33 -64 208 -7 208 -7 0 -24 c0 -22 -4 -24
-55 -24 -39 0 -70 -8 -110 -27 l-55 -27 0 -253 0 -253 60 -30 59 -30 503 0
c277 0 803 3 1171 7 l667 6 0 210 0 209 97 -7 96 -7 128 -85 128 -85 11 -72
c6 -39 16 -81 23 -93 7 -13 108 -80 230 -153 l219 -130 99 0 99 0 83 -167 82
-168 260 -110 260 -109 173 -4 c94 -2 172 -1 172 3 0 3 -12 34 -26 68 -15 34
-33 77 -41 95 l-13 32 93 0 93 0 37 -88 c22 -51 46 -93 59 -102 13 -7 304
-107 648 -220 l625 -207 21 -54 c38 -95 38 -97 7 -103 -15 -3 -606 -17 -1313
-31 -707 -14 -1325 -26 -1375 -28 -49 -1 533 -14 1295 -29 929 -19 1397 -32
1421 -39 l36 -12 72 -238 72 -238 -27 -36 c-15 -20 -33 -39 -41 -44 -11 -6 -5
-18 27 -57 l40 -49 -100 -3 -101 -3 -31 -34 -30 -35 -418 0 c-395 0 -420 1
-461 20 -41 18 -67 20 -356 20 l-313 0 0 -34 0 -34 -142 -6 c-79 -3 -1092 -19
-2253 -36 -1160 -17 -2130 -31 -2155 -32 -76 -1 4081 -67 4322 -67 l227 -1 3
-37 3 -38 308 -3 c291 -2 309 -1 347 18 37 19 58 20 465 20 l426 0 30 -35 31
-35 115 0 c100 0 118 3 140 20 22 17 41 20 127 20 85 0 105 -4 126 -20 24 -19
44 -20 458 -20 l432 0 594 -310 594 -310 2186 0 2186 0 0 -74 c0 -40 3 -101 6
-135 l7 -61 -1892 0 -1891 0 0 -22 c0 -19 26 -36 163 -106 l162 -82 415 0 415
0 828 -710 829 -710 804 0 804 0 0 1330 0 1330 -105 0 -105 0 0 50 c0 37 -6
59 -22 80 -21 28 -26 30 -94 30 -51 0 -75 -4 -84 -15 -16 -19 -77 -19 -110 0
-21 12 -344 14 -2277 15 l-2253 0 0 30 0 30 -420 0 c-231 0 -420 3 -420 6 0 3
-58 376 -129 827 -72 452 -133 856 -136 897 -3 41 -8 103 -11 137 l-6 63 299
0 298 0 375 80 c206 44 384 84 395 89 14 6 34 43 63 115 l42 107 0 595 0 594
1596 0 1596 0 96 57 c81 49 118 64 236 95 78 20 142 42 144 48 2 6 45 10 112
10 l108 0 11 -29 c10 -23 27 -34 89 -57 71 -27 80 -34 116 -87 l40 -57 278 0
278 0 0 60 0 59 210 3 210 3 0 -45 c1 -36 7 -52 30 -77 l30 -33 124 0 c143 0
134 -7 135 104 0 38 3 71 6 75 4 3 43 13 88 21 l82 15 36 130 36 129 -29 106
c-16 58 -31 117 -34 131 -6 25 -12 28 -85 40 -44 7 -84 18 -90 25 -6 7 -11 48
-12 91 l-2 78 -129 3 -129 3 -28 -33 c-21 -25 -28 -44 -29 -75 l0 -43 -210 0
-210 0 0 65 0 65 -274 0 -275 0 -45 -63 c-43 -60 -50 -65 -117 -88 -60 -20
-74 -29 -87 -56 l-16 -33 -107 0 c-81 0 -108 3 -112 14 -3 8 -61 27 -139 46
-114 28 -147 41 -234 91 l-100 59 -1597 0 -1597 0 0 595 0 596 -42 109 c-24
61 -50 112 -58 115 -8 2 -183 41 -388 85 l-372 80 -305 0 c-168 0 -305 4 -305
8 0 98 46 431 151 1095 71 450 129 820 129 823 0 2 189 4 420 4 l420 0 0 30 0
30 1148 1 c1445 2 3361 15 3428 24 39 5 53 3 63 -9 10 -12 32 -16 85 -16 68 0
73 2 94 30 16 21 22 43 22 80 l0 50 105 0 105 0 0 1330 0 1330 -807 -1 -808 0
-820 -704z m-12006 -5227 l65 -43 -404 -3 c-221 -1 -405 0 -407 2 -3 3 1 20 8
40 10 28 19 36 43 39 17 2 166 5 330 5 l300 2 65 -42z m-1616 -3 c9 -20 17
-38 17 -40 0 -3 -47 -5 -104 -5 -95 0 -104 2 -109 20 -5 19 -14 20 -139 21
-73 0 -170 6 -214 12 -66 10 -85 10 -101 0 -17 -11 -33 -10 -99 6 l-79 19 406
1 405 1 17 -35z m-3885 -210 l22 -35 -230 0 c-198 0 -230 2 -230 15 0 10 10
15 30 15 23 0 30 4 30 20 0 19 7 20 178 20 l177 0 23 -35z m2370 2 l22 -32
-847 -3 c-467 -1 -853 0 -859 2 -6 2 -21 18 -33 35 l-22 31 858 0 858 0 23
-33z m-2370 -1339 l-26 -33 -176 -3 c-171 -2 -176 -2 -176 18 0 16 -7 20 -30
20 -20 0 -30 5 -30 15 0 13 32 15 231 15 l232 0 -25 -32z m2373 4 l-20 -29
-857 -6 c-472 -4 -859 -6 -860 -4 -2 2 7 17 19 35 l22 32 858 0 858 0 -20 -28z
m1529 -172 c0 -5 -8 -25 -17 -45 l-17 -35 -405 1 c-368 1 -402 2 -361 15 43
14 63 16 170 13 33 -1 317 13 413 20 4 1 7 10 7 21 0 19 7 20 105 20 61 0 105
-4 105 -10z m1670 6 c0 -1 -31 -24 -70 -50 l-70 -46 -88 0 c-49 0 -197 3 -329
7 l-239 6 -16 44 -16 43 414 0 c228 0 414 -2 414 -4z"/>
</g>
</svg>
