<?xml version="1.0" standalone="no"?>
<!DOCTYPE svg PUBLIC "-//W3C//DTD SVG 20010904//EN"
 "http://www.w3.org/TR/2001/REC-SVG-20010904/DTD/svg10.dtd">
<svg version="1.0" xmlns="http://www.w3.org/2000/svg"
   viewBox="0 0 2798.000000 4562.000000"
 preserveAspectRatio="xMidYMid meet">
<metadata>
Created by potrace 1.16, written by Peter Selinger 2001-2019
</metadata>
<g transform="translate(0.000000,4562.000000) scale(0.100000,-0.100000)"
fill="#000000" stroke="none">
<path d="M13781 45580 c-21 -37 -37 -214 -286 -3047 l-264 -3008 -147 -2280
c-146 -2276 -146 -2280 -140 -2560 5 -239 4 -275 -8 -245 -13 35 -14 35 -72
35 -32 -1 -138 -7 -234 -14 l-175 -14 -52 -62 -52 -62 -6 -119 c-3 -66 -8
-133 -11 -150 l-4 -30 -558 -37 c-525 -35 -580 -41 -962 -97 l-405 -59 -485
-148 -484 -148 -331 -181 -330 -181 -382 -449 -381 -449 -271 -531 -271 -532
-304 -821 -305 -821 -326 -1142 -326 -1141 -224 -447 -225 -447 -262 -205
c-145 -113 -272 -209 -283 -215 -11 -6 -195 -67 -410 -136 l-390 -126 -1875
-76 c-1031 -41 -1945 -78 -2030 -81 -85 -3 -173 -7 -196 -10 l-41 -5 -2 -1142
-2 -1142 -78 -78 c-76 -75 -80 -81 -135 -215 -31 -75 -56 -144 -56 -153 0 -8
25 -76 55 -150 54 -128 59 -137 135 -214 l79 -80 2 -1142 2 -1141 111 -6 c61
-4 392 -18 736 -31 344 -14 1228 -50 1965 -80 l1340 -55 399 -130 c220 -71
406 -136 415 -143 9 -8 130 -103 268 -211 l253 -197 220 -437 221 -437 328
-1145 328 -1146 307 -829 307 -829 269 -525 268 -526 383 -453 383 -452 328
-180 329 -180 487 -149 487 -149 420 -61 c394 -57 453 -63 960 -97 297 -19
542 -37 544 -40 3 -2 8 -64 13 -137 4 -72 10 -141 13 -152 3 -11 27 -45 55
-75 l49 -54 227 -18 c125 -10 230 -15 233 -12 4 3 11 20 18 37 10 26 11 -22 7
-248 -6 -279 -5 -286 141 -2560 l146 -2280 264 -3007 c252 -2865 265 -3009
287 -3048 l23 -40 385 0 386 0 448 3012 447 3013 280 2230 280 2230 24 450
c14 248 24 464 25 481 l0 30 89 12 c129 17 123 19 171 -51 l44 -63 157 36 158
36 61 84 c64 91 66 94 49 137 -11 27 -52 283 -47 289 2 1 110 47 241 102 190
80 321 145 658 329 l420 228 362 296 362 296 460 497 460 498 549 847 549 846
934 1635 934 1635 326 326 325 326 312 141 c435 196 577 245 2191 748 385 120
701 219 703 220 2 1 -5 34 -14 74 -9 39 -12 75 -8 80 19 17 223 88 273 95 l53
7 -3 121 -4 120 224 142 223 142 59 114 c51 96 63 131 80 225 l21 111 161 79
160 79 82 125 c72 110 84 136 102 213 19 84 19 87 1 87 -16 0 -18 9 -18 100 0
82 3 100 15 100 19 0 19 14 -1 103 -13 59 -31 95 -98 199 l-81 127 -161 78
-161 78 -22 115 c-19 96 -32 133 -79 225 l-57 110 -225 142 -225 142 0 123 0
123 -55 6 c-64 6 -270 85 -270 102 0 7 7 41 15 76 9 35 14 65 13 67 -2 1 -401
127 -888 279 -1457 455 -1587 500 -2010 691 l-295 134 -327 321 -328 321 -930
1629 -930 1629 -554 856 -554 856 -465 504 -466 504 -358 293 -359 293 -434
235 c-352 191 -478 254 -660 329 -124 52 -227 95 -228 96 -6 4 36 253 49 299
12 40 12 41 -51 126 l-62 87 -147 32 c-80 18 -151 35 -157 37 -6 2 -30 -25
-54 -62 -23 -36 -47 -65 -53 -65 -28 0 -193 24 -199 29 -4 3 -17 204 -29 446
l-21 440 -284 2270 -284 2270 -445 2995 c-245 1647 -445 3000 -445 3007 0 10
-78 13 -388 13 l-388 0 -23 -40z m-2081 -14590 c305 -11 565 -20 578 -20 21 0
22 -4 22 -80 0 -75 2 -84 36 -134 l35 -53 107 -17 c59 -10 144 -20 189 -23
l81 -6 21 42 c25 48 18 47 217 26 77 -8 542 -58 1034 -110 504 -54 1063 -119
1280 -150 212 -30 388 -55 391 -55 4 0 9 -18 13 -40 8 -52 24 -58 170 -68 97
-7 116 -6 154 10 37 17 47 29 82 98 22 44 40 93 40 110 0 16 3 30 6 30 3 0
196 -98 430 -217 l425 -218 231 -249 232 -249 353 -729 354 -728 289 -877
c159 -483 288 -879 286 -880 -2 -2 -228 -10 -502 -18 -570 -16 -402 -1 -2299
-206 l-1310 -141 -53 -40 -53 -40 -397 -39 -396 -38 -26 24 c-14 14 -38 25
-52 25 -15 0 -608 -67 -1320 -150 -1133 -131 -1925 -231 -1949 -246 -4 -2 -15
-24 -24 -48 l-17 -43 -226 -37 c-180 -29 -1175 -146 -1241 -146 -15 0 -14 55
0 582 16 565 19 619 108 1763 l92 1180 141 640 141 640 90 238 91 239 163 124
c89 68 170 127 180 131 10 4 254 53 543 109 411 80 544 102 615 103 50 0 340
-8 645 -19z m15322 -7094 c114 -76 141 -99 177 -151 32 -47 42 -70 39 -94 l-3
-31 -140 111 c-78 62 -168 123 -202 139 l-63 29 0 61 0 62 29 -19 c16 -10 89
-58 163 -107z m218 -1927 c0 -19 -15 -52 -41 -90 -35 -51 -62 -74 -205 -169
l-164 -110 0 63 0 63 63 27 c39 17 112 68 197 136 74 60 138 110 143 110 4 1
7 -13 7 -30z m-17815 -1664 c400 -43 918 -115 931 -128 2 -1 11 -23 22 -47
l19 -45 339 -48 c187 -26 925 -115 1641 -198 l1302 -151 35 27 35 27 393 -38
393 -38 54 -41 54 -40 1176 -127 c1939 -210 1911 -207 2458 -221 259 -7 474
-15 477 -18 3 -2 -127 -403 -288 -889 l-293 -885 -348 -717 -348 -717 -228
-248 -228 -248 -433 -222 -433 -222 -6 42 c-3 23 -23 73 -44 111 -51 92 -84
107 -210 100 -49 -3 -111 -10 -137 -16 -45 -9 -47 -11 -53 -52 l-7 -42 -406
-57 c-357 -50 -795 -100 -2141 -242 -183 -19 -338 -35 -345 -35 -6 0 -21 18
-33 39 -29 50 -53 54 -213 30 -204 -30 -187 -24 -225 -84 -33 -50 -35 -60 -35
-135 l0 -80 -57 0 c-32 0 -323 -9 -648 -21 l-590 -20 -555 106 -555 107 -171
129 -170 129 -92 243 -92 242 -136 610 -136 610 -94 1185 c-99 1251 -94 1162
-126 2302 l-3 97 25 -5 c14 -2 250 -29 525 -59z"/>
</g>
</svg>
