<?xml version="1.0" standalone="no"?>
<!DOCTYPE svg PUBLIC "-//W3C//DTD SVG 20010904//EN"
 "http://www.w3.org/TR/2001/REC-SVG-20010904/DTD/svg10.dtd">
<svg version="1.0" xmlns="http://www.w3.org/2000/svg"
   viewBox="0 0 3348.000000 4827.000000"
 preserveAspectRatio="xMidYMid meet">
<metadata>
Created by potrace 1.16, written by Peter Selinger 2001-2019
</metadata>
<g transform="translate(0.000000,4827.000000) scale(0.100000,-0.100000)"
fill="#000000" stroke="none">
<path d="M6544 48235 c-17 -33 -22 -35 -68 -35 -63 0 -111 -33 -120 -85 l-7
-35 -143 0 -143 0 -33 75 -33 75 -123 0 -124 0 0 -29 c0 -23 -7 -34 -30 -48
l-30 -17 0 -208 0 -207 30 -16 c25 -13 30 -22 30 -50 l0 -35 75 0 c73 0 75 -1
75 -24 0 -14 151 -2847 335 -6296 184 -3449 335 -6275 335 -6280 0 -7 498 -10
1375 -10 l1375 0 0 -900 0 -900 -397 0 -398 0 -330 328 -330 329 -2075 -393
c-1141 -216 -2150 -407 -2242 -424 l-168 -32 0 -1533 0 -1532 58 -12 c407 -78
4408 -831 4420 -831 9 0 163 146 342 325 l325 325 422 0 423 0 0 -420 0 -421
-202 -225 c-223 -248 -216 -235 -217 -376 l-1 -68 -515 0 -515 0 0 -93 c0 -52
-3 -176 -7 -275 l-6 -182 -1234 0 -1233 0 0 -972 c0 -535 -3 -997 -6 -1025
l-7 -53 -1662 0 -1662 0 -223 -97 -222 -98 -534 20 -534 20 -118 -32 c-64 -17
-197 -52 -295 -78 l-177 -48 2 -1200 3 -1201 290 -78 290 -78 535 20 535 20
230 -100 229 -100 1656 0 1657 0 7 -52 c3 -29 6 -491 6 -1025 l0 -973 1233 0
1234 0 6 -173 c4 -94 7 -218 7 -274 l0 -103 515 0 515 0 0 -59 c0 -143 -8
-129 216 -379 l204 -227 0 -417 0 -418 -428 0 -427 0 -320 320 c-210 210 -327
320 -340 320 -11 0 -1021 -189 -2245 -419 l-2225 -418 0 -1534 0 -1534 2244
-423 2244 -424 326 326 326 326 398 0 397 0 0 -900 0 -900 -1375 0 c-756 0
-1375 -3 -1375 -7 0 -5 -151 -2829 -335 -6278 -184 -3448 -335 -6282 -335
-6297 l0 -28 -75 0 -75 0 0 -32 c0 -26 -6 -37 -30 -50 l-30 -17 0 -206 0 -206
30 -17 c24 -13 30 -24 30 -49 l0 -33 124 0 124 0 33 80 33 80 142 0 142 0 7
-40 c9 -54 59 -90 126 -90 43 0 49 -3 68 -35 l20 -35 1710 0 1710 0 58 90 58
90 1055 0 1056 0 69 30 70 29 979 1 979 0 33 -38 33 -37 38 21 c32 18 39 28
41 58 3 32 6 36 33 36 18 0 29 5 29 13 0 16 178 20 1955 39 l1150 13 -1380 17
c-759 9 -1458 17 -1552 17 -147 1 -173 3 -173 16 0 10 -10 15 -29 15 -27 0
-30 4 -33 36 -2 29 -10 39 -42 57 l-38 22 -33 -38 -32 -37 -979 0 -979 1 -70
29 -69 30 -699 0 c-661 0 -699 1 -695 17 3 10 999 2871 2213 6358 1215 3487
2210 6348 2213 6357 4 17 -59 18 -1232 18 l-1236 0 0 900 0 900 517 0 518 0
647 216 648 216 0 1298 0 1298 -648 216 -647 216 -533 0 -532 0 0 714 0 714
-58 36 -57 35 5158 1 5159 0 767 538 767 538 764 173 c690 156 1000 234 3170
796 1323 343 2549 660 2725 705 273 70 327 87 365 114 38 27 86 43 295 96 138
35 255 67 260 72 6 5 28 59 50 121 l40 112 110 59 110 59 273 48 c208 37 279
53 302 69 22 16 418 476 517 601 11 13 -27 62 -237 315 -138 164 -265 309
-283 320 -25 17 -95 32 -292 65 l-260 42 -120 62 -119 63 -42 118 -42 119
-265 70 c-193 51 -276 77 -306 98 -48 32 125 -14 -3086 816 -2042 527 -2512
645 -3150 790 -412 95 -761 176 -773 181 -13 6 -365 249 -782 540 l-758 530
-5164 0 -5163 0 62 38 63 37 0 718 0 717 533 -1 532 0 647 213 648 213 0 1301
0 1300 -643 212 -643 212 -522 0 -522 0 0 900 0 900 1238 2 1237 3 -2217 6365
c-1219 3501 -2217 6371 -2218 6378 0 9 147 12 704 12 l704 0 70 30 71 30 968
0 969 0 39 -40 38 -39 39 21 c34 19 38 26 38 60 0 35 2 38 29 38 16 0 31 6 33
12 4 10 305 16 1354 29 742 9 1347 17 1344 19 -3 1 -610 10 -1349 19 -1055 13
-1345 19 -1349 29 -2 6 -17 12 -33 12 -26 0 -29 3 -29 35 0 29 -6 39 -37 59
l-38 24 -40 -39 -41 -39 -969 0 -970 1 -70 29 -69 30 -1058 0 -1058 0 -58 89
-57 90 -1716 0 -1716 1 -19 -35z"/>
</g>
</svg>
