<?xml version="1.0" standalone="no"?>
<!DOCTYPE svg PUBLIC "-//W3C//DTD SVG 20010904//EN"
 "http://www.w3.org/TR/2001/REC-SVG-20010904/DTD/svg10.dtd">
<svg version="1.0" xmlns="http://www.w3.org/2000/svg"
   viewBox="0 0 4298.000000 2592.000000"
 preserveAspectRatio="xMidYMid meet">
<metadata>
Created by potrace 1.16, written by Peter Selinger 2001-2019
</metadata>
<g transform="translate(0.000000,2592.000000) scale(0.100000,-0.100000)"
fill="#000000" stroke="none">
<path d="M16366 25343 c-37 -318 -70 -592 -73 -608 -4 -26 -16 -37 -75 -70
-57 -32 -82 -55 -129 -117 l-59 -77 -40 -262 c-22 -144 -40 -263 -40 -265 0
-2 -63 -4 -139 -4 -136 0 -139 -1 -144 -22 -3 -13 -51 -345 -106 -738 -100
-704 -117 -819 -147 -952 l-16 -68 -279 0 c-259 0 -279 -1 -279 -17 0 -22
-197 -1952 -205 -2010 -6 -41 -10 -45 -123 -123 l-117 -79 -1000 -1 -999 0
-36 -34 -35 -33 -2810 -44 c-1974 -31 -2750 -46 -2610 -51 110 -4 1375 -26
2810 -49 l2610 -42 35 -33 36 -34 1003 0 1003 0 -6 -37 c-21 -135 -96 -885
-96 -960 0 -51 -4 -93 -9 -93 -5 0 -90 20 -189 44 l-181 44 -861 -92 c-473
-51 -864 -97 -869 -102 -4 -5 -56 -77 -115 -161 l-106 -152 0 -530 0 -530 113
-160 c78 -112 118 -160 132 -161 11 0 400 -43 865 -94 l845 -92 377 94 c293
73 378 98 378 110 0 8 5 44 11 79 l11 63 94 0 94 0 0 -92 0 -93 75 -96 c55
-72 81 -98 102 -101 15 -3 244 -34 508 -69 457 -61 475 -64 379 -67 l-101 -3
-22 -53 -22 -53 -642 -7 c-353 -3 -740 -9 -859 -12 l-218 -7 0 43 0 43 -57 -6
c-32 -3 -295 -25 -585 -48 l-527 -43 -30 -73 -30 -73 26 -77 c14 -43 29 -82
34 -87 5 -6 269 -35 586 -66 l578 -55 3 48 3 48 427 -7 c235 -3 611 -9 837
-13 l409 -6 -314 -276 c-173 -151 -331 -290 -351 -307 -36 -32 -40 -32 -225
-52 -150 -16 -435 -68 -1369 -251 l-1180 -232 -852 -318 -852 -319 -279 -183
-278 -182 -170 -190 -170 -190 -56 -198 -57 -198 57 -197 57 -198 169 -189
170 -190 274 -180 275 -180 466 -175 466 -176 3 -92 3 -92 -299 0 -298 0 -199
-80 c-110 -44 -203 -80 -207 -80 -4 0 -8 23 -8 50 l0 50 -1772 -2 -1771 -3
-21 -75 -22 -75 -3472 -86 c-1909 -47 -3474 -88 -3476 -90 -3 -2 1483 -42
3302 -88 1819 -45 3384 -85 3478 -88 l171 -6 19 -74 18 -73 1772 0 1773 0 3
49 3 48 200 -78 200 -78 1292 0 1291 -1 103 199 c57 109 108 197 113 195 71
-22 982 -188 1125 -204 101 -11 189 -24 195 -28 7 -4 167 -142 356 -307 l343
-300 -439 -6 c-241 -4 -618 -10 -836 -13 l-398 -7 0 50 c0 50 -1 50 -27 46
-16 -3 -278 -30 -583 -60 -305 -31 -556 -57 -557 -59 -2 -2 -16 -41 -32 -87
l-28 -85 26 -66 c14 -37 29 -69 32 -72 4 -4 1114 -96 1160 -96 5 0 9 19 9 41
l0 42 258 -7 c141 -3 528 -9 859 -12 l602 -7 23 -53 23 -53 100 -3 c95 -3 76
-6 -380 -66 -264 -35 -493 -66 -508 -69 -21 -4 -47 -30 -103 -102 l-74 -96 0
-92 0 -93 -94 0 -94 0 -11 63 c-6 35 -11 71 -11 79 0 14 -266 84 -695 184
l-70 16 -860 -92 c-548 -58 -863 -96 -867 -103 -4 -7 -55 -79 -112 -162 l-106
-150 0 -530 0 -530 110 -155 c83 -116 117 -157 138 -162 15 -4 405 -49 866
-99 l839 -91 183 46 c101 25 186 46 189 46 3 0 5 -42 5 -93 0 -74 72 -800 95
-959 l5 -38 -1002 0 -1002 0 -36 -33 -35 -34 -2635 -42 c-1449 -23 -2707 -45
-2795 -49 -105 -5 807 -22 2635 -51 l2795 -44 35 -33 36 -34 999 0 1000 0 117
-80 c107 -74 117 -83 122 -118 8 -47 206 -1996 206 -2023 0 -18 9 -19 280 -19
l279 0 10 -37 c24 -95 58 -309 152 -973 55 -393 103 -725 106 -738 5 -22 8
-22 144 -22 76 0 139 -2 139 -4 0 -2 18 -121 40 -266 l40 -262 55 -72 c39 -51
75 -84 127 -117 47 -30 74 -54 78 -70 4 -13 38 -286 76 -607 l69 -583 2065 4
c1136 3 2083 8 2106 12 l41 7 67 326 c58 283 67 338 64 412 l-3 85 -180 12
c-99 6 -181 12 -181 12 -1 1 1 64 4 141 l5 140 -42 0 c-22 0 -41 3 -41 8 0 10
392 2987 394 2989 0 1 99 15 219 31 120 16 220 31 222 33 2 2 14 78 27 169
l23 164 139 43 c76 23 140 44 142 46 2 2 55 243 117 535 63 293 117 535 120
538 3 4 293 15 644 26 l638 19 74 35 c40 19 76 33 78 30 4 -4 23 -389 19 -392
-5 -6 -833 -54 -921 -54 -217 0 -455 -13 -455 -24 0 -7 48 -83 108 -170 l107
-159 203 -88 203 -87 122 -114 c67 -63 187 -175 266 -248 l143 -133 437 36
c300 25 800 80 1606 177 l1170 140 1050 244 c578 134 1063 247 1078 251 l28 7
-6 82 c-15 205 -50 514 -58 522 -1 2 -344 -14 -762 -35 -418 -21 -762 -37
-764 -35 -4 3 18 366 23 371 1 1 81 -15 177 -37 l174 -39 1224 195 1224 195
1219 264 1220 264 1086 331 1086 331 916 380 c503 209 947 398 985 419 39 21
380 218 758 438 l689 399 547 469 547 469 200 295 c109 162 260 385 334 495
l136 201 34 155 34 154 315 -17 c174 -9 348 -18 388 -21 l71 -4 6 31 c4 16 11
46 16 67 l10 36 488 7 c268 3 598 9 735 12 l247 7 0 -47 c0 -42 2 -46 24 -46
14 0 300 22 638 50 337 27 618 50 623 50 6 0 21 38 34 84 l24 83 -23 67 c-12
37 -27 69 -34 71 -8 3 -1247 85 -1278 85 -5 0 -8 -16 -8 -35 l0 -35 -657 6
c-362 4 -694 9 -738 13 l-79 6 -16 50 -15 50 -318 -14 c-175 -7 -321 -11 -323
-8 -5 4 4 48 22 109 5 17 -144 18 -3000 20 l-3005 3 1047 169 1047 169 350
113 349 113 115 116 116 115 -115 114 -115 114 -350 115 -350 115 -1027 163
-1027 164 2985 3 2984 2 -6 28 c-3 15 -10 44 -16 66 -5 21 -7 41 -4 44 3 3
124 0 269 -6 144 -7 287 -12 318 -12 l55 0 15 48 15 47 54 6 c30 4 362 10 738
13 l682 7 0 -37 0 -37 73 6 c39 4 329 23 642 43 406 26 573 40 580 49 6 6 19
37 29 68 l19 57 -25 82 -24 83 -570 46 c-313 26 -604 49 -646 53 l-78 6 0 -46
0 -47 -207 7 c-115 3 -445 9 -735 12 l-528 7 -10 36 c-5 21 -13 52 -16 70 -6
31 -9 32 -43 27 -55 -8 -730 -40 -735 -35 -2 2 -20 72 -39 155 l-34 150 -334
494 -333 495 -547 469 -546 468 -748 434 -747 434 -928 385 -928 385 -1089
329 -1088 330 -1218 265 -1219 266 -1221 195 -1222 194 -175 -39 c-96 -21
-176 -38 -177 -36 -4 4 -25 367 -22 370 2 2 346 -14 764 -35 418 -20 761 -36
762 -35 9 8 44 321 58 518 6 85 5 88 -17 93 -13 3 -498 116 -1078 251 l-1055
245 -1165 140 c-827 99 -1293 150 -1607 176 l-442 36 -143 -134 c-78 -74 -197
-186 -264 -249 l-122 -115 -205 -89 -205 -89 -106 -156 c-58 -86 -106 -161
-106 -167 0 -8 78 -14 268 -18 213 -5 1103 -52 1108 -59 4 -5 -15 -389 -19
-393 -2 -3 -38 11 -78 30 l-74 35 -638 20 c-351 10 -641 22 -644 25 -4 3 -57
245 -120 538 -62 292 -115 533 -117 535 -2 2 -66 23 -142 47 l-139 43 -23 164
c-13 90 -25 166 -27 168 -3 2 -102 16 -221 32 -118 15 -217 29 -219 31 -1 1
-89 658 -194 1458 -105 800 -194 1472 -197 1493 l-6 37 43 0 42 0 -5 145 -6
145 27 1 c14 0 96 6 181 12 l155 12 3 85 c3 73 -6 130 -64 412 l-68 326 -60 7
c-34 4 -981 9 -2106 11 l-2045 5 -69 -578z m2414 -6452 c0 -5 36 -53 81 -107
65 -80 99 -111 177 -162 53 -36 101 -68 107 -73 5 -5 -238 -9 -568 -9 l-576 0
-3 108 -3 107 55 72 55 72 338 0 c188 1 337 -3 337 -8z m1730 -461 l0 -100
-110 0 -110 0 0 64 0 64 103 35 c56 20 105 36 110 36 4 1 7 -44 7 -99z m-3701
-1824 c-18 -15 -269 -186 -273 -186 -3 0 -6 43 -6 95 l0 95 142 0 c78 0 139
-2 137 -4z m-686 -253 c-7 -2 -21 -2 -30 0 -10 3 -4 5 12 5 17 0 24 -2 18 -5z
m-5 -6790 c-10 -2 -26 -2 -35 0 -10 3 -2 5 17 5 19 0 27 -2 18 -5z m555 -154
c73 -51 134 -94 136 -95 2 -2 -59 -4 -137 -4 l-142 0 0 95 c0 52 3 95 6 95 3
0 65 -41 137 -91z m3837 -1920 c0 -92 -2 -101 -17 -94 -10 3 -60 20 -110 36
l-93 30 0 64 0 65 110 0 110 0 0 -101z m-1365 -118 c-6 -5 -54 -37 -107 -73
-78 -51 -112 -83 -177 -161 -45 -54 -81 -102 -81 -108 0 -5 -133 -9 -337 -8
l-338 0 -52 69 -53 69 0 110 0 111 577 0 c329 0 573 -4 568 -9z"/>
</g>
</svg>
