<?xml version="1.0" standalone="no"?>
<!DOCTYPE svg PUBLIC "-//W3C//DTD SVG 20010904//EN"
 "http://www.w3.org/TR/2001/REC-SVG-20010904/DTD/svg10.dtd">
<svg version="1.0" xmlns="http://www.w3.org/2000/svg"
   viewBox="0 0 3839.000000 3779.000000"
 preserveAspectRatio="xMidYMid meet">
<metadata>
Created by potrace 1.16, written by Peter Selinger 2001-2019
</metadata>
<g transform="translate(0.000000,3779.000000) scale(0.100000,-0.100000)"
fill="#000000" stroke="none">
<path d="M17315 37613 c-47 -98 -280 -583 -519 -1078 l-433 -900 -1029 3
-1029 4 -283 -421 -283 -421 -1944 0 c-1285 0 -1946 -3 -1950 -10 -4 -7 -373
-10 -1075 -10 l-1068 0 -11 -32 c-5 -18 -157 -517 -336 -1108 -179 -591 -335
-1103 -346 -1137 l-21 -63 -669 0 -669 0 0 -650 0 -650 -2556 0 -2556 0 -269
-137 -269 -138 2 -83 3 -83 770 -549 770 -549 673 -1 672 0 0 -70 0 -70 -286
0 -287 0 -148 -82 -149 -83 2 -84 3 -85 430 -304 430 -304 0 -116 0 -116 -255
-56 -255 -56 -3 -1441 -2 -1440 817 -181 818 -182 1411 0 1412 0 82 -100 81
-100 1093 0 1093 0 191 100 190 100 746 0 746 0 0 -181 0 -181 171 -332 c94
-182 179 -337 188 -345 9 -7 276 -111 593 -230 318 -119 577 -220 576 -226 0
-5 -220 -67 -487 -137 -267 -70 -503 -132 -523 -138 l-38 -11 0 -624 c0 -344
-1 -625 -3 -625 -1 0 -1764 -72 -3916 -160 -2152 -88 -3915 -160 -3917 -160
-2 0 -4 -317 -4 -705 l0 -705 -209 0 -208 0 -299 -128 -299 -128 0 -1024 0
-1025 305 -127 305 -127 203 -1 202 0 0 -705 c0 -388 2 -705 4 -705 2 0 1765
-72 3916 -160 2152 -88 3914 -160 3916 -160 2 0 4 -281 4 -625 l0 -624 48 -14
c26 -8 262 -70 524 -138 263 -68 477 -128 475 -132 -1 -5 -263 -108 -582 -228
-319 -121 -585 -226 -591 -232 -6 -7 -88 -160 -183 -340 l-171 -328 0 -184 0
-185 -743 0 -743 0 -197 105 -196 105 -1089 0 -1089 0 -82 -105 -82 -105
-1417 0 -1417 -1 -810 -177 -810 -177 0 -1445 0 -1444 257 -56 258 -55 0 -112
0 -113 -433 -308 -432 -308 -3 -80 -3 -81 149 -86 149 -87 287 0 286 0 0 -70
0 -70 -672 0 -673 -1 -770 -549 -770 -549 0 -83 0 -83 260 -132 260 -132 2563
-1 2562 0 0 -660 0 -660 673 0 672 0 330 -1088 c181 -598 340 -1122 353 -1164
l23 -78 1069 0 c702 0 1071 -3 1075 -10 4 -7 665 -10 1950 -10 l1944 0 283
-421 283 -421 1030 7 1030 7 516 -1074 515 -1073 1091 -3 1092 -2 16 72 c8 40
125 592 260 1227 134 634 247 1157 252 1161 4 4 1511 303 3348 665 1837 362
3347 660 3356 662 9 3 25 26 36 52 l20 48 539 7 c296 3 623 9 727 13 l187 6 0
147 0 147 -277 7 c-153 3 -448 9 -655 12 -208 4 -378 10 -378 13 0 3 85 215
189 471 l189 465 111 3 111 3 0 134 0 135 -27 0 c-16 0 -1916 70 -4223 155
-2307 85 -4223 155 -4257 155 l-63 0 0 1100 0 1100 -1866 0 -1865 0 -554 -315
c-461 -263 -560 -315 -592 -315 l-38 0 -69 339 -69 340 -46 5 c-25 3 -154 13
-286 21 -132 9 -255 18 -272 21 l-33 5 0 152 -1 152 -284 420 -284 420 -1 88
0 87 1019 0 1019 0 7 40 7 40 608 0 608 0 128 135 127 135 1046 -2 1045 -3
175 -647 175 -648 73 0 73 0 0 729 0 729 133 6 c72 3 2549 28 5502 56 l5370
51 95 44 95 44 1460 7 1460 6 68 -56 69 -56 76 0 c42 0 1213 38 2602 85 1389
47 2535 85 2548 85 22 0 22 1 22 165 l0 165 -33 0 c-17 0 -1170 38 -2560 85
-1390 47 -2556 85 -2590 85 -63 0 -64 0 -135 -61 l-72 -61 -1457 12 -1458 11
-95 44 -95 43 -5440 52 c-2992 28 -5468 53 -5502 56 l-63 6 0 729 0 729 -73 0
-72 0 -176 -652 -176 -653 -1045 -3 -1045 -2 -129 140 -129 140 -441 2 -441 3
137 718 c75 396 142 722 148 726 6 3 280 114 608 246 l597 240 45 68 c25 37
47 67 49 67 2 0 57 -13 121 -29 l117 -29 890 -28 890 -27 5387 1062 5387 1061
801 427 800 427 0 207 c0 206 0 207 -22 212 -28 7 -673 127 -682 127 -3 0 -7
133 -8 296 l-3 297 -445 206 -445 207 -3 1215 -2 1216 447 205 448 205 3 297
c1 163 5 296 8 296 9 0 654 120 682 127 22 5 22 6 22 212 l0 207 -802 431
-803 431 -5390 1061 -5391 1061 -879 -30 -880 -30 -124 -31 c-101 -26 -125
-29 -132 -18 -5 8 -25 40 -45 71 l-35 57 -132 52 c-441 173 -1080 429 -1085
434 -3 3 -67 328 -142 723 l-136 717 441 3 440 2 129 140 129 140 1045 -2
1045 -3 176 -652 176 -653 72 0 73 0 0 733 0 734 388 6 c213 4 2689 27 5502
53 l5115 46 95 43 95 44 1458 11 1458 12 55 -49 c30 -26 66 -54 78 -62 20 -13
339 -4 2547 72 1388 48 2566 90 2617 93 l92 6 0 159 c0 145 -2 159 -17 159
-10 0 -1189 41 -2621 90 l-2604 91 -55 -48 c-30 -26 -64 -54 -75 -62 -17 -13
-211 -13 -1483 -3 l-1463 12 -84 39 -83 38 -5385 52 c-2962 28 -5440 54 -5507
57 l-123 6 0 729 0 729 -74 0 -73 0 -72 -267 c-40 -148 -118 -439 -175 -648
l-102 -380 -1046 -3 -1045 -2 -127 135 -128 135 -608 0 -608 0 -7 40 -7 40
-1019 0 -1019 0 0 88 1 87 284 420 284 420 1 156 0 156 63 6 c34 3 177 14 318
23 l256 17 69 339 69 338 38 0 c32 0 131 -52 592 -315 l554 -315 1865 0 1866
0 0 1099 0 1099 103 6 c90 6 8389 306 8445 306 22 0 22 1 22 140 l0 139 -112
3 -112 3 -189 463 c-104 255 -186 467 -182 470 4 4 298 12 653 18 356 6 648
12 650 13 1 0 2 66 2 145 l0 143 -187 7 c-104 3 -399 8 -658 11 -258 3 -502 8
-542 11 l-72 6 -16 43 c-10 24 -24 45 -34 47 -9 3 -1519 301 -3356 663 -1837
362 -3344 661 -3348 665 -6 5 -527 2444 -527 2467 0 1 -490 3 -1090 3 l-1090
0 -85 -177z m-8010 -3272 c-11 -10 -167 -140 -347 -289 l-328 -272 0 -82 1
-83 1031 -585 1031 -585 -1088 -3 c-599 -1 -1090 0 -1092 2 -3 2 -7 434 -10
960 l-6 956 414 0 c403 0 413 0 394 -19z m2443 -2496 c337 -191 610 -350 608
-353 -3 -2 -298 -1 -655 3 l-651 8 0 369 0 370 43 -25 c23 -13 318 -181 655
-372z m861 -2273 l20 -29 -25 -36 -25 -37 -764 0 -765 0 0 49 0 48 193 12
c105 7 197 14 202 16 6 2 265 4 577 4 l567 1 20 -28z m-7 -21294 l27 -42 -20
-28 -20 -28 -497 0 c-395 0 -552 4 -767 20 -148 11 -271 20 -272 20 -2 0 -3
23 -3 50 l0 50 763 0 762 0 27 -42z m-247 -1996 c-6 -5 -298 -172 -650 -372
-352 -199 -643 -365 -647 -367 -5 -2 -8 165 -8 371 l0 376 657 0 c361 0 653
-4 648 -8z m-2696 -1535 l-1024 -582 -3 -80 -3 -80 341 -284 c187 -156 343
-287 346 -292 3 -5 -169 -9 -405 -9 l-411 0 0 588 c0 323 3 752 7 955 l6 367
1086 0 1085 0 -1025 -583z"/>
</g>
</svg>
