<?xml version="1.0" standalone="no"?>
<!DOCTYPE svg PUBLIC "-//W3C//DTD SVG 20010904//EN"
 "http://www.w3.org/TR/2001/REC-SVG-20010904/DTD/svg10.dtd">
<svg version="1.0" xmlns="http://www.w3.org/2000/svg"
   viewBox="0 0 4527.000000 1476.000000"
 preserveAspectRatio="xMidYMid meet">
<metadata>
Created by potrace 1.16, written by Peter Selinger 2001-2019
</metadata>
<g transform="translate(0.000000,1476.000000) scale(0.100000,-0.100000)"
fill="#000000" stroke="none">
<path d="M17992 14692 l-72 -67 -200 -560 c-163 -457 -200 -570 -200 -613 0
-51 -1 -53 -31 -59 -30 -6 -30 -6 -25 -59 4 -30 8 -78 11 -106 l6 -53 -1358
-163 -1358 -163 -1115 -208 c-999 -187 -1351 -258 -3392 -690 l-2276 -481
-1854 -550 -1853 -550 -644 -282 -643 -282 -712 58 c-391 31 -724 60 -740 63
-29 5 -29 5 -23 -37 l5 -43 -41 6 c-23 3 -61 9 -84 13 l-43 7 0 -41 0 -41
-130 35 -130 34 -50 -25 -50 -25 0 -425 0 -425 49 -24 49 -25 66 18 c36 10 66
17 66 15 0 -1 -114 -80 -253 -175 -223 -152 -273 -193 -338 -273 -15 -19 -17
-19 -81 -2 l-64 18 -112 -56 -112 -56 0 -170 0 -169 -30 -35 c-24 -27 -51 -97
-130 -340 l-100 -307 100 -302 c77 -234 106 -310 129 -337 l30 -35 1 -170 0
-171 111 -58 111 -58 66 17 65 18 21 -24 c12 -14 35 -41 51 -60 17 -20 144
-114 283 -208 138 -95 252 -174 252 -175 0 -2 -30 5 -66 15 l-66 18 -49 -25
-49 -24 0 -425 0 -425 50 -25 50 -25 130 34 130 35 0 -41 0 -41 43 7 c23 4 60
10 83 13 l40 5 -4 -36 c-4 -32 -2 -36 19 -36 13 0 344 27 734 59 l710 59 650
-284 650 -284 1845 -545 1845 -546 2270 -480 c1950 -413 2429 -511 3400 -695
l1130 -213 1358 -163 1358 -163 -6 -52 c-3 -29 -8 -77 -11 -107 -5 -54 -5 -55
23 -58 27 -3 28 -6 33 -63 4 -44 59 -209 204 -615 l199 -555 75 -67 75 -68
841 0 841 0 78 73 77 72 149 420 150 420 38 -1 c21 -1 41 3 44 9 4 5 10 63 14
128 7 115 8 119 30 119 13 0 438 -34 945 -75 507 -41 934 -75 947 -75 l26 0
-7 -135 -8 -135 99 0 c54 0 108 -3 119 -6 18 -5 41 -61 138 -337 l117 -332 77
-72 77 -72 845 0 845 0 73 68 73 67 100 279 c54 153 99 281 99 283 0 2 45 0
100 -3 l100 -8 0 117 c0 91 3 118 14 122 8 3 396 -2 863 -10 466 -9 869 -16
896 -16 l47 0 0 -100 0 -99 121 -3 121 -3 99 -276 99 -277 72 -71 73 -71 845
0 845 0 78 73 77 72 85 240 c47 132 90 252 96 268 l11 27 119 0 119 0 0 29 0
29 103 6 c56 4 341 18 632 31 809 39 1142 61 1642 110 252 25 742 70 1088 100
612 52 643 56 1095 130 256 42 620 100 810 130 350 55 1013 185 1511 295 151
34 359 79 464 101 104 22 285 66 400 99 116 32 395 109 620 170 401 109 903
264 1276 394 103 35 243 81 310 101 199 58 463 153 617 222 140 62 144 63 160
44 17 -19 24 -16 313 122 163 78 379 189 480 246 423 239 694 401 854 511 94
65 307 205 475 312 830 530 858 549 1162 802 236 196 322 275 519 478 225 232
245 256 407 485 94 133 178 253 186 265 9 13 74 188 145 389 l129 365 46 367
47 367 -47 367 -46 367 -130 370 -130 371 -190 270 -190 270 -247 248 c-191
193 -306 298 -517 473 -291 241 -269 226 -1129 777 -198 127 -430 279 -515
338 -289 199 -868 524 -1309 736 -280 133 -297 140 -312 123 -14 -17 -21 -15
-135 37 -138 64 -420 167 -614 224 -74 22 -245 78 -380 124 -457 157 -844 274
-1420 430 -741 202 -705 193 -1864 436 -569 119 -584 122 -921 175 -159 25
-522 83 -805 129 -504 82 -526 84 -1025 125 -280 22 -778 67 -1105 100 -607
61 -852 78 -1480 105 -195 9 -478 22 -627 30 -150 8 -291 15 -313 15 -39 0
-40 1 -40 35 l0 34 -122 3 -121 3 -96 267 -96 268 -73 65 -73 65 -847 0 -847
0 -73 -68 -73 -67 -89 -255 c-50 -140 -95 -267 -101 -282 l-11 -28 -119 0
-119 0 0 -95 c0 -52 -1 -96 -2 -96 -8 -4 -1804 -35 -1810 -32 -5 2 -8 56 -8
120 l0 116 -98 -6 -99 -7 -97 278 -98 277 -74 73 -74 72 -848 0 -849 0 -74
-67 -74 -68 -120 -336 -119 -337 -119 -7 -119 -7 7 -128 7 -129 -33 -5 c-81
-13 -1891 -157 -1897 -151 -4 3 -11 61 -17 128 l-10 122 -42 0 -42 0 -56 155
c-30 85 -99 277 -153 426 l-97 272 -73 66 -72 66 -848 0 -847 -1 -73 -67z"/>
</g>
</svg>
