<?xml version="1.0" standalone="no"?>
<!DOCTYPE svg PUBLIC "-//W3C//DTD SVG 20010904//EN"
 "http://www.w3.org/TR/2001/REC-SVG-20010904/DTD/svg10.dtd">
<svg version="1.0" xmlns="http://www.w3.org/2000/svg"
   viewBox="0 0 4448.000000 1406.000000"
 preserveAspectRatio="xMidYMid meet">
<metadata>
Created by potrace 1.16, written by Peter Selinger 2001-2019
</metadata>
<g transform="translate(0.000000,1406.000000) scale(0.100000,-0.100000)"
fill="#000000" stroke="none">
<path d="M34080 13965 l-1195 -93 -995 -235 c-547 -129 -1034 -240 -1081 -247
-72 -11 -110 -10 -240 3 -85 9 -501 28 -924 43 l-770 27 -834 -16 -834 -16
-94 -93 -93 -93 0 -87 0 -88 30 0 c17 0 30 -4 30 -10 0 -14 -4 -14 -195 21
l-171 30 -165 -31 c-90 -17 -240 -47 -334 -68 -181 -41 -168 -34 -214 -110 -4
-7 -50 -24 -102 -37 -95 -24 -188 -26 -231 -3 -9 4 -131 15 -270 23 -139 8
-581 38 -982 67 l-729 52 -676 -57 c-372 -31 -1198 -95 -1836 -143 -638 -47
-1170 -87 -1182 -90 -28 -5 -31 -49 -7 -97 19 -36 39 -117 49 -199 5 -42 2
-64 -9 -87 -9 -16 -16 -47 -16 -68 l0 -38 -802 -43 c-756 -41 -1113 -67 -1139
-83 -6 -4 -14 -38 -17 -77 l-5 -70 -76 -6 c-42 -3 -830 -49 -1751 -102 l-1675
-95 -660 -265 -660 -265 -430 -33 -430 -33 -370 48 -370 48 -775 13 -775 13
-4105 -282 c-2860 -196 -4122 -286 -4160 -297 -30 -8 -125 -49 -210 -92 l-155
-76 -63 -122 -62 -121 0 -144 c0 -142 1 -147 51 -335 42 -156 62 -213 114
-316 67 -133 168 -275 213 -300 26 -14 24 -15 -68 -27 -52 -8 -105 -17 -117
-21 -12 -4 -346 -287 -742 -630 -628 -543 -721 -627 -725 -655 -3 -18 -14
-216 -24 -442 l-20 -410 23 -415 c13 -228 23 -416 24 -417 12 -18 1449 -1250
1464 -1255 12 -4 65 -13 117 -21 92 -12 94 -13 68 -27 -45 -25 -146 -167 -213
-300 -52 -103 -72 -160 -114 -316 -50 -188 -51 -193 -51 -335 l0 -144 62 -121
63 -122 155 -76 c85 -43 180 -84 210 -92 38 -11 1304 -101 4160 -297 l4105
-282 775 13 775 13 370 48 370 48 430 -33 430 -33 660 -265 660 -265 1675 -95
c921 -53 1709 -99 1751 -102 l76 -6 5 -70 c3 -39 11 -73 17 -77 26 -16 390
-43 1144 -83 l797 -43 0 -38 c0 -21 7 -52 16 -68 11 -23 14 -45 9 -87 -10 -82
-30 -163 -49 -199 -24 -48 -21 -92 7 -97 12 -3 544 -43 1182 -90 638 -48 1465
-112 1837 -143 l677 -57 648 47 c356 26 798 57 981 67 183 11 340 24 350 28
43 23 136 21 231 -3 52 -13 98 -30 102 -37 46 -76 33 -69 214 -110 94 -21 244
-51 334 -68 l164 -31 171 30 c190 35 196 35 196 21 0 -5 -13 -10 -30 -10 l-30
0 0 -88 0 -87 93 -93 94 -93 834 -16 834 -16 770 27 c423 15 839 34 924 43
130 13 168 14 240 3 47 -7 543 -119 1101 -250 l1015 -238 1225 -93 1225 -92
1046 31 1046 32 579 226 c319 125 597 235 619 247 22 11 79 56 126 101 l87 80
439 102 c381 89 450 108 533 146 l95 45 415 563 c228 310 418 569 422 575 4 6
88 332 188 725 117 461 186 750 194 817 7 57 17 108 22 112 5 5 80 32 166 60
l156 51 147 0 c136 0 149 2 195 25 l49 25 781 0 780 0 0 30 0 30 -790 0 c-434
0 -790 3 -790 8 0 4 183 117 408 251 l407 243 285 359 285 360 269 199 268
199 227 315 227 314 112 375 c62 206 112 380 112 387 0 7 -50 181 -112 387
l-112 375 -227 314 -227 315 -268 199 -269 199 -285 360 -285 359 -407 243
c-225 134 -408 247 -408 251 0 5 356 8 790 8 l790 0 0 30 0 30 -780 0 -781 0
-49 25 c-46 23 -59 25 -195 25 l-147 0 -156 51 c-86 28 -161 55 -166 60 -5 4
-15 55 -22 112 -8 66 -77 357 -194 817 -99 392 -184 719 -188 725 -4 6 -194
265 -422 575 l-415 563 -95 45 c-83 39 -151 57 -533 146 l-438 101 -87 81
c-48 45 -105 90 -127 101 -22 12 -300 122 -618 247 l-578 226 -992 30 c-546
16 -1039 29 -1097 29 -58 -1 -643 -43 -1300 -94z"/>
</g>
</svg>
