<?xml version="1.0" standalone="no"?>
<!DOCTYPE svg PUBLIC "-//W3C//DTD SVG 20010904//EN"
 "http://www.w3.org/TR/2001/REC-SVG-20010904/DTD/svg10.dtd">
<svg version="1.0" xmlns="http://www.w3.org/2000/svg"
   viewBox="0 0 2899.000000 4653.000000"
 preserveAspectRatio="xMidYMid meet">
<metadata>
Created by potrace 1.16, written by Peter Selinger 2001-2019
</metadata>
<g transform="translate(0.000000,4653.000000) scale(0.100000,-0.100000)"
fill="#000000" stroke="none">
<path d="M23685 46500 l-330 -28 -1248 -286 c-687 -157 -1252 -288 -1257 -291
-5 -3 -35 -42 -66 -85 -46 -64 -63 -81 -88 -85 -17 -3 -193 -23 -391 -46 -198
-22 -364 -45 -370 -50 -5 -6 -843 -1300 -1860 -2877 l-1850 -2867 -37 -3 -37
-3 -1136 -1696 c-625 -933 -1141 -1707 -1146 -1720 -5 -13 -9 -40 -9 -58 0
-29 -34 -81 -212 -325 l-212 -290 -453 0 -452 0 -100 -144 -100 -143 -333
-247 -333 -246 -87 0 -88 0 0 -233 0 -233 -772 -284 c-425 -156 -821 -301
-880 -323 l-108 -39 0 -1167 0 -1166 693 -254 c380 -140 711 -261 734 -270
l43 -15 0 -158 0 -158 233 0 232 0 107 -68 107 -67 3 -94 3 -94 35 -13 c21 -7
87 -13 162 -13 l128 -1 140 -90 140 -90 610 0 610 0 0 -285 0 -285 -223 0
-224 0 -23 -25 -23 -25 -261 0 c-230 0 -575 -20 -803 -45 l-53 -6 0 -563 0
-562 -3502 167 -3502 168 -365 -285 c-272 -210 -470 -354 -768 -556 l-403
-272 0 -843 0 -843 425 0 425 0 0 -73 0 -73 68 -67 68 -67 755 0 756 0 63 -50
63 -50 -2189 0 -2189 0 -85 -85 -85 -85 -683 0 -684 0 -134 -127 -134 -126 0
-116 0 -116 40 -63 40 -63 0 -1489 0 -1489 -40 -62 -40 -62 0 -116 0 -116 129
-122 129 -123 684 0 683 0 86 -86 85 -85 2197 1 c1208 0 2197 -1 2197 -3 0 -2
-31 -26 -68 -55 l-69 -52 -754 0 -755 0 -67 -68 -67 -68 0 -72 0 -72 -425 0
-425 0 0 -843 0 -843 377 -253 c282 -189 478 -331 768 -556 l391 -302 3419
162 c1881 90 3457 165 3503 167 l82 4 0 -563 c0 -310 3 -563 8 -563 4 0 140
-11 302 -25 215 -18 365 -25 551 -25 l256 0 23 -25 23 -25 224 0 223 0 0 -285
0 -285 -612 0 -611 0 -139 -90 -139 -90 -119 0 c-66 0 -140 -5 -165 -12 l-45
-12 0 -93 0 -94 -107 -69 -108 -70 -232 0 -233 0 0 -157 0 -158 -63 -23 c-34
-12 -365 -133 -734 -269 l-673 -247 0 -1166 0 -1167 880 -323 880 -323 0 -233
0 -234 89 0 88 0 333 -248 334 -247 99 -142 98 -143 453 0 453 0 212 -291
c183 -251 211 -295 211 -327 1 -20 6 -49 13 -63 7 -15 522 -788 1146 -1718
l1134 -1692 33 3 33 2 1852 -2869 c1018 -1579 1856 -2875 1863 -2882 6 -6 176
-30 395 -55 l383 -43 67 -93 c36 -51 75 -95 86 -97 11 -3 580 -133 1265 -289
l1245 -284 270 -21 c149 -12 296 -24 328 -28 l57 -6 0 29 c0 16 -67 198 -150
404 l-149 375 49 24 c40 20 49 29 45 45 -4 20 -86 624 -479 3541 -86 633 -293
2212 -461 3510 -167 1298 -307 2372 -309 2387 l-5 26 976 4 c770 2 977 6 981
16 2 8 29 12 87 12 l83 0 7 31 c4 17 5 32 3 34 -1 2 -88 6 -193 10 -121 5
-193 12 -197 19 -5 8 -253 12 -888 14 -669 3 -880 6 -880 15 0 7 -104 818
-231 1802 l-231 1790 -72 73 c-39 41 -99 94 -134 119 -34 25 -60 49 -56 54 3
5 116 9 255 9 159 0 249 4 249 10 0 6 31 10 73 10 133 0 237 12 237 27 0 9
-16 13 -57 13 -32 -1 -243 0 -468 2 l-411 3 -319 229 c-176 126 -322 231 -324
232 -3 3 18 202 41 386 l10 87 84 113 84 113 0 98 c0 65 -4 97 -11 97 -12 0
-1412 236 -1463 246 -27 6 -28 7 -22 53 l6 47 -702 118 c-387 65 -715 121
-730 123 l-28 6 0 223 0 224 2365 0 c2096 0 2365 2 2365 15 0 13 -269 15
-2365 15 l-2365 0 0 160 0 160 335 0 335 0 0 25 0 25 2930 0 c1947 0 2930 3
2930 10 0 7 312 10 915 10 l915 0 0 40 0 40 -915 0 c-807 0 -915 2 -915 15 0
13 -332 15 -2930 15 l-2930 0 0 25 0 25 -335 0 c-328 0 -335 0 -335 20 0 20 7
20 3720 20 3300 0 3720 2 3720 15 0 13 -420 15 -3720 15 l-3720 0 0 330 0 330
-177 0 -178 0 -25 60 c-20 48 -29 60 -47 60 -18 0 -23 6 -23 25 l0 25 163 0
162 1 62 57 63 57 88 255 89 255 354 2 354 3 172 -283 c95 -155 178 -289 185
-298 12 -15 37 -13 293 27 l280 43 1815 485 1815 484 943 498 944 499 241 274
c224 252 243 278 256 328 l14 55 13 -32 c13 -31 16 -32 57 -28 33 4 2241 839
2255 853 2 2 -6 17 -18 33 -18 24 -69 48 -281 132 -142 57 -256 106 -253 109
3 3 238 209 522 456 l517 450 2 275 2 275 -524 455 c-312 271 -519 457 -512
461 7 3 123 50 259 104 201 80 251 104 268 127 12 16 20 31 18 34 -13 12
-2192 839 -2238 849 l-55 12 -16 -30 -16 -29 -14 50 c-12 43 -47 87 -256 324
l-241 275 -949 500 -948 500 -1810 483 -1810 482 -280 43 c-154 24 -283 41
-286 39 -3 -1 -86 -136 -185 -298 l-179 -296 -354 3 -353 2 -89 255 -89 255
-62 57 -63 57 -162 1 -163 0 0 25 c0 19 5 25 23 25 18 0 27 12 47 60 l25 60
178 0 177 0 0 330 0 330 3720 0 c3300 0 3720 2 3720 15 0 13 -420 15 -3720 15
l-3720 0 0 25 0 25 335 0 c328 0 335 0 335 20 0 20 7 20 2930 20 2598 0 2930
2 2930 15 0 13 108 15 915 15 l915 0 0 40 0 40 -915 0 c-807 0 -915 2 -915 15
0 13 -332 15 -2930 15 -2923 0 -2930 0 -2930 20 0 20 -7 20 -335 20 l-335 0 0
160 0 160 2365 0 c2096 0 2365 2 2365 15 0 13 -269 15 -2365 15 l-2365 0 0
224 0 224 58 10 c31 6 360 61 730 123 l672 114 -6 46 c-5 40 -4 48 12 52 11 3
349 61 752 128 l732 123 0 96 0 97 -85 113 c-47 62 -85 121 -85 129 0 9 -9
115 -20 236 -14 169 -16 223 -7 232 7 6 154 113 326 237 l315 226 310 2 c290
3 358 4 494 7 36 1 52 5 52 15 0 9 -21 15 -73 19 -95 8 -466 27 -586 30 l-94
2 59 42 c32 23 91 74 130 115 l72 73 231 1790 c127 985 231 1793 231 1797 0 4
395 10 878 12 482 3 938 10 1012 15 74 6 172 13 218 17 l82 6 0 35 0 35 -85
-3 c-47 -2 -85 -1 -85 2 0 19 -382 29 -1158 29 l-843 0 6 33 c3 17 138 1060
300 2317 163 1257 336 2587 386 2955 289 2153 560 4153 564 4171 4 16 -5 25
-41 43 -34 16 -45 26 -41 39 2 9 68 176 146 371 126 317 158 414 134 410 -5
-1 -156 -14 -338 -29z m-3867 -2165 c11 -10 -27 -84 -214 -411 -125 -220 -229
-401 -230 -403 -5 -6 -564 39 -590 47 -23 7 -39 -19 537 865 l109 168 188
-127 c103 -69 193 -132 200 -139z m-944 -1125 c124 -85 226 -159 226 -163 0
-9 -396 -697 -409 -710 -8 -8 -677 46 -687 55 -4 5 583 921 619 966 5 7 13 11
17 10 5 -2 110 -73 234 -158z m-757 -1211 c136 -94 254 -176 261 -183 10 -10
-28 -82 -194 -367 -113 -195 -209 -357 -212 -360 -12 -12 -767 55 -767 68 0
14 647 1013 657 1013 4 0 118 -77 255 -171z m64 -36902 c115 -197 209 -360
209 -362 0 -6 -505 -354 -522 -360 -8 -3 -126 169 -345 508 l-332 512 372 31
c205 18 380 31 391 30 13 -1 77 -103 227 -359z m715 -1242 c112 -192 203 -354
203 -360 0 -5 -104 -81 -231 -168 -189 -130 -233 -156 -243 -145 -30 31 -625
961 -620 967 8 7 594 59 649 57 l39 -1 203 -350z m708 -1237 l229 -401 -29
-21 c-15 -12 -106 -74 -201 -139 l-173 -118 -99 153 c-483 742 -568 874 -564
878 5 6 473 47 553 49 l55 1 229 -402z"/>
</g>
</svg>
