<?xml version="1.0" standalone="no"?>
<!DOCTYPE svg PUBLIC "-//W3C//DTD SVG 20010904//EN"
 "http://www.w3.org/TR/2001/REC-SVG-20010904/DTD/svg10.dtd">
<svg version="1.0" xmlns="http://www.w3.org/2000/svg"
   viewBox="0 0 4702.000000 4532.000000"
 preserveAspectRatio="xMidYMid meet">
<metadata>
Created by potrace 1.16, written by Peter Selinger 2001-2019
</metadata>
<g transform="translate(0.000000,4532.000000) scale(0.100000,-0.100000)"
fill="#000000" stroke="none">
<path d="M1721 44527 l-1724 -792 7 -3165 c3 -1741 8 -4794 11 -6785 3 -1991
8 -3732 11 -3870 l6 -250 2955 3 c2398 3 2954 1 2947 -9 -4 -7 -26 -110 -48
-229 l-41 -215 -1005 -6 c-1136 -6 -1094 -3 -1108 -73 -7 -39 -9 -41 -42 -38
-19 2 -362 45 -762 97 l-728 92 -937 -417 -938 -417 -3 -1034 -2 -1034 939
-419 940 -418 758 81 c417 45 761 81 766 81 4 0 7 -15 8 -32 2 -67 11 -81 64
-97 44 -14 269 -16 1843 -21 l1792 -5 -110 -49 -110 -48 0 -988 0 -987 163
-72 162 -71 123 0 122 0 0 -47 -1 -48 -129 -94 -130 -95 1 -390 0 -391 130
-98 c127 -97 129 -99 129 -137 l0 -40 -122 0 -123 0 -162 -71 -163 -72 0 -987
0 -988 121 -53 121 -54 -1813 -5 c-1987 -6 -1891 -3 -1903 -63 -3 -16 -6 -39
-6 -51 0 -22 -3 -21 -762 70 l-763 92 -940 -418 -940 -417 -3 -1034 -2 -1035
940 -418 940 -418 747 86 c412 47 755 86 764 86 12 0 18 -12 22 -41 3 -22 8
-43 11 -46 3 -3 36 -14 73 -24 64 -18 119 -19 1048 -19 l980 0 33 -183 c19
-100 36 -192 39 -205 l5 -22 -2945 0 -2945 0 -6 -252 c-3 -139 -8 -1875 -11
-3858 -3 -1983 -8 -5047 -11 -6810 l-6 -3205 1711 -790 c941 -434 1717 -790
1724 -790 8 0 620 596 1362 1325 l1348 1325 106 3 c58 1 342 8 630 15 435 11
524 16 531 28 30 51 -42 47 985 53 523 4 1154 9 1403 12 434 6 452 7 452 25 0
18 -9 19 -132 19 -73 0 -704 7 -1403 16 l-1270 16 -22 24 c-20 22 -30 24 -110
24 -48 0 -179 3 -290 7 -201 6 -203 6 -203 28 0 22 5 23 103 29 56 3 383 13
727 22 553 15 626 18 637 33 7 9 18 25 26 35 14 19 42 20 923 28 727 7 920 11
964 23 46 11 436 15 2435 19 1309 4 2539 9 2733 12 336 6 352 7 352 25 0 18
-11 19 -222 19 -123 0 -1358 5 -2745 10 -1846 8 -2530 13 -2550 22 -20 8 -303
14 -953 21 -992 9 -931 6 -958 54 -5 9 -189 17 -698 33 -379 11 -706 20 -725
20 -38 0 -40 -2 786 811 l230 227 956 13 957 14 18 22 19 23 1460 15 c1710 18
1865 21 1865 41 0 9 -11 14 -27 14 -16 0 -764 9 -1663 21 -1573 20 -1636 21
-1651 40 -16 17 -53 19 -815 29 -440 6 -814 12 -833 13 -33 2 103 136 3691
3663 l3725 3661 774 6 c426 4 983 7 1239 7 484 0 570 4 570 25 0 19 -150 24
-1295 36 -566 6 -1065 14 -1109 17 l-78 7 246 243 246 242 0 315 c0 173 1 315
3 315 11 2 4138 39 4355 40 l282 0 0 40 0 40 -92 0 c-225 0 -4543 41 -4545 43
-1 2 1 420 4 930 l6 927 246 1 c1392 6 2289 16 2313 27 20 8 994 14 3775 22
2061 5 3850 10 3976 10 215 0 227 1 227 19 0 18 -22 19 -622 25 -343 3 -2130
9 -3972 12 -3005 5 -3352 8 -3385 22 -34 15 -663 23 -2393 31 l-168 1 0 173 0
174 -302 6 c-166 4 -1714 7 -3440 7 -2507 0 -3139 3 -3136 13 5 13 2934 22
7955 26 2302 1 2373 2 2415 20 43 18 126 19 2734 26 1479 3 2701 9 2717 11 18
4 27 12 27 25 0 18 -13 19 -457 19 -252 0 -1478 5 -2724 10 -1665 7 -2273 12
-2295 21 -27 10 -5112 27 -9076 28 l-1288 1 -20 40 -20 40 -63 0 c-34 0 -323
9 -642 20 -319 11 -602 20 -628 20 l-49 0 7 32 c4 18 9 41 11 51 5 16 162 17
3115 17 l3110 0 78 36 78 36 249 437 248 438 215 6 c128 4 217 11 219 17 2 5
11 19 20 30 17 19 38 19 1420 26 1123 6 1402 10 1402 20 0 8 -19 14 -53 18
-28 3 -659 17 -1402 31 -1027 19 -1351 29 -1357 38 -30 52 -28 51 -182 55
l-146 4 15 21 c12 18 15 69 15 289 l0 268 413 0 c329 0 423 3 463 14 41 12
339 16 1914 20 1026 4 2258 9 2738 12 823 6 872 7 872 24 0 17 -49 18 -872 24
-480 3 -1712 8 -2738 12 -1576 4 -1873 8 -1914 20 -40 11 -134 14 -463 14
l-413 0 0 25 0 25 118 1 c64 1 279 6 477 10 368 10 2559 25 3823 28 617 1 702
3 702 16 0 13 -176 15 -1517 16 -835 1 -1777 6 -2093 11 -316 5 -785 11 -1042
14 l-468 4 0 124 0 124 333 6 c182 4 507 10 721 14 l390 7 40 67 41 67 786 1
c432 0 1725 3 2872 7 l2087 6 0 39 c0 33 -3 38 -22 38 -13 0 -1299 23 -2858
50 -1559 27 -2842 50 -2850 50 -9 0 -32 29 -53 64 l-36 64 -93 6 c-51 3 -223
10 -382 16 -159 5 -290 11 -292 12 -1 2 75 52 168 112 l170 109 -7 262 c-9
337 -20 315 150 315 l122 0 359 176 358 175 171 -6 170 -6 28 25 c15 14 27 29
27 35 0 5 73 68 163 139 l162 130 37 144 37 143 -37 142 -38 142 -144 117
c-80 64 -167 138 -194 165 l-49 49 -168 0 -169 0 0 45 0 45 87 0 c86 0 88 1
123 34 l35 35 1369 11 c753 6 1372 8 1376 3 16 -19 41 -575 45 -1038 3 -269 7
-536 10 -593 l5 -102 -385 0 -384 0 -15 -22 c-14 -19 -16 -70 -16 -351 0 -293
2 -332 17 -358 l17 -29 2473 0 2473 0 5 -23 c4 -13 18 -79 33 -148 l27 -124
45 -3 c25 -1 271 -23 548 -48 l504 -46 496 46 c273 25 521 46 549 46 47 0 53
3 58 23 4 13 18 79 33 148 l27 124 228 3 227 2 0 225 0 225 23 4 c71 14 1540
47 2340 53 l917 6 0 -55 0 -56 553 -6 c303 -4 783 -6 1066 -4 l513 3 40 110
39 110 142 143 c78 79 176 175 219 213 l76 70 432 19 c238 10 433 20 435 22 1
2 19 49 39 104 l37 102 251 7 c190 6 252 5 258 -4 4 -7 15 -48 25 -92 l18 -79
36 5 c66 10 1800 184 2136 215 182 16 345 32 362 34 l33 5 2 -167 3 -166 205
-118 205 -118 1747 0 1748 0 0 45 0 45 87 0 88 0 75 74 75 74 1245 6 c984 4
1250 3 1267 -7 18 -10 93 -8 390 10 202 12 371 22 376 22 6 1 11 69 5 72 -2 1
-169 11 -373 24 -301 19 -375 20 -395 10 -20 -10 -279 -11 -1235 -8 -665 2
-1229 6 -1252 9 -33 4 -57 18 -107 60 l-63 54 -92 0 -91 0 2 173 3 172 555 8
555 9 27 25 27 26 1953 13 c1074 7 2195 13 2491 14 l537 0 0 39 0 38 -762 7
c-420 3 -1539 11 -2488 17 l-1725 11 -26 24 -25 24 -515 10 c-283 5 -535 10
-561 10 l-48 0 0 160 0 160 -1753 0 -1752 0 -203 -117 -202 -117 0 -173 c0
-95 -2 -173 -5 -173 -39 0 -1045 101 -1700 170 -467 49 -853 90 -856 90 -3 0
-14 -36 -24 -79 -10 -44 -21 -85 -25 -91 -10 -17 -499 2 -510 19 -4 7 -20 56
-35 109 -16 53 -31 100 -34 104 -4 4 -203 19 -444 33 l-437 25 -212 157 -213
157 -538 22 c-296 12 -541 25 -545 28 -12 13 -19 308 -14 604 l5 282 99 0 c80
0 98 3 98 15 0 12 19 15 111 15 84 0 115 4 123 14 9 12 209 16 1221 26 666 7
1212 14 1214 16 2 2 2 6 -1 9 -3 3 -549 11 -1213 18 -1120 12 -1208 14 -1220
30 -10 14 -30 17 -124 17 l-111 0 0 48 0 49 227 6 c124 4 345 7 490 7 l263 0
11 23 11 24 871 6 c478 4 1268 7 1754 7 763 0 889 2 920 15 30 13 116 15 558
15 1522 0 3375 14 3375 25 0 17 -825 25 -2499 25 -898 1 -1371 4 -1401 11 -29
7 -654 13 -1809 18 -1233 5 -1766 10 -1768 18 -2 5 -10 18 -17 28 -12 16 -49
18 -499 23 l-487 5 0 82 0 82 183 7 c100 3 701 9 1335 12 633 4 1152 10 1152
14 0 8 -835 20 -1434 20 -243 0 -620 3 -838 7 l-398 6 0 54 0 53 -98 0 -99 0
-5 283 c-5 291 2 590 14 602 3 4 248 16 545 28 l538 22 215 161 215 161 380
18 c209 10 407 20 439 24 l60 6 31 108 c18 59 35 110 38 113 3 3 85 10 184 14
98 5 210 11 250 14 l71 4 23 -91 c12 -51 23 -93 24 -95 1 -2 409 40 906 92
497 52 1053 109 1234 126 182 16 351 33 378 36 l47 6 0 -154 1 -153 204 -117
204 -118 1751 0 1750 0 0 99 0 98 213 7 c116 3 369 9 560 12 340 7 349 7 375
29 l27 22 2090 12 c1150 6 2269 14 2488 17 l397 6 0 39 0 39 -107 0 c-60 0
-1179 7 -2487 16 l-2380 15 -30 22 c-30 22 -41 22 -586 33 -305 6 -556 12
-557 13 -2 0 -3 78 -3 171 l0 170 90 0 91 0 64 54 65 53 493 7 c270 4 913 7
1427 6 574 -1 1001 2 1105 9 94 6 194 11 223 11 l52 0 0 40 c0 26 -5 40 -13
40 -7 0 -175 11 -375 25 -337 23 -364 24 -387 9 -23 -15 -125 -16 -1271 -7
l-1245 10 -72 71 -72 72 -88 0 -87 0 0 105 0 105 -1757 0 -1758 -1 -195 -113
-195 -113 -3 -192 -2 -191 -38 5 c-20 3 -185 19 -367 35 -181 17 -735 73
-1230 125 -494 52 -907 95 -916 95 -13 0 -21 -21 -38 -92 l-21 -93 -252 12
c-138 7 -254 16 -258 20 -4 4 -22 49 -40 100 l-34 91 -95 6 c-53 3 -213 11
-356 16 -143 6 -298 13 -345 16 l-85 6 -212 210 -211 210 -38 114 -39 114
-571 0 c-314 0 -794 -3 -1067 -7 l-497 -6 0 -55 0 -55 -932 6 c-623 4 -1168
14 -1640 29 l-708 22 0 218 0 218 -219 0 -218 0 -37 173 c-21 94 -40 180 -42
190 -5 14 -18 17 -87 17 -45 0 -293 20 -550 44 l-468 44 -417 -39 c-229 -22
-475 -43 -546 -47 l-130 -7 -40 -187 -41 -188 -2467 0 -2467 0 -16 -30 c-22
-43 -22 -657 0 -700 l16 -30 384 0 385 0 -5 -72 c-2 -40 -7 -307 -10 -593 -3
-373 -11 -609 -26 -835 -12 -173 -22 -315 -23 -315 0 0 -618 4 -1373 10
l-1372 10 -33 32 c-31 30 -40 33 -121 39 l-87 7 0 53 0 54 168 0 168 0 170
136 c93 75 181 146 195 158 20 18 32 51 62 167 l36 144 -37 143 -38 143 -144
115 c-80 64 -166 138 -191 166 l-47 50 -173 -7 -174 -7 -355 176 -355 176
-122 0 c-168 0 -157 -23 -148 314 l7 265 -167 109 -167 109 118 6 c66 4 234
10 374 13 143 4 260 11 267 17 7 5 28 36 45 68 l33 59 85 0 c47 0 1284 23
2750 50 1466 27 2720 50 2788 50 l122 0 0 38 0 39 -1868 6 c-1027 4 -2319 7
-2872 7 l-1006 0 -39 64 -39 65 -61 5 c-33 3 -235 8 -450 11 -214 3 -513 8
-662 12 l-273 6 0 123 0 122 358 6 c669 10 2804 24 3785 25 861 1 977 3 977
16 0 8 -1 15 -2 16 -2 1 -930 5 -2063 11 -1133 5 -2284 12 -2557 14 l-498 5 0
23 c0 23 2 23 158 29 86 4 274 7 418 7 196 0 273 4 310 14 42 12 442 15 2669
20 1441 4 2671 9 2733 12 101 5 112 8 112 25 0 18 -13 19 -387 19 -214 0
-1446 5 -2738 10 -2066 8 -2356 11 -2394 25 -33 11 -87 15 -221 15 -97 0 -285
3 -418 7 l-242 6 0 259 c0 217 -3 263 -16 282 l-15 24 151 7 151 8 14 27 c14
27 18 28 117 34 94 5 2469 47 2636 46 65 0 72 2 72 20 0 20 -7 20 -562 20
-310 0 -944 3 -1409 7 l-846 6 -16 29 c-15 27 -19 28 -89 28 -40 0 -137 3
-214 7 l-142 6 -248 437 -248 437 -73 37 -73 36 -3114 0 c-2958 0 -3115 1
-3120 18 -2 9 -7 31 -11 48 l-6 32 98 6 c54 3 343 13 643 21 674 19 642 17
663 59 l15 33 5163 8 c4895 7 5165 8 5204 25 39 17 197 18 2758 25 l2717 8 0
23 0 24 -567 0 c-1996 2 -4880 19 -4908 30 -22 9 -1060 14 -4120 20 -2249 5
-4575 9 -5167 10 l-1078 0 -20 40 -20 40 1323 0 c728 0 2283 3 3455 7 l2132 6
0 148 0 148 33 5 c17 3 584 7 1258 10 1046 5 1233 8 1275 21 42 13 210 15
1205 15 636 0 2419 3 3962 7 l2807 6 0 24 0 23 -1052 1 c-579 0 -2367 4 -3973
8 -2595 7 -2924 10 -2956 24 -32 13 -196 16 -1296 22 l-1260 8 -6 925 c-4 509
-5 928 -2 930 2 2 1038 12 2302 23 1264 10 2306 19 2316 19 13 0 17 9 17 39
l0 38 -532 6 c-293 4 -1246 12 -2118 17 -872 6 -1676 13 -1787 16 l-203 6 0
311 0 310 -250 245 c-138 134 -249 246 -247 248 4 5 1995 34 2290 34 185 0
197 1 197 19 0 17 -17 18 -297 24 -164 4 -741 10 -1283 13 -542 4 -994 10
-1006 15 -11 4 -1694 1651 -3738 3661 l-3718 3653 169 6 c92 3 467 9 833 13
647 7 665 8 682 27 17 20 46 20 1683 42 1337 17 1665 24 1665 34 0 9 -15 13
-42 13 -24 0 -684 9 -1468 20 -784 11 -1514 20 -1623 20 -197 0 -197 0 -208
23 l-11 24 -441 6 c-243 4 -678 10 -967 14 l-526 6 -524 518 -525 518 105 1
c58 0 386 9 729 19 497 15 626 22 632 33 30 51 -41 47 957 58 656 8 931 14
950 23 27 11 2051 23 4505 26 l1017 1 0 25 0 25 -812 1 c-2087 2 -4674 17
-4708 28 -24 8 -336 15 -955 22 -994 11 -925 7 -955 58 -6 12 -134 18 -736 36
-401 13 -730 23 -731 24 -2 0 -3 12 -3 26 0 19 5 25 23 26 12 0 142 4 289 8
243 6 269 9 288 26 20 19 66 20 1268 36 686 10 1318 18 1405 18 146 1 157 2
157 19 0 18 -24 19 -517 25 -285 4 -917 10 -1405 14 l-888 6 -19 32 -19 33
-398 7 c-220 4 -505 10 -635 14 l-236 6 -1114 1094 c-613 602 -1217 1197
-1344 1322 l-230 228 -1724 -792z m18506 -21117 l118 -70 -807 0 c-760 0 -807
-1 -812 -17 -2 -10 -8 -53 -12 -95 l-6 -78 -458 0 -457 0 -366 90 c-215 53
-387 90 -417 90 -49 0 -50 1 -50 30 l0 30 82 0 c81 0 83 1 119 36 l37 36 1173
7 c646 4 1301 8 1456 9 l283 2 117 -70z m-1512 -1308 c4 -43 10 -84 14 -90 5
-9 200 -13 750 -14 l742 -3 -93 -54 c-51 -29 -108 -65 -126 -79 l-34 -24
-1386 11 -1386 11 -31 30 c-30 29 -35 30 -118 30 l-87 0 0 40 0 40 58 0 c38 0
175 30 412 89 l355 89 461 1 462 1 7 -78z"/>
</g>
</svg>
