<?xml version="1.0" standalone="no"?>
<!DOCTYPE svg PUBLIC "-//W3C//DTD SVG 20010904//EN"
 "http://www.w3.org/TR/2001/REC-SVG-20010904/DTD/svg10.dtd">
<svg version="1.0" xmlns="http://www.w3.org/2000/svg"
   viewBox="0 0 3974.000000 1711.000000"
 preserveAspectRatio="xMidYMid meet">
<metadata>
Created by potrace 1.16, written by Peter Selinger 2001-2019
</metadata>
<g transform="translate(0.000000,1711.000000) scale(0.100000,-0.100000)"
fill="#000000" stroke="none">
<path d="M10960 16854 l-316 -253 -387 -1638 c-213 -901 -397 -1677 -408
-1725 -17 -73 -24 -88 -40 -88 -16 0 -19 -7 -19 -40 l0 -40 560 0 560 0 0 -40
0 -40 -1050 0 -1050 0 0 45 c0 33 4 45 15 45 13 0 15 102 15 855 l0 855 -133
0 -133 0 -210 -111 c-115 -61 -212 -114 -216 -117 -3 -4 -73 -326 -154 -716
-125 -595 -151 -710 -166 -714 -10 -2 -18 -8 -18 -12 0 -5 -3 -15 -6 -24 -6
-14 36 -16 430 -16 l436 0 0 -45 0 -45 -614 0 -614 0 -313 -251 c-173 -137
-418 -339 -546 -447 l-232 -197 0 -437 -1 -438 -374 0 -373 0 -6 -82 c-4 -46
-7 -107 -7 -137 l0 -54 -182 6 c-99 4 -250 7 -335 7 l-153 0 0 70 0 70 -390 0
c-364 0 -391 -1 -408 -18 -10 -10 -36 -60 -58 -110 l-39 -92 -55 0 -56 0 -41
-100 -40 -100 49 0 c36 0 49 -4 45 -12 -41 -105 -35 -98 -87 -98 l-48 0 -37
-92 c-21 -51 -39 -99 -42 -105 -4 -9 7 -13 36 -13 23 0 41 -2 41 -4 0 -2 -26
-61 -59 -132 l-58 -129 -238 -3 c-167 -2 -242 1 -251 9 -10 8 -14 35 -14 89
l0 77 -53 -4 c-28 -3 -479 -35 -1000 -72 -872 -62 -949 -69 -966 -87 -18 -18
-18 -25 -5 -119 18 -137 20 -765 2 -766 -7 0 -251 -19 -543 -42 l-530 -42 -3
-28 c-3 -24 -8 -27 -38 -27 l-34 0 0 -520 0 -520 35 0 c32 0 35 -2 35 -30 0
-22 5 -30 18 -30 9 0 244 -18 522 -40 278 -22 515 -40 528 -40 l22 0 0 -337
c-1 -233 -5 -368 -14 -433 -22 -150 -136 -126 969 -204 517 -37 966 -69 998
-73 l57 -6 0 80 c0 56 4 84 14 92 9 8 84 11 251 9 l238 -3 57 -130 c48 -108
55 -130 41 -133 -9 -1 -26 -5 -38 -8 l-23 -4 21 -53 c60 -152 56 -147 109
-147 47 0 47 0 66 -47 11 -27 21 -51 22 -55 2 -5 -19 -8 -46 -8 l-50 0 39 -99
c43 -106 49 -111 129 -111 24 0 30 -8 64 -88 21 -48 47 -95 58 -104 18 -17 53
-18 409 -18 l389 0 0 70 0 70 335 0 335 0 0 -52 c0 -29 3 -90 7 -135 l6 -83
373 0 374 0 0 -432 0 -433 213 -182 c116 -99 364 -303 551 -452 l338 -271 609
0 609 0 0 -40 0 -40 -435 0 c-444 0 -451 -1 -427 -36 4 -6 14 -13 22 -16 12
-4 53 -184 164 -714 81 -390 151 -712 154 -716 4 -3 100 -56 214 -116 l207
-109 135 -5 136 -5 0 859 c0 756 -2 858 -15 858 -11 0 -15 11 -15 40 l0 40
1050 0 1050 0 0 -35 0 -35 -560 0 -560 0 0 -40 c0 -33 3 -40 19 -40 16 0 23
-15 40 -87 11 -49 195 -825 408 -1726 l387 -1637 318 -256 318 -255 320 7
c240 5 320 4 320 -4 0 -8 19 -12 50 -12 l50 0 0 2025 0 2025 -25 0 c-22 0 -25
4 -25 35 0 25 4 35 15 35 9 0 29 7 45 15 l30 16 0 251 c0 227 -2 252 -17 264
-15 11 -308 13 -1647 14 l-1629 0 -343 178 -344 177 0 98 0 97 498 0 499 0
213 330 213 330 943 0 944 0 0 25 c0 25 1 25 90 25 l90 0 0 125 0 125 220 0
220 0 0 -448 c0 -418 1 -450 18 -465 16 -15 89 -10 947 68 511 47 937 85 947
85 14 0 18 -8 19 -42 2 -91 -1 -89 154 -129 l140 -35 3 -40 c2 -21 16 -204 31
-406 15 -202 29 -370 32 -373 3 -2 33 1 68 7 50 9 64 9 70 -1 7 -10 313 18
1462 134 800 80 1463 148 1475 150 20 4 21 10 19 99 -2 110 -13 101 133 112
l92 7 0 -197 0 -196 -310 0 c-262 0 -310 -2 -310 -14 0 -8 8 -22 17 -32 16
-15 80 -427 223 -1414 l12 -85 156 -116 157 -117 99 -4 99 -5 -5 1097 -4 1098
80 7 c45 3 88 9 98 11 14 4 17 -8 23 -79 4 -46 11 -90 15 -97 7 -11 471 36
2315 231 1269 134 2311 246 2316 249 5 3 10 45 11 92 l3 86 70 7 c38 3 87 9
108 12 l37 6 0 -197 0 -196 -310 0 c-301 0 -310 -1 -310 -20 0 -10 7 -23 16
-28 13 -7 38 -157 125 -747 59 -406 110 -742 111 -746 2 -4 72 -60 157 -123
l154 -116 67 0 c37 0 82 -3 99 -6 l31 -7 -5 904 c-2 497 -7 990 -10 1096 -7
220 -19 198 110 208 44 3 87 8 96 11 14 4 18 -8 24 -74 4 -43 10 -84 14 -90 4
-8 594 54 2026 214 1111 123 2021 224 2022 224 1 0 0 36 -4 79 l-6 79 29 5
c16 3 57 9 92 12 l62 7 0 -206 0 -206 -310 0 c-301 0 -310 -1 -310 -20 0 -10
7 -23 16 -28 13 -7 38 -157 125 -747 59 -406 110 -742 111 -746 2 -4 72 -60
157 -123 l154 -116 67 0 c37 0 82 -3 99 -6 l31 -6 0 895 c0 492 -3 897 -7 899
-5 2 -6 98 -5 214 l4 211 87 9 88 9 11 -37 c7 -21 12 -50 12 -65 0 -16 4 -34
8 -41 7 -10 1225 133 5828 686 l5819 698 5 54 c6 59 -17 270 -31 284 -7 7
-2070 -183 -2274 -210 -68 -9 -72 -1 -85 186 -6 91 -13 177 -15 191 l-4 26
182 8 c100 4 189 11 198 15 9 5 207 25 440 44 233 20 443 38 467 41 l42 6 0
49 c0 56 -3 54 128 64 l62 4 0 -43 c0 -24 5 -47 11 -51 6 -3 58 -3 115 1 l104
7 0 49 c0 54 -6 51 126 64 l61 6 7 -51 7 -50 62 5 c34 4 185 17 336 30 226 19
276 26 283 39 6 11 23 16 56 16 l48 0 -9 108 c-4 59 -10 113 -12 120 -3 9 -18
11 -54 6 -49 -6 -49 -6 -53 22 -3 25 -8 29 -38 32 -19 1 -228 -11 -465 -27
-236 -16 -432 -28 -435 -25 -3 3 -12 45 -20 92 l-15 87 -554 3 c-343 1 -557 6
-561 12 -3 5 -139 12 -328 16 l-322 7 0 104 c0 56 1 103 3 104 1 1 145 4 320
8 229 5 320 10 326 19 5 9 145 12 562 14 l554 3 15 89 15 90 57 -3 c31 -1 240
-15 465 -31 301 -20 410 -25 415 -16 4 6 8 21 8 33 0 20 4 21 54 16 l54 -6 7
106 c4 59 5 113 1 122 -4 10 -19 15 -51 15 -33 0 -45 4 -45 15 0 9 -9 15 -22
16 -13 0 -166 12 -340 28 l-317 27 -6 -49 -7 -50 -67 7 c-36 3 -78 6 -93 6
-27 0 -28 2 -28 50 0 57 4 55 -129 65 -95 7 -101 4 -101 -59 l0 -39 -61 7
c-34 3 -77 6 -95 6 l-34 0 0 55 c0 46 -3 55 -17 55 -46 1 -915 81 -968 89 -33
5 -123 12 -200 16 -77 3 -140 7 -141 8 0 1 6 87 14 192 15 207 19 217 77 209
37 -6 2195 -213 2250 -216 l40 -3 15 120 c9 66 14 143 12 172 -4 51 -4 52 -40
57 -21 3 -2627 316 -5792 696 -3165 379 -5769 692 -5787 695 -31 5 -32 4 -38
-32 -3 -21 -11 -57 -17 -81 -11 -42 -12 -43 -47 -38 -20 3 -59 8 -88 11 l-51
7 -4 211 c-1 117 0 213 5 215 4 2 7 407 7 899 l0 896 -31 -7 c-17 -3 -62 -6
-99 -6 l-67 0 -154 -116 c-85 -63 -155 -118 -157 -123 -1 -4 -51 -340 -111
-746 -87 -586 -112 -740 -125 -747 -9 -5 -16 -18 -16 -28 0 -19 9 -20 310 -20
l310 0 0 -206 0 -207 -67 6 c-38 4 -79 7 -92 7 -24 0 -24 0 -18 83 l6 83
-2024 225 c-1990 221 -2024 225 -2029 204 -2 -11 -8 -51 -12 -89 l-7 -68 -36
5 c-20 4 -71 9 -114 13 l-78 7 6 196 c3 108 8 603 10 1100 l5 904 -31 -7 c-17
-3 -62 -6 -99 -6 l-67 0 -154 -116 c-85 -63 -155 -119 -157 -123 -1 -4 -52
-340 -111 -746 -87 -590 -112 -740 -125 -747 -9 -5 -16 -18 -16 -28 0 -19 9
-20 310 -20 l310 0 0 -196 0 -197 -72 7 c-40 4 -89 10 -108 12 l-35 6 -3 86
c-1 47 -4 87 -6 89 -6 6 -4629 493 -4634 488 -3 -2 -9 -45 -15 -95 l-11 -91
-48 5 c-26 3 -70 9 -96 12 l-48 5 4 1101 5 1101 -33 -6 c-18 -4 -62 -7 -99 -7
l-66 0 -140 -106 c-77 -58 -147 -111 -156 -118 -14 -9 -39 -163 -127 -760 -88
-595 -113 -751 -126 -758 -9 -5 -16 -16 -16 -23 0 -13 46 -15 310 -15 l310 0
0 -201 0 -201 -22 5 c-13 3 -64 9 -114 12 l-91 7 2 98 2 98 -46 6 c-25 4 -671
69 -1436 146 -764 77 -1409 142 -1432 145 -35 5 -43 3 -43 -10 0 -11 -6 -14
-22 -10 -13 3 -44 9 -70 14 -46 8 -47 7 -52 -18 -3 -14 -17 -200 -32 -412
l-28 -386 -135 -33 c-75 -18 -140 -36 -145 -40 -4 -5 -10 -37 -13 -72 l-5 -63
-939 84 c-815 74 -942 83 -964 71 l-25 -13 0 -454 0 -453 -220 0 -220 0 0 130
0 130 -90 0 c-83 0 -90 1 -90 20 0 20 -7 20 -942 20 l-943 1 -215 334 -215
335 -498 0 -498 0 3 96 3 96 343 179 343 179 1633 0 c1256 0 1635 3 1644 12 9
9 12 81 12 263 l0 252 -25 11 c-14 7 -35 12 -45 12 -17 0 -20 7 -20 40 0 36 3
40 25 40 l25 0 0 2018 0 2017 -373 1 -372 2 -315 -254z m890 -3824 l0 -40
-405 0 -405 0 0 40 0 40 405 0 405 0 0 -40z m25285 -4040 c176 -11 331 -22
345 -24 38 -6 -606 4 -676 10 -54 5 -61 8 -57 24 4 14 12 17 36 14 18 -2 176
-13 352 -24z m512 -36 c-3 -3 -12 -4 -19 -1 -8 3 -5 6 6 6 11 1 17 -2 13 -5z
m-132 -801 c-22 -2 -202 -15 -400 -28 -360 -25 -374 -24 -375 8 0 4 33 8 73 8
39 1 178 5 307 8 259 8 457 10 395 4z m-25665 -4068 l0 -35 -405 0 -405 0 0
35 0 35 405 0 405 0 0 -35z"/>
</g>
</svg>
