<?xml version="1.0" standalone="no"?>
<!DOCTYPE svg PUBLIC "-//W3C//DTD SVG 20010904//EN"
 "http://www.w3.org/TR/2001/REC-SVG-20010904/DTD/svg10.dtd">
<svg version="1.0" xmlns="http://www.w3.org/2000/svg"
   viewBox="0 0 3082.000000 2872.000000"
 preserveAspectRatio="xMidYMid meet">
<metadata>
Created by potrace 1.16, written by Peter Selinger 2001-2019
</metadata>
<g transform="translate(0.000000,2872.000000) scale(0.100000,-0.100000)"
fill="#000000" stroke="none">
<path d="M2462 28617 l-203 -103 -69 -89 -70 -90 0 -1091 0 -1090 68 -91 67
-92 208 -100 208 -101 1170 0 c773 0 1169 -3 1169 -10 0 -5 -6 -10 -12 -10 -7
0 -240 -9 -518 -20 -450 -18 -638 -31 -1734 -124 -676 -58 -1232 -108 -1236
-113 -19 -21 -30 -229 -30 -551 l0 -349 -47 -62 c-31 -39 -92 -94 -167 -151
l-119 -90 -340 2 -341 3 -55 78 -55 78 -95 -3 -96 -3 -80 -115 -80 -115 0
-1810 0 -1810 85 -118 84 -119 91 7 c49 4 95 11 101 16 5 4 30 38 55 74 l44
65 343 0 344 0 119 -102 c106 -91 127 -114 177 -198 l57 -95 3 -631 3 -631 42
4 c276 26 2652 200 3052 222 292 17 554 33 583 36 l52 5 0 -58 0 -59 -102 -6
c-57 -4 -254 -14 -438 -22 -184 -9 -350 -18 -369 -21 -26 -4 -56 -26 -120 -87
-47 -46 -146 -131 -218 -191 l-133 -108 0 -104 c0 -57 -4 -104 -9 -104 -5 0
-305 -23 -666 -50 -361 -28 -670 -50 -686 -50 l-29 0 0 -694 0 -694 38 -6 c20
-3 642 -78 1382 -167 740 -88 1345 -162 1345 -162 0 -1 -1 -215 -3 -474 l-4
-473 -36 0 c-21 0 -245 -11 -498 -25 l-461 -24 -624 -140 -624 -140 -382 -175
-382 -176 -300 0 -301 0 0 -575 0 -575 294 0 295 0 391 -179 390 -180 628
-140 627 -140 492 -22 491 -23 4 -465 c2 -256 3 -467 3 -468 0 0 -605 -74
-1345 -162 -740 -89 -1362 -164 -1382 -167 l-38 -6 0 -694 0 -694 33 0 c17 0
320 -20 672 -45 351 -25 650 -45 662 -45 23 0 23 -2 23 -109 l0 -109 133 -108
c72 -60 171 -145 218 -191 64 -61 94 -83 120 -87 19 -3 185 -12 369 -21 184
-8 381 -18 438 -22 l102 -6 0 -33 c0 -19 -3 -34 -7 -34 -139 1 -1492 93 -2450
167 -700 53 -1276 94 -1280 89 -4 -4 -10 -301 -13 -659 l-5 -652 -45 -75 c-36
-61 -67 -95 -168 -183 l-123 -107 -342 0 -342 0 -53 80 -52 80 -98 0 -97 -1
-76 -110 -77 -110 -7 -192 c-4 -106 -5 -923 -3 -1817 l3 -1625 83 -117 83
-118 68 0 c115 0 120 2 179 91 l52 79 338 0 337 0 126 -93 c90 -66 138 -108
167 -149 l42 -58 0 -301 c0 -291 14 -586 29 -601 4 -4 576 -55 1271 -112 1054
-87 1335 -107 1685 -120 231 -9 448 -16 483 -16 l62 0 0 -35 0 -35 -1154 0
-1154 0 -204 -98 -204 -99 -72 -91 -72 -91 0 -1083 0 -1083 70 -88 71 -87 199
-100 200 -100 2337 0 2338 0 81 74 c44 41 211 179 369 306 l290 232 157 424
156 424 -156 422 -157 421 -270 215 c-148 119 -316 257 -373 309 l-104 93
-266 2 c-259 3 -224 5 1203 77 l1470 73 1815 194 1815 193 1770 361 c1751 356
3194 663 3785 803 l305 72 16 49 c9 29 23 53 35 58 32 13 2823 780 3329 914
857 228 1108 308 2210 707 514 186 766 283 1205 467 305 128 563 235 574 238
19 5 19 1 0 -83 -4 -14 3 -25 23 -36 28 -16 31 -14 923 445 l895 462 828 518
827 518 343 376 c189 208 346 382 350 389 4 7 1 10 -10 7 -10 -2 -214 -29
-453 -60 -292 -37 -715 -103 -1290 -200 -474 -80 -1051 -171 -1294 -204 l-440
-59 -36 -36 c-27 -26 -44 -35 -70 -35 -19 0 -496 -61 -1059 -135 -804 -106
-1904 -235 -2004 -235 -8 0 -36 -48 -67 -117 -30 -65 -58 -123 -64 -129 -12
-12 -568 -79 -589 -71 -8 3 -25 30 -38 61 -28 65 -16 62 -189 40 l-125 -16
-80 -79 -80 -79 -313 10 -312 9 -86 33 c-73 27 -89 38 -106 68 l-21 36 -1526
47 c-839 26 -1561 50 -1604 53 l-78 6 -30 59 c-16 32 -32 59 -36 59 -19 0
-615 40 -654 44 -46 5 -47 4 -65 -35 -14 -32 -30 -47 -76 -70 -31 -16 -67 -29
-79 -29 -17 0 -1322 226 -1420 246 -15 3 -102 63 -195 134 -105 82 -179 132
-198 135 -17 2 -291 25 -610 51 l-579 46 -731 -27 -731 -28 -298 -47 -298 -47
-1547 88 c-1456 83 -2068 122 -2079 133 -5 4 50 678 63 773 l5 43 120 0 119 0
0 1050 c0 578 -3 1050 -7 1050 -33 1 -346 30 -347 32 -6 9 -277 1030 -274
1032 2 2 237 13 523 25 286 12 561 24 611 28 l91 5 23 68 24 68 130 6 c171 9
2252 76 2334 76 l62 0 0 45 0 45 -82 0 c-140 1 -1978 67 -1983 71 -2 3 126 67
285 143 l290 139 0 57 0 57 63 12 c34 7 82 23 106 37 l44 24 1008 0 1009 0 0
-25 c0 -26 1 -26 58 -20 66 7 825 65 847 65 12 0 15 17 15 90 0 50 -4 90 -9
90 -22 0 -812 60 -858 66 -52 5 -53 5 -53 -20 l0 -26 -1009 0 -1008 0 -44 24
c-24 14 -72 30 -106 37 l-63 12 0 67 0 67 -290 139 c-160 76 -287 140 -283
141 5 1 411 16 903 33 492 16 955 32 1028 36 l132 6 0 38 0 38 -82 6 c-46 3
-562 22 -1148 41 -586 19 -1117 37 -1181 41 l-115 6 -24 68 -23 67 -91 6 c-50
3 -325 16 -611 28 -286 12 -521 23 -522 23 -1 1 207 785 266 1002 l11 41 117
7 c65 3 144 9 176 12 l57 7 0 1048 0 1049 -120 0 c-79 0 -120 4 -120 11 0 6
-16 198 -36 426 -20 228 -32 419 -27 423 14 12 440 39 2054 129 l1565 88 295
-53 294 -53 745 -27 745 -27 597 46 597 47 202 132 202 132 676 128 c372 70
687 128 701 129 14 2 53 -10 86 -25 51 -23 65 -35 79 -67 10 -22 25 -39 34
-39 9 0 156 9 326 20 171 11 322 20 338 20 24 0 31 9 59 65 32 64 33 65 73 65
22 0 621 18 1330 40 710 22 1373 40 1475 40 102 0 223 5 269 10 75 8 87 13
110 39 16 19 56 41 106 61 l80 31 318 6 318 6 72 -71 72 -70 125 -16 c69 -9
135 -19 147 -21 20 -5 27 3 52 60 16 36 35 65 42 65 17 0 515 -59 555 -65 30
-5 35 -13 85 -127 36 -79 61 -123 74 -129 11 -4 234 -28 495 -54 357 -35 727
-81 1489 -186 557 -76 1036 -139 1064 -139 45 0 56 -4 87 -34 l35 -34 413 -57
c238 -32 778 -120 1275 -206 573 -99 1020 -171 1332 -214 259 -35 471 -62 472
-61 2 1 -153 176 -345 387 l-347 385 -850 536 -850 535 -876 452 c-827 426
-878 451 -904 439 -22 -10 -26 -17 -21 -40 20 -97 20 -92 0 -86 -10 3 -275
114 -589 246 -473 199 -688 282 -1260 490 -1070 387 -1278 454 -2155 687 -475
127 -3316 911 -3330 920 -4 3 -13 26 -19 53 l-12 48 -362 87 c-603 144 -1899
419 -3760 798 l-1769 359 -1786 190 -1787 191 -1180 59 c-649 33 -1189 60
-1200 60 -30 1 56 76 410 360 l311 249 157 423 c86 233 157 428 157 433 0 6
-71 200 -158 431 l-157 422 -290 232 c-160 128 -329 268 -378 311 l-87 79
-2358 -1 -2357 0 -203 -102z"/>
</g>
</svg>
