<?xml version="1.0" standalone="no"?>
<!DOCTYPE svg PUBLIC "-//W3C//DTD SVG 20010904//EN"
 "http://www.w3.org/TR/2001/REC-SVG-20010904/DTD/svg10.dtd">
<svg version="1.0" xmlns="http://www.w3.org/2000/svg"
   viewBox="0 0 3636.000000 606.000000"
 preserveAspectRatio="xMidYMid meet">
<metadata>
Created by potrace 1.16, written by Peter Selinger 2001-2019
</metadata>
<g transform="translate(0.000000,606.000000) scale(0.100000,-0.100000)"
fill="#000000" stroke="none">
<path d="M4390 5925 l0 -135 -420 0 -420 0 0 -860 0 -860 -1709 0 -1710 0 -25
-82 c-114 -380 -106 -341 -106 -496 l0 -142 250 0 250 0 0 -320 0 -320 -250 0
-250 0 0 -142 1 -143 63 -210 64 -210 1711 -3 1711 -2 0 -860 0 -860 420 0
420 0 0 -140 0 -140 2105 0 2105 0 0 129 0 129 140 145 140 145 0 107 0 108
293 -4 c160 -2 570 -3 910 -1 l617 2 0 100 0 100 68 0 c59 0 72 3 90 23 20 21
22 34 22 125 l0 102 850 0 850 0 0 185 0 185 298 0 297 0 308 105 308 105 926
0 926 0 959 85 c927 82 1017 89 991 78 -8 -3 -13 -24 -13 -53 l0 -48 -50 -7
-50 -7 0 -179 0 -179 2235 0 2235 0 0 83 0 83 173 18 c207 21 487 72 695 128
l152 41 0 31 c0 17 -3 47 -6 68 l-6 36 -52 -5 c-31 -3 -150 9 -307 31 -212 29
-267 40 -327 66 -66 28 -80 30 -199 31 -86 0 -120 3 -103 9 21 8 1265 240
1283 240 4 0 7 20 7 45 l0 45 155 0 155 0 0 -25 0 -25 315 0 315 0 0 25 0 25
155 0 155 0 0 -25 0 -25 315 0 315 0 0 25 0 25 150 0 150 0 0 -25 0 -25 320 0
320 0 0 25 0 25 190 0 190 0 0 -25 c0 -24 2 -25 68 -25 37 0 630 -18 1317 -40
688 -22 1498 -46 1802 -53 303 -7 554 -15 557 -18 4 -3 -6 -39 -21 -81 -14
-41 -24 -81 -21 -89 4 -10 320 -71 1187 -229 l1181 -215 0 -35 c0 -68 -33 -66
512 -36 489 26 494 27 613 60 66 18 152 49 190 68 39 20 228 109 420 198 193
89 354 166 359 170 4 5 20 52 35 106 l28 99 604 187 c332 103 639 195 682 204
69 15 79 21 98 50 14 23 32 37 57 43 80 21 159 39 195 46 l37 6 -2 212 -3 212
-25 3 c-14 2 -72 14 -130 28 -97 23 -107 27 -127 58 -19 30 -31 36 -105 54
-124 30 -1261 383 -1275 396 -6 6 -23 53 -37 105 -14 51 -27 95 -28 96 -2 1
-181 84 -398 185 -217 101 -405 190 -418 198 -13 8 -78 31 -145 49 -122 34
-123 34 -622 62 -275 16 -502 27 -504 25 -2 -2 -6 -25 -9 -52 -2 -29 -9 -49
-17 -49 -6 0 -539 -96 -1183 -213 -1102 -201 -1172 -215 -1172 -234 0 -11 12
-51 26 -89 14 -37 24 -70 22 -72 -2 -3 -281 -12 -619 -20 -338 -8 -1173 -33
-1856 -55 -683 -22 -1248 -40 -1257 -40 -9 0 -16 -8 -16 -20 0 -19 -7 -20
-190 -20 l-190 0 0 25 0 25 -320 0 -320 0 0 -25 0 -25 -150 0 -150 0 0 25 0
25 -315 0 -315 0 0 -25 0 -25 -155 0 -155 0 0 25 0 25 -315 0 -315 0 0 -25 0
-25 -155 0 -155 0 0 40 c0 33 -4 40 -22 45 -41 9 -1268 235 -1278 235 -5 0
-10 4 -10 9 0 4 53 6 118 3 115 -4 118 -4 207 31 78 31 124 40 351 71 196 27
270 33 295 26 18 -5 34 -8 35 -7 2 1 6 32 10 69 6 59 5 66 -12 72 -243 73
-555 137 -789 161 -82 8 -165 18 -182 21 l-33 5 0 84 0 85 -2235 0 -2235 0 2
-182 3 -183 48 -8 47 -9 0 -49 c0 -44 2 -49 23 -50 12 0 17 -3 11 -5 -5 -2
-468 36 -1027 86 l-1017 90 -900 0 -899 0 -292 100 -293 100 -303 0 -303 0 0
185 0 185 -850 0 -850 0 0 103 c0 100 -1 104 -28 130 -24 23 -36 27 -90 27
l-62 0 0 95 0 95 -615 0 c-403 0 -615 3 -615 10 0 6 -40 10 -100 10 -60 0
-100 -4 -100 -10 0 -6 -72 -10 -195 -10 l-195 0 0 108 0 108 -140 146 -140
146 0 126 0 126 -2105 0 -2105 0 0 -135z m13257 -3961 c-3 -3 -12 -4 -19 -1
-8 3 -5 6 6 6 11 1 17 -2 13 -5z"/>
</g>
</svg>
