<?xml version="1.0" standalone="no"?>
<!DOCTYPE svg PUBLIC "-//W3C//DTD SVG 20010904//EN"
 "http://www.w3.org/TR/2001/REC-SVG-20010904/DTD/svg10.dtd">
<svg version="1.0" xmlns="http://www.w3.org/2000/svg"
   viewBox="0 0 5000.000000 1927.000000"
 preserveAspectRatio="xMidYMid meet">
<metadata>
Created by potrace 1.16, written by Peter Selinger 2001-2019
</metadata>
<g transform="translate(0.000000,1927.000000) scale(0.100000,-0.100000)"
fill="#000000" stroke="none">
<path d="M25680 19259 c-25 -6 -46 -12 -47 -13 -9 -8 -442 -2149 -447 -2208
l-6 -77 60 -7 c55 -6 60 -9 60 -30 0 -17 -6 -24 -20 -24 -19 0 -20 -7 -20
-140 l0 -140 -285 0 -284 0 -28 35 -28 35 -271 0 -271 0 -7 -31 c-3 -17 -6
-106 -6 -197 0 -149 -3 -174 -27 -263 l-28 -99 -1377 0 -1378 0 -2 -221 -3
-221 -338 -119 -338 -119 -225 0 -224 0 0 -75 0 -75 -210 0 -210 0 0 -80 c0
-44 -2 -80 -4 -80 -2 0 -353 -124 -782 -275 l-778 -275 -1486 0 -1485 0 -1940
-566 -1940 -567 -46 -61 -46 -61 -1519 -358 c-1268 -299 -1656 -395 -2344
-579 l-825 -220 -49 -64 c-27 -36 -58 -66 -70 -69 -12 -2 -392 -31 -846 -65
-454 -34 -1507 -112 -2341 -175 l-1516 -115 -229 -84 c-126 -46 -368 -129
-539 -184 -171 -55 -451 -146 -622 -202 l-313 -101 0 -229 0 -228 122 -41 c68
-22 346 -112 619 -200 272 -88 601 -199 729 -246 l235 -85 2340 -176 c1287
-96 2350 -177 2361 -179 12 -3 44 -33 70 -68 l49 -64 805 -216 c677 -181 1048
-272 2340 -577 l1535 -361 30 -36 c82 -100 -99 -41 2014 -658 l1934 -565 1487
0 1487 0 693 -240 c382 -132 699 -245 704 -250 7 -7 12 -133 14 -340 l4 -330
229 0 229 0 0 -108 0 -109 242 -6 c133 -4 411 -7 619 -7 l378 0 3 -72 3 -73
881 -5 881 -5 -43 -95 c-24 -52 -45 -98 -46 -102 -2 -4 -352 -111 -778 -238
-654 -194 -808 -236 -983 -270 -115 -22 -210 -40 -212 -40 -2 0 -1 -33 1 -72
5 -69 18 -99 217 -535 l211 -463 177 0 177 0 37 -95 36 -95 236 -2 236 -3 174
-365 c96 -201 180 -370 186 -377 7 -6 46 -30 87 -52 l75 -41 178 0 177 0 0
-144 0 -145 255 6 255 6 0 -81 c0 -76 1 -81 23 -85 15 -3 11 -5 -13 -6 -79 -3
-80 -4 -74 -90 4 -42 105 -553 225 -1136 121 -583 219 -1063 219 -1066 0 -3
30 -11 68 -18 74 -13 200 -7 587 29 116 11 218 20 228 20 16 0 17 52 17 948
l-1 947 -129 210 c-148 239 -157 267 -97 303 31 18 63 20 550 27 l517 7 0 -80
c0 -76 1 -81 23 -84 12 -2 -6 -7 -40 -11 l-61 -8 5 -77 c3 -42 104 -555 224
-1138 121 -584 219 -1064 219 -1067 0 -2 28 -10 62 -17 72 -14 151 -10 557 26
151 13 276 24 278 24 1 0 3 426 3 946 l0 946 -125 202 c-113 182 -125 207
-125 248 0 42 3 48 33 66 30 19 59 20 525 27 l492 7 0 -75 c0 -62 3 -78 18
-86 14 -9 12 -10 -13 -11 -16 0 -47 -3 -67 -6 l-38 -7 0 -68 c0 -51 59 -353
221 -1141 122 -590 222 -1074 224 -1076 1 -1 28 -7 61 -13 37 -7 105 -9 184
-4 146 8 640 51 645 57 2 2 5 427 6 944 l2 940 -120 195 c-66 107 -116 196
-111 197 4 2 8 28 8 58 0 52 1 54 40 74 21 11 55 20 74 20 l35 0 38 -115 37
-115 552 0 551 0 161 113 160 114 504 6 c276 4 666 7 865 7 l361 0 114 44 c62
24 195 67 295 95 l181 51 154 0 153 0 330 86 c182 47 357 90 390 94 90 12
1507 44 1541 35 16 -5 151 -7 299 -6 214 2 273 6 286 17 8 8 28 14 43 14 14 0
49 11 76 25 39 20 50 31 50 49 0 23 -2 23 -132 30 -73 3 -338 11 -588 17 -334
8 -466 14 -495 24 -31 11 -167 15 -605 20 -402 4 -657 12 -885 27 -308 20
-374 20 -1764 14 l-1444 -6 -129 45 -130 45 -449 0 -449 0 0 30 c0 17 -1 30
-3 30 -2 0 -311 70 -688 155 l-684 155 -147 0 -148 0 0 40 0 40 168 1 c92 0
302 10 467 22 l300 22 0 25 0 25 -285 22 c-178 13 -383 22 -545 22 l-260 1
-288 273 c-282 267 -287 272 -260 281 16 5 195 51 399 101 l371 91 404 -194
c332 -159 410 -193 435 -189 18 3 246 83 507 178 462 167 476 173 482 200 4
16 11 29 15 29 5 0 57 7 116 16 95 14 109 14 144 0 38 -15 38 -15 732 188
l693 203 178 202 177 202 0 103 0 103 743 6 c408 4 1224 7 1813 7 l1071 0
2426 295 2425 295 1018 196 1019 197 143 117 143 117 300 37 301 37 1669 482
1668 482 98 132 98 131 1375 493 c756 270 1425 510 1485 532 l111 40 -4 32 -4
32 -846 6 c-466 4 -1790 7 -2942 7 -1152 0 -2206 3 -2342 7 l-248 6 0 219 0
218 695 0 695 0 0 104 0 103 38 7 c20 3 161 6 312 7 548 1 1102 19 2570 83
l1495 65 340 166 340 166 145 21 c134 19 156 25 298 85 l152 65 -2 250 -3 249
-145 63 c-135 58 -156 64 -295 83 l-150 22 -340 166 -340 167 -1495 65 c-1464
63 -2017 81 -2570 82 -151 1 -292 4 -312 7 l-38 7 0 103 0 104 -695 0 -695 0
0 218 0 219 188 6 c103 4 1069 7 2147 7 1078 0 2429 3 3002 7 l1041 6 4 33 4
32 -1486 532 -1485 532 -98 132 -98 131 -1672 483 -1672 483 -298 37 -298 37
-142 116 -142 116 -1019 197 -1018 197 -2422 294 -2421 293 -2319 7 -2320 7
-173 99 -172 99 -296 0 -295 0 0 93 0 93 -68 67 -68 67 -592 0 -592 0 0 140 0
139 122 3 122 3 128 208 128 208 0 944 0 944 -42 5 c-75 10 -488 45 -618 52
-84 4 -144 3 -182 -5 -32 -7 -58 -14 -58 -16 0 -3 -98 -483 -219 -1067 -120
-585 -221 -1098 -225 -1140 l-6 -76 65 -7 c60 -7 65 -9 65 -31 0 -17 -6 -24
-20 -24 -19 0 -20 -7 -20 -140 l0 -140 -680 0 -680 0 0 140 0 139 127 3 128 3
127 205 127 205 0 947 1 947 -52 5 c-128 15 -524 46 -633 50 -68 3 -139 1
-165 -5z"/>
</g>
</svg>
