<?xml version="1.0" standalone="no"?>
<!DOCTYPE svg PUBLIC "-//W3C//DTD SVG 20010904//EN"
 "http://www.w3.org/TR/2001/REC-SVG-20010904/DTD/svg10.dtd">
<svg version="1.0" xmlns="http://www.w3.org/2000/svg"
   viewBox="0 0 4607.000000 4558.000000"
 preserveAspectRatio="xMidYMid meet">
<metadata>
Created by potrace 1.16, written by Peter Selinger 2001-2019
</metadata>
<g transform="translate(0.000000,4558.000000) scale(0.100000,-0.100000)"
fill="#000000" stroke="none">
<path d="M23460 45525 c-712 -32 -1246 -59 -1321 -69 -79 -10 -201 -16 -330
-16 -112 0 -295 -3 -406 -7 l-202 -6 -33 -54 c-18 -29 -39 -53 -48 -53 -9 0
-191 -265 -452 -658 -1070 -1611 -1527 -2312 -2956 -4537 -667 -1039 -1214
-1891 -1215 -1892 -1 0 -125 -14 -275 -30 l-273 -28 -382 -525 -383 -525 -325
-5 -324 -5 -48 -40 -47 -39 0 -181 c0 -99 -3 -393 -7 -652 l-6 -473 -882 0
-882 0 -6 -277 c-4 -153 -7 -383 -7 -510 l0 -233 -135 0 -135 0 0 -870 0 -870
140 0 140 0 0 -156 0 -156 113 -128 112 -129 768 0 767 -1 0 -573 0 -573 570
-315 569 -314 1 -272 0 -272 1465 6 1465 6 0 -505 c0 -278 3 -533 6 -567 l7
-61 288 0 289 0 0 -24 c0 -26 -16 -36 -61 -36 l-29 0 0 -858 0 -859 108 -48
c59 -26 110 -50 114 -54 4 -3 -49 -170 -117 -371 -122 -357 -125 -367 -125
-452 0 -49 -2 -88 -4 -88 -3 0 -1613 189 -3578 420 -1965 230 -3715 435 -3888
455 -173 19 -330 37 -347 40 l-33 6 0 224 0 225 44 0 c54 0 76 8 76 26 0 11
23 14 110 14 91 0 110 3 110 15 0 13 92 15 769 15 423 0 776 3 785 6 9 3 16
12 16 19 0 16 448 26 1292 28 384 1 588 5 588 12 0 7 -260 9 -765 7 -525 -2
-765 0 -765 8 0 6 -60 10 -175 10 -143 0 -175 3 -175 14 0 8 -7 17 -16 20 -9
3 -362 6 -785 6 -762 0 -769 0 -769 20 0 19 -7 20 -104 20 -83 0 -105 3 -110
15 -3 10 -19 15 -43 15 -80 0 -82 2 -85 98 l-3 87 -955 208 -955 208 -1203
-11 c-662 -7 -1205 -10 -1208 -8 -2 3 88 988 201 2189 113 1201 206 2204 208
2229 l2 45 -37 3 c-36 3 -37 3 -43 -40 -3 -24 -109 -1008 -235 -2188 -126
-1180 -232 -2166 -236 -2192 l-6 -48 -744 0 -744 0 0 115 0 115 -1752 0 -1753
0 -657 -232 -658 -232 0 -306 c0 -168 -3 -525 -7 -794 l-6 -489 -159 -125
-158 -125 -2 -539 c-2 -296 -3 -624 -3 -729 l0 -191 528 -270 527 -270 0 -197
0 -197 295 -439 295 -439 0 -256 0 -255 -295 -439 -295 -439 0 -198 0 -197
-527 -270 -528 -270 0 -191 c0 -105 1 -433 3 -729 l2 -538 158 -126 159 -125
6 -489 c4 -269 7 -626 7 -794 l0 -306 657 -232 658 -232 1753 0 1752 0 0 109
0 109 31 6 c17 3 352 6 744 6 l713 0 6 -48 c4 -26 110 -1012 236 -2192 126
-1180 232 -2164 235 -2188 6 -43 7 -43 43 -40 l37 3 -2 45 c-2 25 -95 1028
-208 2229 -113 1201 -203 2186 -201 2189 3 2 546 -1 1208 -8 l1203 -11 955
208 955 208 3 87 c3 96 5 98 85 98 24 0 40 5 43 15 5 12 27 15 110 15 97 0
104 1 104 20 0 20 7 20 769 20 423 0 776 3 785 6 9 3 16 12 16 20 0 11 33 14
180 14 119 0 180 4 180 10 0 8 237 10 765 8 607 -2 765 0 765 10 0 9 -141 12
-673 12 -830 0 -1217 8 -1217 26 0 6 -7 15 -16 18 -9 3 -362 6 -785 6 -677 0
-769 2 -769 15 0 12 -19 15 -110 15 -87 0 -110 3 -110 14 0 18 -22 26 -76 26
l-44 0 0 225 0 224 33 6 c17 3 174 21 347 40 173 20 1923 224 3888 455 1965
231 3575 420 3578 420 2 0 4 -39 4 -87 0 -86 3 -96 125 -453 68 -201 121 -368
117 -371 -4 -4 -55 -28 -114 -54 l-108 -48 0 -859 0 -858 29 0 c45 0 61 -10
61 -36 l0 -24 -289 0 -288 0 -7 -61 c-3 -34 -6 -289 -6 -567 l0 -505 -1465 6
-1465 6 0 -272 -1 -272 -569 -314 -570 -314 0 -574 0 -573 -767 -1 -768 0
-112 -129 -113 -128 0 -156 0 -156 -140 0 -140 0 0 -870 0 -870 135 0 135 0 0
-232 c0 -128 3 -358 7 -510 l6 -278 882 0 882 0 6 -472 c4 -260 7 -554 7 -653
l0 -181 47 -39 48 -40 324 -5 325 -5 383 -525 383 -525 272 -28 c150 -16 274
-30 275 -30 1 -1 548 -853 1216 -1892 1277 -1989 1397 -2174 2074 -3204 831
-1264 1318 -1991 1333 -1991 9 0 30 -24 48 -53 l33 -54 226 -6 c124 -4 307 -7
407 -7 105 0 232 -7 305 -16 75 -9 622 -38 1336 -69 l1210 -53 88 59 c85 58
89 59 156 59 l68 0 21 50 c12 28 100 299 197 603 97 304 337 1052 532 1662
234 728 608 1938 1088 3515 l730 2405 213 3 c166 2 212 0 212 -10 -1 -7 -47
-209 -104 -448 -57 -239 -101 -438 -97 -442 3 -4 19 -8 35 -10 l29 -3 115 458
114 457 714 0 714 0 0 1948 0 1947 388 261 c213 144 644 425 957 626 636 407
1006 647 1017 657 8 7 80 312 76 317 -2 1 -188 39 -413 83 -470 92 -706 127
-762 114 -62 -14 -782 64 -1733 189 l-864 113 907 3 907 2 0 35 0 35 4165 0
c2770 0 4165 3 4165 10 0 7 1298 10 3875 10 l3875 0 0 55 0 55 -3875 0 c-2577
0 -3875 3 -3875 10 0 7 -1395 10 -4165 10 l-4165 0 0 35 0 35 -2027 0 -2028 0
-335 44 -336 45 -429 -35 c-237 -18 -442 -34 -457 -34 l-28 0 0 180 0 180
5875 0 c5868 0 5875 0 5875 20 0 20 -7 20 -5875 20 l-5875 0 0 89 0 89 -312 6
c-172 3 -424 7 -561 9 l-247 2 0 -47 0 -48 -50 0 -50 0 0 595 0 595 -35 0 -35
0 0 155 0 155 -150 0 -150 0 0 515 0 515 113 0 112 0 52 48 51 47 126 373 c69
205 131 382 136 392 10 18 22 20 159 20 81 0 270 3 420 7 273 6 273 6 288 30
13 19 17 73 23 271 l7 247 1 -347 2 -348 23 0 c12 0 257 -9 544 -20 l523 -20
1642 301 c1340 245 7866 1385 7875 1375 1 -1 -128 -78 -288 -170 -229 -134
-289 -172 -283 -185 3 -9 11 -29 17 -46 5 -16 11 -31 11 -32 7 -10 211 62 801
286 l690 262 550 160 c488 141 637 188 752 235 l33 13 -15 41 c-8 22 -28 60
-44 83 -26 39 -41 48 -130 83 -56 21 -101 41 -101 44 1 3 281 182 623 398
l622 393 268 295 267 295 0 299 0 299 -267 295 -268 295 -622 393 c-342 216
-622 395 -622 398 -1 3 44 23 100 44 89 35 104 44 130 83 16 23 36 61 44 83
l15 41 -33 13 c-115 47 -264 94 -752 235 l-550 160 -690 262 c-590 224 -794
296 -801 286 0 -1 -6 -15 -11 -32 -6 -16 -14 -37 -17 -46 -6 -13 54 -51 283
-185 160 -92 289 -169 288 -170 -9 -10 -6581 1139 -7900 1380 l-1617 296 -523
-20 c-287 -11 -532 -20 -544 -20 l-23 0 -2 -347 -1 -348 -7 247 c-6 198 -10
252 -23 271 -15 24 -15 24 -288 30 -150 4 -341 7 -424 7 l-152 0 -132 393
-133 392 -51 47 -52 48 -112 0 -113 0 0 515 0 515 150 0 150 0 0 155 0 155 35
0 35 0 0 595 0 595 50 0 50 0 0 -47 0 -48 227 2 c126 2 378 6 561 9 l332 6 0
289 0 289 33 0 c17 0 223 -16 457 -35 l425 -34 449 60 449 59 3134 0 3133 0 0
40 0 40 -2811 2 -2811 3 1543 203 c1588 208 2364 298 2424 279 48 -14 287 21
763 115 397 78 413 82 409 102 -3 12 -20 83 -37 158 l-32 138 -362 233 c-198
129 -424 274 -501 323 l-139 89 2317 3 2317 2 0 25 0 25 -2360 0 -2359 0 -176
113 -176 112 1360 3 c896 1 1361 5 1361 12 0 7 1284 10 3805 10 3798 0 3805 0
3805 20 0 20 -7 20 -3805 20 -2530 0 -3805 3 -3805 10 0 7 -483 10 -1428 10
l-1428 0 -397 268 -397 267 0 1948 0 1947 -714 0 -714 0 -114 458 -115 457
-29 -3 c-16 -2 -32 -6 -35 -10 -4 -4 40 -203 97 -442 57 -239 103 -441 104
-448 0 -10 -46 -12 -212 -10 l-212 3 -731 2405 c-481 1582 -853 2785 -1087
3515 -196 611 -436 1358 -532 1661 -97 303 -185 574 -197 602 l-22 52 -68 0
c-68 0 -70 1 -156 60 -47 33 -93 59 -102 59 -9 -1 -554 -25 -1211 -54z m-2608
-1256 c104 -55 153 -77 158 -69 10 16 71 -16 77 -41 3 -11 45 -39 112 -73 58
-31 112 -59 119 -64 11 -7 5 -26 -26 -88 l-40 -79 -388 -44 c-214 -23 -402
-45 -418 -48 -28 -6 -27 -4 36 90 72 107 79 144 31 166 -13 6 -23 15 -21 20 4
12 202 311 206 311 2 0 71 -36 154 -81z m-566 -909 c97 -51 175 -86 179 -80 8
14 97 -31 91 -47 -3 -8 48 -40 139 -88 80 -42 145 -80 145 -83 -1 -4 -7 -18
-14 -32 -14 -24 -19 -25 -468 -77 -249 -28 -465 -52 -481 -52 l-27 -1 55 82
c65 98 69 122 21 145 l-34 16 101 153 c56 84 106 154 111 154 5 0 87 -41 182
-90z m-559 -881 c107 -55 199 -98 206 -96 17 6 107 -41 107 -56 0 -6 70 -48
155 -92 85 -44 155 -83 155 -86 0 -3 -6 -13 -12 -22 -11 -14 -102 -27 -533
-77 -286 -33 -526 -60 -533 -60 -7 0 15 40 48 90 71 106 77 141 29 165 l-30
16 18 28 c10 15 56 87 103 159 47 72 87 131 89 132 2 0 91 -45 198 -101z
m2363 -12381 c0 -37 -10 -58 -66 -140 l-67 -98 -611 0 -611 0 -72 96 c-56 73
-73 103 -73 128 l0 33 68 6 c37 4 106 7 155 7 l87 0 0 -53 0 -54 373 4 c204 2
441 6 525 9 l152 6 0 49 0 49 70 0 70 0 0 -42z m-66 -14475 c56 -83 66 -104
66 -140 l0 -43 -70 0 -70 0 0 49 0 49 -132 6 c-73 3 -310 7 -525 9 l-393 4 0
-53 0 -54 -72 0 c-40 0 -110 3 -155 7 l-83 6 0 33 c0 25 17 55 73 128 l72 96
611 0 611 0 67 -97z m-2218 -12093 c433 -50 521 -63 532 -77 6 -9 12 -19 12
-22 0 -3 -70 -42 -155 -86 -85 -44 -155 -85 -155 -91 0 -14 -91 -63 -107 -57
-7 2 -100 -41 -208 -97 -108 -56 -197 -101 -198 -99 -2 2 -41 63 -88 134 -47
72 -93 142 -103 157 -17 27 -17 27 13 43 48 24 42 59 -29 165 -37 55 -55 90
-47 90 8 0 248 -27 533 -60z m552 -903 c449 -52 454 -52 468 -77 7 -14 13 -28
14 -32 0 -3 -65 -41 -145 -83 -91 -48 -142 -80 -139 -88 6 -16 -83 -61 -91
-46 -4 5 -80 -29 -179 -81 -96 -49 -177 -90 -182 -90 -5 0 -55 70 -111 154
l-101 153 34 16 c48 23 44 47 -21 145 l-55 82 27 0 c16 -1 232 -24 481 -53z
m506 -858 l388 -44 40 -79 c31 -62 37 -81 26 -88 -7 -5 -61 -33 -119 -64 -67
-34 -109 -62 -112 -73 -6 -25 -67 -57 -77 -42 -4 8 -58 -15 -159 -69 -84 -45
-154 -80 -156 -78 -1 2 -48 72 -105 157 -94 142 -101 155 -85 167 10 7 22 15
26 16 5 2 9 17 11 33 1 22 -14 54 -61 124 -63 93 -63 94 -35 89 16 -3 204 -25
418 -49z"/>
</g>
</svg>
