<?xml version="1.0" standalone="no"?>
<!DOCTYPE svg PUBLIC "-//W3C//DTD SVG 20010904//EN"
 "http://www.w3.org/TR/2001/REC-SVG-20010904/DTD/svg10.dtd">
<svg version="1.0" xmlns="http://www.w3.org/2000/svg"
   viewBox="0 0 3814.000000 1941.000000"
 preserveAspectRatio="xMidYMid meet">
<metadata>
Created by potrace 1.16, written by Peter Selinger 2001-2019
</metadata>
<g transform="translate(0.000000,1941.000000) scale(0.100000,-0.100000)"
fill="#000000" stroke="none">
<path d="M5485 19400 c-224 -7 -275 -23 -383 -119 l-70 -61 -283 0 -283 0 -51
-49 c-40 -38 -76 -60 -180 -104 -115 -49 -145 -57 -260 -73 -73 -9 -158 -28
-195 -41 -36 -14 -96 -29 -135 -33 -38 -5 -82 -13 -97 -19 l-28 -11 0 -647 0
-648 47 -127 47 -127 296 -271 296 -271 142 -307 c181 -392 301 -734 523
-1492 88 -300 164 -559 170 -576 9 -30 11 -31 85 -37 42 -3 78 -7 80 -10 2 -2
44 -170 92 -373 l89 -369 77 -116 77 -116 114 -53 114 -52 48 -74 c58 -90 100
-114 199 -114 l64 0 0 -280 0 -280 -190 0 c-168 0 -199 -3 -267 -22 -71 -21
-80 -27 -137 -91 l-61 -69 -96 -311 -95 -312 28 -3 28 -3 0 -90 0 -89 -515 0
-515 0 0 85 0 85 -40 0 -40 0 0 310 0 310 -34 127 -35 127 -97 97 -97 97 -116
31 c-116 30 -116 30 -483 37 l-368 7 0 49 0 48 -105 0 -105 0 0 175 0 175
-1370 0 -1370 0 0 -35 0 -35 270 0 270 0 0 -160 0 -160 -29 0 c-15 0 -119 38
-230 85 -138 58 -215 85 -242 85 l-39 0 0 -489 c0 -527 -3 -501 50 -501 10 0
110 38 222 85 113 47 217 85 236 85 l32 0 0 -180 0 -180 260 0 260 0 0 -225 0
-225 -90 0 -90 0 0 -200 0 -200 -65 25 -65 24 0 -304 0 -303 -194 -119 c-167
-101 -195 -122 -200 -147 -8 -38 -8 -1055 0 -1092 5 -25 33 -46 200 -147 l194
-119 0 -313 0 -314 65 24 65 25 0 -190 0 -190 90 0 90 0 0 -225 0 -225 -260 0
-260 0 0 -180 0 -180 -32 0 c-19 0 -124 38 -238 86 -137 57 -214 84 -235 82
l-30 -3 -3 -493 -2 -492 38 0 c26 0 106 28 242 85 112 47 216 85 232 85 l28 0
0 -160 0 -160 -270 0 -270 0 0 -35 0 -35 1370 0 1370 0 0 175 0 175 105 0 105
0 0 48 0 49 113 6 c61 4 226 7 366 7 253 0 255 0 371 31 l117 31 97 97 97 97
35 127 34 127 0 310 0 310 40 0 40 0 0 85 0 85 515 0 515 0 0 -89 0 -90 -28
-3 -28 -3 96 -311 95 -311 62 -70 c60 -67 65 -70 141 -91 68 -19 106 -22 266
-22 l186 0 0 -280 0 -280 -64 0 c-102 0 -142 -22 -198 -112 l-47 -74 -114 -53
-114 -52 -77 -114 -78 -114 -89 -372 c-49 -205 -91 -374 -93 -376 -1 -2 -37
-6 -79 -9 l-77 -7 -24 -81 c-14 -45 -90 -304 -170 -576 -206 -701 -338 -1075
-513 -1452 l-138 -298 -295 -270 -295 -270 -47 -126 -48 -126 0 -649 0 -649
28 -11 c15 -6 59 -14 97 -19 39 -4 99 -19 135 -33 37 -14 120 -31 195 -41 115
-15 144 -24 260 -73 105 -44 140 -64 180 -104 l51 -49 282 0 283 0 75 -64 c61
-52 91 -70 152 -90 76 -26 80 -26 405 -26 l329 0 76 27 c59 21 94 41 151 90
l74 63 322 0 322 0 74 -63 c57 -49 92 -69 151 -90 l76 -27 329 0 c324 0 329 0
404 25 61 21 92 39 152 90 l75 65 269 0 268 1 63 90 c35 49 76 120 92 159 l30
69 0 235 0 236 43 0 c33 0 58 10 114 44 l71 45 1543 50 c849 28 1552 51 1562
51 9 0 17 7 17 15 0 12 -15 15 -72 15 -40 0 -742 22 -1560 49 l-1487 49 -68
41 c-55 32 -79 41 -116 41 l-47 0 0 2138 0 2137 -34 269 -35 269 -53 54 -52
53 -143 0 -143 0 0 55 c0 49 3 57 30 77 l30 22 0 203 0 203 730 0 730 0 0
-575 0 -575 303 0 302 0 64 -80 64 -80 476 1 476 0 63 80 63 79 168 0 169 0
67 -80 67 -80 473 0 474 0 63 80 63 80 305 0 305 1 73 120 72 120 0 183 0 183
161 7 161 7 208 92 208 92 172 199 c151 176 185 209 282 279 l110 80 142 33
c83 20 169 33 209 34 l67 0 0 -45 0 -45 520 0 520 0 0 -415 0 -415 2400 0
2400 0 0 429 0 428 -132 17 c-73 10 -141 20 -150 22 -16 5 -18 23 -18 200 l0
194 100 0 100 0 0 105 0 105 305 0 305 0 0 -50 c0 -48 1 -49 38 -59 48 -14
366 -14 415 0 36 10 37 11 37 59 l0 50 65 0 65 0 0 -50 c0 -48 1 -49 38 -59
50 -14 380 -14 421 0 29 10 31 14 31 60 l0 49 65 0 65 0 0 -48 c0 -48 1 -49
39 -60 50 -15 377 -16 420 -1 29 10 31 14 31 60 l0 49 480 0 480 0 0 -154 0
-153 127 -107 127 -106 99 0 99 0 72 -45 c68 -42 77 -45 142 -45 58 0 71 -3
82 -20 11 -18 23 -20 108 -20 l96 0 47 -39 c44 -36 52 -39 167 -56 112 -15
129 -16 228 -1 59 9 110 16 115 16 5 0 31 18 57 40 l49 40 159 0 160 0 45 -39
c44 -36 52 -39 167 -55 112 -16 129 -17 228 -2 59 9 110 16 115 16 5 0 31 18
57 40 l49 40 97 0 c87 0 98 2 108 20 10 19 21 20 160 20 140 0 163 3 356 45
206 45 208 45 342 39 l134 -7 47 -60 46 -59 155 7 155 7 3725 888 3725 888
795 26 c437 15 807 26 823 26 25 0 27 3 27 44 l0 44 -72 6 c-40 3 -320 13
-623 22 -302 8 -580 18 -617 22 l-68 7 35 44 35 44 0 567 0 567 -35 44 -35 44
73 7 c39 3 322 14 627 22 305 9 583 19 618 22 l62 6 0 44 c0 39 -3 44 -22 44
-13 0 -383 11 -823 26 l-800 26 -3725 889 -3725 888 -156 7 -155 7 -38 -52
c-21 -28 -46 -56 -56 -61 -10 -6 -86 -10 -168 -10 -138 0 -163 3 -327 40 -165
37 -189 40 -331 40 -143 0 -154 1 -164 20 -10 18 -21 20 -108 20 l-97 0 -49
40 c-26 22 -52 40 -57 40 -5 0 -57 7 -116 16 -101 15 -116 15 -228 -1 -113
-17 -123 -20 -166 -56 l-47 -39 -159 0 -158 0 -49 40 c-26 22 -52 40 -57 40
-5 0 -57 7 -116 16 -101 15 -116 15 -228 -1 -113 -17 -123 -20 -166 -56 l-47
-39 -94 0 c-82 0 -97 -3 -113 -20 -15 -16 -31 -20 -83 -20 -59 0 -71 -4 -139
-45 l-74 -45 -99 0 -98 0 -126 -106 -126 -106 0 -154 0 -154 -480 0 -480 0 0
49 c0 46 -2 50 -31 60 -41 14 -371 14 -421 0 -37 -10 -38 -11 -38 -59 l0 -50
-65 0 -65 0 0 49 c0 46 -2 50 -31 60 -41 14 -371 14 -421 0 -37 -10 -38 -11
-38 -59 l0 -50 -65 0 -65 0 0 50 c0 48 -1 49 -37 59 -49 14 -367 14 -415 0
-37 -10 -38 -11 -38 -59 l0 -50 -305 0 -305 0 0 105 0 105 -100 0 -100 0 0
194 c0 177 2 195 18 200 9 2 77 13 150 22 l132 18 0 428 0 428 -2400 0 -2400
0 0 -415 0 -415 -520 0 -520 0 0 -40 0 -40 -87 0 c-61 0 -126 9 -209 29 -120
27 -123 29 -232 108 -97 70 -130 103 -282 279 l-171 199 -209 92 -208 92 -161
7 -161 7 0 183 0 183 -72 120 -73 120 -305 1 -305 0 -63 80 -63 80 -474 0
-473 0 -67 -80 -67 -80 -169 0 -168 0 -63 79 -63 80 -477 0 -477 1 -63 -80
-63 -80 -302 0 -303 0 0 -575 0 -575 -730 0 -730 0 0 203 0 203 -30 22 c-27
20 -30 28 -30 77 l0 55 143 0 143 0 52 53 53 53 34 269 35 269 0 2138 0 2138
47 0 c37 0 61 9 116 41 l68 41 1482 49 c815 27 1517 49 1560 49 62 0 77 3 77
15 0 8 -8 15 -17 15 -10 0 -712 23 -1561 50 l-1543 51 -73 44 c-56 34 -84 45
-115 45 l-41 0 0 236 0 235 -29 69 c-16 38 -58 110 -93 159 l-63 91 -268 0
-268 0 -75 64 c-61 52 -91 70 -153 91 -76 25 -79 25 -408 25 l-331 0 -74 -27
c-53 -19 -94 -44 -148 -90 l-75 -63 -321 0 -321 0 -74 63 c-112 96 -161 111
-379 117 -96 3 -256 3 -355 0z m8984 -6763 l124 -51 140 -175 c133 -164 149
-180 272 -271 230 -170 214 -162 386 -200 l154 -35 -187 -3 c-158 -2 -188 -5
-188 -17 0 -13 -24 -15 -150 -15 l-150 0 0 51 c0 40 -15 87 -70 222 l-71 172
-82 57 c-45 31 -105 73 -134 93 -46 33 -66 39 -189 61 -76 13 -160 24 -186 24
l-48 0 0 75 0 76 128 -6 c124 -7 130 -8 251 -58z m-10749 -127 c49 -13 95 -65
109 -122 7 -30 11 -159 11 -352 l0 -306 -25 0 c-25 0 -25 -1 -25 -85 l0 -85
-250 0 -250 0 0 -22 c0 -13 -3 -33 -6 -45 l-6 -23 -373 0 -372 0 -6 167 c-4
91 -7 192 -7 225 l0 58 110 0 110 0 0 265 0 265 105 0 105 0 0 35 0 35 368 0
c210 0 382 -4 402 -10z m-2200 -672 c0 -46 -3 -113 -7 -150 l-6 -68 -113 0
-114 0 0 150 0 150 120 0 120 0 0 -82z m460 -68 l0 -150 -170 0 -170 0 0 150
0 150 170 0 170 0 0 -150z m420 0 l0 -150 -60 0 -60 0 0 150 0 150 60 0 60 0
0 -150z m884 -3862 c3 -13 6 -33 6 -45 l0 -23 250 0 250 0 0 -85 c0 -84 0 -85
25 -85 l25 0 0 -306 c0 -193 -4 -322 -11 -352 -14 -57 -60 -109 -109 -122 -20
-6 -192 -10 -402 -10 l-368 0 0 35 0 35 -105 0 -105 0 0 265 0 265 -110 0
-110 0 0 58 c0 33 3 134 7 225 l6 167 372 0 373 0 6 -22z m-884 -278 l0 -150
-60 0 -60 0 0 150 0 150 60 0 60 0 0 -150z m-886 79 c3 -34 6 -100 6 -145 l0
-84 -120 0 -120 0 0 145 0 145 114 0 113 0 7 -61z m466 -84 l0 -145 -170 0
-170 0 0 145 0 145 170 0 170 0 0 -145z m13190 -110 c0 -12 30 -15 187 -17
l187 -3 -149 -34 c-83 -18 -159 -38 -170 -44 -11 -6 -93 -64 -183 -130 -162
-118 -165 -122 -307 -296 l-142 -176 -124 -52 c-121 -50 -127 -51 -251 -58
l-128 -6 0 76 0 75 48 0 c26 0 110 11 186 24 123 22 143 28 189 61 29 20 89
62 134 93 l82 57 70 172 c56 135 71 183 71 223 l0 50 150 0 c126 0 150 -2 150
-15z"/>
</g>
</svg>
