<?xml version="1.0" standalone="no"?>
<!DOCTYPE svg PUBLIC "-//W3C//DTD SVG 20010904//EN"
 "http://www.w3.org/TR/2001/REC-SVG-20010904/DTD/svg10.dtd">
<svg version="1.0" xmlns="http://www.w3.org/2000/svg"
   viewBox="0 0 2829.000000 1293.000000"
 preserveAspectRatio="xMidYMid meet">
<metadata>
Created by potrace 1.16, written by Peter Selinger 2001-2019
</metadata>
<g transform="translate(0.000000,1293.000000) scale(0.100000,-0.100000)"
fill="#000000" stroke="none">
<path d="M9025 12860 l-69 -70 -256 0 -256 0 -129 -43 -130 -44 0 -298 0 -298
130 -44 129 -43 254 0 253 0 74 -50 74 -50 315 0 316 0 25 50 25 50 113 0 113
0 49 -50 49 -50 158 0 158 0 0 -110 0 -110 -205 0 -205 0 -25 -50 -25 -50 -90
0 -90 0 -25 50 -25 50 -203 0 -203 0 -49 -50 -49 -50 -188 0 c-159 0 -202 -3
-273 -21 l-85 -21 0 -228 0 -228 85 -21 c71 -18 114 -21 270 -21 178 0 188 -1
235 -25 31 -16 66 -25 95 -25 l46 0 -3 -92 -3 -93 -590 -136 -590 -136 -870
-268 c-478 -147 -1070 -325 -1315 -396 -1055 -304 -932 -261 -1720 -592 -661
-277 -1082 -441 -1985 -772 l-320 -118 -425 -290 c-328 -225 -516 -345 -825
-527 l-400 -236 -182 -339 -182 -340 0 -235 0 -235 182 -340 182 -339 400
-236 c309 -182 497 -302 825 -527 l425 -290 415 -153 c685 -251 1087 -403
1875 -708 1263 -489 1473 -558 2715 -892 344 -93 771 -213 950 -268 179 -54
576 -166 882 -248 l558 -149 0 -67 0 -68 -43 0 c-38 0 -48 -5 -92 -50 l-49
-50 -188 0 c-159 0 -202 -3 -273 -21 l-85 -21 0 -228 0 -228 85 -21 c71 -18
114 -21 270 -21 178 0 188 -1 235 -25 48 -24 55 -25 258 -25 l209 0 23 25 c22
23 31 25 110 25 79 0 88 -2 110 -25 l23 -25 209 0 208 0 0 -115 0 -115 -160 0
-160 0 -46 -70 -47 -70 -113 0 -114 0 -25 50 -25 50 -316 0 -315 0 -74 -50
-74 -50 -253 0 -254 0 -129 -43 -130 -44 0 -298 0 -298 130 -44 129 -43 256 0
255 0 67 -45 67 -45 324 0 c311 0 325 1 342 20 16 18 31 20 137 20 99 0 125
-3 158 -20 38 -19 59 -20 641 -20 l602 0 88 66 89 66 0 93 0 94 43 6 c23 3
200 23 392 45 l350 39 590 136 590 136 595 229 c576 221 612 237 1110 475 283
136 633 300 777 366 253 115 265 119 331 119 l68 0 23 -70 22 -70 207 0 c163
0 323 9 747 46 l540 46 847 250 c466 138 851 254 856 257 5 3 88 116 186 249
139 192 192 274 246 383 39 76 70 151 70 166 0 18 -50 112 -141 263 -78 129
-161 273 -184 320 -24 47 -54 95 -66 106 -15 14 -78 37 -162 61 l-137 39 40
39 40 39 173 -57 c95 -31 181 -57 192 -57 11 0 92 42 180 93 l159 92 46 160
47 160 -91 183 -91 182 227 454 c225 451 227 455 249 570 l23 116 93 0 c91 0
96 1 183 45 l90 45 0 45 0 45 2239 0 2238 0 46 69 45 68 79 6 c43 4 671 28
1396 54 l1317 48 0 125 0 126 -1312 47 c-722 26 -1351 51 -1396 54 l-84 6 -45
68 -46 69 -2238 0 -2239 0 0 45 0 45 -90 45 c-87 44 -92 45 -183 45 l-93 0
-22 114 c-22 110 -30 129 -248 587 -125 261 -227 479 -227 484 0 6 39 78 86
161 48 83 87 160 86 170 0 10 -19 84 -42 164 l-43 145 -159 92 c-88 51 -170
93 -182 93 -13 0 -106 -19 -209 -41 l-186 -41 -39 38 c-48 47 -52 45 133 69
l137 19 47 69 c25 39 57 101 69 138 16 45 46 98 93 161 38 51 75 111 82 133 7
22 37 72 67 111 33 44 53 81 53 98 0 14 -31 89 -70 165 -54 109 -107 191 -246
383 -98 133 -181 246 -186 249 -5 3 -390 119 -856 257 l-847 251 -535 46
c-424 36 -579 45 -747 45 l-211 0 -23 -67 c-12 -38 -23 -69 -24 -70 -6 -9
-175 60 -405 165 -656 297 -1304 571 -1880 792 l-595 229 -590 137 -590 136
-350 39 c-192 21 -369 41 -392 44 l-43 6 0 117 -1 117 -91 68 -92 67 -596 0
-596 0 -44 -45 -44 -45 -113 0 -113 0 -22 45 -22 45 -321 0 -321 0 -69 -70z
m2833 -621 l347 -41 575 -138 575 -139 590 -204 590 -205 495 -237 c272 -131
644 -300 825 -376 182 -76 325 -139 319 -139 -39 0 -1017 232 -1444 344 l-515
134 -598 47 c-419 32 -778 67 -1200 115 l-602 70 -422 0 -423 0 0 42 c0 33
-10 57 -47 115 l-48 73 -67 0 -68 0 0 110 0 110 272 0 271 0 94 70 93 70 0
110 c0 104 1 110 21 110 11 0 176 -18 367 -41z m-443 -1114 c-231 -35 -426
-64 -432 -65 -9 0 -13 19 -13 65 l0 65 433 -1 432 -1 -420 -63z m-1430 -115
c25 -50 25 -50 75 -50 38 0 50 -4 50 -15 0 -8 -2 -15 -4 -15 -3 0 -109 -16
-237 -35 -129 -19 -241 -35 -251 -35 -16 0 -18 10 -18 75 l0 75 68 0 c60 0 71
3 92 25 22 23 31 25 112 25 l88 0 25 -50z m6185 -8897 c-86 -32 -652 -272
-1085 -460 -369 -161 -732 -309 -1145 -468 l-605 -232 -570 -136 -570 -137
-342 -40 c-188 -22 -351 -40 -362 -40 -20 0 -21 5 -21 133 l0 132 -90 68 -90
67 -275 0 -275 0 0 115 0 115 67 0 c67 0 68 0 115 47 43 43 48 52 48 93 l0 46
443 22 c704 34 1534 103 2217 182 l595 69 575 126 c316 69 748 165 960 214
338 78 463 104 410 84z m-6299 -128 c129 -19 234 -35 236 -35 1 0 0 -7 -3 -15
-4 -10 -20 -15 -50 -15 -42 0 -44 -1 -69 -50 l-25 -50 -90 0 -90 0 -25 50 -25
50 -65 0 -65 0 0 50 c0 43 3 50 19 50 11 0 124 -16 252 -35z m1515 -224 c219
-33 410 -61 424 -64 14 -2 -170 -5 -407 -6 l-433 -1 0 65 c0 36 4 65 9 65 4 0
188 -27 407 -59z"/>
</g>
</svg>
