<?xml version="1.0" standalone="no"?>
<!DOCTYPE svg PUBLIC "-//W3C//DTD SVG 20010904//EN"
 "http://www.w3.org/TR/2001/REC-SVG-20010904/DTD/svg10.dtd">
<svg version="1.0" xmlns="http://www.w3.org/2000/svg"
   viewBox="0 0 4257.000000 5000.000000"
 preserveAspectRatio="xMidYMid meet">
<metadata>
Created by potrace 1.16, written by Peter Selinger 2001-2019
</metadata>
<g transform="translate(0.000000,5000.000000) scale(0.100000,-0.100000)"
fill="#000000" stroke="none">
<path d="M36960 49963 c0 -73 -340 -9639 -346 -9730 -5 -83 -8 -93 -25 -93
-10 0 -19 -4 -19 -9 0 -20 469 -1399 634 -1864 98 -275 175 -501 172 -504 -3
-3 -390 -90 -860 -193 l-855 -188 -1068 -295 -1068 -295 -465 -170 c-454 -165
-465 -168 -476 -148 -6 12 -611 1450 -1344 3196 -733 1746 -1334 3176 -1336
3178 -1 2 -111 -51 -243 -118 -225 -112 -242 -122 -235 -143 50 -157 1994
-6564 1994 -6572 -1 -5 -285 -179 -632 -385 -623 -370 -639 -381 -1287 -829
l-656 -455 -600 -516 -600 -517 -274 -292 c-150 -160 -275 -291 -278 -291 -3
0 -1165 545 -2584 1211 -1418 666 -2583 1209 -2589 1207 -15 -5 -189 -302
-182 -310 4 -3 1078 -646 2387 -1427 1309 -782 2384 -1426 2388 -1430 5 -5
-129 -247 -309 -557 -307 -531 -329 -573 -665 -1259 l-348 -710 -147 -400
c-80 -220 -150 -404 -154 -408 -4 -5 -164 23 -354 62 l-347 71 -146 -7 -146
-6 -441 -169 c-430 -165 -462 -176 -1266 -415 l-825 -246 -915 -22 -915 -22
-515 -112 c-283 -61 -1036 -227 -1674 -367 -1042 -230 -1160 -254 -1175 -240
-15 13 -122 10 -1011 -35 l-995 -51 -1795 111 c-987 61 -1814 111 -1838 111
-32 0 -87 -20 -223 -82 l-180 -82 7 -203 7 -203 -189 0 c-104 0 -1427 14
-2941 31 -2750 31 -2752 31 -2780 11 -27 -19 -104 -23 -1638 -86 -885 -36
-1808 -73 -2050 -81 -330 -12 -452 -19 -486 -31 l-46 -15 -7 -91 c-8 -116 -8
-337 0 -415 l7 -61 56 -16 c46 -13 419 -30 2092 -95 1863 -72 2039 -80 2064
-97 25 -16 211 -26 2005 -108 1088 -50 1978 -91 1977 -91 -1 0 -987 2 -2192 5
l-2190 6 -48 -45 -47 -45 0 -516 0 -516 44 -43 43 -42 2189 3 c1204 2 2176 2
2159 1 -16 -1 -898 -41 -1960 -88 -1811 -81 -1932 -88 -1970 -106 -38 -19
-151 -25 -2080 -100 -1581 -62 -2052 -83 -2091 -95 l-51 -15 -7 -61 c-8 -79
-8 -299 0 -416 l7 -91 51 -15 c37 -11 177 -19 501 -30 248 -9 1168 -46 2045
-82 1519 -63 1595 -67 1622 -86 28 -19 30 -19 2766 11 1505 17 2829 32 2941
34 l204 2 -7 -205 -7 -205 183 -84 183 -84 1845 113 1845 113 985 -51 c882
-45 987 -49 1002 -35 15 14 128 -9 1155 -236 626 -138 1379 -303 1673 -367
l535 -117 915 -22 915 -21 815 -243 c448 -133 1053 -317 1345 -407 l529 -165
414 56 c230 32 417 53 422 49 5 -5 74 -189 155 -409 l146 -400 344 -703 c333
-681 355 -721 666 -1259 179 -309 318 -558 313 -563 -5 -5 -1080 -648 -2389
-1430 -1309 -782 -2383 -1424 -2386 -1428 -7 -8 166 -305 180 -310 6 -2 1171
541 2589 1207 1418 666 2581 1211 2584 1211 4 0 129 -131 280 -291 l273 -291
600 -517 601 -517 649 -450 c642 -445 658 -455 1288 -830 602 -358 637 -380
633 -404 -4 -18 -1944 -6411 -1991 -6559 -5 -18 17 -32 236 -141 132 -67 242
-120 243 -118 2 2 596 1416 1321 3143 725 1727 1329 3165 1344 3197 l26 56
465 -169 464 -170 1051 -290 1050 -291 872 -192 c480 -106 875 -195 879 -198
3 -3 -86 -262 -197 -574 -175 -496 -609 -1774 -609 -1796 0 -4 9 -8 19 -8 17
0 20 -10 25 -92 6 -92 346 -9658 346 -9730 l0 -38 279 0 279 0 6 88 c5 67 546
9755 546 9777 0 3 10 5 23 5 20 0 68 74 347 538 178 295 324 538 325 539 0 1
191 -16 423 -39 232 -22 424 -39 425 -37 2 2 668 1018 1480 2257 l1477 2253
-33 132 c-31 122 -35 132 -58 135 -53 5 -3661 272 -3677 272 -10 -1 -55 -51
-108 -123 l-92 -122 -352 -995 c-194 -547 -354 -996 -354 -997 -1 -1 -546 94
-1211 212 l-1210 213 -940 241 -940 241 -238 102 c-175 76 -236 107 -234 118
2 8 239 574 526 1257 l522 1243 -26 637 c-14 351 -25 654 -25 674 l0 36 -312
137 c-303 132 -313 136 -328 117 -8 -10 -199 -222 -425 -471 -225 -248 -413
-457 -417 -463 -3 -7 -196 -637 -428 -1402 -232 -764 -424 -1392 -426 -1394
-13 -13 -604 365 -1323 846 l-826 553 -645 550 c-626 533 -776 667 -755 677 6
2 154 73 329 156 l320 152 278 335 c153 184 278 339 278 343 0 8 -206 386
-215 395 -2 2 -205 -17 -452 -43 l-448 -47 -334 -199 c-183 -109 -336 -199
-340 -199 -3 0 -101 161 -218 358 -135 228 -381 675 -681 1238 l-470 880 -52
198 c-28 109 -49 200 -47 202 2 3 53 13 111 23 59 10 111 22 115 27 4 5 39 47
77 94 37 47 98 119 135 160 84 95 276 387 424 644 l28 49 321 -7 321 -8 18
-23 c10 -13 26 -33 35 -45 l18 -22 658 13 658 13 51 101 52 101 1210 -37 c666
-20 1213 -34 1216 -30 17 18 40 184 50 356 16 305 -15 736 -55 751 -6 2 -169
-6 -362 -19 l-350 -22 -132 161 -133 162 -184 128 -185 128 29 31 c25 27 37
67 108 362 l80 333 -80 332 c-71 298 -83 336 -108 364 l-29 30 185 129 185
129 131 160 131 161 57 -3 c31 -2 191 -12 356 -22 165 -11 303 -16 306 -12 18
18 40 182 50 358 7 135 7 253 0 389 -10 172 -33 337 -50 357 -3 3 -508 -9
-1121 -28 -613 -18 -1159 -34 -1212 -34 l-98 0 -49 98 -50 99 -318 6 c-175 4
-472 10 -660 13 l-341 7 -33 -46 -33 -47 -101 0 c-56 0 -203 -3 -326 -6 l-224
-6 -89 153 c-140 241 -282 457 -355 539 -52 58 -194 229 -207 248 -1 2 -53 14
-115 28 -61 13 -114 25 -116 28 -2 2 19 93 47 202 l52 199 473 886 c301 565
548 1012 681 1237 115 194 212 352 216 352 4 0 157 -89 340 -199 l333 -198
449 -47 c247 -26 450 -45 451 -44 10 11 215 389 215 395 0 5 -127 161 -282
347 l-283 339 -320 149 c-176 82 -322 151 -324 154 -12 12 188 190 774 690
l630 537 825 550 c706 471 1291 847 1319 847 4 0 196 -620 426 -1377 230 -758
423 -1390 429 -1405 6 -14 200 -234 431 -489 231 -254 422 -466 425 -471 3 -4
146 54 318 129 l312 136 0 35 c0 20 11 323 25 675 l26 639 -527 1254 c-290
690 -525 1256 -523 1258 2 2 109 49 237 104 l233 102 957 244 957 245 1194
210 c657 116 1196 210 1196 208 1 -1 161 -450 355 -997 l352 -995 87 -114 c48
-63 94 -119 102 -123 8 -5 776 48 1863 129 l1850 138 33 132 33 132 -1477
2253 c-812 1239 -1478 2255 -1480 2257 -2 3 -193 -14 -426 -36 -232 -23 -423
-39 -425 -35 -1 4 -148 248 -325 542 -245 406 -328 536 -344 538 -19 3 -22 12
-27 90 -4 48 -126 2227 -271 4842 -145 2615 -267 4794 -271 4843 l-6 87 -279
0 -279 0 0 -37z m688 -12946 c20 -56 31 -102 26 -106 -5 -5 -504 -108 -1109
-230 l-1100 -221 -1025 -264 -1025 -264 -246 -111 c-136 -61 -251 -111 -257
-111 -9 0 -97 199 -90 204 2 2 192 69 423 149 382 133 508 171 1391 417 l970
271 990 183 c544 101 995 183 1003 182 8 0 29 -43 49 -99z m-6037 -1621 l26
-83 -291 -174 c-189 -113 -587 -374 -1139 -746 l-849 -571 -686 -590 c-378
-324 -714 -618 -747 -654 -33 -35 -81 -87 -107 -115 l-48 -52 -87 40 c-48 22
-89 42 -92 44 -2 3 90 100 204 217 177 181 298 289 799 716 l591 503 592 407
c510 350 677 458 1195 774 332 202 606 367 609 368 3 0 17 -38 30 -84z m-4503
-3766 c61 -36 111 -68 112 -72 0 -4 -94 -163 -209 -355 -158 -263 -325 -568
-688 -1253 l-479 -906 -73 -264 c-41 -146 -74 -266 -75 -267 -5 -6 -311 55
-309 63 8 45 372 822 621 1325 269 544 353 704 642 1213 183 323 336 585 339
584 4 -2 57 -32 119 -68z m-1338 -10406 l74 -266 477 -903 c354 -668 533 -994
689 -1256 168 -282 208 -355 198 -364 -31 -28 -222 -135 -228 -128 -4 4 -153
267 -332 583 -278 490 -371 667 -633 1195 -250 505 -643 1343 -632 1350 2 2
285 52 303 54 6 0 44 -119 84 -265z m2103 -3746 c70 -76 294 -276 790 -702
l692 -595 851 -573 c552 -372 953 -634 1141 -747 l290 -174 -25 -81 c-13 -45
-26 -82 -27 -84 -2 -2 -274 162 -606 364 -526 319 -681 419 -1199 775 l-595
409 -595 507 c-490 418 -631 545 -799 715 -113 115 -202 210 -200 213 9 8 174
84 179 82 3 -1 50 -50 103 -109z m5317 -3307 l225 -102 1045 -269 1045 -268
1085 -218 c597 -120 1087 -219 1090 -221 2 -3 -12 -50 -31 -106 -36 -99 -37
-102 -65 -99 -16 2 -468 84 -1004 183 l-975 180 -982 274 c-887 248 -1021 288
-1385 415 -222 78 -406 144 -410 148 -4 4 11 53 35 109 l42 101 30 -13 c17 -7
131 -58 255 -114z"/>
</g>
</svg>
