<?xml version="1.0" standalone="no"?>
<!DOCTYPE svg PUBLIC "-//W3C//DTD SVG 20010904//EN"
 "http://www.w3.org/TR/2001/REC-SVG-20010904/DTD/svg10.dtd">
<svg version="1.0" xmlns="http://www.w3.org/2000/svg"
   viewBox="0 0 3326.000000 1658.000000"
 preserveAspectRatio="xMidYMid meet">
<metadata>
Created by potrace 1.16, written by Peter Selinger 2001-2019
</metadata>
<g transform="translate(0.000000,1658.000000) scale(0.100000,-0.100000)"
fill="#000000" stroke="none">
<path d="M5252 16459 c-73 -67 -132 -128 -132 -135 0 -32 48 -8 151 76 l110
90 275 0 c151 0 274 -2 274 -5 0 -3 101 -356 225 -784 l225 -778 0 -171 0
-170 85 -100 85 -100 0 -212 0 -212 -27 -39 -28 -39 -172 0 c-164 0 -173 1
-173 19 0 11 -3 26 -6 35 -5 14 12 16 155 16 l161 0 0 204 0 204 -80 95 -80
94 0 179 0 179 -179 625 -178 625 -87 3 -86 3 0 -636 0 -635 -45 0 -45 0 0
770 0 770 -149 0 -150 0 -143 -118 -143 -118 -3 -581 -2 -581 -65 -57 c-36
-32 -65 -64 -65 -71 0 -10 -13 -14 -45 -14 l-45 0 -2 536 -3 536 -292 -242
-293 -243 0 -403 0 -403 -55 -47 -55 -48 0 -67 c0 -50 -4 -68 -15 -73 -13 -4
-15 -35 -15 -190 0 -178 -1 -185 -21 -191 -11 -4 -21 -5 -22 -3 -1 1 -8 13
-14 25 -10 16 -13 88 -13 257 l0 235 80 67 c81 68 88 78 70 89 -11 7 -206
-121 -213 -139 -2 -6 -39 -183 -83 -393 l-79 -383 -110 0 -110 -1 -320 -281
c-176 -154 -333 -291 -349 -305 l-30 -25 -52 -761 c-29 -419 -53 -790 -54
-824 l0 -63 1995 0 1995 0 -1 -22 c0 -13 -8 -106 -17 -208 l-17 -185 -62 -3
-63 -3 0 -539 0 -540 -1170 0 c-1051 0 -1170 2 -1170 16 0 8 -10 33 -22 54
-22 38 -25 40 -73 40 l-50 1 -58 104 -58 105 -334 0 -335 0 0 -36 0 -37 -142
7 c-79 3 -273 9 -433 12 l-290 6 -213 44 c-118 24 -215 44 -217 44 -1 0 -49
52 -106 115 l-103 115 -553 0 -553 0 0 -220 0 -220 -22 0 c-20 0 -36 -27 -114
-193 l-90 -192 -42 -3 -42 -3 0 -75 0 -74 250 0 250 0 0 -55 0 -55 -480 0
-480 0 0 -1240 0 -1240 480 0 480 0 0 -55 0 -55 -250 0 -250 0 0 -74 0 -75 42
-3 42 -3 91 -192 c77 -166 93 -193 113 -193 l22 0 0 -220 0 -220 553 0 553 0
93 105 c51 57 98 109 105 114 7 6 109 31 227 55 l214 44 285 6 c157 3 351 9
433 12 l147 7 0 -37 0 -36 335 0 334 0 58 105 58 104 50 1 c48 0 51 2 73 40
12 21 22 46 22 54 0 14 119 16 1170 16 l1170 0 0 -540 0 -540 63 0 63 0 17
-197 c10 -109 17 -210 17 -225 l0 -28 -1995 0 -1995 0 0 -22 c0 -38 110 -1621
112 -1623 2 -1 162 -140 355 -308 l353 -307 103 0 104 0 21 -97 c11 -54 49
-235 84 -402 l63 -304 101 -68 c56 -37 104 -65 108 -62 15 15 1 34 -74 97
l-80 67 0 233 c0 195 2 236 15 246 8 7 15 23 15 35 0 18 4 22 20 18 19 -5 20
-14 20 -178 0 -181 3 -205 26 -205 11 0 14 -17 14 -72 l0 -73 50 -43 50 -43 0
-403 0 -403 293 -243 292 -242 3 536 2 536 45 0 c31 0 45 -4 45 -13 0 -7 29
-39 65 -71 l65 -57 2 -581 3 -582 143 -118 143 -118 150 0 149 0 0 770 0 770
50 0 50 0 0 -635 0 -635 83 0 83 0 177 623 178 622 -1 180 0 181 80 94 80 95
0 208 0 207 -159 0 c-154 0 -159 1 -154 20 5 19 14 20 182 20 l176 0 23 -33
c21 -32 22 -41 22 -253 l0 -219 -85 -100 -85 -100 0 -180 0 -180 -223 -770
-223 -770 -271 -3 -270 -2 -109 90 c-78 64 -117 90 -136 90 -16 0 -28 -4 -28
-9 0 -4 60 -63 133 -130 l132 -121 290 0 290 0 60 49 c56 45 62 54 84 124 13
41 21 84 19 95 -3 12 72 291 171 630 l176 610 73 56 c52 40 82 56 105 57 74 2
78 7 108 111 26 93 28 128 6 156 -13 17 102 422 120 422 7 0 13 6 13 13 0 7
22 42 50 78 36 46 57 86 74 144 14 43 23 81 21 83 -2 2 -31 6 -64 9 -34 3 -61
9 -61 12 0 3 8 33 18 66 18 59 18 60 58 63 l41 3 91 307 c50 169 94 323 97
342 3 19 43 469 90 1000 47 531 87 986 91 1012 l6 48 139 0 139 0 0 -43 c0
-23 7 -173 16 -332 l15 -289 72 -118 72 -118 1262 0 1261 0 72 118 72 117 19
335 c10 184 19 345 19 358 l0 22 400 0 400 0 0 -119 c0 -116 -1 -120 -22 -123
-18 -2 -24 -11 -26 -35 l-3 -32 -77 -3 c-77 -3 -77 -3 -82 -33 -5 -30 -6 -30
-75 -31 -97 -1 -95 -1 -95 -35 0 -25 -6 -32 -36 -45 l-37 -15 6 -197 c5 -196
6 -197 41 -290 20 -51 36 -101 36 -113 0 -11 19 -89 42 -174 l41 -153 91 -6
c50 -3 300 -10 556 -16 256 -6 503 -11 549 -12 l84 -2 28 34 c27 31 32 34 82
31 50 -2 56 0 85 33 28 32 37 36 81 36 47 0 52 3 88 45 33 40 42 45 78 45 39
0 43 4 145 122 58 67 113 132 124 145 16 21 19 59 31 354 6 181 15 332 18 335
3 3 75 -14 161 -37 l155 -43 78 -199 78 -199 207 4 208 3 0 -601 0 -601 827
-6 c454 -4 1392 -7 2083 -7 691 0 1561 -3 1933 -7 l677 -6 0 -59 c0 -32 4 -58
10 -58 6 0 10 -102 10 -285 l0 -285 -388 0 -387 0 -78 313 c-43 171 -77 327
-77 345 l0 32 -135 0 -135 0 0 -60 c0 -47 3 -60 15 -60 13 0 15 -38 15 -285
l0 -285 -400 0 c-392 0 -400 0 -400 20 0 11 -32 145 -72 297 -39 153 -73 299
-76 326 l-4 47 -129 0 -129 0 0 -60 c0 -33 4 -60 10 -60 6 0 10 -102 10 -285
l0 -285 -395 0 -395 0 0 25 c0 30 -127 542 -141 567 -5 10 -9 36 -9 58 l0 40
-130 0 -130 0 0 -60 c0 -33 4 -60 10 -60 6 0 10 -102 10 -285 l0 -285 -45 0
c-27 0 -45 -5 -45 -11 0 -7 115 -239 256 -515 l257 -504 776 0 777 0 44 45 44
45 1088 0 1087 0 51 66 c27 37 50 70 50 74 0 3 -92 187 -205 407 -113 221
-205 408 -205 417 0 9 -32 141 -72 293 -39 153 -73 299 -76 326 l-4 47 904 0
903 0 490 -265 489 -265 2329 0 2329 0 366 -220 367 -220 635 -1 c349 -1 667
-5 705 -9 l70 -7 -71 -1 c-69 -2 -71 -3 -127 -53 l-57 -51 0 -153 c0 -150 0
-153 -22 -159 -13 -3 -26 -6 -30 -6 -5 0 -8 54 -8 120 l0 120 -144 0 -144 0
-7 30 -7 30 -299 0 -299 0 0 -30 c0 -17 28 -102 61 -190 l62 -160 63 0 62 0
46 -144 c25 -79 46 -147 46 -150 0 -3 -18 -6 -40 -6 -38 0 -40 -2 -40 -30 0
-16 9 -51 19 -78 l20 -49 -61 -7 c-34 -3 -101 -6 -149 -6 -53 0 -89 -4 -89
-10 0 -6 -105 -10 -295 -10 -190 0 -295 -4 -295 -10 0 -6 106 -10 298 -10 246
0 301 -3 319 -15 15 -11 57 -15 163 -17 l143 -3 45 -117 c25 -65 50 -118 56
-118 6 0 29 -27 51 -60 l40 -60 163 0 c133 0 167 3 187 16 l25 16 0 244 0 244
30 0 30 0 0 -210 0 -210 738 0 738 0 59 -60 59 -60 297 0 297 0 75 62 76 63 0
535 0 535 -74 63 c-68 57 -77 62 -122 62 -43 0 -54 5 -106 50 -56 48 -62 50
-120 51 l-62 2 60 7 c33 4 400 8 816 9 l756 1 16 -40 c14 -36 19 -40 51 -40
l36 0 0 -1175 c0 -1168 0 -1175 20 -1175 20 0 20 7 20 1175 l0 1175 33 0 c30
0 36 5 52 40 l18 40 138 0 138 0 65 56 66 55 0 354 0 354 -64 53 -65 53 0 571
-1 571 65 54 65 54 -1 250 0 250 -61 52 -61 53 -2144 0 -2144 0 -58 -55 -58
-55 -461 0 -462 0 0 248 0 248 -30 40 -29 39 -1 216 0 216 25 23 c23 21 25 31
25 107 l0 83 80 0 80 0 0 -84 0 -84 131 -126 132 -126 402 0 403 0 151 122
151 123 0 88 0 87 80 0 80 0 0 -89 0 -89 128 -121 127 -121 402 0 403 0 150
122 150 122 0 553 0 553 -680 0 -680 0 0 -85 0 -85 -80 0 -80 0 0 85 0 85
-685 0 -685 0 0 -85 0 -85 -80 0 -80 0 0 85 0 85 -685 0 -685 0 0 -85 0 -85
-100 0 -100 0 0 1040 0 1040 100 0 100 0 0 -85 0 -85 685 0 685 0 0 85 0 85
80 0 80 0 0 -85 0 -85 685 0 685 0 0 85 0 85 80 0 80 0 0 -85 0 -85 680 0 680
0 0 553 0 552 -150 123 -149 122 -403 0 -403 0 -127 -121 -128 -121 0 -89 0
-89 -80 0 -80 0 0 88 0 87 -151 123 -151 122 -403 0 -403 0 -131 -126 -131
-126 0 -84 0 -84 -80 0 -80 0 0 86 c0 80 -2 88 -25 106 l-25 19 0 217 1 217
29 39 30 40 0 248 0 248 462 0 461 0 58 -55 58 -55 2144 0 2144 0 61 56 62 56
0 247 0 248 -65 52 -65 53 1 571 0 572 65 53 64 53 0 354 0 354 -66 55 -65 56
-138 0 -138 0 -18 40 c-16 35 -22 40 -52 40 l-33 0 0 1175 c0 1168 0 1175 -20
1175 -20 0 -20 -7 -20 -1175 l0 -1175 -36 0 c-32 0 -37 -4 -51 -40 l-16 -40
-756 1 c-416 1 -783 5 -816 9 l-60 7 62 2 c58 1 64 3 120 51 52 45 63 50 106
50 45 0 54 5 122 63 l74 62 0 535 0 535 -75 63 -75 62 -297 0 -298 0 -59 -60
-59 -60 -738 0 -738 0 0 -210 0 -210 -30 0 -30 0 0 244 0 244 -25 16 c-20 13
-54 16 -187 16 l-163 0 -40 -60 c-22 -33 -45 -60 -51 -60 -6 0 -31 -53 -56
-117 l-45 -118 -151 -5 c-102 -3 -155 -9 -164 -17 -9 -10 -85 -13 -310 -13
-192 0 -298 -4 -298 -10 0 -6 105 -10 295 -10 190 0 295 -4 295 -10 0 -6 36
-10 89 -10 48 0 115 -3 149 -6 l61 -7 -20 -49 c-10 -27 -19 -62 -19 -78 0 -28
2 -30 40 -30 22 0 40 -3 40 -6 0 -3 -21 -71 -46 -150 l-46 -144 -62 0 -63 0
-62 -160 c-33 -88 -61 -173 -61 -190 l0 -30 299 0 299 0 7 30 7 30 144 0 144
0 0 121 c0 121 0 121 23 115 12 -3 25 -6 30 -6 4 0 7 -69 7 -154 l0 -154 57
-51 c56 -50 58 -51 127 -53 l71 -1 -70 -7 c-38 -4 -356 -8 -705 -9 l-635 -1
-367 -220 -366 -220 -2329 0 -2329 0 -490 -265 -489 -265 -903 0 -904 0 4 48
c3 26 37 172 76 325 40 152 72 284 72 293 0 9 91 194 203 412 111 218 203 401
205 407 1 6 -20 41 -48 78 l-51 67 -1087 0 -1088 0 -44 45 -44 45 -777 0 -777
0 -256 -504 c-141 -277 -256 -508 -256 -515 0 -6 18 -11 45 -11 l45 0 0 -285
c0 -183 -4 -285 -10 -285 -6 0 -10 -27 -10 -60 l0 -60 130 0 130 0 0 40 c0 22
4 48 9 58 14 25 141 537 141 567 l0 25 395 0 395 0 0 -285 c0 -183 -4 -285
-10 -285 -6 0 -10 -27 -10 -60 l0 -60 129 0 129 0 4 48 c3 26 37 172 76 325
40 152 72 286 72 297 0 20 8 20 400 20 l400 0 0 -285 c0 -247 -2 -285 -15
-285 -12 0 -15 -13 -15 -60 l0 -59 108 -4 c59 -1 -570 -4 -1398 -5 -828 -1
-1853 -5 -2277 -9 l-773 -6 0 -601 0 -601 -208 3 -208 4 -78 -199 -77 -199
-155 -43 c-86 -23 -158 -40 -161 -37 -3 3 -12 154 -18 335 -12 295 -15 333
-31 354 -11 12 -66 78 -123 145 -102 119 -106 122 -146 122 -36 0 -45 5 -78
45 -36 42 -41 45 -88 45 -44 0 -53 4 -80 35 -29 32 -36 35 -87 35 -50 0 -58 3
-82 32 -27 32 -28 32 -111 30 -46 -1 -298 -6 -559 -12 -261 -6 -511 -13 -556
-16 l-81 -6 -41 -153 c-23 -84 -42 -163 -42 -174 0 -12 -16 -62 -36 -113 -35
-93 -36 -94 -41 -290 l-6 -197 37 -15 c30 -13 36 -20 36 -45 0 -18 6 -32 13
-32 6 -1 43 -2 82 -3 69 -1 70 -1 75 -31 5 -30 5 -30 82 -33 l77 -3 3 -32 c2
-24 8 -33 26 -35 21 -3 22 -7 22 -123 l0 -119 -400 0 -400 0 0 23 c0 12 -9
173 -19 357 l-19 336 -72 117 -72 117 -1262 0 -1261 0 -72 -118 -72 -117 -15
-288 c-9 -158 -16 -308 -16 -332 l0 -45 -145 0 c-144 0 -145 0 -145 23 0 22
-165 1886 -175 1982 -3 28 -47 191 -97 363 l-93 312 -45 0 -46 0 -16 60 c-8
32 -13 61 -10 65 3 3 32 5 64 5 32 0 58 3 58 8 0 4 -10 41 -22 82 -15 53 -35
92 -68 135 -70 89 -76 103 -135 314 -48 171 -53 200 -45 235 9 34 6 57 -18
136 l-28 95 -55 5 c-49 4 -66 12 -127 59 -48 36 -75 65 -81 85 -69 215 -341
1184 -339 1208 1 18 -9 66 -22 106 -23 68 -30 78 -86 123 l-62 49 -284 0 -284
0 -132 -121z m-294 -1998 c1 -136 -1 -218 -8 -225 -6 -6 -10 -59 -10 -122 0
-87 -3 -114 -15 -124 -11 -9 -15 -34 -15 -96 l0 -84 -155 0 c-131 0 -155 2
-155 15 0 13 22 15 135 15 l135 0 0 421 0 420 43 -3 42 -3 3 -214z m808 37
c-8 -283 -16 -412 -27 -422 -5 -6 -9 -52 -9 -103 l0 -93 -98 0 c-96 0 -99 -1
-148 -35 -41 -29 -57 -35 -101 -35 -40 0 -53 4 -53 15 0 9 9 15 21 15 12 0 54
25 94 55 l71 55 82 0 82 0 0 358 c0 197 3 362 7 365 3 4 24 7 45 7 l39 0 -5
-182z m24885 -428 c56 -49 59 -50 126 -52 l68 -1 -70 -7 c-92 -10 -1131 -10
-1215 0 l-65 7 65 2 c63 1 67 3 120 51 l55 49 429 1 429 0 58 -50z m-11101
-635 c0 -183 -4 -285 -10 -285 -6 0 -10 -27 -10 -60 l0 -60 -455 0 -455 0 0
33 c0 17 34 173 77 345 l78 312 387 0 388 0 0 -285z m-30 -1880 c0 -2 20 -129
45 -282 l45 -278 40 -37 c38 -37 41 -38 113 -38 61 0 77 -3 92 -20 16 -18 31
-20 155 -20 124 0 139 2 155 20 15 16 31 20 90 20 70 0 74 1 114 38 l41 37 40
255 c22 140 43 267 46 283 l6 27 555 0 556 0 466 -111 c256 -60 474 -112 484
-115 16 -5 17 -26 17 -253 l0 -247 25 -34 25 -34 0 -328 0 -328 -352 0 -353 1
45 39 c25 22 67 57 93 77 41 32 57 57 108 162 l59 124 0 134 0 134 -56 119
-57 119 -105 82 -105 82 -126 30 -126 29 -130 -28 -129 -29 -106 -83 -105 -83
-57 -121 c-56 -117 -58 -123 -58 -204 l0 -84 -80 0 -80 0 0 60 c0 73 -15 110
-46 110 -17 0 -24 7 -29 30 l-7 30 -374 0 -374 0 0 -40 0 -40 -55 0 c-49 0
-55 -2 -55 -20 0 -20 -5 -20 -177 -18 l-177 3 -20 58 -21 57 -1317 0 -1318 0
0 -60 0 -60 55 0 55 0 0 -310 0 -310 -220 0 -220 0 0 197 0 197 -57 58 -57 58
-720 0 -720 0 -53 -52 -53 -52 0 -203 0 -203 -55 0 -55 0 0 273 c1 320 0 317
92 317 139 0 280 13 285 27 3 7 -63 169 -146 358 -132 299 -181 417 -181 431
0 2 43 4 95 4 73 0 95 3 95 13 0 17 185 27 511 27 l227 0 43 -272 44 -273 39
-42 c39 -43 39 -43 111 -43 59 0 75 -4 90 -20 16 -18 31 -20 160 -20 129 0
144 2 160 20 15 16 31 20 89 20 68 1 73 3 112 38 l41 37 44 277 44 278 426 0
425 0 43 -272 44 -273 40 -42 c41 -43 42 -43 113 -43 58 0 74 -4 89 -20 16
-18 31 -20 160 -20 129 0 144 2 160 20 15 16 31 20 89 20 71 0 72 0 113 43
l40 42 44 272 43 272 80 4 c134 5 816 7 816 2z m6640 -478 l0 -253 25 -34 25
-34 0 -323 0 -323 -270 0 -270 0 0 222 0 222 -37 38 -37 38 -300 0 -300 0 -38
-37 -38 -37 0 -223 0 -223 -235 0 -235 0 0 222 0 222 -37 38 -37 38 -300 0
-300 0 -38 -37 -38 -37 0 -223 0 -223 -305 0 -305 0 0 327 0 326 25 33 25 33
0 250 0 251 1510 0 1510 0 0 -253z m1090 2 l0 -250 25 -33 c23 -31 25 -41 25
-149 l0 -117 -308 0 c-226 0 -311 -3 -320 -12 -9 -9 -12 16 -12 116 0 120 1
129 25 160 l25 33 0 251 0 252 270 0 270 0 0 -251z m-14430 163 c-69 -19 -129
-40 -133 -46 -4 -6 -6 -35 -4 -63 l4 -53 -69 0 -68 0 0 90 c0 50 1 91 3 91 3
2 282 15 342 17 45 0 37 -3 -75 -36z m-1030 -337 c0 -13 -35 -15 -256 -15
-227 0 -255 2 -244 15 10 13 52 15 256 15 210 0 244 -2 244 -15z m924 -102 c3
-21 6 -56 6 -78 1 -75 -65 -70 767 -57 411 7 796 12 856 12 l107 0 0 -101 0
-101 -61 -74 -62 -74 -57 0 c-52 0 -84 12 -393 155 -184 85 -340 155 -345 155
-5 0 -14 -11 -20 -25 l-12 -25 -155 0 -155 0 0 25 0 25 -645 0 -645 0 0 -30 0
-30 -649 0 -649 0 -5 33 c-2 17 -3 35 0 40 2 4 312 7 689 7 601 0 684 2 684
15 0 8 5 15 10 15 6 0 10 7 10 15 0 11 11 15 40 15 l40 0 0 60 0 60 319 0 318
0 7 -37z m1736 -683 c0 -11 -7 -20 -15 -20 -13 0 -13 3 -3 20 7 11 14 20 15
20 2 0 3 -9 3 -20z m-11572 -96 l52 -7 0 -234 0 -235 -27 7 c-16 3 -113 30
-218 58 l-190 53 -3 182 -2 182 167 0 c93 0 192 -3 221 -6z m10875 -599 l487
-300 0 -815 0 -815 -523 -322 c-481 -296 -522 -320 -525 -298 -3 19 -15 28
-68 45 l-64 22 0 1368 0 1368 65 22 c57 19 65 25 65 46 l0 25 38 -23 c21 -13
257 -158 525 -323z m-1775 269 l52 -19 0 -292 0 -293 -115 0 c-113 0 -116 0
-127 -25 l-11 -25 -244 0 c-236 0 -243 -1 -243 -20 0 -16 -7 -20 -35 -20 -28
0 -35 4 -35 20 0 16 -7 20 -30 20 -27 0 -30 3 -30 33 l0 34 168 12 c92 6 193
14 225 18 l57 6 0 92 0 93 -62 7 c-75 7 -701 55 -721 55 -8 0 -17 -9 -20 -20
-8 -31 -27 -24 -27 10 0 17 -4 30 -10 30 -5 0 -10 9 -10 20 0 20 7 20 570 20
l570 0 0 136 c0 105 3 135 13 131 6 -2 36 -13 65 -23z m-688 -2094 c0 -19 7
-20 243 -20 l244 0 11 -25 c11 -25 14 -25 127 -25 l115 0 0 -293 0 -292 -52
-19 c-29 -10 -59 -21 -65 -23 -10 -4 -13 25 -13 126 l0 131 -570 0 -570 0 0
25 c0 14 5 25 10 25 6 0 10 16 10 35 0 40 17 47 26 10 3 -14 13 -25 21 -25 20
0 645 48 721 55 l62 7 0 93 0 92 -47 6 c-27 3 -128 12 -225 18 l-178 12 0 34
c0 30 3 33 30 33 23 0 30 4 30 20 0 16 7 20 35 20 28 0 35 -4 35 -20z m-8360
-764 l0 -233 -52 -7 c-29 -3 -128 -6 -221 -6 l-167 0 2 182 3 183 205 56 c113
32 211 58 218 58 9 1 12 -52 12 -233z m11520 -338 c0 -12 -1 -19 -3 -17 -1 2
-9 12 -16 22 -12 14 -11 17 3 17 10 0 16 -8 16 -22z m500 -180 l0 -202 52 -53
52 -53 720 0 720 0 58 57 58 57 0 198 0 198 220 0 220 0 0 -310 0 -310 -55 0
-55 0 0 -60 0 -60 1318 0 1317 0 21 58 20 57 177 3 c172 2 177 2 177 -18 0
-18 6 -20 55 -20 l55 0 0 -40 0 -40 374 0 374 0 7 30 c5 23 12 30 29 30 31 0
46 37 46 110 l0 60 80 0 80 0 0 -84 c0 -80 2 -87 58 -204 l57 -121 105 -83
106 -83 129 -29 130 -28 126 30 127 29 106 84 105 84 56 118 55 118 0 133 0
133 -59 124 c-51 105 -67 130 -108 162 -26 20 -68 55 -93 77 l-45 39 353 1
352 0 0 -328 0 -328 -25 -34 -25 -34 0 -247 c0 -227 -1 -248 -17 -253 -10 -3
-228 -55 -484 -115 l-466 -111 -556 0 -555 0 -6 28 c-3 15 -24 142 -46 282
l-40 255 -41 38 c-40 36 -44 37 -114 37 -59 0 -75 4 -90 20 -16 18 -31 20
-155 20 -124 0 -139 -2 -155 -20 -15 -17 -31 -20 -92 -20 -72 0 -75 -1 -113
-37 l-40 -38 -45 -278 c-25 -153 -45 -280 -45 -282 0 -7 -528 -6 -726 2 l-171
6 -43 271 -43 271 -40 43 c-41 42 -42 42 -113 42 -58 0 -74 4 -89 20 -16 18
-31 20 -160 20 -129 0 -144 -2 -160 -20 -15 -16 -31 -20 -89 -20 -71 0 -72 0
-113 -42 l-40 -43 -44 -272 -43 -273 -425 0 -426 0 -44 278 -44 277 -41 37
c-39 35 -44 37 -112 38 -58 0 -74 4 -89 20 -16 18 -31 20 -160 20 -129 0 -144
-2 -160 -20 -15 -16 -31 -20 -90 -20 -72 0 -72 0 -111 -42 l-39 -43 -44 -272
-43 -273 -173 0 c-318 0 -565 12 -565 27 0 10 -22 13 -95 13 -52 0 -95 2 -95
4 0 14 49 132 181 431 83 189 149 351 146 358 -5 14 -141 27 -279 27 -99 0
-97 -6 -98 318 l0 272 55 0 55 0 0 -202z m8750 -30 l0 -222 37 -38 37 -38 300
0 300 0 38 37 38 37 0 223 0 223 235 0 235 0 0 -222 0 -222 37 -38 37 -38 300
0 300 0 38 37 38 37 0 223 0 223 270 0 270 0 0 -323 0 -323 -25 -34 -25 -34 0
-253 0 -253 -1510 0 -1510 0 0 251 0 250 -25 33 -25 33 0 326 0 327 305 0 305
0 0 -222z m-9311 -72 l61 -74 0 -103 0 -102 -417 6 c-230 4 -617 10 -860 14
l-442 6 -5 -24 c-3 -13 -8 -54 -11 -91 l-7 -68 -319 0 -319 0 0 60 c0 59 0 60
-28 60 -30 0 -72 29 -72 48 0 8 -193 12 -684 14 -376 2 -686 5 -689 8 -3 3 -2
20 0 38 l5 32 649 0 649 0 0 -30 0 -30 645 0 645 0 0 25 0 25 152 0 152 0 21
-26 21 -27 335 156 c313 146 338 156 395 156 l61 1 62 -74z m12603 -126 l308
0 0 -117 c0 -108 -2 -118 -25 -149 l-25 -33 0 -250 0 -251 -270 0 -270 0 0
252 0 251 -25 33 c-24 31 -25 40 -25 160 0 100 3 125 12 116 9 -9 94 -12 320
-12z m-15202 -375 c0 -13 -34 -15 -244 -15 -204 0 -246 2 -256 15 -11 13 17
15 244 15 221 0 256 -2 256 -15z m893 -227 c-2 -29 0 -58 4 -64 4 -6 62 -26
128 -44 66 -18 122 -34 124 -36 6 -5 -291 5 -346 12 l-43 5 0 90 0 89 68 0 69
0 -4 -52z m-7773 -2787 c0 -56 4 -82 14 -91 17 -13 24 -115 32 -467 l5 -223
-46 0 -45 0 0 415 0 415 -135 0 c-113 0 -135 2 -135 15 0 13 24 15 155 15
l155 0 0 -79z m574 34 l59 -45 94 0 93 0 0 -79 c0 -58 4 -82 15 -91 12 -10 15
-37 15 -126 0 -64 4 -115 10 -119 6 -4 10 -75 10 -181 l0 -175 -47 3 -48 3 -3
363 -2 362 -81 0 -82 0 -67 50 c-37 28 -77 50 -89 50 -12 0 -21 6 -21 15 0 11
11 15 43 15 34 0 53 -9 101 -45z m25291 -125 l70 -7 -68 -1 c-67 -2 -70 -3
-126 -52 l-58 -50 -427 0 -428 0 -56 50 c-54 49 -58 50 -121 52 l-66 1 60 7
c82 9 1133 9 1220 0z"/>
</g>
</svg>
