<?xml version="1.0" standalone="no"?>
<!DOCTYPE svg PUBLIC "-//W3C//DTD SVG 20010904//EN"
 "http://www.w3.org/TR/2001/REC-SVG-20010904/DTD/svg10.dtd">
<svg version="1.0" xmlns="http://www.w3.org/2000/svg"
   viewBox="0 0 3689.000000 1656.000000"
 preserveAspectRatio="xMidYMid meet">
<metadata>
Created by potrace 1.16, written by Peter Selinger 2001-2019
</metadata>
<g transform="translate(0.000000,1656.000000) scale(0.100000,-0.100000)"
fill="#000000" stroke="none">
<path d="M5804 16530 c-45 -15 -180 -51 -300 -80 -206 -50 -230 -58 -404 -140
-102 -47 -273 -136 -380 -197 -107 -60 -244 -136 -305 -168 -60 -32 -140 -80
-176 -107 -63 -45 -69 -53 -100 -131 -18 -45 -36 -87 -41 -93 -5 -7 -56 -14
-126 -17 -150 -6 -318 -49 -412 -103 -61 -35 -73 -49 -169 -187 l-103 -148
-637 6 c-350 3 -652 8 -672 10 l-37 5 -278 -337 c-154 -186 -298 -360 -321
-389 l-41 -51 379 -343 c222 -201 378 -349 375 -356 -3 -7 -141 -183 -308
-391 -301 -375 -303 -378 -308 -432 l-5 -54 -235 -49 c-172 -35 -1154 -198
-1195 -198 -3 0 -5 -184 -5 -409 0 -381 1 -410 18 -415 9 -3 223 -57 474 -121
l457 -116 246 -106 245 -107 0 -93 0 -93 1813 -2 1812 -3 3 -162 2 -161 -27
-6 c-16 -3 -98 -15 -183 -26 -85 -11 -167 -23 -182 -26 -26 -5 -28 -12 -94
-285 l-68 -279 -1185 0 -1186 0 -359 -77 -358 -76 -302 -204 -301 -204 -193
-301 -193 -301 -54 -364 -55 -364 54 -365 55 -365 191 -299 c159 -248 199
-305 238 -333 26 -19 162 -112 303 -206 l256 -173 344 -74 344 -74 1201 0
1201 0 11 -52 c7 -29 37 -157 68 -284 l56 -231 207 -29 206 -29 3 -162 2 -162
-25 -7 c-14 -4 -831 -5 -1816 -2 l-1789 4 0 -96 0 -95 -248 -106 -247 -106
-472 -119 -473 -119 0 -410 0 -410 433 -68 c237 -38 561 -94 719 -125 l288
-56 0 -51 0 -50 314 -390 313 -391 -379 -343 c-208 -189 -378 -349 -376 -356
2 -7 143 -181 313 -388 l310 -377 585 5 c322 3 626 8 675 10 l90 5 104 -150
c97 -139 109 -153 172 -190 88 -52 277 -99 431 -107 l107 -6 37 -93 c37 -92
38 -93 113 -147 42 -30 119 -76 171 -102 52 -26 186 -99 298 -162 111 -63 283
-153 381 -199 167 -79 193 -87 402 -139 123 -30 257 -66 298 -80 l75 -25 598
0 598 0 89 44 c81 41 94 52 161 135 l72 91 119 0 119 0 67 -91 c64 -86 73 -93
155 -135 l88 -44 597 0 598 0 90 29 c77 25 127 33 340 51 138 11 405 43 595
71 l345 50 335 130 335 131 265 182 265 182 133 179 c73 99 143 199 154 223
l22 42 111 0 111 0 759 801 c418 441 788 832 823 871 l63 70 -3 513 c-2 282
-6 517 -10 520 -4 4 -638 -6 -1409 -24 -771 -17 -1403 -30 -1405 -28 -3 3
-114 1128 -114 1155 l0 22 848 0 848 0 794 -40 c437 -22 887 -44 1000 -49
l204 -10 108 -66 107 -65 753 0 753 0 64 41 c55 35 70 40 100 35 20 -3 194 -1
386 5 l350 12 103 -47 102 -46 753 0 752 0 110 49 c91 42 279 97 1115 330 553
154 1183 328 1400 386 217 58 403 108 413 111 14 5 17 18 17 90 l0 84 752 -2
753 -3 97 -330 96 -330 141 -235 140 -235 103 -62 104 -63 149 -23 c131 -21
161 -29 232 -65 l83 -42 761 0 c621 0 772 3 818 14 44 11 149 14 481 14 388 0
431 -2 491 -19 62 -18 109 -19 817 -19 l750 0 117 50 c131 56 96 49 688 132
l372 52 700 3 c575 3 702 6 715 17 8 8 87 33 175 56 l160 43 76 75 c71 68 81
84 127 191 29 66 77 210 112 336 84 300 140 478 155 490 7 5 69 89 138 185 69
96 146 200 171 230 l46 55 0 412 c0 394 1 414 21 466 l21 55 61 -5 c34 -3 136
-13 227 -22 141 -14 205 -14 435 -6 l270 11 90 52 90 52 185 0 c153 0 293 10
800 60 338 34 624 63 635 65 12 2 33 28 52 62 l32 58 633 79 c348 43 670 82
716 88 l82 11 0 47 c0 41 -3 49 -22 54 -13 3 -146 9 -295 12 l-273 7 0 212 0
212 143 6 c78 4 180 7 227 7 47 0 115 3 153 7 l67 6 0 47 c0 47 0 47 -37 53
-21 3 -335 42 -698 87 -363 45 -669 85 -681 90 -12 4 -35 32 -51 62 l-31 54
-618 62 c-420 41 -685 63 -824 67 l-205 6 -88 49 -88 49 -265 11 c-245 10
-279 9 -463 -10 -260 -28 -258 -28 -282 35 -18 46 -19 82 -19 463 l0 414 -53
61 c-30 34 -98 125 -152 202 -54 77 -113 158 -130 180 -38 47 -72 149 -170
498 -41 148 -85 280 -116 350 -43 97 -59 122 -124 189 l-74 77 -168 45 c-92
25 -169 50 -171 56 -3 7 -235 10 -685 10 -378 0 -700 5 -722 10 -22 5 -245 36
-496 70 l-457 61 -111 49 -111 50 -763 0 c-648 0 -771 -2 -813 -15 -72 -22
-913 -22 -994 0 -46 12 -175 15 -805 15 l-750 0 -85 -46 c-78 -42 -97 -48
-232 -69 -155 -24 -176 -32 -314 -120 -46 -30 -61 -51 -188 -265 l-138 -233
-97 -331 -98 -331 -751 -3 -751 -2 -3 87 -3 88 -365 98 c-455 122 -1499 410
-2055 568 -275 77 -456 134 -524 164 l-104 45 -756 0 -757 0 -101 -45 -102
-44 -253 9 c-139 5 -316 10 -393 10 l-140 1 -55 34 -54 35 -755 0 -754 0 -101
-62 -101 -62 -1000 -53 -1000 -52 -852 -1 -853 0 0 25 c0 43 111 1149 116
1154 2 3 635 -10 1405 -28 771 -18 1404 -29 1408 -26 3 4 7 237 9 518 l3 512
-23 31 c-13 17 -382 410 -821 872 l-798 842 -113 0 -114 0 -13 33 c-7 17 -77
118 -154 224 l-140 192 -265 182 -265 182 -330 129 -330 129 -335 49 c-184 27
-456 61 -605 74 -233 21 -283 29 -366 55 l-96 31 -578 0 -577 0 -97 -46 c-95
-45 -97 -46 -166 -140 l-69 -94 -116 0 -117 0 -74 94 c-70 88 -79 96 -167 140
l-92 46 -588 -1 -587 -1 -81 -28z"/>
</g>
</svg>
