<?xml version="1.0" standalone="no"?>
<!DOCTYPE svg PUBLIC "-//W3C//DTD SVG 20010904//EN"
 "http://www.w3.org/TR/2001/REC-SVG-20010904/DTD/svg10.dtd">
<svg version="1.0" xmlns="http://www.w3.org/2000/svg"
   viewBox="0 0 4131.000000 1667.000000"
 preserveAspectRatio="xMidYMid meet">
<metadata>
Created by potrace 1.16, written by Peter Selinger 2001-2019
</metadata>
<g transform="translate(0.000000,1667.000000) scale(0.100000,-0.100000)"
fill="#000000" stroke="none">
<path d="M21480 16254 l0 -414 450 0 450 0 0 -290 0 -290 -450 0 -450 0 0
-415 0 -415 38 5 c20 3 152 14 292 25 140 11 272 22 293 25 l37 5 0 -440 0
-440 -40 0 -40 0 0 -185 0 -185 -35 0 -35 0 0 -260 0 -260 -30 0 -30 0 0 -155
0 -155 -173 0 -173 0 -127 -387 -127 -388 0 -142 0 -143 -375 0 c-206 0 -375
1 -375 3 -2 10 -29 1483 -30 1555 l0 92 -1240 0 -1240 0 0 -140 0 -140 -340 0
-340 0 0 155 0 155 -460 0 -460 0 0 -155 0 -155 -340 0 -340 0 0 140 0 140
-1240 0 -1240 0 0 -140 0 -140 -340 0 -340 0 0 155 0 155 -460 0 -460 0 0
-155 0 -155 -340 0 -340 0 0 140 0 140 -1240 0 -1240 0 0 -124 c0 -68 -3 -131
-6 -140 -5 -14 -45 -16 -340 -16 l-334 0 0 155 0 155 -465 0 -465 0 0 -155 0
-155 -235 0 -235 0 0 25 0 25 -220 0 -220 0 0 -124 c0 -68 3 -131 6 -140 4
-11 19 -16 48 -16 30 0 44 -5 54 -20 12 -20 10 -20 -218 -20 l-230 0 -122
-185 -123 -184 -253 -1 -252 0 -80 40 c-69 34 -89 40 -145 40 -63 0 -65 1 -65
25 0 24 -3 25 -55 25 -52 0 -55 -1 -55 -25 l0 -25 -540 0 -540 0 0 25 c0 24
-3 25 -55 25 -52 0 -55 -1 -55 -25 l0 -25 -105 0 -105 0 0 -40 0 -40 -485 0
-485 0 0 178 c0 140 -4 189 -18 233 l-17 56 -395 -109 c-217 -60 -696 -191
-1064 -293 -367 -101 -670 -186 -673 -188 -2 -3 1 -26 8 -51 8 -34 59 -115
180 -287 93 -132 169 -242 169 -245 0 -2 -56 -4 -125 -4 l-125 0 0 -235 0
-235 294 0 293 0 79 -115 c52 -74 85 -114 97 -115 20 0 360 57 390 66 15 5 17
-2 17 -58 l0 -64 -222 -47 c-123 -26 -226 -47 -230 -47 -5 0 -8 18 -8 40 l0
40 -75 0 -75 0 0 -58 0 -59 -80 -17 -80 -17 0 -2119 c0 -2009 1 -2119 18
-2124 9 -3 45 -10 80 -17 l62 -12 0 -53 0 -54 75 0 75 0 0 35 c0 19 3 35 8 35
4 0 107 -21 230 -47 l222 -48 0 -63 c0 -60 -1 -62 -22 -57 -81 18 -383 65
-393 61 -7 -2 -48 -54 -90 -115 l-78 -111 -293 0 -294 0 0 -235 0 -234 126 -3
126 -3 -166 -235 c-120 -170 -171 -250 -182 -288 -9 -30 -14 -56 -11 -58 6 -6
8 -7 1197 -334 l935 -258 17 57 c14 44 18 94 18 234 l0 177 485 0 485 0 0 -40
0 -40 105 0 105 0 0 -25 c0 -24 3 -25 55 -25 52 0 55 1 55 25 l0 25 540 0 540
0 0 -25 c0 -24 3 -25 55 -25 52 0 55 1 55 25 0 24 2 25 65 25 56 0 76 6 145
40 l80 40 252 0 253 0 119 -180 119 -180 239 0 239 0 -21 -29 c-16 -24 -29
-31 -63 -33 l-42 -3 -3 -132 -3 -133 221 0 c213 0 220 1 220 20 0 19 7 20 235
20 l235 0 0 -150 0 -150 465 0 465 0 0 150 0 150 338 -2 337 -3 3 -132 3 -133
1239 0 1240 0 0 135 0 135 340 0 340 0 0 -150 0 -150 460 0 460 0 0 150 0 150
340 0 340 0 0 -135 0 -135 1240 0 1240 0 0 135 0 135 340 0 340 0 0 -150 0
-150 460 0 460 0 0 150 0 150 340 0 340 0 0 -135 0 -135 1240 0 1240 0 0 93
c1 74 28 1545 30 1555 0 1 169 2 375 2 l375 0 0 -142 0 -143 128 -390 128
-390 172 -3 172 -2 0 -155 0 -155 30 0 30 0 0 -255 0 -255 35 0 35 0 0 -185 0
-185 40 0 40 0 0 -441 0 -440 -42 5 c-24 3 -158 15 -298 26 -140 11 -270 22
-287 24 l-33 5 0 -415 0 -414 450 0 450 0 0 -290 0 -290 -450 0 -450 0 0 -410
0 -410 28 0 c15 0 164 11 332 25 l305 24 117 56 117 55 513 41 c282 22 664 52
848 67 l335 27 3 53 3 52 537 0 537 0 1004 80 c553 44 1011 80 1018 80 10 0
13 21 13 84 l0 84 -272 6 c-150 3 -596 8 -991 11 l-718 6 -50 -30 c-39 -25
-60 -31 -104 -31 l-55 0 0 40 c0 39 -1 40 -35 40 -34 0 -35 -1 -35 -40 l0 -40
-100 0 -100 0 0 40 c0 39 -1 40 -35 40 -34 0 -35 -1 -35 -40 l0 -40 -105 0
-105 0 0 40 c0 38 -2 40 -30 40 -28 0 -30 -2 -30 -40 l0 -40 -155 0 -155 0 0
445 0 445 155 0 155 0 0 -40 c0 -38 2 -40 30 -40 28 0 30 2 30 40 l0 40 105 0
105 0 0 -40 c0 -39 1 -40 35 -40 34 0 35 1 35 40 l0 40 100 0 100 0 0 -40 c0
-39 1 -40 35 -40 34 0 35 1 35 40 l0 40 55 0 c44 0 65 -6 106 -31 l50 -32 617
7 c339 3 785 9 990 12 l372 7 0 83 c0 82 -1 84 -24 84 -14 0 -466 36 -1006 80
l-982 80 -549 0 -549 0 0 25 c0 18 -6 26 -22 29 -19 4 -908 77 -930 76 -5 0
-8 236 -8 525 l0 525 88 0 88 0 32 413 c18 226 37 484 43 572 6 88 12 170 15
183 l4 22 338 0 338 0 127 388 127 389 0 251 0 252 880 0 880 0 0 -530 0 -530
260 0 260 0 0 530 0 530 90 0 90 0 0 -530 0 -530 255 0 255 0 0 530 0 530 75
0 75 0 0 -530 0 -530 260 0 260 0 0 530 0 530 1009 0 1010 0 651 -190 c358
-105 654 -190 658 -191 8 -1 -459 -159 -470 -159 -3 0 -12 15 -18 34 l-11 34
-87 -29 c-119 -40 -119 -41 -105 -80 7 -18 12 -33 10 -34 -15 -12 -1489 -495
-1496 -491 -5 4 -15 21 -21 40 -10 30 -19 37 -97 66 l-86 33 -706 -233 c-388
-128 -710 -236 -715 -240 -5 -5 6 -69 27 -150 24 -98 31 -143 23 -146 -6 -2
-164 -56 -351 -119 -186 -64 -341 -118 -343 -120 -3 -2 23 -294 58 -647 l63
-643 30 -50 c17 -27 32 -51 32 -53 1 -1 240 68 531 153 l529 156 167 -21 c93
-11 179 -20 192 -20 14 0 458 220 987 490 530 269 964 489 965 487 1 -1 23
-216 49 -477 l48 -475 31 -46 31 -46 525 154 525 155 191 -22 191 -22 1338
682 c736 374 1341 677 1345 673 4 -4 47 -167 95 -362 71 -292 99 -386 131
-449 1 -2 249 67 552 153 l550 155 176 -20 c97 -11 190 -20 208 -20 22 0 654
314 2087 1036 1131 570 2232 1126 2448 1235 l391 199 -20 48 -20 48 -440 196
-439 196 -116 -39 c-64 -21 -118 -40 -120 -43 -2 -2 4 -22 13 -45 9 -23 15
-43 13 -45 -2 -1 -146 -51 -319 -109 l-315 -107 -1035 -73 -1035 -74 -301 133
-301 134 -121 -41 -122 -41 16 -36 c8 -20 16 -41 17 -46 1 -5 -122 -52 -273
-103 l-275 -94 -1040 -74 -1040 -74 -348 155 c-191 85 -353 154 -360 154 -11
0 -228 -69 -235 -75 -2 -2 6 -22 18 -45 12 -23 20 -44 18 -46 -2 -2 -177 -61
-389 -133 -292 -98 -401 -130 -454 -134 -38 -4 -223 -43 -410 -88 -187 -44
-349 -81 -360 -81 -11 1 -364 158 -783 351 l-764 351 -757 0 -758 0 -25 82
-24 83 410 6 c226 3 448 7 494 8 l82 1 0 50 0 50 -510 0 -509 0 -26 88 c-15
48 -30 98 -34 112 l-8 25 -1266 3 -1267 2 0 180 0 180 1325 0 1325 0 0 325 0
325 170 0 170 0 0 -320 0 -320 295 0 295 0 0 243 c0 212 2 251 20 312 19 67
20 100 20 875 0 775 -1 808 -20 875 -18 61 -20 100 -20 312 l0 243 -295 0
-295 0 0 -326 c0 -293 -2 -326 -16 -320 -9 3 -85 6 -170 6 l-154 0 0 320 0
320 -1325 0 -1325 0 0 185 0 185 1267 2 1267 3 33 115 34 115 510 -3 509 -4 0
51 0 51 -177 1 c-98 1 -320 4 -494 8 l-315 6 24 83 25 82 755 0 754 0 768 350
c423 193 777 350 788 350 10 0 180 -38 377 -85 206 -49 379 -85 409 -85 39 0
143 -30 431 -126 209 -70 383 -129 387 -133 4 -3 -2 -25 -12 -49 -14 -32 -16
-44 -7 -47 170 -61 210 -75 222 -75 8 0 171 69 362 154 l348 155 1040 -74
1040 -74 275 -92 c151 -50 276 -93 278 -94 2 -2 -6 -21 -17 -44 -12 -22 -21
-42 -21 -45 0 -2 55 -23 123 -45 l122 -41 301 134 300 133 1035 -73 1034 -73
322 -108 321 -108 -23 -45 -23 -45 124 -42 124 -42 440 196 439 196 20 48 20
48 -592 299 c-326 165 -1429 722 -2452 1238 l-1860 938 -204 -21 -204 -20
-526 147 c-289 81 -536 150 -548 154 -19 6 -25 0 -46 -41 -13 -26 -64 -208
-112 -403 -48 -195 -91 -358 -94 -363 -4 -4 -610 300 -1346 675 l-1338 682
-188 -22 -188 -23 -503 146 c-277 80 -515 150 -529 154 -24 8 -29 5 -57 -43
l-31 -51 -47 -470 c-25 -258 -47 -471 -49 -473 -1 -1 -436 219 -966 489 l-964
491 -191 -22 -191 -21 -514 151 c-283 83 -520 153 -527 155 -7 2 -27 -19 -46
-48 l-33 -52 -63 -643 c-34 -353 -60 -645 -57 -648 2 -3 157 -57 343 -120 187
-63 344 -116 351 -119 8 -2 1 -44 -23 -137 -18 -73 -34 -138 -34 -145 0 -7
286 -107 714 -248 l713 -235 86 31 c78 29 87 34 97 65 6 19 16 36 21 40 5 3
345 -106 754 -243 606 -202 744 -251 739 -263 -4 -8 -7 -26 -8 -39 -1 -21 9
-27 94 -56 99 -35 104 -35 116 13 3 12 11 22 18 22 6 0 114 -35 239 -77 156
-54 222 -80 210 -85 -10 -4 -304 -91 -655 -193 l-636 -185 -1011 0 -1011 0 0
525 0 525 -260 0 -260 0 0 -525 0 -525 -75 0 -75 0 0 525 0 525 -255 0 -255 0
0 -525 0 -525 -90 0 -90 0 0 525 0 525 -260 0 -260 0 0 -525 0 -525 -880 0
-880 0 0 253 0 252 -125 383 -126 382 -339 0 -339 0 -5 33 c-3 17 -8 79 -11
137 -4 58 -22 301 -41 540 -18 239 -34 447 -34 463 l0 27 -90 0 -90 0 0 525 0
525 33 1 c17 0 232 17 477 37 l445 37 3 33 3 32 595 0 595 0 942 75 c517 41
949 75 959 75 16 0 18 10 18 84 l0 84 -192 6 c-106 3 -551 8 -989 11 l-797 6
-54 -30 c-41 -24 -67 -31 -106 -31 l-52 0 0 40 c0 39 -1 40 -35 40 -34 0 -35
-1 -35 -40 l0 -40 -100 0 -100 0 0 40 c0 39 -1 40 -35 40 -34 0 -35 -1 -35
-40 l0 -40 -105 0 -105 0 0 40 c0 38 -2 40 -30 40 -28 0 -30 -2 -30 -40 l0
-40 -155 0 -155 0 0 445 0 445 155 0 155 0 0 -40 c0 -38 2 -40 30 -40 28 0 30
2 30 40 l0 40 105 0 105 0 0 -40 c0 -39 1 -40 35 -40 34 0 35 1 35 40 l0 40
100 0 100 0 0 -40 c0 -39 1 -40 35 -40 34 0 35 1 35 40 l0 40 55 0 c44 0 65
-6 106 -31 l50 -32 552 7 c304 3 749 9 990 12 l437 7 0 83 c0 76 -2 84 -19 84
-11 0 -461 36 -1001 80 l-982 80 -554 0 -554 0 0 50 c0 48 -1 49 -32 54 -18 3
-400 35 -848 71 l-815 66 -120 54 -120 55 -295 25 c-162 13 -312 26 -332 29
l-38 4 0 -414z m-15210 -4309 l0 -105 -69 0 -69 0 -61 -80 -62 -80 -184 0
-184 0 122 185 122 185 192 0 193 0 0 -105z m27308 -195 c449 -151 572 -196
567 -207 -21 -57 -22 -56 80 -92 53 -18 97 -32 99 -30 2 2 11 18 20 36 l16 31
606 -201 c333 -111 597 -203 587 -205 -10 -1 -306 18 -657 43 -352 25 -645 45
-653 45 -10 0 -10 5 -1 25 6 14 9 27 7 29 -2 2 -216 111 -476 243 l-471 239
16 26 c9 15 14 29 12 31 -3 3 -69 37 -147 76 -135 67 -225 118 -193 109 8 -3
273 -92 588 -198z m-31316 -5 l-4 -65 -39 0 -39 0 0 65 0 65 43 0 42 0 -3 -65z
m285 4 c51 -34 93 -63 93 -65 0 -2 -49 -4 -110 -4 l-110 0 0 65 c0 55 3 65 17
65 9 0 59 -28 110 -61z m35112 -485 c-5 -14 -9 -31 -9 -37 0 -7 37 -25 83 -41
45 -16 87 -31 94 -33 6 -3 19 10 29 29 9 18 17 34 18 35 1 2 263 -85 582 -192
318 -107 563 -192 544 -190 -19 2 -311 23 -648 47 -336 23 -609 44 -604 47 16
12 45 92 36 100 -5 5 -219 115 -476 246 -258 130 -468 239 -468 241 0 3 4 14
10 24 9 17 37 9 414 -116 l405 -135 -10 -25z m-16329 -474 l0 -160 -22 4 c-13
3 -156 20 -319 37 l-296 32 -71 106 c-40 58 -72 114 -72 124 0 16 25 17 390
17 l390 0 0 -160z m7410 -1787 c-1 -10 -7 -47 -15 -83 -11 -52 -14 -172 -14
-590 0 -418 3 -538 14 -590 24 -110 38 -101 -142 -98 l-158 3 -3 688 -2 687
160 0 c146 0 160 -2 160 -17z m-7410 -3133 l0 -160 -390 0 c-385 0 -390 0
-390 20 0 28 140 230 160 231 8 0 146 15 305 33 160 19 296 34 303 35 9 1 12
-37 12 -159z m17105 -239 l-560 -188 -18 34 c-10 19 -24 33 -30 30 -7 -2 -50
-16 -95 -32 -88 -29 -91 -32 -68 -85 5 -12 -71 -41 -399 -150 -344 -115 -407
-133 -415 -120 -5 8 -10 18 -10 22 0 4 207 111 460 239 253 127 467 237 476
244 16 11 16 16 -7 61 l-24 49 565 41 c311 23 592 42 625 42 55 0 13 -15 -500
-187z m-3465 -252 c-327 -109 -600 -199 -606 -199 -6 0 -17 14 -24 30 -7 17
-15 30 -19 30 -7 0 -184 -62 -190 -67 -3 -2 2 -18 11 -36 l16 -33 -567 -188
c-311 -104 -573 -191 -581 -193 -14 -4 292 162 315 170 6 3 3 16 -7 33 l-17
29 469 235 c258 130 472 239 476 243 4 4 2 18 -4 32 -11 24 -10 25 26 26 20 0
300 20 622 43 322 24 605 44 630 44 34 0 -99 -48 -550 -199z m-32708 -464 l3
-65 -42 0 -43 0 0 65 0 65 39 0 39 0 4 -65z m378 61 c0 -9 -188 -126 -203
-126 -14 0 -17 10 -17 65 l0 65 110 0 c61 0 110 -2 110 -4z m3430 -76 l61 -80
69 0 70 0 0 -105 0 -105 -192 0 -193 1 -123 184 -122 185 185 0 184 0 61 -80z"/>
</g>
</svg>
