<?xml version="1.0" standalone="no"?>
<!DOCTYPE svg PUBLIC "-//W3C//DTD SVG 20010904//EN"
 "http://www.w3.org/TR/2001/REC-SVG-20010904/DTD/svg10.dtd">
<svg version="1.0" xmlns="http://www.w3.org/2000/svg"
   viewBox="0 0 3082.000000 3682.000000"
 preserveAspectRatio="xMidYMid meet">
<metadata>
Created by potrace 1.16, written by Peter Selinger 2001-2019
</metadata>
<g transform="translate(0.000000,3682.000000) scale(0.100000,-0.100000)"
fill="#000000" stroke="none">
<path d="M8090 36711 l-495 -106 -311 -331 c-284 -302 -312 -335 -323 -380 -7
-27 -107 -443 -222 -924 l-210 -875 -75 -570 c-40 -313 -74 -573 -74 -576 0
-4 -43 -12 -95 -19 -86 -10 -123 -23 -393 -136 -282 -118 -316 -130 -677 -230
-311 -87 -414 -111 -565 -134 -179 -27 -185 -28 -210 -58 -21 -26 -33 -73 -83
-324 -34 -173 -66 -369 -78 -478 -46 -440 -52 -1421 -11 -1867 l7 -75 215 -83
c118 -46 359 -143 535 -217 l320 -133 163 -128 162 -128 -5 -37 c-3 -20 -23
-201 -46 -402 -22 -201 -84 -664 -137 -1030 l-98 -665 -59 -7 c-33 -3 -359
-11 -725 -18 l-665 -11 -257 -110 -257 -109 -428 -49 c-235 -27 -754 -82
-1153 -120 -399 -39 -739 -73 -756 -76 -21 -4 -69 -40 -155 -119 l-124 -113
-135 -358 -135 -357 -106 -102 -106 -102 -100 -229 -100 -230 -51 -250 c-47
-230 -52 -268 -61 -470 -10 -206 -9 -236 14 -460 13 -132 40 -323 59 -425 35
-184 35 -186 145 -439 l111 -254 95 -91 95 -91 134 -350 134 -350 144 -81 143
-81 750 -72 c747 -72 751 -72 1050 -132 l300 -60 375 -179 375 -178 975 -22
c536 -12 994 -24 1017 -27 41 -5 43 -6 57 -57 18 -64 226 -872 226 -878 0 -3
-188 -9 -417 -12 -336 -6 -457 -4 -618 8 -110 9 -258 16 -328 16 l-128 0 5
-32 c3 -18 58 -474 121 -1013 l115 -980 175 -2090 c161 -1913 191 -2234 351
-3795 159 -1552 185 -1833 289 -3130 63 -784 227 -2777 364 -4430 195 -2349
252 -3073 261 -3315 7 -171 15 -326 18 -346 6 -30 41 -68 217 -240 l210 -204
115 -28 c95 -24 230 -39 772 -91 l657 -62 653 72 c359 40 692 81 740 91 l87
18 226 184 c133 108 227 193 230 205 3 12 25 165 50 341 79 561 1107 6919
1121 6930 6 6 162 29 345 50 l332 40 278 295 278 295 1 488 0 488 -277 294
c-223 238 -282 296 -307 300 -17 2 -92 12 -166 20 -74 9 -136 18 -139 21 -6 6
300 2057 308 2065 3 3 148 25 321 48 173 23 323 45 333 47 10 3 164 161 342
352 l325 346 0 158 0 158 701 0 701 0 38 30 38 30 297 0 297 0 48 40 48 40
390 0 c325 0 396 -3 426 -15 30 -13 96 -15 423 -13 l387 3 36 62 35 63 210 1
c116 1 570 6 1010 13 l800 12 -535 8 c-294 4 -748 11 -1009 15 l-474 6 -37 60
-37 60 -389 3 c-328 2 -395 0 -427 -13 -31 -12 -102 -15 -421 -15 l-384 0 -54
45 -55 45 -297 0 -297 0 -33 25 -33 25 -701 0 -702 0 0 153 0 153 -256 275
c-390 417 -402 429 -435 429 -15 0 -30 4 -33 8 -3 5 210 222 472 484 l477 476
835 418 835 417 320 59 c176 32 545 97 820 143 l500 85 880 86 880 85 1045 44
c575 25 1545 65 2155 90 l1110 46 340 78 340 78 3 -118 3 -118 47 -8 c62 -10
2173 -10 2235 0 l47 8 0 98 0 99 43 6 43 7 49 163 48 163 476 285 c357 214
581 341 896 505 231 120 463 238 515 262 73 34 149 85 328 219 146 109 234
183 237 196 29 131 35 234 35 648 0 415 -6 517 -35 645 -3 14 -85 83 -231 194
-216 164 -234 175 -398 251 l-171 80 -223 -37 c-123 -20 -225 -35 -227 -33 -2
2 132 111 298 243 253 201 343 265 555 398 198 124 285 172 405 223 83 36 231
101 327 145 l175 80 200 248 c195 241 202 249 275 288 61 33 101 46 205 67
124 24 137 29 275 104 80 44 219 118 310 165 l165 86 47 78 c42 71 48 91 73
228 27 145 28 162 27 475 0 320 -1 327 -30 476 -29 143 -33 156 -78 224 l-48
72 -161 80 c-88 44 -223 115 -300 159 -133 74 -147 80 -276 107 -112 24 -152
38 -225 77 l-89 48 -179 233 c-99 129 -186 240 -195 248 -18 16 -332 162 -551
256 -80 35 -153 68 -162 74 -9 7 -48 51 -86 99 l-70 86 -7 276 -7 276 -102
178 -101 178 -115 34 -115 33 -80 82 -80 82 -140 6 c-134 6 -160 4 -585 -54
-387 -53 -483 -63 -740 -75 l-295 -14 -100 29 c-55 16 -434 95 -842 176 l-743
146 -812 -105 -813 -106 -395 59 -395 58 -929 -80 -930 -79 -456 -285 -457
-285 -219 -215 -219 -215 -215 -25 c-128 -15 -236 -23 -266 -19 l-51 6 -56
201 c-32 111 -58 202 -60 203 -87 69 -1118 820 -1132 825 -11 4 -432 82 -935
174 l-915 166 -931 -138 -931 -139 -179 -121 c-114 -77 -181 -116 -185 -109
-4 7 -28 129 -54 272 -38 209 -87 411 -250 1035 -112 426 -207 787 -210 801
-6 25 5 36 134 144 l141 116 0 102 c0 114 -16 819 -25 1110 l-6 187 727 0 726
0 38 30 38 30 297 0 297 0 48 40 49 41 418 -6 c230 -3 597 -8 816 -10 l397 -5
28 46 c15 25 32 53 38 62 11 14 106 17 935 29 508 7 949 14 979 15 30 2 -228
6 -575 11 -346 4 -788 10 -981 14 l-352 6 -37 64 -37 63 -384 0 c-319 0 -391
-3 -421 -15 -29 -12 -101 -15 -426 -15 l-391 0 -47 40 -48 40 -298 0 -298 1
-39 29 -40 30 -743 0 c-701 0 -743 1 -743 18 0 9 -7 120 -15 245 l-15 228
-207 487 c-113 268 -208 489 -210 491 -1 2 -229 51 -505 108 -277 58 -504 106
-505 107 -1 1 -63 244 -137 541 -123 493 -576 2207 -594 2247 -4 9 -149 164
-322 345 l-315 328 -540 107 c-297 59 -549 107 -560 106 -11 0 -243 -48 -515
-107z m10186 -15511 c115 -16 223 -32 241 -35 20 -4 95 -56 213 -149 l182
-144 152 -57 151 -57 675 -100 675 -99 1415 -34 1415 -33 464 -53 464 -53 615
42 c338 23 617 41 618 39 2 -2 -105 -36 -239 -76 -200 -59 -299 -82 -567 -131
l-325 -59 -995 -57 -995 -56 -1355 81 -1355 80 -600 -15 -600 -15 -2015 -164
-2015 -164 -1784 -40 c-982 -22 -1787 -39 -1789 -36 -7 6 -32 588 -26 594 6 6
96 -85 149 -150 l30 -36 595 32 c327 18 596 33 598 34 1 1 2 12 2 25 0 13 13
53 30 89 35 79 19 74 272 83 l178 6 22 39 21 38 199 -135 199 -134 934 -140
934 -139 926 170 926 170 560 411 c320 234 565 421 571 434 6 13 14 24 18 24
4 0 102 -13 216 -30z"/>
</g>
</svg>
