<?xml version="1.0" standalone="no"?>
<!DOCTYPE svg PUBLIC "-//W3C//DTD SVG 20010904//EN"
 "http://www.w3.org/TR/2001/REC-SVG-20010904/DTD/svg10.dtd">
<svg version="1.0" xmlns="http://www.w3.org/2000/svg"
   viewBox="0 0 3426.000000 507.000000"
 preserveAspectRatio="xMidYMid meet">
<metadata>
Created by potrace 1.16, written by Peter Selinger 2001-2019
</metadata>
<g transform="translate(0.000000,507.000000) scale(0.100000,-0.100000)"
fill="#000000" stroke="none">
<path d="M428 5054 c-16 -8 -28 -17 -28 -20 0 -3 4 -3 9 1 5 3 12 -4 16 -15 5
-15 11 -18 23 -11 18 9 362 -78 362 -91 0 -5 -85 -8 -188 -8 l-188 0 -42 -43
-42 -43 0 -517 0 -517 -55 0 c-42 0 -55 -3 -55 -15 0 -12 -20 -15 -120 -15
l-120 0 0 -1200 0 -1200 120 0 c100 0 120 -2 120 -15 0 -12 13 -15 55 -15 l55
0 0 -518 0 -518 43 -42 43 -42 192 0 c184 0 192 -1 183 -18 -11 -21 -318 -136
-348 -130 -11 2 -22 -5 -28 -17 -9 -17 -7 -22 14 -31 21 -8 63 4 280 83 141
51 264 97 273 103 12 6 180 10 475 10 l458 1 97 124 98 125 862 1 c581 0 881
4 918 11 39 8 895 13 2864 17 l2809 6 101 283 c99 277 101 282 128 282 25 0
28 -3 28 -35 l0 -35 980 0 980 0 0 35 0 35 9263 0 9264 0 349 50 c192 27 720
116 1174 197 l825 147 148 98 148 98 105 0 104 0 42 37 c213 186 508 462 508
474 0 5 -8 9 -17 9 -10 0 -13 3 -7 9 22 21 115 31 277 31 l174 0 49 97 49 98
0 155 0 155 -49 98 -49 97 -174 0 c-162 0 -255 10 -277 31 -6 6 -3 9 7 9 9 0
17 4 17 9 0 12 -295 288 -508 474 l-42 37 -104 0 -105 0 -148 98 -148 98 -825
147 c-454 81 -982 170 -1174 197 l-349 50 -9264 0 -9263 0 0 35 0 35 -980 0
-980 0 0 -35 c0 -32 -3 -35 -28 -35 -27 0 -29 5 -128 283 l-101 282 -2809 6
c-1969 4 -2825 9 -2864 17 -37 7 -337 11 -918 11 l-862 1 -98 124 -97 125
-465 4 -465 3 -275 77 c-151 42 -275 77 -275 77 0 -1 -12 -8 -27 -16z m-188
-1409 c0 -12 -17 -15 -95 -15 -78 0 -95 3 -95 15 0 12 17 15 95 15 78 0 95 -3
95 -15z m1120 -1085 l0 -150 -75 0 c-70 0 -78 2 -148 45 l-75 45 -465 0 c-300
0 -468 -4 -472 -10 -3 -5 -22 -10 -41 -10 l-34 0 0 80 0 80 34 0 c19 0 38 -4
41 -10 4 -6 172 -10 473 -10 l467 1 70 44 c67 41 74 44 148 44 l77 1 0 -150z
m-1120 -1085 c0 -12 -17 -15 -95 -15 -78 0 -95 3 -95 15 0 12 17 15 95 15 78
0 95 -3 95 -15z"/>
</g>
</svg>
