<?xml version="1.0" standalone="no"?>
<!DOCTYPE svg PUBLIC "-//W3C//DTD SVG 20010904//EN"
 "http://www.w3.org/TR/2001/REC-SVG-20010904/DTD/svg10.dtd">
<svg version="1.0" xmlns="http://www.w3.org/2000/svg"
   viewBox="0 0 4079.000000 691.000000"
 preserveAspectRatio="xMidYMid meet">
<metadata>
Created by potrace 1.16, written by Peter Selinger 2001-2019
</metadata>
<g transform="translate(0.000000,691.000000) scale(0.100000,-0.100000)"
fill="#000000" stroke="none">
<path d="M9483 6567 c-705 -188 -1285 -346 -1289 -350 -5 -4 -38 -220 -74
-480 l-66 -472 -52 -3 -52 -3 0 -165 0 -164 -380 0 -380 0 0 450 0 450 -860 0
-860 0 0 -525 0 -525 -260 0 -260 0 0 -55 0 -55 -335 0 -335 0 0 70 0 70
-1055 0 -1055 0 0 -30 0 -30 -920 0 -920 0 -17 -60 -16 -60 -81 0 -81 0 -68
-242 -68 -243 0 -645 0 -645 68 -242 68 -243 81 0 81 0 16 -60 17 -60 920 0
920 0 0 -25 0 -25 1055 0 1055 0 0 65 0 65 335 0 335 0 0 -55 0 -55 260 0 260
0 0 -525 0 -525 860 0 860 0 0 450 0 450 380 0 380 0 0 -170 0 -170 48 0 48 0
33 -242 c18 -134 33 -243 34 -244 1 -1 606 -166 1345 -368 l1343 -366 389 0
390 0 0 103 0 104 430 223 430 224 0 133 0 133 385 0 385 0 0 -120 0 -120 35
0 35 0 0 -105 0 -105 245 0 245 0 0 -45 0 -45 1045 0 1045 0 0 -445 0 -445
1925 0 1925 0 0 235 0 235 663 0 663 0 764 90 764 90 4278 0 4278 0 0 -40 0
-40 759 0 c496 0 762 3 766 10 4 6 217 10 606 10 l599 0 0 25 0 25 -542 1
c-299 1 -797 5 -1107 8 l-565 6 437 119 437 119 0 49 c0 41 3 48 19 48 27 0
81 48 81 71 0 19 31 19 1565 19 l1565 0 0 30 0 30 -1560 0 -1561 0 -30 35
c-19 21 -40 35 -55 35 -21 0 -23 5 -26 52 l-3 52 -435 117 -435 118 -4520 0
-4520 0 -685 82 c-377 44 -691 83 -698 85 -7 2 1 16 23 36 19 18 78 85 130
148 l94 115 1 243 0 242 364 0 363 0 32 86 c25 71 31 101 31 170 l0 84 805 0
805 0 0 -45 0 -45 125 0 125 0 0 45 0 45 290 0 290 0 0 -45 0 -45 120 0 120 0
0 45 0 45 2785 0 2785 0 0 -45 0 -45 80 0 80 0 0 45 0 45 1265 0 1265 0 0 -45
0 -45 80 0 80 0 0 45 0 45 1573 0 1572 0 28 50 28 50 1487 0 1487 1 630 122
630 122 3 50 c3 46 0 53 -33 85 l-35 34 0 146 0 146 35 34 c33 32 36 39 33 85
l-3 50 -630 122 -630 122 -1487 1 -1487 0 -28 50 -28 50 -1572 0 -1573 0 0 45
0 45 -80 0 -80 0 0 -45 0 -45 -1265 0 -1265 0 0 45 0 45 -80 0 -80 0 0 -45 0
-45 -2785 0 -2785 0 0 45 0 45 -120 0 -120 0 0 -45 0 -45 -290 0 -290 0 0 45
0 45 -125 0 -125 0 0 -45 0 -45 -805 0 -805 0 0 84 c0 70 -6 100 -31 170 l-31
86 -364 0 -364 0 0 243 0 242 -102 124 c-81 99 -150 166 -346 338 l-245 213
-58 0 -59 0 0 -45 0 -45 -455 0 c-449 0 -455 0 -455 20 0 15 21 30 85 62 l85
42 0 366 0 365 -83 30 c-66 24 -83 34 -85 53 l-3 22 -890 0 -890 0 3 -127 3
-127 83 -35 82 -35 0 -318 0 -318 -150 0 -150 0 0 389 0 388 -85 39 -85 39 0
88 0 87 -2100 0 -2100 0 0 -260 0 -260 80 0 80 0 0 -187 c0 -104 3 -218 7
-255 l6 -68 -596 0 -597 0 -2 426 -3 425 -629 245 -629 244 -206 -1 -206 -1
-1282 -341z"/>
</g>
</svg>
