<?xml version="1.0" standalone="no"?>
<!DOCTYPE svg PUBLIC "-//W3C//DTD SVG 20010904//EN"
 "http://www.w3.org/TR/2001/REC-SVG-20010904/DTD/svg10.dtd">
<svg version="1.0" xmlns="http://www.w3.org/2000/svg"
   viewBox="0 0 2898.000000 4770.000000"
 preserveAspectRatio="xMidYMid meet">
<metadata>
Created by potrace 1.16, written by Peter Selinger 2001-2019
</metadata>
<g transform="translate(0.000000,4770.000000) scale(0.100000,-0.100000)"
fill="#000000" stroke="none">
<path d="M3970 47615 c0 -68 -3 -85 -15 -85 -8 0 -44 -14 -79 -32 -55 -27 -67
-38 -80 -72 -15 -37 -15 -44 1 -82 14 -34 28 -46 78 -72 33 -18 68 -32 78 -32
9 0 17 -4 17 -10 0 -5 -15 -10 -34 -10 -18 0 -47 -5 -64 -11 l-30 -10 5 -2222
5 -2222 -101 -287 -101 -286 -24 -2358 c-14 -1297 -23 -2361 -20 -2363 3 -3
26 -13 52 -23 42 -16 86 -18 415 -18 l367 0 0 -145 0 -145 -293 0 c-162 0
-544 -3 -850 -7 l-556 -6 -5 -22 c-7 -29 -51 -35 -252 -35 l-154 0 0 -428 0
-427 -1062 -79 c-585 -43 -1080 -80 -1100 -83 l-38 -6 0 -1328 c0 -731 3
-1329 8 -1329 22 1 2132 -152 2160 -156 l32 -5 0 -529 0 -530 43 0 c23 0 263
7 532 15 270 8 529 15 578 15 l87 0 0 -302 0 -303 110 -97 109 -98 89 0 c49 0
117 -3 151 -6 l61 -7 0 -213 0 -214 -124 0 -124 0 -6 -192 c-11 -335 -19
-2182 -11 -2522 l7 -325 87 -3 c47 -2 -121 -9 -374 -16 -413 -12 -504 -18
-885 -57 -394 -41 -998 -129 -1307 -192 -77 -16 -83 -19 -89 -46 -3 -15 -4
-30 -2 -32 2 -2 246 30 543 71 297 40 548 74 558 74 15 0 17 -11 17 -95 l0
-95 -280 0 -280 0 0 -25 0 -25 -602 0 -603 -1 -305 -192 -305 -192 -2 -750 -2
-750 311 -172 311 -173 598 0 599 0 0 -99 0 -100 -46 -13 -46 -13 -142 -255
c-77 -141 -162 -289 -187 -330 l-47 -75 -13 -250 c-12 -211 -12 -289 -1 -500
l14 -250 52 -85 c29 -47 113 -195 187 -329 133 -242 142 -253 202 -265 l27 -6
0 -100 0 -100 -598 0 -598 0 -312 -172 -312 -172 0 -750 1 -751 307 -192 307
-193 603 0 602 0 0 -25 0 -25 280 0 280 0 0 -95 c0 -67 -4 -95 -12 -95 -6 0
-256 34 -556 76 -299 42 -546 74 -549 71 -3 -3 -2 -19 2 -35 6 -29 8 -30 118
-51 434 -81 923 -152 1287 -186 339 -33 468 -40 1085 -60 692 -22 697 -22 389
-24 l-312 -1 -7 -325 c-8 -341 0 -2190 11 -2522 l6 -193 124 0 124 0 0 -220 0
-220 -147 0 -148 0 -113 -101 -112 -100 0 -300 0 -299 -167 1 c-93 0 -372 6
-621 12 l-452 12 0 -527 0 -528 -22 -4 c-13 -3 -493 -39 -1068 -81 -575 -42
-1060 -78 -1077 -81 l-33 -5 0 -1329 0 -1330 38 -1 c20 0 514 -35 1097 -77
l1060 -77 3 -428 2 -427 109 0 c59 0 149 -3 199 -6 83 -6 91 -9 96 -29 8 -33
47 -35 592 -35 264 0 623 -3 797 -7 l317 -6 0 -144 0 -143 -373 0 c-318 0
-380 -2 -421 -16 l-48 -16 7 -417 c3 -229 15 -1291 26 -2360 l19 -1943 101
-287 101 -286 -5 -2221 -5 -2221 34 -17 c19 -9 49 -16 67 -17 18 0 25 -3 17
-5 -8 -3 -45 -19 -81 -36 -59 -27 -67 -35 -82 -75 -15 -40 -15 -47 0 -84 13
-33 26 -45 74 -70 32 -16 68 -29 79 -29 19 0 20 -6 20 -85 l0 -85 348 0 c192
0 538 3 770 7 l422 6 0 74 0 73 45 0 c32 0 66 10 114 35 64 32 70 37 76 73 10
59 -3 109 -34 131 -55 39 -112 61 -158 62 -26 1 -39 3 -28 6 11 2 39 11 63 19
l42 16 0 119 c0 108 19 232 200 1326 l200 1208 94 275 95 275 520 3246 c287
1786 521 3256 521 3266 0 14 -15 27 -48 42 -46 22 -54 22 -355 19 l-307 -3 0
133 0 132 435 0 c396 0 435 1 435 16 0 15 9 16 64 10 l64 -6 13 81 13 80 45
-5 c25 -3 127 -13 226 -21 99 -8 198 -17 221 -20 l41 -6 38 86 c25 56 43 85
54 85 9 0 309 -18 666 -40 358 -22 656 -40 662 -40 10 0 13 -74 15 -317 l3
-318 2020 -159 2020 -159 2385 137 2385 136 1945 326 1945 326 889 351 889
352 32 50 32 50 854 315 854 314 1113 507 c932 425 1180 542 1530 724 497 259
542 284 542 296 0 5 -11 14 -24 21 -47 21 -877 -63 -2156 -217 -1704 -206
-2670 -324 -2707 -330 -31 -5 -34 -3 -58 44 l-25 50 0 406 c0 223 -3 405 -7
404 -5 0 -127 -24 -273 -53 l-265 -52 -6 101 c-4 55 -7 153 -8 218 -1 86 -4
117 -13 117 -7 0 -251 -43 -543 -95 l-530 -96 -1290 -39 c-709 -22 -1315 -39
-1346 -40 l-56 0 -222 164 -221 164 -83 6 c-45 3 -430 20 -855 36 l-772 30
-281 188 -282 187 1527 3 1526 2 0 124 0 125 53 5 c28 3 732 33 1562 66 l1510
61 118 30 c117 30 123 30 635 49 284 11 525 20 535 20 15 0 17 13 17 125 l0
125 -62 0 c-35 0 -277 7 -538 16 -446 14 -481 17 -570 40 -92 24 -142 27
-1545 91 -797 36 -1451 67 -1452 68 -2 1 11 36 27 79 l30 77 0 274 0 275 -36
95 c-20 53 -33 99 -29 103 3 3 655 34 1448 69 1415 61 1444 62 1546 88 99 25
124 26 600 40 273 8 515 15 539 15 l42 0 0 125 c0 69 -1 125 -2 126 -2 0 -246
9 -543 19 l-540 19 -100 30 -100 30 -1480 65 c-814 36 -1522 68 -1572 72 l-93
6 0 83 0 82 -477 6 c-263 4 -1142 8 -1953 9 l-1475 3 -437 -790 -437 -790 -7
-133 -7 -133 -166 6 c-91 4 -877 26 -1746 50 l-1580 44 -789 96 -790 95 -793
0 -793 0 0 128 0 129 -720 -5 -720 -5 0 207 0 206 105 0 105 0 0 694 0 693 63
7 c122 14 117 11 117 72 0 52 1 53 32 59 18 3 321 39 673 80 787 91 722 82
727 103 4 15 87 24 779 80 587 47 775 65 781 75 4 8 15 23 25 35 18 21 21 21
888 26 479 4 975 9 1103 12 l232 6 0 98 0 98 -27 6 c-16 3 -512 8 -1103 11
-1075 6 -1075 6 -1093 27 -10 12 -21 27 -25 33 -5 9 -244 32 -782 75 -460 37
-778 67 -782 73 -4 7 -1344 174 -1420 177 -5 0 -8 40 -8 89 l0 88 -27 6 c-16
3 -56 9 -90 13 l-63 7 0 148 0 149 -922 2 c-508 1 -891 3 -853 5 39 2 313 28
610 59 433 44 619 67 940 120 220 36 414 69 430 74 17 5 74 16 128 25 88 16
98 20 103 42 4 13 4 26 1 29 -2 3 -537 -61 -1188 -142 l-1184 -147 -1170 22
c-644 12 -1181 24 -1193 28 -87 22 40 25 981 18 551 -4 1009 -9 1018 -11 12
-3 45 40 124 161 l107 165 497 0 497 0 243 285 c133 157 243 285 244 285 1 1
220 16 487 34 l485 34 239 103 238 103 79 95 79 95 0 183 0 183 -50 25 c-43
22 -72 54 -235 269 l-187 244 -51 6 c-48 6 -1250 56 -1342 56 -39 0 -43 4
-128 105 -48 57 -87 107 -87 109 0 3 87 3 193 0 127 -3 432 5 897 25 l705 29
508 181 c279 100 642 235 805 300 238 95 927 390 1199 513 43 19 71 45 158
148 59 69 125 143 146 166 l40 40 -22 20 c-12 10 -78 84 -146 163 -92 108
-134 149 -165 163 -238 108 -971 423 -1188 510 -151 61 -516 197 -810 303
l-536 193 -759 27 c-418 15 -820 25 -892 22 -73 -2 -133 -2 -133 0 0 4 129
161 165 201 9 10 158 19 626 37 338 13 659 27 714 31 l100 6 188 244 c164 213
195 248 238 269 l49 25 0 181 0 181 -77 98 -78 98 -242 102 -242 102 -478 32
c-263 18 -483 35 -490 39 -6 4 -118 133 -249 287 l-238 280 -499 2 -499 3
-102 158 -101 159 -1022 -7 c-711 -5 -1023 -4 -1023 3 0 6 12 13 28 16 15 3
549 15 1187 27 l1160 21 1188 -147 c654 -81 1191 -144 1194 -141 3 3 3 16 -1
29 -5 23 -17 27 -218 65 -499 96 -744 130 -1367 194 l-523 53 836 3 836 2 0
145 c0 80 1 145 3 145 1 0 40 7 87 15 47 8 86 15 88 15 1 0 2 41 2 90 0 50 3
90 8 90 4 0 318 36 699 80 381 44 699 80 708 80 8 0 15 7 15 15 0 9 9 15 23
15 33 0 1445 109 1494 116 34 4 46 11 63 40 l22 34 286 0 c158 0 655 3 1105 7
l817 6 0 104 0 103 -142 0 c-79 0 -575 5 -1103 11 l-960 11 -30 32 -30 33
-725 57 c-855 67 -817 64 -823 85 -3 14 -106 28 -708 99 -387 45 -707 82 -711
82 -4 0 -8 26 -10 57 l-3 58 -87 14 -88 14 0 693 0 694 -105 0 -105 0 0 205 0
205 720 -7 720 -6 0 125 0 125 77 7 c42 3 408 6 815 6 l739 0 772 95 772 96
1595 44 c877 24 1661 46 1741 49 l146 6 7 -132 7 -133 437 -793 437 -794 1019
6 c561 3 1439 6 1953 6 l933 0 0 89 0 89 108 6 c59 4 766 36 1572 71 1381 61
1471 67 1575 89 99 22 155 26 570 40 253 9 493 19 533 22 l72 6 0 119 c0 65
-1 120 -2 120 -2 1 -241 9 -531 19 l-528 17 -127 32 -127 31 -1436 63 -1437
62 39 100 39 100 0 277 0 277 -29 75 -29 75 42 5 c22 3 671 35 1441 71 1343
63 1404 67 1500 91 93 23 130 26 555 39 250 8 494 14 543 15 l87 0 0 125 0
125 -27 0 c-16 0 -257 9 -538 20 l-510 19 -105 31 -105 30 -1540 61 c-847 33
-1555 62 -1572 65 l-33 5 0 124 0 125 -1526 2 -1527 3 281 187 281 187 852 32
853 32 225 168 c206 155 228 169 265 169 23 -1 626 -18 1341 -40 l1300 -39
520 -95 c286 -53 532 -98 546 -101 l26 -6 7 218 c4 119 9 219 11 221 3 4 444
-77 523 -95 l22 -5 0 406 c0 397 0 406 22 451 12 25 28 45 36 45 7 0 399 -47
870 -105 2432 -297 3104 -375 3541 -411 444 -37 496 -37 496 -5 0 8 -202 119
-474 262 -431 225 -578 294 -1590 753 l-1116 506 -855 318 -855 318 -30 46
-30 47 -885 350 -885 351 -1950 329 -1950 330 -2374 137 -2373 136 -2012 -156
c-1106 -87 -2021 -159 -2033 -162 l-23 -4 -2 -318 -3 -317 -635 -37 c-349 -20
-654 -37 -676 -37 l-42 -1 -38 85 -38 85 -35 -5 c-20 -3 -117 -12 -216 -20
-99 -8 -203 -18 -231 -21 l-50 -6 -13 81 -13 81 -42 -6 c-22 -3 -51 -7 -63
-10 -18 -3 -23 0 -23 16 0 20 -2 20 -435 14 l-435 -7 0 136 0 137 310 0 c298
0 311 1 355 22 29 14 45 28 45 41 0 10 -234 1479 -521 3265 l-521 3247 -94
275 -94 275 -200 1202 c-182 1093 -200 1214 -200 1322 0 74 -4 122 -11 126 -5
4 -34 15 -62 26 l-52 18 48 1 c34 0 67 10 116 35 68 34 69 35 75 82 11 82 -1
103 -78 144 -57 30 -76 35 -112 31 l-44 -5 0 80 0 80 -502 6 c-277 4 -623 7
-770 7 l-268 0 0 -85z m5560 -12095 l0 -360 -123 0 c-68 0 -198 -2 -288 -5
l-164 -6 -145 171 c-80 93 -154 181 -165 194 -19 23 -47 28 -540 100 -286 42
-523 76 -527 76 -5 0 -8 5 -8 12 0 8 69 10 269 5 l269 -5 38 84 37 84 381 3
c210 1 513 3 674 5 l292 2 0 -360z m0 -2219 l0 -389 -492 -6 c-271 -3 -712 -7
-981 -9 l-487 -2 0 147 0 147 33 6 c17 3 254 39 526 80 l495 74 165 165 166
166 190 3 c105 1 234 3 288 5 l97 2 0 -389z m4641 -313 l444 -331 245 12 c135
6 271 11 303 11 l57 0 0 -40 0 -39 -47 4 c-27 3 -694 23 -1483 46 -789 23
-1439 46 -1444 50 -10 9 361 559 378 560 84 5 1032 57 1062 58 38 1 64 -16
485 -331z m-8416 -7774 c-165 -12 -381 -32 -480 -42 -165 -18 -213 -19 -560
-10 -209 5 -550 7 -757 3 l-378 -6 0 40 0 41 1238 -1 1237 -1 -300 -24z m-405
-2684 c113 -12 324 -29 470 -39 l265 -19 -1252 -1 -1253 -1 0 39 0 39 408 -4
c224 -3 558 -1 742 4 184 5 353 8 375 6 22 -2 132 -13 245 -24z m9868 -7514
c-2 -1 -139 4 -304 12 l-301 14 -442 -331 -441 -331 -558 26 c-371 18 -559 30
-564 38 -5 6 -90 133 -191 281 -101 149 -182 272 -180 275 2 2 673 25 1491 50
l1487 45 3 -39 c2 -21 2 -39 0 -40z m-6555 -222 l867 -6 0 -390 0 -390 -287 7
-288 7 -166 164 -165 165 -500 75 c-274 41 -511 77 -526 80 l-28 6 0 146 0
147 112 -2 c62 -2 503 -5 981 -9z m805 -2260 l62 -6 0 -357 0 -358 -432 4
c-238 2 -541 6 -674 9 l-241 6 -39 79 -38 79 -271 1 c-166 0 -262 4 -250 9 11
5 249 43 530 85 l510 76 25 30 c14 16 88 103 165 193 l140 164 225 -5 c124 -2
253 -6 288 -9z"/>
</g>
</svg>
