<?xml version="1.0" standalone="no"?>
<!DOCTYPE svg PUBLIC "-//W3C//DTD SVG 20010904//EN"
 "http://www.w3.org/TR/2001/REC-SVG-20010904/DTD/svg10.dtd">
<svg version="1.0" xmlns="http://www.w3.org/2000/svg"
   viewBox="0 0 4551.000000 2485.000000"
 preserveAspectRatio="xMidYMid meet">
<metadata>
Created by potrace 1.16, written by Peter Selinger 2001-2019
</metadata>
<g transform="translate(0.000000,2485.000000) scale(0.100000,-0.100000)"
fill="#000000" stroke="none">
<path d="M21385 24770 l-130 -79 -920 -1 -920 0 -573 -80 c-315 -44 -575 -80
-577 -80 -3 0 -5 -72 -5 -160 0 -88 2 -160 5 -160 2 0 255 -29 561 -65 l557
-65 339 0 338 0 -1 -212 0 -213 -183 -380 -182 -380 -94 -6 c-91 -6 -119 -15
-621 -192 -422 -149 -557 -201 -678 -261 l-151 -76 0 -55 0 -55 -294 0 c-186
0 -297 -4 -301 -10 -4 -6 -220 -10 -616 -10 l-609 0 0 -40 0 -40 609 0 c529 0
610 -2 621 -15 11 -13 57 -15 301 -15 l289 0 0 -52 0 -53 157 -65 c128 -52
171 -76 231 -124 41 -32 76 -65 79 -72 5 -13 -376 -1076 -390 -1085 -5 -3 -47
-12 -95 -18 l-85 -12 -94 -80 -93 -81 0 -235 0 -235 53 -94 52 -93 250 -3 249
-3 -589 -521 c-325 -286 -724 -636 -889 -777 l-299 -257 -312 0 -312 0 -159
-240 -159 -240 -254 0 -255 0 -28 -27 -27 -26 -10 26 -11 27 -1574 0 -1574 0
-1189 -765 -1188 -765 -265 0 -265 0 -93 -107 -92 -107 0 -112 0 -113 -52 -15
c-209 -59 -172 -56 -599 -56 l-396 0 -89 -54 c-49 -30 -230 -141 -402 -248
l-313 -195 -135 -201 -134 -202 0 -170 0 -171 -30 16 c-24 13 -85 15 -385 15
l-356 0 3 152 3 151 158 71 157 71 -2 730 -3 730 -695 302 -695 302 -1898 1
-1897 0 -152 -76 c-126 -63 -182 -99 -327 -211 l-176 -135 -67 -120 -68 -120
0 -897 0 -896 41 -122 41 -123 384 0 c211 0 384 -3 384 -6 0 -3 -12 -25 -26
-50 l-26 -44 -342 0 -341 0 -116 -117 c-105 -106 -129 -138 -243 -321 l-126
-203 0 -1176 0 -1175 131 -212 c117 -186 144 -223 238 -318 l106 -108 345 0
346 0 31 -55 32 -55 -391 -2 -391 -3 -39 -115 -38 -114 0 -898 0 -898 67 -120
67 -121 169 -130 c141 -109 194 -142 327 -209 l160 -80 1899 0 1900 0 695 302
696 302 -2 730 -3 729 -157 71 -158 71 0 152 0 153 367 2 c203 2 376 7 385 12
17 8 18 -3 18 -160 l0 -169 134 -200 133 -201 389 -241 c214 -132 399 -245
411 -252 15 -8 144 -11 422 -11 l400 0 116 -32 115 -31 0 -115 0 -114 92 -104
92 -104 262 0 262 0 1189 -765 1188 -765 1583 0 c1371 0 1582 2 1582 14 0 25
16 27 43 6 24 -19 41 -20 276 -20 l251 0 160 -240 160 -240 311 0 311 0 281
-241 c155 -133 555 -483 890 -778 l607 -536 -247 -5 -247 -5 -52 -90 -53 -90
0 -240 0 -240 76 -65 c110 -93 109 -93 201 -106 47 -7 88 -16 92 -21 10 -10
390 -1061 390 -1076 -1 -7 -34 -39 -75 -72 -60 -49 -103 -72 -232 -126 l-158
-66 -3 -51 -3 -52 -288 0 c-244 0 -290 -2 -301 -15 -11 -13 -92 -15 -621 -15
l-609 0 0 -40 0 -40 609 0 c529 0 610 -2 621 -15 11 -13 57 -15 301 -15 l289
0 0 -50 0 -50 162 -81 c134 -67 252 -113 673 -262 496 -175 513 -180 609 -186
l99 -6 183 -385 184 -384 0 -208 0 -208 -317 0 -318 1 -582 -68 -583 -67 0
-158 c0 -155 0 -158 23 -163 12 -2 266 -39 564 -80 l541 -75 930 0 931 0 133
-80 133 -80 2578 0 2577 0 338 75 c185 41 347 77 358 80 17 4 41 50 114 216
50 116 88 214 84 218 -5 4 -59 47 -121 94 l-111 87 -561 0 c-362 0 -562 4
-566 10 -4 7 -270 10 -765 10 -495 0 -761 -3 -765 -10 -4 -7 -273 -10 -775
-10 l-768 0 -6 63 c-3 34 -8 163 -11 287 -3 124 -8 280 -12 347 l-6 123 -256
166 c-141 92 -258 168 -260 170 -2 2 2 10 9 19 10 12 44 15 197 15 l184 0 170
92 c169 90 171 92 197 144 l26 53 295 105 c163 57 349 123 414 146 l117 42 0
132 0 131 -332 33 c-421 42 -392 36 -373 72 8 16 15 36 15 45 0 8 79 210 176
448 97 237 185 455 196 482 14 37 45 76 116 148 88 89 110 105 239 175 l142
77 3 54 3 54 85 29 84 28 708 0 708 0 12 25 11 25 599 0 598 0 0 50 0 50 -599
0 c-520 0 -600 2 -611 15 -11 13 -95 15 -646 15 l-634 0 0 93 0 93 -242 67
c-347 95 -595 147 -708 147 -85 0 -90 1 -94 23 -3 12 -32 333 -66 712 -33 380
-63 714 -66 743 l-6 52 68 0 c38 0 152 7 254 15 102 8 188 15 191 15 4 0 137
149 295 330 l289 330 450 0 c446 0 451 0 583 26 l132 27 0 133 c0 84 -4 134
-11 136 -5 2 79 31 187 66 l197 62 177 -95 177 -95 339 0 340 0 24 65 c13 36
27 65 30 65 3 0 15 -16 28 -35 l22 -35 108 0 108 0 54 -55 54 -55 366 0 366 0
54 55 54 55 1046 0 1045 0 265 -305 264 -305 212 0 212 0 67 80 67 80 805 0
805 0 93 -80 93 -80 584 0 584 0 31 41 32 41 21 -41 c20 -40 21 -41 73 -41
l54 0 38 -170 38 -170 386 0 386 0 90 168 90 167 306 3 305 2 108 -135 108
-135 364 0 364 0 233 116 c127 63 526 272 886 462 642 341 655 348 697 402
l44 55 2 689 3 689 125 38 125 38 233 1 232 0 0 -638 0 -639 30 -41 c16 -23
41 -44 55 -48 14 -3 96 1 183 10 86 9 382 32 656 52 495 36 500 36 539 62 40
26 51 28 756 93 l716 66 105 53 105 53 940 93 c517 51 940 93 941 94 0 0 11
23 24 50 19 41 28 50 49 50 14 0 40 8 56 19 28 17 41 50 187 492 202 609 208
640 208 1072 0 273 -1 296 -17 301 -10 2 -1186 154 -2613 337 -1427 183 -2597
334 -2599 336 -3 2 2 16 11 31 9 16 51 150 92 300 l76 272 0 359 0 359 73 6
c39 3 182 10 317 16 135 5 291 13 348 16 l102 6 0 119 0 119 -137 1 c-529 5
-109 19 1692 57 1122 24 2059 43 2083 42 l42 0 0 148 0 147 -2037 43 c-1121
24 -2138 46 -2260 49 l-223 6 0 41 c0 35 -147 578 -165 605 -3 6 4 13 17 15
27 6 5167 666 5186 666 9 0 12 67 12 301 0 435 -6 464 -209 1089 -148 457
-159 485 -182 488 -84 9 -88 11 -114 62 -14 28 -29 50 -33 50 -4 0 -423 41
-932 90 l-925 90 -112 55 -112 54 -713 66 c-710 66 -713 67 -758 94 -44 28
-54 29 -590 80 -300 29 -594 59 -655 66 -125 14 -127 13 -186 -72 l-29 -42 0
-625 0 -626 -228 0 c-173 0 -239 4 -273 14 -24 8 -83 27 -131 41 l-88 26 0
688 0 687 -42 42 c-32 31 -191 120 -628 353 -322 171 -719 378 -882 460 l-298
149 -372 0 -373 0 -103 -130 -104 -130 -306 0 -307 0 -90 170 -90 170 -385 0
-386 0 -38 -170 -39 -170 -53 0 c-53 0 -54 -1 -75 -41 l-21 -41 -28 33 c-16
19 -29 37 -30 42 0 4 -262 7 -583 7 l-583 0 -94 -80 -94 -80 -810 0 -811 1
-64 79 -65 80 -210 0 -211 -1 -264 -304 -264 -305 -1046 0 -1047 0 -49 50 -49
50 -376 0 -376 0 -49 -50 -49 -50 -107 0 -107 0 -22 -35 c-12 -19 -25 -35 -30
-35 -4 0 -18 27 -30 60 l-22 60 -346 0 -346 0 -169 -91 c-133 -71 -174 -89
-195 -84 -15 3 -100 29 -190 58 l-164 53 -1 139 -2 139 -135 28 -135 27 -446
1 -447 0 -287 329 -287 328 -77 7 c-42 3 -159 9 -260 13 l-183 6 5 51 c3 28
33 364 67 746 33 382 63 705 66 718 4 21 9 22 103 22 77 0 139 9 284 40 143
31 465 114 640 166 15 5 17 18 17 100 l0 94 639 0 c416 0 642 4 646 10 4 6
217 10 606 10 l599 0 0 55 0 55 -598 0 -599 0 -11 25 -12 25 -712 0 -712 0
-82 27 -83 27 -3 54 -3 54 -145 80 c-126 69 -157 90 -235 168 -73 73 -94 101
-111 147 -12 32 -95 236 -184 453 -89 217 -172 424 -185 460 -12 36 -26 73
-30 83 -5 11 -3 17 6 17 8 0 165 16 349 35 184 19 341 35 348 35 9 0 12 33 12
133 l0 132 -411 145 -411 145 -27 54 c-27 53 -29 54 -202 147 l-174 94 -186 0
c-240 0 -241 3 -81 107 153 99 396 256 399 258 2 1 7 159 13 351 6 192 13 377
16 412 l6 62 763 0 c666 0 764 -2 775 -15 11 -13 109 -15 770 -15 661 0 759 2
770 15 11 13 87 15 569 15 l556 0 110 86 c61 47 114 89 118 93 4 4 -34 102
-84 218 l-92 210 -366 82 -366 81 -2570 0 -2570 -1 -130 -79z"/>
</g>
</svg>
