<?xml version="1.0" standalone="no"?>
<!DOCTYPE svg PUBLIC "-//W3C//DTD SVG 20010904//EN"
 "http://www.w3.org/TR/2001/REC-SVG-20010904/DTD/svg10.dtd">
<svg version="1.0" xmlns="http://www.w3.org/2000/svg"
   viewBox="0 0 4925.000000 1848.000000"
 preserveAspectRatio="xMidYMid meet">
<metadata>
Created by potrace 1.16, written by Peter Selinger 2001-2019
</metadata>
<g transform="translate(0.000000,1848.000000) scale(0.100000,-0.100000)"
fill="#000000" stroke="none">
<path d="M41828 17815 l-918 -663 -72 -6 c-40 -3 -482 -15 -983 -26 -500 -11
-1369 -32 -1930 -46 l-1020 -25 -65 -36 c-156 -87 -192 -134 -259 -336 l-50
-152 -246 -1545 c-136 -850 -247 -1545 -248 -1546 -1 0 -209 3 -462 7 l-460 9
-500 -85 c-485 -82 -513 -85 -941 -120 -242 -19 -448 -35 -457 -35 -10 0 -26
-23 -43 -60 -15 -34 -30 -59 -33 -58 -3 2 -45 23 -92 47 l-85 44 -92 411
c-149 661 -139 600 -147 986 -8 411 -62 1482 -76 1491 -5 3 -312 9 -682 13
-542 6 -856 16 -1623 49 l-950 42 -737 -97 -736 -97 -494 -176 -494 -177 -304
111 -304 110 -750 80 c-413 45 -766 83 -785 86 l-36 5 -87 -191 -87 -190 -49
-539 -50 -540 20 -561 20 -561 63 -310 c35 -170 66 -311 68 -314 3 -2 38 -7
79 -10 58 -5 124 1 309 29 130 20 452 57 720 81 418 39 495 49 559 71 41 14
76 23 78 22 3 -4 -2028 -742 -2071 -753 -21 -5 -26 -2 -30 18 -3 12 -21 205
-41 428 -34 395 -37 417 -125 895 -84 457 -96 511 -180 799 -49 169 -93 313
-98 320 -5 6 -65 81 -134 166 l-125 155 -159 52 -159 53 -215 -25 c-118 -13
-935 -142 -1815 -285 -880 -143 -1742 -283 -1915 -310 -491 -78 -614 -100
-627 -113 -54 -56 -434 -606 -668 -967 -185 -284 -357 -535 -477 -695 l-188
-250 -262 -188 c-239 -171 -296 -206 -628 -389 -262 -144 -375 -211 -400 -238
l-35 -39 -755 104 -755 103 -219 89 c-206 83 -221 90 -248 129 l-30 42 -8 668
-8 669 -36 250 c-27 185 -76 620 -76 669 0 5 -1152 -200 -2940 -523 l-825
-149 -1825 -544 -1825 -544 -940 -578 -940 -578 -1730 -382 -1730 -381 -3
-118 -3 -117 -27 0 c-15 0 -250 -9 -522 -20 -272 -11 -517 -20 -545 -20 l-50
0 0 -279 0 -278 95 -6 c52 -4 310 -14 573 -24 l477 -17 0 -117 0 -116 28 -6
c15 -3 794 -175 1731 -382 l1704 -375 941 -579 942 -579 1849 -551 1850 -550
1685 -301 c1873 -335 2022 -361 2027 -357 1 2 12 100 23 218 12 117 37 322 57
454 l35 240 8 672 8 672 29 40 c18 26 42 45 68 55 22 7 150 52 285 99 l245 85
692 93 692 93 38 -41 c28 -31 128 -90 398 -238 333 -182 380 -212 626 -389
l265 -191 191 -255 c118 -158 296 -418 469 -685 153 -236 366 -551 473 -700
107 -148 195 -271 196 -273 3 -4 212 -40 450 -77 127 -20 1017 -164 1978 -320
1016 -166 1832 -294 1950 -306 l202 -22 156 54 156 54 131 161 131 161 94 329
c90 311 100 355 182 809 84 462 88 495 123 895 36 400 38 415 58 418 19 3
2078 -737 2071 -745 -2 -1 -37 8 -78 22 -62 20 -151 31 -565 69 -269 25 -591
61 -715 80 -174 27 -242 33 -301 29 -67 -5 -77 -8 -82 -27 -3 -11 -32 -154
-65 -316 l-61 -295 -19 -557 -20 -557 49 -543 50 -543 87 -187 c47 -104 91
-188 97 -188 6 0 362 38 791 85 l780 84 299 110 299 109 486 -174 486 -175
745 -99 745 -99 1015 44 c801 34 1145 45 1629 49 338 4 616 8 617 9 8 8 64
1224 69 1497 6 331 7 337 41 497 33 160 37 170 205 555 94 216 173 397 177
402 3 5 15 -11 28 -36 28 -55 -20 -47 514 -88 380 -30 415 -34 905 -116 l510
-86 276 4 275 4 2 -40 c2 -23 29 -396 62 -831 33 -434 67 -887 75 -1005 16
-239 156 -1340 206 -1625 l32 -180 50 -49 c27 -28 95 -88 151 -134 56 -46 520
-471 1033 -945 l931 -861 964 -434 963 -434 1015 -139 c558 -76 1044 -139
1080 -139 36 0 648 36 1360 80 l1295 80 579 85 c318 47 656 91 750 99 l171 13
305 134 305 135 -3 1624 -3 1625 -130 1300 c-116 1172 -133 1323 -172 1530
l-43 230 -200 63 -199 62 -535 69 c-294 38 -526 69 -515 70 11 0 162 12 335
27 l315 26 255 90 c205 73 380 147 885 376 347 156 633 288 637 291 3 3 -2 52
-11 109 l-18 103 171 267 171 266 115 69 c63 38 297 175 520 305 223 129 415
244 426 256 14 13 66 152 144 383 l122 362 -122 358 c-67 197 -127 366 -133
376 -7 9 -192 122 -412 250 -220 128 -458 268 -530 311 l-130 78 -172 268
-171 267 19 104 c10 57 17 104 16 105 -1 1 -279 128 -618 282 -489 223 -671
301 -883 377 l-267 96 -682 60 c-386 33 -737 59 -809 59 l-128 0 0 2623 0
2623 -66 57 -66 57 -676 -1 -677 -1 -917 -663z"/>
</g>
</svg>
