<?xml version="1.0" standalone="no"?>
<!DOCTYPE svg PUBLIC "-//W3C//DTD SVG 20010904//EN"
 "http://www.w3.org/TR/2001/REC-SVG-20010904/DTD/svg10.dtd">
<svg version="1.0" xmlns="http://www.w3.org/2000/svg"
   viewBox="0 0 4552.000000 2397.000000"
 preserveAspectRatio="xMidYMid meet">
<metadata>
Created by potrace 1.16, written by Peter Selinger 2001-2019
</metadata>
<g transform="translate(0.000000,2397.000000) scale(0.100000,-0.100000)"
fill="#000000" stroke="none">
<path d="M31770 23963 c0 -13 -493 -3018 -495 -3021 -2 -2 -131 -6 -287 -9
l-283 -6 -120 -163 -120 -164 -372 0 -373 0 0 36 c0 26 -28 87 -107 235 l-108
199 -320 -3 -319 -2 -108 -195 c-81 -147 -107 -204 -107 -232 l-1 -38 -839 0
-838 0 -96 45 -97 45 -257 0 -258 0 -62 55 -61 55 -216 0 -216 0 -71 -55 -71
-55 -82 0 -81 0 -53 85 -54 85 -129 0 -129 0 0 375 0 375 -55 0 -55 0 0 -180
0 -180 -530 0 -530 0 0 180 0 180 -60 0 -60 0 0 -375 0 -375 -171 -2 -171 -3
-144 -260 c-137 -249 -143 -262 -144 -317 0 -34 -4 -58 -10 -58 -6 0 -336 -41
-733 -90 l-722 -91 -784 -190 -783 -190 -467 -234 -466 -233 -540 -431 -539
-431 -489 0 -489 0 -1150 -590 -1151 -590 -793 0 -792 0 -7 39 c-7 41 -20 56
-102 114 l-51 37 -1104 35 c-818 26 -1245 35 -1651 35 l-548 0 -54 -57 c-32
-34 -54 -67 -55 -80 0 -16 -6 -23 -20 -23 -11 0 -47 -13 -79 -30 -66 -33 -63
-28 -80 -165 -10 -79 4 -242 23 -273 12 -19 102 -62 131 -62 20 0 25 -5 25
-23 0 -14 21 -47 55 -84 l55 -61 0 -124 -1 -123 -289 -245 c-217 -184 -289
-251 -289 -267 l-1 -23 -1357 0 c-1409 1 -1696 8 -1727 41 -7 8 -68 82 -135
165 l-121 151 -452 6 c-248 4 -959 7 -1580 7 l-1128 0 0 -244 0 -244 -199
-111 c-145 -82 -200 -118 -205 -134 -3 -12 -6 -126 -6 -252 0 -186 3 -235 15
-251 8 -12 100 -70 205 -129 l190 -107 0 -244 0 -244 755 0 755 0 0 -128 0
-129 -752 -6 c-413 -4 -1319 -7 -2012 -7 l-1261 0 -77 -118 -78 -118 0 -317 0
-318 80 -119 80 -120 346 0 c324 0 345 -1 340 -17 -2 -10 -7 -135 -11 -278 -3
-143 -8 -278 -11 -300 l-6 -40 -196 -110 c-108 -60 -220 -129 -249 -153 l-53
-43 0 -137 0 -138 53 -50 c54 -53 430 -274 465 -274 9 0 195 -179 417 -402
l399 -403 -354 -3 -355 -3 -63 -84 -62 -85 0 -227 0 -228 60 -71 60 -71 458
-6 c251 -4 590 -7 753 -7 l297 0 6 -73 c7 -68 10 -76 54 -126 l47 -53 1534
-123 1534 -124 46 -44 c25 -24 147 -138 271 -253 l225 -211 140 -16 c467 -56
2846 -348 2873 -352 30 -5 32 -9 32 -44 0 -92 -3 -88 276 -348 145 -135 264
-253 264 -262 0 -9 -25 -41 -55 -71 -30 -30 -55 -60 -55 -67 0 -7 -11 -13 -25
-13 -37 0 -124 -47 -135 -73 -20 -51 -30 -193 -20 -273 18 -127 15 -121 80
-154 33 -16 69 -30 80 -30 16 0 20 -6 20 -36 0 -30 10 -45 58 -96 l57 -60 605
6 c333 4 1048 20 1590 36 852 25 986 27 993 14 7 -12 141 -14 933 -14 l926 0
1151 -591 1152 -591 483 7 482 6 549 -440 548 -440 454 -227 454 -227 775
-189 775 -189 715 -89 c393 -49 730 -92 748 -95 32 -6 32 -6 32 -63 0 -54 6
-67 146 -319 l145 -263 170 0 169 0 0 -370 0 -370 60 0 60 0 0 175 0 175 530
0 530 0 0 -175 0 -175 55 0 55 0 0 370 0 370 128 0 127 0 55 85 55 85 83 0 84
0 71 -55 70 -55 213 0 213 0 62 55 62 55 257 0 257 0 96 45 97 45 840 0 840 0
0 -34 c0 -23 32 -91 109 -232 l109 -199 317 0 318 0 109 198 c78 144 108 207
108 232 l0 35 373 0 373 0 122 -165 122 -165 280 0 c154 0 280 -2 280 -5 0
-14 503 -3020 505 -3024 9 -9 285 95 1640 621 l51 19 -129 835 c-71 459 -128
837 -126 839 3 2 247 41 544 87 l540 84 5 107 5 106 365 230 365 230 54 120
54 121 849 0 848 0 240 -120 240 -120 405 2 405 3 -25 52 -24 53 332 0 c183 0
409 5 502 10 94 6 343 14 555 18 l385 7 -690 9 c-379 5 -786 12 -903 15 l-213
6 -164 345 c-90 190 -164 348 -165 352 0 3 143 145 318 314 174 169 318 310
319 313 2 3 -114 223 -256 488 l-259 483 127 0 c69 0 264 3 432 7 l306 6 -93
246 c-52 135 -94 249 -94 254 0 4 86 7 191 7 l191 0 -7 28 c-20 79 -165 704
-165 711 0 5 105 48 233 96 l232 87 340 314 340 314 740 0 740 0 70 -198 70
-197 279 0 279 0 15 41 15 41 586 8 c322 4 694 10 826 14 l240 6 -185 7 c-102
4 -469 11 -816 14 l-632 7 38 111 c21 61 41 119 45 129 7 16 55 17 822 17
l814 0 374 153 375 152 0 118 0 117 -3047 1 -3048 0 123 117 122 117 -1 495
-1 495 -126 117 -126 118 -325 0 c-179 0 -350 3 -378 6 l-53 7 0 73 0 74 518
0 c330 0 522 4 528 10 6 6 268 16 674 25 663 15 1612 44 1617 49 2 1 -176 6
-394 9 -968 16 -1879 39 -1895 47 -11 6 -224 10 -533 10 l-515 0 0 1880 0
1880 428 0 c236 0 894 3 1463 6 l1034 6 220 -191 220 -191 1090 0 1090 0 1090
45 c600 25 1109 48 1133 51 l42 5 0 98 0 98 -132 6 c-73 4 -581 20 -1128 37
-547 17 -1019 33 -1048 36 l-52 5 2 182 3 182 737 3 737 2 180 228 181 227 0
503 0 503 -179 223 -179 223 -1188 7 c-654 4 -1190 10 -1192 14 -1 4 -258 556
-570 1227 l-569 1220 -356 3 c-196 1 -357 4 -357 6 0 2 -58 156 -128 343
l-129 340 264 172 c144 95 263 178 263 185 0 6 -46 119 -101 251 l-102 241
-296 -23 c-293 -22 -771 -31 -771 -15 0 4 57 156 126 337 69 182 135 354 146
383 l19 52 317 0 c327 0 979 14 1252 27 139 7 103 9 -340 19 -272 7 -654 12
-847 13 -194 1 -353 4 -352 9 0 4 24 72 53 152 l52 145 -410 3 c-226 1 -416 0
-422 -2 -6 -2 -206 -369 -445 -815 -239 -445 -436 -810 -439 -810 -3 0 -95 86
-204 192 l-200 193 207 436 c114 240 207 439 207 442 0 3 -180 6 -400 6 l-400
0 -250 -125 -250 -125 -842 0 -843 0 -56 123 -56 122 -366 230 -366 230 -1
107 0 107 -32 6 c-18 3 -262 39 -542 80 -280 41 -511 77 -514 80 -3 3 52 375
121 828 70 452 127 829 127 838 0 11 -28 27 -82 48 -224 89 -1595 611 -1604
611 -2 0 -4 -3 -4 -7z m-19040 -7357 c0 -2 -9 -25 -20 -50 l-19 -46 -415 0
-415 0 -58 -85 -58 -84 -52 -1 -53 0 0 120 0 120 28 1 c706 24 1062 33 1062
25z m-980 -8992 c12 -13 7 -15 -40 -12 -31 2 -55 8 -58 16 -6 19 82 16 98 -4z"/>
</g>
</svg>
