<?xml version="1.0" standalone="no"?>
<!DOCTYPE svg PUBLIC "-//W3C//DTD SVG 20010904//EN"
 "http://www.w3.org/TR/2001/REC-SVG-20010904/DTD/svg10.dtd">
<svg version="1.0" xmlns="http://www.w3.org/2000/svg"
   viewBox="0 0 3437.000000 1576.000000"
 preserveAspectRatio="xMidYMid meet">
<metadata>
Created by potrace 1.16, written by Peter Selinger 2001-2019
</metadata>
<g transform="translate(0.000000,1576.000000) scale(0.100000,-0.100000)"
fill="#000000" stroke="none">
<path d="M6115 15729 l-330 -29 -230 -71 -230 -70 -171 -115 c-167 -113 -173
-118 -273 -241 -134 -164 -197 -295 -241 -506 -17 -77 -30 -150 -30 -162 0
-12 -10 -35 -22 -51 -23 -28 -23 -33 -26 -383 l-4 -354 -195 7 -195 7 -84 -77
-84 -76 0 -448 0 -449 25 -19 24 -19 -24 -23 -25 -23 0 -446 0 -445 26 -27 25
-26 -25 -21 -26 -20 0 -448 0 -449 83 -72 82 -73 89 0 c87 0 88 0 82 -22 -19
-65 -85 -332 -96 -390 l-14 -68 -65 0 c-36 0 -428 11 -871 25 -649 20 -974 25
-1676 25 l-871 0 -6 -56 c-3 -31 -8 -58 -11 -61 -3 -3 -137 -16 -299 -28 -271
-21 -298 -25 -344 -49 -28 -14 -54 -33 -58 -43 -18 -46 -35 -879 -19 -940 4
-13 28 -35 59 -52 48 -27 67 -31 172 -38 l118 -8 5 -514 5 -515 417 -105 418
-106 0 -37 c0 -30 -4 -38 -27 -46 -94 -34 -881 -322 -896 -327 -16 -7 -17 -55
-15 -859 l3 -851 468 -170 468 -170 -3 -39 -3 -39 -417 -106 -418 -105 0 -516
0 -516 417 -105 417 -104 191 -125 c105 -69 250 -161 323 -205 73 -44 132 -82
132 -85 0 -3 -206 -30 -457 -59 -252 -29 -479 -57 -505 -61 -39 -6 -101 -43
-346 -206 l-300 -199 -40 -115 c-51 -142 -67 -267 -51 -391 9 -70 17 -94 50
-145 39 -60 41 -61 92 -66 29 -3 377 -32 775 -64 397 -32 719 -60 715 -61 -4
-2 -60 -9 -123 -16 l-115 -13 -261 -172 -260 -172 -38 -92 c-50 -121 -69 -243
-54 -348 10 -73 19 -89 87 -172 4 -4 483 -50 1066 -102 l1060 -95 545 9 c493
8 571 7 815 -11 149 -10 277 -19 286 -19 13 0 18 -22 28 -126 6 -69 16 -134
21 -145 10 -19 32 -19 948 -18 733 0 952 3 1007 13 52 10 133 44 311 130 l242
116 130 0 129 0 537 -249 536 -249 223 -36 c218 -35 239 -37 1082 -76 473 -22
897 -40 942 -40 76 0 95 5 318 84 234 84 321 126 662 322 15 9 114 128 218
265 l190 248 315 564 c296 529 326 579 496 818 186 261 225 303 451 493 25 21
92 44 290 101 l258 74 2830 12 c1557 6 3161 9 3565 5 l735 -6 130 26 c129 26
131 27 319 133 l188 106 163 177 c144 157 184 209 356 462 136 203 198 286
211 286 11 0 569 54 1241 119 1132 111 1278 123 1982 165 418 25 778 48 801
50 l40 5 68 -137 c61 -123 73 -141 115 -169 l47 -31 415 -16 c228 -9 622 -16
877 -16 l463 0 562 101 c560 100 564 101 987 219 l425 118 665 256 665 257
495 241 c476 232 500 245 618 336 104 80 437 288 772 482 66 38 95 66 239 230
l164 186 57 156 57 156 -57 157 -56 158 -166 187 -166 186 -143 84 c-351 205
-563 340 -687 436 l-133 104 -492 236 c-480 230 -509 243 -1163 495 l-671 259
-424 120 -424 119 -562 101 -562 100 -663 -10 c-365 -5 -762 -12 -883 -16
l-220 -6 -43 -42 c-30 -28 -63 -80 -107 -167 l-64 -126 -48 4 c-26 2 -410 26
-853 53 -746 46 -890 58 -1975 165 -643 63 -1179 115 -1191 115 -15 0 -38 27
-89 108 l-69 109 -111 11 c-60 7 -344 28 -630 47 -456 31 -826 45 -3010 116
-1464 47 -2818 96 -3285 118 l-795 38 -585 103 -585 104 -515 344 c-283 190
-517 347 -520 349 -2 2 2 8 9 12 11 7 8 204 -19 1202 -17 657 -34 1205 -36
1218 l-5 24 -125 -6 -124 -5 0 282 c0 378 -10 478 -59 598 -57 137 -63 148
-82 148 -11 0 -20 9 -23 23 -39 227 -61 308 -112 422 -46 102 -70 139 -157
245 -99 121 -108 129 -272 241 l-170 116 -230 71 -230 72 -356 30 -356 30
-1814 -1 -1814 -1 -330 -29z"/>
</g>
</svg>
