<?xml version="1.0" standalone="no"?>
<!DOCTYPE svg PUBLIC "-//W3C//DTD SVG 20010904//EN"
 "http://www.w3.org/TR/2001/REC-SVG-20010904/DTD/svg10.dtd">
<svg version="1.0" xmlns="http://www.w3.org/2000/svg"
   viewBox="0 0 5000.000000 1473.000000"
 preserveAspectRatio="xMidYMid meet">
<metadata>
Created by potrace 1.16, written by Peter Selinger 2001-2019
</metadata>
<g transform="translate(0.000000,1473.000000) scale(0.100000,-0.100000)"
fill="#000000" stroke="none">
<path d="M29975 14502 c-381 -233 -465 -289 -465 -305 0 -5 21 -47 46 -94 l46
-85 -30 -31 -31 -32 132 -161 132 -162 600 -1141 c330 -627 604 -1141 608
-1141 7 0 338 192 424 246 21 13 26 10 99 -81 l76 -95 56 44 c32 24 88 76 127
115 38 39 73 71 77 71 5 0 -1 -18 -12 -41 -19 -36 -20 -43 -7 -57 7 -10 58
-70 112 -135 86 -104 100 -116 114 -104 9 7 42 35 74 62 33 28 61 44 66 39 17
-19 251 -344 251 -349 0 -3 -108 -5 -240 -5 l-240 0 0 80 0 80 -1667 0 -1668
0 -1695 -135 c-932 -75 -1710 -138 -1727 -141 l-33 -5 0 -174 0 -173 83 -6
c229 -18 3432 -186 3536 -186 l121 0 0 -110 0 -110 -248 0 -248 0 -44 -130
-45 -130 -1635 0 -1636 0 -449 -90 c-247 -49 -451 -90 -452 -90 -2 0 -3 -103
-3 -230 l0 -230 -1665 0 -1665 0 0 140 0 140 -1710 0 -1710 0 0 -140 0 -140
-60 0 -60 0 0 235 0 235 -115 0 -115 0 0 1135 0 1135 -307 0 -308 0 -22 38
c-21 38 -23 39 -209 95 l-187 56 -189 -56 c-188 -56 -189 -56 -210 -95 l-22
-38 -860 2 -861 3 -188 58 -188 58 -187 -58 -187 -58 -575 -5 -574 -5 -21
-122 c-11 -67 -23 -124 -25 -126 -3 -3 -180 -31 -395 -64 l-390 -59 -3 -497
-2 -497 -66 0 c-36 0 -101 9 -145 20 l-79 20 -79 -20 c-56 -14 -112 -20 -190
-20 l-111 0 0 605 0 605 -1360 0 -1360 0 0 -115 0 -115 -358 0 c-198 0 -393
-3 -435 -6 l-77 -7 0 -81 0 -81 -190 -75 -190 -74 0 -801 0 -801 190 -69 190
-70 0 -88 0 -89 435 8 435 7 0 -58 c0 -41 -14 -101 -51 -216 l-50 -159 -55 0
-54 0 0 -220 0 -220 -1380 0 -1380 0 0 -435 0 -435 -185 0 -185 0 0 -68 0 -69
-152 -6 c-83 -4 -218 -7 -299 -7 -106 0 -148 -3 -151 -12 -4 -11 -912 -42
-3773 -129 -38 -1 -57 -4 -40 -6 17 -1 880 -28 1920 -58 1041 -31 1892 -60
1895 -65 4 -7 460 -30 588 -30 8 0 12 -20 12 -65 l0 -65 185 0 185 0 0 -440 0
-440 1380 0 1380 0 0 -220 0 -220 55 0 54 0 51 -158 c36 -113 50 -174 50 -215
l0 -57 -435 7 -435 6 0 -85 0 -86 -102 -40 c-57 -21 -142 -54 -190 -72 l-88
-33 0 -801 0 -801 190 -75 190 -75 0 -81 0 -81 278 -6 c152 -4 348 -7 435 -7
l157 0 0 -115 0 -115 1360 0 1360 0 0 605 0 605 111 0 c78 0 134 -6 190 -20
l79 -20 79 20 c44 11 109 20 145 20 l66 0 2 -497 3 -497 388 -56 c213 -31 390
-60 395 -64 4 -4 16 -62 27 -129 l20 -122 575 -5 575 -5 177 -53 c97 -28 186
-52 197 -52 12 0 101 24 198 52 l178 53 861 3 860 2 22 -39 22 -39 183 -51
c100 -28 188 -51 195 -51 7 0 94 23 193 52 180 51 180 52 202 90 l22 38 308 0
307 0 0 1135 0 1135 115 0 115 0 0 235 0 235 60 0 60 0 0 -135 0 -135 1710 0
1710 0 0 135 0 135 1665 0 1665 0 0 -230 c0 -126 3 -230 6 -230 3 0 206 -40
451 -90 l445 -90 1636 0 1637 0 45 -130 45 -130 247 0 248 0 0 -110 0 -110
-122 0 c-108 0 -3360 -170 -3545 -186 l-73 -6 0 -173 0 -174 43 -5 c23 -4 800
-67 1727 -141 l1685 -135 1668 0 1667 0 0 80 0 80 240 0 c132 0 240 -2 240 -5
0 -2 -58 -83 -129 -179 l-128 -174 -72 59 c-40 32 -75 59 -78 59 -3 0 -11 -6
-17 -14 -6 -8 -55 -68 -109 -134 l-98 -121 21 -40 c11 -23 18 -41 15 -41 -3 0
-56 48 -117 106 -61 58 -120 109 -129 115 -15 8 -30 -5 -91 -80 -40 -50 -77
-90 -81 -90 -5 -1 -105 55 -223 124 -117 69 -217 125 -221 125 -5 0 -278 -513
-608 -1140 l-600 -1140 -132 -162 -132 -163 29 -29 29 -29 -46 -91 -45 -91 39
-35 c46 -40 786 -490 807 -490 7 0 222 255 477 568 255 312 716 873 1025 1248
309 374 566 690 573 701 10 19 4 27 -48 75 -49 44 -57 56 -48 69 7 8 26 15 43
14 29 0 42 13 137 128 l104 128 -48 47 -48 47 261 318 261 317 714 0 c392 0
713 -3 713 -6 0 -3 -53 -83 -118 -179 l-118 -173 -70 59 c-38 32 -73 58 -79
58 -12 0 -215 -254 -215 -269 0 -6 10 -30 21 -53 l21 -42 -33 31 c-140 129
-234 214 -239 214 -3 0 -41 -43 -83 -95 -43 -53 -81 -94 -85 -92 -4 3 -104 61
-224 131 -119 69 -220 126 -225 126 -4 0 -282 -521 -617 -1158 l-610 -1157
-113 -138 c-62 -76 -113 -142 -113 -146 0 -4 11 -18 24 -30 l25 -23 -52 -96
-51 -95 43 -37 c24 -21 212 -139 419 -264 350 -212 377 -227 399 -215 13 7
365 429 781 938 416 509 876 1070 1021 1246 145 176 268 325 273 332 7 9 -8
29 -51 68 -69 64 -73 90 -12 80 36 -6 36 -6 136 116 55 68 103 128 108 135 4
8 -11 30 -44 61 l-51 49 254 312 253 312 718 0 c600 0 717 -2 710 -14 -4 -7
-62 -87 -128 -178 l-119 -166 -72 59 c-40 33 -75 59 -78 59 -5 0 -195 -233
-209 -257 -4 -7 2 -31 13 -54 12 -22 20 -42 18 -44 -2 -1 -61 51 -133 116 -71
66 -132 118 -136 117 -3 -2 -41 -45 -83 -96 l-77 -93 -32 19 c-139 84 -415
242 -423 242 -5 -1 -281 -519 -614 -1152 -563 -1071 -611 -1158 -685 -1251
-44 -54 -98 -122 -120 -149 l-39 -50 28 -24 28 -24 -53 -97 -52 -97 43 -36
c55 -46 803 -500 810 -492 3 4 13 12 22 17 9 6 371 444 804 975 433 531 891
1091 1017 1245 127 154 235 285 240 292 6 9 -10 29 -52 69 -47 43 -59 60 -51
70 7 8 24 11 43 7 31 -4 37 1 140 126 59 72 107 134 107 137 0 4 -23 28 -50
53 l-51 46 261 312 260 313 755 0 755 0 0 -95 0 -95 745 0 745 0 0 -150 0
-150 794 0 794 0 60 -50 60 -50 1586 0 1586 0 37 50 c34 46 41 50 78 50 l42 0
14 208 14 207 3 -152 c1 -84 6 -153 10 -153 4 0 1078 27 2387 60 1309 33 2404
60 2433 60 l52 0 0 48 0 47 -2407 58 c-1325 32 -2423 58 -2440 58 -33 -1 -33
-1 -33 49 l0 50 177 2 178 3 813 1001 813 1001 922 7 c507 3 1159 9 1450 12
l527 7 0 22 0 23 -652 6 c-359 4 -994 10 -1410 14 l-757 7 185 228 c102 125
191 227 198 227 7 0 309 36 671 80 362 44 661 80 666 80 4 0 19 24 32 54 l25
54 298 6 c165 3 399 9 522 12 l222 6 0 148 0 147 -262 6 c-145 4 -342 7 -439
7 -97 0 -178 3 -182 6 -3 3 5 31 19 61 21 48 24 71 24 163 l0 107 420 8 420 7
0 133 0 132 -302 6 c-166 4 -355 7 -420 7 l-118 0 0 113 c-1 95 -4 120 -25
167 l-23 55 291 6 c161 3 361 7 445 8 l152 1 0 154 0 154 -497 6 c-274 4 -510
9 -524 12 -19 4 -30 17 -46 54 -15 35 -28 51 -44 54 -13 3 -307 40 -654 81
-346 42 -645 79 -663 83 -29 6 -61 40 -212 227 l-179 220 412 6 c227 4 861 10
1410 14 l997 7 0 28 0 27 -1097 7 c-604 3 -1258 9 -1454 12 l-356 7 -809 998
-809 998 -177 0 -178 1 0 50 0 50 68 0 c105 0 4488 109 4660 116 l152 6 0 43
0 43 -142 6 c-79 3 -1088 29 -2243 56 -1155 27 -2189 53 -2297 56 l-197 7 -3
-154 -3 -154 -14 208 -14 207 -42 0 c-37 0 -44 4 -78 50 l-37 50 -1586 0
-1586 0 -60 -50 -60 -50 -794 0 -794 0 0 -150 0 -150 -745 0 -745 0 0 -95 0
-95 -755 0 -755 0 -260 313 -259 312 51 52 51 51 -19 24 c-11 13 -59 73 -109
132 -85 103 -91 108 -122 103 -20 -4 -36 -1 -43 7 -8 10 4 27 51 70 42 39 58
60 52 69 -5 7 -133 163 -284 347 -152 184 -610 745 -1018 1245 -408 501 -753
918 -766 928 -24 18 -25 17 -387 -204 -297 -181 -411 -254 -476 -305 -2 -1 19
-47 47 -101 l50 -98 -26 -27 c-30 -31 -43 -8 112 -200 l100 -123 599 -1140
c330 -627 605 -1146 612 -1154 10 -11 48 8 226 112 117 69 220 128 228 132 11
4 38 -22 89 -85 40 -49 78 -90 85 -90 6 0 68 51 136 114 69 63 126 113 128
111 2 -2 -6 -22 -18 -44 -11 -23 -17 -47 -13 -54 6 -11 172 -216 197 -244 9
-10 28 1 85 46 l74 59 17 -21 c25 -33 225 -310 234 -324 6 -10 -139 -13 -711
-13 l-718 0 -253 312 -253 311 52 53 52 52 -109 132 c-104 125 -111 131 -140
127 -61 -10 -59 13 6 78 l60 61 -243 294 c-134 162 -598 729 -1031 1260 -434
531 -797 971 -807 978 -17 11 -60 -12 -391 -215 -356 -217 -468 -290 -468
-304 0 -3 22 -49 50 -101 l50 -95 -25 -23 c-14 -13 -25 -27 -25 -30 0 -4 53
-72 118 -152 l117 -144 605 -1152 c333 -633 609 -1152 613 -1152 5 0 108 59
229 130 122 72 224 129 228 128 4 -2 42 -45 83 -96 l76 -93 65 58 c36 32 98
87 137 123 l72 64 -22 -41 c-11 -23 -21 -47 -21 -53 0 -5 48 -68 106 -140
l107 -129 75 58 76 59 118 -173 c65 -96 118 -176 118 -179 0 -3 -321 -6 -712
-6 l-713 0 -261 318 -261 317 44 47 c31 31 43 50 37 60 -4 7 -52 68 -106 135
-91 113 -100 122 -126 117 -18 -4 -32 -1 -40 9 -10 12 -2 24 48 67 54 47 59
54 48 73 -6 12 -313 389 -683 837 -369 448 -832 1012 -1028 1253 -197 240
-361 437 -365 437 -4 -1 -174 -103 -377 -228z"/>
</g>
</svg>
