<?xml version="1.0" standalone="no"?>
<!DOCTYPE svg PUBLIC "-//W3C//DTD SVG 20010904//EN"
 "http://www.w3.org/TR/2001/REC-SVG-20010904/DTD/svg10.dtd">
<svg version="1.0" xmlns="http://www.w3.org/2000/svg"
   viewBox="0 0 3462.000000 4538.000000"
 preserveAspectRatio="xMidYMid meet">
<metadata>
Created by potrace 1.16, written by Peter Selinger 2001-2019
</metadata>
<g transform="translate(0.000000,4538.000000) scale(0.100000,-0.100000)"
fill="#000000" stroke="none">
<path d="M22802 44686 l-1203 -694 -129 -113 c-71 -62 -131 -118 -133 -123 -3
-6 -24 -65 -47 -131 -24 -66 -48 -127 -55 -135 -10 -11 -982 -3281 -1755
-5904 -32 -110 -65 -205 -72 -211 -7 -7 -1349 -1001 -2981 -2209 l-2968 -2197
-78 16 c-110 22 -159 12 -396 -84 -215 -87 -228 -97 -278 -189 l-25 -47 -11
-878 -11 -879 72 -126 c40 -70 74 -129 76 -133 2 -4 -39 1 -90 10 l-93 17
-100 80 c-170 136 -207 164 -219 164 -6 0 -211 -74 -455 -165 -244 -91 -453
-168 -465 -171 -18 -4 -28 8 -65 76 -25 44 -50 85 -56 90 -11 9 -160 -45
-1143 -411 l-54 -19 57 67 c123 148 205 251 205 258 0 3 324 400 720 880 451
547 720 882 720 895 0 12 -4 18 -10 15 -5 -3 -324 -387 -707 -853 -384 -466
-709 -858 -723 -872 -14 -14 -99 -114 -189 -223 -89 -108 -170 -201 -179 -206
-9 -4 -1038 -388 -2286 -852 -1890 -703 -2270 -848 -2279 -866 -6 -15 -7 -53
-1 -114 9 -87 9 -91 -11 -99 -11 -4 -1221 -454 -2690 -1000 -1469 -546 -2673
-997 -2676 -1003 -4 -5 -5 -37 -2 -71 3 -50 17 -87 73 -203 45 -93 75 -143 88
-147 11 -4 799 82 1752 189 953 108 1738 195 1746 193 21 -5 -3458 -1932
-3573 -1980 l-103 -42 0 -233 0 -233 22 -5 c13 -3 337 -79 721 -169 l699 -163
49 -49 49 -48 0 -696 0 -696 -49 -48 -49 -49 -699 -163 c-384 -90 -708 -166
-720 -169 l-23 -5 0 -233 0 -233 103 -42 c115 -48 3594 -1975 3573 -1980 -7
-2 -793 85 -1746 193 -953 107 -1741 193 -1752 189 -13 -4 -43 -54 -88 -147
-56 -116 -70 -153 -73 -203 -3 -34 -2 -66 2 -71 3 -6 1214 -459 2691 -1009
l2685 -998 -13 -100 c-9 -77 -10 -106 -1 -123 8 -14 42 -33 103 -56 50 -19
1086 -404 2302 -857 l2212 -822 148 -182 c82 -99 161 -192 175 -206 15 -14
334 -398 709 -855 375 -456 695 -843 711 -860 28 -29 29 -29 29 -7 0 16 -231
304 -718 895 -395 480 -721 879 -724 887 -4 8 -56 75 -117 149 -61 73 -111
135 -111 137 0 2 35 -9 78 -25 42 -16 297 -111 565 -211 269 -100 495 -179
502 -177 7 3 36 48 65 100 48 87 55 95 74 86 58 -25 912 -339 922 -339 12 0
49 28 219 164 l100 80 93 17 c51 9 92 14 90 10 -2 -4 -36 -63 -76 -133 l-72
-126 11 -879 11 -878 25 -47 c50 -92 63 -102 278 -189 237 -96 286 -106 396
-84 l78 16 2968 -2196 c1632 -1209 2975 -2205 2983 -2214 8 -10 38 -98 67
-197 307 -1052 1748 -5903 1757 -5914 7 -8 32 -69 56 -135 23 -66 44 -125 47
-131 2 -5 62 -61 133 -123 l129 -113 1203 -694 1203 -694 125 0 c94 1 993 27
1008 29 8 2 -16 123 -182 922 l-184 884 84 86 c48 50 84 95 84 106 0 19 -1895
12045 -1904 12088 -4 16 27 42 177 143 100 67 188 122 195 122 7 0 23 11 35
23 12 13 64 52 116 86 l94 63 -7 552 c-3 303 -9 667 -12 808 l-7 258 -66 88
c-46 62 -71 87 -83 84 -15 -3 -18 4 -18 38 0 26 -8 51 -22 70 -20 28 -27 30
-85 30 l-63 0 0 335 0 335 60 0 60 0 0 135 0 135 303 0 302 0 458 -833 c252
-457 466 -843 477 -857 10 -14 280 -502 600 -1085 320 -583 598 -1087 618
-1120 20 -32 307 -552 638 -1155 508 -924 634 -1144 617 -1080 -1 4 -273 500
-604 1101 -331 602 -606 1105 -612 1119 -6 14 -281 516 -611 1115 -329 600
-609 1113 -621 1140 -13 28 -228 423 -479 879 l-456 829 0 89 c0 52 4 88 10
88 6 0 10 11 10 25 l0 25 2693 3 2692 2 -2692 3 -2693 2 0 25 c0 14 -4 25 -10
25 -6 0 -10 37 -10 90 0 72 3 90 15 90 8 0 19 9 25 20 11 20 21 20 3515 20
3498 0 3505 0 3505 20 0 20 -7 20 -3509 20 -3500 0 -3509 0 -3514 20 -3 11
-12 20 -21 20 -14 0 -16 25 -16 210 l0 210 279 0 c176 0 282 4 286 10 4 7 590
10 1726 10 1139 0 1719 3 1719 10 0 7 803 10 2390 10 2383 0 2390 0 2390 20 0
20 -7 20 -2390 20 -1587 0 -2390 3 -2390 10 0 7 -580 10 -1720 10 -1520 0
-1721 2 -1726 15 -5 13 -46 15 -285 15 l-279 0 0 210 0 210 -105 0 -105 0 0
335 0 335 98 0 98 0 34 35 34 35 453 0 453 0 0 112 0 113 129 -129 128 -128
1374 251 1374 252 2300 349 c1265 193 2312 353 2327 356 18 3 68 54 167 168
111 129 143 173 153 209 6 25 19 48 27 50 9 3 39 14 67 25 l51 21 -5 -26 c-4
-24 -3 -25 29 -21 19 2 286 100 595 218 485 186 560 217 551 231 -5 9 -77 42
-160 74 l-149 59 31 25 c17 14 166 143 331 286 l299 260 0 165 0 165 -299 260
c-165 143 -314 272 -331 286 l-31 25 149 58 c82 32 154 65 160 74 9 15 -58 43
-551 232 -309 118 -576 216 -595 218 -32 4 -33 3 -29 -21 l5 -26 -51 21 c-28
11 -58 22 -67 25 -8 2 -21 25 -27 50 -10 36 -42 80 -153 209 -99 114 -149 165
-167 168 -15 3 -1062 163 -2327 356 l-2300 349 -1374 252 -1374 251 -128 -128
-129 -129 0 113 0 112 -453 0 -453 0 -34 35 -34 35 -98 0 -98 0 0 335 0 335
105 0 105 0 0 210 0 210 279 0 c239 0 280 2 285 15 5 13 206 15 1726 15 1140
0 1720 3 1720 10 0 7 803 10 2390 10 2383 0 2390 0 2390 20 0 20 -7 20 -2390
20 -1587 0 -2390 3 -2390 10 0 7 -580 10 -1719 10 -1136 0 -1722 3 -1726 10
-4 6 -110 10 -286 10 l-279 0 0 209 c0 200 1 209 20 214 11 3 20 12 20 21 0
15 305 16 3510 16 3503 0 3510 0 3510 20 0 20 -7 20 -3505 20 -3494 0 -3504 0
-3515 20 -6 11 -17 20 -25 20 -12 0 -15 18 -15 90 0 53 4 90 10 90 6 0 10 11
10 25 l0 25 2693 3 2692 2 -2692 3 -2693 2 0 25 c0 14 -4 25 -10 25 -6 0 -10
36 -10 89 l0 88 456 829 c251 456 466 852 479 879 12 28 292 541 621 1140 330
600 605 1101 611 1115 6 14 281 517 612 1119 331 601 603 1097 604 1101 17 64
-109 -156 -617 -1080 -331 -603 -618 -1123 -638 -1155 -20 -33 -298 -537 -618
-1120 -320 -583 -590 -1071 -600 -1085 -11 -14 -225 -400 -477 -857 l-458
-833 -302 0 -303 0 0 135 0 135 -60 0 -60 0 0 335 0 335 63 0 c58 0 65 2 85
30 12 16 22 38 22 50 0 11 6 20 13 20 7 0 48 40 90 89 l78 90 9 628 c5 345 9
709 9 808 l0 180 -89 65 c-49 36 -101 81 -114 101 -16 24 -35 38 -55 42 -40 8
-360 247 -361 269 0 9 428 2727 950 6039 523 3312 950 6031 950 6042 0 11 -36
56 -84 106 l-84 86 184 884 c166 799 190 920 182 922 -15 2 -914 28 -1008 29
l-125 0 -1203 -694z m-17742 -16711 c7 -74 11 -137 9 -139 -2 -2 -176 -63
-387 -135 -210 -73 -388 -134 -395 -137 -8 -3 -18 10 -26 33 -8 21 -22 46 -33
57 -11 10 -18 26 -15 36 2 10 -10 45 -28 78 l-32 61 36 14 c20 8 129 49 243
91 194 73 208 76 230 62 22 -14 34 -11 193 49 94 35 175 64 181 64 7 1 16 -49
24 -134z m15200 -144 l0 -100 -47 -7 c-27 -4 -142 -21 -258 -38 l-210 -32 0
-244 0 -244 425 -87 c234 -48 440 -90 458 -94 l32 -6 0 -187 c0 -178 -1 -190
-26 -253 -31 -79 -28 -139 6 -139 15 0 20 -7 20 -25 l0 -25 760 0 760 0 0
-335 0 -335 -113 0 c-110 0 -113 -1 -161 -32 l-49 -33 -111 -287 c-61 -158
-115 -290 -119 -294 -4 -4 -7 13 -7 38 l0 45 -90 42 -90 42 0 229 0 229 -32 6
c-18 3 -368 52 -778 110 l-745 104 -1155 276 c-635 152 -1189 283 -1230 291
-41 8 -1407 179 -3035 379 -1628 201 -2964 366 -2968 368 -4 1 583 69 1305
151 l1313 148 3030 218 c1667 120 3049 218 3073 219 l42 1 0 -99z m-16265
-173 c4 -29 7 -84 8 -121 l2 -69 -390 -134 c-214 -74 -396 -132 -402 -129 -7
2 -13 11 -13 19 0 9 -9 24 -21 35 -11 10 -19 27 -18 37 2 11 -11 47 -29 81
l-32 61 68 26 c379 144 406 152 433 137 24 -13 37 -10 195 47 93 33 174 61
181 61 7 1 14 -21 18 -51z m-1039 -443 c6 -55 10 -101 9 -103 -9 -12 -841
-288 -844 -280 -2 6 -12 18 -22 26 -11 9 -19 28 -19 42 0 14 -14 49 -30 79
-17 30 -29 56 -27 57 7 8 490 184 503 184 8 0 23 -5 33 -12 16 -10 48 -1 187
50 93 33 176 60 184 59 11 -2 18 -27 26 -102z m6294 -282 c0 -4 -21 -29 -47
-55 l-47 -48 -293 0 c-189 0 -293 4 -293 10 0 6 -1 13 -2 18 -2 4 139 23 312
43 345 40 370 42 370 32z m12340 -2270 c0 -15 -9 -27 -25 -35 -21 -10 -25 -18
-25 -58 0 -40 4 -48 25 -58 16 -8 25 -20 25 -35 0 -16 -9 -28 -25 -35 -21 -10
-25 -18 -25 -57 0 -39 4 -47 25 -57 16 -7 25 -19 25 -35 0 -15 -9 -27 -25 -35
-22 -10 -25 -18 -25 -59 l0 -47 -47 -16 c-26 -9 -48 -16 -50 -16 -2 0 -3 121
-3 268 l0 268 53 26 c60 29 97 22 97 -19z m-97 -3419 l47 -16 0 -47 c0 -41 3
-49 25 -59 16 -8 25 -20 25 -35 0 -16 -9 -28 -25 -35 -21 -10 -25 -18 -25 -57
0 -39 4 -47 25 -57 16 -7 25 -19 25 -35 0 -15 -9 -27 -25 -35 -21 -10 -25 -18
-25 -58 0 -40 4 -48 25 -58 32 -15 34 -55 3 -69 -18 -8 -34 -5 -75 15 l-53 26
0 268 c0 147 1 268 3 268 2 0 24 -7 50 -16z m253 -1192 l111 -287 49 -32 c48
-32 51 -33 161 -33 l113 0 0 -335 0 -335 -760 0 -760 0 0 -25 c0 -18 -5 -25
-20 -25 -34 0 -37 -60 -6 -139 25 -63 26 -75 26 -253 l0 -187 -35 -7 c-19 -3
-225 -45 -458 -93 l-422 -87 0 -244 0 -244 210 -32 c116 -17 231 -34 258 -38
l47 -7 0 -100 c0 -54 -4 -99 -9 -99 -5 0 -1368 97 -3028 215 l-3018 215 -1358
152 c-747 84 -1354 154 -1350 155 5 2 1340 167 2968 368 1628 200 2994 371
3035 379 41 8 595 139 1230 291 l1155 276 745 104 c410 58 760 107 778 110
l32 6 0 229 0 229 90 42 90 42 0 45 c0 25 3 42 7 38 4 -4 58 -136 119 -294z
m-19187 -1643 c222 -76 405 -140 406 -141 7 -9 -22 -202 -31 -205 -5 -2 -86
24 -180 58 -155 55 -172 59 -204 49 -33 -11 -51 -5 -280 80 -134 50 -246 92
-248 94 -2 2 10 28 27 58 17 30 31 67 31 82 0 14 7 29 15 32 8 3 17 15 21 26
4 13 11 17 22 13 10 -4 199 -69 421 -146z m6646 91 c27 -27 46 -52 43 -55 -5
-6 -647 61 -675 70 -7 2 -10 11 -7 20 5 13 45 15 298 15 l292 0 49 -50z
m-5595 -452 c212 -72 389 -135 394 -139 9 -8 -8 -227 -19 -237 -2 -3 -84 23
-181 58 -165 59 -179 62 -203 49 -27 -15 -54 -7 -433 137 l-68 26 32 61 c17
34 31 72 29 85 -1 12 4 25 13 28 8 3 19 19 25 35 5 16 14 29 18 29 4 0 181
-59 393 -132z m1072 -369 c211 -72 385 -133 387 -135 7 -6 -21 -274 -29 -274
-4 0 -85 29 -180 65 -163 61 -175 64 -197 49 -24 -15 -50 -7 -454 145 l-57 22
34 62 c18 34 31 70 28 79 -3 9 4 25 14 35 11 10 25 35 33 56 8 23 18 36 26 33
7 -3 185 -64 395 -137z"/>
</g>
</svg>
