<?xml version="1.0" standalone="no"?>
<!DOCTYPE svg PUBLIC "-//W3C//DTD SVG 20010904//EN"
 "http://www.w3.org/TR/2001/REC-SVG-20010904/DTD/svg10.dtd">
<svg version="1.0" xmlns="http://www.w3.org/2000/svg"
   viewBox="0 0 4148.000000 1651.000000"
 preserveAspectRatio="xMidYMid meet">
<metadata>
Created by potrace 1.16, written by Peter Selinger 2001-2019
</metadata>
<g transform="translate(0.000000,1651.000000) scale(0.100000,-0.100000)"
fill="#000000" stroke="none">
<path d="M7550 16357 l0 -156 -62 -20 c-269 -83 -966 -305 -979 -312 -13 -6
-18 -32 -23 -121 -4 -62 -9 -114 -11 -116 -1 -2 -1111 -91 -2466 -198 l-2464
-195 -637 -186 -636 -187 -6 -29 c-3 -16 -6 -75 -6 -131 0 -55 -9 -288 -21
-516 l-23 -415 56 -213 c31 -117 58 -215 60 -217 2 -2 185 0 408 4 223 4 406
7 407 6 1 0 -201 -98 -450 -216 l-452 -216 -6 -624 c-8 -796 -20 -1210 -65
-2280 l-37 -866 54 -78 c29 -42 58 -79 63 -81 6 -2 312 -62 681 -133 l670
-129 595 -11 c327 -6 612 -11 633 -11 32 0 37 -3 37 -24 0 -16 -7 -26 -22 -29
-13 -3 -482 -94 -1043 -202 -561 -108 -1021 -198 -1022 -199 -1 -1 100 -22
225 -45 125 -24 230 -47 235 -50 4 -4 -250 -128 -565 -275 l-573 -267 -41 -72
-41 -72 33 -700 c46 -984 61 -1930 45 -2829 -6 -368 -11 -669 -9 -671 2 -1
314 -75 693 -165 l690 -163 1283 27 c706 15 1285 26 1287 24 2 -2 -523 -41
-1167 -87 l-1170 -83 -735 -133 c-404 -73 -736 -135 -738 -137 -2 -2 -11 -95
-20 -208 -14 -163 -16 -264 -10 -493 5 -242 4 -313 -11 -440 l-17 -152 -63
-95 -62 -95 -24 -255 -24 -255 26 -7 c14 -4 325 -33 691 -65 l665 -57 2485
230 2484 229 8 -70 c5 -38 9 -70 10 -71 1 -1 256 -54 566 -119 452 -93 569
-114 588 -106 l23 11 0 -271 0 -271 43 6 c23 3 1023 121 2222 261 2157 253
2185 256 2655 285 380 24 1051 85 3355 305 1584 151 2930 283 2990 294 373 68
1296 219 1550 254 l300 42 335 -19 335 -20 2100 173 c1733 143 2196 184 2650
236 303 35 730 78 950 95 399 32 406 33 2245 305 l1845 274 535 115 c294 63
553 119 575 125 22 5 564 122 1205 261 l1165 251 146 99 c145 98 153 102 825
396 475 208 922 394 1490 619 l811 323 144 -40 c138 -37 147 -38 209 -27 81
15 253 90 344 152 70 46 70 47 110 147 l41 102 62 26 c41 18 387 265 1040 742
l980 715 93 245 c56 148 102 255 117 271 17 19 39 75 70 180 25 85 123 359
218 610 l174 455 -170 445 c-93 244 -192 518 -220 609 -32 107 -58 173 -73
190 -13 14 -63 131 -116 270 l-92 245 -990 720 c-610 444 -1009 727 -1041 740
l-51 21 -42 103 -41 103 -78 50 c-98 63 -240 125 -326 143 -66 14 -68 14 -215
-25 l-149 -39 -795 315 c-586 233 -978 396 -1490 621 l-694 305 -141 98 -141
97 -1752 377 -1752 377 -1817 270 c-1762 262 -1831 271 -2223 305 -223 19
-664 64 -980 100 -479 55 -926 94 -2669 237 l-2094 172 -331 -21 -331 -22
-315 44 c-326 46 -483 72 -1226 199 l-439 75 -2865 276 c-2511 241 -2926 279
-3355 304 l-490 28 -2165 256 c-1191 141 -2186 259 -2212 262 l-48 7 0 -156z
m-9 -1796 c4 -3 9 -217 13 -475 l6 -469 -148 7 c-81 4 -150 11 -153 14 -4 4 5
218 19 475 l26 469 116 -7 c63 -4 118 -10 121 -14z m13 -12063 c-4 -216 -9
-395 -11 -398 -2 -3 -82 -28 -176 -55 l-172 -51 -6 55 c-7 61 -23 820 -17 822
3 2 256 14 341 17 l48 2 -7 -392z"/>
</g>
</svg>
