<?xml version="1.0" standalone="no"?>
<!DOCTYPE svg PUBLIC "-//W3C//DTD SVG 20010904//EN"
 "http://www.w3.org/TR/2001/REC-SVG-20010904/DTD/svg10.dtd">
<svg version="1.0" xmlns="http://www.w3.org/2000/svg"
   viewBox="0 0 4859.000000 1528.000000"
 preserveAspectRatio="xMidYMid meet">
<metadata>
Created by potrace 1.16, written by Peter Selinger 2001-2019
</metadata>
<g transform="translate(0.000000,1528.000000) scale(0.100000,-0.100000)"
fill="#000000" stroke="none">
<path d="M16065 15214 l-140 -64 -323 0 -323 0 -169 -97 -170 -98 0 -95 -1
-95 -98 -67 -98 -67 -7 -117 c-3 -65 -8 -119 -10 -122 -9 -9 -880 61 -1165 93
-167 19 -316 35 -331 35 -16 0 -61 -22 -109 -53 l-81 -53 -198 23 c-181 21
-213 22 -392 13 -107 -6 -244 -15 -305 -20 -107 -9 -144 -6 -1488 145 -758 85
-1383 155 -1387 155 -5 0 -35 -43 -67 -95 l-58 -95 -90 1 c-49 0 -545 8 -1102
18 l-1012 17 -63 43 -63 44 -1627 5 -1628 5 0 -226 c0 -206 2 -226 18 -231 9
-3 195 -26 412 -51 217 -25 405 -48 417 -51 l23 -4 0 -834 0 -834 -97 -69 -98
-68 -3 -757 -2 -756 -208 -135 -207 -134 -1870 -462 c-1029 -255 -1887 -467
-1907 -472 l-38 -10 0 -294 0 -295 1155 0 1155 0 0 -55 0 -55 1165 0 c641 0
1165 -2 1165 -5 0 -8 -94 -193 -135 -265 l-37 -65 0 -612 0 -612 60 -108 c33
-59 74 -136 91 -170 l31 -63 -1170 0 -1170 0 0 -50 0 -50 -1152 -2 -1153 -3 0
-294 0 -294 1907 -472 1907 -472 206 -134 205 -134 0 -755 0 -755 100 -69 100
-70 0 -835 0 -836 -412 -49 c-227 -26 -423 -50 -435 -53 l-23 -5 0 -230 0
-231 1628 5 1627 4 65 47 64 47 116 0 c63 0 558 9 1100 20 542 10 986 16 988
12 1 -4 26 -45 56 -92 32 -52 60 -86 72 -88 11 -1 633 65 1384 147 l1365 150
300 -16 c299 -16 301 -16 507 7 l207 22 88 -55 88 -55 290 34 c160 18 470 47
690 63 220 17 427 33 461 36 l61 5 6 -293 c4 -161 10 -347 13 -414 l7 -122 98
-67 98 -67 3 -95 3 -95 160 -93 160 -93 326 -1 c191 0 329 -4 335 -10 5 -5 74
-36 153 -70 l144 -60 1685 0 1686 0 146 61 c80 34 149 65 154 70 6 5 155 9
332 9 l323 0 165 96 166 96 0 93 0 94 99 68 99 68 6 150 c3 83 9 427 12 766 6
598 6 617 -12 622 -11 3 -61 11 -111 18 l-93 12 0 176 0 176 -111 89 c-85 67
-135 99 -212 132 l-100 44 -243 0 -244 0 0 280 0 280 251 -2 251 -3 165 -282
165 -283 144 0 144 0 0 -170 0 -169 238 -220 237 -221 95 0 95 0 26 -97 25
-98 964 0 964 0 24 98 24 97 489 0 489 0 90 -45 90 -45 260 0 260 0 90 45 90
45 1424 0 1423 0 754 175 c415 97 1039 242 1387 322 l632 147 0 138 0 137 43
11 c23 6 58 15 77 21 21 5 581 9 1377 9 l1342 0 68 95 68 94 1430 1 1430 0
135 -95 135 -95 1300 0 1300 0 455 268 455 268 3 290 2 291 -461 271 -461 272
-1294 0 -1293 0 -135 -95 -135 -95 -1434 0 -1434 0 -69 96 -69 97 -1327 -7
c-1321 -7 -1328 -7 -1408 14 -45 12 -89 25 -98 30 -9 5 -62 19 -117 30 -149
32 -899 221 -908 229 -5 6 53 152 68 169 1 1 83 18 181 36 112 21 244 55 354
90 l174 57 388 393 388 394 51 7 c27 4 52 5 54 4 2 -2 -21 -103 -50 -224 -30
-121 -54 -221 -55 -222 0 -2 388 -3 863 -3 l862 0 528 495 527 495 1073 0
1072 0 112 159 113 160 57 11 c32 6 63 13 68 14 6 2 43 86 84 187 62 158 84
200 153 299 105 150 94 141 148 129 25 -5 470 -41 990 -79 741 -54 959 -66
1008 -59 35 5 224 40 420 78 196 38 429 77 517 86 88 9 299 37 469 61 264 38
333 44 472 44 148 0 164 2 173 18 10 18 116 19 3163 25 1734 4 3327 10 3541
14 l387 6 0 122 0 122 -727 6 c-401 4 -1996 10 -3545 14 -2342 5 -2818 8
-2822 20 -4 10 -41 13 -166 13 -140 0 -198 6 -458 45 -163 25 -378 55 -477 66
-99 11 -340 51 -535 88 -195 38 -382 72 -415 75 -60 6 -1979 -126 -2021 -139
-19 -6 -34 10 -113 120 -82 116 -97 143 -162 309 -39 99 -76 184 -81 188 -6 3
-32 9 -57 13 -25 4 -55 12 -66 20 -11 7 -67 80 -125 163 l-105 151 -1075 1
-1075 1 -525 494 -525 494 -863 0 -862 1 6 -27 c12 -52 95 -388 100 -405 5
-15 -2 -18 -43 -18 l-48 0 -400 400 -399 399 -176 57 c-113 36 -236 68 -349
88 l-174 32 -245 504 c-160 330 -263 555 -297 650 -59 165 -51 157 -177 159
-56 1 -78 -2 -78 -11 0 -7 10 -61 21 -121 12 -59 20 -109 18 -111 -2 -2 -37
-2 -76 1 l-73 6 0 128 0 128 -32 5 c-18 3 -66 7 -107 8 l-75 3 -22 -125 -22
-125 48 -550 c27 -302 47 -551 46 -552 -1 -2 -261 38 -577 88 l-574 91 -95
-22 c-52 -12 -97 -26 -101 -32 -4 -5 -75 36 -168 96 l-162 106 -837 57 -837
57 -508 224 -509 224 -1209 -59 -1209 -59 -58 -57 c-54 -53 -61 -57 -105 -57
l-47 0 0 184 0 185 -199 135 -199 136 -936 0 -936 0 0 215 0 215 249 0 249 0
92 39 c71 29 120 59 206 127 l113 89 1 177 0 177 33 5 c53 9 175 26 183 26 7
0 -3 1147 -12 1387 l-6 151 -99 69 -98 68 -3 94 -3 95 -169 98 -169 98 -322 0
-323 0 -144 65 -145 65 -1699 -1 -1699 -1 -140 -64z m13542 -3558 c1 -1 90
-199 197 -439 135 -304 189 -436 178 -433 -10 2 -112 21 -228 42 l-210 37 -58
371 c-32 204 -61 386 -63 404 l-6 33 94 -7 c52 -4 95 -7 96 -8z m379 -6595
c-15 -28 -16 -28 -61 -18 -25 6 -45 13 -45 17 0 4 26 11 58 17 31 6 58 11 60
12 1 0 -4 -12 -12 -28z"/>
</g>
</svg>
