<?xml version="1.0" standalone="no"?>
<!DOCTYPE svg PUBLIC "-//W3C//DTD SVG 20010904//EN"
 "http://www.w3.org/TR/2001/REC-SVG-20010904/DTD/svg10.dtd">
<svg version="1.0" xmlns="http://www.w3.org/2000/svg"
   viewBox="0 0 4189.000000 4307.000000"
 preserveAspectRatio="xMidYMid meet">
<metadata>
Created by potrace 1.16, written by Peter Selinger 2001-2019
</metadata>
<g transform="translate(0.000000,4307.000000) scale(0.100000,-0.100000)"
fill="#000000" stroke="none">
<path d="M24240 43033 l-1495 -34 -1330 11 c-731 6 -1393 15 -1470 20 -77 6
-176 10 -220 10 l-80 0 -245 -155 c-134 -85 -247 -162 -251 -172 -3 -10 -32
-160 -64 -333 l-58 -315 82 -979 c45 -538 81 -988 79 -1001 -3 -21 -47 -12
-2226 485 l-2222 508 -1968 -4 -1967 -4 -2186 -337 -2186 -337 -157 -719 c-86
-396 -153 -723 -149 -727 4 -4 262 -210 573 -457 311 -247 836 -652 1166 -901
l601 -452 448 40 c247 22 458 40 470 40 12 0 137 -82 286 -188 l264 -189 710
-17 710 -17 1230 -428 1230 -429 2220 -346 c1220 -191 2221 -348 2222 -350 2
-2 39 -165 82 -363 l78 -360 -35 -459 c-20 -253 -39 -461 -43 -464 -5 -3 -318
-23 -696 -44 l-688 -38 -2355 151 c-1295 83 -2365 151 -2377 151 -17 0 -106
-107 -408 -496 -212 -272 -390 -503 -396 -512 -8 -12 6 -187 50 -629 34 -337
61 -617 61 -623 0 -7 -263 -10 -789 -10 l-788 0 -7 46 c-3 26 -6 70 -6 99 l0
53 -277 329 c-153 181 -290 343 -305 361 l-27 32 -3443 266 -3443 266 -800
-172 c-440 -95 -805 -178 -811 -184 -6 -6 -34 -99 -62 -206 l-52 -195 0 -562
0 -563 -60 0 c-60 0 -63 -2 -360 -172 l-300 -171 0 -1616 1 -1616 294 -167
295 -168 65 0 65 0 0 -202 0 -203 55 -199 c30 -109 56 -200 57 -201 2 -2 195
-54 431 -116 235 -62 427 -115 427 -118 -1 -3 -68 -44 -150 -91 l-150 -85 0
-1617 c0 -1490 1 -1618 16 -1626 15 -8 15 -14 5 -43 -7 -19 -48 -515 -92
-1107 l-79 -1072 79 -1073 c44 -591 85 -1087 92 -1106 10 -29 10 -35 -5 -43
-15 -8 -16 -136 -16 -1626 l0 -1617 150 -85 c82 -47 149 -88 150 -91 0 -3
-192 -56 -428 -118 -235 -62 -428 -114 -430 -116 -1 -1 -27 -92 -57 -201 l-55
-199 0 -202 0 -203 -65 0 -65 0 -295 -168 -294 -167 -1 -1616 0 -1616 300
-171 c297 -170 300 -172 360 -172 l60 0 0 -562 0 -563 52 -195 c28 -107 56
-200 62 -206 6 -6 371 -89 811 -184 l800 -172 3443 266 3443 266 27 32 c15 18
152 180 304 361 l278 329 0 53 c0 29 3 73 6 99 l7 46 788 0 c526 0 789 -3 789
-10 0 -6 -27 -286 -61 -623 -44 -442 -58 -617 -50 -629 6 -9 184 -240 396
-512 302 -389 391 -496 408 -496 12 0 1082 68 2377 151 l2355 151 688 -38
c378 -21 691 -41 696 -44 4 -3 23 -211 43 -464 l35 -459 -78 -360 c-43 -198
-80 -361 -82 -363 -2 -2 -1002 -159 -2223 -350 l-2219 -346 -1230 -429 -1230
-428 -710 -17 -710 -17 -264 -189 c-149 -106 -274 -188 -286 -188 -12 0 -223
18 -470 40 l-448 40 -601 -452 c-330 -249 -855 -654 -1166 -901 -311 -247
-569 -453 -573 -457 -4 -4 63 -331 149 -727 l157 -719 2181 -337 2181 -336
1972 -4 1972 -5 2418 552 2418 552 5 -148 c5 -141 6 -149 30 -172 14 -13 126
-113 250 -221 l225 -197 170 6 c94 4 247 16 340 26 94 11 256 26 360 35 105 9
1185 124 2400 256 1548 168 2334 257 2625 299 228 32 654 84 945 114 292 31
1349 143 2351 250 l1820 194 56 58 c30 33 144 155 252 273 l196 214 0 121 0
121 113 57 112 56 98 250 97 251 0 1109 0 1109 343 126 c301 111 443 156 1187
372 465 134 906 264 980 289 l135 44 527 498 527 499 1 265 c0 146 5 638 10
1094 9 660 14 833 24 848 7 10 401 416 874 901 l861 882 1068 1441 1068 1441
144 284 145 284 275 303 c152 167 279 309 282 315 4 7 37 117 74 245 l67 233
-43 71 c-23 40 -42 77 -42 83 0 5 122 267 270 580 l270 570 37 690 38 690 99
235 c96 227 100 241 129 405 17 94 32 177 34 186 2 11 -32 36 -115 83 -65 37
-126 74 -136 81 -16 12 -20 65 -44 674 l-25 661 25 661 c24 609 28 662 44 674
10 7 71 44 136 81 83 47 117 72 115 83 -2 9 -17 93 -34 186 -29 164 -33 178
-129 405 l-99 235 -38 690 -37 690 -270 570 c-148 314 -270 575 -270 580 0 6
19 43 42 83 l43 71 -67 233 c-37 128 -70 238 -74 245 -3 6 -130 148 -282 315
l-275 303 -145 284 -144 284 -1068 1441 -1067 1440 -861 883 c-474 485 -868
891 -875 901 -10 15 -15 187 -24 848 -5 456 -10 948 -11 1094 l0 265 -529 500
-528 500 -750 300 -750 300 187 2 c102 1 926 7 1831 13 l1645 11 190 42 190
42 3 298 2 297 25 0 c17 0 84 43 193 123 93 67 511 338 930 602 l761 479 3 80
3 79 105 77 105 76 172 295 173 294 0 333 0 332 53 0 c28 0 504 9 1057 20 553
11 1026 20 1053 20 l47 0 0 59 0 59 -132 6 c-139 6 -1797 36 -1975 36 l-103 0
0 334 0 333 -172 291 -173 291 -107 77 -108 78 0 82 0 83 -772 482 c-425 266
-843 534 -928 597 -85 62 -167 116 -182 119 l-28 6 0 293 c0 162 -2 294 -5
294 -3 0 -90 23 -193 50 l-187 51 -1770 10 c-1515 9 -2014 8 -3460 -7 -1563
-17 -1759 -17 -2615 -2 l-925 15 -110 54 -109 54 -351 6 c-306 5 -435 13
-1020 63 -368 31 -683 55 -700 55 -16 -1 -703 -17 -1525 -36z m-12648 -14332
c120 -26 220 -50 223 -53 3 -2 16 -119 30 -258 14 -140 27 -255 28 -256 1 -1
187 -43 412 -93 226 -51 417 -94 426 -97 11 -3 88 -177 224 -502 114 -273 211
-500 217 -503 5 -3 118 -34 251 -68 133 -34 259 -67 280 -72 36 -9 40 -16 103
-141 l66 -131 -89 -228 c-88 -226 -88 -227 -128 -247 -22 -10 -501 -162 -1065
-337 -564 -174 -1028 -319 -1031 -321 -3 -2 -62 44 -131 101 -81 66 -136 105
-154 107 -26 3 -76 87 -671 1127 l-643 1125 0 442 0 443 58 4 c31 2 354 4 717
5 l660 1 217 -48z m1008 -13346 c542 -167 1005 -314 1030 -325 l45 -21 88
-228 89 -228 -66 -131 c-63 -125 -67 -132 -103 -141 -21 -5 -147 -38 -280 -72
-133 -34 -246 -65 -251 -68 -6 -3 -103 -230 -217 -503 -136 -325 -213 -499
-224 -502 -9 -3 -200 -46 -426 -97 -225 -50 -411 -92 -412 -93 -1 -1 -14 -116
-28 -256 -14 -139 -27 -256 -30 -258 -3 -3 -103 -27 -223 -53 l-217 -48 -641
-1 c-353 0 -675 3 -717 6 l-77 7 0 442 0 441 643 1125 c595 1040 645 1124 671
1127 18 2 73 41 153 107 l125 103 41 -14 c23 -7 485 -151 1027 -319z"/>
</g>
</svg>
