<?xml version="1.0" standalone="no"?>
<!DOCTYPE svg PUBLIC "-//W3C//DTD SVG 20010904//EN"
 "http://www.w3.org/TR/2001/REC-SVG-20010904/DTD/svg10.dtd">
<svg version="1.0" xmlns="http://www.w3.org/2000/svg"
   viewBox="0 0 3632.000000 4612.000000"
 preserveAspectRatio="xMidYMid meet">
<metadata>
Created by potrace 1.16, written by Peter Selinger 2001-2019
</metadata>
<g transform="translate(0.000000,4612.000000) scale(0.100000,-0.100000)"
fill="#000000" stroke="none">
<path d="M20408 46106 c-207 -6 -379 -13 -382 -16 -4 -4 -1086 -4283 -1086
-4296 0 -2 -275 -5 -612 -6 l-612 -3 -31 -125 c-17 -69 -35 -137 -38 -152 l-7
-28 -509 0 -508 0 -79 63 -79 64 -735 -58 -735 -59 -42 -44 -43 -45 0 -266 0
-266 43 -45 42 -44 700 -55 c385 -30 716 -56 736 -59 32 -3 45 3 110 55 l74
59 516 0 516 0 12 -87 c7 -49 15 -98 18 -110 l5 -23 -475 0 -476 0 -15 -52
c-8 -29 -25 -90 -37 -135 l-22 -83 -1177 0 c-1108 0 -1178 -1 -1192 -17 -8
-10 -30 -57 -49 -106 l-34 -87 -263 2 -264 3 -34 85 c-20 47 -43 91 -52 98
-12 9 -185 12 -787 12 -602 0 -775 -3 -787 -12 -9 -7 -31 -49 -49 -93 -18 -44
-37 -86 -42 -92 -7 -10 -69 -13 -251 -13 -132 0 -246 4 -252 8 -7 4 -32 51
-57 104 -36 78 -49 96 -64 92 -10 -2 -211 -44 -448 -93 l-430 -90 -466 -200
-467 -201 -199 0 c-141 0 -202 -3 -211 -12 -9 -9 -12 -69 -12 -209 0 -169 2
-198 16 -210 9 -8 163 -63 343 -124 l326 -110 3 -367 2 -368 -388 0 -389 0 -6
-112 c-7 -114 -9 -248 -4 -248 1 -1 178 -33 392 -73 358 -67 390 -75 393 -94
3 -18 -28 -31 -320 -128 -186 -62 -333 -116 -345 -128 -23 -20 -23 -25 -23
-247 0 -162 3 -229 12 -238 9 -9 274 -12 1129 -12 l1118 0 15 53 c8 28 27 97
42 152 15 55 32 103 38 107 6 4 117 8 246 8 129 0 240 -4 246 -8 6 -4 27 -68
48 -142 21 -74 42 -143 48 -152 8 -17 56 -18 793 -18 l783 0 19 26 19 26 1165
-218 1164 -218 196 -6 195 -5 -331 -1425 c-287 -1232 -622 -2658 -672 -2857
l-15 -63 -1639 0 -1639 0 0 -460 0 -460 1450 0 1450 0 0 -715 0 -715 -120 0
-120 0 0 -120 0 -120 -428 0 -429 0 -219 -175 -219 -174 -935 -1 -935 0 -240
358 -240 357 -1047 5 -1047 5 -44 90 c-24 50 -68 125 -98 167 l-54 78 -1137 0
-1136 0 -118 -125 -117 -125 -2766 0 -2766 1 -103 23 -104 23 -111 -102 c-108
-98 -113 -104 -135 -172 l-22 -70 -128 -56 -127 -55 -3 -1660 -2 -1659 127
-56 128 -55 25 -73 c24 -70 29 -75 137 -171 l112 -99 102 20 c102 21 108 21
2870 21 l2767 0 118 -125 117 -125 1136 0 1136 0 62 93 c35 50 79 127 98 170
l36 77 1043 0 1044 0 247 365 246 365 926 0 926 0 224 -175 223 -175 1430 0
1430 0 0 -380 c0 -209 -1 -380 -2 -381 -2 0 -399 -24 -883 -52 l-880 -52 -2
-475 -3 -475 135 -43 135 -43 -2 -1506 -3 -1507 -130 -41 -130 -41 -3 -477 -2
-477 24 0 c14 0 411 -23 882 -50 471 -28 859 -50 861 -50 1 0 3 -174 3 -386
l0 -387 -1428 4 -1427 4 -225 -173 -224 -172 -930 2 -929 3 -241 357 -241 357
-1045 1 -1046 0 -42 88 c-24 48 -69 124 -100 170 l-56 82 -1135 0 -1136 0
-120 -120 -121 -120 -2754 -6 -2755 -6 -113 25 -113 25 -109 -95 c-108 -95
-109 -96 -135 -173 l-26 -77 -127 -55 -127 -55 0 -1659 0 -1658 126 -56 125
-55 28 -76 c26 -75 29 -79 137 -174 l109 -96 102 20 c100 21 112 21 2867 21
l2766 0 120 -120 120 -120 1136 0 1135 0 51 73 c28 39 71 114 97 165 l46 92
1043 0 1044 0 247 365 247 365 927 0 927 0 225 -180 225 -180 428 0 427 0 0
-115 0 -115 120 0 120 0 0 -715 0 -715 -1450 0 -1450 0 0 -460 0 -460 1639 0
1639 0 10 -42 c59 -242 399 -1688 671 -2858 l338 -1455 -216 -6 -216 -5 -1130
-212 c-621 -117 -1138 -215 -1147 -218 -13 -4 -21 2 -28 20 l-10 26 -789 0
c-619 0 -791 -3 -798 -12 -6 -7 -27 -74 -47 -148 -21 -74 -42 -141 -48 -147
-15 -18 -481 -19 -496 0 -5 6 -24 64 -42 127 -17 63 -36 130 -41 148 l-11 32
-1126 -2 -1127 -3 -3 -236 c-2 -215 -1 -237 15 -251 10 -9 165 -64 345 -124
299 -99 328 -111 328 -131 0 -18 -8 -24 -37 -29 -21 -4 -198 -37 -393 -74
-310 -58 -355 -69 -359 -85 -2 -11 0 -92 4 -182 l7 -163 389 0 389 0 -2 -366
-3 -367 -325 -109 c-179 -60 -333 -117 -343 -126 -16 -14 -17 -35 -15 -216 l3
-201 210 -5 210 -5 470 -202 470 -201 431 -91 c236 -50 437 -91 445 -91 8 1
31 38 54 87 61 131 40 123 306 123 264 0 248 6 298 -110 18 -41 40 -83 48 -92
15 -17 65 -18 787 -18 590 1 775 3 787 13 8 7 31 53 51 102 l36 90 263 0 263
0 38 -94 c21 -52 44 -98 51 -103 6 -4 541 -8 1187 -8 l1175 0 24 -87 c13 -49
30 -109 38 -135 l14 -48 476 0 476 0 -6 -28 c-3 -15 -11 -67 -18 -115 l-12
-87 -514 0 -515 0 -74 62 -75 61 -737 -57 -737 -58 -42 -46 -43 -47 0 -265 0
-266 45 -44 44 -43 732 -58 c403 -32 737 -55 743 -52 6 4 41 31 77 60 l66 53
511 0 511 0 12 -42 c6 -24 23 -90 39 -148 l27 -105 611 -3 c337 -1 612 -5 612
-8 0 -10 1082 -4299 1085 -4303 3 -2 819 -28 978 -31 l27 0 0 1854 0 1854 103
7 c83 6 116 13 174 38 l73 32 0 161 c0 88 3 256 7 372 l6 212 288 0 289 0 62
85 63 84 1591 1 1591 0 36 79 36 79 373 6 c205 3 2550 25 5211 47 l4837 41 43
-25 42 -25 225 14 c124 7 229 14 233 14 4 0 7 28 5 63 l-3 62 -230 11 -230 12
-39 -25 -39 -25 -5136 46 c-2825 26 -5170 46 -5212 46 l-77 0 -38 85 -38 85
-1593 0 -1592 0 -61 80 -61 80 -289 0 -290 0 0 114 c0 114 0 115 29 138 27 22
38 58 171 568 79 300 145 553 148 564 5 18 14 18 196 12 l191 -7 70 51 70 50
6 93 c4 50 7 161 8 245 l1 152 1729 0 1728 0 7 37 c10 64 7 518 -5 590 -6 38
-41 482 -77 988 l-67 920 -127 3 -126 3 -7 -56 -7 -55 -1903 0 -1902 0 -6 702
c-4 387 -10 1174 -14 1751 l-6 1047 791 0 792 0 0 -222 0 -223 272 3 c150 1
1178 9 2283 17 l2010 16 122 122 122 122 245 471 c168 323 253 498 270 556 33
107 141 643 156 774 9 73 9 139 1 252 -6 85 -11 173 -11 197 l0 43 123 83 123
84 38 145 37 145 0 1350 0 1350 -38 146 -37 147 -231 157 c-126 86 -255 172
-285 190 -50 31 -52 34 -30 38 14 3 441 13 950 21 1210 21 1290 24 1290 45 0
16 -101 19 -1242 40 -1175 21 -1288 26 -1288 50 0 3 200 87 445 186 l445 180
0 68 0 67 -122 0 c-115 0 -131 -3 -248 -40 l-125 -40 -295 0 -295 0 163 77
162 76 0 69 0 68 579 0 579 0 6 -38 c4 -20 9 -49 12 -65 l6 -27 234 0 234 0
42 65 43 65 387 0 387 0 128 35 128 35 877 0 878 0 0 345 0 345 -875 0 -874 0
-137 40 -137 40 -382 0 -383 0 -42 65 -42 65 -233 0 -233 0 -6 -27 c-3 -16 -8
-47 -11 -70 l-7 -43 -579 0 -579 0 0 178 0 179 -139 68 -139 68 -7 74 c-4 41
-5 77 -2 80 3 2 67 15 143 27 93 14 140 26 145 36 5 8 15 40 24 70 l15 55 262
42 263 42 145 151 145 151 126 -1 126 0 255 248 256 247 1 325 2 325 -253 247
-253 247 -131 1 -131 0 -53 57 c-30 32 -94 100 -143 151 l-90 94 -261 44
c-143 24 -262 44 -263 44 0 0 -10 31 -22 69 -24 79 -10 71 -181 96 -63 10
-119 21 -123 25 -5 4 -5 40 -1 79 l7 72 138 70 139 69 0 175 0 175 579 0 579
0 6 -37 c4 -21 9 -50 12 -65 l6 -28 234 0 235 0 41 65 42 65 386 0 387 0 137
40 137 40 869 0 870 0 0 340 0 340 -873 0 -874 0 -137 40 -137 40 -383 0 -384
0 -42 65 -42 65 -233 0 -233 0 -6 -27 c-3 -16 -8 -47 -11 -70 l-7 -43 -579 0
-579 0 0 73 0 72 -152 70 -151 70 -271 5 c-216 4 -161 6 271 8 l541 2 128 -40
c123 -38 134 -40 262 -40 l133 0 -3 67 -3 67 -446 180 c-401 163 -444 182
-427 195 16 10 249 18 1186 37 642 13 1204 24 1250 24 75 0 82 2 82 20 0 18
-7 20 -72 20 -95 0 -2088 39 -2153 43 l-50 2 75 45 c42 25 173 111 291 192
l214 147 38 139 37 139 0 1359 1 1359 -38 143 -37 142 -123 86 -123 85 0 47
c0 26 5 112 11 192 7 106 7 173 -1 250 -16 138 -121 660 -157 776 -20 65 -98
225 -273 563 l-245 473 -122 115 -122 114 -1753 14 c-964 7 -1990 16 -2280 19
l-528 6 0 -225 0 -225 -792 0 -791 0 6 1053 c4 578 10 1366 14 1750 l6 697
1902 0 1902 0 7 -50 7 -51 127 3 127 3 67 920 c36 506 71 950 77 988 12 72 15
526 5 590 l-7 37 -1728 0 -1729 0 0 118 c0 66 -3 174 -7 241 l-6 122 -71 51
-70 51 -125 -2 c-70 -1 -156 -4 -192 -7 l-65 -6 -149 566 c-140 534 -150 568
-177 587 l-28 20 0 120 0 119 293 0 292 0 58 75 58 75 1592 0 1592 0 35 81
c22 52 42 84 55 88 11 4 2356 27 5212 51 l5192 44 42 -23 c45 -26 75 -26 412
-4 l97 6 0 64 0 63 -34 0 c-19 0 -125 5 -235 11 l-199 10 -39 -25 -38 -25
-5210 47 -5210 47 -39 83 -40 82 -1591 0 -1592 0 -59 78 -60 77 -292 3 -292 2
-1 108 c-1 59 -4 228 -8 375 l-6 269 -69 29 c-55 24 -89 31 -172 36 l-104 6 0
1854 0 1853 -122 -2 c-68 -1 -293 -6 -500 -12z m-14928 -16345 l0 -159 -217
-52 c-120 -29 -257 -62 -305 -73 l-88 -21 0 -126 0 -127 -1022 -6 c-562 -4
-1421 -7 -1910 -7 l-888 0 0 320 0 320 78 1 c42 0 975 20 2072 43 1097 24
2059 44 2138 45 l142 1 0 -159z m-610 -1691 l0 -830 -117 0 c-65 0 -905 9
-1868 20 -962 11 -1769 20 -1792 20 l-43 0 0 790 0 790 78 1 c42 0 745 9 1562
18 817 10 1641 19 1833 20 l347 1 0 -830z m-482 -1127 l482 -6 0 -127 0 -127
33 -7 c17 -3 155 -36 305 -72 l272 -66 0 -159 c0 -87 -3 -159 -7 -159 -5 0
-978 20 -2163 45 -1185 25 -2179 45 -2207 45 l-53 0 0 320 0 320 1428 0 c786
0 1645 -3 1910 -7z m1092 -7201 l0 -158 -292 -69 c-161 -37 -299 -70 -305 -73
-10 -3 -13 -39 -13 -133 l0 -129 -642 0 c-354 0 -1213 -3 -1911 -7 l-1267 -6
2 324 3 324 2015 41 c1108 23 2104 42 2213 43 l197 1 0 -158z m-610 -1693 l0
-832 -292 6 c-161 4 -1011 14 -1888 23 -877 8 -1605 18 -1617 20 l-23 4 0 785
0 785 23 1 c81 3 3069 36 3395 38 l402 1 0 -831z m-1498 -1119 l1497 0 3 -132
3 -133 275 -65 c151 -37 287 -70 303 -73 l27 -7 0 -155 0 -155 -132 0 c-73 0
-1026 18 -2118 40 -1092 22 -2029 40 -2082 40 l-98 0 0 327 0 326 413 -6 c226
-4 1086 -7 1909 -7z"/>
</g>
</svg>
