<?xml version="1.0" standalone="no"?>
<!DOCTYPE svg PUBLIC "-//W3C//DTD SVG 20010904//EN"
 "http://www.w3.org/TR/2001/REC-SVG-20010904/DTD/svg10.dtd">
<svg version="1.0" xmlns="http://www.w3.org/2000/svg"
   viewBox="0 0 4545.000000 768.000000"
 preserveAspectRatio="xMidYMid meet">
<metadata>
Created by potrace 1.16, written by Peter Selinger 2001-2019
</metadata>
<g transform="translate(0.000000,768.000000) scale(0.100000,-0.100000)"
fill="#000000" stroke="none">
<path d="M36308 7666 c-146 -6 -270 -15 -274 -19 -5 -4 -32 -70 -60 -145 -41
-107 -49 -139 -39 -147 7 -5 720 -419 1584 -920 1141 -661 1570 -914 1567
-925 -2 -8 -7 -22 -10 -31 -5 -12 9 -27 57 -58 57 -37 75 -43 175 -58 62 -9
112 -19 112 -23 0 -3 -145 -32 -322 -64 -178 -32 -330 -61 -338 -64 -12 -4
-11 -1 3 15 15 17 16 32 11 109 -7 83 -10 93 -48 147 l-41 58 -46 -6 -46 -7
-12 119 c-7 65 -15 124 -19 132 -6 10 -2168 707 -3682 1187 l-145 46 -290
-157 c-160 -86 -295 -162 -301 -168 -9 -9 -7 -53 7 -170 10 -87 19 -166 21
-174 2 -11 524 -182 1823 -597 l1820 -581 -3 -36 c-3 -33 0 -37 39 -55 l43
-19 -45 -8 c-147 -27 -149 -28 -149 -50 0 -12 15 -62 34 -112 19 -49 33 -91
31 -93 -2 -2 -353 -12 -781 -22 -805 -20 -3593 -105 -3791 -116 -111 -6 -113
-6 -113 -30 l0 -24 -240 0 -240 0 0 30 0 30 -395 0 -395 0 0 -30 0 -30 -190 0
-190 0 0 30 0 30 -400 0 -400 0 0 -30 0 -30 -190 0 -190 0 0 30 0 30 -395 0
-395 0 0 -30 0 -30 -194 0 -195 0 -3 52 -3 52 -812 151 c-446 83 -815 154
-820 159 -4 4 64 7 152 5 l160 -3 90 38 c84 35 113 41 429 86 272 38 347 45
378 37 24 -6 43 -6 49 0 5 5 12 43 15 85 l7 76 -54 15 c-345 98 -685 165
-1006 199 l-223 23 0 102 0 103 -2790 0 -2790 0 2 -222 3 -223 55 -10 55 -10
3 -62 c2 -48 7 -63 20 -66 49 -13 -139 2 -1280 103 l-1243 110 -1126 0 -1125
0 -364 125 -363 125 -383 0 -384 0 0 230 0 230 -1065 0 -1065 0 0 133 -1 132
-29 33 c-28 31 -33 32 -105 32 l-75 0 0 120 0 120 -770 0 c-507 0 -770 3 -770
10 0 6 -50 10 -130 10 -80 0 -130 -4 -130 -10 0 -6 -88 -10 -245 -10 l-245 0
0 138 0 137 -170 177 -170 176 0 161 0 161 -2630 0 -2630 0 0 -175 0 -175
-525 0 -525 0 0 -1075 0 -1075 -2139 0 -2140 0 -35 -113 c-19 -61 -55 -180
-80 -262 l-46 -151 0 -182 0 -182 310 0 310 0 0 -400 0 -400 -310 0 -310 0 0
-182 0 -182 46 -151 c25 -82 61 -201 80 -262 l35 -113 2140 0 2139 0 0 -1075
0 -1075 525 0 525 0 0 -175 0 -175 2630 0 2630 0 0 161 0 161 170 176 170 177
0 138 0 137 245 0 c157 0 245 -4 245 -10 0 -6 50 -10 130 -10 80 0 130 4 130
10 0 7 263 10 770 10 l770 0 0 120 0 120 75 0 c72 0 77 1 105 33 l29 32 1 133
0 132 1065 0 1065 0 0 230 0 230 383 0 383 0 364 125 363 125 1125 0 1125 0
1242 110 c1136 101 1333 116 1283 103 -13 -3 -18 -18 -20 -66 l-3 -62 -55 -10
-55 -10 -3 -223 -2 -222 2790 0 2790 0 0 103 0 103 223 23 c323 33 661 100
1006 198 l54 15 -7 76 c-3 42 -10 80 -15 85 -6 6 -24 6 -48 0 -31 -8 -109 0
-378 38 -320 44 -346 49 -435 86 l-95 39 -155 -4 c-86 -2 -151 0 -147 4 5 5
374 77 820 159 l812 151 3 52 3 52 195 0 194 0 0 -30 0 -30 395 0 395 0 0 30
0 30 190 0 190 0 0 -30 0 -30 400 0 400 0 0 30 0 30 190 0 190 0 0 -30 0 -30
395 0 395 0 0 30 0 30 240 0 240 0 0 -24 c0 -24 2 -24 123 -30 234 -12 2986
-96 3642 -111 363 -8 719 -18 792 -21 l132 -6 -31 -81 c-17 -45 -33 -96 -36
-114 -4 -34 -13 -31 147 -60 l44 -8 -52 -25 c-50 -23 -52 -26 -49 -59 l3 -35
-1820 -576 -1820 -575 -17 -150 c-27 -235 -62 -189 285 -381 l299 -164 1909
604 c1051 332 1913 607 1917 610 5 6 30 200 31 249 1 13 7 17 19 13 73 -20 74
-20 119 48 40 61 42 67 44 149 1 64 -2 90 -14 108 -9 12 -15 24 -13 26 5 5
746 -131 746 -137 0 -3 -63 -15 -140 -26 -128 -20 -145 -25 -200 -60 -61 -39
-63 -44 -49 -92 3 -8 -587 -350 -1574 -916 -868 -497 -1583 -908 -1589 -914
-11 -11 74 -254 98 -281 10 -11 89 -17 351 -28 186 -8 349 -12 363 -11 17 3
3264 1850 3307 1882 1 1 -10 48 -24 104 -14 57 -23 106 -19 109 3 4 25 9 48
12 42 6 51 14 93 85 9 16 26 15 215 -20 113 -21 207 -39 209 -41 3 -2 -17 -26
-43 -52 l-49 -49 22 -28 c18 -22 19 -30 9 -39 -7 -7 -503 -358 -1103 -780
-599 -422 -1094 -771 -1098 -774 -4 -4 13 -47 39 -94 38 -72 50 -87 69 -87 13
0 188 20 388 44 l364 45 1228 865 c1040 734 1233 866 1261 866 19 0 34 -3 34
-6 0 -3 -66 -98 -146 -210 -80 -113 -144 -209 -142 -214 5 -15 168 -200 176
-200 4 0 129 58 277 129 l270 129 200 308 201 309 380 178 381 179 33 118 c18
65 36 124 40 130 7 12 1481 468 1580 489 119 25 127 29 153 74 l26 43 148 33
c81 18 156 35 166 38 16 4 17 25 17 263 0 238 -1 259 -17 263 -10 3 -85 20
-166 38 l-149 34 -25 42 c-26 45 -34 49 -153 74 -99 21 -1573 477 -1580 489
-4 6 -22 65 -40 130 l-33 119 -378 177 -379 177 -197 304 c-108 168 -206 311
-218 319 -29 19 -523 254 -534 254 -5 0 -48 -45 -96 -100 -84 -96 -87 -101
-72 -123 8 -12 76 -107 150 -212 l135 -190 -38 -3 c-109 -9 -45 -52 -1308 877
l-1172 862 -373 65 c-204 35 -379 64 -387 64 -19 0 -116 -159 -104 -169 5 -5
495 -365 1089 -801 594 -436 1084 -796 1088 -800 4 -3 -2 -19 -14 -35 l-22
-28 61 -59 c33 -32 56 -61 49 -63 -48 -15 -432 -76 -434 -69 -2 5 -12 23 -22
40 -16 26 -27 32 -71 38 -42 6 -50 10 -46 24 3 9 15 57 27 105 19 75 20 90 8
101 -8 8 -746 437 -1640 955 l-1626 941 -94 -2 c-52 0 -214 -6 -361 -12z
m-14265 -2493 c-7 -2 -19 -2 -25 0 -7 3 -2 5 12 5 14 0 19 -2 13 -5z m0 -2670
c-7 -2 -19 -2 -25 0 -7 3 -2 5 12 5 14 0 19 -2 13 -5z"/>
</g>
</svg>
