<?xml version="1.0" standalone="no"?>
<!DOCTYPE svg PUBLIC "-//W3C//DTD SVG 20010904//EN"
 "http://www.w3.org/TR/2001/REC-SVG-20010904/DTD/svg10.dtd">
<svg version="1.0" xmlns="http://www.w3.org/2000/svg"
   viewBox="0 0 4551.000000 756.000000"
 preserveAspectRatio="xMidYMid meet">
<metadata>
Created by potrace 1.16, written by Peter Selinger 2001-2019
</metadata>
<g transform="translate(0.000000,756.000000) scale(0.100000,-0.100000)"
fill="#000000" stroke="none">
<path d="M10380 7184 c-778 -206 -1415 -376 -1417 -377 -1 -2 -35 -240 -75
-530 l-73 -527 -52 0 -53 0 0 -180 0 -180 -420 0 -420 0 0 495 0 495 -940 0
-940 0 0 -575 0 -575 -285 0 -285 0 0 -60 0 -60 -365 0 -365 0 0 75 0 75
-1150 0 -1150 0 0 -30 0 -30 -1008 0 -1008 0 -22 -70 -23 -69 -87 -3 -87 -3
-77 -270 -77 -270 0 -685 0 -685 77 -270 77 -270 87 -3 87 -3 23 -69 22 -70
1008 0 1008 0 0 -30 0 -30 1150 0 1150 0 0 75 0 75 365 0 365 0 0 -60 0 -60
285 0 285 0 0 -575 0 -575 940 0 940 0 0 495 0 495 420 0 420 0 0 -185 0 -185
50 0 c28 0 50 -3 50 -7 0 -13 71 -528 73 -529 1 -1 663 -182 1470 -403 l1468
-401 424 0 425 0 0 113 0 112 470 244 470 245 0 143 0 143 425 0 425 0 0 -130
0 -130 35 0 35 0 0 -130 0 -130 265 0 265 0 0 -35 0 -35 1150 0 1150 0 0 -485
0 -485 2100 0 2100 0 0 260 0 260 745 0 745 0 802 95 801 95 4699 0 4698 0 0
-45 0 -45 829 0 c655 0 830 3 833 13 4 9 147 13 661 15 l657 2 0 25 0 25 -582
1 c-321 1 -869 5 -1218 8 l-635 6 485 131 485 131 3 56 c3 55 4 57 32 57 31 0
70 39 70 71 0 18 48 19 1715 19 l1715 0 0 35 0 35 -1715 0 c-1418 0 -1715 2
-1715 13 0 22 -45 57 -73 57 -26 0 -27 2 -27 58 l0 57 -493 133 -492 132
-4956 0 -4955 0 -700 85 c-384 47 -716 88 -737 91 l-39 6 51 52 c27 28 91 101
140 161 l90 110 1 268 0 267 399 0 399 0 22 60 22 60 752 0 752 0 570 120
c313 67 579 124 592 127 21 5 22 2 22 -46 l0 -51 135 0 135 0 0 50 0 50 2525
0 2526 0 260 -100 260 -100 5514 0 5513 0 59 59 58 59 555 92 c305 50 565 95
577 98 13 4 104 70 203 147 l180 140 0 82 0 83 -35 0 -35 0 0 160 0 160 35 0
35 0 0 83 0 82 -180 140 c-99 77 -190 143 -203 147 -12 3 -272 48 -577 98
l-555 93 -58 58 -59 59 -5513 0 -5514 0 -260 -100 -260 -100 -2526 0 -2525 0
0 50 0 50 -135 0 -135 0 0 -51 c0 -48 -1 -51 -22 -46 -13 3 -279 60 -592 127
l-570 120 -752 0 -752 0 -22 60 -22 60 -399 0 -399 0 0 268 -1 267 -106 130
c-88 107 -155 173 -381 373 l-275 242 -59 0 -58 0 0 -50 0 -50 -500 0 c-492 0
-500 0 -500 20 0 15 22 31 90 65 l90 45 -2 401 -3 401 -85 32 c-68 25 -86 36
-88 54 l-3 22 -975 0 -975 0 3 -135 3 -136 93 -41 92 -40 0 -344 0 -344 -165
0 -165 0 0 423 0 423 -90 40 -90 39 0 98 0 97 -2300 0 -2300 0 0 -285 0 -285
90 0 90 0 0 -275 0 -275 -650 0 -650 0 -2 462 -3 463 -690 267 -690 268 -215
-1 -215 -1 -1415 -374z"/>
</g>
</svg>
