<?xml version="1.0" standalone="no"?>
<!DOCTYPE svg PUBLIC "-//W3C//DTD SVG 20010904//EN"
 "http://www.w3.org/TR/2001/REC-SVG-20010904/DTD/svg10.dtd">
<svg version="1.0" xmlns="http://www.w3.org/2000/svg"
   viewBox="0 0 3939.000000 1194.000000"
 preserveAspectRatio="xMidYMid meet">
<metadata>
Created by potrace 1.16, written by Peter Selinger 2001-2019
</metadata>
<g transform="translate(0.000000,1194.000000) scale(0.100000,-0.100000)"
fill="#000000" stroke="none">
<path d="M15705 11915 c-203 -22 -365 -58 -585 -130 -28 -9 -620 -68 -1555
-155 l-1510 -140 -1010 -41 c-555 -22 -1293 -53 -1640 -69 -346 -15 -675 -26
-730 -23 -108 5 -1908 -72 -1925 -82 -6 -3 -141 -13 -301 -20 -286 -14 -292
-15 -324 -40 -37 -27 -55 -32 -55 -12 -1 43 -9 41 -441 -88 -233 -69 -446
-133 -473 -142 -47 -15 -51 -19 -154 -176 -144 -220 -142 -212 -142 -466 l0
-209 -63 -6 c-34 -3 -129 -8 -212 -11 -150 -5 -335 -21 -343 -30 -3 -3 -18
-401 -21 -567 l-1 -28 -250 0 -250 0 -2 -202 c-2 -112 -3 -304 -3 -428 l0
-224 -1705 -398 c-938 -218 -1756 -409 -1818 -423 l-112 -27 0 -243 0 -244
-40 -193 -41 -193 11 -160 c13 -207 13 -1343 0 -1550 l-11 -160 41 -193 40
-193 0 -244 0 -244 93 -21 c50 -12 868 -202 1817 -424 l1725 -402 0 -224 c0
-124 1 -316 3 -427 l2 -203 250 0 250 0 1 -27 c3 -167 18 -565 21 -568 8 -9
193 -25 343 -30 83 -3 178 -8 213 -11 l62 -6 0 -209 c0 -254 -2 -246 142 -466
103 -157 107 -161 154 -176 27 -9 240 -73 473 -142 432 -129 440 -130 441 -87
0 19 18 14 55 -13 32 -25 41 -26 238 -36 112 -5 251 -16 308 -24 65 -8 454
-25 1029 -44 509 -17 1267 -45 1685 -62 418 -17 915 -37 1105 -45 190 -7 622
-25 960 -39 l615 -26 1500 -139 c825 -77 1509 -142 1520 -144 11 -3 108 -30
215 -61 178 -52 214 -59 415 -80 214 -23 226 -23 430 -9 150 11 237 22 306 39
109 28 -371 -10 5919 469 2054 157 3760 288 3791 291 l55 6 17 -36 c18 -37 53
-48 63 -20 5 11 22 15 63 15 50 0 64 5 122 44 l65 44 463 36 c475 38 500 42
515 83 4 9 5 17 4 18 -3 3 -847 35 -895 35 -14 0 -23 6 -23 15 0 8 6 15 13 15
92 1 882 61 890 69 12 12 20 93 10 107 -4 6 -179 37 -388 68 -209 31 -389 58
-401 61 -15 3 -28 24 -48 77 -16 40 -36 84 -46 98 -17 25 -16 28 36 165 56
144 184 628 171 642 -6 5 -239 50 -714 138 -26 5 -33 11 -33 29 0 24 -29 36
-86 36 -17 0 -31 11 -48 38 -24 38 -24 38 -131 54 l-108 16 -23 -27 c-23 -27
-25 -28 -80 -18 -48 8 -58 7 -65 -6 -5 -8 -17 -13 -26 -11 -10 2 -44 8 -75 14
-45 9 -58 15 -58 30 0 21 -10 26 -75 36 -43 6 -49 10 -62 44 l-15 36 -111 18
-111 18 -22 -28 c-22 -26 -24 -27 -83 -17 -56 9 -61 8 -67 -9 -3 -11 -11 -17
-17 -15 -7 2 -45 10 -84 17 -58 11 -73 17 -73 31 0 19 -11 24 -78 34 -34 6
-45 13 -58 38 -9 18 -17 33 -18 34 -1 2 -51 10 -111 19 l-108 16 -23 -30 c-23
-28 -24 -29 -80 -20 -38 6 -59 5 -64 -2 -4 -7 -41 -3 -111 11 -57 11 -133 26
-169 33 -60 11 -66 15 -79 47 l-15 36 -110 15 -111 15 -25 -28 -25 -27 -860
152 -860 153 100 7 c55 4 1662 83 3570 177 3543 173 5028 246 9358 460 2209
109 2459 120 2475 106 15 -14 73 -12 562 13 300 15 548 25 551 21 3 -3 14 -30
25 -59 10 -28 20 -52 23 -52 4 1 35 39 69 85 l64 85 111 35 c62 19 242 74 401
123 223 69 291 94 297 108 4 11 8 58 8 107 l1 87 -47 0 c-27 0 -205 -9 -396
-20 -402 -23 -352 -33 -470 87 l-68 69 10 627 c7 428 7 826 0 1254 l-10 627
89 89 88 88 356 -20 c195 -12 376 -21 401 -21 l47 0 -1 88 c0 48 -4 95 -8 106
-6 14 -74 39 -297 108 -159 49 -339 104 -401 123 l-111 35 -64 85 c-34 46 -66
84 -69 85 -3 0 -14 -26 -26 -57 l-20 -58 -84 3 c-46 2 -293 14 -549 27 -417
21 -467 22 -482 8 -15 -14 -278 -2 -2575 111 -1407 70 -4888 241 -7737 381
-2848 140 -5181 255 -5185 256 -3 0 383 70 858 154 l863 153 22 -25 22 -26 85
12 c137 19 137 19 150 56 12 31 17 34 73 43 34 6 110 20 171 31 60 12 111 17
113 13 1 -5 30 -5 64 1 48 7 63 6 69 -5 27 -47 26 -47 146 -30 110 15 112 16
124 46 16 40 21 43 86 51 41 5 53 10 53 24 0 14 17 20 82 33 74 14 84 14 94 0
9 -13 19 -14 65 -4 53 11 54 11 80 -18 l25 -30 109 20 c109 20 120 26 131 67
4 14 16 24 35 27 16 3 43 9 60 12 19 4 33 14 36 25 4 13 21 21 62 29 31 6 64
12 74 14 9 2 20 -2 25 -9 5 -10 20 -11 65 -4 56 9 59 9 79 -17 23 -29 32 -29
184 -3 55 10 63 14 77 44 14 29 21 33 74 41 49 8 58 12 61 32 2 12 4 22 5 22
26 1 739 139 744 144 14 13 -116 498 -172 645 -45 116 -53 146 -42 152 8 5 29
47 47 93 19 50 40 87 49 90 9 3 189 30 401 62 212 31 389 62 393 68 10 14 2
95 -10 107 -8 8 -798 68 -890 69 -7 0 -13 7 -13 15 0 9 9 15 23 15 55 0 892
33 895 35 7 6 -19 45 -37 54 -10 6 -226 27 -482 47 l-464 37 -65 43 c-57 39
-71 44 -121 44 -41 0 -58 4 -63 15 -10 28 -45 17 -63 -20 -17 -36 -18 -36 -68
-30 -27 3 -140 12 -250 20 -110 8 -2263 173 -4784 365 -4139 316 -4593 353
-4680 375 -70 17 -158 29 -315 40 -121 8 -220 14 -220 14 -1 -1 -95 -12 -211
-24z m10675 -885 c0 -13 -1 -13 -10 0 -5 8 -10 22 -10 30 0 13 1 13 10 0 5 -8
10 -22 10 -30z m-5 -10140 c-4 -12 -9 -19 -12 -17 -3 3 -2 15 2 27 4 12 9 19
12 17 3 -3 2 -15 -2 -27z"/>
</g>
</svg>
