<?xml version="1.0" standalone="no"?>
<!DOCTYPE svg PUBLIC "-//W3C//DTD SVG 20010904//EN"
 "http://www.w3.org/TR/2001/REC-SVG-20010904/DTD/svg10.dtd">
<svg version="1.0" xmlns="http://www.w3.org/2000/svg"
   viewBox="0 0 2376.000000 4026.000000"
 preserveAspectRatio="xMidYMid meet">
<metadata>
Created by potrace 1.16, written by Peter Selinger 2001-2019
</metadata>
<g transform="translate(0.000000,4026.000000) scale(0.100000,-0.100000)"
fill="#000000" stroke="none">
<path d="M6511 40245 c-26 -12 -86 -15 -282 -15 -235 0 -261 -2 -467 -35 -183
-28 -300 -39 -718 -65 -274 -17 -746 -46 -1047 -65 l-548 -35 -217 -109 -217
-109 -67 -148 c-95 -210 -103 -246 -102 -494 0 -245 6 -274 100 -470 l65 -136
217 -115 217 -116 470 -27 c817 -47 1536 -102 1835 -142 151 -20 276 -37 278
-39 3 -3 -312 -4690 -343 -5105 -8 -107 -15 -207 -15 -222 l0 -28 -78 0 -77 0
-86 -87 -86 -88 -13 -265 c-6 -146 -16 -299 -21 -340 -5 -41 -12 -169 -15
-285 l-6 -210 68 -87 67 -88 58 0 c52 0 59 -2 59 -20 0 -59 -53 -1067 -65
-1245 -8 -115 -24 -347 -35 -515 -12 -168 -23 -315 -26 -327 -4 -22 -10 -23
-82 -23 l-77 0 -79 -79 -78 -79 -14 -263 c-8 -145 -21 -318 -29 -384 -8 -68
-15 -202 -15 -307 l0 -187 67 -75 66 -76 54 0 53 0 0 -33 c0 -18 -49 -814
-110 -1768 -60 -954 -111 -1760 -112 -1792 l-3 -58 238 -147 237 -146 0 -131
0 -132 -377 -148 c-533 -209 -1045 -453 -1538 -731 l-370 -209 -6 -220 c-4
-121 -7 -477 -8 -791 l-1 -570 -190 -54 -190 -55 2 -1280 3 -1279 193 -55 192
-55 0 -1002 0 -1002 -317 -303 c-175 -167 -360 -344 -411 -393 l-92 -90 0
-2450 0 -2451 853 -287 c1121 -378 1304 -433 1937 -582 l515 -121 3 -630 2
-631 -95 -474 c-53 -261 -98 -482 -100 -491 -9 -26 -398 -199 -648 -288 l-228
-81 -422 -60 c-323 -46 -584 -76 -1117 -125 -382 -36 -934 -92 -1225 -125
-292 -33 -768 -87 -1060 -120 -291 -33 -547 -62 -568 -66 -34 -5 -48 -19 -152
-151 l-115 -146 0 -889 0 -888 106 -138 c59 -75 111 -143 118 -149 18 -20
1786 -217 2851 -319 500 -47 800 -81 1135 -128 413 -59 476 -70 686 -125 l231
-61 199 -113 c109 -63 202 -120 206 -128 4 -8 121 -473 259 -1034 175 -707
277 -1143 333 -1422 l81 -403 179 -110 178 -110 2225 0 2226 0 216 116 c119
64 223 124 232 134 9 10 109 182 222 382 183 323 236 430 490 973 156 336 295
635 309 666 l25 56 1829 6 c1006 4 2164 12 2574 17 410 6 1240 14 1845 19
l1100 10 143 30 c78 17 145 31 147 31 3 0 5 113 5 250 0 242 1 250 20 250 11
0 71 38 135 84 63 46 385 254 715 461 l600 377 0 59 0 58 88 65 89 65 128 227
128 227 -5 254 c-4 182 -2 253 6 253 520 12 1459 30 1564 30 l142 0 0 50 0 50
-102 0 c-57 0 -420 7 -808 15 -388 8 -728 15 -756 15 l-52 0 6 253 5 254 -128
228 -128 228 -88 64 -88 64 -3 61 -3 61 -606 381 c-334 210 -654 416 -713 459
-58 42 -115 77 -126 77 -19 0 -20 7 -20 250 0 138 -1 250 -2 250 -2 0 -64 12
-138 26 -132 25 -154 26 -875 39 -526 10 -1495 14 -3349 15 l-2608 0 3 829 c2
456 6 831 9 834 3 2 844 84 1870 181 1777 169 1889 181 2380 251 l515 74 130
56 130 57 187 251 187 252 1 463 0 462 208 0 209 0 214 133 214 134 0 348 0
348 -213 126 c-191 114 -220 134 -281 201 -141 156 -196 240 -258 399 l-58
146 0 965 0 965 54 165 c46 139 66 185 132 295 114 190 164 237 421 391 l208
125 -2 347 -3 346 -215 132 -215 133 -207 1 -208 0 0 471 0 470 -152 262 c-83
144 -158 269 -167 278 -9 9 -74 39 -146 67 l-130 51 -530 70 c-529 71 -2080
271 -2095 271 -11 0 -9 -12 -114 755 -85 617 -128 901 -140 912 -2 2 -394 114
-872 249 -478 134 -877 247 -886 250 -16 5 -18 20 -18 137 0 73 9 272 20 442
11 171 20 327 20 347 0 35 -6 42 -89 110 -69 56 -90 79 -90 98 -1 14 -161
2083 -356 4598 -237 3054 -355 4621 -355 4716 0 102 -26 425 -90 1117 -134
1438 -140 1510 -141 1684 -1 201 -10 314 -28 324 -22 14 -271 2844 -271 3078
l0 33 223 0 223 0 220 223 221 222 78 295 c43 162 78 300 78 306 0 6 -35 144
-78 305 l-78 294 -221 223 -221 222 -1976 0 c-1745 0 -1978 2 -1989 15 -19 22
-1877 22 -1929 0z"/>
</g>
</svg>
