<?xml version="1.0" standalone="no"?>
<!DOCTYPE svg PUBLIC "-//W3C//DTD SVG 20010904//EN"
 "http://www.w3.org/TR/2001/REC-SVG-20010904/DTD/svg10.dtd">
<svg version="1.0" xmlns="http://www.w3.org/2000/svg"
   viewBox="0 0 3814.000000 1926.000000"
 preserveAspectRatio="xMidYMid meet">
<metadata>
Created by potrace 1.16, written by Peter Selinger 2001-2019
</metadata>
<g transform="translate(0.000000,1926.000000) scale(0.100000,-0.100000)"
fill="#000000" stroke="none">
<path d="M3761 19185 l-41 -74 -62 -3 -62 -3 -243 -415 -243 -415 0 -252 0
-253 58 0 57 0 -3 -65 -4 -65 -72 0 -72 0 -137 -185 -137 -186 0 -64 0 -64
-32 -5 c-35 -5 -458 -36 -495 -36 l-23 0 0 -469 0 -469 38 -6 c20 -3 127 -15
237 -26 110 -11 217 -23 238 -26 l37 -6 0 -59 0 -58 74 -62 74 -62 -4 -151
c-3 -83 -7 -170 -10 -193 l-5 -42 -76 -3 -76 -3 -574 -728 -573 -728 0 -115 0
-114 -731 0 -731 0 -84 -51 -84 -50 0 -552 0 -553 88 -52 88 -52 727 0 727 0
0 -115 0 -115 237 -255 237 -255 103 0 103 0 0 -2100 0 -2100 -103 0 -104 0
-236 -255 -237 -255 0 -115 0 -115 -727 0 -727 0 -88 -52 -88 -52 0 -553 0
-552 84 -50 84 -51 731 0 731 0 0 -114 0 -114 561 -714 c308 -392 570 -721
581 -730 15 -13 38 -18 88 -18 l69 0 5 -42 c3 -24 7 -110 10 -193 l4 -150 -74
-63 -74 -62 0 -59 0 -59 -37 -6 c-21 -3 -130 -15 -243 -26 -113 -11 -220 -23
-237 -26 l-33 -5 0 -468 0 -468 248 -17 c332 -23 302 -14 302 -91 l0 -64 137
-186 138 -185 72 0 71 0 4 -65 3 -65 -57 0 -58 0 0 -252 0 -253 243 -415 243
-415 64 -5 64 -5 39 -73 39 -72 1701 0 1702 0 173 518 172 517 0 126 c0 69 3
201 7 292 l6 167 467 0 466 0 246 182 245 183 7 495 c3 272 7 565 9 650 l2
154 -104 60 -103 60 6 85 c3 47 9 134 12 194 l7 107 2223 0 2224 0 0 -85 0
-85 -675 0 -675 0 -70 -52 -70 -52 0 -238 0 -238 -60 0 c-33 0 -60 -4 -60 -10
0 -6 -53 -10 -140 -10 -87 0 -140 4 -140 10 0 6 -26 10 -59 10 -58 0 -59 0
-65 31 -6 30 -8 31 -44 27 l-37 -5 -81 140 -81 140 -140 81 -140 81 5 37 c4
35 3 37 -34 47 -124 32 -134 33 -181 22 -135 -33 -126 -28 -121 -69 l5 -37
-140 -81 -141 -81 -81 -139 -81 -139 -36 3 c-41 4 -34 16 -70 -120 -10 -39
-10 -57 0 -95 36 -137 29 -125 69 -121 l37 3 81 -140 81 -139 139 -81 140 -81
-3 -37 c-3 -34 -1 -37 47 -62 l51 -25 0 -70 0 -70 70 0 70 0 0 70 0 70 51 25
c48 25 50 28 47 63 l-3 36 140 81 139 81 81 139 80 140 38 -3 c35 -3 38 -1 43
27 6 30 8 31 65 31 33 0 59 4 59 10 0 6 53 10 140 10 87 0 140 -4 140 -10 0
-6 27 -10 60 -10 l60 0 0 -238 0 -238 68 -52 69 -52 441 0 442 0 0 -85 0 -85
-55 0 -55 0 0 -150 0 -150 55 0 55 0 0 -163 0 -164 85 -56 85 -57 240 0 240 0
0 -35 0 -35 70 0 70 0 0 35 0 35 580 0 580 0 0 -35 0 -35 70 0 70 0 0 35 0 35
579 0 580 0 90 58 90 57 1 163 0 162 45 0 45 0 0 150 0 150 -45 0 -45 0 0 195
0 195 45 0 45 0 0 145 0 145 -45 0 -45 0 0 185 0 185 -160 0 -160 0 0 335 0
335 139 0 139 0 7 260 7 260 168 0 167 0 984 468 984 468 3 192 2 192 1995 0
1995 0 0 140 0 140 213 0 212 0 54 65 54 65 673 0 674 0 0 -299 0 -298 -165
-58 -165 -57 2 -820 3 -819 118 -46 117 -46 0 -92 0 -93 -111 -38 c-61 -22
-113 -44 -116 -50 -2 -6 106 -401 241 -877 135 -475 246 -867 246 -871 0 -3
776 -6 1724 -6 l1724 0 11 33 c18 56 479 1691 483 1710 2 14 -16 26 -82 56
l-85 39 -3 96 -3 95 91 46 90 45 0 819 0 819 -130 58 -130 58 0 73 0 73 -315
0 -315 0 0 350 0 350 -75 169 c-41 93 -75 172 -75 175 0 3 364 6 809 6 l809 0
26 -72 c14 -40 42 -117 61 -172 l35 -98 0 -428 0 -427 -165 -58 -165 -57 2
-820 3 -819 118 -46 117 -46 0 -92 0 -92 -107 -38 c-60 -20 -112 -41 -117 -46
-6 -5 92 -364 239 -884 l249 -875 1722 0 1722 0 11 33 c18 58 480 1692 483
1710 2 14 -16 27 -82 56 l-85 39 -3 96 -3 95 91 46 90 45 0 819 0 819 -130 58
-130 58 0 73 0 73 -315 0 -315 0 0 350 0 350 -75 169 c-41 93 -75 172 -75 175
0 3 365 6 810 6 446 0 810 -2 810 -3 0 -2 27 -80 60 -172 l60 -168 0 -427 0
-426 -165 -58 -165 -58 2 -820 3 -820 110 -43 110 -42 0 -98 0 -97 -111 -40
-111 -39 102 -357 c56 -196 168 -592 250 -879 l148 -523 1723 0 1723 0 15 53
c55 191 475 1675 478 1690 2 14 -16 26 -82 56 l-85 39 -3 96 -3 95 91 46 90
45 -2 821 -3 820 -127 57 -128 57 0 72 0 73 -315 0 -315 0 -1 353 0 352 -352
795 -353 795 -1440 3 -1440 2 -58 -119 c-39 -78 -57 -126 -53 -140 l5 -21
-856 0 -857 0 -60 138 -60 137 -1440 3 -1441 2 -58 -119 c-39 -78 -57 -126
-53 -140 l5 -21 -856 0 -857 0 -60 138 -61 137 -1440 3 -1440 2 -58 -119 c-39
-78 -57 -126 -53 -140 5 -21 3 -21 -116 -21 -121 1 -122 1 -99 19 l22 19 0
426 0 426 -390 0 -390 0 0 275 0 275 488 0 c646 0 632 -2 1062 173 l305 124 0
283 0 283 -305 125 c-430 175 -410 172 -1057 172 l-493 0 0 275 0 275 390 0
390 0 0 426 0 426 -22 19 c-23 18 -22 18 98 19 l121 0 -4 -27 c-2 -19 16 -64
54 -138 l58 -110 1440 0 1440 0 60 137 60 138 856 0 856 0 -4 -27 c-2 -19 16
-64 54 -138 l58 -110 1439 0 1440 0 60 138 61 137 857 0 856 0 -5 -21 c-4 -14
14 -62 53 -140 l58 -119 1440 2 1440 3 353 799 353 798 0 349 0 349 315 0 315
0 0 73 0 73 130 58 130 58 0 819 0 819 -90 45 -91 46 3 96 3 96 85 38 c66 30
84 42 82 56 -4 18 -465 1652 -483 1711 l-11 32 -1722 0 -1723 0 -163 -572
c-89 -315 -201 -711 -249 -880 l-88 -307 111 -39 111 -39 0 -98 0 -97 -110
-43 -110 -42 -3 -820 -2 -821 165 -57 165 -58 0 -426 0 -426 -60 -169 c-33
-94 -60 -171 -60 -173 0 -2 -364 -3 -810 -3 -445 0 -810 3 -810 6 0 3 34 82
75 175 l75 169 0 350 0 350 315 0 315 0 0 73 0 74 130 58 130 57 0 819 0 819
-90 45 -91 46 3 96 3 96 85 38 c47 21 84 44 84 51 -1 11 -419 1491 -475 1681
l-20 67 -1724 0 c-949 0 -1725 -3 -1725 -6 0 -3 -111 -395 -246 -871 -135
-476 -243 -871 -241 -877 3 -6 55 -28 116 -50 l111 -38 0 -93 0 -92 -117 -45
-118 -46 -3 -819 -2 -820 165 -58 165 -57 0 -428 0 -428 -35 -98 c-19 -55 -47
-132 -61 -171 l-26 -73 -809 0 c-445 0 -809 3 -809 6 0 3 34 82 75 175 l75
169 0 350 0 350 315 0 315 0 0 73 0 73 130 58 130 59 0 818 0 819 -90 45 -91
46 3 96 3 96 85 38 c66 30 84 42 82 56 -3 16 -426 1514 -473 1676 l-20 67
-1724 0 c-949 0 -1725 -3 -1725 -6 0 -3 -111 -395 -246 -871 -135 -476 -243
-870 -241 -877 3 -6 55 -28 116 -50 l111 -38 0 -93 0 -92 -117 -45 -118 -46
-3 -819 -2 -820 165 -58 165 -57 0 -299 0 -299 -673 0 -673 0 -54 65 -55 65
-212 0 -213 0 0 140 0 140 -1995 0 -1995 0 -2 192 -3 192 -980 468 -980 467
-171 0 -172 1 -7 260 -7 260 -139 0 -139 0 0 335 0 335 160 0 160 0 0 185 0
185 45 0 45 0 0 145 0 145 -45 0 -45 0 0 195 0 195 45 0 45 0 0 150 0 150 -45
0 -45 0 0 163 0 162 -90 58 -90 57 -580 0 -580 0 0 40 0 40 -70 0 -70 0 0 -40
0 -40 -580 0 -580 0 0 40 0 40 -70 0 -70 0 0 -40 0 -40 -242 0 -243 0 -82 -56
-83 -57 0 -164 0 -163 -55 0 -55 0 0 -150 0 -150 55 0 55 0 0 -85 0 -85 -442
0 -441 0 -69 -52 -68 -52 0 -238 0 -238 -60 0 c-33 0 -60 -4 -60 -10 0 -6 -53
-10 -140 -10 -87 0 -140 4 -140 10 0 6 -26 10 -59 10 -57 0 -59 1 -64 30 -6
27 -10 30 -46 30 l-39 0 -79 137 -79 137 -139 81 -140 81 3 36 c3 34 0 38 -47
65 l-51 28 0 68 0 67 -70 0 -70 0 0 -67 0 -68 -51 -28 c-47 -27 -50 -31 -47
-65 l3 -36 -140 -80 -139 -81 -80 -137 -79 -138 -38 0 c-37 0 -38 -1 -54 -57
-25 -83 -29 -126 -17 -164 6 -19 16 -54 22 -78 11 -43 12 -43 48 -39 l37 5 81
-140 80 -140 141 -81 140 -81 -5 -37 c-4 -35 -3 -37 34 -47 124 -32 134 -33
182 -22 134 33 125 28 120 69 l-5 37 140 81 141 81 80 140 81 140 37 -5 c36
-4 38 -3 44 27 6 31 7 31 65 31 33 0 59 4 59 10 0 6 53 10 140 10 87 0 140 -4
140 -10 0 -6 27 -10 60 -10 l60 0 0 -237 1 -238 69 -52 68 -53 676 0 676 0 0
-85 0 -85 -2224 0 -2223 0 -7 108 c-3 59 -9 146 -12 193 l-6 86 103 59 104 60
-2 154 c-2 85 -6 378 -9 650 l-7 495 -243 183 -244 182 -468 0 -469 0 -6 167
c-4 91 -7 223 -7 292 l0 126 -172 517 -173 518 -1702 0 -1701 0 -41 -75z
m20583 -6322 c-19 -54 -46 -131 -60 -170 l-26 -73 -348 0 -349 0 -139 158
c-76 86 -142 163 -146 170 -6 9 107 12 548 12 l555 0 -35 -97z m-6654 -1411
l0 -357 168 -168 167 -167 718 -2 718 -3 -253 -108 c-244 -104 -268 -111 -673
-222 -231 -63 -423 -115 -427 -115 -5 0 -8 41 -8 90 l0 90 -960 0 -960 0 0
660 0 660 755 0 755 0 0 -358z m2560 -967 l0 -275 -692 1 -693 0 130 38 c147
42 605 234 960 402 145 69 242 109 263 109 l32 0 0 -275z m0 -1710 l0 -275
-31 0 c-19 0 -123 43 -263 109 -359 169 -815 360 -961 402 l-130 38 693 0 692
1 0 -275z m-1715 60 c404 -110 429 -118 674 -222 l254 -108 -719 -3 -719 -2
-167 -167 -168 -168 0 -357 0 -358 -755 0 -755 0 0 660 0 660 960 0 960 0 0
90 c0 50 4 90 8 90 4 0 196 -52 427 -115z m5749 -2267 c14 -40 41 -117 60
-170 l35 -98 -556 0 c-548 0 -555 0 -542 19 8 11 73 87 144 170 l130 150 351
0 352 1 26 -72z"/>
</g>
</svg>
