<?xml version="1.0" standalone="no"?>
<!DOCTYPE svg PUBLIC "-//W3C//DTD SVG 20010904//EN"
 "http://www.w3.org/TR/2001/REC-SVG-20010904/DTD/svg10.dtd">
<svg version="1.0" xmlns="http://www.w3.org/2000/svg"
   viewBox="0 0 4615.000000 2450.000000"
 preserveAspectRatio="xMidYMid meet">
<metadata>
Created by potrace 1.16, written by Peter Selinger 2001-2019
</metadata>
<g transform="translate(0.000000,2450.000000) scale(0.100000,-0.100000)"
fill="#000000" stroke="none">
<path d="M25833 24490 c-53 -6 -121 -36 -483 -211 l-422 -205 -69 -171 c-64
-161 -69 -178 -89 -329 -11 -88 -23 -173 -26 -190 l-6 -32 -81 -7 c-214 -18
-1020 -143 -2102 -326 l-1190 -201 -1125 -685 -1125 -685 -1070 -313 c-789
-231 -1333 -383 -2070 -579 l-1000 -265 -1075 -60 c-591 -34 -1514 -88 -2050
-121 l-975 -60 -185 -71 -185 -70 -162 -150 -162 -149 -188 -81 c-326 -140
-609 -254 -1249 -499 -614 -236 -623 -240 -760 -326 -109 -68 -168 -114 -270
-211 l-131 -124 -18 -78 -18 -78 -169 -46 -170 -46 -55 31 c-54 30 -56 31
-150 24 -191 -13 -630 -140 -828 -239 l-100 -50 -76 83 -77 83 -288 28 c-227
22 -341 28 -532 29 l-244 0 -191 -151 c-106 -84 -196 -155 -202 -160 -5 -4
-860 -195 -1900 -424 -1039 -229 -1898 -418 -1907 -421 -16 -5 -18 -19 -18
-112 0 -59 9 -199 19 -312 11 -113 27 -344 37 -515 l17 -310 -33 -530 -33
-530 -232 -615 c-128 -338 -247 -650 -264 -694 -29 -72 -36 -116 -93 -582
l-62 -504 62 -504 c57 -465 64 -510 93 -582 17 -44 136 -356 264 -694 l232
-615 33 -530 33 -530 -17 -310 c-10 -170 -26 -402 -37 -515 -10 -113 -19 -253
-19 -312 0 -93 2 -107 18 -112 9 -3 867 -192 1907 -421 1039 -229 1894 -420
1900 -424 5 -4 96 -76 202 -159 l191 -152 244 0 c191 1 305 7 532 29 l289 29
76 82 76 83 100 -50 c197 -99 639 -226 829 -239 93 -7 95 -6 150 25 l56 31
168 -46 169 -46 18 -77 17 -76 130 -124 c102 -99 158 -142 269 -213 140 -88
144 -90 742 -319 666 -256 916 -355 1240 -495 l219 -95 161 -149 161 -149 186
-70 185 -70 980 -61 c539 -33 1462 -87 2050 -120 l1070 -61 1020 -271 c752
-199 1296 -351 2070 -578 l1050 -308 1125 -685 1125 -684 1190 -202 c1082
-183 1888 -308 2102 -326 l81 -7 6 -31 c3 -18 15 -103 26 -191 20 -151 25
-168 89 -329 l68 -171 421 -203 c381 -185 427 -205 490 -211 65 -7 115 2 1019
199 l950 207 628 207 628 207 492 44 493 44 563 166 c338 99 731 207 984 269
328 81 529 138 915 259 272 86 510 162 528 171 18 8 65 20 105 26 39 6 159 31
266 55 183 43 197 47 265 94 71 48 198 178 210 215 3 12 62 54 143 103 76 45
188 123 248 173 61 49 191 141 289 203 l180 112 96 170 c52 93 111 208 129
256 19 49 39 92 45 97 6 4 89 43 184 85 l174 78 521 377 522 377 79 120 c71
106 96 157 219 454 112 272 151 354 205 436 l66 101 275 148 c236 127 476 276
1651 1025 l1375 876 985 568 986 567 569 450 570 450 318 317 c364 362 1153
1210 1343 1445 l128 157 48 0 c41 0 788 126 796 135 2 2 30 74 63 160 l59 157
0 478 0 478 -59 157 c-33 86 -61 159 -63 160 -9 9 -754 135 -796 135 l-48 0
-141 173 c-202 247 -867 963 -1277 1375 l-351 354 -580 459 -581 459 -1019
588 -1020 588 -1340 855 c-1123 717 -1383 879 -1605 998 -146 79 -271 148
-279 154 -7 7 -41 52 -74 101 -48 72 -89 159 -202 430 -125 302 -150 355 -221
461 l-79 120 -520 376 -520 376 -175 78 c-96 43 -180 82 -186 87 -6 4 -26 47
-45 96 -18 48 -77 163 -129 256 l-96 169 -179 113 c-98 62 -228 153 -289 203
-61 50 -173 128 -249 173 -81 49 -140 91 -143 103 -12 37 -139 167 -211 216
-67 46 -82 51 -260 93 -103 24 -224 49 -268 56 -44 7 -91 18 -105 25 -14 7
-250 83 -525 170 -394 123 -590 179 -923 261 -256 63 -646 170 -985 269 l-562
166 -492 44 -491 44 -624 206 -623 206 -940 204 c-517 113 -949 206 -960 208
-11 2 -48 1 -82 -3z"/>
</g>
</svg>
