<?xml version="1.0" standalone="no"?>
<!DOCTYPE svg PUBLIC "-//W3C//DTD SVG 20010904//EN"
 "http://www.w3.org/TR/2001/REC-SVG-20010904/DTD/svg10.dtd">
<svg version="1.0" xmlns="http://www.w3.org/2000/svg"
   viewBox="0 0 3920.000000 3494.000000"
 preserveAspectRatio="xMidYMid meet">
<metadata>
Created by potrace 1.16, written by Peter Selinger 2001-2019
</metadata>
<g transform="translate(0.000000,3494.000000) scale(0.100000,-0.100000)"
fill="#000000" stroke="none">
<path d="M18814 34838 c-32 -57 -108 -193 -169 -303 -107 -191 -111 -200 -93
-215 18 -14 10 -31 -177 -363 -107 -191 -195 -351 -195 -356 0 -4 279 -173
621 -375 608 -360 625 -371 844 -542 123 -96 226 -177 228 -182 3 -4 -47 -155
-109 -337 -104 -301 -114 -336 -114 -402 l0 -72 358 -207 c196 -114 363 -213
371 -220 11 -10 -66 -147 -449 -794 -254 -430 -458 -786 -453 -791 4 -4 1516
-915 3358 -2025 1843 -1109 3351 -2017 3352 -2018 1 0 -81 -141 -182 -311
-101 -171 -182 -311 -182 -311 2 -2 4052 -2515 4097 -2543 l35 -21 -443 0
-442 0 -17 35 -17 35 -108 0 c-101 0 -108 1 -108 20 0 20 -7 20 -450 20 -443
0 -450 0 -450 -20 0 -20 -7 -20 -635 -20 -610 0 -635 1 -635 18 0 18 -17 19
-257 25 -141 4 -659 7 -1151 7 l-894 0 -115 81 -115 82 -321 -8 -322 -7 -204
-74 -203 -74 -2709 0 c-1490 0 -2710 3 -2710 8 -1 4 -4 68 -8 142 l-6 135
-1777 3 -1778 2 0 360 0 360 3985 0 3985 0 0 235 0 235 -3985 0 -3985 0 0 690
c0 555 -3 690 -13 690 -24 0 -502 51 -504 54 -2 2 -8 85 -13 186 -6 101 -12
185 -14 187 -3 3 -971 143 -991 143 -6 0 -17 -30 -24 -67 -6 -38 -26 -141 -43
-230 l-31 -163 -1501 0 -1501 0 -124 230 c-102 190 -127 230 -145 230 -109 0
-3620 -251 -3625 -259 -4 -5 -21 -71 -40 -145 l-33 -136 -203 0 c-184 0 -204
-2 -210 -17 -4 -10 -11 -346 -16 -748 -4 -401 -11 -879 -15 -1061 l-7 -331
-151 -7 c-83 -4 -167 -11 -186 -15 l-35 -7 -3 -952 -2 -952 166 0 167 0 -7
-72 c-4 -40 -9 -90 -13 -110 l-6 -38 -158 0 -159 0 0 -228 0 -229 -120 -56
-120 -56 0 -303 0 -303 -113 -160 -113 -160 -426 -3 -426 -2 -143 223 -142
223 -1111 12 c-611 7 -1294 15 -1519 19 l-407 6 0 -2658 0 -2658 1073 6 c589
4 1272 7 1517 7 l445 0 144 235 145 235 424 -2 425 -3 113 -160 113 -160 1
-267 0 -267 120 -62 120 -63 0 -263 0 -263 164 0 163 0 7 -46 c3 -26 6 -60 6
-77 l0 -30 -165 7 -165 6 0 -950 0 -951 43 -18 c31 -13 82 -20 188 -26 l146
-7 7 -331 c4 -183 11 -660 15 -1062 5 -401 12 -738 16 -747 6 -16 26 -18 210
-18 l203 0 33 -136 c19 -74 36 -139 39 -144 5 -7 3097 -60 3521 -60 l126 0 53
205 53 205 1571 0 1572 0 44 -197 45 -198 503 -3 c398 -2 502 0 502 10 1 39
20 311 22 314 2 1 119 10 261 20 l257 17 0 1259 0 1258 1778 2 1777 3 6 135
c4 74 7 136 8 138 0 1 1225 2 2720 2 l2719 0 189 -69 190 -69 324 -10 324 -9
111 78 112 79 986 0 c651 0 986 3 986 10 0 6 63 10 170 10 163 0 170 1 170 20
0 20 7 20 635 20 628 0 635 0 635 -20 0 -20 7 -20 360 -20 233 0 360 -4 360
-10 0 -7 162 -10 465 -10 l466 0 -3 -57 -3 -57 -1865 -1157 c-1026 -637 -1866
-1164 -1867 -1171 -1 -7 78 -148 176 -313 99 -165 176 -303 173 -306 -4 -3
-1512 -912 -3352 -2019 -1840 -1107 -3349 -2016 -3354 -2021 -4 -4 202 -363
459 -799 257 -435 466 -793 464 -795 -2 -2 -172 -101 -376 -220 l-373 -217 0
-62 c0 -54 16 -110 115 -397 l115 -334 -23 -17 c-12 -9 -114 -88 -227 -177
-197 -154 -229 -174 -827 -528 -343 -202 -623 -372 -623 -376 0 -5 88 -166
196 -359 108 -192 195 -350 193 -352 -2 -2 -11 -7 -21 -12 -14 -8 8 -52 155
-315 l171 -306 880 437 881 437 1839 1081 1840 1080 37 67 c20 37 43 73 50 80
8 8 379 103 824 211 l810 198 1690 1016 c930 559 2889 1738 4355 2620 1466
882 2683 1611 2705 1620 22 10 102 39 178 65 148 51 144 47 122 107 -3 7 9 22
28 34 23 15 37 35 48 71 l16 50 -469 779 c-258 428 -472 784 -476 791 -5 8
-31 0 -91 -28 -46 -21 -86 -39 -90 -39 -4 0 -18 20 -31 45 -21 38 -29 45 -47
40 -17 -4 -26 3 -45 37 l-24 43 -59 -3 -60 -3 -58 95 -59 94 -126 -75 c-70
-41 -161 -95 -203 -119 l-76 -44 -254 -25 c-139 -13 -256 -21 -260 -17 -4 4
-149 241 -324 527 l-317 520 6 275 c4 151 9 310 13 353 l6 77 856 0 c845 0
856 0 869 -20 12 -20 23 -20 1013 -20 l1000 0 1664 1358 1664 1357 -2 2300 -2
2300 -1655 1352 -1655 1352 -1011 0 c-891 1 -1013 -1 -1018 -14 -5 -13 -110
-15 -865 -15 l-859 0 -6 73 c-3 39 -8 198 -11 352 l-6 280 321 525 c176 288
322 525 323 526 1 0 117 -10 257 -23 l255 -25 170 -100 c94 -55 184 -109 202
-119 l31 -19 58 94 59 95 56 -6 57 -6 27 44 c35 56 32 54 49 40 12 -10 19 -4
42 36 15 26 29 50 30 51 1 2 42 -15 90 -37 48 -23 88 -40 90 -39 11 12 938
1557 941 1570 3 9 -3 40 -12 68 -12 37 -25 54 -47 66 -16 8 -27 21 -25 27 3 7
8 19 12 28 5 13 -21 26 -137 69 -155 58 284 -204 -7907 4723 l-1014 610 -806
198 c-443 108 -813 200 -821 203 -8 4 -33 40 -54 80 l-40 74 -1855 1090 -1856
1090 -863 426 c-474 234 -864 426 -867 426 -2 0 -30 -46 -61 -102z m12126
-12065 c82 -49 116 -76 121 -93 4 -14 7 -72 8 -129 l1 -104 -41 6 c-33 4 -120
58 -413 253 -471 313 -1477 993 -1494 1009 -10 9 -7 22 19 67 l32 56 826 -498
c454 -273 878 -528 941 -567z m-181 -10707 c-2 -2 -346 -210 -764 -461 -418
-251 -774 -466 -791 -476 l-32 -19 -32 56 c-17 31 -28 60 -23 64 4 5 274 187
598 407 325 219 602 406 615 415 21 15 54 17 229 17 112 1 202 -1 200 -3z"/>
</g>
</svg>
