<?xml version="1.0" standalone="no"?>
<!DOCTYPE svg PUBLIC "-//W3C//DTD SVG 20010904//EN"
 "http://www.w3.org/TR/2001/REC-SVG-20010904/DTD/svg10.dtd">
<svg version="1.0" xmlns="http://www.w3.org/2000/svg"
   viewBox="0 0 3966.000000 3558.000000"
 preserveAspectRatio="xMidYMid meet">
<metadata>
Created by potrace 1.16, written by Peter Selinger 2001-2019
</metadata>
<g transform="translate(0.000000,3558.000000) scale(0.100000,-0.100000)"
fill="#000000" stroke="none">
<path d="M30278 35573 c-10 -2 -77 -77 -150 -166 l-133 -162 -7 -70 c-4 -38
-7 -100 -7 -137 l-1 -68 -577 -2 -577 -3 -562 -950 c-310 -522 -564 -953 -566
-958 -2 -4 -228 -14 -503 -22 l-500 -15 -120 -30 -120 -30 -1955 -25 c-1075
-13 -1981 -25 -2012 -25 -51 0 -58 -2 -58 -20 0 -11 1 -20 3 -20 1 0 907 -12
2012 -25 l2010 -25 115 -31 115 -31 412 -10 413 -11 -19 -31 c-11 -17 -100
-169 -200 -338 -184 -312 -205 -359 -163 -372 9 -4 28 -15 41 -25 l24 -18 -42
-70 c-57 -95 -55 -114 14 -153 30 -17 55 -33 55 -35 0 -9 -94 -271 -99 -277
-4 -4 -495 -17 -1091 -28 -1313 -24 -1350 -26 -1350 -49 0 -21 10 -22 1423
-48 521 -9 952 -20 957 -23 5 -3 -118 -364 -272 -802 l-282 -795 -220 -6 -221
-6 -234 -59 -234 -58 -28 -55 c-15 -30 -28 -68 -29 -84 l0 -31 233 -23 c214
-21 234 -25 252 -46 37 -42 128 -55 385 -55 126 0 230 -3 230 -7 0 -3 -72
-182 -161 -398 l-161 -392 -871 -339 -872 -339 -245 -417 -245 -417 -230 -1
c-203 0 -292 -7 -750 -54 l-520 -53 -308 -192 c-169 -105 -331 -208 -359 -229
-37 -27 -76 -75 -149 -184 -81 -120 -104 -148 -123 -148 -33 0 -186 -172 -186
-209 l0 -26 -882 -158 c-616 -110 -888 -163 -900 -174 -17 -15 -18 -91 -18
-1368 l0 -1352 -220 -7 c-121 -4 -225 -4 -230 -1 -6 4 -10 90 -10 214 l0 207
-30 41 -31 42 -67 -5 c-37 -2 -326 -14 -642 -25 l-575 -21 -27 -26 -28 -26 0
-197 c0 -109 -3 -204 -6 -213 -5 -14 -29 -16 -160 -16 l-154 0 0 203 -1 202
-27 31 -27 32 -642 -72 -642 -71 -30 -35 -30 -35 -1 -215 0 -215 -1238 -369
-1237 -369 -170 -89 c-259 -137 -219 -57 -504 -986 l-231 -754 0 -123 c0 -113
-2 -127 -25 -166 -24 -42 -25 -51 -25 -211 0 -93 -1 -168 -2 -169 -2 0 -124
-17 -273 -37 l-270 -37 -32 -50 c-18 -27 -34 -53 -36 -58 -1 -5 -149 -26 -327
-47 l-325 -39 -1154 94 c-634 52 -1155 95 -1157 95 -2 0 -4 58 -4 129 l0 129
218 -5 219 -6 6 24 c9 31 9 274 1 360 l-7 66 -60 11 c-33 6 -61 13 -62 14 -5
6 -24 811 -20 818 3 4 30 11 60 15 l55 6 0 166 0 165 -297 -7 c-164 -4 -300
-9 -302 -11 -2 -2 -88 -322 -191 -710 l-187 -706 86 -102 86 -101 -3 -112 -3
-111 -37 4 c-20 3 -313 27 -651 55 -338 27 -616 51 -618 53 -2 2 -6 46 -10 99
l-6 96 -31 4 c-17 2 82 5 220 5 l252 2 6 23 c7 28 6 284 -3 362 l-6 60 -60 10
-60 10 -6 195 c-4 107 -10 293 -13 412 l-7 217 38 6 c93 15 84 -5 81 173 l-3
157 -297 3 c-276 2 -297 1 -302 -15 -9 -30 -365 -1377 -368 -1394 -5 -26 160
-217 191 -222 l26 -4 -27 -2 -28 -1 0 -83 0 -82 -111 9 -110 8 -83 -81 c-46
-44 -90 -81 -97 -81 -8 0 -214 -16 -459 -35 -245 -19 -455 -35 -467 -35 l-23
0 0 239 0 240 -27 4 c-16 2 83 5 219 6 185 1 249 4 255 14 12 18 3 421 -9 428
-6 4 -35 10 -63 14 l-53 6 -6 97 c-3 53 -8 225 -11 382 -3 157 -8 299 -11 317
-5 32 -4 32 46 39 77 10 84 21 76 128 -3 49 -6 115 -6 148 l0 58 -298 0 -297
0 -188 -710 c-114 -431 -185 -715 -180 -723 4 -8 42 -55 83 -105 58 -70 82
-91 105 -95 l30 -4 -32 -1 -33 -2 0 -254 c0 -287 7 -266 -85 -266 -73 0 -193
-44 -207 -76 -6 -13 -18 -24 -27 -24 -75 0 -198 -25 -276 -54 l-90 -34 -570
-51 -570 -51 -1630 -20 c-896 -11 -1656 -20 -1687 -20 -50 0 -58 -3 -58 -19 0
-17 11 -20 112 -25 62 -3 590 -11 1173 -17 583 -6 1061 -12 1062 -13 0 0 -59
-68 -133 -151 l-133 -150 0 -695 0 -695 134 -150 c73 -82 133 -151 132 -151
-1 -1 -479 -7 -1062 -13 -583 -6 -1111 -14 -1173 -17 -101 -5 -112 -8 -112
-25 0 -17 8 -19 63 -19 34 0 796 -9 1692 -20 l1630 -20 565 -51 565 -50 92
-35 c78 -30 195 -52 279 -54 6 0 16 -11 22 -24 14 -32 134 -76 207 -76 92 0
85 21 85 -265 l0 -254 32 -4 33 -4 -30 -2 c-25 -2 -44 -19 -105 -93 -41 -50
-79 -97 -83 -105 -5 -8 66 -292 180 -723 l188 -710 297 0 298 0 0 58 c0 33 3
99 6 148 8 107 1 118 -76 128 -50 7 -51 7 -46 39 3 18 8 160 11 317 3 157 8
329 11 382 l6 97 53 6 c28 4 57 10 63 14 12 7 21 410 9 429 -6 9 -70 12 -255
13 -136 1 -235 4 -219 6 l27 4 0 240 0 239 23 0 c12 0 222 -16 467 -35 245
-19 451 -35 459 -35 7 0 51 -37 97 -81 l83 -81 110 8 111 9 0 -82 c0 -81 0
-82 28 -86 27 -4 27 -4 2 -6 -20 -1 -47 -26 -110 -102 -47 -56 -84 -109 -82
-118 3 -17 359 -1364 368 -1394 5 -16 26 -17 302 -15 l297 3 3 157 c3 178 12
158 -82 173 l-39 6 6 152 c4 84 10 270 13 414 l7 261 51 6 c28 4 57 11 64 15
16 9 30 340 18 404 l-7 37 -252 2 c-139 0 -238 3 -221 5 l31 4 6 96 c4 53 8
97 10 99 2 2 280 26 618 53 338 28 631 52 651 55 l37 4 3 -111 3 -112 -86
-101 -86 -101 187 -707 c103 -389 189 -708 191 -710 2 -2 138 -7 302 -11 l297
-7 0 165 0 166 -55 6 c-30 4 -57 11 -60 15 -4 7 15 812 20 818 1 1 29 8 62 14
l60 11 7 66 c8 86 8 329 -1 360 l-6 23 -216 -3 -216 -4 -3 128 c-1 70 -1 127
1 127 3 0 524 43 1158 95 l1154 94 325 -38 c178 -21 326 -43 327 -48 2 -5 18
-31 36 -58 l32 -50 270 -37 c149 -20 271 -37 273 -37 1 -1 2 -76 2 -168 0
-161 1 -170 25 -208 22 -37 24 -50 25 -166 l0 -126 231 -754 231 -754 56 -75
c56 -73 59 -75 222 -161 l165 -86 1237 -369 1238 -369 0 -215 1 -215 30 -35
29 -35 641 -71 641 -72 29 32 28 31 1 203 0 202 154 0 c131 0 155 -2 160 -16
3 -9 6 -104 6 -213 l0 -197 27 -26 28 -26 575 -21 c316 -11 605 -23 642 -25
l67 -5 31 42 30 41 0 207 c0 128 4 210 10 214 6 3 109 3 230 -1 l220 -7 0
-1352 c0 -1277 1 -1353 18 -1368 12 -11 284 -64 900 -174 l882 -158 0 -26 c0
-36 144 -198 183 -206 23 -5 47 -33 127 -152 69 -101 114 -157 147 -182 26
-20 188 -123 358 -229 l310 -193 520 -53 c458 -47 547 -54 750 -54 l230 -1
245 -417 246 -417 871 -339 871 -339 161 -392 c89 -216 161 -395 161 -398 0
-4 -104 -7 -230 -7 -257 0 -348 -13 -385 -55 -18 -21 -38 -25 -252 -46 l-233
-23 0 -31 c1 -16 14 -55 29 -85 l28 -54 239 -59 239 -59 216 -5 215 -5 282
-796 c154 -438 279 -799 276 -802 -5 -4 -1974 -47 -2286 -49 -89 -1 -98 -3
-98 -20 0 -17 11 -19 133 -25 72 -3 620 -15 1217 -26 596 -11 1087 -24 1091
-28 5 -6 99 -268 99 -277 0 -2 -25 -17 -55 -34 -69 -39 -71 -58 -14 -154 l42
-70 -24 -18 c-13 -10 -32 -21 -41 -25 -42 -13 -21 -60 163 -372 100 -169 189
-321 200 -338 l19 -31 -413 -11 -412 -10 -115 -31 -115 -31 -2010 -25 c-1105
-13 -2011 -25 -2012 -25 -2 0 -3 -9 -3 -20 0 -18 7 -20 63 -20 34 -1 940 -12
2012 -25 l1950 -25 120 -30 120 -30 500 -15 c275 -8 501 -18 503 -22 2 -5 256
-435 566 -958 l562 -950 577 -3 577 -2 1 -68 c0 -37 3 -99 7 -137 l7 -70 132
-161 c77 -94 142 -164 155 -168 30 -8 477 -8 514 0 17 4 41 22 59 45 l30 38
535 0 535 0 30 -38 c18 -23 42 -41 59 -45 38 -8 484 -8 514 0 14 4 77 73 158
172 l134 165 0 102 c0 56 3 117 6 134 l7 31 938 0 939 0 0 1380 c0 759 3 1380
7 1380 4 0 74 -66 155 -147 l148 -148 0 -722 c0 -398 2 -723 3 -723 5 0 300
130 303 133 1 1 43 349 94 772 52 424 96 774 100 778 4 4 67 -20 141 -54 l134
-61 267 53 266 54 671 1180 671 1180 -3 429 -2 430 -50 13 c-27 7 -94 13 -147
13 -91 0 -98 1 -98 20 0 18 7 20 64 20 59 0 71 4 163 57 l99 56 36 89 37 88
-37 88 -37 89 -101 56 -101 57 -101 0 -102 0 0 44 0 45 43 5 c23 3 434 12 912
21 1396 25 1385 25 1385 46 0 11 -9 20 -22 23 -13 2 -551 14 -1197 27 l-1175
22 -75 33 c-64 27 -77 37 -79 58 l-3 26 -140 0 -139 0 0 -30 0 -30 -95 0 -95
0 0 -80 0 -80 -60 0 -60 0 0 -59 c0 -54 -4 -65 -37 -110 l-38 -51 -64 0 c-56
0 -69 4 -92 25 l-26 26 -309 -42 c-378 -51 -353 -36 -354 -209 0 -175 -25
-160 353 -211 l308 -41 28 26 c23 23 36 26 92 26 l64 0 30 -45 c25 -37 35 -45
63 -45 25 0 32 -4 32 -20 0 -19 -7 -20 -90 -20 -51 0 -120 -7 -155 -16 l-65
-16 0 -302 0 -301 -232 -174 -231 -174 -103 51 -104 52 0 172 -1 173 -309 143
-308 143 -116 -44 -115 -45 -3 31 c-3 29 -12 34 -657 328 -360 164 -655 300
-657 302 -2 2 -91 1091 -198 2421 -106 1329 -196 2419 -199 2422 -5 5 -855
314 -864 314 -2 0 -3 382 -3 848 l0 848 -214 207 -214 207 -316 0 -316 0 0 39
0 38 138 7 c75 3 333 11 572 16 506 12 580 17 580 34 0 14 -74 18 -827 38
l-463 12 0 58 0 58 -140 0 -140 0 0 75 0 75 73 0 c304 0 991 23 1053 35 57 11
298 16 1150 26 594 6 1081 13 1083 15 2 2 2 6 0 8 -2 3 -488 10 -1079 16 -857
9 -1090 14 -1150 25 -70 14 -695 35 -1017 35 l-113 0 0 65 0 65 -130 0 -130 0
0 635 c0 349 3 635 8 635 16 0 573 108 577 112 3 2 59 80 125 174 l120 169 0
1185 0 1185 -121 170 c-66 94 -128 173 -137 177 -16 7 -544 108 -563 108 -5 0
-9 270 -9 635 l0 635 130 0 130 0 0 65 0 65 108 0 c320 0 953 22 1022 35 60
11 296 16 1150 25 591 6 1077 13 1079 16 2 2 2 6 0 8 -2 2 -488 9 -1079 15
-860 9 -1090 14 -1150 26 -66 13 -735 35 -1049 35 l-81 0 0 75 0 75 140 0 140
0 0 58 0 58 463 12 c754 20 827 24 827 38 0 18 -66 22 -570 34 -245 5 -507 13
-582 16 l-138 7 0 38 0 39 316 0 316 0 214 207 214 207 0 848 c0 466 1 848 3
848 8 0 859 309 864 314 3 3 93 1093 199 2422 107 1330 195 2419 197 2421 2 2
298 138 658 302 643 294 654 299 657 328 l3 31 116 -44 116 -44 306 143 306
143 3 172 2 172 104 52 103 51 231 -174 232 -174 0 -301 0 -302 65 -16 c35 -9
104 -16 155 -16 83 0 90 -1 90 -20 0 -16 -7 -20 -32 -20 -28 0 -38 -8 -63 -45
l-30 -45 -64 0 c-56 0 -69 3 -92 26 l-28 26 -308 -41 c-378 -51 -353 -36 -353
-211 1 -172 -24 -157 355 -209 l308 -42 26 26 c23 21 36 25 92 25 l64 0 38
-51 c33 -45 37 -56 37 -110 l0 -59 60 0 60 0 0 -80 0 -80 95 0 95 0 0 -30 0
-30 139 0 140 0 3 27 c3 22 14 31 79 58 l76 32 1164 22 c640 12 1179 24 1197
27 22 3 32 10 32 23 0 21 -2 21 -1375 46 -473 9 -884 18 -912 21 l-53 5 0 45
0 44 102 0 101 0 101 57 101 56 37 89 37 88 -37 88 -36 89 -99 56 c-92 53
-104 57 -163 57 -57 0 -64 2 -64 20 0 19 7 20 98 20 53 0 120 6 147 13 l50 13
2 430 3 429 -671 1180 -670 1180 -267 54 -267 53 -134 -61 c-74 -34 -137 -58
-141 -54 -4 4 -48 355 -99 778 -51 424 -94 771 -95 772 -3 4 -298 133 -302
133 -2 0 -4 -325 -4 -722 l0 -723 -147 -147 c-81 -82 -151 -148 -155 -148 -5
0 -8 621 -8 1380 l0 1380 -939 0 -938 0 -7 31 c-3 17 -6 78 -6 134 l0 103
-135 165 c-79 97 -144 167 -157 171 -30 8 -477 8 -514 0 -17 -4 -41 -22 -59
-45 l-30 -38 -535 0 -535 0 -30 38 c-18 23 -42 41 -59 45 -32 7 -492 6 -518
-1z m-6608 -9449 c0 -8 -39 -76 -86 -150 l-86 -134 -394 0 -394 0 0 29 c0 21
-12 39 -44 69 l-43 40 130 63 131 63 325 16 c446 23 461 24 461 4z m-86
-16518 c47 -74 86 -142 86 -150 0 -20 16 -20 -430 3 l-355 18 -131 62 -132 63
44 40 c32 30 44 48 44 69 l0 29 394 0 394 0 86 -134z"/>
</g>
</svg>
