<?xml version="1.0" standalone="no"?>
<!DOCTYPE svg PUBLIC "-//W3C//DTD SVG 20010904//EN"
 "http://www.w3.org/TR/2001/REC-SVG-20010904/DTD/svg10.dtd">
<svg version="1.0" xmlns="http://www.w3.org/2000/svg"
   viewBox="0 0 4945.000000 3913.000000"
 preserveAspectRatio="xMidYMid meet">
<metadata>
Created by potrace 1.16, written by Peter Selinger 2001-2019
</metadata>
<g transform="translate(0.000000,3913.000000) scale(0.100000,-0.100000)"
fill="#000000" stroke="none">
<path d="M7589 39108 l-11 -21 -469 7 c-403 6 -469 5 -469 -7 0 -12 -32 -15
-174 -19 -96 -2 -177 -6 -179 -8 -5 -6 -10 -486 -8 -792 l1 -198 174 0 175 0
6 -42 7 -43 349 3 349 4 0 -22 c0 -12 -4 -29 -9 -39 -9 -17 -48 -18 -570 -25
-308 -4 -573 -11 -588 -16 -16 -5 -758 -10 -1671 -13 -903 -2 -1645 -7 -1649
-11 -3 -3 -3 -9 1 -13 4 -5 751 -11 1659 -15 909 -4 1740 -12 1847 -17 107 -5
367 -10 577 -10 438 -1 403 8 403 -100 l0 -60 -42 -5 c-41 -5 -730 -27 -834
-26 -48 0 -52 -2 -70 -35 -10 -20 -28 -38 -39 -40 -11 -2 -413 -7 -894 -10
-714 -6 -879 -10 -907 -21 -28 -12 -355 -15 -2051 -19 -1110 -3 -2127 -8
-2260 -11 -224 -6 -243 -8 -243 -24 0 -16 18 -18 213 -24 116 -3 1133 -8 2258
-11 1705 -4 2053 -7 2086 -19 31 -11 212 -15 926 -21 l888 -8 22 -38 c21 -37
24 -39 72 -39 112 0 812 -21 843 -26 l32 -5 0 -72 -1 -72 -72 -32 -72 -32
-1145 -11 c-630 -5 -1220 -10 -1312 -10 -161 0 -168 -1 -168 -20 0 -19 7 -20
203 -20 111 0 703 -5 1315 -11 l1114 -10 69 -31 69 -31 0 -158 0 -159 -372 0
c-728 0 -1438 -12 -1438 -25 0 -12 809 -25 1522 -25 l288 0 0 -160 0 -160
-246 0 -245 0 -22 -50 -22 -50 -63 0 c-34 0 -1402 -40 -3039 -90 -1637 -49
-2989 -90 -3005 -90 -28 0 -28 -1 -28 -60 0 -33 3 -60 8 -60 41 1 5963 -162
6037 -166 l100 -6 23 -39 23 -39 239 0 240 0 0 -360 0 -360 40 0 c32 0 42 -4
50 -22 9 -22 180 -1041 180 -1072 0 -13 -13 -14 -80 -9 l-80 6 0 -85 0 -86
-207 -6 -208 -7 -795 -145 -795 -145 -470 -156 -470 -156 -348 -184 -347 -185
-324 -242 c-311 -232 -336 -253 -659 -559 l-336 -319 -290 -413 -290 -413
-209 -418 -209 -419 -112 -375 c-99 -330 -125 -432 -212 -844 -54 -257 -99
-470 -99 -472 0 -2 1556 -4 3458 -4 l3457 -1 -552 -202 -553 -202 0 -652 0
-653 -70 0 -70 0 -48 66 -47 67 -125 -7 c-69 -3 -213 -6 -321 -6 l-197 0 -87
-117 c-49 -65 -89 -119 -90 -121 -2 -2 -85 -23 -186 -48 -101 -24 -201 -49
-221 -55 l-38 -10 0 -717 0 -718 198 -38 c108 -22 205 -42 214 -45 9 -3 59
-67 111 -141 l94 -135 325 -3 326 -2 32 77 c18 43 38 93 46 111 13 32 13 32
83 32 l71 0 0 -399 0 -399 108 -39 c59 -22 378 -138 710 -259 l602 -218 0 -58
0 -58 -469 0 -468 0 -84 -39 -84 -38 -1040 -7 c-1295 -8 -1585 -14 -1585 -32
0 -8 1 -15 3 -15 1 -1 594 -7 1317 -13 l1315 -12 77 -37 77 -37 467 0 467 0
-7 -77 c-3 -42 -6 -98 -6 -125 l0 -48 -347 0 -348 0 -53 -25 -54 -25 -969 -8
c-533 -5 -972 -12 -976 -15 -3 -4 -3 -10 1 -14 4 -4 444 -11 978 -16 l971 -8
48 -25 48 -24 347 0 347 0 -6 -171 c-3 -94 -7 -172 -9 -174 -2 -1 -403 -14
-893 -29 -489 -15 -905 -29 -923 -32 -25 -4 -37 -13 -49 -40 l-17 -34 -310 -1
c-806 -3 -1491 -15 -1520 -27 -22 -10 -540 -15 -2285 -22 -1241 -5 -2257 -9
-2258 -9 -2 -1 -3 -12 -3 -25 l0 -23 2256 -8 c1822 -5 2264 -9 2294 -20 29
-10 204 -15 771 -19 404 -4 807 -9 895 -12 l161 -6 16 -34 17 -34 82 -1 c46 0
378 -11 738 -23 l655 -23 -416 -2 c-229 0 -585 -4 -792 -8 l-377 -6 -2 -536
-3 -535 -600 -181 c-330 -99 -606 -183 -614 -186 -12 -4 -14 -121 -14 -755 l0
-749 616 -184 617 -185 0 -537 0 -536 933 -9 932 -8 -810 -27 c-445 -15 -840
-28 -878 -28 -66 -1 -68 -1 -83 -35 l-17 -34 -241 -6 c-132 -3 -535 -8 -895
-12 -494 -4 -662 -9 -690 -19 -29 -10 -494 -14 -2294 -20 l-2257 -7 0 -24 c0
-23 3 -24 68 -24 37 -1 1053 -5 2257 -10 1680 -6 2197 -11 2220 -21 29 -11
849 -26 1581 -28 l250 -1 17 -34 c15 -33 19 -35 79 -40 35 -3 450 -17 923 -32
473 -14 862 -28 864 -30 2 -2 6 -78 9 -169 l5 -165 -337 0 -337 0 -58 -29 -58
-30 -971 -8 c-534 -4 -974 -11 -978 -15 -4 -5 -5 -11 -1 -14 3 -3 445 -10 981
-15 l976 -9 50 -25 49 -25 346 0 345 0 0 -42 c0 -24 3 -80 7 -125 l6 -83 -472
0 -471 0 -73 -37 -72 -37 -1315 -11 c-723 -7 -1316 -13 -1317 -13 -2 -1 -3 -8
-3 -16 0 -17 338 -23 1675 -32 l960 -7 77 -38 78 -39 470 0 471 0 -3 -52 -3
-53 -705 -256 -705 -256 -3 -402 -2 -402 -71 3 -71 3 -43 105 -43 105 -329 2
-328 3 -94 -139 -95 -139 -185 -36 c-102 -20 -198 -39 -213 -42 l-28 -6 0
-718 0 -719 221 -53 220 -52 87 -117 c48 -65 96 -120 107 -123 11 -3 160 -6
330 -6 l310 0 40 60 c32 47 45 60 66 60 14 0 47 3 73 6 l46 7 2 -658 3 -657
564 -207 563 -206 -3471 -3 c-1909 -1 -3471 -4 -3471 -5 0 -2 45 -216 100
-475 89 -422 112 -512 214 -850 l114 -378 206 -413 207 -412 290 -413 291
-414 337 -319 c323 -307 349 -329 656 -558 l320 -239 344 -184 345 -183 460
-155 461 -156 810 -149 c636 -117 828 -149 896 -149 47 0 141 -3 207 -7 l122
-6 0 -83 0 -83 80 6 c58 4 80 3 80 -6 0 -13 -167 -1024 -175 -1058 -4 -18 -13
-22 -48 -25 l-42 -3 -3 -367 -2 -368 -240 0 -239 0 -23 -39 -22 -39 -131 -6
c-71 -4 -1374 -40 -2895 -81 -1521 -41 -2845 -77 -2942 -81 l-178 -7 0 -58 0
-59 43 0 c23 0 1380 -41 3016 -90 1636 -50 2998 -90 3026 -90 l51 0 21 -50 21
-50 246 0 246 0 0 -160 0 -160 -357 0 c-725 0 -1453 -13 -1453 -25 0 -12 797
-25 1513 -25 l297 0 0 -157 -1 -158 -72 -32 -72 -32 -1175 -11 c-646 -5 -1237
-10 -1312 -10 -131 0 -138 -1 -138 -20 0 -19 7 -20 233 -20 127 0 718 -5 1312
-10 l1080 -10 73 -32 72 -31 0 -73 0 -73 -52 -5 c-49 -5 -741 -27 -835 -26
-38 0 -44 -4 -59 -33 -9 -17 -21 -35 -26 -38 -5 -3 -408 -9 -895 -13 -715 -6
-893 -11 -925 -22 -33 -11 -412 -15 -2294 -20 l-2254 -7 0 -22 0 -23 463 -6
c254 -3 1270 -8 2258 -11 1504 -4 1802 -7 1835 -19 32 -11 207 -15 927 -21
l888 -8 21 -37 22 -37 460 -14 461 -14 3 -62 c5 -112 45 -103 -441 -103 -232
-1 -498 -6 -592 -11 -97 -6 -869 -14 -1807 -17 -900 -4 -1640 -10 -1644 -15
-4 -4 -5 -10 -2 -13 3 -3 743 -7 1644 -10 902 -3 1657 -9 1679 -14 22 -5 289
-12 593 -16 516 -6 554 -8 562 -25 6 -10 10 -25 10 -35 0 -16 -23 -17 -349
-10 l-348 7 -6 -39 -7 -39 -112 -6 c-62 -4 -141 -7 -175 -7 l-61 0 -4 -217
c-1 -120 -2 -343 0 -495 l4 -278 72 0 c155 0 286 -12 286 -27 0 -14 223 -13
751 2 l177 6 21 -27 21 -26 2617 21 c1440 12 2640 21 2666 21 48 0 48 0 69 48
11 26 22 49 24 51 3 4 2420 50 2655 51 l97 0 6 44 7 43 107 6 c59 3 1709 59
3667 123 1958 65 3562 122 3563 126 2 4 95 8 206 8 112 0 224 3 250 6 l46 7 0
53 0 54 -204 0 c-229 0 -296 6 -296 26 0 11 -19 14 -77 14 -43 0 -1670 45
-3616 100 -1946 55 -3560 100 -3587 100 l-49 0 -12 58 -12 59 -180 6 c-99 4
-256 7 -349 7 l-168 0 0 111 0 112 65 -7 65 -7 0 980 0 979 -22 6 c-13 3 -42
6 -65 6 l-43 0 0 408 c0 225 -3 471 -7 547 l-6 138 -1418 -6 -1418 -7 35 82
c20 46 45 106 57 134 l21 52 111 6 c60 3 281 11 490 17 350 11 380 13 395 31
14 17 47 19 515 29 275 6 1153 14 1950 18 798 4 1451 8 1453 9 21 16 -212 20
-1425 26 -786 4 -1489 11 -1563 16 -74 6 -311 10 -526 10 -387 0 -392 0 -406
21 -13 20 -26 21 -448 36 -239 8 -436 16 -437 17 -2 1 5 21 14 44 16 41 17 42
62 42 97 -1 1137 32 1159 36 12 3 27 15 33 28 l11 23 621 5 c424 4 631 9 650
17 20 8 311 11 1016 11 1530 0 2671 11 2671 25 0 10 -417 14 -1837 20 -1011 4
-1848 11 -1859 16 -12 4 -301 11 -642 15 l-620 7 -12 22 c-15 28 -46 30 -635
46 -231 6 -432 14 -447 18 l-26 6 27 65 28 65 289 5 289 5 52 28 52 27 378 0
c777 0 1563 13 1563 25 0 13 -746 25 -1527 25 l-414 0 -59 30 -59 30 -245 0
-245 0 19 42 c22 51 35 55 168 57 90 1 92 2 92 25 0 23 -4 24 -103 32 l-103 9
630 1467 631 1468 53 0 52 0 0 119 c0 66 4 131 10 145 l10 26 315 0 315 0 0
-128 0 -129 151 -7 150 -7 215 111 214 111 -2 906 -3 906 -205 113 c-170 94
-212 114 -247 114 -24 0 -43 2 -43 4 0 1 188 441 419 977 l418 974 47 3 46 3
0 -130 0 -131 50 0 50 0 0 -1956 0 -1957 198 7 c108 3 494 13 857 22 l660 16
842 154 842 154 487 165 487 164 351 187 351 187 340 253 c254 189 376 287
483 388 l143 136 612 0 c337 0 696 3 798 7 l187 6 21 44 c11 23 25 43 31 43 6
0 1350 40 2987 90 1637 49 3011 90 3055 90 l78 0 0 59 0 59 -112 6 c-62 3
-1442 42 -3067 86 -1625 44 -2958 83 -2963 86 -4 3 -17 23 -28 45 l-20 39
-236 0 -235 0 3 43 3 42 320 5 320 5 57 27 56 26 976 8 c810 6 976 9 976 20 0
11 -26 14 -117 15 -65 0 -505 4 -978 9 l-860 8 -58 26 -58 26 -309 0 c-200 0
-310 4 -310 10 0 6 61 10 162 10 l162 0 69 68 68 67 1207 6 c780 4 1216 3
1232 -3 25 -10 515 -4 673 9 l77 6 0 43 c0 24 -1 45 -2 45 -2 1 -165 7 -363
14 -272 9 -366 9 -385 0 -19 -8 -329 -9 -1234 -4 l-1209 8 -66 65 -67 66 -143
0 -143 0 6 23 c3 12 6 43 6 70 l0 47 234 0 c212 0 238 2 277 20 42 19 67 20
495 20 497 0 934 9 934 20 0 4 -312 10 -694 13 -664 7 -697 8 -741 27 -42 18
-69 20 -266 20 -140 0 -219 4 -219 10 0 6 58 126 129 268 l129 257 120 400
c97 326 132 461 188 727 l69 326 105 -4 c58 -2 522 -7 1031 -10 l927 -6 4 -49
c3 -27 7 -51 9 -53 2 -2 472 -82 1044 -179 l1040 -177 2700 -241 2700 -240
2120 -734 2120 -734 1125 -25 1125 -25 1650 -167 1650 -166 1469 63 1469 63
-6 299 c-4 224 -3 299 6 301 7 2 50 8 97 14 171 22 349 50 362 58 7 4 292 192
633 417 l620 410 570 443 c384 298 578 455 595 481 19 30 24 49 22 93 -2 45
27 157 166 643 l168 588 -166 726 -165 726 -570 390 c-313 214 -866 585 -1228
824 l-658 434 -222 100 c-122 55 -226 104 -231 109 -6 6 3 92 23 225 19 119
32 217 30 219 -2 2 -674 9 -1494 16 l-1490 11 -1675 -125 -1675 -125 -1105
-14 -1105 -14 -2105 -523 -2105 -523 -2735 -52 -2735 -53 -1015 -173 c-558
-95 -1017 -174 -1018 -175 -2 -1 -6 -21 -9 -45 l-6 -42 -361 7 c-199 3 -1144
15 -2101 27 l-1740 21 -3855 -96 c-3735 -93 -3884 -96 -4787 -96 l-932 0 -238
163 c-189 129 -246 174 -279 217 -23 30 -41 56 -41 56 1 1 511 -14 1132 -32
622 -18 1163 -33 1203 -34 l72 0 0 595 0 595 143 0 c78 0 484 -7 902 -15 l760
-15 500 208 c275 115 724 300 997 413 l498 204 0 33 c0 20 26 90 65 173 36 77
62 145 58 152 -3 7 -33 47 -65 89 -52 69 -58 82 -58 126 l0 49 -577 238 c-318
131 -767 317 -997 413 l-420 174 -845 -16 c-466 -9 -872 -16 -903 -16 l-58 0
-2 598 -3 597 -1095 -32 c-602 -18 -1141 -31 -1197 -30 l-103 2 33 47 c26 38
80 81 274 213 l241 165 984 0 c963 0 1062 -2 4828 -95 l3845 -94 1905 24
c1048 14 1975 25 2061 25 l156 0 7 -40 c5 -30 12 -41 29 -45 12 -3 471 -82
1020 -175 l998 -170 2729 -80 2728 -80 2109 -524 2108 -524 1135 -16 1135 -16
1665 -124 1665 -124 1467 12 c807 7 1470 15 1474 18 3 4 -9 103 -27 222 -18
118 -31 218 -28 220 2 3 108 51 234 108 l230 104 665 440 c366 242 917 612
1225 823 l560 382 166 727 165 726 -168 586 c-142 495 -168 594 -166 642 3 49
-1 62 -28 100 -22 31 -205 179 -605 489 l-574 445 -620 409 -620 409 -150 24
c-145 22 -277 41 -302 42 -9 0 -10 74 -6 300 l6 300 -29 1 c-16 0 -670 28
-1454 63 l-1425 63 -1680 -167 -1680 -168 -1115 -25 -1115 -25 -2110 -731
-2110 -731 -2720 -216 -2720 -215 -1024 -175 c-564 -96 -1026 -176 -1029 -179
-2 -2 -7 -24 -9 -49 l-5 -44 -92 -6 c-50 -3 -514 -8 -1031 -12 l-940 -6 -68
329 c-57 273 -89 394 -189 728 l-120 400 -129 258 -129 257 220 0 c204 0 224
2 261 21 40 20 59 21 740 26 384 4 699 9 699 13 0 12 -325 20 -856 20 -499 0
-524 1 -565 20 -40 18 -66 20 -275 20 l-231 0 -7 31 c-3 17 -6 49 -6 70 l0 39
137 0 137 0 67 66 66 66 1209 8 c916 5 1215 4 1234 -4 19 -9 110 -9 385 0 198
6 361 12 363 13 1 1 2 21 2 45 l0 44 -52 6 c-106 11 -684 19 -704 9 -12 -7
-433 -8 -1227 -3 l-1208 6 -67 67 -68 67 -157 0 c-98 0 -157 4 -157 10 0 6
108 10 305 10 l306 0 52 27 52 27 795 7 c437 4 879 8 983 8 151 1 187 4 187
15 0 11 -159 15 -977 21 l-976 7 -61 29 -61 29 -312 0 -313 0 0 23 c0 12 -3
32 -6 43 -6 21 -4 21 234 29 l240 7 17 38 17 37 171 7 c95 4 1414 40 2932 81
1518 41 2824 77 2903 81 l142 6 0 59 0 59 -65 0 c-36 0 -1405 41 -3042 90
-1637 50 -2987 90 -3000 90 -18 0 -28 10 -44 44 l-22 43 -105 7 c-58 3 -385 6
-726 6 -342 0 -651 3 -688 6 l-66 7 -148 139 c-109 103 -236 206 -483 391
l-336 250 -355 190 -355 190 -490 164 -490 164 -837 154 -836 155 -794 20
c-436 11 -823 20 -860 20 l-68 0 0 -1960 0 -1960 -50 0 -50 0 0 -131 0 -130
-46 3 -45 3 -417 970 -418 970 46 6 c32 4 101 36 245 116 l200 111 0 907 0
907 -210 109 -210 109 -85 0 c-47 0 -115 -3 -152 -7 l-68 -6 0 -128 0 -129
-313 0 -313 0 -12 33 c-7 19 -12 83 -12 145 l0 112 -49 0 -49 0 -40 93 c-134
306 -1225 2845 -1229 2860 -4 14 1 17 33 17 22 0 69 3 107 7 62 5 67 8 67 29
0 23 -3 24 -72 24 -128 0 -174 9 -187 37 -6 13 -11 26 -11 28 0 3 105 5 234 5
l234 0 67 30 67 30 337 0 c186 0 622 3 969 7 517 5 632 9 632 20 0 10 -49 13
-252 14 -139 1 -579 4 -978 8 l-725 7 -52 27 -52 27 -279 0 -278 0 -28 66
c-15 37 -23 70 -19 74 4 4 195 12 423 19 228 6 470 14 537 18 112 5 122 7 131
28 l10 22 623 8 c343 4 633 11 645 15 12 5 848 12 1858 16 1401 5 1836 10
1836 19 0 16 -943 25 -2497 25 -845 0 -1169 3 -1190 11 -19 8 -220 14 -646 18
-597 6 -619 7 -633 25 -8 11 -14 23 -14 26 0 4 -275 15 -611 25 l-611 19 -18
40 c-9 23 -14 42 -11 43 3 1 199 9 436 17 406 14 430 16 445 35 14 19 32 20
435 25 231 3 755 9 1165 15 410 5 1099 10 1533 10 691 1 787 3 787 16 0 13
-172 15 -1442 19 -794 2 -1672 9 -1953 15 -476 11 -511 13 -525 31 -14 17 -45
19 -380 29 -201 6 -420 14 -487 17 l-121 6 -61 141 -61 140 1419 -6 1418 -6 6
136 c4 75 7 319 7 543 l0 408 31 6 c17 3 47 6 65 6 l34 0 0 980 0 980 -65 0
-65 0 0 103 0 104 218 6 c119 4 276 7 349 7 l131 0 7 48 c3 26 9 53 13 59 5 7
1200 42 3632 107 1994 53 3642 97 3663 96 33 0 37 3 37 25 l0 25 153 0 c83 0
196 3 250 7 l97 6 0 54 0 53 -202 0 c-111 0 -238 5 -282 11 -63 8 -7132 249
-7313 249 -42 0 -42 0 -48 44 l-7 44 -191 6 c-106 3 -606 13 -1112 21 -506 8
-1038 18 -1183 21 l-263 7 -25 48 c-13 27 -25 49 -27 49 -11 3 -4654 39 -4949
40 -387 0 -387 0 -399 -22z"/>
</g>
</svg>
