<?xml version="1.0" standalone="no"?>
<!DOCTYPE svg PUBLIC "-//W3C//DTD SVG 20010904//EN"
 "http://www.w3.org/TR/2001/REC-SVG-20010904/DTD/svg10.dtd">
<svg version="1.0" xmlns="http://www.w3.org/2000/svg"
   viewBox="0 0 4447.000000 1956.000000"
 preserveAspectRatio="xMidYMid meet">
<metadata>
Created by potrace 1.16, written by Peter Selinger 2001-2019
</metadata>
<g transform="translate(0.000000,1956.000000) scale(0.100000,-0.100000)"
fill="#000000" stroke="none">
<path d="M13320 19463 c-1 -54 -9 -752 -19 -1551 -17 -1310 -20 -1454 -35
-1471 -14 -15 -16 -53 -16 -294 l0 -277 -40 0 -40 0 0 253 c0 676 -14 1467
-25 1467 -16 0 -25 -413 -25 -1147 l0 -573 -214 0 -213 0 -8 813 c-4 451 -11
816 -16 821 -5 5 -12 6 -16 2 -5 -4 -10 -374 -11 -822 l-4 -814 -24 0 -24 0 0
228 c0 165 -3 231 -12 240 -9 9 -16 308 -26 1235 -8 672 -16 1224 -18 1226 -2
2 -6 2 -8 0 -2 -2 -9 -554 -16 -1227 -11 -992 -16 -1224 -27 -1233 -10 -9 -13
-62 -13 -240 l0 -229 -35 0 -35 0 -1 63 c0 34 -6 241 -13 459 -11 348 -14 399
-29 416 -15 17 -17 51 -17 318 -1 164 -5 387 -10 494 -5 107 -13 453 -16 768
-4 314 -10 572 -14 572 -16 0 -20 -111 -20 -519 -1 -234 -5 -499 -10 -588 -5
-89 -12 -359 -16 -600 -6 -355 -10 -440 -21 -448 -11 -8 -17 -101 -28 -460 -8
-248 -15 -456 -15 -462 0 -10 -304 -13 -1485 -13 l-1485 0 0 45 0 45 -480 0
-480 0 0 -45 0 -45 -190 0 -190 0 0 -1220 0 -1220 190 0 190 0 0 -40 0 -40
201 -2 202 -3 311 -655 312 -655 -93 -3 -93 -3 0 -539 0 -540 -65 0 -65 0 0
595 0 595 -190 0 -190 0 0 -50 0 -50 -40 0 c-36 0 -40 3 -40 25 l0 25 -1320 0
-1320 0 0 -25 0 -25 -1565 0 -1565 0 -30 49 -31 49 -67 7 c-37 3 -92 8 -122
11 l-55 6 -124 167 -125 167 -109 -1 -110 0 -32 85 -32 85 -952 3 -951 2 0
-324 c0 -223 4 -333 11 -350 15 -31 -31 -25 614 -81 286 -25 546 -47 578 -51
l57 -6 0 -755 0 -754 -67 6 c-113 9 -819 55 -857 55 l-36 0 0 -635 0 -635 28
0 c15 0 221 16 457 35 237 19 440 35 453 35 l22 0 0 -758 0 -757 -618 -54
c-339 -29 -617 -54 -617 -55 -1 0 -6 -14 -13 -29 -9 -20 -12 -122 -12 -353 l0
-324 951 2 951 3 35 91 34 90 107 -4 107 -4 129 170 129 170 76 6 c162 14 160
13 193 67 l30 49 1564 0 1564 0 0 -30 0 -30 1320 0 1320 0 0 30 c0 28 2 30 40
30 l40 0 0 -50 0 -50 190 0 190 0 0 590 0 590 65 0 65 0 0 -535 0 -534 93 -3
94 -3 -312 -655 -312 -655 -201 -3 -202 -2 0 -40 0 -40 -190 0 -190 0 0 -1220
0 -1220 190 0 190 0 0 -45 0 -45 480 0 480 0 0 45 0 45 1485 0 c1408 0 1485
-1 1485 -17 0 -10 7 -220 15 -467 11 -364 17 -450 28 -460 12 -9 16 -86 21
-441 4 -236 11 -509 16 -605 5 -96 10 -366 10 -600 0 -406 4 -500 20 -500 4 0
10 255 14 568 3 312 11 657 16 767 5 110 9 336 10 502 0 273 2 303 17 311 15
9 18 53 29 408 7 220 13 429 13 467 l1 67 35 0 35 0 0 -229 c0 -178 3 -231 13
-240 11 -8 16 -243 27 -1238 7 -676 14 -1230 16 -1232 2 -2 6 -2 8 0 2 2 10
557 18 1233 11 938 17 1231 26 1234 9 3 12 64 12 238 l0 234 24 0 24 0 4 -819
c1 -451 6 -823 11 -827 4 -4 11 -3 16 2 5 5 12 372 16 826 l8 818 213 0 214 0
0 -578 c0 -739 9 -1152 25 -1152 12 0 25 791 25 1473 l0 257 40 0 40 0 0 -282
c0 -245 2 -284 16 -299 15 -16 18 -171 36 -1561 10 -848 21 -1544 23 -1547 3
-2 7 -2 9 0 2 2 12 699 21 1549 16 1334 20 1547 33 1562 12 14 16 70 20 298
l5 280 483 0 484 0 0 1220 0 1220 -1300 0 c-715 0 -1300 2 -1300 5 0 8 262
569 269 576 7 8 933 69 1486 99 l360 19 643 146 644 145 527 0 528 0 28 140
c16 77 32 140 36 140 3 0 9 27 13 60 l7 60 552 -1 552 0 332 133 333 133 0
178 0 177 314 0 314 0 7 -65 7 -65 104 0 104 0 0 -295 0 -295 189 0 188 0 7
50 7 50 659 0 c619 0 659 -1 664 -17 3 -10 19 -100 37 -201 l32 -182 855 2
855 3 29 135 c15 74 33 137 38 138 6 2 10 23 10 47 0 82 -53 75 564 74 l551 0
332 133 333 133 0 113 0 112 49 0 c55 0 55 0 66 83 l6 47 312 -2 312 -3 8 -62
9 -63 104 0 104 0 0 -295 0 -295 185 0 c140 0 187 3 190 13 2 6 6 29 10 50 l6
37 659 0 658 0 6 -28 c7 -33 66 -363 66 -368 0 -2 386 -4 858 -4 l858 0 27
137 c15 76 31 139 37 141 5 2 10 30 10 63 l0 59 563 0 562 1 325 132 325 133
3 502 2 502 135 0 135 0 0 -260 0 -260 105 0 105 0 0 -360 0 -360 -210 0 -210
0 0 -530 0 -530 1595 0 1595 0 0 -60 0 -60 35 0 34 0 3 -152 3 -152 63 -25
c61 -24 62 -25 62 -63 l0 -38 144 0 145 0 3 39 3 40 605 -260 c333 -142 611
-259 619 -259 8 0 88 14 177 31 l164 31 0 264 c0 169 4 264 10 264 6 0 10 -95
10 -264 l0 -263 170 -33 c94 -18 178 -30 188 -28 37 10 1247 532 1250 540 2 4
17 8 33 8 l29 0 0 495 0 495 -965 0 c-531 0 -965 2 -965 4 0 2 35 61 78 132
l79 129 44 3 c43 3 46 5 75 57 l29 55 876 0 876 0 6 -67 c4 -38 7 -105 7 -150
0 -82 0 -83 25 -83 l25 0 0 113 c0 61 3 129 6 149 l7 38 1091 0 1091 1 43 56
42 56 0 376 0 377 -43 42 c-42 41 -44 42 -110 42 l-67 0 0 145 0 145 137 0
137 0 58 57 c53 52 58 61 58 100 0 39 2 43 24 43 13 0 29 7 36 15 11 13 71 15
427 15 327 0 414 3 411 13 -3 8 -35 14 -93 17 l-88 5 236 252 c229 243 237
253 237 292 l0 41 203 1 c560 4 961 14 964 25 4 13 -410 24 -874 24 l-293 0 0
58 0 59 197 6 c108 4 289 7 402 8 113 1 247 4 296 8 73 6 43 9 -160 12 l-250
4 209 2 c139 2 214 7 223 15 10 8 177 14 571 19 1256 17 1542 22 1542 30 0 5
-208 9 -462 9 -596 0 -1642 20 -1646 31 -2 5 -206 9 -463 9 -417 0 -527 6
-421 24 20 3 206 6 412 7 402 2 840 13 725 19 l-70 3 50 6 c55 7 -462 20 -845
22 -135 1 -258 4 -275 8 -39 8 -48 45 -13 55 13 3 274 6 580 6 547 0 601 3
557 31 -8 5 -170 9 -360 9 -190 0 -448 3 -572 7 l-227 6 0 44 c0 43 -5 50 -95
146 l-96 102 362 5 c249 3 363 8 366 16 5 15 -187 24 -512 24 l-260 0 -118
128 -118 127 230 3 c143 1 231 6 231 12 0 6 93 11 248 11 136 1 301 5 367 8
70 4 -175 9 -585 14 -388 4 -775 12 -860 17 -85 5 -199 12 -252 16 l-98 6 0
30 c0 22 -15 46 -57 94 l-57 64 -138 0 -138 0 0 140 0 140 69 0 69 0 41 48 41
47 0 374 0 374 -42 53 -43 53 -1091 1 -1091 0 -7 38 c-3 20 -6 88 -6 150 l0
112 -25 0 c-25 0 -25 -1 -25 -82 0 -46 -3 -113 -7 -150 l-6 -68 -876 0 -877 0
-27 55 c-26 54 -27 55 -71 55 l-45 0 -80 133 -79 132 964 3 964 2 0 500 0 500
-21 0 c-12 0 -310 124 -663 275 l-641 274 -150 -29 c-82 -16 -160 -32 -172
-35 l-23 -5 0 -265 c0 -170 -4 -265 -10 -265 -6 0 -10 95 -10 265 l0 265 -22
5 c-13 3 -90 19 -172 35 l-148 30 -597 -256 c-328 -141 -604 -259 -613 -261
-15 -4 -18 1 -18 31 l0 36 -145 0 -145 0 0 -38 c0 -38 -1 -39 -62 -63 l-63
-25 -3 -152 -3 -152 -34 0 -35 0 0 -60 0 -60 -1595 0 -1595 0 0 -530 0 -530
210 0 210 0 0 -360 0 -360 -105 0 -105 0 0 -260 0 -260 -135 0 -135 0 0 504 0
504 -337 136 -336 136 -554 0 -553 0 0 54 c0 30 -5 56 -10 58 -6 2 -22 65 -37
141 l-27 137 -858 0 c-472 0 -858 -2 -858 -3 0 -6 -49 -276 -61 -334 l-10 -53
-660 0 -659 0 -4 23 c-3 12 -7 31 -8 42 -3 19 -12 20 -191 23 l-187 2 0 -295
0 -295 -104 0 -104 0 -9 -62 -8 -63 -312 -3 -312 -2 -6 47 c-11 83 -11 83 -66
83 l-49 0 0 115 c0 63 -1 115 -3 115 -1 0 -146 60 -322 132 l-320 133 -565 5
-565 5 -3 50 c-2 27 -7 52 -12 55 -5 3 -22 66 -38 140 l-28 135 -855 3 -856 2
-34 -192 -35 -193 -661 -3 -662 -2 -7 45 -6 45 -189 0 -189 0 0 -295 0 -295
-104 0 -104 0 -7 -65 -7 -65 -314 0 -314 0 0 179 c0 134 -3 180 -12 184 -7 3
-158 64 -336 136 l-323 131 -548 0 -548 0 -7 31 c-3 17 -6 42 -6 54 0 13 -4
25 -8 27 -5 2 -21 65 -37 141 l-28 137 -410 0 -411 0 -355 114 -356 114 -815
57 c-448 31 -1044 71 -1323 89 -280 19 -512 37 -517 42 -8 9 -270 569 -270
579 0 3 585 5 1300 5 l1300 0 0 1220 0 1220 -484 0 -483 0 -5 280 c-5 226 -9
284 -20 298 -13 15 -17 232 -32 1502 -9 817 -16 1513 -16 1548 0 35 -4 62 -10
62 -6 0 -10 -39 -10 -97z m-720 -6998 c329 -23 1865 -125 1893 -125 10 0 7
-32 -13 -147 l-26 -148 -661 -3 -661 -2 -6 22 c-3 13 -6 33 -6 46 l0 22 -190
0 -190 0 0 -590 0 -590 -80 0 -80 0 0 540 0 540 -77 0 -78 1 -107 229 c-97
209 -104 230 -85 230 12 0 177 -11 367 -25z m22550 -103 c0 -91 2 -101 29
-144 16 -25 34 -55 40 -67 l12 -21 -231 0 -230 0 0 135 c0 131 1 135 23 140
39 9 311 53 335 54 21 1 22 -2 22 -97z m-1290 -442 c0 -6 37 -10 90 -10 l90 0
0 -195 c0 -123 -4 -195 -10 -195 -6 0 -10 -133 -10 -380 l0 -380 -205 0 -205
0 0 260 0 260 -80 0 -80 0 0 198 1 197 197 127 c108 70 200 127 205 128 4 0 7
-4 7 -10z m160 -3510 c0 -247 4 -380 10 -380 6 0 10 -72 10 -195 l0 -195 -89
0 c-58 0 -91 -4 -93 -11 -2 -7 -93 46 -205 117 l-202 129 0 198 -1 197 80 0
80 0 0 260 0 260 205 0 205 0 0 -380z m-21280 -400 l0 -590 189 0 188 0 7 50
7 50 659 0 660 0 5 -22 c12 -55 35 -191 33 -194 -2 -1 -145 -32 -318 -69
l-315 -66 -450 -29 c-247 -16 -614 -41 -813 -55 -200 -14 -368 -25 -373 -23
-4 2 40 107 99 235 l107 232 78 1 77 0 0 535 0 535 80 0 80 0 0 -590z m22472
-622 c-64 -106 -62 -98 -62 -200 0 -56 -4 -98 -10 -98 -12 0 -319 49 -347 55
-22 5 -23 9 -23 140 l0 135 231 0 231 0 -20 -32z"/>
</g>
</svg>
