<?xml version="1.0" standalone="no"?>
<!DOCTYPE svg PUBLIC "-//W3C//DTD SVG 20010904//EN"
 "http://www.w3.org/TR/2001/REC-SVG-20010904/DTD/svg10.dtd">
<svg version="1.0" xmlns="http://www.w3.org/2000/svg"
   viewBox="0 0 4177.000000 624.000000"
 preserveAspectRatio="xMidYMid meet">
<metadata>
Created by potrace 1.16, written by Peter Selinger 2001-2019
</metadata>
<g transform="translate(0.000000,624.000000) scale(0.100000,-0.100000)"
fill="#000000" stroke="none">
<path d="M28996 6044 c-280 -107 -516 -194 -524 -194 -8 0 -84 34 -171 75
l-157 75 -935 0 -935 0 -309 -215 -308 -215 -628 0 -628 0 -187 45 -186 45
-1497 0 -1496 -1 -560 -97 -560 -98 -87 -110 c-62 -77 -88 -117 -88 -136 l0
-28 -843 0 -842 0 -120 -120 -120 -120 -296 0 c-255 0 -298 2 -303 15 -7 19
-155 22 -174 3 -7 -7 -12 -38 -12 -70 l0 -58 -1075 0 -1075 0 0 243 0 242
-106 163 -106 162 -1354 0 -1354 0 0 -321 0 -321 -25 16 c-20 13 -56 16 -215
16 l-190 0 0 68 c0 68 0 68 -48 115 l-48 47 -400 0 -400 0 -47 -48 c-47 -47
-47 -48 -47 -115 l0 -67 -160 0 -160 0 0 68 c0 68 0 68 -48 115 l-48 47 -400
0 -400 0 -47 -48 c-47 -47 -47 -48 -47 -115 l0 -67 -160 0 -160 0 0 68 c0 68
0 68 -48 115 l-48 47 -396 0 -396 0 -56 -51 -56 -51 0 -64 0 -64 -188 0 -187
0 -220 -150 -219 -150 -973 0 -973 0 0 -30 0 -30 -1545 0 -1544 0 -3 -107 -3
-108 -305 -18 c-1528 -87 -1640 -94 -1655 -107 -13 -11 -15 -49 -15 -256 l0
-244 -42 0 -43 0 43 -36 c36 -31 42 -41 42 -75 0 -37 -2 -39 -30 -39 l-30 0 0
-570 0 -570 30 0 c28 0 30 -3 30 -35 0 -27 -8 -42 -42 -74 l-43 -40 43 -1 42
0 0 -238 c0 -215 2 -240 18 -255 14 -13 163 -24 917 -66 495 -28 933 -54 973
-57 l72 -6 0 -109 0 -109 1545 0 1545 0 0 -30 0 -30 978 0 977 0 210 -145 210
-144 193 -1 192 0 0 -68 0 -68 54 -47 55 -47 398 0 399 0 47 48 c47 47 47 48
47 115 l0 67 160 0 160 0 0 -69 c0 -66 2 -70 41 -115 l41 -46 407 0 407 0 47
48 c47 47 47 48 47 115 l0 67 160 0 160 0 0 -72 c0 -71 0 -73 42 -115 l42 -43
406 0 406 0 47 48 c47 47 47 48 47 115 l0 67 197 0 c169 0 199 2 215 17 17 16
18 5 18 -305 l0 -322 1355 0 1356 0 104 160 105 160 0 240 0 240 1075 0 1074
0 3 -62 3 -63 84 -3 c49 -2 88 1 95 8 6 6 114 10 306 10 l295 0 115 -115 115
-115 847 0 848 0 0 -29 c0 -22 21 -57 81 -133 45 -57 84 -106 88 -110 3 -4
254 -50 556 -102 l550 -96 1516 0 1517 0 166 40 166 40 642 0 643 0 308 -215
308 -215 926 0 926 0 169 81 169 80 528 -200 527 -201 2792 0 2792 0 0 320 c0
215 3 320 10 320 6 0 93 -21 193 -46 l182 -47 420 18 c284 11 424 21 431 28 6
7 98 109 204 227 106 118 202 225 214 237 16 17 154 58 604 182 l583 161 1058
0 1058 0 71 153 c70 151 71 152 109 159 21 4 315 33 653 63 338 31 625 58 638
61 21 4 22 9 22 89 l0 85 -47 0 c-50 0 -1405 29 -1483 31 -25 1 -37 3 -28 6 9
2 20 12 23 22 7 22 -26 17 512 73 l421 43 32 107 c31 102 34 106 64 111 17 3
185 16 374 28 l342 23 0 52 0 53 -52 5 c-29 3 -217 15 -418 26 -201 11 -398
23 -437 26 l-73 6 0 63 0 62 48 7 c26 3 145 20 265 38 l217 31 0 299 0 298
-22 4 c-13 3 -120 19 -238 36 -304 43 -270 30 -270 104 l0 62 473 27 c259 15
480 27 490 27 14 0 17 9 17 55 0 30 -1 55 -2 55 -2 0 -158 11 -348 25 -190 14
-357 25 -371 25 -24 0 -28 7 -57 106 -17 59 -33 109 -35 111 -2 2 -193 23
-423 48 -529 56 -505 52 -511 75 -4 14 -16 20 -47 23 -22 2 18 4 89 5 461 5
1454 24 1473 28 21 4 22 9 22 89 0 50 -4 85 -10 85 -5 0 -299 27 -652 60 -354
33 -652 60 -664 60 -17 0 -33 27 -92 153 l-70 152 -1069 5 -1068 5 -575 161
-575 160 -205 227 c-113 125 -215 236 -226 248 -21 20 -39 22 -434 40 l-413
18 -181 -45 c-100 -25 -189 -47 -198 -50 -17 -5 -18 15 -18 315 l0 321 -2802
-1 -2803 0 -509 -195z"/>
</g>
</svg>
