<?xml version="1.0" standalone="no"?>
<!DOCTYPE svg PUBLIC "-//W3C//DTD SVG 20010904//EN"
 "http://www.w3.org/TR/2001/REC-SVG-20010904/DTD/svg10.dtd">
<svg version="1.0" xmlns="http://www.w3.org/2000/svg"
   viewBox="0 0 3696.000000 1370.000000"
 preserveAspectRatio="xMidYMid meet">
<metadata>
Created by potrace 1.16, written by Peter Selinger 2001-2019
</metadata>
<g transform="translate(0.000000,1370.000000) scale(0.100000,-0.100000)"
fill="#000000" stroke="none">
<path d="M26060 12570 l-875 -1130 -62 0 -63 0 0 35 0 35 -62 0 c-35 0 -100
-3 -145 -7 l-82 -6 6 -268 6 -269 -46 0 -47 0 0 203 0 203 -205 329 c-112 180
-210 334 -217 340 -7 7 -45 20 -84 30 l-72 17 -243 -153 c-134 -83 -250 -152
-257 -153 -7 -1 -58 107 -126 265 -97 229 -121 276 -167 332 l-54 66 -275 0
c-207 1 -279 4 -289 14 -9 9 -210 12 -936 12 -726 0 -927 -3 -936 -12 -10 -10
-89 -13 -325 -13 l-312 0 -66 -72 c-36 -40 -66 -78 -66 -86 0 -8 -7 -11 -17
-8 -10 3 -415 107 -901 231 -664 169 -1011 252 -1400 334 -284 61 -663 142
-842 181 -277 60 -1430 265 -1615 286 -43 5 -92 23 -178 66 -160 79 -170 83
-347 140 -446 142 -948 161 -1292 49 -68 -22 -152 -53 -188 -70 -39 -18 -97
-35 -145 -42 -44 -6 -163 -33 -265 -60 l-185 -48 -660 -31 c-892 -41 -978 -46
-1295 -82 -275 -31 -276 -31 -812 -31 l-538 1 0 -53 c0 -34 5 -57 15 -65 8 -7
15 -21 15 -30 0 -31 11 -50 29 -50 51 1 771 -85 771 -92 0 -5 -164 -6 -373 -2
l-374 7 -6 -32 c-6 -27 9 -332 16 -336 1 -1 155 -32 342 -69 187 -38 446 -92
576 -121 l236 -52 275 -125 c251 -115 288 -135 445 -243 l171 -118 28 -103
c22 -86 30 -104 46 -104 17 0 18 -5 11 -37 -10 -46 -9 -97 1 -225 l8 -96 208
-33 c201 -32 210 -34 219 -59 11 -28 54 -218 73 -325 6 -38 17 -74 24 -80 6
-5 24 -59 40 -118 23 -87 32 -109 49 -112 11 -3 135 -23 275 -45 140 -22 258
-44 262 -48 4 -4 45 -73 91 -153 l84 -146 -44 -23 c-25 -13 -61 -44 -81 -68
l-37 -45 -3 -264 -3 -263 -27 0 c-15 0 -319 18 -677 40 -539 33 -652 43 -661
55 -7 9 -151 252 -320 542 -286 486 -312 528 -354 554 l-45 29 -645 0 -646 0
-349 -70 c-192 -38 -350 -69 -351 -67 -2 2 459 174 1024 382 565 209 1032 385
1037 391 12 15 73 34 100 32 32 -2 555 195 555 209 0 7 4 13 10 13 17 0 -26
93 -46 100 -20 7 -556 -185 -562 -202 -5 -12 -69 -38 -106 -43 -17 -2 -629
-225 -1360 -495 -731 -270 -1330 -489 -1331 -488 -1 2 -10 27 -20 56 -22 62
-3 60 -262 33 l-182 -19 -318 -162 -318 -162 -1330 -262 -1330 -262 -470 79
-470 80 -645 -48 c-355 -25 -661 -49 -681 -52 l-35 -5 -113 -486 c-62 -268
-125 -535 -139 -594 l-25 -108 -255 0 -256 0 -540 -291 c-389 -209 -553 -302
-583 -332 l-43 -41 0 -1026 0 -1026 42 -41 c31 -30 195 -123 584 -332 l540
-291 256 0 255 0 25 -108 c14 -59 77 -326 139 -594 l113 -486 35 -5 c20 -3
326 -27 681 -53 l645 -47 469 80 469 79 1336 -264 1336 -263 313 -161 312
-160 183 -19 c259 -27 240 -29 262 34 10 28 19 53 20 55 1 1 600 -218 1331
-488 731 -270 1343 -493 1360 -495 37 -5 101 -31 106 -43 6 -17 542 -209 562
-202 20 7 63 100 46 100 -6 0 -10 6 -10 13 0 14 -523 211 -555 209 -27 -2 -88
17 -100 32 -5 6 -472 182 -1037 391 -565 208 -1026 380 -1024 382 1 2 159 -29
351 -67 l349 -70 646 0 645 0 45 29 c42 26 68 68 354 554 169 290 313 533 320
542 9 13 119 22 661 55 358 22 662 40 677 40 l27 0 3 -263 3 -264 37 -45 c20
-24 56 -55 81 -68 l44 -24 -84 -145 c-47 -80 -88 -149 -92 -153 -3 -4 -121
-26 -261 -48 -140 -22 -264 -42 -275 -45 -17 -3 -26 -25 -49 -112 -16 -59 -34
-112 -40 -118 -7 -5 -18 -44 -25 -85 -26 -146 -69 -322 -82 -335 -8 -7 -105
-28 -216 -45 l-201 -32 -8 -97 c-10 -127 -11 -178 -1 -223 7 -33 6 -38 -11
-38 -16 0 -24 -18 -46 -104 l-28 -103 -171 -118 c-157 -108 -194 -128 -445
-243 l-275 -125 -236 -52 c-130 -29 -389 -83 -576 -121 -187 -37 -341 -68
-342 -69 -7 -4 -22 -309 -16 -336 l6 -32 374 7 c215 4 373 4 373 -1 0 -8 -720
-94 -772 -93 -12 0 -21 -13 -28 -40 -6 -21 -15 -42 -20 -45 -6 -3 -10 -30 -10
-59 l0 -54 538 1 c536 0 537 0 812 -31 317 -36 403 -41 1295 -82 l660 -31 170
-45 c94 -25 212 -52 263 -59 61 -9 116 -24 160 -45 37 -17 122 -49 190 -71
438 -143 1107 -70 1608 175 112 54 166 75 210 80 185 23 1334 225 1584 280
162 36 541 116 841 180 421 89 748 167 1430 341 486 124 892 228 902 231 10 3
17 0 17 -8 0 -8 30 -46 66 -86 l66 -72 312 0 c236 0 315 -3 325 -12 18 -19
1862 -19 1869 0 3 9 69 12 285 13 l282 0 54 66 c46 56 70 103 167 332 68 158
119 266 126 265 7 -1 123 -70 257 -153 l243 -153 72 17 c39 10 77 23 84 29 7
7 105 161 217 342 l205 329 0 202 0 203 47 0 46 0 -6 -269 -6 -268 82 -6 c45
-4 110 -7 145 -7 l62 0 0 35 0 36 64 -3 64 -3 872 -1125 c480 -619 874 -1127
876 -1128 4 -6 78 8 93 17 13 9 134 678 129 713 -2 9 -468 616 -1035 1347
-963 1240 -1033 1333 -1033 1369 l0 39 -67 6 c-38 4 -103 7 -145 7 l-78 0 0
-112 c0 -62 -3 -191 -7 -285 l-6 -173 -49 0 -48 0 0 498 0 497 -45 25 c-46 25
-53 34 -35 45 6 4 6 12 -2 24 -9 15 -1 35 46 118 31 54 56 105 56 112 0 7 36
75 81 151 l80 139 34 -21 c35 -20 35 -20 19 -50 -15 -29 -15 -35 2 -86 l19
-55 540 -322 c297 -177 618 -368 714 -424 l173 -101 160 0 160 0 98 -90 98
-90 921 0 920 0 165 105 165 105 106 0 c87 0 105 3 105 15 0 13 32 15 228 15
l228 0 76 -70 76 -70 852 0 852 0 77 70 78 70 236 0 c192 0 237 -3 237 -13 0
-24 292 -27 2563 -27 l2187 0 0 395 c0 257 -4 395 -10 395 -5 0 -10 13 -10 29
0 17 5 33 10 36 6 3 10 46 10 96 0 86 -1 89 -22 89 -13 0 -1382 119 -3043 264
l-3020 264 -758 466 -757 466 -1388 1 -1387 1 230 37 c389 64 578 109 925 221
298 97 430 147 536 204 l91 49 11 87 c7 48 12 160 12 250 0 90 -5 202 -12 250
l-11 87 -91 49 c-106 57 -236 107 -539 205 -342 111 -536 156 -1002 233 l-140
24 1382 1 1383 1 757 466 758 466 3020 264 c1661 145 3030 264 3043 264 21 0
22 3 22 89 0 50 -4 93 -10 96 -5 3 -10 19 -10 36 0 16 5 29 10 29 6 0 10 138
10 395 l0 395 -2187 0 c-2271 0 -2563 -3 -2563 -27 0 -10 -45 -13 -237 -13
l-236 0 -78 70 -77 70 -852 0 -852 0 -76 -70 -76 -70 -228 0 c-196 0 -228 2
-228 15 0 12 -18 15 -105 15 l-106 0 -165 105 -165 105 -920 0 -921 0 -98 -90
-98 -90 -160 0 -160 0 -229 -134 c-125 -73 -446 -264 -713 -423 l-485 -291
-19 -54 c-17 -51 -17 -57 -2 -86 16 -30 16 -30 -19 -50 l-34 -21 -80 139 c-45
76 -81 144 -81 151 0 7 -25 58 -56 112 -47 83 -55 103 -46 118 8 12 8 20 2 24
-18 11 -11 20 35 45 l45 25 0 497 0 498 48 0 49 0 6 -172 c4 -95 7 -224 7
-285 l0 -113 78 0 c42 0 107 3 145 7 l67 6 0 39 c0 36 70 128 1033 1369 567
731 1033 1336 1035 1344 3 12 -96 615 -113 692 -5 21 -55 43 -95 43 -8 -1
-409 -509 -890 -1130z m830 636 c49 -14 57 -29 59 -111 1 -38 -37 -89 -820
-1110 -451 -588 -824 -1074 -829 -1079 -4 -4 -24 -3 -44 4 l-37 12 3 74 3 74
810 1075 c446 591 810 1075 810 1075 0 0 20 -6 45 -14z m-15524 -1581 c7 -19
14 -39 14 -44 0 -9 -71 -41 -90 -41 -12 0 -43 71 -34 79 5 5 81 38 92 40 2 1
10 -15 18 -34z m7444 -1419 l0 -554 217 -239 c215 -236 217 -238 260 -241 l44
-3 -117 -89 -116 -88 -42 14 c-56 19 -1511 194 -1561 188 -35 -4 -129 32 -764
291 -398 162 -735 295 -748 295 -16 0 -27 8 -34 26 -5 15 -8 28 -7 29 2 1 122
19 268 39 l265 38 440 165 440 164 475 59 c261 33 478 60 481 60 4 0 9 10 13
23 3 13 85 99 182 192 187 179 181 176 287 184 16 1 17 -32 17 -553z m10610
-153 c0 -5 -10 -21 -23 -36 l-22 -28 -55 35 -55 35 78 1 c42 0 77 -3 77 -7z
m2735 -28 c-33 -19 -62 -35 -65 -35 -3 0 -15 16 -28 35 l-22 35 87 0 88 -1
-60 -34z m-5545 -389 l0 -383 -152 -124 -153 -125 -3 -92 -3 -92 -217 0 c-155
0 -221 -3 -230 -12 -6 -6 -13 -10 -16 -7 -15 16 -227 371 -224 374 2 2 116 70
253 151 138 80 262 155 278 166 l27 19 0 142 0 142 188 112 c132 79 197 112
220 112 l32 1 0 -384z m-2990 -669 c25 -45 55 -92 67 -104 21 -22 103 -155
103 -167 0 -3 -17 -6 -38 -6 -34 0 -42 6 -101 76 -59 70 -155 221 -163 254 -3
13 29 26 72 29 9 0 33 -32 60 -82z m1720 33 c0 -5 24 -16 53 -25 l52 -15 84
-138 c47 -75 86 -140 88 -144 4 -8 -230 -148 -247 -148 -6 0 -64 36 -130 80
-71 47 -130 80 -145 80 -28 0 -28 0 -15 55 8 35 6 46 -20 92 -17 29 -30 55
-30 57 0 2 16 14 36 27 l37 22 16 -22 17 -23 95 56 c97 58 109 63 109 46z
m-2480 -205 l70 -105 -35 0 c-29 0 -42 8 -77 48 -24 26 -63 68 -88 93 l-45 47
50 10 c27 5 51 10 52 11 2 0 34 -46 73 -104z m-343 6 c69 -18 78 -24 181 -120
l109 -101 101 0 c55 0 102 -4 104 -9 5 -14 120 -16 145 -3 15 8 96 12 250 12
l228 0 -104 -63 c-103 -61 -104 -63 -127 -122 -18 -48 -23 -81 -23 -162 -1
-99 0 -102 27 -122 l27 -21 -35 5 c-19 3 -361 46 -760 95 -603 75 -808 104
-1220 176 -272 48 -499 91 -504 95 -5 4 5 25 21 46 l31 37 703 137 c387 76
720 138 739 138 19 0 68 -8 107 -18z m942 -83 l24 -28 -69 0 -69 0 45 30 c24
16 44 28 45 27 0 -1 11 -14 24 -29z m401 -145 c0 -5 -13 -16 -29 -25 -22 -12
-32 -13 -39 -5 -25 34 -23 37 22 37 25 0 46 -3 46 -7z m1289 -44 c42 -29 82
-57 89 -64 10 -9 -72 -62 -398 -255 l-411 -242 -168 21 c-93 11 -174 21 -180
21 -5 0 -36 43 -67 95 -47 81 -54 98 -43 111 10 12 10 20 1 34 -10 16 -8 22
10 35 13 8 27 15 33 15 5 0 24 -26 42 -58 28 -52 36 -59 83 -74 l51 -16 107
59 c59 33 222 129 362 214 l255 154 79 0 80 1 75 -51z m4748 -178 c11 -18 -13
-33 -301 -200 l-314 -181 -1061 0 -1061 0 0 30 0 30 1046 0 1046 0 311 170
c172 93 314 170 317 170 3 0 11 -9 17 -19z m-5978 -263 l33 -61 -48 7 c-27 3
-79 9 -116 13 -38 3 -68 9 -68 12 1 8 141 90 155 90 6 1 25 -27 44 -61z m915
-2594 c221 -130 405 -240 410 -244 4 -5 -33 -36 -83 -69 l-90 -61 -76 0 -75 0
-238 143 c-130 79 -294 176 -364 215 l-127 71 -51 -17 c-47 -15 -55 -22 -83
-74 -18 -32 -37 -58 -42 -58 -6 0 -21 7 -33 16 -16 11 -20 20 -13 32 5 10 5
22 -2 32 -8 13 2 37 46 112 l56 96 98 12 c54 6 123 15 153 20 30 4 68 8 84 9
21 1 136 -62 430 -235z m4762 55 c290 -167 312 -182 301 -200 -7 -11 -18 -17
-27 -14 -8 4 -151 80 -317 171 l-301 164 -1046 0 -1046 0 0 30 0 30 1061 0
1061 0 314 -181z m-5677 64 c-17 -32 -35 -61 -38 -65 -4 -4 -45 15 -91 42 -47
27 -83 50 -80 51 14 5 180 26 208 28 l33 1 -32 -57z m-506 -25 l-33 -23 0
-105 c0 -86 4 -116 23 -163 21 -56 25 -59 122 -117 l100 -60 -223 0 c-150 0
-230 4 -245 12 -25 13 -140 11 -145 -3 -2 -5 -49 -9 -104 -9 l-101 0 -109
-101 c-103 -96 -112 -102 -181 -120 -39 -10 -85 -19 -102 -18 -16 0 -349 62
-739 138 l-709 137 -30 38 c-16 20 -26 41 -21 45 5 4 221 45 479 91 383 67
613 101 1240 180 424 54 779 98 790 99 15 1 13 -4 -12 -21z m447 -460 c0 -5
-21 -8 -46 -8 -45 0 -47 3 -22 37 7 8 17 7 39 -5 16 -9 29 -20 29 -24z m1641
-29 c66 -38 118 -73 116 -77 -2 -4 -41 -69 -88 -144 l-84 -138 -51 -15 c-29
-8 -54 -20 -56 -27 -3 -8 -41 9 -103 46 l-99 58 -17 -23 -16 -22 -37 22 c-20
13 -36 25 -36 27 0 2 13 28 30 57 26 46 28 57 20 92 -13 55 -13 55 18 56 17 0
70 29 142 79 63 43 121 79 128 79 7 1 67 -31 133 -70z m-2640 -192 l-69 -104
-54 9 -53 10 82 86 c46 48 83 90 83 95 0 4 18 7 40 7 l40 0 -69 -103z m598 76
c-13 -16 -24 -29 -24 -30 -1 -1 -21 11 -45 27 l-45 30 69 0 69 0 -24 -27z
m331 21 c0 -12 -82 -145 -103 -167 -12 -12 -42 -59 -67 -105 l-45 -82 -40 6
c-22 3 -43 9 -48 13 -11 11 93 180 164 265 59 70 67 76 101 76 21 0 38 -3 38
-6z m2065 -114 c4 -6 90 -10 226 -10 l219 0 0 -90 0 -89 155 -127 155 -126 0
-384 0 -384 -30 0 c-21 0 -91 36 -220 113 l-190 112 0 142 0 142 -42 29 c-24
16 -144 88 -268 160 -124 73 -231 136 -239 141 -11 7 10 48 100 195 63 102
117 186 121 186 4 0 10 -4 13 -10z m-6634 -276 l110 -83 -44 -3 c-43 -3 -46
-6 -260 -241 l-217 -239 0 -555 0 -555 -31 6 c-17 3 -45 6 -61 6 -24 0 -60 30
-209 172 -98 94 -182 182 -185 195 -4 12 -8 23 -9 23 -2 0 -219 27 -482 60
l-478 59 -441 165 -440 164 -265 38 c-145 21 -265 38 -267 39 -1 1 2 14 7 29
7 18 18 26 34 26 13 0 350 133 748 295 636 260 729 295 764 291 49 -6 1504
169 1560 188 22 7 44 11 48 9 5 -3 58 -43 118 -89z m10199 -966 c0 -5 -35 -8
-77 -8 l-78 1 55 35 55 35 22 -28 c13 -15 23 -31 23 -35z m2735 27 l60 -34
-88 -1 -87 0 22 35 c13 19 25 35 28 35 3 0 32 -16 65 -35z m-6030 -1955 c787
-1026 825 -1077 824 -1115 -2 -82 -10 -97 -59 -111 -44 -13 -45 -13 -65 13
-11 15 -376 500 -812 1078 l-793 1050 0 72 c0 69 1 72 28 81 15 6 33 10 40 9
7 -1 384 -486 837 -1077z m-14770 420 c29 -11 30 -18 11 -65 l-14 -34 -46 18
c-25 9 -48 19 -51 22 -3 3 2 23 10 43 17 40 23 41 90 16z"/>
</g>
</svg>
