<?xml version="1.0" standalone="no"?>
<!DOCTYPE svg PUBLIC "-//W3C//DTD SVG 20010904//EN"
 "http://www.w3.org/TR/2001/REC-SVG-20010904/DTD/svg10.dtd">
<svg version="1.0" xmlns="http://www.w3.org/2000/svg"
   viewBox="0 0 4795.000000 1746.000000"
 preserveAspectRatio="xMidYMid meet">
<metadata>
Created by potrace 1.16, written by Peter Selinger 2001-2019
</metadata>
<g transform="translate(0.000000,1746.000000) scale(0.100000,-0.100000)"
fill="#000000" stroke="none">
<path d="M31997 17403 c-458 -28 -1077 -65 -1377 -82 -300 -18 -564 -34 -587
-37 l-43 -5 0 -230 0 -229 28 0 c15 0 184 9 376 21 191 11 350 18 352 16 3 -3
9 -60 15 -128 5 -68 19 -205 30 -303 15 -143 17 -181 7 -188 -7 -4 -195 -8
-417 -8 l-404 0 7 -137 c3 -76 10 -322 16 -548 11 -468 17 -656 22 -660 2 -2
210 -14 463 -26 452 -22 477 -22 1480 -10 561 7 1161 16 1333 21 172 4 380 5
462 2 l149 -5 -5 -56 c-2 -31 -11 -181 -19 -335 l-15 -278 -63 -162 -63 -161
-335 -505 -334 -505 -3 -502 -3 -503 -42 0 c-86 0 -518 29 -602 41 -49 6 -107
9 -129 6 -23 -3 -97 -2 -166 2 -108 8 -129 6 -160 -9 -30 -15 -310 -34 -2025
-134 -1094 -65 -2170 -124 -2390 -131 l-400 -13 -1960 344 c-1707 300 -2116
375 -3170 584 -727 145 -1273 258 -1367 284 l-156 44 -1209 679 -1208 679
-635 -8 c-349 -4 -762 -8 -918 -10 l-282 -3 0 675 0 676 -77 64 -77 65 49 6
50 6 -58 1 c-58 2 -59 3 -157 86 -82 69 -106 85 -142 89 -24 3 -271 18 -550
34 l-508 27 0 68 0 68 -3255 0 -3255 0 0 -75 c0 -69 -2 -75 -22 -79 -13 -3
-183 -15 -378 -26 l-355 -22 -835 -132 -835 -132 1 -604 c1 -559 17 -1289 33
-1489 7 -94 0 -88 104 -105 35 -7 37 -9 37 -46 0 -33 4 -40 23 -44 12 -3 180
-12 372 -21 340 -16 360 -18 720 -76 204 -32 389 -59 412 -59 75 0 73 5 73
-160 l0 -147 -57 -6 c-59 -7 -1703 -324 -1709 -330 -2 -2 -7 -69 -10 -149 l-7
-145 -181 -121 -181 -121 -440 -135 -440 -135 -904 -391 c-498 -214 -907 -390
-911 -390 -3 0 -29 47 -57 104 l-52 105 -43 -14 c-24 -8 -335 -105 -693 -215
-357 -111 -685 -212 -728 -226 l-77 -26 0 -102 0 -103 -46 -7 c-26 -3 -63 -6
-84 -6 l-37 0 -6 -82 c-4 -46 -7 -121 -7 -168 0 -47 -4 -91 -9 -98 -4 -8 -217
-125 -472 -262 l-464 -248 0 -1552 0 -1552 464 -248 c255 -137 468 -254 472
-262 5 -7 9 -51 9 -98 0 -47 3 -122 7 -167 l6 -83 46 0 c25 0 63 -3 83 -6 l38
-7 0 -102 0 -103 62 -21 c35 -11 362 -113 728 -226 366 -113 684 -212 708
-220 l43 -14 52 105 c28 57 54 104 58 104 3 0 412 -176 910 -390 l904 -390
440 -136 440 -135 181 -120 181 -120 7 -146 c3 -81 8 -148 9 -150 6 -5 1650
-322 1710 -329 l57 -7 0 -147 c0 -166 3 -160 -81 -160 -20 0 -202 -27 -405
-59 -359 -58 -379 -60 -719 -76 -192 -9 -360 -18 -372 -21 -19 -4 -23 -11 -23
-44 0 -37 -2 -39 -38 -46 -103 -17 -96 -11 -103 -105 -16 -200 -32 -930 -33
-1489 l-1 -604 840 -133 840 -132 370 -23 370 -23 3 -77 3 -78 3254 0 3255 0
0 68 0 68 503 27 c276 15 523 30 549 33 40 5 60 17 147 90 96 81 102 84 153
86 l53 1 -45 6 -44 6 77 65 77 64 0 676 0 675 292 -3 c161 -2 575 -6 921 -10
l627 -7 1208 680 1208 680 156 42 c85 24 688 149 1339 278 1030 205 1441 281
3169 585 l1985 349 402 -14 c222 -7 1297 -66 2390 -131 1687 -99 1993 -119
2023 -134 30 -14 52 -16 160 -9 69 4 141 5 162 2 20 -3 112 2 205 11 92 10
474 35 848 56 l680 39 765 105 c994 136 2257 269 3000 316 267 17 613 42 770
56 157 13 391 27 520 30 213 6 247 9 365 36 152 35 1619 338 1621 335 1 -1 7
-81 14 -177 6 -96 13 -176 15 -178 1 -2 78 -20 169 -41 l166 -38 275 58 c170
36 378 89 543 138 313 93 440 130 472 136 63 12 834 282 1329 465 151 55 277
97 281 93 4 -4 65 -116 135 -249 l128 -240 551 317 c524 302 569 330 916 575
435 307 510 366 700 544 135 126 149 137 202 149 34 8 66 24 80 38 19 20 28
22 68 17 55 -7 74 1 202 91 84 58 89 65 206 240 132 199 238 385 294 515 42
100 138 398 138 430 0 32 -96 331 -140 435 -54 127 -172 332 -302 525 -106
158 -114 168 -196 225 -131 92 -158 104 -205 93 -35 -8 -43 -6 -66 15 -14 14
-51 31 -81 38 -50 12 -68 26 -200 149 -191 179 -278 247 -706 548 -310 219
-409 282 -724 464 -201 116 -449 258 -551 317 l-185 108 -133 -249 c-73 -136
-134 -248 -136 -248 -2 0 -127 45 -277 101 -526 195 -1263 452 -1328 464 -27
5 -177 48 -524 152 -122 36 -342 91 -493 123 l-273 57 -165 -37 c-91 -20 -167
-39 -170 -41 -2 -3 -9 -83 -15 -179 -7 -96 -13 -176 -14 -177 -3 -3 -1446 296
-1602 332 -126 29 -171 35 -265 35 -111 0 -533 24 -635 35 l-51 6 -6 241 c-4
133 -7 476 -7 763 l0 522 -333 514 -333 514 -61 160 -61 160 15 160 c9 88 17
161 19 163 1 2 355 -90 786 -203 l783 -207 370 -162 370 -163 415 -267 415
-267 176 -242 c174 -239 178 -245 279 -462 56 -121 104 -223 108 -227 6 -5
364 -48 405 -48 11 0 -22 145 -133 588 l-148 587 -284 485 -284 485 -427 535
-426 535 -393 291 -393 291 -828 366 -828 366 -852 251 -852 251 -715 60 -715
59 -690 10 c-379 5 -772 11 -873 12 -132 2 -417 -11 -1015 -49z"/>
</g>
</svg>
