<?xml version="1.0" standalone="no"?>
<!DOCTYPE svg PUBLIC "-//W3C//DTD SVG 20010904//EN"
 "http://www.w3.org/TR/2001/REC-SVG-20010904/DTD/svg10.dtd">
<svg version="1.0" xmlns="http://www.w3.org/2000/svg"
   viewBox="0 0 2773.000000 1993.000000"
 preserveAspectRatio="xMidYMid meet">
<metadata>
Created by potrace 1.16, written by Peter Selinger 2001-2019
</metadata>
<g transform="translate(0.000000,1993.000000) scale(0.100000,-0.100000)"
fill="#000000" stroke="none">
<path d="M23358 19921 c-43 -4 -80 -9 -83 -13 -3 -3 189 -473 427 -1044 237
-571 502 -1221 589 -1444 147 -379 155 -405 135 -408 -11 -1 -31 -5 -43 -7
l-23 -5 0 -233 c-1 -127 -7 -295 -14 -372 l-14 -140 28 -78 c16 -42 25 -75 20
-72 -17 11 -285 40 -337 37 -45 -3 -54 -6 -58 -25 -20 -91 -155 -1240 -155
-1321 l0 -98 -162 -367 c-89 -201 -162 -367 -163 -368 -1 -3 -496 -43 -522
-43 -12 0 -32 27 -62 85 -24 47 -52 92 -62 101 -16 14 -66 12 -585 -29 -341
-27 -570 -49 -572 -55 -2 -6 -17 -29 -33 -52 l-30 -42 -112 6 c-62 3 -686 9
-1387 12 l-1275 5 -745 -65 -745 -66 -884 -140 c-815 -129 -943 -152 -1640
-296 l-756 -155 -1260 -329 c-1029 -268 -1417 -365 -2115 -525 -470 -108
-1420 -326 -2110 -485 l-1255 -289 -1130 -160 -1130 -160 -480 29 c-619 38
-926 49 -1542 57 l-502 6 -3 -39 c-2 -30 -8 -40 -23 -42 -57 -8 -65 -13 -65
-36 0 -14 -3 -32 -6 -41 -9 -23 -87 -55 -135 -55 l-39 0 0 -120 0 -120 79 0
c58 0 82 -4 91 -15 7 -8 18 -15 24 -15 6 0 17 -9 24 -20 7 -11 21 -20 32 -20
19 0 20 -7 20 -260 0 -247 -1 -260 -19 -260 -10 0 -87 7 -172 16 -85 8 -175
12 -201 9 l-48 -7 0 54 c0 49 -3 55 -29 71 -16 9 -41 17 -55 17 -15 0 -46 10
-69 23 -42 22 -43 22 -652 27 -595 5 -611 6 -645 26 -35 20 -35 21 -31 84 2
34 0 101 -4 147 l-7 85 -36 14 c-21 8 -45 19 -54 24 -10 6 -122 10 -262 10
-201 0 -247 -3 -259 -15 -12 -12 -16 -93 -22 -482 -8 -514 2 -1358 16 -1385 9
-16 32 -18 258 -18 245 0 249 0 304 25 l55 26 7 83 c4 46 6 112 4 147 l-4 64
45 22 44 23 593 0 594 0 49 25 c27 14 62 25 78 25 16 0 41 9 56 21 22 17 26
28 26 71 l0 50 53 -6 c28 -4 117 0 196 9 79 8 154 15 167 15 l24 0 0 -260 c0
-253 -1 -260 -20 -260 -11 0 -25 -9 -32 -20 -7 -11 -18 -20 -24 -20 -6 0 -17
-7 -24 -15 -9 -11 -33 -15 -92 -15 l-79 0 3 -118 3 -117 45 -6 c95 -13 130
-38 130 -93 0 -25 7 -30 65 -38 15 -2 21 -12 23 -42 l3 -39 487 6 c621 8 965
21 1537 58 253 16 480 30 505 29 25 0 556 -50 1180 -110 l1135 -109 1118 -205
1118 -206 972 -241 c822 -204 1164 -295 2216 -590 l1244 -349 746 -150 c703
-143 798 -159 1656 -291 l910 -139 735 -60 735 -61 1155 -39 c635 -22 1243
-40 1350 -40 l195 -1 61 -77 c34 -42 66 -86 72 -97 10 -19 41 -23 581 -65 564
-44 571 -44 585 -25 8 11 36 59 63 107 56 104 18 96 343 68 124 -11 228 -20
232 -20 3 0 4 -8 2 -18 -3 -9 69 -186 160 -393 l166 -376 0 -105 c0 -70 24
-298 70 -675 38 -312 72 -584 76 -605 5 -36 6 -36 62 -42 34 -4 113 1 198 12
l141 18 -20 -60 c-19 -58 -20 -69 -9 -206 7 -80 12 -249 12 -377 l0 -232 43
-3 43 -3 -158 -405 c-87 -223 -355 -875 -596 -1450 l-438 -1045 56 -6 c30 -4
147 -7 260 -8 l205 0 460 771 460 772 377 855 c208 471 382 857 388 859 12 4
29 41 122 271 61 148 69 176 59 193 -10 16 21 129 207 741 170 559 225 751
241 852 17 100 43 191 113 398 86 253 94 272 144 335 30 37 56 81 59 97 3 17
28 219 55 450 28 231 51 422 53 425 1 3 268 -16 592 -42 325 -26 598 -47 608
-47 12 -1 17 7 17 27 l0 28 -602 47 c-331 26 -603 49 -605 51 -4 4 81 714 98
829 8 53 7 95 -6 195 -9 69 -17 128 -19 129 -1 2 -33 -3 -70 -10 l-67 -12 -47
-84 c-45 -82 -72 -110 -72 -77 0 11 -9 16 -29 16 -15 0 -49 3 -75 6 -46 7 -46
7 -46 45 0 37 -1 38 -42 44 -35 4 -434 35 -460 35 -5 0 -8 -18 -8 -39 l0 -39
-102 5 c-57 3 -146 8 -198 13 -94 8 -95 7 -136 -20 l-41 -29 -329 24 c-181 13
-354 25 -383 27 l-55 3 -18 -89 c-10 -49 -20 -91 -22 -93 -2 -2 -34 3 -70 12
-37 8 -76 15 -87 15 -10 0 -216 -113 -457 -251 l-437 -251 -23 -141 c-12 -77
-24 -142 -26 -144 -8 -8 -108 10 -111 21 -2 6 -6 23 -9 38 -5 21 -13 27 -38
30 -31 3 -31 3 -82 163 -27 88 -51 161 -52 163 -1 2 -27 6 -58 9 l-56 6 0
2333 0 2333 57 3 56 3 51 160 c28 88 55 163 61 167 5 4 20 8 32 8 17 0 25 9
33 41 l11 40 52 -3 52 -3 25 -154 25 -154 435 -248 c248 -142 446 -248 460
-248 14 0 52 6 85 14 33 8 63 15 66 15 4 0 15 -43 25 -95 l18 -94 55 5 c31 3
212 18 403 33 332 26 348 26 370 9 16 -12 34 -16 58 -12 19 3 108 8 198 12
l162 7 0 -47 c0 -32 4 -48 13 -48 6 0 118 9 247 20 129 11 239 20 244 20 4 0
6 20 4 45 -4 51 -7 49 95 60 40 5 57 11 57 21 0 32 21 9 67 -72 26 -48 57 -90
68 -94 11 -4 44 -11 73 -15 41 -5 52 -4 52 7 0 8 7 66 15 129 14 102 14 125 0
219 -22 155 -97 792 -93 795 3 2 1181 96 1201 95 4 0 7 14 7 30 l0 30 -52 -6
c-71 -7 -1163 -92 -1165 -90 -1 0 -24 197 -52 436 -29 239 -53 444 -56 455 -2
11 -28 49 -56 84 -48 59 -58 80 -141 325 -72 209 -95 290 -114 406 -20 116
-68 287 -240 855 -185 609 -214 714 -205 738 8 25 -1 55 -79 243 -48 118 -95
221 -103 227 -9 7 -181 390 -383 852 l-368 840 -465 783 -465 782 -176 -2
c-96 0 -210 -4 -252 -7z m-1980 -6140 l132 -6 -106 -130 c-58 -71 -115 -140
-127 -152 -20 -20 -42 -24 -271 -42 -136 -11 -250 -22 -252 -24 -2 -2 -10 -47
-18 -101 -7 -53 -15 -98 -17 -100 -2 -2 -68 -9 -147 -15 l-143 -11 -117 105
-117 105 -45 -5 c-25 -3 -594 -48 -1265 -100 -671 -52 -1240 -98 -1264 -101
l-44 -6 6 -93 6 -93 -62 -7 c-34 -3 -235 -19 -447 -35 -212 -16 -411 -32 -442
-35 l-58 -6 0 49 c0 82 -9 85 -191 71 -100 -7 -156 -16 -161 -24 -31 -52 -40
-56 -158 -66 l-115 -10 -26 32 -27 33 -153 -12 c-124 -9 -156 -15 -169 -29
-16 -17 -15 -48 17 -488 31 -412 37 -472 53 -489 18 -18 26 -18 172 -7 103 8
155 16 160 25 28 50 40 55 156 65 l114 9 27 -31 28 -30 151 9 c184 12 193 17
185 100 -3 30 -2 54 3 54 5 0 232 18 504 40 272 21 495 38 497 37 1 -2 5 -44
9 -95 l7 -92 31 0 c17 0 418 31 891 69 l860 68 57 -26 c32 -14 57 -31 58 -38
0 -14 21 -10 -495 -78 -414 -55 -440 -60 -1700 -316 l-1280 -261 -732 -84
c-523 -60 -926 -99 -1414 -139 l-683 -55 -1530 -50 c-1814 -59 -3549 -88
-5541 -92 -1350 -3 -2925 9 -2925 23 0 5 64 9 143 9 333 1 1546 60 1632 79 22
5 559 78 1194 161 l1153 151 1047 230 c2797 614 3111 687 4456 1029 1237 314
1274 323 2015 474 704 144 814 164 1630 292 l875 136 700 63 700 63 1220 0
c671 0 1280 -3 1353 -7z m1817 -68 c3 -27 9 -58 12 -70 5 -21 2 -23 -35 -23
-40 0 -42 2 -77 63 -19 35 -35 67 -35 70 0 4 29 7 64 7 l64 0 7 -47z m-715
-1088 c10 -31 16 -35 46 -35 34 0 34 0 111 -155 l77 -154 58 6 58 6 0 -2327 0
-2328 -59 4 -59 3 -76 -152 c-76 -153 -76 -153 -110 -153 -31 0 -36 -4 -46
-36 l-12 -37 -76 7 c-41 3 -90 6 -108 6 -29 0 -33 4 -41 37 -7 29 -15 39 -43
48 -33 11 -34 14 -84 173 l-50 161 -56 3 -55 3 -3 2256 -2 2256 31 7 c17 3 44
6 58 6 26 0 29 6 79 165 52 164 53 165 82 165 26 0 31 5 40 40 12 44 20 48
110 53 30 2 69 4 87 5 28 2 33 -2 43 -33z m-937 -76 c15 -39 19 -41 47 -36
l30 7 78 -156 77 -156 58 5 57 5 0 -2255 0 -2255 -57 7 -58 6 -77 -155 c-77
-154 -78 -156 -111 -156 -29 0 -35 -5 -46 -35 l-12 -35 -67 5 c-156 13 -151
12 -158 56 -6 36 -9 39 -39 39 l-32 0 -52 164 -51 164 -60 7 -60 7 0 2184 0
2184 38 0 c80 0 77 -2 134 176 l52 164 32 0 c30 0 33 3 39 39 l6 39 77 7 c76
6 121 11 133 14 3 0 13 -18 22 -40z m-937 -74 c12 -30 19 -35 47 -35 32 0 34
-3 107 -150 l74 -150 58 0 58 0 0 -2177 0 -2178 -57 3 -58 3 -77 -154 c-74
-150 -77 -154 -105 -150 -25 4 -31 0 -46 -31 -16 -35 -19 -36 -69 -36 l-53 1
-102 113 -101 113 -92 6 c-84 5 -97 9 -146 42 -53 35 -54 36 -54 86 0 52 -39
139 -63 139 -7 0 -88 7 -182 15 -123 10 -171 11 -176 3 -5 -8 -132 7 -435 51
-370 54 -606 97 -1719 316 l-1290 254 -738 96 c-538 69 -935 114 -1460 165
l-722 69 -1570 56 c-1733 61 -2887 87 -4955 109 l-1225 14 -855 -32 c-924 -34
-1340 -37 -1340 -11 0 11 -11 15 -39 15 -25 0 -41 5 -45 15 -4 12 -28 15 -123
15 -107 0 -119 2 -131 20 -8 13 -23 20 -42 20 l-30 0 0 275 c0 151 3 275 8
275 62 1 137 29 307 117 l190 98 12 50 c10 38 10 64 2 105 l-11 55 -201 103
c-111 56 -212 102 -223 102 -12 0 -36 3 -53 6 l-31 7 0 273 0 274 30 0 c19 0
34 7 42 20 12 18 24 20 131 20 95 0 119 3 123 15 4 10 20 15 45 15 28 0 39 4
39 15 0 13 33 15 234 15 134 0 236 4 238 9 2 6 331 4 838 -6 627 -11 1192 -13
2265 -9 2140 8 3049 21 4835 72 l1585 44 675 55 c474 39 899 81 1425 141 l750
85 1275 260 c1102 225 1337 270 1729 330 318 49 457 66 461 58 5 -8 45 -8 146
0 228 18 220 16 249 65 18 30 25 57 25 93 0 50 1 51 52 84 45 29 66 35 148 44
l95 10 103 113 103 112 50 0 c48 0 51 -2 65 -35z m-20029 -1722 c-3 -10 -5 -4
-5 12 0 17 2 24 5 18 2 -7 2 -21 0 -30z m35 -182 c13 -16 38 -36 56 -45 34
-17 43 -36 17 -36 -8 0 -15 -4 -15 -10 0 -5 -22 -10 -50 -10 l-50 0 0 65 c0
36 4 65 9 65 5 0 20 -13 33 -29z m660 -161 l548 0 0 -44 0 -43 -72 -12 c-40
-6 -120 -25 -178 -40 -58 -16 -136 -32 -175 -36 -111 -10 -115 -11 -115 -45 0
-25 -4 -30 -25 -30 l-25 0 0 -180 0 -180 25 0 c21 0 25 -5 25 -29 0 -33 5 -35
120 -46 36 -4 112 -20 170 -35 58 -15 138 -34 178 -41 l72 -12 0 -44 0 -43
-548 0 c-302 0 -583 -3 -625 -6 l-77 -7 0 443 0 443 77 -7 c42 -3 323 -6 625
-6z m-602 -930 c0 -5 7 -10 15 -10 27 0 16 -19 -23 -39 -22 -11 -46 -31 -56
-45 -26 -41 -36 -31 -36 39 l0 65 50 0 c28 0 50 -4 50 -10z m-93 -297 c-3 -10
-5 -4 -5 12 0 17 2 24 5 18 2 -7 2 -21 0 -30z m6333 -268 c1814 -26 3084 -59
4760 -125 l1535 -61 685 -64 c490 -47 897 -92 1430 -161 l745 -95 1290 -254
c1288 -253 1291 -254 1735 -309 245 -31 451 -56 458 -56 33 0 6 -30 -48 -53
l-59 -26 -878 69 c-483 38 -883 70 -889 70 -7 0 -14 -36 -18 -92 -4 -51 -9
-94 -10 -96 -4 -3 -925 66 -975 74 l-34 5 6 54 c8 79 1 82 -180 96 l-152 12
-27 -32 -26 -32 -102 7 c-121 8 -139 14 -161 52 l-18 29 -155 12 c-146 11
-157 11 -173 -6 -15 -15 -22 -86 -51 -491 -33 -457 -33 -473 -16 -489 14 -13
55 -20 166 -28 l147 -12 35 32 35 32 110 -8 c113 -9 124 -14 153 -65 5 -10 54
-17 160 -25 179 -14 189 -11 194 70 3 46 3 46 38 43 19 -1 237 -18 483 -37
247 -19 457 -35 468 -35 17 0 18 -8 16 -97 l-2 -98 285 -22 c157 -13 717 -57
1245 -98 528 -41 987 -78 1020 -81 l61 -6 118 107 c101 91 122 105 144 101 15
-3 78 -8 139 -12 64 -4 116 -11 121 -18 5 -6 14 -51 20 -100 6 -49 16 -92 22
-96 9 -5 432 -41 481 -40 12 0 189 -198 189 -212 0 -6 -331 4 -1445 43 l-1140
39 -715 59 -715 60 -870 131 c-806 121 -926 142 -1626 280 l-756 150 -1263
345 c-1081 295 -1407 380 -2254 585 l-991 239 -1140 196 -1140 195 -1170 101
c-1482 127 -2289 179 -2800 179 -79 0 -136 4 -140 10 -4 6 36 10 112 10 65 1
172 3 238 6 450 21 1849 60 2030 57 121 -2 690 -10 1265 -18z m16277 -2611
c18 -5 22 -11 17 -33 -3 -14 -7 -36 -10 -48 -4 -20 -11 -23 -53 -23 -26 0 -50
3 -54 6 -3 4 5 28 19 55 25 49 35 55 81 43z"/>
</g>
</svg>
