<?xml version="1.0" standalone="no"?>
<!DOCTYPE svg PUBLIC "-//W3C//DTD SVG 20010904//EN"
 "http://www.w3.org/TR/2001/REC-SVG-20010904/DTD/svg10.dtd">
<svg version="1.0" xmlns="http://www.w3.org/2000/svg"
   viewBox="0 0 3442.000000 4900.000000"
 preserveAspectRatio="xMidYMid meet">
<metadata>
Created by potrace 1.16, written by Peter Selinger 2001-2019
</metadata>
<g transform="translate(0.000000,4900.000000) scale(0.100000,-0.100000)"
fill="#000000" stroke="none">
<path d="M22130 48990 c0 -16 -73 -140 -83 -140 -4 0 -26 12 -49 26 -22 14
-53 27 -67 28 -14 1 -48 17 -75 34 -28 18 -53 32 -57 32 -5 0 -239 -169 -261
-189 -4 -3 22 -83 58 -176 l65 -170 -27 -205 -27 -205 -54 -102 -55 -103 36
-21 c41 -24 40 -20 22 -154 -25 -174 -39 -356 -30 -365 5 -4 90 -56 189 -114
478 -280 5260 -3195 5258 -3205 -2 -6 -4 -16 -5 -22 -2 -9 746 -477 785 -491
10 -4 -285 -481 -319 -517 l-23 -25 -357 238 -357 238 -51 -50 c-28 -27 -1543
-1452 -3366 -3167 -1823 -1715 -3337 -3139 -3364 -3165 l-48 -47 48 -45 c27
-25 65 -59 84 -77 31 -28 24 -25 -53 18 -64 37 -146 69 -308 121 -195 63 -223
70 -237 57 -10 -8 -797 -706 -1751 -1551 l-1733 -1536 -48 0 c-26 0 -52 -6
-58 -13 -23 -27 -223 -602 -278 -800 l-59 -207 -410 -275 -410 -275 -962 -217
-962 -217 -12 -68 c-7 -38 -17 -75 -23 -82 -6 -7 -42 -25 -81 -40 -38 -15
-125 -50 -192 -78 l-122 -50 -87 -148 c-48 -82 -95 -152 -103 -155 -9 -4 -176
-67 -372 -140 -352 -132 -360 -136 -671 -305 l-315 -171 -218 -195 -218 -194
-186 -348 c-102 -192 -199 -364 -216 -384 l-30 -35 -1605 -318 -1605 -318
-336 -134 -336 -134 -5 -155 c-3 -85 -7 -156 -9 -159 -3 -2 -183 -60 -400
-129 l-394 -124 -3 -202 -2 -202 236 7 237 8 -6 -133 c-4 -73 -8 -134 -10
-136 -1 -2 -1101 -223 -2444 -492 l-2440 -489 -56 -39 -56 -39 -3 -199 -3
-199 -197 -46 c-109 -24 -198 -48 -198 -53 0 -4 36 -57 80 -117 l80 -110 0
-185 0 -185 -52 -15 c-29 -9 -120 -34 -203 -56 -82 -23 -151 -43 -154 -45 -6
-6 19 -63 33 -74 6 -5 74 -14 151 -20 77 -7 160 -14 184 -18 l44 -6 -9 -106
c-10 -137 -10 -705 0 -842 l9 -106 -44 -6 c-24 -4 -107 -11 -184 -18 -77 -6
-145 -15 -151 -20 -14 -11 -39 -68 -33 -74 3 -2 72 -22 154 -45 83 -22 174
-47 202 -56 l53 -15 0 -185 0 -185 -80 -110 c-44 -60 -80 -113 -80 -117 0 -5
89 -29 198 -53 l197 -46 3 -199 3 -199 56 -39 56 -39 2440 -489 c1343 -269
2443 -490 2444 -492 2 -2 6 -63 10 -136 l6 -133 -237 8 -236 7 2 -202 3 -202
394 -124 c217 -69 397 -127 400 -129 2 -3 6 -74 9 -159 l5 -154 26 -12 c14 -7
159 -70 321 -140 l295 -128 1623 -314 1622 -314 214 -382 213 -382 218 -195
218 -194 315 -171 c311 -169 319 -173 671 -305 196 -73 363 -136 372 -140 8
-3 55 -73 103 -155 l87 -148 122 -50 c67 -28 154 -63 192 -78 39 -15 75 -33
81 -40 6 -7 16 -44 23 -82 l12 -68 962 -217 962 -217 410 -275 410 -275 59
-207 c55 -198 255 -773 278 -800 6 -7 32 -13 58 -13 l48 0 1733 -1536 c954
-845 1741 -1543 1751 -1551 14 -13 42 -6 237 57 162 52 244 84 308 121 77 43
84 46 53 18 -19 -18 -57 -52 -84 -77 l-48 -45 48 -47 c27 -26 1541 -1450 3364
-3165 1823 -1715 3338 -3140 3366 -3167 l51 -50 357 238 357 238 23 -25 c34
-36 329 -513 319 -517 -39 -14 -787 -482 -785 -491 1 -6 3 -16 5 -22 2 -10
-4780 -2925 -5258 -3205 -99 -58 -184 -110 -189 -114 -9 -9 5 -191 30 -365 18
-134 19 -130 -22 -154 l-36 -21 55 -103 54 -102 27 -205 27 -205 -65 -170
c-36 -93 -62 -173 -58 -176 22 -20 256 -189 261 -189 4 0 29 14 57 32 27 17
61 33 75 34 14 1 45 14 67 28 23 14 45 26 49 26 8 0 25 -28 68 -107 l23 -42
234 138 c740 438 5665 3388 5826 3490 106 67 198 119 203 116 19 -13 6 -33
-74 -112 -114 -115 -272 -237 -549 -425 -131 -89 -238 -167 -238 -175 0 -7 17
-31 37 -54 28 -31 41 -39 57 -34 12 4 30 8 41 10 11 1 63 30 115 62 52 33 151
93 220 133 185 109 615 380 770 485 132 90 138 92 295 139 125 37 199 67 335
136 584 292 2167 1212 2471 1435 70 52 307 172 597 304 123 56 237 110 254
121 26 15 41 43 84 144 31 75 58 157 66 202 7 42 18 82 24 89 12 12 -206 416
-561 1040 -183 322 -647 1011 -793 1178 -134 153 -237 223 -346 237 -56 7 -79
19 -291 156 -217 139 -245 154 -485 257 -140 60 -260 114 -267 121 -30 29
-868 1777 -1558 3251 -547 1169 -1205 2545 -2325 4865 l-1562 3235 -238 587
-239 586 -95 358 c-53 196 -94 360 -91 362 3 3 170 29 372 58 260 36 667 108
1381 243 l1013 191 597 50 c328 27 1970 160 3647 295 1678 134 3077 249 3110
255 85 15 203 51 213 64 5 6 14 42 20 81 l11 69 -101 226 c-93 208 -103 236
-129 370 -16 80 -29 146 -29 148 0 1 -126 2 -280 2 -180 0 -280 4 -280 10 0 6
100 10 280 10 154 0 280 1 280 3 0 1 13 67 29 147 26 134 36 162 129 370 l101
226 -11 69 c-6 39 -15 75 -20 81 -10 13 -128 49 -213 64 -33 6 -1432 121
-3110 255 -1677 135 -3319 268 -3647 295 l-597 50 -1013 191 c-717 135 -1120
206 -1380 243 -202 29 -370 55 -373 58 -3 2 38 166 91 362 l95 358 239 586
238 587 1562 3235 c1120 2320 1778 3696 2325 4865 690 1474 1528 3222 1558
3251 7 7 127 61 267 121 240 103 268 118 485 257 212 137 235 149 291 156 109
14 212 84 346 237 146 167 610 856 793 1178 361 634 573 1028 561 1040 -6 7
-17 47 -24 89 -8 45 -35 127 -66 202 -43 101 -58 129 -84 144 -17 11 -131 65
-254 121 -290 132 -527 252 -597 304 -304 223 -1887 1143 -2471 1435 -136 69
-210 99 -335 136 -157 47 -163 49 -295 139 -155 105 -585 376 -770 485 -69 40
-168 100 -220 133 -52 32 -104 61 -115 62 -11 2 -29 6 -41 10 -16 5 -29 -3
-57 -34 -20 -23 -37 -47 -37 -54 0 -8 107 -86 238 -175 277 -188 435 -310 549
-425 80 -79 93 -99 74 -112 -5 -3 -97 49 -203 116 -227 143 -5955 3571 -6045
3618 -16 8 -23 9 -23 1z"/>
</g>
</svg>
