<?xml version="1.0" standalone="no"?>
<!DOCTYPE svg PUBLIC "-//W3C//DTD SVG 20010904//EN"
 "http://www.w3.org/TR/2001/REC-SVG-20010904/DTD/svg10.dtd">
<svg version="1.0" xmlns="http://www.w3.org/2000/svg"
   viewBox="0 0 4340.000000 1347.000000"
 preserveAspectRatio="xMidYMid meet">
<metadata>
Created by potrace 1.16, written by Peter Selinger 2001-2019
</metadata>
<g transform="translate(0.000000,1347.000000) scale(0.100000,-0.100000)"
fill="#000000" stroke="none">
<path d="M28438 13330 l-307 -140 -418 0 -418 0 -304 -105 -303 -105 -1091 0
-1091 0 -96 -45 c-96 -45 -98 -45 -149 -33 -41 9 -112 9 -324 0 -165 -8 -627
-12 -1177 -12 l-905 0 -1350 -115 c-1176 -99 -1410 -122 -1818 -175 l-467 -61
-498 -122 -497 -123 -243 73 -242 74 -363 -40 c-199 -22 -639 -70 -977 -106
-338 -36 -696 -74 -794 -86 l-179 -20 -265 -195 -265 -194 -107 0 c-100 0
-157 -11 -865 -160 -418 -88 -762 -160 -767 -160 -4 0 -8 -196 -8 -435 0 -239
-2 -435 -4 -435 -8 0 -683 -110 -703 -115 l-23 -5 0 330 c0 181 -3 330 -7 330
-5 1 -81 -18 -170 -42 l-163 -43 -2 -315 -3 -314 -410 -68 c-225 -37 -419 -67
-429 -67 -19 -1 -19 7 -13 254 4 140 4 255 -1 255 -4 0 -91 -26 -195 -57
l-187 -57 0 -95 c0 -53 -7 -158 -16 -233 -17 -134 -18 -137 -43 -142 -46 -10
-706 -116 -718 -116 -10 0 -13 42 -13 175 0 96 -3 175 -7 175 -5 0 -70 -21
-145 -46 l-138 -46 0 -157 0 -157 -257 -63 c-142 -34 -266 -64 -275 -67 -16
-5 -18 3 -18 76 l0 82 -28 -6 c-187 -40 -1842 -317 -1886 -317 -32 1 -64 -3
-70 -8 -7 -6 -76 -13 -154 -17 l-142 -7 0 114 0 115 -277 67 c-274 66 -280 67
-415 67 l-138 0 0 103 0 103 -137 73 -138 73 -1145 -11 c-630 -6 -1362 -14
-1627 -18 l-483 -6 0 -169 0 -168 -177 0 -178 0 -173 -51 -172 -52 0 -52 0
-52 -92 -6 c-51 -4 -149 -10 -218 -13 l-125 -7 -48 -78 -48 -79 -169 0 -170 0
0 -835 0 -835 95 0 95 0 0 -310 0 -310 -95 0 -95 0 0 -830 0 -830 70 0 70 0 0
-945 0 -945 675 0 675 0 0 -113 0 -113 183 -48 182 -49 1735 -10 1735 -10 163
-112 164 -113 119 -18 119 -18 0 -738 0 -738 115 0 115 0 0 -115 0 -115 1660
0 1660 0 0 115 0 115 225 0 225 0 0 -29 c0 -25 15 -43 99 -115 l99 -86 1469 0
1469 0 97 86 c81 71 97 91 97 115 l0 29 220 0 220 0 0 -34 c0 -29 11 -43 89
-115 l89 -81 1410 0 1410 0 96 86 c80 71 96 90 96 115 l0 29 110 0 110 0 0
103 c0 57 3 226 7 375 l6 272 757 0 757 0 8 -311 c4 -171 5 -312 3 -314 -1 -1
-111 -10 -243 -19 -132 -9 -264 -19 -292 -22 l-53 -6 0 -484 c0 -266 3 -484 8
-484 19 0 502 -41 540 -46 l42 -5 0 -380 0 -379 770 0 769 0 48 -30 47 -30
994 0 994 0 59 36 59 35 0 185 0 184 70 0 70 0 0 544 0 545 43 5 c23 3 517 24
1097 48 l1055 42 430 -162 430 -162 128 0 127 0 0 -133 0 -134 28 -13 c15 -6
159 -70 320 -141 l293 -129 412 0 412 0 297 -170 298 -170 536 2 536 3 61 168
61 167 551 0 551 0 152 141 152 141 0 98 0 97 543 6 c479 4 630 1 1292 -24
932 -36 835 -36 835 -1 l0 29 197 6 c108 4 283 7 390 7 122 0 193 4 193 10 0
6 -137 10 -390 10 l-390 0 0 140 0 140 353 0 c290 0 363 3 403 15 40 13 154
17 624 25 316 5 685 9 818 10 190 0 243 3 240 13 -4 9 -187 16 -809 29 -659
14 -814 20 -861 32 -47 13 -122 16 -413 16 l-355 0 0 185 0 185 353 0 c290 0
363 3 403 15 40 13 183 18 809 30 418 8 788 15 823 15 62 0 62 0 62 29 0 29 0
29 -72 35 -40 3 -404 13 -808 22 -673 14 -740 17 -791 35 -51 17 -87 19 -418
19 l-361 0 0 95 0 94 38 10 c20 6 255 76 522 156 l485 146 1245 89 1245 90
638 0 637 0 0 219 0 220 -112 61 c-88 48 -127 77 -173 127 l-60 64 -582 149
-582 148 -158 77 -159 76 -104 819 -105 819 -68 33 -69 33 6 40 c3 22 13 168
22 325 9 157 20 288 24 293 5 6 779 26 1048 27 l72 0 0 29 c0 29 0 29 -72 35
-40 3 -291 10 -558 17 -267 6 -486 12 -486 12 -1 1 1 45 5 97 l6 95 49 45 c27
25 58 51 69 59 20 14 18 16 -42 70 l-63 56 25 414 25 413 131 132 130 131 44
125 c25 69 64 193 87 275 l43 150 221 222 220 223 2563 0 2562 0 70 60 c157
136 264 149 841 101 201 -16 417 -33 480 -37 l115 -7 -109 119 c-105 114 -124
129 -440 352 -254 179 -455 309 -861 557 -291 177 -566 341 -610 363 -44 22
-368 178 -720 347 l-640 308 -880 294 -880 294 -1150 224 c-632 123 -1183 236
-1224 250 -50 17 -371 75 -965 175 l-891 151 -305 14 c-168 8 -424 17 -569 21
l-265 7 -200 159 -201 158 -496 0 -496 0 -149 105 -149 105 -638 0 -638 0 -20
48 c-11 26 -38 89 -61 140 l-40 92 -532 0 -531 0 -307 -140z"/>
</g>
</svg>
