<?xml version="1.0" standalone="no"?>
<!DOCTYPE svg PUBLIC "-//W3C//DTD SVG 20010904//EN"
 "http://www.w3.org/TR/2001/REC-SVG-20010904/DTD/svg10.dtd">
<svg version="1.0" xmlns="http://www.w3.org/2000/svg"
   viewBox="0 0 4308.000000 865.000000"
 preserveAspectRatio="xMidYMid meet">
<metadata>
Created by potrace 1.16, written by Peter Selinger 2001-2019
</metadata>
<g transform="translate(0.000000,865.000000) scale(0.100000,-0.100000)"
fill="#000000" stroke="none">
<path d="M36632 8566 l-33 -84 40 -39 c23 -21 139 -130 260 -243 120 -113 218
-205 217 -206 0 0 -116 5 -256 12 -140 7 -1162 57 -2270 110 l-2015 96 -130
-17 c-549 -72 -683 -95 -1095 -191 l-415 -96 -845 10 c-712 9 -1050 8 -2145
-7 l-1300 -18 -220 -67 c-206 -62 -279 -78 -1150 -242 -909 -172 -944 -179
-1545 -329 -338 -85 -936 -240 -1329 -345 -392 -104 -722 -190 -733 -190 -11
0 -29 -5 -41 -12 -15 -8 -540 -34 -1732 -84 l-1710 -73 -780 86 c-429 47 -800
88 -825 90 -25 2 -412 44 -860 93 l-815 89 -1295 36 -1295 36 -950 -41 c-638
-28 -993 -40 -1081 -36 -138 7 -1059 -35 -1189 -54 -179 -26 -1329 -119 -2760
-225 l-1570 -115 -865 -99 c-723 -83 -992 -110 -1640 -161 l-775 -60 -742
-158 c-417 -88 -743 -162 -743 -168 0 -5 6 -18 13 -27 10 -14 72 -21 417 -46
352 -26 436 -36 642 -73 130 -23 235 -44 233 -46 -3 -3 -455 -31 -525 -32 -29
0 -50 -13 -117 -72 l-83 -72 0 -640 1 -641 82 -71 82 -70 747 -39 c676 -36
748 -41 748 -56 0 -21 26 -19 -834 -64 -482 -26 -664 -39 -675 -48 -9 -7 -46
-39 -84 -71 l-67 -58 0 -639 0 -638 80 -70 c44 -39 81 -71 83 -72 1 0 741 -40
1645 -89 l1643 -88 130 74 130 75 68 -63 69 -63 298 -43 299 -43 2425 -40
2425 -40 134 -61 134 -61 1776 5 1776 5 390 77 390 77 45 71 45 70 820 -6
c451 -3 1293 -9 1870 -12 l1050 -6 517 -43 c452 -37 519 -45 540 -61 13 -10
133 -118 267 -239 l242 -220 -111 -3 -111 -3 -65 -50 c-35 -28 -64 -52 -64
-52 0 -1 -11 -58 -25 -127 -13 -69 -25 -149 -25 -177 0 -45 -8 -67 -50 -144
-57 -102 -58 -86 7 -232 l45 -102 -4 -152 -4 -153 61 -60 60 -60 820 -10 c985
-11 3853 -15 4225 -4 l265 7 63 55 62 56 0 190 c0 179 2 196 26 270 22 66 25
84 16 114 l-11 34 57 -5 c31 -4 224 -21 427 -38 l370 -32 255 -117 255 -117
1643 -26 c904 -13 1646 -28 1650 -31 6 -7 40 -317 41 -378 l1 -28 1325 0 1325
0 0 205 0 205 1419 0 c1186 0 1420 -2 1424 -14 3 -7 8 -54 12 -104 l7 -90 -56
-16 -56 -17 0 -59 0 -60 64 0 64 0 6 -38 c3 -20 8 -67 12 -103 l6 -66 144 -29
143 -30 1403 47 1403 47 170 35 c169 35 173 36 400 145 127 60 271 127 320
148 50 20 135 68 190 105 55 37 160 101 234 143 l134 76 105 0 c104 0 105 0
152 35 l48 35 491 0 491 0 0 90 0 90 -262 1 -263 1 160 54 160 54 160 -6 c306
-11 736 -61 948 -111 59 -13 172 -50 250 -81 l142 -57 237 3 237 3 27 87 c18
59 46 226 88 528 l62 442 -198 1011 -198 1011 -369 609 -369 609 -431 509
-432 508 -322 298 c-177 165 -424 382 -548 483 -282 229 -753 560 -1137 800
l-293 184 -447 191 c-246 105 -550 240 -677 299 l-230 107 -375 57 c-206 31
-377 56 -380 56 -3 0 -20 -38 -38 -84z"/>
</g>
</svg>
