<?xml version="1.0" standalone="no"?>
<!DOCTYPE svg PUBLIC "-//W3C//DTD SVG 20010904//EN"
 "http://www.w3.org/TR/2001/REC-SVG-20010904/DTD/svg10.dtd">
<svg version="1.0" xmlns="http://www.w3.org/2000/svg"
   viewBox="0 0 4465.000000 1001.000000"
 preserveAspectRatio="xMidYMid meet">
<metadata>
Created by potrace 1.16, written by Peter Selinger 2001-2019
</metadata>
<g transform="translate(0.000000,1001.000000) scale(0.100000,-0.100000)"
fill="#000000" stroke="none">
<path d="M27485 10000 c-460 -13 -943 -47 -2600 -181 -885 -71 -1273 -107
-1913 -178 -441 -48 -805 -91 -809 -94 -3 -4 -2 -27 4 -52 9 -39 8 -45 -6 -45
-8 0 -443 -52 -966 -116 -794 -96 -1093 -137 -1820 -250 -1757 -273 -3358
-554 -5975 -1048 -1611 -305 -3982 -777 -4623 -920 -187 -42 -345 -76 -352
-76 -7 0 -18 26 -26 63 l-14 63 -600 -97 c-595 -96 -601 -97 -740 -148 -140
-52 -142 -52 -1194 -236 -772 -135 -1058 -188 -1072 -201 -11 -10 -19 -33 -21
-63 l-3 -46 -124 -3 c-69 -1 -130 -7 -135 -11 -6 -5 -90 -12 -186 -16 -174 -7
-175 -7 -205 -35 -28 -27 -36 -29 -137 -32 -84 -2 -110 -7 -120 -19 -11 -13
-63 -20 -272 -37 -142 -12 -264 -26 -270 -32 -7 -5 -41 -18 -76 -29 -55 -17
-65 -18 -74 -6 -9 12 -23 11 -96 -11 -47 -14 -92 -32 -100 -40 -12 -12 -6 -14
45 -15 l60 -1 -60 -14 c-32 -8 -63 -20 -67 -27 -10 -15 -9 -106 1 -131 5 -14
32 -25 107 -43 114 -28 141 -25 147 15 2 15 5 3 6 -27 l1 -54 -72 7 c-40 4
-97 9 -126 12 -86 10 -57 -19 51 -50 76 -22 94 -24 101 -13 8 12 20 11 75 -6
36 -10 71 -23 76 -27 6 -4 100 -11 210 -14 110 -4 228 -9 263 -12 59 -5 64 -8
74 -35 10 -29 11 -29 91 -29 171 0 52 -13 -320 -36 -213 -13 -407 -23 -431
-24 l-43 0 7 -115 7 -115 -202 0 -201 0 0 -75 c0 -69 -2 -75 -22 -79 -92 -20
-127 -24 -144 -20 -11 3 -82 -7 -158 -21 -122 -23 -139 -25 -149 -11 -11 13
-23 12 -104 -11 -51 -15 -95 -33 -98 -41 -4 -12 9 -13 92 -7 54 3 107 9 119
11 18 5 20 1 16 -29 -3 -27 -8 -34 -21 -30 -32 8 -205 -37 -224 -59 -19 -23
-22 -70 -6 -116 9 -27 17 -32 92 -51 l82 -20 -78 5 c-107 8 -96 -15 26 -50 78
-22 93 -24 106 -12 14 12 34 11 138 -9 67 -13 148 -24 180 -25 32 0 78 -4 103
-8 l45 -7 3 -112 3 -111 -38 -6 c-21 -3 -112 -12 -203 -21 -91 -8 -201 -22
-245 -31 -53 -10 -88 -13 -104 -7 -17 7 -61 0 -160 -23 -156 -38 -161 -39
-161 -21 0 17 -177 -27 -200 -50 -13 -13 -7 -14 60 -9 41 4 96 9 123 12 40 5
46 4 41 -10 -4 -11 -13 -14 -28 -10 -33 8 -218 -42 -234 -63 -9 -12 -12 -36
-10 -70 7 -78 41 -108 157 -138 73 -18 91 -20 91 -9 0 18 -10 19 159 -20 110
-26 151 -32 170 -24 14 5 40 7 58 3 l31 -6 -21 -23 c-12 -13 -37 -56 -56 -95
l-35 -71 -568 0 -568 0 0 -130 0 -130 -84 0 c-54 0 -86 -4 -88 -11 -5 -16
-316 -80 -354 -73 -20 4 -66 -6 -139 -30 -95 -31 -110 -33 -120 -20 -10 14
-21 12 -102 -12 -51 -15 -95 -34 -98 -42 -6 -15 28 -14 193 4 l52 6 0 -32 c0
-31 -1 -32 -21 -18 -19 12 -35 11 -130 -11 -118 -28 -129 -37 -129 -106 0 -69
11 -79 128 -107 96 -24 109 -25 130 -12 21 14 22 13 22 -19 l0 -34 -53 8
c-111 16 -197 20 -197 10 0 -15 25 -26 115 -51 68 -19 81 -20 89 -8 7 13 26
10 129 -14 97 -23 126 -27 147 -18 21 9 61 5 181 -15 85 -14 155 -30 157 -36
2 -5 42 -9 88 -9 l84 0 0 -125 0 -125 2340 0 2340 0 0 -260 0 -259 103 -31
c56 -18 136 -42 177 -55 42 -13 170 -40 285 -60 l210 -37 212 -103 213 -104
282 -44 c256 -41 311 -46 568 -56 157 -6 324 -14 372 -18 l88 -6 0 -42 0 -41
153 -42 154 -42 229 10 c126 5 250 10 277 10 l47 0 0 71 0 71 292 -6 c161 -4
323 -9 361 -12 l67 -6 0 -58 0 -57 77 -7 c42 -3 151 -6 242 -6 145 1 180 4
281 28 101 24 115 30 118 50 3 20 9 22 77 22 l74 0 121 -105 c109 -94 135
-112 268 -176 125 -61 179 -80 367 -130 182 -50 251 -63 399 -79 l178 -20 82
-49 81 -48 454 -12 454 -12 49 56 50 55 494 0 494 0 0 -282 1 -283 128 -132
128 -133 353 0 353 0 53 50 c49 46 57 50 102 50 l49 0 7 -72 c4 -40 10 -101
13 -135 l6 -63 1826 1 1826 0 295 58 295 58 3 401 2 402 4311 0 4311 0 38 30
38 30 463 -26 c255 -13 479 -27 497 -30 l32 -5 0 -147 0 -148 1133 -132 1132
-133 937 1 938 0 862 239 c475 131 882 244 905 250 30 8 91 51 218 156 l176
145 483 0 483 0 771 362 772 362 0 58 0 57 38 11 c20 6 179 51 352 99 l315 88
3 90 3 90 207 6 c114 4 396 10 627 14 l420 8 -315 7 c-173 3 -456 10 -627 13
l-313 7 0 68 0 67 708 6 c389 4 1132 10 1652 14 l945 8 -1340 11 c-737 7
-1481 12 -1652 13 l-313 1 0 94 0 94 488 7 c268 4 656 10 862 14 l375 6 -700
8 c-385 4 -773 10 -862 13 l-163 7 0 38 0 39 58 1 c31 1 212 6 402 13 l345 11
-245 8 c-135 4 -316 10 -402 14 l-158 6 0 43 0 44 45 0 c45 0 45 0 45 -35 0
-33 2 -35 35 -35 33 0 35 2 35 35 l0 35 195 0 195 0 0 -35 c0 -34 1 -35 40
-35 39 0 40 1 40 35 l0 35 200 0 200 0 0 -35 c0 -32 2 -35 30 -35 28 0 30 3
30 35 l0 35 555 0 555 0 0 -35 c0 -34 1 -35 40 -35 39 0 40 1 40 35 l0 35 200
0 200 0 0 -35 c0 -31 3 -35 25 -35 22 0 25 4 25 35 l0 35 1045 0 c922 0 1045
2 1045 15 0 13 21 15 133 15 127 0 135 1 155 23 12 13 22 29 22 35 0 9 34 12
118 12 65 0 227 3 360 7 217 6 242 8 242 23 0 15 -32 17 -356 23 l-355 7 -25
30 -26 30 -134 0 -134 0 0 180 0 180 -1310 0 -1310 0 0 30 0 30 -900 0 -900 0
0 674 0 674 -162 183 c-88 101 -167 191 -174 199 -11 13 -3 15 67 11 62 -2 79
0 79 10 0 8 -7 84 -15 169 l-15 155 -119 320 -118 320 -214 304 -214 304 -365
307 -365 306 -390 238 c-345 211 -441 264 -845 466 -250 125 -648 314 -885
420 -369 165 -484 211 -812 326 -373 131 -395 137 -990 284 -691 172 -1453
333 -1818 386 -777 112 -1466 181 -2165 215 -463 23 -1680 33 -2195 19z
m-24286 -3917 c0 -25 -1 -26 -9 -8 -12 27 -12 35 0 35 6 0 10 -12 9 -27z
m-102 11 c-3 -3 -12 -4 -19 -1 -8 3 -5 6 6 6 11 1 17 -2 13 -5z"/>
</g>
</svg>
