<?xml version="1.0" standalone="no"?>
<!DOCTYPE svg PUBLIC "-//W3C//DTD SVG 20010904//EN"
 "http://www.w3.org/TR/2001/REC-SVG-20010904/DTD/svg10.dtd">
<svg version="1.0" xmlns="http://www.w3.org/2000/svg"
   viewBox="0 0 4617.000000 956.000000"
 preserveAspectRatio="xMidYMid meet">
<metadata>
Created by potrace 1.16, written by Peter Selinger 2001-2019
</metadata>
<g transform="translate(0.000000,956.000000) scale(0.100000,-0.100000)"
fill="#000000" stroke="none">
<path d="M8990 9440 l0 -120 -100 0 -100 0 0 -100 0 -100 35 0 35 0 0 -185 0
-185 145 0 145 0 0 -45 0 -45 -110 0 -110 0 0 -50 0 -50 50 0 50 0 0 -115 0
-115 -255 0 -255 0 0 -95 c0 -90 -1 -95 -21 -95 -30 0 -117 -76 -134 -116 -17
-41 0 -38 -375 -64 -162 -12 -304 -23 -315 -25 -11 -2 -64 -32 -117 -65 l-97
-61 -17 -59 -17 -60 -161 -1 c-88 -1 -1446 -4 -3016 -8 l-2855 -7 -400 -119
c-220 -64 -401 -118 -402 -119 -8 -6 20 -73 38 -92 l21 -23 -54 -30 c-29 -17
-77 -52 -106 -78 -49 -44 -55 -56 -78 -132 -27 -95 -32 -211 -13 -334 10 -67
14 -76 60 -123 44 -44 48 -52 35 -64 -14 -11 -16 -48 -16 -260 0 -242 0 -248
21 -262 l22 -14 -26 -140 -26 -139 24 -115 c13 -63 22 -117 19 -119 -9 -9
-400 -22 -414 -14 -23 14 -100 4 -100 -13 0 -12 46 -14 269 -14 l269 0 30 -47
c35 -54 31 -63 -35 -63 -23 0 -45 -4 -48 -10 -4 -6 20 -10 64 -10 l71 0 32
-47 c20 -30 78 -84 156 -145 l125 -97 188 -61 c103 -33 201 -60 217 -60 27 0
51 -21 87 -78 2 -2 4146 -482 4170 -482 13 0 15 -18 15 -120 l0 -120 95 0 95
0 0 105 c0 66 4 105 10 105 6 0 22 -7 35 -16 23 -15 25 -22 25 -105 l0 -89 95
0 95 0 0 36 c0 30 3 35 18 29 9 -4 123 -47 253 -97 l236 -90 247 96 248 95
801 -93 802 -93 2605 -933 c1433 -513 2617 -937 2632 -942 l27 -10 3 -453 c2
-300 7 -458 14 -465 8 -8 1493 -110 1612 -110 l32 0 0 -473 0 -472 403 -78
402 -77 3045 0 3045 0 470 59 470 60 500 300 499 301 753 0 c742 0 753 0 765
20 12 19 24 20 369 20 l357 0 98 50 c60 31 111 50 132 50 18 0 42 5 53 11 12
6 213 33 447 60 425 49 429 49 765 129 210 50 358 90 389 106 48 25 130 35
1456 185 l1406 159 280 154 281 154 2670 161 2670 162 2155 419 2155 420 413
0 412 0 0 79 c0 92 -15 81 143 111 96 18 147 20 447 20 l339 0 63 71 c35 39
62 74 61 78 -1 4 168 40 375 80 207 41 389 80 405 88 26 13 31 11 102 -37 41
-27 79 -50 86 -50 6 0 86 36 178 80 91 44 169 80 173 80 3 0 11 -13 16 -29 10
-28 9 -29 -23 -35 -24 -5 -32 -11 -29 -21 7 -17 52 -10 106 16 34 18 81 19
658 26 592 6 620 7 620 25 0 13 -8 18 -29 18 -16 0 -43 3 -60 6 -25 5 -31 3
-31 -10 0 -15 -9 -16 -72 -11 -40 2 -279 8 -530 11 -252 4 -458 8 -458 11 0 2
7 17 15 33 13 24 13 29 0 34 -9 3 -19 -4 -26 -17 -7 -12 -13 -24 -16 -26 -2
-3 -19 11 -38 29 -43 42 -46 84 -10 145 23 40 31 45 132 80 151 53 290 141
364 232 71 87 68 81 89 171 19 76 19 78 -1 163 -18 78 -25 92 -82 160 -46 56
-85 89 -156 134 -52 33 -96 68 -99 77 -3 12 -27 25 -66 37 l-61 19 348 1 c332
1 347 2 347 20 0 15 -10 19 -57 23 -38 3 -61 1 -68 -7 -8 -9 -87 -11 -332 -6
-177 3 -325 9 -329 14 -4 4 16 32 46 62 48 49 58 55 109 61 69 8 94 30 195
169 60 83 80 120 114 219 40 111 42 124 42 230 0 109 -1 116 -60 296 l-59 186
-142 113 c-112 89 -150 114 -180 118 -22 3 -39 7 -39 9 0 1 23 25 51 51 l52
49 -74 111 -74 110 -95 31 -95 31 -445 11 c-245 5 -493 13 -552 16 l-108 7 0
135 c0 117 -2 137 -17 148 -14 11 -100 13 -408 14 l-390 0 -135 -134 -135
-135 -1397 42 c-768 23 -1400 46 -1404 50 -4 3 -11 219 -15 479 -4 260 -8 474
-8 476 -1 1 -9 2 -19 2 -18 0 -19 -19 -25 -347 -4 -190 -7 -406 -7 -480 l0
-133 -92 0 c-51 0 -123 3 -160 7 -60 5 -68 8 -68 27 -1 12 -30 52 -68 92 l-67
72 -1209 36 -1209 36 -71 -67 c-40 -39 -72 -78 -74 -91 l-3 -24 -232 8 c-128
3 -233 7 -233 8 -1 0 -7 125 -13 276 -16 400 -21 460 -36 460 -19 0 -23 -41
-37 -399 -9 -264 -14 -324 -26 -329 -8 -3 -267 3 -576 12 -474 15 -695 27
-1429 80 -477 35 -870 66 -873 68 -8 9 -277 1058 -272 1063 3 3 85 16 183 28
l178 24 1090 -58 1090 -58 142 104 142 104 231 7 c128 4 232 11 232 15 0 4
-13 65 -30 134 -17 69 -30 131 -30 136 0 5 39 38 88 73 79 58 91 72 129 143
37 70 42 90 55 201 l14 122 -31 44 -30 44 -100 6 c-55 4 -869 34 -1810 69
l-1710 62 -3150 -1 -3150 -2 -1135 -41 c-770 -28 -1514 -62 -2315 -106 l-1180
-65 -1035 -101 c-569 -56 -1036 -103 -1038 -104 -3 -3 38 -437 42 -442 0 -1
440 18 976 43 536 24 1001 44 1032 44 l57 0 151 -175 c83 -96 149 -175 147
-175 -2 0 -176 -22 -388 -50 -380 -49 -387 -50 -664 -50 l-280 -1 -409 -375
c-390 -358 -410 -374 -427 -358 -11 9 -44 48 -75 85 -39 46 -75 78 -114 98
l-58 31 -1455 0 -1456 0 -71 88 -72 87 198 6 c198 6 200 6 348 50 139 41 150
46 162 74 8 20 49 57 121 109 105 76 111 83 168 179 94 159 94 234 -1 392 -50
84 -65 101 -135 151 -64 47 -79 62 -79 84 0 23 -10 31 -82 65 -45 22 -183 106
-305 188 l-224 147 -1725 0 -1724 0 -298 -51 c-234 -40 -356 -67 -578 -128
l-280 -77 -225 -146 c-123 -81 -280 -194 -349 -251 l-125 -104 -695 -132
c-746 -141 -830 -151 -830 -105 0 12 -44 14 -260 14 l-260 0 0 115 0 115 50 0
50 0 0 50 0 50 -115 0 -115 0 0 125 0 125 -82 0 c-45 0 -79 2 -76 5 3 3 73 21
154 39 l149 33 3 240 2 239 -132 28 c-73 16 -160 37 -193 47 -36 11 -91 19
-137 19 l-78 0 0 -120z m0 -435 l0 -115 80 0 c47 0 80 -4 80 -10 0 -6 -37 -10
-90 -10 l-90 0 0 125 c0 77 4 125 10 125 6 0 10 -45 10 -115z m12150 -1060 c0
-4 -114 -189 -141 -227 -5 -8 -208 -52 -214 -46 -2 1 67 65 153 141 103 90
164 137 179 137 13 0 23 -2 23 -5z m17015 -876 l1030 -32 53 -51 c61 -59 65
-76 20 -76 -213 3 -2540 79 -2545 84 -4 3 18 32 48 62 l54 56 155 -5 c85 -3
619 -20 1185 -38z m5415 -164 c0 -112 -2 -125 -17 -125 -85 1 -916 30 -918 32
-1 2 45 48 103 103 l105 100 271 5 c149 3 313 7 364 8 l92 2 0 -125z"/>
</g>
</svg>
