<?xml version="1.0" standalone="no"?>
<!DOCTYPE svg PUBLIC "-//W3C//DTD SVG 20010904//EN"
 "http://www.w3.org/TR/2001/REC-SVG-20010904/DTD/svg10.dtd">
<svg version="1.0" xmlns="http://www.w3.org/2000/svg"
   viewBox="0 0 2922.000000 3582.000000"
 preserveAspectRatio="xMidYMid meet">
<metadata>
Created by potrace 1.16, written by Peter Selinger 2001-2019
</metadata>
<g transform="translate(0.000000,3582.000000) scale(0.100000,-0.100000)"
fill="#000000" stroke="none">
<path d="M18806 35608 c-9 -117 -19 -214 -21 -216 -2 -2 -316 15 -697 38
l-693 43 -522 -24 -523 -23 0 -97 0 -97 -27 -6 c-16 -3 -203 -28 -418 -56
-214 -27 -405 -52 -422 -55 -33 -6 -33 -6 -33 -65 l0 -58 -62 -6 c-35 -3 -868
-44 -1853 -91 -984 -47 -1844 -92 -1910 -100 l-120 -14 -338 90 c-185 49 -351
89 -368 89 -26 0 -3035 -401 -3111 -414 -26 -5 -27 -3 -33 48 -4 29 -10 58
-14 64 -5 8 -621 -104 -2038 -369 l-2032 -381 -1753 -588 -1753 -588 -34 -90
-34 -91 186 -418 185 -418 98 -48 c55 -27 113 -51 129 -53 17 -3 463 69 993
160 l963 164 822 -188 822 -188 1095 140 1095 141 750 -431 750 -431 3 -325 2
-325 -52 -5 c-41 -4 -4978 -88 -5077 -86 l-24 0 5 -196 c4 -129 10 -200 17
-207 9 -9 543 -22 2002 -48 1094 -20 1991 -38 1993 -40 3 -4 -842 -961 -896
-1015 l-23 -24 -220 160 c-121 88 -224 158 -230 156 -5 -2 -497 -165 -1093
-362 l-1082 -358 0 -118 c0 -114 -1 -118 -22 -123 -13 -3 -437 -108 -943 -234
l-920 -228 0 -3004 0 -3004 2200 -547 c1210 -301 2207 -547 2215 -545 9 1 51
119 128 362 63 198 115 361 117 363 2 3 483 -135 591 -169 23 -7 93 -81 269
-285 l237 -275 267 -134 266 -134 60 -88 60 -88 1065 -548 1065 -549 1275
-375 c701 -206 1287 -379 1303 -384 26 -7 33 -1 149 142 l122 149 90 0 c214
-1 1858 -49 1864 -55 4 -4 16 -50 28 -103 l20 -97 699 -3 699 -2 269 56 270
56 121 -121 121 -120 175 -16 c96 -8 192 -18 212 -21 26 -4 86 -41 205 -127
92 -68 202 -143 244 -168 l75 -46 1160 -7 c637 -3 1278 -9 1424 -13 l265 -6
257 -316 257 -316 636 -324 c350 -178 639 -330 642 -338 3 -7 1 -269 -5 -581
-11 -561 -12 -574 -67 -1207 -55 -631 -57 -653 -191 -1580 l-135 -940 -89
-196 c-88 -194 -89 -198 -190 -590 -90 -351 -159 -576 -627 -2049 l-526 -1655
-627 -1395 -627 -1395 -643 -1055 -643 -1055 -528 -745 -528 -745 -354 -422
c-340 -406 -361 -428 -501 -544 -80 -67 -146 -125 -146 -128 0 -4 66 -33 148
-64 l147 -57 217 0 216 0 587 250 586 251 789 600 789 600 944 965 945 965
1030 1337 1029 1338 1013 1690 1013 1689 882 1995 882 1995 352 1077 351 1078
275 1111 c152 612 274 1113 272 1115 -1 1 -25 6 -52 9 l-50 7 -215 -171 c-118
-93 -215 -169 -216 -168 -3 4 844 4019 849 4024 3 2 34 0 69 -5 34 -5 64 -9
66 -7 2 1 20 230 41 509 21 278 40 508 42 509 2 2 40 19 84 37 44 18 82 34 84
36 4 4 30 781 31 935 l0 97 -81 33 c-53 22 -84 40 -88 54 -4 11 -29 331 -55
710 l-48 690 -194 895 -195 895 -322 860 -321 860 -438 799 -439 798 -556 740
-557 740 -650 643 -651 644 -725 538 -725 539 -800 388 -800 389 -850 284
-850 285 -515 84 c-283 46 -520 84 -526 84 -6 0 -17 -79 -28 -212z"/>
</g>
</svg>
