<?xml version="1.0" standalone="no"?>
<!DOCTYPE svg PUBLIC "-//W3C//DTD SVG 20010904//EN"
 "http://www.w3.org/TR/2001/REC-SVG-20010904/DTD/svg10.dtd">
<svg version="1.0" xmlns="http://www.w3.org/2000/svg"
   viewBox="0 0 4693.000000 1221.000000"
 preserveAspectRatio="xMidYMid meet">
<metadata>
Created by potrace 1.16, written by Peter Selinger 2001-2019
</metadata>
<g transform="translate(0.000000,1221.000000) scale(0.100000,-0.100000)"
fill="#000000" stroke="none">
<path d="M17594 12196 c-13 -9 -29 -44 -43 -90 l-23 -76 -484 0 -484 0 0 30 0
30 -3145 0 -3145 0 0 55 0 55 -555 0 -555 0 0 -205 0 -205 -328 0 -328 0 -346
95 -346 95 -961 0 -961 0 0 -149 c0 -127 -2 -150 -16 -155 -9 -3 -96 -6 -194
-6 l-178 0 -140 -60 -141 -60 -165 0 -166 0 0 45 0 45 -2424 0 -2424 0 -6
-377 c-4 -208 -14 -508 -22 -668 -13 -262 -13 -321 1 -610 9 -176 19 -509 22
-740 5 -419 5 -420 28 -445 12 -14 46 -71 75 -128 37 -70 60 -104 74 -107 199
-47 352 -75 408 -75 l68 0 0 -30 0 -30 -69 0 -68 0 -7 -37 c-3 -21 -6 -59 -6
-84 l0 -47 -67 -15 c-38 -8 -116 -25 -174 -37 l-106 -23 -44 -90 c-24 -50 -59
-108 -76 -130 l-33 -39 0 -458 0 -458 32 -39 c18 -22 53 -80 77 -130 l43 -90
172 -36 171 -37 443 0 442 0 0 -115 0 -115 -180 0 -180 0 0 -95 0 -95 -90 0
-90 0 0 -155 0 -155 270 0 270 0 0 -80 0 -80 455 0 455 0 0 -40 0 -40 -120 0
c-113 0 -120 -1 -120 -20 0 -19 -7 -20 -150 -20 l-150 0 0 -38 c0 -34 10 -51
83 -135 46 -53 113 -119 150 -147 l67 -51 0 -94 0 -95 -150 0 -150 0 0 -40 c0
-36 9 -50 85 -138 47 -54 115 -120 152 -147 l66 -49 -7 -257 c-3 -142 -4 -276
0 -298 6 -37 10 -41 34 -41 20 0 54 -22 121 -77 l93 -78 -547 -3 -547 -2 0
-68 c0 -112 11 -103 -176 -142 -91 -19 -169 -37 -174 -40 -4 -3 -30 -50 -58
-105 -27 -55 -62 -111 -76 -124 l-26 -24 0 -462 0 -462 26 -24 c14 -13 49 -69
76 -124 28 -55 52 -102 53 -103 2 -2 84 -21 182 -43 134 -29 201 -39 271 -39
l92 0 0 -280 0 -280 295 0 295 0 0 -152 c0 -148 1 -155 37 -264 l37 -112 43
-13 43 -12 0 -97 0 -98 73 -7 c40 -4 480 -5 977 -3 l905 4 75 31 c41 16 108
42 147 57 73 28 73 28 73 65 l0 38 127 6 c71 4 290 12 488 18 l360 12 282 88
c156 49 285 89 288 89 3 0 5 77 5 170 l0 170 -710 0 -710 0 0 100 0 100 308 0
c296 0 310 1 327 20 18 19 31 20 427 20 394 0 408 1 408 19 0 18 16 19 469 23
419 3 496 6 480 22 -3 3 -165 8 -361 12 l-357 7 -21 29 -21 28 -314 0 c-198 0
-316 -4 -320 -10 -3 -6 -33 -10 -65 -10 l-59 0 -26 44 -26 45 22 38 22 39 386
-4 386 -4 18 31 18 31 360 0 c293 0 359 2 359 13 0 11 -62 15 -317 20 -174 4
-388 7 -475 7 -151 0 -158 1 -158 20 0 20 -7 20 -403 20 -390 0 -405 1 -422
20 -17 19 -33 20 -319 22 l-301 3 732 39 c687 37 734 39 751 23 32 -29 185
-20 803 51 l586 67 176 189 177 189 0 141 0 141 -145 90 c-80 49 -145 92 -145
95 0 3 112 117 249 254 149 149 251 244 255 237 5 -8 103 -11 326 -11 l319 0
19 25 20 25 258 0 c310 0 454 8 454 25 0 18 -209 25 -793 25 l-521 0 27 28 27
28 0 172 0 172 194 0 195 0 104 190 c114 207 128 252 108 355 -5 27 -8 52 -5
54 2 2 68 18 146 36 138 30 143 32 146 58 l3 27 -440 0 c-287 0 -441 3 -441
10 0 6 48 10 125 10 l125 0 0 178 0 177 253 212 252 212 1351 1 1351 0 179
-135 c165 -125 182 -136 217 -133 l37 4 0 -158 0 -158 456 0 456 0 41 32 c38
30 45 32 105 29 60 -3 72 -8 147 -58 l82 -54 7 -76 c3 -42 6 -119 6 -172 l0
-96 -95 -53 -95 -53 0 -172 0 -172 323 -323 322 -322 188 0 187 0 0 -45 0 -45
108 0 107 0 20 -72 20 -73 208 -3 c205 -2 209 -2 214 19 5 19 11 16 59 -32 50
-50 54 -57 54 -101 l0 -48 400 0 c349 0 400 2 400 15 0 13 53 15 414 15 l414
0 38 -96 c36 -89 43 -98 98 -140 l60 -44 605 0 606 0 107 41 108 42 0 68 0 69
-122 1 c-113 0 -142 5 -363 57 l-240 57 -3 108 -3 107 571 0 570 0 0 105 0
105 61 0 c60 0 61 0 130 -63 l69 -62 0 -137 0 -138 546 0 c537 0 546 0 551
-20 5 -19 14 -20 134 -20 l128 0 3 -182 3 -183 34 -47 35 -48 467 0 467 0 30
40 c29 39 29 43 36 208 5 119 12 173 22 190 14 21 19 22 194 22 l180 0 0 -181
0 -181 35 -48 c28 -38 42 -49 72 -54 21 -3 230 -6 465 -6 l428 0 35 48 35 47
0 158 c0 145 2 162 21 188 l21 29 176 -2 177 -3 5 -185 5 -185 33 -47 33 -48
464 0 465 0 35 48 c33 45 35 51 35 130 l0 82 195 0 195 0 167 125 166 125 447
0 447 0 77 61 c43 34 76 68 76 78 0 16 18 18 197 24 108 4 393 7 635 7 l438 0
0 -60 0 -60 61 0 c58 0 64 2 120 47 32 27 59 54 59 61 0 9 66 12 295 12 l295
0 0 30 0 30 -528 0 c-291 0 -745 3 -1010 7 l-482 6 85 59 c74 52 85 63 85 89
l0 29 -425 0 -425 0 0 160 0 160 205 0 205 0 0 25 0 25 103 0 c111 1 137 10
137 51 l0 25 284 -4 c274 -4 284 -4 304 16 19 19 38 20 376 27 338 7 356 9
356 26 0 18 -15 19 -337 20 -186 1 -429 5 -539 8 l-202 6 194 163 194 162 560
0 561 0 178 -135 c169 -126 181 -134 215 -128 l36 6 0 -167 0 -166 208 0 c114
0 319 3 455 7 l248 6 44 35 c43 33 48 34 105 29 59 -5 70 -12 420 -241 l360
-236 594 0 593 0 206 -150 205 -150 671 0 671 0 0 -415 0 -415 -288 0 -288 0
-27 -28 c-25 -26 -27 -34 -27 -120 l0 -91 139 -118 139 -118 7 -143 7 -144
100 -114 99 -114 91 0 91 0 -7 -31 c-3 -17 -6 -49 -6 -70 l0 -39 -220 0 -220
0 0 -85 c0 -102 -17 -93 205 -97 l160 -3 70 -45 70 -45 430 -5 430 -5 3 -240
c3 -300 22 -274 -205 -275 l-163 0 0 -189 0 -189 130 -116 c104 -92 137 -116
160 -116 25 0 30 -4 30 -23 0 -13 11 -34 25 -47 15 -14 25 -35 25 -52 l0 -28
693 0 692 1 587 577 587 577 1 327 0 327 85 201 c52 123 85 215 85 236 0 40 8
48 123 143 l77 64 0 113 0 114 -78 0 -78 0 3 37 c2 21 6 57 9 80 l5 43 54 0
c32 0 57 5 62 13 4 6 15 163 24 347 l17 335 -56 142 c-56 141 -57 143 -88 143
-17 0 -45 3 -61 6 l-29 6 13 106 c6 59 12 108 13 110 0 1 32 2 70 2 l70 0 0
80 0 80 275 0 275 0 0 155 0 155 -95 0 -95 0 0 95 0 95 948 0 947 0 178 132
177 132 0 92 0 92 488 6 c268 3 553 7 634 9 l148 3 31 -83 c17 -45 38 -88 46
-95 8 -6 252 -157 541 -335 l527 -323 124 0 c123 0 123 0 181 -35 l58 -35 588
0 c324 0 1050 -7 1614 -16 l1025 -16 530 -155 530 -154 60 -59 c58 -56 64 -59
173 -89 62 -17 117 -31 122 -31 6 0 10 78 10 200 l0 200 -81 232 -82 233 -244
420 -244 421 -228 289 c-126 160 -297 364 -381 455 l-152 164 40 20 c73 35 72
46 -8 184 -40 68 -69 129 -67 136 3 7 -193 211 -461 478 -438 436 -491 485
-852 790 -226 190 -518 424 -706 565 -312 234 -335 250 -825 541 -449 267
-563 329 -1039 570 -294 149 -810 399 -1147 556 l-611 286 -614 226 c-527 193
-705 253 -1273 428 -606 187 -702 214 -1170 324 -386 92 -683 154 -1225 257
l-715 136 -765 90 -765 89 -765 44 -765 45 -2015 10 c-1108 6 -2342 14 -2742
18 l-728 6 0 -37 c0 -33 -2 -36 -30 -36 -17 0 -38 -4 -48 -10 -43 -24 -305
-50 -513 -50 l-209 0 0 30 0 30 -560 0 -560 0 0 -30 0 -30 -130 0 -130 0 0 30
0 30 -560 0 -560 0 0 -30 0 -30 -135 0 -135 0 0 30 0 30 -555 0 -555 0 0 -30
0 -30 -135 0 -135 0 0 30 0 30 -560 0 -560 0 0 -30 0 -30 -205 0 -204 0 -24
75 c-28 89 -54 115 -93 95 -18 -10 -30 -33 -47 -89 l-23 -76 -258 0 -258 0
-24 76 c-17 55 -30 79 -47 88 -40 21 -64 -3 -91 -89 l-24 -75 -258 0 -258 0
-23 76 c-17 56 -29 79 -47 88 -40 22 -68 -6 -94 -94 l-22 -75 -258 0 -257 0
-19 65 c-19 67 -48 115 -70 115 -6 0 -21 -6 -32 -14z m-12414 -10096 l0 -40
-120 0 -120 0 0 40 0 40 120 0 120 0 0 -40z"/>
</g>
</svg>
