<?xml version="1.0" standalone="no"?>
<!DOCTYPE svg PUBLIC "-//W3C//DTD SVG 20010904//EN"
 "http://www.w3.org/TR/2001/REC-SVG-20010904/DTD/svg10.dtd">
<svg version="1.0" xmlns="http://www.w3.org/2000/svg"
   viewBox="0 0 2520.000000 3759.000000"
 preserveAspectRatio="xMidYMid meet">
<metadata>
Created by potrace 1.16, written by Peter Selinger 2001-2019
</metadata>
<g transform="translate(0.000000,3759.000000) scale(0.100000,-0.100000)"
fill="#000000" stroke="none">
<path d="M13586 37186 c-218 -222 -392 -407 -386 -411 5 -3 10 -14 10 -25 0
-10 7 -21 16 -24 9 -3 269 -6 579 -6 l563 0 -14 -52 c-7 -29 -14 -54 -14 -55
0 -2 27 -3 60 -3 l60 0 0 -335 0 -335 -60 0 c-58 0 -64 -2 -135 -56 -60 -45
-96 -63 -187 -93 -62 -20 -118 -40 -124 -43 -6 -4 -55 -83 -110 -175 l-99
-168 -5 -312 -5 -312 -228 216 -229 216 -120 -7 c-67 -3 -123 -7 -124 -9 -2
-2 48 -232 112 -513 l116 -509 -11 -170 c-8 -126 -35 -323 -106 -765 l-96
-595 6 -350 c3 -192 8 -360 11 -372 3 -16 0 -23 -11 -23 -8 0 -15 7 -15 15 0
8 -6 15 -14 15 -15 0 -20 -22 -37 -198 -11 -110 -11 -126 4 -157 21 -45 21
-43 -5 -47 -19 -2 -26 -15 -42 -75 -17 -64 -22 -73 -42 -73 -35 0 -74 -72 -74
-139 0 -70 33 -129 74 -133 26 -3 32 -9 50 -66 12 -35 27 -67 35 -71 9 -6 10
-14 4 -26 -7 -11 -2 -66 13 -168 13 -84 24 -158 24 -166 0 -8 7 -11 20 -8 18
5 20 0 20 -50 0 -35 4 -52 10 -48 7 4 9 -2 5 -17 -3 -12 -57 -342 -120 -733
-63 -390 -117 -720 -120 -732 -4 -17 20 -42 143 -144 81 -67 148 -123 150
-124 2 -2 7 -137 11 -301 8 -291 7 -313 -31 -809 -21 -280 -40 -515 -42 -521
-2 -6 -49 -42 -103 -79 -111 -77 -544 -385 -556 -395 -5 -4 -47 -197 -47 -217
0 -2 91 -3 203 -3 l204 0 -5 -30 -4 -30 -359 0 -359 0 0 -32 c0 -79 1 -78
-132 -78 l-119 0 -98 70 -98 70 -530 0 c-457 0 -532 -2 -543 -15 -17 -20 -9
-52 170 -690 83 -297 160 -575 170 -618 30 -125 -4 -116 463 -117 l398 0 35
75 35 75 118 0 c133 0 131 2 131 -82 l0 -38 268 -2 267 -3 -8 -72 -9 -73 -333
0 -332 0 -7 -31 c-3 -17 -6 -42 -6 -55 0 -24 0 -24 -123 -24 l-123 0 -97 70
-97 70 -529 0 c-593 0 -559 5 -547 -73 4 -23 83 -314 176 -647 93 -333 172
-622 176 -643 4 -25 16 -44 34 -57 27 -20 42 -20 425 -18 l397 3 31 73 31 72
122 0 121 0 7 -60 7 -60 241 0 c138 0 238 -4 232 -9 -5 -4 -144 -40 -308 -80
-165 -39 -300 -72 -301 -74 -1 -1 -144 -742 -318 -1647 -273 -1419 -364 -1918
-662 -3630 -190 -1092 -346 -1990 -348 -1997 -1 -8 -44 2 -129 30 -115 36
-127 43 -123 61 22 92 186 909 183 911 -2 1 -109 -6 -238 -16 -129 -10 -759
-57 -1400 -104 -1110 -83 -1166 -88 -1193 -108 -15 -12 -233 -204 -485 -427
l-457 -404 -420 -460 c-395 -432 -430 -473 -595 -703 l-175 -244 -17 103 c-10
66 -35 154 -68 243 -47 130 -53 155 -77 348 l-27 207 -38 0 c-22 0 -40 -5 -43
-12 -2 -7 -8 -105 -13 -218 l-9 -205 -52 -140 c-40 -110 -54 -162 -63 -243
l-11 -102 -209 -2 c-114 -1 -236 -2 -270 -3 l-62 0 -17 110 c-11 75 -34 160
-71 265 -51 145 -57 168 -79 352 l-23 198 -38 0 c-22 0 -40 -5 -43 -13 -2 -6
-8 -104 -14 -217 l-10 -205 -52 -140 c-38 -105 -54 -166 -63 -242 -7 -57 -15
-105 -17 -107 -2 -2 -129 -6 -281 -10 l-276 -6 -6 27 c-3 16 -11 66 -17 113
-7 54 -31 140 -65 235 -50 138 -56 165 -79 345 -14 107 -25 201 -25 208 0 7
-15 12 -40 12 -49 0 -47 11 -58 -240 l-9 -195 -51 -140 c-41 -111 -55 -163
-65 -250 l-12 -110 -235 -8 c-128 -4 -235 -9 -237 -10 -1 -2 -87 -446 -191
-988 l-188 -984 -47 -3 -47 -3 0 -39 0 -40 -327 -3 -328 -2 328 -3 327 -2 0
-45 c0 -43 1 -45 30 -45 26 0 30 -3 25 -23 -3 -12 -8 -38 -13 -57 -5 -29 -29
-56 -113 -133 l-107 -97 -801 0 c-705 0 -801 -2 -801 -15 0 -13 -25 -15 -157
-16 -122 -2 -144 -4 -98 -9 33 -4 104 -8 158 -9 79 -1 97 -4 97 -16 0 -13 54
-15 423 -15 l422 0 229 -97 228 -97 -33 -28 -33 -28 94 0 95 0 37 -105 37
-106 -96 -44 c-52 -25 -100 -45 -105 -45 -14 0 -40 -69 -33 -91 6 -17 16 -19
88 -19 112 1 766 75 780 89 7 7 60 11 147 11 l136 0 44 106 45 106 130 -6 c71
-3 659 -18 1305 -31 646 -14 1208 -28 1248 -31 l72 -6 0 -103 0 -103 -31 -6
c-17 -3 -51 -6 -75 -6 l-44 0 0 -625 0 -625 431 -473 431 -472 101 0 101 0
314 -340 c172 -187 349 -379 393 -427 l79 -86 -165 -198 c-91 -109 -164 -202
-163 -206 2 -4 356 -394 788 -867 734 -806 786 -861 817 -861 18 0 762 -36
1653 -80 891 -44 1640 -80 1665 -80 l45 0 0 -662 0 -663 123 -419 122 -420
390 5 c215 2 496 4 625 4 l235 0 51 -285 c28 -157 75 -419 104 -583 l54 -297
138 0 138 0 0 -700 0 -700 -25 0 c-24 0 -25 -2 -25 -63 0 -36 5 -68 12 -75 7
-7 31 -12 55 -12 l42 0 4 -493 c4 -447 11 -594 30 -613 3 -4 13 -4 21 -1 23 9
28 93 32 615 l5 492 367 0 c273 0 371 3 380 12 7 7 12 39 12 75 l0 63 -50 0
-50 0 0 700 0 700 198 1 197 0 699 685 699 685 324 516 325 515 79 207 c43
113 89 250 101 304 20 88 24 97 45 97 13 0 23 1 23 3 1 56 58 418 80 511 27
111 30 140 24 205 -4 50 0 124 10 211 24 193 21 185 66 205 43 19 41 15 59
153 5 41 11 75 13 76 2 2 309 34 683 73 l680 70 620 281 c499 227 621 285 623
302 3 19 11 20 185 21 100 1 443 5 762 8 l580 7 -435 2 c-239 1 -581 5 -759 9
l-324 6 7 101 c4 56 9 122 13 148 l6 48 211 1 c116 1 225 5 241 9 17 4 -77 8
-208 9 -195 1 -241 4 -253 16 -20 20 -13 19 -646 74 l-567 50 -236 122 c-129
67 -234 124 -232 126 2 2 655 -38 1450 -89 796 -50 1449 -89 1452 -86 3 3 11
96 19 207 7 111 16 204 18 207 3 2 95 -2 204 -11 109 -8 204 -15 210 -15 9 0
151 159 158 177 1 1 523 -30 654 -40 47 -3 52 -2 52 17 0 46 3 46 220 31 113
-7 417 -22 677 -31 434 -17 475 -17 520 -2 l48 16 -55 2 -55 1 45 19 c41 17
43 18 20 24 -14 3 -315 30 -670 61 -355 30 -664 58 -687 61 l-43 5 0 53 0 54
-127 6 c-148 8 -203 15 -203 26 0 4 45 110 100 235 55 125 100 234 100 241 0
8 -36 63 -81 124 l-81 110 -99 0 c-113 0 -105 -10 -92 109 l6 63 95 -4 95 -3
82 111 83 111 -163 214 c-189 249 -152 227 -395 228 l-145 1 -39 31 -38 32
234 89 233 89 408 -8 408 -8 32 -37 32 -36 285 -11 c413 -16 1246 -14 1285 3
21 10 26 15 15 19 -8 3 -258 17 -555 32 -297 14 -567 31 -600 36 -33 5 -339
47 -680 94 l-620 84 -233 -34 c-128 -19 -247 -35 -264 -35 l-30 0 7 100 7 100
-23 1 c-13 0 -193 10 -399 22 l-375 22 -3 81 -3 82 -37 6 c-20 3 -71 6 -112 7
-41 1 -102 5 -135 9 -57 7 -58 7 -15 9 25 0 240 -8 479 -20 238 -11 452 -19
475 -17 22 2 -187 16 -466 32 l-507 30 21 35 c55 91 35 82 178 75 l128 -7 7
72 c4 40 4 75 0 79 -3 4 -142 14 -308 23 -166 9 -279 17 -252 18 28 1 140 10
250 21 l200 19 859 -55 c925 -60 876 -59 876 -3 l0 26 362 6 c199 4 755 8
1237 9 l876 2 -645 7 c-355 3 -912 7 -1237 8 l-593 1 0 23 c0 21 -21 32 -197
104 l-198 80 -360 37 c-290 29 -906 76 -1004 76 -20 0 -21 5 -21 111 l0 112
98 -7 c53 -3 150 -9 214 -12 l117 -7 5 34 c8 54 40 1278 33 1285 -3 3 -109 20
-236 37 l-231 31 0 98 c0 86 -21 332 -36 426 -3 22 -10 32 -23 32 -15 0 -20
-24 -39 -218 -13 -119 -22 -241 -22 -270 0 -53 0 -54 -27 -48 -16 3 -66 10
-113 16 -47 6 -97 13 -112 16 l-28 6 0 106 c0 94 -23 378 -36 440 -3 15 -11
22 -22 20 -14 -3 -19 -29 -34 -163 -9 -88 -17 -212 -17 -276 l-1 -116 -92 13
c-51 8 -112 16 -135 19 l-43 6 -1 107 c0 59 -8 180 -17 268 l-17 162 300 121
300 120 425 -53 425 -53 342 127 341 128 474 -14 c355 -11 538 -12 733 -4 143
5 433 11 645 12 l385 2 -385 7 c-212 3 -469 7 -572 8 l-188 1 31 48 c38 60 39
60 349 63 199 2 226 4 145 9 -55 4 -178 8 -272 9 -170 1 -173 1 -173 22 0 12
13 151 30 308 29 281 52 667 43 726 -3 22 -134 187 -448 570 l-443 540 71 75
c40 41 123 128 185 193 l112 117 315 0 315 0 0 65 c0 36 3 65 8 65 4 0 6 35 4
77 -1 43 2 85 7 93 9 13 75 16 453 20 l443 6 -447 2 -448 2 0 28 c0 28 -4 30
-145 76 l-145 47 0 219 0 220 638 2 c360 0 598 4 547 9 -49 4 -336 7 -637 8
l-548 1 0 138 0 139 107 6 c58 4 377 8 707 9 478 1 551 3 356 8 -135 4 -453 8
-707 9 l-462 1 -3 112 -3 111 -502 324 -503 325 0 792 0 792 -265 615 -264
614 32 3 c18 2 328 32 691 67 362 35 661 67 665 70 11 12 249 630 242 632 -3
1 -417 81 -919 177 -502 97 -916 177 -921 180 -4 3 -65 83 -135 179 l-128 174
-88 12 -88 12 -17 40 c-10 21 -15 42 -12 46 4 3 175 22 381 42 206 20 377 39
380 42 14 14 245 623 239 629 -4 4 -321 67 -703 140 -382 73 -704 136 -716
141 -16 6 -53 81 -153 315 -81 190 -128 310 -121 314 5 3 104 15 220 25 115
10 213 21 218 24 14 9 252 625 244 632 -4 4 -412 84 -907 178 -495 95 -908
174 -917 177 -17 5 -258 327 -258 345 0 5 72 146 159 313 l160 302 -233 750
c-128 412 -311 1016 -407 1342 l-174 593 -550 513 c-551 514 -1185 1096 -1646
1513 l-246 222 -6 353 c-4 194 -7 458 -8 587 l0 235 453 625 c249 344 463 639
475 657 l22 32 -356 426 -357 426 -103 0 -103 0 0 335 0 335 101 0 102 0 -7
32 c-3 18 -11 48 -16 67 l-10 36 -197 48 c-182 43 -208 47 -322 47 l-123 0
-78 73 -78 74 -513 6 c-391 4 -515 3 -521 -6 -4 -7 -22 -51 -39 -99 l-31 -88
-562 0 -561 0 125 128 c69 70 237 241 375 379 226 228 248 254 234 268 -14 14
-54 -23 -413 -389z m-497 -6328 l-2 -183 -8 125 c-4 69 -10 151 -12 183 -2 42
0 57 10 57 10 0 13 -38 12 -182z m8 -280 c-2 -18 -4 -4 -4 32 0 36 2 50 4 33
2 -18 2 -48 0 -65z m6983 -16254 c-5 -49 -13 -109 -16 -134 l-7 -45 -13 70
c-23 128 -16 184 26 197 8 3 16 4 17 4 2 -1 -2 -42 -7 -92z m263 -1861 l97 -6
0 -104 0 -103 -37 0 c-21 0 -82 3 -135 7 l-98 6 0 104 0 103 38 0 c20 0 81 -3
135 -7z m483 -27 c1 0 4 -50 6 -109 l5 -108 -91 6 c-50 3 -115 8 -143 11 l-53
5 0 106 0 105 138 -7 c75 -4 138 -8 138 -9z m-8984 -383 c-5 -140 -9 -146 -11
-15 0 61 3 112 7 112 4 0 6 -44 4 -97z m6808 -67 c968 -68 1814 -131 1790
-134 -23 -3 -2013 99 -2227 114 -89 6 -93 7 -93 30 0 18 5 24 23 24 12 0 240
-16 507 -34z m-685 -2942 c28 -69 55 -128 60 -130 6 -2 115 -10 244 -19 129
-8 236 -16 237 -18 4 -4 -15 -299 -20 -304 -2 -2 -64 27 -137 65 -97 50 -184
86 -312 126 -167 53 -179 59 -174 79 3 12 13 91 23 175 10 83 20 152 23 152 3
0 29 -57 56 -126z m6112 -130 c-3 -3 -12 -4 -19 -1 -8 3 -5 6 6 6 11 1 17 -2
13 -5z"/>
<path d="M21823 11483 c15 -2 39 -2 55 0 15 2 2 4 -28 4 -30 0 -43 -2 -27 -4z"/>
</g>
</svg>
