<?xml version="1.0" standalone="no"?>
<!DOCTYPE svg PUBLIC "-//W3C//DTD SVG 20010904//EN"
 "http://www.w3.org/TR/2001/REC-SVG-20010904/DTD/svg10.dtd">
<svg version="1.0" xmlns="http://www.w3.org/2000/svg"
   viewBox="0 0 4739.000000 3353.000000"
 preserveAspectRatio="xMidYMid meet">
<metadata>
Created by potrace 1.16, written by Peter Selinger 2001-2019
</metadata>
<g transform="translate(0.000000,3353.000000) scale(0.100000,-0.100000)"
fill="#000000" stroke="none">
<path d="M41535 33405 l-1320 -123 -3260 -532 -3260 -531 -5340 -599 -5340
-600 -589 -145 c-324 -79 -593 -148 -597 -152 -4 -5 -40 -129 -79 -278 l-73
-270 12 -260 12 -260 87 -350 88 -350 585 -141 584 -141 2510 -128 c1381 -69
2515 -128 2520 -130 11 -3 131 -642 122 -651 -3 -3 -736 -46 -1629 -95 l-1623
-89 -746 -120 c-410 -66 -751 -120 -757 -120 -9 0 -12 -194 -12 -804 l0 -804
28 -6 c15 -3 360 -62 767 -130 l740 -125 2060 -91 2060 -90 1860 0 1860 0
1520 -486 1520 -487 458 -858 457 -859 66 -666 c36 -366 64 -667 62 -670 -3
-2 -117 -22 -254 -43 -224 -36 -379 -72 -1539 -361 l-1290 -322 -2590 -254
-2590 -254 -13000 -1030 -13000 -1031 -1308 -189 c-720 -104 -1310 -190 -1310
-192 -1 -2 0 -69 3 -150 l5 -147 290 -221 c160 -121 299 -222 310 -225 11 -2
497 -58 1080 -125 l1060 -120 12880 -915 12880 -915 2644 -426 2643 -426 467
-191 c256 -104 470 -193 475 -198 7 -6 -23 -144 -74 -340 -10 -35 -12 -37
-157 -93 l-148 -57 -100 -97 c-55 -53 -157 -152 -227 -220 l-128 -123 -60
-374 -60 -375 0 -1398 0 -1398 60 -344 60 -345 233 -232 232 -233 996 -400
997 -400 403 0 404 0 77 -47 77 -46 50 -125 c28 -69 50 -127 48 -128 -1 -2
-261 -8 -577 -14 l-575 -12 -557 -174 -558 -174 -330 -206 -330 -205 0 -104
c0 -90 -2 -104 -17 -109 -10 -2 -426 -58 -925 -123 l-908 -118 0 -732 c0 -421
4 -733 9 -733 5 0 419 -43 920 -95 502 -52 914 -95 917 -95 2 0 4 -46 4 -102
l1 -103 332 -206 332 -205 560 -192 560 -191 733 -14 c403 -8 735 -17 739 -21
4 -3 10 -334 14 -734 5 -400 12 -740 18 -757 15 -50 439 -1112 489 -1227 l47
-108 40 0 c22 0 731 13 1575 30 l1535 30 1410 162 1409 162 892 728 c490 400
894 734 897 741 3 8 299 1112 658 2453 l652 2439 -217 3415 c-119 1878 -268
4248 -331 5265 -63 1018 -178 2779 -255 3915 -118 1752 -280 4377 -280 4553 0
45 65 227 425 1194 l424 1142 26 1658 26 1658 -85 766 -84 766 -214 474 -214
474 -268 405 c-147 223 -271 409 -276 414 -5 5 -262 123 -570 262 l-562 254
-1007 85 c-553 47 -1022 85 -1041 84 -19 -1 -629 -57 -1355 -124z"/>
</g>
</svg>
