<?xml version="1.0" standalone="no"?>
<!DOCTYPE svg PUBLIC "-//W3C//DTD SVG 20010904//EN"
 "http://www.w3.org/TR/2001/REC-SVG-20010904/DTD/svg10.dtd">
<svg version="1.0" xmlns="http://www.w3.org/2000/svg"
   viewBox="0 0 4193.000000 502.000000"
 preserveAspectRatio="xMidYMid meet">
<metadata>
Created by potrace 1.16, written by Peter Selinger 2001-2019
</metadata>
<g transform="translate(0.000000,502.000000) scale(0.100000,-0.100000)"
fill="#000000" stroke="none">
<path d="M27075 4993 c-677 -24 -695 -25 -957 -62 -255 -36 -267 -37 -282 -19
-8 9 -26 20 -38 23 -13 2 -115 -10 -228 -28 l-205 -34 3 -58 c2 -59 16 -90 34
-79 5 3 2 -11 -6 -31 l-16 -37 158 6 c393 16 613 29 682 41 41 7 76 12 77 11
1 -1 5 -81 9 -177 l7 -176 -199 -6 c-109 -4 -307 -10 -439 -13 l-240 -6 -608
91 -608 91 -818 0 -817 0 -113 -80 c-112 -79 -115 -80 -175 -80 -34 0 -356 -7
-716 -15 -360 -8 -660 -15 -667 -15 -7 0 -15 -17 -18 -37 -12 -69 -15 -75 -38
-70 -12 3 -1221 11 -2687 18 -1466 6 -2671 15 -2678 19 -24 12 318 198 635
345 l302 140 56 78 56 78 -463 -6 c-255 -3 -1070 -10 -1813 -15 -742 -6 -2333
-19 -3535 -30 -1202 -11 -2846 -24 -3655 -29 l-1470 -10 -530 -172 c-366 -118
-584 -195 -705 -247 l-174 -75 -166 6 c-147 5 -173 4 -232 -14 -98 -29 -170
-75 -215 -138 l-38 -53 -203 5 c-194 5 -206 5 -272 -18 -98 -33 -160 -71 -197
-119 -56 -73 -64 -162 -21 -234 l20 -32 -154 -73 c-84 -40 -391 -167 -682
-282 l-529 -208 -418 -246 -419 -247 -252 -235 -253 -236 -84 -214 -84 -213
71 -216 72 -216 243 -156 242 -156 415 -72 c394 -67 1373 -196 1754 -231 89
-8 131 -15 115 -20 -13 -4 -172 -12 -354 -19 -181 -6 -331 -13 -333 -14 -1 -2
53 -28 120 -60 105 -48 196 -77 628 -196 l505 -140 580 -105 580 -105 550 -33
550 -33 1575 63 c1814 72 4635 167 7430 249 1070 32 1946 58 1948 60 8 5 -110
174 -121 174 -7 0 -147 18 -311 40 -294 39 -304 41 -645 136 -276 77 -416 123
-695 227 l-349 130 -1636 -47 c-900 -25 -1703 -48 -1786 -51 -82 -2 75 11 350
30 415 29 929 50 3035 124 1394 50 3321 119 4283 153 l1747 63 118 -117 c96
-95 167 -151 393 -311 l277 -195 368 -177 c369 -177 369 -177 809 -326 l439
-150 246 -9 c135 -5 553 -21 930 -35 377 -13 713 -27 748 -29 l62 -5 43 64 42
65 400 0 c220 0 504 3 631 7 l231 6 28 119 c16 65 32 123 35 128 5 8 230 3
726 -14 777 -28 1544 -49 2514 -70 l615 -13 317 176 c175 97 318 178 318 181
0 3 -38 27 -85 53 -47 27 -85 50 -85 52 0 3 218 161 250 180 8 5 127 28 264
50 l250 40 50 89 51 88 1790 -6 c985 -3 2182 -12 2660 -20 l870 -14 945 124
c767 101 966 130 1055 155 61 17 133 35 160 39 36 7 349 -11 1095 -61 l1045
-70 240 57 240 57 113 94 c61 51 112 96 112 98 0 3 14 70 31 150 l30 145 -63
109 c-50 85 -81 125 -148 188 l-85 80 -456 196 -456 195 -869 221 -869 220
-660 121 c-363 67 -889 166 -1170 221 l-510 100 -1315 174 c-723 96 -1646 215
-2050 265 -404 50 -890 110 -1080 134 l-345 44 -545 10 -545 10 -235 96 -235
96 -159 21 c-132 18 -174 28 -255 61 -71 29 -139 47 -266 69 l-169 31 -63 51
c-53 42 -63 56 -63 81 0 26 -12 42 -66 90 l-67 60 -473 -18 -474 -17 -181 81
c-162 71 -188 80 -238 79 -31 -1 -366 -13 -746 -26z"/>
</g>
</svg>
