<?xml version="1.0" standalone="no"?>
<!DOCTYPE svg PUBLIC "-//W3C//DTD SVG 20010904//EN"
 "http://www.w3.org/TR/2001/REC-SVG-20010904/DTD/svg10.dtd">
<svg version="1.0" xmlns="http://www.w3.org/2000/svg"
   viewBox="0 0 4491.000000 560.000000"
 preserveAspectRatio="xMidYMid meet">
<metadata>
Created by potrace 1.16, written by Peter Selinger 2001-2019
</metadata>
<g transform="translate(0.000000,560.000000) scale(0.100000,-0.100000)"
fill="#000000" stroke="none">
<path d="M29706 5463 c-14 -276 -32 -395 -81 -530 -41 -113 -52 -132 -132
-233 l-88 -110 -948 0 -949 0 -221 90 -222 90 -1028 0 -1029 0 -79 -35 -80
-35 -360 0 -360 0 -299 90 -299 90 -1180 0 -1180 0 -143 55 -143 55 -670 0
-670 0 -75 -55 -75 -55 -1326 0 -1326 0 -148 65 -147 65 -294 0 -295 0 -148
85 -148 85 -1822 0 -1821 0 -98 -75 -98 -75 -882 0 -881 0 -70 45 -70 45 -228
0 -228 0 -145 -45 -145 -45 -1327 0 -1328 0 0 -445 0 -445 -137 0 -138 1 -150
189 c-123 155 -155 190 -175 190 -34 0 -4244 -329 -4297 -336 -41 -5 -43 -7
-43 -38 0 -18 -3 -54 -6 -80 l-7 -46 -447 0 c-389 0 -449 -2 -454 -15 -4 -12
-24 -15 -86 -15 -73 0 -80 2 -80 20 0 36 -86 27 -250 -28 l-145 -49 0 -448 0
-448 145 -49 c162 -54 250 -64 250 -29 0 18 6 19 83 14 53 -4 85 -11 90 -19 7
-12 89 -14 451 -14 l443 0 7 -38 c3 -20 6 -54 6 -74 0 -36 1 -37 43 -42 127
-18 4321 -335 4326 -328 3 5 71 90 150 190 l144 182 139 0 138 0 0 -250 0
-250 2125 0 c1882 0 2125 -2 2125 -15 0 -13 81 -15 670 -15 589 0 670 2 670
15 0 12 18 15 100 15 93 0 100 -1 100 -20 0 -22 7 -22 630 3 168 6 577 12 909
12 l605 0 144 -190 144 -190 157 -7 c86 -5 892 -6 1791 -5 l1635 4 143 51 142
52 3103 0 3102 0 147 -60 146 -60 651 0 651 0 225 90 225 90 655 0 655 0 133
50 133 50 1287 0 c1016 0 1288 -3 1294 -12 4 -7 24 -58 44 -113 l36 -100 134
-5 134 -5 53 -36 c39 -27 72 -65 130 -150 l78 -114 59 -3 c33 -2 63 -6 68 -11
7 -7 157 -652 157 -678 0 -8 -9 -17 -20 -20 -11 -3 -20 -7 -20 -8 0 -2 41 -76
92 -166 63 -113 133 -218 226 -339 l134 -175 219 -111 220 -111 252 -17 c139
-9 271 -19 295 -22 34 -4 42 -2 42 10 0 14 69 16 670 16 l670 0 0 220 0 220
150 0 150 0 0 -85 0 -85 398 -5 c218 -2 449 -5 512 -6 151 -1 2016 19 2145 24
55 1 -369 4 -943 5 -593 1 -1041 6 -1038 11 3 5 42 14 86 21 45 7 88 19 95 27
9 9 46 16 102 19 57 4 101 12 123 24 32 16 83 18 633 25 l597 7 0 24 0 24
-147 0 c-82 1 -353 5 -604 10 -386 7 -461 11 -487 24 -17 9 -55 16 -84 16 -88
0 -128 10 -128 31 0 17 8 19 68 19 62 0 81 6 198 59 l129 58 78 114 77 114
-19 58 c-12 35 -40 82 -71 119 l-50 60 0 233 0 234 -37 10 c-21 5 -67 17 -103
26 -101 24 -105 27 -118 85 -7 28 -12 56 -12 61 0 5 30 9 68 9 65 0 70 2 173
65 95 58 113 65 158 65 l51 0 0 95 0 95 306 0 c416 0 431 -3 717 -131 l220
-99 549 0 548 0 184 135 184 135 715 0 715 0 162 95 162 95 348 0 c285 0 351
3 363 14 7 8 44 62 82 121 l68 107 296 -4 296 -3 168 98 c92 54 179 103 195
108 15 5 116 18 224 28 l196 19 196 116 195 116 283 0 283 1 243 68 c134 38
247 72 252 77 4 5 10 52 12 104 l3 94 -167 66 -168 65 -78 78 -77 77 -541 0
-541 0 -124 39 c-68 22 -144 45 -169 51 -25 6 -159 67 -299 136 l-253 124
-253 0 c-138 0 -279 3 -312 6 l-59 6 -39 61 -39 60 -257 -7 -257 -8 -41 26
-41 26 -415 0 -415 0 -66 -25 c-58 -22 -82 -25 -194 -25 l-128 0 -102 -160
-102 -160 -301 0 -302 0 -126 126 -127 127 -267 18 -266 17 -200 111 -200 111
-985 0 -984 0 -38 -57 -37 -58 -153 5 -154 5 -42 115 -43 115 -654 5 -654 5
-51 27 -51 27 5 71 5 70 -407 0 -406 0 0 40 0 40 -69 0 -69 0 -118 123 -118
122 -140 5 -141 5 -17 170 c-9 94 -19 214 -23 268 l-7 97 -143 0 -144 0 -5
-42 c-3 -24 -8 -83 -11 -133 -18 -267 -33 -359 -80 -490 -25 -70 -71 -176
-102 -236 l-58 -109 -222 0 -221 0 -95 108 c-94 107 -94 107 -136 234 -34 102
-46 158 -62 290 -10 90 -19 188 -19 218 0 30 -3 79 -6 108 l-7 52 -142 0 -142
0 -7 -92 c-24 -318 -44 -451 -86 -573 -39 -117 -44 -125 -133 -232 l-92 -112
-195 0 -195 0 -93 109 c-90 107 -95 114 -133 228 -45 132 -73 308 -84 535 l-7
137 -148 0 -147 0 -7 -137z"/>
</g>
</svg>
