<?xml version="1.0" standalone="no"?>
<!DOCTYPE svg PUBLIC "-//W3C//DTD SVG 20010904//EN"
 "http://www.w3.org/TR/2001/REC-SVG-20010904/DTD/svg10.dtd">
<svg version="1.0" xmlns="http://www.w3.org/2000/svg"
   viewBox="0 0 4275.000000 2306.000000"
 preserveAspectRatio="xMidYMid meet">
<metadata>
Created by potrace 1.16, written by Peter Selinger 2001-2019
</metadata>
<g transform="translate(0.000000,2306.000000) scale(0.100000,-0.100000)"
fill="#000000" stroke="none">
<path d="M9945 22900 c-400 -115 -650 -194 -919 -289 l-368 -131 -262 -182
c-143 -100 -313 -218 -376 -262 -110 -77 -129 -96 -424 -426 -283 -315 -380
-414 -1135 -1150 l-826 -805 -171 -235 -172 -236 -306 -149 c-261 -127 -306
-152 -306 -170 0 -12 14 -110 30 -218 17 -108 30 -207 30 -219 0 -22 -36 -32
-766 -223 l-765 -200 -326 -384 c-223 -262 -335 -387 -357 -396 -17 -7 -584
-218 -1261 -468 -676 -251 -1238 -459 -1248 -462 -15 -6 -7 -27 65 -164 45
-86 92 -169 104 -186 12 -16 71 -129 131 -250 60 -121 164 -322 231 -447 98
-184 299 -601 369 -767 8 -19 166 -316 350 -660 185 -344 360 -680 390 -746
74 -165 338 -663 488 -925 24 -41 115 -217 203 -390 302 -599 573 -1125 585
-1137 9 -8 299 -14 1062 -23 578 -7 1051 -13 1052 -14 2 -1 10 -67 18 -147 9
-79 55 -345 102 -591 l87 -446 175 -67 c97 -37 352 -141 566 -232 l390 -165
345 -344 345 -343 230 -86 c127 -48 235 -92 241 -98 7 -7 44 -199 84 -427 138
-793 602 -3217 1007 -5259 l408 -2053 285 -143 285 -142 281 -24 282 -23 308
22 309 23 291 141 290 141 124 196 124 196 373 1985 c357 1903 379 2026 529
2985 l156 1000 207 785 207 785 89 22 c50 12 125 29 169 38 l78 18 698 648
698 648 6 93 c29 436 48 986 42 1249 l-6 287 367 -4 c203 -2 457 -6 565 -8
l196 -3 6 81 c3 44 13 254 21 466 8 212 18 444 22 515 l6 130 261 242 261 242
185 1 c102 1 403 5 669 9 l484 7 726 -439 c678 -411 768 -461 1360 -774 349
-184 658 -346 685 -359 47 -21 101 -28 661 -75 336 -28 613 -54 617 -58 3 -3
138 -249 298 -546 161 -297 296 -542 300 -545 5 -3 294 -97 644 -210 l635
-204 43 -154 42 -154 142 -123 c166 -145 125 -131 539 -195 143 -23 380 -61
527 -85 147 -25 287 -45 312 -45 33 0 87 18 210 71 l166 71 87 134 c71 108 92
132 108 129 11 -2 245 -21 520 -41 275 -21 504 -41 508 -45 5 -4 -76 -144
-179 -310 -103 -167 -187 -311 -186 -321 0 -9 62 -337 137 -729 l137 -714 203
-210 c111 -115 371 -385 577 -600 l375 -389 356 -111 356 -110 1005 -844 1005
-845 581 -318 c320 -175 585 -318 590 -318 4 0 142 126 306 279 l298 279 50
-18 c167 -62 1060 -370 1063 -367 2 2 112 206 244 453 133 247 247 452 253
456 6 4 95 59 198 122 l187 115 26 -45 c14 -24 29 -44 33 -44 4 0 131 67 282
148 273 146 275 147 287 187 103 354 264 840 613 1850 149 431 190 545 193
545 1 0 120 16 264 35 245 32 268 37 380 80 l118 45 169 0 169 0 47 -44 47
-44 64 5 c71 4 5408 263 5439 263 19 0 20 7 20 160 l0 160 -27 0 c-16 -1
-1257 52 -2759 117 l-2731 117 -48 -42 -48 -42 -156 0 -157 0 -134 45 c-87 29
-169 49 -230 57 -52 6 -96 12 -98 13 -2 2 11 38 27 81 17 44 31 83 31 87 0 7
-317 564 -329 579 -3 3 -32 -5 -65 -18 -32 -14 -62 -22 -66 -17 -5 4 -32 64
-60 133 -29 69 -156 361 -283 650 l-231 525 -8 175 c-7 164 -22 335 -35 388
-5 23 -8 24 -94 20 -49 -1 -89 -2 -89 -1 0 3 -480 1531 -556 1773 l-65 205 20
291 c17 228 20 340 15 515 l-6 224 -191 685 -191 685 -475 783 -476 784 -439
526 -438 527 -463 425 -463 425 -469 301 c-362 233 -565 356 -899 542 l-431
240 -1329 241 -1329 240 -1437 191 -1438 190 -1032 -91 -1033 -91 -1070 170
c-588 94 -1312 208 -1608 252 l-539 80 -821 -134 -822 -135 -820 25 c-451 13
-982 33 -1179 43 l-360 18 -830 -28 c-457 -16 -859 -29 -892 -29 l-62 0 -124
223 -124 222 -645 618 -644 618 -315 237 -315 238 -175 37 c-96 20 -179 37
-185 36 -5 0 -257 -72 -560 -159z"/>
</g>
</svg>
