<?xml version="1.0" standalone="no"?>
<!DOCTYPE svg PUBLIC "-//W3C//DTD SVG 20010904//EN"
 "http://www.w3.org/TR/2001/REC-SVG-20010904/DTD/svg10.dtd">
<svg version="1.0" xmlns="http://www.w3.org/2000/svg"
   viewBox="0 0 4116.000000 1108.000000"
 preserveAspectRatio="xMidYMid meet">
<metadata>
Created by potrace 1.16, written by Peter Selinger 2001-2019
</metadata>
<g transform="translate(0.000000,1108.000000) scale(0.100000,-0.100000)"
fill="#000000" stroke="none">
<path d="M31977 11065 c-27 -7 -56 -20 -66 -29 -15 -14 -64 -16 -352 -18
l-334 -3 90 -65 c49 -36 104 -81 122 -99 31 -33 33 -39 33 -108 l0 -73 -1390
-2 -1389 -3 566 -185 566 -185 234 -144 235 -144 145 -174 146 -174 -7 -200
-7 -199 854 0 854 0 9 -72 9 -73 463 0 464 0 -6 -29 c-3 -16 -6 -37 -6 -47 0
-13 -15 -27 -44 -41 -39 -19 -45 -27 -57 -72 -11 -39 -20 -52 -39 -58 -14 -4
-45 -13 -69 -20 l-43 -13 -64 -154 c-35 -85 -66 -156 -68 -159 -3 -2 -48 -1
-101 3 l-95 7 0 29 c0 35 -3 37 -105 46 l-80 8 -8 115 c-4 63 -10 116 -12 118
-2 2 -370 -3 -817 -12 -922 -18 -3151 -37 -5423 -45 l-1540 -6 -2340 -79
c-1287 -43 -2350 -80 -2362 -82 -20 -4 -23 -11 -23 -48 l0 -44 -62 -6 c-35 -4
-84 -9 -110 -12 l-48 -6 0 -61 0 -62 -658 -82 -657 -83 -522 -165 -522 -165
-1236 0 -1235 0 0 -280 0 -280 -1090 0 -1091 0 -1157 245 c-636 135 -1167 247
-1180 250 -21 5 -22 10 -22 114 l0 109 27 6 c27 6 410 66 419 66 2 0 3 88 2
196 l-3 197 -205 54 c-178 46 -272 63 -715 128 -280 41 -510 75 -511 75 -1 0
119 525 121 528 1 2 81 23 176 49 96 25 177 49 181 52 5 4 -8 55 -28 114 l-36
107 -898 0 -898 0 -215 -49 c-216 -49 -245 -60 -295 -113 l-22 -25 147 -28
c82 -15 243 -46 360 -69 l212 -41 -274 -268 -274 -268 -203 -25 c-112 -13
-534 -65 -938 -115 l-735 -91 -1780 -428 c-979 -236 -2137 -515 -2572 -622
l-793 -193 0 -92 c0 -53 4 -93 10 -93 5 0 402 74 882 165 480 91 879 165 885
165 10 0 13 -59 13 -265 l0 -264 -32 -6 c-18 -4 -550 -104 -1183 -224 l-1150
-217 -3 -1050 -2 -1050 1182 -225 1183 -225 3 -222 2 -221 33 -9 c19 -5 965
-238 2103 -517 l2069 -507 218 -109 217 -110 0 -143 0 -143 31 -7 c17 -3 56
-6 85 -6 44 0 59 -5 86 -29 46 -39 111 -51 293 -51 168 0 249 12 281 41 20 18
33 19 220 13 183 -6 201 -8 229 -29 50 -36 110 -46 310 -48 183 -2 192 -1 237
22 l46 24 299 -12 c164 -6 390 -13 503 -16 113 -3 226 -8 253 -11 l47 -5 0
149 0 149 225 109 225 109 2 549 3 550 1145 378 1145 378 986 0 987 0 113 130
114 130 1633 0 1632 0 0 165 0 165 1040 0 1040 0 0 -100 0 -100 630 0 630 0 0
220 0 220 623 0 c343 0 793 3 1000 7 l377 6 0 -226 0 -227 105 0 105 0 0 -285
c0 -265 1 -285 18 -285 9 0 888 -47 1952 -105 l1935 -105 618 -119 c340 -65
619 -120 621 -122 1 -2 33 -55 71 -118 l68 -114 1021 6 c562 4 1209 10 1440
14 l418 6 -4 104 -5 103 176 0 c138 1 1616 27 1629 29 2 1 1 13 -2 29 -2 15
-8 86 -11 158 l-7 131 219 6 c447 14 1273 30 1277 26 3 -2 9 -272 15 -599 7
-327 14 -677 17 -778 l6 -182 69 0 69 0 0 -184 c0 -101 3 -191 6 -199 4 -12
-10 -18 -67 -28 l-72 -13 6 -215 c4 -119 7 -537 7 -930 0 -628 2 -712 15 -701
18 15 210 66 316 84 l76 13 48 -60 c26 -33 52 -77 58 -99 6 -24 14 -37 22 -34
7 2 306 107 666 232 l654 228 376 206 c350 193 397 222 684 426 301 213 317
227 646 529 304 279 366 343 633 640 l296 330 316 470 317 470 230 495 229
495 119 381 c107 347 125 417 198 770 45 213 81 394 81 401 0 7 -54 49 -119
92 l-119 80 -12 58 c-6 32 -13 67 -16 78 -3 15 18 37 92 95 53 41 98 78 100
82 11 17 -209 443 -326 633 -67 110 -242 377 -387 594 -250 373 -275 406 -460
615 -107 122 -297 320 -421 442 -205 199 -259 245 -562 476 -307 233 -362 271
-650 443 -291 173 -344 201 -687 356 -347 157 -395 175 -740 288 -421 137
-861 257 -1343 366 -446 101 -1013 184 -1435 210 l-280 18 -38 30 c-53 41 -87
47 -307 46 -200 0 -249 -7 -289 -43 -15 -14 -58 -16 -331 -16 l-314 0 -40 28
-39 27 -206 2 c-150 2 -219 -2 -254 -12z m-17107 -5045 l0 -80 65 0 c63 0 668
-11 3430 -65 1784 -35 8803 -164 9280 -170 215 -4 404 -8 422 -11 29 -4 32 -9
42 -55 6 -27 11 -63 11 -79 0 -25 -5 -30 -32 -35 -18 -3 -292 -43 -608 -89
l-575 -84 -1470 55 -1469 54 -112 59 c-105 57 -115 60 -181 60 l-69 0 -59 -60
-59 -60 -223 0 -223 0 0 -85 0 -85 -780 0 -780 0 0 75 0 75 -630 0 -630 0 0
-65 0 -65 -1040 0 -1040 0 0 110 0 110 -1630 0 -1630 0 -114 85 -113 85 -993
0 -992 0 6 73 c3 39 8 115 11 167 3 52 8 110 11 128 l5 32 1084 0 1085 0 0
-80z"/>
</g>
</svg>
