<?xml version="1.0" standalone="no"?>
<!DOCTYPE svg PUBLIC "-//W3C//DTD SVG 20010904//EN"
 "http://www.w3.org/TR/2001/REC-SVG-20010904/DTD/svg10.dtd">
<svg version="1.0" xmlns="http://www.w3.org/2000/svg"
   viewBox="0 0 3886.000000 767.000000"
 preserveAspectRatio="xMidYMid meet">
<metadata>
Created by potrace 1.16, written by Peter Selinger 2001-2019
</metadata>
<g transform="translate(0.000000,767.000000) scale(0.100000,-0.100000)"
fill="#000000" stroke="none">
<path d="M6 7388 c4 -156 7 -284 8 -285 0 0 255 -20 566 -43 311 -22 575 -43
587 -46 17 -3 40 -39 95 -144 l73 -140 45 0 c75 0 1533 -70 1537 -73 1 -2 -48
-16 -110 -32 -61 -15 -113 -29 -114 -30 -2 -1 -9 -35 -16 -76 -10 -51 -13
-121 -9 -224 l4 -150 1172 -264 1171 -264 775 -350 c426 -192 793 -358 815
-369 22 -11 229 -131 459 -267 l419 -246 276 -283 276 -283 132 -201 131 -201
48 -171 c26 -94 54 -177 63 -184 13 -12 373 -13 2134 -10 l2119 3 13 -32 c8
-18 75 -142 149 -275 l136 -243 201 -215 202 -215 296 -190 c248 -160 351
-219 631 -362 l335 -170 167 -12 166 -11 691 -235 690 -234 1093 -230 1093
-230 1649 -201 c908 -110 1660 -200 1672 -200 13 0 102 48 198 107 l176 106
57 -9 58 -9 3 -98 3 -97 419 0 420 0 0 86 0 86 48 -6 c26 -4 389 -40 807 -81
418 -41 772 -76 787 -78 26 -3 33 7 133 181 59 101 103 188 98 192 -4 4 -336
79 -738 168 l-730 160 -527 279 -528 278 -352 319 c-194 176 -361 331 -370
345 l-17 26 947 -57 c709 -42 1253 -68 2162 -103 1043 -39 1230 -48 1320 -65
110 -21 1210 -150 1279 -150 44 0 40 -7 56 125 l6 50 -575 133 -576 133 -335
125 c-274 101 -379 146 -573 244 -130 65 -248 129 -262 140 l-25 21 50 -5 c28
-4 327 -31 665 -62 l615 -55 46 51 47 52 1773 24 c975 13 1774 22 1776 20 10
-10 -68 -120 -191 -268 -111 -134 -169 -193 -310 -316 l-174 -151 -246 -120
-247 -120 -399 -83 -400 -83 0 -74 0 -73 73 6 c39 3 310 22 602 42 499 34 532
35 561 19 29 -15 35 -15 130 9 89 23 188 31 915 81 l814 56 830 124 830 124
588 148 587 148 0 50 0 50 493 158 c491 159 493 159 802 303 l310 145 140 115
c101 82 160 140 213 207 65 83 75 102 108 204 l35 113 73 0 73 0 17 -63 c9
-34 20 -68 25 -75 16 -26 274 -43 731 -49 l445 -5 385 51 c488 65 757 129 832
199 l28 25 -68 130 -67 129 -187 176 -188 176 -347 192 -348 191 -460 151
c-339 111 -585 183 -935 276 l-475 126 -1236 229 c-936 174 -1382 252 -1835
321 -330 50 -979 151 -1444 225 l-845 135 -1511 165 c-1442 157 -1607 173
-3640 350 l-2129 185 -5295 265 c-4133 207 -5296 262 -5302 252 -4 -6 -74
-100 -155 -207 -170 -224 -142 -208 -330 -195 l-103 7 0 34 0 34 -190 0 c-153
0 -191 3 -197 14 -6 11 -446 58 -2013 216 -2130 214 -2812 290 -2840 315 -11
10 -101 22 -335 43 l-320 29 -64 38 -63 39 -297 28 c-163 15 -301 27 -307 28
-6 0 -34 -38 -63 -85 -28 -47 -57 -85 -64 -85 -7 0 -246 21 -532 45 -483 41
-665 51 -2585 135 -1136 49 -2071 90 -2078 90 -10 0 -11 -58 -6 -282z"/>
</g>
</svg>
