<?xml version="1.0" standalone="no"?>
<!DOCTYPE svg PUBLIC "-//W3C//DTD SVG 20010904//EN"
 "http://www.w3.org/TR/2001/REC-SVG-20010904/DTD/svg10.dtd">
<svg version="1.0" xmlns="http://www.w3.org/2000/svg"
   viewBox="0 0 4028.000000 3027.000000"
 preserveAspectRatio="xMidYMid meet">
<metadata>
Created by potrace 1.16, written by Peter Selinger 2001-2019
</metadata>
<g transform="translate(0.000000,3027.000000) scale(0.100000,-0.100000)"
fill="#000000" stroke="none">
<path d="M11665 30177 c-242 -50 -441 -91 -443 -92 -1 -1 -25 -78 -52 -171
l-50 -168 0 -2722 0 -2723 -255 -187 -255 -188 0 -1827 0 -1826 254 -199 255
-199 0 -962 c1 -869 -1 -963 -15 -963 -17 0 -2618 -336 -2671 -345 -26 -5 -94
-78 -450 -485 l-418 -479 -1707 -1 -1708 0 0 -70 0 -70 -800 0 c-789 0 -799 0
-810 -20 -11 -20 -21 -20 -770 -20 l-760 0 0 -125 c0 -108 2 -125 16 -125 9 0
253 -54 544 -120 291 -66 531 -120 534 -120 3 0 6 -90 6 -200 l0 -200 -180 0
-180 0 0 55 0 55 -85 0 -84 0 -10 -37 c-6 -21 -11 -46 -11 -55 0 -17 -29 -18
-470 -18 l-470 0 0 55 0 55 -89 0 -89 0 -6 -37 c-14 -79 0 -73 -179 -73 l-162
0 -47 -73 -48 -73 0 -202 0 -202 55 0 55 0 0 -325 0 -325 -55 0 -55 0 0 -212
0 -212 48 -73 47 -73 167 0 166 0 7 -40 7 -40 89 0 89 0 0 40 0 40 470 0 469
0 11 -40 11 -40 84 0 85 0 0 40 0 40 180 0 180 0 0 -113 0 -113 75 -84 c51
-57 71 -86 62 -91 -17 -9 -550 -139 -571 -139 -14 0 -16 -16 -16 -120 l0 -120
1245 0 1245 0 0 -85 0 -85 205 0 205 0 2 -232 3 -232 195 -65 195 -66 489 -5
490 -5 22 -90 c12 -49 39 -161 59 -247 l37 -158 1742 0 1741 0 374 595 c363
578 375 595 405 595 17 0 205 -7 419 -17 l387 -17 0 -6191 0 -6191 50 -168
c27 -93 51 -170 52 -171 2 -1 208 -43 458 -94 l455 -92 1890 1 1890 0 185 353
185 352 5 5109 5 5109 153 -176 153 -177 42 0 c23 0 251 -11 507 -25 256 -14
486 -25 513 -25 l47 0 0 -437 0 -438 61 -68 61 -67 169 0 169 0 0 -68 0 -68
68 -67 68 -67 551 0 552 0 44 73 43 72 1338 0 1337 0 57 -122 57 -123 1210 0
1211 0 67 68 67 68 0 437 0 437 68 -5 c69 -6 822 -45 860 -45 l22 0 0 -745 0
-745 48 0 c26 1 733 38 1572 84 l1525 82 2998 1614 2997 1614 0 43 0 43 410 0
410 0 70 35 70 35 0 145 c0 109 3 145 13 146 6 0 548 33 1202 72 l1190 72 5
-224 5 -225 105 -48 105 -48 313 0 312 0 0 95 0 95 83 0 82 1 299 400 c187
250 308 404 323 410 13 5 69 9 124 9 96 0 99 1 99 23 0 12 29 407 66 878 l66
856 -533 646 -534 647 -137 0 -138 0 0 444 0 445 -42 6 c-43 5 -5029 454
-7403 665 -682 61 -3399 304 -6038 540 l-4798 430 -2185 -2 -2184 -3 0 2706 0
2706 -99 181 c-90 164 -112 197 -259 374 l-161 193 -1 1918 0 1917 133 0 133
0 818 245 c451 135 821 245 822 245 2 0 4 101 4 224 l0 225 -186 303 -186 304
-717 47 -716 48 -1885 -2 -1885 -1 -440 -91z m1718 -1504 l67 -6 0 -612 0
-611 380 -1085 380 -1084 0 -194 0 -194 -97 6 c-54 4 -146 7 -205 7 l-108 0 0
208 0 207 -345 1035 -345 1035 0 647 0 648 103 0 c56 0 132 -3 170 -7z
m-12053 -13468 c0 -2 -20 -18 -45 -35 l-45 -31 0 -443 0 -442 72 -50 72 -49
-177 -3 c-97 -1 -256 -1 -352 0 l-175 3 25 53 25 54 0 441 c-1 364 -3 446 -15
467 -8 14 -14 28 -15 33 0 4 142 7 315 7 173 0 315 -2 315 -5z m780 -525 l0
-530 -146 0 -145 0 7 23 c3 12 13 34 20 49 22 42 20 917 -1 958 l-16 30 141 0
140 0 0 -530z"/>
</g>
</svg>
