<?xml version="1.0" standalone="no"?>
<!DOCTYPE svg PUBLIC "-//W3C//DTD SVG 20010904//EN"
 "http://www.w3.org/TR/2001/REC-SVG-20010904/DTD/svg10.dtd">
<svg version="1.0" xmlns="http://www.w3.org/2000/svg"
   viewBox="0 0 4273.000000 2707.000000"
 preserveAspectRatio="xMidYMid meet">
<metadata>
Created by potrace 1.16, written by Peter Selinger 2001-2019
</metadata>
<g transform="translate(0.000000,2707.000000) scale(0.100000,-0.100000)"
fill="#000000" stroke="none">
<path d="M11675 26885 c-544 -155 -707 -206 -1081 -338 l-442 -157 -444 -312
-445 -313 -366 -408 c-356 -396 -393 -434 -1334 -1351 l-968 -944 -195 -270
-195 -270 -363 -178 c-351 -172 -363 -178 -358 -203 24 -123 77 -524 70 -530
-5 -4 -411 -113 -902 -241 l-893 -234 -382 -452 c-210 -249 -391 -456 -402
-460 -83 -29 -2970 -1096 -2973 -1099 -6 -6 180 -366 205 -396 13 -15 80 -142
148 -281 68 -139 172 -341 230 -448 134 -247 252 -484 404 -818 83 -184 234
-477 497 -965 208 -386 415 -781 460 -879 45 -97 126 -259 180 -360 151 -284
342 -635 394 -723 26 -44 98 -184 159 -312 62 -127 140 -284 175 -350 35 -65
163 -314 286 -553 122 -239 240 -467 261 -506 l39 -71 663 -8 c364 -4 919 -10
1234 -14 314 -3 574 -9 578 -13 4 -3 15 -91 26 -195 14 -134 47 -325 115 -668
52 -264 96 -489 99 -501 4 -17 44 -36 212 -99 115 -43 413 -166 663 -272 l455
-194 405 -404 405 -404 275 -102 c151 -55 278 -104 282 -108 4 -3 48 -242 98
-531 146 -844 683 -3640 1184 -6170 256 -1290 468 -2354 470 -2365 4 -15 93
-64 343 -187 l338 -168 326 -27 325 -28 363 27 363 27 341 166 342 166 144
230 144 230 439 2342 c435 2322 440 2352 623 3507 l183 1165 242 915 c133 503
243 917 245 918 2 2 89 23 194 46 127 28 198 49 212 62 12 10 382 354 823 762
l801 744 28 576 c23 480 27 641 23 955 l-4 378 663 -7 662 -7 6 114 c4 63 16
344 27 624 11 281 23 542 26 582 l6 72 281 262 c155 145 293 273 307 285 l25
23 782 12 782 11 868 -525 868 -525 780 -410 780 -410 725 -62 c399 -34 728
-65 732 -68 3 -4 161 -295 351 -646 l344 -639 754 -241 754 -241 33 -115 c18
-63 42 -146 53 -183 l20 -68 165 -144 c196 -171 127 -147 684 -235 212 -34
489 -78 615 -100 373 -62 313 -66 551 36 l204 87 100 154 c86 132 103 153 125
153 32 0 1416 -107 1497 -116 l57 -6 86 -133 c66 -102 98 -164 135 -262 35
-94 1372 -3316 1512 -3646 19 -44 111 -124 1193 -1032 l1172 -984 675 -370
c371 -203 681 -373 689 -376 9 -3 138 110 364 320 193 179 355 325 360 325 6
0 299 -101 653 -224 433 -150 645 -219 650 -212 4 6 134 246 288 534 l282 524
232 139 c128 77 234 138 235 137 1 -2 15 -27 30 -56 16 -29 32 -51 36 -50 4 2
154 82 332 178 l325 174 11 51 c49 216 501 1550 1071 3165 133 377 262 737
286 801 24 64 44 119 44 121 0 7 -379 671 -388 680 -4 4 -36 -6 -72 -22 -36
-16 -69 -30 -75 -30 -5 0 -41 76 -79 168 -38 92 -189 442 -336 777 l-268 610
-11 235 c-6 129 -18 278 -26 330 -8 52 -15 99 -15 104 0 5 -44 6 -104 2 l-104
-7 -21 63 c-11 35 -133 425 -271 868 -138 443 -294 940 -346 1104 l-95 299 21
293 c13 195 20 393 20 593 l0 301 -227 813 -226 812 -560 920 -560 920 -514
618 -515 617 -541 498 -542 497 -565 361 c-455 291 -660 415 -1055 637 l-490
275 -1555 281 -1555 280 -1695 225 -1695 224 -1165 -104 c-641 -57 -1190 -104
-1220 -105 -30 0 -622 89 -1315 200 -1350 215 -2436 381 -2490 381 -18 0 -453
-70 -966 -156 l-934 -156 -945 27 c-520 15 -1145 37 -1390 50 l-445 22 -1045
-34 c-575 -18 -1050 -31 -1056 -29 -6 2 -76 120 -155 261 l-144 257 -767 735
-768 735 -352 265 c-193 146 -363 269 -377 274 -24 8 -413 90 -415 88 -1 -1
-289 -83 -641 -184z"/>
</g>
</svg>
