<?xml version="1.0" standalone="no"?>
<!DOCTYPE svg PUBLIC "-//W3C//DTD SVG 20010904//EN"
 "http://www.w3.org/TR/2001/REC-SVG-20010904/DTD/svg10.dtd">
<svg version="1.0" xmlns="http://www.w3.org/2000/svg"
   viewBox="0 0 4386.000000 2785.000000"
 preserveAspectRatio="xMidYMid meet">
<metadata>
Created by potrace 1.16, written by Peter Selinger 2001-2019
</metadata>
<g transform="translate(0.000000,2785.000000) scale(0.100000,-0.100000)"
fill="#000000" stroke="none">
<path d="M6186 27788 c-21 -206 -13 -261 67 -518 20 -63 77 -252 127 -420 50
-168 149 -494 220 -725 71 -231 160 -530 199 -665 38 -135 149 -479 246 -764
96 -286 174 -520 173 -522 -3 -2 -277 10 -454 20 l-91 5 -83 -114 -84 -115
-50 0 c-28 1 -285 18 -571 39 l-520 38 -1165 -258 -1164 -259 -41 -40 -41 -40
-1477 0 -1477 0 0 -100 0 -100 1364 -2 1365 -3 -1362 -180 -1362 -180 -3
-1116 -2 -1116 37 -5 c21 -3 602 -79 1290 -169 l1252 -164 -1289 -3 -1290 -2
0 -95 0 -95 1486 0 1486 0 35 -30 34 -30 3649 0 3650 0 0 180 0 180 289 0 288
0 7 -37 c3 -21 6 -59 6 -85 l0 -47 -292 -265 -293 -265 -3 104 -3 105 -3652 0
-3652 -1 -35 -29 -34 -30 -1483 0 -1483 0 0 -95 0 -95 1302 -2 1303 -3 -1300
-170 -1300 -171 -3 -1115 -2 -1116 117 -16 c65 -9 673 -89 1352 -179 l1234
-163 -1352 -3 -1351 -2 0 -100 0 -100 1482 0 1482 0 41 -40 41 -40 1149 -256
1150 -257 579 37 c318 21 582 34 586 29 4 -4 42 -54 84 -110 l77 -103 72 0
c40 0 205 7 367 15 162 8 320 15 350 15 l55 1 84 132 c47 73 86 134 88 136 2
3 598 45 1326 95 l1322 91 5 585 5 584 304 -277 304 -277 118 0 118 0 5 -32
c13 -75 106 -945 117 -1083 9 -119 15 -152 28 -160 9 -5 473 -260 1031 -567
l1015 -557 147 151 147 150 1288 -777 1288 -777 305 -308 305 -308 2960 -1508
c1628 -829 3073 -1565 3211 -1636 l251 -128 82 129 82 130 67 -48 c37 -26
1327 -936 2867 -2021 1540 -1085 2804 -1976 2808 -1980 5 -4 41 -113 80 -241
l72 -234 217 -152 216 -151 1384 -111 c760 -61 1398 -114 1416 -117 l32 -5 0
-147 0 -147 163 -66 162 -65 6 -129 7 -129 -55 -139 -54 -139 437 -754 437
-754 454 -371 c249 -203 460 -372 468 -375 9 -4 176 13 373 36 l357 42 670
-272 c369 -150 687 -279 708 -287 32 -13 37 -19 37 -48 0 -30 26 -57 339 -344
l340 -311 509 0 509 0 30 -78 29 -77 833 0 833 0 30 78 29 77 827 0 827 0 236
308 236 308 7 470 c4 258 9 470 10 471 1 1 202 7 446 14 245 6 446 13 447 14
2 0 6 65 9 143 l7 142 144 0 143 0 0 779 0 778 -52 6 c-28 4 -55 10 -58 14 -4
5 -33 85 -64 178 l-56 170 0 470 0 471 -120 224 -120 225 0 1720 0 1720 223
158 224 158 6 232 c4 128 7 280 7 338 l0 107 136 238 136 237 -28 305 -29 305
-202 91 -202 91 6 127 6 127 -43 3 -43 3 -24 85 c-12 47 -28 102 -33 123 l-11
37 -114 0 -115 0 0 33 c0 17 25 799 55 1737 l55 1705 35 30 c19 16 77 68 129
115 l95 85 -5 120 c-4 117 -8 298 -39 1685 -13 598 -17 689 -41 900 -15 129
-31 239 -35 244 -4 5 -64 2 -141 -8 -73 -10 -140 -18 -148 -19 -10 -1 -16 13
-22 53 -31 222 -52 356 -58 363 -4 4 -78 29 -164 56 -87 26 -162 54 -166 62
-9 17 -82 330 -78 333 2 2 67 18 144 37 l141 34 -173 468 -173 467 -282 490
-283 490 -429 515 -430 514 -41 -35 -40 -34 -66 63 c-36 35 -150 146 -255 246
l-190 182 -308 176 -307 176 -41 -46 -40 -46 -47 34 c-26 19 -258 167 -516
329 l-469 295 -283 123 -284 123 0 255 0 255 -343 211 -342 211 -860 178
c-473 98 -866 180 -872 183 -10 3 -13 65 -13 261 l-1 256 -98 175 c-72 126
-106 177 -123 183 -20 6 -1802 283 -1867 290 -21 2 -33 -16 -112 -160 l-88
-162 -22 -150 -22 -151 -96 -29 c-285 -87 -370 -111 -400 -111 -18 0 -440 47
-938 105 -497 58 -915 105 -927 105 -21 0 -24 -7 -36 -90 -7 -49 -13 -90 -14
-90 -1 1 -1622 182 -3603 403 -1981 222 -3605 405 -3608 409 -4 3 -17 82 -31
174 -13 92 -26 169 -27 170 -5 6 -881 92 -3447 339 -1400 134 -2566 247 -2592
251 l-47 6 -32 96 c-17 54 -36 102 -43 108 -12 12 -601 78 -615 69 -5 -2 -44
-71 -87 -151 -44 -81 -84 -148 -89 -151 -9 -3 -2300 224 -2447 243 -43 5 -50
10 -73 49 -14 24 -30 47 -35 50 -10 6 -229 29 -1124 116 l-539 52 -18 -24
c-10 -13 -24 -33 -32 -44 -15 -19 -28 -18 -1103 91 l-1089 109 -19 -82 c-19
-82 -19 -83 -50 -83 -17 0 -218 13 -446 30 -228 16 -1099 77 -1935 134 -836
58 -1545 108 -1577 111 l-56 6 -6 -63z m4344 -4963 l0 -214 28 -4 c15 -2 -28
-5 -95 -6 l-123 -1 0 223 0 222 95 -3 95 -3 0 -214z m25072 -18509 c566 -45
1030 -85 1034 -88 6 -7 28 -503 72 -1631 24 -615 25 -698 12 -694 -25 8 -913
337 -915 340 -1 1 -25 139 -53 307 l-52 305 -237 230 c-157 153 -372 380 -640
677 -222 246 -403 451 -403 456 0 5 25 16 55 26 l55 17 0 70 c0 65 1 69 23 69
12 -1 484 -38 1049 -84z"/>
</g>
</svg>
