<?xml version="1.0" standalone="no"?>
<!DOCTYPE svg PUBLIC "-//W3C//DTD SVG 20010904//EN"
 "http://www.w3.org/TR/2001/REC-SVG-20010904/DTD/svg10.dtd">
<svg version="1.0" xmlns="http://www.w3.org/2000/svg"
   viewBox="0 0 4468.000000 1995.000000"
 preserveAspectRatio="xMidYMid meet">
<metadata>
Created by potrace 1.16, written by Peter Selinger 2001-2019
</metadata>
<g transform="translate(0.000000,1995.000000) scale(0.100000,-0.100000)"
fill="#000000" stroke="none">
<path d="M38758 19936 c-52 -22 -75 -76 -40 -95 47 -28 48 -29 24 -53 l-22
-24 295 -204 294 -205 1 -1172 0 -1173 -345 0 c-322 0 -345 1 -345 18 1 9 -16
128 -37 264 l-38 248 -100 0 -100 0 -38 -247 c-21 -137 -38 -256 -37 -265 0
-17 -16 -18 -205 -18 -127 0 -205 4 -205 10 0 9 -63 420 -75 488 l-6 32 -99 0
c-55 0 -100 -1 -100 -3 0 -1 -18 -117 -40 -257 -22 -140 -40 -258 -40 -262 0
-5 -101 -8 -225 -8 -160 0 -225 3 -225 11 0 14 -68 452 -76 492 l-6 27 -99 0
c-54 0 -99 -2 -99 -4 0 -2 -18 -119 -40 -261 -22 -142 -40 -259 -40 -261 0 -2
-222 -4 -493 -4 -475 0 -497 -1 -627 -24 -219 -39 -1034 -270 -1500 -426 -220
-73 -272 -86 -820 -201 l-585 -123 -61 -56 c-34 -31 -393 -417 -799 -856 -406
-439 -862 -927 -1013 -1084 l-276 -286 -123 20 -123 20 0 33 c0 23 5 33 15 33
8 0 15 6 15 14 0 10 36 22 115 41 l115 27 0 88 0 88 -31 7 c-25 6 -30 11 -27
33 2 19 10 28 26 30 54 8 6 52 -56 52 -26 0 -77 3 -114 7 -65 6 -68 7 -68 32
0 65 -7 71 -76 71 l-63 0 -6 -42 -7 -43 -601 3 c-330 1 -603 5 -606 7 -2 3 -7
22 -10 42 l-6 38 -66 3 -67 3 -6 -46 -7 -45 -524 0 c-468 0 -524 -2 -529 -16
-10 -25 -7 -31 14 -37 14 -3 20 -14 20 -31 0 -22 -4 -26 -30 -26 l-30 0 0
-160 0 -160 66 0 c56 0 65 -2 60 -16 -3 -9 -6 -22 -6 -30 0 -11 -15 -14 -62
-14 l-63 0 -97 -97 c-62 -62 -98 -91 -98 -80 0 9 32 101 70 203 l70 187 0 131
c0 117 -2 132 -18 143 -15 9 -84 3 -313 -27 -236 -31 -382 -57 -744 -134
l-450 -96 -345 -121 c-256 -89 -437 -160 -700 -276 -195 -85 -363 -164 -372
-175 -10 -11 -18 -36 -18 -57 0 -20 -3 -52 -6 -71 -6 -34 -7 -35 -46 -32 -30
3 -41 10 -48 27 -7 18 -19 23 -62 28 -29 4 -483 7 -1009 7 -1154 0 -1704 -15
-2599 -70 -355 -22 -868 -51 -1140 -65 -615 -31 -637 -33 -658 -55 -13 -13
-41 -19 -110 -24 l-92 -7 -87 61 -86 60 -171 0 -172 0 -69 70 -69 70 -172 0
c-112 0 -174 4 -176 11 -2 6 -93 16 -232 24 -169 11 -235 18 -252 30 -32 21
-160 21 -180 0 -12 -11 -39 -15 -109 -15 -70 0 -97 4 -109 15 -17 17 -176 22
-176 5 0 -14 -31 -20 -230 -49 -172 -26 -175 -26 -177 -51 -2 -20 10 -35 57
-73 49 -39 60 -54 60 -78 0 -29 -1 -29 -55 -29 -48 0 -55 3 -55 20 0 10 -5 30
-11 44 -11 23 -16 24 -122 28 -77 2 -112 7 -115 16 -6 18 -161 16 -186 -3 -29
-22 -363 -22 -392 0 -26 20 -162 20 -188 0 -12 -9 -42 -15 -78 -15 -55 0 -58
-1 -74 -32 -9 -18 -18 -35 -20 -37 -1 -2 -26 3 -55 10 -33 9 -57 22 -66 36
-13 20 -24 23 -77 23 -68 0 -144 20 -286 75 -175 67 -265 108 -291 132 l-25
23 -525 -50 c-471 -45 -561 -57 -889 -114 -367 -65 -596 -123 -635 -162 -14
-14 -13 -18 6 -45 19 -27 25 -29 83 -29 55 0 65 -3 89 -28 15 -16 24 -31 20
-35 -3 -4 -52 -7 -108 -7 l-101 0 -101 90 -101 90 -99 0 c-72 0 -105 4 -119
15 -26 20 -162 20 -188 0 -16 -12 -64 -15 -262 -15 l-241 0 -124 -90 -123 -90
-353 0 -353 0 -84 -56 c-53 -35 -89 -53 -97 -48 -7 4 -188 142 -402 306 l-389
298 -246 0 c-201 1 -251 3 -266 15 -14 10 -45 15 -96 15 -51 0 -82 -5 -96 -15
-13 -10 -46 -14 -107 -15 -80 0 -89 -2 -94 -20 -4 -16 -14 -20 -43 -20 -29 0
-39 4 -43 20 -4 15 -14 20 -41 20 -29 0 -36 -4 -36 -20 0 -28 -46 -28 -53 0
-4 15 -14 20 -41 20 -29 0 -36 -4 -36 -20 0 -15 -7 -20 -24 -20 -16 0 -27 7
-31 20 -5 15 -15 20 -41 20 -27 0 -34 -4 -34 -20 0 -15 -7 -20 -24 -20 -16 0
-27 7 -31 20 -5 15 -15 20 -41 20 -27 0 -34 -4 -34 -20 0 -19 -7 -20 -145 -20
l-144 0 -23 -31 -23 -31 -195 7 -195 7 -27 29 -27 29 -184 0 c-166 0 -186 2
-200 18 -17 18 -25 18 -270 -14 -138 -18 -260 -33 -269 -34 -15 0 -18 -10 -18
-60 0 -56 -1 -60 -24 -60 -13 0 -44 -16 -69 -35 -38 -29 -50 -33 -71 -26 -13
6 -27 19 -31 30 -6 19 -13 19 -283 14 -152 -3 -293 -9 -312 -14 -19 -5 -96 -9
-171 -9 -83 0 -139 -4 -146 -11 -6 -6 -80 -15 -164 -19 -263 -16 -382 -28
-391 -42 -4 -7 -8 -25 -8 -40 0 -27 -2 -28 -47 -28 -48 1 -48 1 -102 75 l-55
75 -1228 0 -1228 0 -45 -41 c-41 -38 -45 -45 -45 -90 l0 -49 -42 -1 c-24 0
-83 -4 -131 -7 -49 -4 -91 -4 -94 1 -3 5 -129 5 -281 1 l-277 -7 -165 -65
c-91 -36 -171 -69 -177 -75 -9 -6 -13 -41 -13 -108 l0 -99 -79 0 c-44 0 -86
-3 -95 -6 -14 -5 -16 -40 -16 -284 l0 -278 -68 -16 c-37 -8 -83 -18 -103 -21
-33 -6 -38 -12 -85 -106 -26 -55 -61 -112 -76 -126 l-28 -27 0 -442 0 -442 28
-33 c15 -17 50 -75 77 -128 l50 -96 100 -20 100 -21 3 -55 c2 -37 9 -61 23
-75 17 -18 18 -22 5 -27 -8 -3 -29 -32 -45 -65 -16 -32 -36 -64 -45 -71 -14
-12 -16 -49 -16 -276 0 -240 2 -263 18 -278 10 -9 31 -43 46 -75 l28 -58 86
-18 c48 -9 95 -20 105 -22 14 -5 17 -18 17 -90 l0 -84 -83 0 c-109 0 -117 -8
-117 -113 l0 -77 100 0 100 0 0 -40 0 -40 -78 0 c-69 0 -81 -3 -100 -23 -19
-20 -22 -35 -22 -100 l0 -77 100 0 100 0 0 -53 c0 -86 3 -87 221 -87 l185 0
58 -164 58 -164 83 -71 c62 -52 85 -78 87 -99 2 -22 9 -28 36 -32 23 -3 64
-31 133 -89 l99 -84 1 -111 c0 -61 0 -162 -1 -225 -1 -105 1 -115 21 -137 17
-18 33 -24 66 -24 l43 0 0 -50 0 -50 -252 -2 -253 -3 0 -75 0 -74 124 -96 125
-95 -344 -3 c-233 -1 -348 -6 -357 -13 -9 -8 -13 -43 -13 -130 l0 -119 -105 0
-105 0 0 -50 c0 -56 11 -50 -130 -79 l-75 -16 -30 -55 c-16 -31 -38 -67 -47
-80 -16 -22 -18 -53 -18 -297 0 -175 4 -274 10 -278 6 -4 26 -38 45 -76 24
-48 42 -70 58 -74 163 -37 206 -45 252 -45 49 0 55 -2 55 -20 0 -12 9 -39 20
-60 l20 -40 -135 0 c-134 0 -135 0 -135 -23 0 -45 11 -47 241 -47 l217 0 11
-30 10 -30 410 0 409 0 7 30 7 30 382 0 c405 0 406 0 406 48 l0 23 -250 -7
-250 -7 0 46 0 47 423 0 c355 -1 425 -3 441 -15 27 -20 164 -20 190 0 15 11
50 15 142 15 l122 0 11 30 10 30 275 0 276 0 0 44 0 43 -68 31 -67 30 192 1
191 1 144 157 143 157 328 -3 327 -3 0 41 0 41 145 0 145 0 0 99 0 98 -43 10
-42 11 53 1 52 1 0 60 0 60 -71 0 -70 0 23 42 c14 26 31 43 42 43 12 0 37 35
84 123 l66 122 148 0 c121 0 148 -3 148 -14 0 -8 -5 -16 -12 -18 -7 -3 -9 -14
-5 -30 7 -26 7 -26 139 -33 73 -3 259 -5 412 -3 l279 3 10 29 c7 22 7 31 -1
34 -7 2 -12 10 -12 18 0 11 22 14 114 14 78 0 125 5 149 15 26 11 73 15 167
15 l130 0 0 -29 c0 -16 -5 -31 -11 -33 -6 -2 -8 -14 -4 -29 6 -25 10 -26 103
-32 53 -4 240 -7 414 -7 l316 0 7 32 c5 21 4 33 -4 36 -6 2 -11 17 -11 33 l0
29 225 0 225 0 0 -29 c0 -16 -5 -31 -11 -33 -6 -2 -8 -14 -4 -29 6 -25 10 -26
103 -32 53 -4 240 -7 414 -7 l316 0 7 32 c5 21 4 33 -4 36 -6 2 -11 17 -11 33
l0 29 136 0 c217 0 477 19 490 36 9 11 46 14 180 14 l170 0 69 70 69 70 174 0
174 0 126 87 c70 48 161 112 203 144 l76 57 61 -5 62 -6 0 -110 0 -110 -110
-168 c-60 -93 -110 -176 -110 -186 0 -10 49 -182 109 -383 l108 -365 307 -3
307 -2 338 284 c186 156 346 289 357 295 15 9 199 -12 867 -99 467 -60 854
-113 860 -117 7 -4 127 -94 268 -200 l255 -193 62 0 62 0 0 -243 0 -244 117
-6 c65 -4 376 -4 692 0 l573 6 67 55 66 54 95 -4 95 -5 542 -355 541 -355 93
-8 c52 -4 460 -4 909 0 l815 7 324 -356 324 -356 561 0 562 0 98 -105 c59 -63
105 -105 117 -105 15 0 19 -7 19 -35 0 -28 4 -36 23 -39 12 -3 202 -17 422
-31 220 -14 410 -28 423 -31 20 -4 22 -10 22 -79 l0 -75 54 0 c29 0 68 -3 86
-6 l32 -7 -7 -76 c-5 -66 -3 -80 14 -108 19 -31 25 -33 75 -33 30 0 58 -4 61
-10 8 -13 162 -13 170 0 3 5 39 10 79 10 96 0 106 13 106 133 l0 84 61 7 c34
3 81 6 105 6 l44 0 2 -163 3 -162 93 -3 92 -3 0 -125 c0 -118 1 -127 26 -164
l27 -40 113 0 c64 0 115 -4 119 -10 8 -13 162 -13 170 0 4 6 60 10 135 10
l128 0 21 34 c19 29 21 49 21 165 l0 131 140 0 140 0 0 -128 c0 -119 2 -130
25 -164 l25 -37 132 -6 c170 -7 275 -7 418 0 109 6 116 8 137 33 20 25 22 38
23 160 l0 132 139 0 139 0 4 -133 c3 -124 5 -135 28 -164 l25 -32 128 0 c77
-1 127 -5 127 -11 0 -13 157 -13 165 0 4 7 277 10 787 10 l781 0 304 155 c434
222 413 209 413 256 l0 39 -565 0 -565 0 0 83 0 83 58 57 58 57 577 0 577 0 0
63 0 64 249 73 c254 74 260 77 261 123 0 4 -308 7 -685 7 l-685 0 0 43 c0 39
-5 47 -38 74 l-39 31 -196 8 -197 7 0 156 0 157 -48 47 -48 47 -157 0 -157 0
0 443 1 442 182 127 182 128 186 0 186 0 23 -50 23 -50 783 0 783 0 159 -120
c126 -96 164 -120 190 -120 l32 0 0 -139 0 -138 102 -5 c56 -3 239 -3 407 0
l306 5 33 28 c28 25 41 29 90 29 l57 0 320 -210 320 -209 530 -1 530 0 188
-137 187 -137 0 -53 c0 -42 -4 -55 -20 -65 -18 -11 -20 -24 -20 -115 l0 -103
-650 0 -650 0 0 -34 0 -35 130 -50 130 -51 718 0 718 0 206 -173 207 -172 0
-142 1 -143 100 0 c60 0 100 -4 100 -10 0 -6 -127 -10 -360 -10 -348 0 -360
-1 -360 -19 0 -20 13 -24 187 -61 l49 -11 11 -92 c9 -81 19 -111 79 -244 l68
-153 163 0 163 0 0 -137 c0 -123 2 -139 20 -158 l20 -22 -361 -6 c-199 -4
-438 -7 -531 -7 -134 0 -168 -3 -168 -13 0 -11 41 -15 188 -20 103 -4 232 -7
288 -7 89 0 103 -2 119 -20 18 -20 29 -21 288 -20 l270 2 194 -194 c106 -106
192 -196 191 -200 -2 -4 -52 -38 -113 -75 l-110 -68 -3 -119 -3 -119 73 -76
c40 -42 106 -111 146 -153 l72 -76 458 -51 c450 -50 657 -62 679 -40 8 8 174
2 584 -20 316 -17 588 -33 604 -35 17 -1 -85 -4 -226 -4 -242 -2 -257 -3 -274
-22 -17 -19 -31 -20 -341 -20 -202 0 -324 -4 -326 -10 -2 -6 -152 -12 -390
-16 -214 -4 -388 -11 -388 -16 0 -4 132 -8 293 -8 l293 0 17 -30 18 -30 260 0
c174 0 259 3 259 11 0 6 20 9 52 7 47 -3 54 -6 71 -36 19 -32 19 -34 2 -66
l-17 -32 -313 4 -312 5 -20 -27 -21 -26 -291 0 c-160 0 -291 -4 -291 -8 0 -13
232 -22 527 -22 218 0 253 -2 253 -15 0 -13 43 -15 327 -15 272 0 329 -2 343
-15 12 -11 68 -16 268 -21 l252 -7 0 -74 0 -73 -580 0 -580 0 0 -139 0 -140
113 -35 c61 -19 168 -53 237 -74 l126 -39 397 -13 397 -13 0 -33 c0 -30 4 -34
53 -52 28 -11 84 -32 122 -47 l70 -27 705 -5 c388 -3 744 -3 793 2 l87 7 0 78
0 78 34 12 c32 10 37 17 65 103 28 83 31 105 31 215 l0 122 246 0 245 0 106
-45 c93 -40 114 -45 179 -45 l74 0 0 45 c0 43 1 45 30 45 l30 0 0 -70 0 -70
75 0 c45 0 75 -4 75 -10 0 -25 -31 -80 -79 -139 l-51 -64 0 -221 0 -221 35
-53 36 -53 29 18 c27 16 31 16 69 -2 23 -10 41 -21 41 -25 0 -4 -27 -28 -60
-54 -67 -53 -73 -71 -37 -123 41 -61 62 -56 205 50 70 51 186 134 257 182 547
372 1332 1042 1744 1488 l134 145 38 -13 39 -14 153 182 c84 100 217 258 295
350 l141 169 -16 33 c-16 33 -16 33 25 82 113 136 491 683 664 963 455 734
799 1459 1139 2402 l38 107 -29 31 c-16 17 -31 39 -34 48 -3 10 14 70 39 136
l45 118 0 234 c0 210 2 239 20 286 16 43 20 77 20 186 0 128 -1 134 -25 157
-13 14 -33 25 -45 25 -24 0 -24 0 -5 70 20 75 20 179 0 186 -12 5 25 86 172
376 l188 370 0 119 c0 80 -4 122 -12 130 -10 10 -44 -8 -160 -87 -81 -54 -154
-103 -162 -108 -11 -7 -13 0 -8 40 4 27 16 153 28 279 11 127 25 235 30 242 9
10 28 259 29 369 l0 41 120 74 c88 54 123 81 128 99 9 33 9 238 -1 272 -5 21
-36 45 -131 104 -77 47 -123 81 -120 89 9 21 -15 388 -25 394 -5 3 -16 89 -25
191 -9 102 -21 225 -27 273 -6 49 -9 91 -6 93 2 3 74 -43 160 -100 187 -128
182 -129 182 42 l0 114 -188 369 c-149 293 -185 371 -172 375 20 8 20 118 0
194 -8 30 -15 56 -15 57 0 1 13 4 29 8 52 11 61 39 61 185 0 106 -4 140 -20
182 -18 48 -20 77 -20 286 l0 233 -61 162 c-34 89 -64 167 -66 173 -2 7 10 16
26 22 l31 11 -29 78 c-16 43 -83 222 -149 398 -78 209 -118 329 -115 345 5 28
-111 313 -225 550 -139 291 -420 799 -615 1111 -168 270 -505 760 -654 951
-44 56 -44 56 -28 87 l16 31 -287 343 c-158 188 -291 346 -295 351 -4 4 -23 3
-41 -3 l-35 -11 -274 275 c-150 152 -279 273 -286 271 -11 -5 -83 66 -83 82 0
5 -114 107 -252 228 -458 398 -1052 835 -1764 1294 -181 117 -340 221 -354
230 -21 14 -30 15 -52 6z m-10501 -5921 c-11 -22 -18 -25 -67 -25 -49 0 -56 3
-67 25 l-11 25 78 0 78 0 -11 -25z m483 5 c0 -18 -7 -20 -65 -20 -36 0 -65 2
-65 4 0 2 -3 11 -6 20 -5 14 4 16 65 16 64 0 71 -2 71 -20z m1100 -18 l0 -39
-297 -29 -298 -29 -132 51 c-76 30 -142 50 -153 47 -15 -4 -20 0 -20 16 l0 21
450 0 450 0 0 -38z m270 28 c0 -5 -7 -10 -15 -10 -9 0 -30 -8 -48 -17 -18 -9
-51 -20 -74 -23 l-43 -7 0 34 0 33 90 0 c53 0 90 -4 90 -10z m14178 -2597 l-3
-68 -12 70 c-7 39 -15 84 -19 100 l-6 30 22 -32 c17 -26 20 -43 18 -100z m2
-3415 c0 -59 -4 -78 -21 -98 l-21 -25 6 25 c3 14 11 58 17 98 6 39 13 72 15
72 2 0 4 -33 4 -72z m-39870 -1253 c0 -41 2 -45 25 -45 16 0 25 -6 25 -15 0
-11 -12 -15 -47 -15 l-48 -1 -133 -144 -134 -145 -279 0 -279 0 0 110 c0 103
-1 110 -20 110 -17 0 -20 7 -20 50 0 49 1 50 30 50 28 0 30 -2 30 -40 l0 -40
295 0 295 0 0 40 c0 36 3 40 25 40 23 0 25 4 25 45 l0 45 105 0 105 0 0 -45z
m22120 -2803 c0 -33 -10 -49 -77 -125 -43 -48 -105 -105 -138 -127 l-60 -40
-3 101 -3 102 41 48 c22 26 40 55 40 63 0 14 16 16 100 16 l100 0 0 -38z
m9510 -2472 l0 -30 -95 0 -95 0 0 30 0 30 95 0 95 0 0 -30z"/>
</g>
</svg>
