<?xml version="1.0" standalone="no"?>
<!DOCTYPE svg PUBLIC "-//W3C//DTD SVG 20010904//EN"
 "http://www.w3.org/TR/2001/REC-SVG-20010904/DTD/svg10.dtd">
<svg version="1.0" xmlns="http://www.w3.org/2000/svg"
   viewBox="0 0 4410.000000 3967.000000"
 preserveAspectRatio="xMidYMid meet">
<metadata>
Created by potrace 1.16, written by Peter Selinger 2001-2019
</metadata>
<g transform="translate(0.000000,3967.000000) scale(0.100000,-0.100000)"
fill="#000000" stroke="none">
<path d="M19420 39040 l0 -630 -1110 0 -1110 0 0 -594 c0 -556 -1 -594 -17
-602 -10 -5 -1206 -10 -2658 -12 l-2641 -3 -363 376 c-199 206 -366 375 -370
375 -4 0 -20 -13 -35 -29 l-29 -30 204 -211 c112 -117 262 -272 332 -346 l129
-134 -244 0 -243 0 -1245 -1390 -1244 -1390 -3256 0 -3256 0 -54 56 c-54 54
-56 55 -106 52 l-52 -3 -248 240 c-137 132 -296 285 -354 341 l-105 101 -28
-32 -27 -33 335 -323 c326 -314 335 -324 335 -361 0 -36 7 -46 100 -134 l100
-96 0 -112 -1 -111 -1079 -1630 -1080 -1630 0 -757 0 -758 245 0 245 0 0 -135
0 -135 178 0 177 -1 335 -297 335 -296 -3 -952 -2 -952 70 -28 70 -27 0 -994
0 -993 -60 -37 -60 -38 0 -932 0 -933 350 0 350 0 0 110 0 110 30 0 30 0 0
-245 0 -245 970 0 c534 0 970 -4 970 -9 0 -4 25 -17 55 -28 l55 -21 132 29
132 29 787 0 c433 0 789 -4 791 -9 2 -4 28 -17 58 -29 l56 -20 124 29 125 28
791 1 c473 0 794 -4 800 -9 5 -5 32 -18 59 -29 l50 -20 130 29 130 28 610 1
610 0 97 -113 97 -112 1 -1060 0 -1060 93 -93 92 -92 177 0 177 0 653 -606
c359 -334 658 -609 665 -611 7 -3 47 27 90 66 l77 71 2232 0 2232 0 263 -149
264 -148 6 -294 c3 -162 7 -925 8 -1696 l1 -1402 -55 -6 -55 -7 0 -263 0 -263
30 -6 c17 -3 44 -9 60 -12 l30 -6 0 -1017 0 -1018 -60 -12 -60 -12 2 -262 3
-262 58 -9 57 -8 2 -159 c1 -88 2 -175 3 -195 l0 -36 -195 -107 -195 -107 -3
-356 -2 -356 42 -36 42 -36 418 0 418 0 114 85 113 85 2252 0 2252 0 281 -145
c162 -83 294 -145 309 -145 22 0 72 -39 230 -180 l203 -180 347 0 346 0 899
95 c495 52 918 97 942 100 l42 6 1 167 0 167 85 68 c71 58 84 73 84 98 0 20 5
29 16 29 151 0 5020 162 5024 168 82 102 80 99 80 157 0 50 -4 61 -42 112
l-42 56 -2518 -5 -2517 -4 -3 29 c-3 29 -6 31 -123 63 -66 19 -132 34 -146 34
-23 0 -57 41 -259 316 l-231 316 -6 2149 -6 2149 699 0 699 -1 1315 -1299
1315 -1299 5 -95 5 -95 205 -208 c113 -114 493 -501 844 -860 351 -359 645
-654 654 -657 10 -3 43 -10 75 -16 56 -11 59 -11 92 14 l34 26 488 -482 c268
-265 576 -568 683 -674 l195 -192 425 -17 425 -17 86 -86 c48 -48 918 -937
1934 -1977 1016 -1039 1927 -1970 2023 -2067 l176 -177 56 -371 57 -372 111
-111 c106 -107 111 -114 118 -163 l6 -52 1527 -1504 c839 -827 1598 -1571
1686 -1653 88 -82 183 -170 211 -197 l50 -48 430 75 c236 41 437 77 446 79 12
3 73 -66 219 -248 111 -138 210 -258 219 -266 16 -14 14 -47 -41 -560 -32
-300 -58 -550 -59 -556 0 -13 68 -29 78 -19 4 3 32 249 63 546 32 297 59 543
62 545 3 3 262 -88 576 -202 l571 -207 57 45 c55 43 58 48 61 94 l2 49 -432
541 c-643 803 -1261 1561 -1280 1571 -9 4 -1459 1788 -3221 3963 l-3203 3955
27 76 c26 71 27 78 13 105 -9 16 -25 39 -36 52 -12 12 -17 22 -12 22 5 1 26
16 47 34 l39 33 -850 1394 c-467 767 -1049 1723 -1293 2124 l-445 730 -306
377 -306 377 24 77 23 77 -86 108 -87 108 -52 -44 -52 -45 -38 50 c-26 35 -43
48 -54 44 -79 -32 -745 -284 -749 -284 -3 0 -58 65 -121 145 -63 79 -120 144
-126 144 -6 1 -31 -15 -55 -34 l-44 -35 -21 23 c-12 12 -318 389 -681 837
-362 448 -1041 1280 -1507 1849 l-848 1033 192 477 c106 262 195 482 199 488
4 7 339 218 744 468 711 439 847 526 847 547 0 5 -49 73 -108 151 -60 78 -369
484 -689 902 -319 418 -664 870 -767 1005 -102 135 -183 246 -179 247 5 2 96
-7 204 -20 l196 -22 1101 720 1101 720 62 178 62 179 -62 681 c-39 431 -59
698 -55 726 4 28 3 45 -4 50 -7 4 -19 81 -28 182 l-17 174 347 468 c261 353
345 474 342 490 -3 12 -8 43 -11 69 l-6 46 183 251 183 250 2843 1 2842 0 0
-90 0 -90 230 0 230 0 0 90 0 90 135 0 135 0 0 135 0 135 -135 0 -135 0 0 95
0 95 -230 0 -230 0 0 -95 0 -95 -2769 0 -2769 0 -6 28 c-3 15 -8 50 -11 78
l-6 50 -1259 980 -1259 979 0 413 -1 412 5159 0 5159 0 141 276 c78 152 141
278 141 280 0 2 -2385 4 -5300 4 l-5300 0 0 548 0 547 -49 28 c-41 23 -61 27
-125 27 l-76 0 0 510 0 510 102 0 c176 0 2727 29 3081 35 l337 5 1 -147 c1
-211 15 -223 24 -20 l7 167 54 0 54 0 0 45 0 45 -55 0 -55 0 0 53 c0 113 -13
281 -21 262 -4 -11 -8 -86 -8 -167 l-1 -148 -167 0 c-152 1 -3345 38 -3350 39
-2 1 -3 388 -3 861 l0 859 -31 17 c-49 25 -254 32 -297 10 l-32 -16 -3 -1433
-2 -1432 -3 1442 -2 1442 -37 10 c-21 5 -755 195 -1632 420 l-1594 411 -3228
0 -3229 0 0 630 0 630 -25 0 -25 0 0 -630z m-17100 -9965 c0 -131 -2 -155 -15
-155 -13 0 -15 -57 -15 -450 l0 -450 -30 0 -30 0 0 170 c0 163 -1 170 -20 170
-20 0 -20 7 -20 435 l0 435 65 0 65 0 0 -155z"/>
</g>
</svg>
