<?xml version="1.0" standalone="no"?>
<!DOCTYPE svg PUBLIC "-//W3C//DTD SVG 20010904//EN"
 "http://www.w3.org/TR/2001/REC-SVG-20010904/DTD/svg10.dtd">
<svg version="1.0" xmlns="http://www.w3.org/2000/svg"
   viewBox="0 0 4242.000000 575.000000"
 preserveAspectRatio="xMidYMid meet">
<metadata>
Created by potrace 1.16, written by Peter Selinger 2001-2019
</metadata>
<g transform="translate(0.000000,575.000000) scale(0.100000,-0.100000)"
fill="#000000" stroke="none">
<path d="M8617 5511 c-4 -134 -7 -336 -7 -448 l0 -203 -92 0 c-51 0 -165 -5
-253 -11 -159 -11 -163 -12 -600 -130 -386 -106 -483 -128 -797 -184 -197 -36
-1156 -222 -2132 -415 l-1775 -350 -605 0 -605 0 -10 38 c-5 20 -48 219 -96
442 -47 223 -90 414 -95 425 l-9 20 0 -20 c-1 -11 33 -213 74 -450 41 -236 75
-436 75 -442 0 -10 -25 -13 -94 -13 -89 0 -94 1 -99 23 -3 12 -47 213 -97 447
-50 234 -93 432 -97 440 -20 49 -5 -60 65 -460 l78 -445 -726 -5 c-587 -4
-721 -7 -703 -17 16 -10 105 -13 345 -13 310 0 327 -1 418 -25 90 -23 109 -25
393 -25 247 0 297 -2 297 -14 0 -26 116 -39 373 -43 199 -4 247 -7 247 -18 0
-9 -19 -16 -57 -21 -77 -9 -172 -56 -170 -84 1 -15 16 -26 59 -42 55 -20 58
-22 43 -39 -15 -16 -15 -18 2 -28 17 -10 17 -12 1 -24 -15 -12 -16 -15 -2 -29
14 -14 9 -18 -50 -39 -36 -12 -61 -26 -55 -30 8 -5 7 -9 -2 -14 -20 -13 108
-73 174 -81 47 -5 57 -10 57 -25 0 -11 5 -19 11 -19 9 0 -30 -79 -51 -103 -3
-4 -116 -37 -251 -73 -216 -57 -247 -68 -274 -95 l-30 -31 30 6 c17 3 307 53
646 111 l617 105 653 0 654 0 767 -175 768 -174 54 -41 c30 -23 110 -70 178
-106 l123 -63 -242 -1 -243 0 0 -25 c0 -20 -5 -25 -24 -25 -23 0 -111 -43
-121 -60 -5 -9 28 -20 103 -35 l33 -7 -38 -29 c-21 -16 -53 -39 -70 -51 -40
-28 -41 -34 -5 -43 l27 -7 -33 -12 -32 -11 40 -25 c22 -14 40 -28 40 -32 0 -3
17 -17 37 -29 l38 -24 -70 -15 c-39 -8 -69 -20 -67 -25 5 -13 80 -53 115 -60
22 -4 27 -11 27 -35 l0 -30 485 0 485 0 0 30 0 30 60 0 60 0 0 -70 0 -70 244
0 c153 0 247 4 251 10 3 6 19 10 36 10 29 0 29 0 29 -60 l0 -60 -505 0 c-278
0 -505 -4 -505 -8 0 -9 208 -22 337 -22 l63 0 0 -85 c0 -47 1 -85 3 -85 1 0
58 -7 127 -15 69 -8 211 -15 318 -15 l192 0 0 -35 0 -35 -1015 0 c-670 0
-1015 -3 -1015 -10 0 -7 -410 -10 -1209 -10 -714 0 -1212 -4 -1215 -9 -4 -5
493 -12 1226 -15 678 -3 1369 -9 1535 -12 270 -5 303 -8 307 -22 14 -50 57
-344 51 -350 -4 -4 -462 -9 -1018 -12 l-1012 -5 1022 -3 1022 -2 6 -56 c4 -30
13 -61 20 -68 9 -9 59 -15 152 -20 76 -3 168 -9 204 -12 l66 -6 11 31 11 31
433 3 433 2 -432 3 -432 2 82 240 82 240 342 0 c222 0 343 -4 343 -10 0 -6 77
-10 210 -10 133 0 210 4 210 10 0 7 199 10 577 10 l576 0 139 36 c137 37 138
37 138 65 l0 29 311 0 c245 0 309 -3 303 -13 -4 -6 -49 -76 -100 -154 l-93
-143 74 0 75 0 -55 -84 c-30 -46 -55 -87 -55 -90 0 -3 648 -6 1440 -6 l1440 0
0 93 1 92 79 110 c70 96 80 114 80 152 l0 43 1520 0 1520 0 0 -39 c0 -33 -13
-56 -85 -155 -73 -100 -85 -121 -85 -156 l0 -40 -50 0 c-47 0 -50 -2 -50 -25
0 -25 1 -25 85 -25 84 0 85 0 85 -25 l0 -25 785 0 785 0 0 280 0 280 131 0
131 0 71 50 71 50 500 0 501 0 223 -51 c123 -28 226 -49 228 -47 2 3 -81 24
-184 48 -103 24 -188 44 -190 46 -2 1 96 3 217 3 l221 1 120 -60 120 -60 455
0 c444 0 455 0 467 -20 12 -19 24 -20 169 -20 l156 0 711 -135 710 -135 938 0
937 0 189 -45 189 -45 547 0 548 0 109 -245 110 -245 255 2 255 3 27 230 c14
127 27 236 27 243 1 9 115 12 536 12 l535 0 0 -25 c0 -25 1 -25 88 -25 l89 0
86 -65 c73 -55 92 -65 127 -65 22 0 40 -4 40 -10 0 -6 82 -10 225 -10 143 0
225 4 225 10 0 7 147 10 420 10 273 0 420 -3 420 -10 0 -6 80 -10 220 -10 140
0 220 4 220 10 0 20 133 9 391 -30 l262 -40 2043 0 2043 0 126 30 126 30 501
0 501 0 811 -105 c446 -57 820 -103 831 -100 11 2 166 -15 344 -38 l324 -42
176 -320 c97 -176 182 -329 188 -340 8 -13 15 -17 21 -10 6 6 -50 125 -158
335 -93 179 -167 326 -167 326 1 1 189 -22 417 -51 228 -30 419 -51 424 -47 6
3 -182 31 -418 63 -235 31 -431 60 -435 65 -4 5 -38 66 -75 137 l-67 127 1028
-2 1027 -3 57 -125 57 -125 223 0 223 0 83 107 c46 60 91 108 99 108 8 0 123
-16 255 -36 133 -19 243 -33 245 -31 2 2 -83 19 -189 38 l-192 34 609 3 609 2
33 25 33 25 390 0 391 0 0 105 0 105 -202 2 c-116 1 -157 4 -95 5 139 5 141
23 2 23 l-105 0 0 31 c0 28 2 31 25 25 23 -6 24 -4 18 26 -3 18 -14 42 -24 54
-11 11 -19 28 -19 37 0 15 19 17 200 17 127 0 200 4 200 10 0 6 -73 10 -200
10 l-200 0 0 125 0 125 200 0 200 0 0 30 0 30 -1588 0 -1589 0 -63 65 -63 66
-691 -6 c-632 -6 -698 -9 -775 -26 -46 -11 -86 -18 -88 -16 -2 3 -6 124 -10
271 -3 146 -9 266 -13 266 -7 0 -20 -301 -20 -462 0 -48 -3 -89 -7 -91 -5 -2
-98 2 -208 9 -110 7 -210 13 -222 13 -16 1 -23 7 -23 20 0 16 -11 19 -76 24
-58 4 -87 2 -116 -10 -64 -25 -249 -13 -316 21 -39 20 -66 26 -114 26 -48 0
-241 44 -793 179 l-730 179 -884 301 -885 301 -754 130 c-644 111 -770 130
-861 130 -58 0 -184 3 -278 7 l-173 6 0 52 0 52 -217 7 -218 7 -176 -54 -176
-54 -280 5 -280 5 -6 240 c-4 132 -8 319 -8 416 -1 180 -15 305 -18 166 -1
-38 -6 -238 -10 -443 -5 -205 -10 -374 -12 -376 -2 -1 -168 1 -369 5 -201 4
-739 8 -1196 8 l-831 1 -6 173 c-4 94 -7 208 -8 252 0 44 -4 89 -8 100 -5 11
-11 -89 -15 -230 -4 -137 -9 -260 -12 -272 l-4 -23 -1114 0 -1113 0 -6 263
c-4 144 -7 336 -7 427 0 91 -4 171 -9 178 -8 14 -21 -337 -21 -602 0 -89 -3
-185 -6 -213 l-7 -53 -1077 0 -1078 0 -6 23 c-3 12 -6 94 -6 183 0 278 -13
674 -22 674 -4 0 -8 -66 -8 -147 0 -82 -3 -280 -7 -440 l-6 -293 -3338 0
-3338 0 -223 125 -223 125 -137 0 -138 0 0 70 0 70 853 0 853 0 43 44 c45 46
58 51 184 62 40 4 57 10 57 20 0 10 -12 14 -40 14 -22 0 -40 5 -40 10 0 6 30
10 70 10 63 0 70 2 70 20 0 18 -7 20 -67 20 -57 0 -91 8 -212 52 -95 35 -145
59 -148 70 -6 19 -167 81 -253 97 -30 6 -259 31 -508 56 l-454 45 -573 0 -573
0 -564 238 -563 239 -785 12 c-432 6 -928 11 -1103 11 l-319 0 -311 135 c-310
135 -310 135 -388 135 -61 0 -78 3 -83 16 -3 9 -6 66 -6 128 0 176 -12 389
-21 374 -5 -7 -9 -65 -9 -129 0 -64 -3 -177 -7 -252 l-6 -137 -794 0 -793 0 0
113 c0 61 -3 184 -7 272 -7 137 -9 150 -14 95 -4 -36 -7 -148 -8 -250 -1 -102
-4 -195 -7 -207 -6 -21 -12 -23 -84 -23 l-77 0 -6 173 c-4 94 -7 276 -8 402
-1 331 -13 374 -22 76z m-178 -4005 c-2 -2 -39 -18 -82 -35 l-78 -31 -339 0
-340 0 0 35 0 35 422 0 c232 0 419 -2 417 -4z m3696 -313 l27 -28 -175 -3
c-97 -1 -258 -1 -359 0 l-183 3 27 28 27 27 304 0 304 0 28 -27z m25312 -360
c38 -71 69 -130 67 -132 -5 -6 -649 81 -654 89 -3 4 -273 42 -600 84 -327 42
-602 78 -610 80 -8 2 377 4 856 5 l870 1 71 -127z"/>
<path d="M18678 1663 c7 -3 16 -2 19 1 4 3 -2 6 -13 5 -11 0 -14 -3 -6 -6z"/>
<path d="M40768 843 c6 -2 18 -2 25 0 6 3 1 5 -13 5 -14 0 -19 -2 -12 -5z"/>
<path d="M38478 553 c7 -3 16 -2 19 1 4 3 -2 6 -13 5 -11 0 -14 -3 -6 -6z"/>
<path d="M38558 543 c7 -3 16 -2 19 1 4 3 -2 6 -13 5 -11 0 -14 -3 -6 -6z"/>
<path d="M38638 533 c7 -3 16 -2 19 1 4 3 -2 6 -13 5 -11 0 -14 -3 -6 -6z"/>
<path d="M38868 503 c7 -3 16 -2 19 1 4 3 -2 6 -13 5 -11 0 -14 -3 -6 -6z"/>
</g>
</svg>
