<?xml version="1.0" standalone="no"?>
<!DOCTYPE svg PUBLIC "-//W3C//DTD SVG 20010904//EN"
 "http://www.w3.org/TR/2001/REC-SVG-20010904/DTD/svg10.dtd">
<svg version="1.0" xmlns="http://www.w3.org/2000/svg"
   viewBox="0 0 4316.000000 2398.000000"
 preserveAspectRatio="xMidYMid meet">
<metadata>
Created by potrace 1.16, written by Peter Selinger 2001-2019
</metadata>
<g transform="translate(0.000000,2398.000000) scale(0.100000,-0.100000)"
fill="#000000" stroke="none">
<path d="M26581 23964 c-24 -7 -45 -15 -47 -17 -2 -1 5 -36 16 -77 11 -41 18
-75 17 -76 -5 -3 -397 -104 -406 -104 -6 0 -20 33 -32 73 -12 39 -22 73 -23
74 -3 4 -131 -30 -139 -37 -5 -4 30 -155 77 -335 73 -279 86 -340 86 -408 0
-70 14 -133 116 -516 93 -348 123 -449 152 -501 29 -53 87 -219 79 -227 -3 -3
-143 236 -156 267 -6 14 -70 246 -141 515 -72 270 -135 506 -140 525 -6 19
-18 46 -28 59 l-19 23 -199 -52 c-109 -29 -201 -54 -203 -56 -2 -1 -7 -58 -12
-126 l-10 -123 120 -449 120 -449 135 -231 134 -231 616 -2323 c339 -1278 616
-2326 616 -2328 0 -2 -583 -4 -1295 -4 l-1295 0 0 -256 c0 -238 -1 -255 -17
-250 -10 3 -202 41 -428 86 -225 45 -414 86 -420 91 -5 6 -22 63 -36 127 -22
102 -28 119 -50 129 -19 9 -191 318 -727 1305 -386 711 -706 1299 -711 1306
-7 11 -17 9 -54 -10 l-45 -23 684 -1259 c376 -693 682 -1261 680 -1263 -2 -2
-594 148 -1315 334 l-1312 337 -75 -37 c-82 -41 -78 -35 -179 -222 -54 -99
-63 -110 -85 -107 -14 2 -727 140 -1585 306 l-1560 302 -51 55 c-28 30 -101
109 -162 176 l-112 123 -68 -62 -68 -63 153 -184 c84 -102 153 -187 153 -191
0 -3 -87 -16 -192 -29 -106 -12 -200 -24 -209 -27 -13 -4 -18 12 -28 98 -12
103 -13 103 -48 124 l-35 20 -175 -22 c-166 -21 -177 -24 -203 -51 -30 -30
-30 -24 -5 -195 5 -35 3 -38 -19 -38 -29 0 -32 9 -42 105 -8 83 -15 100 -54
120 -27 14 -46 13 -202 -6 -162 -20 -175 -23 -202 -49 l-29 -28 13 -97 c10
-81 9 -99 -2 -106 -30 -20 -36 -8 -48 95 l-13 104 -39 18 c-37 17 -45 17 -210
-4 -161 -20 -174 -23 -200 -49 l-28 -28 13 -103 13 -102 -26 0 c-26 0 -27 3
-34 68 -12 119 -15 130 -52 151 -33 20 -34 20 -206 -1 -163 -20 -175 -23 -202
-49 l-30 -28 12 -98 c7 -64 8 -99 1 -104 -5 -3 -60 -11 -122 -18 -62 -7 -121
-15 -133 -18 -20 -4 -22 2 -39 171 -15 147 -21 176 -34 176 -9 0 -93 -15 -188
-33 l-171 -33 -13 82 -12 83 59 53 c32 29 85 78 117 108 l58 55 10 95 c9 81 8
109 -8 190 -19 94 -19 95 -47 92 -24 -3 -27 0 -21 19 24 74 45 157 45 175 0
17 -12 24 -72 42 -40 11 -725 201 -1523 422 -1252 347 -1455 401 -1485 394
-35 -9 -35 -9 -72 -134 -42 -144 -45 -176 -20 -182 9 -3 667 -186 1462 -408
905 -253 1449 -410 1457 -419 8 -11 8 -20 1 -28 -6 -7 -8 -26 -6 -43 3 -21 0
-31 -11 -34 -15 -5 -3599 -684 -3734 -708 l-59 -10 -270 -327 c-149 -179 -278
-334 -287 -343 -12 -12 -415 -92 -1576 -311 l-1560 -295 -1370 -27 c-753 -14
-1696 -32 -2095 -40 -399 -8 -1165 -22 -1703 -31 l-978 -16 -74 31 c-41 17
-82 31 -92 31 -10 0 -54 23 -99 50 -45 28 -104 57 -131 65 -57 18 -53 17 -53
6 0 -5 50 -39 111 -76 60 -37 132 -89 159 -117 l48 -49 -134 -305 -134 -305 0
-312 0 -312 632 -390 632 -390 75 -5 c47 -3 76 -10 79 -17 2 -7 -3 -13 -11
-13 -7 0 -30 -17 -49 -38 -20 -21 -97 -76 -171 -122 -146 -91 -165 -117 -77
-107 35 4 77 25 172 84 69 44 153 90 187 103 33 14 61 28 61 32 0 5 158 8 350
8 l350 0 0 -30 0 -30 -205 0 -205 0 0 -654 0 -655 150 -228 150 -229 0 -492 0
-492 1168 -1 1167 0 90 -114 90 -114 235 0 236 -1 153 -160 153 -160 981 0
982 0 3275 -206 3275 -206 1496 -679 1496 -679 1182 0 1181 0 103 -51 c56 -28
103 -52 104 -53 1 0 -16 -125 -37 -277 l-39 -276 661 -989 661 -989 194 -416
194 -415 2297 -969 c1263 -532 2300 -971 2305 -975 4 -3 -186 -80 -423 -171
l-430 -164 0 -482 0 -483 1796 0 c1707 0 1796 -1 1789 -17 -17 -41 -25 -117
-51 -470 l-27 -373 28 -107 c15 -60 31 -113 36 -119 5 -6 52 -14 103 -18 117
-9 210 7 225 38 9 21 10 21 10 1 1 -11 -15 -219 -35 -463 -20 -244 -33 -446
-30 -449 10 -10 129 15 138 29 4 7 8 34 8 61 0 26 2 47 4 47 3 0 91 18 196 40
105 22 193 40 194 40 2 0 7 -17 10 -37 14 -77 1 -73 152 -43 75 15 139 31 144
36 12 14 76 663 120 1229 22 281 43 525 46 542 l5 33 234 0 234 0 3 29 c3 28
5 27 138 -85 l135 -113 433 0 432 -1 0 -140 0 -140 735 0 735 0 0 340 0 340
1275 0 c875 0 1275 3 1275 10 0 6 -54 190 -120 410 -66 220 -120 404 -120 410
0 7 190 10 595 10 l595 0 0 -120 0 -120 1523 0 1522 0 249 -554 248 -554 37
-6 c66 -11 119 -6 175 15 49 19 56 25 55 48 0 14 -42 256 -93 536 l-92 510 89
3 89 3 163 -87 162 -86 250 -587 250 -586 69 -7 c56 -5 79 -3 126 14 32 11 62
25 67 32 6 7 -21 177 -75 471 -46 253 -84 463 -84 467 0 10 461 -178 470 -191
4 -7 105 -250 225 -540 l219 -529 75 -4 c64 -4 85 -1 134 20 36 16 57 31 57
41 0 9 -31 189 -70 401 -38 212 -70 386 -70 387 0 1 20 -6 44 -17 l44 -19 15
37 c9 20 85 208 169 417 l153 380 -18 140 -19 140 322 794 c176 437 319 799
317 805 -3 6 -41 26 -86 45 -44 18 -81 35 -81 36 0 1 7 18 15 38 14 34 14 36
-53 177 l-67 142 -1969 985 c-1083 541 -1972 981 -1977 976 -4 -4 -22 -44 -39
-88 -17 -44 -35 -84 -40 -89 -4 -4 -402 214 -887 487 -483 272 -888 499 -899
505 -21 11 -23 7 -54 -121 -18 -72 -37 -140 -42 -150 -8 -15 -27 -17 -188 -17
l-178 0 -105 -111 c-86 -93 -107 -110 -125 -105 -20 7 -21 8 -5 41 9 19 15 36
12 38 -6 6 -459 237 -463 237 -2 0 -9 -14 -16 -30 -11 -27 -16 -30 -44 -25
-17 3 -64 0 -103 -8 -40 -8 -73 -12 -73 -10 0 2 10 21 22 42 l22 39 -55 142
-55 142 -1114 568 c-997 509 -1143 581 -1396 684 l-282 116 -116 0 -115 0 28
53 c16 30 30 59 32 65 3 9 223 19 769 37 421 14 798 28 838 31 l72 6 0 33 c0
32 -2 34 -42 39 -24 3 -299 10 -613 16 -313 6 -658 13 -766 17 l-195 6 46 126
46 126 201 5 c111 3 204 8 207 11 4 3 17 37 30 75 17 51 28 70 42 72 16 2 46
75 162 386 139 376 142 385 142 464 l0 80 -176 171 c-97 94 -180 171 -185 171
-5 0 -15 -10 -23 -22 -7 -13 -146 -316 -307 -675 -161 -358 -294 -651 -296
-650 -1 1 73 249 163 551 l165 548 -35 45 c-34 43 -35 47 -22 77 8 17 48 107
90 199 42 93 76 172 76 177 0 6 -1549 1509 -1722 1670 l-49 45 26 133 26 134
-85 361 c-75 320 -91 374 -134 467 -27 58 -58 112 -68 121 -19 16 -1158 359
-1331 401 -51 12 -93 26 -93 31 0 9 88 402 96 430 5 16 27 17 275 17 l269 0 0
260 0 260 -55 0 -55 0 0 414 0 414 23 6 c12 3 500 6 1085 6 1055 0 1062 0
1062 20 0 20 -7 20 -1070 20 l-1070 0 0 25 c0 24 -2 25 -65 25 l-65 0 0 45 0
45 -100 0 -100 0 0 -45 0 -45 -105 0 c-87 0 -105 3 -105 15 0 12 -18 15 -105
15 -87 0 -105 -3 -105 -15 0 -13 -42 -15 -341 -13 l-342 3 -793 3033 c-436
1668 -836 3180 -890 3360 -53 180 -101 341 -106 359 -8 29 -17 35 -111 71
l-102 39 -30 102 c-38 127 -45 133 -134 105z m3499 -7589 c0 -408 0 -415 -20
-415 -20 0 -20 7 -20 415 0 408 0 415 20 415 20 0 20 -7 20 -415z m1287 -3475
c57 -118 103 -219 103 -226 0 -6 -8 -18 -17 -26 -17 -15 -27 -7 -142 104
l-125 119 29 147 c24 126 30 143 39 122 6 -14 57 -122 113 -240z"/>
</g>
</svg>
