<?xml version="1.0" standalone="no"?>
<!DOCTYPE svg PUBLIC "-//W3C//DTD SVG 20010904//EN"
 "http://www.w3.org/TR/2001/REC-SVG-20010904/DTD/svg10.dtd">
<svg version="1.0" xmlns="http://www.w3.org/2000/svg"
   viewBox="0 0 3820.000000 2028.000000"
 preserveAspectRatio="xMidYMid meet">
<metadata>
Created by potrace 1.16, written by Peter Selinger 2001-2019
</metadata>
<g transform="translate(0.000000,2028.000000) scale(0.100000,-0.100000)"
fill="#000000" stroke="none">
<path d="M26225 20140 c-330 -78 -603 -144 -607 -148 -4 -4 -52 -113 -106
-242 l-99 -235 -71 -3 -72 -3 0 85 0 84 -65 52 -65 52 -798 -87 c-438 -47
-812 -89 -829 -92 l-33 -5 0 -199 c0 -109 5 -299 11 -421 8 -179 6 -349 -9
-853 -10 -346 -16 -666 -14 -711 l3 -80 827 -122 c455 -68 834 -122 842 -122
14 0 120 169 120 191 0 5 31 9 68 9 l68 0 100 -208 101 -209 626 -103 627
-103 0 -209 0 -208 -40 -26 -40 -27 0 -241 1 -241 90 -105 91 -105 -6 -192 -6
-193 -44 -62 -43 -63 -7 -263 -7 -263 -228 -327 -228 -327 -1062 -3 -1062 -2
-59 64 c-44 47 -70 66 -95 70 l-35 7 0 99 c0 55 -3 100 -6 100 -3 0 -241 45
-529 100 -288 55 -526 100 -528 100 -2 0 -2 11 1 25 3 17 0 25 -9 25 -8 0
-124 20 -259 44 -135 25 -246 43 -248 42 -1 -2 -16 -54 -34 -117 -17 -63 -31
-115 -32 -116 -1 -1 -104 18 -231 41 -230 42 -230 42 -233 69 l-3 27 -99 0
-98 0 -41 65 -40 65 -169 0 -168 0 -29 30 c-23 24 -37 30 -72 30 -37 0 -66 13
-172 75 l-128 75 -789 194 -789 193 -32 -23 c-31 -23 -38 -24 -211 -24 -178 0
-180 0 -186 23 -3 12 -6 34 -6 50 l0 27 -248 0 -248 0 -94 265 -95 265 -116 0
-117 0 -17 70 -17 70 -1375 -2 -1375 -3 -123 -315 -123 -315 -2004 -3 -2004
-2 -24 75 -24 75 -588 0 -588 0 0 -109 0 -109 -737 5 -738 5 -90 -133 -90
-134 -670 -5 -670 -5 -127 -65 -128 -65 0 -430 0 -430 -192 -84 c-106 -46
-445 -191 -753 -323 l-560 -240 -120 -119 -120 -119 -2378 0 -2377 0 0 -145
c0 -90 4 -145 10 -145 7 0 10 -553 10 -1640 l0 -1640 1988 0 1987 0 619 -141
618 -141 92 91 92 92 149 -32 149 -33 75 80 76 80 275 -46 c239 -41 315 -49
586 -65 l311 -19 53 -245 c51 -237 135 -590 166 -699 l16 -53 125 2 125 1 42
-41 42 -41 494 0 495 0 23 44 24 44 81 6 c45 3 240 10 433 15 l350 9 87 43 87
43 0 356 0 355 399 -19 399 -19 206 47 c113 25 215 46 228 46 13 0 66 -9 118
-21 l95 -21 1263 205 c695 112 1265 206 1267 208 2 2 14 62 27 134 l23 129
100 59 100 60 3530 33 c1941 18 3610 33 3707 34 l178 0 -7 -649 -6 -649 90
-46 c89 -44 91 -45 108 -26 10 11 22 20 27 20 5 0 280 -95 610 -210 331 -116
602 -209 603 -208 2 2 20 62 42 133 l39 130 90 3 90 3 39 -81 39 -80 48 0 48
0 0 -70 0 -70 283 0 284 0 39 55 c42 59 43 59 162 69 45 4 62 2 62 -7 0 -6 20
-240 45 -519 l44 -508 215 -249 216 -249 282 5 283 4 35 -53 c20 -29 127 -189
239 -355 l203 -302 -7 -416 -8 -415 -143 0 -144 0 0 -60 0 -60 -2884 0 -2884
0 -332 -536 c-183 -295 -329 -539 -324 -544 5 -4 1209 -919 2677 -2034 l2667
-2026 655 0 655 0 0 1965 0 1965 30 0 30 0 0 -75 0 -75 665 0 665 0 0 75 0 75
30 0 30 0 0 -1965 0 -1965 658 0 657 1 2665 2025 c1466 1113 2669 2030 2673
2037 6 8 -104 193 -320 542 l-329 530 -2887 3 -2887 2 0 60 0 60 -155 0 c-85
0 -155 1 -156 3 -1 1 -9 346 -18 767 -13 594 -16 1073 -13 2142 l4 1378 44 0
44 0 0 850 0 850 -45 0 -45 0 0 105 0 105 -75 0 c-41 0 -75 3 -75 8 0 4 87
228 194 497 l194 490 1626 3 c894 1 1626 -1 1626 -4 0 -3 -12 -25 -26 -50 -14
-24 -21 -44 -15 -44 19 0 12 -22 -9 -27 -10 -3 -26 -16 -35 -29 -14 -21 -14
-24 0 -24 13 0 13 -3 3 -20 -7 -11 -20 -20 -30 -20 -9 0 -18 -5 -20 -10 -4
-13 -157 -40 -225 -40 l-53 0 0 -191 0 -191 53 7 c28 4 56 11 62 16 12 12 95
11 95 -1 0 -5 20 -10 45 -10 33 0 45 -4 45 -15 0 -13 20 -15 124 -15 116 0
125 1 131 20 6 19 15 20 281 20 l275 0 23 -27 23 -26 59 19 59 19 3 179 c1 99
-1 183 -6 188 -5 5 -33 15 -62 23 -52 14 -53 14 -72 -11 l-19 -24 -279 0
c-170 0 -281 4 -285 10 -3 5 1 20 10 34 11 16 12 25 5 28 -18 6 0 38 21 38 21
0 49 42 31 48 -16 5 -2 32 17 32 10 0 29 21 46 50 l29 50 607 0 607 0 6 -25 6
-25 244 0 243 0 11 25 12 25 320 0 c176 0 320 -2 320 -5 0 -3 -12 -24 -26 -47
-16 -25 -22 -44 -16 -46 17 -5 2 -32 -17 -32 -20 0 -46 -47 -30 -52 16 -5 -1
-38 -20 -38 -9 0 -22 -5 -28 -11 -14 -14 -159 -39 -225 -39 l-48 0 0 -62 c0
-35 -3 -121 -7 -192 l-6 -129 59 8 c32 4 61 11 62 16 5 12 89 11 97 -1 3 -5
26 -10 51 -10 32 0 44 -4 44 -15 0 -13 21 -15 125 -15 118 0 125 1 125 20 0
20 7 20 277 20 l277 0 26 -25 c25 -24 27 -24 79 -10 30 8 58 20 62 27 5 7 9
88 9 179 0 187 2 181 -76 205 -46 14 -48 13 -74 -11 l-26 -25 -277 0 c-295 0
-295 0 -261 48 14 20 14 22 -1 22 -13 0 -14 4 -5 20 6 11 19 20 29 20 10 0 23
11 29 25 7 14 8 25 2 25 -5 0 -7 7 -4 15 4 8 12 15 20 15 8 0 28 23 45 50 l31
50 289 0 289 0 12 -25 11 -25 218 0 c209 0 218 1 224 20 6 19 15 20 180 20
l173 0 85 39 c68 31 87 36 91 25 3 -8 10 -14 15 -14 6 0 86 54 180 119 l169
119 38 -39 38 -39 483 0 c472 0 483 0 495 -20 11 -18 24 -20 110 -20 87 0 99
2 110 20 10 16 24 20 68 20 47 0 63 6 115 40 l60 40 404 0 405 0 233 42 233
41 75 133 75 132 6 228 7 229 -103 100 c-56 55 -106 99 -111 97 -6 -1 -17 11
-26 26 -13 23 -33 35 -101 57 -76 24 -88 26 -128 15 l-43 -12 -58 50 -58 50
-387 8 c-387 7 -388 7 -420 30 l-32 24 -323 0 -322 0 -35 -31 c-34 -29 -40
-31 -151 -36 l-115 -6 0 -28 0 -29 -72 0 -72 0 -80 -77 c-45 -43 -82 -85 -84
-93 -2 -9 -81 -51 -188 -99 -166 -75 -192 -84 -239 -82 -44 2 -54 -1 -57 -16
-3 -16 -21 -17 -276 -14 l-274 3 -67 39 c-92 53 -133 53 -209 0 l-57 -39 -256
-4 -255 -3 -49 43 c-42 37 -53 42 -97 42 -42 0 -58 -6 -105 -40 l-56 -40 -253
0 -253 0 -63 40 c-87 55 -126 55 -216 -4 l-67 -43 -235 13 c-129 7 -258 13
-287 13 l-51 1 -7 60 -7 60 -192 0 -192 0 -42 43 c-23 23 -42 50 -42 60 0 16
-19 17 -215 17 -137 0 -215 -4 -215 -10 0 -6 -82 -10 -226 -10 l-226 0 -15 40
-16 40 -384 0 c-334 0 -383 2 -383 15 0 13 -27 15 -180 15 l-180 0 0 45 0 45
-650 0 -650 0 0 -70 0 -70 -135 0 -135 0 0 -35 0 -35 -104 0 -105 0 14 33 c7
17 59 147 114 289 l101 256 0 355 c0 349 0 354 -21 373 -12 10 -39 41 -60 67
l-39 49 0 190 0 191 90 98 90 97 0 245 0 244 -40 28 -40 28 0 199 0 200 48 -6
c26 -3 72 -8 103 -12 l56 -6 7 1817 c4 1000 5 1819 3 1821 -2 3 -267 7 -588 9
l-584 5 -600 -140z m7940 -7230 c47 -35 61 -40 108 -40 43 0 63 6 107 35 l55
34 150 1 c83 0 226 -5 320 -10 l170 -10 32 -33 32 -32 -144 -100 c-132 -91
-145 -103 -145 -130 0 -28 -6 -34 -65 -63 l-65 -32 -180 0 c-170 0 -179 1
-185 20 -6 19 -15 20 -225 20 -210 0 -219 -1 -225 -20 -6 -20 -15 -20 -775
-20 -760 0 -769 0 -775 20 -6 19 -15 20 -250 20 -235 0 -244 -1 -250 -20 -6
-20 -15 -20 -1138 -20 -623 0 -1689 3 -2369 7 l-1236 6 18 46 18 46 881 3
c779 2 881 0 881 -13 0 -13 33 -15 243 -15 l243 0 39 40 39 40 1213 0 1213 0
0 114 0 113 93 7 c50 3 175 9 277 12 l185 6 60 -39 c57 -37 64 -39 115 -33 35
3 76 17 111 38 l56 32 253 0 252 0 57 -40 c79 -55 124 -55 196 0 l51 40 210 3
c115 1 228 3 252 5 36 2 51 -4 97 -38z m-9679 -777 l418 -308 -145 -5 -145 -5
-61 -45 -62 -45 -3 -140 -3 -140 -182 -54 -182 -54 -52 -149 -51 -148 -97 0
-96 0 -48 96 -48 97 -52 -7 c-29 -3 -152 -6 -274 -6 l-223 0 0 -90 c0 -99 3
-96 -79 -102 -32 -3 -35 -6 -69 -90 l-36 -88 -57 0 -57 0 -63 158 c-34 86 -63
159 -65 161 -2 1 -227 -71 -501 -162 l-498 -165 -3930 -27 -3930 -27 -1565 27
c-861 14 -1603 28 -1649 31 l-83 6 6 116 c3 65 9 269 12 455 l7 337 1680 0
1681 0 416 142 416 142 25 83 24 83 805 0 805 0 59 102 60 101 305 -6 c169 -4
1293 -7 2499 -7 l2192 0 0 -140 0 -140 173 0 c94 0 505 7 912 15 407 8 809 15
893 15 l152 0 0 145 0 145 174 0 175 0 417 -307z m932 299 c-1 -4 -30 -46 -63
-93 l-59 -86 -126 85 c-69 47 -129 89 -134 94 -6 4 79 8 188 8 109 0 196 -4
194 -8z"/>
</g>
</svg>
