<?xml version="1.0" standalone="no"?>
<!DOCTYPE svg PUBLIC "-//W3C//DTD SVG 20010904//EN"
 "http://www.w3.org/TR/2001/REC-SVG-20010904/DTD/svg10.dtd">
<svg version="1.0" xmlns="http://www.w3.org/2000/svg"
   viewBox="0 0 3857.000000 1573.000000"
 preserveAspectRatio="xMidYMid meet">
<metadata>
Created by potrace 1.16, written by Peter Selinger 2001-2019
</metadata>
<g transform="translate(0.000000,1573.000000) scale(0.100000,-0.100000)"
fill="#000000" stroke="none">
<path d="M22350 15625 c-7 -58 -18 -109 -24 -113 -6 -4 -576 -10 -1266 -13
l-1255 -6 -1795 -441 c-987 -242 -2428 -596 -3201 -786 -773 -190 -1410 -346
-1415 -346 -6 0 -28 36 -49 81 -54 110 -62 114 -53 26 4 -40 7 -86 7 -103 l1
-30 -277 -67 -278 -68 -1695 -609 -1695 -609 -1673 -220 c-1368 -181 -1694
-221 -1791 -221 -115 0 -129 3 -629 119 l-512 119 -787 -13 -788 -14 -65 -68
c-36 -37 -105 -110 -153 -161 l-88 -92 -492 -125 -492 -125 -240 -7 -239 -8
-28 -115 c-19 -77 -33 -117 -45 -124 -10 -6 -92 -51 -183 -101 l-165 -90 -3
-347 -2 -348 187 -94 c104 -53 199 -104 213 -115 l25 -21 -245 0 -246 0 -132
-81 -132 -82 2 -715 3 -716 110 -66 110 -66 5 -254 5 -254 101 -61 101 -60
-180 -80 -180 -81 -31 -93 -31 -94 -323 -97 c-177 -53 -326 -100 -330 -104 -9
-10 -9 -2752 0 -2761 4 -4 535 -139 1180 -301 l1173 -293 430 -30 c237 -17
458 -33 493 -37 l62 -6 462 -449 461 -449 991 1 c1267 0 3608 23 3627 34 8 5
232 153 498 328 l484 318 886 25 c930 25 3790 63 4131 54 l195 -5 270 -222
270 -222 870 5 c479 2 930 7 1003 10 l134 6 221 205 222 205 299 -6 c165 -3
448 -6 630 -6 l331 0 104 -189 104 -189 266 -264 c263 -262 269 -267 549 -472
l283 -208 277 -8 c152 -5 680 -9 1173 -10 l896 0 6 -137 c4 -75 7 -211 7 -302
0 -91 9 -305 20 -476 11 -170 20 -326 20 -345 0 -29 41 -98 224 -380 l224
-345 -21 -37 c-12 -20 -19 -39 -16 -43 4 -3 207 -100 453 -215 l446 -210 243
-15 c133 -8 270 -17 304 -20 l61 -5 7 30 c4 17 13 34 20 36 7 3 108 -2 224
-10 116 -9 226 -16 245 -16 l33 0 6 205 c4 113 10 297 14 410 l6 205 1883 0
c1830 0 1887 -1 2074 -21 185 -19 197 -22 316 -69 l124 -50 533 -19 c552 -20
551 -20 1001 14 232 18 323 38 660 147 152 49 275 97 398 154 l179 84 150 0
151 0 220 215 c206 200 227 225 335 381 l115 167 -65 66 c-59 60 -70 77 -111
181 -38 99 -46 132 -56 235 -18 191 -7 169 -161 337 -92 101 -135 154 -127
159 7 3 39 9 71 12 50 5 96 26 325 145 147 77 312 162 367 190 70 35 164 99
315 214 l215 164 100 177 100 177 720 1 c396 0 729 4 739 8 14 5 137 -49 465
-207 l446 -214 190 -2 c105 -1 306 -6 447 -11 l257 -8 340 128 c188 71 341
134 341 139 0 29 -230 700 -242 707 -7 4 -70 24 -139 44 l-127 37 -301 572
-302 571 -92 64 -92 63 -67 143 -66 142 -156 719 c-142 657 -163 768 -245
1294 -50 316 -93 590 -95 609 -4 27 -1 34 14 38 11 3 20 13 20 23 0 9 -36 278
-80 596 l-80 579 -49 140 c-28 77 -54 160 -60 185 -5 25 -48 169 -95 321 -93
301 -205 596 -374 989 l-110 255 -192 248 c-188 241 -193 247 -229 247 -20 0
-52 4 -71 9 -23 5 -203 135 -530 383 l-495 374 -645 376 -645 375 -421 151
c-232 84 -453 159 -490 167 -38 9 -442 110 -899 225 l-830 210 -1445 275
-1445 276 -1550 145 -1550 145 -675 29 c-398 17 -807 30 -997 30 l-322 0 -3
107 c-3 89 -6 108 -19 111 -13 2 -18 -16 -29 -103z m-20710 -5305 c0 -15 -7
-20 -28 -20 -16 0 -37 9 -47 20 -18 20 -17 20 28 20 40 0 47 -3 47 -20z m-10
-2354 c0 -8 -19 -18 -44 -25 -55 -13 -56 -13 -56 -1 0 6 8 10 18 10 10 0 27 7
38 15 24 18 44 19 44 1z m28554 -4048 c-4 -12 -32 -90 -63 -173 -53 -141 -63
-161 -176 -322 l-120 -172 -1570 5 c-863 2 -1846 6 -2183 9 l-613 5 -387 215
-387 216 -77 92 -77 92 29 3 c16 2 38 -2 49 -7 26 -14 1224 -15 1249 -2 10 6
862 20 2117 34 1155 13 2126 25 2158 26 56 1 58 0 51 -21z m-604 -1478 l0 -89
-27 5 c-16 3 -71 16 -123 28 l-95 22 115 61 c63 34 118 62 123 62 4 1 7 -39 7
-89z"/>
</g>
</svg>
