<?xml version="1.0" standalone="no"?>
<!DOCTYPE svg PUBLIC "-//W3C//DTD SVG 20010904//EN"
 "http://www.w3.org/TR/2001/REC-SVG-20010904/DTD/svg10.dtd">
<svg version="1.0" xmlns="http://www.w3.org/2000/svg"
   viewBox="0 0 4303.000000 765.000000"
 preserveAspectRatio="xMidYMid meet">
<metadata>
Created by potrace 1.16, written by Peter Selinger 2001-2019
</metadata>
<g transform="translate(0.000000,765.000000) scale(0.100000,-0.100000)"
fill="#000000" stroke="none">
<path d="M16920 7594 c-157 -29 -286 -53 -287 -54 -2 0 -3 -29 -3 -65 l0 -65
-1165 0 -1165 0 0 -655 0 -655 -29 0 c-15 0 -61 -13 -101 -30 -66 -27 -83 -30
-186 -30 l-114 0 0 -180 0 -180 -119 0 -120 0 -3 459 c-2 253 -6 462 -9 465
-3 3 -500 -10 -1104 -29 l-1098 -35 -80 29 -79 30 -3905 -144 c-2148 -79
-3907 -145 -3909 -148 -2 -2 3 -136 11 -298 8 -162 15 -302 15 -311 0 -17 -35
-18 -594 -18 l-594 0 -12 50 c-7 28 -17 50 -23 50 -7 0 -232 -23 -502 -50
-269 -28 -529 -50 -577 -50 -49 0 -88 -4 -88 -9 0 -5 -39 -12 -87 -16 -49 -4
-96 -11 -106 -14 -10 -4 -214 -297 -453 -651 l-434 -645 0 -418 0 -417 55
-110 c39 -78 55 -121 55 -150 0 -33 3 -40 20 -40 16 0 47 -53 159 -277 l140
-278 423 -560 424 -560 97 -55 96 -55 1 -182 c0 -164 2 -182 18 -187 9 -3 125
-26 257 -51 l240 -45 325 0 c324 0 325 0 335 -22 7 -14 75 -55 200 -120 l190
-98 1145 0 1144 0 222 -125 223 -125 1830 0 1830 0 183 84 183 84 39 95 39 94
141 6 c78 4 358 7 623 7 l482 0 76 30 c70 28 85 30 202 30 l126 0 -6 275 -6
275 89 -48 c88 -46 90 -48 90 -84 l0 -38 990 0 990 0 0 40 c0 40 0 40 80 80
44 22 82 40 85 40 3 0 5 -121 5 -270 l0 -270 124 0 c114 0 129 -2 196 -30 l73
-30 923 0 923 0 76 30 c70 28 85 30 202 30 l126 0 -7 274 -6 275 90 -47 c89
-46 90 -47 90 -84 l0 -38 445 0 445 0 0 -171 0 -171 41 -46 41 -47 161 -5 161
-5 82 -205 82 -205 153 -3 c152 -3 154 -3 182 -30 16 -15 38 -46 48 -70 10
-23 32 -59 48 -80 20 -25 35 -58 43 -102 l13 -64 68 -14 c60 -13 67 -17 67
-38 0 -20 5 -24 30 -24 l30 0 0 95 0 95 -30 0 c-25 0 -30 -4 -30 -24 0 -25
-16 -36 -56 -36 l-24 0 0 120 0 120 45 11 c24 6 50 17 56 25 9 11 47 14 168
14 l157 0 84 210 84 210 897 0 898 0 76 30 c70 28 85 30 202 30 l126 0 -7 273
c-3 149 -7 343 -8 430 l-3 159 150 79 149 79 253 0 253 0 0 -430 0 -430 1555
0 1555 0 0 430 0 430 228 0 228 0 374 285 373 285 313 0 314 0 0 -100 0 -100
270 0 270 0 0 105 0 105 95 0 95 0 0 -105 0 -105 80 0 c73 0 80 -2 80 -20 0
-11 5 -20 10 -20 6 0 10 9 10 20 0 19 7 20 175 20 l175 0 0 105 0 105 80 0 80
0 0 -105 0 -105 120 0 c78 0 120 -4 120 -11 0 -6 -47 -201 -105 -434 l-104
-424 24 -56 25 -56 48 6 c26 4 360 43 742 89 l696 82 87 63 c91 65 90 64 70
118 -3 7 11 16 34 22 21 5 367 46 768 90 402 45 740 84 752 86 17 4 23 -2 32
-26 11 -31 11 -31 68 -25 166 18 155 15 151 47 -4 26 -1 29 26 34 34 5 299 35
314 35 5 0 -26 -141 -69 -312 l-78 -313 22 -57 c12 -32 26 -58 32 -58 5 0 341
39 745 86 l735 87 88 64 c48 36 87 67 87 68 0 2 -4 15 -9 29 -7 17 -6 27 3 35
10 9 1480 181 1544 181 11 0 24 -11 31 -26 11 -26 13 -26 89 -20 128 11 135
13 130 47 -3 16 -2 29 1 29 3 0 62 7 131 15 69 8 137 15 151 15 l27 0 -74
-294 -74 -294 26 -57 25 -58 42 6 c23 3 357 43 742 88 l700 82 88 64 c48 36
87 69 87 75 0 5 -4 18 -10 28 -7 13 -6 21 4 29 11 9 1473 181 1542 181 17 0
27 -8 34 -26 10 -26 12 -26 78 -20 142 14 144 15 140 47 -4 26 -2 29 36 34 23
3 543 62 1156 130 613 69 1128 127 1143 130 26 4 30 1 44 -35 18 -46 15 -46
175 -27 l97 12 455 370 c250 204 455 374 456 380 0 5 -9 32 -21 60 l-21 51
-701 27 c-386 16 -754 31 -818 34 l-117 6 -11 37 c-6 21 -11 78 -11 129 l0 91
-27 0 c-58 -1 -3688 192 -3692 196 -2 2 13 42 35 89 l39 85 35 -5 c138 -19
603 -66 614 -62 7 3 25 26 40 52 l26 47 -43 47 c-23 26 -202 222 -397 434
-291 319 -361 389 -390 397 -19 5 -75 21 -123 34 l-89 25 -20 -36 c-17 -28
-26 -34 -47 -31 -14 2 -533 141 -1153 308 l-1126 303 11 24 c6 14 7 27 1 32
-5 5 -51 19 -103 31 l-93 23 -22 -25 -21 -25 -747 202 c-411 111 -754 207
-762 214 -14 11 -13 16 1 38 16 24 16 25 -63 103 l-79 79 -714 196 c-392 108
-719 194 -726 192 -6 -3 -24 -26 -39 -51 l-27 -47 36 -365 c20 -202 34 -369
31 -371 -3 -3 -82 15 -176 41 -94 25 -172 46 -174 46 -2 0 -3 15 -2 33 l1 32
-99 25 c-68 17 -100 21 -103 14 -16 -47 12 -53 -773 160 -410 110 -754 206
-764 212 -19 12 -19 13 -2 39 l18 28 -78 77 -79 78 -715 196 c-393 108 -720
196 -725 196 -6 0 -24 -24 -40 -54 l-29 -54 26 -258 25 -258 -20 -59 -20 -60
22 -16 c19 -15 21 -21 12 -45 -14 -36 -14 -36 9 -36 11 0 20 -6 20 -12 0 -7 7
-76 15 -153 8 -77 15 -146 15 -152 0 -8 -14 -13 -38 -13 -37 0 -39 -2 -62 -56
l-23 -56 -131 7 c-72 4 -136 11 -142 16 -6 5 -19 27 -29 49 -16 35 -22 40 -52
40 l-33 0 0 165 0 165 30 0 c36 0 36 -1 9 77 -20 59 -22 62 -57 65 -31 3 -37
7 -44 36 l-9 32 -183 0 -184 0 -20 -60 c-20 -58 -20 -59 -1 -65 21 -7 24 -22
9 -59 -9 -26 -9 -26 35 -26 l45 0 0 -165 0 -165 -45 0 c-39 0 -47 -3 -55 -25
-10 -28 1 -27 -177 -9 l-53 5 0 165 c0 161 0 164 -22 169 -13 3 -849 147
-1858 321 -1556 267 -1845 314 -1900 310 -54 -5 -243 24 -1078 161 l-1013 166
-140 -139 -139 -139 0 403 0 402 -157 199 -157 199 -715 7 c-394 4 -1097 5
-1563 1 l-848 -8 0 121 0 121 -27 -1 c-16 -1 -156 -25 -313 -55z m5320 -2109
c432 -73 776 -133 765 -134 -11 0 -308 19 -660 44 l-640 43 -147 43 -148 43 0
48 c0 43 2 48 23 47 12 0 375 -60 807 -134z m9732 -1467 c852 -95 1548 -177
1548 -182 0 -4 -20 -52 -45 -105 -38 -82 -46 -110 -54 -195 -6 -54 -11 -99
-13 -101 -2 -1 -136 -41 -298 -88 l-295 -86 -755 -60 -755 -60 -388 16 -389
16 -44 -21 c-44 -22 -50 -22 -649 -22 -552 0 -605 1 -605 16 0 47 -33 360 -45
434 -8 47 -15 93 -15 103 0 16 17 17 215 17 l215 0 0 35 0 35 53 0 c28 0 222
5 431 10 208 6 383 7 390 2 6 -5 41 -4 78 2 l67 11 -104 190 c-105 190 -112
205 -97 206 4 0 703 -78 1554 -173z m2267 -255 c460 -51 424 -51 457 3 10 17
80 10 1375 -135 750 -84 1364 -154 1365 -155 1 0 -19 -43 -43 -93 -42 -91 -44
-93 -78 -93 -20 0 -843 43 -1831 95 -987 52 -1802 95 -1810 95 -10 0 -14 12
-14 43 0 62 105 287 134 287 12 1 212 -21 445 -47z m-7158 -343 c88 -153 89
-155 89 -222 l0 -68 -160 0 -160 0 0 225 0 226 71 -3 71 -3 89 -155z m728 -22
c-43 -101 -83 -192 -88 -203 -6 -13 -10 49 -10 183 l-1 202 89 0 90 0 -80
-182z m779 -40 l-3 -223 -77 -3 -78 -3 0 226 0 225 80 0 80 0 -2 -222z m6983
-268 c975 -44 1780 -80 1790 -80 10 0 23 -15 33 -41 9 -23 16 -43 14 -44 -2
-2 -718 26 -1593 62 -1276 52 -1597 62 -1624 53 -24 -9 -91 -10 -245 -5 l-212
7 -22 57 c-12 31 -22 60 -22 64 0 12 44 10 1881 -73z m-2106 -21 c10 -14 1
-21 -19 -13 -9 3 -13 10 -10 15 7 12 21 11 29 -2z m5979 -154 c906 -41 1651
-77 1655 -80 3 -4 -37 -4 -89 -1 -52 4 -779 34 -1615 67 l-1519 61 -53 -26
c-37 -18 -70 -26 -107 -26 -53 0 -53 0 -64 39 -7 21 -12 41 -12 44 0 3 35 3
78 0 42 -2 819 -37 1726 -78z"/>
</g>
</svg>
