<?xml version="1.0" standalone="no"?>
<!DOCTYPE svg PUBLIC "-//W3C//DTD SVG 20010904//EN"
 "http://www.w3.org/TR/2001/REC-SVG-20010904/DTD/svg10.dtd">
<svg version="1.0" xmlns="http://www.w3.org/2000/svg"
   viewBox="0 0 4867.000000 1358.000000"
 preserveAspectRatio="xMidYMid meet">
<metadata>
Created by potrace 1.16, written by Peter Selinger 2001-2019
</metadata>
<g transform="translate(0.000000,1358.000000) scale(0.100000,-0.100000)"
fill="#000000" stroke="none">
<path d="M1662 13358 l-2 -228 -139 0 -138 0 -6 -72 c-3 -40 -14 -186 -23
-325 l-18 -251 -60 -24 -61 -24 -3 -127 -3 -127 -49 0 -50 0 0 -180 0 -180 50
0 c47 0 50 -2 50 -25 0 -25 -1 -25 -88 -25 -84 0 -94 -2 -198 -49 l-109 -49
-3 -226 -2 -226 -118 -1 c-64 0 -126 -4 -137 -9 -13 -5 31 -9 118 -9 l137 -1
0 -235 0 -235 -70 0 -70 0 0 -340 0 -340 70 0 70 0 0 -235 0 -235 60 0 60 0 0
-73 0 -73 -141 -69 c-133 -66 -144 -73 -175 -122 -30 -46 -34 -60 -34 -122 l0
-69 -84 -7 c-46 -4 -89 -10 -95 -14 -8 -5 -11 -34 -9 -87 l3 -79 87 -10 c48
-6 89 -13 92 -15 2 -3 6 -62 8 -133 l3 -127 -160 0 c-118 0 -195 -5 -293 -21
l-132 -22 0 -68 c0 -79 -19 -68 166 -99 89 -15 168 -20 298 -20 l176 0 0 -180
0 -180 30 0 30 0 0 -110 0 -110 -75 0 -75 0 0 -245 0 -245 75 0 75 0 0 -140 0
-140 -25 0 -25 0 0 -105 0 -105 25 0 c23 0 25 -4 26 -42 0 -24 8 -62 18 -86
14 -35 26 -47 60 -63 24 -10 64 -19 91 -19 l47 0 7 -187 c10 -263 25 -1098 26
-1405 0 -153 4 -258 9 -258 6 0 12 262 15 663 3 364 9 716 13 783 l8 120 810
-567 c712 -499 815 -568 848 -568 28 -1 37 3 37 15 0 15 23 16 265 10 l265 -8
0 62 0 62 -265 -8 c-181 -5 -265 -4 -265 4 0 5 -17 12 -37 14 -31 3 -188 108
-850 571 l-813 569 0 64 c0 55 3 64 18 64 10 0 65 16 122 35 57 19 109 35 116
35 7 0 186 -124 398 -275 l385 -275 641 0 c562 0 640 -2 640 -15 0 -13 86 -15
710 -15 624 0 710 2 710 15 0 13 23 15 145 15 122 0 145 -2 145 -15 0 -13 86
-15 715 -15 629 0 715 2 715 15 0 13 23 15 145 15 122 0 145 -2 145 -15 0 -13
69 -15 565 -15 l565 0 0 -918 0 -917 328 -328 327 -327 1566 0 1567 0 3187
-1282 c2430 -978 3189 -1287 3193 -1301 4 -15 12 -18 35 -14 21 3 68 -11 149
-44 l118 -48 0 215 c0 209 0 214 19 204 11 -5 29 -10 40 -10 21 0 21 -4 21
-205 l0 -205 90 0 90 0 0 -85 0 -85 -230 0 -230 0 0 -255 0 -255 235 0 235 0
0 145 0 145 55 0 55 0 0 35 c0 34 1 35 40 35 l40 0 0 -210 0 -210 4270 0 4270
0 0 188 c0 103 3 197 6 210 5 17 14 22 40 22 32 0 34 -2 34 -35 l0 -35 55 0
55 0 0 -145 0 -145 235 0 235 0 0 145 0 145 55 0 55 0 0 35 c0 34 1 35 40 35
l40 0 0 -210 0 -210 4270 0 4270 0 0 210 0 210 40 0 c39 0 40 -1 40 -35 l0
-35 55 0 55 0 0 -145 0 -145 235 0 235 0 0 145 0 145 55 0 55 0 0 35 c0 34 1
35 40 35 l40 0 0 -210 0 -210 4155 0 4155 0 0 -75 0 -75 675 0 675 0 0 55 0
55 715 0 c470 0 715 3 715 10 0 7 -245 10 -715 10 l-715 0 0 30 0 30 715 0
c470 0 715 3 715 10 0 7 -245 10 -715 10 l-715 0 0 150 0 150 578 3 577 2
-577 3 -578 2 0 100 0 100 -460 0 -460 0 0 85 0 85 105 0 105 0 0 2455 0 2455
260 0 c253 0 260 1 260 20 0 19 -7 20 -260 20 l-260 0 0 65 0 65 260 0 260 0
0 25 0 25 -260 0 -260 0 0 1675 0 1675 235 0 c147 0 235 4 235 10 0 6 102 11
273 13 l272 2 -272 3 -273 2 0 94 c0 52 4 96 9 98 19 7 361 568 361 593 l0 25
443 3 442 2 -442 3 -443 2 0 45 c0 35 -4 45 -17 47 -10 1 50 5 132 8 l150 6
-142 2 c-79 1 -143 4 -143 6 0 3 12 32 26 65 26 59 28 61 83 76 31 9 73 21 94
27 l37 11 0 144 0 143 -77 0 c-70 0 -79 2 -105 27 l-28 27 0 321 0 321 -45 32
-46 32 -1809 0 -1810 0 -140 -101 -140 -100 -237 5 c-131 2 -257 7 -280 11
-41 7 -43 9 -43 41 l0 34 -140 0 -140 0 0 -40 c0 -39 1 -40 33 -40 26 0 43
-10 80 -48 l47 -48 0 -137 0 -137 -2534 0 c-1394 0 -2541 3 -2550 6 -12 5 -16
21 -16 66 0 46 -4 64 -17 75 -13 10 -15 16 -5 19 6 3 12 17 12 31 0 21 -4 24
-22 19 -13 -3 -26 -6 -31 -6 -4 0 -6 -14 -5 -32 1 -18 -3 -33 -10 -36 -8 -2
-12 -26 -12 -67 0 -74 -1 -75 -127 -75 l-83 0 0 50 0 50 100 0 c60 0 100 4
100 10 0 6 -40 10 -100 10 l-100 0 -1 148 c-1 81 -5 158 -9 172 -5 15 -8 -46
-9 -147 l-1 -173 -105 0 -105 0 -2 308 c-1 256 -3 284 -9 172 -3 -74 -7 -213
-8 -307 l-1 -173 -110 0 c-67 0 -110 -4 -110 -10 0 -6 43 -10 110 -10 l110 0
0 -50 0 -50 -97 0 c-144 0 -140 -2 -147 83 -3 40 -5 84 -5 98 -1 19 -7 28 -23
33 -35 9 -38 8 -38 -19 0 -15 6 -25 15 -25 9 0 12 -6 9 -15 -4 -8 -15 -15 -25
-15 -17 0 -19 -8 -19 -64 0 -49 -4 -65 -16 -70 -9 -3 -128 -6 -265 -6 l-248 0
-17 32 c-11 22 -13 33 -5 36 6 2 11 10 11 18 0 11 -27 14 -150 14 l-150 0 -70
-35 -70 -35 -3264 0 -3265 0 -77 35 c-76 35 -77 35 -220 35 -121 0 -144 -2
-144 -15 0 -8 4 -15 10 -15 5 0 2 -16 -7 -35 l-17 -35 -257 0 c-142 0 -264 3
-273 6 -12 5 -16 21 -16 66 0 46 -4 64 -17 75 -13 10 -15 16 -5 19 6 3 12 17
12 31 0 21 -4 24 -22 19 -13 -3 -27 -6 -32 -6 -5 0 -6 -13 -3 -28 10 -50 -17
-62 -138 -62 l-105 0 -1 148 c0 81 -4 156 -9 167 -5 12 -9 -45 -9 -147 l-1
-168 -105 0 -105 0 -2 308 c-1 256 -3 284 -9 172 -3 -74 -7 -213 -8 -307 l-1
-173 -105 0 c-63 0 -105 -4 -105 -10 0 -6 42 -10 105 -10 l105 0 0 -50 0 -50
-92 0 c-140 0 -138 -1 -138 79 0 39 -5 72 -12 79 -9 9 -9 12 0 12 22 0 13 37
-10 44 -39 10 -48 7 -48 -19 0 -15 6 -25 15 -25 9 0 12 -6 9 -15 -4 -8 -12
-15 -20 -15 -11 0 -14 -16 -14 -64 0 -58 -2 -64 -22 -70 -13 -3 -134 -6 -270
-6 l-247 0 -17 32 c-11 22 -13 33 -5 36 6 2 11 10 11 18 0 11 -27 14 -150 14
l-150 0 -70 -35 -70 -35 -3264 0 -3264 0 -76 35 c-77 35 -78 35 -222 35 -118
0 -144 -3 -144 -14 0 -8 4 -16 8 -18 5 -1 3 -18 -5 -35 l-13 -33 -259 0 c-143
0 -266 3 -275 6 -12 5 -16 21 -16 66 0 46 -4 64 -17 75 -13 10 -15 16 -5 19 6
3 12 17 12 31 0 21 -4 24 -22 19 -13 -3 -27 -6 -32 -6 -5 0 -6 -13 -3 -28 10
-50 -17 -62 -143 -62 l-110 0 0 153 c0 83 -5 159 -10 167 -6 10 -10 -41 -10
-152 l0 -168 -105 0 -105 0 -2 313 c-1 262 -3 289 -9 172 -3 -77 -7 -218 -8
-312 l-1 -173 -75 0 c-41 0 -75 4 -75 9 0 6 -17 11 -37 13 -36 3 -38 5 -35 34
2 26 -1 33 -20 38 -35 9 -38 8 -38 -19 0 -14 5 -25 11 -25 6 0 9 -7 5 -15 -3
-9 0 -15 9 -15 12 0 15 -14 15 -64 0 -58 -2 -64 -22 -70 -13 -3 -722 -6 -1576
-6 l-1553 0 -248 199 c-164 132 -258 201 -276 203 -30 3 -48 28 -21 28 9 0 16
8 16 20 0 16 -7 20 -31 20 -28 0 -30 -2 -27 -32 l3 -33 -2222 -3 -2223 -2 0
-95 0 -95 -920 0 -920 0 0 23 c0 12 -17 41 -38 65 l-37 43 -2648 0 -2648 0
-39 -46 c-22 -26 -40 -53 -40 -61 0 -10 -14 -14 -57 -14 -76 0 -93 6 -121 41
-16 20 -19 27 -8 23 12 -4 16 0 16 15 0 24 -9 26 -34 8 -16 -11 -16 -17 -6
-34 7 -11 10 -28 7 -37 -6 -14 -37 -16 -297 -16 -251 0 -290 2 -290 15 0 12
14 15 65 15 l65 0 0 584 0 584 -22 5 c-13 3 -62 11 -109 18 l-86 12 -6 236
c-3 148 -2 240 4 246 6 6 68 11 139 13 120 3 130 5 130 23 0 10 7 19 15 19 8
0 15 5 15 10 0 6 -7 10 -15 10 -8 0 -15 5 -15 10 0 6 7 10 15 10 8 0 15 5 15
10 0 6 -7 10 -15 10 -8 0 -15 6 -15 14 0 7 -17 25 -38 40 -35 24 -47 26 -135
26 l-97 0 -3 228 -2 227 -3 -227z m6092 -2043 c-17 -12 -332 -14 -2480 -15
-2176 0 -2463 2 -2474 15 -11 13 266 15 2481 15 2194 0 2490 -2 2473 -15z
m-58 -46 c-20 -16 -26 -29 -26 -60 l0 -39 -2180 0 c-2173 0 -2180 0 -2180 20
0 19 -7 20 -215 20 -211 0 -215 0 -215 21 0 11 -10 29 -22 40 -23 18 29 18
2421 19 l2444 0 -27 -21z m35569 2 c-19 -17 -364 -261 -369 -261 -3 0 -6 43
-6 96 0 94 1 97 33 134 l32 38 160 1 c93 1 155 -3 150 -8z m-40875 -261 l0
-190 424 0 c368 0 425 -2 430 -15 3 -8 1 -15 -4 -15 -6 0 -10 -9 -10 -20 0
-16 7 -20 35 -20 28 0 35 4 35 20 0 11 -7 20 -15 20 -22 0 -18 21 5 27 14 4
20 14 20 34 l0 29 2180 0 2180 0 0 -30 0 -30 1015 0 1015 0 0 -170 0 -170
-910 0 -910 0 0 -140 0 -140 -120 0 -120 0 0 155 0 155 -1035 0 -1035 0 0
-155 0 -155 -435 0 -435 0 0 -200 0 -200 -280 0 c-242 0 -280 -2 -280 -15 0
-13 -41 -15 -305 -15 -298 0 -305 0 -305 20 0 19 -7 20 -187 20 l-188 -1 -80
-119 -80 -119 -192 -1 -192 0 -16 30 -16 30 -99 0 c-92 0 -100 -2 -100 -19 0
-18 -3 -18 -47 -5 -25 8 -84 14 -130 14 l-83 0 0 -111 0 -111 103 5 c56 3 114
9 130 12 23 6 27 4 27 -14 0 -17 6 -21 35 -21 l35 0 0 -100 0 -100 -375 0
-375 0 0 200 c0 171 2 200 15 200 13 0 15 97 15 810 l0 810 330 0 330 0 0
-190z m1420 15 l0 -95 -250 0 -250 0 0 95 0 95 250 0 250 0 0 -95z m80 0 c0
-88 -1 -95 -20 -95 -19 0 -20 7 -20 95 0 88 1 95 20 95 19 0 20 -7 20 -95z
m930 0 l0 -95 -445 0 -445 0 0 95 0 95 445 0 445 0 0 -95z m80 0 c0 -88 -1
-95 -20 -95 -19 0 -20 7 -20 95 0 88 1 95 20 95 19 0 20 -7 20 -95z m930 0 l0
-95 -445 0 -445 0 0 95 0 95 445 0 445 0 0 -95z m90 0 c0 -95 0 -95 -25 -95
-25 0 -25 0 -25 95 0 95 0 95 25 95 25 0 25 0 25 -95z m930 0 l0 -95 -450 0
-450 0 0 95 0 95 450 0 450 0 0 -95z m80 0 c0 -95 0 -95 -25 -95 -25 0 -25 0
-25 95 0 95 0 95 25 95 25 0 25 0 25 -95z m690 0 l0 -95 -330 0 -330 0 0 95 0
95 330 0 330 0 0 -95z m10640 25 l0 -50 -59 0 c-84 0 -91 4 -91 56 l0 44 75 0
75 0 0 -50z m40 0 c0 -27 -4 -50 -10 -50 -5 0 -10 23 -10 50 0 28 5 50 10 50
6 0 10 -22 10 -50z m130 21 c0 -15 -3 -56 -6 -90 l-7 -61 -37 0 -37 0 -7 61
c-12 121 -13 119 44 119 48 0 50 -1 50 -29z m60 -21 c0 -38 -4 -50 -15 -50
-11 0 -15 12 -15 50 0 38 4 50 15 50 11 0 15 -12 15 -50z m250 6 c0 -31 -5
-46 -16 -50 -9 -3 -60 -6 -115 -6 l-99 0 0 50 0 50 115 0 115 0 0 -44z m8947
-33 c-2 -16 -4 -3 -4 27 0 30 2 43 4 28 2 -16 2 -40 0 -55z m133 48 c0 -15 -3
-56 -6 -90 -6 -56 -9 -61 -30 -61 -21 0 -24 5 -24 40 0 33 -3 40 -20 40 -17 0
-20 7 -20 50 l0 50 50 0 c48 0 50 -1 50 -29z m70 -21 c0 -43 -3 -50 -20 -50
-17 0 -20 7 -20 50 0 43 3 50 20 50 17 0 20 -7 20 -50z m240 6 c0 -54 -4 -56
-126 -56 l-94 0 0 50 0 50 110 0 110 0 0 -44z m9070 -46 c0 -89 0 -90 -25 -90
-22 0 -25 4 -25 40 0 33 -3 40 -20 40 -17 0 -20 7 -20 50 l0 50 45 0 45 0 0
-90z m90 40 c0 -49 -1 -50 -30 -50 -29 0 -30 1 -30 50 0 49 1 50 30 50 29 0
30 -1 30 -50z m-17530 -15 l65 -34 -152 -1 -153 0 17 35 17 35 70 0 c61 -1 80
-6 136 -35z m6888 10 c7 -14 12 -30 12 -35 0 -6 -62 -10 -152 -10 l-153 1 70
34 c58 28 82 33 141 34 67 1 71 -1 82 -24z m2502 -10 l65 -34 -152 -1 -153 0
17 35 17 35 70 0 c61 -1 80 -6 136 -35z m6883 18 c2 -10 8 -26 12 -35 7 -17
-4 -18 -146 -17 l-154 0 70 34 c58 28 82 33 141 34 60 1 72 -2 77 -16z
m-31893 -1463 c0 -20 -7 -20 -305 -20 -298 0 -305 0 -305 20 0 20 7 20 305 20
298 0 305 0 305 -20z m-2790 -205 l0 -195 -45 0 -45 0 0 195 0 195 45 0 45 0
0 -195z m2903 168 l347 -6 0 -69 0 -68 -225 0 -225 0 0 25 c0 25 -1 25 -80 25
-73 0 -80 2 -80 20 0 19 -7 20 -149 20 -141 0 -150 -1 -156 -20 -6 -18 -15
-20 -81 -20 l-74 0 0 50 0 50 188 0 c104 0 345 -3 535 -7z m347 -253 c0 -53 4
-90 10 -90 6 0 10 -11 10 -25 0 -14 -4 -25 -10 -25 -6 0 -10 -73 -10 -200 0
-127 4 -200 10 -200 6 0 10 -16 10 -35 0 -31 3 -35 25 -35 22 0 25 4 25 35 0
24 5 35 15 35 13 0 15 -37 15 -270 0 -173 -4 -270 -10 -270 -5 0 -10 9 -10 20
0 16 -7 20 -30 20 -23 0 -30 -4 -30 -20 0 -11 -4 -20 -10 -20 -6 0 -10 -75
-10 -205 0 -130 4 -205 10 -205 6 0 10 -11 10 -25 0 -21 5 -25 30 -25 25 0 30
4 30 25 0 14 4 25 10 25 6 0 11 -67 12 -167 l3 -168 105 -12 c186 -21 190 -22
190 -44 0 -19 -25 -19 -1780 -19 l-1780 0 0 295 0 295 120 0 120 0 0 200 c0
127 4 200 10 200 6 0 10 55 10 145 l0 145 140 0 c104 0 142 -3 145 -12 2 -7 9
-66 15 -130 l12 -118 157 0 156 0 45 72 c71 116 52 108 265 108 l185 0 0 120
0 120 130 0 130 0 0 145 0 145 -45 0 -45 0 0 80 0 80 100 0 c93 0 100 1 100
20 0 20 7 20 480 20 413 0 480 2 480 15 0 8 13 16 33 19 126 19 177 23 290 25
l127 1 0 -90z m100 -115 c0 -16 -6 -25 -15 -25 -9 0 -15 9 -15 25 0 16 6 25
15 25 9 0 15 -9 15 -25z m599 -1781 c2 -2 -30 -4 -72 -4 -48 0 -77 4 -77 11 0
9 138 3 149 -7z m-299 -214 l0 -30 75 0 75 0 0 30 0 30 460 0 460 0 0 -30 0
-30 75 0 75 0 0 30 0 30 465 0 465 0 0 -30 0 -30 75 0 75 0 0 30 0 30 285 0
285 0 0 -235 0 -235 -600 0 -600 0 0 -210 0 -210 35 0 c24 0 35 -5 35 -15 0
-13 -23 -15 -145 -15 -122 0 -145 2 -145 15 0 12 13 15 60 15 l60 0 0 210 0
210 -805 0 -805 0 0 -210 0 -210 30 0 c20 0 30 -5 30 -15 0 -13 -23 -15 -145
-15 -122 0 -145 2 -145 15 0 12 13 15 60 15 l60 0 0 210 0 210 -805 0 -805 0
0 -210 0 -210 35 0 c24 0 35 -5 35 -15 0 -13 -77 -15 -636 -15 l-636 0 -313
222 -313 222 14 39 c10 29 14 95 14 238 l0 199 1780 0 1780 0 0 -30z m22800
-5909 c0 -10 3 -39 6 -65 7 -45 6 -46 -20 -46 -25 0 -26 1 -26 65 0 58 2 65
20 65 13 0 20 -7 20 -19z m9400 -186 l0 -205 90 0 90 0 0 -85 0 -85 -220 0
-220 0 0 85 0 85 105 0 105 0 0 205 0 205 25 0 25 0 0 -205z m-9390 -75 l0
-130 90 0 90 0 0 -85 0 -85 -220 0 -220 0 0 85 0 85 105 0 105 0 0 130 0 130
25 0 25 0 0 -130z m-390 -270 l0 -140 -35 0 c-28 0 -35 4 -35 20 0 18 -7 20
-55 20 -48 0 -55 -2 -55 -20 0 -20 -7 -20 -4165 -20 -4158 0 -4165 0 -4165 20
0 18 -7 20 -55 20 -48 0 -55 -2 -55 -20 0 -17 -7 -20 -40 -20 l-40 0 0 140 0
140 4350 0 4350 0 0 -140z m9390 0 l0 -140 -40 0 c-33 0 -40 3 -40 20 0 18 -7
20 -55 20 -48 0 -55 -2 -55 -20 0 -20 -7 -20 -4160 -20 -4153 0 -4160 0 -4160
20 0 18 -7 20 -55 20 -48 0 -55 -2 -55 -20 0 -17 -7 -20 -40 -20 l-40 0 0 140
0 140 4350 0 4350 0 0 -140z m9390 55 l0 -85 -155 0 -155 0 0 -55 0 -55 -4100
0 c-4093 0 -4100 0 -4100 20 0 18 -7 20 -55 20 -48 0 -55 -2 -55 -20 0 -17 -7
-20 -40 -20 l-40 0 0 140 0 140 4350 0 4350 0 0 -85z"/>
</g>
</svg>
