<?xml version="1.0" standalone="no"?>
<!DOCTYPE svg PUBLIC "-//W3C//DTD SVG 20010904//EN"
 "http://www.w3.org/TR/2001/REC-SVG-20010904/DTD/svg10.dtd">
<svg version="1.0" xmlns="http://www.w3.org/2000/svg"
   viewBox="0 0 4693.000000 2744.000000"
 preserveAspectRatio="xMidYMid meet">
<metadata>
Created by potrace 1.16, written by Peter Selinger 2001-2019
</metadata>
<g transform="translate(0.000000,2744.000000) scale(0.100000,-0.100000)"
fill="#000000" stroke="none">
<path d="M23492 26907 l-1152 -532 5 -2780 c3 -1529 8 -3618 11 -4642 l6
-1863 1119 0 1119 0 0 -35 c0 -28 4 -35 20 -35 19 0 20 -7 20 -90 0 -83 -1
-90 -20 -90 -11 0 -20 -4 -20 -9 0 -6 -21 -11 -47 -13 l-48 -3 -10 -62 c-5
-34 -13 -64 -16 -68 -4 -3 -1177 -3 -2608 1 l-2601 7 0 79 0 78 -240 0 -240 0
0 -55 0 -55 -2313 0 -2312 0 -170 110 -170 110 -905 -1 -905 0 -286 -392 -285
-392 -294 -3 c-311 -2 -310 -3 -310 44 0 20 -6 21 -217 27 -279 9 -757 9
-1035 0 l-218 -6 -6 -34 -6 -33 -439 0 -439 0 0 -26 c0 -14 -5 -102 -11 -196
-6 -93 -9 -171 -7 -173 2 -3 57 -10 121 -16 64 -7 117 -15 117 -18 0 -3 -61
-48 -135 -99 -126 -87 -136 -96 -146 -135 -5 -23 -29 -100 -53 -172 l-42 -130
-82 -3 -82 -3 0 -179 0 -180 -245 0 -245 0 0 250 c0 170 -3 250 -11 250 -11 0
-1199 -207 -1236 -215 -22 -5 -23 -9 -23 -140 l0 -135 -47 0 -48 -1 -225 -360
c-124 -198 -229 -366 -235 -374 -8 -11 -265 -18 -1383 -41 -755 -15 -1374 -25
-1377 -23 -2 3 -7 46 -11 97 l-7 92 -113 0 -114 0 0 30 0 30 -80 0 c-71 0 -87
-4 -133 -30 -53 -30 -54 -30 -215 -30 l-162 0 0 -515 0 -515 160 0 c152 0 163
-1 210 -25 41 -21 63 -25 135 -25 84 0 85 0 85 25 l0 25 114 0 114 0 7 65 7
66 201 -6 c253 -8 2119 -45 2239 -45 l88 0 0 -100 0 -100 -371 0 -372 0 -386
-167 -386 -166 -290 -288 -289 -288 27 -29 c15 -15 27 -31 27 -34 0 -4 -119
-114 -264 -246 l-265 -239 -158 -6 c-156 -7 -175 -10 -1128 -207 -533 -110
-969 -200 -971 -200 -1 0 -53 -87 -115 -192 -62 -106 -130 -218 -153 -248 -22
-30 -46 -72 -53 -93 -11 -33 -123 -230 -421 -742 -29 -49 -37 -72 -29 -76 7
-4 341 -99 742 -213 l731 -206 906 0 906 0 16 40 16 40 330 0 330 0 -9 -22
c-5 -13 -111 -283 -235 -601 -124 -318 -226 -581 -226 -585 0 -3 41 -103 91
-222 l91 -217 127 -61 126 -61 575 -3 c316 -1 593 1 615 6 22 5 375 135 785
289 l745 280 1330 738 c1318 731 1664 924 1677 937 3 4 34 196 68 427 56 386
113 747 125 803 l5 22 229 0 229 0 75 -219 76 -220 122 -158 c67 -87 123 -159
124 -161 1 -1 136 -49 301 -106 l299 -103 175 -12 c96 -6 205 -14 243 -17 l67
-7 0 -167 0 -167 533 -6 c292 -4 955 -7 1473 -7 l941 0 7 53 c3 28 6 80 6 115
l0 62 415 0 415 0 0 -120 0 -120 530 0 530 0 0 150 0 150 1260 0 1260 0 0
-285 0 -285 500 0 500 0 0 -75 c0 -73 1 -75 25 -75 25 0 25 -1 25 -90 0 -89 0
-90 -25 -90 -24 0 -25 -2 -25 -71 l0 -70 -3359 7 -3359 7 -4 -4579 c-2 -2518
-4 -4580 -3 -4581 0 -1 370 -3 822 -5 l823 -3 3567 3593 c1963 1977 3570 3598
3571 3603 2 6 -197 448 -443 984 l-448 975 -473 0 -474 0 0 70 c0 63 -2 70
-20 70 -19 0 -20 7 -20 90 0 83 1 90 20 90 18 0 20 7 20 75 l0 75 1014 0 1013
0 7 37 c3 21 6 129 6 241 l0 202 559 0 c308 0 566 -3 575 -6 9 -3 16 -12 16
-20 0 -12 65 -14 399 -14 l399 0 133 52 134 51 339 5 339 4 191 104 191 103
-1 86 c0 47 -3 87 -5 89 -2 3 -66 8 -142 12 l-138 7 -273 213 -274 214 -166 0
c-151 0 -166 2 -166 18 0 9 -16 27 -35 39 -45 29 -126 30 -435 3 -124 -11
-235 -20 -247 -20 -16 0 -23 -6 -23 -20 0 -19 -7 -20 -110 -20 l-110 0 0 58 0
58 -123 122 -124 122 -295 0 -295 0 -7 -32 c-4 -22 -2 -36 7 -43 7 -5 55 -46
105 -89 l92 -80 0 -70 c0 -39 -3 -142 -7 -228 l-6 -158 -167 0 c-92 0 -201 3
-243 6 l-77 7 0 326 0 326 -116 160 -115 160 -82 7 c-45 3 -630 6 -1299 7
l-1216 1 -51 70 c-61 83 -277 316 -425 457 -59 57 -254 223 -434 370 l-326
267 -391 240 -392 241 -243 95 -244 95 325 6 c178 3 987 7 1797 8 l1472 1 0
-39 c0 -37 2 -39 38 -45 20 -3 126 -6 235 -6 l197 0 0 74 0 73 1358 7 c746 3
1920 9 2608 12 l1252 7 12 -72 12 -71 211 2 212 3 7 74 c4 41 9 75 10 76 2 2
398 -90 880 -204 l877 -206 -249 -3 -250 -2 0 -79 0 -78 -127 -6 c-71 -4 -457
-7 -860 -7 l-731 0 -7 -73 c-8 -81 -3 -612 5 -621 3 -3 391 -8 863 -12 l857
-7 0 -139 0 -138 365 0 365 0 0 138 0 137 1347 0 1347 0 8 33 9 32 353 0 c194
0 435 -3 534 -7 l182 -6 0 -24 0 -23 -435 0 -435 0 0 -500 0 -500 1625 0 1625
0 0 -50 c0 -47 2 -50 25 -50 25 0 25 -1 25 -85 0 -84 0 -85 -25 -85 -24 0 -25
-2 -25 -66 l0 -66 -1368 7 -1369 8 -6 -519 c-4 -285 -7 -1161 -7 -1946 l0
-1428 348 0 348 0 1509 1519 c831 836 1511 1525 1513 1533 1 7 -81 195 -182
418 l-185 405 -191 3 -190 2 0 65 c0 58 -2 65 -20 65 -18 0 -20 7 -20 85 0 78
2 85 20 85 17 0 20 7 20 50 l0 50 248 0 247 0 127 57 128 58 0 386 0 387 -131
56 -130 56 -245 0 c-175 0 -244 3 -244 11 0 12 937 7 1613 -7 l287 -7 0 -48 0
-49 234 0 233 0 7 46 c3 26 6 60 6 75 l0 29 195 0 195 0 0 -375 0 -375 348 0
348 0 770 378 769 379 100 6 c55 4 638 7 1295 8 l1195 2 10 -64 10 -64 211 -3
211 -2 7 79 7 80 42 5 c23 3 722 14 1552 26 831 11 1630 23 1778 27 l267 6 0
139 0 139 -1607 -5 c-885 -4 -1703 -9 -1819 -12 l-212 -5 -7 81 -7 80 -213 0
-212 0 -9 -62 -9 -63 -125 -3 c-69 -2 -465 0 -880 4 l-755 7 330 163 c353 175
361 180 315 229 l-21 22 98 41 98 41 3 169 2 169 -247 6 c-137 4 -886 7 -1667
7 -1289 0 -1418 1 -1412 16 3 9 6 20 6 25 0 5 1016 9 2570 9 1707 0 2570 -3
2570 -10 0 -7 198 -10 573 -10 l573 0 40 30 c55 42 124 42 192 0 47 -29 54
-30 165 -30 93 0 116 3 121 15 5 13 23 14 123 9 65 -4 120 -11 121 -16 2 -4
48 -8 103 -8 l99 0 0 155 0 155 -98 0 c-54 0 -102 -4 -108 -9 -5 -5 -60 -11
-122 -14 -91 -4 -115 -2 -119 9 -4 11 -31 14 -122 14 -106 -1 -120 -3 -156
-25 -57 -36 -154 -36 -201 0 l-33 25 -575 0 -576 0 0 -40 0 -40 -2575 0 -2575
0 0 65 0 65 -79 0 -78 0 -200 248 c-110 136 -507 649 -882 1140 -635 833 -681
896 -681 933 l0 39 2335 0 c2328 0 2335 0 2335 -20 0 -20 7 -20 576 -20 l575
0 37 25 c50 34 124 34 192 0 44 -22 62 -25 158 -25 81 0 113 4 121 14 9 10 37
12 129 8 64 -2 119 -9 120 -13 2 -5 48 -9 103 -9 l99 0 0 150 0 150 -99 0
c-56 0 -103 -4 -106 -10 -8 -13 -232 -13 -240 0 -4 6 -58 10 -128 10 -112 0
-125 -2 -162 -25 -56 -34 -132 -34 -183 0 l-37 25 -577 0 -578 0 0 -25 0 -25
-2334 0 -2334 0 -6 23 c-3 12 -6 41 -6 65 l0 42 -129 0 c-70 0 -155 3 -188 6
l-61 7 -7 -60 -7 -60 -831 -6 c-458 -4 -1711 -7 -2784 -7 l-1953 0 0 65 0 65
-40 0 -40 0 0 55 c0 48 -2 55 -20 55 -19 0 -20 7 -20 90 0 83 1 90 20 90 17 0
20 7 20 38 l0 39 548 6 c301 4 877 7 1280 7 l732 0 0 969 0 968 -3922 3864
c-2157 2125 -4073 4013 -4258 4196 l-335 331 -1153 -531z m6898 -9847 c0 -33
3 -40 20 -40 19 0 20 -7 20 -90 0 -83 -1 -90 -20 -90 -18 0 -20 -7 -20 -55 l0
-55 -49 0 c-54 0 -61 -7 -61 -67 l0 -36 -1247 6 c-687 4 -1888 10 -2670 13
l-1421 7 -7 78 -7 79 -59 0 c-46 0 -59 3 -59 15 0 8 -9 15 -20 15 -19 0 -20 7
-20 90 0 83 1 90 20 90 16 0 20 7 20 35 l0 35 903 3 c496 1 1751 3 2790 5
l1887 2 0 -40z m3670 -690 c1688 -8 2186 -14 2192 -23 4 -7 8 -29 8 -49 l0
-38 68 -1 67 0 617 -762 c339 -419 742 -924 894 -1122 293 -380 285 -366 268
-447 l-6 -28 -2779 0 -2779 0 0 65 0 65 -73 0 -73 0 -884 1112 c-487 611 -889
1117 -893 1125 -4 7 -5 35 -1 63 l7 50 591 0 c325 0 1574 -5 2776 -10z m-3776
-36 c3 -9 6 -31 6 -50 l0 -34 73 -1 72 0 875 -1110 c481 -610 881 -1118 888
-1129 9 -12 11 -30 7 -51 l-7 -31 -1982 7 c-1089 4 -2289 11 -2666 14 l-685 6
-5 75 -5 75 -91 5 -91 5 -55 65 c-31 36 -420 512 -867 1059 -803 983 -811 993
-811 1037 0 31 5 46 15 50 17 7 2443 20 4186 22 1028 2 1137 0 1143 -14z
m-5788 -96 l9 -63 88 -5 87 -5 878 -1018 878 -1017 -14 -75 -15 -75 -1026 0
c-564 0 -1738 3 -2608 7 l-1583 6 0 79 0 78 -129 0 -130 0 -459 553 c-252 303
-626 763 -830 1021 -361 455 -372 470 -372 512 l0 44 363 1 c199 1 943 5 1652
8 710 4 1720 8 2246 9 l956 2 9 -62z m-5702 -34 c3 -9 6 -27 6 -40 0 -24 1
-24 93 -24 50 0 116 -3 145 -6 l52 -7 211 -255 c117 -140 484 -597 816 -1016
523 -660 603 -764 598 -786 -4 -14 -8 -26 -9 -28 -2 -1 -1072 -1 -2379 0
l-2377 3 96 158 96 158 7 116 c4 64 12 118 17 120 5 2 164 73 354 157 l345
154 3 186 2 186 -40 0 -40 0 0 110 0 110 -139 0 -139 0 -413 335 -412 335
-320 0 c-306 0 -321 1 -353 21 -19 11 -34 23 -34 25 0 2 857 4 1904 4 1727 0
1904 -1 1910 -16z m-7518 -925 c-3 -17 -6 -125 -6 -240 l0 -209 -52 0 -53 1
-65 107 -66 107 -768 3 -768 2 6 28 c17 73 17 99 -3 156 -12 33 -21 63 -21 68
0 4 406 8 901 8 l902 0 -7 -31z m2974 -1069 l0 -40 -95 0 -95 0 0 40 0 40 95
0 95 0 0 -40z m19187 -720 c684 -167 2524 -632 2520 -637 -1 0 -877 7 -1947
18 -1070 10 -2056 18 -2191 19 l-246 0 -7 53 c-4 28 -10 62 -13 75 l-5 22
-671 0 -670 0 -771 190 c-424 105 -958 237 -1186 294 l-415 103 265 6 c146 4
1130 10 2188 13 l1922 6 0 -51 0 -51 200 0 200 0 0 65 c0 62 1 65 25 65 13 0
374 -86 802 -190z m3095 174 c1201 -5 1638 -9 1641 -18 3 -8 -18 -10 -73 -8
l-77 4 -6 -54 c-4 -29 -7 -223 -7 -430 l0 -378 -195 0 -195 0 0 34 c0 18 -3
54 -6 80 l-7 46 -233 0 -234 0 0 -50 0 -50 -76 0 c-64 0 -251 42 -1252 280
-971 230 -2215 536 -2257 555 -5 2 294 2 665 -1 371 -2 1412 -7 2312 -10z
m-20753 -245 c115 -8 231 -28 551 -95 l405 -84 375 -136 374 -137 359 -216
360 -216 316 -271 c318 -273 484 -432 605 -579 l66 -79 0 -305 0 -304 -527 6
c-289 4 -856 7 -1260 7 l-733 0 0 25 0 25 -530 0 -530 0 0 -140 0 -140 -415 0
-415 0 0 79 c0 43 -3 105 -6 139 l-7 60 -91 6 c-50 3 -711 7 -1469 9 l-1377 2
0 -171 0 -172 -42 4 c-24 3 -137 11 -253 19 -197 13 -218 17 -338 55 -71 22
-130 40 -132 40 -2 0 -39 46 -83 103 -72 93 -92 130 -159 295 -4 9 555 12
2776 12 l2781 0 0 220 0 220 154 0 154 0 6 333 c3 182 8 515 11 738 l5 406
-316 6 c-175 4 -445 7 -602 7 l-284 0 6 38 c3 20 8 59 12 86 4 27 16 65 26 83
23 38 16 38 227 22z m-1531 -121 l3 -108 -101 0 -100 0 0 110 0 111 98 -3 97
-3 3 -107z m14847 -203 c110 -25 205 -48 210 -50 6 -2 -92 -4 -217 -4 l-228
-1 0 56 c0 48 2 55 18 50 9 -2 107 -25 217 -51z m-23475 -665 l0 -30 -259 0
-259 0 -26 -67 c-14 -38 -88 -230 -164 -428 l-138 -360 -302 -3 -302 -2 0 40
c0 22 -1 41 -2 42 -2 1 -86 4 -187 7 l-184 6 299 279 299 278 245 134 245 133
368 0 367 1 0 -30z m28678 -76 c595 -6 722 -9 722 -21 0 -11 -182 -13 -1080
-13 l-1080 0 0 27 0 26 358 -6 c196 -4 682 -10 1080 -13z"/>
</g>
</svg>
