<?xml version="1.0" standalone="no"?>
<!DOCTYPE svg PUBLIC "-//W3C//DTD SVG 20010904//EN"
 "http://www.w3.org/TR/2001/REC-SVG-20010904/DTD/svg10.dtd">
<svg version="1.0" xmlns="http://www.w3.org/2000/svg"
   viewBox="0 0 4459.000000 2920.000000"
 preserveAspectRatio="xMidYMid meet">
<metadata>
Created by potrace 1.16, written by Peter Selinger 2001-2019
</metadata>
<g transform="translate(0.000000,2920.000000) scale(0.100000,-0.100000)"
fill="#000000" stroke="none">
<path d="M40250 27105 l0 -2095 -87 0 -88 0 -1450 1450 -1450 1450 -55 -55
-55 -55 1014 -1014 c733 -733 1011 -1017 1005 -1027 -4 -8 -161 -193 -347
-411 l-339 -398 -67 1 c-36 0 -611 33 -1277 72 l-1211 73 -6 -79 c-3 -43 -7
-80 -9 -81 -1 -2 -733 36 -1626 83 l-1624 85 4 61 3 61 -2075 102 c-1141 56
-2096 105 -2122 108 l-48 5 0 -62 0 -61 -57 6 c-32 3 -123 8 -203 11 -80 3
-166 8 -192 11 l-48 6 0 -76 0 -76 -408 0 -407 0 -80 80 -80 80 -1302 0 -1303
0 -2 -233 -3 -234 -787 446 -787 446 -1 152 0 153 105 86 105 87 0 208 0 209
-1450 0 -1450 0 0 -280 0 -280 -149 0 -148 0 -7 77 c-3 42 -6 223 -6 403 l0
327 -792 6 c-436 4 -1033 10 -1325 14 l-533 6 0 49 0 48 -665 0 -665 0 0 66
c0 36 -5 107 -11 158 l-12 93 -110 6 c-60 4 -112 8 -114 10 -1 2 -18 91 -36
198 -30 175 -32 200 -22 257 l12 62 -134 0 -133 0 0 -60 0 -60 -595 0 -595 0
0 -86 0 -87 -111 -208 -111 -209 -49 0 -49 0 0 -70 0 -70 -2266 2 -2266 3
-131 213 -130 212 -406 1 -406 1 -88 99 -89 99 -864 0 -864 0 0 510 0 510 170
0 170 0 0 25 0 25 -170 0 -170 0 0 109 0 110 53 4 52 3 -52 2 c-29 1 -53 7
-53 12 0 6 -27 10 -60 10 -33 0 -60 -4 -60 -9 0 -6 -24 -12 -52 -14 l-53 -3
53 -2 52 -2 0 -110 0 -110 -155 0 -155 0 0 -25 0 -25 155 0 155 0 0 -510 0
-510 -345 0 -345 0 0 -150 0 -150 257 -2 257 -3 86 -150 86 -150 -4 -112 -4
-113 -604 0 -604 0 0 100 0 100 -362 0 -361 0 -77 45 -77 45 -1658 -2 -1658
-3 -68 -93 -67 -93 -184 162 c-101 89 -196 174 -211 188 -28 25 -29 26 -43 7
-8 -11 -14 -23 -14 -27 0 -4 97 -93 215 -198 l215 -191 0 -1411 0 -1410 82
-114 83 -115 297 0 297 0 160 75 c148 70 164 75 225 75 l66 0 0 -30 0 -30 95
0 95 0 0 -74 0 -74 438 -428 437 -429 3 -72 3 -73 506 -2 507 -3 482 -647 483
-648 -139 0 -140 0 0 -350 0 -350 508 -1 507 0 383 -401 382 -401 0 -189 0
-188 50 0 50 0 0 -110 0 -109 -56 -3 -57 -3 -78 -125 c-43 -69 -76 -131 -74
-138 3 -8 203 -332 446 -722 l441 -708 1396 -471 1397 -472 233 1 232 0 0
-254 0 -254 213 -86 c116 -47 343 -139 502 -204 l290 -117 3 -173 2 -172 -35
-31 c-35 -31 -35 -31 -35 -115 l0 -84 75 0 c41 0 75 -2 75 -5 0 -3 79 -287
175 -631 l175 -625 0 -626 0 -626 -588 7 -588 7 -346 -175 -345 -176 -1416 0
-1417 0 0 -225 0 -225 -1220 0 -1220 0 0 -115 0 -115 1220 0 1220 0 0 -25 0
-25 1980 0 1979 0 603 -423 c332 -233 691 -485 798 -560 l195 -137 163 0 162
0 0 69 0 70 -124 -6 -125 -6 -225 158 -226 159 0 252 0 252 127 -55 c71 -30
1021 -440 2113 -910 1092 -470 1988 -858 1991 -861 4 -4 30 -153 58 -332 l52
-325 -1 -865 0 -865 176 -238 176 -239 32 -198 c27 -165 30 -200 18 -205 -11
-4 -10 -10 6 -32 35 -51 62 -277 62 -520 l0 -213 252 -2 252 -3 1358 -1770
c747 -973 1404 -1830 1460 -1903 l102 -133 -47 -95 -47 -94 0 -278 1 -277 264
-215 c154 -125 274 -216 288 -218 14 -2 96 6 183 18 l157 21 87 -23 87 -22
130 35 130 35 122 -27 122 -27 342 138 c188 76 593 239 899 364 306 124 563
226 570 226 8 0 871 -198 1918 -440 1047 -242 1912 -440 1922 -440 10 0 18 7
18 15 0 8 5 15 10 15 6 0 536 -121 1179 -270 643 -149 1173 -270 1178 -270 7
0 65 221 60 226 -1 1 -533 124 -1182 274 -649 150 -1182 274 -1183 275 -2 2
19 101 47 221 27 120 49 219 48 219 -1 1 -409 95 -907 209 -498 115 -906 210
-908 211 -5 4 1331 5489 1339 5499 4 4 110 30 235 56 142 31 232 54 239 64 5
8 300 588 655 1290 l645 1275 1334 3 1334 3 1424 2400 1423 2399 0 88 0 88
-65 0 -65 0 0 195 0 195 670 0 670 0 0 813 0 812 122 130 c116 124 123 130
165 133 l43 3 0 -945 0 -946 1023 0 1022 0 160 118 160 118 3 877 2 877 510 0
510 0 0 183 0 183 -85 78 -85 77 0 290 0 289 1980 0 1980 0 0 -110 0 -110 35
0 35 0 0 110 0 110 195 0 195 0 0 45 0 45 -195 0 -195 0 0 65 0 65 302 2 301
3 219 425 c120 234 291 566 379 738 l160 312 -148 0 -148 -1 -206 -287 -205
-287 -1371 -3 -1372 -2 -137 160 -137 160 -228 0 -229 0 0 93 c0 75 20 194
108 653 105 549 108 561 127 548 19 -13 24 -7 75 83 30 54 56 102 58 108 1 6
-81 58 -183 115 l-185 105 0 1627 0 1627 -37 3 -38 3 -6 140 c-4 77 -7 1093
-8 2258 l-1 2117 -35 0 -35 0 0 -2095z m-280 -2233 c0 -23 -2 -23 -62 -18 -35
4 -342 22 -683 41 -341 19 -644 39 -672 43 l-53 7 327 383 327 383 408 -408
c304 -304 408 -414 408 -431z m-431 -5506 c-2 -2 -79 -35 -171 -74 l-168 -70
0 74 0 74 172 0 c94 0 169 -2 167 -4z m3621 -931 l0 -65 -1980 0 -1980 0 0 65
0 65 1980 0 1980 0 0 -65z m-28970 -3899 c0 -30 -7 -39 -72 -86 l-73 -53 68
71 c37 38 67 77 67 86 0 9 2 16 5 16 3 0 5 -15 5 -34z m120 -1726 l120 0 0
-190 0 -190 -292 1 -293 0 -322 404 c-178 223 -324 409 -325 415 -2 6 25 31
60 56 l62 45 0 -60 0 -61 325 0 325 0 0 300 0 299 108 80 107 79 3 -589 2
-589 120 0z m-1525 661 c-12 -10 -455 -334 -472 -345 -10 -5 -13 11 -13 68 l0
76 100 0 100 0 0 105 0 105 147 0 c83 0 143 -4 138 -9z m514 -847 l355 -444
388 0 388 0 0 -47 0 -48 247 -247 248 -248 547 0 546 0 6 -27 c12 -58 266
-1666 264 -1668 -2 -1 -870 372 -1930 829 -1697 731 -1925 832 -1913 846 21
23 65 130 65 157 0 16 -38 74 -105 162 l-105 138 0 289 1 289 317 232 c174
128 319 233 322 232 3 0 164 -200 359 -445z m4851 131 l0 -55 -75 0 -75 0 0
55 0 55 75 0 75 0 0 -55z m0 -250 l0 -75 -75 0 -75 0 0 75 0 75 75 0 75 0 0
-75z m192 -1176 l3 -852 930 -352 930 -351 3 -402 2 -402 -85 0 -85 0 0 90 0
90 -215 0 -215 0 0 30 0 30 285 0 285 0 0 205 0 205 -285 0 c-278 0 -285 0
-285 20 0 19 -7 20 -130 20 -71 0 -130 3 -130 8 0 4 -351 183 -780 397 l-780
390 0 710 0 710 105 105 c104 104 105 105 105 152 l0 48 170 0 170 0 2 -851z
m17 -1592 c299 -197 568 -370 597 -385 l54 -26 0 -58 0 -58 60 0 60 0 0 -120
0 -120 -65 0 -65 0 0 90 0 90 -492 0 -493 0 -112 47 -113 48 0 433 c0 344 3
432 13 426 6 -5 257 -169 556 -367z m8181 -2738 c0 -14 -1270 -5232 -1274
-5237 -2 -1 -32 4 -67 13 l-64 16 296 2520 c163 1386 299 2523 303 2526 5 5
766 170 794 172 6 1 12 -4 12 -10z m-7312 -1629 l275 -270 534 0 533 0 0 -195
0 -195 40 0 40 0 0 -1125 0 -1125 -56 -112 c-46 -92 -58 -108 -68 -97 -16 17
-2579 3359 -2590 3377 -6 9 98 12 504 12 l512 0 276 -270z"/>
</g>
</svg>
