<?xml version="1.0" standalone="no"?>
<!DOCTYPE svg PUBLIC "-//W3C//DTD SVG 20010904//EN"
 "http://www.w3.org/TR/2001/REC-SVG-20010904/DTD/svg10.dtd">
<svg version="1.0" xmlns="http://www.w3.org/2000/svg"
   viewBox="0 0 3666.000000 1959.000000"
 preserveAspectRatio="xMidYMid meet">
<metadata>
Created by potrace 1.16, written by Peter Selinger 2001-2019
</metadata>
<g transform="translate(0.000000,1959.000000) scale(0.100000,-0.100000)"
fill="#000000" stroke="none">
<path d="M27815 19580 c-510 -5 -569 -8 -1595 -73 l-1065 -68 -785 -124 -785
-124 -2240 -47 c-2177 -46 -2241 -48 -2267 -68 -27 -19 -34 -19 -285 -7 -744
35 -1903 122 -2655 201 -254 26 -314 36 -525 86 -210 50 -251 63 -345 110
l-108 54 -452 0 c-249 -1 -1018 -7 -1708 -15 l-1255 -14 -581 -45 -581 -45
-498 -150 -497 -151 -547 0 c-487 1 -609 -3 -1132 -31 -323 -18 -593 -30 -601
-27 -8 4 -81 112 -163 242 l-149 236 -36 0 c-20 0 -351 -20 -735 -45 l-698
-45 -836 -141 c-460 -77 -841 -145 -847 -152 -6 -7 -136 -207 -289 -444 -262
-410 -279 -433 -313 -443 -21 -5 -300 -74 -622 -154 l-585 -144 -1000 -380
c-550 -209 -1008 -383 -1018 -387 -15 -7 -17 -28 -17 -245 l0 -238 353 -7 353
-7 17 -177 c9 -97 26 -239 37 -316 11 -77 36 -331 56 -565 19 -233 38 -427 40
-430 3 -3 53 -7 110 -8 l104 -4 0 -439 0 -439 24 0 c13 0 217 -18 453 -41 235
-22 491 -44 568 -48 140 -8 140 -8 -92 -9 l-233 -2 0 -674 0 -673 68 -6 c37
-3 328 -20 647 -38 l580 -32 65 40 65 40 60 -52 60 -52 845 -97 c465 -53 855
-99 866 -101 12 -3 43 -36 73 -79 28 -42 55 -77 59 -80 4 -2 175 -23 381 -46
l374 -42 366 42 366 42 295 126 295 125 66 69 66 68 249 55 249 55 1200 53
c660 30 1202 52 1204 50 2 -1 0 -17 -5 -35 l-10 -33 -169 -12 c-152 -11 -173
-11 -200 3 -29 15 -41 14 -195 -14 -91 -17 -208 -33 -260 -37 -67 -4 -98 -10
-106 -21 -8 -10 -116 -34 -324 -74 -172 -33 -314 -61 -316 -62 -1 -2 -30 -73
-63 -158 l-61 -155 0 -435 0 -435 61 -160 62 -160 576 -108 c317 -59 583 -107
591 -107 8 0 45 20 82 45 76 51 81 51 218 26 104 -19 102 -17 115 -103 7 -44
-47 -37 575 -83 261 -20 485 -38 498 -41 22 -4 22 -5 22 -194 l0 -189 43 -5
c23 -3 236 -17 472 -31 237 -15 440 -28 452 -31 16 -3 26 -19 42 -66 20 -58
21 -83 21 -395 l0 -333 23 0 c12 -1 111 -7 219 -14 228 -15 194 0 371 -168
l108 -103 -11 -54 c-6 -33 -10 -248 -10 -565 1 -452 3 -522 19 -604 10 -50 21
-95 25 -99 3 -4 417 -27 919 -51 l912 -44 80 -78 80 -78 363 -66 362 -65 243
-169 c309 -216 700 -436 854 -482 54 -15 364 -78 688 -139 l590 -109 1105 -31
1105 -31 258 45 c232 40 259 47 280 69 12 14 137 149 277 301 l255 277 45 -5
c25 -3 731 -69 1570 -148 l1525 -143 89 -146 c294 -479 526 -869 615 -1035 57
-104 108 -195 115 -202 6 -6 218 -73 471 -148 l460 -136 300 -161 c246 -131
395 -221 830 -501 l530 -341 430 -420 c237 -230 537 -515 668 -633 201 -180
298 -278 619 -626 209 -226 545 -578 747 -782 202 -203 662 -667 1023 -1031
l656 -661 598 -47 c855 -67 1789 -143 1997 -162 98 -9 181 -13 185 -10 13 13
41 420 29 428 -11 7 -309 2195 -305 2237 3 20 14 28 68 46 56 19 65 25 62 43
-2 12 -48 225 -102 472 -91 415 -102 456 -138 523 l-40 72 -15 395 c-8 217
-13 510 -10 650 l4 255 -78 235 -78 236 -105 99 -106 100 68 16 c38 9 71 18
73 21 3 3 26 47 51 99 l47 94 9 310 10 310 -33 255 -32 255 -105 113 -106 112
-63 0 c-62 0 -63 0 -63 28 0 15 23 105 51 199 l52 173 141 168 c78 92 147 179
153 193 7 13 29 152 48 308 l36 284 -96 251 c-53 139 -100 257 -103 263 -4 6
-110 53 -237 104 -126 51 -231 93 -233 95 -2 1 -16 51 -33 112 l-30 111 29
108 29 108 74 17 c56 13 121 17 266 18 163 0 218 4 370 29 l178 29 206 99 206
98 88 200 88 200 14 250 13 250 -72 198 -73 198 -203 110 -203 111 -159 26
c-148 23 -160 26 -160 46 1 12 15 166 33 343 l33 323 33 34 c26 27 49 38 105
51 41 10 81 27 96 41 24 21 52 25 610 78 583 54 585 55 673 89 l89 34 -89 32
c-85 30 -107 33 -738 92 l-650 60 -68 31 c-45 21 -66 37 -62 46 2 7 70 109
150 226 l145 214 42 6 c24 3 248 26 498 52 l455 46 294 182 293 181 94 195 93
195 26 230 25 230 -52 304 -53 305 -79 50 -78 50 6 101 c3 55 8 186 12 290 l6
190 -155 440 -154 440 -212 330 -212 330 -442 334 -442 334 -595 305 -595 304
-735 224 -735 224 -755 99 -755 100 -795 31 c-825 32 -887 32 -2025 20z"/>
</g>
</svg>
