<?xml version="1.0" standalone="no"?>
<!DOCTYPE svg PUBLIC "-//W3C//DTD SVG 20010904//EN"
 "http://www.w3.org/TR/2001/REC-SVG-20010904/DTD/svg10.dtd">
<svg version="1.0" xmlns="http://www.w3.org/2000/svg"
   viewBox="0 0 4830.000000 805.000000"
 preserveAspectRatio="xMidYMid meet">
<metadata>
Created by potrace 1.16, written by Peter Selinger 2001-2019
</metadata>
<g transform="translate(0.000000,805.000000) scale(0.100000,-0.100000)"
fill="#000000" stroke="none">
<path d="M6350 7711 l0 -338 -61 -7 c-34 -3 -76 -6 -94 -6 l-32 0 -6 206 c-3
114 -8 209 -11 211 -2 3 -708 2 -1569 -2 l-1564 -8 -6 -295 c-4 -192 -9 -297
-16 -302 -6 -3 -87 -11 -180 -18 l-168 -11 -646 -270 c-355 -149 -651 -271
-656 -271 -7 0 -11 32 -11 85 0 47 -3 85 -7 85 -5 0 -269 -50 -588 -110 -401
-76 -583 -114 -591 -125 -17 -23 -26 -279 -29 -875 -2 -523 -1 -559 17 -622
l19 -66 118 -7 118 -7 -4 -267 c-2 -146 -6 -312 -9 -368 l-6 -102 -86 -3 -87
-3 -13 -60 c-7 -33 -45 -198 -83 -367 l-70 -307 -9 -493 c-6 -271 -11 -502
-12 -512 -2 -15 5 -21 32 -27 19 -4 213 -10 430 -13 217 -3 501 -9 631 -13
l237 -6 7 104 7 104 262 -4 c143 -1 262 -4 264 -6 1 -1 7 -116 12 -256 6 -140
13 -277 16 -305 l5 -50 359 -164 c198 -91 360 -169 360 -175 -1 -5 -70 -61
-154 -124 -85 -63 -159 -125 -165 -138 -7 -16 -11 -144 -11 -377 l0 -352 28
-27 c28 -27 29 -27 175 -27 l147 0 0 -310 0 -310 1963 0 1962 0 -3 242 c-2
134 0 312 3 396 l7 152 753 0 752 0 7 121 c4 67 4 457 0 868 -4 410 -3 1122 1
1582 l7 837 579 7 579 7 0 97 c0 53 3 113 6 134 l7 37 2663 0 2663 0 9 -32 c5
-18 33 -138 63 -265 l54 -233 364 -2 364 -3 72 -170 72 -170 74 3 c41 2 211
10 379 18 345 16 310 23 351 -69 21 -48 47 -72 322 -297 278 -228 301 -245
335 -243 21 1 390 39 822 83 l785 81 135 134 135 135 1295 -250 c712 -138
1296 -250 1298 -250 1 0 1 -98 0 -217 l-3 -217 -137 -40 -138 -40 1 -390 0
-391 154 -107 154 -108 192 -45 c106 -25 194 -45 196 -45 4 0 4 -40 1 -40 -3
-1 -403 -20 -1168 -55 -190 -9 -355 -18 -367 -21 -13 -2 -23 -11 -23 -18 0
-18 37 -22 455 -41 182 -9 489 -25 684 -35 194 -11 369 -20 387 -20 l34 0 0
-80 0 -80 1670 0 1670 0 0 55 0 55 175 0 c168 0 175 -1 175 -20 0 -19 7 -20
125 -20 l125 0 0 185 0 185 -125 0 c-118 0 -125 -1 -125 -20 0 -19 -7 -20
-175 -20 l-175 0 0 155 0 155 -105 0 -105 0 0 663 0 662 93 26 92 25 5 375 5
374 82 30 83 30 0 293 0 292 79 0 80 0 137 90 138 89 30 -18 c69 -42 1346
-755 2331 -1301 578 -320 1069 -594 1092 -607 l42 -24 46 81 47 81 28 -18 c15
-10 97 -63 182 -117 l156 -100 6 -45 c3 -25 8 -152 12 -281 6 -230 6 -236 -15
-272 l-22 -37 12 -333 c11 -312 13 -336 35 -385 l23 -53 123 0 123 0 28 49 27
50 -11 333 c-9 297 -13 337 -30 369 -17 33 -19 58 -19 228 l0 190 153 -98
c157 -101 161 -105 143 -158 l-7 -23 2080 0 2081 0 0 -320 0 -320 35 0 35 0 0
-71 0 -72 128 6 c70 4 466 10 879 14 l753 6 2 -254 3 -254 515 -57 c283 -31
525 -57 536 -57 17 -1 30 -20 65 -101 l43 -100 2393 0 2393 0 0 360 0 360 78
0 c101 -1 821 30 850 36 21 4 22 8 22 133 l0 128 53 7 c28 3 101 6 161 6 83 0
113 4 126 15 14 13 132 16 821 25 442 5 823 10 847 10 29 0 42 4 42 14 0 11
-138 15 -850 21 -818 7 -851 8 -861 26 -8 16 -22 19 -98 19 -48 0 -122 3 -164
6 l-77 7 0 88 c0 48 4 90 10 94 5 3 337 13 737 21 727 16 728 16 748 38 11 12
27 32 35 45 l16 24 699 8 c385 4 1162 8 1728 8 l1027 1 0 48 0 49 -157 6 c-87
4 -269 7 -405 7 l-248 0 0 63 c0 107 155 97 -1530 97 l-1460 0 0 64 0 63 438
7 c240 3 755 9 1145 12 679 7 707 8 707 25 0 17 -9 19 -102 19 -57 0 -557 7
-1113 15 -555 8 -1025 15 -1042 15 -32 0 -33 1 -33 45 l0 45 -600 0 -600 0 0
73 c0 73 0 73 -44 116 l-43 42 -5 340 c-3 187 -8 342 -10 344 -2 2 -154 9
-337 14 l-333 10 -78 83 -77 83 -459 0 c-253 0 -849 4 -1325 9 l-866 9 -23 69
-23 68 -411 -2 -411 -3 -24 -67 -25 -68 -921 0 -920 0 -68 -135 -68 -135 -285
0 -284 0 0 -30 c0 -27 -3 -30 -30 -30 l-30 0 0 -88 c0 -49 -3 -144 -7 -211
l-6 -122 -276 6 c-152 3 -581 8 -953 11 l-678 6 0 99 0 99 -1649 0 -1649 0
-1429 833 -1428 832 838 3 838 2 47 75 47 74 558 0 557 1 0 53 0 54 158 6 c86
4 255 10 375 14 156 4 220 10 223 18 4 9 155 14 617 19 337 3 811 9 1055 12
l442 7 0 32 0 32 -272 7 c-150 3 -625 9 -1055 12 l-782 7 -3 21 c-3 21 -8 21
-622 43 l-620 23 -40 -23 c-40 -22 -47 -22 -331 -19 l-290 4 -33 49 -32 49
-1053 1 c-578 1 -1146 4 -1262 8 l-210 6 -129 93 -129 92 -110 0 -110 0 -69
40 c-58 33 -79 40 -123 40 l-54 0 -357 393 c-197 215 -362 397 -368 404 -16
17 -1248 213 -1343 213 l-78 0 -525 350 -525 350 -292 0 -293 0 0 50 0 50
-485 0 -485 0 -1 -27 c-1 -34 -2 -30 -25 75 l-17 82 -460 -2 -460 -3 -34 -78
c-33 -76 -34 -80 -20 -116 l15 -37 -291 -151 -292 -152 -115 115 -115 114 -68
0 c-60 0 -67 2 -67 20 0 20 -7 20 -1175 20 -777 0 -1175 3 -1175 10 0 7 -383
10 -1130 10 l-1130 0 0 -40 0 -40 -132 0 c-73 0 -157 3 -185 6 l-53 7 0 178 0
179 -55 0 c-30 0 -55 -4 -55 -10 0 -7 -192 -10 -555 -10 -363 0 -555 3 -555
10 0 6 -33 10 -80 10 l-80 0 0 -185 0 -185 -2935 0 -2935 0 0 350 0 350 -635
0 -635 0 0 -339z m7140 -771 l0 -30 74 0 c70 0 75 1 78 23 3 17 21 -4 86 -100
l82 -123 388 0 387 0 79 126 c79 124 80 125 93 100 12 -23 20 -26 63 -26 49 0
50 1 50 30 0 30 0 30 58 30 33 0 93 -3 135 -6 l77 -7 0 -262 0 -262 -250 -309
c-166 -204 -250 -315 -250 -331 l0 -23 -1085 0 -1085 0 -2 -282 c-2 -156 -3
-311 -3 -346 l0 -62 -1602 0 -1603 0 0 130 0 130 -512 0 c-282 0 -543 3 -579
6 l-66 7 -7 706 c-4 388 -9 727 -13 754 l-6 47 -239 0 -239 0 7 48 c3 26 8 50
11 55 2 4 1325 7 2939 7 l2934 0 0 -30z m6650 -90 l0 -90 -110 0 -110 0 0 90
0 90 110 0 110 0 0 -90z m7180 -2650 c387 -248 706 -454 709 -457 4 -4 -14 5
-39 19 -25 14 -378 211 -785 438 -407 227 -753 420 -770 431 l-30 19 105 0
105 0 705 -450z"/>
</g>
</svg>
