<?xml version="1.0" standalone="no"?>
<!DOCTYPE svg PUBLIC "-//W3C//DTD SVG 20010904//EN"
 "http://www.w3.org/TR/2001/REC-SVG-20010904/DTD/svg10.dtd">
<svg version="1.0" xmlns="http://www.w3.org/2000/svg"
   viewBox="0 0 2479.000000 4887.000000"
 preserveAspectRatio="xMidYMid meet">
<metadata>
Created by potrace 1.16, written by Peter Selinger 2001-2019
</metadata>
<g transform="translate(0.000000,4887.000000) scale(0.100000,-0.100000)"
fill="#000000" stroke="none">
<path d="M11176 47088 l-1109 -1781 21 -37 21 -37 -1414 -2139 c-1378 -2085
-1415 -2140 -1472 -2179 -41 -28 -124 -116 -283 -302 -124 -144 -224 -268
-222 -275 4 -15 162 -381 167 -386 4 -5 1934 -31 2278 -32 l237 0 0 -438 0
-438 -150 -23 -150 -23 0 -273 0 -273 -65 -23 -65 -23 0 -542 0 -542 65 -37
65 -36 -1 -392 0 -392 -875 -660 c-481 -363 -874 -663 -874 -667 0 -22 -531
-3718 -537 -3742 -8 -27 -18 -33 -125 -68 -105 -35 -117 -42 -122 -66 -3 -15
-85 -551 -182 -1192 -116 -776 -275 -1902 -474 -3370 -165 -1213 -302 -2219
-305 -2235 -5 -29 -2 -32 120 -103 79 -47 125 -80 125 -90 1 -38 -594 -4328
-601 -4336 -7 -7 -1283 -44 -1590 -46 l-85 0 -831 -1038 -830 -1039 100 -76
100 -77 -299 0 -300 0 -734 -115 c-404 -63 -745 -117 -758 -120 l-22 -5 0
-963 0 -963 758 -122 757 -123 406 1 406 0 318 -681 318 -681 606 7 606 7
1840 -2221 1840 -2221 1241 0 1241 0 55 -213 c30 -116 275 -1070 544 -2118
l489 -1906 119 -29 c65 -16 124 -33 130 -39 20 -16 219 -861 276 -1165 44
-240 74 -357 230 -915 98 -352 247 -890 331 -1195 83 -305 152 -556 153 -557
1 -1 502 -135 1114 -297 612 -163 1117 -298 1121 -300 4 -3 18 -43 31 -89 12
-46 25 -89 29 -94 5 -7 2041 -543 2065 -543 3 0 5 437 4 972 l-3 972 -92 28
-93 29 0 849 c0 800 1 849 18 854 9 2 82 19 162 37 80 17 149 35 153 39 8 7
-42 5359 -59 6385 l-6 380 551 645 c533 625 556 654 733 914 100 148 192 273
203 277 18 8 4430 1229 4441 1229 2 0 4 43 4 95 l0 94 60 7 60 7 0 38 0 39 60
0 60 0 0 305 0 305 -60 0 -60 0 0 755 0 755 48 0 c26 0 382 11 792 25 410 14
755 25 768 25 20 0 22 4 22 64 l0 63 -127 7 c-71 3 -432 15 -803 26 -371 11
-708 23 -747 26 l-73 6 0 51 c0 29 14 101 32 161 26 91 29 111 17 115 -8 3
-995 282 -2193 621 l-2179 615 -200 271 -200 272 -381 6 c-209 3 -430 9 -489
12 l-108 6 -250 240 -249 240 0 1401 0 1402 33 50 34 50 -34 1505 c-18 828
-32 1527 -30 1555 l2 50 150 55 150 56 3 1880 2 1879 -155 34 -155 34 0 1617
0 1617 105 72 105 72 0 222 c0 122 -16 1514 -35 3092 -19 1579 -35 2877 -35
2885 0 10 -24 24 -70 40 l-70 24 0 272 0 271 -112 27 c-62 14 -119 26 -125 26
-10 0 -13 93 -13 433 l0 434 148 32 c81 18 164 37 185 42 l37 10 0 752 0 752
-60 27 -60 26 0 700 0 699 85 24 85 23 -2 780 -3 780 -82 29 -83 30 0 1584 0
1584 70 31 70 31 0 86 c0 47 5 265 11 484 6 219 9 401 6 404 -5 4 -3902 41
-4522 43 l-190 0 -1109 -1782z"/>
</g>
</svg>
