<?xml version="1.0" standalone="no"?>
<!DOCTYPE svg PUBLIC "-//W3C//DTD SVG 20010904//EN"
 "http://www.w3.org/TR/2001/REC-SVG-20010904/DTD/svg10.dtd">
<svg version="1.0" xmlns="http://www.w3.org/2000/svg"
   viewBox="0 0 3564.000000 1215.000000"
 preserveAspectRatio="xMidYMid meet">
<metadata>
Created by potrace 1.16, written by Peter Selinger 2001-2019
</metadata>
<g transform="translate(0.000000,1215.000000) scale(0.100000,-0.100000)"
fill="#000000" stroke="none">
<path d="M2940 12115 c0 -28 24 -67 135 -220 75 -102 138 -192 141 -199 4 -9
-49 -16 -228 -30 -128 -9 -256 -20 -284 -23 l-51 -5 -27 47 c-23 38 -32 46
-49 42 -12 -3 -81 -13 -154 -23 -129 -16 -132 -17 -143 -45 -7 -16 -19 -34
-26 -40 -10 -8 -382 -41 -1042 -94 l-1027 -82 -93 -43 c-69 -32 -91 -47 -88
-59 3 -9 103 -461 222 -1006 119 -544 220 -994 225 -999 14 -16 288 -94 499
-142 179 -41 209 -51 205 -65 -4 -12 22 -42 87 -102 l93 -86 253 6 c138 3 252
4 252 0 0 -11 218 -848 222 -852 2 -2 262 -94 578 -204 316 -110 590 -205 608
-211 l32 -12 0 -182 0 -181 158 -158 157 -157 522 0 521 0 117 50 c125 54 191
64 232 35 36 -25 342 -175 358 -175 22 0 28 40 16 106 -17 90 -23 84 84 84
l95 0 52 -103 c44 -90 57 -108 95 -130 42 -26 49 -27 197 -27 131 0 155 -2
160 -16 3 -9 6 -17 6 -18 0 -2 -79 -64 -175 -137 -108 -83 -175 -141 -175
-151 0 -17 17 -18 220 -18 l219 0 20 -67 c11 -38 34 -117 51 -178 18 -60 37
-115 44 -121 6 -6 42 -20 79 -29 45 -12 73 -26 82 -39 7 -12 248 -604 535
-1316 288 -712 526 -1299 530 -1303 4 -5 41 -13 83 -19 l74 -11 66 -166 c36
-91 67 -173 69 -181 2 -10 -6 -16 -24 -18 -23 -3 -584 -214 -593 -224 -7 -7
-135 -287 -135 -295 0 -5 87 -59 194 -120 l195 -111 151 -17 c146 -16 153 -18
181 -48 16 -16 29 -33 29 -37 0 -4 10 -11 22 -17 20 -9 27 -39 84 -367 51
-290 66 -360 82 -374 14 -12 23 -41 31 -102 28 -199 31 -209 62 -226 28 -14
29 -14 29 8 0 13 -40 257 -89 543 -68 400 -86 525 -78 542 9 21 17 23 79 23
l68 0 0 -170 c0 -93 2 -170 5 -170 3 0 171 -27 375 -60 l370 -60 575 0 c548 0
579 1 672 21 54 12 112 30 129 40 28 17 72 20 492 31 254 6 460 14 457 16 -2
3 -210 9 -461 14 -268 5 -464 13 -475 19 -18 9 -19 24 -19 192 l0 182 -158 63
-157 63 -285 0 c-231 1 -280 3 -258 13 16 7 96 98 192 221 145 183 166 215
166 246 0 25 -6 41 -19 50 -11 8 -44 35 -74 62 l-54 47 -144 20 c-78 11 -161
20 -184 20 l-41 0 -18 56 c-10 31 -16 57 -14 59 2 1 44 -3 93 -11 50 -7 93
-14 98 -14 4 0 7 32 7 71 0 63 -16 144 -71 352 -8 31 -17 40 -49 53 -22 9 -41
23 -44 32 -3 10 -156 637 -341 1396 l-337 1378 21 19 c19 18 50 19 858 20 711
0 863 3 1002 17 90 9 166 22 167 27 2 6 -110 91 -249 190 l-252 180 -150 29
c-145 28 -163 29 -543 35 l-393 6 64 91 c45 64 62 95 56 106 -11 19 21 43 129
97 l82 41 259 0 c162 0 262 4 266 10 4 6 173 10 475 10 l469 0 91 105 91 105
192 1 c106 1 221 5 257 9 43 4 -19 7 -184 8 -248 2 -249 2 -231 22 17 19 30
20 339 19 202 -1 341 -5 374 -12 52 -12 52 -12 328 -317 l276 -305 -4 -111 -4
-111 148 -49 c82 -27 156 -56 164 -65 9 -10 24 -73 37 -156 l22 -138 330 -6
330 -5 799 -225 799 -224 244 -340 c134 -187 252 -348 261 -357 9 -9 447 -193
972 -408 l955 -392 300 -195 300 -195 405 -105 405 -104 110 -108 c61 -60 479
-471 930 -915 l820 -807 280 -510 280 -510 407 -294 407 -295 727 2 727 3 18
53 c17 51 17 54 -1 97 l-19 45 770 2 769 3 55 -82 55 -83 339 0 339 0 6 -45 7
-45 514 0 515 0 6 28 c15 68 -20 62 357 62 l342 1 135 129 135 130 1761 0
c1746 0 1762 0 1787 -20 25 -20 40 -20 1076 -20 597 0 1051 -4 1051 -9 0 -5
-7 -25 -15 -45 -19 -45 -32 -25 163 -238 136 -148 149 -159 269 -232 l126 -76
267 0 268 0 12 30 12 30 486 0 c461 0 602 7 602 31 0 11 -291 269 -303 269 -7
0 -196 25 -422 56 -263 36 -416 62 -426 70 -14 13 -13 24 10 125 16 64 33 114
41 119 8 4 51 14 95 21 l80 14 -124 5 -124 5 -84 120 c-46 66 -81 124 -79 130
2 5 -30 76 -72 156 l-75 146 -406 112 -406 111 -147 -29 c-81 -16 -152 -32
-157 -35 -5 -4 -383 64 -840 149 l-830 155 -39 -41 -38 -42 -460 40 -459 40
-22 -24 c-22 -23 -22 -26 -7 -54 8 -17 13 -34 9 -37 -4 -4 -206 -8 -450 -10
l-444 -3 -36 65 c-43 77 -40 96 15 121 22 10 40 18 40 19 0 1 -22 73 -49 161
-42 139 -52 161 -72 167 -13 5 -156 24 -317 44 l-294 36 -121 -47 c-67 -26
-129 -57 -138 -68 l-17 -21 -1253 183 c-690 100 -1267 186 -1284 190 -24 6
-32 15 -39 44 -7 26 -16 39 -30 42 -22 4 -1166 155 -1179 155 -4 0 -7 -8 -7
-17 0 -39 -11 -41 -105 -27 -49 7 -95 14 -101 14 -7 0 -15 -21 -19 -48 -4 -26
-11 -68 -16 -93 l-10 -46 -97 18 c-813 154 -1949 373 -1954 378 -4 4 24 53 63
109 l71 103 -24 98 -25 99 -395 573 -395 574 -621 1071 c-342 589 -624 1077
-627 1085 -4 10 9 27 35 48 l40 32 -602 503 -603 502 -77 165 -76 164 -2226
562 -2225 563 -657 310 -656 310 -1739 460 c-957 253 -1744 460 -1749 460 -26
0 -4 -49 51 -116 34 -41 60 -76 58 -78 -2 -2 -396 126 -875 284 l-872 287
-548 351 -549 350 -163 36 -163 36 -66 -40 c-37 -22 -70 -40 -74 -40 -4 0
-552 74 -1218 165 l-1211 165 -619 0 c-516 0 -625 2 -660 15 l-41 14 0 -34z
m5356 -8800 l341 -48 28 -88 c16 -49 27 -91 24 -93 -2 -2 -157 -6 -345 -8
l-340 -3 -52 130 c-28 72 -54 139 -58 149 -7 17 -4 19 27 14 19 -3 187 -27
375 -53z"/>
</g>
</svg>
