<?xml version="1.0" standalone="no"?>
<!DOCTYPE svg PUBLIC "-//W3C//DTD SVG 20010904//EN"
 "http://www.w3.org/TR/2001/REC-SVG-20010904/DTD/svg10.dtd">
<svg version="1.0" xmlns="http://www.w3.org/2000/svg"
   viewBox="0 0 4176.000000 3438.000000"
 preserveAspectRatio="xMidYMid meet">
<metadata>
Created by potrace 1.16, written by Peter Selinger 2001-2019
</metadata>
<g transform="translate(0.000000,3438.000000) scale(0.100000,-0.100000)"
fill="#000000" stroke="none">
<path d="M24460 34279 l-2485 -98 -2560 -335 -2560 -336 -1835 -375 -1835
-375 -465 0 -465 0 -720 -60 c-396 -33 -739 -63 -761 -65 -37 -5 -49 -14 -108
-84 l-66 -79 0 -219 0 -219 109 -44 110 -44 -37 -22 c-20 -11 -336 -180 -701
-374 l-663 -353 -811 -549 -810 -549 -173 -164 -172 -165 -81 0 -81 0 0 -79 0
-78 -261 -249 -260 -249 -397 -81 c-218 -45 -580 -119 -803 -164 l-405 -83
-1289 -681 -1288 -681 -403 -607 -402 -606 649 -383 650 -382 304 -231 c241
-182 300 -232 282 -235 -12 -2 -481 -61 -1042 -130 l-1020 -126 -94 -370 c-52
-204 -98 -372 -102 -375 -4 -3 -323 -129 -708 -280 l-701 -275 0 -1115 0
-1115 701 -275 c385 -151 704 -277 708 -280 5 -3 50 -97 101 -210 51 -113 93
-206 94 -207 1 -2 495 -63 1097 -138 602 -74 1111 -137 1132 -141 l37 -6 0
-351 0 -352 1683 -299 c925 -165 1694 -302 1709 -304 l28 -4 0 -2094 0 -2094
3348 0 c1841 0 3667 -3 4057 -7 l710 -6 198 -291 197 -290 0 -180 c1 -147 27
-1585 29 -1593 1 -2 970 -3 2154 -3 l2152 -1 1551 -2042 1550 -2042 999 -5
998 -5 967 -2505 c862 -2233 981 -2537 1103 -2798 75 -162 137 -296 137 -298
0 -2 -54 -4 -120 -4 -66 0 -120 -3 -119 -7 0 -5 350 -537 778 -1183 l777
-1175 2277 -3 2277 -2 0 1185 0 1185 -105 0 -105 0 0 305 0 305 -170 0 -170 0
0 2120 0 2120 170 0 170 0 0 380 0 380 346 0 346 0 -7 443 c-9 653 -75 6915
-75 7177 l0 225 804 496 804 496 604 759 c332 418 608 772 613 786 8 22 47 45
215 129 113 56 270 132 349 169 78 37 487 249 907 471 l763 404 1 46 0 46 95
28 95 28 1223 1175 c672 646 1226 1184 1230 1196 4 12 84 457 177 989 l170
969 -450 1241 c-361 993 -456 1247 -478 1268 -15 15 -337 321 -717 680 l-690
655 -1975 948 c-1086 522 -2173 1050 -2415 1173 l-440 226 -175 254 c-96 141
-180 267 -186 282 -6 14 -71 302 -144 640 l-133 614 -487 775 -487 775 -827
299 -828 298 -2106 120 c-1158 66 -2144 119 -2191 119 -47 -1 -1204 -46 -2571
-100z"/>
</g>
</svg>
