<?xml version="1.0" standalone="no"?>
<!DOCTYPE svg PUBLIC "-//W3C//DTD SVG 20010904//EN"
 "http://www.w3.org/TR/2001/REC-SVG-20010904/DTD/svg10.dtd">
<svg version="1.0" xmlns="http://www.w3.org/2000/svg"
   viewBox="0 0 3347.000000 4149.000000"
 preserveAspectRatio="xMidYMid meet">
<metadata>
Created by potrace 1.16, written by Peter Selinger 2001-2019
</metadata>
<g transform="translate(0.000000,4149.000000) scale(0.100000,-0.100000)"
fill="#000000" stroke="none">
<path d="M14289 41313 l-154 -174 -207 -507 -207 -507 0 -925 c1 -1577 13
-2384 49 -3240 31 -729 31 -763 17 -988 -7 -127 -16 -234 -19 -237 -2 -3 -279
-40 -614 -84 l-609 -79 -999 -6 c-549 -3 -1000 -7 -1002 -9 -3 -2 -11 -42 -19
-87 -12 -70 -15 -270 -17 -1199 -1 -1037 0 -1122 16 -1194 l18 -77 47 5 c95
12 1665 154 1668 152 2 -3 -142 -1172 -153 -1236 l-5 -33 68 6 c37 4 85 9 107
12 l39 6 -8 -102 c-4 -57 -9 -109 -12 -116 -2 -7 351 -291 864 -695 477 -375
870 -684 872 -686 2 -1 7 -184 11 -405 l7 -403 115 -306 115 -305 11 -245 c6
-134 8 -246 6 -248 -9 -10 -1688 30 -1708 41 -12 6 -280 156 -597 334 l-575
323 -780 119 -779 119 -935 -68 -935 -68 -690 -111 -690 -110 -556 -185 -556
-186 -227 -289 c-125 -160 -233 -290 -241 -290 -8 0 -454 54 -992 120 l-978
121 -1265 19 c-696 10 -1383 21 -1527 25 l-263 5 0 -3195 0 -3195 43 0 c23 0
760 20 1638 45 l1597 46 400 229 400 230 1548 140 c852 77 1564 143 1583 147
33 8 35 11 68 116 l34 107 62 -5 c34 -3 564 -39 1177 -80 1084 -73 1423 -96
1427 -99 1 0 13 -192 28 -426 14 -233 28 -426 29 -428 2 -1 193 -144 426 -317
l422 -313 1121 -1 c617 0 1556 6 2086 14 530 9 966 13 969 10 18 -17 209 -797
212 -862 0 -1 54 -47 120 -103 104 -88 121 -106 131 -143 6 -23 45 -161 88
-307 l77 -265 160 3 160 2 420 -443 421 -443 409 -338 c225 -185 410 -341 412
-345 2 -5 -33 -46 -76 -92 l-79 -83 691 -303 c380 -166 695 -304 701 -306 5
-2 -14 -57 -43 -122 -29 -65 -49 -121 -45 -125 5 -4 377 -188 828 -411 l820
-404 -7 -580 c-10 -762 -31 -1025 -164 -2045 -51 -399 -96 -742 -100 -762 -5
-36 -33 -59 -291 -232 -1 -1 -63 -328 -138 -726 l-136 -724 80 -490 79 -491
-97 -546 c-54 -300 -104 -555 -110 -567 -7 -12 -186 -305 -398 -650 -264 -430
-433 -692 -535 -833 l-149 -206 -1164 -443 c-641 -244 -1169 -446 -1175 -450
-6 -4 -30 -123 -55 -265 -24 -141 -47 -260 -50 -263 -3 -3 -731 -110 -1618
-239 -886 -128 -1623 -236 -1635 -240 -17 -6 -72 -83 -180 -252 l-157 -244
-198 -57 -199 -56 -44 -113 -44 -113 0 -1311 0 -1311 41 -111 c23 -60 47 -114
54 -120 6 -5 111 -41 231 -79 l219 -69 106 -156 106 -156 839 -78 c462 -43
1104 -98 1428 -122 l590 -44 959 114 c528 63 963 115 968 115 5 0 9 -77 9
-171 0 -159 1 -171 18 -164 96 37 2239 754 2497 835 187 59 358 117 380 128
22 11 625 340 1340 731 l1300 711 782 632 783 633 0 166 0 166 976 708 975
707 166 -20 166 -20 191 152 191 152 751 940 751 939 697 1008 698 1007 592
1033 593 1033 542 1266 c458 1070 545 1267 564 1271 12 3 99 18 192 33 94 15
175 32 181 38 13 12 111 299 143 416 11 41 111 638 221 1325 l200 1250 27 870
26 870 -92 465 -92 465 -110 283 -111 282 7 73 7 72 -102 284 c-55 156 -190
570 -300 920 -242 772 -231 743 -278 805 -33 43 -47 80 -91 240 -29 104 -70
267 -90 362 l-36 172 -370 499 -370 499 -322 240 c-272 202 -327 239 -355 238
-18 0 -65 -2 -104 -5 l-71 -4 -473 490 c-260 270 -510 528 -557 575 l-84 86
-149 494 c-82 272 -161 524 -175 559 l-27 65 12 320 c6 177 13 344 16 371 l6
50 140 105 c112 84 139 108 135 125 -2 11 -83 219 -180 462 l-175 442 -195
235 -195 235 -76 228 c-166 499 -75 333 -830 1513 -367 575 -674 1051 -681
1059 -12 12 -29 5 -117 -47 -77 -45 -106 -57 -114 -49 -6 7 -231 332 -499 724
l-488 711 -696 586 -696 586 -925 597 -925 597 -545 188 c-300 103 -604 208
-677 234 l-132 46 -40 96 -41 97 -35 351 c-19 193 -35 385 -35 427 l0 76 -387
347 c-214 191 -474 426 -579 522 l-192 175 15 36 c9 20 26 86 39 147 l23 112
-258 589 -258 589 -296 385 -295 384 -654 316 -654 317 -657 -24 c-361 -12
-835 -24 -1054 -24 l-398 -2 -510 51 c-280 28 -526 52 -546 54 -36 5 -38 2
-190 -170z"/>
</g>
</svg>
