<?xml version="1.0" standalone="no"?>
<!DOCTYPE svg PUBLIC "-//W3C//DTD SVG 20010904//EN"
 "http://www.w3.org/TR/2001/REC-SVG-20010904/DTD/svg10.dtd">
<svg version="1.0" xmlns="http://www.w3.org/2000/svg"
   viewBox="0 0 3849.000000 1474.000000"
 preserveAspectRatio="xMidYMid meet">
<metadata>
Created by potrace 1.16, written by Peter Selinger 2001-2019
</metadata>
<g transform="translate(0.000000,1474.000000) scale(0.100000,-0.100000)"
fill="#000000" stroke="none">
<path d="M3910 14702 c0 -33 23 -70 194 -304 l195 -267 -32 -5 c-73 -12 -718
-58 -731 -53 -8 3 -27 29 -41 57 -19 37 -31 50 -48 50 -25 0 -390 -49 -392
-53 -1 -1 -15 -26 -31 -54 -26 -48 -32 -53 -64 -53 -19 -1 -640 -49 -1380
-109 l-1345 -107 -115 -58 c-63 -32 -116 -59 -118 -61 -5 -4 589 -2690 596
-2696 18 -16 440 -134 642 -179 320 -73 301 -67 295 -93 -5 -19 13 -41 117
-135 l123 -113 338 7 c185 4 337 4 337 0 0 -15 290 -1130 296 -1135 3 -3 369
-132 812 -287 l807 -280 3 -245 2 -244 208 -207 207 -208 701 0 702 0 154 65
153 65 125 0 125 0 220 -100 c120 -55 220 -100 221 -100 1 0 7 15 13 33 7 23
7 51 -3 100 l-13 67 152 0 151 0 38 -78 c32 -65 46 -84 85 -108 45 -29 49 -29
221 -34 l175 -5 23 -57 c46 -118 64 -93 -197 -292 -189 -145 -231 -182 -231
-202 l0 -24 292 -2 292 -3 71 -244 71 -244 108 -31 c59 -17 111 -38 116 -46 4
-8 324 -798 710 -1755 387 -957 706 -1744 710 -1748 4 -4 52 -15 106 -23 54
-8 102 -18 105 -22 5 -5 83 -199 186 -459 3 -7 -10 -14 -34 -18 -41 -7 -766
-282 -788 -300 -20 -14 -187 -375 -183 -394 2 -9 114 -80 258 -163 l255 -146
207 -23 c182 -20 208 -25 214 -41 3 -10 16 -26 30 -34 13 -9 24 -22 24 -28 0
-6 15 -19 33 -29 l33 -18 83 -477 c81 -464 90 -500 122 -502 4 0 16 -64 28
-142 44 -287 38 -266 82 -289 l39 -19 0 27 c0 16 -54 343 -119 728 -65 385
-116 702 -112 705 4 3 10 13 14 23 5 14 20 17 102 17 l95 0 0 -223 0 -223 513
-82 512 -83 746 1 746 0 139 31 c83 19 153 41 176 55 l37 24 650 17 c358 9
648 19 646 22 -3 2 -294 9 -647 16 -493 9 -649 15 -670 25 l-28 13 -2 245 -3
244 -195 79 -195 78 -400 1 -400 2 45 20 c40 17 72 54 268 304 274 351 266
320 122 447 l-99 87 -148 21 c-81 11 -193 24 -247 27 l-99 7 -25 73 c-13 40
-22 75 -20 77 3 3 175 -18 241 -30 l27 -4 0 85 c0 66 -10 125 -45 272 -70 286
-57 256 -120 282 -30 12 -55 25 -55 28 0 3 -202 835 -450 1848 -247 1013 -450
1848 -450 1854 0 7 11 23 26 36 l25 24 1097 0 c1022 0 1111 1 1297 20 266 26
285 29 284 43 0 7 -153 120 -339 252 l-339 240 -238 42 -238 42 -482 0 c-266
1 -483 3 -483 6 0 2 39 59 86 125 85 120 86 121 69 146 -9 14 -15 27 -13 29 2
2 70 36 152 74 l148 71 338 0 c288 0 339 2 350 15 11 13 94 15 641 15 l628 0
120 139 c95 109 126 140 152 145 17 3 265 6 550 6 l518 0 351 -387 351 -388
-3 -149 -3 -149 199 -66 c159 -54 202 -72 217 -93 13 -17 27 -76 44 -184 14
-88 28 -171 31 -186 l6 -28 423 0 423 0 1063 -295 c585 -162 1072 -298 1082
-302 9 -5 169 -219 355 -477 l338 -469 1282 -527 1281 -526 403 -261 403 -261
530 -137 c291 -75 536 -137 545 -137 8 -1 127 42 264 96 137 53 250 95 251 94
2 -2 360 -597 392 -650 2 -5 -53 12 -122 37 l-126 44 -8 -22 c-8 -21 -1 -25
146 -77 l155 -54 105 -176 106 -175 835 -605 c459 -333 883 -639 941 -681
l106 -77 970 -7 970 -7 26 79 26 78 -29 69 c-15 38 -28 74 -27 80 0 6 55 74
122 151 l123 140 55 3 55 3 74 -111 74 -110 517 0 517 0 7 -42 c3 -24 9 -51
11 -60 5 -17 46 -18 689 -18 569 0 684 2 688 14 3 7 9 34 12 60 l7 46 496 0
496 0 121 120 122 120 62 0 62 0 277 170 277 170 1634 -2 1634 -3 24 -70 23
-71 167 -17 c92 -9 169 -15 171 -13 2 2 -13 87 -33 188 l-36 183 -196 380
c-107 209 -201 385 -208 391 -8 6 -91 24 -184 39 -128 22 -171 33 -174 45 -3
10 -234 104 -658 269 l-653 254 -478 83 c-445 77 -483 82 -574 77 -83 -5 -101
-9 -118 -28 l-21 -22 -1782 281 -1782 281 -11 47 c-11 43 -14 47 -48 52 -59
10 -1549 206 -1560 206 -6 0 -12 -12 -14 -27 -2 -20 -9 -5 -24 52 l-20 80
-181 111 c-100 61 -190 120 -200 132 -10 12 -309 154 -708 335 l-690 314 -458
789 -458 789 28 25 c15 14 41 34 57 46 l29 21 -804 671 -805 670 -103 220
-103 220 -237 60 c-130 32 -1462 368 -2961 747 l-2725 687 -880 416 -880 415
-2320 613 c-1276 338 -2326 616 -2332 619 -9 3 -13 -6 -13 -28 0 -25 15 -50
66 -112 123 -150 142 -146 -178 -40 -156 52 -686 227 -1178 389 -801 265 -902
300 -960 339 -36 24 -362 233 -725 464 l-660 421 -215 48 -216 47 -87 -51
c-48 -29 -98 -52 -112 -52 -13 0 -750 99 -1638 220 l-1614 220 -815 0 c-693 0
-822 2 -864 15 -65 20 -64 20 -64 -23z m11646 -6038 c44 -9 86 -22 94 -30 12
-12 -61 -14 -524 -14 l-538 0 24 29 23 30 421 0 c348 1 436 -2 500 -15z
m-4556 -5689 c256 -36 477 -68 491 -71 23 -4 29 -17 62 -126 20 -67 36 -123
34 -124 -1 -2 -209 -4 -461 -5 l-459 -2 -61 154 c-34 85 -70 173 -79 197 -12
31 -14 42 -4 42 6 0 221 -29 477 -65z"/>
</g>
</svg>
