<?xml version="1.0" standalone="no"?>
<!DOCTYPE svg PUBLIC "-//W3C//DTD SVG 20010904//EN"
 "http://www.w3.org/TR/2001/REC-SVG-20010904/DTD/svg10.dtd">
<svg version="1.0" xmlns="http://www.w3.org/2000/svg"
   viewBox="0 0 4745.000000 796.000000"
 preserveAspectRatio="xMidYMid meet">
<metadata>
Created by potrace 1.16, written by Peter Selinger 2001-2019
</metadata>
<g transform="translate(0.000000,796.000000) scale(0.100000,-0.100000)"
fill="#000000" stroke="none">
<path d="M34622 7754 c-1 -116 -5 -279 -9 -362 l-6 -152 -131 0 c-101 0 -158
-6 -249 -25 -99 -21 -144 -25 -291 -25 l-173 0 -6 83 c-4 45 -8 188 -9 317 -1
200 -2 218 -8 125 -4 -60 -8 -203 -9 -317 l-1 -208 -125 0 -125 0 0 -60 0 -60
-299 0 -298 0 -7 31 c-3 17 -7 138 -7 268 -1 130 -5 288 -9 351 -6 108 -7 103
-8 -86 -1 -110 -5 -283 -9 -382 l-6 -182 -177 0 c-164 0 -179 -2 -204 -21 -24
-19 -26 -26 -26 -105 l0 -84 -194 0 -194 0 -36 -40 c-35 -39 -36 -41 -36 -125
l0 -84 -117 -3 -118 -3 -3 -77 -3 -78 -347 0 -348 0 -62 -63 -62 -63 0 -282 0
-282 -1755 0 -1755 0 0 25 0 25 209 0 c234 0 221 -4 221 76 0 32 -4 44 -15 44
-11 0 -15 11 -15 40 0 29 4 40 15 40 11 0 15 12 15 50 0 38 -4 50 -15 50 -11
0 -15 11 -15 40 0 29 4 40 15 40 13 0 15 27 15 185 l0 185 -470 0 -470 0 0
-39 c0 -78 101 -71 -1000 -71 l-987 0 -7 61 c-3 34 -6 110 -6 168 l0 107 -38
37 -38 37 -357 0 -357 0 0 165 0 165 -140 0 -140 0 -6 26 c-4 14 -17 30 -31
35 -36 13 -513 11 -589 -3 -57 -10 -64 -14 -64 -35 0 -23 -1 -23 -128 -23
-105 0 -143 4 -217 25 -83 23 -107 25 -307 25 l-218 0 -1 108 c-1 59 -5 220
-9 357 l-6 250 -2 -215 c-1 -118 -5 -279 -9 -357 l-6 -143 -34 0 c-18 0 -85
-11 -149 -25 -107 -23 -135 -25 -388 -25 l-273 0 -7 53 c-3 28 -6 135 -7 237
0 102 -4 223 -8 270 -6 66 -8 33 -9 -146 -1 -127 -5 -272 -8 -322 -6 -81 -9
-92 -25 -92 -16 0 -19 -8 -19 -60 l0 -60 -398 0 -399 0 -6 188 c-4 103 -8 277
-9 387 -1 172 -2 187 -8 105 -4 -52 -8 -169 -9 -260 -1 -91 -4 -222 -8 -292
l-6 -128 -182 0 c-177 0 -182 -1 -203 -23 -19 -20 -22 -35 -22 -105 l0 -82
-193 0 -193 0 -37 -38 c-37 -38 -37 -38 -37 -125 l0 -86 -117 -3 -118 -3 -3
-77 -3 -78 -347 0 -348 0 -57 -58 -57 -58 0 -287 0 -287 -1705 0 -1705 0 0 25
0 25 208 2 207 3 3 58 c2 35 -1 57 -8 57 -5 0 -10 18 -10 40 0 22 5 40 10 40
6 0 10 20 10 44 0 25 -4 48 -10 51 -13 8 -13 85 0 85 6 0 10 68 10 185 l0 185
-465 0 -465 0 0 -39 c0 -78 101 -71 -1000 -71 l-987 0 -7 46 c-3 26 -6 99 -6
164 l0 116 -36 42 -36 42 -407 0 -407 0 -10 43 -9 42 -475 0 -475 0 -3 -42 -3
-43 -80 0 -79 0 0 84 c0 79 -2 86 -26 105 -26 20 -39 21 -299 21 l-272 0 -6
248 c-4 136 -8 328 -9 427 l-2 180 -7 -220 c-3 -121 -7 -313 -8 -427 l-1 -208
-423 0 -424 0 -6 107 c-4 58 -7 207 -7 330 0 142 -4 223 -10 223 -6 0 -10 -81
-10 -223 0 -123 -3 -272 -7 -330 -6 -104 -7 -107 -30 -107 -23 0 -23 0 -23
134 0 98 3 136 13 139 7 3 -57 75 -153 171 l-165 166 -101 0 c-78 0 -104 3
-114 15 -10 12 -37 15 -127 15 -148 0 -151 3 -155 140 l-2 95 -3 -92 -4 -93
-170 0 -170 0 -20 -35 c-17 -29 -27 -35 -55 -35 l-34 0 0 -175 0 -175 105 0
105 0 0 -135 0 -135 -78 0 c-69 0 -81 -3 -100 -23 -19 -20 -22 -35 -22 -105
l0 -82 -199 0 -199 0 -28 -38 c-25 -32 -30 -48 -34 -122 l-5 -85 -107 -3 -108
-3 0 181 0 180 -617 0 -618 0 -95 25 c-89 23 -112 25 -356 25 -242 0 -269 -2
-374 -25 -107 -24 -130 -25 -417 -25 l-303 0 0 -130 c0 -71 -2 -130 -4 -130
-5 0 -468 -110 -488 -116 -17 -5 -18 -25 -18 -239 l0 -235 23 -5 c12 -3 129
-30 260 -60 l238 -55 862 2 862 3 3 138 3 137 104 0 105 0 0 -160 0 -160
-1227 0 -1228 0 -153 -100 -153 -100 -110 0 -109 0 0 -198 0 -199 -248 -6
c-137 -3 -256 -9 -265 -13 -15 -5 -17 4 -17 90 0 84 -2 97 -19 106 -13 7 -290
10 -828 10 l-808 0 -530 -80 c-292 -44 -540 -83 -552 -85 l-23 -5 0 -339 0
-339 63 -11 c34 -5 240 -37 457 -71 217 -33 405 -63 418 -66 21 -4 22 -8 22
-118 l0 -114 68 -16 c37 -8 97 -20 134 -27 38 -7 68 -15 68 -19 0 -3 -60 -17
-133 -31 l-132 -24 -3 -342 -2 -343 22 -5 c13 -3 166 -34 341 -70 245 -50 338
-65 403 -65 83 0 89 1 171 46 l84 46 507 -26 c429 -22 595 -26 1075 -26 l567
0 0 395 0 395 1065 0 1065 0 0 -65 0 -65 -525 0 -525 0 0 -60 0 -60 523 0 524
0 6 -272 c4 -149 7 -326 7 -392 l1 -121 58 -63 58 -62 312 0 311 0 0 -103 0
-103 48 -47 48 -47 1144 -2 1145 -3 65 -178 65 -177 181 0 181 0 7 -238 c3
-130 9 -374 13 -542 l8 -305 6 295 c3 162 7 406 8 543 l1 247 143 0 144 0 6
-347 c4 -190 8 -412 8 -492 2 -116 3 -134 9 -86 4 33 8 137 9 230 1 94 4 288
8 433 l6 262 648 0 649 0 4 23 c3 12 10 58 16 102 6 44 13 90 15 102 l5 23
373 2 372 3 3 53 3 52 270 0 269 0 0 -55 0 -55 479 0 479 0 6 31 c3 17 6 42 6
55 0 24 0 24 119 24 l119 0 46 54 46 53 0 97 0 96 408 0 408 0 62 63 62 63 0
392 0 392 275 0 275 0 0 60 0 60 -275 0 -275 0 0 65 0 65 1030 0 c909 0 1030
-2 1030 -15 0 -13 -31 -15 -220 -15 l-220 0 0 -60 0 -60 220 0 c213 0 220 -1
220 -20 0 -19 7 -20 95 -20 88 0 95 1 95 20 0 19 7 20 185 20 178 0 185 -1
185 -20 0 -19 7 -20 90 -20 83 0 90 1 90 20 0 20 7 20 298 20 l299 0 6 -442 6
-442 63 -63 62 -63 308 0 308 0 0 -103 0 -103 48 -47 48 -47 1144 -2 1144 -3
67 -175 66 -175 130 -3 130 -3 6 -277 c4 -152 7 -349 8 -437 0 -88 4 -182 9
-210 5 -37 8 -9 9 106 0 86 4 305 8 487 l6 332 142 0 142 0 6 -277 c4 -153 7
-350 8 -438 1 -88 4 -189 8 -225 7 -68 21 458 21 772 l0 168 700 0 700 0 5 23
c5 22 35 212 35 222 0 3 169 5 375 5 l375 0 0 55 0 55 269 0 270 0 3 -52 3
-53 480 0 480 0 3 53 3 52 117 0 118 0 47 48 47 48 0 102 0 102 408 0 408 0
63 64 63 63 8 509 c5 280 9 512 10 517 0 4 486 7 1080 7 l1080 0 0 -95 0 -95
95 0 95 0 0 95 0 95 180 0 180 0 0 -95 0 -95 95 0 95 0 0 95 0 95 295 0 295 0
0 -513 0 -513 68 -67 68 -67 307 0 307 0 0 -102 0 -103 54 -48 55 -47 2130 0
2130 0 3 -53 3 -52 483 -3 482 -2 0 55 0 55 269 0 270 0 3 -52 3 -53 480 0
480 0 3 53 3 52 117 0 118 0 47 48 47 48 0 102 0 102 128 0 129 0 6 -117 c3
-65 4 -255 2 -423 -3 -168 -2 -313 1 -322 5 -17 42 -18 585 -18 l579 0 0 -30
c0 -29 -2 -30 -45 -30 l-45 0 3 -373 2 -372 213 -3 212 -2 0 -165 0 -165 38 0
c37 -1 37 -1 442 -515 l404 -515 108 0 108 0 0 140 0 140 30 0 c20 0 30 5 30
15 0 12 15 15 78 15 289 -1 2031 25 2025 30 -6 6 -1744 31 -2030 30 -58 0 -73
3 -73 15 0 10 -10 15 -30 15 l-30 0 0 73 c0 61 -3 77 -20 92 -18 16 -20 31
-20 130 0 99 2 114 20 130 18 16 20 31 20 137 l0 118 -385 0 -385 0 0 140 0
140 78 0 c47 0 83 5 90 12 14 14 16 108 2 108 -5 0 -10 18 -10 40 0 22 5 40
10 40 6 0 10 20 10 45 0 25 -4 45 -10 45 -5 0 -10 23 -10 50 0 28 5 50 10 50
6 0 10 67 10 180 l0 180 -255 0 -255 0 0 30 0 30 98 0 c129 0 132 3 132 133 0
90 -1 97 -20 97 -18 0 -20 7 -20 70 0 63 2 70 20 70 18 0 20 7 20 85 l0 85
-30 0 -30 0 0 95 0 95 30 0 30 0 0 340 0 340 -199 0 -199 0 -6 28 c-3 15 -8
45 -12 67 -11 74 -11 74 -67 77 l-52 3 342 283 342 282 190 0 191 0 0 140 0
140 315 0 315 0 0 55 0 55 260 0 c252 0 263 1 355 27 l94 26 63 -26 63 -27
593 0 592 0 0 -115 0 -116 660 3 c523 2 660 0 660 -9 0 -8 15 -13 40 -13 29 0
40 4 40 15 0 12 19 15 108 16 363 1 1913 27 1917 31 3 2 -259 8 -582 11 -1233
14 -1443 19 -1443 34 0 9 -13 13 -40 13 -29 0 -40 -4 -40 -15 0 -11 -11 -15
-43 -15 -41 0 -47 4 -157 115 l-115 115 125 0 c69 0 190 3 270 8 l145 7 -260
6 c-395 10 -536 19 -542 35 -3 8 -20 14 -39 14 l-34 0 0 88 0 89 167 6 c91 4
250 8 352 8 102 1 215 5 251 9 50 5 26 7 -105 8 -93 1 -281 5 -417 9 -232 6
-248 7 -248 25 0 17 11 18 160 18 136 0 160 -2 160 -15 0 -10 11 -15 35 -15
24 0 35 5 35 15 0 12 14 15 63 15 137 1 2042 30 2047 31 3 1 -469 9 -1049 19
-790 12 -1056 19 -1059 28 -4 14 -72 16 -72 2 0 -6 -60 -10 -160 -10 l-160 0
0 48 0 49 257 6 c141 4 331 8 422 9 149 1 157 2 81 9 -47 4 -169 7 -271 8
-102 1 -254 4 -337 8 l-152 6 0 39 0 38 -210 0 -210 0 0 24 c0 43 12 86 25 86
6 0 19 8 28 18 14 15 15 27 6 83 -6 35 -15 69 -20 74 -15 15 -519 19 -606 4
l-73 -12 0 -52 c0 -59 -2 -57 92 -70 49 -7 59 -19 74 -90 3 -16 8 -38 11 -47
4 -17 -9 -18 -171 -18 -143 0 -190 4 -263 21 -77 18 -122 21 -358 23 -148 0
-283 -1 -300 -2 -16 -2 -154 -1 -305 3 -225 6 -287 4 -342 -8 l-68 -15 0 34 0
34 -315 0 -315 0 0 135 0 135 -288 0 -287 0 -280 93 -280 94 -3 31 c-3 27 0
32 17 32 18 0 21 6 21 45 0 38 -3 45 -20 45 -17 0 -20 7 -20 50 0 43 3 50 20
50 19 0 20 7 20 180 l0 180 -245 0 -245 0 0 65 0 65 -165 0 -165 0 0 -65 0
-65 -60 0 -60 0 0 -55 0 -55 -1024 0 -1023 0 -7 53 c-3 28 -6 104 -6 167 l0
116 -38 37 -38 37 -452 0 -452 0 0 165 0 165 -612 0 -613 0 -93 25 c-75 20
-117 25 -213 25 l-119 0 -1 98 c-1 53 -5 216 -8 362 l-7 265 -2 -211z m-25722
-549 l0 -135 -235 0 -235 0 0 135 0 135 235 0 235 0 0 -135z m31040 -1420 c0
-25 -1 -25 -80 -25 -79 0 -80 0 -80 25 0 25 1 25 80 25 79 0 80 0 80 -25z
m-37780 -1525 c18 -6 4 -9 -52 -11 -132 -5 -141 -4 -145 9 -4 9 17 12 84 11
48 -1 99 -5 113 -9z m15590 -65 c0 -13 -27 -15 -185 -15 -158 0 -185 2 -185
15 0 13 27 15 185 15 158 0 185 -2 185 -15z m780 0 c0 -13 -40 -15 -300 -15
-260 0 -300 2 -300 15 0 13 40 15 300 15 260 0 300 -2 300 -15z m21410 -265
l0 -180 -80 0 -80 0 0 180 0 180 80 0 80 0 0 -180z"/>
</g>
</svg>
