<?xml version="1.0" standalone="no"?>
<!DOCTYPE svg PUBLIC "-//W3C//DTD SVG 20010904//EN"
 "http://www.w3.org/TR/2001/REC-SVG-20010904/DTD/svg10.dtd">
<svg version="1.0" xmlns="http://www.w3.org/2000/svg"
   viewBox="0 0 3068.000000 1227.000000"
 preserveAspectRatio="xMidYMid meet">
<metadata>
Created by potrace 1.16, written by Peter Selinger 2001-2019
</metadata>
<g transform="translate(0.000000,1227.000000) scale(0.100000,-0.100000)"
fill="#000000" stroke="none">
<path d="M7340 12126 l-62 -146 -265 0 -264 0 -126 -125 -125 -124 7 -516 7
-516 55 -59 c30 -32 54 -62 53 -65 -1 -4 21 -33 50 -66 51 -58 52 -59 106 -59
l54 0 0 -95 c0 -93 0 -95 -24 -95 -16 0 -65 -37 -152 -114 l-128 -114 3 -370
c3 -330 1 -370 -13 -375 -14 -6 -16 -66 -16 -600 l0 -593 115 -359 115 -360 0
-485 0 -484 -42 -43 -42 -43 -241 0 c-270 -1 -329 -9 -418 -60 -32 -18 -162
-119 -290 -226 l-232 -193 -64 -3 -64 -3 -24 -71 c-23 -70 -26 -73 -133 -163
l-110 -92 -243 -6 -243 -6 -42 66 -41 67 -256 0 -256 0 -41 -65 -42 -65 -224
0 -223 0 -45 -30 -44 -31 0 -69 0 -68 -47 -17 c-27 -9 -214 -72 -417 -141
l-369 -124 -529 0 -528 0 0 -80 0 -80 -60 0 -60 0 0 -40 0 -40 -75 0 c-58 0
-167 -21 -495 -95 -231 -52 -422 -95 -425 -95 -3 0 -5 -22 -5 -48 l0 -49 -142
-12 c-79 -7 -160 -15 -180 -18 l-38 -6 0 -95 0 -95 100 8 c65 4 100 3 100 -3
0 -12 -30 -19 -127 -27 l-73 -7 0 -119 0 -119 100 0 100 0 0 -29 c0 -25 -4
-29 -37 -35 -21 -3 -66 -6 -100 -6 l-63 0 0 -124 0 -123 100 -8 100 -7 0 -29
0 -29 -100 0 -100 0 0 -119 0 -119 53 -6 c28 -4 73 -9 100 -12 26 -3 47 -11
47 -16 0 -8 -32 -9 -100 -4 l-100 6 0 -94 c0 -82 2 -95 18 -100 9 -2 80 -10
157 -16 201 -16 185 -8 185 -88 l0 -68 433 -102 432 -103 1279 1 1278 0 158
115 158 115 204 0 205 0 59 45 59 44 1116 1 1116 0 122 -297 c66 -164 291
-716 499 -1226 l379 -929 182 -154 181 -155 862 -164 862 -165 30 37 c17 21
62 80 100 131 62 86 67 97 57 120 -7 13 -10 26 -9 27 2 2 377 -69 833 -156
l830 -159 21 24 c11 13 56 71 98 130 73 100 77 108 67 136 -9 28 -9 30 12 25
107 -26 1643 -313 1650 -308 16 10 187 246 187 258 0 6 -58 154 -130 328 -71
174 -130 319 -130 322 0 3 390 5 866 5 l866 0 877 516 c482 284 926 551 987
593 l111 77 -29 58 -29 58 58 -6 c32 -3 306 -11 610 -17 l551 -13 107 68 c86
54 109 65 121 55 8 -6 84 -94 170 -194 184 -217 245 -265 335 -265 70 0 151
46 204 116 19 24 30 56 37 103 9 64 8 71 -17 121 -15 30 -92 130 -171 223 -79
93 -144 172 -144 176 0 5 59 45 130 91 l130 82 0 134 0 134 594 0 594 0 177
249 178 248 2056 8 2056 7 185 -61 c101 -33 186 -59 188 -57 2 2 -70 29 -160
59 l-163 55 1083 1 c714 1 1082 4 1082 11 0 7 -226 10 -659 10 l-659 0 47 125
46 125 739 0 c587 0 737 -3 733 -12 -3 -7 -12 -30 -21 -51 l-16 -37 1559 0
1559 0 76 121 76 120 0 80 0 79 -1505 0 c-1498 0 -1505 0 -1505 -20 0 -20 -7
-20 -715 -20 -708 0 -715 0 -715 20 0 20 -7 20 -450 20 -393 0 -450 2 -450 15
0 13 -76 15 -624 15 l-623 0 -7 38 c-3 20 -6 67 -6 105 l0 67 120 0 120 0 0
65 0 65 -125 0 -125 0 0 34 c0 18 -3 48 -6 65 -5 21 -3 31 6 31 7 0 39 19 71
43 l58 42 1 345 c0 240 5 383 15 470 23 192 28 176 -60 189 -42 6 -173 11
-291 11 l-215 0 -114 -52 c-79 -37 -115 -59 -117 -71 -3 -18 -4 -18 -30 2 -25
20 -37 21 -321 21 -283 0 -300 1 -460 30 -187 34 -297 39 -297 15 0 -13 -44
-15 -340 -15 l-340 0 0 115 0 115 -55 0 -55 0 0 -115 0 -115 -1425 0 -1425 0
-213 80 -214 80 -401 0 -402 0 0 23 c0 13 -10 33 -23 45 -22 21 -32 22 -205
22 -110 0 -183 -4 -187 -10 -4 -6 -207 -10 -576 -10 l-569 0 0 33 c0 55 -47
178 -82 214 l-32 33 -156 0 -156 0 -31 -33 c-32 -34 -83 -168 -83 -220 l0 -27
-225 0 -226 0 3 152 3 153 103 23 102 24 0 152 0 152 -105 24 -105 23 0 53 0
54 -272 2 -273 3 -3 31 -3 32 115 27 116 27 0 32 c0 33 -1 33 -52 40 -63 7
-408 8 -408 1 0 -8 -109 -915 -115 -962 l-6 -43 -600 0 -599 0 0 25 0 25 -756
0 -757 0 -82 75 -83 75 -1156 0 -1156 0 0 289 0 289 63 6 c59 7 95 -2 658
-152 l597 -160 1218 139 c671 76 1222 139 1227 139 4 0 7 80 7 178 l0 177
-1881 2425 c-1862 2402 -1881 2425 -1918 2428 -20 2 -230 -4 -466 -12 l-430
-16 -22 27 c-12 15 -21 29 -19 30 4 4 695 33 784 33 l62 0 0 169 0 169 -112 6
c-62 3 -300 10 -528 16 -228 5 -465 12 -526 16 l-111 5 -63 -145z m-282 -1693
l54 -6 -7 -86 c-4 -47 -11 -90 -15 -94 -4 -5 -40 -5 -79 -1 l-71 7 0 93 0 94
33 0 c17 0 56 -3 85 -7z m655 -43 l27 0 0 -100 0 -100 -50 0 -50 0 0 106 c0
105 0 106 23 100 12 -3 34 -6 50 -6z m27 -1360 l0 -100 -50 0 -50 0 0 100 0
100 50 0 50 0 0 -100z m406 -1166 c65 -48 121 -89 124 -91 3 -3 -24 -1 -60 2
-58 6 -78 15 -187 83 -77 48 -118 79 -110 84 7 4 35 8 63 8 47 0 57 -5 170
-86z m-1818 -1791 c-32 -2 -84 -2 -115 0 -32 2 -6 3 57 3 63 0 89 -1 58 -3z
m15209 -616 c0 -8 16 -41 36 -74 21 -33 37 -63 37 -67 0 -3 -66 -6 -147 -6
l-148 0 -210 74 c-115 40 -217 76 -225 79 -8 3 136 6 321 6 275 1 336 -1 336
-12z m1018 -12 l120 -23 -148 -1 c-144 -1 -153 -2 -367 -56 -131 -33 -241 -55
-274 -55 l-54 0 -42 73 c-24 39 -45 75 -47 80 -2 4 152 7 344 6 322 0 357 -2
468 -24z m-605 -1295 c10 -6 -65 -10 -222 -10 -205 0 -238 -2 -238 -15 0 -12
-18 -15 -100 -15 l-100 0 16 25 16 25 307 0 c180 0 312 -4 321 -10z m-460
-485 l0 -25 1150 0 1150 0 0 -35 0 -35 -1440 0 c-792 0 -1440 2 -1440 5 0 3
10 19 22 35 l22 30 143 0 143 0 0 25 0 25 125 0 125 0 0 -25z"/>
</g>
</svg>
