<?xml version="1.0" standalone="no"?>
<!DOCTYPE svg PUBLIC "-//W3C//DTD SVG 20010904//EN"
 "http://www.w3.org/TR/2001/REC-SVG-20010904/DTD/svg10.dtd">
<svg version="1.0" xmlns="http://www.w3.org/2000/svg"
   viewBox="0 0 4728.000000 834.000000"
 preserveAspectRatio="xMidYMid meet">
<metadata>
Created by potrace 1.16, written by Peter Selinger 2001-2019
</metadata>
<g transform="translate(0.000000,834.000000) scale(0.100000,-0.100000)"
fill="#000000" stroke="none">
<path d="M22760 8000 l0 -340 -255 0 -255 0 0 35 c0 28 -4 35 -20 35 -16 0
-20 -7 -20 -35 l0 -35 -155 0 -155 0 0 34 c0 38 -14 46 -87 46 l-43 0 0 -40 0
-40 -180 0 -180 0 0 -512 0 -512 -67 -68 -67 -67 -72 39 c-39 22 -78 40 -87
40 -9 0 -73 -31 -144 -70 l-128 -70 -3 70 c-2 53 -6 70 -17 70 -12 0 -15 27
-17 143 l-3 143 -845 -126 c-727 -108 -845 -128 -848 -143 -3 -16 -38 -17
-451 -17 l-448 0 -7 -92 c-3 -50 -6 -160 -6 -245 l0 -153 -290 0 -290 0 0 -55
c0 -54 0 -55 30 -55 29 0 30 -2 30 -44 l0 -43 -477 -161 -478 -161 -280 -16
c-154 -9 -500 -29 -770 -45 -269 -17 -493 -30 -497 -30 -5 0 -8 -7 -8 -15 0
-13 -57 -15 -455 -15 -297 0 -455 3 -455 10 0 6 -29 10 -67 10 -66 0 -69 1
-350 145 l-283 145 -1264 0 -1264 0 -194 40 c-106 21 -398 82 -648 135 -250
52 -458 95 -462 95 -4 0 -8 56 -8 125 l0 125 -135 0 c-114 0 -135 2 -135 15 0
9 -11 20 -25 25 l-25 10 -2 192 -2 193 -5 -182 c-3 -100 -9 -185 -14 -189 -4
-4 -83 15 -175 42 l-168 50 -112 -175 c-107 -166 -112 -177 -112 -228 l0 -53
-370 0 -370 0 0 34 c0 38 -12 46 -71 46 -39 0 -39 0 -39 -40 l0 -40 -1067 2
-1067 3 -9 38 -9 37 -74 0 c-84 0 -101 17 -22 23 29 2 -32 3 -137 3 -104 0
-166 -1 -137 -3 74 -6 65 -23 -13 -23 -59 0 -65 -2 -65 -21 0 -11 -5 -29 -10
-40 -10 -18 -29 -19 -697 -19 l-686 0 -687 -120 c-378 -66 -690 -120 -694
-120 -3 0 -6 50 -6 110 0 67 -4 110 -10 110 -6 0 -10 -44 -10 -113 l0 -113
-222 -38 c-123 -21 -229 -41 -235 -43 -20 -8 -16 38 4 54 17 13 16 14 -7 10
-14 -3 -99 -18 -190 -33 -91 -15 -169 -31 -175 -36 -5 -5 -3 -8 7 -8 17 0 32
-26 23 -40 -3 -4 -26 -11 -52 -14 -27 -4 -56 -9 -65 -12 -17 -5 -18 9 -18 190
0 124 -4 196 -10 196 -6 0 -10 -71 -10 -194 0 -219 8 -199 -83 -212 -27 -3
-51 -13 -54 -20 -4 -12 -69 -14 -364 -14 l-359 0 0 40 0 40 -50 0 -50 0 -1 68
c-2 77 -5 63 -14 -60 l-7 -88 -58 0 c-52 0 -80 -10 -306 -114 -162 -74 -250
-120 -255 -132 -14 -36 -9 -83 46 -365 68 -353 62 -329 84 -329 12 0 21 -10
25 -26 6 -24 10 -26 44 -21 20 4 49 16 64 27 25 18 42 20 218 20 l190 0 0 -94
0 -93 -61 -7 c-103 -10 -317 -7 -325 5 -8 14 -84 48 -106 49 -11 0 -20 -10
-24 -26 -4 -14 -16 -29 -28 -34 -19 -7 -27 -39 -80 -318 -49 -254 -58 -318
-50 -349 9 -37 9 -38 229 -139 l220 -101 3 -156 3 -157 574 0 575 0 0 -80 c0
-47 4 -80 10 -80 6 0 10 33 10 80 l0 80 158 -1 c128 0 213 -8 462 -42 l305
-43 3 -37 c4 -47 22 -49 22 -2 0 19 2 35 4 35 2 0 167 -23 367 -50 200 -27
399 -50 441 -50 l78 0 0 110 0 110 220 0 220 0 0 -440 0 -440 23 -5 c145 -34
170 -35 663 -35 l494 0 0 -145 0 -145 60 0 60 0 1 -92 c2 -147 16 -172 18 -30
l1 122 249 0 249 0 18 -100 c13 -77 21 -100 33 -100 9 0 95 14 191 30 120 20
214 30 300 32 93 1 111 3 70 8 -30 3 -48 9 -40 12 8 4 166 32 351 63 247 41
355 55 410 53 l74 -3 3 -118 c4 -156 22 -154 22 3 l0 120 94 0 95 0 61 103
c34 56 63 103 64 104 1 2 90 -2 197 -8 l194 -11 648 -164 648 -164 330 0 329
0 0 -92 c0 -103 8 -168 21 -168 5 0 7 57 6 128 -1 70 -1 205 1 300 l2 172
2438 0 2439 0 151 -174 152 -175 0 -235 c0 -191 3 -236 13 -236 11 0 15 -33
20 -142 4 -79 7 -176 7 -215 0 -48 4 -73 11 -73 9 0 11 57 7 215 l-6 215 1059
0 1059 0 0 -157 c0 -106 4 -153 10 -143 5 8 10 53 10 100 0 47 3 162 7 255 l6
171 169 43 c94 23 176 45 184 48 12 4 14 -19 14 -136 l0 -141 1648 0 1649 0
79 34 c43 19 81 31 82 25 2 -5 777 -9 2073 -9 l2069 0 0 -225 c0 -143 4 -225
10 -225 6 0 10 82 10 225 l0 225 2376 -2 2375 -3 168 -360 168 -360 67 -3 66
-3 0 -119 0 -120 1400 0 1400 0 0 -240 0 -240 30 0 30 0 0 240 0 240 272 2
272 3 105 367 105 367 290 1 c160 0 842 19 1516 43 l1225 42 3 -128 3 -127
434 0 435 0 115 153 c63 85 115 159 115 165 0 9 101 12 395 12 l395 0 0 -149
0 -149 238 -3 c130 -2 360 -2 510 -1 l272 4 0 149 0 149 60 0 60 0 0 -60 c0
-33 4 -60 10 -60 6 0 10 27 10 60 l0 60 300 0 300 0 0 -230 c0 -147 4 -230 10
-230 6 0 10 83 10 230 l0 230 760 0 760 0 0 -230 c0 -147 4 -230 10 -230 6 0
10 83 10 230 0 223 1 230 20 230 19 0 20 7 20 240 l0 240 75 0 75 0 0 -145 0
-145 515 0 515 0 0 145 0 145 35 0 c24 0 35 5 35 15 0 13 52 15 405 15 263 0
405 -3 405 -10 0 -5 9 -10 20 -10 11 0 20 5 20 10 0 7 246 10 719 10 l720 0 4
-28 4 -27 2 28 1 27 695 0 c688 0 695 0 695 20 0 20 -7 20 -642 20 -354 0
-666 3 -695 6 l-52 7 -4 41 -4 41 -1 -42 -2 -43 -695 0 -695 0 -17 27 c-41 64
-62 68 -89 18 l-19 -35 -387 0 -388 0 0 23 0 24 -747 92 c-412 51 -785 97
-830 103 l-83 11 0 113 0 114 255 0 255 0 0 70 0 70 -255 0 -255 0 0 45 0 45
640 0 640 0 0 305 c0 237 -3 305 -12 305 -34 -1 -1497 92 -1525 96 l-33 5 0
243 0 242 -30 40 -29 39 -1 1018 0 1017 200 0 200 0 0 55 0 55 -145 0 -145 0
0 34 c0 39 -11 46 -76 46 l-44 0 0 -40 0 -40 -72 2 c-63 1 -66 2 -20 5 28 2
52 7 52 11 0 4 -22 75 -50 157 l-50 149 0 293 0 293 65 0 c51 0 65 3 65 15 0
12 -14 15 -65 15 -63 0 -65 1 -65 25 l0 25 -270 0 -270 0 0 380 0 380 -25 0
-25 0 0 -380 0 -380 -2550 0 -2550 0 0 34 c0 40 -11 46 -81 46 l-49 0 0 -41 0
-42 -36 6 c-48 8 -54 16 -26 34 12 9 22 19 22 24 0 5 -88 9 -195 9 -192 0
-221 -5 -173 -31 21 -11 21 -12 3 -25 -15 -12 -123 -14 -595 -14 l-577 0 5 31
c5 37 -8 49 -58 49 -50 0 -63 -12 -58 -49 l5 -31 -189 0 -188 0 0 65 0 65
-1565 0 -1565 0 0 -65 0 -65 -2418 0 -2418 0 -825 80 c-453 44 -843 82 -866
85 l-43 6 0 210 0 209 -50 0 c-49 0 -50 1 -50 30 l0 30 -85 0 -85 0 0 -30 0
-30 -380 0 -380 0 0 340 0 340 -30 0 -30 0 0 -340z m-4820 -2705 l0 -45 -1692
0 -1693 1 -80 44 -80 45 1773 0 1772 0 0 -45z m23950 -2680 l0 -45 -230 0
-230 0 0 45 0 45 230 0 230 0 0 -45z m0 -295 c0 -95 -2 -110 -16 -110 -19 0
-563 67 -611 75 -32 6 -33 7 -33 55 l0 50 100 0 c93 0 100 1 100 20 0 19 7 20
230 20 l230 0 0 -110z m-2800 50 c0 -19 -7 -20 -169 -20 -164 0 -169 1 -164
20 5 19 14 20 169 20 157 0 164 -1 164 -20z m530 0 c0 -19 -7 -20 -260 -20
-253 0 -260 1 -260 20 0 19 7 20 260 20 253 0 260 -1 260 -20z m130 0 c0 -17
-7 -20 -50 -20 -43 0 -50 3 -50 20 0 17 7 20 50 20 43 0 50 -3 50 -20z m360 0
c0 -19 -7 -20 -165 -20 -158 0 -165 1 -165 20 0 19 7 20 165 20 158 0 165 -1
165 -20z m130 0 c0 -17 -7 -20 -50 -20 -43 0 -50 3 -50 20 0 17 7 20 50 20 43
0 50 -3 50 -20z m940 -25 l0 -45 -394 -2 -394 -3 49 -75 c80 -122 81 -110 -11
-110 l-80 0 0 108 c0 120 -5 132 -57 132 -26 0 -33 4 -33 20 0 20 7 20 460 20
l460 0 0 -45z"/>
</g>
</svg>
