<?xml version="1.0" standalone="no"?>
<!DOCTYPE svg PUBLIC "-//W3C//DTD SVG 20010904//EN"
 "http://www.w3.org/TR/2001/REC-SVG-20010904/DTD/svg10.dtd">
<svg version="1.0" xmlns="http://www.w3.org/2000/svg"
   viewBox="0 0 4613.000000 1682.000000"
 preserveAspectRatio="xMidYMid meet">
<metadata>
Created by potrace 1.16, written by Peter Selinger 2001-2019
</metadata>
<g transform="translate(0.000000,1682.000000) scale(0.100000,-0.100000)"
fill="#000000" stroke="none">
<path d="M18720 16783 l-2165 -33 -910 -96 -910 -96 -844 -158 c-464 -87 -844
-160 -846 -162 -2 -2 13 -94 33 -206 19 -111 33 -204 31 -206 -2 -2 -476 -106
-1054 -231 -577 -125 -1187 -258 -1355 -297 -253 -57 -2955 -609 -2978 -608
-4 1 -36 41 -71 91 -52 74 -67 89 -83 83 -216 -68 -5334 -1521 -5337 -1515 -4
5 -26 38 -51 74 l-45 66 -55 3 c-45 2 -86 -7 -229 -54 -96 -32 -176 -59 -178
-62 -2 -2 62 -277 142 -611 80 -334 144 -609 143 -611 -2 -1 -361 -180 -798
-397 l-795 -394 -177 -236 -178 -236 -1 -103 c0 -57 5 -143 12 -193 8 -58 13
-234 13 -495 1 -223 7 -657 15 -965 7 -308 12 -675 12 -816 l-1 -257 188 -238
188 -238 757 -372 757 -372 953 23 c2128 53 1872 51 3047 16 916 -28 1443 -51
1456 -64 2 -2 -63 -188 -145 -413 l-149 -409 -161 -680 -160 -680 -45 -630
c-25 -346 -48 -657 -51 -690 l-6 -60 27 60 c34 79 38 80 31 16 -4 -29 -5 -52
-3 -50 4 4 46 100 646 1489 l348 806 229 415 c151 272 271 475 348 588 l118
173 66 -6 c36 -3 171 -13 299 -22 l233 -16 1147 -455 1147 -455 1115 -385
c613 -211 1117 -387 1119 -389 3 -2 -7 -69 -22 -148 -15 -78 -27 -155 -27
-170 0 -15 27 -134 60 -266 45 -180 65 -245 83 -264 12 -13 88 -54 169 -90
l146 -65 418 -56 c231 -30 437 -58 459 -60 l40 -5 146 172 145 173 18 98 c16
83 21 97 35 92 9 -4 516 -188 1126 -410 l1110 -402 1964 -504 1963 -504 -5
-45 c-3 -25 -56 -301 -117 -615 -94 -481 -334 -1834 -326 -1843 2 -1 45 108
97 242 51 135 95 244 96 242 1 -1 -15 -105 -37 -231 -22 -126 -38 -230 -37
-232 2 -1 113 281 247 627 237 616 247 644 425 1231 101 330 185 602 187 604
2 2 748 -5 1658 -16 l1655 -20 855 264 855 263 237 -118 238 -118 232 1 233 0
255 117 254 117 33 85 c17 47 33 88 35 93 2 4 271 -49 598 -118 583 -123 614
-129 1585 -275 l990 -150 445 16 445 16 331 108 331 108 287 177 288 178 536
-168 537 -168 657 -58 656 -59 493 225 c271 124 496 225 501 225 4 0 88 -38
187 -84 l181 -85 71 24 c60 21 90 40 196 130 68 58 128 105 133 105 10 0 312
-140 324 -151 4 -4 87 -177 182 -386 l175 -378 168 -600 c119 -424 214 -790
322 -1247 103 -431 156 -640 161 -627 4 11 11 18 16 15 4 -2 81 298 171 668
l163 673 -16 694 -17 694 -79 352 c-44 194 -80 354 -80 357 0 3 174 202 388
443 l387 438 380 715 379 715 -66 720 -66 720 -261 553 c-253 538 -263 556
-336 644 -41 49 -73 93 -70 98 2 4 204 139 448 300 l443 293 56 104 c56 103
57 106 40 131 -16 24 -15 26 7 41 14 9 396 253 850 542 l826 526 33 59 34 59
616 391 616 392 39 -14 c22 -8 43 -11 48 -8 5 3 20 26 33 52 22 43 22 49 8 70
-8 12 -13 24 -11 26 2 1 411 276 909 611 783 526 965 649 915 623 -24 -13
-1841 -1111 -1855 -1121 -13 -10 -13 -9 0 5 8 8 400 291 870 628 470 337 862
620 870 628 13 14 13 15 0 5 -8 -6 -431 -279 -939 -607 -825 -534 -925 -596
-940 -583 -9 8 -44 17 -78 19 l-63 4 0 -47 0 -47 -607 -413 -608 -413 -63 -4
-64 -4 -815 -553 c-787 -534 -816 -552 -841 -540 -15 7 -75 15 -135 18 l-107
6 -398 -261 c-218 -144 -440 -289 -494 -324 l-96 -62 -197 236 c-186 223 -235
274 -864 885 -366 357 -709 691 -761 743 l-95 95 144 137 144 137 -17 69 -18
70 144 141 c78 77 297 292 485 476 295 291 342 341 348 373 6 32 53 82 348
371 326 320 343 335 378 335 l38 0 -15 42 -15 42 79 81 c240 245 922 956 896
934 -16 -14 -141 -131 -279 -260 -279 -262 -331 -305 -204 -173 217 227 450
476 419 448 -19 -17 -250 -237 -514 -489 l-478 -458 -54 2 -54 2 0 -38 c0 -37
-12 -50 -337 -375 -281 -279 -344 -337 -373 -343 -29 -6 -110 -82 -502 -473
-257 -256 -475 -467 -484 -468 -10 -2 -30 6 -45 16 -26 19 -27 19 -44 0 -10
-11 -29 -20 -43 -20 -18 0 -56 -33 -151 -130 l-126 -131 -287 281 c-157 154
-290 280 -294 280 -4 0 -68 -34 -141 -76 -85 -48 -162 -84 -214 -99 l-81 -23
-517 334 c-316 205 -517 341 -519 352 -1 9 -45 477 -96 1039 l-95 1022 -453
547 -453 547 -635 399 c-349 219 -644 401 -655 403 -11 2 -504 34 -1095 70
l-1075 67 -984 -346 c-541 -191 -985 -345 -986 -344 -1 2 -5 42 -9 91 -6 86
-6 88 19 99 31 14 31 13 0 80 -23 51 -29 56 -77 72 l-53 17 -315 -141 -315
-141 -100 16 c-283 44 -7031 945 -7072 944 -26 -1 -1022 -17 -2213 -36z"/>
</g>
</svg>
