<?xml version="1.0" standalone="no"?>
<!DOCTYPE svg PUBLIC "-//W3C//DTD SVG 20010904//EN"
 "http://www.w3.org/TR/2001/REC-SVG-20010904/DTD/svg10.dtd">
<svg version="1.0" xmlns="http://www.w3.org/2000/svg"
   viewBox="0 0 4159.000000 712.000000"
 preserveAspectRatio="xMidYMid meet">
<metadata>
Created by potrace 1.16, written by Peter Selinger 2001-2019
</metadata>
<g transform="translate(0.000000,712.000000) scale(0.100000,-0.100000)"
fill="#000000" stroke="none">
<path d="M17043 7092 c-133 -16 -244 -30 -246 -33 -5 -5 -37 -88 -37 -94 0 -3
7 -5 15 -5 12 0 15 -19 15 -107 l0 -106 -342 6 c-372 7 -4264 32 -4828 32
-190 -1 -1126 -3 -2080 -5 -1487 -3 -1912 -1 -2970 18 -679 11 -1466 23 -1748
26 l-512 5 0 -68 0 -68 -652 -7 c-721 -7 -778 -9 -778 -36 0 -15 -18 -18 -165
-24 -213 -8 -225 -11 -225 -46 l0 -28 -202 -6 c-112 -3 -456 -9 -766 -12
l-562 -7 0 -28 0 -29 -67 0 c-38 -1 -245 -7 -462 -14 -337 -12 -396 -17 -410
-30 -14 -14 -16 -56 -19 -304 -4 -260 11 -808 21 -818 2 -3 323 11 713 31 390
19 724 35 742 35 l32 0 0 -175 0 -175 365 0 365 0 0 -90 c0 -73 3 -90 15 -90
13 0 15 -33 15 -234 l0 -234 128 -7 128 -7 73 -118 c47 -77 80 -120 94 -124
12 -3 48 -6 80 -6 l57 0 0 -83 0 -83 62 -12 c34 -6 65 -16 68 -23 4 -6 12 -34
19 -63 l12 -53 277 -6 c152 -4 464 -7 692 -7 l415 -1 235 -279 235 -279 105 5
c58 2 580 18 1160 35 l1056 31 434 -26 435 -26 725 25 c399 14 947 34 1219 45
272 11 507 20 522 20 26 0 28 -4 46 -77 l18 -78 117 -125 118 -125 0 -94 0
-93 908 7 907 8 170 -48 170 -48 3180 18 c1749 9 3319 20 3490 23 l309 7 37
95 37 95 65 3 66 3 0 -53 c0 -29 5 -102 10 -163 6 -60 15 -177 21 -260 18
-284 43 -530 54 -542 6 -6 110 -56 231 -111 l220 -99 1577 19 1577 19 248 115
c136 63 248 116 250 117 5 5 31 430 55 902 20 397 24 439 31 356 4 -52 9 -96
10 -97 1 -1 160 -73 352 -161 l350 -161 810 -7 810 -7 390 -113 c215 -62 592
-181 839 -264 l449 -151 396 -14 c218 -7 399 -11 403 -7 3 3 146 163 317 355
l311 350 0 72 0 71 38 7 c20 3 184 6 364 6 l328 0 45 90 45 90 593 0 593 0 35
-36 34 -36 255 7 255 7 260 52 260 52 3 103 3 102 367 -6 c469 -7 1317 -34
1359 -43 25 -6 55 -36 154 -157 l122 -150 -89 -3 c-49 -1 -438 -6 -864 -11
l-775 -9 -78 -27 -79 -27 43 -44 43 -44 -904 -1 -905 -2 720 -31 c708 -31 717
-32 535 -39 -102 -4 -459 -12 -795 -18 -335 -6 -614 -11 -619 -13 -5 -1 418
-10 940 -19 522 -10 999 -20 1061 -23 l112 -6 228 -240 228 -240 165 6 c91 3
359 9 595 12 l430 7 150 -214 c83 -117 152 -218 154 -223 2 -6 -137 -6 -366
-2 l-371 7 -73 -47 c-41 -25 -76 -48 -78 -50 -3 -2 5 -14 16 -27 49 -54 147
-51 -1318 -45 -1349 5 -1353 5 -989 -11 418 -19 416 -31 -4 -31 -143 0 -257
-2 -255 -5 3 -2 480 -13 1060 -24 580 -11 1187 -25 1349 -31 l295 -11 60 -59
c32 -33 57 -62 53 -65 -3 -3 -288 -14 -634 -25 -346 -11 -656 -21 -689 -22
-33 -2 279 -21 694 -43 l755 -41 80 -85 81 -86 2013 -31 2013 -30 374 -210
373 -210 349 -12 348 -12 75 -56 c41 -31 261 -197 489 -369 l413 -314 110 3
110 3 -306 350 c-169 192 -303 351 -299 352 5 2 38 6 76 10 l67 8 -122 114
c-68 63 -346 325 -618 582 -348 328 -605 560 -865 781 -716 608 -2880 2434
-2910 2456 -16 12 -275 130 -575 263 l-545 242 -490 114 c-269 63 -712 159
-984 213 l-494 100 -1736 240 c-1705 235 -1743 240 -2147 270 -226 16 -416 30
-422 30 -7 0 -12 6 -12 13 0 6 -17 31 -38 53 l-37 42 -316 71 -317 70 -96 -18
-97 -19 -62 28 c-53 24 -65 27 -82 16 -11 -7 -76 -46 -144 -86 l-123 -73 -572
42 c-314 23 -576 41 -582 41 -7 0 -7 -26 -2 -81 5 -45 8 -82 6 -84 -2 -2
-1313 121 -1325 124 -2 1 -3 25 -3 54 l0 53 -549 22 -549 21 -64 39 c-60 37
-69 39 -173 46 -160 11 -205 21 -240 55 -16 17 -73 69 -126 118 l-96 88 -164
62 -164 63 -421 15 -421 14 -135 -42 c-130 -42 -137 -46 -258 -137 l-124 -93
-445 12 c-575 15 -1133 28 -1911 41 -344 6 -652 14 -684 18 l-60 7 -65 122
-66 122 -300 1 -300 0 -70 70 -70 69 -340 5 c-324 5 -352 4 -582 -22z"/>
</g>
</svg>
