<?xml version="1.0" standalone="no"?>
<!DOCTYPE svg PUBLIC "-//W3C//DTD SVG 20010904//EN"
 "http://www.w3.org/TR/2001/REC-SVG-20010904/DTD/svg10.dtd">
<svg version="1.0" xmlns="http://www.w3.org/2000/svg"
   viewBox="0 0 4515.000000 2325.000000"
 preserveAspectRatio="xMidYMid meet">
<metadata>
Created by potrace 1.16, written by Peter Selinger 2001-2019
</metadata>
<g transform="translate(0.000000,2325.000000) scale(0.100000,-0.100000)"
fill="#000000" stroke="none">
<path d="M30050 23210 l-1845 -38 -1590 -101 c-874 -56 -1601 -101 -1615 -101
-25 0 -27 -3 -54 -147 -15 -82 -31 -159 -35 -173 l-7 -24 -1690 -167 c-1116
-110 -1691 -163 -1696 -156 -3 5 -14 61 -24 124 l-18 114 -30 -5 c-17 -3 -695
-109 -1506 -236 l-1475 -231 -2190 -451 c-1204 -248 -2191 -454 -2193 -458
-13 -33 -48 -45 -411 -132 -374 -90 -383 -92 -397 -73 -14 19 -26 17 -474 -95
-384 -96 -460 -118 -460 -132 0 -20 10 -17 -305 -93 -220 -53 -239 -56 -251
-41 -11 16 -66 3 -660 -148 -548 -140 -1108 -297 -3602 -1014 -1624 -467
-2955 -851 -2957 -854 -3 -2 0 -42 6 -87 5 -46 8 -85 5 -88 -2 -2 -397 -134
-878 -292 l-873 -287 -5 72 -5 71 -1299 -503 c-715 -277 -1303 -507 -1307
-511 -4 -5 -53 -108 -109 -230 l-101 -221 97 -194 97 -194 416 -68 416 -68 28
-130 c16 -72 40 -221 53 -332 20 -159 32 -219 58 -290 18 -49 39 -93 47 -98 8
-4 1038 -281 2289 -614 l2275 -606 1158 67 c638 36 1160 65 1161 63 2 -2 15
-147 30 -323 15 -176 29 -339 32 -363 6 -41 6 -42 -26 -48 l-32 -7 6 -61 c6
-55 115 -820 135 -943 6 -43 -3 -119 -55 -435 -48 -290 -63 -408 -64 -485 l0
-103 114 0 114 0 6 -27 c5 -24 56 -350 56 -357 0 -2 48 5 107 15 59 10 110 15
114 11 4 -4 37 -187 74 -407 38 -220 71 -404 75 -408 9 -10 2180 320 2196 334
10 8 -3 123 -31 277 -5 26 -3 32 12 32 17 0 22 -27 52 -272 30 -245 35 -275
55 -290 20 -16 92 -18 1083 -18 l1061 0 -98 215 c-54 118 -95 215 -92 215 4 0
349 -25 767 -54 l760 -55 1211 87 1210 87 130 -143 c71 -79 169 -182 218 -228
l89 -84 366 -119 366 -119 546 62 546 62 19 -48 c10 -26 23 -48 29 -48 5 0
276 76 600 169 514 147 590 171 589 187 0 11 -4 35 -7 55 l-7 36 172 49 173
49 45 85 45 84 760 143 c418 78 766 142 773 143 6 0 12 -10 12 -22 0 -13 4
-28 8 -34 4 -6 529 -118 1167 -248 l1160 -237 159 -67 158 -66 82 -105 83
-105 378 -96 378 -95 38 -145 c21 -79 37 -146 35 -147 -1 -1 -385 14 -853 34
l-850 37 -436 -129 -435 -128 -6 -91 c-3 -50 -8 -161 -11 -248 l-5 -156 47
-16 c27 -8 225 -69 441 -136 377 -115 396 -120 482 -120 l90 0 0 -38 c0 -30
10 -49 50 -99 54 -67 56 -68 220 -93 135 -20 1237 -82 1335 -75 l90 6 63 62
62 61 0 59 c0 48 3 58 16 55 9 -2 210 -257 447 -568 l432 -564 665 -471 665
-471 720 -286 720 -286 783 -72 784 -72 771 227 772 228 583 345 583 344 662
-96 c364 -53 674 -96 688 -96 25 0 26 -3 57 -167 17 -93 41 -246 54 -341 l23
-172 238 -166 c132 -91 258 -172 280 -179 23 -8 240 -66 482 -130 242 -64 441
-118 441 -118 1 -1 68 -321 150 -712 96 -462 154 -719 165 -736 13 -18 244
-145 762 -419 l744 -392 519 -560 c286 -308 539 -582 564 -609 l45 -49 995
-370 c876 -326 1140 -430 2207 -867 l1213 -497 71 -111 72 -112 92 -30 92 -30
116 26 c76 17 117 31 117 39 0 7 -32 311 -70 675 -53 492 -107 923 -211 1677
l-140 1015 -170 885 c-207 1082 -589 2860 -1153 5383 l-166 737 -290 1003
c-160 551 -408 1398 -552 1882 l-262 880 -345 639 -346 638 -515 308 -515 308
-1535 416 -1535 415 -1465 321 c-805 177 -1466 322 -1467 324 -1 1 -10 83 -18
182 -9 98 -18 189 -20 200 -4 17 -23 27 -97 51 l-93 29 -8 159 c-4 88 -11 274
-15 414 l-7 254 -205 59 c-113 33 -206 61 -208 63 -1 1 19 40 45 87 l47 85
237 82 c130 46 242 87 249 91 11 7 -10 313 -114 1646 -70 901 -128 1639 -129
1640 -1 1 -429 61 -952 134 -522 73 -953 134 -957 136 -5 3 -87 251 -113 342
-6 20 -12 22 -83 21 -42 -1 -907 -19 -1922 -39z m-16165 -2429 c-24 -46 -44
-71 -58 -75 -176 -42 -3060 -686 -3063 -683 -4 3 137 39 773 193 237 58 283
72 283 87 0 9 1 17 3 17 1 0 122 31 270 69 247 64 268 68 277 52 8 -16 45 -9
472 95 255 62 479 120 498 130 30 14 549 180 573 183 4 1 -8 -30 -28 -68z
m5171 -7493 l241 -128 1290 0 1290 0 191 -198 191 -198 19 -200 c11 -109 19
-201 17 -202 -2 -2 -849 43 -1882 99 l-1878 103 -270 248 c-228 210 -274 248
-300 248 -16 0 -374 16 -795 35 -421 19 -768 35 -772 35 -7 0 1 150 8 159 3 3
2392 130 2404 127 3 0 114 -58 246 -128z m-8288 -1125 l-3 -278 -39 258 -39
258 34 35 c26 27 35 31 41 20 5 -8 7 -140 6 -293z m8661 -1127 c-2 -2 -96 -30
-207 -62 l-204 -58 7 -53 c3 -29 3 -53 -2 -53 -4 0 -221 -24 -481 -54 -378
-43 -479 -51 -503 -43 -16 6 -29 14 -29 18 0 3 118 60 263 126 l262 120 415
30 c445 33 486 35 479 29z"/>
</g>
</svg>
