<?xml version="1.0" standalone="no"?>
<!DOCTYPE svg PUBLIC "-//W3C//DTD SVG 20010904//EN"
 "http://www.w3.org/TR/2001/REC-SVG-20010904/DTD/svg10.dtd">
<svg version="1.0" xmlns="http://www.w3.org/2000/svg"
   viewBox="0 0 3745.000000 1353.000000"
 preserveAspectRatio="xMidYMid meet">
<metadata>
Created by potrace 1.16, written by Peter Selinger 2001-2019
</metadata>
<g transform="translate(0.000000,1353.000000) scale(0.100000,-0.100000)"
fill="#000000" stroke="none">
<path d="M7501 13472 l-195 -56 -903 -556 -904 -557 -79 14 -78 13 -154 -99
-153 -100 -125 6 -125 5 -130 -84 -130 -85 -60 4 c-56 4 -65 1 -145 -44 -77
-44 -88 -54 -117 -108 -18 -33 -53 -117 -79 -186 l-47 -126 -143 -92 c-136
-88 -143 -94 -164 -144 l-22 -52 -464 -285 -463 -285 -1 -202 0 -203 -779 0
-779 0 -131 -137 -131 -138 1 -965 0 -965 131 -142 131 -143 941 0 941 0 65
-69 65 -70 485 -40 c267 -23 506 -44 533 -47 l47 -6 0 -84 0 -84 -112 5 c-134
7 -1636 55 -1708 55 l-50 0 0 -165 0 -165 -793 0 -794 0 -21 -23 -22 -23 0
-1971 0 -1970 -247 -7 c-137 -3 -326 -9 -420 -13 l-173 -6 0 -57 0 -57 277 -7
c153 -3 342 -9 421 -12 l142 -7 0 -109 c0 -95 3 -114 21 -139 l20 -29 795 0
794 0 0 -344 0 -343 93 4 c166 7 2284 73 2351 73 l66 0 0 -204 0 -204 57 -50
c32 -27 129 -102 216 -166 l159 -116 79 0 79 0 0 -655 0 -655 1310 0 1310 0 0
590 0 590 196 0 197 0 38 35 c38 34 42 35 119 35 l80 0 0 30 0 30 80 0 80 0 0
-655 0 -655 1310 0 1310 0 0 655 0 655 72 0 c110 0 124 14 333 332 l176 267
-3 117 -3 116 -45 18 -45 18 55 5 c30 4 546 15 1145 27 600 11 1114 23 1143
26 l52 5 0 54 0 54 -52 5 c-29 3 -543 15 -1143 26 -599 12 -1109 23 -1132 26
l-42 5 34 63 35 63 0 266 0 266 -62 44 c-35 25 -124 73 -198 108 l-135 64
-401 5 -401 5 463 740 463 740 1 338 0 337 1938 0 1937 0 66 -88 c37 -48 223
-310 414 -582 191 -272 372 -528 401 -567 l54 -73 2039 0 c2233 0 2078 -4
2027 57 -13 16 -141 183 -286 373 l-263 345 34 3 c39 3 1956 100 2042 103 57
3 58 2 160 -72 l102 -75 2875 143 c1581 78 2878 142 2883 142 4 1 7 109 7 241
l0 240 608 0 608 0 78 -105 78 -105 1499 0 1498 0 461 -548 462 -547 131 -62
132 -62 532 -1 532 0 28 35 28 35 593 0 592 0 71 51 71 52 77 161 77 161 133
106 133 107 178 7 c97 4 227 4 288 0 143 -10 222 -1 222 25 0 28 -41 32 -243
26 -100 -4 -222 -3 -272 1 l-89 8 89 71 c50 39 157 120 238 179 82 59 147 108
145 110 -2 1 -285 196 -629 434 l-627 431 -83 0 -84 0 -462 319 -462 319 -368
127 -368 128 -473 43 -473 44 -72 58 -72 59 -1270 117 c-698 64 -1280 116
-1291 116 -15 0 -51 -35 -119 -115 l-97 -115 -1003 0 -1003 0 -6 28 c-3 15 -8
141 -12 280 -6 249 -7 252 -28 252 -12 0 -413 20 -891 45 -479 25 -880 45
-891 45 -16 0 -37 -24 -83 -96 l-61 -96 -48 6 c-26 3 -1442 90 -3146 193
l-3099 187 -111 112 -111 113 -1000 41 c-550 22 -1018 40 -1040 40 l-40 0 -76
202 -76 203 -2676 365 c-1472 202 -2679 369 -2682 371 -3 3 -46 154 -96 335
-51 181 -95 332 -98 336 -4 4 -219 22 -479 41 -260 18 -476 37 -481 43 -4 5
-191 675 -415 1489 -224 814 -408 1480 -409 1481 -1 0 -67 47 -146 103 l-144
101 -1161 -1 -1161 0 -194 -57z"/>
</g>
</svg>
