<?xml version="1.0" standalone="no"?>
<!DOCTYPE svg PUBLIC "-//W3C//DTD SVG 20010904//EN"
 "http://www.w3.org/TR/2001/REC-SVG-20010904/DTD/svg10.dtd">
<svg version="1.0" xmlns="http://www.w3.org/2000/svg"
   viewBox="0 0 4488.000000 949.000000"
 preserveAspectRatio="xMidYMid meet">
<metadata>
Created by potrace 1.16, written by Peter Selinger 2001-2019
</metadata>
<g transform="translate(0.000000,949.000000) scale(0.100000,-0.100000)"
fill="#000000" stroke="none">
<path d="M21345 9472 c-28 -16 -30 -21 -30 -79 0 -34 -5 -66 -10 -71 -6 -5
-222 -1 -510 10 -383 15 -613 18 -982 14 l-482 -5 -1104 -186 -1104 -185
-1474 -6 -1474 -7 -415 183 c-228 101 -429 184 -446 186 -17 1 -68 18 -113 38
l-83 35 7 -72 c5 -61 15 -89 62 -180 30 -60 53 -110 50 -113 -2 -2 -104 30
-227 72 -122 41 -226 72 -230 67 -5 -4 -34 -75 -64 -157 -31 -82 -58 -151 -59
-153 -2 -1 -57 15 -122 37 -66 22 -121 40 -123 40 -1 0 -8 -13 -13 -29 -6 -16
-17 -28 -26 -27 -12 1 -39 -68 -114 -293 -54 -162 -97 -296 -96 -297 2 -2 14
-7 27 -13 18 -7 -27 -10 -157 -10 l-183 -1 0 90 0 90 -45 0 c-25 0 -45 4 -45
8 0 5 -296 12 -657 16 -362 4 -779 11 -928 16 -148 5 -772 12 -1385 15 l-1115
7 -490 74 c-269 40 -492 71 -495 68 -3 -3 -7 -67 -8 -143 l-4 -137 96 -13 c53
-8 95 -16 93 -18 -4 -4 -793 80 -864 92 -31 6 -33 8 -33 50 0 37 3 45 18 45
10 0 150 -11 312 -25 162 -14 296 -25 297 -25 2 0 3 47 3 104 l0 104 -328 111
c-294 101 -354 118 -591 167 l-263 54 -949 0 -949 0 0 -215 0 -215 65 0 c51 0
65 -3 65 -15 0 -13 -14 -14 -93 -9 l-94 7 -6 -48 c-8 -58 -7 -317 2 -440 l6
-90 93 -14 92 -14 0 -169 0 -168 638 -1 c595 -2 627 -3 482 -14 -85 -7 -170
-14 -187 -14 -32 -1 -33 -2 -33 -46 l0 -45 -277 0 c-266 -1 -286 -2 -473 -33
l-195 -33 -228 -99 c-156 -69 -221 -102 -207 -105 12 -3 69 -2 128 2 59 3 221
10 360 14 l252 7 0 -246 0 -247 -785 0 -785 0 -2 -917 -3 -917 -830 -287
c-621 -215 -829 -291 -827 -302 2 -11 -61 -36 -235 -96 -131 -45 -253 -87
-271 -94 -32 -11 -33 -14 -28 -48 l6 -36 -73 -25 -72 -25 -3 -64 c-3 -62 11
-139 26 -139 4 0 31 9 61 21 41 15 56 17 62 8 5 -9 308 92 1131 379 l1123 392
1223 0 1222 0 0 -181 0 -182 53 7 c28 3 208 6 400 6 l347 0 0 175 0 175 224 0
225 0 102 -50 102 -50 1509 0 c1501 0 1508 0 1508 20 0 20 7 20 1629 20 1528
0 1630 -1 1633 -17 3 -17 187 -48 1243 -213 l140 -22 -3 -38 -4 -37 209 -5
208 -6 310 -129 c171 -72 513 -208 760 -302 248 -95 511 -198 585 -228 74 -30
145 -59 158 -64 19 -7 24 -5 32 16 5 14 15 22 22 20 7 -3 1041 -435 2298 -959
l2285 -954 -3 -28 -2 -29 861 -359 c473 -197 868 -359 877 -360 11 -1 24 21
43 72 15 41 29 75 31 76 2 2 480 -196 1063 -440 583 -243 1063 -443 1066 -443
3 -1 18 23 32 53 l27 55 140 -87 c159 -98 200 -120 238 -128 23 -5 29 -1 40
28 11 28 10 34 -3 43 -9 6 -55 38 -102 72 -92 67 -117 99 -100 128 8 15 5 23
-17 42 -37 32 -76 40 -88 19 -7 -12 -14 -14 -28 -6 -13 7 -20 6 -24 -3 -4 -6
-4 4 -2 25 4 35 3 37 -42 56 -26 11 -508 212 -1072 447 -564 235 -1046 436
-1071 447 l-47 20 15 38 15 38 42 -19 c22 -10 46 -19 52 -19 10 0 109 208 102
215 -2 2 -118 52 -258 110 -167 70 -260 114 -270 128 -8 12 -22 28 -30 37 -8
8 -1078 458 -2376 1000 l-2361 985 131 3 c72 2 168 0 213 -3 74 -6 82 -9 85
-28 3 -22 19 -23 1293 -135 710 -61 1311 -110 1336 -108 63 6 199 -5 199 -16
0 -5 -13 -14 -30 -19 -16 -6 -30 -13 -30 -15 0 -3 9 -23 20 -44 l20 -40 1023
2 1022 3 -760 5 c-418 3 -744 8 -725 13 19 4 326 7 681 7 355 -1 658 2 673 6
21 5 26 12 26 35 l0 29 -330 0 -330 0 0 155 0 155 145 0 145 0 0 110 0 110
358 0 357 0 117 51 116 51 619 -121 c340 -67 625 -124 634 -127 13 -3 19 8 28
53 6 32 18 84 25 116 l14 57 -110 84 c-109 83 -111 84 -204 102 -85 16 -93 19
-89 38 7 30 45 217 45 222 0 2 173 4 385 4 l385 0 0 80 c0 47 4 80 10 80 6 0
10 -20 10 -45 l0 -45 548 -1 c301 -1 571 -4 601 -7 l55 -7 92 -220 92 -220
-634 -3 -634 -2 0 -110 0 -110 -45 0 -45 0 0 -115 0 -115 2030 0 2031 0 800
-90 799 -90 790 0 790 0 231 90 231 90 6034 0 6034 0 0 130 0 130 -40 0 -40 0
0 95 0 95 -105 0 c-87 0 -105 3 -105 15 0 8 7 15 15 15 8 0 15 5 15 10 0 6 14
10 30 10 23 0 30 4 30 20 0 19 -7 20 -100 20 -93 0 -100 -1 -100 -20 0 -13 7
-20 20 -20 13 0 20 -7 20 -20 l0 -21 -4062 6 c-2235 3 -4810 8 -5723 11
l-1661 6 -86 207 c-60 143 -83 208 -75 213 7 4 776 8 1709 8 l1697 0 620 -95
c545 -83 637 -95 751 -95 l130 0 0 140 0 140 1935 0 1935 0 0 50 0 50 -1030 0
-1030 0 0 35 0 34 -60 7 c-37 4 -60 11 -60 19 0 18 -72 25 -274 25 l-182 0
-364 105 -363 105 -119 0 -118 0 0 95 0 95 135 0 135 0 0 40 0 40 40 0 40 0 0
810 0 810 1465 0 1465 0 0 45 0 45 95 0 c87 0 114 6 341 70 216 62 256 70 330
70 78 0 84 1 84 20 0 18 5 20 33 16 65 -11 229 -27 233 -24 2 2 -114 60 -259
129 -237 113 -262 127 -265 151 l-3 26 128 -1 128 -2 -1 31 c-2 31 -116 396
-133 422 -6 10 -159 27 -562 62 -469 42 -590 50 -791 50 l-236 0 -7 33 c-4 17
-9 40 -11 50 -5 15 3 17 70 17 l76 0 0 35 0 35 -230 0 -230 0 0 -35 0 -35 69
0 70 0 -5 -37 c-3 -21 -7 -44 -10 -50 -3 -10 -253 -13 -1211 -12 -1478 2
-2005 9 -2011 27 -3 9 75 12 367 12 323 0 371 2 371 15 0 13 -76 15 -625 15
-410 0 -625 -3 -625 -10 0 -5 -16 -10 -35 -10 -31 0 -35 -3 -35 -25 l0 -25
-1847 0 -1848 0 -567 46 -566 45 -1374 -46 -1373 -46 -580 26 c-319 14 -908
44 -1310 65 -670 36 -785 45 -1400 109 l-670 69 -915 261 -915 261 -844 165
c-496 97 -848 170 -853 177 -10 15 -5 51 13 95 12 30 11 34 -11 58 -27 29 -35
30 -75 7z m3665 -4657 c0 -31 -3 -35 -25 -35 -22 0 -25 4 -25 35 0 31 3 35 25
35 22 0 25 -4 25 -35z m4415 -166 c6 -7 160 -369 171 -403 6 -19 -8 -19 -1070
-13 -1060 6 -1076 6 -1076 -14 0 -18 -8 -19 -174 -19 -111 0 -185 4 -203 12
-15 6 -88 14 -162 17 l-134 6 -87 207 c-56 132 -84 209 -76 212 17 7 2803 2
2811 -5z m3087 5 l67 -7 79 -187 c44 -103 83 -197 87 -209 l6 -21 -1413 0
-1413 0 -87 207 c-61 146 -83 210 -75 215 14 9 2654 10 2749 2z"/>
</g>
</svg>
