<?xml version="1.0" standalone="no"?>
<!DOCTYPE svg PUBLIC "-//W3C//DTD SVG 20010904//EN"
 "http://www.w3.org/TR/2001/REC-SVG-20010904/DTD/svg10.dtd">
<svg version="1.0" xmlns="http://www.w3.org/2000/svg"
   viewBox="0 0 4269.000000 886.000000"
 preserveAspectRatio="xMidYMid meet">
<metadata>
Created by potrace 1.16, written by Peter Selinger 2001-2019
</metadata>
<g transform="translate(0.000000,886.000000) scale(0.100000,-0.100000)"
fill="#000000" stroke="none">
<path d="M40735 8770 l-210 -88 -3 -45 -3 -45 -152 -6 c-311 -12 -1334 -28
-3580 -56 -1270 -15 -2312 -32 -2317 -36 -4 -5 -231 -262 -504 -572 l-496
-563 0 -120 0 -119 -146 0 -146 0 -95 100 c-76 80 -101 100 -123 100 -15 0
-44 7 -63 15 -20 8 -50 15 -67 15 -30 0 -30 1 -30 53 0 63 10 71 103 82 l57 7
0 125 0 125 -51 59 -51 59 -244 0 -244 0 -22 35 -23 35 -98 0 c-70 0 -104 4
-121 15 -19 13 -66 15 -297 13 l-274 -3 -3 -22 c-3 -22 -6 -23 -128 -23 -124
0 -124 0 -130 25 l-6 25 -367 0 -367 0 -20 -23 c-14 -15 -41 -27 -87 -36 -44
-9 -67 -18 -67 -27 0 -8 -7 -14 -15 -14 -8 0 -15 7 -15 16 0 9 -6 14 -12 11
-7 -2 -73 -15 -145 -27 l-133 -23 0 -64 0 -63 70 0 70 0 0 -40 0 -40 -889 0
-888 0 -122 -51 c-66 -28 -121 -55 -121 -60 0 -5 -58 -9 -130 -9 -71 0 -139
-5 -152 -10 -13 -6 -232 -30 -488 -53 l-465 -42 -3 -78 -3 -77 -104 0 c-58 0
-107 -4 -110 -10 -4 -6 -53 -10 -115 -10 -62 0 -111 4 -115 10 -8 13 -175 13
-175 0 0 -6 -45 -10 -115 -10 -70 0 -115 4 -115 10 0 13 -167 13 -175 0 -4 -6
-53 -10 -115 -10 -62 0 -111 4 -115 10 -3 6 -44 10 -90 10 l-84 0 -38 -55 -38
-55 -63 0 c-62 0 -63 0 -68 30 l-6 30 -109 0 -109 0 0 -30 0 -30 -480 0 -480
0 0 29 c0 24 -5 29 -31 35 -65 13 -78 9 -85 -29 l-6 -35 -129 0 -129 0 0 65 0
65 -150 0 c-111 0 -158 -4 -179 -14 -21 -11 -42 -13 -97 -6 -38 5 -77 9 -86
10 -10 0 -18 7 -18 15 0 13 -21 15 -129 15 -133 0 -997 90 -1055 110 -16 6
-69 10 -117 10 l-89 0 0 30 0 30 -245 0 -245 0 0 658 c0 498 -3 661 -12 670
-9 9 -139 12 -524 12 -442 0 -513 2 -524 15 -10 13 -53 15 -270 15 -217 0
-260 -2 -270 -15 -9 -10 -32 -15 -74 -15 l-61 0 -338 -240 -339 -240 -580 0
-580 0 -94 65 -94 66 -87 -3 -88 -3 -3 -62 -3 -63 -66 0 c-64 0 -67 1 -162 65
l-97 66 -84 -3 -85 -3 -3 -62 -3 -63 -70 0 -70 0 -92 65 -92 65 -90 -2 -90 -3
-3 -62 -3 -63 -84 0 -84 0 -667 -357 c-509 -272 -668 -353 -674 -343 -5 8 -12
41 -15 74 -4 34 -12 67 -17 74 -7 8 -42 12 -109 12 l-99 0 0 -40 0 -40 -480 0
-480 0 0 40 0 40 -54 0 -53 0 -6 -37 c-3 -21 -11 -82 -18 -135 l-12 -98 -369
0 -368 0 -29 32 -28 31 -259 18 c-356 25 -926 25 -1283 0 l-265 -19 -28 -31
-28 -31 -371 0 c-332 0 -1372 -20 -1759 -34 l-146 -6 4 35 c3 27 1 35 -12 35
-9 0 -285 31 -614 69 l-597 69 -427 7 -428 7 -17 -21 c-17 -21 -37 -23 -356
-47 l-338 -25 -176 148 c-96 81 -187 158 -202 170 l-26 22 -892 1 -893 0 0
-249 0 -250 -43 -5 c-23 -3 -737 -56 -1587 -116 -850 -61 -1560 -113 -1577
-116 -27 -4 -33 -9 -33 -29 0 -19 -5 -25 -22 -26 -59 -2 -199 -16 -204 -21 -5
-6 -134 -742 -134 -770 0 -9 559 -503 1337 -1180 736 -640 1347 -1171 1359
-1180 33 -26 970 -269 2459 -638 l1340 -332 78 -49 78 -49 312 0 312 -1 283
-279 284 -280 -347 0 -347 0 27 -33 c15 -17 45 -51 66 -74 l38 -41 383 -46
383 -46 818 0 c655 0 817 -3 817 -13 0 -7 35 -47 78 -90 75 -74 79 -77 125
-77 35 0 47 -4 47 -15 0 -13 31 -15 220 -15 189 0 220 2 220 15 0 12 16 15 84
15 l83 0 42 45 41 45 0 -30 0 -30 170 0 170 0 0 35 c0 33 2 35 35 35 33 0 35
-2 35 -35 l0 -35 170 0 170 0 0 35 c0 33 2 35 35 35 33 0 35 -2 35 -35 l0 -35
170 0 170 0 0 35 c0 33 2 35 35 35 33 0 35 -2 35 -35 l0 -35 170 0 170 0 0 35
0 35 98 0 97 0 78 78 c42 43 77 86 77 97 0 27 14 8 34 -47 l18 -48 951 0 952
0 278 -431 c153 -238 276 -433 274 -436 -2 -2 -314 -8 -693 -13 -379 -5 -690
-9 -691 -10 -9 -1 -1 -130 7 -130 6 0 10 -13 10 -28 0 -23 15 -39 97 -100 l97
-72 408 0 408 0 0 95 0 95 234 0 234 0 58 -90 58 -90 881 0 880 0 325 -177
c179 -97 333 -178 343 -181 11 -3 19 -18 23 -42 7 -45 11 -50 51 -78 26 -18
45 -22 112 -22 80 0 81 0 81 25 l0 25 235 0 235 0 0 -240 0 -240 781 0 780 0
319 165 319 165 1918 0 1918 0 253 122 252 121 0 144 0 143 3119 0 3119 0 624
-122 623 -123 595 2 c542 1 770 8 2565 77 1084 42 2830 103 3880 136 1051 33
1965 62 2033 66 l122 6 0 558 0 558 -887 859 c-488 472 -895 865 -905 873 -16
14 89 80 1277 804 l1295 788 0 802 0 802 125 221 125 222 0 615 0 616 -190 0
-190 0 0 120 0 120 -682 -1 -683 -1 -210 -88z"/>
</g>
</svg>
