<?xml version="1.0" standalone="no"?>
<!DOCTYPE svg PUBLIC "-//W3C//DTD SVG 20010904//EN"
 "http://www.w3.org/TR/2001/REC-SVG-20010904/DTD/svg10.dtd">
<svg version="1.0" xmlns="http://www.w3.org/2000/svg"
   viewBox="0 0 4315.000000 768.000000"
 preserveAspectRatio="xMidYMid meet">
<metadata>
Created by potrace 1.16, written by Peter Selinger 2001-2019
</metadata>
<g transform="translate(0.000000,768.000000) scale(0.100000,-0.100000)"
fill="#000000" stroke="none">
<path d="M8610 7565 l-225 -114 -1449 0 -1450 -1 -26 25 -27 26 -999 -55
c-549 -31 -1025 -57 -1056 -60 l-57 -4 -93 144 c-79 122 -97 144 -118 144 -14
0 -270 -20 -568 -45 -298 -25 -548 -45 -556 -45 -7 0 -100 -137 -205 -304
l-190 -305 144 -258 c166 -297 172 -317 110 -371 -19 -17 -49 -33 -67 -36 -18
-3 -424 -30 -903 -61 -478 -32 -872 -59 -874 -61 -9 -9 123 -3 890 41 436 25
809 45 829 45 l35 -1 -32 -29 -33 -30 0 -275 0 -275 -170 0 -170 0 0 -59 0
-58 -67 -19 -68 -20 -3 -560 -2 -560 67 -20 68 -19 3 -58 3 -57 199 0 c171 0
200 -2 200 -15 0 -13 34 -15 248 -15 l248 0 32 -33 c28 -29 32 -39 32 -90 l0
-57 54 0 54 0 108 -115 108 -115 780 -2 780 -3 118 -279 c65 -154 117 -280
115 -281 -1 -1 -129 -46 -284 -101 -156 -54 -283 -104 -283 -109 0 -6 -386
-134 -857 -284 -472 -151 -860 -276 -862 -278 -23 -18 119 23 859 251 l855
263 3 -94 c2 -83 5 -94 20 -89 29 9 648 116 669 116 16 0 90 -169 457 -1042
241 -574 440 -1045 441 -1047 2 -1 70 -20 151 -40 l147 -37 91 -236 91 -236
398 -128 c219 -70 404 -127 411 -127 6 0 143 78 304 174 257 154 291 177 292
199 0 14 -52 668 -114 1454 -63 786 -112 1435 -109 1443 3 7 11 13 18 13 7 0
298 -111 646 -247 l634 -248 1148 -3 1147 -3 0 20 c0 21 4 21 243 21 l242 0
320 265 320 264 199 1 200 0 110 84 c61 46 180 129 263 185 l153 101 545 0
545 0 90 -45 c89 -45 91 -45 192 -45 l103 0 37 -68 37 -67 208 -44 208 -44
755 -33 c415 -18 755 -33 756 -33 1 -1 57 -98 124 -216 l124 -215 155 0 156 0
439 115 439 115 761 0 761 0 105 105 105 105 357 0 357 0 150 95 150 95 504 0
504 0 10 -23 c9 -20 34 -27 219 -66 l209 -44 755 -33 c415 -18 756 -33 757
-33 1 -1 57 -98 124 -216 l123 -215 157 0 156 0 438 115 438 115 766 0 766 0
105 105 105 105 352 0 352 0 151 95 151 95 503 0 503 0 12 -23 c10 -19 38 -28
219 -66 l207 -44 510 -22 510 -23 265 -56 c146 -31 270 -58 276 -60 6 -2 53
-79 105 -170 l94 -165 215 5 c118 2 1075 16 2125 30 1731 22 1992 28 2785 59
800 32 942 35 1643 35 l767 0 0 -35 0 -35 -110 0 c-101 0 -110 -2 -110 -19 0
-16 12 -20 83 -30 139 -20 137 -19 137 -52 l0 -29 193 0 192 0 20 30 20 30
570 0 c314 0 680 3 815 6 l245 7 49 -132 48 -131 134 0 c74 0 134 3 134 8 0 4
-20 60 -45 125 -25 66 -45 121 -45 123 0 2 481 4 1068 4 1178 0 1462 5 1462
27 0 7 -1 14 -2 15 -2 1 -576 4 -1277 7 l-1274 6 -27 73 -28 72 116 2 117 2
-119 6 -119 5 -22 60 -23 60 -136 3 c-75 1 -136 1 -136 -2 0 -2 10 -29 21 -60
12 -31 20 -58 18 -60 -2 -1 -322 0 -711 3 l-707 6 177 205 177 205 73 3 72 3
0 109 0 110 40 0 40 0 0 83 c0 81 1 85 36 125 l36 42 163 0 164 0 20 26 c19
24 19 28 5 55 l-15 29 -118 0 c-110 0 -119 1 -124 20 -4 16 0 20 21 20 15 0
87 14 160 32 l132 32 0 118 0 118 283 2 282 2 -220 7 c-121 3 -248 7 -282 8
l-63 1 0 40 0 40 283 1 c176 1 261 5 227 9 -30 5 -157 8 -282 9 -177 1 -228 4
-228 14 0 7 -44 56 -97 108 l-98 97 -345 16 c-190 9 -455 21 -590 27 l-245 10
-2117 415 c-2007 392 -2123 414 -2228 414 l-110 0 0 80 0 80 -272 1 c-150 1
-412 4 -583 8 l-310 6 -10 55 -10 55 -1853 3 -1852 2 0 40 0 40 -2635 0 -2635
0 -20 40 c-11 22 -22 40 -23 40 -1 0 -1004 110 -2227 245 l-2225 245 -1822 0
-1823 0 0 44 0 44 -72 7 c-40 3 -604 40 -1253 81 l-1180 76 -255 -16 c-140
-10 -265 -19 -278 -22 -20 -4 -27 4 -52 60 -17 36 -30 68 -30 72 0 7 390 -4
434 -13 l29 -5 -5 63 -5 63 -99 93 c-54 51 -106 95 -114 98 -16 5 -4006 395
-4037 394 -10 0 -119 -51 -243 -114z m12460 -3880 c89 -45 90 -45 193 -45 113
0 102 5 135 -62 2 -5 -223 -8 -500 -8 l-504 0 -142 -90 -143 -90 -341 0 -341
0 21 23 c20 21 22 34 22 125 l0 102 123 1 122 0 85 44 85 44 548 0 547 1 90
-45z m7140 0 c89 -45 90 -45 193 -45 l103 0 17 -29 c9 -16 17 -32 17 -35 0 -3
-226 -6 -502 -6 l-502 0 -143 -90 -143 -90 -337 0 c-325 0 -336 1 -320 18 14
15 17 40 17 125 l0 107 123 1 122 0 85 44 85 44 548 0 547 1 90 -45z m12086
-634 c13 -35 24 -66 24 -70 0 -3 -350 -5 -777 -3 l-778 4 -35 34 c-23 22 -46
34 -64 34 l-27 0 21 28 22 27 726 5 c400 3 758 5 796 5 l68 0 24 -64z"/>
</g>
</svg>
