<?xml version="1.0" standalone="no"?>
<!DOCTYPE svg PUBLIC "-//W3C//DTD SVG 20010904//EN"
 "http://www.w3.org/TR/2001/REC-SVG-20010904/DTD/svg10.dtd">
<svg version="1.0" xmlns="http://www.w3.org/2000/svg"
   viewBox="0 0 4274.000000 844.000000"
 preserveAspectRatio="xMidYMid meet">
<metadata>
Created by potrace 1.16, written by Peter Selinger 2001-2019
</metadata>
<g transform="translate(0.000000,844.000000) scale(0.100000,-0.100000)"
fill="#000000" stroke="none">
<path d="M4 8133 c4 -170 10 -310 12 -312 4 -4 1203 -99 1269 -101 15 0 38
-35 99 -154 l80 -155 80 -5 c45 -4 430 -22 856 -41 426 -20 786 -36 800 -38
14 -1 -36 -18 -111 -37 l-136 -34 -12 -76 c-6 -41 -11 -151 -11 -245 l0 -170
1296 -293 1296 -293 877 -397 876 -397 465 -273 465 -274 313 -311 312 -312
139 -215 c76 -118 144 -226 151 -240 7 -13 37 -108 65 -210 l53 -185 2345 0
2346 0 6 -25 c4 -13 77 -150 163 -303 l156 -279 225 -239 226 -239 318 -205
c273 -175 370 -231 686 -393 l369 -189 183 -13 184 -12 762 -258 762 -258
1213 -256 1213 -255 1825 -222 1826 -222 194 120 195 121 59 -9 c33 -6 63 -12
68 -15 4 -3 8 -52 8 -110 l0 -104 460 0 460 0 0 95 0 95 38 -5 c20 -3 433 -44
917 -91 793 -77 881 -83 891 -69 44 59 225 388 218 394 -5 5 -370 87 -810 184
l-802 176 -579 306 -578 306 -360 325 c-401 361 -468 427 -444 432 8 1 508
-27 1110 -62 902 -54 1314 -73 2349 -111 1079 -38 1270 -47 1365 -65 119 -21
1379 -170 1443 -170 45 0 45 1 58 130 l6 65 -629 144 -628 143 -365 135 c-316
118 -402 154 -640 273 -273 137 -328 170 -279 170 13 0 339 -29 724 -64 l699
-64 56 59 55 59 1600 20 c880 10 1759 22 1953 26 l353 6 -25 -49 c-13 -27 -96
-135 -184 -241 -137 -164 -187 -215 -351 -359 l-192 -167 -277 -132 -277 -132
-415 -87 c-228 -48 -423 -89 -432 -91 -15 -5 -18 -18 -18 -85 0 -43 3 -79 8
-79 4 0 304 21 666 46 l659 46 27 -21 28 -20 109 29 c104 28 143 32 988 90
l880 60 945 141 945 140 632 160 c348 87 635 159 637 159 3 0 4 25 3 56 l-2
57 560 182 560 182 320 150 321 149 156 130 c119 98 175 153 236 230 76 96 82
107 119 225 l39 124 76 3 77 3 26 -85 c21 -70 30 -87 48 -90 109 -22 375 -36
787 -42 l465 -6 430 57 c331 44 465 66 580 95 187 48 311 93 350 127 l29 26
-73 144 -74 145 -208 191 -207 192 -383 211 -384 212 -505 165 c-413 136 -600
191 -1025 302 l-520 137 -1340 249 c-1138 212 -1466 269 -2175 379 -459 71
-1175 184 -1590 250 l-755 121 -1681 184 c-1677 184 -1686 185 -3980 385
l-2299 200 -5770 290 c-3173 159 -5813 292 -5866 295 l-97 6 -173 -230 -174
-230 -91 -1 c-50 0 -119 3 -153 6 -55 6 -61 9 -61 30 0 55 4 54 -219 54 -152
0 -210 3 -219 13 -9 8 -730 84 -2210 234 -2376 240 -3102 321 -3130 347 -14
12 -95 22 -362 46 l-345 31 -71 44 -71 43 -331 31 c-182 17 -335 31 -341 31
-5 0 -35 -42 -66 -94 l-57 -95 -46 5 c-26 3 -285 25 -577 49 -486 41 -719 53
-2805 145 -1251 55 -2284 100 -2294 100 -18 0 -19 -10 -12 -307z"/>
</g>
</svg>
