<?xml version="1.0" standalone="no"?>
<!DOCTYPE svg PUBLIC "-//W3C//DTD SVG 20010904//EN"
 "http://www.w3.org/TR/2001/REC-SVG-20010904/DTD/svg10.dtd">
<svg version="1.0" xmlns="http://www.w3.org/2000/svg"
   viewBox="0 0 4378.000000 870.000000"
 preserveAspectRatio="xMidYMid meet">
<metadata>
Created by potrace 1.16, written by Peter Selinger 2001-2019
</metadata>
<g transform="translate(0.000000,870.000000) scale(0.100000,-0.100000)"
fill="#000000" stroke="none">
<path d="M9037 8615 l-189 -85 -321 0 c-304 0 -323 -2 -347 -20 -22 -17 -41
-20 -142 -20 l-116 0 -105 -60 -104 -60 -250 0 -250 0 -189 -89 -189 -89 -3
-101 -3 -101 103 0 103 0 110 -65 110 -65 -610 0 -611 0 -44 -45 -44 -45 44
-45 44 -45 903 0 903 0 0 -55 0 -56 -1292 4 c-1034 3 -1372 7 -1688 21 -365
16 -414 16 -645 2 -147 -9 -575 -20 -1040 -26 l-790 -11 -239 -35 c-196 -28
-268 -43 -402 -84 -158 -48 -167 -50 -284 -50 l-121 0 -256 -125 c-141 -69
-259 -125 -263 -125 -4 0 -15 36 -25 80 -10 45 -22 83 -26 85 -3 3 -86 -32
-183 -77 l-176 -81 0 -368 c0 -284 -3 -368 -12 -372 -7 -2 -46 -10 -86 -17
l-72 -13 0 -78 0 -79 156 -170 c86 -93 160 -170 166 -170 5 0 32 10 59 21 29
13 54 18 59 13 4 -5 62 -74 129 -154 l120 -145 -227 -6 c-288 -7 -393 -28
-579 -119 l-123 -59 0 -575 0 -576 121 -61 c101 -50 144 -65 256 -90 124 -27
149 -29 343 -29 l210 0 0 -70 0 -70 575 0 575 0 0 -108 0 -107 63 -72 62 -72
68 -1 c64 0 67 -1 67 -24 0 -15 7 -27 18 -30 19 -6 430 -132 480 -147 31 -10
32 -13 32 -62 l0 -52 258 -258 257 -257 218 0 c167 0 217 -3 217 -12 0 -7 104
-73 230 -146 l230 -132 190 0 190 0 0 -48 0 -48 774 -347 774 -347 1362 0
1361 0 96 52 c53 29 98 61 101 71 4 16 57 17 927 17 l923 0 409 195 410 195
1019 0 c989 0 1086 -2 3249 -60 1227 -32 2588 -69 3025 -80 437 -12 797 -25
800 -29 3 -5 31 -10 63 -13 53 -4 62 -9 110 -55 l52 -50 705 38 c629 34 843
41 1985 63 704 14 1294 23 1311 20 18 -3 205 1 415 10 211 9 580 20 819 26
239 5 898 24 1463 41 l1029 32 181 -42 182 -41 473 0 472 0 0 -195 0 -195
1498 0 1497 -1 102 53 c84 44 103 57 105 78 3 23 7 25 48 23 27 -1 49 -8 56
-18 10 -13 107 -15 850 -15 l839 0 412 243 413 242 0 108 0 108 -84 40 -84 39
-251 0 c-216 0 -251 2 -251 15 0 13 175 15 1515 15 l1514 0 176 138 c151 118
175 141 175 165 l0 27 94 0 93 0 209 153 209 152 695 5 695 5 295 72 c162 39
316 77 343 83 l47 12 0 144 c0 141 0 144 23 149 12 3 580 136 1261 295 682
159 1242 293 1245 298 3 5 186 50 406 101 220 51 419 97 443 103 l42 10 -2
472 -3 471 -1695 172 c-932 94 -1701 172 -1707 172 -9 1 -13 18 -13 49 l0 47
-352 85 -353 85 -580 5 -580 5 213 220 212 220 0 200 -1 200 -432 238 -433
237 -110 0 c-74 0 -104 -3 -94 -10 10 -6 -247 -10 -733 -10 -734 0 -749 0
-774 -20 -14 -11 -40 -20 -58 -20 -27 0 -35 5 -43 29 -8 22 -31 39 -110 80
l-100 51 -1360 0 -1359 0 -769 -344 -769 -345 -3 -100 -3 -101 -61 0 c-58 0
-70 -5 -190 -71 -70 -39 -128 -77 -128 -85 0 -12 -68 -14 -426 -14 l-426 0
-281 90 c-277 89 -410 120 -522 120 -50 0 -50 0 -188 126 -124 113 -149 131
-243 175 l-105 49 -289 0 c-283 0 -290 0 -290 20 0 20 -7 20 -275 20 -268 0
-275 0 -275 -20 0 -20 -7 -20 -1730 -20 -1723 0 -1730 0 -1730 20 0 20 -7 20
-275 20 -268 0 -275 0 -275 -20 0 -20 -7 -20 -1725 -20 -1718 0 -1725 0 -1725
20 0 20 -7 20 -275 20 -268 0 -275 0 -275 -20 0 -20 -7 -20 -1725 -20 -1718 0
-1725 0 -1725 20 0 20 -7 20 -280 20 -273 0 -280 0 -280 -20 0 -19 -7 -20
-117 -20 l-118 0 -840 328 -840 328 -3 67 -3 67 242 0 241 0 94 43 94 42 -2
108 -3 109 -414 244 -414 244 -833 0 c-821 0 -834 0 -854 -20 -13 -13 -33 -20
-60 -20 -36 0 -40 3 -40 24 0 20 -15 32 -95 75 l-95 51 -1383 0 -1382 0 -188
-85z m5912 -1484 l874 -341 114 0 c106 0 113 -1 113 -20 0 -18 7 -20 85 -20
50 0 85 -4 85 -10 0 -6 -57 -10 -150 -10 -119 0 -156 -3 -185 -17 -19 -9 -35
-23 -35 -30 0 -10 -47 -13 -235 -13 l-235 0 0 33 0 33 -463 172 -463 172 -677
0 -677 0 0 43 c0 37 -4 45 -32 62 l-33 20 352 3 351 2 148 139 c123 115 152
137 169 131 11 -4 413 -161 894 -349z m5111 -361 c0 -18 7 -20 80 -20 47 0 80
-4 80 -10 0 -6 -55 -10 -145 -10 -153 0 -215 -13 -215 -44 0 -14 -155 -16
-1540 -16 -1385 0 -1540 2 -1540 16 0 31 -62 44 -210 44 -87 0 -140 4 -140 10
0 6 37 10 90 10 83 0 90 1 90 20 0 20 7 20 1725 20 1718 0 1725 0 1725 -20z
m4000 0 c0 -18 7 -20 80 -20 47 0 80 -4 80 -10 0 -6 -55 -10 -144 -10 -150 0
-216 -14 -216 -45 0 -13 -183 -15 -1535 -15 -1262 0 -1535 2 -1535 13 0 7 -16
21 -35 30 -28 13 -65 17 -175 17 -87 0 -140 4 -140 10 0 6 35 10 85 10 78 0
85 2 85 20 0 20 7 20 1725 20 1718 0 1725 0 1725 -20z m4010 0 c0 -18 7 -20
80 -20 47 0 80 -4 80 -10 0 -6 -57 -10 -150 -10 -157 0 -210 -11 -210 -45 0
-13 -190 -15 -1540 -15 -1356 0 -1540 2 -1540 15 0 31 -66 45 -211 45 -86 0
-139 4 -139 10 0 6 35 10 85 10 78 0 85 2 85 20 0 20 7 20 1730 20 1723 0
1730 0 1730 -20z m1160 3 c14 -9 46 -36 72 -60 l47 -43 -279 0 c-240 0 -280 2
-280 15 0 33 -54 45 -200 45 -87 0 -140 4 -140 10 0 6 35 10 85 10 78 0 85 2
85 20 0 20 7 20 293 20 257 0 296 -2 317 -17z m9344 -437 l-237 -231 -66 -6
c-36 -4 -138 -7 -226 -7 l-160 -1 28 24 c27 24 33 25 175 25 l147 0 215 205
c173 166 216 212 218 235 2 17 9 30 17 30 7 0 37 11 67 25 l53 25 3 -47 3 -47
-237 -230z m-20676 -118 c-3 -9 -43 -14 -140 -16 -111 -2 -137 0 -148 13 -11
13 4 15 140 15 117 0 151 -3 148 -12z m-64 -2804 c13 -5 16 -23 16 -97 0 -82
4 -104 42 -209 l42 -118 378 0 378 0 0 -240 0 -240 268 0 c147 0 385 -3 530
-7 l262 -6 0 -104 0 -104 -142 6 c-203 8 -2820 75 -2955 75 -66 0 -73 2 -73
20 0 18 7 20 75 20 l75 0 0 105 0 105 78 0 c42 0 266 -7 497 -15 231 -8 428
-15 438 -15 16 0 17 26 17 415 l0 415 29 0 c16 0 36 -3 45 -6z m7933 -381 c-1
-71 -3 -13 -3 127 0 140 2 198 3 128 2 -71 2 -185 0 -255z m-3917 259 c0 -44
11 -88 44 -178 l44 -119 376 -3 376 -2 0 -236 0 -236 530 8 530 7 0 -127 0
-126 -82 0 c-46 0 -390 -7 -764 -16 -375 -8 -698 -14 -719 -12 -37 3 -34 5
134 111 l171 108 0 195 0 194 -52 -5 c-29 -3 -165 -12 -303 -20 -137 -8 -278
-18 -312 -21 l-63 -6 0 271 0 271 45 0 45 0 0 -58z m-7160 -457 c0 -143 0
-145 23 -146 12 0 249 -8 527 -17 l505 -17 3 -122 3 -123 64 0 c37 0 65 -4 65
-10 0 -13 51 -13 -880 11 -440 12 -1227 24 -1764 28 l-968 6 558 267 559 266
653 1 652 1 0 -145z m20120 80 l0 -35 115 0 115 0 0 35 0 35 1217 0 c669 0
1214 -2 1212 -4 -2 -2 -43 -33 -92 -69 l-87 -64 -853 -7 c-468 -3 -1141 -9
-1494 -13 l-643 -6 0 21 c0 11 -14 32 -31 46 l-31 26 86 0 86 0 0 35 0 35 200
0 200 0 0 -35z m-8148 -482 c163 -37 296 -68 295 -69 -4 -5 -818 -26 -822 -22
-4 4 214 158 225 158 3 0 139 -30 302 -67z m-10302 -38 c0 -13 -21 -15 -130
-15 -109 0 -130 2 -130 15 0 13 21 15 130 15 109 0 130 -2 130 -15z"/>
<path d="M19848 393 l-888 -3 0 -58 c0 -33 -3 -120 -7 -195 l-6 -137 1426 0
1427 0 0 200 0 200 -532 -2 c-293 -2 -932 -4 -1420 -5z"/>
<path d="M23128 393 l-288 -3 0 -195 0 -195 1420 0 1420 0 0 200 0 200 -1132
-2 c-623 -2 -1262 -4 -1420 -5z"/>
</g>
</svg>
