<?xml version="1.0" standalone="no"?>
<!DOCTYPE svg PUBLIC "-//W3C//DTD SVG 20010904//EN"
 "http://www.w3.org/TR/2001/REC-SVG-20010904/DTD/svg10.dtd">
<svg version="1.0" xmlns="http://www.w3.org/2000/svg"
   viewBox="0 0 4212.000000 1586.000000"
 preserveAspectRatio="xMidYMid meet">
<metadata>
Created by potrace 1.16, written by Peter Selinger 2001-2019
</metadata>
<g transform="translate(0.000000,1586.000000) scale(0.100000,-0.100000)"
fill="#000000" stroke="none">
<path d="M14650 15835 c6 -16 144 -374 307 -794 l296 -764 -2 -83 c-3 -106 14
-144 62 -144 17 0 315 -16 661 -35 l629 -34 51 -50 51 -51 -618 0 -617 0 0
-425 0 -425 -282 0 -282 0 29 30 c23 24 37 30 72 30 l43 0 0 75 c0 71 -2 78
-37 125 l-37 50 -132 0 -131 0 -31 -74 -32 -75 20 -46 c18 -42 20 -69 20 -264
l0 -217 33 -32 c21 -20 43 -32 60 -32 17 0 27 -5 27 -15 0 -17 4 -17 -115 11
-61 15 -165 18 -812 22 l-743 4 0 57 0 56 -100 100 c-75 74 -100 106 -102 128
-3 30 -9 33 -285 146 l-283 116 0 133 0 132 30 0 c25 0 30 4 30 25 0 25 1 25
80 25 l80 0 0 130 0 130 208 0 c115 0 250 3 301 7 l91 6 -2 196 -3 196 -122
34 -123 35 0 188 0 188 165 0 c158 0 165 1 165 20 0 23 6 21 -190 54 -140 24
-171 25 -880 36 -591 8 -904 7 -1598 -5 l-863 -15 -241 -46 c-133 -25 -600
-120 -1037 -210 -621 -129 -798 -162 -804 -152 -5 7 -199 332 -433 723 -233
390 -424 705 -424 698 0 -6 184 -330 410 -721 300 -520 410 -718 410 -741 l0
-31 -566 0 c-557 0 -567 0 -600 21 l-34 21 -743 -248 -742 -247 -235 -30 -235
-31 -878 -3 c-560 -2 -877 -7 -877 -13 0 -6 -41 -10 -97 -10 -92 0 -98 -1
-125 -27 -19 -18 -28 -37 -28 -58 0 -22 -10 -41 -35 -65 l-35 -34 0 -96 0 -96
35 -34 c30 -29 35 -40 35 -82 l0 -48 -780 0 -780 0 0 -40 0 -40 -410 0 -410 0
0 -185 c0 -146 -3 -185 -13 -185 -7 0 -25 -13 -40 -28 -26 -27 -27 -31 -27
-148 l0 -120 40 -39 40 -39 0 -596 0 -596 -40 -39 -40 -39 0 -120 c0 -117 1
-121 27 -148 15 -15 33 -28 40 -28 10 0 13 -51 13 -255 l0 -255 1030 0 1030 0
0 -62 c0 -61 1 -62 55 -119 30 -32 55 -67 55 -78 0 -21 -4 -21 -185 -21 -163
0 -198 3 -291 25 l-106 25 -737 0 -737 0 -22 -30 c-12 -16 -22 -34 -22 -40 0
-9 168 -708 190 -790 6 -22 22 -43 43 -58 l33 -22 628 0 627 0 126 30 c121 29
133 30 369 30 210 0 244 -2 244 -15 0 -10 10 -15 34 -15 22 0 36 -6 40 -16 17
-43 21 -43 -305 -46 l-311 -3 -22 -27 -22 -28 -585 0 -584 0 -78 -78 -77 -77
0 -293 0 -292 -143 0 c-204 0 -187 33 -187 -358 0 -295 -1 -312 -18 -312 -10
0 -30 -13 -45 -28 -26 -27 -27 -32 -27 -143 l0 -115 45 -44 45 -44 0 -591 0
-591 -45 -44 -45 -44 0 -121 c0 -114 1 -123 23 -143 13 -12 33 -22 45 -22 22
0 22 -2 22 -148 0 -142 1 -149 23 -170 13 -12 33 -22 45 -22 21 0 22 -5 22
-75 l0 -75 -60 0 -60 0 0 -285 0 -285 69 0 69 0 10 -42 c8 -32 27 -58 69 -99
76 -74 133 -89 333 -89 110 0 140 -3 140 -13 0 -8 10 -23 23 -35 l23 -22 2157
0 c1270 0 2157 4 2157 9 0 5 106 -38 236 -95 l236 -104 1344 0 c739 0 1344 -3
1344 -7 0 -5 -8 -35 -18 -68 l-18 -60 36 -170 36 -170 69 -48 70 -48 -4 -382
-3 -383 31 -62 31 -62 595 -298 594 -297 -400 -630 c-395 -621 -432 -680 -411
-660 9 8 745 1121 818 1237 l24 37 733 -370 734 -369 2382 0 2381 0 0 -360 0
-360 310 0 310 0 0 25 0 25 245 0 245 0 0 -25 0 -25 230 0 230 0 0 25 0 25
245 0 245 0 0 -25 0 -25 230 0 230 0 0 25 0 25 245 0 245 0 0 -25 0 -25 233 0
232 0 80 89 c73 82 83 90 118 90 37 1 37 1 38 44 1 23 4 32 6 20 l4 -23 600 0
c592 0 599 0 599 20 0 20 7 20 4270 20 l4270 0 0 -40 0 -40 368 0 367 0 222
67 223 68 0 67 0 67 -52 15 c-29 9 -132 40 -228 70 l-175 54 -3 66 -3 66 3353
0 c2804 0 3361 -2 3404 -14 48 -13 64 -11 247 22 174 31 196 37 201 56 14 50
6 79 -35 127 l-41 49 -193 0 -193 0 -11 31 c-6 18 -11 36 -11 40 0 5 55 9 121
9 l122 0 43 35 42 35 136 0 136 0 0 54 c0 49 3 57 29 75 35 25 111 29 111 6 0
-8 13 -21 29 -30 16 -8 35 -20 43 -27 7 -7 37 -25 65 -40 l51 -28 231 0 c221
0 231 1 231 19 0 11 -8 22 -17 24 -10 3 155 5 367 6 l385 1 750 -885 c412
-486 751 -882 753 -880 2 2 -331 407 -739 900 -646 778 -744 900 -744 928 l0
32 68 3 c66 3 67 3 67 -23 0 -18 5 -25 20 -25 19 0 20 10 25 273 3 149 7 518
10 819 l5 548 -95 0 -95 0 0 200 c0 110 3 200 8 200 10 0 165 -18 215 -25 32
-5 37 -3 37 15 0 13 13 26 39 40 l40 20 62 -65 62 -65 249 0 248 0 0 230 0
230 -145 0 -145 0 0 31 c0 25 -21 55 -105 155 l-106 123 -91 3 -91 3 234 149
c215 138 239 150 294 157 33 4 272 12 530 18 259 7 498 14 532 17 l62 5 6 53
7 53 146 6 c81 4 244 9 362 12 118 3 230 8 248 11 l32 5 0 139 0 140 -2630 0
-2630 0 0 50 0 50 2785 0 2785 0 0 3759 c0 2995 -3 3761 -12 3769 -11 8 -501
182 -514 182 -2 0 -4 10 -4 23 0 12 -3 32 -6 45 -6 22 -9 22 -158 22 -84 0
-156 4 -162 9 -5 5 -630 326 -1390 715 l-1380 706 -85 0 c-81 0 -86 1 -99 25
-13 23 -18 25 -74 23 l-60 -3 -130 180 c-339 468 -398 549 -393 533 3 -9 116
-179 251 -377 135 -199 246 -365 246 -369 0 -4 -165 -74 -367 -155 l-368 -148
-9960 1 -9960 0 -1104 -26 c-607 -14 -1107 -22 -1111 -17 -5 4 -147 350 -315
768 -169 418 -311 765 -317 770 -5 6 -4 -3 2 -20z m9770 -4060 l0 -655 -90 0
-90 0 0 655 0 655 90 0 90 0 0 -655z m5850 0 l0 -655 -85 0 -85 0 0 655 0 655
85 0 85 0 0 -655z m5840 0 l0 -655 -80 0 -80 0 0 655 0 655 80 0 80 0 0 -655z
m-15836 -4332 l2409 -2118 74 -5 74 -5 -74 -73 -74 -74 -7 46 -7 46 -1195
1062 c-674 599 -1203 1062 -1212 1061 -9 -1 -27 -4 -38 -8 -18 -6 -214 165
-1205 1046 -651 579 -1205 1072 -1231 1096 l-47 43 63 0 62 0 2408 -2117z
m4146 -1408 l0 -715 -90 0 -90 0 0 715 0 715 90 0 90 0 0 -715z m5850 0 l0
-715 -85 0 -85 0 0 715 0 715 85 0 85 0 0 -715z m5840 0 l0 -715 -80 0 -80 0
0 715 0 715 80 0 80 0 0 -715z m-6460 -665 l0 -50 -2395 0 -2395 0 0 50 0 50
2395 0 2395 0 0 -50z m5860 0 l0 -50 -2400 0 -2400 0 0 50 0 50 2400 0 2400 0
0 -50z m-24273 -106 c153 -53 304 -105 336 -116 l58 -20 -24 -27 -25 -26 128
-135 128 -135 -598 -3 -599 -2 -240 132 -240 133 -50 115 -50 115 308 3 308 2
28 30 c29 30 29 30 141 30 l112 0 279 -96z m2793 -254 l0 -150 -180 0 -180 0
0 150 0 150 180 0 180 0 0 -150z m8650 -340 c0 -6 -78 -10 -215 -10 l-215 0 0
-55 0 -55 -1115 0 -1115 0 0 65 0 65 1330 0 c880 0 1330 -3 1330 -10z m14498
-255 c58 -82 82 -124 82 -145 0 -28 -2 -29 -32 -24 -18 3 -38 7 -44 9 -6 2
-37 50 -69 107 -32 56 -67 118 -78 136 l-19 32 39 0 c38 0 40 -2 121 -115z
m-16402 -2159 l729 -245 -370 0 -370 -1 -110 36 c-60 20 -114 40 -119 44 -4 5
-1 49 8 101 8 52 12 96 8 100 -4 4 -83 32 -177 63 -93 31 -226 76 -295 101
-117 41 -122 44 -79 44 34 1 230 -61 775 -243z m1525 -566 l-26 -50 -200 0
-201 0 -144 49 -145 49 371 1 372 1 -27 -50z m1899 -56 c0 -4 -9 -22 -21 -40
l-21 -34 -418 0 -418 0 -21 34 c-12 18 -21 36 -21 40 0 3 207 6 460 6 253 0
460 -3 460 -6z m3110 2 c0 -3 -9 -21 -21 -40 l-21 -36 -418 0 -417 0 -27 40
-26 40 465 0 c256 0 465 -2 465 -4z m3110 -1 c0 -3 -10 -21 -22 -40 l-23 -35
-82 0 -83 0 0 40 0 40 105 0 c58 0 105 -2 105 -5z m3089 -35 l-23 -40 -417 0
-418 0 -19 28 c-10 15 -22 33 -26 40 -6 9 89 12 459 12 l466 0 -22 -40z m3109
0 l-23 -40 -420 0 -420 0 -23 40 -23 40 466 0 466 0 -23 -40z m-7538 -300 c0
-23 11 -25 205 -40 221 -17 205 -11 205 -75 l0 -55 -4270 0 c-4263 0 -4270 0
-4270 20 0 20 -7 20 -599 20 l-600 0 -4 -22 c-2 -13 -5 3 -6 34 -1 68 -18 61
209 78 198 14 210 17 210 40 0 20 41 20 4460 20 4419 0 4460 0 4460 -20z"/>
</g>
</svg>
