<?xml version="1.0" standalone="no"?>
<!DOCTYPE svg PUBLIC "-//W3C//DTD SVG 20010904//EN"
 "http://www.w3.org/TR/2001/REC-SVG-20010904/DTD/svg10.dtd">
<svg version="1.0" xmlns="http://www.w3.org/2000/svg"
   viewBox="0 0 3670.000000 1517.000000"
 preserveAspectRatio="xMidYMid meet">
<metadata>
Created by potrace 1.16, written by Peter Selinger 2001-2019
</metadata>
<g transform="translate(0.000000,1517.000000) scale(0.100000,-0.100000)"
fill="#000000" stroke="none">
<path d="M9543 15087 l-683 -81 0 -851 0 -852 167 -6 c91 -4 196 -7 232 -7
l66 -1 428 -379 428 -380 60 0 59 0 -2 -177 -3 -178 -28 -3 c-22 -3 -26 -7
-22 -25 3 -12 9 -41 14 -64 l9 -43 -582 -2 -581 -3 -3 -193 -2 -192 -610 6
-610 7 0 -366 c0 -202 1 -368 3 -369 1 -1 274 -4 607 -7 l605 -6 3 -27 3 -28
-613 5 c-337 3 -767 7 -955 10 l-343 5 0 -369 0 -368 128 -6 c70 -4 462 -7
872 -7 410 0 782 -3 828 -7 l82 -6 0 -45 0 -45 -745 5 -745 5 0 -369 0 -368
218 0 c120 0 456 -3 745 -7 l527 -6 0 -1659 0 -1658 -110 0 -110 0 0 -33 0
-33 -387 -22 c-214 -13 -398 -25 -410 -28 l-23 -4 0 -465 c0 -458 0 -465 20
-465 19 0 20 -7 20 -230 l0 -230 -410 0 -410 0 0 92 c0 86 -2 94 -27 120 l-27
28 -1826 0 -1826 0 -128 43 -128 43 -332 -52 c-182 -28 -338 -53 -347 -55 -9
-2 -51 -50 -93 -106 l-76 -103 -579 0 -580 0 -63 87 c-35 48 -66 90 -69 95 -4
6 -1082 -210 -1126 -227 -7 -2 -21 -22 -33 -44 -19 -39 -20 -56 -20 -552 0
-507 0 -512 22 -550 12 -21 29 -41 37 -44 71 -21 1116 -234 1121 -228 4 4 35
47 70 96 l62 87 582 0 581 -1 75 -102 75 -102 345 -56 345 -56 130 44 129 43
1831 0 1832 0 21 23 c19 21 22 34 22 120 l0 97 410 0 410 0 2 -257 3 -257 31
-8 32 -8 7 -176 c4 -97 4 -597 0 -1110 -7 -871 -7 -934 9 -934 9 0 517 -61
1129 -135 l1112 -135 1480 -90 1480 -90 1850 0 1850 0 2270 125 2270 126 2370
199 c2357 199 2382 201 4500 421 1647 170 2515 265 3830 419 1645 194 1734
205 2740 355 l1040 156 297 116 296 116 -4 111 c-3 61 -7 120 -10 131 -3 13
-110 89 -313 222 l-310 201 -995 267 -996 267 -1692 354 c-1325 277 -2163 446
-3858 774 l-2165 420 -1530 211 c-841 115 -1816 244 -2165 284 -349 41 -741
89 -870 105 -129 17 -471 55 -759 85 -288 30 -526 56 -527 58 -2 2 2 65 8 140
6 75 10 139 7 141 -2 3 -773 81 -1712 175 l-1707 171 -649 0 -649 0 -6 33 c-6
30 -25 47 -163 145 l-156 112 -246 0 -247 0 -11 -30 -11 -30 -492 0 -491 0
-10 30 c-10 28 -14 30 -62 30 l-52 0 -34 -93 c-18 -50 -42 -116 -53 -144 l-19
-53 -110 0 c-104 0 -109 1 -114 23 -3 12 -108 504 -234 1092 -126 589 -264
1219 -307 1401 l-77 332 -36 11 -36 10 -331 1406 c-182 773 -330 1405 -330
1406 1 0 1085 150 2410 333 l2409 334 124 124 124 124 20 89 c11 49 21 90 22
92 2 1 183 -13 402 -32 538 -46 1716 -169 2444 -255 327 -39 596 -69 597 -67
2 2 -53 55 -122 118 l-126 114 -422 179 c-329 139 -583 237 -1164 446 -705
255 -791 284 -1705 564 l-962 294 -1067 256 -1067 255 -1063 165 -1063 165
-815 15 c-448 9 -840 18 -870 20 -30 2 -359 -33 -737 -77z m6917 -2088 c212
-18 387 -33 388 -35 2 -1 7 -18 12 -38 5 -25 4 -39 -5 -46 -12 -10 -2299 -294
-2317 -288 -5 2 101 101 234 220 l243 216 530 1 c513 1 543 0 915 -30z m-2043
-425 c-3 -3 -12 -4 -19 -1 -8 3 -5 6 6 6 11 1 17 -2 13 -5z m-132 -15 c-33 -4
-78 -10 -100 -13 l-40 -4 40 13 c22 7 67 13 100 13 l60 0 -60 -9z"/>
</g>
</svg>
