<?xml version="1.0" standalone="no"?>
<!DOCTYPE svg PUBLIC "-//W3C//DTD SVG 20010904//EN"
 "http://www.w3.org/TR/2001/REC-SVG-20010904/DTD/svg10.dtd">
<svg version="1.0" xmlns="http://www.w3.org/2000/svg"
   viewBox="0 0 2526.000000 839.000000"
 preserveAspectRatio="xMidYMid meet">
<metadata>
Created by potrace 1.16, written by Peter Selinger 2001-2019
</metadata>
<g transform="translate(0.000000,839.000000) scale(0.100000,-0.100000)"
fill="#000000" stroke="none">
<path d="M12376 8355 c-16 -20 -26 -38 -25 -39 2 -1 177 -74 389 -162 l385
-159 279 -168 c226 -136 696 -448 696 -462 0 -1 -34 8 -76 21 -42 14 -360 87
-708 163 -525 116 -740 158 -1281 250 l-650 111 -1050 105 c-1011 101 -1081
107 -1890 154 -499 30 -1023 54 -1290 61 -247 7 -622 20 -832 29 -361 15 -382
15 -365 -1 12 -12 121 -39 352 -87 484 -101 706 -161 1042 -285 253 -93 319
-122 550 -242 158 -82 299 -164 353 -203 l89 -66 -221 -3 -221 -2 -5 -33 c-4
-17 -9 -75 -12 -127 -4 -52 -9 -103 -12 -112 -4 -17 -55 -18 -889 -18 l-884 0
-99 66 -99 65 -288 30 c-159 16 -290 29 -291 29 -2 0 -3 -43 -3 -95 l0 -95
-45 0 -45 0 0 78 c0 47 -5 83 -12 90 -8 8 -64 12 -187 12 l-174 0 -47 30 c-41
26 -107 43 -504 130 -252 55 -459 100 -461 100 -2 0 -45 -58 -96 -130 l-92
-130 -125 0 c-118 0 -127 -1 -158 -25 l-33 -25 -585 0 -586 0 0 -35 0 -35 572
-2 573 -3 -190 -51 c-105 -29 -369 -100 -587 -159 l-398 -108 -2 -700 -3 -700
-435 -103 c-402 -96 -459 -112 -745 -213 l-310 -109 3 -64 3 -63 -223 -125
c-189 -105 -234 -136 -298 -197 -41 -40 -88 -96 -104 -126 l-29 -55 38 -63
c21 -35 63 -92 93 -126 51 -59 69 -71 288 -185 l234 -123 -6 -65 c-4 -36 -7
-69 -8 -74 0 -4 143 -59 319 -121 314 -111 330 -115 845 -234 l525 -121 874
-131 c561 -83 1003 -144 1233 -168 196 -21 363 -42 370 -48 7 -5 150 -109 318
-230 291 -210 330 -234 838 -526 l533 -307 657 -266 657 -267 760 -223 760
-224 870 -195 870 -196 950 -144 950 -144 1003 -86 1003 -85 472 0 472 0 77
77 78 77 854 -83 c470 -46 860 -80 868 -76 7 5 21 15 30 23 14 12 55 14 224
13 114 -1 271 1 350 5 143 7 144 7 144 30 0 13 -2 24 -5 24 -2 0 -168 45 -368
100 l-365 99 -358 175 -359 174 -344 244 -345 243 -312 300 -313 300 -274 355
-274 355 -172 312 -172 312 -45 226 c-25 125 -43 229 -40 232 3 3 30 -13 60
-35 l55 -42 173 -5 c95 -3 197 -8 226 -11 l52 -5 0 -137 c0 -126 2 -138 20
-149 22 -14 3394 -727 3915 -828 1108 -214 2140 -427 3180 -656 649 -143 1290
-282 1425 -308 l245 -47 24 35 c13 20 25 37 26 38 0 1 92 -9 204 -22 111 -14
208 -22 216 -18 7 5 108 76 223 158 l210 150 106 216 106 215 -9 271 -10 271
-112 223 c-109 219 -115 229 -276 434 -240 306 -533 599 -863 865 -388 313
-856 620 -1605 1057 l-600 350 -635 291 c-560 256 -716 323 -1320 561 l-685
270 -1207 376 -1207 375 -448 71 c-354 55 -461 69 -509 64 -59 -6 -68 -4 -370
110 -279 105 -328 120 -504 156 -189 39 -520 77 -562 63 -9 -3 -437 108 -950
245 -513 137 -945 253 -959 256 -21 5 -30 0 -53 -30z"/>
</g>
</svg>
