<?xml version="1.0" standalone="no"?>
<!DOCTYPE svg PUBLIC "-//W3C//DTD SVG 20010904//EN"
 "http://www.w3.org/TR/2001/REC-SVG-20010904/DTD/svg10.dtd">
<svg version="1.0" xmlns="http://www.w3.org/2000/svg"
   viewBox="0 0 4272.000000 511.000000"
 preserveAspectRatio="xMidYMid meet">
<metadata>
Created by potrace 1.16, written by Peter Selinger 2001-2019
</metadata>
<g transform="translate(0.000000,511.000000) scale(0.100000,-0.100000)"
fill="#000000" stroke="none">
<path d="M27560 5083 c-683 -24 -686 -24 -953 -63 -265 -38 -269 -38 -288 -19
-24 24 -41 24 -255 -6 -241 -34 -224 -29 -224 -69 0 -59 12 -98 31 -103 17 -5
17 -7 3 -34 l-15 -29 83 0 c152 1 722 30 768 40 25 5 55 9 68 10 l22 0 0 -179
0 -178 -147 -6 c-82 -4 -285 -9 -453 -13 l-305 -5 -604 90 -604 91 -841 0
-841 0 -112 -80 -111 -80 -718 -15 c-396 -8 -731 -15 -745 -15 -25 0 -27 -4
-34 -56 l-7 -55 -301 6 c-166 3 -1407 10 -2757 16 -1350 6 -2456 12 -2457 13
-1 1 80 49 180 106 100 58 319 168 487 246 l305 141 57 79 c31 43 56 79 55 80
-3 2 -3237 -24 -5597 -46 -1251 -11 -3008 -25 -3905 -30 l-1630 -11 -550 -178
c-381 -124 -601 -201 -715 -251 l-165 -72 -180 3 c-203 3 -256 -7 -355 -67
-57 -34 -120 -101 -120 -128 0 -13 -28 -14 -205 -9 -177 5 -214 4 -272 -12
-215 -56 -325 -223 -241 -363 11 -18 19 -34 17 -36 -26 -23 -402 -182 -839
-355 l-546 -216 -429 -253 -430 -253 -254 -237 -254 -237 -87 -220 -87 -220
75 -221 75 -220 225 -145 c124 -79 236 -150 250 -157 13 -8 216 -47 450 -87
413 -71 1275 -185 1764 -232 98 -9 175 -19 173 -21 -4 -4 -575 -30 -695 -32
l-55 -1 110 -56 c101 -51 154 -68 646 -204 l535 -147 585 -106 584 -106 565
-34 565 -35 1710 69 c1836 74 4198 154 7405 250 1103 33 2012 61 2021 62 12 2
3 23 -40 88 l-56 85 -316 42 c-315 42 -316 42 -660 138 -274 76 -419 123 -711
232 l-367 136 -1786 -52 c-983 -29 -1788 -51 -1790 -49 -2 2 227 18 508 36
405 25 1396 63 4742 182 2327 82 4275 151 4330 153 l100 5 120 -118 c98 -95
172 -154 400 -315 l280 -198 384 -184 384 -184 441 -149 c503 -170 411 -153
926 -170 557 -19 1375 -49 1458 -54 l82 -5 42 63 42 63 640 7 c352 4 641 8
643 9 1 2 17 61 36 132 l34 129 99 -2 c54 -2 356 -12 669 -22 505 -17 1165
-36 2475 -70 217 -6 461 -10 541 -10 l147 0 298 166 c165 92 310 173 323 181
24 15 23 16 -63 65 -47 27 -86 53 -86 56 1 4 58 47 128 97 139 98 110 87 422
160 l115 27 75 93 75 94 460 -5 c253 -2 1104 -9 1890 -15 787 -6 1815 -16
2285 -23 l855 -12 965 128 c821 108 985 133 1095 163 99 26 150 35 210 35 44
0 535 -31 1090 -69 l1010 -69 244 58 245 59 114 114 114 114 32 135 33 136
-68 113 c-56 94 -84 128 -156 194 l-88 80 -465 197 -465 198 -870 221 -870
221 -805 149 c-443 81 -989 185 -1215 229 -390 76 -474 89 -1735 255 -729 96
-1829 237 -2445 314 l-1120 139 -533 7 -533 7 -242 98 c-243 99 -243 99 -403
121 -133 18 -177 29 -269 65 -83 32 -149 49 -272 70 l-162 27 -65 51 c-54 42
-65 56 -66 81 0 24 -14 44 -64 94 l-64 64 -484 -18 -484 -17 -186 81 c-183 80
-186 81 -264 80 -44 -1 -387 -12 -764 -26z m-16412 -4090 c-10 -2 -26 -2 -35
0 -10 3 -2 5 17 5 19 0 27 -2 18 -5z"/>
</g>
</svg>
