<?xml version="1.0" standalone="no"?>
<!DOCTYPE svg PUBLIC "-//W3C//DTD SVG 20010904//EN"
 "http://www.w3.org/TR/2001/REC-SVG-20010904/DTD/svg10.dtd">
<svg version="1.0" xmlns="http://www.w3.org/2000/svg"
   viewBox="0 0 4346.000000 1623.000000"
 preserveAspectRatio="xMidYMid meet">
<metadata>
Created by potrace 1.16, written by Peter Selinger 2001-2019
</metadata>
<g transform="translate(0.000000,1623.000000) scale(0.100000,-0.100000)"
fill="#000000" stroke="none">
<path d="M7806 15942 c-104 -158 -190 -288 -191 -290 -1 -1 -647 -130 -1436
-286 l-1434 -284 -1238 -436 -1237 -436 -788 -369 c-433 -203 -808 -379 -835
-392 -37 -18 -106 -87 -315 -313 -148 -160 -282 -307 -299 -327 l-32 -35 91
-117 91 -117 1446 0 1446 -1 305 -455 c265 -396 315 -465 378 -523 l72 -66
233 -5 232 -5 -370 -49 -370 -49 -93 -55 c-90 -53 -93 -56 -107 -106 -60 -205
-164 -1490 -132 -1621 6 -25 23 -40 90 -79 l82 -48 469 -58 c258 -33 470 -61
472 -63 2 -2 -1 -57 -7 -123 -6 -65 -12 -197 -13 -291 l-1 -173 55 -54 55 -55
1445 -139 c1247 -121 1452 -143 1493 -161 43 -19 68 -21 210 -21 108 1 277
-10 505 -32 323 -30 343 -33 347 -53 3 -11 28 -141 55 -290 29 -156 55 -272
63 -276 6 -4 226 -156 487 -338 l475 -331 217 0 216 0 64 -70 63 -69 191 -13
191 -12 1 -95 c1 -53 4 -138 8 -188 l6 -93 -33 0 c-19 0 -83 -7 -144 -15 -60
-8 -133 -15 -160 -15 -49 0 -53 -2 -118 -68 l-67 -68 0 -310 0 -310 63 -62 62
-61 330 -25 330 -25 405 -124 405 -124 234 -124 235 -124 21 -85 c16 -62 34
-102 65 -147 l44 -63 231 0 231 0 39 -51 c39 -50 44 -68 150 -483 l110 -432
255 -466 255 -466 173 -86 172 -86 1678 1 1677 0 174 87 174 87 254 464 c139
256 256 473 259 484 6 18 13 19 98 14 50 -3 793 -40 1651 -82 858 -42 1570
-79 1582 -83 12 -4 116 -86 229 -182 114 -96 215 -181 225 -188 14 -9 249 -20
956 -42 516 -16 972 -30 1013 -30 l75 0 109 165 109 165 351 0 352 0 108 -125
107 -125 507 0 507 0 558 -115 557 -116 678 36 c372 19 702 35 732 35 53 0 56
-2 111 -56 l57 -56 130 17 131 17 210 -130 210 -131 970 -358 971 -359 333
-325 c192 -188 523 -494 785 -728 l453 -403 297 -202 297 -202 322 -98 323
-98 307 16 308 17 1346 234 1346 235 851 0 851 0 158 61 c87 33 169 67 182 76
13 8 159 142 326 298 l302 283 12 124 c6 67 12 134 13 148 1 18 -32 71 -113
180 -64 85 -118 160 -122 166 -3 6 47 171 112 367 l119 356 -14 319 -14 320
204 413 c336 685 1628 3302 2193 4444 488 986 544 1093 707 1365 108 179 196
315 225 345 42 44 51 61 71 138 14 51 19 91 14 96 -5 4 -340 128 -744 274
l-735 267 -1994 575 c-1097 316 -2000 575 -2008 575 -7 0 -44 -20 -82 -45
l-70 -44 -158 -7 -158 -6 -402 106 c-250 67 -524 131 -725 171 -178 36 -691
147 -1140 247 l-818 182 0 162 0 161 -87 21 c-49 11 -173 39 -278 62 l-190 42
-659 -201 -658 -201 -1992 305 -1991 304 -660 29 -660 29 -465 192 -465 192
-460 -6 -460 -7 -94 128 -93 129 -274 117 -274 117 -402 91 -403 92 -495 47
-495 47 -480 -17 -479 -16 -81 67 -80 67 -390 -7 -390 -7 -90 34 c-74 27 -104
33 -171 33 l-82 0 -94 128 -94 127 -275 116 -274 117 -409 91 -410 92 -485 49
-486 48 -455 -19 c-250 -10 -466 -18 -480 -19 -18 0 -55 25 -120 80 l-95 80
-121 0 -122 0 -118 56 -119 56 -2205 24 c-1213 13 -2268 25 -2345 26 l-139 3
-29 195 c-15 107 -31 198 -35 202 -4 3 -183 112 -398 242 l-391 236 -1464 0
-1464 0 -189 -288z m11659 -6640 l310 -248 98 -260 c53 -142 97 -264 97 -271
0 -10 -235 -571 -242 -579 -2 -1 -98 -10 -213 -19 -116 -9 -219 -18 -231 -20
-16 -4 -154 -114 -326 -263 -14 -12 -86 -19 -330 -33 -172 -10 -313 -17 -313
-16 -1 1 -25 205 -53 452 -50 434 -55 461 -125 770 l-73 320 294 3 294 2 212
205 c203 197 213 205 251 205 37 0 61 -17 350 -248z"/>
</g>
</svg>
