<?xml version="1.0" standalone="no"?>
<!DOCTYPE svg PUBLIC "-//W3C//DTD SVG 20010904//EN"
 "http://www.w3.org/TR/2001/REC-SVG-20010904/DTD/svg10.dtd">
<svg version="1.0" xmlns="http://www.w3.org/2000/svg"
   viewBox="0 0 4826.000000 1593.000000"
 preserveAspectRatio="xMidYMid meet">
<metadata>
Created by potrace 1.16, written by Peter Selinger 2001-2019
</metadata>
<g transform="translate(0.000000,1593.000000) scale(0.100000,-0.100000)"
fill="#000000" stroke="none">
<path d="M35090 15930 c-6 -10 -31 -810 -36 -1152 -3 -211 -9 -358 -15 -358
-5 0 -9 -27 -9 -60 0 -47 -3 -60 -15 -60 -12 0 -15 -19 -15 -110 0 -91 3 -110
15 -110 13 0 15 -55 15 -432 0 -414 -1 -434 -20 -458 -18 -22 -20 -42 -20
-187 l0 -163 -307 -2 -307 -3 -58 -155 c-32 -85 -58 -158 -58 -162 0 -5 45 -8
100 -8 l100 0 0 -144 0 -144 -182 -6 c-101 -3 -543 -13 -983 -21 -440 -8 -877
-18 -971 -21 l-171 -6 -17 -72 c-9 -39 -24 -95 -32 -123 -15 -52 -16 -53 -54
-53 -24 0 -291 -86 -712 -229 -370 -126 -681 -233 -690 -236 -16 -6 -18 1 -18
68 l0 76 -100 158 c-96 152 -105 163 -246 292 l-146 134 -716 53 c-395 29
-760 54 -812 54 -52 0 -105 3 -118 7 -14 3 -76 69 -153 162 l-129 156 0 77 0
78 105 0 105 0 0 130 0 130 -75 0 -75 0 0 75 0 75 -475 0 -475 0 0 -75 0 -75
-595 0 -595 0 0 -130 0 -130 100 0 100 0 0 -80 0 -80 -117 -145 -118 -144 -85
-1 -85 -1 -187 -244 -188 -244 -15 -137 c-9 -84 -15 -229 -15 -380 l0 -244
-280 0 -279 0 4 28 c2 15 7 174 10 354 l6 327 169 247 c93 137 168 249 166
251 -2 2 -53 19 -112 37 -99 30 -110 32 -120 17 -6 -9 -91 -149 -189 -311 -98
-162 -179 -296 -180 -297 -1 -2 -80 -20 -176 -40 -148 -32 -178 -41 -204 -65
-16 -15 -323 -283 -681 -595 l-651 -568 -91 -183 c-91 -181 -92 -183 -92 -257
0 -41 -2 -75 -5 -75 -3 0 -22 7 -42 15 -19 8 -37 15 -39 15 -2 0 -4 -169 -4
-375 l0 -375 -80 0 -80 0 0 235 0 235 -25 0 -25 0 0 285 0 285 -1532 0 -1533
0 -124 200 -124 200 -94 0 -93 0 0 100 0 100 1150 0 1150 0 106 -25 c77 -18
134 -25 210 -25 l104 0 0 671 0 670 -3395 -3 c-3228 -3 -3395 -2 -3395 15 0
14 -10 17 -60 17 l-60 0 0 59 0 58 -107 22 c-60 11 -114 21 -120 21 -9 0 -13
-23 -13 -80 l0 -80 -35 0 c-28 0 -35 -4 -35 -20 0 -19 -7 -20 -147 -20 -82 0
-219 -3 -305 -7 l-157 -6 -16 -39 c-12 -32 -15 -92 -15 -348 l0 -310 -295 0
-295 0 0 40 0 40 -800 0 -800 0 0 25 0 25 -345 0 -345 0 0 -60 0 -60 -37 0
c-21 0 -1260 50 -2752 110 -1493 61 -2725 110 -2738 110 -22 0 -23 3 -23 83 0
45 -4 87 -8 93 -4 5 -293 140 -643 299 l-636 288 -133 291 c-73 160 -161 353
-196 428 l-63 138 168 95 167 95 172 0 172 0 0 170 0 170 -78 0 -79 0 -18 60
c-10 34 -21 63 -24 64 -3 2 -36 7 -72 11 l-66 7 -25 -68 -26 -69 -96 -3 c-91
-3 -96 -2 -96 18 l0 20 -1395 0 c-1388 0 -1395 0 -1395 -20 0 -19 -7 -20 -110
-20 l-110 0 0 -172 0 -173 135 -93 135 -94 1 -76 c0 -42 6 -234 12 -427 l12
-350 -30 -166 -30 -165 -247 -466 -248 -465 0 -837 0 -836 258 0 259 0 7
-1782 c6 -1575 8 -1797 23 -1901 l16 -117 491 0 491 0 228 -60 227 -61 803
-54 c441 -30 817 -55 835 -55 l32 0 0 -175 0 -175 -188 0 -189 0 -259 -105
c-142 -58 -278 -119 -302 -135 -42 -29 -45 -30 -164 -30 -114 0 -123 2 -154
25 -32 24 -37 25 -204 25 -118 0 -291 -11 -549 -35 -495 -46 -460 -40 -473
-76 l-10 -29 -891 -2 c-498 -1 -826 -5 -742 -8 83 -4 484 -8 892 -9 l741 -1
10 -29 c12 -35 -26 -29 483 -76 254 -24 431 -35 544 -35 164 0 168 1 197 25
28 24 36 25 151 25 115 0 125 -2 161 -26 21 -14 158 -75 304 -135 l267 -109
652 0 653 0 0 370 0 370 -226 0 c-220 0 -225 0 -219 20 3 11 35 88 70 172 l64
153 2200 3 2201 2 0 80 0 80 1920 0 1920 0 0 -45 0 -45 388 0 387 0 28 -45 29
-45 201 0 202 1 27 44 27 45 134 0 134 0 7 -53 c3 -28 6 -91 6 -139 l0 -88
-50 0 -50 0 0 -50 0 -50 50 0 c43 0 50 -3 50 -20 0 -17 -7 -20 -40 -20 l-40 0
0 -50 0 -50 40 0 40 0 0 -775 0 -775 24 0 23 0 7 -197 c3 -109 11 -811 18
-1560 6 -750 13 -1361 15 -1359 4 4 33 2520 33 2879 l0 237 30 0 30 0 0 775 0
775 40 0 40 0 0 50 0 50 -40 0 c-33 0 -40 3 -40 20 0 17 7 20 50 20 l50 0 0
50 0 50 -50 0 -50 0 0 140 0 140 160 0 160 0 0 -95 0 -95 120 0 120 0 0 -347
0 -348 50 -22 50 -22 0 -71 0 -71 -50 -21 -50 -21 0 -86 c1 -78 8 -112 79
-351 l79 -265 47 -7 c26 -4 49 -9 52 -12 3 -3 8 -415 11 -916 4 -707 8 -910
17 -910 10 0 13 202 17 910 2 500 7 912 10 916 3 3 28 8 55 12 l48 7 77 265
c68 236 77 274 77 351 l1 87 -50 18 -50 18 0 76 0 76 50 21 50 21 0 346 0 346
430 0 430 0 0 95 0 95 1075 0 1075 0 0 198 c0 108 3 416 7 685 l6 487 493 0
494 0 146 -170 147 -170 156 0 c86 0 234 5 329 10 l174 10 258 160 258 160
471 0 471 0 0 135 0 135 70 0 70 0 0 120 0 120 80 0 80 0 0 -205 0 -205 80 0
80 0 0 -573 0 -573 1848 -686 1847 -686 1070 -153 1070 -152 1596 -36 1595
-36 410 -369 c225 -202 410 -371 412 -375 1 -4 -33 -33 -76 -64 l-79 -57
-2954 -30 c-1625 -17 -3010 -34 -3079 -37 -69 -4 1261 -23 2955 -42 l3080 -36
127 -92 c104 -77 132 -93 162 -93 l36 0 0 -165 0 -165 -505 0 -505 0 0 -735 0
-735 505 0 505 0 0 -310 0 -310 -505 0 -505 0 0 -90 0 -90 1535 0 1535 0 0 90
0 90 2555 0 2555 0 0 1165 0 1165 85 0 85 0 0 -682 c1 -626 2 -686 18 -722
l17 -38 460 538 460 538 5 -855 c3 -566 9 -860 15 -872 9 -15 79 63 470 520
l460 538 5 -870 c3 -479 9 -880 14 -893 5 -13 12 -22 17 -20 4 2 377 435 828
963 452 528 827 964 835 969 9 6 23 2 44 -12 16 -12 33 -22 36 -22 3 0 6 207
6 460 l0 460 30 0 c27 0 31 5 45 52 9 32 15 91 15 158 l0 107 593 7 c325 3
1277 9 2114 12 837 4 1520 10 1518 14 -3 4 -904 10 -2002 14 -1099 3 -2049 9
-2110 12 l-113 6 0 509 0 509 240 0 240 0 0 -90 c0 -49 3 -90 6 -90 4 0 90 39
192 87 l186 88 248 310 248 310 0 267 0 268 415 0 c408 0 415 0 415 20 0 19 7
20 175 20 l175 0 0 495 0 495 -175 0 -175 0 0 745 0 745 125 0 125 0 0 245 0
245 -125 0 -125 0 0 1056 0 1055 -415 -7 -415 -7 0 246 0 246 -252 322 -253
323 -185 87 -185 86 -3 -108 -3 -109 -240 0 c-183 0 -241 3 -244 13 -2 6 -9
51 -15 100 -12 87 -12 87 -41 87 l-29 0 0 220 0 220 90 0 90 0 0 125 0 125
-307 445 -308 445 -442 0 -441 0 -496 295 c-272 162 -499 295 -505 295 -8 0
-11 -82 -11 -259 l0 -259 -451 269 c-248 148 -455 269 -460 269 -5 0 -9 -114
-9 -269 l0 -270 -451 270 c-248 148 -457 269 -465 269 -11 0 -14 -49 -16 -265
l-3 -265 -450 270 c-247 148 -456 270 -462 270 -10 0 -13 -195 -13 -940 l0
-940 -777 0 -777 0 -291 -100 c-328 -112 -296 -107 -602 -93 l-141 6 -33 131
c-17 72 -33 132 -34 134 -2 2 -52 12 -111 22 -60 11 -119 22 -131 25 -23 5
-23 8 -23 150 l0 144 99 3 99 3 -58 160 -58 160 -101 3 -101 3 0 124 0 125
-45 0 -45 0 0 495 c0 433 2 495 15 495 12 0 15 19 15 110 l0 110 -290 0 -290
0 0 60 c0 33 -4 60 -9 60 -4 0 -11 186 -15 413 -6 395 -30 1107 -36 1097z
m240 -2345 l0 -495 -45 0 -45 0 0 -125 c0 -118 -1 -125 -20 -125 -19 0 -20 7
-20 159 0 155 -1 160 -25 189 l-25 30 0 431 0 431 90 0 90 0 0 -495z m-27110
-2370 c1482 -58 2714 -108 2738 -111 l42 -5 0 -60 0 -59 345 0 345 0 0 25 0
25 800 0 800 0 0 45 0 45 295 0 295 0 0 -112 c0 -85 4 -123 18 -155 l17 -43
286 0 287 0 6 -22 c3 -13 6 -44 6 -70 l0 -48 -685 0 -685 0 0 -115 0 -115
-591 0 -591 0 56 46 c31 26 56 47 57 48 0 0 6 77 13 170 l12 169 -321 -6
c-176 -3 -1105 -18 -2065 -33 l-1745 -27 -1230 177 c-676 97 -1233 176 -1237
176 -3 0 -8 36 -10 80 -3 80 -3 80 22 80 14 0 1238 -47 2720 -105z m8430 -475
l0 -70 -820 0 -820 0 0 70 0 70 820 0 820 0 0 -70z m810 46 c0 -13 3 -44 6
-70 l7 -46 -147 0 -146 0 0 70 0 70 140 0 140 0 0 -24z m8060 -1098 l0 -361
-297 7 c-163 4 -299 8 -301 10 -2 2 4 21 13 42 15 35 16 73 10 352 l-7 312
291 0 291 0 0 -362z"/>
</g>
</svg>
