<?xml version="1.0" standalone="no"?>
<!DOCTYPE svg PUBLIC "-//W3C//DTD SVG 20010904//EN"
 "http://www.w3.org/TR/2001/REC-SVG-20010904/DTD/svg10.dtd">
<svg version="1.0" xmlns="http://www.w3.org/2000/svg"
   viewBox="0 0 2343.000000 689.000000"
 preserveAspectRatio="xMidYMid meet">
<metadata>
Created by potrace 1.16, written by Peter Selinger 2001-2019
</metadata>
<g transform="translate(0.000000,689.000000) scale(0.100000,-0.100000)"
fill="#000000" stroke="none">
<path d="M12178 6831 c-454 -48 -529 -58 -540 -74 -11 -14 -11 -52 -1 -210 7
-106 12 -199 10 -207 -2 -12 -147 -42 -637 -136 l-635 -120 -53 31 -53 32
-157 -33 c-86 -19 -174 -37 -194 -40 -22 -4 -38 -12 -38 -20 0 -13 -15 -18
-125 -45 -34 -9 -64 -26 -95 -55 -43 -41 -50 -43 -195 -74 -82 -18 -307 -70
-500 -116 -307 -74 -362 -91 -454 -134 -75 -37 -245 -93 -624 -210 -496 -153
-528 -161 -675 -179 l-154 -19 -67 -65 c-70 -68 -117 -92 -1032 -523 -497
-234 -1616 -810 -2415 -1243 l-862 -466 -27 -77 c-15 -42 -32 -83 -38 -91 -7
-8 -155 -110 -329 -228 -245 -164 -318 -218 -318 -234 0 -11 7 -60 16 -109 9
-52 11 -92 6 -95 -5 -3 -110 -84 -234 -179 l-225 -173 32 -112 33 -112 -31
-33 -31 -32 2 -108 3 -107 -770 -259 c-424 -143 -769 -261 -768 -262 1 -1 114
-70 250 -153 l249 -151 291 25 291 25 81 -79 c101 -100 157 -126 255 -116 293
29 440 87 496 198 13 26 31 47 39 47 18 0 259 19 308 24 l37 4 0 -44 c0 -53
-22 -51 265 -24 115 11 212 16 216 12 3 -4 16 -36 29 -72 13 -36 24 -66 25
-68 2 -2 62 11 135 28 73 17 243 44 379 60 135 16 607 84 1049 152 l804 123
-7 51 -6 50 133 18 c202 27 188 22 188 67 0 32 4 40 23 44 12 3 610 125 1329
270 l1308 265 967 140 968 139 965 54 965 53 844 -18 843 -18 119 76 118 75
168 -85 168 -85 385 -50 385 -50 483 -121 484 -121 18 23 c10 13 26 33 36 46
l19 22 315 -66 315 -67 244 20 c198 16 255 17 300 8 45 -9 64 -9 99 3 43 14
45 14 120 -21 42 -19 101 -41 130 -47 30 -7 93 -34 141 -61 l88 -49 6 -76 c4
-42 5 -79 2 -84 -2 -4 150 -67 338 -139 l343 -132 165 -116 c174 -123 315
-233 337 -264 12 -18 270 -230 445 -366 44 -35 87 -63 96 -63 9 0 109 -7 223
-16 l207 -17 223 103 223 103 458 -35 457 -34 33 -31 32 -31 490 -7 490 -6
380 99 380 98 123 172 122 171 -35 218 -36 218 -96 142 -95 142 22 31 c12 17
20 37 17 44 -3 7 -44 67 -92 132 -70 96 -93 121 -120 129 -28 8 -47 29 -105
114 l-70 104 40 63 40 64 -84 135 c-47 74 -129 186 -183 249 -92 108 -100 115
-135 116 -59 0 -155 95 -544 535 l-349 395 -80 0 -80 1 -62 57 -63 57 58 156
59 156 -255 269 -256 269 -395 234 c-380 224 -409 239 -703 367 -404 175
-1042 467 -1431 655 l-312 150 -190 188 -190 188 -385 101 c-342 90 -431 109
-800 172 -459 79 -600 92 -1135 105 -143 3 -417 13 -610 20 -192 8 -470 15
-617 15 -255 0 -268 -1 -268 -19 0 -21 -14 -22 -395 -41 -128 -7 -295 -23
-427 -42 -120 -17 -220 -29 -223 -26 -3 3 -12 66 -20 139 -8 74 -24 169 -36
212 -21 75 -22 77 -53 76 -17 -1 -268 -27 -558 -58z"/>
</g>
</svg>
