<?xml version="1.0" standalone="no"?>
<!DOCTYPE svg PUBLIC "-//W3C//DTD SVG 20010904//EN"
 "http://www.w3.org/TR/2001/REC-SVG-20010904/DTD/svg10.dtd">
<svg version="1.0" xmlns="http://www.w3.org/2000/svg"
   viewBox="0 0 4732.000000 2579.000000"
 preserveAspectRatio="xMidYMid meet">
<metadata>
Created by potrace 1.16, written by Peter Selinger 2001-2019
</metadata>
<g transform="translate(0.000000,2579.000000) scale(0.100000,-0.100000)"
fill="#000000" stroke="none">
<path d="M15428 25721 l-66 -71 -1099 0 -1100 0 -689 -491 c-379 -271 -698
-498 -709 -505 -13 -8 -433 -64 -1115 -148 -602 -75 -1111 -139 -1131 -143
-30 -7 -111 -78 -438 -387 -221 -208 -408 -391 -415 -405 -11 -22 -10 -58 10
-231 13 -112 22 -206 20 -207 -2 -2 -893 253 -1981 567 -1087 313 -1981 570
-1987 570 -16 0 -233 -171 -236 -186 -2 -8 -9 -14 -15 -14 -10 0 -229 60 -234
64 -1 1 11 51 27 111 16 60 28 111 25 113 -2 2 -57 20 -122 38 l-118 34 -172
-82 -171 -83 -22 -70 c-36 -119 -351 -1225 -490 -1720 -73 -258 -162 -578
-199 -710 -45 -160 -72 -241 -82 -242 -8 -2 -563 -59 -1234 -129 -671 -69
-1221 -127 -1221 -128 -1 0 -105 -278 -231 -616 l-230 -615 1259 -3 c1193 -2
1259 -3 1254 -20 -30 -105 -36 -85 72 -264 l98 -163 59 -18 c33 -10 68 -22 79
-26 15 -6 -23 -59 -251 -351 l-269 -344 25 -21 c14 -12 365 -286 779 -609
l752 -587 596 -70 595 -70 219 -142 220 -142 0 -597 0 -598 1113 0 1112 0 258
-1123 258 -1122 -1 -231 0 -231 803 -6 c441 -4 1581 -7 2534 -7 l1732 0 7 -37
c4 -21 12 -67 19 -103 7 -36 56 -171 110 -300 94 -227 101 -239 195 -365 53
-71 134 -166 179 -210 81 -80 82 -80 74 -119 l-8 -38 -365 -170 c-432 -201
-988 -442 -1295 -562 -120 -48 -222 -90 -226 -94 -4 -4 -64 -95 -134 -202
l-128 -194 12 -307 11 -306 84 -267 84 -266 59 -63 c32 -35 164 -174 293 -310
l235 -246 510 -289 510 -290 438 -17 c346 -14 440 -15 452 -5 12 10 96 10 402
0 334 -11 390 -15 400 -29 6 -9 351 -457 766 -996 l756 -980 663 -292 663
-292 115 119 115 118 3128 -2934 c1721 -1614 3131 -2934 3135 -2934 3 0 13 7
23 16 17 15 21 14 51 -11 18 -15 73 -66 121 -112 l89 -86 -21 -20 -20 -21 57
-38 c31 -21 60 -38 63 -38 3 0 29 26 56 58 l51 58 -42 56 -43 57 -21 -22 -22
-21 -57 54 c-198 188 -185 172 -164 195 18 20 -8 44 -2998 2848 -1659 1555
-3068 2876 -3131 2936 l-115 109 23 24 c12 13 22 27 22 31 0 7 -490 659 -515
686 -11 11 -27 2 -96 -58 -45 -39 -85 -70 -89 -69 -3 2 -380 354 -838 783
l-831 780 2124 3 2124 2 182 248 c101 136 211 283 244 327 l61 81 575 -112
c1167 -228 1421 -273 2399 -423 1325 -203 1433 -217 2644 -336 987 -98 1104
-107 1705 -140 679 -36 1964 -70 3677 -96 l750 -12 137 33 c125 31 136 36 143
59 4 15 8 91 9 171 3 189 25 325 116 739 27 123 49 233 49 245 0 11 -54 111
-121 222 l-120 202 40 132 c29 95 41 150 41 195 l0 62 -221 36 -220 35 -262
-122 -262 -122 -355 72 c-195 39 -1025 208 -1845 374 -819 167 -1492 304
-1494 306 -8 7 56 85 74 89 11 2 142 18 290 35 149 17 855 102 1570 188 l1300
158 62 379 c34 209 65 430 69 491 l6 110 -323 12 c-178 7 -742 30 -1254 52
-511 22 -997 42 -1080 45 -131 6 -985 52 -4124 225 -404 22 -735 41 -736 43
-1 1 -46 232 -99 513 l-97 512 -25 568 -25 569 118 485 119 485 244 343 c134
188 248 342 254 342 6 0 197 -59 425 -130 228 -72 429 -130 447 -130 36 0 64
32 64 75 0 21 5 25 28 25 56 0 68 28 98 231 l28 185 423 55 424 54 24 80 c14
44 99 327 189 629 91 301 167 551 170 553 3 3 974 -4 2158 -16 1994 -20 8051
-60 9277 -61 l533 -1 383 626 c211 345 385 628 387 631 2 2 560 -26 1239 -61
898 -47 1577 -90 2496 -155 694 -50 1279 -90 1301 -90 l41 0 326 384 c290 341
330 385 358 388 29 3 34 8 52 61 17 47 56 98 213 285 l193 227 640 214 639
213 14 33 c38 91 176 510 176 535 0 26 -4 29 -52 39 -29 6 -1081 218 -2337
470 -1256 252 -2286 464 -2290 470 -4 7 -2452 437 -5697 1001 l-5689 990
-2205 349 -2205 350 -1390 145 -1390 145 -1229 61 c-1151 57 -1230 62 -1245
80 -14 17 -45 21 -297 34 -270 15 -301 19 -860 110 -539 88 -593 95 -777 102
l-197 7 -52 64 c-29 35 -61 65 -72 68 -12 2 -122 6 -246 10 -209 5 -1169 37
-2550 85 -316 11 -647 22 -735 25 -88 3 -194 8 -236 11 l-76 5 -65 -70z
m10002 -9178 c0 -5 -11 -75 -24 -158 -23 -145 -23 -151 -6 -180 10 -16 15 -37
11 -46 -5 -13 -63 2 -393 105 -353 110 -409 132 -380 150 5 3 129 -33 277 -80
148 -46 279 -84 291 -84 45 0 74 58 92 179 13 97 17 110 36 114 38 8 96 7 96
0z m-8713 -8885 c499 -469 906 -855 903 -858 -2 -3 -58 -51 -123 -107 l-118
-101 -182 80 c-100 44 -193 84 -207 90 -15 5 -225 252 -517 606 -271 328 -594
720 -718 870 l-225 272 139 0 139 0 909 -852z"/>
</g>
</svg>
