<?xml version="1.0" standalone="no"?>
<!DOCTYPE svg PUBLIC "-//W3C//DTD SVG 20010904//EN"
 "http://www.w3.org/TR/2001/REC-SVG-20010904/DTD/svg10.dtd">
<svg version="1.0" xmlns="http://www.w3.org/2000/svg"
   viewBox="0 0 4020.000000 1596.000000"
 preserveAspectRatio="xMidYMid meet">
<metadata>
Created by potrace 1.16, written by Peter Selinger 2001-2019
</metadata>
<g transform="translate(0.000000,1596.000000) scale(0.100000,-0.100000)"
fill="#000000" stroke="none">
<path d="M14170 15949 l-715 -7 -797 -56 -797 -56 -818 -126 -818 -126 -805
-223 -805 -223 -704 -308 -704 -309 -176 -195 c-237 -263 -730 -798 -742 -806
-5 -3 -306 -90 -669 -194 l-658 -188 -714 -277 c-527 -204 -855 -339 -1258
-516 l-545 -239 -1219 -385 c-670 -212 -1220 -385 -1223 -385 -17 0 429 -539
451 -546 11 -3 44 -28 71 -54 28 -26 92 -80 142 -119 l93 -72 917 90 918 90
355 -28 c280 -23 333 -29 249 -30 l-105 -1 -84 -124 -84 -123 -223 -154 -223
-153 0 -332 0 -332 -85 -7 -85 -7 2 -831 c3 -730 5 -832 18 -834 8 -1 45 -5
83 -8 l67 -7 0 -629 0 -629 224 -112 225 -112 65 -117 66 -117 100 -18 c55
-10 100 -21 100 -24 0 -3 -20 -28 -44 -55 l-43 -50 4 -85 5 -85 -186 -134
-186 -134 0 -1178 0 -1178 193 -139 192 -139 3 -316 c1 -174 4 -317 5 -317 2
0 1428 -209 3168 -465 1740 -255 3531 -516 3979 -579 723 -102 1836 -256 1853
-256 4 0 7 -23 7 -52 l0 -51 384 6 383 7 271 95 271 95 1354 0 1354 0 314 -76
314 -75 685 -70 c377 -38 704 -69 726 -69 23 0 422 105 910 239 478 132 1161
319 1518 416 l648 177 1688 954 c1620 915 1699 961 1959 1139 l272 186 547 9
c348 6 805 22 1257 44 l710 34 60 -52 c33 -29 187 -163 341 -298 l282 -246 83
-6 c46 -3 332 -10 634 -16 l550 -11 540 144 540 145 975 57 975 57 880 -73
880 -72 556 -357 556 -358 622 25 622 25 307 -180 c169 -98 308 -178 310 -177
1 1 27 86 57 190 30 103 56 190 58 192 4 3 430 23 433 20 1 -1 388 -652 858
-1447 471 -795 860 -1446 864 -1447 4 -2 78 259 165 580 l157 582 60 435 c33
239 60 451 60 470 0 19 -37 285 -81 590 l-82 555 -117 340 -118 340 -181 304
c-100 167 -180 305 -178 307 2 2 50 20 107 40 58 20 111 39 118 43 8 5 -180
326 -623 1061 l-635 1055 -742 849 -743 849 -675 597 -675 596 -759 529 -759
528 -751 424 -751 424 -825 388 -825 388 -950 286 -950 286 -1319 272 -1319
271 -631 310 c-786 386 -1978 961 -2151 1038 l-130 58 -205 26 c-367 47 -1744
141 -2920 201 -1064 54 -4433 215 -4491 215 l-29 0 0 218 c0 119 -3 281 -7
360 l-6 142 -456 -2 c-251 -1 -778 -5 -1171 -9z"/>
</g>
</svg>
