<?xml version="1.0" standalone="no"?>
<!DOCTYPE svg PUBLIC "-//W3C//DTD SVG 20010904//EN"
 "http://www.w3.org/TR/2001/REC-SVG-20010904/DTD/svg10.dtd">
<svg version="1.0" xmlns="http://www.w3.org/2000/svg"
   viewBox="0 0 1256.000000 459.000000"
 preserveAspectRatio="xMidYMid meet">
<metadata>
Created by potrace 1.16, written by Peter Selinger 2001-2019
</metadata>
<g transform="translate(0.000000,459.000000) scale(0.100000,-0.100000)"
fill="#000000" stroke="none">
<path d="M4376 4477 c-274 -106 -290 -114 -299 -142 -13 -40 -12 -40 -47 -15
-36 26 -25 31 -151 -82 l-87 -78 -56 46 -57 46 -27 -18 c-15 -10 -72 -51 -127
-91 l-99 -73 -46 45 -46 46 -123 -101 c-67 -55 -125 -100 -129 -100 -3 0 -25
19 -49 42 l-42 42 -23 -20 c-13 -10 -64 -56 -114 -101 l-90 -82 -46 46 -46 46
-126 -103 c-70 -57 -128 -101 -129 -99 -2 2 -16 21 -31 42 -16 20 -32 37 -37
37 -5 0 -58 -35 -117 -78 -59 -43 -113 -82 -120 -86 -9 -5 -25 3 -47 24 l-34
33 -34 -29 c-19 -16 -96 -82 -171 -148 l-137 -119 -44 32 c-24 17 -48 31 -53
31 -11 0 -1584 -560 -1591 -566 -2 -2 3 -12 11 -21 9 -10 23 -32 31 -49 15
-30 15 -33 -4 -50 -20 -18 -19 -18 51 -46 39 -15 161 -51 273 -79 299 -76 364
-78 1795 -79 l1163 0 172 -25 c95 -14 182 -28 194 -30 16 -4 35 -30 65 -88
l43 -82 440 -31 440 -32 153 -83 c149 -81 155 -85 240 -181 73 -84 92 -113
121 -186 l34 -86 -29 -53 c-46 -86 -169 -195 -319 -282 l-129 -76 -89 -123
-89 -123 68 -148 68 -149 145 -78 c80 -43 260 -156 400 -251 l254 -173 176
-55 c97 -31 195 -62 218 -70 38 -12 58 -11 235 21 181 32 203 38 358 104 l165
69 270 11 c257 10 294 9 755 -20 267 -16 509 -33 538 -36 52 -5 52 -6 52 -40
0 -24 4 -34 16 -34 9 0 288 -29 621 -65 333 -36 613 -65 624 -65 14 0 19 -7
19 -26 0 -25 2 -26 38 -21 169 27 398 14 861 -48 243 -33 332 -32 542 6 94 16
270 45 391 64 l221 34 17 -22 18 -22 84 23 c180 48 736 192 786 203 28 6 52
16 52 23 0 9 -90 15 -367 24 -321 9 -377 13 -438 31 -87 26 -123 26 -149 2
-20 -19 -30 -19 -201 -10 -99 5 -277 20 -395 34 -118 13 -257 29 -308 34 -51
6 -273 15 -495 21 -337 10 -417 15 -497 32 -52 11 -101 23 -107 25 -7 3 -13 0
-13 -7 0 -42 -13 -39 -635 122 -455 118 -614 156 -627 149 -13 -8 -129 39
-525 215 l-508 226 -253 160 c-230 146 -260 169 -323 239 -37 43 -71 89 -73
101 -17 74 -26 150 -26 208 0 63 2 69 45 127 l46 62 69 -24 70 -24 112 38
c141 47 212 83 260 129 21 20 39 34 41 31 3 -2 13 -31 24 -64 l20 -60 74 -3
c41 -1 88 -9 104 -17 17 -8 113 -28 215 -46 108 -18 201 -40 224 -51 28 -14
45 -17 55 -11 12 7 108 -48 401 -228 l385 -238 83 -105 c65 -82 89 -106 108
-106 13 0 24 -4 24 -10 0 -5 9 -10 20 -10 16 0 20 -7 20 -33 0 -24 8 -41 30
-62 16 -15 27 -31 25 -36 -3 -4 5 -33 17 -64 27 -70 26 -70 216 -101 41 -6 41
-23 -3 -52 -31 -20 -35 -27 -35 -66 l0 -44 68 -9 c84 -10 258 -10 335 1 l57 7
0 48 c0 35 -5 53 -20 66 -29 27 -25 45 10 45 25 0 30 4 30 25 0 22 4 25 38 25
32 0 45 7 81 44 l44 44 -23 36 c-18 30 -19 36 -6 36 9 0 45 15 82 33 l66 32
-6 190 c-3 105 -9 252 -12 329 -6 130 -5 141 17 187 14 30 36 58 56 70 l33 21
0 333 0 333 -159 114 -160 113 -56 136 -56 135 -170 195 c-94 107 -211 235
-259 284 l-88 90 -36 116 c-41 131 -42 139 -20 139 9 0 38 16 63 35 l47 34
180 5 c98 3 265 9 369 13 l190 8 -160 9 c-88 4 -178 14 -200 22 -22 7 -116 19
-209 25 l-169 12 -81 49 c-45 27 -88 53 -96 58 -8 5 -343 34 -744 65 -728 56
-728 56 -920 45 -105 -7 -195 -16 -200 -21 -6 -5 -176 -9 -388 -9 -365 0 -378
1 -378 19 0 23 13 21 -415 61 -316 29 -324 30 -620 19 -276 -10 -314 -13 -474
-45 -95 -18 -177 -32 -180 -29 -4 2 -16 31 -26 65 -10 33 -23 60 -29 60 -6 -1
-141 -51 -300 -113z m4854 -3172 l44 -45 -71 0 c-53 0 -74 4 -84 16 -11 14
-10 18 6 30 10 8 22 14 27 14 4 0 8 7 8 15 0 27 25 16 70 -30z"/>
</g>
</svg>
