<?xml version="1.0" standalone="no"?>
<!DOCTYPE svg PUBLIC "-//W3C//DTD SVG 20010904//EN"
 "http://www.w3.org/TR/2001/REC-SVG-20010904/DTD/svg10.dtd">
<svg version="1.0" xmlns="http://www.w3.org/2000/svg"
   viewBox="0 0 3287.000000 1731.000000"
 preserveAspectRatio="xMidYMid meet">
<metadata>
Created by potrace 1.16, written by Peter Selinger 2001-2019
</metadata>
<g transform="translate(0.000000,1731.000000) scale(0.100000,-0.100000)"
fill="#000000" stroke="none">
<path d="M7912 17221 c-634 -49 -1415 -103 -1735 -121 l-582 -32 -755 -99
-755 -99 -535 -110 c-453 -94 -614 -132 -1052 -250 l-518 -140 -692 -332 -693
-332 -110 -6 c-111 -5 -111 -5 -216 -60 l-106 -54 -78 -271 c-43 -148 -80
-277 -82 -286 -4 -14 22 -22 159 -48 125 -24 293 -50 336 -51 1 0 2 -192 2
-428 l0 -427 139 -39 138 -39 68 -78 c51 -60 74 -80 98 -84 204 -33 2268 -265
3077 -345 l1025 -101 304 -106 304 -106 343 9 344 9 47 47 48 47 184 -150 183
-151 267 -58 c146 -32 390 -84 541 -116 l275 -57 209 -202 208 -201 577 -78
577 -77 295 77 294 77 260 -27 260 -26 50 55 50 56 515 31 515 31 163 156
c131 125 171 157 205 167 135 37 139 38 175 82 l36 44 65 -7 c47 -4 176 -45
447 -141 l382 -135 233 27 234 27 369 -11 c307 -9 371 -13 385 -26 10 -9 285
-77 672 -166 l654 -151 220 2 220 2 435 -142 c609 -198 830 -274 1017 -348
232 -92 221 -90 532 -64 144 13 264 21 265 19 2 -1 17 -43 33 -93 l30 -90 -37
-195 c-31 -165 -52 -240 -135 -483 l-97 -288 -111 -99 c-82 -74 -116 -98 -132
-95 -117 27 -700 124 -705 118 -4 -4 -23 -46 -42 -93 -20 -47 -73 -172 -118
-278 -45 -107 -78 -197 -74 -201 12 -10 314 -187 694 -406 173 -100 436 -260
584 -354 148 -95 272 -168 275 -163 36 54 88 111 99 107 7 -2 131 -102 276
-222 l263 -217 -19 -100 -18 -100 22 -22 c13 -12 133 -117 267 -233 238 -208
281 -251 711 -725 5 -4 38 15 76 43 37 28 70 51 73 50 7 0 643 -844 655 -869
6 -13 -1 -32 -28 -71 -20 -30 -36 -57 -36 -62 0 -4 116 -235 258 -513 l257
-505 80 6 c44 4 84 8 88 9 5 0 84 -211 177 -470 l167 -471 71 -91 71 -90 54
-186 55 -186 -74 -52 c-50 -35 -73 -57 -70 -67 80 -278 144 -577 128 -592 -4
-4 -65 -26 -136 -49 -71 -24 -233 -87 -360 -140 -149 -63 -354 -137 -574 -209
l-344 -112 -154 -234 -154 -234 -33 6 c-17 3 -161 43 -320 88 l-288 82 -1012
-468 -1012 -468 -3 -64 c-2 -47 16 -161 68 -433 117 -612 150 -777 166 -824
l14 -45 500 39 c275 22 503 37 506 33 6 -6 -3 -91 -22 -197 l-6 -35 584 -93
583 -92 1205 -6 1205 -6 455 77 c250 42 457 79 459 81 2 1 -58 112 -133 245
-74 134 -134 244 -133 245 22 18 521 234 526 228 4 -5 52 -67 106 -139 163
-216 182 -236 213 -229 96 23 885 251 967 280 l100 35 182 -86 c100 -47 185
-85 188 -85 18 0 2574 874 2595 888 14 8 97 81 186 160 l161 145 220 76 220
76 348 380 c191 209 373 406 403 438 l55 59 201 -15 c111 -7 202 -13 204 -12
1 1 89 235 195 521 l192 519 135 47 c74 26 178 54 230 63 52 9 98 19 101 23 4
4 34 153 68 332 68 359 67 326 3 370 -18 13 -23 30 -32 109 -8 74 -15 97 -31
110 -20 16 -20 17 49 368 38 194 71 356 75 359 3 3 33 9 66 13 33 4 64 11 68
15 4 4 49 147 100 318 50 170 93 311 95 312 2 2 130 -2 286 -7 155 -6 285 -7
288 -4 8 8 37 268 30 274 -2 3 -89 17 -193 32 l-188 26 -6 95 c-4 52 -7 181
-8 286 l-1 191 128 6 c70 4 224 7 342 7 118 0 221 4 229 9 11 7 18 59 28 222
7 117 15 215 18 218 3 3 73 8 155 11 82 3 152 9 156 12 8 8 184 692 184 714 0
9 -81 157 -181 328 l-180 312 -264 151 -264 151 -424 332 -423 333 -427 196
-427 196 -786 764 -786 765 -986 659 c-950 635 -1026 683 -2027 1294 l-1040
635 -185 182 c-141 138 -203 193 -262 227 l-77 45 -172 -17 c-120 -12 -194
-14 -246 -8 -42 5 -77 10 -79 11 -3 3 -24 259 -24 295 0 21 -42 36 -611 224
l-612 202 -51 -57 -51 -57 -310 144 c-170 80 -359 167 -419 194 l-109 49 -146
-24 -146 -23 -810 227 -809 228 -157 94 -157 94 -153 34 c-84 19 -161 34 -171
34 -10 0 -54 -18 -98 -40 -44 -22 -90 -40 -104 -40 -13 0 -173 41 -355 90
-183 50 -334 90 -336 90 -3 0 -5 25 -5 55 0 30 -3 55 -6 55 -9 0 -726 150
-746 156 -12 4 -34 -24 -88 -111 -40 -63 -75 -117 -79 -119 -3 -2 -123 19
-267 48 l-260 52 -100 60 c-64 39 -107 72 -121 95 -12 19 -28 42 -35 52 -9 13
-59 29 -171 54 l-157 35 -75 -56 -74 -56 -613 60 c-537 52 -709 64 -1388 100
-1074 55 -2343 87 -3715 94 l-1040 5 -1153 -88z m4069 -2384 c13 -8 14 -15 7
-27 -10 -15 -17 -15 -84 -2 l-74 15 0 49 0 50 68 -38 c37 -20 74 -42 83 -47z
m-4822 -1232 l339 -44 249 -95 c175 -67 281 -101 361 -117 l113 -22 -53 -29
c-29 -16 -88 -47 -131 -69 l-77 -39 -163 10 c-435 27 -486 32 -664 67 l-182
36 -108 90 c-59 49 -121 100 -137 114 l-29 24 59 60 c32 32 64 59 71 59 7 0
165 -20 352 -45z m6026 -529 c86 -5 220 -29 622 -114 282 -59 509 -110 505
-114 -14 -13 -122 -14 -392 -5 l-275 9 -252 68 c-253 69 -282 81 -338 140
l-30 32 25 -6 c14 -2 75 -7 135 -10z m-1627 -57 c22 -7 43 -29 67 -67 l36 -57
-48 -43 c-26 -23 -57 -45 -68 -47 -11 -3 -82 -4 -159 -3 l-139 3 124 112 c68
61 131 112 140 112 9 1 30 -4 47 -10z m-738 -194 l115 -23 -127 -1 -127 -1
-16 30 -15 30 27 -6 c16 -3 80 -16 143 -29z m8845 -1457 c83 -47 223 -124 311
-173 132 -72 230 -139 535 -365 l374 -276 179 -298 178 -298 -175 -177 c-96
-97 -268 -286 -382 -421 -114 -135 -212 -250 -219 -257 -9 -10 -27 -8 -86 7
l-75 20 -146 -66 -146 -66 -117 78 -116 77 -125 -18 c-82 -12 -129 -15 -137
-8 -7 5 -144 110 -305 232 -161 122 -295 226 -298 231 -3 4 22 68 55 141 33
72 60 137 60 143 0 6 -45 69 -101 140 l-101 128 12 172 13 171 93 258 c52 142
108 306 125 365 16 59 39 137 50 175 l20 67 147 74 147 74 40 -23 c22 -13 108
-61 190 -107z m2306 -2377 l197 -319 -252 -239 c-208 -197 -251 -242 -249
-263 1 -14 21 -156 44 -316 l42 -291 299 -168 c165 -93 308 -179 318 -193 19
-24 19 -24 -13 -64 -17 -22 -75 -68 -128 -103 l-95 -62 -120 -6 -119 -6 -191
81 -191 80 -379 400 c-209 220 -390 414 -403 430 l-23 29 41 70 40 71 -134
171 c-74 95 -135 175 -135 178 0 4 37 39 83 78 l84 72 -5 77 -4 77 361 159
c285 126 399 182 543 268 101 59 185 108 188 108 3 0 93 -144 201 -319z m1174
-2351 c193 -44 432 -103 533 -130 101 -28 193 -50 205 -50 22 0 23 -8 55 -267
19 -148 58 -457 88 -688 29 -231 54 -427 54 -436 0 -10 -61 -62 -145 -125
l-145 -109 4 -40 c3 -22 8 -79 12 -127 l6 -86 -307 -334 -306 -333 -147 -8
c-80 -4 -151 -6 -157 -3 -6 2 -42 75 -80 161 l-70 158 -68 51 -68 51 -29 95
c-16 52 -39 130 -52 173 l-22 77 26 132 26 132 -229 478 c-126 262 -229 480
-229 485 0 4 21 28 46 54 l46 47 18 149 17 149 81 105 c79 101 84 106 209 180
159 95 255 146 268 142 6 -1 168 -38 360 -83z"/>
</g>
</svg>
