<?xml version="1.0" standalone="no"?>
<!DOCTYPE svg PUBLIC "-//W3C//DTD SVG 20010904//EN"
 "http://www.w3.org/TR/2001/REC-SVG-20010904/DTD/svg10.dtd">
<svg version="1.0" xmlns="http://www.w3.org/2000/svg"
   viewBox="0 0 4632.000000 3381.000000"
 preserveAspectRatio="xMidYMid meet">
<metadata>
Created by potrace 1.16, written by Peter Selinger 2001-2019
</metadata>
<g transform="translate(0.000000,3381.000000) scale(0.100000,-0.100000)"
fill="#000000" stroke="none">
<path d="M5534 33723 l-249 -83 -43 -66 -43 -65 -16 -314 -17 -314 -85 -62
c-48 -35 -87 -63 -88 -64 -5 -2 -43 -565 -43 -638 0 -45 -4 -87 -8 -94 -4 -7
-621 -85 -1642 -207 -899 -108 -1651 -201 -1670 -206 -19 -6 -54 -27 -76 -48
-40 -36 -46 -49 -214 -530 -121 -346 -171 -502 -167 -520 3 -15 14 -47 25 -72
l19 -45 465 -255 c382 -209 464 -257 460 -272 -2 -10 -6 -18 -9 -18 -6 0
-1288 -291 -1289 -293 -1 -1 -36 -74 -77 -162 l-75 -160 -192 -925 c-106 -509
-197 -950 -204 -980 -14 -61 -24 -67 -108 -69 l-48 -1 0 -52 c0 -29 -16 -314
-35 -633 -49 -833 -65 -1400 -58 -2080 l5 -560 23 -31 23 -31 -47 -89 -48 -89
9 -165 c6 -91 14 -168 19 -171 5 -3 92 -18 192 -33 100 -15 183 -29 184 -30 1
-1 -43 -26 -97 -55 -114 -62 -99 -24 -130 -318 -19 -176 -25 -205 -75 -361
l-55 -170 14 -192 14 -192 50 -50 50 -50 443 -90 444 -90 125 12 c69 6 133 14
143 16 16 5 17 -18 17 -375 l0 -381 635 0 635 0 2 -277 3 -277 268 -198 268
-198 449 0 450 0 0 -209 0 -209 130 -32 130 -32 0 -94 0 -94 205 0 205 0 0 95
0 95 1150 0 1150 0 0 240 c0 207 2 240 15 240 13 0 15 -44 15 -335 l0 -335
190 0 190 0 0 95 0 95 33 0 c64 0 1935 60 2053 66 l121 6 52 69 51 69 253 0
c138 0 2138 16 4442 35 2305 19 4324 35 4488 35 l297 0 0 64 0 63 -537 7
c-296 3 -2264 20 -4373 36 -2109 17 -4001 33 -4205 36 l-370 6 -52 68 -52 67
-268 8 c-147 4 -329 10 -403 14 l-135 6 153 112 152 113 0 190 0 190 123 0
124 0 234 103 234 104 3 431 2 432 5278 0 5279 0 62 -307 c35 -170 69 -338 78
-375 l15 -68 2259 0 2259 0 0 -293 0 -292 -182 -70 -183 -70 -5 -280 -5 -280
-380 -32 c-209 -17 -386 -32 -392 -32 -10 -1 -14 -238 -15 -1143 -2 -632 -4
-867 -5 -525 -2 446 -6 617 -14 617 -6 0 -228 -32 -493 -70 l-481 -70 -463
-132 -463 -131 -24 -46 -23 -46 -313 -17 -314 -16 -419 -103 -419 -103 -41
-44 -41 -45 -1 -891 0 -891 45 -46 46 -47 415 -101 415 -100 277 -16 c153 -8
294 -15 313 -15 31 0 37 -5 58 -47 l24 -46 444 -128 444 -128 508 -76 c279
-41 510 -75 512 -75 3 0 6 291 8 648 2 647 2 647 5 -184 l2 -832 63 -6 c34 -3
755 -60 1602 -126 l1540 -121 185 -184 185 -185 1778 0 1777 0 0 -159 c0 -157
0 -159 23 -164 12 -3 516 -83 1119 -179 l1098 -173 2 -409 3 -409 124 -46 124
-45 -7 -175 c-4 -97 -8 -177 -10 -178 -1 -2 -239 -28 -527 -59 l-524 -55 -370
-116 c-203 -63 -377 -119 -385 -123 -9 -5 -31 -46 -50 -92 -19 -46 -39 -86
-44 -90 -6 -4 -133 -49 -282 -100 l-272 -93 -27 -121 -27 -121 -455 -174 -455
-173 -519 -363 -519 -363 -537 0 -538 -1 -337 -286 -338 -286 1 -421 0 -421
515 -362 516 -363 571 0 572 0 43 -79 42 -79 -62 -11 c-43 -7 -70 -19 -90 -37
l-28 -27 -907 -29 c-840 -27 -909 -31 -928 -48 -19 -17 -73 -18 -1065 -24
-1859 -11 -2330 -17 -2330 -31 0 -17 427 -23 2078 -31 1254 -6 1303 -7 1316
-25 12 -18 61 -20 822 -44 1039 -32 1007 -30 1045 -63 28 -23 79 -34 607 -126
l577 -100 1099 -6 1100 -5 167 -994 c92 -546 171 -996 174 -1000 4 -3 90 -38
193 -76 l187 -71 3 -386 2 -385 380 -224 380 -224 0 -367 0 -368 -120 0 -120
0 0 -138 0 -139 -427 -6 c-1111 -18 -1133 -18 -1133 -39 0 -16 10 -18 113 -19
61 -1 411 -6 777 -13 l665 -11 3 -25 c3 -24 10 -27 120 -51 l117 -25 3 -312 2
-312 -120 0 -120 0 0 -184 0 -184 -232 -6 c-128 -3 -388 -8 -578 -11 -190 -3
-436 -8 -547 -11 -190 -6 -203 -7 -203 -25 0 -15 7 -19 38 -19 20 0 387 -7
815 -15 l777 -15 85 -48 c46 -26 85 -52 85 -57 0 -6 53 -63 118 -128 l117
-117 778 0 777 0 0 -625 0 -624 87 -96 c47 -52 89 -95 92 -95 4 0 68 62 142
137 130 131 171 184 804 1047 l667 909 603 1081 603 1081 132 54 132 54 525
1050 525 1050 435 1131 c239 622 437 1138 440 1147 2 9 -69 141 -162 298
l-166 282 101 457 c55 251 100 461 100 466 0 5 128 7 303 4 l302 -6 270 131
c149 72 274 134 279 138 4 4 29 105 55 224 l47 216 89 41 c50 22 91 41 93 43
1 1 82 379 180 839 l178 837 114 65 115 65 48 217 c37 173 61 331 118 776 39
307 67 562 62 566 -4 4 -79 45 -165 90 -87 45 -158 85 -158 88 0 4 11 92 24
196 16 126 29 192 38 197 7 4 101 59 208 121 l195 113 77 605 c50 393 81 671
87 794 6 104 12 190 13 191 2 1 389 -20 862 -47 l858 -48 74 62 c41 34 74 66
74 71 0 5 65 521 145 1147 80 626 145 1144 145 1152 0 7 -41 36 -90 63 l-91
50 6 35 c2 19 12 94 20 165 24 198 9 178 123 170 95 -6 98 -6 153 24 l56 31 6
122 c4 68 10 220 13 339 l7 217 63 37 c35 20 67 42 71 48 5 9 91 2092 93 2253
0 39 -2 42 -49 63 l-48 23 -7 121 c-3 66 -6 182 -6 258 l0 139 -62 31 -63 32
-655 28 c-360 16 -680 28 -710 29 l-55 1 -95 131 c-52 73 -96 137 -98 143 -2
7 61 20 173 35 96 13 175 26 175 30 0 6 -323 376 -368 422 -25 24 -38 28 -148
39 l-121 12 -107 144 c-58 79 -106 147 -106 151 0 4 39 22 86 41 47 19 87 38
89 41 2 4 -118 94 -267 201 l-272 194 -2698 1136 -2698 1135 -73 119 -74 118
-2923 1113 -2923 1113 -2134 616 -2134 615 -63 68 c-35 37 -72 77 -82 90 -16
18 -401 134 -2079 626 l-2060 603 -2425 537 c-1334 295 -2430 536 -2435 536
-6 0 -48 -45 -92 -99 l-82 -99 -138 29 c-76 16 -148 31 -160 34 -16 4 -28 24
-49 77 -15 40 -29 75 -30 77 -2 1 -47 14 -101 27 l-98 24 -57 -61 -58 -62
-187 39 -187 39 -28 70 c-16 38 -33 74 -37 78 -5 5 -51 18 -102 29 l-92 21
-58 -60 -57 -59 -128 27 c-71 15 -154 32 -185 39 l-57 11 -13 71 -14 72 -95
23 c-52 12 -98 22 -101 23 -3 0 -20 -19 -37 -42 -66 -89 -41 -83 -208 -48
-120 26 -152 30 -168 20 -10 -7 -109 -88 -220 -180 l-201 -168 -225 49 c-123
27 -231 49 -240 49 -11 0 -70 -87 -164 -239 l-148 -239 -166 -6 c-375 -15
-201 -30 -4707 403 -2354 226 -4292 412 -4306 414 -14 2 -138 -34 -275 -80z"/>
</g>
</svg>
