<?xml version="1.0" standalone="no"?>
<!DOCTYPE svg PUBLIC "-//W3C//DTD SVG 20010904//EN"
 "http://www.w3.org/TR/2001/REC-SVG-20010904/DTD/svg10.dtd">
<svg version="1.0" xmlns="http://www.w3.org/2000/svg"
   viewBox="0 0 4448.000000 2152.000000"
 preserveAspectRatio="xMidYMid meet">
<metadata>
Created by potrace 1.16, written by Peter Selinger 2001-2019
</metadata>
<g transform="translate(0.000000,2152.000000) scale(0.100000,-0.100000)"
fill="#000000" stroke="none">
<path d="M33280 21405 c-96 -98 -118 -115 -144 -115 -26 0 -35 7 -59 46 -24
40 -31 45 -55 40 -30 -7 -999 -146 -1012 -146 -5 0 -14 -27 -21 -60 -6 -33
-12 -60 -13 -61 -3 -1 -1698 -28 -1823 -29 l-142 0 -23 76 -22 77 -265 -7
c-146 -3 -487 -9 -758 -12 l-491 -7 -17 -43 c-15 -40 -20 -43 -58 -48 -23 -3
-302 -8 -621 -12 l-578 -6 -132 -53 -131 -53 -335 -6 -335 -6 -202 135 -203
135 -437 -15 c-311 -11 -592 -28 -968 -59 -291 -24 -531 -42 -533 -41 -1 1 2
15 8 30 6 15 8 30 6 32 -3 3 -202 -22 -443 -56 -365 -51 -484 -64 -716 -76
l-279 -14 -65 -47 -66 -47 -376 -8 c-207 -5 -452 -13 -546 -18 -259 -15 -524
-23 -536 -15 -6 4 -120 6 -253 5 -187 -1 -243 -5 -251 -15 -8 -10 -73 -15
-275 -21 -235 -6 -274 -9 -341 -30 l-77 -23 -48 49 c-27 27 -54 49 -62 49 -31
0 -1227 -274 -1337 -306 -66 -19 -1209 -343 -2540 -718 l-2420 -683 -550 -249
-550 -250 -14 -40 -14 -41 77 -96 c56 -71 89 -125 122 -201 l46 -104 -158
-329 c-87 -180 -161 -332 -164 -336 -5 -5 -2971 -337 -3015 -337 -1 0 -46 58
-101 130 -54 71 -103 129 -109 130 -13 0 -3993 -588 -4020 -595 -14 -3 -53
-65 -126 -197 -59 -106 -113 -196 -120 -200 -13 -7 -4570 -1238 -4583 -1238
-15 0 44 -125 93 -195 31 -44 351 -503 713 -1019 l657 -939 102 -306 c215
-649 316 -903 427 -1084 62 -100 47 -89 304 -206 98 -44 171 -71 192 -71 32 0
38 -5 68 -58 32 -58 33 -59 153 -115 l122 -57 109 0 109 0 109 -283 c175 -454
226 -559 362 -747 63 -88 116 -160 117 -161 1 0 198 -6 437 -14 389 -12 439
-15 468 -32 l32 -18 0 -462 0 -462 53 -19 c28 -11 76 -28 104 -38 51 -18 53
-20 53 -54 0 -28 8 -43 33 -67 29 -28 87 -47 617 -197 367 -104 857 -253 1313
-400 401 -129 730 -236 733 -238 2 -3 7 -32 10 -66 6 -54 10 -62 28 -62 12 -1
340 -27 731 -59 l709 -58 131 104 c80 63 141 105 160 107 17 3 428 30 915 61
l885 55 888 0 887 0 0 -55 0 -55 230 0 230 0 0 -110 0 -110 1884 0 1884 0 12
-30 12 -30 137 0 136 0 178 -75 c218 -92 200 -82 327 -177 207 -154 346 -346
369 -513 7 -44 14 -92 17 -108 l6 -27 904 0 c596 0 904 -3 904 -10 0 -6 59
-10 158 -10 86 0 194 -3 240 -7 71 -5 82 -8 82 -24 0 -18 12 -19 218 -19 182
0 349 -11 1000 -65 430 -36 808 -66 840 -66 31 -1 -68 -11 -220 -23 -152 -11
-279 -24 -283 -28 -7 -7 28 -90 288 -683 l176 -400 28 -155 c24 -138 27 -179
28 -375 l0 -220 36 -3 35 -3 13 -87 c6 -48 16 -103 21 -122 l9 -35 876 -149
875 -150 151 43 c83 23 152 41 154 39 1 -2 61 -147 133 -323 155 -380 383
-883 477 -1050 54 -96 89 -143 174 -234 58 -63 139 -139 179 -169 40 -31 72
-62 72 -72 0 -9 -9 -42 -19 -72 l-19 -56 32 -13 33 -14 -25 -82 -25 -83 -38 6
c-37 6 -38 6 -44 -29 -6 -32 -11 -36 -47 -42 -55 -10 -79 -35 -69 -72 14 -48
50 -100 94 -135 37 -30 83 -46 387 -131 196 -55 453 -119 595 -148 248 -51
250 -52 280 -86 l30 -35 345 -59 c190 -32 351 -59 357 -59 9 0 10 -7 3 -25 -8
-22 0 -41 62 -141 l72 -117 203 7 c179 6 203 5 203 -9 0 -11 12 -15 50 -15 38
0 50 4 50 15 0 12 15 15 75 15 l75 0 0 -50 0 -50 122 0 c101 0 136 -4 204 -25
l81 -25 73 25 74 25 748 0 748 0 0 -25 0 -25 105 0 105 0 0 25 0 25 294 0 293
0 47 -36 c46 -35 46 -36 26 -52 -19 -17 -19 -18 41 -97 61 -80 70 -86 100 -59
14 12 24 4 86 -69 39 -45 92 -107 119 -138 l49 -55 160 -46 160 -45 52 18 53
18 172 -187 c125 -136 178 -186 192 -185 12 1 574 108 1249 237 l1229 236 266
126 c147 70 272 127 277 127 6 0 191 -89 411 -198 l402 -197 149 87 149 87
538 1418 c297 780 542 1423 546 1430 4 7 54 -8 151 -46 79 -31 193 -74 253
-95 105 -38 110 -39 126 -22 34 36 1203 1636 1225 1676 13 23 186 404 385 846
l362 805 148 770 149 771 40 557 41 557 105 691 106 690 151 393 c145 380 153
397 256 569 l107 177 193 1 192 0 0 50 c0 56 6 52 -110 70 -97 15 -98 14 -102
-22 -3 -33 -3 -33 -65 -36 -35 -2 -63 -1 -63 2 0 3 34 61 75 129 l76 124 592
6 c325 4 764 10 975 14 l382 6 0 52 0 52 -117 12 c-65 6 -137 14 -160 17 l-42
6 -7 -41 -7 -41 -66 0 c-251 1 -1475 21 -1478 24 -2 2 153 262 345 577 273
448 412 689 633 1099 288 535 438 840 786 1610 91 201 166 366 167 367 1 1 29
-4 61 -12 33 -7 60 -13 61 -12 21 26 517 813 523 829 4 13 59 258 121 544
l113 522 -73 418 -73 417 -175 237 -175 236 -1166 562 -1166 561 -1075 456
-1075 457 -960 188 -960 189 -1260 45 c-693 25 -1307 48 -1365 51 l-105 6 -59
-85 c-33 -47 -63 -86 -67 -86 -4 0 -23 9 -41 19 -72 42 -393 100 -838 152
-234 27 -432 49 -440 49 -9 0 -67 -52 -130 -115z"/>
</g>
</svg>
