<?xml version="1.0" standalone="no"?>
<!DOCTYPE svg PUBLIC "-//W3C//DTD SVG 20010904//EN"
 "http://www.w3.org/TR/2001/REC-SVG-20010904/DTD/svg10.dtd">
<svg version="1.0" xmlns="http://www.w3.org/2000/svg"
   viewBox="0 0 4015.000000 695.000000"
 preserveAspectRatio="xMidYMid meet">
<metadata>
Created by potrace 1.16, written by Peter Selinger 2001-2019
</metadata>
<g transform="translate(0.000000,695.000000) scale(0.100000,-0.100000)"
fill="#000000" stroke="none">
<path d="M3489 6931 c-59 -19 -201 -108 -234 -147 -20 -23 -42 -26 -735 -104
-393 -44 -726 -83 -739 -87 -19 -6 -28 -20 -40 -67 l-16 -59 -855 -228 c-470
-126 -856 -228 -856 -229 -1 0 -5 -41 -9 -91 -7 -87 -6 -94 30 -197 21 -59 43
-112 49 -118 6 -7 172 -24 401 -43 215 -18 416 -35 448 -38 l57 -6 0 -212 0
-212 -97 -7 c-54 -3 -135 -9 -180 -13 l-81 -6 -126 -233 -126 -233 0 -697 0
-697 76 -149 c41 -82 74 -151 72 -152 -2 -1 -14 -6 -26 -12 -18 -7 -35 -37
-68 -117 l-44 -108 0 -888 0 -889 41 -98 c22 -55 46 -104 52 -111 7 -7 57 -31
112 -53 79 -33 148 -50 330 -84 213 -41 250 -44 505 -55 151 -7 285 -14 297
-17 18 -3 23 0 23 16 0 20 4 20 878 20 l878 0 424 -256 424 -256 1456 181
c800 100 1467 184 1482 187 17 3 28 13 32 30 l6 24 3440 0 3440 0 0 -135 0
-135 325 0 c210 0 325 -4 325 -10 0 -7 162 -10 465 -10 303 0 465 3 465 10 0
7 562 10 1665 10 l1665 0 62 25 c125 50 406 69 1993 135 l1440 60 903 0 902 0
0 -90 0 -90 430 0 430 0 0 90 0 90 505 0 505 0 0 -90 0 -90 430 0 430 0 0 90
0 90 515 0 515 0 0 -90 0 -90 425 0 425 0 0 160 0 160 51 0 c43 0 50 -3 47
-17 -2 -13 -14 -19 -41 -21 -36 -3 -37 -4 -37 -43 l0 -39 825 0 825 0 0 30 0
30 -69 0 -70 0 10 30 11 30 432 0 c238 0 436 -4 442 -8 5 -5 69 -7 142 -4 103
3 132 7 132 18 0 10 -15 14 -59 14 -32 0 -73 3 -90 6 -27 6 -31 11 -31 39 l0
33 115 7 c88 6 115 11 115 21 0 11 -31 14 -164 14 -99 0 -167 -4 -171 -10 -4
-7 -418 -10 -1211 -10 -1064 0 -1204 2 -1204 15 0 12 16 15 84 15 80 0 89 2
158 40 59 32 83 40 126 40 37 0 54 4 58 15 5 13 80 15 578 17 332 0 535 4 486
9 -47 4 -300 7 -562 8 -262 1 -479 5 -482 9 -2 4 25 23 61 41 47 25 76 49 105
88 31 41 47 53 67 53 14 0 208 9 430 22 l405 21 119 81 118 81 -258 21 c-154
12 -238 22 -208 25 l49 4 141 221 140 222 158 126 c86 70 157 127 157 129 1 1
20 101 43 222 l43 220 89 11 c50 6 161 19 248 29 l157 18 0 28 0 29 -235 0
c-182 0 -235 3 -235 13 1 6 9 51 19 100 l18 87 -128 41 -129 41 0 174 0 174
83 0 84 0 334 146 c183 80 339 150 345 155 6 5 21 58 34 119 l23 110 310 0
310 0 495 -280 495 -280 167 0 166 0 53 -54 52 -53 1147 -7 c3451 -19 4066
-19 4546 -1 l459 17 81 52 c45 29 90 65 99 80 18 27 18 27 -25 96 -41 68 -59
82 -756 622 l-713 553 -489 206 c-269 114 -581 242 -692 284 -112 43 -552 217
-978 387 l-775 310 -990 310 -990 310 -635 113 -635 114 -2025 35 c-2005 35
-2043 35 -3805 29 l-1780 -6 -162 -59 -162 -59 -127 3 -127 3 -86 142 -86 142
-2017 1 -2016 0 -480 -255 -479 -256 -149 16 c-82 8 -295 26 -474 40 l-325 24
-557 120 c-774 167 -727 160 -984 142 l-211 -15 -33 -63 -33 -64 -81 3 -81 3
-5 295 -5 295 -1015 0 -1015 0 -3 -72 -3 -73 -54 0 -55 0 0 59 c0 33 -3 66 -6
75 -6 14 -102 16 -994 16 -892 0 -988 -2 -994 -16 -3 -9 -6 -42 -6 -75 l0 -59
-55 0 -54 0 -3 73 -3 72 -991 3 -992 2 -6 -22 c-3 -13 -6 -47 -6 -75 l0 -53
-55 0 -54 0 -3 73 -3 72 -990 0 -990 0 -3 -72 -3 -73 -54 0 -55 0 0 53 c0 28
-3 62 -6 75 l-6 22 -988 0 c-892 0 -988 -2 -994 -16 -3 -9 -6 -42 -6 -75 l0
-59 -55 0 -55 0 0 59 c0 33 -3 66 -6 75 -6 14 -104 16 -1023 15 -938 -1 -1020
-2 -1072 -18z m26651 -6425 c0 -3 -4 -16 -10 -30 l-10 -26 -284 0 -285 0 10
30 11 30 284 0 c156 0 284 -2 284 -4z"/>
</g>
</svg>
