<?xml version="1.0" standalone="no"?>
<!DOCTYPE svg PUBLIC "-//W3C//DTD SVG 20010904//EN"
 "http://www.w3.org/TR/2001/REC-SVG-20010904/DTD/svg10.dtd">
<svg version="1.0" xmlns="http://www.w3.org/2000/svg"
   viewBox="0 0 4563.000000 2097.000000"
 preserveAspectRatio="xMidYMid meet">
<metadata>
Created by potrace 1.16, written by Peter Selinger 2001-2019
</metadata>
<g transform="translate(0.000000,2097.000000) scale(0.100000,-0.100000)"
fill="#000000" stroke="none">
<path d="M17570 20815 l-785 -152 -780 -295 -780 -296 -1554 -501 c-864 -279
-1583 -506 -1620 -511 -36 -5 -100 -10 -143 -10 -42 0 -78 -4 -80 -9 -2 -5
-1036 -140 -2299 -299 l-2296 -289 -836 -569 -836 -569 -1 -346 0 -347 -132
-6 c-73 -3 -833 -8 -1688 -11 -855 -3 -2047 -8 -2648 -12 l-1092 -6 0 -287 0
-287 46 -7 c26 -3 302 -6 613 -6 311 0 784 -3 1051 -7 l485 -6 87 -106 87
-106 -107 -6 c-59 -4 -307 -7 -552 -8 -245 -1 -475 -4 -513 -8 l-67 -6 0
-1998 0 -1997 63 -6 c34 -3 971 -35 2082 -71 1111 -36 2080 -68 2153 -72 l132
-6 0 -337 0 -338 398 -383 c218 -211 449 -434 513 -497 l117 -114 1623 -76
1624 -77 3 -926 2 -926 1204 -366 1204 -367 2334 0 2335 0 7 -267 c3 -148 9
-357 12 -465 l7 -198 341 0 c1291 -1 6581 -31 6587 -37 4 -4 365 -630 801
-1390 l793 -1381 1090 -844 c600 -465 1601 -1241 2225 -1726 l1134 -882 1957
0 1956 0 72 80 73 80 51 0 c43 0 63 7 112 38 l60 38 1005 -7 c553 -4 1302 -8
1665 -10 l660 -4 8 40 9 41 726 28 c400 16 728 29 729 30 2 2 -1400 57 -1434
56 -17 0 -23 8 -28 41 l-7 42 -1327 -7 c-729 -3 -1479 -9 -1666 -12 -288 -4
-343 -3 -358 9 -17 14 12 68 451 853 389 696 518 937 756 1411 157 315 286
579 286 586 0 7 -117 316 -261 687 -143 371 -263 682 -266 690 -3 8 287 -424
644 -960 623 -936 657 -989 843 -1327 l195 -352 247 -1 247 0 -6 168 -6 169
494 6 c272 4 901 10 1399 14 498 4 883 10 855 14 -27 4 -615 12 -1305 18 -690
6 -1297 14 -1347 17 l-93 6 0 44 0 44 698 0 c433 0 977 8 1436 20 668 18 749
18 847 4 l108 -15 472 51 c260 27 478 50 484 51 5 1 -207 25 -472 53 l-482 52
-108 -14 c-96 -13 -133 -13 -333 2 -187 14 -392 16 -1217 16 l-993 0 0 1814 0
1813 -200 44 c-109 24 -196 47 -192 50 4 3 77 25 162 48 85 24 179 49 208 57
l52 15 0 727 c0 400 -3 790 -6 867 l-7 141 -119 78 c-65 44 -117 80 -115 82 1
2 362 -62 800 -141 439 -80 808 -145 821 -145 45 0 1991 450 2035 471 l44 20
-94 55 c-52 31 -877 576 -1834 1212 -1537 1022 -1736 1157 -1707 1160 25 3
119 -42 471 -227 l439 -231 308 0 308 0 303 193 302 192 1 108 0 107 807 0
808 0 80 80 80 79 1220 -15 c1112 -13 1232 -16 1358 -34 76 -11 155 -20 175
-20 36 0 1304 146 1350 156 22 4 22 6 22 187 l0 183 -684 86 -685 85 -133 -24
c-133 -24 -137 -24 -1381 -40 l-1248 -16 -78 77 -77 77 -715 5 c-392 2 -756 7
-806 10 l-93 6 0 156 0 157 -343 79 -342 80 -77 60 -78 61 -1135 162 -1135
163 -217 -90 c-119 -50 -223 -90 -231 -90 -14 0 -2795 1050 -2887 1089 -22 10
-515 333 -1095 719 l-1055 701 -755 173 -755 173 -3 60 -3 60 -1302 219 c-716
120 -1312 223 -1324 227 -32 12 -48 24 -1316 967 -631 470 -1146 857 -1143
859 3 3 198 9 433 13 404 7 432 7 493 -12 l66 -19 632 51 c348 27 642 50 652
50 19 0 20 8 20 159 l0 159 -42 5 c-24 4 -318 28 -654 54 l-611 47 -60 -18
c-59 -18 -92 -18 -834 -6 l-772 12 -690 514 -691 514 -80 0 c-45 0 -650 -20
-1346 -45 -1240 -43 -1265 -44 -1295 -25 -28 17 -47 18 -251 13 l-220 -6 -460
671 c-252 370 -461 671 -464 671 -3 -1 -358 -70 -790 -154z m16635 -14255
c167 -40 165 -39 165 -56 0 -8 -2 -14 -5 -14 -6 0 -305 -70 -329 -77 -18 -5
-18 -1 -12 68 10 104 15 121 35 115 9 -3 75 -19 146 -36z m-183 -904 c1 -2
138 -38 302 -79 164 -42 300 -78 301 -79 36 -44 432 -654 427 -656 -5 -1 -276
64 -603 146 l-594 148 51 404 c28 223 55 432 59 465 8 57 10 49 31 -143 12
-112 24 -205 26 -206z"/>
</g>
</svg>
