<?xml version="1.0" standalone="no"?>
<!DOCTYPE svg PUBLIC "-//W3C//DTD SVG 20010904//EN"
 "http://www.w3.org/TR/2001/REC-SVG-20010904/DTD/svg10.dtd">
<svg version="1.0" xmlns="http://www.w3.org/2000/svg"
   viewBox="0 0 4083.000000 819.000000"
 preserveAspectRatio="xMidYMid meet">
<metadata>
Created by potrace 1.16, written by Peter Selinger 2001-2019
</metadata>
<g transform="translate(0.000000,819.000000) scale(0.100000,-0.100000)"
fill="#000000" stroke="none">
<path d="M24510 8143 l-42 -48 -151 -30 c-149 -30 -152 -31 -155 -58 -3 -23
-8 -27 -36 -27 -25 0 -35 6 -44 24 -7 16 -17 23 -29 20 -10 -2 -146 -26 -303
-54 -157 -28 -295 -52 -307 -55 -23 -5 -23 -8 -23 -150 l0 -145 165 0 165 0 0
-90 0 -90 -1559 0 -1558 0 -264 -109 c-217 -90 -265 -113 -267 -130 -3 -21 -7
-21 -299 -21 -282 0 -296 -1 -324 -21 -27 -19 -121 -29 -1094 -117 l-1065 -97
0 -167 c0 -91 -3 -173 -6 -182 -5 -14 -36 -16 -240 -16 -199 0 -235 -2 -240
-15 -9 -23 -499 -23 -508 0 -4 13 -37 15 -206 15 -169 0 -202 -2 -206 -15 -5
-13 -42 -15 -249 -15 -203 0 -245 2 -255 15 -10 12 -47 15 -210 15 -167 0
-199 -2 -204 -15 -5 -13 -42 -15 -251 -15 -209 0 -246 2 -251 15 -5 13 -37 15
-204 15 l-198 0 -64 -90 -63 -90 -1606 0 -1606 0 -11 -25 -12 -25 -2855 0
c-2574 0 -2859 -2 -2886 -16 -22 -11 -40 -36 -66 -90 l-35 -74 -265 0 -264 0
-138 -105 -137 -105 -333 0 c-212 0 -348 -4 -377 -11 -41 -11 -48 -17 -95 -95
l-50 -84 -195 0 -194 0 -76 130 -77 130 -432 0 c-237 0 -675 3 -972 7 l-540 6
-62 -81 -62 -82 -309 0 -310 0 0 -1365 0 -1365 160 0 160 0 0 -298 0 -298 113
-36 112 -37 818 -11 817 -12 140 47 140 48 0 59 0 59 33 -5 c17 -3 90 -7 162
-8 l130 -3 12 50 c6 28 19 84 28 126 l17 77 86 31 c76 27 95 30 152 24 l65 -6
93 -102 94 -102 1461 -208 c873 -124 1476 -214 1496 -224 l35 -15 -32 -13 -32
-13 0 -293 0 -293 44 -16 c35 -13 70 -15 190 -11 l146 6 0 -220 0 -221 40 -16
c35 -14 86 -15 472 -6 328 6 436 6 448 -3 8 -7 36 -29 61 -49 l45 -38 1345 0
c739 0 1624 -3 1967 -7 l622 -6 0 -119 0 -118 2929 0 2928 0 72 57 c63 50 71
60 71 90 l0 33 1258 0 1258 0 131 -95 c116 -84 136 -95 173 -95 30 0 41 -4 37
-12 -2 -7 -10 -30 -18 -50 l-13 -38 -538 0 -538 0 0 -200 0 -200 519 0 518 0
43 -117 c23 -65 45 -121 49 -125 18 -20 180 -58 246 -58 58 0 225 37 242 53 2
2 23 57 47 123 l44 119 240 3 240 2 20 -52 c11 -29 30 -82 42 -118 13 -36 26
-68 30 -72 3 -5 44 -19 90 -33 99 -29 200 -32 275 -10 28 9 67 20 87 25 33 9
39 16 58 68 11 31 32 87 46 125 l26 67 233 0 234 0 21 -57 c73 -199 69 -192
108 -203 20 -5 60 -16 87 -25 75 -22 176 -19 275 10 46 14 87 28 90 33 4 4 17
36 30 72 12 36 31 89 42 118 l19 52 368 0 367 0 30 -122 30 -123 497 -3 497
-2 0 -43 c0 -23 4 -47 8 -53 5 -8 292 -12 1050 -13 l1042 -1 0 30 0 30 -795 0
-795 0 0 25 c0 24 3 25 59 25 l59 0 92 100 93 100 988 0 989 0 0 45 0 45 -484
0 c-421 0 -485 2 -490 15 -5 13 -68 15 -485 15 -441 0 -480 1 -483 17 -2 13
-41 25 -168 54 -91 21 -182 38 -202 39 -37 0 -38 1 -38 39 0 45 14 40 -190 67
l-124 17 -66 52 c-36 29 -76 55 -89 57 -17 2 -28 15 -41 48 l-18 45 -150 3
-150 3 -18 -51 c-10 -27 -24 -50 -31 -50 -8 0 -44 23 -80 50 l-66 50 -308 0
-308 0 -17 -55 -18 -55 -289 2 -290 3 -20 52 -19 52 -72 3 -71 3 50 31 51 31
606 5 606 5 116 93 116 94 1 131 0 130 621 513 621 512 134 0 c120 0 138 2
160 20 23 18 41 20 152 20 l126 1 240 199 240 200 120 0 120 1 405 334 405
335 160 0 160 0 -3 -231 -3 -231 87 -149 c73 -127 89 -149 110 -149 16 0 24
-6 24 -17 0 -10 18 -198 40 -418 l39 -400 38 -32 c38 -33 38 -33 151 -33 l112
0 0 -100 0 -100 775 0 775 0 0 24 c0 22 5 23 77 30 42 3 113 6 158 6 45 0 105
7 133 15 50 15 52 17 52 50 0 54 -44 71 -208 80 l-132 8 34 33 c19 19 42 34
51 34 8 0 15 5 15 10 0 6 77 10 210 10 l210 0 0 29 c0 39 -10 41 -231 41 -167
0 -188 2 -202 18 -16 17 -14 43 18 363 19 189 35 345 35 347 0 1 10 2 23 2 19
0 38 26 110 151 l88 152 -3 228 -3 229 48 0 c36 0 57 6 81 25 l33 25 523 0
523 0 33 -25 c24 -19 45 -25 81 -25 l48 0 -3 -230 -3 -231 87 -150 c73 -127
90 -149 110 -149 13 0 24 -5 24 -10 0 -45 82 -815 88 -825 4 -7 21 -24 38 -39
30 -25 38 -26 143 -26 l111 0 0 -100 0 -100 780 0 780 0 0 24 c0 21 5 24 68
29 37 4 106 7 153 7 47 0 108 7 137 15 50 15 52 17 52 50 0 54 -44 71 -208 80
l-132 8 34 33 c19 19 42 34 51 34 8 0 15 5 15 10 0 6 78 10 215 10 l215 0 0
29 c0 38 -17 41 -245 41 -161 0 -184 2 -197 18 -15 15 -13 48 18 352 18 184
33 341 34 348 0 6 10 12 23 12 18 0 38 27 110 150 l88 151 -3 229 -3 230 615
2 615 3 3 48 3 47 950 0 949 0 0 80 0 80 330 0 330 0 0 34 c0 30 4 34 31 40
17 3 66 6 108 6 42 0 106 3 144 7 l67 6 0 32 0 32 -112 6 c-62 4 -141 7 -175
7 -58 0 -63 -2 -63 -22 0 -12 -2 -19 -5 -16 -3 3 -3 35 1 72 l7 66 52 0 c28 0
107 3 173 7 l122 6 0 32 c0 32 0 32 -61 39 -34 3 -92 6 -129 6 -37 0 -88 3
-114 6 l-46 7 0 520 c0 470 -2 522 -17 539 -15 17 -15 18 8 18 17 1 71 45 184
150 l160 149 160 0 160 0 35 -44 35 -45 127 0 128 0 0 65 0 65 50 0 c46 0 50
-2 50 -24 0 -22 3 -23 43 -19 23 3 186 19 361 37 209 21 321 37 324 44 2 7 25
12 55 12 29 0 96 3 150 7 l97 6 0 34 c0 19 -5 33 -12 33 -102 3 -283 22 -288
30 -5 8 -635 80 -707 80 -18 0 -23 -6 -23 -26 0 -25 -2 -26 -37 -20 -21 3 -44
6 -50 6 -9 0 -13 16 -13 45 l0 45 -711 0 -710 0 -199 45 -199 45 -1069 0
-1068 0 -398 95 c-381 91 -403 95 -511 95 l-112 0 -23 63 c-22 61 -30 72 -125
151 l-47 40 -301 33 c-269 29 -334 32 -587 33 -256 0 -317 -4 -592 -34 l-307
-33 -73 -62 c-66 -56 -75 -68 -99 -134 l-27 -72 -625 -3 -626 -2 -161 115
-160 115 -108 1 -107 1 -177 187 -178 188 -73 6 c-58 4 -90 13 -148 43 l-74
37 -232 5 -233 5 0 111 0 112 68 32 c58 27 82 32 180 38 61 3 112 10 112 15 0
5 268 9 630 9 l630 0 0 25 0 25 375 0 c356 0 378 -1 415 -20 37 -19 59 -20
330 -20 l290 0 0 65 0 65 176 0 c145 0 179 -3 188 -15 9 -12 50 -15 242 -16
l230 -2 72 43 72 42 0 52 c0 45 -3 53 -28 67 -15 9 -49 30 -77 47 -43 27 -75
35 -232 62 -99 16 -201 30 -224 30 -24 0 -280 27 -569 61 l-525 61 -211 -6
c-183 -4 -218 -8 -265 -26 -67 -27 -214 -26 -245 1 -16 14 -111 20 -664 44
l-645 28 -95 99 -95 98 -240 0 c-180 0 -244 3 -253 12 -10 10 -95 15 -320 19
-169 4 -308 7 -308 8 -1 0 -21 30 -44 66 l-42 65 -67 0 c-37 0 -72 5 -78 11
-6 6 -88 15 -184 20 -96 5 -184 14 -197 19 -14 6 -259 10 -632 10 -603 0 -610
0 -610 -20 0 -20 -7 -20 -299 -20 -291 0 -300 1 -306 20 -6 20 -15 20 -825 20
l-818 0 -42 -47z"/>
</g>
</svg>
