<?xml version="1.0" standalone="no"?>
<!DOCTYPE svg PUBLIC "-//W3C//DTD SVG 20010904//EN"
 "http://www.w3.org/TR/2001/REC-SVG-20010904/DTD/svg10.dtd">
<svg version="1.0" xmlns="http://www.w3.org/2000/svg"
   viewBox="0 0 3063.000000 1867.000000"
 preserveAspectRatio="xMidYMid meet">
<metadata>
Created by potrace 1.16, written by Peter Selinger 2001-2019
</metadata>
<g transform="translate(0.000000,1867.000000) scale(0.100000,-0.100000)"
fill="#000000" stroke="none">
<path d="M7881 18656 c2 -2 243 -99 534 -216 358 -143 798 -330 1353 -577
l823 -366 1241 -798 1242 -798 553 -497 c304 -274 551 -499 550 -501 -2 -1
-221 36 -488 83 -347 61 -1998 324 -2036 324 -2 0 -3 92 -3 205 l0 204 -32 5
c-18 3 -391 16 -828 31 -602 19 -952 25 -1442 25 l-648 0 0 -174 0 -175 -52
-5 c-119 -14 -1482 -115 -1487 -111 -2 3 -17 80 -32 171 -15 92 -31 169 -34
172 -10 10 -1156 -158 -1735 -254 l-565 -93 -885 -266 -885 -265 -803 -327
-802 -327 0 -59 c0 -51 2 -58 18 -53 9 3 380 109 824 235 768 220 850 241
1686 436 484 113 886 205 893 205 9 0 67 -126 161 -352 l146 -352 -316 -172
c-314 -171 -317 -173 -327 -149 -10 23 -14 21 -290 -145 l-280 -169 -14 47
c-7 26 -15 49 -16 50 -2 2 -142 -79 -312 -181 -253 -152 -410 -236 -880 -471
-476 -237 -573 -283 -573 -267 0 11 -4 22 -9 25 -5 3 -130 -79 -278 -183 -148
-103 -279 -194 -291 -202 -19 -12 -24 -11 -51 15 l-30 29 -77 -69 c-77 -69
-77 -69 -288 -145 -205 -75 -211 -76 -219 -56 -4 12 -10 23 -11 25 -7 6 -831
-469 -859 -496 -26 -25 -27 -29 -27 -138 0 -88 54 -652 64 -661 1 -1 535 11
1186 27 652 16 1222 30 1268 30 l82 0 0 -1095 0 -1095 150 0 150 0 0 -55 0
-55 180 0 180 0 0 30 c0 27 6 33 55 57 l54 27 3 59 3 59 115 -145 115 -146
242 -1 c137 0 244 -4 248 -9 4 -7 -420 -310 -482 -346 -1 0 -29 -122 -62 -269
l-60 -269 56 -111 c30 -61 77 -140 103 -176 26 -36 53 -76 60 -90 7 -14 67
-93 134 -177 l121 -152 600 -330 c599 -329 601 -330 1130 -564 435 -193 666
-288 1290 -527 l760 -293 680 -199 c589 -172 1932 -541 2375 -653 l145 -37
176 88 177 87 33 69 c31 64 35 69 59 63 14 -4 277 -74 585 -156 l560 -149 150
-149 150 -149 770 -89 770 -88 960 28 960 29 1755 173 c1015 100 1757 169
1761 164 3 -5 59 -189 124 -410 l118 -400 -148 -149 -148 -148 148 -1268 c125
-1078 155 -1314 201 -1569 30 -165 57 -311 60 -325 5 -20 17 -2 78 115 98 189
200 355 310 505 l93 125 323 1440 323 1440 12 397 c6 219 13 400 16 402 2 2
96 14 209 25 113 12 1578 206 3255 431 l3050 410 1397 267 c768 147 1396 268
1395 269 -1 0 -573 -12 -1272 -27 l-1270 -29 -3362 3 c-1849 1 -3364 4 -3366
7 -3 3 -71 520 -152 1150 l-147 1145 -354 945 -354 944 -325 621 -325 621
-418 596 -417 596 -1035 1063 -1034 1064 -648 530 -648 530 -1124 621 -1125
622 -1308 505 -1308 505 -811 261 c-785 252 -828 264 -1372 400 -552 138 -580
145 -571 137z m2504 -9972 c81 -55 98 -61 467 -175 l383 -118 326 -30 c320
-30 338 -31 900 -31 543 0 594 -2 949 -30 l375 -29 1245 -504 c1215 -491 1262
-510 1955 -750 391 -136 935 -323 1210 -415 l500 -167 174 -273 c95 -150 171
-275 168 -278 -3 -3 -562 13 -1243 35 -1067 35 -1381 50 -2264 102 l-1025 60
-750 149 -750 149 -232 -29 -232 -30 -373 218 c-205 120 -607 366 -893 547
-509 322 -1288 835 -1353 891 l-32 29 83 221 c75 199 83 227 80 275 l-5 54 59
32 c32 18 85 59 118 92 33 34 63 61 67 61 5 0 46 -25 93 -56z"/>
</g>
</svg>
