<?xml version="1.0" standalone="no"?>
<!DOCTYPE svg PUBLIC "-//W3C//DTD SVG 20010904//EN"
 "http://www.w3.org/TR/2001/REC-SVG-20010904/DTD/svg10.dtd">
<svg version="1.0" xmlns="http://www.w3.org/2000/svg"
   viewBox="0 0 4379.000000 1861.000000"
 preserveAspectRatio="xMidYMid meet">
<metadata>
Created by potrace 1.16, written by Peter Selinger 2001-2019
</metadata>
<g transform="translate(0.000000,1861.000000) scale(0.100000,-0.100000)"
fill="#000000" stroke="none">
<path d="M17945 18546 c-233 -58 -274 -71 -610 -205 -285 -114 -409 -170 -597
-268 l-237 -124 -903 76 -902 76 -61 33 c-53 29 -65 32 -100 25 -22 -5 -51
-15 -65 -23 -22 -13 -132 -5 -965 65 -1251 105 -2936 223 -2946 207 -5 -7 -7
-14 -5 -15 1 -2 135 -28 297 -58 162 -31 302 -58 312 -61 14 -5 17 -18 17 -84
l0 -78 38 -6 c20 -4 469 -63 997 -131 860 -112 979 -130 1145 -170 102 -25
191 -47 198 -50 8 -3 1 -26 -25 -80 -38 -76 -38 -76 -73 -71 -19 3 -318 26
-665 52 l-630 47 -155 91 c-164 96 -193 105 -210 60 -7 -18 -4 -38 10 -75 l20
-51 -62 6 c-35 4 -180 16 -322 27 l-260 19 -149 91 c-126 77 -153 89 -178 84
-24 -5 -29 -12 -29 -35 0 -15 7 -46 15 -69 17 -50 55 -48 -324 -19 l-295 22
-150 91 c-133 81 -154 91 -178 83 -34 -12 -39 -40 -16 -100 10 -27 14 -48 10
-48 -4 0 -673 52 -1487 115 -871 67 -1482 110 -1485 105 -3 -5 -23 -151 -44
-325 l-38 -315 161 -167 161 -168 936 -575 936 -575 214 -624 c117 -344 218
-627 223 -630 5 -3 814 -105 1798 -225 983 -121 1789 -220 1791 -221 1 -1 -33
-85 -76 -186 l-79 -184 -87 -74 c-50 -42 -95 -90 -107 -112 -17 -35 -23 -39
-57 -39 -20 0 -732 14 -1582 30 -849 16 -1546 28 -1548 26 -1 -2 -4 -30 -5
-62 l-2 -59 85 -18 c66 -13 3482 -317 3572 -317 11 0 18 -13 23 -41 4 -22 5
-43 2 -45 -3 -3 -362 -69 -798 -148 l-794 -142 -3 -92 -3 -92 -269 0 -270 0 0
-106 c0 -101 8 -142 209 -1027 115 -507 251 -1111 302 -1342 51 -231 95 -423
98 -427 3 -3 71 -2 151 2 l145 9 335 -335 335 -334 461 0 461 0 13 -90 c7 -50
11 -92 9 -93 -15 -12 -184 -45 -189 -37 -3 5 -45 -3 -100 -20 -52 -16 -110
-30 -129 -30 -20 0 -217 -69 -469 -165 -238 -91 -435 -165 -437 -165 -2 0 -1
9 2 20 3 12 27 30 64 46 33 15 59 28 59 30 0 22 -75 184 -84 181 -6 -2 -310
-117 -676 -256 l-665 -252 -47 -87 c-43 -81 -56 -95 -180 -201 l-133 -113
-5281 -2006 c-2905 -1104 -5288 -2015 -5298 -2024 -15 -16 -14 -23 21 -117 33
-87 41 -101 61 -101 12 0 2410 907 5327 2015 l5305 2015 159 0 c154 0 162 -1
241 -31 l81 -31 678 257 678 258 -34 91 c-19 50 -36 93 -38 95 -2 2 -25 -4
-51 -13 -26 -9 -57 -16 -68 -16 -19 1 -19 2 4 14 14 7 207 82 430 166 223 84
410 158 415 165 6 6 58 31 117 56 89 36 108 48 108 65 0 33 71 56 365 117 285
60 428 83 433 70 2 -4 70 -150 151 -323 l148 -315 74 -5 74 -5 -876 -268 -876
-267 -71 16 -71 16 -98 -32 c-54 -18 -196 -82 -316 -142 l-218 -108 7 -123 c9
-149 11 -756 4 -1119 -3 -146 -2 -270 2 -274 4 -4 76 -10 159 -14 l152 -7 146
-151 c80 -83 166 -163 190 -179 l44 -28 762 -14 763 -15 7 -109 c7 -109 8
-113 73 -254 61 -133 68 -143 96 -148 17 -3 375 -48 796 -100 l765 -95 104
-39 c57 -22 105 -42 108 -45 2 -2 -238 -1076 -534 -2385 -455 -2007 -537
-2382 -524 -2385 28 -8 362 -58 365 -54 2 1 289 1047 639 2322 350 1276 638
2321 640 2322 2 2 43 -7 93 -21 58 -16 535 -86 1369 -201 l1280 -176 498 -154
499 -154 501 -35 c370 -26 536 -42 633 -60 119 -23 157 -25 410 -26 l279 0
2310 -1473 2310 -1473 48 74 c26 40 47 77 47 82 0 5 -991 640 -2202 1411
-1212 772 -2206 1406 -2211 1409 -12 12 307 76 2686 541 2187 428 2373 463
3830 715 1484 257 1631 281 4707 750 1746 266 4214 649 5484 850 l2310 365
188 87 188 86 2 131 c2 72 1 244 -1 381 l-3 250 -28 40 c-26 38 -37 43 -201
101 l-174 62 -3 60 -3 60 -104 121 c-57 67 -107 127 -111 133 -5 7 81 8 302 3
l309 -8 58 -45 c31 -25 59 -43 60 -41 2 2 13 28 25 58 19 46 22 73 22 185 l-1
131 -58 42 c-56 39 -88 50 -627 201 l-569 159 -165 -43 c-91 -24 -166 -44
-167 -44 -1 0 -3 32 -5 72 l-3 72 -185 72 c-108 41 -186 77 -188 86 -1 7 -35
34 -75 58 l-72 45 -1815 8 -1815 8 -27 -32 -27 -32 -273 2 -273 2 -170 -50
-170 -50 -1329 -56 c-731 -31 -1340 -55 -1354 -53 -18 2 108 80 472 292 l496
289 0 119 0 118 1110 0 1110 0 0 35 0 35 -1110 0 -1110 0 0 63 c0 53 -4 67
-23 85 l-23 22 -1695 2 -1694 3 -3 171 -2 171 -109 91 c-73 62 -117 92 -134
92 -20 0 -57 37 -183 184 l-159 184 -590 328 -590 329 -977 225 c-537 123
-976 225 -975 226 3 3 1692 -18 1695 -21 2 -2 -4 -54 -12 -116 -8 -63 -16
-141 -18 -174 l-3 -60 1600 -6 c880 -3 2937 -7 4571 -8 l2972 -1 7 69 c4 38 4
82 1 98 -4 15 -40 90 -80 166 l-74 137 1043 0 c688 0 1044 3 1047 10 2 7 725
12 2131 17 l2128 6 -3 21 -3 21 -2015 6 c-1958 6 -2212 10 -2229 37 -4 6 -408
13 -1011 17 -553 4 -1043 10 -1090 14 l-84 6 -163 296 -163 297 181 179 181
179 -18 82 c-9 45 -15 84 -13 86 3 3 170 45 373 95 202 49 370 91 371 93 2 2
21 62 42 133 l39 130 165 68 c90 37 319 126 509 197 400 149 314 134 885 150
188 5 351 13 363 17 23 9 23 9 -8 38 -16 16 -30 34 -30 40 0 6 -30 41 -67 77
-52 51 -103 86 -218 151 l-150 83 -320 53 c-176 29 -495 84 -710 123 -367 65
-409 75 -745 173 l-355 104 -2235 356 -2235 356 -379 217 c-208 119 -389 220
-402 224 -23 6 -24 4 -24 -46 l0 -51 165 -129 c91 -71 163 -131 161 -133 -2
-3 -195 26 -428 62 l-423 67 -392 224 c-216 123 -399 224 -408 224 -11 0 -15
-12 -15 -49 l0 -50 169 -133 c94 -73 169 -134 167 -135 -1 -1 -197 29 -435 67
l-433 69 -383 221 c-211 121 -391 220 -400 220 -11 0 -15 -12 -15 -49 l0 -50
161 -127 c89 -71 157 -130 151 -132 -6 -2 -199 27 -429 64 l-418 66 -380 218
c-209 119 -390 219 -402 223 -22 5 -23 2 -23 -46 l1 -52 165 -129 c90 -71 163
-130 161 -132 -1 -2 -824 129 -1827 291 l-1825 293 -1180 111 c-649 62 -1264
120 -1366 130 -216 22 -126 -15 -742 303 l-388 201 -232 57 c-128 32 -257 61
-287 64 -30 3 -493 60 -1029 126 l-975 120 -250 -1 -251 -1 -250 -62z m8551
-5583 c-11 -107 -3 -100 -103 -91 -48 5 -89 10 -90 12 -5 4 180 145 191 145 4
1 5 -29 2 -66z m-751 -184 c132 -11 267 -23 300 -28 33 -5 63 -7 67 -5 6 4
350 -24 353 -29 0 -1 -6 -56 -14 -122 l-16 -121 -589 136 -589 136 79 31 c59
23 90 30 124 27 25 -3 153 -13 285 -25z m-10477 -5738 c13 -8 -91 -31 -208
-46 l-45 -6 38 21 c22 12 67 25 100 29 86 12 100 12 115 2z"/>
</g>
</svg>
