<?xml version="1.0" standalone="no"?>
<!DOCTYPE svg PUBLIC "-//W3C//DTD SVG 20010904//EN"
 "http://www.w3.org/TR/2001/REC-SVG-20010904/DTD/svg10.dtd">
<svg version="1.0" xmlns="http://www.w3.org/2000/svg"
   viewBox="0 0 4434.000000 797.000000"
 preserveAspectRatio="xMidYMid meet">
<metadata>
Created by potrace 1.16, written by Peter Selinger 2001-2019
</metadata>
<g transform="translate(0.000000,797.000000) scale(0.100000,-0.100000)"
fill="#000000" stroke="none">
<path d="M11717 7963 c-4 -3 -7 -17 -7 -31 l0 -24 -127 6 -128 6 -185 -48
-185 -49 -3 -36 -3 -37 -65 0 -65 0 3 -31 c3 -30 16 -38 368 -227 310 -165
400 -209 597 -286 223 -88 271 -112 1297 -661 956 -512 1061 -570 1028 -573
-20 -2 -270 4 -555 13 l-518 16 -51 31 -52 32 -1395 42 -1396 42 -51 -29 -50
-28 -685 19 c-1672 48 -1796 54 -1877 85 -97 37 -172 41 -1219 70 -885 25
-1070 24 -1145 -4 -48 -18 -181 -21 -443 -12 l-270 10 -1205 -114 -1205 -114
-745 -120 c-410 -67 -754 -123 -765 -125 -11 -3 -41 -31 -67 -62 l-48 -56 0
-88 0 -89 -127 -40 c-71 -21 -180 -56 -245 -76 l-116 -36 -4 -1032 -4 -1032
255 -467 255 -468 1691 0 1690 0 102 -85 c75 -62 116 -105 154 -162 29 -43 86
-120 127 -171 64 -79 78 -92 104 -92 16 0 552 -36 1191 -80 639 -44 1790 -118
2557 -165 2435 -149 2162 -123 3128 -297 626 -113 627 -113 547 -120 -44 -3
-593 -11 -1220 -17 -1732 -17 -1975 -22 -1975 -38 0 -10 -20 -13 -80 -13 -60
0 -80 3 -80 13 0 9 -10 12 -30 9 -27 -4 -30 -8 -30 -38 0 -23 5 -34 14 -34 8
0 21 -3 30 -6 11 -4 16 -1 16 10 0 13 13 16 80 16 59 0 80 -3 80 -13 0 -10 65
-12 333 -9 182 2 1025 11 1872 21 l1539 17 161 -31 160 -30 0 -35 1 -35 269
-136 c241 -123 275 -137 334 -143 36 -3 302 5 591 18 l524 24 191 -33 c104
-18 334 -64 510 -101 l320 -67 317 -5 316 -4 12 -28 c12 -30 41 -40 111 -40
21 0 48 -4 61 -10 32 -13 2242 -54 2444 -45 l161 7 12 34 12 34 155 0 154 0
14 -34 c14 -34 15 -34 93 -41 43 -4 377 -10 743 -13 l665 -7 145 -97 c136 -92
156 -101 326 -162 177 -62 186 -64 383 -87 l203 -23 199 23 c197 23 202 24
387 90 168 61 200 76 307 148 l120 80 195 -44 195 -43 943 0 943 0 1007 194
1007 195 1112 130 1113 130 210 85 209 85 3158 336 c1737 184 3302 346 3478
359 285 22 461 43 505 60 14 5 3107 336 3142 336 9 0 131 152 273 340 141 187
258 340 259 341 6 3 772 25 776 22 3 -3 7 -44 10 -91 l5 -87 35 -3 36 -3 -4
94 -4 94 113 5 c63 3 116 4 118 2 2 -2 6 -44 9 -94 l5 -90 35 0 34 0 -4 95 -4
95 91 0 c49 0 99 3 111 6 20 5 21 1 27 -86 3 -51 7 -93 9 -95 2 -1 18 0 36 2
l33 5 -7 88 -7 87 174 6 c96 3 360 12 587 18 l413 13 -6 73 -7 73 63 0 c145 1
906 30 935 36 21 4 55 30 99 74 l68 68 19 99 c39 200 40 260 8 417 -16 78 -42
179 -58 226 l-28 85 -84 33 c-68 28 -108 36 -223 48 -125 13 -585 34 -741 34
l-59 0 6 105 c6 96 5 105 -11 105 -47 -1 -1073 51 -1111 56 l-44 6 7 99 7 99
-34 0 c-33 0 -34 -2 -41 -46 -3 -26 -6 -72 -6 -102 l0 -55 -67 6 c-38 4 -95 7
-127 7 l-59 0 6 105 6 105 -33 0 c-29 0 -34 -4 -40 -31 -3 -17 -6 -62 -6 -100
l0 -69 -53 0 c-30 0 -89 3 -132 7 l-78 6 6 94 5 93 -33 0 c-39 0 -45 -13 -45
-116 l0 -72 -62 5 c-35 2 -2331 118 -5103 258 -2772 140 -5173 264 -5335 275
-162 11 -659 35 -1105 55 -445 19 -851 37 -902 41 -90 6 -92 6 -102 35 -5 16
-13 29 -17 29 -4 0 -46 -12 -94 -26 l-87 -26 -569 25 c-313 14 -1267 50 -2119
79 l-1550 52 -190 -41 c-105 -23 -307 -58 -450 -78 -143 -19 -456 -67 -696
-107 l-436 -71 -11 -44 c-8 -27 -12 -129 -12 -273 l0 -230 -440 0 -440 0 -81
-102 c-45 -57 -161 -192 -258 -300 l-176 -198 -126 0 -127 0 -17 114 c-17 109
-22 123 -114 314 l-96 201 -149 159 -148 159 -191 103 -190 104 -196 33 c-136
23 -229 33 -303 33 l-107 0 -46 64 c-43 61 -60 74 -283 214 -377 238 -302 209
-1012 381 l-615 149 -533 16 -533 15 -1645 893 c-904 491 -1644 898 -1644 905
0 7 -10 17 -21 24 -16 8 -1152 239 -1180 239 -3 0 -9 -3 -12 -7z m1590 -7058
c109 -19 272 -48 363 -64 l165 -30 -300 2 -300 2 -87 45 c-74 37 -88 48 -88
68 0 21 4 23 24 18 14 -3 114 -22 223 -41z"/>
</g>
</svg>
