<?xml version="1.0" standalone="no"?>
<!DOCTYPE svg PUBLIC "-//W3C//DTD SVG 20010904//EN"
 "http://www.w3.org/TR/2001/REC-SVG-20010904/DTD/svg10.dtd">
<svg version="1.0" xmlns="http://www.w3.org/2000/svg"
   viewBox="0 0 4683.000000 3480.000000"
 preserveAspectRatio="xMidYMid meet">
<metadata>
Created by potrace 1.16, written by Peter Selinger 2001-2019
</metadata>
<g transform="translate(0.000000,3480.000000) scale(0.100000,-0.100000)"
fill="#000000" stroke="none">
<path d="M32516 34683 c-31 -65 -123 -257 -204 -428 l-148 -310 -1131 -5
-1131 -5 -590 -280 -590 -280 -7 -367 -7 -368 -1689 0 -1689 0 0 280 0 280
-938 0 -937 0 -378 -378 -377 -377 0 -3028 0 -3027 -1215 0 -1215 0 0 463 0
464 -787 426 -787 427 -878 0 -878 0 0 1079 0 1079 -261 256 -262 256 -3151 0
-3151 0 -288 -288 -287 -287 0 -1048 0 -1047 -132 -1 -133 0 -179 -250 -180
-249 -990 0 -991 0 -398 -398 -397 -397 0 -2673 0 -2672 -388 0 -387 0 -158
-158 -157 -157 0 -978 0 -977 -88 0 -89 0 -67 -262 c-37 -145 -74 -286 -82
-315 l-15 -52 -544 -3 -544 -3 -71 -70 -70 -69 0 -528 0 -528 -340 0 -340 0 0
-685 0 -685 -55 0 -55 0 0 -150 0 -150 -820 0 -820 0 -2 -847 -3 -848 -522
-340 -523 -340 0 -405 1 -405 651 -482 652 -483 193 0 193 0 0 655 0 655 895
0 895 0 -2 -557 -3 -557 -233 -139 -232 -140 0 -136 0 -136 1517 -798 1516
-797 386 0 386 0 70 -125 70 -125 402 0 402 0 69 122 69 123 1815 3 1815 2
156 235 157 235 490 0 490 0 46 70 c26 39 50 70 54 70 7 0 20 -1483 20 -2251
0 -525 9 -829 25 -829 13 0 25 728 25 1539 0 251 3 695 7 987 l6 531 123 -31
122 -30 540 139 541 138 305 294 305 293 132 0 132 0 141 122 c77 67 142 123
144 124 3 2 32 369 32 412 l0 22 313 0 314 0 6 -187 c4 -104 7 -223 7 -267 0
-68 3 -82 24 -106 l24 -29 6 -713 c3 -392 13 -2898 22 -5568 8 -2670 17 -4857
19 -4859 31 -30 31 -47 48 5295 10 2909 18 5411 17 5560 0 254 1 273 19 295
l20 24 63 -62 64 -63 285 0 285 0 237 -227 237 -226 0 -876 c0 -482 7 -2608
15 -4726 8 -2117 15 -4108 15 -4422 0 -566 0 -573 20 -573 20 0 20 7 20 773 0
424 7 2435 15 4467 8 2032 15 4045 15 4474 l0 778 24 -15 c23 -16 1062 -287
1097 -287 11 0 259 62 552 137 l532 137 395 379 395 380 107 381 c59 209 110
391 113 403 l5 23 400 0 400 0 0 -377 0 -378 998 -304 c548 -168 1000 -309
1004 -315 4 -6 105 -239 225 -518 l218 -508 1095 0 1096 0 359 885 360 884
1017 1 1018 0 174 -261 174 -261 378 -215 379 -215 513 -164 513 -164 2899 0
2900 0 457 -204 458 -204 1433 -267 1433 -267 1167 82 1167 82 915 275 915
275 645 517 c354 284 651 523 660 531 8 8 149 340 313 736 l299 722 -221 1710
-220 1710 -543 1440 -543 1440 -998 1255 -998 1255 -997 804 -996 803 -756
403 -755 403 -628 63 c-346 35 -633 68 -637 72 -5 5 -71 115 -148 245 l-139
237 50 264 50 263 351 145 351 145 130 120 c71 66 164 154 206 195 l77 75 155
341 154 342 -93 999 -93 999 -345 994 c-189 547 -353 1018 -363 1046 -12 30
-240 365 -558 821 l-538 772 -627 651 -628 651 -258 178 c-179 122 -323 211
-464 288 l-206 111 -517 58 -517 58 0 58 0 58 979 0 979 0 74 60 73 60 369 0
369 0 63 35 62 35 1686 0 1686 0 0 30 0 30 298 1 c1070 2 5142 35 5148 42 4 4
4 10 0 15 -6 6 -4006 38 -5098 41 l-348 1 0 30 0 30 -1680 0 -1680 0 -80 40
-80 40 -364 0 -365 0 -65 55 -65 55 -980 0 -981 0 0 88 c0 49 -3 123 -6 165
l-7 77 -993 0 -992 0 -56 -117z"/>
</g>
</svg>
