<?xml version="1.0" standalone="no"?>
<!DOCTYPE svg PUBLIC "-//W3C//DTD SVG 20010904//EN"
 "http://www.w3.org/TR/2001/REC-SVG-20010904/DTD/svg10.dtd">
<svg version="1.0" xmlns="http://www.w3.org/2000/svg"
   viewBox="0 0 4573.000000 3398.000000"
 preserveAspectRatio="xMidYMid meet">
<metadata>
Created by potrace 1.16, written by Peter Selinger 2001-2019
</metadata>
<g transform="translate(0.000000,3398.000000) scale(0.100000,-0.100000)"
fill="#000000" stroke="none">
<path d="M31737 33828 c-39 -84 -129 -272 -198 -418 l-126 -265 -1098 -3
-1097 -2 -581 -276 c-320 -152 -583 -277 -584 -278 -1 -1 -4 -141 -8 -311 -3
-171 -8 -334 -11 -362 l-5 -53 -1645 0 -1644 0 0 280 0 280 -916 0 -916 0
-369 -367 -369 -366 0 -2959 0 -2958 -1190 0 -1190 0 -2 452 -3 452 -760 413
-760 412 -857 1 -858 0 0 1053 0 1053 -259 252 -259 252 -3074 0 -3073 0 -282
-282 -283 -283 0 -1022 0 -1022 -132 -3 -132 -3 -175 -242 -176 -243 -970 0
-970 0 -387 -387 -388 -388 0 -2607 0 -2608 -373 0 -372 0 -158 -158 -157
-157 0 -953 0 -952 -84 0 c-72 0 -85 -3 -90 -17 -3 -10 -35 -133 -71 -273 -37
-140 -71 -272 -76 -292 l-10 -38 -532 0 -533 0 -67 -68 -67 -68 0 -512 0 -512
-330 0 -330 0 0 -675 0 -675 -60 0 -60 0 0 -145 0 -145 -800 0 -800 0 0 -827
-1 -828 -509 -330 -509 -330 -1 -395 0 -396 637 -472 637 -472 188 0 188 0 0
640 0 640 875 0 875 0 0 -543 0 -542 -230 -138 -230 -138 0 -132 0 -132 1486
-783 1487 -782 373 0 373 0 67 -120 68 -120 392 0 392 0 65 118 65 117 1773 3
1774 3 153 229 152 230 479 0 478 0 49 73 c48 72 48 72 55 42 4 -16 7 -222 8
-456 0 -234 4 -899 8 -1477 6 -1011 7 -1052 25 -1052 17 0 18 24 19 548 3
1003 14 2430 19 2436 3 3 57 -9 120 -25 l115 -31 529 137 530 136 184 177
c101 97 237 228 302 290 l118 112 129 0 128 0 100 86 c55 48 117 102 137 120
l36 32 11 154 c6 84 14 179 17 211 l6 57 302 0 303 0 6 -112 c4 -62 7 -178 7
-257 0 -140 1 -146 27 -183 l26 -38 18 -5003 c10 -2751 18 -5194 19 -5429 0
-358 2 -428 14 -428 22 0 24 306 41 5765 16 4879 17 5101 34 5118 18 18 20 17
78 -37 l61 -56 278 0 279 -1 232 -227 231 -227 11 -3750 c17 -5686 22 -6585
37 -6585 9 0 13 55 18 212 3 117 10 1799 16 3738 17 5816 20 6293 40 6275 9
-8 254 -76 544 -151 l528 -135 524 135 c501 129 527 136 567 170 23 20 199
188 391 373 348 337 350 339 367 398 10 33 59 210 110 393 l92 332 389 0 388
0 0 -368 0 -367 979 -299 979 -300 215 -500 214 -501 1073 0 1073 0 216 530
c119 292 277 677 350 858 l134 327 996 0 996 0 165 -251 165 -250 375 -213
375 -214 490 -156 490 -156 2834 0 2834 0 448 -201 449 -200 1391 -260 c765
-142 1414 -259 1443 -259 28 0 548 36 1156 79 l1105 78 890 269 890 268 642
514 641 515 291 702 c160 386 291 715 291 731 0 16 -96 772 -214 1679 l-213
1650 -529 1403 -529 1403 -975 1226 -975 1226 -975 786 -975 786 -737 392
-737 393 -616 62 -617 63 -140 238 -141 239 49 258 49 257 345 143 345 142
195 183 195 182 155 340 156 341 -92 978 -92 979 -351 1013 -351 1013 -528
756 -527 756 -615 638 -615 639 -249 171 c-168 115 -316 207 -453 281 l-203
110 -505 56 -505 57 0 58 0 57 958 0 958 0 66 55 66 55 356 0 356 0 70 35 70
35 1645 0 1645 0 0 29 0 28 528 7 c290 3 1319 11 2287 16 2178 13 2505 17
2505 36 0 12 -70 14 -427 14 -236 0 -1314 7 -2398 15 -1083 8 -2088 15 -2232
15 l-263 0 0 30 0 30 -1647 0 -1648 0 -65 35 -64 35 -357 0 -356 0 -74 60 -73
60 -953 0 -953 0 0 108 c0 59 -3 131 -6 160 l-7 52 -969 0 -968 0 -73 -152z"/>
</g>
</svg>
