<?xml version="1.0" standalone="no"?>
<!DOCTYPE svg PUBLIC "-//W3C//DTD SVG 20010904//EN"
 "http://www.w3.org/TR/2001/REC-SVG-20010904/DTD/svg10.dtd">
<svg version="1.0" xmlns="http://www.w3.org/2000/svg"
   viewBox="0 0 3929.000000 4429.000000"
 preserveAspectRatio="xMidYMid meet">
<metadata>
Created by potrace 1.16, written by Peter Selinger 2001-2019
</metadata>
<g transform="translate(0.000000,4429.000000) scale(0.100000,-0.100000)"
fill="#000000" stroke="none">
<path d="M28917 42018 c-4 -1250 -7 -2642 -7 -3094 l0 -820 -52 -17 c-29 -9
-1209 -367 -2623 -796 -1413 -430 -2579 -785 -2590 -790 -14 -5 -51 -74 -110
-202 l-90 -194 -5 -1749 -5 -1748 -425 -259 c-234 -143 -425 -264 -425 -269 0
-6 171 -259 381 -563 311 -450 389 -571 427 -656 l47 -104 0 -311 0 -311 -403
-216 c-370 -199 -403 -215 -418 -200 -10 9 -316 424 -682 923 l-665 906 -16
504 c-12 384 -16 820 -16 1846 l0 1342 -565 0 -565 0 -2 1101 -3 1102 -2390
1163 -2390 1164 -4535 0 -4535 0 -410 -410 -410 -410 -1932 0 -1933 0 0 -2146
0 -2146 -785 -1074 -785 -1075 0 -1902 0 -1902 390 -404 390 -403 0 -962 0
-961 896 -610 c493 -335 915 -622 938 -637 41 -27 55 -29 360 -58 175 -16 327
-30 337 -30 19 0 19 -33 19 -1264 l0 -1264 1033 -6 c567 -3 2003 -8 3190 -10
l2157 -5 1050 524 1050 525 2 -1528 c2 -840 3 -2027 3 -2637 l0 -1111 109
-132 c59 -73 109 -132 110 -132 0 0 619 -18 1374 -39 756 -22 1375 -41 1377
-43 3 -2 88 -1128 189 -2503 102 -1374 189 -2502 193 -2506 5 -4 170 -80 368
-168 l359 -161 228 0 228 0 0 -2325 0 -2325 22 -5 c13 -3 374 -81 803 -173
l780 -168 325 -647 325 -647 115 -123 114 -122 455 -142 456 -142 353 -1 352
0 0 -65 0 -65 -610 0 -610 0 0 -47 c0 -36 69 -251 273 -858 l273 -810 1394 0
1393 0 186 482 186 483 1213 0 1212 0 0 -300 0 -300 -1014 0 c-956 0 -1014 -1
-1022 -17 -4 -10 -10 -122 -12 -250 -3 -217 -2 -231 15 -237 10 -3 830 -242
1823 -531 993 -289 1833 -534 1868 -545 l62 -18 0 799 0 799 -605 0 -605 0 0
300 0 300 930 0 930 0 0 -1490 0 -1490 135 0 135 0 0 -55 0 -55 -475 0 -475 0
0 -695 0 -695 2075 0 2075 0 0 175 c0 133 3 175 13 175 35 0 3921 211 3975
216 l62 6 0 83 0 84 -42 5 c-37 5 -3979 326 -4000 326 -5 0 -8 72 -8 160 l0
160 -70 0 -70 0 0 55 0 55 125 0 125 0 0 220 0 220 50 0 c27 0 1270 58 2762
130 1492 71 2725 130 2740 130 l28 0 0 94 0 94 -82 6 c-46 3 -1273 62 -2728
131 -1455 69 -2673 128 -2707 131 l-63 6 0 1284 0 1284 -1105 0 -1105 0 0 65
0 65 1160 0 1160 0 0 65 0 65 395 0 395 0 0 1093 0 1094 250 43 250 44 0 227
0 227 -27 6 c-16 3 -104 19 -198 36 -93 17 -194 35 -222 41 l-53 10 0 670 0
669 173 0 172 0 69 45 c38 25 80 45 93 45 12 0 23 5 23 12 0 6 7 19 16 29 13
15 74 646 346 3591 182 1965 332 3574 333 3576 2 2 478 -10 1059 -27 998 -28
1059 -29 1104 -13 l48 17 -315 1467 c-173 807 -312 1471 -308 1474 3 4 221 29
484 56 262 26 481 52 484 56 11 11 343 840 685 1712 169 432 309 787 311 790
3 3 2253 269 2291 270 9 0 12 43 12 180 0 178 0 180 -22 184 -13 3 -439 46
-948 96 -509 50 -943 93 -966 96 l-41 6 212 536 c116 296 207 540 202 543 -9
7 -6 213 3 223 3 2 304 26 670 53 l665 48 3 128 3 127 -27 0 c-64 0 -1299 82
-1304 87 -4 4 -15 1499 -19 2635 l-1 308 -162 177 c-148 163 -686 716 -2198
2263 -304 311 -726 745 -938 965 -212 220 -591 607 -842 860 -251 253 -668
678 -926 945 -258 266 -637 654 -841 861 l-373 377 0 4921 0 4921 -1258 0
-1259 0 -6 -2272z m3973 -9471 c0 -2 -17 -19 -37 -38 l-38 -34 34 38 c33 34
41 42 41 34z m-120 -110 c0 -1 -26 -27 -57 -57 l-58 -55 55 58 c50 53 60 62
60 54z m-120 -111 c0 -3 -141 -136 -312 -296 -172 -160 -254 -234 -183 -164
117 115 486 462 493 464 1 0 2 -2 2 -4z m-650 -609 c0 -1 -30 -32 -67 -67
l-68 -65 65 68 c60 62 70 72 70 64z m-240 -230 c0 -2 -12 -14 -27 -28 l-28
-24 24 28 c23 25 31 32 31 24z m2700 -631 c0 -2 -8 -10 -17 -17 -16 -13 -17
-12 -4 4 13 16 21 21 21 13z m-100 -89 c0 -2 -10 -12 -22 -23 l-23 -19 19 23
c18 21 26 27 26 19z m-100 -90 c0 -2 -12 -14 -27 -28 l-28 -24 24 28 c23 25
31 32 31 24z m-110 -100 c0 -2 -12 -14 -27 -28 l-28 -24 24 28 c23 25 31 32
31 24z m-100 -90 c0 -2 -15 -16 -32 -33 l-33 -29 29 33 c28 30 36 37 36 29z
m-100 -90 c0 -2 -19 -21 -42 -42 l-43 -40 40 43 c36 39 45 47 45 39z m-100
-90 c0 -2 -19 -21 -42 -42 l-43 -40 40 43 c36 39 45 47 45 39z m-100 -90 c0
-2 -17 -19 -37 -38 l-38 -34 34 38 c33 34 41 42 41 34z m-110 -100 c0 -2 -12
-14 -27 -28 l-28 -24 24 28 c23 25 31 32 31 24z m-100 -90 c0 -2 -12 -14 -27
-28 l-28 -24 24 28 c23 25 31 32 31 24z m-100 -90 c0 -2 -10 -12 -22 -23 l-23
-19 19 23 c18 21 26 27 26 19z m-100 -91 c0 -2 -8 -10 -17 -17 -16 -13 -17
-12 -4 4 13 16 21 21 21 13z m-100 -90 c0 -2 -8 -10 -17 -17 -16 -13 -17 -12
-4 4 13 16 21 21 21 13z m-16370 -14641 c27 -577 51 -1075 53 -1106 l3 -55
-190 -147 c-105 -80 -191 -145 -192 -144 -2 2 258 2471 267 2547 5 34 11 -90
59 -1095z m14688 793 c18 -172 57 -535 85 -805 l53 -493 -133 0 -133 0 0 805
0 805 48 0 48 0 32 -312z m-4158 -10613 l0 -65 -2625 0 -2625 0 0 65 0 65
2625 0 2625 0 0 -65z"/>
</g>
</svg>
