<?xml version="1.0" standalone="no"?>
<!DOCTYPE svg PUBLIC "-//W3C//DTD SVG 20010904//EN"
 "http://www.w3.org/TR/2001/REC-SVG-20010904/DTD/svg10.dtd">
<svg version="1.0" xmlns="http://www.w3.org/2000/svg"
   viewBox="0 0 3656.000000 1636.000000"
 preserveAspectRatio="xMidYMid meet">
<metadata>
Created by potrace 1.16, written by Peter Selinger 2001-2019
</metadata>
<g transform="translate(0.000000,1636.000000) scale(0.100000,-0.100000)"
fill="#000000" stroke="none">
<path d="M13165 16349 c-412 -4 -917 -16 -1345 -33 -626 -24 -704 -29 -900
-57 -118 -16 -225 -32 -237 -35 -17 -5 -31 7 -75 61 l-53 67 -44 -6 c-24 -3
-241 -6 -481 -6 l-438 0 -21 -50 c-22 -50 -22 -51 -3 -68 18 -16 19 -20 6 -49
-8 -18 -20 -33 -26 -33 -7 0 -36 24 -66 53 l-53 52 -757 9 c-416 4 -925 5
-1129 1 l-373 -7 -107 -64 -108 -64 -697 0 -696 0 -211 -132 c-185 -117 -210
-136 -211 -159 0 -32 -25 -39 -137 -39 l-75 0 -79 -67 c-73 -61 -79 -69 -79
-105 0 -34 -3 -38 -25 -38 l-25 0 0 -155 0 -155 -215 0 -215 0 0 -45 0 -45
-190 0 -191 0 -93 -70 -93 -70 -458 0 -459 0 -238 41 c-288 49 -272 55 -269
-88 2 -151 17 -187 81 -197 38 -6 110 -63 110 -86 0 -6 -39 -10 -90 -10 -89 0
-90 0 -90 -24 0 -14 -4 -27 -10 -31 -5 -3 6 -40 25 -85 l34 -80 -32 0 c-18 1
-145 20 -283 44 -215 36 -252 40 -263 28 -14 -14 -17 -183 -5 -227 18 -65 25
-73 70 -80 24 -3 46 -10 48 -14 3 -4 -256 -64 -574 -133 l-579 -126 -63 -43
c-118 -80 -678 -506 -678 -517 0 -3 20 -42 44 -87 l45 -81 253 -52 c139 -28
386 -76 548 -106 397 -74 690 -147 1090 -271 354 -110 935 -308 957 -327 8 -6
16 -8 19 -5 6 6 670 -217 1462 -489 l402 -139 0 -57 0 -58 55 0 c30 0 55 -4
55 -10 0 -5 16 -10 36 -10 24 0 52 -12 92 -39 84 -57 183 -81 335 -82 67 0
117 -3 110 -5 -12 -5 7 -73 42 -145 l17 -36 156 -8 c136 -6 156 -5 164 9 11
20 86 21 138 2 l35 -13 -48 -7 c-31 -5 -53 -3 -61 3 -10 8 -63 -6 -207 -55
-107 -36 -196 -67 -198 -69 -2 -2 8 -24 22 -48 l26 -44 343 58 c189 32 351 60
360 63 10 2 77 -19 150 -46 73 -27 196 -70 273 -95 l140 -46 695 -16 c679 -16
696 -17 730 -37 34 -21 47 -22 424 -26 l389 -4 20 -25 19 -24 -31 -3 -31 -3 0
-78 0 -78 46 -7 c26 -3 63 -6 83 -6 47 -1 30 23 452 -625 l345 -530 94 -5 94
-5 76 -172 75 -173 645 0 646 0 96 -202 c53 -112 130 -273 171 -359 l75 -157
-34 -51 -35 -51 -426 0 -427 0 -103 -67 -103 -68 0 -71 0 -72 -237 -169 -237
-169 -1084 433 -1085 434 -426 -196 c-234 -108 -436 -203 -448 -211 -14 -9
-23 -24 -23 -40 0 -18 159 -241 548 -767 302 -408 633 -866 736 -1019 102
-152 192 -281 199 -286 18 -15 356 -142 377 -142 10 0 74 14 144 30 l125 30
83 -64 c65 -50 117 -78 243 -131 88 -38 164 -71 168 -75 8 -7 -116 -245 -133
-255 -4 -3 -88 29 -186 71 -99 42 -185 78 -192 81 -7 3 -21 -15 -37 -50 l-24
-55 36 -84 35 -83 1312 -559 1311 -559 960 -523 960 -523 80 20 80 21 28 61
c15 34 24 63 20 64 -31 12 -307 170 -306 176 0 5 31 64 68 132 l67 123 147
-82 c106 -58 364 -233 922 -623 l774 -541 1100 -925 1099 -926 1066 -408 1065
-408 475 7 c299 5 478 4 484 -2 13 -13 173 -13 181 0 6 9 -218 449 -234 460
-5 3 -152 292 -327 642 -316 631 -319 637 -297 649 13 7 23 16 23 21 0 4 -40
89 -90 188 l-90 179 -67 20 c-38 11 -254 74 -481 141 l-413 120 -19 -22 c-10
-13 -20 -21 -23 -18 -11 13 -1497 3217 -1497 3229 0 8 88 182 195 388 107 205
195 375 195 377 0 3 -170 357 -378 788 -208 431 -434 901 -502 1045 l-125 263
-360 0 -360 1 -62 131 c-35 72 -61 133 -59 135 2 2 71 -39 154 -92 l151 -95
585 0 586 0 167 -250 166 -250 114 0 c106 0 113 -1 113 -20 0 -17 7 -20 40
-20 33 0 40 3 40 20 0 18 7 20 65 20 58 0 65 -2 65 -20 0 -17 7 -20 40 -20 33
0 40 3 40 20 0 20 7 20 1095 20 924 0 1095 2 1095 14 0 7 41 378 90 822 50
445 89 817 88 826 -2 9 -301 318 -665 686 l-662 669 24 164 c24 163 130 885
141 967 6 38 9 42 35 42 16 0 29 1 29 3 0 2 -11 37 -25 77 -23 67 -25 88 -25
247 l0 173 263 0 262 0 414 -319 c227 -176 424 -321 437 -324 35 -6 442 157
471 189 l22 24 1473 0 1473 0 30 -55 29 -55 201 0 200 0 267 -185 c147 -102
271 -185 275 -185 5 0 42 20 82 45 40 25 77 45 83 45 5 0 51 -29 101 -63 51
-35 476 -328 945 -651 778 -537 852 -590 852 -615 0 -17 13 -42 33 -64 l32
-36 1690 -361 c930 -199 1720 -368 1758 -376 l67 -16 0 -317 0 -318 56 -21
c44 -16 61 -18 79 -10 20 9 115 -25 637 -227 994 -385 915 -353 922 -380 5
-19 25 -31 113 -65 98 -38 108 -40 120 -25 11 16 17 15 84 -10 59 -23 73 -25
80 -14 5 8 175 271 377 584 l369 570 307 3 c301 2 306 2 306 -18 0 -19 6 -20
210 -20 l210 0 90 135 c74 110 90 141 90 172 0 50 63 147 90 140 13 -3 23 7
38 39 15 30 18 44 9 47 -8 2 0 23 23 59 19 31 114 180 210 332 l175 275 72 1
72 0 62 117 62 117 -46 87 -47 86 193 22 c105 13 204 26 218 29 25 7 21 15
-216 382 -132 206 -344 523 -470 704 -202 289 -255 357 -436 560 l-205 231
-723 272 -723 273 -1086 281 -1087 281 -190 85 c-187 83 -195 86 -685 214
-383 100 -956 233 -2540 589 -1125 252 -2154 489 -2285 524 l-240 65 -1160
126 c-2912 316 -4808 474 -6780 565 -1026 48 -1126 51 -2005 60 -985 10 -1479
10 -2535 -1z"/>
</g>
</svg>
