<?xml version="1.0" standalone="no"?>
<!DOCTYPE svg PUBLIC "-//W3C//DTD SVG 20010904//EN"
 "http://www.w3.org/TR/2001/REC-SVG-20010904/DTD/svg10.dtd">
<svg version="1.0" xmlns="http://www.w3.org/2000/svg"
   viewBox="0 0 4115.000000 1773.000000"
 preserveAspectRatio="xMidYMid meet">
<metadata>
Created by potrace 1.16, written by Peter Selinger 2001-2019
</metadata>
<g transform="translate(0.000000,1773.000000) scale(0.100000,-0.100000)"
fill="#000000" stroke="none">
<path d="M12438 17721 c-207 -3 -379 -9 -382 -12 -4 -4 -68 -181 -142 -395
l-136 -389 -78 -549 -79 -549 55 -108 54 -109 -357 0 c-352 0 -368 1 -963 55
l-605 54 -705 115 c-866 142 -939 155 -970 173 -29 17 -45 40 -241 354 -108
172 -178 300 -261 472 l-113 236 -245 177 c-200 143 -274 191 -402 255 l-158
79 -2870 0 c-2289 0 -2870 -3 -2870 -12 0 -7 7 -49 16 -93 l16 -80 265 -220
c174 -144 381 -331 600 -540 l335 -320 -853 -2 -854 -3 -248 -97 -247 -98 87
-88 c49 -49 125 -120 170 -158 45 -38 103 -97 129 -132 26 -34 102 -118 170
-187 l123 -125 287 -600 c157 -330 346 -726 418 -880 l133 -280 46 -355 c37
-280 49 -412 58 -626 12 -263 9 -338 -18 -451 -4 -16 0 -25 13 -30 26 -9 34
-23 34 -60 0 -29 -6 -36 -72 -74 -39 -23 -89 -49 -110 -58 l-38 -16 2 -124 3
-125 290 -78 c254 -68 402 -99 1185 -248 1053 -199 959 -181 965 -190 3 -5
-15 -329 -40 -721 -25 -393 -44 -730 -43 -749 l3 -34 215 -62 215 -61 675 -42
c371 -23 704 -45 740 -49 l65 -8 298 -239 298 -240 -358 -117 c-197 -65 -395
-129 -440 -143 -108 -34 -108 -33 -68 -238 l31 -161 -53 -81 c-52 -78 -53 -82
-53 -153 0 -74 39 -251 97 -445 20 -67 24 -90 15 -96 -19 -12 24 -143 45 -139
12 2 24 -21 48 -92 59 -171 155 -394 199 -460 41 -62 46 -66 122 -94 43 -16
85 -29 92 -29 6 0 12 -1 12 -2 0 -14 114 -242 133 -264 l25 -30 993 324 c547
179 997 324 1002 322 5 -1 160 -237 346 -525 l337 -522 1294 -809 1295 -808
560 -124 560 -123 1195 108 c657 60 1219 111 1249 114 l54 5 -7 549 c-7 537
-6 549 12 536 10 -7 474 -375 1031 -818 l1011 -805 383 -152 c360 -143 386
-152 452 -153 l70 0 171 -323 c94 -177 307 -603 473 -946 292 -604 306 -629
418 -790 l116 -166 681 -238 681 -238 1090 -119 c600 -66 2040 -223 3200 -350
2534 -277 3924 -420 4085 -420 92 0 221 16 639 77 l524 78 142 345 c79 190
249 602 378 916 130 314 239 577 242 585 5 13 -14 19 -94 34 -55 10 -105 21
-111 25 -8 5 7 95 53 306 l64 299 111 3 112 3 0 209 0 210 28 -5 c15 -3 151
-23 302 -45 151 -22 344 -52 427 -66 84 -14 160 -23 169 -20 13 5 6 18 -36 66
l-52 60 81 0 81 0 0 55 c0 41 -262 1616 -296 1776 l-5 27 868 7 868 7 40 59
40 59 131 0 131 0 33 -41 33 -42 1541 7 1541 8 128 44 129 44 459 0 460 0 80
51 c44 28 79 55 77 60 -2 4 -38 30 -81 58 l-78 51 -463 0 -464 0 -114 42 -113
41 -1549 10 -1550 10 -35 -42 -36 -41 -130 0 -130 0 -40 58 -39 59 -694 6
c-382 3 -696 8 -698 10 -4 4 -124 811 -124 836 0 16 53 18 687 28 l687 11 36
-24 35 -23 1147 33 1148 33 35 24 c19 13 35 27 35 30 0 4 -17 18 -37 31 l-38
25 -1045 32 c-575 17 -1090 34 -1145 37 -99 6 -101 6 -134 -21 l-33 -28 -701
13 c-451 8 -704 16 -708 22 -10 15 -33 198 -26 204 5 6 3229 63 3562 64 l180
0 34 50 c33 48 36 50 80 50 25 0 582 16 1236 35 l1190 36 55 -59 55 -59 1435
73 c789 40 1450 73 1468 73 l32 1 0 135 c0 113 -2 135 -15 135 -8 0 -671 30
-1472 66 l-1458 65 -47 -52 -47 -51 -1218 31 c-670 17 -1227 31 -1238 31 -14
0 -30 17 -53 54 l-32 54 -172 6 c-95 3 -999 15 -2008 26 -2092 23 -2440 29
-2365 43 28 5 51 11 53 12 1 1 -23 112 -53 246 -53 236 -58 250 -136 419 l-81
175 -852 979 -851 980 -1125 863 c-619 476 -1782 1356 -2584 1956 -1358 1016
-1519 1133 -2305 1680 l-846 587 -989 507 -989 507 -216 -29 c-119 -15 -229
-27 -246 -27 -16 1 -273 35 -571 77 l-541 75 -1464 355 -1464 356 -1201 234
-1201 235 -274 -2 c-151 -1 -444 -4 -651 -7z"/>
</g>
</svg>
