<?xml version="1.0" standalone="no"?>
<!DOCTYPE svg PUBLIC "-//W3C//DTD SVG 20010904//EN"
 "http://www.w3.org/TR/2001/REC-SVG-20010904/DTD/svg10.dtd">
<svg version="1.0" xmlns="http://www.w3.org/2000/svg"
   viewBox="0 0 2033.000000 3936.000000"
 preserveAspectRatio="xMidYMid meet">
<metadata>
Created by potrace 1.16, written by Peter Selinger 2001-2019
</metadata>
<g transform="translate(0.000000,3936.000000) scale(0.100000,-0.100000)"
fill="#000000" stroke="none">
<path d="M3344 39328 c7 -18 176 -381 375 -807 198 -426 359 -776 358 -778 -2
-2 -57 -10 -123 -20 -65 -9 -123 -19 -128 -24 -7 -6 68 -379 105 -520 l9 -36
222 -37 c123 -21 227 -42 231 -46 5 -4 82 -167 173 -361 140 -303 161 -355
146 -360 -9 -3 -93 -16 -187 -29 -93 -13 -172 -24 -174 -26 -5 -4 130 -627
138 -636 4 -5 593 -118 615 -118 2 0 115 -241 252 -535 l249 -535 213 -227
213 -228 -33 -7 c-18 -4 -163 -16 -323 -28 -159 -12 -291 -22 -291 -23 -1 -1
-55 -117 -119 -257 -65 -140 -123 -260 -129 -266 -6 -6 -208 -28 -468 -52
l-457 -41 -120 -73 -120 -73 -1 -507 0 -506 103 -65 c56 -35 111 -69 123 -75
16 -9 852 -92 923 -92 13 0 49 -70 142 -270 119 -258 126 -270 162 -286 20 -9
37 -21 37 -25 0 -10 63 7 -775 -203 l-701 -175 -97 28 c-54 16 -150 39 -215
50 l-117 22 -530 -79 -530 -79 -568 -284 c-312 -156 -566 -287 -565 -290 2 -3
84 -75 183 -160 l180 -154 195 -51 c107 -28 464 -120 793 -205 l598 -154 -118
-6 c-65 -4 -359 -9 -653 -13 -294 -3 -588 -9 -653 -12 l-117 -7 -180 -118
-180 -118 0 -896 0 -896 182 -119 c132 -86 194 -121 223 -125 22 -3 429 -44
905 -90 l865 -85 22 -25 c13 -14 154 -170 314 -346 l291 -319 235 -147 c128
-80 238 -153 242 -162 5 -9 12 -113 16 -231 l7 -214 249 -293 248 -292 -47
-105 -47 -106 -185 -1 -185 0 -98 -129 -98 -129 -52 -5 c-29 -3 -131 -8 -226
-11 l-175 -6 -273 -171 -273 -170 2 -1065 3 -1066 270 -168 270 -169 225 0
225 0 74 -106 c48 -70 70 -109 62 -113 -6 -4 -298 -76 -649 -160 l-637 -152
-535 -316 c-294 -173 -539 -319 -544 -323 -4 -5 42 -82 103 -172 l110 -164
585 -133 584 -134 31 -117 31 -117 -31 -104 -31 -104 -136 -98 c-207 -148
-194 -133 -201 -207 l-6 -64 50 -47 50 -47 317 -63 c175 -35 314 -66 310 -70
-4 -4 -83 -21 -177 -38 -93 -18 -178 -34 -187 -37 -39 -12 -10 -97 70 -202 47
-62 68 -104 111 -218 60 -162 90 -284 91 -366 0 -45 4 -58 18 -62 9 -3 77 -23
149 -46 l133 -41 0 -145 c0 -79 -4 -144 -8 -144 -18 0 -576 -101 -580 -105
-10 -10 33 -95 86 -170 36 -52 74 -125 109 -213 56 -139 77 -229 88 -372 l7
-86 154 -39 154 -39 -2 -190 -3 -190 -293 -42 c-161 -23 -295 -44 -298 -47 -2
-2 3 -35 11 -73 13 -56 27 -83 74 -144 46 -60 68 -103 109 -213 58 -151 92
-297 92 -387 l0 -58 71 -33 71 -33 -7 -635 c-4 -350 -10 -639 -14 -642 -3 -3
-85 -37 -181 -76 -535 -215 -530 -213 -530 -244 0 -16 32 -93 71 -170 38 -78
68 -143 66 -145 -2 -3 -231 -12 -507 -21 l-503 -15 -84 -35 c-128 -54 -123
-37 -123 -443 0 -405 -5 -388 122 -443 l83 -35 565 -17 c311 -9 600 -19 643
-23 l77 -7 -86 -143 c-54 -90 -84 -151 -82 -165 2 -18 44 -40 245 -132 233
-105 242 -111 238 -135 -3 -14 -115 -421 -248 -904 l-243 -880 -76 -25 c-42
-14 -79 -28 -82 -31 -3 -3 109 -129 249 -280 l254 -275 -227 -9 -227 -9 -235
240 -235 240 -780 -119 c-429 -66 -781 -121 -783 -122 -1 -2 -38 -178 -82
-391 -45 -214 -82 -390 -83 -391 -1 0 -53 -14 -114 -29 l-113 -27 -16 -52
c-15 -49 -20 -54 -80 -85 l-64 -33 0 -83 0 -82 125 -68 c68 -37 135 -80 148
-94 l24 -26 -171 -890 c-94 -489 -174 -895 -178 -901 -5 -7 -25 -15 -45 -18
-107 -19 -176 -42 -185 -61 -5 -12 -43 -39 -84 -60 l-74 -40 0 -81 0 -80 124
-68 c69 -38 136 -80 150 -95 l25 -26 -54 -310 c-30 -171 -56 -320 -58 -332 -3
-15 55 -102 210 -315 118 -161 219 -298 226 -305 9 -10 216 45 956 252 519
145 945 266 946 267 1 2 95 386 209 853 115 468 209 851 210 852 1 2 103 14
227 28 123 13 242 27 264 30 36 5 26 -3 -85 -71 -69 -42 -127 -80 -130 -85 -3
-5 -96 -398 -205 -875 l-200 -866 -105 -97 -105 -98 -910 -222 c-712 -173
-924 -221 -975 -221 -36 0 -82 -3 -102 -6 l-38 -7 69 -76 68 -76 -20 -68 -20
-69 -127 -63 -126 -63 -52 -176 c-29 -97 -52 -180 -52 -185 0 -5 43 -24 96
-41 57 -19 94 -37 91 -44 -2 -6 -189 -567 -416 -1246 l-411 -1235 -91 -98 -91
-97 93 -98 c93 -99 105 -118 153 -254 27 -76 29 -78 154 -190 70 -62 134 -119
143 -126 12 -9 425 -31 1515 -83 1367 -64 1523 -70 1769 -63 l270 6 162 87
162 86 127 202 126 201 112 69 111 68 273 3 272 3 0 34 0 35 -265 0 c-246 0
-265 1 -265 18 0 9 -14 51 -31 92 l-30 75 391 1075 c216 591 396 1083 401
1093 6 10 77 108 158 218 l149 201 66 184 67 185 -44 98 -44 97 67 184 c48
132 72 186 86 191 10 5 89 20 174 35 140 25 172 35 330 101 157 66 181 80 230
128 l56 55 145 0 c120 0 156 4 204 20 50 17 84 20 250 20 151 0 202 3 240 16
l48 17 -49 18 c-42 16 -78 19 -245 19 -170 0 -204 3 -254 20 -47 16 -84 20
-199 20 l-140 0 -56 54 c-53 51 -63 56 -256 126 -111 40 -207 76 -213 80 -9 5
130 380 457 1244 258 680 472 1239 475 1243 4 3 94 22 200 42 180 34 206 42
371 111 169 71 180 77 209 120 17 25 35 48 41 52 6 4 79 8 162 8 125 0 161 3
209 20 50 17 85 20 254 21 164 0 203 3 240 18 l44 18 -42 16 c-34 14 -78 17
-235 17 -158 0 -201 3 -237 17 -33 13 -88 18 -219 23 l-175 5 -37 51 -38 50
-208 78 c-114 43 -211 82 -216 86 -7 7 396 1121 414 1142 3 4 59 19 124 32 65
13 121 28 126 32 4 5 39 80 78 167 60 133 68 157 52 157 -26 0 -224 21 -227
24 -2 2 37 127 42 133 1 2 57 14 125 28 68 14 124 26 125 28 7 9 144 321 142
323 -2 2 -201 24 -223 24 -11 0 -7 14 15 59 l30 58 123 24 123 25 72 159 c40
88 73 163 73 166 0 3 -53 11 -117 18 -64 6 -118 13 -120 15 -2 1 71 173 161
382 l163 379 260 101 c231 89 269 107 347 164 49 35 92 73 96 84 5 12 20 63
34 113 32 117 76 203 164 323 39 52 68 98 66 102 -2 4 -54 33 -114 64 -60 32
-107 60 -104 63 3 3 33 15 67 27 l62 21 28 104 c34 130 79 221 172 346 l72 98
-209 77 c-115 42 -211 78 -213 80 -1 1 107 280 242 619 l245 617 291 83 290
84 211 425 211 425 370 297 c204 163 375 305 382 315 6 10 75 183 154 385
l142 368 321 240 321 241 134 186 133 187 107 297 107 297 -62 123 -62 124
-286 155 -286 155 0 83 c0 72 2 82 18 82 10 0 229 18 488 40 440 37 486 43
684 85 l213 45 257 0 c220 0 259 -2 264 -15 8 -23 1606 -23 1606 0 0 12 -16
15 -87 15 -49 0 -347 7 -663 15 -316 8 -585 15 -597 15 -14 0 -23 6 -23 15 0
13 -50 15 -386 15 l-386 0 -132 40 -131 39 -485 36 c-267 19 -503 39 -524 43
l-39 7 -60 178 -59 178 39 86 39 86 100 39 c97 38 109 40 504 88 223 26 493
55 600 64 274 24 257 15 177 89 l-66 62 402 612 c222 337 408 618 414 624 8 8
35 7 104 -5 51 -8 94 -14 95 -13 1 1 -67 65 -152 142 -150 137 -157 142 -334
235 -128 67 -179 99 -177 110 2 8 39 99 82 201 l78 185 291 17 c160 10 299 17
309 17 13 0 17 8 17 40 0 22 -1 40 -2 41 -2 0 -139 9 -306 19 -167 10 -306 20
-308 23 -3 3 -8 30 -11 60 l-6 55 39 25 39 25 422 11 c376 11 428 14 465 31
40 17 84 19 563 25 489 6 525 7 599 27 l80 22 -71 21 c-67 21 -98 22 -599 29
-487 7 -532 9 -572 26 -37 17 -89 20 -465 31 -414 11 -423 12 -463 35 -39 22
-42 27 -49 81 -5 45 -41 131 -156 378 l-150 320 -324 325 -325 325 0 451 0
450 1669 658 c918 363 1674 662 1679 665 11 8 343 432 349 446 4 11 -73 188
-97 224 -14 20 -69 26 -1125 127 -610 59 -1114 110 -1118 114 -4 4 9 71 30
149 31 117 42 143 58 146 11 3 1105 153 2430 335 1326 181 2425 332 2443 335
32 6 37 15 241 428 115 232 213 436 219 454 10 30 9 31 -21 37 -18 3 -1132
204 -2477 446 l-2445 441 -995 39 c-547 22 -1018 40 -1046 40 l-51 0 -32 86
-31 86 0 347 0 346 125 108 124 107 990 0 989 0 304 -95 303 -94 396 -10 c219
-6 456 -18 530 -26 100 -11 214 -15 445 -13 l310 3 -310 447 -311 447 -312
145 -311 146 -95 0 -94 0 -747 425 -747 425 -633 0 -634 0 -48 -140 -49 -140
-463 0 -464 0 -165 -121 -166 -121 -32 34 c-18 18 -164 177 -325 353 l-293
320 -171 85 -171 86 -509 99 -509 100 -133 140 c-74 77 -359 406 -633 730
l-499 590 65 7 c49 5 79 15 117 39 28 17 70 44 94 58 l42 26 0 75 0 75 -85 53
c-47 30 -98 58 -113 63 -15 5 -132 18 -260 29 -231 20 -233 20 -256 48 -13 15
-238 279 -500 587 l-476 560 0 62 0 61 -97 54 -98 53 -720 852 -720 852 -721
1 -721 0 -135 75 -135 75 -432 0 -431 0 14 -32z m776 -30927 c0 -5 -49 -220
-110 -477 -60 -258 -110 -472 -110 -475 0 -4 37 -34 82 -68 45 -34 77 -61 72
-61 -15 0 -479 62 -482 65 -1 1 55 232 124 513 l127 512 148 0 c82 0 149 -4
149 -9z"/>
</g>
</svg>
