<?xml version="1.0" standalone="no"?>
<!DOCTYPE svg PUBLIC "-//W3C//DTD SVG 20010904//EN"
 "http://www.w3.org/TR/2001/REC-SVG-20010904/DTD/svg10.dtd">
<svg version="1.0" xmlns="http://www.w3.org/2000/svg"
   viewBox="0 0 3604.000000 679.000000"
 preserveAspectRatio="xMidYMid meet">
<metadata>
Created by potrace 1.16, written by Peter Selinger 2001-2019
</metadata>
<g transform="translate(0.000000,679.000000) scale(0.100000,-0.100000)"
fill="#000000" stroke="none">
<path d="M541 6735 c-30 -39 -41 -64 -41 -89 0 -30 -7 -39 -50 -71 l-50 -37 0
-339 0 -339 49 -37 c46 -35 50 -42 50 -80 1 -38 9 -52 76 -132 45 -54 91 -99
114 -111 39 -19 39 -20 30 -59 -24 -105 -99 -453 -99 -457 0 -2 -8 -4 -18 -4
-14 0 -26 -33 -66 -179 l-48 -179 -80 -113 c-43 -63 -107 -159 -142 -214 l-64
-100 -25 -177 -26 -176 25 -132 c24 -126 30 -142 119 -321 l95 -188 197 -152
c109 -83 206 -154 216 -157 12 -3 17 -15 17 -42 l0 -39 -52 -5 c-29 -3 -133
-8 -231 -10 l-179 -6 -179 -66 -179 -67 0 -523 0 -522 180 -81 180 -81 370
-35 c359 -34 384 -35 820 -35 l450 0 131 57 131 58 189 173 189 173 0 58 0 58
188 52 c303 84 280 73 458 211 l161 125 56 110 c53 102 61 126 108 335 51 232
57 245 114 277 18 10 35 211 35 411 l0 133 42 60 43 61 5 -391 5 -391 81 -49
81 -49 133 -10 132 -10 42 -41 42 -41 714 0 714 0 42 41 42 41 132 10 132 10
84 50 84 51 0 346 1 346 48 37 48 37 55 -44 55 -43 7 -308 c7 -342 21 -449 61
-464 11 -5 97 -14 190 -20 185 -13 172 -8 260 -91 l50 -47 585 18 c322 11 622
19 667 20 81 0 81 0 135 43 l53 44 190 12 c104 6 190 13 190 14 1 1 16 27 33
58 l32 56 0 355 0 354 55 54 55 54 60 -59 60 -59 0 -321 0 -320 109 -225 110
-225 116 -122 117 -123 3421 0 3422 0 198 127 198 126 134 236 135 237 1 304
1 305 64 59 65 60 54 -54 55 -54 0 -327 0 -326 111 -229 110 -229 117 -117
117 -118 3419 0 3419 0 198 127 197 127 136 236 136 237 0 301 0 302 23 0 c14
0 44 21 81 59 l59 60 66 -60 c36 -32 71 -59 78 -59 10 0 13 -110 13 -534 l0
-534 68 -54 c101 -82 105 -83 272 -113 128 -24 164 -34 210 -62 44 -26 86 -39
205 -62 l150 -30 1012 -16 1013 -17 77 42 c43 23 101 57 128 76 l50 34 1055
29 1055 29 150 70 150 70 0 1646 0 1647 -148 65 -148 64 -2562 0 -2562 -1 -90
-63 -90 -63 -3 -641 c-2 -512 -5 -642 -15 -642 -7 0 -39 -27 -72 -60 l-59 -60
-61 60 c-38 37 -69 60 -83 60 l-22 0 0 276 0 277 -135 236 -135 236 -198 127
-197 128 -3420 0 -3420 0 -117 -117 -117 -118 -110 -229 -111 -229 0 -301 0
-300 -52 -53 -51 -52 -69 61 -68 61 0 277 0 276 -135 236 -135 235 -198 126
-197 127 -3422 0 -3421 0 -116 -122 -117 -123 -109 -224 -110 -224 0 -296 0
-295 -57 -58 -56 -57 -53 46 -53 45 1 529 c1 586 6 532 -69 618 l-38 43 -1147
-7 -1146 -8 -47 -74 -47 -74 6 -557 7 -557 -48 -36 -48 -37 -48 42 -47 41 0
542 0 542 -84 50 -84 51 -1062 0 -1062 0 -84 -51 -84 -50 -2 -475 -3 -474 -42
62 c-38 56 -43 69 -43 121 l0 57 -70 0 -69 0 -3 593 c-3 583 -4 593 -26 667
-19 63 -34 89 -88 151 -62 73 -71 79 -188 133 -100 45 -133 56 -175 56 -29 0
-60 4 -70 9 -9 5 -45 43 -78 83 l-61 74 -124 47 -124 47 -282 0 -282 0 0 30 0
30 -769 0 -769 0 -41 -55z"/>
<path d="M33445 5546 c-91 -15 -200 -66 -299 -139 l-79 -59 -338 -5 -339 -6 0
30 0 30 -187 6 c-104 4 -243 7 -310 7 -122 0 -123 0 -208 -39 l-85 -40 0 -175
0 -176 -80 0 -80 0 0 -207 0 -208 -70 -77 -70 -76 0 -327 0 -327 67 -73 c55
-60 74 -74 105 -79 l38 -6 0 -50 c0 -43 3 -50 20 -50 11 0 20 -4 20 -10 0 -5
19 -52 42 -105 l43 -95 105 0 105 0 24 -67 c93 -264 104 -284 226 -461 93
-136 137 -190 207 -253 48 -44 88 -84 88 -88 0 -4 -20 -14 -44 -22 -32 -10
-81 -49 -188 -147 l-145 -133 -31 -102 c-146 -475 -144 -464 -80 -590 23 -45
62 -139 87 -209 l46 -127 165 -156 c154 -145 187 -170 499 -382 l334 -226 216
-79 c119 -43 293 -108 386 -143 l170 -63 720 -16 c396 -9 794 -19 885 -22
l165 -5 136 98 c111 80 152 117 225 202 l88 104 6 85 5 85 -45 58 c-27 34 -61
65 -84 75 -25 12 -68 52 -117 110 -78 90 -81 92 -189 140 -72 32 -110 54 -110
64 0 9 16 105 35 213 l35 197 0 347 0 346 -85 307 c-80 289 -90 318 -176 501
l-91 194 -90 84 -89 83 7 167 c12 307 -30 501 -182 837 -55 123 -96 196 -148
267 -68 94 -79 104 -265 238 -180 131 -201 143 -313 184 -80 30 -144 47 -194
51 l-74 7 0 222 0 221 -39 22 c-49 28 -100 28 -134 2 l-26 -21 -11 22 c-14 25
-68 49 -107 48 -15 -1 -59 -6 -98 -13z"/>
</g>
</svg>
