<?xml version="1.0" standalone="no"?>
<!DOCTYPE svg PUBLIC "-//W3C//DTD SVG 20010904//EN"
 "http://www.w3.org/TR/2001/REC-SVG-20010904/DTD/svg10.dtd">
<svg version="1.0" xmlns="http://www.w3.org/2000/svg"
   viewBox="0 0 4647.000000 1506.000000"
 preserveAspectRatio="xMidYMid meet">
<metadata>
Created by potrace 1.16, written by Peter Selinger 2001-2019
</metadata>
<g transform="translate(0.000000,1506.000000) scale(0.100000,-0.100000)"
fill="#000000" stroke="none">
<path d="M35293 15029 c-111 -18 -173 -33 -208 -51 -27 -14 -70 -32 -95 -39
-26 -8 -81 -41 -130 -79 -47 -36 -90 -69 -97 -73 -18 -11 -63 3 -63 21 0 13
-14 14 -102 9 -192 -11 -290 -47 -426 -155 -88 -70 -90 -74 -85 -107 5 -33 4
-34 -33 -41 -22 -4 -104 -19 -184 -35 l-145 -27 -82 35 -82 35 -98 -21 c-233
-50 -261 -61 -355 -136 l-87 -70 -583 -141 -583 -141 -85 42 c-138 69 -133 69
-447 -29 -149 -47 -280 -86 -292 -86 -11 0 -40 21 -64 47 -43 45 -47 47 -110
51 -81 5 -400 -22 -635 -53 -135 -18 -177 -27 -186 -41 -10 -13 -29 -17 -75
-18 -65 -1 -63 -2 -106 58 -14 18 -19 19 -92 8 -69 -11 -1034 -225 -1135 -253
-26 -6 -38 -15 -38 -27 0 -9 25 -110 54 -223 l53 -207 -31 -15 c-17 -8 -70
-48 -118 -88 -83 -71 -92 -75 -200 -107 -62 -18 -446 -136 -853 -262 -613
-190 -810 -256 -1145 -383 -404 -152 -406 -153 -625 -280 l-220 -127 -72 -135
c-40 -74 -73 -140 -73 -145 0 -6 -2 -10 -4 -10 -3 0 -398 -120 -878 -266 -480
-146 -884 -268 -898 -270 -24 -5 -28 0 -59 75 -19 45 -38 84 -43 87 -5 3 -96
-4 -202 -17 l-193 -22 -86 72 -86 72 -107 -30 -107 -30 -91 35 c-50 19 -96 40
-102 47 -6 7 -37 75 -69 152 -31 77 -58 141 -60 143 -1 2 -94 -9 -206 -24
l-204 -26 -885 -332 c-804 -301 -885 -334 -882 -353 2 -18 -16 -28 -148 -81
-82 -33 -152 -56 -156 -51 -10 17 -40 9 -204 -60 -141 -60 -167 -68 -180 -56
-8 7 -44 17 -80 21 -36 3 -70 11 -77 16 -26 21 -167 -26 -266 -89 -63 -41
-160 -159 -154 -189 2 -14 -2 -25 -13 -31 -9 -4 -118 -120 -240 -258 l-223
-250 -168 -110 -167 -109 -41 -154 c-22 -85 -42 -156 -45 -159 -2 -2 -215 14
-473 36 l-468 41 -605 -58 -605 -58 -11 46 c-6 25 -18 61 -27 81 -18 44 -114
126 -190 164 -52 25 -61 26 -149 21 -51 -3 -151 -9 -223 -12 l-130 -6 -20 26
-20 25 -60 -15 -59 -16 -22 27 -21 26 -139 -64 c-76 -35 -138 -68 -137 -73 1
-5 4 -25 8 -44 l6 -35 -226 -84 c-180 -68 -228 -82 -235 -71 -6 9 -46 17 -124
23 -86 8 -116 14 -116 24 0 7 -1 13 -3 13 -35 0 -139 -30 -221 -65 -144 -60
-245 -131 -308 -215 -51 -68 -51 -68 -86 -58 -47 13 -89 4 -175 -38 -117 -56
-139 -73 -198 -149 -56 -71 -56 -72 -43 -105 8 -18 13 -34 12 -35 -106 -74
-226 -176 -296 -252 -91 -98 -91 -98 -169 -119 -414 -112 -935 -263 -1196
-346 l-318 -101 -59 28 -59 28 -131 -12 -131 -13 -47 31 c-29 18 -83 39 -137
52 -88 20 -92 21 -255 4 -133 -13 -832 -125 -1106 -176 l-60 -12 -110 61
c-129 72 -216 92 -392 92 -126 0 -220 -22 -459 -107 -122 -43 -131 -48 -121
-66 7 -13 7 -22 0 -26 -7 -4 -4 -34 9 -86 10 -44 19 -83 19 -86 0 -3 -38 -11
-85 -18 l-85 -13 0 -84 0 -84 -230 0 -230 0 0 -25 0 -26 -418 7 c-229 4 -418
8 -420 9 -2 1 5 19 15 40 17 36 17 37 -4 53 -147 115 -183 138 -309 196 -131
61 -150 67 -328 100 -170 33 -205 36 -362 36 l-174 0 0 -48 0 -48 -142 -19
c-165 -20 -168 -21 -168 -45 0 -14 -14 -18 -97 -23 -154 -11 -183 -9 -183 8 0
13 -12 14 -72 9 -98 -7 -118 -12 -118 -28 0 -14 -67 -26 -150 -26 -25 0 -65
-6 -90 -14 -32 -9 -52 -10 -67 -3 -26 11 -145 -6 -597 -88 -165 -30 -306 -61
-315 -68 -9 -8 -88 -77 -177 -154 l-160 -141 -259 -54 -258 -53 -51 -134 -51
-135 -327 -158 -327 -158 -170 16 c-153 15 -173 15 -194 1 -20 -13 -25 -13
-33 -1 -6 10 -38 14 -114 16 l-105 2 -65 -39 c-36 -21 -80 -52 -99 -69 -46
-43 -134 -175 -127 -191 3 -8 0 -18 -7 -22 -7 -5 -12 -16 -12 -27 0 -14 -92
-69 -390 -233 -215 -119 -390 -216 -391 -217 -4 -5 26 -450 31 -455 4 -3 73
-20 153 -36 131 -28 147 -33 150 -52 4 -25 46 -37 195 -55 l87 -11 21 -71 c11
-39 24 -84 30 -100 5 -17 6 -33 2 -36 -6 -5 -153 -106 -241 -165 -1 -1 7 -22
17 -46 l20 -44 -26 -21 -27 -21 24 -74 c36 -115 44 -127 87 -131 34 -3 37 -6
55 -58 10 -30 22 -57 26 -61 4 -4 38 -1 77 6 77 15 93 13 44 -4 -28 -9 -30
-14 -24 -38 3 -16 28 -74 55 -130 48 -102 48 -103 28 -117 l-21 -15 34 -105
c25 -81 37 -106 50 -106 13 0 24 -21 44 -80 l27 -80 36 6 37 6 69 -140 69
-140 89 -16 c81 -15 96 -22 173 -76 46 -33 88 -60 94 -60 6 0 0 -17 -14 -38
-14 -21 -30 -65 -36 -97 -8 -39 -19 -66 -33 -77 l-20 -16 37 -54 c66 -93 101
-128 132 -128 15 0 51 -13 79 -29 93 -53 137 -62 289 -62 106 1 144 4 160 16
29 20 87 20 87 0 0 -13 24 -15 160 -15 121 0 160 -3 160 -12 0 -25 76 -61 195
-94 66 -19 128 -34 138 -34 9 0 17 -3 17 -7 0 -5 45 -9 100 -11 74 -2 107 1
129 13 20 10 58 15 113 15 l83 0 -3 -50 c-2 -28 -1 -62 2 -75 l6 -25 239 0
c212 0 278 4 597 40 198 22 571 61 829 85 432 42 483 49 625 85 158 40 276 55
640 81 85 6 157 13 160 16 3 2 7 30 10 61 l5 57 288 3 287 2 0 247 0 246 112
-6 c62 -4 231 -7 376 -7 l262 0 0 -144 0 -143 200 -33 200 -33 0 -37 c0 -32 7
-42 48 -77 l47 -40 950 -6 950 -6 685 168 685 168 2 39 c2 21 6 63 9 92 l5 52
150 0 149 0 0 -50 0 -50 615 2 615 3 0 -152 0 -153 795 0 795 0 0 -115 0 -114
122 -3 122 -3 33 -75 c18 -41 34 -79 36 -83 1 -5 65 -25 142 -44 l140 -35 316
-7 315 -6 70 -61 c51 -46 108 -81 219 -137 135 -67 182 -84 475 -170 l325 -96
612 -61 612 -61 988 41 c839 35 1066 48 1508 85 l520 44 175 53 175 53 3 153
3 152 189 0 190 0 0 -78 0 -79 463 -6 c455 -6 471 -6 1010 -57 302 -28 621
-62 710 -76 224 -35 941 -218 1132 -289 149 -55 345 -151 345 -169 0 -6 -14
-75 -32 -155 l-31 -146 146 -140 146 -140 212 -99 212 -99 236 -49 236 -49
239 10 239 10 179 57 178 57 0 174 c0 109 4 173 10 173 6 0 10 -50 10 -130 l0
-130 419 0 419 0 27 36 27 35 131 -4 c102 -3 169 -12 295 -39 89 -19 164 -37
166 -39 2 -2 16 -69 31 -149 l27 -145 130 -121 131 -122 346 -150 346 -151
327 -56 326 -55 439 0 c421 0 1166 22 1913 56 303 14 394 22 623 55 l268 38
160 112 c88 61 166 112 174 113 7 0 50 -47 94 -106 l81 -108 1433 0 1432 1 92
117 c51 64 98 125 106 136 13 18 23 13 193 -88 l180 -106 211 0 211 0 16 25
16 25 1434 0 1434 0 27 -80 26 -79 52 -19 c29 -11 153 -36 277 -55 223 -35
228 -36 625 -41 468 -6 508 -2 580 65 l42 39 669 -10 c368 -6 977 -15 1353
-22 l683 -11 -4 -74 c-4 -86 -16 -79 142 -88 134 -8 712 -5 766 3 l41 7 -87
240 -87 240 38 5 37 5 -94 200 c-80 171 -92 202 -79 211 8 6 15 14 15 18 0 4
-64 82 -143 174 -78 92 -286 353 -462 580 -292 376 -322 419 -345 486 -27 80
-59 133 -129 214 -49 56 -156 123 -289 183 l-73 32 -29 -34 c-15 -19 -39 -46
-52 -61 l-23 -26 -173 76 -173 76 6 115 6 116 -52 58 c-28 32 -73 69 -100 82
-26 14 -50 29 -53 34 -6 9 78 422 93 457 7 17 26 23 122 37 123 19 117 15 167
98 l23 38 -23 5 c-13 3 -72 12 -132 21 -61 8 -112 17 -114 20 -2 2 21 51 52
108 64 118 49 109 211 128 144 16 149 18 168 73 l16 46 -107 1 c-59 1 -198 4
-309 7 l-202 7 -28 32 c-15 17 -104 79 -196 137 l-169 106 -126 0 -127 0 -111
111 -112 111 -237 32 -236 31 -244 165 -243 165 -28 110 c-20 82 -37 124 -65
165 -76 112 -180 189 -367 273 -68 30 -84 34 -88 22 -4 -8 -10 -13 -14 -10 -4
3 -22 -19 -38 -48 -46 -81 -48 -82 -121 -35 l-64 40 -57 -11 c-57 -12 -58 -11
-251 57 -188 66 -194 69 -194 95 1 20 -29 66 -106 165 l-106 138 23 174 c13
96 36 224 51 284 l28 108 105 58 c105 58 105 58 117 107 19 82 23 78 -80 97
l-94 18 100 273 99 274 66 3 65 3 77 218 c49 139 98 259 136 329 56 105 64
115 180 217 66 59 182 154 257 212 l136 104 1 182 0 182 -35 7 c-19 3 -35 10
-35 14 0 4 13 73 30 153 28 138 33 152 91 252 60 103 64 108 126 138 l63 31 0
71 0 70 98 23 c53 12 109 22 123 22 15 0 104 41 198 92 l171 91 0 67 0 66 -72
22 c-40 12 -82 23 -93 24 -11 2 103 57 254 123 l273 120 116 126 c103 110 128
145 204 280 93 164 134 268 198 497 37 133 40 152 40 270 0 70 -6 166 -14 215
-7 48 -10 87 -7 87 3 0 12 4 19 8 9 6 2 30 -29 98 -23 49 -42 90 -43 91 -1 1
-105 7 -231 13 -125 5 -230 12 -232 14 -2 2 2 83 8 180 12 165 14 177 33 182
25 6 98 105 115 153 14 42 14 142 0 196 -17 69 -19 67 54 84 38 9 72 23 76 31
5 8 23 70 41 137 l33 121 35 7 c19 3 63 21 99 38 56 28 67 38 90 85 23 47 25
61 21 134 -5 80 -6 82 -44 114 -21 18 -59 42 -84 54 -38 19 -62 45 -150 166
l-104 144 -186 107 c-163 95 -234 128 -595 275 -275 112 -501 197 -685 257
-250 81 -301 94 -555 141 -308 56 -1074 236 -1090 256 -7 7 -149 29 -377 58
-202 25 -371 46 -377 46 -6 0 -11 11 -11 25 0 19 -5 25 -22 25 -13 0 -234 20
-493 45 -687 65 -622 62 -761 30 l-119 -28 -230 12 c-126 6 -247 14 -267 17
-37 6 -38 5 -38 -26 l0 -31 -52 6 c-29 3 -190 17 -358 29 l-305 23 -504 -58
c-277 -33 -507 -59 -511 -59 -4 0 -11 14 -16 31 -9 30 -16 34 -157 84 -82 28
-148 54 -148 58 1 4 1 11 1 16 0 21 -160 16 -317 -10z"/>
</g>
</svg>
