<?xml version="1.0" standalone="no"?>
<!DOCTYPE svg PUBLIC "-//W3C//DTD SVG 20010904//EN"
 "http://www.w3.org/TR/2001/REC-SVG-20010904/DTD/svg10.dtd">
<svg version="1.0" xmlns="http://www.w3.org/2000/svg"
   viewBox="0 0 4094.000000 3372.000000"
 preserveAspectRatio="xMidYMid meet">
<metadata>
Created by potrace 1.16, written by Peter Selinger 2001-2019
</metadata>
<g transform="translate(0.000000,3372.000000) scale(0.100000,-0.100000)"
fill="#000000" stroke="none">
<path d="M24045 33618 l-2460 -99 -2535 -329 -2535 -330 -1079 -220 c-593
-121 -1083 -220 -1087 -220 -5 0 -9 74 -9 165 l0 165 -77 105 -78 104 -1176 1
-1176 0 -141 -219 -141 -219 55 -304 c30 -166 56 -313 59 -324 4 -18 -1 -23
-28 -28 -18 -3 -568 -292 -1222 -642 l-1190 -636 -796 -540 -797 -539 -161
-155 -160 -154 -81 0 -80 0 0 -77 -1 -78 -259 -248 -259 -247 -788 -159 -788
-159 -1260 -669 -1260 -668 -397 -595 c-347 -518 -396 -595 -380 -604 9 -5
296 -174 637 -374 l620 -365 298 -226 c278 -211 296 -226 270 -233 -16 -4
-476 -62 -1023 -128 -547 -67 -995 -122 -996 -123 -1 -1 -38 -157 -83 -347
-45 -190 -85 -354 -90 -365 -7 -15 -175 -85 -700 -290 l-691 -270 3 -1095 2
-1094 680 -267 c374 -147 687 -273 697 -280 9 -8 54 -103 99 -211 46 -109 89
-198 95 -198 17 0 2131 -258 2172 -265 l32 -6 0 -347 0 -347 1638 -289 c900
-158 1658 -293 1685 -298 l47 -10 0 -2054 0 -2054 3969 0 3969 0 35 -47 c18
-27 106 -156 195 -288 l160 -240 16 -790 c9 -434 19 -827 22 -872 l6 -83 2111
-2 2111 -3 1520 -2002 1521 -2003 971 0 972 0 25 -63 c13 -34 440 -1133 947
-2442 757 -1953 947 -2433 1057 -2675 74 -162 137 -300 140 -307 4 -9 -25 -13
-114 -15 l-119 -3 766 -1160 766 -1160 2227 -3 2227 -2 0 808 c0 445 3 971 7
1170 l6 362 -106 0 -107 0 0 295 0 295 -165 0 -165 0 0 2080 0 2080 160 0 160
0 0 370 0 370 341 0 340 0 -6 468 c-21 1491 -73 7218 -65 7226 4 4 361 225
793 490 l785 481 591 749 c343 435 591 758 591 770 1 18 52 46 308 170 169 82
326 156 348 165 23 9 380 196 792 416 l751 399 3 44 3 45 93 31 93 31 1165
1120 c641 616 1180 1135 1199 1152 l34 33 170 962 169 962 -442 1217 -441
1216 -704 669 -704 669 -2021 971 c-1112 534 -2176 1052 -2366 1151 l-345 179
-97 140 c-53 76 -135 195 -182 264 l-85 125 -129 615 -129 616 -478 754 c-263
415 -479 757 -481 759 -2 2 -367 134 -811 293 l-808 290 -2090 124 c-1149 68
-2097 123 -2105 123 -8 -1 -1122 -46 -2475 -101z"/>
</g>
</svg>
