<?xml version="1.0" standalone="no"?>
<!DOCTYPE svg PUBLIC "-//W3C//DTD SVG 20010904//EN"
 "http://www.w3.org/TR/2001/REC-SVG-20010904/DTD/svg10.dtd">
<svg version="1.0" xmlns="http://www.w3.org/2000/svg"
   viewBox="0 0 4549.000000 2875.000000"
 preserveAspectRatio="xMidYMid meet">
<metadata>
Created by potrace 1.16, written by Peter Selinger 2001-2019
</metadata>
<g transform="translate(0.000000,2875.000000) scale(0.100000,-0.100000)"
fill="#000000" stroke="none">
<path d="M27467 28629 c-160 -101 -194 -119 -229 -119 -37 0 -40 -2 -35 -22 5
-19 -3 -29 -52 -58 l-57 -35 199 -695 c142 -497 211 -756 242 -910 36 -179
161 -622 739 -2622 383 -1324 696 -2411 696 -2416 0 -5 -857 -12 -1970 -16
l-1969 -6 -66 -41 c-36 -23 -65 -46 -65 -53 -2 -40 -48 -387 -52 -391 -3 -3
-185 30 -404 73 -395 78 -399 79 -397 103 3 23 -30 34 -1480 468 -815 244
-1489 446 -1498 448 -13 4 -36 -33 -99 -154 -45 -87 -83 -159 -84 -160 -1 -2
-823 159 -1826 357 -1003 198 -1828 359 -1832 358 -4 -2 62 -62 147 -133 85
-72 151 -131 147 -132 -4 -2 -587 -95 -1297 -208 -1132 -181 -1298 -205 -1358
-199 l-69 7 8 213 7 214 -44 -6 c-168 -21 -445 -50 -451 -47 -5 2 -8 30 -8 63
0 54 2 58 27 65 39 9 370 209 352 213 -8 1 -67 -4 -132 -11 -94 -11 -133 -11
-193 -1 -74 11 -80 10 -203 -22 -119 -32 -223 -45 -1778 -209 -908 -96 -1654
-175 -1657 -175 -2 0 -131 -134 -287 -297 -155 -164 -300 -317 -323 -340 l-41
-42 -1115 -255 c-613 -140 -1344 -302 -1625 -360 l-510 -104 -2145 -27 -2145
-26 -983 -43 c-540 -24 -984 -45 -986 -47 -38 -46 -564 -874 -558 -878 6 -3
409 -280 896 -616 709 -488 886 -614 886 -632 0 -15 9 -24 32 -32 17 -6 150
-88 294 -182 l263 -171 -6 -721 c-5 -599 -3 -784 11 -1087 15 -322 15 -380 3
-490 -8 -69 -14 -126 -13 -126 1 -1 520 -13 1154 -27 l1154 -26 126 -75 c99
-58 212 -109 507 -229 l380 -155 2045 -106 c1125 -59 3042 -163 4260 -231
l2215 -126 410 -176 c226 -97 896 -397 1490 -668 l1080 -493 1155 -35 1155
-35 96 -47 96 -46 804 -1567 c442 -862 826 -1611 853 -1664 l50 -97 380 -164
c210 -91 526 -227 703 -303 l323 -139 -69 -3 c-38 -2 -74 -8 -79 -15 -6 -7
-639 -1420 -1407 -3141 -768 -1721 -1401 -3138 -1406 -3148 -70 -131 300 427
1951 2939 1069 1627 1944 2959 1945 2961 4 4 2175 -932 2175 -938 0 -3 -186
-78 -413 -166 -346 -136 -412 -165 -410 -180 1 -11 -4 -239 -12 -509 -8 -269
-13 -490 -12 -491 1 -1 457 4 1012 12 556 7 1666 16 2469 20 1434 7 1458 7
1452 -12 -25 -82 -516 -1841 -516 -1850 0 -7 32 -41 70 -77 38 -36 70 -70 70
-76 0 -7 -160 -679 -355 -1494 -318 -1323 -379 -1567 -576 -2280 -122 -439
-219 -800 -217 -803 3 -2 155 -38 339 -79 184 -42 341 -78 350 -81 12 -3 31
21 72 89 l56 94 98 6 c114 8 193 9 193 3 0 -3 -9 -42 -20 -88 -24 -99 -25
-117 -8 -100 21 21 27 14 30 -35 l3 -46 128 139 c82 89 154 157 201 189 l73
49 488 1701 c268 935 579 2017 690 2405 157 545 380 1333 532 1881 4 15 36 6
226 -57 122 -41 222 -74 223 -74 1 0 142 166 313 368 170 203 317 374 325 381
17 14 1618 67 2407 79 l446 7 -75 403 c-41 221 -72 405 -70 408 13 13 1446
-86 2980 -206 l1667 -130 1158 -345 c637 -190 1170 -350 1184 -354 l25 -9 234
809 234 809 141 1 c77 0 642 8 1255 18 l1115 17 -525 7 c-289 4 -849 11 -1246
15 l-721 7 168 580 c92 319 167 580 166 581 -1 1 -231 86 -512 189 -280 104
-513 191 -516 194 -4 3 1 39 11 79 l18 74 -92 43 c-50 23 -851 416 -1781 872
-1501 735 -1719 845 -1945 979 -140 83 -415 242 -610 353 -195 112 -407 236
-471 277 -64 41 -119 74 -123 74 -4 0 -162 -110 -351 -244 l-344 -245 -336
150 -335 151 -1433 814 c-803 458 -1447 830 -1466 848 l-33 33 18 389 17 389
97 275 c54 151 106 296 116 322 l18 46 -79 261 c-43 144 -82 261 -87 261 -5 0
-266 230 -581 512 -315 281 -576 514 -581 519 -4 4 -77 244 -161 534 l-153
527 21 89 20 88 -116 333 c-65 183 -117 339 -117 346 0 7 -15 19 -33 27 -26
11 -36 23 -46 55 -7 23 -11 43 -9 45 2 2 1002 19 2223 39 1221 19 2337 39
2480 43 211 5 -215 15 -2244 50 -1378 23 -2508 46 -2512 50 -4 5 -579 1986
-1279 4403 l-1272 4395 -65 85 c-36 47 -95 124 -132 172 -36 48 -69 88 -72 88
-3 0 -34 -91 -68 -202 -35 -112 -67 -207 -71 -212 -5 -4 -56 -19 -115 -31
l-107 -23 -90 186 c-50 103 -98 204 -108 226 -16 35 -27 42 -130 87 -62 27
-120 50 -129 53 -9 2 -100 -49 -204 -115z"/>
<path d="M11428 24057 l-75 -174 1461 -413 c804 -228 1472 -415 1486 -417 21
-2 46 20 150 136 69 76 125 144 125 151 0 8 -522 162 -1515 446 -833 238
-1525 435 -1536 438 -20 5 -29 -11 -96 -167z"/>
<path d="M22561 24080 c20 -36 327 -617 684 -1292 356 -676 653 -1228 659
-1228 6 1 30 11 53 23 l41 22 -727 1262 c-649 1127 -822 1423 -710 1213z"/>
</g>
</svg>
