<?xml version="1.0" standalone="no"?>
<!DOCTYPE svg PUBLIC "-//W3C//DTD SVG 20010904//EN"
 "http://www.w3.org/TR/2001/REC-SVG-20010904/DTD/svg10.dtd">
<svg version="1.0" xmlns="http://www.w3.org/2000/svg"
   viewBox="0 0 3651.000000 811.000000"
 preserveAspectRatio="xMidYMid meet">
<metadata>
Created by potrace 1.16, written by Peter Selinger 2001-2019
</metadata>
<g transform="translate(0.000000,811.000000) scale(0.100000,-0.100000)"
fill="#000000" stroke="none">
<path d="M1772 7903 c-7 -115 -12 -431 -12 -706 l0 -497 -52 -78 c-45 -68 -71
-93 -197 -190 l-146 -112 -405 0 -405 1 -55 75 c-30 42 -64 82 -75 90 -13 10
-50 14 -120 14 l-101 0 -94 -132 -94 -133 -7 -160 c-10 -209 -10 -3832 0
-4040 l7 -160 94 -132 93 -133 76 0 c141 0 145 2 214 96 l62 83 405 1 406 0
144 -111 c123 -93 152 -122 197 -187 l53 -77 0 -500 c0 -275 5 -593 12 -707
l12 -207 41 5 c185 22 3273 279 4560 379 1303 101 1866 150 2955 255 1227 119
1346 129 1357 114 6 -9 67 -114 135 -233 l122 -218 161 -6 c221 -9 796 -25
1380 -37 497 -11 1171 -47 1800 -96 182 -14 521 -33 755 -43 l425 -17 539 187
538 187 237 234 c130 128 322 317 427 420 161 157 201 201 249 280 l58 94 921
118 921 119 96 48 c81 40 104 58 149 111 29 35 55 64 59 65 11 4 1628 213
1642 212 8 0 45 -37 83 -83 43 -51 76 -82 85 -80 9 2 196 31 416 65 l400 61
72 45 c40 24 75 52 78 62 3 11 12 25 20 31 9 8 739 96 1856 225 1666 193 1843
216 1863 234 19 18 73 25 563 71 303 28 559 48 581 44 42 -6 328 21 374 36 15
5 216 28 448 51 407 41 421 42 434 24 16 -22 30 -20 2258 236 l1218 139 92
-47 c142 -71 133 -71 713 -3 455 54 1242 175 2485 381 106 18 201 47 630 196
278 96 511 178 518 182 11 6 -933 345 -1033 370 -22 6 -501 85 -1065 176 -806
130 -1131 178 -1524 225 -590 71 -587 71 -721 -1 l-91 -48 -1294 149 c-712 81
-1492 170 -1732 196 -422 47 -437 48 -456 30 -20 -17 -35 -16 -449 28 -235 25
-477 53 -538 61 -60 8 -171 17 -245 19 -74 2 -362 25 -640 51 -460 43 -507 49
-527 68 -21 19 -182 39 -1860 233 -1011 118 -1841 214 -1845 214 -3 0 -16 15
-27 34 -12 20 -50 51 -89 74 l-67 41 -414 62 -415 62 -75 -82 -76 -82 -790
100 c-434 56 -806 103 -826 107 -28 4 -44 17 -85 68 -43 56 -61 70 -150 114
l-102 51 -1768 225 -1769 226 -2100 215 c-1155 118 -2914 294 -3910 390 -1596
155 -2000 190 -3415 300 -1285 100 -4336 354 -4565 380 l-51 6 -12 -208z"/>
</g>
</svg>
