<?xml version="1.0" standalone="no"?>
<!DOCTYPE svg PUBLIC "-//W3C//DTD SVG 20010904//EN"
 "http://www.w3.org/TR/2001/REC-SVG-20010904/DTD/svg10.dtd">
<svg version="1.0" xmlns="http://www.w3.org/2000/svg"
   viewBox="0 0 4769.000000 1442.000000"
 preserveAspectRatio="xMidYMid meet">
<metadata>
Created by potrace 1.16, written by Peter Selinger 2001-2019
</metadata>
<g transform="translate(0.000000,1442.000000) scale(0.100000,-0.100000)"
fill="#000000" stroke="none">
<path d="M9470 14290 l-895 -127 -785 -206 -785 -205 -375 -31 -375 -31 -330
21 -330 22 -1395 -212 -1395 -212 -253 -89 -253 -90 -1097 -160 c-603 -88
-1106 -163 -1117 -165 -28 -7 -88 -91 -81 -113 4 -10 56 -70 117 -133 l111
-114 139 -293 c76 -161 149 -307 163 -323 l26 -31 0 -1453 0 -1453 123 -116
122 -115 747 -1 747 0 158 -25 c86 -14 158 -27 159 -28 0 -1 16 -61 34 -134
17 -73 37 -138 44 -146 6 -8 100 -74 209 -146 l197 -131 0 -237 0 -236 409 7
409 8 776 -532 c762 -522 778 -533 871 -633 52 -56 343 -374 648 -707 l552
-605 1413 -3 c776 -1 1412 -5 1412 -10 0 -4 7 -86 15 -182 9 -96 13 -200 9
-230 -4 -30 -28 -160 -55 -289 l-49 -234 -133 -201 -132 -202 -210 -196 c-196
-184 -231 -212 -540 -429 -181 -127 -408 -278 -503 -335 l-174 -104 -707 0
-707 0 -199 -40 -199 -40 -488 0 -488 0 0 -1175 0 -1175 490 0 491 0 197 -40
197 -41 2755 3 2755 3 485 33 c267 18 499 35 517 38 31 4 32 7 54 100 l23 96
78 39 c68 34 81 45 100 84 16 32 30 47 52 54 17 6 101 31 186 56 264 78 670
216 670 227 0 28 43 414 46 417 2 3 149 32 326 65 l323 61 35 312 35 312 200
138 c110 75 451 303 759 505 l559 369 301 136 c286 129 319 141 661 245 l360
110 1785 159 1785 160 1340 3 1340 2 79 142 78 142 119 0 c87 0 121 -3 124
-12 2 -7 6 -30 10 -51 l6 -37 344 0 345 0 0 -455 0 -455 -285 0 -285 0 0 -40
0 -40 2363 0 2362 0 107 98 108 99 1087 6 c599 4 1570 7 2158 7 589 0 1478 3
1978 7 l907 6 0 31 c0 17 4 37 8 44 5 7 107 41 228 77 146 43 277 90 394 140
125 55 235 93 385 135 116 32 281 84 368 114 87 31 162 56 167 56 5 0 14 -26
20 -57 7 -32 34 -148 60 -258 27 -110 71 -319 99 -465 84 -434 130 -654 161
-773 16 -61 52 -215 80 -342 29 -126 57 -235 64 -242 13 -15 1662 -698 1791
-742 56 -19 505 -118 1190 -260 605 -126 1177 -245 1270 -265 140 -30 263 -45
699 -87 l529 -50 251 -196 251 -196 615 6 615 5 555 159 555 158 444 335 444
335 225 245 c124 135 245 265 269 290 40 43 53 73 211 500 l169 455 17 430 17
430 -100 645 -99 645 -181 715 -182 715 -177 504 -177 504 -51 29 c-48 26 -52
32 -58 75 -3 25 -6 70 -6 99 l0 54 -532 671 -533 672 -668 656 -668 656 -642
319 -642 318 -835 233 -835 233 -860 151 -860 150 -2210 211 -2210 211 -2780
180 -2780 180 -1460 37 -1460 38 -145 75 -145 76 -3104 7 -3105 7 -67 59 c-98
88 -277 369 -332 524 -22 61 -43 114 -46 118 -4 5 -134 21 -290 38 l-284 30
-982 0 -982 0 -226 55 -225 55 -1196 0 -1196 0 0 -30 c0 -36 -2 -36 -40 -8
-26 19 -48 22 -202 29 -95 4 -752 8 -1460 8 l-1288 1 0 -25 0 -25 -170 0
c-107 0 -170 -4 -170 -10 0 -7 -191 -10 -554 -10 l-555 0 -57 -50 -57 -50
-210 0 c-116 0 -208 2 -206 4 2 2 225 117 494 256 423 218 992 516 1004 526 2
2 -43 77 -100 166 l-105 163 -119 92 c-106 82 -125 92 -160 91 -22 0 -443 -58
-935 -128z m6480 -2184 c0 -3 -4 -16 -10 -30 l-9 -25 -61 22 -61 22 38 6 c49
8 103 10 103 5z m20739 -7585 l264 -6 -169 -91 -169 -91 -133 -11 c-187 -16
-276 1 -638 122 l-279 93 430 -4 c237 -3 549 -8 694 -12z"/>
</g>
</svg>
