<?xml version="1.0" standalone="no"?>
<!DOCTYPE svg PUBLIC "-//W3C//DTD SVG 20010904//EN"
 "http://www.w3.org/TR/2001/REC-SVG-20010904/DTD/svg10.dtd">
<svg version="1.0" xmlns="http://www.w3.org/2000/svg"
   viewBox="0 0 4173.000000 2619.000000"
 preserveAspectRatio="xMidYMid meet">
<metadata>
Created by potrace 1.16, written by Peter Selinger 2001-2019
</metadata>
<g transform="translate(0.000000,2619.000000) scale(0.100000,-0.100000)"
fill="#000000" stroke="none">
<path d="M20420 24945 l0 -1245 -1980 0 -1980 0 0 -140 0 -140 220 0 220 0 0
-275 0 -275 -2160 0 -2160 0 0 -678 0 -677 -595 -298 -595 -297 0 -600 0 -600
-2000 0 c-1100 0 -2000 -1 -2001 -2 0 -2 -27 -198 -58 -436 -32 -238 -61 -435
-63 -437 -3 -3 -828 -8 -1834 -11 l-1829 -5 -201 -242 c-186 -224 -216 -255
-405 -420 -195 -171 -209 -181 -328 -238 l-125 -60 -1133 3 -1133 3 0 -822 0
-823 -102 -1 c-57 0 -121 -3 -143 -7 l-40 -7 142 -99 143 -99 0 -918 0 -919
403 0 c222 0 580 -3 795 -7 l392 -6 11 -34 c6 -19 9 -36 7 -38 -1 -1 -236 -6
-520 -10 l-518 -8 0 -292 0 -292 347 -6 c190 -4 759 -7 1264 -7 l917 0 849
-196 c466 -107 848 -196 849 -197 0 -1 86 -100 192 -219 l192 -217 -45 -7
c-30 -4 -45 -11 -45 -21 0 -10 6 -13 16 -9 42 16 90 18 103 3 16 -20 41 -11
41 13 0 14 11 21 42 27 23 5 43 14 46 22 3 10 -3 11 -29 5 -56 -13 -84 -11
-82 6 2 9 -66 94 -151 190 -85 96 -154 176 -153 177 3 2 3951 -909 3956 -913
2 -2 0 -15 -3 -29 -5 -19 -11 -25 -22 -21 -9 3 -33 9 -53 12 -38 6 -38 6 -47
-37 -10 -46 -15 -48 -68 -35 -22 5 -25 2 -36 -44 -7 -28 -10 -56 -7 -63 3 -7
131 -88 285 -181 l279 -167 -20 -95 c-11 -52 -17 -97 -14 -101 7 -6 910 -213
914 -209 3 3 63 282 63 291 0 3 42 5 94 5 l94 0 6 35 c4 19 12 35 19 35 7 0
131 -29 276 -65 146 -36 268 -62 271 -58 7 8 40 133 40 151 0 6 -105 36 -234
68 l-233 58 8 29 c5 16 11 32 13 34 3 3 110 -20 239 -51 129 -32 414 -92 633
-135 l399 -77 6 285 c3 157 7 483 8 725 l1 438 68 -6 c37 -4 328 -24 647 -46
319 -22 603 -42 631 -45 l51 -5 12 76 c7 42 11 77 9 78 -1 2 -175 39 -385 82
-210 43 -380 80 -377 83 2 3 219 21 482 40 l477 36 3 33 c3 26 7 32 28 32 l24
0 0 -1010 0 -1010 89 0 c62 0 90 -4 94 -12 127 -316 384 -909 402 -928 25 -26
1419 -3336 1410 -3349 -2 -4 -63 -18 -135 -31 l-130 -23 0 -29 c0 -16 5 -28
13 -28 7 0 71 11 142 25 72 14 133 25 136 25 4 0 16 -23 29 -51 20 -49 23 -51
52 -45 17 3 37 6 45 6 12 0 14 11 8 58 l-7 58 131 25 c123 22 131 25 131 47 0
12 -6 25 -14 28 -8 3 -72 -6 -141 -20 -70 -14 -131 -24 -135 -21 -4 2 -10 21
-13 42 -3 21 -325 800 -716 1731 -665 1587 -711 1699 -720 1775 -8 72 -26 121
-144 402 l-135 320 371 9 372 8 229 -56 c126 -31 243 -56 261 -56 l32 0 5
-131 c3 -71 7 -131 9 -133 2 -1 356 2 786 7 l781 10 119 -22 c65 -12 139 -27
164 -32 l46 -10 7 -602 c3 -331 9 -686 12 -788 l6 -186 -511 -342 -512 -342
22 -30 c21 -29 22 -30 48 -13 14 9 244 164 511 343 l485 325 333 4 332 4 0
-61 0 -61 650 0 c571 0 650 -2 650 -15 0 -12 -14 -15 -62 -15 -35 0 -80 -3
-100 -6 l-38 -7 0 -68 0 -69 1898 0 1897 0 488 -65 487 -64 74 28 74 28 788
-559 c434 -308 795 -562 801 -565 7 -3 83 18 169 45 l157 50 101 -67 101 -68
23 -77 c12 -42 47 -129 78 -193 96 -202 104 -234 104 -405 l0 -148 48 0 47 0
360 -1131 c201 -632 365 -1134 373 -1136 7 -3 99 4 204 15 106 12 194 19 196
17 2 -2 53 -150 112 -328 58 -178 116 -337 128 -353 12 -16 257 -747 570
-1699 l548 -1670 -35 -7 c-20 -4 -61 -7 -91 -8 -30 0 -72 -3 -93 -7 -31 -5
-38 -9 -35 -27 3 -20 8 -21 108 -18 58 1 119 4 136 7 l30 5 65 -204 66 -204
-45 -6 c-25 -3 -66 -6 -91 -6 -25 0 -63 -3 -84 -7 -31 -5 -38 -9 -35 -27 3
-20 8 -21 108 -18 58 1 119 4 136 7 30 5 32 3 44 -40 12 -44 13 -45 56 -45
l43 0 3 48 c3 46 4 47 38 49 212 15 200 13 200 40 l0 25 -135 -7 -135 -7 0 38
c0 22 -24 114 -54 207 l-54 167 53 0 c29 0 80 3 114 6 57 6 61 9 61 32 l0 25
-123 -7 -122 -7 -578 1758 c-519 1582 -577 1765 -577 1823 0 53 -13 105 -69
275 -38 116 -67 211 -66 213 1 2 179 22 394 45 l391 43 20 -53 c11 -30 20 -58
20 -63 0 -5 14 -10 31 -12 l31 -3 319 -930 c175 -511 351 -1023 390 -1137 l71
-206 36 5 c21 3 38 7 40 8 2 2 -182 541 -408 1200 -226 659 -409 1200 -406
1202 6 6 909 104 914 99 2 -3 170 -511 373 -1130 234 -713 369 -1140 369
-1165 0 -22 3 -46 6 -55 13 -33 24 -14 24 38 0 34 5 56 12 58 9 3 12 36 11
119 0 63 -1 187 -1 277 0 188 -16 218 -27 51 -4 -61 -8 -109 -10 -107 -3 4
-627 1910 -629 1922 -1 8 254 38 887 106 l117 12 0 271 0 270 -330 1191 c-326
1177 -331 1194 -379 1476 -43 248 -110 540 -186 803 l-14 49 1699 -8 1700 -7
0 291 0 292 -131 0 c-104 0 -130 3 -126 13 3 7 55 191 116 408 62 216 117 409
122 426 l11 33 559 0 559 0 0 129 0 130 123 -5 c191 -7 801 -23 803 -21 0 1
-95 334 -213 741 -118 406 -212 741 -209 743 4 4 531 -55 657 -74 l37 -5 123
241 124 241 533 0 532 0 0 -40 0 -40 150 0 150 0 0 -1665 c0 -1658 0 -1665
-20 -1665 -17 0 -20 -7 -20 -50 l0 -50 230 0 230 0 0 -695 0 -695 805 0 805 0
0 -40 0 -40 1255 0 1255 0 0 55 0 55 -1030 0 -1030 0 0 655 0 655 365 0 365 0
0 55 0 55 -365 0 -365 0 0 4395 0 4395 660 0 660 0 0 50 0 50 -660 0 -660 0 0
25 c0 25 1 25 85 25 l85 0 0 357 0 356 -347 -6 c-190 -4 -877 -7 -1525 -7
l-1178 0 0 -715 0 -715 -85 0 -85 0 0 -1147 0 -1148 -182 -587 c-100 -323
-183 -586 -184 -585 -2 1 6 88 16 192 24 238 24 225 0 225 -17 0 -20 7 -20 40
l0 40 -110 0 -110 0 0 300 0 300 -250 0 -250 0 0 -85 0 -85 -165 0 -165 0 0
170 0 170 -265 0 -265 0 0 1095 0 1095 -1187 0 c-1114 0 -1203 1 -1428 21
-302 25 -285 22 -285 62 0 95 5 102 102 146 89 41 89 41 213 41 l125 0 0 175
0 175 -515 0 -514 0 -3 -93 -3 -93 -1155 238 c-635 130 -1165 240 -1177 243
l-23 5 0 2205 0 2205 -1223 0 -1223 0 -49 50 c-43 44 -47 51 -34 67 8 10 47
56 87 102 72 83 72 84 72 142 l0 59 -185 0 c-141 0 -185 3 -185 13 0 6 11 77
24 156 l23 145 -86 185 -87 186 -185 77 c-101 43 -188 77 -194 77 -5 0 -93
-34 -194 -77 l-184 -77 -87 -186 -87 -186 23 -139 c31 -183 32 -172 -18 -176
l-41 -3 -37 -125 -36 -125 -1667 -3 -1667 -2 0 105 0 105 90 0 90 0 0 110 0
110 -95 0 c-89 0 -102 3 -232 51 -76 29 -139 53 -141 54 -2 2 197 242 443 534
l446 532 -32 27 c-18 15 -37 30 -43 33 -6 4 -201 -221 -466 -537 -250 -299
-459 -543 -465 -543 -5 0 -154 55 -330 122 l-320 122 -3 1248 -2 1247 -50 0
-50 0 0 -1245z m14680 -11065 c0 -33 -1 -60 -3 -60 -12 0 -284 103 -291 111
-6 5 48 9 142 9 l152 0 0 -60z"/>
</g>
</svg>
