<?xml version="1.0" standalone="no"?>
<!DOCTYPE svg PUBLIC "-//W3C//DTD SVG 20010904//EN"
 "http://www.w3.org/TR/2001/REC-SVG-20010904/DTD/svg10.dtd">
<svg version="1.0" xmlns="http://www.w3.org/2000/svg"
   viewBox="0 0 4585.000000 1587.000000"
 preserveAspectRatio="xMidYMid meet">
<metadata>
Created by potrace 1.16, written by Peter Selinger 2001-2019
</metadata>
<g transform="translate(0.000000,1587.000000) scale(0.100000,-0.100000)"
fill="#000000" stroke="none">
<path d="M21882 15608 l-2 -268 -25 0 c-19 0 -26 -7 -34 -37 -6 -21 -11 -59
-11 -85 l0 -48 -221 0 c-204 0 -223 1 -246 20 l-25 19 99 3 98 3 3 27 c2 15
-4 40 -13 57 l-16 31 -749 0 -750 0 -17 -36 -17 -35 32 -25 32 -25 -62 -75
-63 -74 -167 0 -168 0 0 65 0 65 -185 0 -185 0 0 -125 0 -125 -1477 0 -1478 0
-177 -222 -178 -221 0 -59 0 -58 -811 0 c-537 0 -808 3 -804 10 3 6 50 10 105
10 l98 0 88 110 87 110 61 0 61 0 73 71 72 71 0 89 0 89 -2827 0 -2828 0 -199
-248 c-110 -136 -447 -554 -749 -929 l-550 -683 -106 0 -106 0 -658 -815 -658
-815 -95 0 -94 0 0 -116 0 -116 -62 -79 -63 -79 -315 0 -316 0 -94 -60 -95
-60 -357 0 c-350 0 -358 0 -358 -20 0 -19 8 -20 327 -22 l327 -3 -61 -40 c-43
-29 -113 -100 -248 -255 -103 -118 -193 -216 -199 -217 -15 -4 -586 -63 -603
-63 -10 0 -13 -63 -13 -327 l-1 -328 -407 -465 -408 -465 -832 -173 -832 -173
-53 -57 c-210 -223 -266 -290 -254 -300 10 -9 1091 -102 1177 -102 19 0 21 -5
18 -44 -3 -43 -28 -72 -993 -1169 l-990 -1125 -86 -186 -87 -186 413 -2 412
-3 -494 -565 -495 -565 656 -3 656 -2 0 -154 0 -153 -90 -118 c-88 -114 -90
-119 -90 -171 l0 -54 850 0 850 0 0 -190 0 -190 215 0 215 0 0 -195 0 -195
615 0 615 0 0 195 0 195 230 0 230 0 0 190 0 190 329 0 c209 0 332 4 336 10 4
7 257 10 726 10 473 0 719 -3 719 -10 0 -7 208 -10 605 -10 333 0 605 -3 605
-6 0 -3 -16 -25 -35 -48 -19 -24 -35 -47 -35 -52 0 -5 30 -17 68 -27 62 -16
181 -17 1629 -17 l1562 0 -7 -38 c-10 -51 -9 -760 1 -794 l7 -28 170 0 170 0
0 -35 0 -35 130 0 130 0 0 -330 0 -330 190 0 190 0 0 -55 0 -55 1545 0 c1406
0 1548 1 1570 16 l25 16 0 374 0 374 55 0 55 0 0 -395 0 -395 455 0 455 0 0
135 0 135 75 0 75 0 0 -135 0 -135 455 0 455 0 0 135 0 135 1280 0 1280 0 0
-75 0 -74 33 -5 c17 -3 754 -76 1637 -161 l1605 -155 1113 0 1112 0 0 -225 0
-224 82 -3 83 -3 74 -107 c70 -100 78 -108 108 -108 33 0 33 0 33 -50 l0 -50
-35 0 c-27 0 -70 -22 -190 -97 l-155 -98 0 -105 0 -105 156 -97 155 -98 333 0
332 0 88 95 87 95 60 0 59 0 0 125 0 125 -56 -6 -56 -7 -98 98 -98 98 -126 -8
-126 -7 0 45 c0 42 2 46 27 49 21 2 45 26 107 110 l81 107 95 1 95 0 45 101
c29 65 52 103 65 108 11 4 130 15 265 25 135 9 255 19 268 22 21 4 22 9 22 99
l0 95 780 0 780 0 230 35 c127 19 235 35 240 35 6 0 10 83 10 218 l0 218 -242
90 c-212 78 -243 92 -246 112 l-3 22 370 0 371 0 0 145 0 145 440 0 440 0 0
-145 0 -145 78 -1 77 -1 -50 -13 c-27 -7 -62 -16 -77 -19 -27 -6 -28 -9 -28
-71 l0 -65 -42 0 c-24 -1 -88 -15 -143 -33 l-100 -33 0 -49 0 -49 90 -28 c50
-15 114 -28 143 -28 l52 0 0 -424 0 -424 93 -21 c92 -21 99 -21 1505 -21
l1413 0 80 60 79 61 0 164 0 165 93 0 c132 0 127 -8 127 217 0 221 5 213 -128
213 l-92 0 0 143 -1 142 -75 55 c-41 30 -73 59 -72 66 2 6 41 75 88 152 l85
141 323 1 322 0 0 425 0 425 257 2 258 3 23 87 24 86 111 44 c62 24 460 178
884 343 l773 300 0 143 0 142 404 0 405 0 16 -75 17 -75 206 2 207 3 7 50 c16
99 13 95 67 95 l49 0 6 -57 c12 -103 -24 -93 327 -93 l309 0 0 -423 0 -424 44
-31 44 -32 239 0 238 0 950 236 950 236 1150 1346 c633 740 1483 1735 1890
2211 407 476 891 1045 1077 1264 l338 399 0 99 0 99 -75 0 -75 0 0 170 0 170
75 0 75 0 0 62 c0 52 6 72 36 126 l35 65 -22 63 c-24 68 -32 74 -105 74 -46 0
-40 -8 -88 123 l-25 67 59 0 c33 0 60 2 60 4 0 2 -92 268 -205 592 -130 373
-212 594 -224 604 -10 8 -43 36 -73 63 -31 26 -60 47 -67 47 -6 0 -11 2 -11 4
0 11 -377 1081 -673 1909 l-342 958 -85 74 -85 75 -302 0 -303 0 0 65 0 65
100 0 100 0 0 78 0 78 -48 47 -48 47 -351 0 -351 0 -52 60 -52 60 -229 0 -229
0 0 80 0 80 -93 0 -93 0 -12 60 -13 60 -64 0 -65 0 0 74 c0 41 -5 76 -10 78
-6 2 -14 59 -19 128 l-8 125 -2 -202 -1 -202 -27 -3 c-24 -3 -29 -10 -41 -60
l-14 -58 -94 0 -94 0 0 -80 0 -80 -245 0 -245 0 0 65 0 65 -155 0 -155 0 0
-65 0 -65 -45 0 -45 0 0 65 0 65 -145 0 -145 0 0 -65 0 -65 -165 0 -165 0 0
-60 0 -60 -77 0 c-72 0 -86 -4 -180 -47 l-103 -46 0 -79 0 -78 135 0 135 0 0
-65 0 -65 -433 0 -432 0 -113 -75 -112 -75 0 -190 0 -190 -1010 0 -1010 0 0
61 c0 54 2 60 19 54 15 -5 23 6 45 66 15 40 23 76 19 80 -12 12 -121 55 -1010
403 l-832 326 -96 0 c-88 0 -95 2 -95 20 0 22 -16 26 -151 35 l-87 7 -17 44
c-16 42 -19 44 -55 44 -34 0 -44 6 -77 45 l-37 45 -96 0 -95 0 -28 -45 c-46
-73 -57 -62 -57 58 l0 104 -154 46 -155 47 -154 0 -155 0 -83 88 -84 88 -282
72 -281 72 -221 0 c-190 0 -221 2 -221 15 0 13 -123 15 -1044 15 l-1044 0 -12
-30 c-9 -21 -19 -30 -36 -30 -23 0 -24 3 -24 75 l0 75 -140 0 -140 0 0 -75 c0
-68 -2 -75 -20 -75 -18 0 -20 7 -20 75 l0 75 -135 0 -135 0 0 -75 0 -75 -277
0 -278 0 -60 -143 c-55 -128 -63 -142 -87 -145 -16 -2 -30 -11 -33 -23 -5 -16
-16 -19 -63 -19 -78 0 -1154 -49 -1156 -52 -32 -53 -36 -56 -100 -68 -36 -7
-72 -17 -80 -24 -26 -20 -86 -174 -86 -222 l0 -44 -530 0 -530 0 0 -80 0 -80
90 0 90 0 0 -195 0 -195 -85 0 -85 0 0 -45 0 -45 -940 0 -940 0 0 35 0 35 65
0 65 0 0 285 0 285 -962 2 -962 3 -22 55 -22 55 -162 3 -163 3 -77 54 c-72 51
-82 55 -134 55 l-56 0 0 54 c0 29 -5 67 -11 85 -10 29 -14 31 -64 31 -57 0
-65 8 -65 72 0 15 -7 31 -15 35 -12 7 -16 50 -23 218 l-9 210 -1 -267z m16978
-8283 l0 -405 -980 0 -980 0 0 259 c0 242 1 259 18 255 11 -4 23 5 35 25 14
23 17 53 17 150 l0 121 945 0 945 0 0 -405z m0 -1110 l0 -35 -925 0 -925 0 0
35 0 35 925 0 925 0 0 -35z m0 -290 l0 -85 -936 0 c-888 0 -936 1 -928 18 4 9
10 47 12 85 l4 67 924 0 924 0 0 -85z m0 -350 l0 -95 -312 -2 -313 -3 -9 -53
-9 -53 -51 3 -51 3 -9 53 -9 52 -208 0 -208 0 -16 -55 -16 -55 -179 0 -180 0
0 135 0 135 -195 0 c-167 0 -195 2 -195 15 0 13 116 15 980 15 l980 0 0 -95z
m-15370 -3360 l0 -155 -1635 0 -1635 0 0 -30 0 -30 -1280 0 -1280 0 0 180 0
180 678 3 c372 1 1684 3 2915 5 l2237 2 0 -155z m-6740 -35 l0 -180 -75 0 -75
0 0 180 0 180 75 0 75 0 0 -180z"/>
</g>
</svg>
