<?xml version="1.0" standalone="no"?>
<!DOCTYPE svg PUBLIC "-//W3C//DTD SVG 20010904//EN"
 "http://www.w3.org/TR/2001/REC-SVG-20010904/DTD/svg10.dtd">
<svg version="1.0" xmlns="http://www.w3.org/2000/svg"
   viewBox="0 0 4877.000000 1474.000000"
 preserveAspectRatio="xMidYMid meet">
<metadata>
Created by potrace 1.16, written by Peter Selinger 2001-2019
</metadata>
<g transform="translate(0.000000,1474.000000) scale(0.100000,-0.100000)"
fill="#000000" stroke="none">
<path d="M34970 14729 c-223 -3 -417 -7 -432 -8 -28 -1 -28 -2 -28 -66 0 -59
-2 -65 -22 -69 -54 -12 -938 -88 -953 -83 -10 4 -15 19 -15 42 l0 36 -42 -5
c-24 -4 -333 -29 -688 -56 -355 -28 -648 -52 -652 -53 -4 -1 105 -90 243 -197
l250 -195 277 -6 c152 -4 432 -7 622 -9 190 -1 377 -5 417 -9 l71 -6 -88 -75
-89 -75 5 -110 c3 -60 7 -127 9 -147 l5 -38 -306 -2 -305 -3 140 -191 c78
-106 141 -194 141 -197 0 -7 -387 -305 -524 -404 l-101 -73 -155 0 -155 0 -45
103 -46 102 -291 3 -292 2 -7 -22 c-3 -13 -20 -60 -36 -105 l-30 -83 -183 0
-183 0 -26 -31 c-14 -16 -29 -37 -34 -45 -6 -11 -85 -20 -381 -41 -361 -26
-374 -26 -387 -8 -7 10 -15 23 -17 29 -2 7 -201 3 -668 -15 l-664 -26 -80 60
-80 61 -1510 42 -1510 42 -107 -100 -108 -100 -594 -16 -595 -16 -75 47 -75
46 -473 6 c-260 3 -487 8 -503 11 -26 3 -54 35 -193 218 -90 118 -168 219
-175 224 -7 5 -245 87 -529 181 l-517 172 -528 16 c-290 8 -529 16 -529 16 -1
1 -5 113 -9 248 l-7 246 114 12 c62 6 134 14 161 18 l47 6 0 63 0 63 -67 35
-67 36 -591 0 -590 0 -53 -35 -52 -36 0 -63 0 -64 33 -6 c17 -3 88 -13 157
-21 68 -9 125 -17 126 -18 0 -1 -20 -78 -45 -172 l-45 -170 -1245 3 c-685 1
-1247 5 -1249 7 -2 2 -11 61 -20 130 l-15 125 -143 0 -142 0 -6 -37 c-3 -21
-8 -64 -12 -97 l-7 -59 -66 7 c-36 3 -80 6 -98 6 -29 0 -33 4 -44 40 -9 30
-17 40 -33 40 -12 0 -37 3 -56 6 l-35 6 -37 -76 c-31 -62 -42 -76 -60 -76 -70
2 -1765 -103 -1778 -109 -8 -4 -28 -57 -45 -122 l-30 -114 -116 -52 -116 -52
-661 -41 c-364 -22 -677 -40 -696 -40 l-35 0 -3 -67 -3 -67 -260 -125 c-143
-69 -400 -200 -570 -291 -348 -185 -327 -178 -565 -179 -63 -1 -130 -5 -148
-10 -21 -7 -84 -58 -175 -143 -78 -73 -152 -141 -164 -151 -20 -18 -68 -19
-853 -28 l-831 -8 -433 237 -432 238 -665 13 c-365 7 -666 14 -668 17 -3 2 -8
81 -12 173 -4 93 -10 174 -13 180 -8 13 -626 16 -626 4 -1 -5 -5 -81 -9 -171
-5 -90 -11 -165 -13 -167 -1 -2 -91 -1 -199 2 l-196 6 -6 146 c-3 80 -9 156
-13 169 l-6 22 -259 0 -258 0 -7 -37 c-4 -20 -4 -94 -1 -165 l6 -128 -313 0
-312 0 4 -397 4 -398 -481 -105 -481 -104 0 -118 0 -118 -370 0 -370 0 0 115
c0 110 -1 115 -21 115 -25 0 -1357 -127 -1416 -135 l-43 -6 0 66 0 66 -57 -6
c-32 -3 -134 -12 -228 -20 -195 -17 -171 -26 -232 87 -30 55 -41 67 -57 63
-12 -2 -139 -12 -284 -21 -251 -17 -263 -19 -267 -38 -2 -12 -12 -109 -21
-216 -10 -107 -21 -199 -25 -204 -4 -4 -236 -36 -516 -70 l-508 -62 -55 -37
-55 -37 1 -607 2 -608 52 -31 c44 -27 65 -33 143 -39 l92 -6 0 -114 c0 -62 2
-115 5 -118 10 -9 962 -128 1583 -198 518 -59 640 -70 647 -59 4 7 11 43 14
79 7 66 23 188 31 227 4 20 5 20 302 -12 348 -38 462 -54 469 -66 3 -5 8 -32
11 -62 l5 -53 424 -232 424 -233 0 -86 0 -87 136 -110 135 -110 501 -5 501 -5
52 -115 51 -115 39 -3 c45 -4 55 -14 55 -59 l0 -33 565 0 565 0 0 -200 0 -201
93 3 92 3 28 53 c16 28 31 52 35 52 4 0 81 -30 172 -66 l165 -66 1250 -29
c688 -16 1272 -28 1299 -27 l49 3 58 105 c32 57 62 106 68 108 8 3 11 -46 11
-152 l0 -156 509 0 509 0 6 28 c3 15 8 73 12 130 5 84 9 102 23 102 673 10
2443 30 2644 30 l277 0 0 -32 c0 -18 3 -50 6 -70 l7 -38 116 0 c115 0 118 1
143 28 24 25 27 37 33 140 l8 112 298 0 298 0 145 -168 145 -168 418 -21 418
-21 285 -120 286 -119 277 -5 277 -5 0 184 0 183 63 -1 c34 0 165 -8 292 -17
l229 -17 23 -159 c13 -88 26 -162 29 -165 3 -3 137 -8 297 -9 264 -4 295 -6
329 -23 l38 -19 2 -788 c1 -433 1 -947 -1 -1143 l-4 -356 153 -6 c84 -4 194
-7 245 -7 l91 0 196 -223 195 -224 363 -6 c200 -4 664 -7 1032 -7 l668 0 172
230 173 230 262 0 263 0 0 239 0 238 68 6 c37 4 245 7 464 8 l396 2 188 -107
187 -108 1576 12 1576 13 80 65 80 65 395 -7 c217 -3 485 -6 596 -6 l201 0 11
-122 c7 -68 15 -205 19 -306 l6 -182 854 0 853 0 0 132 0 131 348 -6 c191 -4
971 -14 1734 -24 l1387 -17 12 -28 12 -29 556 6 c306 3 568 8 582 10 l26 4 7
-260 c4 -144 5 -264 2 -267 -6 -5 -964 30 -1196 44 l-95 6 -43 -87 -43 -88
-65 6 -64 5 0 -334 0 -334 68 2 67 3 38 -72 38 -73 97 0 c53 0 331 7 616 15
286 8 520 14 522 12 1 -1 5 -134 9 -294 l7 -293 -664 0 -664 0 -57 -58 -57
-58 0 -171 0 -171 54 -50 54 -49 244 -6 c134 -4 722 -12 1308 -18 l1065 -12
105 46 105 45 1204 51 c662 28 1205 50 1206 49 7 -13 345 -1312 341 -1315 -2
-3 -111 -1 -240 4 l-236 8 0 -192 c0 -149 3 -191 13 -188 6 2 136 6 287 10
l275 6 45 -172 45 -173 325 -302 325 -302 415 -6 c228 -4 436 -9 461 -12 l46
-5 13 510 13 510 61 5 c34 3 792 27 1686 53 894 26 1605 49 1580 50 -25 2
-781 30 -1680 63 -899 34 -1635 62 -1636 63 -2 1 6 283 16 627 11 344 20 664
20 713 l0 87 74 0 c72 0 74 1 86 29 14 36 13 35 400 52 146 6 266 12 267 13 1
1 -138 7 -309 14 -171 6 -312 13 -314 14 -2 2 40 243 94 535 l96 532 61 6
c133 13 135 14 135 45 0 27 3 29 53 34 28 3 571 29 1205 58 634 29 1145 56
1135 59 -10 4 -540 35 -1178 69 -637 33 -1161 63 -1163 65 -2 2 11 91 28 197
l32 194 292 79 c160 43 294 81 299 85 4 3 1 141 -7 306 -7 164 -13 300 -12
301 1 1 675 34 1499 75 823 40 1497 75 1497 78 0 3 -683 66 -1517 139 -835 73
-1519 135 -1521 136 -7 6 -92 548 -87 553 3 3 91 8 195 10 l190 5 0 78 0 79
-207 0 -207 0 69 50 c39 28 107 76 152 107 l82 56 38 138 38 139 942 0 942 0
30 43 30 44 98 6 c54 3 1112 47 2352 99 1240 51 2246 95 2235 97 -10 2 -1067
54 -2349 115 l-2330 111 -34 58 -34 57 -991 0 c-545 0 -997 4 -1004 8 -10 7
-5 58 23 243 20 129 38 244 40 257 5 21 9 22 124 22 65 0 159 3 208 6 l90 7
54 228 c29 126 56 234 60 240 5 8 324 22 1108 49 606 21 1104 40 1106 42 2 2
-481 23 -1073 46 -592 24 -1077 44 -1079 45 -1 1 52 245 117 542 l119 540 -90
87 c-49 48 -89 91 -89 95 1 4 14 24 31 43 l30 35 237 25 237 25 6 60 c4 33 7
99 8 146 l1 87 -60 88 -61 89 -872 475 -872 474 -149 2 -148 2 -87 86 -86 86
-523 0 c-423 0 -522 -2 -522 -13 0 -9 -43 -18 -152 -31 -84 -10 -165 -20 -180
-23 -24 -5 -28 -1 -36 28 -8 32 -11 34 -53 37 l-44 3 3 62 3 62 -140 120 c-78
66 -151 123 -164 126 -13 3 -150 28 -305 54 l-282 48 -130 109 -131 108 -173
0 c-269 0 -251 -6 -333 111 l-68 99 -171 0 c-94 0 -185 3 -203 6 -22 5 -152
116 -478 412 -247 222 -457 408 -468 412 -11 5 -121 13 -244 19 -124 6 -225
12 -227 14 -1 1 -63 103 -137 227 l-136 225 37 7 c20 4 87 7 148 7 61 1 220 4
353 8 l243 6 -54 54 c-48 47 -63 56 -126 73 l-73 18 -196 189 c-107 103 -233
223 -278 266 l-83 77 -124 -2 c-67 -1 -305 -5 -528 -9z m-10434 -5883 c1 0 9
-203 18 -451 9 -247 19 -485 22 -527 l6 -78 1723 0 1723 0 6 -57 c4 -32 22
-258 41 -503 19 -245 37 -467 40 -494 l6 -49 -566 6 -567 6 -74 71 c-54 51
-81 70 -102 70 -15 1 -728 5 -1585 10 l-1557 9 -186 -116 -187 -116 -449 5
c-247 3 -450 7 -452 9 -2 2 -6 163 -7 358 l-4 354 165 72 165 71 9 83 c4 45 6
84 4 86 -2 3 -42 12 -89 22 l-84 18 -3 191 -2 192 45 6 c25 3 65 9 90 12 l45
6 0 102 c0 55 4 106 8 113 6 10 54 10 216 2 115 -6 212 -7 217 -2 4 4 18 42
31 83 l24 75 162 3 162 2 0 170 0 170 48 1 c26 1 175 7 332 13 219 10 597 11
606 2z m-14406 -681 c0 -30 -15 -33 -30 -6 -14 27 -13 31 10 31 15 0 20 -7 20
-25z m25777 -3516 c87 -36 107 -49 133 -85 16 -23 30 -45 30 -48 0 -3 -67 -6
-150 -6 l-150 0 0 34 c0 73 13 157 24 153 6 -3 57 -24 113 -48z m791 -1099
l126 -260 61 -19 c366 -110 1154 -355 1151 -358 -1 -2 -453 15 -1002 37 l-999
39 -103 43 -102 43 -311 -19 c-170 -10 -313 -16 -316 -13 -3 4 -2 141 2 307
l7 300 323 0 c177 0 457 3 623 7 l302 6 46 74 c25 40 50 73 55 73 6 0 67 -117
137 -260z"/>
</g>
</svg>
