<?xml version="1.0" standalone="no"?>
<!DOCTYPE svg PUBLIC "-//W3C//DTD SVG 20010904//EN"
 "http://www.w3.org/TR/2001/REC-SVG-20010904/DTD/svg10.dtd">
<svg version="1.0" xmlns="http://www.w3.org/2000/svg"
   viewBox="0 0 3932.000000 1725.000000"
 preserveAspectRatio="xMidYMid meet">
<metadata>
Created by potrace 1.16, written by Peter Selinger 2001-2019
</metadata>
<g transform="translate(0.000000,1725.000000) scale(0.100000,-0.100000)"
fill="#000000" stroke="none">
<path d="M17942 17224 c-341 -19 -505 -35 -1050 -99 -731 -86 -680 -77 -2432
-424 -657 -131 -889 -181 -1000 -215 -120 -38 -158 -46 -223 -46 -55 0 -286
-36 -774 -120 l-695 -120 -1041 -256 c-1185 -292 -1316 -330 -3042 -877 -495
-157 -1157 -360 -1472 -451 -555 -161 -589 -172 -1210 -402 -540 -200 -832
-317 -1908 -764 -1123 -467 -1321 -553 -1710 -740 l-440 -211 -446 -286 -446
-286 -28 -146 -27 -146 58 -120 59 -120 255 -41 c140 -23 325 -58 411 -77
l156 -36 339 -6 c300 -5 474 -18 459 -34 -3 -2 -51 -8 -108 -11 -56 -4 -146
-17 -199 -30 l-98 -24 0 -591 0 -591 231 -33 230 -34 417 17 c229 9 438 18
464 21 45 4 50 1 166 -83 l120 -87 268 -560 268 -560 157 -230 c87 -126 207
-314 266 -417 82 -143 113 -188 128 -188 10 0 131 27 268 60 l248 60 277 222
c152 121 282 225 287 229 6 4 685 177 1510 384 825 207 1516 381 1537 386 30
8 49 26 118 119 69 93 88 111 118 119 21 5 598 143 1283 307 l1246 297 109
139 c60 76 114 145 120 153 6 9 671 161 1790 410 978 218 1789 399 1802 402
17 4 22 12 22 39 l0 34 163 -1 c89 0 524 -6 967 -14 l805 -13 1070 -66 1070
-67 1410 -359 1410 -358 870 -424 870 -424 710 -786 c689 -763 716 -792 923
-973 116 -102 218 -199 226 -214 14 -26 7 -45 -160 -442 -96 -228 -177 -424
-180 -436 -4 -14 56 -209 161 -525 132 -397 173 -509 195 -533 15 -16 39 -52
53 -80 23 -46 34 -55 137 -114 83 -47 160 -105 303 -226 l191 -162 307 -97
c218 -68 344 -103 435 -118 l129 -21 660 18 660 17 222 60 222 59 73 -22 c40
-12 278 -112 528 -222 l455 -200 479 -349 c264 -193 491 -354 505 -359 44 -15
1352 -309 1375 -309 11 0 293 54 626 119 l605 119 350 236 c300 203 351 234
358 219 4 -10 162 -405 351 -878 l344 -860 88 -3 89 -3 624 -864 624 -865 660
-2 660 -3 131 -307 131 -308 410 0 c226 0 427 3 448 6 l37 7 0 2058 0 2058
118 36 c64 20 145 45 180 57 l62 20 -2 1140 -3 1140 -172 71 -173 71 0 180 0
181 146 146 146 146 225 764 c123 420 224 773 224 784 0 18 -370 1095 -405
1180 -17 40 -586 835 -1160 1620 l-380 520 -237 497 c-172 361 -249 535 -282
635 -44 132 -47 146 -60 333 l-13 195 48 235 c34 166 74 316 135 514 75 240
85 280 72 290 -8 6 -161 129 -340 272 l-325 261 -1105 386 -1104 386 -1050
240 -1050 241 -730 100 -730 99 -930 76 -930 76 -1105 34 c-608 19 -1538 41
-2067 50 -944 15 -969 15 -1315 -5 -194 -11 -1025 -56 -1847 -100 -821 -43
-1498 -83 -1503 -88 -5 -5 -28 -46 -51 -90 l-42 -80 -220 118 -220 118 -615
120 -615 121 -265 16 c-332 19 -428 18 -928 -11z"/>
</g>
</svg>
