<?xml version="1.0" standalone="no"?>
<!DOCTYPE svg PUBLIC "-//W3C//DTD SVG 20010904//EN"
 "http://www.w3.org/TR/2001/REC-SVG-20010904/DTD/svg10.dtd">
<svg version="1.0" xmlns="http://www.w3.org/2000/svg"
   viewBox="0 0 4184.000000 1983.000000"
 preserveAspectRatio="xMidYMid meet">
<metadata>
Created by potrace 1.16, written by Peter Selinger 2001-2019
</metadata>
<g transform="translate(0.000000,1983.000000) scale(0.100000,-0.100000)"
fill="#000000" stroke="none">
<path d="M22512 19735 l3 -97 990 -499 c3198 -1615 4500 -2272 4504 -2275 5
-5 -40 -647 -47 -666 -5 -12 -105 115 -377 482 l-370 499 -65 15 c-36 8 -489
107 -1007 221 l-942 205 -2220 0 -2221 0 -1006 -220 c-554 -120 -1008 -221
-1009 -222 -1 -2 -64 -81 -139 -175 l-138 -173 -1790 0 -1790 0 -95 75 -96 75
-1132 0 -1132 0 -164 -240 -163 -240 -533 0 -533 0 -151 183 c-83 100 -157
188 -165 196 -11 12 -292 -14 -1998 -190 l-1985 -204 -187 -147 c-103 -82
-190 -148 -193 -148 -3 0 -141 209 -305 465 -223 346 -304 464 -315 460 -28
-8 -2352 -555 -2362 -555 -5 0 -43 68 -84 151 -42 83 -79 149 -84 147 -6 -2
-701 -378 -709 -383 -1 -1 -7 -60 -12 -130 -5 -70 -12 -131 -16 -134 -3 -3
-460 -81 -1016 -173 -555 -91 -1012 -168 -1014 -171 -3 -3 -6 -558 -7 -1235
l-2 -1230 130 -25 c72 -13 538 -100 1037 -193 l908 -169 0 -105 0 -105 349
-174 c191 -96 353 -171 359 -167 6 4 55 67 108 141 55 76 104 135 113 135 13
0 2205 -483 2295 -506 21 -5 50 36 321 455 164 254 302 461 307 461 5 0 92
-66 194 -146 l185 -146 1317 -134 c724 -74 1326 -137 1337 -139 16 -4 114
-142 133 -187 2 -4 -62 -8 -142 -8 l-146 0 0 41 0 41 -37 -6 c-21 -3 -81 -8
-133 -11 -175 -11 -190 -14 -190 -41 l0 -24 -184 0 -185 0 -178 -81 -178 -82
-3445 -78 -3445 -78 -590 -55 c-756 -71 -677 -59 -673 -104 l3 -37 675 -62
675 -63 3395 -74 3396 -75 179 -80 179 -81 186 0 187 0 6 -67 c4 -38 7 -170 7
-294 0 -124 3 -368 7 -542 l6 -316 24 -6 c21 -5 23 -11 23 -68 0 -95 -50
-2101 -53 -2103 -1 -1 -443 54 -982 121 l-980 123 -1505 10 -1505 9 -68 -56
c-38 -31 -76 -61 -85 -68 -15 -11 -366 -73 -411 -73 -13 0 -25 17 -41 60 l-23
61 -129 -3 -130 -3 -42 -100 -42 -100 -49 -7 c-28 -4 -638 -46 -1357 -95
l-1308 -87 0 -131 0 -130 1323 -94 c727 -51 1338 -95 1357 -98 34 -5 36 -8 77
-106 l41 -102 129 -3 128 -3 25 66 c13 36 29 65 35 65 5 0 99 -15 208 -34
l197 -33 81 -63 81 -62 1507 11 1506 12 863 135 863 134 3227 95 c1775 52
3253 95 3283 95 l55 0 17 48 18 49 436 6 c240 4 757 7 1148 7 392 0 727 3 744
6 17 4 31 10 31 15 0 5 -374 9 -857 9 -472 0 -1003 3 -1180 7 l-322 6 -17 47
-17 47 -141 7 c-78 3 -1216 40 -2531 82 -1314 42 -2391 77 -2393 79 -2 1 331
481 740 1067 409 585 775 1118 813 1185 68 119 71 122 104 123 21 0 280 -92
652 -231 l617 -230 136 -237 c74 -130 141 -245 148 -255 10 -14 305 -76 1401
-297 l1389 -280 170 150 171 150 131 -1 c72 0 444 -10 826 -22 l695 -22 3 -27
c2 -21 34 -55 126 -137 l123 -110 189 -12 189 -12 137 88 138 88 6 49 7 49 71
-5 c39 -3 490 -18 1001 -33 l930 -26 165 -102 165 -102 480 13 c263 7 480 12
480 11 1 -1 31 -157 66 -347 l65 -345 2644 -602 c1455 -331 2647 -602 2649
-603 5 0 -5 -169 -11 -175 -3 -3 -1179 251 -2614 564 -1435 313 -2611 567
-2613 565 -2 -1 -9 -30 -16 -62 l-12 -60 298 -1267 c163 -697 299 -1268 301
-1271 2 -2 1142 -243 2534 -537 l2529 -533 -1 -132 c-1 -73 -3 -135 -6 -138
-4 -4 -4496 981 -4570 1002 -12 4 -19 -4 -26 -29 -8 -30 17 -145 173 -797 101
-420 187 -766 192 -770 4 -4 1081 -240 2393 -525 1312 -285 2389 -521 2393
-525 5 -4 -3 -50 -17 -101 -23 -88 -25 -115 -33 -459 -4 -201 -8 -387 -8 -414
l0 -49 910 -289 910 -288 1299 -326 c714 -178 1300 -323 1302 -321 3 2 36 112
75 243 39 131 142 464 229 739 87 275 238 767 335 1092 104 352 231 749 310
979 74 212 135 390 135 396 0 5 -112 215 -249 466 l-249 457 109 700 c59 385
108 707 109 715 0 10 55 39 158 84 l157 70 235 -3 c129 -2 272 -6 318 -9 l83
-7 31 -72 30 -73 251 0 c220 0 298 -5 646 -40 l396 -40 503 -248 502 -247 37
-95 c19 -52 41 -100 47 -106 6 -7 153 -71 326 -143 l315 -132 96 99 96 99 249
-27 c264 -28 263 -28 369 -99 l60 -41 268 0 267 0 0 -57 c0 -32 18 -483 40
-1003 22 -520 40 -962 40 -982 l0 -38 60 0 c59 0 59 0 66 32 3 18 94 485 203
1038 l196 1005 302 3 302 2 33 103 c18 56 33 103 34 105 1 2 1148 61 1212 62
7 0 12 14 12 34 l0 34 -102 6 c-57 3 -330 13 -608 22 -278 9 -508 19 -512 22
-3 4 -20 50 -36 102 l-30 95 -246 3 -245 2 4 28 c3 15 111 888 240 1940 l235
1913 -114 1270 c-62 699 -118 1275 -122 1279 -7 6 -4532 2162 -4610 2196 -8 4
-133 -161 -205 -269 -6 -8 -1327 601 -1352 623 -4 4 6 44 22 91 16 46 29 84
28 85 -3 2 -6099 2865 -6114 2871 -7 3 -14 -13 -18 -44 -4 -26 -10 -60 -13
-74 l-7 -26 -851 421 c-2025 1003 -2025 1003 -3384 1607 -696 309 -1271 564
-1278 566 -10 4 -12 -16 -10 -92z m5315 -7102 c-3 -2 -66 -2 -141 -1 l-136 3
138 206 137 207 3 -206 c1 -112 1 -207 -1 -209z m-9647 237 l61 -90 -362 0
-362 0 -51 -43 c-28 -23 -58 -48 -68 -55 -10 -9 -105 -19 -275 -31 l-258 -18
-265 -117 -265 -117 -497 10 -497 11 -158 86 c-87 48 -164 90 -171 93 -9 5 62
68 204 184 l217 177 1343 0 1343 0 61 -90z m-6056 -51 c13 -21 15 -33 8 -38
-7 -4 -141 -19 -299 -34 -176 -17 -412 -48 -605 -80 l-318 -52 0 -112 c0 -96
-2 -113 -16 -113 -18 0 -96 160 -85 175 4 6 58 72 120 148 l113 137 532 0 532
0 18 -31z m4483 -2153 l260 -115 1044 -70 1044 -71 935 0 936 0 171 165 171
165 412 0 412 0 171 -165 172 -165 950 0 950 1 263 -63 c144 -34 262 -64 262
-67 -1 -3 -46 -37 -102 -74 l-101 -69 -197 81 -197 82 -674 -11 -674 -11 -349
81 c-192 44 -353 80 -357 80 -15 0 -30 -81 -24 -124 l7 -43 -228 -6 c-125 -4
-280 -7 -345 -7 l-117 0 -157 -130 c-87 -71 -163 -130 -169 -130 -60 -1 -4295
92 -4395 96 l-134 6 -150 145 c-83 80 -160 151 -171 158 -12 7 -246 70 -521
141 -275 70 -503 130 -507 133 -5 4 25 25 65 46 l72 40 155 5 c85 3 313 7 506
8 l351 2 260 -114z m19023 -3969 c0 -2 7 -52 15 -112 9 -59 13 -111 10 -114
-12 -11 -156 -20 -365 -21 -118 -1 -253 -5 -298 -8 l-84 -7 -27 -64 c-16 -37
-35 -68 -47 -72 -10 -4 -51 -8 -91 -8 l-72 -1 65 193 c35 105 66 198 69 205 3
9 96 12 415 12 225 0 410 -1 410 -3z m2880 -161 l0 -163 -151 -7 c-84 -4 -155
-4 -160 1 -4 4 -24 50 -45 102 l-37 94 -211 -7 c-116 -3 -524 -13 -906 -21
-621 -13 -921 -25 -1031 -42 l-36 -5 -13 93 c-7 52 -15 99 -17 106 -4 11 249
13 1301 13 l1306 0 0 -164z m-36 -733 c-2 -32 -6 -140 -8 -240 -4 -137 -2
-183 7 -183 7 0 57 -7 111 -15 55 -8 129 -15 164 -15 l66 0 -90 -63 -90 -64
-186 15 -187 15 -11 71 c-23 141 6 117 -279 236 l-253 105 200 3 200 2 13 33
c7 17 25 60 40 95 l28 62 140 0 139 0 -4 -57z m-1044 -144 l-45 -20 -40 20
-40 20 85 0 85 0 -45 -20z"/>
</g>
</svg>
