<?xml version="1.0" standalone="no"?>
<!DOCTYPE svg PUBLIC "-//W3C//DTD SVG 20010904//EN"
 "http://www.w3.org/TR/2001/REC-SVG-20010904/DTD/svg10.dtd">
<svg version="1.0" xmlns="http://www.w3.org/2000/svg"
   viewBox="0 0 4497.000000 1563.000000"
 preserveAspectRatio="xMidYMid meet">
<metadata>
Created by potrace 1.16, written by Peter Selinger 2001-2019
</metadata>
<g transform="translate(0.000000,1563.000000) scale(0.100000,-0.100000)"
fill="#000000" stroke="none">
<path d="M6035 15494 c-99 -74 -185 -138 -192 -142 -8 -5 49 -430 213 -1582
123 -866 224 -1583 224 -1592 0 -16 -12 -18 -122 -18 l-122 0 -25 29 -26 29
-1125 -63 c-619 -36 -1143 -64 -1165 -65 l-40 0 -103 159 -103 158 -42 -4
c-23 -2 -287 -24 -587 -48 -300 -25 -568 -47 -597 -50 l-52 -6 -208 -332
c-114 -182 -207 -334 -205 -337 1 -3 72 -130 157 -282 142 -254 155 -281 155
-327 0 -46 -3 -52 -42 -84 l-43 -34 -950 -62 c-931 -60 -1052 -69 -1028 -78
10 -4 1731 89 1878 101 l60 5 -38 -32 -37 -32 0 -307 0 -308 -190 0 -190 0 0
-63 0 -63 -75 -22 -75 -22 2 -617 3 -618 73 -20 72 -20 0 -62 0 -63 220 0
c189 0 220 -2 220 -15 0 -13 37 -15 274 -15 l274 0 31 -35 c28 -32 31 -42 31
-100 l0 -65 63 0 62 -1 115 -124 115 -124 1028 0 c1020 -1 1027 -1 1027 -21 0
-19 7 -20 190 -20 l189 0 308 -220 308 -220 130 0 130 0 185 -106 c102 -59
190 -111 197 -118 8 -8 15 -170 24 -566 l12 -555 58 -174 59 -175 51 -2283 51
-2283 -51 -86 -52 -87 7 -613 7 -614 267 0 267 0 6 600 7 600 42 92 41 93 52
2308 52 2308 -34 167 -34 167 12 515 c6 283 12 516 13 516 0 1 60 27 131 57
l130 55 3 91 c1 50 7 91 11 91 5 0 15 -8 22 -19 9 -11 299 -129 766 -310 l751
-291 1256 0 c1249 0 1256 0 1256 20 0 20 7 20 270 20 l270 0 351 290 351 290
220 0 219 0 112 87 c61 47 192 140 290 205 l180 118 598 0 599 0 93 -47 c92
-48 92 -48 212 -53 l120 -5 37 -69 c21 -38 40 -71 41 -72 2 -2 113 -26 247
-53 l245 -51 814 -32 813 -33 137 -237 136 -238 176 0 176 0 476 125 476 125
843 0 843 0 158 158 157 157 0 113 0 112 130 0 130 0 100 50 100 50 595 0 595
0 100 -50 100 -50 113 0 114 0 31 -57 c51 -96 35 -88 292 -142 l235 -49 815
-32 c530 -22 819 -37 827 -44 7 -6 70 -112 141 -236 l130 -225 175 -3 176 -2
479 125 478 125 840 0 839 0 158 158 157 157 0 113 0 112 130 0 130 0 100 50
100 50 600 0 600 0 93 -47 c92 -48 93 -48 212 -53 l119 -5 37 -65 c21 -36 39
-68 41 -72 2 -3 111 -29 243 -56 l240 -51 530 -21 530 -20 320 -67 320 -66
100 -174 c55 -96 102 -178 105 -183 3 -5 1080 6 2440 25 2367 34 2462 36 3400
75 883 36 1023 40 1643 40 l677 0 0 -45 0 -45 -115 0 c-106 0 -115 -1 -115
-19 0 -16 15 -21 115 -36 l115 -18 0 -33 0 -34 228 0 227 0 24 35 24 35 767 0
767 0 6 -47 c4 -27 10 -85 13 -131 l7 -83 48 -25 49 -24 0 -135 0 -135 80 0
80 0 0 289 0 289 330 7 330 7 0 29 0 29 -330 0 -330 0 0 460 0 460 45 0 45 0
0 2224 0 2225 -47 4 -48 3 48 2 47 2 0 340 0 340 -57 0 -58 0 -68 -358 -68
-357 0 -925 1 -925 -355 -355 -355 -355 0 -337 c0 -186 -1 -338 -2 -338 -2 0
-485 58 -1074 128 -961 115 -1074 131 -1107 151 -32 19 -105 30 -629 92 -326
39 -603 75 -616 81 -12 7 -67 51 -121 99 l-99 87 -1028 206 c-1016 203 -1031
206 -1156 206 -79 0 -128 4 -128 10 0 7 -220 10 -639 10 l-639 0 -12 65 -12
65 -2034 0 -2034 0 0 45 0 45 -2899 0 -2899 0 -26 44 c-23 39 -31 46 -69 51
-23 3 -1125 125 -2449 270 l-2406 265 -2006 0 -2006 0 0 50 c0 28 -2 50 -3 50
-2 0 -633 40 -1403 89 l-1399 89 -281 -22 -282 -21 -36 79 -36 79 93 -6 c50
-4 167 -10 260 -13 l167 -7 0 42 c0 69 -22 102 -133 204 -59 53 -108 97 -109
98 -2 0 -1004 99 -2228 218 l-2225 218 -257 -128 -258 -129 -1133 0 -1133 0
-58 388 c-32 213 -69 451 -82 529 l-23 142 -126 161 -127 160 -148 988 c-81
543 -151 1013 -155 1045 -3 31 -9 57 -13 56 -4 0 -88 -61 -187 -135z m37863
-7756 l90 -163 16 -155 c9 -85 16 -161 16 -167 0 -10 -155 -13 -739 -13 l-739
0 -36 43 -35 42 239 3 238 2 304 349 303 349 126 -64 126 -63 91 -163z"/>
</g>
</svg>
