<?xml version="1.0" standalone="no"?>
<!DOCTYPE svg PUBLIC "-//W3C//DTD SVG 20010904//EN"
 "http://www.w3.org/TR/2001/REC-SVG-20010904/DTD/svg10.dtd">
<svg version="1.0" xmlns="http://www.w3.org/2000/svg"
   viewBox="0 0 3691.000000 827.000000"
 preserveAspectRatio="xMidYMid meet">
<metadata>
Created by potrace 1.16, written by Peter Selinger 2001-2019
</metadata>
<g transform="translate(0.000000,827.000000) scale(0.100000,-0.100000)"
fill="#000000" stroke="none">
<path d="M15070 8239 c-226 -17 -395 -35 -410 -42 -33 -17 -102 -86 -121 -122
l-15 -30 -625 -43 c-362 -25 -775 -60 -984 -83 -359 -40 -577 -49 -705 -31
-44 7 -45 8 -48 45 -3 38 -3 39 -40 33 -20 -4 -848 -116 -1840 -251 -992 -135
-1808 -247 -1813 -250 -5 -4 -9 -15 -9 -25 0 -12 -9 -22 -22 -25 -13 -2 -499
-86 -1080 -185 l-1057 -181 -218 98 -218 98 -802 -47 -803 -48 -832 -235 -833
-236 -55 -60 -55 -61 -556 -58 c-949 -101 -1203 -134 -1364 -179 -77 -21 -191
-58 -252 -81 l-113 -43 0 -44 0 -45 -58 -25 c-49 -22 -60 -32 -74 -67 -9 -23
-20 -85 -24 -139 -5 -80 -10 -99 -25 -107 -20 -11 -15 -40 7 -40 15 0 15 0 -2
-318 -3 -56 -10 -105 -15 -108 -6 -4 -6 -10 0 -18 7 -9 7 -101 -1 -293 -14
-343 -12 -354 68 -407 54 -36 54 -36 54 -89 l0 -52 108 -91 107 -90 144 -29
c119 -23 149 -33 172 -54 15 -14 122 -136 239 -271 117 -135 219 -252 227
-260 11 -12 104 -19 521 -37 l507 -22 40 42 c22 23 59 64 83 91 l42 49 402
-52 c314 -40 603 -87 1303 -212 495 -88 907 -162 915 -165 12 -4 12 -6 0 -14
-12 -7 -11 -12 5 -30 25 -28 27 -87 3 -94 -26 -6 -22 -23 8 -30 15 -4 33 -13
40 -21 12 -12 9 -16 -26 -26 -22 -7 -40 -15 -40 -19 0 -3 22 -16 50 -28 27
-12 50 -26 50 -31 0 -4 -18 -20 -40 -35 -39 -26 -41 -29 -41 -79 0 -29 -3 -82
-5 -119 l-6 -67 49 -8 c26 -4 482 -8 1013 -8 l965 1 218 79 219 80 73 82 c40
45 78 90 83 100 10 17 46 18 670 21 l659 3 402 319 c389 307 405 319 455 325
28 3 392 30 808 60 645 47 799 55 1032 55 l274 0 133 -110 134 -111 165 5 c91
3 284 8 430 11 369 8 1040 40 1384 67 l289 22 158 -161 158 -161 235 -7 c143
-5 236 -4 236 2 0 5 -34 100 -75 212 -42 112 -74 205 -72 207 1 2 71 15 153
30 l150 27 93 279 c79 239 96 279 114 283 12 3 175 37 362 76 272 57 356 71
418 70 68 -2 81 1 105 21 23 19 129 44 646 152 403 84 620 126 624 119 4 -6
126 -189 271 -407 180 -270 271 -398 285 -401 12 -3 230 -34 487 -69 l465 -65
242 94 c134 52 256 102 272 110 l29 15 -21 71 c-11 40 -29 92 -39 117 l-19 45
47 44 c27 24 67 58 89 76 l42 32 17 130 c9 72 22 136 27 143 11 13 81 16 166
5 l54 -6 280 -421 c154 -232 284 -425 288 -429 4 -4 225 -39 491 -76 l484 -68
265 105 c146 57 272 105 280 105 9 1 264 -166 567 -371 304 -204 562 -376 575
-382 13 -5 140 -46 283 -90 313 -97 324 -101 362 -137 17 -15 40 -35 51 -43
15 -11 141 -387 507 -1510 267 -822 491 -1498 498 -1502 15 -10 19 -10 34 0 9
6 10 17 3 42 -7 24 -6 36 1 41 7 4 -152 503 -470 1473 -265 807 -481 1473
-481 1481 0 7 7 15 15 19 8 3 15 13 15 23 0 10 16 31 36 47 29 23 75 39 226
77 104 26 192 49 195 52 3 3 -4 169 -16 369 -12 200 -21 375 -21 389 0 24 14
34 141 99 77 39 142 70 143 68 53 -73 99 -127 104 -124 4 2 200 90 435 195
l429 191 706 39 707 39 365 156 364 157 336 -72 c184 -39 902 -210 1595 -379
693 -169 1313 -316 1379 -326 l118 -18 1580 -788 c1159 -578 1579 -792 1575
-802 -28 -72 -30 -96 -11 -117 10 -12 109 -66 219 -121 l199 -100 48 50 48 51
86 -40 c68 -33 83 -43 74 -54 -13 -15 -5 -21 92 -72 51 -28 58 -29 72 -14 15
14 24 12 102 -27 48 -24 87 -42 88 -40 144 212 991 1403 1134 1592 111 148
199 273 195 276 -5 4 -1286 325 -2848 714 -2818 701 -2849 708 -3935 945 -602
131 -1103 240 -1113 242 -12 3 69 71 247 209 146 113 265 207 266 210 0 3
-260 52 -577 108 l-578 103 -740 264 -740 264 -874 106 -873 106 -509 254
-508 255 -1558 105 c-3936 266 -4555 309 -5418 375 -870 67 -937 73 -1237 120
-181 29 -346 49 -385 49 -37 -1 -241 -15 -453 -30z m4298 -3369 c188 -11 329
-23 336 -29 7 -6 21 -48 30 -94 10 -45 20 -89 22 -98 7 -23 -86 -92 -104 -77
-9 8 -23 3 -52 -21 l-40 -32 -70 52 c-65 47 -75 51 -112 46 -40 -5 -47 -2
-240 138 l-198 144 52 -5 c29 -3 198 -13 376 -24z m5238 -336 c13 -19 11 -22
-21 -37 l-35 -17 0 41 c0 36 3 40 21 37 12 -2 28 -12 35 -24z"/>
</g>
</svg>
