<?xml version="1.0" standalone="no"?>
<!DOCTYPE svg PUBLIC "-//W3C//DTD SVG 20010904//EN"
 "http://www.w3.org/TR/2001/REC-SVG-20010904/DTD/svg10.dtd">
<svg version="1.0" xmlns="http://www.w3.org/2000/svg"
   viewBox="0 0 4775.000000 2991.000000"
 preserveAspectRatio="xMidYMid meet">
<metadata>
Created by potrace 1.16, written by Peter Selinger 2001-2019
</metadata>
<g transform="translate(0.000000,2991.000000) scale(0.100000,-0.100000)"
fill="#000000" stroke="none">
<path d="M19397 29153 c-27 -417 -86 -1246 -130 -1843 l-82 -1085 -90 0 c-50
0 -317 4 -595 8 l-505 9 -1363 -191 -1363 -191 -78 -60 -77 -60 -610 -115
-609 -115 -208 -106 -208 -106 -39 36 c-22 20 -43 36 -48 36 -4 0 -28 -33 -53
-73 l-46 -72 -523 -188 -523 -188 -41 32 c-23 18 -46 36 -53 41 -9 7 -23 -12
-51 -67 l-38 -77 -960 -399 c-527 -220 -996 -415 -1041 -434 l-83 -34 -55 51
c-30 27 -61 48 -68 45 -7 -3 -338 -206 -736 -451 -717 -443 -724 -447 -745
-429 -11 10 -74 68 -140 128 l-118 109 5 47 c6 45 5 47 -46 95 -114 108 -107
104 -156 93 -44 -10 -46 -9 -175 67 -72 42 -141 84 -154 92 -15 10 8 -35 69
-136 l92 -151 -10 -50 -10 -50 76 -75 76 -75 46 6 45 5 112 -118 c62 -65 112
-121 112 -124 0 -3 -35 -26 -78 -52 -42 -25 -540 -373 -1107 -773 l-1030 -726
-717 -825 c-395 -453 -718 -828 -718 -833 0 -4 20 -51 45 -104 l44 -95 -206
-342 -207 -341 -81 6 -82 7 -38 -153 c-37 -149 -51 -182 -409 -983 l-371 -830
-93 -28 -92 -29 -50 -99 c-28 -55 -50 -103 -50 -108 0 -5 29 -29 65 -53 35
-24 65 -49 65 -55 0 -5 -67 -197 -149 -425 l-149 -414 -268 -22 c-227 -19
-1198 -83 -1256 -83 -17 0 -18 -14 -18 -270 0 -173 -4 -270 -10 -270 -5 0 -10
-6 -10 -14 0 -11 -21 -16 -83 -20 -65 -5 -1110 -56 -1139 -56 -5 0 -8 -122 -8
-270 l0 -271 173 6 c94 2 290 7 433 10 234 5 262 4 268 -11 3 -8 6 -144 6
-300 l0 -284 38 -1 c95 -1 1252 -86 1258 -92 4 -3 6 -220 5 -481 l-2 -474 490
-4 c269 -2 492 -6 496 -10 4 -3 197 -429 430 -947 l424 -940 32 -166 c30 -158
33 -166 53 -161 11 3 50 8 86 12 l66 6 192 -341 193 -342 -41 -90 c-22 -49
-41 -93 -43 -98 -1 -4 325 -383 725 -842 l726 -835 1034 -729 1033 -729 920
-567 920 -567 35 41 c19 23 42 50 51 60 15 19 49 5 1035 -400 l1019 -419 35
-67 c20 -37 40 -71 46 -77 7 -7 26 1 59 25 l50 34 535 -187 535 -187 41 -73
41 -72 47 36 46 35 198 -105 197 -104 610 -117 610 -116 76 -58 76 -58 1399
-196 1399 -196 592 6 592 6 5 -34 c11 -66 146 -1933 188 -2591 23 -367 44
-666 45 -664 4 3 44 522 168 2170 46 621 86 1130 87 1131 2 1 108 37 236 80
128 43 231 79 229 81 -2 2 -98 45 -213 95 -115 49 -213 94 -217 99 -5 4 -6 62
-2 129 7 116 9 122 39 158 30 35 33 46 45 158 13 130 16 118 -42 159 -16 12
-17 30 -11 238 l7 224 86 70 86 69 16 215 16 215 -79 83 -78 84 6 76 c3 43 9
121 12 175 l7 99 288 106 c258 95 286 107 265 118 -13 6 -136 55 -275 109
l-251 98 5 56 c4 55 6 57 84 131 l79 75 0 256 0 257 -71 58 -71 58 6 360 c4
199 11 876 16 1506 5 630 13 1340 16 1578 l6 432 67 0 c43 0 265 38 636 110
l570 109 690 216 c515 162 696 214 712 208 12 -4 150 -62 308 -127 l286 -119
677 77 c372 42 825 89 1005 105 l328 29 162 -90 c100 -55 314 -193 560 -362
l398 -273 372 -351 c321 -302 468 -452 1062 -1081 379 -401 690 -729 691 -728
1 1 18 79 38 172 52 247 92 498 137 855 50 404 90 683 99 693 3 4 343 -160
754 -363 l747 -371 717 -441 717 -441 1715 -349 1715 -349 1135 -30 1135 -30
1105 25 1105 25 1465 95 1465 95 830 106 c807 103 855 110 1735 266 808 143
1996 368 2043 387 16 6 10 20 -46 117 -237 413 -314 549 -391 690 -49 88 -120
210 -159 270 -38 61 -85 133 -103 161 l-32 50 -158 -32 c-87 -18 -160 -31
-162 -29 -2 2 69 219 157 482 88 263 429 1297 756 2298 327 1001 606 1849 620
1885 13 36 44 128 68 206 l43 140 -1470 367 -1471 367 -1405 225 -1405 225
-1121 110 -1122 110 -1268 64 -1269 64 -2394 -7 -2395 -7 -120 126 c-67 69
-151 156 -187 194 l-67 70 -1023 -82 -1024 -82 -1275 -214 c-1141 -193 -1317
-225 -1674 -306 -220 -50 -631 -133 -914 -185 -283 -52 -515 -95 -517 -97 -1
-2 -43 -65 -94 -140 -62 -95 -98 -139 -114 -142 -12 -3 -166 -24 -342 -46
-892 -113 -1857 -246 -2079 -286 -138 -24 -253 -41 -257 -37 -3 5 -26 59 -50
121 l-44 113 -108 80 -108 79 40 58 c21 31 136 190 255 352 l216 295 0 130 c0
195 -33 367 -116 597 -64 177 -66 187 -74 313 -13 197 -35 304 -87 427 -25 60
-51 112 -57 117 -13 11 -530 159 -670 192 -54 13 -100 28 -102 34 -2 5 -17 98
-32 205 l-29 195 15 364 14 364 119 196 119 196 0 457 0 457 -196 166 c-108
91 -200 165 -204 163 -5 -2 -83 -74 -174 -161 l-166 -159 0 -464 0 -464 86
-192 85 -193 15 -365 c15 -362 15 -366 -7 -520 -12 -85 -22 -156 -23 -157 -1
-1 -18 2 -37 7 -69 19 -1321 210 -1378 210 l-59 0 -6 193 c-3 105 -10 743 -16
1417 -5 674 -13 1347 -16 1495 l-6 270 76 63 76 63 0 278 0 279 -85 79 -85 78
-10 134 c-5 74 -9 135 -7 136 1 1 171 44 377 95 206 51 381 96 388 99 6 4
-156 49 -360 101 -205 51 -387 97 -404 102 l-31 8 -9 149 -9 148 82 89 c96
103 90 71 68 339 -8 99 -15 189 -15 200 0 13 -33 46 -94 95 l-93 74 -6 186
c-11 315 -13 301 29 330 l36 24 -7 90 c-12 152 -19 184 -52 219 -27 28 -31 41
-38 114 -6 80 -6 82 17 88 13 3 172 39 353 80 182 42 338 79 348 83 11 4 -126
37 -365 87 l-383 79 -73 971 c-40 533 -102 1364 -138 1845 -36 481 -69 883
-72 893 -4 10 -29 -323 -55 -740z m-247 -3406 c0 -47 -5 -59 -35 -94 -33 -39
-35 -46 -49 -169 l-15 -129 38 -35 39 -35 -5 -238 -6 -237 -81 -67 c-44 -37
-87 -72 -95 -79 -9 -9 -18 -79 -31 -246 l-18 -233 85 -86 85 -87 -6 -113 c-4
-63 -9 -131 -12 -151 -6 -37 -7 -38 -49 -38 -23 0 -197 -32 -386 -70 l-344
-71 -171 46 c-95 25 -183 45 -198 45 -14 0 -200 -31 -414 -70 l-388 -69 -130
-62 -129 -61 -419 -65 c-408 -63 -420 -64 -451 -47 -32 17 -33 16 -651 -153
l-620 -171 -241 -120 c-202 -102 -642 -293 -670 -292 -4 0 -36 52 -71 115 -47
85 -68 115 -84 117 -14 2 -73 60 -153 149 -71 81 -131 145 -132 144 -2 -1 22
-90 52 -198 40 -143 53 -202 46 -219 -6 -18 2 -42 42 -116 27 -51 47 -95 45
-97 -3 -3 -221 -92 -486 -199 -458 -185 -507 -207 -1000 -456 l-518 -262 -350
-269 c-192 -147 -351 -269 -354 -269 -4 0 -1827 1590 -1902 1659 -4 3 303 168
683 365 379 198 696 364 704 370 14 10 13 16 -1 54 -11 26 -14 46 -8 52 10 10
1883 960 1893 960 4 0 40 -14 81 -31 58 -25 75 -29 79 -18 3 8 12 34 21 58
l15 45 510 194 510 195 78 -28 c44 -16 82 -24 86 -19 5 5 14 26 21 46 6 21 15
40 20 43 5 3 98 14 206 26 l198 20 590 204 590 205 80 -14 81 -14 1360 198
1360 199 505 19 c278 11 520 20 538 21 l32 1 0 -53z m-471 -2424 l333 -38 -7
-124 -7 -125 -70 -65 c-39 -36 -77 -70 -84 -74 -11 -6 -14 -63 -13 -295 l0
-287 70 -58 69 -59 0 -99 c0 -94 -1 -99 -22 -104 -13 -2 -448 -67 -968 -144
l-945 -139 -305 -6 -305 -7 -453 -126 -452 -127 5 -31 c2 -16 6 -50 7 -74 l3
-43 -290 -140 c-159 -77 -318 -152 -352 -168 l-62 -28 -31 49 c-16 27 -32 49
-35 49 -2 0 -34 -18 -70 -40 -36 -22 -69 -40 -73 -40 -4 0 -149 244 -322 542
-304 523 -316 547 -353 666 -21 69 -36 127 -33 129 3 3 99 49 215 103 l209 98
244 37 c226 34 286 48 855 201 336 90 613 164 616 164 2 0 10 12 16 28 11 26
25 31 409 130 l397 103 145 -7 c128 -5 192 -1 535 35 l390 41 165 60 c119 43
175 59 200 56 19 -3 185 -22 369 -43z m-9053 -1701 c516 -497 940 -906 942
-911 2 -6 -685 -560 -725 -584 -7 -5 -37 0 -68 9 l-56 18 -23 -25 c-13 -13
-321 -363 -685 -777 l-662 -753 25 -33 25 -33 -238 -394 -238 -394 -53 0 -54
0 -362 -850 -362 -850 -1684 -121 c-926 -67 -1717 -125 -1759 -128 l-76 -6 78
287 c43 159 82 294 87 302 4 8 26 19 47 25 35 10 44 21 92 101 29 50 53 94 53
99 0 5 -19 38 -41 73 l-42 64 119 251 c65 138 232 490 369 782 l251 531 157
106 156 106 -69 58 c-39 31 -70 62 -70 67 0 7 340 596 355 616 2 2 53 -4 114
-12 l112 -14 43 46 c24 26 339 373 700 772 l656 725 870 827 c831 790 874 829
962 877 51 28 98 50 104 48 6 -1 433 -408 950 -905z m4049 559 c3 -10 37 -60
76 -112 59 -78 119 -191 355 -661 l283 -566 -105 -66 c-59 -37 -463 -318 -900
-626 -436 -308 -795 -560 -797 -560 -3 0 -125 115 -273 255 l-269 256 -65 -6
c-36 -3 -81 -8 -100 -11 -34 -5 -46 4 -405 321 -204 180 -373 330 -377 333 -8
8 560 368 1182 748 l455 278 460 217 c253 120 463 218 467 219 4 0 9 -8 13
-19z m5291 -963 c-3 -139 -8 -595 -11 -1013 -3 -418 -8 -887 -11 -1043 l-6
-283 -192 7 -191 7 -549 -127 -548 -127 -777 -351 -776 -351 -450 -255 c-247
-140 -469 -265 -491 -279 l-42 -24 -1061 1005 c-584 553 -1063 1008 -1064
1012 -2 7 513 359 1399 959 140 95 143 96 243 115 56 11 107 20 114 20 7 0 57
-89 111 -199 l99 -199 -30 -37 -30 -37 78 -151 c43 -84 118 -228 167 -322 l88
-170 164 -47 c90 -27 164 -47 165 -45 2 1 30 77 64 169 l62 166 -178 316 -178
316 -48 -3 -48 -2 -86 148 c-95 164 -95 161 -12 172 l47 7 -24 71 c-13 38 -23
71 -21 72 8 6 699 215 711 215 9 0 23 -11 32 -25 9 -14 23 -25 31 -25 29 0
812 265 1071 362 l267 100 895 63 c492 34 924 63 959 64 l63 1 -6 -252z
m-7826 -1055 l409 -397 3 -105 3 -106 1390 -1246 c764 -686 1391 -1251 1392
-1256 2 -5 -74 -52 -168 -103 l-172 -94 -3051 -377 c-1678 -208 -3088 -381
-3134 -385 l-83 -7 15 39 c53 134 526 1420 526 1430 0 6 -18 24 -40 39 -23 16
-40 34 -38 41 2 7 102 175 223 372 l220 359 48 -20 c28 -12 52 -16 57 -11 5 5
303 346 663 758 l655 749 -15 45 c-13 37 -13 46 -2 57 173 162 674 615 680
615 5 0 193 -179 419 -397z m-4965 -7414 c1599 -26 1996 -29 3721 -29 l1932 0
283 -44 c156 -24 412 -58 569 -76 242 -27 369 -48 840 -140 305 -60 579 -112
608 -116 28 -3 52 -9 51 -13 0 -3 -592 -536 -1315 -1184 l-1314 -1178 0 -103
0 -103 -397 -381 c-219 -210 -402 -382 -408 -382 -13 -1 -715 579 -722 596 -3
8 4 41 16 75 l20 61 -152 147 c-84 81 -315 304 -515 496 -249 240 -361 353
-357 364 2 9 23 75 45 147 l41 131 -187 304 c-102 167 -188 306 -190 308 -3 3
-199 50 -521 126 -18 4 -33 -17 -122 -170 -56 -96 -101 -179 -101 -184 0 -6
132 -226 293 -490 l293 -480 526 -509 527 -509 87 -7 86 -6 399 -296 399 -296
-479 -485 -479 -486 -192 -71 -193 -71 -209 -383 c-116 -211 -208 -385 -205
-388 3 -3 180 82 394 190 l389 194 85 189 85 188 440 373 c241 205 469 398
506 428 l67 56 347 -266 346 -266 521 -264 c496 -251 546 -274 1007 -461 267
-108 487 -198 488 -200 2 -2 -18 -46 -45 -98 -37 -72 -47 -101 -41 -117 5 -14
-9 -83 -47 -218 -30 -108 -53 -197 -52 -198 1 -1 60 62 130 142 77 87 138 146
153 150 18 5 39 33 85 115 33 60 64 111 68 114 17 10 446 -172 674 -287 l242
-121 625 -173 625 -172 31 19 32 19 413 -64 414 -65 129 -61 129 -62 405 -72
404 -73 182 49 181 48 365 -75 c201 -41 389 -75 418 -75 51 0 52 0 52 -31 0
-16 5 -96 11 -176 l11 -146 -79 -81 -79 -81 17 -215 c9 -118 17 -216 18 -216
0 -1 39 -32 85 -70 l84 -67 7 -224 c7 -212 6 -225 -11 -238 -57 -41 -54 -29
-41 -161 12 -113 15 -124 44 -157 28 -32 31 -42 37 -137 4 -56 6 -103 4 -105
-1 -2 -259 12 -573 31 l-570 35 -1345 197 -1344 198 -91 -15 -90 -14 -590 205
-590 206 -207 23 -207 23 -25 59 -25 58 -69 -35 -68 -34 -517 191 c-471 175
-516 194 -522 217 -3 14 -10 42 -16 62 l-9 37 -68 -26 c-37 -14 -75 -28 -84
-30 -9 -3 -435 207 -982 484 l-966 488 6 45 c4 25 7 49 8 54 0 5 -409 223
-910 485 l-911 476 -859 819 -859 818 -693 767 c-382 421 -699 766 -706 765
-7 -1 -62 -4 -122 -8 l-109 -7 -145 272 c-80 149 -154 289 -165 310 l-19 39
63 64 62 63 -144 107 -143 108 -367 767 c-202 422 -367 770 -367 775 0 4 116
5 258 1 141 -3 1063 -19 2047 -36z m9267 -818 c293 -104 873 -314 1288 -466
l755 -277 580 -88 580 -88 178 5 177 6 0 -174 c0 -96 7 -761 15 -1478 8 -717
13 -1306 10 -1309 -2 -3 -440 23 -972 57 l-968 62 -285 103 c-157 57 -466 164
-686 237 l-402 133 -26 -31 -25 -30 -359 110 -360 111 24 68 c12 37 20 70 16
72 -4 2 -28 7 -55 11 -26 4 -50 11 -53 16 -3 5 34 77 81 159 l87 150 47 -6 46
-5 178 316 178 316 -62 167 c-34 92 -63 168 -63 169 -1 1 -75 -19 -165 -45
l-164 -47 -104 -200 c-57 -110 -132 -255 -167 -322 l-63 -122 30 -37 30 -36
-99 -199 c-63 -128 -104 -199 -114 -199 -33 0 -207 38 -230 50 -14 7 -212 123
-440 258 l-415 245 -337 266 c-185 146 -336 269 -335 272 4 11 2099 1989 2107
1989 5 0 248 -85 542 -189z m-2472 -2296 l365 -291 490 -305 c270 -168 507
-316 527 -328 l37 -22 -283 -567 c-236 -471 -296 -583 -355 -661 -39 -52 -71
-97 -71 -100 -1 -39 -24 -31 -471 179 l-454 213 -460 280 c-414 251 -1207 748
-1202 753 1 1 171 151 377 333 319 282 379 331 400 327 14 -3 59 -8 100 -11
l75 -6 269 255 c150 142 274 252 280 249 6 -4 175 -138 376 -298z m2325 -1289
l240 -115 -3 -43 c-1 -24 -5 -57 -7 -74 l-5 -30 450 -128 451 -127 342 -9 342
-9 965 -139 965 -138 3 -201 2 -200 -65 -54 -65 -54 0 -264 0 -264 74 -71 c73
-69 75 -73 81 -128 l6 -58 -48 0 c-26 0 -204 -18 -395 -41 l-347 -40 -170 61
-169 60 -394 41 c-344 35 -412 40 -543 35 l-150 -6 -389 104 c-214 57 -392
110 -397 117 -5 8 -13 19 -17 26 -4 7 -275 84 -602 173 -557 150 -611 163
-853 200 l-258 40 -207 97 c-114 53 -211 99 -215 103 -4 4 10 63 31 131 37
121 49 144 353 667 172 298 317 542 321 542 4 0 37 -18 73 -40 36 -22 68 -40
70 -40 3 0 19 22 35 49 l31 49 112 -53 c62 -29 220 -105 352 -169z"/>
</g>
</svg>
