<?xml version="1.0" standalone="no"?>
<!DOCTYPE svg PUBLIC "-//W3C//DTD SVG 20010904//EN"
 "http://www.w3.org/TR/2001/REC-SVG-20010904/DTD/svg10.dtd">
<svg version="1.0" xmlns="http://www.w3.org/2000/svg"
   viewBox="0 0 4303.000000 1200.000000"
 preserveAspectRatio="xMidYMid meet">
<metadata>
Created by potrace 1.16, written by Peter Selinger 2001-2019
</metadata>
<g transform="translate(0.000000,1200.000000) scale(0.100000,-0.100000)"
fill="#000000" stroke="none">
<path d="M18815 11970 c-9 -16 -17 -30 -18 -30 -15 -3 -662 -40 -689 -40 l-38
0 0 -45 0 -45 -459 0 c-449 0 -461 0 -581 25 l-123 25 -1316 0 -1316 0 -210
-45 c-116 -25 -219 -47 -231 -50 -11 -2 -26 -15 -33 -28 -7 -13 -25 -31 -40
-40 l-27 -16 -22 45 c-21 43 -23 44 -59 38 -21 -3 -159 -22 -308 -43 l-270
-37 -3 -147 c-1 -81 -4 -147 -6 -147 -7 0 -763 -130 -783 -135 l-23 -5 0 -629
0 -629 63 -6 c34 -4 179 -13 322 -21 143 -8 288 -18 323 -21 l62 -6 0 -119 0
-119 158 0 158 0 32 -98 c29 -90 32 -108 32 -230 0 -120 -2 -132 -19 -142 -12
-6 -114 -10 -263 -10 l-243 0 -39 -104 -40 -105 -92 80 -93 79 -478 0 -478 0
-600 -106 -600 -106 -410 -238 c-225 -130 -424 -244 -442 -254 -26 -13 -64
-16 -200 -16 l-168 0 -375 -239 -375 -239 -795 -101 c-437 -56 -805 -104 -817
-106 -15 -4 -45 -42 -93 -119 -39 -63 -77 -119 -83 -124 -7 -5 -212 -26 -457
-46 -245 -21 -460 -41 -478 -45 -26 -5 -75 -52 -257 -246 l-225 -240 0 -162 0
-163 -185 0 -185 0 0 129 0 129 -245 206 -245 206 -936 0 -935 0 -78 -65 -79
-65 -403 0 -404 0 -77 65 -77 65 -69 0 c-62 0 -133 -20 -633 -174 -310 -96
-603 -186 -651 -201 l-88 -26 0 -402 0 -402 641 -1020 c352 -561 652 -1040
666 -1063 l26 -44 5 -465 5 -466 -99 -413 -99 -414 -63 0 c-55 0 -69 -4 -116
-36 l-54 -35 -32 -122 c-18 -67 -42 -160 -54 -206 l-22 -84 91 -235 92 -235
69 -48 c56 -39 77 -49 111 -49 l41 0 42 -125 41 -124 110 -3 110 -3 179 -370
178 -370 56 -3 c51 -3 67 3 202 68 l147 70 532 0 c417 0 534 3 537 13 3 6 29
137 58 290 l54 277 406 0 407 0 31 103 c17 56 75 276 128 488 l97 386 225 6
c124 4 375 7 559 7 l333 0 0 -211 0 -211 193 6 c105 3 633 11 1171 18 l979 11
137 86 c114 72 150 100 214 172 l76 86 143 6 c78 4 357 7 619 7 l477 0 363
335 363 334 968 1 967 0 1 -442 0 -443 97 -170 97 -170 1705 -3 1705 -2 50
-85 50 -84 1268 -1 1267 0 0 -130 0 -130 1290 0 1290 0 0 -245 0 -245 2235 0
2235 0 0 -175 0 -175 1729 0 1729 0 21 36 c12 19 21 45 21 57 0 19 10 25 64
40 68 18 138 21 249 10 62 -5 67 -8 67 -30 0 -15 8 -27 23 -34 17 -8 430 -1
1460 24 1291 31 1439 36 1455 50 10 10 34 17 53 17 68 0 334 124 358 167 8 14
80 15 742 4 404 -6 753 -14 777 -16 37 -4 42 -2 42 15 0 18 -7 20 -57 20 -190
1 -1497 70 -1503 79 -3 6 -57 32 -120 57 -111 45 -116 46 -256 51 l-142 6 -10
38 c-9 37 -9 38 17 34 80 -14 281 -23 546 -24 165 -1 378 -4 473 -8 112 -4
172 -2 172 4 0 9 -83 18 -346 38 -21 2 -165 15 -319 29 -154 14 -298 26 -319
26 -25 0 -48 7 -60 19 -24 21 -158 35 -175 18 -17 -17 -28 1 -47 73 -15 60
-21 70 -40 70 -12 0 -27 7 -34 15 -11 13 -4 15 49 15 48 0 74 -6 119 -29 l57
-29 613 231 612 230 0 28 0 29 663 0 664 0 814 185 c448 102 824 187 837 190
19 5 22 12 22 50 l0 45 263 1 262 0 110 62 c93 53 110 67 113 90 3 25 6 27 53
27 l49 0 0 313 0 314 -142 66 c-140 65 -153 69 -545 162 l-402 95 -1146 0
-1145 0 -1253 160 c-688 88 -1262 163 -1274 165 -16 4 -39 37 -84 123 -54 101
-70 122 -114 154 -43 30 -175 78 -765 277 l-712 241 -485 0 -485 0 5 23 c12
48 41 343 35 358 -11 28 -796 582 -921 649 l-118 64 103 38 c65 24 121 38 151
38 38 0 47 3 47 18 0 14 78 46 383 158 l382 142 3 221 c1 122 4 221 6 221 2 0
153 -16 336 -35 184 -20 336 -32 340 -28 4 4 55 68 114 141 l107 132 585 0
584 0 0 26 c0 23 12 31 110 77 l110 52 0 68 0 67 295 0 295 0 0 494 0 494 38
6 c50 8 406 43 512 51 47 4 218 22 380 41 162 19 871 95 1575 169 1279 134
1441 152 1995 221 244 30 324 36 463 35 131 -2 173 1 195 13 23 13 406 21
2677 56 3252 49 3175 48 3175 70 0 20 154 16 -2450 56 -982 15 -1787 29 -1788
30 -2 1 1 19 8 38 l12 36 2184 0 2184 0 0 180 0 180 -2185 0 -2184 0 -24 78
-24 77 -305 3 -305 2 -14 53 -14 52 -3726 3 -3725 2 -26 53 -26 53 -403 182
-404 182 -342 0 -343 0 0 111 c0 79 6 134 21 192 16 63 18 89 11 119 l-10 38
168 0 c102 0 171 4 175 10 4 6 112 11 288 11 155 1 372 5 482 8 183 6 159 7
-283 15 -265 5 -485 12 -488 17 -3 5 -86 9 -185 9 l-180 0 3 22 c3 22 11 24
126 37 116 13 122 15 122 36 0 19 -7 23 -52 29 -29 3 -86 6 -125 6 l-73 0 0
165 0 164 -43 26 c-24 14 -51 25 -60 25 -19 0 -20 9 -21 200 -1 69 -3 208 -5
310 -5 262 -19 161 -25 -180 -2 -146 -5 -280 -5 -297 -1 -30 -4 -33 -31 -33
l-30 0 -2 158 -1 157 -7 -105 c-4 -58 -8 -129 -9 -157 l-1 -53 -77 0 -78 0
-73 -168 c-40 -92 -72 -172 -72 -179 0 -7 -18 -13 -42 -15 l-43 -3 -3 -47 c-2
-36 0 -48 11 -48 10 0 16 -17 21 -56 5 -46 3 -60 -14 -84 -11 -15 -20 -41 -20
-57 0 -21 -17 -49 -60 -101 l-60 -71 0 -235 0 -236 -1677 1 -1678 0 -978 867
c-539 476 -975 868 -970 869 4 1 442 36 973 78 531 41 989 77 1018 81 l52 5 0
125 c0 118 -1 124 -20 124 -11 0 -593 45 -1293 100 -700 55 -1284 100 -1299
100 -21 0 -32 10 -56 53 -22 39 -53 70 -123 124 l-94 71 -390 16 c-214 9 -669
21 -1010 26 l-620 9 -460 45 c-609 60 -549 51 -563 90 -12 32 -14 33 -95 45
-112 15 -114 15 -132 -19z m4630 -9239 c156 -157 184 -181 211 -181 18 0 38
-8 49 -20 17 -19 31 -20 375 -20 l356 0 20 -27 c12 -16 38 -52 58 -80 l38 -53
-661 0 -661 0 0 290 c0 274 1 290 18 281 9 -5 98 -91 197 -190z"/>
</g>
</svg>
