<?xml version="1.0" standalone="no"?>
<!DOCTYPE svg PUBLIC "-//W3C//DTD SVG 20010904//EN"
 "http://www.w3.org/TR/2001/REC-SVG-20010904/DTD/svg10.dtd">
<svg version="1.0" xmlns="http://www.w3.org/2000/svg"
   viewBox="0 0 4176.000000 4456.000000"
 preserveAspectRatio="xMidYMid meet">
<metadata>
Created by potrace 1.16, written by Peter Selinger 2001-2019
</metadata>
<g transform="translate(0.000000,4456.000000) scale(0.100000,-0.100000)"
fill="#000000" stroke="none">
<path d="M26710 43387 c0 -646 -3 -1404 -7 -1685 l-6 -512 106 0 107 0 0
-1724 0 -1724 200 -334 200 -333 0 -1391 0 -1392 -105 -93 -105 -94 0 -2102 0
-2102 -215 -200 -215 -201 -299 0 -299 0 -6 83 c-3 45 -12 330 -21 632 -8 303
-18 619 -22 703 l-6 152 -78 0 -78 0 -5 43 c-5 43 -26 866 -26 1015 l0 82 95
0 95 0 0 100 c0 138 -250 9263 -253 9267 -2 1 -106 41 -230 88 l-227 85 -587
0 -586 0 -157 -86 -157 -86 -7 -221 c-4 -121 -4 -487 0 -812 l7 -591 220 -175
c120 -96 223 -176 228 -179 5 -3 -45 -1674 -111 -3725 -66 -2046 -122 -3807
-125 -3912 l-6 -193 81 0 81 0 -6 -152 c-7 -200 -25 -854 -25 -935 l0 -63 -63
0 -63 0 -12 -397 c-7 -219 -15 -473 -19 -564 l-6 -166 -96 -7 c-53 -3 -440 -7
-861 -7 -421 -1 -857 -5 -969 -8 l-204 -6 -108 -305 c-60 -168 -120 -338 -135
-377 l-26 -73 -99 0 -98 0 -7 38 c-4 20 -30 163 -59 316 l-53 279 -173 171
-174 172 -240 59 -241 58 -250 -62 -251 -63 -165 -166 -166 -167 -58 -317 -59
-318 -560 0 -560 1 -530 607 c-510 584 -530 608 -527 644 2 30 -5 44 -40 85
-42 48 -48 51 -79 38 -13 -5 -44 25 -126 118 l-110 124 -44 -17 c-28 -11 -45
-24 -47 -36 -1 -13 220 -281 659 -799 363 -429 657 -781 652 -782 -4 -1 -1375
-198 -3047 -438 l-3038 -435 -1872 0 -1871 1 -233 23 c-128 13 -235 25 -236
27 -2 2 -9 81 -15 174 -6 94 -14 189 -17 213 l-5 42 -512 0 -512 0 -116 388
-115 387 -262 3 -262 2 0 -390 0 -390 -757 -1 -758 0 -361 -447 -361 -447
-343 0 -344 0 -321 455 c-176 251 -411 586 -523 745 -809 1155 -1718 2444
-1723 2445 -4 0 -573 -343 -586 -354 -1 0 46 -68 104 -149 l104 -148 136 3
136 3 489 -695 c269 -382 550 -781 624 -887 l134 -191 -21 -37 -22 -36 47 -67
c26 -37 124 -177 219 -312 l173 -245 39 2 40 3 187 -267 c134 -190 184 -269
175 -275 -6 -4 -434 -8 -949 -8 l-938 0 1 -1532 c1 -843 5 -2192 8 -2998 l6
-1465 223 -69 c122 -38 222 -73 222 -78 0 -5 -149 -220 -331 -479 l-332 -471
-135 4 -136 3 -102 -145 c-56 -80 -101 -145 -101 -146 26 -18 568 -345 578
-348 9 -4 178 228 523 719 279 398 513 722 520 720 6 -2 135 -43 286 -90 151
-47 278 -89 282 -93 5 -5 48 -73 96 -153 l88 -144 167 -3 167 -2 0 -180 0
-179 33 -6 c17 -3 313 -46 657 -95 344 -50 635 -92 648 -95 18 -4 22 -12 22
-40 0 -21 -5 -35 -12 -35 -7 0 -191 -26 -409 -58 l-395 -58 -53 128 c-52 125
-54 128 -85 128 -28 0 -1366 -586 -1387 -607 -4 -4 -52 -130 -108 -280 l-100
-272 285 -681 284 -681 0 -468 0 -469 -65 -27 c-36 -16 -65 -31 -65 -34 0 -3
12 -36 27 -74 l27 -69 41 7 c94 14 173 46 996 410 l858 380 1 87 0 87 53 15
c28 8 88 24 132 35 l79 20 331 -154 330 -153 1752 -14 c963 -7 1754 -15 1757
-18 7 -8 1028 -2689 1033 -2715 3 -12 -9 -37 -29 -62 l-32 -43 -108 0 -108 0
0 -77 c0 -68 3 -81 31 -125 l31 -48 188 0 c115 0 191 -4 195 -10 4 -6 55 -10
120 -10 l114 0 73 86 72 87 711 -8 710 -7 1360 -797 1360 -796 2597 4 2597 3
10 -38 c5 -22 15 -61 21 -89 26 -119 25 -118 141 -224 l111 -101 918 0 c866 0
919 1 924 18 3 9 15 59 26 110 l22 92 1279 0 c1016 0 1279 -3 1279 -12 0 -7 9
-274 20 -593 11 -319 20 -619 20 -667 l0 -88 65 0 65 0 0 -63 c0 -81 18 -735
25 -934 l6 -153 -82 0 -81 0 6 -147 c13 -286 247 -7628 244 -7655 -2 -21 -46
-61 -229 -206 l-227 -180 -6 -663 c-3 -365 -3 -713 2 -773 l7 -109 159 -89
159 -88 577 0 577 0 229 86 c126 47 232 89 236 93 6 5 258 9018 258 9224 l0
57 -95 0 -95 0 0 88 c0 152 21 975 26 1019 l5 43 80 0 c69 0 79 2 79 18 0 9
11 375 25 812 14 437 25 825 25 863 l0 67 495 0 c488 0 495 0 495 20 0 18 7
20 55 20 37 0 55 -4 55 -12 0 -7 318 -840 707 -1850 l708 -1838 759 0 759 0
-6 1012 c-4 557 -7 1295 -7 1639 l0 625 -205 150 -205 149 0 227 0 228 -1255
0 c-1248 0 -1255 0 -1255 -20 0 -18 -7 -20 -55 -20 -48 0 -55 2 -55 20 0 20
-7 20 -325 20 l-325 0 0 115 0 115 205 0 205 0 0 130 0 130 -207 1 c-180 1
-204 2 -178 14 17 7 472 156 1013 331 l982 319 0 102 0 103 288 0 288 0 62 63
62 63 0 527 0 527 671 -2 672 -3 2190 -6605 c1205 -3633 2192 -6607 2195
-6610 6 -8 275 133 1049 548 l703 377 -6 40 c-5 38 -3 41 33 60 30 16 38 26
36 45 -1 14 -594 2749 -1317 6079 -724 3330 -1316 6058 -1316 6063 0 4 1597 8
3549 8 3482 0 3552 0 3684 20 130 19 138 21 233 76 55 31 107 63 116 72 10 8
45 63 78 122 l60 107 0 142 0 143 -57 101 c-32 56 -67 111 -78 122 -11 11 -65
46 -120 77 -171 96 206 88 -4015 88 l-3686 0 -43 197 c-23 109 -112 518 -197
909 l-154 710 0 737 0 737 -45 22 -45 22 0 118 0 118 -25 0 c-22 0 -25 4 -25
40 l0 40 -277 0 -276 0 6 498 7 497 -80 63 -80 63 0 209 0 209 80 62 80 61 0
197 1 196 292 240 292 241 3 86 3 87 43 -18 43 -19 6 241 c4 132 7 948 7 1814
l0 1573 -47 0 -46 0 6 3233 c4 1777 10 5119 14 7425 l6 4192 -486 0 -487 0 0
208 c0 204 0 209 -34 331 l-34 123 -87 88 -88 88 -136 34 -136 34 -135 -33
-135 -33 -91 -94 c-86 -90 -92 -98 -110 -168 l-19 -73 -297 0 c-164 0 -1090 1
-2058 3 l-1760 2 0 1393 0 1393 -58 57 -58 57 -217 0 -217 0 0 -1173z m-17480
-15962 c14 -8 21 -15 15 -15 -5 0 -126 -18 -267 -39 l-258 -38 0 54 0 53 243
0 c191 -1 247 -4 267 -15z m-5177 -9132 l27 -5 0 -153 0 -152 -72 -12 c-40 -7
-81 -15 -90 -17 -17 -5 -18 8 -18 177 l0 182 63 -7 c34 -4 74 -10 90 -13z
m26057 -1928 c0 -13 -151 -15 -1295 -15 -1146 0 -1294 2 -1289 15 5 13 159 15
1295 15 1139 0 1289 -2 1289 -15z"/>
</g>
</svg>
