<?xml version="1.0" standalone="no"?>
<!DOCTYPE svg PUBLIC "-//W3C//DTD SVG 20010904//EN"
 "http://www.w3.org/TR/2001/REC-SVG-20010904/DTD/svg10.dtd">
<svg version="1.0" xmlns="http://www.w3.org/2000/svg"
   viewBox="0 0 4283.000000 2747.000000"
 preserveAspectRatio="xMidYMid meet">
<metadata>
Created by potrace 1.16, written by Peter Selinger 2001-2019
</metadata>
<g transform="translate(0.000000,2747.000000) scale(0.100000,-0.100000)"
fill="#000000" stroke="none">
<path d="M6039 27428 c0 -24 -4 -90 -8 -148 -7 -78 -6 -110 4 -125 6 -11 15
-38 19 -60 4 -22 26 -103 51 -180 24 -77 83 -275 131 -440 47 -165 144 -487
215 -715 70 -228 155 -512 189 -630 34 -118 134 -429 222 -690 88 -261 169
-502 179 -534 l18 -59 -157 7 c-86 3 -209 9 -272 12 l-115 6 -79 -108 c-44
-60 -81 -111 -83 -113 -1 -2 -256 13 -565 33 l-563 37 -1129 -249 -1128 -250
-42 -41 -42 -41 -1442 0 -1442 0 0 -95 0 -95 1353 -1 c743 0 1348 -2 1342 -5
-5 -2 -597 -80 -1315 -174 -718 -93 -1322 -173 -1342 -176 l-38 -6 0 -1088 c0
-1028 1 -1089 18 -1093 9 -3 564 -76 1233 -164 l1216 -158 -1233 -3 -1234 -2
0 -95 0 -95 1450 0 1449 0 34 -30 35 -30 3566 0 3566 0 0 197 0 196 128 -6
c70 -4 198 -7 284 -7 l156 0 4 -81 3 -82 -285 -258 -285 -259 -3 95 -3 95
-3565 0 -3565 0 -33 -25 -33 -25 -1451 0 -1452 0 0 -95 0 -95 1256 -2 1256 -3
-1249 -163 c-686 -90 -1251 -163 -1255 -162 -5 0 -8 -492 -8 -1093 l0 -1092
1337 -175 1337 -175 -1337 -3 -1337 -2 0 -95 0 -95 1444 0 1444 0 39 -44 38
-43 1140 -251 1140 -250 490 33 c270 18 518 36 552 39 l62 5 82 -112 c45 -62
82 -113 83 -113 0 -1 172 6 381 17 209 10 394 18 411 19 29 0 38 10 115 130
72 112 88 131 114 135 17 2 570 41 1230 85 660 44 1230 83 1267 86 l68 7 2
577 3 577 295 -269 295 -268 117 0 117 0 6 -32 c16 -96 98 -869 109 -1025 7
-101 14 -184 17 -186 14 -12 2009 -1097 2017 -1097 5 0 69 63 142 140 72 77
136 140 140 140 5 0 564 -379 1242 -841 l1233 -841 270 -268 270 -267 3176
-1541 c1746 -848 3179 -1542 3185 -1542 5 0 44 54 87 121 43 66 81 119 86 117
4 -2 1268 -892 2808 -1978 l2801 -1975 68 -230 69 -230 215 -146 215 -146
1369 -113 c753 -61 1375 -114 1382 -117 10 -4 14 -37 16 -126 l3 -120 150 -62
150 -61 6 -60 c4 -32 7 -102 8 -155 1 -92 -1 -100 -49 -223 -28 -70 -49 -131
-47 -134 2 -4 194 -336 426 -739 l422 -731 451 -367 452 -368 356 43 355 42
685 -274 684 -274 11 -44 c10 -41 33 -65 340 -345 l329 -300 525 -6 c289 -3
527 -7 529 -8 1 0 2 -93 2 -206 l0 -205 805 0 805 0 0 203 0 204 407 6 c223 4
564 7 757 8 193 1 390 4 438 8 l86 6 231 300 231 300 0 456 0 456 168 6 c92 4
292 10 445 13 l277 7 0 138 0 139 145 0 145 0 0 764 0 763 -50 5 c-28 3 -53 7
-56 10 -2 3 -31 83 -64 177 l-60 172 0 461 0 461 -115 217 -115 217 0 1679 0
1679 219 154 218 155 7 330 7 330 131 230 131 231 -22 260 c-12 143 -24 276
-27 297 l-5 36 -195 89 -194 88 0 128 0 127 -39 0 c-39 0 -40 1 -55 53 -8 28
-22 82 -32 120 l-16 67 -114 0 c-102 0 -114 2 -114 18 -1 57 102 3304 106
3338 4 37 14 49 129 150 69 60 125 116 125 124 0 8 -14 569 -31 1245 -27 1107
-32 1250 -53 1428 -13 109 -26 200 -29 203 -2 3 -69 -4 -148 -15 -79 -11 -145
-18 -148 -16 -2 3 -17 91 -33 197 -15 106 -30 198 -32 203 -2 6 -76 32 -164
59 l-159 49 -38 156 c-21 86 -40 161 -42 167 -3 8 46 24 133 45 75 19 138 39
140 44 3 6 -70 213 -161 460 l-166 449 -275 477 -276 476 -405 484 c-223 266
-413 493 -423 503 -18 19 -19 19 -56 -13 l-37 -33 -41 40 c-22 21 -136 129
-252 238 l-210 199 -299 172 -300 172 -25 -31 c-14 -18 -30 -39 -36 -47 -10
-13 -17 -10 -50 16 -22 16 -250 162 -509 324 l-470 294 -272 119 -273 119 0
251 -1 251 -247 150 c-135 83 -285 174 -332 202 l-86 53 -839 175 c-462 97
-848 178 -857 181 -17 5 -18 26 -18 257 l0 251 -96 170 c-53 94 -97 172 -98
173 -1 1 -1803 280 -1848 286 -13 1 -40 -38 -104 -153 l-85 -155 -23 -150 -22
-150 -234 -72 -235 -73 -913 106 c-503 58 -921 104 -930 102 -12 -2 -20 -24
-30 -83 -7 -44 -14 -80 -15 -82 -2 -1 -1587 174 -3522 390 l-3520 393 -25 169
c-19 127 -30 171 -40 172 -33 6 -1241 124 -3500 343 -1312 126 -2396 233
-2409 238 -20 6 -30 24 -58 107 l-33 100 -273 28 c-149 16 -285 30 -302 33
-30 5 -31 3 -113 -150 l-83 -155 -32 5 c-18 3 -562 58 -1211 124 -648 65
-1181 121 -1184 124 -3 3 -7 85 -10 181 l-5 175 -873 0 -874 0 0 -90 c0 -79
-2 -90 -17 -90 -10 0 -488 47 -1063 104 -575 57 -1046 103 -1048 102 -1 -2
-10 -40 -19 -85 l-16 -82 -61 6 c-83 8 -496 37 -2276 159 -833 58 -1539 108
-1567 111 l-53 5 -1 -42z m4174 -4658 l67 0 0 -190 0 -190 135 0 135 0 0 -25
0 -25 -225 0 -225 0 0 221 0 221 23 -6 c12 -3 52 -6 90 -6z m24542 -18285
c528 -42 974 -78 992 -80 l31 -6 7 -102 c7 -120 85 -2171 82 -2173 -2 -1 -888
327 -895 332 -2 1 -27 137 -56 301 l-53 299 -248 244 c-221 219 -287 293 -616
690 -203 245 -369 447 -369 450 0 3 19 12 43 20 39 14 43 19 51 60 8 44 10 46
40 43 17 -2 463 -37 991 -78z"/>
</g>
</svg>
