<?xml version="1.0" standalone="no"?>
<!DOCTYPE svg PUBLIC "-//W3C//DTD SVG 20010904//EN"
 "http://www.w3.org/TR/2001/REC-SVG-20010904/DTD/svg10.dtd">
<svg version="1.0" xmlns="http://www.w3.org/2000/svg"
   viewBox="0 0 4342.000000 871.000000"
 preserveAspectRatio="xMidYMid meet">
<metadata>
Created by potrace 1.16, written by Peter Selinger 2001-2019
</metadata>
<g transform="translate(0.000000,871.000000) scale(0.100000,-0.100000)"
fill="#000000" stroke="none">
<path d="M36956 8702 c-2 -4 -18 -42 -35 -84 l-31 -77 48 -45 c26 -25 142
-134 258 -243 116 -109 210 -199 209 -201 -2 -2 -2174 101 -4072 193 l-511 25
-419 -60 c-378 -53 -457 -68 -828 -154 l-410 -95 -785 11 c-652 9 -1015 8
-2145 -6 l-1360 -17 -240 -70 c-218 -62 -325 -85 -1167 -244 -920 -174 -933
-177 -1605 -344 -373 -93 -972 -249 -1331 -345 -360 -97 -664 -176 -678 -176
-13 0 -38 -7 -56 -15 -27 -13 -329 -28 -1758 -88 l-1724 -72 -661 72 c-363 39
-721 78 -795 87 -74 9 -524 59 -1000 111 l-865 94 -1295 35 -1295 34 -895 -39
c-546 -24 -996 -38 -1155 -38 -282 1 -980 -32 -1190 -56 -278 -32 -1246 -110
-2785 -225 -1603 -119 -1606 -120 -2435 -214 -673 -77 -984 -107 -1645 -160
l-815 -66 -742 -157 c-417 -89 -743 -163 -743 -169 0 -5 6 -18 13 -27 11 -15
67 -22 417 -48 340 -25 443 -36 640 -70 129 -23 239 -45 243 -49 4 -4 -115
-13 -265 -20 -150 -7 -282 -16 -293 -20 -11 -4 -55 -38 -97 -74 l-78 -67 0
-643 0 -642 84 -72 84 -72 735 -40 c405 -22 745 -40 756 -40 14 0 21 -6 21
-20 0 -17 -7 -20 -42 -20 -24 0 -364 -18 -756 -39 l-713 -39 -84 -72 -85 -72
0 -644 0 -643 85 -72 85 -71 1656 -88 1655 -88 131 74 130 74 69 -64 70 -63
297 -41 297 -42 2445 -41 2445 -40 132 -60 132 -59 1788 0 1789 0 399 80 c220
44 400 80 401 80 0 0 22 32 48 70 l46 70 318 -1 c174 0 1048 -7 1942 -14
l1625 -14 467 -39 467 -39 265 -242 c146 -133 266 -245 266 -248 0 -3 -49 -3
-110 -2 l-110 4 -68 -52 -69 -51 -21 -115 c-12 -63 -22 -142 -22 -175 0 -53
-6 -69 -55 -160 l-55 -100 55 -127 55 -127 -6 -146 -6 -147 61 -60 61 -59 377
-8 c585 -12 4879 -14 4935 -3 34 7 65 24 107 60 l60 50 0 195 c1 183 3 200 27
274 22 65 25 84 16 112 -7 25 -7 34 1 34 7 -1 201 -18 432 -39 l420 -37 255
-116 255 -117 1660 -26 c913 -15 1661 -28 1663 -29 2 -2 42 -395 42 -413 0 -2
598 -3 1329 -3 l1328 0 7 61 c3 34 6 129 6 210 l0 149 1430 0 1430 0 5 -22 c3
-13 6 -61 8 -108 l2 -84 -52 -15 -53 -14 0 -57 c0 -56 1 -58 31 -64 17 -3 46
-6 65 -6 36 0 31 14 52 -145 l7 -60 145 -29 145 -30 1410 47 1410 47 175 36
c175 36 176 36 402 144 125 60 271 128 325 151 54 23 143 72 198 109 55 37
157 100 226 139 l126 71 109 0 109 0 50 40 50 40 493 0 492 0 0 90 0 90 -257
1 -258 1 160 54 160 55 225 -10 c316 -15 665 -57 885 -108 61 -14 177 -52 259
-85 l149 -59 234 8 235 8 25 75 c17 52 44 214 88 530 l64 455 -200 1019 -199
1019 -372 614 -371 614 -439 517 -440 517 -317 293 c-174 162 -420 378 -547
482 -284 232 -772 575 -1159 817 l-290 181 -484 207 c-266 114 -572 248 -680
299 l-196 93 -375 57 c-419 63 -387 59 -394 48z"/>
</g>
</svg>
