<?xml version="1.0" standalone="no"?>
<!DOCTYPE svg PUBLIC "-//W3C//DTD SVG 20010904//EN"
 "http://www.w3.org/TR/2001/REC-SVG-20010904/DTD/svg10.dtd">
<svg version="1.0" xmlns="http://www.w3.org/2000/svg"
   viewBox="0 0 3756.000000 3875.000000"
 preserveAspectRatio="xMidYMid meet">
<metadata>
Created by potrace 1.16, written by Peter Selinger 2001-2019
</metadata>
<g transform="translate(0.000000,3875.000000) scale(0.100000,-0.100000)"
fill="#000000" stroke="none">
<path d="M22750 38659 c-894 -74 -1498 -131 -3428 -327 l-2342 -237 -46 -75
-46 -75 -1817 -178 c-999 -98 -1823 -181 -1832 -183 -11 -3 -33 29 -79 115
l-63 120 -220 -6 -220 -6 -575 -346 -575 -346 -360 -405 c-198 -223 -373 -419
-390 -436 -25 -28 -47 -93 -158 -470 -71 -242 -129 -444 -129 -451 0 -10 122
-85 173 -105 10 -5 17 -11 15 -16 -1 -4 -25 -49 -53 -99 -46 -85 -53 -93 -80
-93 -16 0 -35 -4 -41 -8 -6 -4 -52 -122 -102 -262 l-91 -255 -11 -210 c-8
-142 -24 -294 -51 -470 -37 -247 -39 -271 -39 -501 0 -221 4 -272 40 -576 l40
-333 127 -275 c93 -204 155 -323 240 -460 l113 -185 231 -195 230 -195 294
-131 294 -130 -307 -345 -308 -344 -453 -1005 c-250 -553 -461 -1020 -471
-1038 l-16 -34 -114 154 c-63 84 -119 159 -126 167 -10 11 -193 27 -845 71
l-833 56 -510 -334 -511 -335 -87 -161 c-72 -135 -136 -287 -392 -935 -168
-425 -306 -775 -308 -776 -2 -2 -122 -31 -268 -65 l-265 -62 3 -62 c26 -596
62 -1481 62 -1530 l0 -64 -117 -6 c-65 -3 -179 -8 -253 -12 l-135 -6 -135 241
c-99 177 -138 240 -150 236 -8 -2 -508 -132 -1110 -289 l-1095 -284 -505 -17
c-278 -9 -516 -20 -530 -24 -13 -4 149 -13 360 -20 212 -8 386 -14 387 -15 1
-1 -418 -110 -930 -244 l-932 -243 -347 -22 c-342 -21 -347 -22 -378 -47 -30
-25 -34 -36 -85 -267 l-53 -241 -17 -414 c-10 -250 -19 -721 -22 -1193 -4
-744 -3 -829 31 -1848 l36 -1069 57 -239 57 -239 30 -5 c17 -2 173 -14 346
-25 l315 -21 2100 -565 c1155 -311 2101 -567 2102 -567 1 -1 -3 -101 -7 -222
-5 -121 -9 -288 -10 -371 l0 -152 139 -236 c76 -130 144 -243 151 -251 7 -8
260 -225 563 -482 l550 -466 774 -17 c426 -10 776 -19 778 -21 2 -2 13 -96 25
-209 12 -113 23 -214 25 -226 4 -18 16 -22 102 -33 l98 -12 435 -289 435 -289
498 -226 498 -225 542 -40 c298 -22 565 -42 593 -45 39 -5 86 -25 200 -90
l149 -83 198 -41 c109 -23 218 -41 242 -41 23 0 47 -6 53 -13 12 -15 442
-1080 438 -1084 -4 -4 -1636 -93 -1703 -93 -41 0 -43 -1 -43 -30 0 -18 5 -30
13 -30 78 3 1834 -96 1839 -104 3 -5 82 -197 175 -427 l168 -417 115 -74 c63
-42 270 -165 460 -276 397 -230 344 -212 700 -240 l215 -18 884 -703 885 -704
208 8 c114 4 208 5 208 3 0 -13 119 -671 122 -673 2 -2 302 9 668 23 l665 27
7 324 c4 177 9 325 12 328 3 3 126 8 273 10 l268 5 112 84 113 84 0 48 c1 26
7 151 14 277 9 162 10 316 4 520 -4 159 -5 292 0 296 4 3 176 14 382 23 206 9
421 20 478 23 l102 6 0 77 0 77 -97 6 c-54 4 -127 7 -163 8 -64 1 1116 77
1218 78 51 1 52 2 52 30 0 28 -2 30 -52 35 -29 3 -476 31 -993 61 -516 31
-940 57 -941 58 -1 1 -5 59 -9 130 l-8 127 89 0 c49 0 672 16 1384 35 712 19
1328 35 1368 35 l72 0 0 79 0 79 -92 6 c-51 3 -291 10 -533 16 -242 6 -442 13
-444 16 -2 2 29 4 70 4 107 0 149 9 149 31 0 24 47 20 -1035 84 -971 58 -1035
62 -1035 73 0 4 391 6 870 4 l870 -4 0 106 0 105 -57 3 c-32 2 163 13 432 26
270 13 518 26 553 29 60 6 62 7 62 34 0 25 -4 29 -27 29 -73 0 -2708 132
-2712 136 -4 4 -51 1677 -47 1680 0 1 935 34 2076 75 1163 41 2078 77 2081 82
5 7 1588 71 1924 78 44 1 -370 19 -920 39 -550 21 -1001 39 -1002 39 -2 1 -3
9 -3 20 0 25 98 20 -1970 91 -965 34 -1774 63 -1797 66 l-43 5 505 629 504
629 32 603 32 604 -148 224 c-81 124 -148 226 -149 228 -2 1 -610 224 -1352
496 -742 272 -1428 525 -1524 563 l-175 68 -5 73 -5 73 -81 35 -81 35 35 147
c19 81 38 151 42 156 5 4 78 4 167 -2 l158 -9 318 122 318 123 2935 -179 2935
-179 338 -134 339 -133 380 33 381 34 578 -446 c318 -245 581 -449 585 -453 4
-3 -33 -164 -83 -356 l-90 -350 11 -245 c6 -135 15 -278 21 -318 5 -40 9 -80
9 -88 0 -12 -71 -14 -481 -14 l-482 0 -227 -75 -227 -75 -132 -135 -133 -135
20 -32 c130 -214 1652 -2823 1652 -2833 0 -12 970 -1538 993 -1562 7 -7 228
-87 492 -178 264 -91 485 -171 491 -178 36 -40 1134 -1811 1126 -1816 -6 -3
-159 -91 -341 -196 -182 -104 -331 -195 -331 -201 0 -11 555 -1507 569 -1531
4 -8 117 -107 251 -221 l243 -207 548 -868 549 -868 1 -127 c1 -229 -54 -131
544 -966 292 -407 532 -743 535 -747 3 -5 224 -48 490 -97 l485 -89 114 29
c62 16 115 27 118 24 2 -2 -36 -32 -86 -66 -53 -37 -88 -67 -84 -74 7 -11 851
-1356 1281 -2041 135 -215 246 -392 248 -394 2 -2 61 8 131 23 l128 26 1483 0
c856 0 1482 4 1480 9 -1 5 -176 476 -388 1048 l-384 1039 -160 45 -159 44
-389 1019 c-250 657 -388 1032 -388 1055 0 20 7 94 15 164 l15 129 -921 2531
c-507 1393 -923 2537 -926 2542 -3 8 -164 118 -285 196 -5 3 -211 573 -457
1265 l-448 1259 14 45 c7 25 33 106 56 181 l44 135 -53 135 c-29 73 -115 292
-192 486 l-139 352 60 131 61 132 -335 834 -334 834 -675 0 -675 0 -242 399
c-134 219 -243 402 -243 405 0 3 196 6 435 6 l436 0 184 71 c102 40 183 75
181 78 -1 3 -51 108 -111 233 l-109 228 -174 2 -175 3 -70 168 -70 168 49 72
49 72 -1135 3083 -1135 3082 -144 108 -144 107 -273 743 -273 743 46 93 46 94
-49 145 -50 145 108 53 c82 41 107 57 102 69 -3 8 -161 445 -350 970 -190 525
-351 960 -357 967 -7 7 -766 420 -1687 918 l-1674 907 -90 -36 c-49 -20 -92
-34 -94 -32 -2 3 -17 141 -33 307 -20 202 -34 306 -42 311 -6 4 -313 186 -682
405 l-670 398 -182 236 -182 235 -851 603 c-467 331 -850 608 -850 614 0 7
151 302 334 657 l334 645 556 3 556 2 0 -60 0 -60 1456 0 1455 0 124 -105 123
-105 880 0 879 0 12 -57 c6 -32 18 -84 26 -116 l13 -58 -66 5 c-37 3 -203 8
-369 12 l-303 6 0 -117 0 -116 78 5 c42 3 1065 32 2272 63 1207 32 2186 59
2175 60 -11 1 -776 19 -1700 39 -924 21 -1680 38 -1680 38 0 1 1 54 3 119 l3
117 917 0 917 0 115 92 c63 51 122 101 130 112 41 56 121 188 118 196 -5 14
-1039 884 -2728 2295 -888 742 -1856 1551 -2150 1797 l-535 448 -60 -1 c-33
-1 -548 -41 -1145 -90z m-250 -2604 c371 -25 685 -46 697 -47 17 -2 145 -172
522 -690 l500 -688 -1214 0 -1215 0 0 -55 0 -55 -456 0 c-251 0 -454 4 -452 8
5 13 696 1348 761 1470 l59 113 62 -6 c33 -3 365 -26 736 -50z m-10056 -731
l203 -135 6 -257 c4 -141 10 -408 13 -592 l6 -335 -456 -290 -455 -290 -189
-300 -190 -300 -58 -277 -58 -277 -123 199 c-101 162 -140 238 -219 421 l-97
224 6 340 6 340 66 240 c36 132 102 365 147 518 l80 279 -28 29 -27 29 19 55
c10 31 21 60 24 66 4 5 37 -4 78 -22 l71 -32 257 104 257 104 216 146 c119 81
222 148 229 148 6 1 104 -60 216 -135z m240 -1916 c3 -84 9 -315 12 -513 l6
-360 -63 -30 -63 -30 -91 -477 -91 -476 -59 -67 c-32 -37 -64 -69 -71 -72 -7
-2 -118 75 -246 171 l-234 176 37 463 36 462 109 227 110 227 294 225 c162
123 298 225 301 225 4 1 9 -68 13 -151z m-6626 -9523 c2 -2 2 -19 0 -38 l-3
-35 -90 43 -90 42 90 -5 c50 -2 91 -6 93 -7z m11666 -2877 c40 -142 196 -726
196 -736 0 -28 -57 -4 -303 129 -144 78 -263 143 -265 144 -2 2 12 67 31 146
l34 144 139 112 c76 61 142 112 146 112 4 1 13 -23 22 -51z m9358 -4477 l196
-61 205 0 206 0 120 -217 c239 -436 321 -586 321 -589 0 -2 -291 -3 -647 -2
l-647 3 -43 135 -43 135 0 191 0 192 35 98 c67 187 66 185 83 180 10 -3 105
-32 214 -65z"/>
</g>
</svg>
