<?xml version="1.0" standalone="no"?>
<!DOCTYPE svg PUBLIC "-//W3C//DTD SVG 20010904//EN"
 "http://www.w3.org/TR/2001/REC-SVG-20010904/DTD/svg10.dtd">
<svg version="1.0" xmlns="http://www.w3.org/2000/svg"
   viewBox="0 0 3755.000000 3875.000000"
 preserveAspectRatio="xMidYMid meet">
<metadata>
Created by potrace 1.16, written by Peter Selinger 2001-2019
</metadata>
<g transform="translate(0.000000,3875.000000) scale(0.100000,-0.100000)"
fill="#000000" stroke="none">
<path d="M22760 38660 c-869 -71 -1498 -131 -3424 -326 l-2359 -239 -48 -75
-48 -75 -1833 -181 c-1008 -99 -1834 -178 -1836 -175 -1 3 -29 56 -62 118
l-60 112 -218 -6 -217 -6 -580 -348 -580 -348 -370 -416 c-203 -229 -378 -427
-388 -440 -9 -12 -73 -216 -142 -451 -69 -236 -128 -436 -130 -445 -4 -11 21
-30 90 -68 52 -29 95 -55 95 -58 0 -3 -23 -48 -51 -99 -48 -89 -52 -94 -83
-94 -19 0 -38 -6 -43 -12 -5 -7 -50 -123 -98 -258 l-88 -245 -13 -223 c-9
-152 -26 -307 -53 -485 l-40 -262 5 -250 c4 -199 12 -315 41 -565 l37 -315
132 -285 c92 -199 164 -336 236 -455 l105 -170 229 -197 229 -196 295 -132
c162 -73 297 -133 298 -135 2 -2 -134 -158 -303 -347 l-306 -343 -465 -1030
c-256 -566 -469 -1033 -472 -1037 -4 -4 -62 67 -129 157 -107 145 -125 164
-155 169 -28 5 -1473 102 -1598 108 -43 2 -62 -9 -552 -331 l-507 -333 -89
-167 c-75 -139 -138 -288 -392 -931 -166 -421 -305 -768 -309 -772 -3 -4 -123
-35 -266 -68 -142 -33 -261 -62 -262 -64 -2 -2 12 -374 31 -827 20 -453 34
-824 33 -826 -8 -7 -501 -23 -508 -16 -4 4 -66 112 -137 238 -102 180 -134
230 -148 228 -11 -1 -503 -129 -1094 -284 l-1075 -282 -537 -21 c-295 -12
-539 -24 -542 -27 -3 -3 164 -11 372 -18 207 -8 378 -14 379 -15 2 -1 -415
-111 -925 -244 l-927 -242 -345 -21 c-327 -21 -347 -23 -380 -45 l-36 -24 -57
-262 -56 -263 -16 -470 c-27 -813 -21 -1874 16 -3035 l31 -975 58 -240 c53
-221 59 -241 81 -247 13 -4 170 -17 349 -28 l325 -22 2040 -549 c1122 -302
2066 -557 2099 -566 l59 -16 -7 -166 c-4 -91 -9 -257 -12 -369 l-4 -203 147
-249 147 -249 534 -453 c293 -249 545 -462 559 -472 24 -19 65 -20 795 -36
423 -10 771 -20 775 -23 4 -5 52 -399 53 -443 0 -6 43 -16 99 -23 l99 -13 439
-290 c241 -160 459 -300 485 -310 l47 -20 3 -1008 c2 -555 5 -1011 8 -1013 3
-3 696 136 1540 308 844 173 1545 315 1558 317 22 3 30 -14 114 -220 49 -123
88 -226 85 -228 -4 -5 -1609 -94 -1693 -94 -32 0 -43 -4 -47 -19 -2 -10 -2
-23 2 -29 3 -5 386 -30 926 -58 l919 -49 172 -425 172 -425 94 -63 c127 -85
792 -472 839 -489 45 -15 148 -27 384 -44 l169 -12 876 -695 c481 -382 880
-699 886 -704 7 -5 160 -5 375 0 200 5 365 8 367 6 2 -1 26 -130 54 -286 27
-155 51 -284 52 -286 4 -4 872 38 924 44 l42 5 0 273 0 273 158 6 c86 4 227 7
313 7 l156 0 109 82 c60 44 110 82 111 83 2 1 10 129 18 286 12 214 14 355 8
572 -8 283 -8 288 12 292 11 2 180 11 375 20 195 8 403 18 463 22 l107 6 0 77
0 77 -92 7 c-50 3 -121 7 -157 7 -69 2 214 21 877 60 l392 23 0 27 c0 26 -3
28 -62 33 -53 5 -1897 116 -1928 116 -6 0 -10 48 -10 130 l0 130 83 0 c45 0
667 16 1382 35 715 19 1333 35 1373 35 l72 0 0 79 0 79 -102 6 c-57 3 -296 11
-533 17 -236 6 -432 12 -434 15 -2 2 25 4 61 4 107 0 158 10 158 31 0 23 49
19 -1040 84 -971 58 -1040 63 -1040 73 0 4 391 6 870 4 l870 -4 0 106 0 106
-57 1 c-42 1 809 49 1040 58 12 1 17 9 17 31 0 26 -4 30 -27 30 -41 0 -2717
131 -2720 133 -1 1 -3 117 -5 257 l-3 255 45 3 c24 2 48 8 51 14 4 6 440 36
1150 79 629 38 1145 69 1147 69 1 0 2 52 2 115 l0 115 252 0 251 0 1239 -390
1239 -391 972 284 c535 156 975 283 979 281 3 -2 207 -318 452 -703 l447 -698
487 -168 488 -167 564 -901 c311 -495 566 -905 568 -912 2 -6 -145 -96 -325
-200 -180 -103 -334 -193 -341 -199 -9 -9 49 -175 275 -783 l288 -771 244
-206 245 -206 539 -853 c297 -468 545 -866 553 -884 10 -23 14 -77 14 -188 l0
-155 526 -738 c290 -405 534 -745 543 -754 13 -14 134 -39 500 -107 l484 -88
125 33 c69 18 121 30 116 25 -5 -5 -50 -37 -99 -72 l-91 -64 757 -1205 c416
-663 763 -1214 771 -1224 14 -18 17 -18 137 8 l123 26 1485 0 c1410 0 1485 1
1481 18 -3 9 -173 469 -378 1022 -205 553 -377 1017 -382 1031 -8 23 -23 30
-167 69 l-159 43 -392 1028 -392 1027 18 159 17 158 -924 2538 -923 2538 -147
99 c-105 71 -150 107 -157 127 -5 16 -206 582 -447 1258 l-437 1230 56 182 56
182 -190 481 c-104 264 -190 484 -190 489 0 5 27 66 59 135 l59 127 -334 831
c-184 457 -334 833 -334 835 0 1 -304 4 -676 5 l-677 3 -243 400 -243 400 447
5 447 5 168 67 c93 37 171 69 174 71 2 3 -32 82 -78 176 -45 94 -80 174 -77
177 6 5 853 44 971 44 l57 0 0 124 0 124 -62 6 c-35 3 -371 17 -748 32 -377
14 -695 27 -708 30 -16 3 -29 19 -42 50 l-20 46 50 71 49 72 -1132 3080 -1133
3080 -146 109 -146 109 -271 736 c-149 405 -271 741 -271 747 0 6 20 53 43
105 l44 93 -49 139 c-26 76 -48 140 -48 142 0 3 46 28 103 56 56 28 104 53
106 55 2 1 -155 442 -349 978 l-353 975 -1684 911 -1684 912 -90 -37 c-50 -20
-93 -35 -94 -33 -2 2 -15 131 -29 288 -15 157 -29 295 -31 306 -4 17 -171 121
-685 425 l-680 404 -182 235 -181 235 -840 595 c-462 327 -846 600 -855 606
-13 10 103 240 833 1653 l849 1642 56 -5 c30 -3 370 -27 755 -52 450 -30 704
-50 712 -58 6 -6 320 -435 696 -953 l684 -941 173 -146 174 -146 878 0 878 0
5 -22 c29 -126 45 -200 45 -204 0 -3 -26 -3 -57 0 -32 3 -196 8 -365 12 l-308
6 0 -117 0 -117 73 6 c39 3 1062 32 2272 63 1210 32 2164 59 2120 61 -195 6
-3140 72 -3227 72 l-98 0 0 89 c0 49 3 103 6 120 l7 31 914 0 914 0 122 99
c67 55 128 110 136 123 8 13 36 58 62 100 l48 77 -510 431 c-461 389 -2314
1941 -4203 3518 l-709 592 -61 -1 c-34 -1 -540 -41 -1126 -89z m-10117 -3522
c5 -43 22 -881 22 -1077 l0 -53 -455 -292 -455 -293 -190 -299 -190 -300 -54
-265 c-30 -145 -57 -267 -60 -271 -4 -4 -60 79 -126 185 -96 154 -139 236
-218 417 l-98 225 6 335 7 335 89 325 c49 179 115 414 147 522 l59 197 -30 30
-30 29 23 59 c13 32 26 61 29 65 4 4 37 -7 74 -24 l68 -31 257 103 257 104
225 151 225 152 206 -138 207 -138 5 -53z m49 -2419 l4 -187 -55 -22 c-31 -13
-59 -26 -63 -29 -3 -3 -48 -220 -98 -481 -100 -517 -87 -477 -182 -582 l-43
-48 -225 170 c-124 94 -231 177 -238 184 -12 11 -8 87 23 470 l36 456 109 228
108 227 303 231 304 232 7 -332 c3 -182 8 -415 10 -517z m-6636 -8833 c1 0 -1
-17 -5 -37 l-6 -36 -87 42 -86 42 91 -5 c51 -2 93 -5 93 -6z m11772 -3281
l122 -456 386 -467 386 -467 581 -291 582 -291 2160 -17 c1188 -10 2165 -21
2171 -24 54 -33 1172 -908 1162 -910 -7 -1 -40 1 -73 6 l-60 7 -153 -107 -152
-108 -1728 0 -1728 0 -187 75 c-103 41 -202 75 -219 75 -18 0 -427 -36 -908
-81 l-875 -80 -860 3 -860 3 -165 62 c-91 34 -244 93 -340 131 l-175 69 -5 73
-5 73 -70 30 c-38 16 -74 32 -78 37 -9 8 668 2879 681 2892 17 17 278 218 282
218 3 0 60 -205 128 -455z m7250 -3907 c80 -57 151 -106 157 -110 10 -6 801
79 897 96 l26 5 -48 -184 -48 -184 14 -270 c8 -149 18 -298 22 -331 l9 -60
-480 0 -479 0 -231 -75 -232 -76 -129 -135 c-116 -122 -128 -137 -118 -157 6
-12 96 -166 199 -342 104 -176 186 -321 183 -323 -4 -1 -136 35 -293 81 l-286
84 -1232 -389 -1233 -388 -258 0 -258 0 0 115 0 115 -32 0 c-18 0 -368 20
-778 45 -410 25 -762 45 -782 45 l-37 0 266 333 c146 182 271 338 277 345 6 8
24 267 42 615 l33 602 -151 227 c-130 197 -155 229 -187 241 -20 8 -127 47
-239 88 -111 41 -199 75 -195 76 5 2 370 -31 813 -72 l805 -74 195 79 195 78
1724 1 1723 1 146 -102z m1971 -160 l196 -63 220 -5 219 -5 34 -60 c77 -136
392 -713 398 -728 6 -16 -43 -17 -638 -17 l-645 0 -38 118 c-38 115 -39 120
-46 322 l-7 205 51 148 c28 81 53 147 56 147 3 0 93 -28 200 -62z"/>
</g>
</svg>
