<?xml version="1.0" standalone="no"?>
<!DOCTYPE svg PUBLIC "-//W3C//DTD SVG 20010904//EN"
 "http://www.w3.org/TR/2001/REC-SVG-20010904/DTD/svg10.dtd">
<svg version="1.0" xmlns="http://www.w3.org/2000/svg"
   viewBox="0 0 4825.000000 964.000000"
 preserveAspectRatio="xMidYMid meet">
<metadata>
Created by potrace 1.16, written by Peter Selinger 2001-2019
</metadata>
<g transform="translate(0.000000,964.000000) scale(0.100000,-0.100000)"
fill="#000000" stroke="none">
<path d="M8889 9633 c-29 -3 -38 -9 -41 -28 -6 -27 7 -35 52 -35 50 0 60 -9
60 -54 0 -35 4 -43 30 -58 l30 -17 0 -492 0 -492 -172 6 c-95 4 -272 9 -393
13 l-220 5 -174 -113 -175 -113 -284 -512 -285 -513 -1050 0 -1050 0 -2379
-240 -2378 -241 -230 -107 c-126 -59 -230 -111 -230 -115 0 -4 54 -119 120
-254 84 -171 117 -249 108 -254 -6 -4 -32 -10 -57 -14 -96 -14 -91 -8 -91 -94
l1 -76 438 -864 c297 -584 455 -885 487 -927 l49 -63 97 -1 97 0 70 -144 69
-145 239 -119 238 -119 230 -42 c127 -24 240 -45 251 -48 19 -4 23 -14 29 -68
l6 -64 52 -10 c29 -6 315 -58 637 -117 322 -58 595 -108 608 -111 19 -4 25 2
47 51 21 49 28 56 47 51 13 -3 205 -39 428 -80 223 -42 429 -80 458 -86 53
-11 53 -11 50 -44 -3 -29 4 -39 70 -98 40 -36 85 -68 100 -71 15 -3 252 -47
527 -96 483 -88 507 -93 713 -162 l213 -70 -7 -57 -6 -56 46 -33 c43 -31 117
-51 1064 -283 559 -137 1025 -249 1034 -249 9 0 39 5 67 11 l49 10 7 60 c4 36
13 63 21 66 7 2 698 -133 1536 -301 1132 -227 1676 -331 2118 -406 327 -55
1175 -207 1884 -336 1184 -216 1295 -235 1365 -229 65 5 125 -3 421 -54 l345
-61 5110 -234 5110 -234 2055 104 2055 103 890 110 c870 108 898 112 1252 186
199 41 371 75 383 75 22 0 1413 -240 1418 -244 1 -2 6 -23 10 -47 l8 -44 366
-3 367 -2 292 65 292 65 74 -45 74 -45 274 0 274 0 10 38 c6 20 44 159 85 307
68 247 74 272 60 293 l-14 22 -375 0 -375 0 0 95 c0 52 -5 105 -11 117 -7 18
-84 61 -290 163 l-279 140 146 93 146 92 888 0 c777 0 889 -2 900 -15 18 -22
296 -22 320 0 14 13 23 10 78 -25 l63 -40 1039 0 c918 0 1040 2 1040 15 0 13
-122 15 -1034 15 l-1035 0 -52 33 -52 32 244 5 244 6 -248 2 -248 2 42 50 c25
30 39 55 36 65 -6 13 -116 15 -1017 15 -555 0 -1010 2 -1010 5 0 3 21 33 48
65 l47 60 1123 0 1122 0 0 23 0 24 2798 8 c1538 4 3796 11 5017 14 1619 5
1914 7 1090 9 -1649 3 -4363 15 -4342 20 9 2 17 8 17 13 0 5 -846 9 -2175 9
-1443 0 -2175 -3 -2175 -10 0 -6 -45 -10 -115 -10 l-115 0 0 25 0 25 -1061 0
c-1050 0 -1061 0 -1048 19 8 11 51 67 96 124 l82 103 11 520 c6 285 13 556 16
602 l6 82 46 21 c46 19 49 23 107 147 39 83 72 139 96 162 28 27 55 80 120
229 l84 194 88 65 87 65 0 281 0 281 -308 123 -307 123 -131 -1 -132 0 -17
100 -18 100 -66 58 c-92 81 -146 116 -269 174 -93 44 -214 79 -927 273 -451
123 -863 233 -915 245 -52 12 -391 123 -752 245 -633 215 -663 225 -805 245
-166 24 -142 12 -303 165 -63 59 -102 113 -235 321 l-159 250 -107 57 -107 57
-121 0 -121 0 0 240 0 240 65 0 65 0 0 40 0 40 -690 0 -690 0 0 -40 0 -40 65
0 65 0 0 -225 0 -225 -673 0 -672 0 -84 -49 c-46 -27 -158 -111 -249 -187
-126 -106 -180 -145 -228 -164 l-63 -25 -788 46 c-1083 65 -2915 119 -3975
119 l-697 0 -238 151 c-131 83 -328 211 -438 284 l-200 133 -255 16 c-368 23
-2563 127 -4060 191 -1989 86 -5079 234 -5852 281 l-108 6 0 427 0 427 85 83
c78 76 85 87 85 122 l0 39 60 0 c59 0 60 0 60 29 0 43 81 37 -1415 106 -1329
62 -1386 64 -1436 58z m26482 -8510 c247 -120 279 -139 279 -160 l0 -23 -230
0 c-223 0 -230 -1 -230 -20 0 -19 -7 -20 -182 -20 -154 0 -217 5 -398 31 -118
18 -218 35 -222 38 -4 4 63 28 149 54 173 53 411 152 488 203 28 18 54 33 59
33 5 1 134 -61 287 -136z"/>
</g>
</svg>
