<?xml version="1.0" standalone="no"?>
<!DOCTYPE svg PUBLIC "-//W3C//DTD SVG 20010904//EN"
 "http://www.w3.org/TR/2001/REC-SVG-20010904/DTD/svg10.dtd">
<svg version="1.0" xmlns="http://www.w3.org/2000/svg"
   viewBox="0 0 4546.000000 931.000000"
 preserveAspectRatio="xMidYMid meet">
<metadata>
Created by potrace 1.16, written by Peter Selinger 2001-2019
</metadata>
<g transform="translate(0.000000,931.000000) scale(0.100000,-0.100000)"
fill="#000000" stroke="none">
<path d="M8558 9285 c-6 -27 -5 -27 75 -40 36 -6 37 -7 37 -49 0 -36 4 -45 25
-54 l25 -12 0 -481 0 -481 -27 6 c-16 2 -122 7 -238 11 -115 3 -271 8 -345 11
l-135 6 -160 -102 c-88 -56 -169 -112 -180 -124 -11 -12 -141 -240 -290 -507
l-269 -485 -1011 3 -1010 4 -2305 -234 -2305 -235 -220 -103 c-121 -56 -221
-104 -223 -105 -2 -1 51 -111 118 -244 82 -164 118 -245 110 -250 -6 -4 -43
-13 -81 -19 l-69 -13 0 -67 0 -68 428 -845 c278 -547 444 -865 473 -901 l44
-56 95 -1 95 -1 66 -138 66 -138 225 -116 225 -115 245 -46 c134 -25 248 -46
251 -46 4 0 7 -24 7 -52 0 -29 4 -58 8 -65 4 -6 284 -61 622 -123 338 -61 623
-113 632 -116 13 -4 24 9 45 49 l28 54 460 -87 460 -86 -1 -32 c-2 -28 8 -41
70 -97 l72 -64 520 -95 c496 -91 528 -99 717 -162 162 -54 197 -69 193 -82 -2
-10 -7 -34 -11 -54 -6 -36 -4 -38 47 -72 49 -31 131 -53 1040 -275 l988 -242
52 13 53 13 9 63 c6 39 14 62 22 62 7 0 675 -133 1486 -295 1020 -205 1638
-323 2008 -386 294 -49 1116 -196 1825 -325 1129 -206 1296 -235 1340 -227 41
7 116 -3 435 -55 l385 -63 4905 -223 4905 -222 1960 97 1960 98 895 111 c875
108 903 112 1230 181 184 39 349 71 365 71 17 -1 329 -53 694 -116 365 -64
667 -116 671 -116 4 0 11 -20 14 -45 l7 -45 372 0 372 1 265 59 264 59 74 -45
73 -44 263 0 263 0 82 301 c79 288 82 301 65 320 -16 18 -34 19 -376 19 l-358
0 0 98 c-1 60 -5 103 -13 113 -7 8 -130 75 -274 149 -145 73 -263 136 -263
139 0 3 59 43 130 89 l131 82 869 0 c573 0 870 -3 870 -10 0 -14 285 -13 308
1 15 9 30 4 85 -30 l67 -41 995 0 c878 0 995 2 995 15 0 13 -117 15 -992 15
l-993 0 -63 40 -63 40 45 51 c26 29 43 56 39 64 -4 13 -142 15 -985 17 l-980
3 48 62 48 63 1088 0 c1080 0 1088 0 1088 20 0 20 10 20 2003 25 4254 11 6509
20 6448 27 -35 5 -967 8 -2070 8 -1744 1 -2003 3 -1981 15 22 12 -250 14
-2078 15 -1400 0 -2101 -3 -2097 -10 4 -6 -35 -10 -109 -10 l-116 0 0 25 0 25
-1029 2 -1029 3 92 117 93 117 6 278 c4 153 10 414 14 581 l6 303 47 20 c47
20 49 22 113 159 48 100 72 140 87 145 23 7 27 15 139 271 l62 141 80 57 79
57 -2 275 -3 275 -280 114 -280 115 -137 0 c-158 0 -138 -14 -162 121 -12 71
-15 78 -60 120 -87 80 -149 121 -265 177 -104 49 -183 73 -865 259 -413 112
-814 220 -891 238 -78 19 -420 130 -760 246 -594 202 -626 212 -773 234 l-153
24 -110 103 c-104 98 -117 114 -262 343 l-153 240 -105 57 -104 58 -117 0
-118 0 0 230 0 230 65 0 65 0 0 40 0 40 -670 0 -670 0 0 -40 0 -40 65 0 65 0
0 -220 0 -220 -660 0 -660 0 -79 -49 c-44 -27 -148 -107 -233 -178 -120 -101
-166 -134 -216 -152 l-63 -24 -792 47 c-670 39 -982 52 -2022 82 -1112 33
-1289 36 -1838 30 l-608 -6 -262 167 c-144 91 -336 216 -427 278 l-165 111
-185 12 c-322 21 -2635 130 -3970 187 -1681 73 -3362 152 -4670 220 -580 30
-1065 55 -1077 55 l-23 0 0 418 0 419 80 77 c69 67 80 83 80 112 l0 34 55 0
c54 0 55 1 55 29 0 36 -5 37 -232 51 -378 22 -2303 110 -2425 110 l-131 0 -4
-25z m25632 -8200 c354 -177 354 -175 45 -175 -193 0 -225 -2 -225 -15 0 -13
-29 -15 -202 -15 -169 0 -234 4 -385 27 -101 15 -183 30 -183 33 0 4 64 26
143 50 159 48 396 147 472 196 28 18 53 33 58 33 4 1 129 -60 277 -134z"/>
</g>
</svg>
