<?xml version="1.0" standalone="no"?>
<!DOCTYPE svg PUBLIC "-//W3C//DTD SVG 20010904//EN"
 "http://www.w3.org/TR/2001/REC-SVG-20010904/DTD/svg10.dtd">
<svg version="1.0" xmlns="http://www.w3.org/2000/svg"
   viewBox="0 0 4362.000000 725.000000"
 preserveAspectRatio="xMidYMid meet">
<metadata>
Created by potrace 1.16, written by Peter Selinger 2001-2019
</metadata>
<g transform="translate(0.000000,725.000000) scale(0.100000,-0.100000)"
fill="#000000" stroke="none">
<path d="M19080 7229 c0 -21 -3 -21 -82 -15 -46 3 -165 8 -265 12 l-183 7 0
-62 c0 -42 -4 -61 -12 -61 -7 0 -143 7 -303 15 -159 8 -323 15 -362 15 -71 0
-73 -1 -73 -25 l0 -24 -115 6 c-95 5 -115 4 -116 -8 -1 -8 0 -72 1 -143 l2
-129 83 -127 c71 -109 87 -128 114 -133 l31 -6 0 -86 c0 -47 1 -85 3 -85 24
-3 700 -30 745 -30 48 0 62 -3 62 -15 0 -12 17 -15 95 -15 l95 0 0 -71 0 -71
-195 7 -195 7 0 -35 c0 -32 5 -38 82 -88 l82 -54 -137 -3 -136 -3 -160 -100
-161 -100 -647 -19 c-357 -10 -712 -22 -790 -25 -137 -5 -143 -5 -143 14 0 25
14 27 573 47 429 17 457 19 457 36 0 17 -24 18 -515 18 l-515 0 0 55 0 55
-735 0 -735 0 0 -80 0 -80 -117 0 c-65 0 -449 -7 -853 -16 -685 -15 -831 -14
-952 2 -46 6 -47 7 -53 47 -4 23 -9 50 -11 60 -5 16 -57 17 -905 17 l-899 0 0
40 0 40 -305 0 -305 0 0 39 c0 34 3 39 28 44 21 4 30 14 39 44 6 21 23 64 37
96 l26 57 84 0 84 0 11 30 10 30 -85 0 -86 0 7 38 c6 38 5 39 -43 65 -47 26
-57 27 -186 27 l-136 0 0 35 c0 35 1 35 43 35 40 0 43 2 42 28 0 15 -7 31 -15
37 -16 11 -584 55 -612 47 -10 -2 -18 -11 -18 -18 0 -12 -44 -14 -254 -14
-238 0 -255 1 -260 18 -6 16 -25 20 -149 31 -273 23 -259 20 -252 51 3 15 1
58 -6 94 -10 62 -14 69 -50 93 -22 15 -39 34 -39 44 0 11 -4 19 -10 19 -5 0
-10 13 -10 29 0 27 -4 30 -44 36 -23 4 -71 3 -105 -3 -70 -10 -73 -8 -86 62
-6 28 -5 37 4 32 7 -5 11 4 11 26 0 25 -3 29 -10 18 -8 -12 -12 -12 -18 -2 -5
7 -16 10 -25 6 -18 -7 -22 -19 -32 -97 -4 -28 -14 -55 -26 -66 -14 -13 -19
-29 -17 -51 3 -28 9 -35 48 -50 l44 -17 -49 -11 c-28 -6 -67 -14 -87 -17 l-38
-7 0 -63 0 -63 78 -17 c42 -9 81 -20 85 -25 4 -4 -5 -13 -22 -20 l-30 -12 16
-42 c9 -22 20 -45 25 -51 4 -5 8 -26 8 -47 l0 -38 -52 0 c-41 0 -64 -7 -99
-29 -44 -28 -47 -33 -58 -93 l-13 -63 -124 -82 -124 -83 -150 0 c-82 0 -150
-4 -150 -8 0 -10 132 -19 412 -29 l198 -6 0 -44 0 -43 -392 0 -393 0 -153
-121 c-133 -106 -152 -125 -152 -150 0 -16 -4 -29 -10 -29 -5 0 -10 -13 -10
-30 l0 -30 -65 0 -65 0 0 30 c0 17 -4 30 -10 30 -5 0 -10 11 -10 25 l0 25
-440 0 -440 0 0 -100 0 -100 -275 0 -275 0 0 -64 c0 -35 3 -78 6 -95 l7 -31
268 0 269 0 0 -60 0 -60 440 0 440 0 0 50 0 50 108 -1 c59 0 179 -10 267 -22
l160 -22 3 -97 3 -98 -143 0 -143 0 -25 -40 -25 -40 -1459 0 -1460 0 -24 -22
c-22 -22 -41 -24 -440 -50 -388 -25 -427 -29 -557 -60 -130 -32 -141 -36 -157
-65 l-18 -31 80 -33 c70 -30 80 -37 80 -60 0 -25 3 -26 100 -42 78 -13 168
-17 419 -17 l320 0 51 -75 c34 -50 47 -77 38 -79 -7 -3 -245 -21 -528 -40
-376 -27 -580 -36 -757 -36 -240 0 -247 -1 -635 -55 -216 -30 -407 -57 -424
-60 -26 -5 -37 -17 -75 -85 -42 -78 -45 -80 -81 -80 -39 0 -57 -13 -85 -60
l-17 -30 -291 -1 c-289 0 -291 0 -500 -37 l-210 -38 -44 -67 -44 -67 -96 -1
c-81 -1 -89 -3 -51 -10 25 -4 64 -8 88 -8 l43 -1 -21 -30 -21 -30 -235 0 -234
0 0 -25 c0 -25 0 -25 94 -25 l95 0 106 -92 c66 -57 102 -95 96 -101 -6 -6 20
-49 69 -116 l78 -106 -101 -6 -102 -5 107 -2 107 -2 37 -45 36 -45 80 0 c63 0
86 -4 108 -20 24 -17 66 -22 336 -40 319 -22 1356 -127 1272 -129 -46 -1 -48
-2 -48 -31 l0 -30 86 0 c54 0 83 -4 79 -10 -3 -6 -44 -10 -91 -10 l-84 0 0
-72 c0 -40 3 -117 7 -170 l6 -98 84 0 c82 0 83 0 83 -25 0 -23 -3 -25 -50 -25
-47 0 -50 -2 -50 -25 l0 -25 286 0 285 0 33 25 c18 14 45 25 59 25 26 0 27 -2
27 -58 l0 -59 132 -28 c73 -15 193 -40 266 -55 l133 -28 22 33 23 34 43 -20
c30 -13 66 -19 116 -19 73 0 73 0 80 -28 3 -16 18 -38 33 -49 26 -19 53 -20
697 -32 369 -6 691 -11 718 -11 39 0 47 -3 47 -19 0 -14 -19 -25 -75 -47 l-75
-29 0 -255 0 -255 253 -252 252 -253 284 -2 283 -3 -46 -33 -46 -33 0 -429 0
-428 57 -46 58 -46 298 0 297 0 0 -40 0 -40 323 0 c178 0 399 -3 490 -7 l167
-6 0 47 0 47 488 -1 c268 0 497 2 510 6 20 6 22 12 22 75 l0 69 278 1 c152 1
405 5 562 8 l285 6 -325 23 c-419 30 -440 32 -440 47 0 15 -53 25 -130 25 -30
0 -72 3 -92 6 -37 6 -38 8 -38 50 l0 44 160 0 160 0 0 190 0 190 -185 2 -185
3 198 108 198 107 656 0 655 0 7 -38 6 -38 305 4 305 5 0 -24 c1 -59 31 -502
40 -574 5 -44 9 -86 9 -94 1 -12 70 -13 471 -8 l470 6 0 -27 c0 -15 3 -38 7
-51 l6 -24 550 4 549 4 33 -90 32 -90 164 -2 c90 -2 393 1 673 5 l508 7 35 98
35 97 39 0 c21 0 68 11 104 25 l66 25 2202 25 c1210 14 2204 22 2207 18 4 -5
19 -52 35 -105 l28 -97 356 5 c196 2 460 7 586 10 l231 6 38 98 38 97 141 6
c78 4 174 7 213 7 l72 0 4 -100 c2 -54 6 -100 8 -102 3 -2 193 -2 422 0 l417
2 3 48 3 47 109 23 c61 12 111 24 114 26 2 2 0 59 -4 126 l-7 123 -117 -7
-117 -6 -13 280 c-7 154 -11 282 -9 284 7 6 1912 95 1921 90 4 -3 8 -20 8 -38
l0 -33 87 -7 c48 -3 88 -8 90 -10 3 -3 27 -256 48 -514 l7 -82 36 0 c19 0 413
18 875 41 461 22 841 38 843 36 3 -2 7 -27 11 -55 5 -43 9 -51 30 -57 32 -8
264 5 286 17 13 7 17 21 17 62 l0 54 168 6 c92 4 179 9 193 12 25 5 27 3 33
-56 6 -47 11 -63 26 -68 26 -10 259 5 288 18 19 8 22 17 22 64 l0 55 53 5 c28
3 1071 54 2317 113 1246 59 2267 108 2269 109 3 3 -35 487 -44 560 l-6 41 68
6 c37 4 145 9 238 13 l171 7 23 -299 c13 -165 24 -300 26 -302 2 -2 90 2 196
7 107 6 211 11 232 11 l37 0 0 50 c0 48 -24 415 -34 511 l-5 45 231 12 c127 7
233 10 236 8 2 -3 14 -138 25 -302 l22 -297 90 2 c175 5 374 17 381 24 6 5
-27 446 -41 558 -5 37 -5 37 38 42 23 4 128 9 234 13 l191 6 6 -43 c3 -24 15
-159 26 -298 11 -140 22 -257 25 -259 2 -2 91 1 198 7 107 6 211 11 231 11
l36 0 0 53 c0 28 -9 164 -21 300 -12 136 -20 249 -18 251 4 3 463 26 465 23 1
-1 12 -132 25 -290 13 -158 26 -293 30 -299 5 -8 69 -9 251 0 133 6 244 8 245
4 2 -4 94 -2 205 5 112 6 213 12 226 12 12 1 22 7 22 15 0 9 17 16 46 21 64 9
74 14 74 36 0 15 8 19 33 20 74 1 958 77 912 78 -27 0 -241 -8 -475 -19 -527
-24 -480 -24 -480 0 0 18 -7 20 -55 20 -36 0 -57 5 -62 14 -4 8 -26 16 -48 18
l-40 3 -36 470 c-20 259 -38 481 -40 494 -3 19 -18 29 -74 51 l-70 27 -610
-28 c-335 -16 -631 -28 -656 -29 -37 0 -54 6 -91 35 l-45 35 -419 -20 c-230
-11 -434 -20 -451 -20 l-33 0 0 203 0 204 492 7 493 7 25 -30 25 -31 765 -30
c421 -17 776 -31 789 -33 19 -1 28 -11 38 -44 11 -32 20 -43 41 -47 15 -3 122
-8 237 -11 116 -4 218 -9 227 -11 13 -4 21 7 34 43 l17 48 66 -3 c71 -3 3138
-122 3152 -122 5 0 9 34 9 75 l0 76 73 -6 c39 -3 266 -12 502 -20 237 -8 463
-17 503 -20 l72 -5 0 145 0 145 -57 2 -58 2 51 3 c49 4 52 6 58 35 3 17 6 79
6 137 l0 107 -727 28 c-401 15 -755 31 -788 34 -56 7 -60 9 -63 35 -3 23 -8
27 -36 27 -18 0 -54 3 -80 6 -42 6 -46 5 -46 -14 0 -47 -1 -47 -160 -42 -134
5 -152 8 -172 27 -22 20 -40 22 -326 34 -301 12 -303 12 -325 -9 -22 -20 -27
-21 -227 -12 -113 5 -222 10 -242 10 l-38 0 0 46 0 45 135 -7 135 -7 6 32 c5
26 11 31 35 31 50 0 2600 -99 2702 -104 l97 -6 0 120 0 120 94 0 c51 0 121 -3
155 -6 53 -6 61 -9 61 -28 0 -44 8 -46 190 -49 l174 -2 9 32 10 33 148 -7 149
-6 0 116 0 116 53 -6 c28 -3 54 -10 57 -14 9 -13 170 -24 170 -12 0 19 91 26
350 26 l255 0 -160 12 c-145 11 -287 27 -387 41 -22 3 -38 11 -38 19 0 19 -24
25 -106 25 l-74 0 0 50 0 50 -60 0 c-57 0 -60 1 -60 25 0 21 5 25 30 25 l30 0
0 110 0 110 30 0 c28 0 30 2 30 40 l0 40 45 0 45 0 0 190 0 190 -50 25 -50 25
0 120 0 119 83 -4 c45 -3 144 -8 220 -11 l137 -6 0 -29 0 -29 75 0 c73 0 75 1
75 25 0 18 5 25 20 25 18 0 20 7 20 55 0 48 -2 55 -20 55 -17 0 -20 7 -20 40
0 36 3 40 24 40 23 0 25 4 32 70 5 52 11 71 23 74 9 2 159 10 334 17 250 10
317 15 317 26 0 8 14 13 43 14 23 1 107 4 187 8 l145 6 3 36 3 36 -338 6
c-186 4 -423 8 -528 9 -172 1 -180 2 -90 8 55 4 161 9 235 10 l135 3 -85 8
c-47 4 -152 7 -234 8 -137 1 -148 2 -141 19 4 9 10 47 12 85 6 65 6 67 33 67
27 0 28 2 35 70 7 67 8 70 34 70 14 0 43 5 64 11 37 10 37 10 37 64 l0 55 -70
0 -70 0 6 39 6 39 -118 6 c-66 3 -262 11 -437 17 l-317 11 -56 -48 c-113 -99
-29 -90 -668 -65 -308 12 -577 22 -596 22 -31 0 -41 8 -94 73 l-60 74 -85 6
c-47 3 -450 20 -894 38 l-808 31 -72 -71 -72 -71 -470 19 c-258 11 -498 20
-532 20 -60 0 -63 1 -63 24 0 17 -7 26 -23 30 -13 3 -78 62 -146 131 l-123
125 -69 6 c-54 5 -70 4 -74 -7 -9 -24 -427 -14 -1693 40 -645 28 -1193 51
-1218 51 -37 0 -44 3 -44 20 0 15 -7 20 -30 20 -16 0 -33 -7 -38 -15 -7 -14
-36 -14 -251 -5 -219 10 -264 9 -250 -4 8 -7 296 -26 398 -26 l101 0 0 -50 c0
-44 -2 -50 -21 -50 -19 0 -166 -98 -204 -136 -9 -10 -15 -34 -15 -66 l0 -51
-205 6 -205 7 0 -31 c0 -31 -1 -31 -37 -25 -21 3 -86 6 -145 6 l-108 0 0 45 0
45 -62 0 c-35 0 -250 7 -478 15 -228 8 -443 15 -477 15 l-63 0 0 30 0 30 -90
0 -89 0 -10 -37 c-5 -21 -11 -47 -13 -58 -3 -19 -11 -20 -176 -18 l-172 2 0
-24 c0 -31 24 -30 -470 -9 l-375 17 -70 57 -70 57 -510 22 c-280 12 -522 21
-536 21 -24 0 -28 5 -36 48 l-8 47 -580 27 c-319 15 -595 27 -612 27 -28 1
-33 5 -33 26 0 17 -6 25 -17 26 -10 0 -189 8 -398 18 l-380 18 -35 -24 c-19
-13 -53 -37 -75 -53 l-40 -29 -194 10 -194 11 -133 108 -133 108 -103 6 c-57
3 -230 11 -386 17 -254 10 -295 14 -405 40 l-122 29 -914 36 -913 35 -27 -24
-26 -24 -229 10 c-252 10 -246 12 -246 -52 l0 -34 -187 7 c-104 3 -239 9 -300
13 l-113 6 0 48 c0 47 -1 49 -29 49 -122 0 -2095 82 -2104 87 -7 4 -76 61
-154 127 -172 144 -179 160 -75 169 37 4 103 7 147 7 44 0 131 3 193 7 96 5
112 8 112 23 0 15 -20 18 -177 24 -98 3 -215 9 -260 13 -79 5 -83 7 -83 29 0
22 -4 24 -52 24 -29 0 -215 7 -413 15 -473 19 -445 20 -445 -6z m-9312 -672
c21 -59 27 -57 -176 -57 l-188 0 -32 36 c-18 20 -35 40 -38 45 -3 5 84 9 208
9 l214 0 12 -33z m25574 -262 c757 -33 1296 -59 1303 -65 7 -6 63 -13 124 -17
l111 -6 0 -34 0 -33 -58 0 c-32 0 -681 25 -1442 55 -761 30 -1398 55 -1417 55
-33 0 -33 0 -33 50 l0 50 60 0 c33 0 641 -25 1352 -55z m-20412 -559 l0 -54
-337 -7 c-186 -4 -343 -11 -349 -16 -6 -5 -278 -8 -635 -7 l-624 3 -3 33 c-3
28 0 32 20 32 13 0 43 7 68 15 37 12 210 18 920 33 481 11 890 20 908 21 l32
1 0 -54z m21518 -2322 l52 -7 0 -73 0 -74 -57 0 c-32 0 -82 3 -110 6 l-53 7 0
73 0 74 58 0 c31 0 81 -3 110 -6z m268 -14 l34 0 0 -75 0 -75 -34 0 c-18 0
-61 3 -95 6 l-61 7 0 75 0 75 61 -7 c34 -3 77 -6 95 -6z m316 -10 l38 0 0 -75
0 -75 -40 0 c-33 0 -40 3 -40 20 0 17 -7 20 -45 20 -33 0 -45 -4 -45 -15 0
-11 -12 -15 -45 -15 l-45 0 0 76 0 77 92 -7 c50 -3 108 -6 130 -6z m221 -10
l77 0 0 -35 0 -35 100 0 100 0 0 -45 0 -45 -162 5 c-90 3 -187 8 -215 11 l-53
5 0 76 0 76 38 -7 c20 -3 72 -6 115 -6z m397 -124 c0 -41 -1 -43 -25 -38 -14
2 -25 8 -25 12 0 4 -3 22 -6 39 -6 29 -5 31 25 31 30 0 31 -1 31 -44z m-3775
-407 l330 -11 75 -74 75 -74 -435 0 c-463 0 -540 4 -540 27 0 7 21 45 48 83
45 66 49 69 82 65 19 -3 184 -9 365 -16z m-14601 -1990 c4 -100 6 -183 4 -184
-2 -1 -309 -6 -684 -10 l-681 -7 -7 129 c-4 70 -9 154 -13 185 l-6 58 344 3
c189 1 500 3 690 5 l346 2 7 -181z m-2781 79 c4 -40 9 -124 13 -185 l7 -113
-234 0 c-129 0 -439 -3 -690 -7 l-455 -6 -11 179 c-6 98 -9 181 -7 183 3 3
246 8 542 11 295 4 603 7 683 8 l146 2 6 -72z"/>
</g>
</svg>
