<?xml version="1.0" standalone="no"?>
<!DOCTYPE svg PUBLIC "-//W3C//DTD SVG 20010904//EN"
 "http://www.w3.org/TR/2001/REC-SVG-20010904/DTD/svg10.dtd">
<svg version="1.0" xmlns="http://www.w3.org/2000/svg"
   viewBox="0 0 4407.000000 742.000000"
 preserveAspectRatio="xMidYMid meet">
<metadata>
Created by potrace 1.16, written by Peter Selinger 2001-2019
</metadata>
<g transform="translate(0.000000,742.000000) scale(0.100000,-0.100000)"
fill="#000000" stroke="none">
<path d="M19543 7400 c-6 -22 -8 -22 -117 -16 -61 3 -181 9 -267 12 l-156 7
-5 -57 c-3 -31 -8 -59 -11 -62 -4 -4 -168 1 -364 10 -197 9 -366 16 -375 16
-13 0 -18 -8 -18 -27 l0 -26 -120 7 -120 7 0 -136 c0 -155 -5 -140 105 -310
68 -105 78 -115 105 -115 l30 0 0 -89 0 -89 48 -6 c26 -3 209 -11 407 -17 304
-10 362 -14 373 -27 9 -12 36 -17 102 -20 l90 -4 0 -69 0 -69 -127 5 c-71 3
-158 8 -195 10 l-68 5 0 -39 c0 -37 3 -40 82 -92 l82 -54 -145 -5 -144 -5
-164 -102 -164 -103 -81 0 c-45 0 -362 -9 -706 -20 -344 -11 -669 -20 -722
-20 -91 0 -98 1 -98 20 0 17 7 20 48 20 26 0 256 9 512 20 256 11 471 20 478
20 6 0 12 9 12 20 0 20 -7 20 -525 20 l-525 0 0 55 0 55 -755 0 -755 0 0 -80
c0 -76 -1 -80 -22 -80 -13 0 -433 -9 -935 -20 -589 -12 -924 -16 -945 -9 -18
5 -51 9 -74 9 l-42 0 -7 65 -7 65 -924 0 -924 0 0 40 0 40 -310 0 -310 0 0 44
c0 29 4 44 13 43 34 -1 47 5 47 21 0 9 15 53 34 97 l33 80 90 3 c88 3 91 4 96
27 4 25 4 25 -81 25 l-84 0 6 43 7 43 -50 27 c-46 26 -56 27 -185 27 l-136 0
0 34 c0 32 3 35 32 38 27 3 33 8 39 35 8 41 16 40 -305 63 -334 25 -337 25
-343 0 -5 -19 -14 -20 -269 -20 -253 0 -264 1 -264 19 0 23 -15 26 -210 41
-200 15 -202 16 -199 48 2 15 -1 57 -5 94 -8 66 -10 69 -52 95 -30 19 -43 35
-44 51 0 12 -4 22 -10 22 -5 0 -10 11 -10 25 0 35 -53 48 -143 34 -38 -6 -72
-8 -75 -4 -4 4 -12 29 -18 56 -9 42 -9 49 2 45 25 -10 15 28 -10 40 -37 17
-49 2 -62 -76 -9 -53 -18 -76 -33 -87 -14 -9 -21 -25 -21 -47 0 -31 4 -35 52
-53 l52 -20 -92 -18 -92 -17 0 -64 c0 -51 3 -64 18 -67 9 -3 51 -13 92 -23
l74 -17 -32 -15 c-18 -9 -32 -20 -32 -26 0 -6 12 -36 26 -66 34 -74 27 -100
-27 -100 -28 0 -59 -10 -95 -31 -55 -31 -61 -41 -80 -136 -5 -27 -25 -44 -128
-112 l-122 -81 -157 0 c-96 0 -157 -4 -157 -10 0 -5 10 -12 23 -14 30 -6 434
-26 525 -26 l72 0 0 -45 0 -45 -401 0 -401 0 -154 -122 c-142 -113 -154 -126
-154 -155 0 -23 -5 -33 -15 -33 -10 0 -15 -10 -15 -30 l0 -30 -65 0 -65 0 0
30 c0 17 -4 30 -10 30 -5 0 -10 14 -10 30 l0 30 -450 0 -450 0 0 -105 0 -105
-283 0 -284 0 4 -77 c2 -43 6 -88 9 -100 l4 -23 275 0 275 0 0 -60 0 -60 450
0 450 0 0 55 0 55 78 0 c42 0 168 -12 280 -27 l202 -27 0 -98 0 -98 -147 0
-148 -1 -27 -39 -28 -40 -1492 0 -1492 0 -26 -25 c-25 -24 -29 -24 -435 -50
-388 -24 -419 -27 -571 -62 -159 -36 -162 -37 -177 -69 l-16 -32 79 -34 c71
-29 80 -36 80 -59 0 -25 5 -28 63 -40 42 -9 182 -14 432 -17 l370 -4 48 -75
c26 -41 46 -77 43 -80 -2 -2 -244 -22 -538 -44 -411 -30 -591 -39 -788 -39
l-255 0 -425 -60 c-234 -33 -426 -60 -427 -60 -1 0 -21 -36 -45 -80 -43 -80
-43 -80 -90 -86 -43 -6 -51 -11 -75 -51 l-28 -44 -300 1 -300 1 -212 -38 -212
-38 -46 -73 -47 -72 -96 -2 -97 -2 93 -3 92 -4 -22 -29 -22 -30 -243 0 -243 0
0 -24 c0 -21 5 -24 68 -29 37 -4 83 -7 102 -7 30 -1 51 -15 142 -94 70 -62
103 -97 96 -104 -6 -6 16 -45 67 -113 l76 -104 -101 -3 c-137 -4 -129 -22 9
-22 l110 0 37 -45 36 -45 86 0 c70 0 89 -3 106 -19 19 -17 58 -22 341 -41 354
-24 1350 -125 1295 -131 -31 -4 -35 -8 -38 -36 l-3 -33 86 0 c55 0 84 -4 80
-10 -3 -6 -44 -10 -91 -10 l-84 0 0 -68 c0 -38 3 -117 7 -175 l6 -107 84 0
c82 0 83 0 83 -25 0 -23 -3 -25 -50 -25 -43 0 -50 -3 -50 -20 0 -20 7 -20 298
-20 279 0 298 2 322 20 14 11 39 20 57 20 32 0 32 0 35 -58 l3 -57 268 -56
268 -55 21 30 c12 17 22 32 23 34 1 1 23 -7 49 -18 34 -14 70 -20 122 -20 72
0 74 -1 74 -24 0 -14 12 -34 29 -49 l29 -24 353 -6 c195 -4 528 -10 742 -14
354 -6 387 -8 387 -23 0 -12 -23 -26 -77 -47 l-78 -30 -3 -259 -2 -259 262
-262 263 -263 285 -2 285 -3 -47 -34 -48 -34 0 -437 0 -437 59 -47 59 -46 306
0 306 0 0 -38 0 -39 248 -6 c136 -4 361 -7 500 -7 l252 0 0 47 0 46 499 -6
c378 -5 505 -3 525 6 24 11 26 17 26 78 l0 67 555 7 c306 4 554 9 552 11 -3 4
-670 54 -717 54 -23 0 -30 5 -30 19 0 17 -12 19 -130 26 l-130 7 0 49 0 49
165 0 165 0 0 195 0 195 -186 2 -187 3 197 108 197 107 674 0 c736 0 685 4
685 -56 l0 -24 313 2 312 3 7 -110 c4 -60 12 -184 18 -275 13 -208 19 -279 26
-309 l5 -24 480 8 479 7 0 -38 c0 -72 -42 -68 577 -60 l560 8 34 -97 34 -96
445 2 c245 1 555 4 689 8 l243 6 36 98 36 97 41 0 c23 0 70 12 105 26 l63 25
2071 24 c1139 14 2157 25 2262 25 l190 0 30 -102 29 -103 460 3 c253 1 524 5
602 8 l142 6 39 102 39 101 215 3 215 2 7 -61 c3 -34 6 -82 6 -107 l0 -45 287
6 c157 4 351 7 429 7 l143 0 3 47 3 48 119 24 119 25 -7 89 c-3 50 -6 108 -6
129 l0 39 -119 -7 -119 -7 -6 74 c-8 109 -27 501 -24 505 7 6 1949 96 1963 91
9 -4 15 -19 15 -42 l0 -35 58 0 c31 0 73 -3 93 -6 l35 -6 22 -262 c12 -143 22
-282 22 -307 l0 -47 63 5 c50 3 1718 83 1740 83 4 0 7 -15 7 -34 0 -19 5 -47
10 -62 l11 -27 145 7 c80 3 154 11 165 16 15 9 19 22 19 64 l0 54 168 6 c92 4
182 9 200 12 l32 5 0 -60 c0 -82 5 -84 172 -72 73 5 141 12 151 16 13 6 17 19
17 65 l0 59 53 5 c28 3 1098 55 2377 116 1278 61 2325 112 2326 113 0 1 -10
138 -24 305 -14 166 -22 305 -19 308 8 8 465 29 473 22 3 -3 16 -139 29 -303
13 -163 26 -299 29 -302 7 -7 466 14 474 22 3 3 -4 141 -16 307 -13 165 -21
302 -20 303 6 5 469 27 473 23 3 -2 15 -143 27 -312 l22 -308 66 6 c36 3 145
9 243 12 l177 7 0 28 c0 25 -32 403 -45 540 l-6 55 238 11 c131 5 240 9 242 7
2 -2 14 -139 28 -306 14 -167 27 -305 29 -307 4 -4 477 19 483 24 2 2 -9 140
-23 306 -15 166 -25 303 -23 305 5 6 467 27 473 22 2 -3 16 -140 30 -304 13
-164 27 -300 30 -303 2 -3 118 0 257 7 138 6 253 8 254 4 2 -4 94 -2 205 5
112 6 215 12 231 12 16 1 27 7 27 15 0 8 22 18 60 25 48 10 60 16 60 31 0 15
10 19 63 25 106 10 954 75 983 75 15 0 25 2 22 5 -5 5 -821 -28 -995 -40 -78
-6 -83 -5 -83 14 0 17 -9 21 -60 27 -38 4 -60 11 -60 19 0 9 -13 11 -45 7 -29
-3 -45 -1 -45 6 0 37 -72 935 -78 971 -7 43 -8 44 -77 71 l-70 28 -671 -31
-672 -30 -45 37 -45 37 -428 -21 c-236 -11 -445 -20 -466 -20 l-38 0 0 208 0
209 502 6 503 7 31 -31 31 -30 801 -32 c474 -19 805 -36 810 -42 5 -6 15 -26
21 -46 l12 -37 142 -7 c78 -3 196 -7 261 -8 l119 -2 14 42 c12 36 19 43 41 43
48 0 3105 -119 3190 -124 l82 -5 0 74 0 75 73 0 c39 0 288 -9 552 -20 264 -11
499 -20 523 -20 l42 0 0 145 0 145 -54 0 c-30 0 -58 5 -61 10 -4 7 12 10 46 8
l53 -3 8 48 c5 27 7 90 6 140 l-3 92 -780 32 c-429 17 -792 32 -807 32 -24 1
-28 5 -28 30 0 27 -4 30 -42 36 -24 4 -61 5 -83 3 -36 -3 -40 -6 -43 -32 l-4
-29 -159 6 c-145 5 -161 7 -177 26 -16 19 -33 21 -247 31 -396 17 -401 17
-427 -6 -22 -19 -32 -19 -183 -13 -88 4 -197 7 -242 8 l-83 1 0 46 0 46 140
-4 140 -3 0 27 c0 15 3 29 8 31 4 3 624 -19 1377 -49 754 -29 1403 -54 1443
-54 l72 0 0 120 0 120 78 0 c42 0 114 -3 160 -7 75 -5 82 -8 82 -27 1 -51 -3
-50 268 -59 l102 -4 11 38 12 37 131 -4 c72 -3 141 -6 154 -8 22 -3 22 -2 22
115 l0 119 44 0 c25 0 51 -6 58 -14 18 -17 178 -27 178 -10 0 10 191 22 440
25 l95 2 -145 12 c-283 24 -370 37 -370 55 0 19 -53 30 -136 30 l-44 0 0 50 0
50 -60 0 c-57 0 -60 1 -60 25 0 20 5 25 25 25 l25 0 0 115 0 115 35 0 c33 0
35 2 35 35 0 35 0 35 45 35 l45 0 0 198 0 199 -50 23 -50 23 0 124 0 124 153
-6 c83 -3 185 -8 225 -11 72 -6 72 -6 72 -35 l0 -29 80 0 80 0 0 30 c0 20 5
30 15 30 11 0 15 12 15 50 0 38 -4 50 -15 50 -11 0 -15 12 -15 45 0 37 3 45
19 45 24 0 31 19 31 85 0 43 4 55 18 59 9 2 105 7 212 11 268 8 250 3 250 81
l0 64 -132 1 c-73 1 -178 5 -233 9 -93 6 -88 7 85 9 293 4 321 17 48 22 -130
2 -240 7 -244 11 -4 4 -2 13 4 21 6 7 14 43 18 80 6 61 9 67 29 67 28 0 35 17
35 86 0 47 3 54 20 54 10 0 42 5 70 11 l50 11 0 59 0 59 -70 0 -70 0 0 40 c0
40 0 40 -37 40 -21 0 -220 7 -442 15 -323 12 -407 13 -420 3 -9 -7 -45 -39
-81 -70 l-66 -57 -613 24 c-494 20 -616 28 -625 39 -6 8 -33 41 -60 74 l-49
59 -86 6 c-47 3 -458 21 -914 39 l-827 32 -73 -72 -73 -73 -514 21 c-283 11
-529 20 -547 20 -29 0 -33 3 -33 25 0 17 -6 25 -17 25 -9 0 -78 61 -153 135
l-136 135 -72 0 c-46 0 -72 -4 -72 -11 0 -7 -39 -10 -122 -9 -68 1 -157 2
-198 1 -41 0 -655 24 -1364 54 -708 30 -1301 55 -1317 55 -22 0 -29 5 -29 20
0 15 -7 20 -30 20 -16 0 -33 -7 -37 -15 -7 -13 -42 -13 -253 -6 -231 8 -260 8
-249 -4 9 -8 273 -26 387 -26 l112 1 0 -55 c0 -51 -2 -55 -23 -55 -21 0 -192
-116 -209 -142 -4 -7 -8 -35 -8 -62 l0 -49 -210 6 -210 7 0 -31 0 -32 -67 6
c-38 4 -103 7 -145 7 l-78 0 0 43 0 44 -162 6 c-90 4 -342 12 -560 19 l-398
12 0 27 0 28 -89 3 -90 3 -13 -64 -12 -64 -172 6 -172 6 -5 -27 -5 -27 -369
17 c-202 9 -396 17 -430 17 -59 1 -65 4 -120 49 -32 26 -65 52 -73 59 -11 8
-173 18 -515 33 -275 11 -524 23 -552 26 l-53 5 0 44 0 43 -97 6 c-54 4 -307
15 -563 26 -256 11 -498 23 -537 26 -69 5 -73 7 -73 30 0 21 -5 24 -37 25 -21
0 -204 8 -408 18 l-370 16 -72 -53 -72 -54 -201 11 -201 10 -135 110 c-113 92
-142 111 -177 115 -23 3 -195 10 -382 16 -329 11 -345 12 -500 46 l-160 34
-915 34 -915 34 -27 -25 -27 -25 -143 6 c-79 4 -186 9 -239 12 l-96 6 -7 -52
-7 -53 -102 6 c-56 4 -193 10 -304 13 l-202 7 -3 51 -3 51 -1087 42 -1087 41
-151 127 c-127 108 -150 132 -150 155 l0 28 218 6 c256 8 302 12 302 31 0 16
-56 22 -270 30 -226 8 -250 12 -250 39 l0 22 -342 13 c-189 6 -398 15 -466 18
-122 6 -123 6 -129 -17z m-9535 -697 c6 -20 9 -40 6 -45 -3 -4 -90 -8 -193 -8
l-187 0 -32 36 c-18 20 -35 40 -38 45 -3 5 86 9 214 9 l219 0 11 -37z m26132
-259 c1058 -44 1369 -60 1381 -71 10 -9 44 -13 101 -13 47 0 100 -3 117 -6 27
-6 31 -10 31 -40 0 -26 -4 -34 -17 -34 -49 -1 -2860 111 -2930 116 l-83 6 0
49 c0 40 3 49 18 49 9 1 631 -25 1382 -56z m-20850 -573 l0 -49 -47 -6 c-27
-3 -184 -8 -350 -12 -167 -4 -303 -10 -303 -15 0 -5 -284 -9 -645 -9 -509 0
-645 3 -645 13 0 6 -3 22 -6 35 -5 19 -2 22 20 22 14 0 43 7 63 15 31 12 181
18 843 34 443 10 865 19 938 20 l132 1 0 -49z m22043 -2381 l47 0 0 -81 0 -82
-46 7 c-26 3 -78 6 -115 6 l-69 0 0 81 0 82 68 -6 c37 -4 88 -7 115 -7z m223
-10 l74 0 0 -75 0 -75 -90 0 -90 0 0 81 c0 70 2 80 16 75 9 -3 49 -6 90 -6z
m307 -10 l97 0 0 -80 c0 -78 -1 -80 -24 -80 -35 0 -56 10 -56 26 0 10 -13 14
-45 14 -33 0 -45 -4 -45 -15 0 -11 -12 -15 -50 -15 l-50 0 0 81 0 82 38 -7
c20 -3 81 -6 135 -6z m351 -16 c9 -4 16 -18 16 -34 l0 -28 105 -7 105 -7 0
-43 0 -43 -82 4 c-46 2 -145 7 -220 10 l-138 6 0 74 0 74 99 0 c55 0 106 -3
115 -6z m330 -80 c11 -4 16 -19 16 -45 0 -37 -2 -39 -30 -39 -29 0 -30 2 -30
45 0 46 8 53 44 39z m-3869 -459 l360 -15 70 -72 70 -73 -405 -3 c-439 -3
-590 2 -590 22 0 23 101 156 118 156 9 0 179 -7 377 -15z m-14935 -2043 l0
-189 -692 -6 c-497 -5 -694 -4 -699 4 -3 6 -10 84 -13 173 -4 88 -10 169 -12
178 -6 19 -21 19 1044 26 l372 2 0 -188z m-2847 76 c4 -46 9 -131 13 -189 l7
-106 -703 -7 c-386 -4 -704 -6 -705 -4 -6 6 -27 360 -21 365 3 3 261 9 573 13
312 3 627 7 699 8 l131 2 6 -82z"/>
<path d="M43693 3753 c15 -2 39 -2 55 0 15 2 2 4 -28 4 -30 0 -43 -2 -27 -4z"/>
</g>
</svg>
