<?xml version="1.0" standalone="no"?>
<!DOCTYPE svg PUBLIC "-//W3C//DTD SVG 20010904//EN"
 "http://www.w3.org/TR/2001/REC-SVG-20010904/DTD/svg10.dtd">
<svg version="1.0" xmlns="http://www.w3.org/2000/svg"
   viewBox="0 0 2843.000000 4688.000000"
 preserveAspectRatio="xMidYMid meet">
<metadata>
Created by potrace 1.16, written by Peter Selinger 2001-2019
</metadata>
<g transform="translate(0.000000,4688.000000) scale(0.100000,-0.100000)"
fill="#000000" stroke="none">
<path d="M19430 46836 c-1125 -23 -2052 -46 -2060 -51 -80 -47 -1226 -885
-1244 -909 -13 -17 -529 -839 -1148 -1826 l-1125 -1795 -47 -495 c-46 -488
-311 -3054 -321 -3117 l-6 -33 -724 0 -725 0 -1007 -301 -1008 -301 -864 -344
c-475 -189 -865 -345 -867 -346 -8 -9 19 -370 31 -403 7 -22 94 -267 193 -545
187 -528 387 -1144 592 -1830 278 -928 348 -1143 431 -1322 85 -181 226 -429
261 -458 17 -13 70 -22 232 -39 116 -12 225 -24 241 -27 l30 -5 -6 -2407 c-5
-2068 -8 -2444 -22 -2670 l-16 -262 -287 -560 -286 -560 -696 -561 -697 -561
-1078 -324 -1077 -324 -513 -383 c-511 -383 -512 -384 -666 -545 l-154 -163
-257 -797 -257 -797 -117 -920 c-64 -506 -145 -1156 -181 -1445 l-66 -525
-127 -572 -127 -573 -230 -257 c-127 -141 -259 -293 -293 -337 -35 -45 -137
-165 -225 -267 l-162 -185 -500 -7 c-275 -4 -884 -7 -1352 -7 l-853 0 -1 -182
c-2 -727 -20 -1828 -33 -2034 -13 -217 -13 -247 1 -290 12 -38 17 -126 23
-390 l7 -342 42 -113 42 -114 329 -405 328 -405 -4 -625 c-14 -2014 -24 -4459
-24 -5925 l0 -1681 1693 -22 c930 -12 1800 -25 1933 -29 l241 -6 204 -158 204
-159 425 -218 c234 -121 1899 -951 3700 -1845 l3275 -1625 310 -53 310 -53
2385 3 2385 3 230 28 c230 28 230 28 385 88 85 33 232 87 325 120 198 71 590
248 645 292 l38 30 351 0 352 0 222 51 222 50 295 151 294 151 251 228 250
227 162 289 163 288 0 431 c0 406 1 433 19 455 69 88 397 642 491 829 91 182
90 174 120 530 l28 325 76 320 c46 192 289 1072 606 2200 l530 1880 310 1865
c170 1026 313 1877 317 1892 6 19 139 141 443 404 239 207 559 491 710 630
274 252 276 254 535 424 306 200 295 189 396 440 l65 165 124 67 124 66 83
136 83 135 14 147 15 146 -64 128 -64 128 24 84 c13 45 32 138 41 205 l18 123
-28 57 c-15 32 -100 193 -189 358 -88 165 -160 308 -159 318 0 10 23 44 51 75
l50 58 3 209 4 210 76 315 c42 173 196 869 342 1545 l266 1230 159 1970 160
1970 26 1534 25 1533 125 214 c69 117 125 219 125 227 0 46 -826 2337 -897
2487 -27 58 -122 218 -210 357 -142 223 -181 275 -328 444 -92 105 -163 194
-159 198 5 4 138 67 296 139 l287 132 268 59 268 59 260 144 c143 80 325 180
403 223 79 43 146 83 148 89 2 6 -9 144 -25 307 l-29 296 -214 293 -214 292
-248 108 c-136 60 -330 137 -432 172 l-184 63 -247 371 -248 371 -230 100
-230 101 -1070 236 c-588 130 -1078 240 -1087 244 -14 6 8 49 143 268 l159
261 199 634 199 634 -20 1070 -19 1070 -130 595 c-72 327 -222 1005 -335 1506
-112 501 -204 918 -204 927 0 8 88 176 195 373 107 196 195 362 195 368 0 6
-100 450 -222 986 l-223 975 -410 575 -411 575 -614 398 -614 397 -191 -1
c-104 -1 -1110 -20 -2235 -43z"/>
</g>
</svg>
