<?xml version="1.0" standalone="no"?>
<!DOCTYPE svg PUBLIC "-//W3C//DTD SVG 20010904//EN"
 "http://www.w3.org/TR/2001/REC-SVG-20010904/DTD/svg10.dtd">
<svg version="1.0" xmlns="http://www.w3.org/2000/svg"
   viewBox="0 0 2922.000000 4819.000000"
 preserveAspectRatio="xMidYMid meet">
<metadata>
Created by potrace 1.16, written by Peter Selinger 2001-2019
</metadata>
<g transform="translate(0.000000,4819.000000) scale(0.100000,-0.100000)"
fill="#000000" stroke="none">
<path d="M20270 48145 c-1147 -24 -2157 -44 -2245 -44 l-160 -1 -640 -462
-640 -462 -1173 -1870 -1173 -1869 -49 -511 c-63 -653 -332 -3229 -337 -3236
-3 -3 -343 -7 -756 -8 l-752 -4 -1031 -308 -1030 -309 -885 -351 c-486 -194
-885 -353 -887 -355 -2 -1 2 -88 8 -191 l11 -189 195 -547 c208 -589 408
-1205 615 -1898 287 -958 366 -1202 451 -1385 87 -188 237 -451 271 -476 16
-11 91 -24 266 -43 135 -14 245 -27 245 -29 1 -1 -2 -1136 -5 -2522 -5 -2028
-9 -2564 -21 -2745 l-14 -225 -295 -574 -294 -573 -712 -574 c-392 -316 -723
-578 -735 -583 -13 -5 -513 -156 -1112 -336 l-1089 -328 -517 -386 c-511 -382
-518 -388 -683 -557 l-168 -172 -264 -818 -264 -819 -101 -790 c-56 -434 -139
-1097 -185 -1472 l-84 -682 -131 -593 c-71 -326 -133 -601 -138 -610 -4 -10
-110 -133 -237 -275 -126 -141 -268 -305 -315 -363 -47 -58 -152 -183 -234
-276 l-149 -171 -555 -6 c-305 -4 -932 -7 -1392 -7 l-837 0 -6 -968 c-4 -726
-10 -1039 -22 -1257 -16 -268 -16 -295 -1 -360 12 -52 19 -159 25 -415 l9
-345 43 -110 43 -110 333 -410 333 -410 0 -690 c0 -379 -7 -1779 -15 -3110 -8
-1331 -15 -2925 -15 -3542 l0 -1122 53 -5 c28 -3 792 -14 1697 -26 905 -11
1777 -23 1938 -27 l293 -6 214 -166 c214 -165 215 -165 522 -324 170 -88 1877
-939 3795 -1892 l3486 -1733 334 -57 333 -57 2460 5 2460 6 215 26 c215 27
215 27 385 92 94 36 244 91 335 124 192 67 603 254 659 298 l39 31 361 0 361
0 228 51 227 52 302 154 302 154 256 232 257 232 169 299 169 298 0 443 c0
415 1 444 19 466 74 96 400 647 499 845 104 207 100 191 132 564 l29 335 80
330 c47 196 298 1107 620 2250 l541 1920 325 1950 c181 1081 331 1955 338
1961 7 6 212 184 457 396 245 211 569 499 720 639 l275 254 272 178 c265 174
272 179 308 240 21 34 66 134 100 222 l64 160 126 66 127 66 87 146 87 146 13
144 13 144 -67 132 -66 132 21 67 c12 37 32 132 45 212 l23 145 -35 70 c-20
38 -107 203 -194 366 -88 163 -159 305 -159 315 0 11 23 46 50 79 l50 60 0
176 c0 197 3 219 90 574 28 116 179 802 336 1525 l285 1315 165 2010 164 2010
27 1600 27 1600 129 220 c72 121 130 227 129 235 -3 53 -849 2400 -920 2551
-27 58 -123 222 -213 364 -146 230 -182 279 -336 456 -95 110 -173 202 -173
207 0 4 136 69 302 145 l301 139 276 60 c244 53 283 65 341 98 36 21 223 124
415 230 193 106 351 193 353 195 2 2 -10 143 -26 314 -28 282 -32 313 -53 343
-13 18 -113 154 -222 302 l-198 270 -227 99 c-125 55 -324 134 -442 176 l-215
77 -255 381 -255 381 -230 101 -230 101 -1118 248 c-614 137 -1120 251 -1123
254 -3 3 69 127 159 274 l163 269 204 649 203 650 -20 1105 -20 1106 -156 710
c-86 391 -242 1090 -346 1555 l-190 845 205 375 205 375 -231 1009 c-127 555
-234 1015 -238 1021 -4 7 -194 274 -422 593 l-415 580 -630 408 c-626 406
-630 409 -685 411 -30 0 -993 -18 -2140 -42z"/>
</g>
</svg>
