<?xml version="1.0" standalone="no"?>
<!DOCTYPE svg PUBLIC "-//W3C//DTD SVG 20010904//EN"
 "http://www.w3.org/TR/2001/REC-SVG-20010904/DTD/svg10.dtd">
<svg version="1.0" xmlns="http://www.w3.org/2000/svg"
   viewBox="0 0 3453.000000 591.000000"
 preserveAspectRatio="xMidYMid meet">
<metadata>
Created by potrace 1.16, written by Peter Selinger 2001-2019
</metadata>
<g transform="translate(0.000000,591.000000) scale(0.100000,-0.100000)"
fill="#000000" stroke="none">
<path d="M14134 5887 l-190 -21 -16 -43 c-13 -36 -13 -43 -2 -43 11 0 14 -20
14 -91 l0 -92 -77 7 c-125 10 -3677 26 -5588 25 -1265 -1 -2026 3 -2705 14
-520 9 -1180 19 -1467 22 l-523 6 0 -60 0 -61 -488 0 c-269 0 -537 -3 -595 -7
-95 -5 -107 -8 -107 -25 0 -16 -10 -18 -107 -18 -60 0 -132 -3 -161 -6 -45 -6
-52 -10 -52 -29 0 -21 -5 -22 -112 -28 -62 -4 -348 -7 -635 -7 l-523 0 0 -28
0 -28 -382 -12 c-291 -10 -386 -16 -396 -26 -20 -19 -26 -334 -14 -659 6 -148
12 -270 15 -273 2 -2 277 9 611 26 334 16 611 30 616 30 6 0 10 -58 10 -145
l0 -145 300 0 300 0 0 -75 c0 -43 4 -75 10 -75 6 0 10 -71 10 -194 l0 -194
110 -7 109 -7 61 -98 c66 -104 74 -110 156 -110 l34 0 0 -69 0 -69 50 -7 c54
-7 64 -17 75 -76 l7 -36 180 -6 c100 -4 359 -7 577 -8 l396 0 194 -230 194
-229 51 0 c28 0 416 11 861 25 1022 31 1026 31 1410 7 317 -20 325 -20 875 -2
684 23 1374 49 1457 54 l61 4 18 -67 c16 -60 26 -75 108 -163 96 -103 103
-117 105 -212 l1 -59 78 6 c42 4 383 7 757 9 l680 2 135 -38 135 -39 2150 12
c1183 6 2486 14 2897 18 l746 6 33 84 32 83 52 0 52 0 6 -102 c16 -243 27
-394 44 -564 l17 -181 191 -87 190 -87 1308 16 1308 17 208 95 208 96 6 66 c3
36 18 311 34 611 24 470 29 527 33 417 l5 -129 290 -132 291 -133 674 -7 675
-8 310 -89 c171 -49 486 -148 700 -219 l390 -129 325 -11 325 -11 25 28 c14
16 132 148 263 295 l237 266 0 60 0 59 98 6 c53 4 190 7 303 7 l205 0 33 68
33 69 241 6 c132 4 356 7 497 7 l256 0 30 -31 29 -31 205 4 c191 5 220 8 428
48 l222 44 0 84 0 85 463 -7 c254 -4 582 -13 728 -19 l266 -12 101 -124 c56
-69 99 -127 97 -129 -3 -3 -322 -9 -709 -13 -683 -8 -706 -8 -776 -30 l-72
-21 38 -39 38 -39 -719 -1 -720 -2 520 -23 c286 -12 540 -24 565 -26 25 -2
-164 -7 -420 -12 -879 -16 -876 -20 39 -38 841 -17 845 -17 865 -39 l21 -21
-355 6 c-195 3 -659 8 -1030 10 l-675 5 605 -23 605 -23 -375 -3 c-1236 -9
-1225 -15 55 -28 l1240 -12 29 -33 c16 -17 79 -83 140 -145 l110 -113 455 10
c250 6 471 11 492 11 37 0 38 -1 163 -180 69 -99 126 -181 126 -183 0 -1 -138
-1 -307 1 l-308 3 -64 -41 -63 -41 21 -23 c11 -12 21 -25 21 -29 0 -4 -467 -8
-1037 -9 -944 -1 -1015 -2 -783 -13 l255 -12 -160 -2 c-427 -8 -312 -17 375
-29 404 -7 895 -17 1090 -23 l354 -10 47 -52 c26 -29 46 -53 44 -55 -2 -3
-851 -30 -1065 -35 -86 -1 77 -12 520 -35 l645 -34 67 -71 67 -71 1673 -26
1673 -26 310 -175 310 -174 290 -10 290 -11 405 -306 405 -307 94 -1 94 0 -20
23 c-11 12 -116 132 -233 267 -117 135 -224 257 -238 272 l-24 26 62 9 63 8
-199 185 c-109 102 -336 315 -504 474 -333 316 -478 441 -2014 1736 l-1037
875 -467 208 -466 208 -415 95 c-914 209 -1044 232 -2641 454 -1336 185 -1460
201 -1790 225 -229 17 -356 30 -359 37 -2 6 -18 26 -35 45 -30 32 -41 35 -292
92 l-261 58 -80 -15 c-79 -15 -82 -15 -133 7 l-51 22 -120 -71 -120 -70 -481
35 c-265 19 -482 34 -483 33 -1 -2 1 -32 6 -68 4 -36 6 -66 5 -67 -2 -2 -250
21 -552 50 l-549 53 3 41 2 41 -82 6 c-46 3 -253 13 -462 21 l-378 15 -51 31
c-43 27 -65 32 -149 40 -161 14 -155 11 -267 116 -101 95 -103 96 -239 149
l-137 54 -355 12 -355 11 -105 -32 c-94 -29 -117 -42 -212 -113 l-107 -80
-343 11 c-189 6 -732 17 -1208 26 -476 9 -900 19 -944 23 l-78 7 -57 103 -56
102 -250 0 -251 0 -59 60 -59 60 -291 -1 c-215 -1 -339 -7 -481 -22z"/>
<path d="M25398 2343 c34 -2 90 -2 125 0 34 2 6 3 -63 3 -69 0 -97 -1 -62 -3z"/>
</g>
</svg>
