<?xml version="1.0" standalone="no"?>
<!DOCTYPE svg PUBLIC "-//W3C//DTD SVG 20010904//EN"
 "http://www.w3.org/TR/2001/REC-SVG-20010904/DTD/svg10.dtd">
<svg version="1.0" xmlns="http://www.w3.org/2000/svg"
   viewBox="0 0 3620.000000 619.000000"
 preserveAspectRatio="xMidYMid meet">
<metadata>
Created by potrace 1.16, written by Peter Selinger 2001-2019
</metadata>
<g transform="translate(0.000000,619.000000) scale(0.100000,-0.100000)"
fill="#000000" stroke="none">
<path d="M14822 6166 c-187 -20 -194 -22 -207 -46 -24 -48 -28 -70 -11 -70 13
0 16 -14 16 -84 0 -47 -3 -87 -7 -89 -5 -3 -532 -1 -1173 5 -641 5 -2427 11
-3970 13 -2034 2 -3066 7 -3755 18 -522 9 -1178 18 -1458 22 l-507 5 0 -62 0
-63 -573 -1 c-314 0 -593 -4 -619 -8 -32 -5 -48 -12 -50 -24 -3 -14 -19 -17
-108 -19 -58 -1 -133 -5 -167 -8 -57 -6 -63 -9 -63 -29 0 -21 -5 -24 -77 -30
-42 -3 -178 -6 -303 -6 -125 0 -389 -3 -588 -7 l-362 -6 0 -24 c0 -18 -5 -23
-27 -23 -16 -1 -196 -7 -401 -14 -294 -10 -376 -16 -387 -27 -22 -22 -29 -310
-16 -663 6 -171 13 -312 16 -314 2 -2 291 10 642 27 351 17 641 31 646 31 4 0
7 -69 7 -153 l0 -154 315 5 315 5 0 -82 c0 -65 3 -81 15 -81 13 0 15 -29 15
-204 l0 -203 111 -9 112 -9 63 -100 c68 -107 76 -112 157 -114 l47 -1 0 -74 0
-74 55 -7 c54 -6 55 -7 65 -48 6 -23 13 -50 16 -59 5 -17 39 -18 533 -18 290
0 562 -3 603 -6 l76 -7 203 -239 203 -239 126 6 c69 3 512 17 985 31 l860 26
399 -23 c399 -22 401 -22 915 -5 284 9 739 26 1011 36 272 11 529 20 571 20
l77 0 16 -67 c16 -62 24 -73 116 -173 l100 -107 0 -83 0 -82 793 7 792 7 145
-42 145 -42 3000 17 c1650 9 3018 17 3039 18 l39 2 33 85 32 85 55 3 54 3 7
-83 c3 -46 13 -177 21 -293 14 -200 43 -507 49 -512 1 -1 90 -43 198 -92 l196
-90 1368 16 1369 15 220 101 c121 55 221 101 223 103 4 2 22 306 51 834 10
184 19 301 20 259 l1 -76 313 -144 312 -144 710 -5 710 -5 345 -102 c190 -56
514 -159 720 -229 l375 -126 350 -12 350 -13 36 41 c20 23 143 160 273 306
l236 265 0 66 0 67 321 7 320 7 37 74 36 74 521 0 522 0 23 -25 23 -25 221 0
221 0 233 46 232 47 0 89 0 90 368 -7 c572 -10 1155 -34 1169 -48 34 -35 203
-250 199 -254 -2 -2 -338 -8 -747 -13 -740 -10 -744 -10 -816 -33 l-72 -23 37
-37 37 -37 -815 -1 -815 -2 602 -26 c331 -14 604 -29 608 -32 3 -4 -203 -10
-457 -14 -837 -14 -821 -19 126 -38 809 -16 880 -19 892 -35 7 -9 11 -19 8
-21 -2 -2 -496 2 -1099 9 -603 7 -1098 11 -1100 8 -3 -2 264 -13 593 -24 530
-17 579 -20 432 -25 -91 -3 -365 -7 -609 -8 -244 0 -441 -4 -438 -8 4 -3 525
-12 1159 -19 l1152 -12 145 -152 146 -152 480 11 c264 6 497 11 517 11 37 0
38 -2 168 -187 l131 -188 -328 -5 -328 -5 -63 -41 -62 -40 26 -25 26 -24 -44
-6 c-23 -3 -536 -4 -1138 -3 -1037 3 -1080 2 -807 -11 159 -7 291 -16 295 -19
3 -3 -118 -6 -268 -6 -150 0 -271 -2 -268 -5 2 -3 474 -14 1049 -25 574 -11
1096 -23 1159 -26 l115 -6 48 -46 c26 -26 47 -51 47 -57 0 -8 -136 -15 -459
-24 -795 -23 -794 -21 -68 -60 l639 -33 71 -74 72 -74 1750 -27 1750 -27 326
-183 327 -184 303 -10 c167 -6 309 -14 314 -19 6 -4 196 -147 422 -319 l413
-312 96 3 96 3 -261 299 c-143 165 -258 302 -255 305 3 3 28 8 55 11 27 3 48
9 47 15 -2 5 -64 66 -138 135 -74 69 -307 288 -517 487 -418 396 -560 518
-2226 1923 l-1037 875 -488 218 -487 218 -435 100 c-239 55 -624 138 -855 185
-403 81 -483 93 -1930 294 -1413 196 -1532 211 -1859 235 -192 14 -360 25
-373 25 -15 0 -23 6 -23 18 0 10 -15 32 -32 49 -30 28 -55 35 -305 91 l-272
61 -85 -16 c-85 -17 -87 -17 -131 5 -25 12 -50 22 -56 22 -6 0 -65 -32 -131
-72 l-121 -72 -506 36 c-278 20 -507 35 -508 34 -1 -1 2 -33 8 -70 5 -38 8
-70 7 -72 -2 -1 -255 22 -563 52 -308 29 -568 54 -577 54 -15 0 -18 9 -18 44
l0 45 -42 5 c-24 3 -239 12 -478 21 l-435 16 -57 34 c-48 28 -70 35 -140 40
-149 12 -188 22 -227 59 -192 180 -168 163 -322 222 l-144 56 -370 13 -370 13
-115 -37 c-106 -33 -123 -42 -225 -119 l-110 -84 -120 6 c-170 8 -427 15
-1245 31 -393 8 -853 17 -1021 21 l-306 7 -62 113 -63 114 -262 0 -262 0 -59
60 -59 60 -311 -1 c-241 -1 -353 -6 -503 -23z"/>
<path d="M26548 2453 c23 -2 59 -2 80 0 20 2 1 4 -43 4 -44 0 -61 -2 -37 -4z"/>
</g>
</svg>
