<?xml version="1.0" standalone="no"?>
<!DOCTYPE svg PUBLIC "-//W3C//DTD SVG 20010904//EN"
 "http://www.w3.org/TR/2001/REC-SVG-20010904/DTD/svg10.dtd">
<svg version="1.0" xmlns="http://www.w3.org/2000/svg"
   viewBox="0 0 2098.000000 4135.000000"
 preserveAspectRatio="xMidYMid meet">
<metadata>
Created by potrace 1.16, written by Peter Selinger 2001-2019
</metadata>
<g transform="translate(0.000000,4135.000000) scale(0.100000,-0.100000)"
fill="#000000" stroke="none">
<path d="M9965 40663 c-236 -379 -657 -1056 -937 -1505 l-508 -817 16 -34 16
-33 -1201 -1815 c-1046 -1582 -1205 -1817 -1241 -1839 -33 -20 -312 -328 -413
-457 -18 -22 -17 -25 55 -191 l73 -169 470 -6 c259 -4 737 -10 1063 -14 l592
-6 0 -368 0 -369 -22 -4 c-13 -3 -57 -10 -98 -16 -41 -6 -87 -13 -102 -16
l-28 -6 -2 -230 -3 -231 -52 -20 -53 -20 0 -457 0 -458 55 -31 55 -31 -1 -333
0 -332 -724 -545 c-399 -300 -732 -550 -740 -556 -12 -9 -67 -374 -240 -1590
-124 -869 -227 -1588 -230 -1599 -3 -16 -27 -28 -105 -53 -81 -27 -101 -37
-105 -55 -31 -137 -359 -2417 -555 -3862 -138 -1012 -253 -1858 -256 -1880
l-5 -40 105 -60 c60 -34 106 -67 106 -75 1 -31 -503 -3665 -509 -3671 -3 -4
-323 -14 -711 -23 -531 -12 -707 -19 -716 -29 -19 -20 -1380 -1721 -1387
-1733 -4 -7 24 -35 71 -70 l77 -59 -265 -6 -265 -6 -620 -100 -620 -100 -3
-816 c-1 -449 2 -817 6 -817 4 0 293 -45 641 -100 l632 -100 343 0 343 0 269
-576 269 -576 517 -1 517 -2 1554 -1875 1553 -1875 1052 -3 c579 -1 1052 -4
1052 -7 0 -18 914 -3562 920 -3569 5 -5 52 -19 105 -31 54 -13 101 -27 105
-32 15 -16 190 -762 230 -983 33 -180 71 -331 190 -755 82 -291 208 -748 281
-1015 73 -267 133 -486 134 -488 2 -2 427 -116 946 -253 519 -138 945 -252
947 -253 1 -2 13 -39 25 -82 l23 -79 869 -227 c479 -125 873 -227 878 -227 4
-1 7 369 7 822 l0 822 -80 24 -80 24 0 718 0 718 38 10 c20 6 83 21 140 34 56
13 104 26 106 28 1 2 -10 1194 -25 2649 -15 1455 -28 2742 -28 2862 l-1 216
464 545 c413 485 481 570 620 773 l156 229 1883 520 1882 521 3 82 c3 82 3 82
30 82 54 0 72 10 72 41 0 28 2 29 50 29 l50 0 0 260 0 260 -50 0 -50 0 0 640
0 640 73 0 c39 0 333 9 652 20 319 11 599 20 623 20 l42 0 0 54 0 54 -142 6
c-79 3 -363 13 -633 21 -269 8 -541 18 -602 21 l-113 6 0 36 c0 21 14 82 30
137 16 54 28 101 26 103 -2 1 -837 238 -1856 525 l-1853 523 -159 214 c-87
118 -165 223 -173 233 -13 15 -39 17 -237 18 -123 1 -307 4 -410 8 l-186 6
-211 203 -211 204 0 1187 0 1186 27 40 27 40 -28 1313 c-25 1124 -27 1315 -15
1323 8 4 67 27 132 51 l117 42 -2 1590 -3 1590 -30 7 c-16 4 -74 17 -127 29
l-98 22 0 1368 0 1369 90 62 c81 55 90 64 90 93 0 17 -14 1131 -30 2476 -16
1345 -30 2513 -30 2597 l0 151 -57 19 -58 20 -3 231 c-2 230 -2 232 -25 237
-12 3 -58 13 -102 24 l-80 18 -3 365 -2 364 152 35 153 36 3 637 2 638 -50 21
-50 21 0 592 0 592 70 21 70 22 0 658 0 659 -70 27 -70 27 0 1339 0 1338 58
28 57 28 9 408 c4 224 6 410 3 413 -5 5 -3100 33 -3683 34 l-300 0 -429 -687z"/>
</g>
</svg>
