<?xml version="1.0" standalone="no"?>
<!DOCTYPE svg PUBLIC "-//W3C//DTD SVG 20010904//EN"
 "http://www.w3.org/TR/2001/REC-SVG-20010904/DTD/svg10.dtd">
<svg version="1.0" xmlns="http://www.w3.org/2000/svg"
   viewBox="0 0 1995.000000 3932.000000"
 preserveAspectRatio="xMidYMid meet">
<metadata>
Created by potrace 1.16, written by Peter Selinger 2001-2019
</metadata>
<g transform="translate(0.000000,3932.000000) scale(0.100000,-0.100000)"
fill="#000000" stroke="none">
<path d="M9490 38688 c-217 -348 -618 -992 -892 -1432 l-496 -798 15 -32 15
-32 -1141 -1725 c-979 -1480 -1146 -1728 -1181 -1749 -32 -20 -342 -364 -397
-440 -9 -13 2 -46 57 -175 l68 -160 424 -6 c233 -4 687 -10 1011 -14 l587 -7
-2 -351 -3 -352 -50 -7 c-27 -5 -80 -13 -117 -19 l-68 -11 -2 -221 -3 -221
-47 -15 -48 -15 0 -438 0 -438 48 -27 49 -27 7 -309 c3 -169 4 -312 1 -317 -3
-5 -322 -247 -708 -538 l-702 -529 -213 -1499 c-118 -825 -216 -1509 -219
-1521 -4 -18 -23 -28 -102 -54 l-96 -32 -148 -981 c-113 -754 -627 -4458 -627
-4523 0 -7 44 -38 98 -69 53 -32 98 -58 100 -60 5 -3 -479 -3498 -485 -3504
-2 -3 -306 -11 -675 -19 l-670 -15 -670 -835 -670 -835 24 -17 c13 -10 50 -38
83 -63 l58 -46 -250 0 -250 0 -569 -90 c-313 -49 -584 -92 -601 -95 l-33 -6 0
-774 0 -773 27 -6 c16 -3 301 -49 635 -101 l607 -95 303 0 303 0 255 -547 255
-546 486 6 487 7 1483 -1790 1482 -1790 997 0 997 0 26 -98 c14 -53 209 -810
432 -1682 223 -872 409 -1594 414 -1605 7 -16 31 -26 109 -45 l101 -23 85
-351 c47 -193 106 -459 130 -591 36 -188 74 -342 179 -715 74 -261 192 -686
262 -945 71 -259 133 -475 139 -482 6 -6 405 -115 886 -242 481 -128 884 -235
895 -240 15 -6 25 -28 39 -82 l18 -74 592 -154 c325 -85 700 -182 834 -217
l242 -62 0 782 0 782 -75 24 -75 24 0 682 0 682 135 32 135 32 0 192 c0 105
-11 1251 -25 2546 -14 1295 -25 2436 -24 2535 l0 180 440 515 c388 455 456
540 587 732 117 174 153 219 177 227 33 11 3544 981 3551 981 2 0 4 36 4 79
l0 80 48 3 c45 3 47 4 50 36 3 31 4 32 53 32 l49 0 0 245 0 245 -50 0 -50 0 0
604 0 604 73 6 c39 3 326 13 637 22 311 8 575 17 588 20 19 4 22 11 22 53 l0
48 -142 6 c-79 3 -398 14 -710 24 l-568 17 0 31 c0 17 11 69 24 115 14 47 26
93 28 104 3 16 -185 71 -1760 515 l-1763 497 -157 215 -158 214 -55 7 c-30 3
-155 7 -279 8 -124 2 -278 5 -342 9 l-117 6 -200 190 -200 190 -1 1130 0 1130
26 39 27 39 -27 1206 c-15 663 -26 1227 -26 1252 l0 46 123 44 122 45 3 1511
2 1511 -112 26 c-62 14 -119 26 -125 26 -10 0 -13 267 -13 1303 l0 1304 85 58
85 59 0 135 c-1 300 -58 4863 -62 4865 -1 2 -27 11 -55 20 l-53 18 0 218 c0
165 -3 219 -12 222 -7 3 -52 13 -100 24 l-88 19 0 346 0 347 118 27 c64 15
131 30 147 34 l30 7 3 605 2 605 -50 21 -50 21 2 563 3 564 67 20 68 20 0 625
0 626 -67 25 -68 24 -3 1276 -2 1275 55 23 55 23 0 56 c1 32 5 208 10 392 5
184 7 336 5 338 -4 5 -2926 31 -3480 32 l-310 0 -395 -632z"/>
</g>
</svg>
