<?xml version="1.0" standalone="no"?>
<!DOCTYPE svg PUBLIC "-//W3C//DTD SVG 20010904//EN"
 "http://www.w3.org/TR/2001/REC-SVG-20010904/DTD/svg10.dtd">
<svg version="1.0" xmlns="http://www.w3.org/2000/svg"
   viewBox="0 0 4893.000000 1543.000000"
 preserveAspectRatio="xMidYMid meet">
<metadata>
Created by potrace 1.16, written by Peter Selinger 2001-2019
</metadata>
<g transform="translate(0.000000,1543.000000) scale(0.100000,-0.100000)"
fill="#000000" stroke="none">
<path d="M8270 13685 l0 -1745 260 0 260 0 0 -345 0 -345 -255 0 -255 0 0 -65
0 -65 -100 0 -100 0 0 -479 c0 -263 -3 -506 -6 -540 l-7 -61 -64 0 -64 0 -50
-107 c-28 -60 -69 -137 -92 -173 l-42 -64 -3 62 -3 62 -175 0 c-174 0 -176 0
-210 -26 -19 -15 -37 -24 -40 -22 -3 3 -53 247 -111 542 l-106 536 -197 0
-198 0 -33 -75 -34 -75 -125 0 -125 0 -860 -710 -860 -710 -59 0 -58 0 -113
-105 -112 -105 -57 0 c-49 0 -56 2 -56 20 0 19 -7 20 -220 20 -213 0 -220 -1
-220 -20 0 -17 -7 -20 -40 -20 l-40 0 0 55 0 55 -200 0 -200 0 0 -55 0 -55
-55 0 -55 0 0 -613 0 -613 -607 -18 -608 -18 -20 -24 -21 -24 -694 -6 c-548
-5 -707 -9 -753 -20 -41 -10 -123 -14 -273 -14 l-214 0 0 -29 0 -28 92 -7 c50
-3 151 -6 224 -6 73 0 145 -5 161 -11 18 -7 275 -14 743 -19 l715 -9 18 -22
c18 -22 20 -22 600 -40 320 -10 594 -18 610 -19 l27 0 0 -480 0 -480 -52 0
c-177 -2 -510 -20 -521 -28 -7 -6 -245 -11 -612 -15 -430 -3 -600 -8 -603 -16
-3 -8 -195 -11 -703 -11 -691 0 -699 0 -699 -20 0 -20 10 -20 847 -25 467 -3
1052 -7 1300 -10 438 -5 453 -6 463 -25 10 -18 21 -20 129 -20 65 0 193 -3
284 -7 l167 -6 0 -351 0 -352 -90 -33 -90 -33 0 -272 0 -271 113 -42 c62 -24
127 -43 145 -43 l32 0 0 -935 0 -935 418 0 417 0 105 -105 105 -105 63 0 63 0
851 -705 852 -705 131 0 131 0 34 -80 35 -80 196 0 197 0 23 120 23 120 58 0
58 0 0 -105 0 -105 510 0 510 0 0 -400 0 -400 305 0 305 0 0 -115 0 -115 278
0 279 0 19 -128 20 -127 655 -3 656 -2 30 97 30 98 81 3 82 3 0 145 0 146
1680 -4 1680 -3 0 638 0 637 118 1 c258 2 688 17 710 24 19 6 22 4 22 -22 0
-24 12 -39 68 -84 63 -50 72 -54 137 -61 39 -4 145 -7 238 -7 l167 -1 0 -55 0
-55 75 0 75 0 0 -105 0 -105 25 0 25 0 0 -248 c0 -137 3 -337 7 -445 l6 -197
94 0 93 0 0 -60 0 -60 1780 0 1780 0 0 80 0 80 135 0 135 0 0 225 0 225 35 0
35 0 0 305 0 305 30 0 30 0 0 -105 0 -105 140 0 140 0 0 -285 0 -285 305 0
305 0 0 -115 0 -115 278 0 278 0 18 -112 c9 -62 19 -121 22 -130 5 -17 45 -18
658 -18 l653 0 28 100 27 100 84 0 84 0 0 145 0 145 1680 0 1680 0 2 1168 c2
642 4 948 5 680 l3 -488 140 0 140 0 0 -120 0 -120 45 0 45 0 0 -905 0 -905
2865 0 2865 0 0 -55 0 -55 390 0 390 0 0 960 0 960 39 0 c38 0 43 4 192 176
l154 176 5 60 c4 53 15 7 103 -449 54 -279 101 -516 103 -525 5 -16 23 -18
200 -18 l195 0 36 80 36 80 131 0 131 0 850 705 850 704 65 1 65 0 105 105
105 105 132 0 133 0 2 -1292 3 -1292 513 -86 512 -87 0 28 c0 16 2 29 4 29 3
0 47 -18 97 -40 l92 -40 1225 0 1224 0 109 102 109 103 0 1443 0 1442 205 0
205 0 0 275 0 275 69 0 c96 0 131 8 131 31 0 16 -8 19 -54 19 -29 0 -74 3
-100 6 l-46 7 0 68 c0 63 2 69 23 74 26 6 1652 245 1667 245 6 0 10 26 10 59
0 65 7 71 78 71 17 0 32 5 32 10 0 6 25 10 55 10 54 0 55 0 55 30 l0 30 360 0
360 0 0 -35 c0 -22 5 -35 13 -35 7 0 184 9 392 21 l379 20 59 32 59 32 138
276 138 276 109 17 c154 25 153 25 153 52 l0 24 329 0 c272 0 336 3 372 16 38
13 189 16 1149 24 775 6 1110 5 1124 -2 20 -11 495 -4 619 9 l57 6 0 42 0 43
-92 6 c-104 7 -149 7 -1693 8 -908 1 -1117 3 -1149 14 -29 11 -118 14 -377 14
l-339 0 0 23 c0 20 -40 36 -513 200 l-512 177 -397 0 -398 0 0 -51 c0 -40 -3
-50 -14 -46 -8 3 -32 11 -55 18 -37 11 -40 14 -27 28 13 15 -36 75 -479 586
l-495 570 0 118 0 118 -32 39 c-31 37 -37 40 -85 40 -41 0 -53 4 -53 15 0 9
-12 18 -30 21 -24 5 -31 13 -37 45 -6 27 -27 61 -73 112 l-65 73 -393 89 -393
88 -48 -47 c-27 -27 -53 -62 -59 -79 l-10 -32 -1 38 -1 37 -520 0 -520 0 0
155 0 155 -695 0 -695 0 0 -155 0 -155 -495 0 -495 0 0 -120 0 -120 -55 0 -55
0 0 815 0 815 -55 0 -55 0 0 55 0 55 -200 0 -200 0 0 -55 0 -55 -40 0 c-33 0
-40 3 -40 20 0 19 -7 20 -220 20 -213 0 -220 -1 -220 -20 0 -18 -7 -20 -60
-20 l-60 0 -109 105 -108 105 -60 0 -60 0 -859 710 -859 709 -128 1 -128 0
-34 75 -34 75 -194 0 c-194 0 -195 0 -200 -22 -3 -13 -74 -367 -157 -788 -104
-527 -152 -797 -157 -867 l-6 -103 -36 0 c-25 0 -66 -18 -143 -62 l-108 -61 0
-1610 0 -1609 -22 6 c-13 3 -101 6 -195 6 l-173 0 0 65 0 65 110 0 110 0 0
2450 0 2450 -2083 0 -2083 0 -94 295 -94 295 -43 0 c-24 0 -43 3 -43 6 0 4
-63 386 -85 522 l-6 32 -88 0 -88 0 -42 -257 c-51 -310 -50 -303 -67 -303 -8
0 -14 -2 -14 -5 0 -7 -58 -490 -65 -542 l-6 -43 -530 0 -529 0 0 -120 0 -120
-340 0 -340 0 0 85 0 85 -1585 0 -1585 0 0 180 0 180 -985 0 -985 0 0 -180 0
-180 -295 0 -295 0 0 -85 0 -85 -285 0 -285 0 0 185 0 185 -240 0 -240 0 0
-30 0 -30 -120 0 -120 0 0 50 0 50 -174 0 -174 0 -7 28 c-3 15 -18 64 -32 110
l-25 82 -326 -2 -325 -3 -32 -105 -31 -105 -137 -3 -137 -3 0 -64 0 -65 -353
0 c-328 0 -355 1 -370 18 -9 10 -47 74 -85 143 l-69 124 -269 3 -269 2 -71
-127 -71 -128 -356 -3 -356 -2 -46 60 -46 60 -880 0 -879 0 0 -60 0 -60 -277
0 -278 0 -70 130 -70 130 -270 0 -270 -1 -70 -129 c-58 -107 -74 -130 -92
-130 l-23 0 0 -400 0 -400 -55 0 -55 0 0 295 0 295 -30 0 -30 0 0 230 0 230
-135 0 -135 0 0 80 0 80 -215 0 -215 0 0 345 0 345 560 0 560 0 0 409 0 408
-1650 1337 -1650 1336 -480 0 -480 0 0 -1745z m2940 -2090 l0 -345 -970 0
-970 0 0 345 0 345 970 0 970 0 0 -345z m9300 -3960 l0 -525 80 0 80 0 0 -525
0 -525 295 0 c162 0 295 -4 295 -8 0 -5 -27 -71 -60 -147 -34 -78 -60 -153
-60 -172 l0 -33 -430 0 -430 0 0 -620 c0 -341 -3 -620 -7 -620 -5 0 -71 -7
-148 -15 -77 -8 -150 -15 -162 -15 l-23 0 0 1865 0 1865 285 0 285 0 0 -525z
m6410 -620 l0 -1145 205 0 205 0 0 -65 0 -65 -354 0 c-194 0 -374 -3 -400 -6
l-46 -7 0 -988 0 -989 -69 0 -70 0 -4 -32 c-2 -18 -5 409 -5 950 l-2 982 -419
0 -418 0 -7 65 c-5 50 -21 94 -71 201 -36 75 -65 138 -65 140 0 2 189 4 420 4
l420 0 0 1050 0 1050 340 0 340 0 0 -1145z m-14640 746 l0 -219 -50 16 -50 16
0 203 0 203 50 0 50 0 0 -219z m-2 -1308 l2 -523 1038 0 c570 0 1351 -3 1735
-7 l697 -6 -2 -1011 -3 -1010 -245 -113 c-176 -81 -256 -112 -284 -113 -30 0
-51 -9 -91 -40 -28 -22 -86 -55 -128 -75 l-76 -35 -370 0 -371 0 0 950 0 950
-420 0 -420 0 0 60 0 60 -473 0 c-261 0 -522 3 -580 7 l-107 6 0 714 0 714 48
-3 47 -3 3 -522z m30061 -421 c299 -328 548 -598 552 -600 5 -2 36 22 69 54
l60 57 220 -146 c164 -110 220 -152 220 -167 0 -19 7 -20 190 -20 l190 0 0
-25 0 -25 -360 0 c-313 0 -360 2 -360 15 0 12 -19 15 -110 15 l-110 0 0 65 0
65 -895 0 -895 0 0 655 0 655 343 0 342 -1 544 -597z m-34349 -207 l0 -275
158 0 c87 0 301 -3 475 -7 l317 -6 0 -34 0 -33 -430 0 -430 0 0 -1355 0 -1355
-450 0 c-384 0 -450 2 -450 14 0 8 6 45 14 83 8 37 17 112 21 166 l7 97 74 0
74 0 0 505 0 505 65 0 65 0 0 539 0 538 110 52 110 51 0 395 0 395 135 0 135
0 0 -275z m25400 -1896 c0 -188 -1 -201 -17 -193 -10 4 -37 9 -60 12 l-43 4 0
189 0 189 60 0 60 0 0 -201z m4300 16 l0 -135 59 -38 58 -38 -146 -23 c-80
-12 -158 -25 -173 -28 l-28 -5 0 201 0 201 115 0 115 0 0 -135z m-17690 -105
c0 -27 -3 -30 -30 -30 -25 0 -30 4 -30 24 0 25 11 34 43 35 12 1 17 -7 17 -29z
m6387 -547 c-1 -60 -3 -11 -3 107 0 118 2 167 3 108 2 -60 2 -156 0 -215z"/>
</g>
</svg>
