<?xml version="1.0" standalone="no"?>
<!DOCTYPE svg PUBLIC "-//W3C//DTD SVG 20010904//EN"
 "http://www.w3.org/TR/2001/REC-SVG-20010904/DTD/svg10.dtd">
<svg version="1.0" xmlns="http://www.w3.org/2000/svg"
   viewBox="0 0 4837.000000 1507.000000"
 preserveAspectRatio="xMidYMid meet">
<metadata>
Created by potrace 1.16, written by Peter Selinger 2001-2019
</metadata>
<g transform="translate(0.000000,1507.000000) scale(0.100000,-0.100000)"
fill="#000000" stroke="none">
<path d="M8660 13365 l0 -1705 255 0 255 0 0 -335 0 -335 -245 0 -245 0 0 -60
0 -60 -100 0 -100 0 0 -177 c0 -98 -3 -337 -7 -530 l-6 -353 -64 0 -63 0 -53
-112 c-30 -62 -72 -142 -95 -177 l-42 -64 0 71 0 72 -163 0 -163 0 -42 -31
c-24 -17 -44 -30 -46 -28 -3 4 -206 1040 -206 1052 0 4 -88 6 -196 5 l-196 -3
-31 -72 -31 -73 -126 -1 -125 0 -833 -689 -834 -689 -68 -7 -68 -6 -98 -99
-99 -99 -57 0 c-51 0 -58 2 -58 20 0 19 -7 20 -220 20 -213 0 -220 -1 -220
-20 0 -16 -7 -20 -35 -20 l-35 0 0 55 0 55 -200 0 -200 0 0 -55 0 -55 -50 0
-50 0 0 -600 0 -600 -32 0 c-18 0 -285 -7 -593 -16 l-560 -17 -20 -23 -20 -23
-695 -7 c-544 -5 -703 -10 -734 -20 -30 -11 -145 -14 -542 -14 l-504 0 0 -30
0 -30 504 0 c412 0 510 -3 538 -14 27 -12 165 -16 737 -22 l703 -7 11 -24 c9
-21 17 -23 76 -23 36 0 269 -7 516 -15 248 -8 487 -15 533 -15 l82 0 0 -470
c0 -441 -1 -470 -17 -470 -166 -2 -538 -22 -547 -28 -6 -5 -271 -12 -595 -15
-372 -3 -586 -9 -590 -15 -4 -6 -343 -11 -973 -13 -531 -2 -970 -7 -974 -11
-4 -5 -5 -10 -3 -12 3 -3 511 -10 1129 -16 2157 -22 1992 -19 2005 -36 9 -14
53 -17 276 -25 145 -4 270 -8 277 -9 9 0 12 -75 12 -343 l0 -343 -82 -31 -83
-31 0 -267 0 -268 110 -43 c61 -24 122 -43 138 -43 l27 -1 0 -910 0 -910 408
0 407 0 100 -100 100 -100 60 0 60 0 840 -695 839 -695 126 0 125 0 29 -70 30
-70 195 2 195 3 21 105 21 105 57 3 57 3 0 -101 0 -100 500 0 500 0 0 -390 0
-390 300 0 300 0 0 -115 0 -115 268 0 269 0 19 -125 18 -125 641 0 641 0 28
95 29 95 83 0 84 0 0 146 0 146 1640 -4 1640 -3 0 623 0 622 168 1 c252 1 615
15 635 23 14 7 17 3 17 -20 0 -24 13 -39 73 -86 l72 -58 228 0 227 0 0 -60 0
-60 70 0 70 0 0 -100 c0 -98 0 -100 24 -100 21 0 24 -5 30 -61 3 -34 6 -231 6
-437 l0 -375 95 5 95 5 0 -63 0 -64 1740 0 1740 0 0 80 0 80 130 0 130 0 0
220 0 220 30 0 30 0 0 295 0 295 35 0 35 0 0 -100 0 -100 135 0 135 0 0 -275
0 -275 300 0 300 0 0 -115 0 -115 270 0 c149 0 270 -3 270 -7 0 -5 9 -60 20
-123 11 -63 20 -116 20 -117 0 -2 288 -3 639 -3 l640 0 16 58 c9 31 21 74 27
95 l11 37 84 0 83 0 0 146 0 146 1640 -3 1640 -4 2 1140 c2 627 4 925 5 662
l3 -477 135 0 135 0 0 -120 0 -120 45 0 45 0 0 -880 0 -880 2800 0 2800 0 0
-55 0 -55 380 0 380 0 0 935 0 935 33 0 c30 0 46 15 187 177 148 170 155 179
160 227 4 42 19 -24 93 -404 49 -250 93 -476 98 -502 l11 -48 192 0 193 0 32
70 33 70 124 0 124 0 839 695 840 695 63 0 63 0 100 100 100 100 127 0 128 0
2 -1262 3 -1262 455 -77 c250 -42 474 -80 497 -83 41 -7 42 -7 45 22 l3 30 89
-39 90 -39 1204 0 1204 0 104 98 104 97 0 1408 0 1407 200 0 200 0 0 270 0
269 93 3 c87 3 92 4 95 26 3 21 1 22 -92 22 l-96 0 0 75 c0 41 4 75 10 75 5 0
376 54 823 120 448 66 817 120 821 120 3 0 6 27 6 60 l0 60 55 0 c30 0 55 4
55 9 0 6 21 11 48 13 43 3 47 5 50 31 l3 27 355 0 354 0 0 -32 0 -33 382 20
383 20 55 31 55 30 136 270 137 269 123 22 c68 12 125 22 127 22 1 1 2 12 2
26 l0 25 323 0 c257 0 334 3 373 15 41 12 218 16 1124 21 741 5 1081 4 1095
-3 14 -7 117 -7 338 0 l317 10 0 47 0 47 -257 7 c-142 4 -287 5 -323 4 -36 -2
-558 -2 -1160 -1 -965 2 -1100 4 -1139 17 -36 13 -99 16 -367 16 -309 0 -324
1 -324 19 0 22 36 8 -533 206 l-449 155 -394 0 -394 0 0 -45 c0 -25 -4 -45 -8
-45 -5 0 -29 7 -55 16 -40 14 -45 18 -35 33 9 16 -56 96 -470 572 l-481 554
-1 115 c0 114 0 116 -31 153 -28 34 -35 37 -80 37 -37 0 -49 4 -49 15 0 9 -12
18 -30 22 -22 4 -32 13 -36 32 -3 14 -8 33 -10 41 -2 8 -34 47 -72 85 l-67 70
-378 84 -378 85 -45 -45 c-25 -24 -50 -53 -54 -64 -8 -18 -9 -17 -9 8 l-1 27
-510 0 -510 0 0 150 0 150 -680 0 -680 0 0 -150 0 -150 -485 0 -485 0 0 -120
0 -120 -50 0 -50 0 0 795 0 795 -55 0 -55 0 0 55 0 55 -200 0 -200 0 0 -55 0
-55 -35 0 c-28 0 -35 4 -35 20 0 19 -7 20 -215 20 -208 0 -215 -1 -215 -20 0
-18 -7 -20 -56 -20 l-57 0 -106 99 -107 99 -64 7 -65 7 -835 689 -835 689
-125 0 -125 0 -32 73 -32 72 -192 0 -192 0 -153 -775 c-85 -426 -154 -793
-154 -815 0 -22 -3 -64 -6 -92 -7 -52 -7 -53 -41 -53 -23 0 -66 -19 -138 -61
l-105 -61 0 -1569 0 -1569 -53 0 c-30 0 -115 3 -190 7 l-137 6 0 64 0 63 110
0 110 0 0 2390 0 2390 -2037 2 -2037 3 -91 285 -92 285 -41 3 c-48 4 -39 -25
-87 277 -19 121 -37 230 -40 243 -5 21 -10 22 -90 22 -80 0 -85 -1 -90 -22 -5
-25 -85 -503 -85 -512 0 -3 -6 -6 -14 -6 -17 0 -19 -9 -51 -290 -14 -118 -28
-232 -31 -252 l-6 -38 -514 0 -514 0 0 -115 0 -115 -335 0 -335 0 0 80 0 80
-1545 0 -1545 0 0 180 0 180 -960 0 -960 0 0 -180 0 -180 -290 0 -290 0 0 -80
0 -80 -285 0 -285 0 0 180 0 180 -230 0 -230 0 0 -30 0 -30 -120 0 -120 0 0
50 0 50 -167 2 -168 3 -30 103 -30 102 -319 -2 -319 -3 -31 -102 -30 -103
-138 0 -138 0 0 -65 0 -65 -345 0 -345 0 -17 27 c-10 15 -45 77 -79 138 l-60
110 -265 3 -264 2 -69 -125 -70 -125 -347 0 -348 0 -46 60 -46 60 -855 0 -854
0 0 -60 0 -60 -273 0 -273 0 -69 125 -68 125 -265 -2 -264 -3 -67 -120 c-50
-91 -72 -121 -89 -123 l-22 -3 0 -390 0 -389 -55 0 -55 0 0 290 0 290 -30 0
-30 0 0 220 0 220 -130 0 -130 0 0 80 0 80 -210 0 -210 0 0 335 0 335 545 0
545 0 0 403 -1 402 -1609 1303 -1609 1302 -471 0 -470 0 0 -1705z m2870 -2040
l0 -335 -945 0 -945 0 0 335 0 335 945 0 945 0 0 -335z m9090 -3870 l0 -515
75 0 75 0 0 -510 0 -510 290 0 c160 0 290 -2 290 -4 0 -2 -27 -67 -60 -144
-33 -78 -60 -154 -60 -171 l0 -31 -420 0 -420 0 0 -605 0 -604 -32 -5 c-45 -8
-245 -26 -280 -26 l-28 0 0 1820 0 1820 285 0 285 0 0 -515z m6260 -600 l0
-1115 200 0 200 0 0 -63 0 -64 -277 -6 c-153 -4 -329 -7 -390 -7 l-113 0 0
-965 0 -965 -69 0 -70 0 -4 -32 c-2 -18 -5 398 -5 925 l-2 957 -415 0 -415 0
0 61 c0 55 -7 76 -65 197 -36 74 -65 136 -65 138 0 2 185 4 410 4 l410 0 0
1025 0 1025 335 0 335 0 0 -1115z m-14300 730 c0 -118 -1 -215 -3 -215 -2 0
-24 7 -50 16 l-47 16 0 199 0 199 50 0 50 0 0 -215z m-16 -771 c14 -5 16 -60
16 -515 l0 -509 1695 0 1695 0 -2 -991 -3 -991 -239 -109 c-176 -80 -249 -109
-279 -109 -31 0 -49 -8 -86 -39 -26 -22 -83 -56 -125 -75 l-78 -36 -359 0
-359 0 0 930 0 930 -415 0 -415 0 0 53 0 54 -107 6 c-58 4 -312 7 -565 7
l-458 0 0 700 0 700 34 0 c19 0 41 -3 50 -6z m29371 -924 l538 -589 63 55 64
56 212 -139 c155 -102 214 -146 216 -161 3 -22 7 -22 188 -22 l184 0 0 -25 0
-25 -355 0 c-309 0 -355 2 -355 15 0 12 -18 15 -105 15 l-105 0 0 65 0 65
-870 0 -870 0 0 640 0 640 329 0 329 0 537 -590z m-33555 -200 l0 -270 424 0
c233 0 444 -3 470 -6 44 -6 46 -8 46 -40 l0 -34 -420 0 -420 0 0 -1320 0
-1320 -293 0 c-162 0 -363 -3 -447 -7 -135 -5 -153 -4 -148 9 9 21 36 200 43
281 l7 67 74 0 74 0 0 495 0 495 60 0 60 0 0 523 0 524 110 52 110 52 0 385 0
384 125 0 125 0 0 -270z m24820 -1850 c0 -110 -3 -200 -7 -200 -5 0 -17 7 -27
15 -11 8 -35 15 -53 15 l-33 0 0 185 0 185 60 0 60 0 0 -200z m4190 16 l0
-134 55 -33 c30 -18 53 -34 51 -36 -5 -5 -286 -53 -308 -53 -17 0 -18 16 -18
195 l0 195 110 0 110 0 0 -134z m-17270 -106 c0 -28 -3 -30 -35 -30 -30 0 -35
3 -35 24 0 26 11 34 48 35 18 1 22 -4 22 -29z m6237 -527 c-1 -59 -3 -13 -3
102 0 116 2 164 3 108 2 -56 2 -151 0 -210z"/>
</g>
</svg>
