<?xml version="1.0" standalone="no"?>
<!DOCTYPE svg PUBLIC "-//W3C//DTD SVG 20010904//EN"
 "http://www.w3.org/TR/2001/REC-SVG-20010904/DTD/svg10.dtd">
<svg version="1.0" xmlns="http://www.w3.org/2000/svg"
   viewBox="0 0 4197.000000 2161.000000"
 preserveAspectRatio="xMidYMid meet">
<metadata>
Created by potrace 1.16, written by Peter Selinger 2001-2019
</metadata>
<g transform="translate(0.000000,2161.000000) scale(0.100000,-0.100000)"
fill="#000000" stroke="none">
<path d="M20178 21551 c-641 -32 -1142 -61 -1147 -66 -108 -115 -253 -308
-448 -597 l-232 -345 -258 36 -258 36 -1009 0 -1010 0 -148 -425 c-138 -393
-152 -427 -184 -453 l-34 -28 0 -95 c0 -52 -2 -94 -5 -94 -3 0 -289 72 -636
161 l-630 160 -572 -17 c-317 -9 -575 -21 -578 -26 -3 -5 -9 -107 -13 -226 -3
-119 -9 -280 -13 -358 l-6 -141 -1101 -6 -1101 -6 -265 -101 c-145 -55 -273
-109 -285 -119 -11 -10 -129 -116 -263 -234 l-243 -216 -167 -263 c-133 -211
-181 -298 -244 -438 -43 -96 -79 -178 -80 -182 -3 -7 -2091 -48 -2405 -48 -88
0 -93 1 -97 23 -3 12 -8 101 -12 199 l-6 176 -200 78 -201 77 -1911 -79
c-1051 -44 -1913 -79 -1915 -77 -2 1 -7 57 -11 123 -5 67 -10 122 -12 124 -10
6 -2108 -43 -2121 -50 -8 -5 -71 -52 -142 -104 l-127 -95 6 -105 c3 -58 9
-153 12 -212 l7 -108 -35 -14 -35 -15 -6 -173 c-19 -513 -20 -640 -3 -763 10
-66 18 -121 20 -122 1 -1 77 -8 169 -15 l167 -12 0 -427 0 -427 -43 -5 c-23
-4 -99 -9 -169 -13 l-127 -6 -15 -72 c-13 -63 -14 -123 -3 -518 7 -246 15
-449 18 -452 11 -12 267 -76 301 -76 21 0 38 -4 38 -8 0 -5 -81 -33 -180 -63
l-180 -54 0 -30 c0 -16 -7 -131 -15 -255 -8 -124 -15 -239 -15 -256 0 -30 6
-34 182 -130 l183 -98 1053 -19 c579 -11 1056 -17 1059 -13 3 3 8 40 11 81 3
50 9 75 16 72 6 -2 376 -123 821 -267 552 -179 817 -270 831 -284 12 -12 173
-234 359 -494 186 -261 343 -475 349 -477 10 -3 1572 -86 1609 -85 16 0 17 36
17 620 0 341 2 620 3 620 2 0 100 -41 218 -90 186 -79 235 -95 372 -124 l158
-34 20 40 c19 36 22 39 52 33 67 -14 67 -13 67 -65 l0 -48 48 -6 c26 -3 267
-24 536 -47 391 -33 493 -39 511 -29 17 9 125 7 501 -10 472 -22 887 -23 1369
-4 l140 5 97 -86 96 -85 465 0 464 0 6 -57 c4 -32 10 -93 13 -136 6 -65 26
-131 124 -400 79 -215 114 -324 106 -328 -6 -3 -303 -19 -661 -35 l-650 -29
675 -6 c518 -5 675 -9 678 -18 2 -7 129 -202 283 -434 l278 -422 276 -301 275
-301 788 -450 787 -450 315 -42 c173 -23 315 -43 317 -45 2 -1 6 -50 10 -107
l7 -104 301 -240 c166 -132 312 -243 326 -247 13 -4 317 -30 674 -59 358 -28
651 -52 651 -52 4 -6 -601 -667 -870 -951 l-321 -339 -3 -94 c-3 -89 -4 -93
-25 -93 -12 1 -582 -25 -1267 -57 l-1245 -58 320 -6 c176 -4 568 -7 870 -8
303 0 728 -4 946 -8 l397 -6 4 -101 c3 -56 4 -102 4 -103 -1 -1 -492 -23
-1091 -50 l-1090 -48 370 -6 c204 -3 600 -7 881 -8 281 0 606 -4 722 -8 l212
-6 0 -233 0 -232 68 15 c41 10 1083 449 2691 1134 l2624 1119 326 61 c278 52
327 58 336 46 6 -8 121 -215 255 -460 l245 -446 186 -1 c102 0 402 3 667 7
l481 6 5 22 c3 12 2 96 -3 187 l-9 164 -151 465 c-83 255 -151 467 -151 471 0
3 27 9 59 13 l60 7 110 149 c61 82 111 156 111 164 0 11 12 15 40 15 33 0 84
-23 253 -113 l212 -112 1478 -5 1479 -5 121 -317 c67 -174 125 -319 128 -322
3 -4 574 5 1268 20 l1261 25 39 -33 c22 -18 400 -361 840 -763 l801 -730 -47
-3 c-27 -1 -1479 -31 -3228 -67 -1749 -36 -3223 -66 -3275 -67 -52 -2 1490
-53 3427 -115 l3523 -112 132 -120 132 -121 205 0 c338 -1 1712 -18 1716 -22
2 -2 6 -103 10 -225 l8 -223 -24 0 c-112 3 -4797 -96 -4791 -101 4 -3 1091
-40 2417 -83 1325 -43 2410 -78 2411 -79 1 -1 4 -73 8 -161 l6 -158 -217 6
c-120 3 -506 9 -857 12 -620 6 -639 6 -634 -12 3 -11 204 -512 446 -1114 242
-602 444 -1103 447 -1112 6 -16 -4 -18 -113 -20 l-120 -3 67 -185 c38 -102
211 -578 386 -1058 l318 -872 628 0 627 0 6 -37 c3 -21 17 -144 31 -273 14
-129 28 -250 31 -268 l5 -32 817 2 816 3 96 300 96 300 130 2 c71 2 250 0 399
-5 l269 -7 141 -352 c77 -194 143 -352 147 -350 4 1 318 374 698 830 l691 827
-215 827 c-118 455 -214 828 -213 829 1 1 63 -3 137 -10 l136 -12 -88 271
c-49 148 -258 792 -466 1430 l-378 1160 119 16 c65 9 120 18 121 20 2 2 -538
1392 -1200 3088 -663 1696 -1202 3086 -1200 3088 2 3 1218 11 2702 19 1483 7
2699 16 2702 19 3 3 3 7 1 10 -3 2 -1218 50 -2700 104 -1482 55 -2720 102
-2753 103 l-59 3 -692 1775 c-381 976 -697 1781 -702 1788 -4 7 -633 305
-1398 663 -764 357 -1391 652 -1394 655 -2 2 12 75 32 161 21 86 34 160 30
164 -5 3 -623 256 -1375 561 l-1368 555 -40 -68 c-22 -37 -44 -70 -49 -73 -5
-3 -404 179 -887 406 l-879 411 -907 -33 c-499 -19 -911 -31 -914 -27 -4 3
-13 93 -20 199 -8 106 -16 198 -18 204 -5 13 -525 380 -557 393 -13 5 -125 22
-249 37 -124 14 -233 31 -244 36 -10 6 -256 184 -546 397 -290 214 -531 391
-537 394 -5 3 -306 79 -669 167 l-659 162 -410 29 c-225 16 -473 28 -550 28
-77 -1 -652 -27 -1277 -58z m-6680 -3378 l251 -308 1 -145 0 -145 -1917 -32
c-1054 -18 -1918 -31 -1920 -30 -8 9 125 225 212 345 94 130 119 157 280 298
l177 156 206 75 207 75 930 7 c512 4 1018 8 1125 9 l196 2 252 -307z m-4817
-4343 c1527 -28 1598 -30 1630 -48 61 -35 424 -56 846 -50 l353 6 0 -22 c0
-11 9 -115 20 -231 11 -115 20 -213 20 -217 0 -5 -195 -8 -433 -8 l-433 0 -98
-86 -97 -86 -492 -12 c-447 -12 -536 -11 -982 7 -390 15 -493 22 -506 33 -9 8
-236 62 -505 119 -269 58 -498 107 -510 110 -16 3 -25 -4 -42 -39 l-21 -44
-42 9 c-57 13 -59 15 -59 53 l0 33 -149 31 c-82 17 -261 46 -397 63 -137 18
-252 35 -256 39 -5 3 39 25 96 49 l104 42 7 127 c3 70 8 134 11 142 3 13 28
15 171 12 93 -2 886 -16 1764 -32z m5066 -157 c-2 -16 -4 -5 -4 22 0 28 2 40
4 28 2 -13 2 -35 0 -50z"/>
</g>
</svg>
