<?xml version="1.0" standalone="no"?>
<!DOCTYPE svg PUBLIC "-//W3C//DTD SVG 20010904//EN"
 "http://www.w3.org/TR/2001/REC-SVG-20010904/DTD/svg10.dtd">
<svg version="1.0" xmlns="http://www.w3.org/2000/svg"
   viewBox="0 0 4238.000000 2214.000000"
 preserveAspectRatio="xMidYMid meet">
<metadata>
Created by potrace 1.16, written by Peter Selinger 2001-2019
</metadata>
<g transform="translate(0.000000,2214.000000) scale(0.100000,-0.100000)"
fill="#000000" stroke="none">
<path d="M20765 22079 c-638 -32 -1183 -58 -1212 -58 l-51 -1 -114 -132 c-81
-94 -185 -238 -353 -488 -131 -195 -239 -356 -239 -356 -1 -1 -149 18 -331 42
l-330 43 -966 1 -966 0 -153 -437 c-140 -403 -155 -441 -191 -478 l-39 -41 0
-87 c0 -60 -4 -87 -12 -87 -6 0 -295 73 -642 161 l-631 162 -594 -17 c-327 -9
-596 -18 -597 -19 -2 -1 -9 -168 -17 -370 -7 -201 -16 -370 -20 -373 -4 -4
-510 -9 -1124 -12 l-1118 -5 -274 -103 c-151 -58 -282 -110 -290 -118 -9 -7
-131 -115 -271 -240 l-255 -227 -169 -267 c-142 -223 -183 -297 -252 -452
l-82 -185 -78 -7 c-44 -4 -576 -14 -1184 -22 -608 -9 -1148 -18 -1201 -21
l-97 -6 -6 123 c-4 68 -9 161 -12 208 l-6 86 -205 79 -204 78 -1957 -81
c-1075 -45 -1957 -80 -1959 -78 -2 2 -7 58 -10 125 -3 67 -9 123 -12 125 -13
7 -2160 -42 -2172 -50 -11 -6 -190 -140 -267 -199 -11 -9 -10 -47 3 -224 9
-117 15 -214 13 -215 -2 -1 -19 -9 -39 -18 l-35 -16 -12 -408 c-11 -367 -10
-422 5 -539 9 -71 17 -131 18 -132 0 -1 66 -7 145 -13 80 -6 160 -13 178 -16
l32 -5 0 -434 c0 -239 -1 -435 -2 -436 -2 -1 -82 -6 -178 -13 l-175 -11 -13
-55 c-13 -56 -11 -475 5 -861 l6 -155 137 -37 c75 -20 156 -37 180 -37 26 0
40 -4 35 -9 -6 -5 -91 -33 -190 -64 l-180 -55 -17 -288 c-16 -265 -16 -290 -1
-301 9 -7 93 -54 187 -105 l171 -92 895 -18 c492 -9 982 -17 1088 -17 l192 -1
0 74 c0 41 4 77 8 80 7 4 1693 -540 1698 -547 3 -6 708 -993 713 -999 4 -4
344 -26 756 -47 413 -22 790 -43 839 -46 l89 -7 -6 640 -6 641 127 -53 c70
-29 177 -74 237 -99 73 -31 153 -54 240 -72 72 -14 139 -28 151 -31 16 -4 24
2 39 35 10 23 19 41 21 41 2 0 26 -5 53 -11 l50 -10 3 -52 3 -52 549 -46 c455
-39 553 -45 570 -34 17 10 112 8 516 -11 442 -20 540 -22 910 -14 228 5 465 9
525 10 l110 0 97 -85 96 -85 475 0 474 0 6 -37 c3 -21 9 -83 13 -137 7 -94 13
-116 130 -435 67 -185 122 -336 121 -337 -1 -1 -290 -14 -642 -30 l-640 -29
265 -6 c146 -4 442 -7 658 -8 331 -1 392 -3 392 -15 0 -8 135 -216 299 -463
l300 -448 268 -290 268 -290 805 -461 805 -461 326 -43 326 -43 6 -106 c6 -99
8 -108 34 -131 16 -14 158 -128 317 -254 l288 -229 652 -53 c358 -29 667 -54
686 -56 l34 -3 -321 -355 c-176 -195 -451 -492 -611 -660 l-291 -305 0 -92 -1
-92 -42 -5 c-24 -3 -608 -31 -1298 -63 l-1255 -58 285 -6 c157 -3 517 -7 801
-8 284 0 739 -4 1013 -8 l497 -6 -3 -106 -3 -106 -1130 -50 c-891 -39 -1091
-51 -945 -53 102 -1 609 -6 1127 -10 518 -4 945 -11 949 -15 4 -4 9 -112 12
-241 l5 -233 65 15 c39 8 1177 488 2751 1160 l2686 1145 335 63 c287 54 337
61 346 49 6 -8 125 -221 264 -474 l252 -459 462 4 c253 3 562 7 685 10 l224 6
-7 187 -6 186 -158 485 -158 485 61 3 60 3 113 153 c61 85 112 163 112 175 0
18 6 21 40 21 31 0 86 -25 262 -117 l223 -118 1513 -5 1514 -5 126 -331 127
-330 105 3 c58 2 584 12 1170 23 586 11 1122 22 1192 24 l127 5 858 -782 858
-782 -195 -6 c-107 -4 -1598 -35 -3312 -70 -1715 -35 -3118 -66 -3118 -69 0
-3 1538 -54 3418 -113 1879 -59 3463 -111 3519 -114 l102 -6 133 -121 132
-121 981 -9 c539 -4 983 -11 986 -15 4 -3 10 -106 14 -228 l7 -221 -53 -6
c-30 -3 -1150 -27 -2489 -53 -1339 -26 -2410 -51 -2380 -55 30 -4 1153 -42
2496 -85 l2441 -78 6 -160 c3 -87 5 -160 4 -162 -2 -1 -374 2 -827 8 -454 6
-848 9 -875 7 l-51 -3 463 -1150 c255 -632 463 -1151 463 -1152 0 -2 -54 -3
-120 -3 -90 0 -120 -3 -119 -12 0 -7 177 -497 392 -1088 l393 -1075 644 -5
645 -5 32 -285 c17 -157 32 -295 32 -307 l1 -23 838 0 839 0 99 310 99 310
406 0 405 0 148 -371 c82 -204 152 -367 156 -362 4 4 317 379 695 833 378 454
696 834 706 845 18 20 13 39 -201 865 -121 464 -217 846 -215 849 3 2 64 -1
137 -7 73 -6 133 -10 135 -9 1 1 -212 659 -473 1461 -261 802 -473 1460 -470
1463 3 3 59 13 124 22 l120 16 -1234 3160 c-679 1738 -1234 3163 -1234 3166 0
3 678 9 1508 12 829 4 1940 10 2470 14 l962 6 0 24 c0 17 -5 23 -22 23 -85 -2
-5014 184 -5020 189 -4 3 -326 824 -717 1825 -390 1000 -713 1822 -718 1826
-4 5 -649 308 -1433 675 -784 367 -1426 667 -1427 668 0 1 17 76 38 166 22 90
38 165 37 166 -3 2 -2736 1113 -2794 1135 -18 7 -26 -2 -65 -66 -24 -40 -48
-74 -52 -74 -4 0 -411 189 -905 421 l-897 420 -935 -34 c-514 -19 -936 -34
-937 -34 0 1 -7 90 -14 197 -7 107 -15 204 -19 215 -4 11 -133 109 -287 217
l-279 196 -245 32 c-134 17 -250 33 -256 35 -7 2 -263 188 -570 413 l-558 409
-685 166 -685 166 -445 31 c-245 16 -472 30 -505 29 -33 -1 -582 -28 -1220
-60z m-6941 -3463 l256 -315 0 -150 0 -151 -127 0 c-71 0 -933 -14 -1918 -30
-984 -17 -1811 -30 -1837 -28 l-47 3 63 110 c34 61 108 173 164 250 93 126
119 154 281 296 99 86 187 159 197 163 11 4 107 39 214 78 l195 71 910 7 c501
3 1019 7 1151 8 l241 2 257 -314z m-4961 -4447 c1563 -28 1661 -31 1695 -48
29 -15 93 -23 287 -39 211 -17 304 -19 595 -15 l346 6 17 -194 c10 -107 21
-218 24 -246 l6 -53 -448 0 -447 0 -99 -86 -98 -85 -513 -12 c-464 -11 -559
-11 -1003 7 -402 15 -493 21 -507 34 -16 13 -1003 232 -1048 232 -10 0 -24
-16 -35 -40 -19 -42 -27 -45 -90 -31 -26 5 -31 11 -35 46 l-5 40 -155 32 c-85
18 -267 46 -405 64 -137 18 -254 36 -258 39 -5 4 39 26 96 49 l105 42 6 57 c3
31 8 98 12 147 l6 91 146 -3 c81 -2 893 -17 1805 -34z m5214 -146 c-3 -10 -5
-2 -5 17 0 19 2 27 5 18 2 -10 2 -26 0 -35z"/>
</g>
</svg>
