<?xml version="1.0" standalone="no"?>
<!DOCTYPE svg PUBLIC "-//W3C//DTD SVG 20010904//EN"
 "http://www.w3.org/TR/2001/REC-SVG-20010904/DTD/svg10.dtd">
<svg version="1.0" xmlns="http://www.w3.org/2000/svg"
   viewBox="0 0 3522.000000 527.000000"
 preserveAspectRatio="xMidYMid meet">
<metadata>
Created by potrace 1.16, written by Peter Selinger 2001-2019
</metadata>
<g transform="translate(0.000000,527.000000) scale(0.100000,-0.100000)"
fill="#000000" stroke="none">
<path d="M6545 5230 l-18 -40 -460 0 -459 0 -20 26 c-19 23 -26 25 -67 20 -25
-4 -78 -10 -117 -14 l-70 -7 -63 -70 -64 -70 92 -3 c50 -1 91 -7 91 -11 0 -5
-13 -39 -30 -76 -16 -37 -30 -80 -30 -96 0 -28 -2 -29 -44 -29 l-44 0 14 52
c7 29 12 53 11 55 -2 1 -376 -55 -832 -124 l-830 -126 -65 -40 c-36 -22 -69
-44 -74 -48 -13 -11 53 -41 214 -95 l145 -49 -80 -5 -79 -5 -41 -77 -40 -78
-95 0 -95 0 -38 61 c-20 33 -42 59 -47 57 -5 -2 -189 -97 -409 -213 l-398
-210 29 -37 30 -38 -126 0 -125 0 -188 -172 c-103 -94 -199 -181 -213 -194
-18 -17 -227 -84 -790 -254 -421 -127 -802 -242 -848 -256 -73 -22 -93 -34
-177 -105 -86 -73 -95 -83 -95 -114 l0 -35 73 0 72 0 48 -333 c26 -182 47
-366 47 -408 0 -57 4 -78 14 -82 8 -3 15 -24 18 -46 3 -34 1 -41 -14 -41 -17
0 -18 -19 -16 -338 l3 -337 730 -52 c729 -51 761 -52 882 -27 20 4 24 -1 29
-36 l7 -41 76 7 c42 4 119 14 171 24 l95 16 3 57 c2 31 6 57 10 57 42 -1 244
-46 347 -78 184 -57 291 -66 823 -69 l442 -3 0 -63 c0 -61 1 -64 43 -105 l43
-42 605 0 605 0 445 -435 444 -434 476 -1 475 0 203 205 203 205 418 0 417 0
42 -45 41 -45 805 0 804 0 37 45 36 45 168 0 167 0 91 110 92 109 0 146 0 146
62 -3 62 -3 20 -67 19 -68 73 0 c72 0 73 0 65 23 -21 58 -22 77 -3 77 14 0 22
-13 31 -50 l13 -50 74 0 c72 0 73 0 65 23 -4 12 -11 35 -15 50 -6 25 -4 28 16
25 17 -2 25 -14 36 -50 l13 -48 71 0 71 0 -7 28 c-3 15 -8 37 -12 50 l-6 22
334 0 335 0 11 25 12 25 405 0 405 0 102 45 c162 71 166 70 379 -121 l126
-114 354 -5 c424 -7 456 -9 464 -36 5 -15 16 -19 51 -19 38 0 49 -5 71 -30 30
-37 73 -60 108 -60 14 0 28 -7 31 -15 5 -12 28 -15 121 -15 l114 0 25 -55 c28
-65 28 -65 9 -65 -20 0 -20 0 12 -65 18 -37 33 -55 46 -55 13 0 28 -21 54 -79
34 -76 38 -80 129 -145 71 -50 101 -66 127 -66 30 0 36 4 50 40 13 34 13 40 1
40 -8 0 -14 3 -14 8 0 4 77 176 170 382 124 274 170 385 170 413 0 33 -14 55
-114 181 -103 129 -112 144 -100 161 8 11 11 22 7 26 -5 3 -91 51 -193 105
-181 97 -187 99 -264 104 l-79 5 -109 310 c-60 170 -110 310 -111 311 -1 1
-828 66 -1837 143 -1009 78 -1842 143 -1850 145 -8 2 82 4 200 5 l216 1 59 60
59 60 428 0 428 0 0 105 0 105 665 0 665 0 0 -30 0 -30 235 0 235 0 0 35 0 35
573 0 c314 0 1162 3 1882 7 l1310 6 93 -76 94 -77 363 0 364 0 32 40 32 40
160 0 160 0 34 -40 35 -40 498 0 498 0 92 75 c51 41 96 75 101 75 5 0 9 -16 9
-35 l0 -35 200 0 200 0 0 40 0 40 1698 0 c933 0 2153 3 2710 7 l1012 6 0 -31
0 -32 185 0 185 0 0 35 0 35 798 0 797 -1 455 -384 455 -385 1418 0 1417 0
221 170 221 170 140 0 139 0 27 60 27 59 288 1 288 0 -6 43 c-4 23 -34 235
-69 470 l-62 428 -104 80 -105 79 -617 0 c-488 0 -618 -3 -618 -12 0 -7 79
-161 174 -343 192 -366 167 -334 297 -370 l55 -15 82 -149 c45 -82 82 -152 82
-155 0 -3 -26 -6 -57 -6 -58 0 -58 -1 -270 -145 l-212 -145 -503 1 -503 1 -34
39 -33 39 247 0 c231 0 247 1 240 17 -3 10 -71 118 -151 240 l-145 223 3 57 3
57 27 -42 c28 -42 28 -42 189 -88 9 -2 85 -108 170 -234 l154 -229 152 -1 153
0 165 82 c91 46 164 87 163 93 -2 6 -119 236 -261 512 l-258 502 -65 35 c-61
34 -70 36 -158 36 -71 0 -97 4 -106 15 -11 13 84 15 841 15 470 0 918 3 997 7
l142 6 0 -38 c0 -32 9 -48 50 -96 28 -32 50 -60 50 -63 0 -3 -27 -6 -60 -6
-33 0 -60 -3 -60 -7 -1 -5 16 -140 37 -302 l38 -294 42 -20 c46 -22 41 -9 94
-250 l12 -57 271 2 270 3 323 380 322 380 1 82 0 83 -400 2 -401 3 51 57 c43
48 50 62 50 97 l0 41 383 0 c210 0 527 3 705 7 l322 6 0 79 c0 43 -1 78 -2 79
-19 6 -4148 28 -5485 28 l-1783 1 0 30 0 30 -213 0 -213 0 -476 368 -477 367
100 3 99 3 0 129 0 130 -165 0 c-158 0 -165 1 -165 20 0 19 -7 20 -190 20
-120 0 -190 -4 -190 -10 0 -7 -907 -10 -2700 -10 l-2700 0 0 25 0 25 -215 0
c-208 0 -215 -1 -215 -20 0 -20 -7 -20 -1485 -20 l-1485 0 0 35 0 35 -250 0
-250 0 0 -25 0 -25 -1410 0 -1410 0 0 30 0 30 -250 0 c-231 0 -250 -1 -250
-17 0 -20 -108 -21 -1377 -7 l-623 6 0 28 c0 27 -3 29 -52 34 -29 4 -467 38
-973 76 -506 39 -939 73 -962 76 -42 5 -43 6 -43 45 l0 39 -353 0 -353 0 -13
-35 c-9 -27 -18 -35 -36 -35 -18 0 -26 8 -35 35 l-12 35 -1022 0 -1023 0 -18
-40z m19515 -640 l0 -30 123 0 123 0 438 -337 438 -338 -71 -3 c-54 -2 -71 -6
-71 -17 0 -13 -327 -15 -2570 -15 l-2570 0 0 25 c0 25 0 25 -96 25 l-96 0
-450 348 c-426 328 -449 347 -417 350 49 4 2954 18 4182 20 l1037 2 0 -30z
m-5830 -20 l0 -30 135 0 134 0 438 -337 437 -338 -510 -3 -511 -2 -35 32 c-19
18 -89 77 -155 131 l-121 97 -501 0 -502 0 -30 -35 -31 -35 -162 0 -162 0 -34
35 -34 35 -282 0 -282 0 -306 236 c-168 129 -306 237 -306 240 0 2 635 4 1410
4 l1410 0 0 -30z m-3470 -25 l0 -35 151 0 150 0 328 -252 327 -252 -82 -68
-83 -68 -145 0 -146 0 0 90 0 90 -485 0 -485 0 0 -90 0 -90 -575 0 -575 0 0
35 0 35 -101 0 -100 0 -410 316 c-225 173 -409 317 -409 320 0 2 594 4 1320 4
l1320 0 0 -35z m-3320 -15 l0 -30 158 0 159 0 384 -296 c211 -163 389 -300
394 -305 10 -10 -2781 -4 -3712 7 l-473 6 0 48 c0 55 24 46 -217 76 -79 10
-143 21 -143 24 0 6 100 92 174 150 11 8 272 61 645 130 l626 116 3 47 3 47
327 3 c180 1 630 3 1000 5 l672 2 0 -30z m17170 -935 c0 -12 -19 -15 -110 -15
-60 0 -110 -4 -110 -9 0 -5 83 -135 185 -290 102 -155 185 -284 185 -286 0 -3
-17 -5 -37 -5 l-38 0 -169 261 -170 261 -68 34 -68 34 -500 0 c-275 0 -500 -4
-500 -8 0 -5 85 -138 190 -295 l189 -287 -42 0 -42 1 -169 260 -168 260 -69
34 -69 35 -305 0 -305 0 -86 -132 c-48 -73 -89 -138 -91 -145 -3 -6 53 -79
123 -160 l128 -148 -52 -3 -51 -3 -104 108 c-57 59 -172 180 -255 268 l-152
160 35 3 c34 3 35 5 35 43 l0 39 1330 0 c1176 0 1330 -2 1330 -15z m-3570 -35
c0 -29 2 -30 45 -30 30 0 45 -4 45 -12 -1 -7 -177 -115 -393 -240 l-392 -228
-142 0 c-136 0 -143 -1 -143 -20 0 -19 -14 -20 -2567 -13 -1413 3 -2569 6
-2570 7 -1 1 189 112 423 249 l424 247 65 0 65 0 0 35 0 35 2570 0 2570 0 0
-30z m-6045 -235 l-420 -245 -117 0 c-102 0 -118 2 -118 16 0 9 -11 29 -25 46
-25 29 -25 32 -25 206 0 167 1 177 22 199 l21 23 541 0 541 0 -420 -245z
m-4705 140 l0 -95 172 -2 172 -3 42 -105 42 -105 82 -55 83 -55 -484 -2 c-266
-2 -858 1 -1316 5 l-832 7 365 213 364 212 80 0 80 0 0 40 0 40 575 0 575 0 0
-95z m1270 -41 l0 -136 -272 4 c-256 4 -276 5 -314 26 -23 11 -44 28 -47 37
-6 13 15 15 163 15 l170 0 0 95 0 95 150 0 150 0 0 -136z m-3000 122 c0 -2
-175 -106 -388 -230 l-388 -226 -172 0 c-165 0 -172 -1 -172 -20 0 -20 -7 -20
-665 -20 l-665 0 0 95 0 95 -428 0 -428 0 -59 60 -59 60 -213 0 -213 0 0 90 0
90 1513 3 c831 1 1698 3 1925 5 226 1 412 0 412 -2z m12785 -196 c20 -8 294
-231 420 -342 5 -4 -243 -8 -550 -8 l-559 0 304 179 c176 103 316 179 332 180
15 1 39 -4 53 -9z m1350 -588 c16 -16 56 -36 87 -46 57 -17 61 -20 188 -176
71 -87 130 -161 130 -164 0 -3 -27 -6 -59 -6 l-60 0 -108 112 c-59 62 -150
157 -202 210 l-95 98 44 0 c34 0 51 -6 75 -28z m1038 14 c3 -8 30 -19 60 -26
l54 -11 138 -190 137 -191 -17 -59 -18 -59 -236 1 -236 1 -34 39 -33 39 191 0
c120 0 191 4 191 10 0 5 -62 106 -138 222 -76 117 -141 219 -146 226 -5 9 4
12 37 12 30 0 47 -5 50 -14z m-17913 -597 c824 -52 987 -64 997 -77 7 -9 12
-16 10 -17 -1 -1 -461 28 -1021 66 -859 57 -1022 70 -1035 84 -15 15 -13 15
24 11 22 -3 483 -33 1025 -67z m95 -119 c539 -35 959 -66 970 -72 11 -7 324
-29 737 -52 395 -23 722 -46 727 -51 11 -12 123 -326 118 -331 -2 -2 -111 3
-243 11 l-239 15 -80 85 -80 85 -220 0 -221 0 -42 -85 -42 -85 -79 0 -80 0
-27 85 -28 85 -226 0 -225 0 -21 -57 -20 -58 -122 -3 -122 -3 0 41 0 40 -120
0 -120 0 0 -40 0 -40 -319 0 -319 0 -12 34 c-9 27 -60 72 -268 236 -312 246
-290 227 -255 224 15 -2 456 -31 978 -64z"/>
</g>
</svg>
