<?xml version="1.0" standalone="no"?>
<!DOCTYPE svg PUBLIC "-//W3C//DTD SVG 20010904//EN"
 "http://www.w3.org/TR/2001/REC-SVG-20010904/DTD/svg10.dtd">
<svg version="1.0" xmlns="http://www.w3.org/2000/svg"
   viewBox="0 0 3648.000000 546.000000"
 preserveAspectRatio="xMidYMid meet">
<metadata>
Created by potrace 1.16, written by Peter Selinger 2001-2019
</metadata>
<g transform="translate(0.000000,546.000000) scale(0.100000,-0.100000)"
fill="#000000" stroke="none">
<path d="M6782 5416 l-22 -46 -473 0 -473 0 -29 30 c-32 33 -69 39 -101 15
-12 -9 -43 -14 -86 -15 l-66 0 -67 -72 -66 -73 96 -3 c52 -1 95 -5 95 -8 0 -3
-13 -36 -30 -74 -16 -38 -30 -84 -30 -104 l0 -36 -49 0 -49 0 14 52 c7 29 12
54 10 56 -2 1 -389 -55 -860 -127 l-857 -130 -74 -47 c-41 -25 -75 -48 -75
-50 0 -9 78 -42 215 -90 l150 -53 -75 -1 -75 0 -43 -85 -44 -85 -98 0 -98 0
-41 65 -41 65 -53 -29 c-28 -16 -216 -116 -417 -221 -201 -106 -367 -194 -369
-196 -1 -1 9 -19 24 -38 l27 -36 -124 0 -125 0 -223 -203 -222 -204 -876 -264
-876 -264 -103 -85 c-91 -75 -103 -89 -103 -117 l0 -32 78 -3 77 -3 51 -355
c39 -268 51 -372 47 -422 -5 -56 -3 -68 9 -68 10 0 18 -13 22 -38 9 -55 8 -62
-11 -62 -17 0 -18 -23 -18 -347 l0 -348 750 -53 c680 -48 759 -52 842 -42 50
7 96 9 102 6 6 -4 11 -21 11 -38 l0 -31 88 6 c48 3 129 13 179 23 l93 17 0 58
c0 41 4 59 13 59 47 0 243 -44 352 -79 107 -34 155 -43 268 -53 75 -6 137 -15
137 -20 0 -4 205 -8 455 -8 l455 0 0 -63 c0 -61 1 -64 43 -105 l43 -42 629 -1
630 0 459 -450 458 -449 498 0 498 0 202 210 202 210 439 0 438 0 38 -45 37
-45 837 0 837 0 36 45 37 45 173 0 173 0 97 116 96 116 0 149 0 149 63 0 63 0
18 -70 18 -70 75 0 c83 0 78 -7 57 68 -5 17 -2 22 14 22 15 0 22 -10 31 -45
l11 -45 76 0 c68 0 75 2 69 18 -3 9 -9 29 -12 45 -5 23 -2 27 16 27 17 0 24
-10 33 -45 l12 -45 74 0 75 0 -6 28 c-3 15 -9 35 -12 45 -7 16 13 17 336 17
l344 0 17 30 17 30 419 0 420 0 112 50 c62 28 121 50 133 50 33 0 114 -58 250
-181 l129 -116 292 -6 c160 -4 348 -7 418 -7 118 0 127 -1 133 -20 5 -16 15
-20 50 -20 39 0 49 -5 87 -46 37 -39 51 -47 91 -51 31 -4 47 -10 47 -19 0 -11
25 -14 120 -14 l121 0 28 -63 c25 -56 26 -62 10 -65 -15 -3 -15 -8 9 -63 20
-46 30 -59 47 -59 18 0 29 -16 59 -82 36 -81 39 -84 132 -150 76 -55 102 -68
132 -68 34 0 39 4 50 33 15 42 15 45 -2 49 -9 2 39 119 165 398 131 288 179
405 179 432 0 33 -14 56 -116 184 -105 132 -115 149 -106 169 13 28 18 24
-236 159 -162 86 -163 86 -236 86 l-74 0 -15 42 c-8 24 -58 167 -112 318 -53
151 -99 278 -104 282 -4 5 -855 73 -1891 153 -1037 79 -1896 146 -1910 148
-14 2 74 5 195 6 l221 1 64 65 64 65 438 0 438 0 0 105 0 105 690 0 690 0 0
-30 0 -30 245 0 245 0 0 40 0 40 1953 0 1952 0 92 -75 91 -75 374 0 374 0 39
40 39 40 163 0 163 0 36 -40 36 -40 516 0 515 0 98 80 c54 44 100 80 103 80 4
0 6 -18 6 -40 l0 -40 210 0 210 0 0 38 0 39 992 6 c545 4 1805 7 2800 7 l1808
0 0 -30 0 -30 195 0 195 0 0 35 0 35 683 0 c375 0 745 3 822 6 l140 6 474
-401 475 -401 1470 0 1471 1 225 174 225 174 146 1 146 0 29 65 29 64 298 1
297 0 -5 23 c-5 24 -135 922 -135 936 0 4 -51 47 -114 95 l-114 86 -636 0
c-510 0 -636 -3 -636 -13 0 -18 358 -699 372 -708 6 -4 48 -17 92 -29 l82 -22
87 -158 c48 -87 87 -161 87 -164 0 -3 -29 -6 -65 -6 l-66 0 -219 -150 -220
-150 -514 0 -514 0 -36 43 -35 42 255 3 c139 1 254 5 254 8 0 4 -70 113 -155
244 l-155 237 0 64 0 64 30 -45 c28 -44 33 -47 120 -70 l91 -25 161 -237 161
-238 158 0 159 0 165 83 c139 69 165 85 163 102 -2 11 -122 251 -267 533
l-263 512 -73 40 c-70 39 -75 40 -168 40 -53 0 -98 4 -101 8 -5 8 1142 22
1782 22 l272 0 0 -37 c0 -29 10 -47 50 -94 28 -32 50 -60 50 -63 0 -3 -27 -6
-60 -6 l-60 0 0 -32 c1 -18 18 -159 38 -313 l37 -280 35 -17 c19 -10 39 -19
44 -21 5 -2 23 -68 40 -147 l32 -145 281 -3 281 -2 336 396 336 396 0 84 0 84
-415 2 -415 3 55 62 c44 49 55 68 55 96 l0 34 77 7 c42 3 370 6 730 6 l653 0
0 84 0 84 -122 6 c-211 9 -3892 26 -5690 26 l-1718 0 0 35 0 35 -227 0 -228 0
-489 378 -489 377 102 3 101 3 0 134 0 135 -170 0 c-163 0 -170 1 -170 20 0
19 -7 20 -195 20 -123 0 -195 -4 -195 -10 0 -7 -940 -10 -2800 -10 l-2800 0 0
25 0 25 -220 0 c-213 0 -220 -1 -220 -20 0 -20 -7 -20 -1540 -20 l-1540 0 0
35 0 35 -255 0 -255 0 0 -25 0 -25 -1460 0 -1460 0 0 30 0 30 -260 0 c-224 0
-260 -2 -260 -15 0 -18 -193 -19 -1348 -8 l-722 6 0 31 0 32 -1012 77 c-557
43 -1030 80 -1050 83 -37 6 -38 7 -38 45 l0 39 -369 0 -368 0 -9 -32 c-7 -25
-16 -34 -35 -36 -20 -2 -27 3 -37 33 l-13 35 -1028 0 c-566 0 -1041 3 -1057 6
-27 5 -31 2 -52 -40z m20208 -666 l0 -30 125 0 125 0 451 -347 450 -348 -70
-3 c-63 -3 -71 -5 -71 -22 0 -20 -27 -20 -2660 -20 l-2660 0 0 25 c0 25 0 25
-96 25 l-95 0 -471 363 -470 362 99 3 c153 5 3078 18 4271 20 l1072 2 0 -30z
m-6040 -25 l0 -25 138 0 139 0 449 -346 c247 -191 453 -350 459 -355 5 -5
-218 -9 -533 -9 -442 0 -542 2 -542 13 0 7 -70 70 -156 140 l-156 127 -513 0
-513 0 -32 -40 -32 -40 -172 0 -173 0 -32 40 -32 40 -297 0 -297 0 -300 231
c-165 127 -304 235 -309 240 -6 5 569 9 1447 9 l1457 0 0 -25z m-3590 -25 l0
-40 160 0 159 0 333 -256 c183 -141 334 -258 335 -259 2 -1 -34 -31 -80 -68
l-82 -67 -157 0 -158 0 0 90 0 90 -500 0 -500 0 0 -90 0 -90 -595 0 -595 0 0
30 0 30 -100 0 -100 0 -418 322 c-229 176 -424 327 -432 335 -12 11 207 13
1358 13 l1372 0 0 -40z m-3440 -10 l0 -30 163 0 162 0 230 -178 c127 -98 312
-241 412 -319 l183 -141 -508 4 c-279 2 -1257 7 -2174 10 l-1668 6 0 53 0 52
-87 12 c-49 6 -132 16 -185 23 -54 7 -98 15 -98 19 0 6 116 106 181 157 12 9
1281 252 1316 252 2 0 3 22 3 50 l0 50 563 3 c309 1 775 3 1035 5 l472 2 0
-30z m17780 -970 c0 -6 -45 -10 -115 -10 -85 0 -115 -3 -115 -12 0 -7 88 -146
195 -308 l194 -295 -30 -3 c-17 -2 -37 -1 -43 1 -7 3 -91 125 -186 272 l-173
266 -78 40 -79 39 -511 0 c-482 0 -511 -1 -507 -17 3 -10 91 -148 197 -308
l191 -290 -31 -3 c-17 -2 -37 -1 -43 1 -7 3 -91 125 -186 272 l-173 266 -78
40 -79 39 -307 0 -308 0 -92 -143 c-51 -79 -93 -150 -93 -158 0 -8 57 -79 125
-159 l125 -145 -53 -3 -52 -4 -100 105 c-55 57 -174 181 -264 275 l-163 172
41 0 41 0 0 40 0 40 1375 0 c910 0 1375 -3 1375 -10z m-3700 -40 c0 -29 1 -30
51 -30 33 0 49 -4 47 -11 -2 -6 -188 -119 -412 -250 l-408 -239 -149 0 c-135
0 -149 -2 -149 -17 0 -17 -94 -18 -1867 -15 -1028 2 -2220 6 -2651 10 l-784 7
433 253 433 252 68 0 68 0 0 35 0 35 2660 0 2660 0 0 -30z m-5821 15 c-3 -2
-198 -117 -434 -255 l-429 -250 -128 0 c-110 0 -128 2 -128 16 0 8 -11 30 -25
48 -24 32 -25 37 -25 206 0 170 0 174 26 207 l25 33 561 0 c309 0 559 -2 557
-5z m-5309 -110 l0 -95 178 0 177 0 44 -113 45 -113 85 -57 86 -57 -1369 0
c-753 0 -1367 2 -1365 4 2 2 175 103 385 225 l380 221 82 0 82 0 0 40 0 40
595 0 595 0 0 -95z m1320 -46 l0 -142 -277 5 c-254 4 -282 6 -325 25 -25 12
-51 31 -57 42 -12 21 -11 21 164 21 l175 0 0 95 0 95 160 0 160 0 0 -141z
m-3125 118 c-11 -8 -191 -114 -401 -235 l-380 -222 -182 0 c-175 0 -182 -1
-182 -20 0 -20 -7 -20 -690 -20 l-690 0 0 95 0 95 -443 0 -443 0 -64 65 -64
65 -213 0 -213 0 0 90 0 90 1168 3 c642 1 1538 3 1992 5 694 2 821 0 805 -11z
m13276 -201 c9 -6 107 -87 217 -181 l202 -170 -284 -3 c-157 -1 -416 -1 -576
0 l-291 3 318 187 c301 177 320 187 358 181 22 -3 47 -11 56 -17z m1367 -594
c14 -19 41 -34 90 -50 l71 -23 136 -167 136 -167 -63 -3 -63 -4 -178 184 c-97
101 -191 200 -208 221 l-31 37 45 0 c38 0 49 -4 65 -28z m1081 9 c7 -13 27
-21 61 -26 59 -8 45 7 224 -240 l123 -170 -23 -60 -22 -60 -238 -2 -239 -1
-39 44 -39 44 202 0 c110 0 201 3 201 6 0 3 -55 90 -122 192 -66 103 -136 211
-155 240 l-34 52 45 0 c34 0 48 -5 55 -19z m-18564 -617 c884 -56 1042 -68
1052 -82 7 -8 12 -16 10 -17 -1 -1 -456 29 -1012 66 -555 37 -1028 68 -1051
68 -43 1 -99 30 -59 31 11 0 488 -29 1060 -66z m161 -129 c538 -35 959 -67
970 -73 11 -7 330 -28 764 -53 410 -23 745 -42 746 -43 0 0 29 -81 62 -179
l62 -179 -47 6 c-27 3 -141 11 -255 17 l-206 12 -82 89 -81 88 -228 0 -227 0
-44 -90 -44 -90 -82 0 -82 0 -29 88 -30 87 -233 0 -233 0 -22 -60 -23 -60
-126 -3 -126 -3 0 46 0 45 -125 0 -125 0 0 -45 0 -45 -328 0 -329 0 -11 38
c-9 29 -30 51 -94 102 -46 36 -172 135 -281 222 l-198 157 68 -5 c37 -3 496
-34 1019 -69z"/>
</g>
</svg>
