<?xml version="1.0" standalone="no"?>
<!DOCTYPE svg PUBLIC "-//W3C//DTD SVG 20010904//EN"
 "http://www.w3.org/TR/2001/REC-SVG-20010904/DTD/svg10.dtd">
<svg version="1.0" xmlns="http://www.w3.org/2000/svg"
   viewBox="0 0 4597.000000 2103.000000"
 preserveAspectRatio="xMidYMid meet">
<metadata>
Created by potrace 1.16, written by Peter Selinger 2001-2019
</metadata>
<g transform="translate(0.000000,2103.000000) scale(0.100000,-0.100000)"
fill="#000000" stroke="none">
<path d="M31570 20861 c-393 -92 -721 -170 -729 -172 -8 -3 -70 -135 -136
-295 l-122 -289 -87 -3 -86 -3 0 104 0 103 -63 51 c-34 27 -72 55 -82 62 -16
9 -234 -12 -1010 -97 l-990 -108 -3 -194 c-2 -107 2 -346 8 -530 11 -298 9
-409 -10 -1005 -20 -597 -23 -986 -10 -998 3 -3 451 -70 995 -151 545 -81 998
-148 1007 -150 13 -3 31 21 72 93 30 54 60 110 65 124 10 26 13 27 92 27 l81
0 120 -247 c66 -137 121 -249 122 -250 1 -1 339 -58 750 -127 411 -69 749
-126 751 -128 1 -2 5 -114 9 -249 l7 -246 -50 -33 -51 -32 0 -293 0 -293 105
-122 105 -121 0 -231 0 -231 -52 -69 c-63 -86 -66 -102 -68 -348 -1 -102 -5
-230 -9 -285 l-6 -100 -275 -392 -274 -393 -1277 0 -1276 0 -72 80 c-51 57
-79 80 -96 80 -54 0 -55 3 -55 131 0 65 -1 119 -3 119 -2 0 -289 54 -638 120
-349 66 -637 120 -641 120 -4 0 -5 13 -2 28 l6 28 -294 53 c-161 29 -302 54
-313 57 -19 5 -24 -8 -59 -139 l-38 -144 -66 13 c-37 7 -163 29 -279 51 l-213
38 0 32 0 33 -122 0 -123 0 -46 78 -45 77 -203 -4 -202 -4 -37 36 c-30 28 -48
36 -92 42 -44 6 -84 24 -206 96 l-151 89 -941 230 c-517 127 -948 230 -956
230 -8 0 -28 -11 -44 -25 -30 -25 -30 -25 -246 -25 l-216 0 -10 26 c-6 14 -10
41 -10 60 l0 34 -299 0 -299 0 -61 173 c-34 94 -86 238 -114 319 l-52 148
-140 0 -141 0 -12 48 c-7 26 -17 64 -23 85 l-10 37 -1652 -2 -1651 -3 -148
-379 c-81 -209 -149 -380 -150 -381 -2 -1 -1088 -5 -2413 -9 l-2411 -7 -29 91
-29 90 -708 0 -708 0 0 -131 0 -131 -242 6 c-134 3 -533 7 -887 8 l-644 3
-111 -162 -111 -163 -792 0 -793 0 -163 -82 -164 -81 -6 -345 c-4 -190 -7
-425 -7 -522 l0 -176 -107 -46 c-60 -25 -465 -200 -902 -387 l-794 -341 -148
-145 -148 -145 -2855 0 -2856 0 0 -170 c0 -107 4 -170 10 -170 7 0 10 -665 10
-1975 l0 -1975 375 0 375 0 0 -238 c0 -216 2 -244 21 -303 12 -35 26 -68 30
-74 5 -5 9 -89 9 -187 l0 -178 1678 0 1677 0 265 45 265 45 704 294 704 293
85 -19 86 -19 110 110 111 111 175 -40 174 -40 97 96 97 97 333 -56 c310 -52
360 -58 697 -79 199 -12 366 -25 371 -28 4 -3 40 -156 80 -340 40 -184 102
-451 138 -593 l66 -257 152 0 151 0 49 -50 49 -50 597 0 597 0 31 55 c17 30
32 55 34 55 27 4 826 29 910 30 l117 0 110 55 110 55 0 425 c0 398 1 425 18
425 9 0 224 -9 476 -21 l459 -22 263 58 263 59 114 -27 c63 -15 124 -27 135
-27 27 0 3045 490 3050 495 2 2 17 75 34 162 16 86 30 158 31 159 1 0 55 31
121 69 l118 68 4057 38 c2231 20 4237 39 4459 41 l403 4 -1 -590 c0 -325 0
-679 0 -786 l0 -195 104 -52 104 -52 23 25 c12 13 27 24 32 24 6 0 332 -113
725 -250 394 -138 721 -249 727 -247 6 3 18 29 27 58 9 30 31 100 48 157 l32
103 105 -3 106 -3 49 -92 50 -93 54 0 54 0 0 -37 c0 -21 3 -62 6 -90 l7 -53
333 0 333 0 51 68 c29 37 57 70 63 73 7 4 56 10 109 13 96 7 97 7 102 -16 3
-13 28 -293 56 -623 l51 -599 57 -67 c31 -36 147 -170 257 -297 l200 -232 345
0 345 -1 283 -422 282 -422 0 -291 c0 -160 -3 -386 -7 -502 l-6 -211 -96 5
c-53 2 -128 7 -168 10 l-72 6 2 323 c1 178 -1 326 -5 330 -8 9 -7408 -13
-8159 -24 l-467 -6 252 -477 251 -477 449 -463 450 -463 585 -409 584 -408
851 -295 851 -295 1048 -154 1047 -153 1111 29 c611 15 1114 31 1117 35 4 4 9
291 11 639 l3 633 91 7 c49 3 130 6 179 6 l88 0 0 -90 0 -90 805 0 805 0 0 95
0 95 58 0 c33 0 107 -3 165 -7 l107 -6 0 -523 0 -522 38 -6 c20 -3 523 -47
1117 -98 l1080 -92 1040 92 1040 93 864 295 863 296 597 414 596 413 450 461
450 461 257 477 256 477 -1166 8 c-642 4 -2585 16 -4319 25 l-3152 17 -5 -29
c-3 -16 -6 -165 -6 -331 l0 -302 -67 -6 c-38 -4 -121 -7 -185 -7 l-118 0 0 98
c0 53 -9 497 -20 987 -17 755 -19 968 -10 1405 5 283 10 998 10 1588 l0 1072
50 0 50 0 0 798 c0 596 -4 850 -15 1007 -10 138 -15 374 -15 690 l0 480 106
268 105 267 548 0 c301 0 1182 -3 1958 -7 l1411 -6 -31 -50 c-23 -38 -27 -51
-17 -57 11 -7 11 -11 1 -24 -8 -9 -21 -16 -31 -16 -22 0 -46 -50 -29 -60 17
-11 -7 -50 -31 -50 -10 0 -23 -6 -27 -13 -9 -16 -187 -47 -268 -47 l-55 0 0
-229 0 -229 48 5 c26 3 60 11 76 19 33 16 126 19 126 4 0 -5 25 -10 55 -10 48
0 55 -2 55 -20 0 -19 7 -20 149 -20 137 0 150 2 156 19 5 17 27 18 337 25
l332 8 26 -33 27 -32 54 13 c104 24 99 10 99 248 0 114 -4 213 -8 220 -5 7
-38 21 -75 31 l-66 19 -30 -34 -30 -34 -330 0 c-362 0 -358 -1 -326 61 14 26
14 29 0 29 -18 0 -19 5 -5 31 6 10 19 19 29 19 24 0 58 49 42 60 -17 10 -2 40
19 40 12 0 31 20 52 55 l33 54 731 1 731 0 11 -25 12 -25 290 0 290 0 12 25
11 25 384 0 c210 0 383 -3 383 -7 0 -3 -12 -26 -26 -51 -18 -31 -23 -47 -15
-52 17 -10 2 -40 -20 -40 -10 0 -25 -10 -33 -22 -20 -28 -20 -38 -1 -38 14 0
13 -3 -1 -25 -9 -14 -25 -25 -35 -25 -10 0 -22 -6 -26 -13 -9 -16 -187 -47
-268 -47 l-55 0 0 -229 0 -230 38 5 c85 11 102 15 102 24 0 6 25 10 55 10 30
0 55 -4 55 -10 0 -5 25 -10 55 -10 48 0 55 -2 55 -20 0 -19 7 -20 151 -20 138
0 151 2 156 19 4 17 25 19 335 25 l330 8 33 -32 32 -31 64 16 c35 9 67 22 71
28 10 16 10 419 0 435 -5 7 -38 21 -75 31 l-67 20 -26 -35 -26 -34 -333 0
c-309 0 -334 1 -338 18 -2 9 3 29 10 45 12 23 12 27 -2 27 -18 0 -19 5 -5 31
6 10 19 19 30 19 25 0 59 48 41 59 -17 11 -3 39 22 43 13 2 32 22 52 55 l30
53 353 0 354 0 11 -30 11 -30 262 0 262 0 11 30 10 30 212 0 211 0 90 41 c86
38 118 43 118 18 0 -19 21 -6 231 142 l201 141 47 -46 47 -46 582 0 582 0 12
-25 c11 -25 13 -25 128 -25 111 0 118 1 140 25 20 21 32 25 84 25 56 0 67 4
127 44 l66 44 519 5 519 5 255 49 254 48 93 165 93 165 0 277 0 276 -121 114
c-67 62 -126 113 -133 113 -6 0 -20 14 -31 31 -17 26 -36 37 -120 64 -97 31
-101 32 -150 18 l-50 -15 -72 62 -73 62 -461 6 -462 7 -47 30 -47 30 -384 0
-385 0 -39 -40 -39 -40 -137 0 -137 0 -7 -40 -7 -40 -87 0 -86 0 -96 -97 c-53
-54 -99 -105 -102 -114 -7 -22 -457 -223 -471 -209 -5 5 -29 10 -53 10 -38 0
-43 -3 -49 -27 l-7 -26 -332 6 -332 6 -79 46 c-65 37 -88 45 -130 45 -45 0
-59 -6 -122 -50 l-71 -50 -307 0 -306 0 -56 50 c-54 48 -58 50 -115 50 -55 0
-64 -3 -128 -50 l-69 -50 -301 0 -300 0 -70 45 c-65 42 -74 45 -135 45 -61 0
-72 -3 -140 -46 l-74 -46 -328 16 c-180 9 -337 16 -349 16 -22 0 -23 4 -23 70
l0 70 -238 0 -238 0 -46 48 c-26 26 -48 58 -50 72 l-3 25 -254 3 c-218 2 -255
0 -265 -13 -9 -13 -47 -15 -276 -13 l-264 3 -17 45 -17 45 -461 3 c-453 2
-461 3 -461 22 0 19 -7 20 -220 20 l-220 0 0 55 0 55 -780 0 -780 0 0 -85 0
-85 -165 0 -165 0 0 -45 0 -45 -120 0 c-67 0 -120 4 -120 9 0 5 58 157 130
338 l130 328 0 440 -1 440 -64 70 -65 70 0 131 c0 72 -3 178 -6 235 l-7 105
112 121 111 122 0 293 -1 293 -43 32 -43 31 -5 239 c-3 131 -5 239 -3 241 1 1
57 -3 124 -9 66 -7 123 -10 125 -8 2 2 6 988 9 2190 l5 2186 -411 6 c-227 4
-545 7 -707 6 l-295 -1 -715 -167z m7563 -8712 c78 -51 81 -51 138 -45 45 4
74 16 131 51 l72 45 300 0 299 0 69 -50 c63 -46 73 -50 125 -50 52 0 62 4 113
45 l57 44 310 7 309 7 64 -46 c60 -44 68 -47 127 -47 57 0 69 4 135 45 l73 45
230 -5 c127 -3 298 -10 382 -17 l152 -11 36 -37 36 -37 -176 -122 c-174 -121
-175 -122 -175 -159 0 -37 -2 -38 -75 -75 l-75 -37 -215 0 -215 0 -12 25 -11
25 -263 0 -264 0 -6 -25 -6 -25 -924 0 -924 0 -10 25 -10 25 -290 0 -290 0
-13 -27 -12 -26 -2844 6 c-1565 4 -2846 9 -2848 11 -2 2 6 28 18 60 l22 56
1063 0 c939 0 1064 -2 1064 -15 0 -13 39 -15 294 -15 l294 0 36 45 37 45 1465
0 1464 0 0 140 c0 126 2 140 18 141 162 8 550 26 591 27 49 2 61 -3 134 -49z
m-9820 -811 c188 -139 386 -285 440 -325 l98 -73 -225 0 -226 0 0 -283 0 -283
-182 -54 c-101 -29 -186 -57 -189 -62 -3 -4 -32 -83 -64 -176 -32 -92 -61
-171 -65 -175 -4 -4 -57 -4 -119 -1 l-112 7 -55 109 -54 108 -118 0 c-64 0
-215 -3 -334 -7 l-218 -6 0 -109 0 -108 -27 0 c-16 0 -44 -3 -65 -6 -35 -6
-37 -9 -80 -110 l-43 -104 -71 0 c-60 0 -72 3 -76 18 -3 9 -38 97 -77 194
l-73 177 -588 -199 -588 -198 -4738 -35 -4738 -34 -1986 35 c-1092 19 -1985
35 -1986 36 -3 6 28 1092 32 1096 3 3 918 6 2032 8 l2027 3 491 167 492 167
27 96 28 96 636 6 c350 4 787 7 971 7 l335 0 69 115 68 115 2612 0 c1436 0
2790 -3 3009 -7 l397 -6 0 -170 0 -169 208 6 c114 4 592 13 1062 21 470 8 955
17 1078 21 l222 6 0 169 0 169 211 0 210 0 342 -252z m1277 247 c0 -2 -25 -40
-57 -85 -56 -79 -56 -80 -100 -80 -38 0 -62 11 -171 81 -70 45 -129 83 -131
85 -2 2 100 4 227 4 128 0 232 -2 232 -5z m2110 -9500 l0 -315 -45 0 -45 0 0
193 c0 107 -3 249 -7 315 l-6 122 51 0 52 0 0 -315z m-2180 -5 l0 -310 -55 0
-55 0 0 228 c0 126 3 263 6 305 l7 76 46 4 c25 2 47 4 49 5 1 1 2 -137 2 -308z"/>
</g>
</svg>
