<?xml version="1.0" standalone="no"?>
<!DOCTYPE svg PUBLIC "-//W3C//DTD SVG 20010904//EN"
 "http://www.w3.org/TR/2001/REC-SVG-20010904/DTD/svg10.dtd">
<svg version="1.0" xmlns="http://www.w3.org/2000/svg"
   viewBox="0 0 4519.000000 2068.000000"
 preserveAspectRatio="xMidYMid meet">
<metadata>
Created by potrace 1.16, written by Peter Selinger 2001-2019
</metadata>
<g transform="translate(0.000000,2068.000000) scale(0.100000,-0.100000)"
fill="#000000" stroke="none">
<path d="M31135 20534 c-335 -79 -659 -155 -720 -169 l-110 -26 -120 -289
-120 -290 -82 0 -83 0 -1 103 0 102 -77 61 -77 62 -980 -107 -980 -106 -3
-120 c-2 -66 2 -300 9 -519 11 -366 11 -460 -10 -1120 -19 -627 -21 -926 -4
-926 2 0 443 -65 980 -145 537 -80 983 -145 991 -143 17 3 131 195 132 221 0
15 11 17 83 17 l83 0 119 -245 c90 -187 123 -247 139 -250 12 -3 342 -58 734
-123 391 -65 715 -122 720 -126 4 -4 8 -115 10 -246 l3 -238 -46 -32 -45 -31
0 -290 0 -291 100 -116 100 -117 0 -229 0 -228 -52 -72 -53 -71 -6 -140 c-4
-77 -7 -219 -8 -315 l-2 -175 -273 -390 -272 -390 -1256 -3 -1257 -2 -67 75
c-56 61 -76 76 -109 83 l-40 8 -3 117 c-3 111 -4 117 -25 122 -12 3 -272 52
-577 110 -739 140 -660 121 -660 153 l0 27 -299 53 c-165 30 -304 51 -309 48
-5 -3 -24 -64 -43 -136 -24 -95 -37 -130 -49 -130 -8 0 -133 21 -277 47 l-263
47 0 33 0 33 -119 0 -119 0 -44 75 -43 75 -205 0 -205 0 -28 35 c-25 32 -32
35 -80 35 -49 0 -66 7 -206 90 l-153 91 -936 228 -936 229 -29 -24 c-28 -24
-31 -24 -247 -24 l-218 0 -11 31 c-6 18 -11 42 -11 55 l0 24 -291 2 -292 3
-111 312 -111 313 -137 0 -137 0 -15 55 c-9 30 -19 68 -22 85 l-7 30 -1624 -2
-1625 -3 -147 -377 -146 -378 -1456 0 c-801 0 -1868 -3 -2372 -7 l-916 -6 -27
91 -28 92 -698 0 -698 0 0 -127 0 -126 -869 6 -870 7 -108 -160 -108 -159
-777 -1 -778 0 -163 -82 -164 -81 -6 -321 c-4 -177 -7 -407 -7 -512 l0 -190
-272 -119 c-150 -65 -548 -236 -885 -380 l-612 -262 -146 -141 -145 -142
-2810 0 -2810 0 0 -170 c0 -107 4 -170 10 -170 7 0 10 -655 10 -1945 l0 -1945
370 0 370 0 0 -235 c0 -214 2 -239 21 -292 12 -32 25 -62 30 -68 5 -5 9 -89 9
-187 l0 -178 1630 0 1631 0 277 46 277 47 693 289 693 289 82 -19 82 -19 110
108 110 109 175 -39 174 -39 91 95 90 95 305 -52 c278 -47 339 -54 694 -79
l390 -26 77 -355 c42 -195 104 -458 137 -585 l59 -230 146 0 146 0 48 -48 49
-47 591 0 591 0 28 48 c15 26 28 49 30 51 5 6 695 30 871 30 l143 1 105 52
105 53 0 422 0 423 83 -6 c45 -3 257 -14 472 -24 l389 -18 257 58 257 58 118
-28 119 -29 1485 240 c817 132 1494 241 1505 244 18 4 24 23 48 156 15 83 30
155 32 159 3 5 57 38 120 75 l115 67 4142 39 c2279 21 4253 39 4387 39 l244 0
-7 -704 c-4 -387 -4 -733 0 -770 l7 -67 97 -49 97 -49 25 25 25 26 717 -252
c395 -138 721 -248 724 -245 4 3 27 75 53 158 l46 152 104 3 104 3 48 -96 47
-95 55 0 55 0 0 -47 c0 -27 3 -65 6 -85 l7 -38 331 0 331 1 50 68 50 69 103 7
c57 3 105 5 106 3 2 -2 26 -277 55 -612 l53 -610 256 -294 255 -295 334 5 333
6 280 -417 280 -416 0 -401 c0 -220 -3 -442 -6 -492 l-7 -92 -57 0 c-31 0
-105 3 -164 7 l-107 6 2 324 c1 178 0 325 -2 326 -2 2 -998 0 -2214 -5 -1215
-5 -3124 -12 -4242 -16 l-2031 -7 246 -469 246 -469 445 -459 444 -459 556
-388 c306 -213 567 -395 581 -404 14 -9 399 -145 855 -303 l830 -287 1029
-151 1028 -151 1097 28 c602 16 1097 29 1098 30 1 1 5 287 9 635 l7 632 174 0
173 0 0 -90 0 -90 790 0 790 0 0 95 0 95 78 0 c42 0 114 -3 160 -7 l82 -6 0
-513 0 -512 38 -6 c20 -3 516 -47 1102 -97 l1065 -91 1025 91 1024 92 806 275
c443 152 826 284 851 294 25 9 307 198 625 419 l579 401 445 455 445 455 252
468 c138 257 250 468 249 470 -2 2 -5848 35 -7786 44 l-705 3 -3 -326 -2 -326
-176 -8 c-96 -4 -178 -4 -181 -1 -3 2 -13 368 -23 812 -16 691 -17 1054 -13
2525 l6 1719 54 0 53 0 0 728 c0 617 -3 772 -20 1027 -15 225 -20 409 -20 734
l0 435 106 268 106 268 522 0 c286 0 1152 -3 1923 -7 l1403 -6 -31 -54 c-24
-42 -27 -53 -15 -53 14 0 14 -3 4 -20 -7 -11 -21 -20 -30 -20 -10 0 -24 -13
-33 -30 -14 -27 -14 -30 0 -30 13 0 14 -4 5 -20 -6 -11 -19 -20 -30 -20 -10 0
-23 -7 -28 -16 -12 -21 -131 -43 -239 -43 l-83 -1 0 -229 0 -229 48 5 c26 3
60 11 76 19 34 16 112 19 121 4 3 -5 28 -10 55 -10 40 0 50 -4 55 -20 6 -19
15 -20 150 -20 131 0 144 2 149 18 6 18 28 19 328 26 l321 7 33 -32 33 -32 66
18 c40 10 69 25 75 36 6 10 10 105 10 212 0 221 4 210 -89 239 l-56 17 -30
-29 -31 -30 -326 0 c-293 0 -326 2 -332 16 -4 9 0 27 9 40 19 29 19 34 0 34
-13 0 -14 4 -5 20 6 11 19 20 30 20 22 0 57 56 39 62 -17 6 1 38 22 38 11 0
30 20 51 55 l33 55 716 0 716 0 11 -25 12 -25 285 0 285 0 12 25 11 25 379 0
c208 0 378 -3 378 -7 0 -3 -12 -26 -26 -51 -18 -31 -23 -47 -15 -52 17 -10 2
-40 -19 -40 -10 0 -25 -11 -34 -25 -20 -30 -20 -35 -1 -35 13 0 13 -3 3 -20
-7 -11 -19 -20 -27 -20 -8 0 -24 -8 -35 -19 -25 -22 -135 -41 -239 -41 l-74 0
-6 -227 c-3 -126 -4 -229 -4 -229 9 -6 132 17 135 25 5 14 112 15 112 1 0 -5
24 -10 54 -10 45 0 54 -3 59 -20 5 -19 14 -20 150 -20 132 0 145 2 149 18 5
18 26 19 328 26 l323 7 32 -31 32 -31 64 16 c35 9 67 22 71 28 4 7 8 105 8
218 0 154 -3 209 -12 216 -7 5 -40 17 -73 26 l-60 17 -23 -30 -23 -30 -330 0
c-362 0 -356 -1 -324 59 14 29 14 31 -1 31 -11 0 -14 5 -10 16 3 9 6 18 6 20
0 2 10 4 23 4 15 0 29 11 40 30 16 27 16 30 2 30 -13 0 -14 4 -5 20 6 11 18
20 28 20 10 0 31 22 50 55 l33 55 345 0 346 0 11 -30 11 -30 257 0 257 0 12
30 12 30 210 0 210 0 90 41 c89 39 91 40 104 20 14 -19 23 -13 220 125 l207
146 46 -46 47 -46 572 0 c561 0 572 0 584 -20 12 -18 24 -20 129 -20 103 0
118 2 134 20 14 16 31 20 81 20 58 0 68 3 126 44 l63 44 495 4 495 4 268 49
268 49 89 161 90 160 0 272 0 271 -115 113 c-64 62 -123 114 -133 115 -9 2
-18 8 -20 13 -10 30 -46 52 -135 81 -95 31 -98 31 -144 16 l-46 -16 -68 61
-69 61 -459 7 -458 7 -36 27 -36 27 -388 0 -389 0 -34 -35 -34 -35 -137 0
-138 0 -3 -37 -3 -38 -84 -3 -85 -3 -95 -92 c-53 -51 -98 -100 -101 -110 -4
-13 -73 -50 -222 -117 -217 -98 -217 -98 -281 -93 -63 5 -65 5 -69 -18 l-3
-24 -323 4 -324 3 -76 44 c-65 37 -85 44 -132 44 -49 0 -63 -5 -121 -44 l-66
-44 -305 -3 -306 -4 -56 53 c-51 48 -58 52 -105 52 -43 0 -59 -7 -123 -50
l-73 -50 -299 0 -298 0 -72 45 c-63 39 -80 45 -128 45 -48 0 -63 -6 -128 -47
l-73 -47 -81 3 c-208 6 -597 29 -603 35 -4 3 -9 33 -11 65 l-4 58 -231 6 -231
7 -48 47 c-30 29 -48 56 -48 70 l0 23 -254 0 c-218 0 -255 -2 -260 -15 -5 -13
-41 -15 -268 -13 l-262 3 -17 45 -17 45 -456 3 c-448 2 -456 3 -456 22 0 19
-7 20 -215 20 l-215 0 0 55 0 55 -765 0 -765 0 0 -85 0 -85 -160 0 -160 0 0
-45 0 -45 -124 0 -125 0 14 34 c8 18 68 171 135 339 l120 305 0 422 0 422 -61
66 c-34 37 -65 77 -70 90 -5 13 -9 121 -9 240 l0 217 105 115 104 115 1 291 0
291 -45 32 -45 32 0 236 0 236 58 -7 c31 -3 87 -9 123 -12 l66 -6 6 2153 c3
1184 5 2154 4 2155 -1 1 -312 3 -692 6 l-690 5 -610 -143z m7332 -8584 c68
-44 85 -50 130 -50 45 0 64 7 129 47 l77 46 293 5 292 5 71 -52 c66 -47 75
-51 128 -51 53 0 63 4 113 43 l55 44 304 6 303 7 63 -45 c58 -42 67 -45 125
-45 56 0 70 5 134 43 l71 43 325 -8 c179 -5 329 -13 334 -19 6 -5 28 -9 51 -9
34 0 47 -6 76 -36 28 -29 31 -37 19 -44 -8 -5 -85 -57 -170 -117 -152 -107
-155 -110 -154 -145 1 -34 -1 -36 -83 -77 l-83 -41 -204 0 -204 0 -12 30 -12
30 -257 0 -257 0 -11 -30 -11 -30 -905 0 -904 0 -11 25 -12 25 -285 0 -285 0
-12 -25 -11 -25 -1821 5 c-2643 7 -3778 14 -3774 23 2 4 12 31 22 60 l20 52
1043 0 1043 0 0 -21 c0 -20 2 -20 289 -17 l290 3 36 43 37 42 1437 0 1438 0 5
135 c3 75 7 138 10 140 2 2 139 10 303 18 165 8 308 15 317 16 9 0 52 -21 95
-49z m-9558 -867 l431 -318 -215 -3 -215 -2 0 -278 0 -278 -182 -54 c-101 -29
-186 -58 -189 -62 -3 -5 -32 -85 -65 -178 l-59 -170 -112 0 -113 0 -55 110
-55 110 -233 0 c-127 0 -276 -3 -329 -7 l-98 -6 0 -102 0 -102 -31 -7 c-17 -3
-46 -6 -63 -6 -30 0 -32 -4 -75 -106 l-44 -105 -70 3 -69 3 -74 184 c-40 101
-75 185 -77 187 -2 3 -265 -83 -583 -190 l-579 -195 -4655 -33 -4655 -34
-1950 34 c-1072 19 -1951 35 -1953 37 -6 5 25 1065 32 1072 4 5 903 9 1997 11
l1990 4 397 134 c218 74 436 148 483 165 l87 31 27 94 28 94 126 1 c69 1 499
5 955 8 l830 6 66 110 66 110 555 3 c305 2 1635 0 2957 -4 l2402 -6 0 -164 0
-164 163 0 c89 0 617 9 1172 20 556 11 1052 20 1103 20 l92 0 0 170 0 170 204
0 204 0 431 -317z m1114 232 c-58 -84 -58 -84 -102 -85 -38 0 -61 10 -165 77
-67 42 -125 80 -130 85 -6 4 95 8 222 8 l233 0 -58 -85z m2127 -9260 l0 -305
-50 0 -50 0 0 305 0 305 50 0 50 0 0 -305z m-2150 -5 l0 -300 -50 0 -50 0 0
300 0 300 50 0 50 0 0 -300z"/>
</g>
</svg>
