<?xml version="1.0" standalone="no"?>
<!DOCTYPE svg PUBLIC "-//W3C//DTD SVG 20010904//EN"
 "http://www.w3.org/TR/2001/REC-SVG-20010904/DTD/svg10.dtd">
<svg version="1.0" xmlns="http://www.w3.org/2000/svg"
   viewBox="0 0 4266.000000 752.000000"
 preserveAspectRatio="xMidYMid meet">
<metadata>
Created by potrace 1.16, written by Peter Selinger 2001-2019
</metadata>
<g transform="translate(0.000000,752.000000) scale(0.100000,-0.100000)"
fill="#000000" stroke="none">
<path d="M9580 7425 l-205 -94 -345 -1 c-327 0 -347 -1 -375 -20 -26 -17 -47
-20 -152 -20 l-121 0 -115 -65 -115 -65 -265 0 -265 0 -206 -96 -206 -97 0
-108 0 -109 109 0 110 0 116 -67 117 -68 -653 -3 -653 -2 -48 -47 -48 -47 47
-48 47 -48 1023 0 1023 0 0 -60 0 -61 -1377 5 c-1118 3 -1461 7 -1818 22 -369
16 -465 17 -595 7 -85 -6 -580 -19 -1100 -27 l-945 -16 -255 -36 c-219 -31
-280 -44 -432 -90 -176 -54 -177 -54 -310 -54 l-133 0 -274 -135 c-150 -74
-277 -135 -281 -135 -4 0 -18 42 -31 93 l-24 94 -197 -91 -197 -91 -1 -396 0
-396 -40 -7 c-22 -3 -63 -11 -90 -17 l-50 -11 0 -78 0 -78 172 -189 173 -189
57 23 c32 13 61 23 66 23 8 0 272 -314 272 -324 0 -3 -97 -6 -215 -6 -199 0
-224 -2 -357 -30 -126 -26 -160 -38 -280 -97 l-138 -67 0 -616 0 -615 135 -68
c119 -59 154 -71 276 -97 131 -28 153 -30 359 -30 l220 0 0 -75 0 -75 620 0
620 0 0 -116 0 -116 68 -78 67 -79 73 0 c69 -1 72 -2 72 -25 0 -27 -35 -14
382 -142 l188 -58 0 -55 0 -56 278 -278 277 -277 233 0 c179 0 232 -3 232 -12
0 -7 107 -75 239 -150 l238 -138 211 0 211 0 3 -57 3 -57 820 -368 820 -368
1469 0 1468 0 104 56 c57 30 104 62 104 70 0 12 140 14 984 14 l985 0 450 214
451 215 6377 -3 6378 -2 255 -72 255 -72 518 -6 517 -7 0 -204 0 -203 1615 0
1616 0 104 56 c95 50 105 58 105 84 0 27 1 27 48 23 29 -3 53 -12 64 -24 16
-18 44 -19 910 -19 l893 0 447 263 447 262 1 116 0 116 -92 42 -93 41 -267 0
c-232 0 -268 2 -268 15 0 13 187 15 1623 15 l1622 1 185 145 c155 123 186 151
188 175 l3 29 97 0 97 0 227 165 228 165 707 0 708 0 400 95 c220 52 403 95
407 95 4 0 9 71 10 157 l3 157 1350 315 c743 174 1355 320 1361 326 6 6 223
60 483 120 l471 110 -2 505 -3 504 -1832 185 -1833 185 0 51 0 51 -392 95
-393 94 -606 5 -607 5 229 235 228 235 0 210 1 210 -468 257 -468 258 -120 0
c-80 0 -114 -3 -104 -10 10 -6 -267 -10 -790 -10 -779 0 -806 -1 -817 -19 -8
-13 -26 -20 -58 -23 -43 -3 -46 -2 -53 26 -6 23 -25 38 -107 82 l-100 54
-1475 0 -1475 0 -822 -367 -823 -368 0 -107 0 -108 -67 0 c-64 0 -71 -3 -196
-72 -73 -41 -132 -81 -135 -90 -4 -17 -34 -18 -461 -18 l-456 0 -310 99 c-299
95 -374 113 -535 126 l-76 6 -144 131 c-132 119 -155 136 -257 185 l-111 53
-311 0 -311 0 0 25 0 25 -300 0 -300 0 0 -25 0 -25 -1850 0 -1850 0 0 25 0 25
-295 0 -295 0 0 -25 0 -25 -1850 0 -1850 0 0 25 0 25 -295 0 -295 0 0 -25 0
-25 -127 0 -128 0 -967 377 -968 377 0 48 0 48 264 0 265 0 96 45 96 44 -3
118 -3 117 -445 263 -445 263 -892 0 c-880 0 -892 0 -906 -20 -9 -13 -30 -22
-60 -26 -46 -7 -47 -6 -53 25 -6 28 -18 37 -113 86 l-106 55 -1470 -1 -1470
-1 -205 -93z m6099 -1457 l674 -263 -325 -3 -326 -2 -92 35 -92 35 -739 0
-739 0 0 49 c0 42 -4 52 -27 70 l-28 20 313 1 313 0 176 166 c139 130 181 164
197 160 12 -3 324 -124 695 -268z m1541 -523 c0 -25 1 -25 85 -25 50 0 85 -4
85 -10 0 -6 -60 -10 -160 -10 -129 0 -166 -3 -195 -17 -21 -10 -35 -24 -35
-35 0 -17 -15 -18 -255 -18 l-255 0 0 39 0 39 -75 27 c-41 15 -75 29 -75 31 0
2 198 4 440 4 l440 0 0 -25z m4290 0 c0 -25 1 -25 85 -25 50 0 85 -4 85 -10 0
-6 -58 -10 -155 -10 -170 0 -235 -14 -235 -51 0 -19 -38 -19 -1645 -19 -1607
0 -1645 0 -1645 19 0 37 -65 51 -230 51 -93 0 -150 4 -150 10 0 6 38 10 95 10
95 0 95 0 95 25 l0 25 1850 0 1850 0 0 -25z m4290 0 c0 -25 1 -25 90 -25 53 0
90 -4 90 -10 0 -6 -60 -10 -159 -10 -174 0 -231 -12 -231 -50 0 -20 -10 -20
-1650 -20 -1587 0 -1650 1 -1650 18 0 38 -59 52 -220 52 -93 0 -150 4 -150 10
0 6 37 10 90 10 89 0 90 0 90 25 l0 25 1850 0 1850 0 0 -25z m1277 -19 c32
-24 69 -56 82 -70 l24 -26 -301 0 c-295 0 -302 0 -302 20 0 37 -57 50 -221 50
-93 0 -149 4 -149 10 0 6 38 10 95 10 95 0 95 0 95 25 l0 25 309 0 309 0 59
-44z m10243 -155 l0 -49 -256 -251 -256 -251 -231 0 -230 0 23 25 c23 25 26
25 184 25 l161 1 228 222 c190 185 228 227 227 250 0 16 5 27 14 27 7 0 38 11
67 24 30 14 57 25 62 25 4 1 7 -21 7 -48z m-29500 -46 l0 -85 -155 0 -155 0 0
85 0 85 155 0 155 0 0 -85z m11370 -375 c0 -6 -37 -10 -90 -10 -53 0 -90 4
-90 10 0 6 37 10 90 10 53 0 90 -4 90 -10z m-50 -3093 c0 -109 2 -118 45 -237
25 -68 45 -125 45 -127 0 -2 182 -3 405 -3 l405 0 0 -160 0 -160 570 0 570 0
0 -135 0 -135 -827 0 c-804 0 -827 1 -798 18 17 10 83 46 148 81 l117 62 0
195 0 194 -390 0 -390 0 0 260 0 260 50 0 50 0 0 -113z m4197 -39 c-2 -29 -3
-6 -3 52 0 58 1 81 3 53 2 -29 2 -77 0 -105z m-7587 -493 l0 -155 570 0 570 0
0 -135 0 -135 -1872 0 -1873 0 605 289 605 290 698 0 697 1 0 -155z m17280 80
l0 -35 125 0 125 0 0 35 0 35 1302 0 1301 0 -91 -68 -91 -69 -488 -6 c-268 -4
-991 -10 -1605 -14 -940 -5 -1118 -4 -1118 7 0 8 -14 29 -32 47 l-32 33 87 0
87 0 0 35 0 35 215 0 215 0 0 -35z m-8640 -459 l155 -44 -365 -1 -365 -1 95
52 c52 28 109 58 125 68 34 19 26 20 355 -74z"/>
</g>
</svg>
