<?xml version="1.0" standalone="no"?>
<!DOCTYPE svg PUBLIC "-//W3C//DTD SVG 20010904//EN"
 "http://www.w3.org/TR/2001/REC-SVG-20010904/DTD/svg10.dtd">
<svg version="1.0" xmlns="http://www.w3.org/2000/svg"
   viewBox="0 0 4475.000000 789.000000"
 preserveAspectRatio="xMidYMid meet">
<metadata>
Created by potrace 1.16, written by Peter Selinger 2001-2019
</metadata>
<g transform="translate(0.000000,789.000000) scale(0.100000,-0.100000)"
fill="#000000" stroke="none">
<path d="M10055 7795 l-209 -95 -361 0 c-342 0 -361 -1 -390 -20 -26 -17 -47
-20 -157 -20 l-127 0 -134 -75 -133 -75 -280 0 -279 0 -210 -98 -210 -99 -3
-116 -3 -117 126 0 125 0 117 -67 117 -68 -684 -3 -685 -2 -52 -52 -53 -52 47
-48 47 -48 1078 0 1078 0 0 -62 0 -63 -1022 3 c-1514 3 -1878 8 -2353 27 -357
15 -457 16 -590 6 -248 -18 -376 -22 -1320 -36 l-880 -14 -265 -40 c-230 -35
-288 -47 -440 -95 l-175 -56 -136 0 -137 0 -287 -140 c-159 -77 -290 -138
-292 -136 -3 2 -15 46 -28 96 -13 50 -25 93 -27 94 -1 2 -94 -40 -205 -92
l-203 -95 0 -413 c0 -384 -1 -413 -17 -418 -10 -2 -45 -10 -78 -16 -103 -19
-95 -11 -95 -105 l0 -83 176 -194 c98 -106 178 -194 179 -196 2 -2 32 9 68 23
l66 27 29 -34 c16 -18 82 -96 146 -173 l117 -140 -258 -6 c-242 -5 -266 -7
-388 -36 -106 -25 -155 -43 -267 -99 l-138 -69 0 -645 0 -646 148 -71 c132
-64 162 -75 295 -102 140 -29 161 -31 378 -31 l229 0 0 -80 0 -80 650 0 650 0
0 -122 0 -123 68 -77 67 -78 78 0 77 0 0 -28 c0 -28 0 -28 293 -118 l292 -90
3 -55 3 -54 297 -297 297 -298 232 0 c209 0 235 -2 250 -18 10 -9 129 -81 264
-160 l247 -142 215 0 216 0 3 -56 3 -56 855 -384 855 -384 1549 0 1549 0 103
56 c77 41 104 60 104 75 0 19 16 19 1043 19 l1043 0 461 219 461 220 6703 -3
6704 -3 270 -77 269 -76 533 0 533 0 0 -220 0 -220 1688 0 1687 0 110 59 c95
50 111 62 120 91 9 31 11 32 54 26 25 -3 54 -15 66 -26 21 -20 36 -20 954 -20
l932 0 470 276 469 277 0 122 0 122 -102 46 -103 47 -272 0 c-236 0 -273 2
-273 15 0 13 196 15 1704 15 l1703 0 192 151 c126 99 191 156 191 169 0 47 6
50 117 50 l105 0 234 170 234 170 744 0 744 0 384 90 c211 50 400 95 420 101
l38 10 2 162 3 162 1419 331 c780 182 1421 336 1425 341 3 6 224 61 491 123
267 62 491 115 498 117 9 4 12 120 12 534 0 291 -3 529 -7 529 -18 0 -3782
381 -3810 385 -32 6 -33 7 -33 58 l0 53 -412 97 -413 97 -639 0 -638 0 246
253 245 252 1 221 0 220 -494 272 -494 272 -123 0 c-84 0 -119 -3 -109 -10 10
-6 -278 -10 -824 -10 l-838 0 -20 -26 c-17 -21 -27 -25 -67 -22 -41 3 -46 6
-49 29 -2 21 -20 35 -111 82 l-108 57 -1549 0 -1549 0 -855 -384 -855 -383 -3
-111 -3 -112 -68 0 c-67 0 -71 -2 -215 -82 -80 -46 -146 -89 -146 -95 0 -10
-103 -13 -484 -13 l-483 0 -313 100 c-317 101 -441 130 -565 130 l-66 0 -97
87 c-53 48 -124 112 -157 142 -43 39 -94 71 -180 112 l-120 57 -327 -6 -328
-5 0 27 0 26 -310 0 c-303 0 -310 0 -310 -20 0 -20 -7 -20 -1940 -20 -1933 0
-1940 0 -1940 20 0 20 -7 20 -310 20 -303 0 -310 0 -310 -20 0 -20 -7 -20
-1940 -20 -1933 0 -1940 0 -1940 20 0 20 -7 20 -315 20 -308 0 -315 0 -315
-20 0 -19 -7 -20 -137 -20 l-136 0 -1004 392 -1003 391 0 54 0 53 278 0 277 0
95 44 95 44 2 124 3 123 -474 278 -473 277 -930 0 -930 0 -23 -25 c-18 -19
-34 -25 -67 -25 -40 0 -44 2 -49 28 -5 25 -22 37 -114 85 l-107 57 -1549 0
-1549 -1 -210 -94z m6401 -1531 l691 -269 -340 -3 -340 -2 -95 35 -95 35 -769
0 -768 0 0 50 c0 48 -2 52 -37 73 l-38 22 336 3 335 2 185 174 c183 173 184
174 214 162 17 -7 341 -134 721 -282z m1604 -549 c0 -25 0 -25 95 -25 57 0 95
-4 95 -10 0 -6 -63 -10 -170 -10 -138 0 -176 -3 -205 -17 -21 -10 -35 -24 -35
-35 0 -17 -16 -18 -270 -18 l-270 0 0 40 c0 24 -5 42 -12 45 -7 2 -42 15 -78
29 l-65 25 458 0 457 1 0 -25z m4510 0 c0 -25 1 -25 90 -25 53 0 90 -4 90 -10
0 -6 -62 -10 -165 -10 -180 0 -245 -13 -245 -51 0 -19 -40 -19 -1730 -19
-1664 0 -1730 1 -1730 18 0 11 -14 25 -35 35 -29 14 -66 17 -195 17 -100 0
-160 4 -160 10 0 6 40 10 100 10 l100 0 0 25 0 25 1940 0 1940 0 0 -25z m4500
0 c0 -25 0 -25 95 -25 57 0 95 -4 95 -10 0 -6 -63 -10 -170 -10 -138 0 -176
-3 -205 -17 -21 -10 -35 -24 -35 -35 0 -17 -66 -18 -1730 -18 -1690 0 -1730 0
-1730 19 0 37 -65 51 -235 51 -97 0 -155 4 -155 10 0 6 38 10 95 10 95 0 95 0
95 25 l0 25 1940 0 1940 0 0 -25z m1314 3 c18 -13 57 -44 85 -70 l53 -48 -316
0 c-299 0 -316 1 -316 18 0 11 -14 25 -35 35 -29 14 -66 17 -195 17 -100 0
-160 4 -160 10 0 6 38 10 95 10 95 0 95 0 95 25 l0 25 331 0 c326 0 330 0 363
-22z m10776 -180 l-1 -53 -267 -261 -267 -261 -250 -8 -250 -7 29 31 30 31
166 0 166 0 242 232 c194 185 242 236 242 257 0 23 10 30 73 58 39 17 75 32
80 32 4 1 7 -23 7 -51z m-30950 -48 l0 -90 -165 0 -165 0 0 90 0 90 165 0 165
0 0 -90z m11928 -392 c-3 -9 -34 -14 -96 -16 -77 -2 -92 0 -92 13 0 12 16 15
96 15 72 0 95 -3 92 -12z m-58 -3247 c0 -103 2 -115 44 -232 24 -68 47 -132
51 -141 7 -17 36 -18 426 -18 l419 0 0 -170 0 -170 600 0 600 0 0 -140 0 -140
-872 0 -873 1 100 54 c55 30 128 69 162 87 l63 33 0 203 0 202 -410 0 -410 0
0 270 0 270 50 0 50 0 0 -109z m4407 27 c-2 -18 -4 -6 -4 27 0 33 2 48 4 33 2
-15 2 -42 0 -60z m-7957 -593 l0 -165 595 0 595 0 0 -140 0 -140 -1967 0
-1968 0 115 55 c63 31 349 168 635 304 l520 249 738 1 737 1 0 -165z m18130
95 l0 -40 130 0 130 0 0 40 0 40 1367 0 c859 0 1363 -4 1358 -9 -6 -6 -51 -41
-102 -79 l-92 -69 -933 -6 c-513 -4 -1269 -10 -1680 -14 l-748 -6 0 20 c0 12
-16 34 -37 52 l-38 30 98 1 97 0 0 40 0 40 225 0 225 0 0 -40z m-9062 -487
l173 -48 -196 -3 c-107 -1 -284 -1 -392 0 l-198 3 134 71 134 72 86 -24 c47
-13 164 -45 259 -71z"/>
</g>
</svg>
