<?xml version="1.0" standalone="no"?>
<!DOCTYPE svg PUBLIC "-//W3C//DTD SVG 20010904//EN"
 "http://www.w3.org/TR/2001/REC-SVG-20010904/DTD/svg10.dtd">
<svg version="1.0" xmlns="http://www.w3.org/2000/svg"
   viewBox="0 0 4090.000000 605.000000"
 preserveAspectRatio="xMidYMid meet">
<metadata>
Created by potrace 1.16, written by Peter Selinger 2001-2019
</metadata>
<g transform="translate(0.000000,605.000000) scale(0.100000,-0.100000)"
fill="#000000" stroke="none">
<path d="M5647 6032 c-11 -12 -17 -36 -17 -69 l0 -50 -57 -6 c-32 -4 -125 -9
-208 -13 -100 -4 -161 -11 -182 -21 -33 -15 -33 -16 -33 -88 0 -62 -3 -75 -17
-79 -10 -3 -126 -26 -258 -51 -132 -25 -247 -48 -256 -51 -8 -2 -98 -74 -200
-159 l-184 -155 -141 0 c-158 0 -174 -6 -174 -68 l0 -32 -240 0 -240 0 0 53
c0 43 -5 58 -23 75 l-23 22 -765 0 -765 0 -27 -28 c-26 -27 -27 -31 -27 -150
l0 -122 -197 0 -198 1 -44 60 -43 60 -57 -6 c-31 -3 -285 -21 -566 -40 -688
-46 -635 -40 -635 -76 0 -27 -3 -29 -35 -29 l-35 0 0 -510 0 -510 34 0 c32 0
35 -3 38 -32 l3 -33 595 -47 c327 -25 609 -47 627 -47 27 -1 38 7 78 59 l46
60 116 0 116 0 -7 -37 c-3 -21 -6 -147 -6 -280 l0 -243 -188 0 c-214 0 -212 1
-237 -84 -13 -43 -12 -61 20 -241 19 -107 39 -241 45 -297 10 -85 16 -106 33
-120 20 -16 78 -18 795 -18 l772 0 0 -165 0 -165 -185 0 -185 0 0 -30 0 -30
-65 0 -65 0 0 -830 0 -830 65 0 65 0 0 -40 0 -40 1303 0 1303 0 27 28 c25 26
27 35 27 105 l0 78 133 -6 c72 -3 422 -10 777 -15 355 -6 723 -13 818 -16
l172 -6 0 -67 c0 -117 -56 -106 650 -120 333 -6 712 -14 843 -18 l237 -6 0
-67 c0 -110 -80 -100 803 -100 l767 0 0 -43 c0 -84 -90 -77 1037 -77 956 0
1001 1 1016 18 10 11 17 36 17 60 l0 42 163 0 c158 0 164 1 185 23 19 20 22
35 22 109 l0 86 138 6 c283 13 1883 49 1889 43 3 -4 -24 -88 -60 -187 -37 -99
-67 -186 -67 -195 0 -12 12 -15 54 -15 l55 0 -15 -35 c-7 -19 -14 -55 -14 -80
0 -36 3 -45 18 -45 9 0 3491 164 7737 365 l7720 366 35 23 c35 23 45 23 1064
70 977 45 1029 46 1047 30 19 -17 67 -15 957 26 870 40 939 44 965 62 25 18
74 21 622 46 503 22 598 24 620 12 21 -11 410 5 2670 112 1455 68 2647 127
2650 130 3 3 5 39 3 79 l-3 74 -815 -32 c-448 -18 -826 -32 -840 -30 l-25 2
43 121 43 121 346 6 c191 4 455 7 588 7 133 0 337 3 453 7 l212 6 0 84 0 83
-935 0 -935 0 0 28 c0 15 5 33 12 40 9 9 231 12 935 12 l924 0 -3 147 -3 148
-587 7 -587 7 -108 72 c-59 40 -109 72 -110 73 0 1 -6 62 -12 136 -6 74 -14
160 -17 190 l-5 55 696 -29 c770 -31 715 -34 715 37 0 20 5 37 10 37 6 0 10
50 10 130 l0 130 -37 0 c-21 0 -1705 94 -3742 209 -3418 194 -3707 209 -3731
194 -25 -14 -68 -13 -511 11 -266 15 -521 29 -567 33 l-83 6 3 66 3 66 45 -3
c25 -2 857 -64 1849 -138 992 -74 1813 -134 1823 -134 15 0 18 8 18 43 l0 42
-1623 123 c-892 67 -3280 246 -5307 397 -2027 152 -3700 278 -3719 281 l-34 5
6 47 c10 88 193 66 -1808 216 -1411 107 -1791 132 -1806 123 -13 -8 -19 -24
-19 -52 0 -22 -4 -46 -9 -53 -6 -10 -138 -3 -687 38 -373 28 -782 58 -908 67
l-228 17 -19 41 c-37 83 43 75 -781 75 -553 0 -785 4 -934 15 -110 8 -683 51
-1274 94 -591 44 -1094 83 -1117 85 -41 5 -43 4 -43 -20 0 -25 -2 -26 -47 -20
-27 3 -96 8 -155 12 -105 6 -108 6 -108 -15 0 -11 1 -21 3 -22 1 0 557 -43
1235 -94 678 -51 1235 -95 1238 -98 3 -3 -9 -39 -28 -81 -32 -73 -34 -76 -68
-76 -19 0 -698 41 -1509 90 -811 49 -1477 88 -1479 85 -8 -7 -4 -131 8 -270 7
-75 11 -138 8 -140 -2 -2 -154 3 -337 10 -248 10 -337 17 -346 27 -7 7 -40 45
-75 83 -35 39 -86 94 -113 123 l-49 53 -209 11 -209 12 0 133 0 133 75 0 c56
0 75 3 75 13 0 18 147 27 425 27 133 0 195 4 185 10 -8 5 -78 10 -155 10 -77
0 -211 3 -297 7 -145 6 -158 8 -158 25 0 16 -9 18 -75 18 l-75 0 0 65 0 64
-57 3 -57 3 -13 50 c-7 28 -13 53 -13 58 0 4 115 7 255 7 l255 0 0 48 c0 44
-6 56 -77 153 -43 58 -98 129 -122 157 l-44 52 -932 0 -932 0 -18 40 -18 40
-326 0 -326 0 -90 90 -90 90 -130 0 -131 0 -23 55 -23 55 -1154 0 -1154 0 0
35 0 35 -1268 0 c-1217 0 -1270 -1 -1285 -18z m14890 -1582 c299 -22 561 -40
582 -40 22 0 42 -4 46 -9 3 -6 2 -61 -1 -123 l-7 -113 -51 -53 -51 -52 -490
26 c-269 14 -499 29 -510 33 -13 6 -39 51 -77 137 -31 71 -68 155 -83 188
l-26 58 63 -6 c35 -3 307 -24 605 -46z"/>
</g>
</svg>
