<?xml version="1.0" standalone="no"?>
<!DOCTYPE svg PUBLIC "-//W3C//DTD SVG 20010904//EN"
 "http://www.w3.org/TR/2001/REC-SVG-20010904/DTD/svg10.dtd">
<svg version="1.0" xmlns="http://www.w3.org/2000/svg"
   viewBox="0 0 1913.000000 3479.000000"
 preserveAspectRatio="xMidYMid meet">
<metadata>
Created by potrace 1.16, written by Peter Selinger 2001-2019
</metadata>
<g transform="translate(0.000000,3479.000000) scale(0.100000,-0.100000)"
fill="#000000" stroke="none">
<path d="M11070 33760 l0 -1030 -77 0 c-43 0 -156 -3 -250 -7 l-173 -6 0 311
c0 305 0 312 -20 312 -20 0 -20 -7 -20 -310 l0 -310 -105 0 c-93 0 -105 2
-105 18 0 9 -20 29 -45 45 -25 16 -45 36 -45 45 -1 22 -81 82 -109 82 -12 0
-30 4 -39 9 -9 5 -122 12 -249 16 l-233 8 0 -59 c0 -33 -3 -76 -6 -96 l-7 -38
-192 0 c-159 0 -195 3 -205 15 -17 21 -94 19 -150 -3 -35 -14 -90 -63 -248
-223 l-203 -206 -95 -264 c-52 -145 -105 -283 -117 -306 l-22 -43 -65 0 c-159
-1 -171 -5 -415 -162 l-223 -143 -126 -150 -126 -150 2 -194 3 -195 130 -39
130 -39 345 6 345 5 63 -109 63 -110 72 0 c40 0 203 -5 364 -10 l292 -10 240
-147 240 -148 -77 -7 c-42 -4 -116 -10 -164 -14 l-88 -6 0 -176 0 -177 95 -84
95 -85 0 -165 0 -166 63 -39 c34 -22 113 -89 175 -150 l112 -110 0 -131 0
-132 173 -6 c94 -4 304 -7 465 -7 l292 0 0 -185 0 -185 -177 0 -177 0 -242
-100 -243 -100 -368 0 -369 0 -64 35 -65 35 -2346 0 -2346 0 -7 -40 c-3 -22
-7 -40 -9 -41 -1 0 -157 -20 -347 -43 l-345 -42 -3 104 c-1 58 -1 106 1 108 2
2 313 15 693 30 379 14 690 27 692 28 1 2 11 93 22 202 11 110 20 200 20 202
0 1 92 2 205 2 l205 0 0 625 0 625 -204 0 -203 0 -5 146 c-3 109 -8 148 -18
154 -8 5 -43 16 -79 25 -36 9 -83 20 -103 26 l-38 10 0 99 0 100 -614 0 -614
0 -407 -65 c-224 -36 -418 -65 -430 -65 -16 0 -26 9 -35 30 -7 17 -13 30 -14
30 -524 52 -921 88 -927 84 -5 -3 -42 -53 -83 -112 -42 -60 -117 -149 -173
-204 l-98 -97 -154 -36 c-85 -19 -155 -34 -156 -33 -2 2 -24 42 -50 90 -26 49
-50 90 -55 93 -4 3 -225 18 -491 34 -266 17 -512 32 -546 35 l-63 5 0 -969 0
-970 43 0 c65 0 934 40 1003 46 l60 5 49 98 48 98 236 -5 c130 -2 237 -5 238
-6 0 0 3 -490 5 -1089 l3 -1087 -202 0 -203 0 0 -115 0 -115 205 0 205 0 0
-940 0 -940 555 0 555 0 0 -35 0 -35 415 0 415 0 0 -80 0 -80 -679 0 -678 0
-99 -165 -99 -165 -122 0 -122 0 -10 -37 c-6 -21 -11 -44 -11 -50 0 -10 -28
-13 -105 -13 l-105 0 0 -545 0 -545 112 0 111 0 -6 -137 c-4 -75 -7 -158 -7
-185 0 -43 -2 -48 -22 -48 -17 0 -33 -16 -62 -61 l-39 -61 12 -171 c19 -265 8
-237 115 -302 l91 -55 145 0 c80 0 390 -11 690 -25 680 -31 609 -32 617 5 l6
30 584 0 c576 0 585 0 590 -20 5 -19 14 -20 193 -20 212 0 200 -5 200 86 l0
41 53 7 c28 3 73 6 100 6 l47 0 0 385 0 385 559 0 c363 0 562 4 566 10 4 7
269 10 763 10 l757 0 162 -145 162 -145 471 0 470 0 0 -798 0 -799 -55 -12
-55 -12 0 -500 0 -499 448 0 449 0 18 62 19 61 201 -6 c110 -4 255 -7 323 -7
l122 0 0 -79 0 -78 53 -7 c28 -3 104 -6 168 -6 l116 0 7 -92 c3 -50 6 -210 6
-355 l0 -263 -22 0 c-13 0 -468 32 -1013 70 -544 38 -994 70 -999 70 -5 0 -6
-30 -3 -67 l5 -68 -119 3 c-111 3 -119 2 -119 -15 0 -18 15 -113 25 -160 l5
-23 -680 0 -680 0 0 -215 0 -215 -85 0 -85 0 0 -389 c0 -214 3 -403 6 -420 l6
-31 79 0 79 0 0 -210 0 -210 1805 0 1805 0 0 -392 c0 -216 3 -572 7 -790 l6
-398 -1011 0 -1012 0 0 145 0 145 -739 0 c-696 0 -740 -1 -745 -17 -2 -10 -12
-76 -22 -148 -9 -71 -20 -132 -24 -135 -4 -3 -12 -61 -18 -130 -6 -69 -135
-1011 -287 -2094 -151 -1083 -272 -1973 -268 -1977 5 -5 42 -9 83 -11 l75 -3
-107 -1104 -107 -1103 134 -351 c74 -192 135 -351 135 -353 0 -2 -79 -5 -175
-6 l-174 -3 928 -1985 927 -1985 185 -3 184 -3 935 -1954 935 -1955 128 0 127
0 0 -125 0 -125 780 0 780 0 0 35 c0 35 0 35 43 35 l44 0 6 1208 c4 664 7
1664 7 2222 0 558 3 1322 7 1697 l6 683 74 0 73 0 0 565 0 565 -69 0 c-38 0
-76 3 -85 6 -14 5 -16 62 -16 530 l0 524 140 0 140 0 0 41 c0 36 3 41 35 55
31 12 35 19 35 49 l0 35 89 0 88 0 6 38 c4 20 7 96 8 169 l1 131 -117 134
-117 133 6 225 c3 124 15 776 26 1450 11 674 23 1271 26 1328 l6 102 129 0
129 0 0 83 c0 45 -7 379 -15 742 -8 363 -15 681 -15 708 l0 47 55 0 55 0 0
120 0 120 -55 0 -55 0 0 85 0 85 55 0 55 0 0 110 0 110 -55 0 -55 0 0 90 0 90
55 0 55 0 0 125 0 125 -55 0 -55 0 0 90 0 90 61 0 62 0 -6 103 c-4 56 -8 572
-9 1146 l-2 1044 52 26 52 25 0 76 c0 41 7 374 15 740 8 366 15 699 15 741 l0
77 84 73 85 74 0 106 c1 84 -2 109 -14 119 -9 7 -29 30 -46 52 l-31 38 61 115
61 115 0 475 c0 373 -3 475 -12 475 -24 0 -233 21 -245 25 -10 3 93 330 177
563 l12 32 94 0 94 0 0 1240 0 1240 98 0 c53 0 168 3 255 7 l157 6 0 489 0
488 845 0 844 0 16 -30 c15 -28 19 -30 76 -30 58 0 60 1 70 30 l11 30 102 0
102 0 47 -199 48 -198 70 -111 c55 -87 88 -126 151 -182 66 -57 88 -70 115
-70 l33 0 0 460 0 460 33 0 c63 1 2268 138 2272 141 2 3 -506 35 -1128 72
-623 38 -1142 70 -1154 73 l-23 4 0 455 0 455 -36 0 c-30 0 -49 -11 -113 -67
-60 -53 -94 -94 -149 -181 l-71 -112 -48 -200 -48 -200 -97 0 -97 0 -16 30
c-15 28 -19 30 -75 30 -56 0 -60 -2 -75 -30 l-16 -30 -849 0 -850 0 0 143 0
142 -339 580 -339 580 -264 211 -263 212 -25 128 -26 129 -37 3 -37 3 0 64 c0
58 -2 64 -22 67 -22 3 -23 7 -21 80 l3 77 -40 11 c-38 10 -40 13 -40 49 0 41
11 51 56 51 20 0 24 5 24 29 0 17 5 33 10 36 6 3 10 26 10 50 0 42 -6 52 -132
203 l-133 159 -78 5 c-42 3 -79 7 -81 9 -2 2 -6 120 -9 262 l-7 257 35 0 35 0
0 223 0 222 230 158 230 159 0 138 0 138 -30 6 c-16 3 -43 9 -60 12 l-30 6 0
119 0 119 84 0 83 0 229 180 228 180 38 127 c33 113 41 132 73 158 34 30 35
31 35 107 l0 77 -35 7 c-19 3 -37 10 -40 14 -2 4 5 61 17 127 l21 121 55 5
c30 3 58 9 62 14 9 9 173 521 173 539 1 26 -79 206 -95 215 -9 5 -68 28 -130
50 -62 22 -114 41 -116 43 -2 2 4 20 12 39 l15 36 -124 88 -124 88 -27 75
c-15 41 -36 98 -46 126 l-18 51 -213 130 -212 130 -170 12 c-299 20 -301 20
-316 47 -10 19 -21 24 -51 24 -35 0 -38 2 -38 29 0 23 -8 34 -34 50 -30 19
-49 21 -187 21 -149 0 -156 -1 -192 -25 -21 -15 -37 -34 -37 -45 0 -27 -16
-28 -387 -34 l-323 -5 0 1029 c0 1023 0 1030 -20 1030 -20 0 -20 -7 -20 -1030z
m-8634 -5511 l51 -21 161 -337 162 -336 752 -97 c414 -53 754 -97 756 -97 1
-1 2 -46 2 -101 l0 -100 -124 0 -124 0 -19 -57 c-19 -57 -20 -58 -74 -74 l-54
-16 -87 -134 -88 -134 6 -107 6 -108 -71 0 -71 0 0 -65 0 -65 -636 0 -637 0 7
613 c8 795 17 1257 25 1257 3 0 29 -10 57 -21z m1184 -2126 l0 -48 -428 -162
-427 -161 -3 -216 c-2 -162 1 -216 10 -216 6 0 65 -14 130 -31 l118 -32 0
-188 0 -189 -110 0 -110 0 0 -30 0 -30 -235 0 -235 0 0 178 c0 98 3 402 7 675
l6 497 639 0 638 0 0 -47z m1571 -2293 l274 -319 766 -1 767 0 7 -65 7 -65
164 0 164 0 0 60 c0 33 4 60 10 60 6 0 10 -118 10 -335 l0 -335 -532 0 -533 1
-25 34 -25 34 -557 1 -558 0 0 415 0 415 -110 0 -110 0 0 165 0 165 -40 0 -41
0 38 45 c20 25 40 45 44 45 3 0 129 -144 280 -320z m6457 -1707 l262 -6 0
-134 0 -133 -546 0 -547 0 7 -172 c3 -95 8 -400 11 -678 3 -278 8 -538 11
-577 l6 -73 -171 0 -171 0 0 -70 0 -70 -324 0 -325 0 -18 30 -17 30 -113 0
-113 0 0 119 c0 116 -1 119 -25 135 l-25 16 0 795 0 795 918 0 c504 0 1035 -3
1180 -7z"/>
</g>
</svg>
