<?xml version="1.0" standalone="no"?>
<!DOCTYPE svg PUBLIC "-//W3C//DTD SVG 20010904//EN"
 "http://www.w3.org/TR/2001/REC-SVG-20010904/DTD/svg10.dtd">
<svg version="1.0" xmlns="http://www.w3.org/2000/svg"
   viewBox="0 0 4697.000000 2012.000000"
 preserveAspectRatio="xMidYMid meet">
<metadata>
Created by potrace 1.16, written by Peter Selinger 2001-2019
</metadata>
<g transform="translate(0.000000,2012.000000) scale(0.100000,-0.100000)"
fill="#000000" stroke="none">
<path d="M18423 20074 l-53 -46 0 -79 0 -80 -100 -48 c-55 -27 -104 -51 -110
-53 -6 -2 -16 -81 -23 -196 -7 -109 -17 -196 -23 -200 -6 -4 -104 -76 -217
-160 l-207 -154 0 -1151 0 -1152 35 -28 35 -28 0 -415 0 -415 195 -353 c107
-194 195 -357 194 -362 0 -5 -41 -43 -90 -84 -49 -41 -96 -82 -104 -91 -9 -9
-23 -73 -35 -155 -11 -76 -23 -151 -26 -166 l-6 -28 -103 0 c-95 0 -115 -4
-265 -50 -89 -27 -164 -50 -165 -50 -1 0 -44 -92 -95 -205 -51 -113 -98 -205
-105 -205 -18 0 -825 -89 -862 -95 -27 -5 -34 -13 -56 -68 l-25 -62 -139 3
-139 3 -17 -36 c-14 -30 -22 -35 -50 -35 -18 0 -268 -13 -556 -30 l-523 -30
-64 -56 -64 -56 0 -152 0 -151 104 -48 103 -47 127 0 126 0 0 -174 0 -174 -27
-6 c-16 -3 -59 -8 -98 -11 -59 -6 -1073 -275 -1139 -303 -10 -4 -27 -28 -36
-53 l-18 -44 -601 -3 -600 -2 -3 152 -3 153 -179 32 -180 32 -70 69 c-43 43
-85 74 -108 81 -29 10 -37 18 -40 39 -3 25 -10 29 -83 49 -60 16 -110 22 -200
22 l-120 1 -18 -50 -18 -50 -82 0 c-104 0 -142 -18 -222 -99 l-59 -61 -876 0
-875 1 -163 212 -163 213 -221 54 c-122 30 -227 60 -234 65 -7 6 -49 100 -93
209 l-81 199 0 152 0 152 88 23 c48 13 89 25 91 26 7 6 -201 232 -217 236 -9
3 -310 47 -667 98 l-650 94 -45 48 -45 48 -121 0 -120 0 -65 -50 c-92 -72 -97
-70 -192 70 l-77 114 0 303 0 303 -69 0 -68 0 -7 -32 c-4 -18 -22 -127 -41
-243 -20 -115 -38 -222 -41 -237 l-6 -28 -180 0 c-217 0 -196 10 -343 -169
-81 -97 -105 -121 -126 -121 -14 0 -124 47 -243 105 l-217 105 -683 0 -684 0
-156 -64 -157 -64 -317 312 c-315 311 -317 313 -390 339 -60 22 -90 27 -170
27 l-97 1 -110 100 c-160 147 -135 139 -444 139 -221 0 -266 -2 -295 -17 -24
-11 -55 -45 -102 -115 l-68 -98 -61 0 c-48 0 -79 -7 -134 -31 l-71 -32 -116
-186 c-64 -102 -122 -192 -129 -199 -9 -10 -91 -17 -334 -27 -177 -7 -323 -14
-325 -16 -70 -90 -126 -171 -126 -183 0 -9 -6 -16 -13 -16 -28 0 -116 -105
-141 -170 l-26 -65 20 -70 c17 -60 27 -76 67 -112 27 -24 58 -46 71 -49 22 -6
22 -6 22 -235 0 -229 0 -230 -22 -238 -45 -18 -106 -94 -132 -165 l-26 -69 20
-68 c18 -59 27 -74 74 -113 29 -26 61 -46 70 -46 14 0 16 -24 16 -235 0 -185
-3 -235 -13 -235 -28 0 -115 -105 -141 -169 l-25 -63 19 -72 c17 -61 26 -77
67 -113 27 -24 58 -46 71 -49 l22 -6 0 -234 c0 -218 -1 -234 -18 -234 -34 0
-109 -90 -136 -164 l-26 -68 21 -69 c18 -60 28 -75 74 -114 28 -25 60 -45 69
-45 14 0 16 -14 16 -101 l0 -101 128 -249 127 -249 161 0 160 0 375 -246 374
-247 365 -129 c201 -70 370 -129 377 -131 6 -1 66 45 134 102 135 116 142 119
296 120 l73 1 -21 -56 -21 -56 23 -26 c13 -15 179 -186 369 -381 l345 -354
134 -65 135 -65 350 -33 c193 -19 358 -34 367 -34 23 0 51 -84 99 -297 22
-101 40 -185 40 -188 0 -3 380 -5 844 -5 796 0 845 1 850 18 2 9 21 89 41 177
20 88 41 175 46 192 l11 33 218 0 218 0 167 40 167 40 854 0 854 0 66 33 66
32 20 -25 c11 -14 28 -34 37 -45 12 -16 80 -36 301 -88 l285 -68 436 1 437 0
98 36 c55 19 104 41 110 47 16 17 47 117 39 125 -3 4 -50 17 -103 29 l-97 21
323 1 322 1 0 -84 0 -84 68 -49 67 -50 245 -48 c185 -37 277 -50 375 -54 l130
-6 33 -95 c66 -194 57 -180 110 -180 l47 0 33 176 32 176 60 78 60 79 0 110 0
111 40 0 c39 0 40 -1 73 -67 19 -38 53 -99 76 -137 24 -38 45 -84 48 -103 5
-28 11 -34 42 -42 20 -6 177 -46 349 -90 l314 -81 379 0 379 0 44 -89 c76
-151 44 -138 681 -277 535 -116 540 -117 600 -105 38 8 78 25 108 47 l48 35
54 -33 c52 -32 55 -36 107 -157 29 -69 74 -154 100 -189 52 -72 -31 -23 778
-460 l215 -116 160 -5 160 -6 206 -93 207 -94 5 -46 c4 -26 14 -120 23 -209
l17 -163 -64 -73 -64 -74 -127 -28 c-71 -15 -128 -32 -128 -38 0 -6 14 -64 31
-128 22 -83 36 -120 48 -123 9 -3 62 -13 119 -22 l103 -18 50 -93 c28 -51 58
-102 67 -113 10 -12 80 -54 157 -93 l140 -73 5 -269 5 -270 48 -120 49 -120
19 -230 c10 -126 20 -247 23 -268 l4 -38 -159 -79 -159 -80 -2 -407 -3 -407
-108 -61 -107 -60 2 -1189 3 -1189 251 -171 251 -171 7 -125 c3 -69 9 -155 12
-191 l6 -66 113 -55 112 -56 7 -114 7 -113 52 -47 c29 -26 56 -47 60 -48 4 0
237 218 517 486 l510 485 0 378 c0 208 3 514 7 680 l6 302 100 78 99 78 247
53 248 54 136 398 137 398 0 157 0 158 -125 110 c-85 75 -125 116 -124 130 0
11 19 121 42 245 l43 224 293 87 c167 49 297 92 301 100 4 8 20 80 35 160 l28
145 68 37 c67 37 68 38 79 93 l12 56 -53 47 -53 47 77 102 77 101 0 160 c0
143 2 160 18 165 22 6 581 136 587 136 3 0 5 71 5 158 l0 158 -68 67 -68 67
-173 50 c-96 27 -176 51 -178 53 -2 3 28 57 67 121 60 96 77 117 103 124 18 5
85 22 150 38 l117 28 0 242 0 242 64 16 c36 9 225 61 421 116 l356 100 645 0
645 0 262 81 c144 44 297 91 340 105 l77 26 0 79 0 79 393 0 392 0 91 -113 92
-113 194 -36 c170 -32 203 -41 256 -72 l60 -36 271 0 270 0 28 35 28 35 1187
0 1187 0 237 -275 236 -275 422 0 421 0 30 -45 30 -45 203 0 202 0 0 -23 c0
-21 18 -33 138 -89 114 -54 206 -86 551 -189 l414 -124 231 -235 231 -236 153
-59 152 -58 0 -77 c0 -72 2 -79 38 -131 l38 -54 534 -202 535 -202 271 -1 272
0 28 -37 c17 -22 53 -106 86 -203 32 -90 66 -172 75 -181 10 -9 69 -62 131
-118 l114 -101 131 -40 c73 -23 144 -45 159 -50 26 -8 28 -6 34 26 6 34 7 34
58 33 l51 0 72 -83 72 -82 12 -147 c13 -154 18 -173 41 -165 10 4 19 52 32
168 10 89 22 176 27 193 5 18 9 75 9 128 l0 96 129 112 129 111 199 0 199 0
39 132 39 132 111 136 110 137 485 98 c267 53 507 101 534 107 38 8 62 22 103
61 52 49 53 51 53 108 0 53 2 59 23 64 12 3 179 37 372 75 l350 70 54 54 55
55 15 185 14 186 902 0 902 0 90 -192 c88 -189 90 -193 119 -191 16 2 211 19
432 39 222 19 407 33 410 29 3 -3 9 -37 13 -76 5 -39 9 -73 11 -74 2 -2 167
19 368 47 l365 49 365 115 c201 64 392 125 425 135 l60 19 164 219 165 219
350 183 c341 177 360 185 651 288 l300 107 3 -167 c2 -149 4 -168 20 -173 136
-41 1004 -276 1018 -276 28 0 916 188 933 198 8 4 98 221 201 480 l186 473
-19 167 c-12 107 -15 172 -9 182 5 8 17 47 27 85 18 68 18 73 0 138 -13 48
-26 75 -46 91 -24 20 -28 34 -38 112 -6 49 -11 191 -11 317 l0 227 38 35 c31
27 43 49 57 101 18 65 18 70 0 141 -16 65 -24 78 -58 106 l-40 31 7 271 6 270
33 28 c24 20 37 45 52 100 21 72 21 72 2 137 -13 43 -31 77 -53 100 l-34 36 0
265 0 265 34 33 c24 23 38 51 51 98 17 64 17 69 0 139 -18 74 -41 102 -126
158 -16 10 -31 33 -39 59 -10 37 -23 50 -101 105 l-89 63 -467 146 c-435 136
-523 160 -1261 338 l-793 191 -54 81 c-30 45 -59 84 -64 88 -6 3 -471 94
-1033 201 -956 182 -1072 202 -1772 304 l-748 108 -66 -36 -66 -36 -181 26
-180 27 -50 -49 -50 -49 -470 27 -470 28 -142 -213 c-129 -192 -146 -213 -175
-218 -90 -15 -546 -65 -599 -65 -58 0 -71 5 -275 112 l-214 111 0 224 0 223
-47 23 -48 22 -37 165 c-30 132 -39 195 -44 313 l-6 147 -32 0 -33 0 -6 -159
c-7 -148 -9 -164 -37 -226 -30 -66 -30 -69 -30 -244 l0 -178 -132 -186 -133
-187 -57 0 -58 0 0 283 c-1 256 -3 299 -28 462 -25 164 -30 180 -48 183 -20 3
-21 -3 -27 -95 -4 -54 -7 -123 -7 -154 0 -53 -2 -58 -55 -116 l-55 -61 0 -255
0 -255 -35 -74 c-34 -71 -40 -77 -165 -172 l-129 -98 -114 -13 c-125 -13 -137
-17 -137 -45 0 -14 22 -31 73 -60 l72 -40 -65 -1 c-36 0 -175 -6 -310 -13
l-245 -13 -330 -126 -331 -127 -499 35 c-275 19 -583 39 -685 43 l-185 7 -211
293 c-116 160 -213 294 -216 297 -3 3 -65 23 -139 45 l-134 40 -416 0 -415 0
-42 -32 c-38 -29 -42 -37 -42 -75 l0 -43 -174 0 -174 0 -48 43 -49 43 -680
142 c-958 199 -1850 349 -2817 472 l-699 89 -61 66 c-36 39 -168 148 -327 268
l-266 202 -185 63 c-172 59 -226 72 -758 177 -454 90 -578 118 -599 135 -15
12 -66 58 -113 104 l-86 83 97 57 c94 55 98 58 104 99 4 23 8 49 11 58 3 12
-26 34 -106 82 -100 60 -130 72 -318 128 -152 45 -227 73 -284 105 l-77 44
-238 0 -238 0 -107 -90 c-92 -78 -109 -96 -118 -133 -14 -50 -59 -215 -66
-239 -3 -10 -20 -20 -42 -24 -51 -9 -52 -10 -41 -46 5 -17 8 -33 6 -34 -1 -1
-200 8 -442 22 -242 13 -454 24 -471 24 -32 0 -32 1 -164 288 -72 158 -136
291 -141 296 -4 5 -72 32 -151 61 l-142 51 -36 124 -35 125 -385 102 -384 102
-127 86 -126 86 -314 59 c-172 33 -315 60 -316 60 -2 0 -3 94 -3 208 l0 208
233 54 c127 29 247 57 265 62 l32 9 0 249 c0 138 -1 250 -2 250 -2 0 -147 33
-323 73 l-320 72 -3 136 -3 137 131 7 c71 4 130 9 130 12 0 3 -31 125 -69 272
-65 249 -76 281 -171 496 -56 127 -103 231 -105 233 -1 2 -99 26 -216 55
l-214 53 -3 345 -2 346 -510 417 c-280 229 -513 416 -517 416 -5 0 -32 -21
-60 -46z"/>
</g>
</svg>
