<?xml version="1.0" standalone="no"?>
<!DOCTYPE svg PUBLIC "-//W3C//DTD SVG 20010904//EN"
 "http://www.w3.org/TR/2001/REC-SVG-20010904/DTD/svg10.dtd">
<svg version="1.0" xmlns="http://www.w3.org/2000/svg"
   viewBox="0 0 4060.000000 1862.000000"
 preserveAspectRatio="xMidYMid meet">
<metadata>
Created by potrace 1.16, written by Peter Selinger 2001-2019
</metadata>
<g transform="translate(0.000000,1862.000000) scale(0.100000,-0.100000)"
fill="#000000" stroke="none">
<path d="M13675 18385 l-400 -234 -438 -1 -438 0 -347 -160 -347 -159 -990 10
c-569 6 -997 14 -1007 20 -11 5 -734 9 -1833 9 l-1815 0 -260 -324 c-231 -289
-264 -326 -297 -335 -21 -6 -42 -11 -48 -11 -43 0 -83 -23 -98 -55 l-17 -35
-217 0 -218 0 -134 260 -134 260 -1002 0 -1002 0 -774 -226 -774 -226 -62 -61
-63 -61 0 -252 0 -251 -157 -42 c-87 -22 -168 -44 -180 -47 l-23 -6 0 -399 c0
-220 -1 -399 -3 -399 -5 0 -549 -109 -574 -115 l-23 -5 0 -390 c0 -215 1 -390
3 -390 1 0 202 -34 447 -75 l445 -74 32 31 33 32 0 -129 0 -128 106 -401 c58
-221 112 -424 120 -453 l15 -51 67 -11 c195 -31 1816 -302 1818 -304 2 -1 23
-49 47 -106 l44 -104 79 -53 78 -54 448 0 449 0 11 -30 c7 -20 31 -45 69 -70
l58 -40 358 0 358 0 694 -229 694 -228 179 -254 c99 -140 187 -261 196 -271 9
-9 371 -156 805 -327 l787 -311 855 0 855 0 -6 -88 -7 -88 1024 -298 c563
-164 1027 -303 1030 -308 13 -20 40 -161 32 -169 -4 -4 -38 -21 -73 -36 -56
-24 -83 -46 -183 -149 l-118 -122 161 -793 c138 -679 165 -798 184 -819 12
-14 96 -107 185 -207 l162 -183 176 -2 176 -3 28 -105 28 -104 303 -303 303
-303 277 0 278 0 0 -172 c0 -166 1 -175 25 -217 l25 -43 0 -789 0 -789 221 2
222 3 53 84 54 85 0 -40 0 -39 228 -147 229 -148 541 0 c454 0 542 2 542 14 0
33 31 38 357 57 228 13 342 24 373 35 39 13 212 17 1390 25 740 5 1351 11
1358 14 6 2 12 20 12 40 0 34 -1 35 -37 35 -21 0 -614 11 -1318 25 l-1279 25
-26 25 c-14 13 -43 31 -65 38 -22 8 -40 18 -40 23 0 5 34 116 75 246 l74 238
96 0 95 0 62 -50 62 -50 139 0 138 0 785 406 784 405 83 149 c80 145 82 150
82 217 0 37 3 119 7 181 l6 112 326 0 326 0 319 -115 c176 -63 323 -118 326
-122 4 -5 76 -139 159 -299 l151 -292 -200 -430 c-110 -237 -200 -437 -200
-445 0 -9 127 -210 283 -449 l283 -433 605 -3 604 -2 84 -196 c95 -221 93
-196 17 -314 -32 -49 -85 -104 -200 -205 -86 -76 -156 -142 -156 -146 0 -22
583 -1028 598 -1033 9 -2 499 -122 1087 -266 589 -143 1077 -263 1086 -266 10
-3 124 78 304 216 l287 220 1194 0 1193 0 183 -171 183 -172 240 -528 c132
-291 249 -538 260 -548 11 -10 337 -249 724 -530 l705 -511 333 0 333 0 165
330 165 330 1578 0 1577 0 403 -300 403 -300 692 0 692 0 157 268 157 268
-136 366 -136 367 160 308 161 308 48 -2 c27 -1 842 -62 1812 -134 1511 -113
1765 -130 1777 -118 7 8 16 46 20 86 7 70 6 72 -17 77 -12 3 -804 83 -1758
177 -954 95 -1737 174 -1739 176 -3 2 25 63 62 136 65 130 67 135 94 297 l27
165 -794 1245 c-436 685 -972 1526 -1190 1870 -218 344 -413 650 -433 681
l-36 56 62 74 62 74 5 189 5 190 -648 810 c-357 446 -654 817 -660 823 -7 7
-356 129 -776 272 -420 143 -764 261 -765 263 -2 2 -238 305 -526 673 -288
369 -527 675 -532 682 -7 8 45 75 166 217 l176 204 -2 181 -3 181 -1665 2059
-1665 2058 -339 207 -339 208 -856 179 -856 180 -95 102 c-52 56 -118 126
-146 156 l-50 53 -529 114 c-514 111 -529 115 -569 148 -23 19 -327 281 -676
583 l-635 550 -869 163 c-746 139 -873 161 -890 150 -12 -7 -335 -240 -719
-517 -574 -413 -704 -503 -730 -503 -18 0 -247 22 -509 50 l-477 50 -93 -34
-94 -34 -201 192 -202 193 -143 37 c-79 21 -313 81 -521 135 l-379 97 -120
103 c-66 56 -132 109 -146 117 -15 8 -300 87 -634 174 l-608 160 -772 0 -773
0 -400 -235z"/>
</g>
</svg>
