<?xml version="1.0" standalone="no"?>
<!DOCTYPE svg PUBLIC "-//W3C//DTD SVG 20010904//EN"
 "http://www.w3.org/TR/2001/REC-SVG-20010904/DTD/svg10.dtd">
<svg version="1.0" xmlns="http://www.w3.org/2000/svg"
   viewBox="0 0 4394.000000 1075.000000"
 preserveAspectRatio="xMidYMid meet">
<metadata>
Created by potrace 1.16, written by Peter Selinger 2001-2019
</metadata>
<g transform="translate(0.000000,1075.000000) scale(0.100000,-0.100000)"
fill="#000000" stroke="none">
<path d="M11361 10630 l-84 -120 -338 0 c-235 0 -853 -20 -2031 -65 -931 -36
-2007 -76 -2392 -90 l-699 -25 -440 80 c-242 45 -443 78 -447 73 -13 -14 -22
-91 -11 -97 5 -4 97 -33 203 -65 l193 -59 -125 4 c-69 3 -854 21 -1744 40
l-1619 35 -68 -67 -68 -67 -168 -14 c-118 -10 -341 -45 -753 -119 -322 -57
-595 -106 -607 -109 -22 -5 -23 -11 -23 -87 0 -44 -5 -119 -10 -167 -10 -79
-130 -1650 -130 -1697 0 -23 -122 10 1609 -439 535 -140 977 -257 981 -262 4
-4 155 -645 335 -1423 180 -778 331 -1418 335 -1423 3 -4 481 -44 1061 -88
l1054 -80 185 25 185 26 798 0 c683 0 802 -2 826 -15 26 -13 30 -13 41 0 20
25 58 18 88 -16 27 -31 42 -34 779 -203 l752 -172 131 -114 132 -115 884 -300
c553 -188 877 -303 866 -307 -9 -3 -365 -55 -790 -114 l-774 -108 -108 18
c-60 10 -113 15 -119 11 -6 -3 -11 -17 -11 -30 0 -13 -4 -26 -9 -29 -5 -3
-1324 -190 -2932 -416 -1608 -226 -2934 -413 -2946 -415 -16 -4 -23 -13 -23
-30 0 -14 -3 -25 -7 -25 -5 0 -66 -9 -138 -20 -169 -25 -165 -25 -165 6 0 21
-4 25 -17 19 -10 -3 -37 -12 -61 -18 l-43 -11 6 -51 c10 -78 12 -82 53 -89 72
-12 82 -9 82 24 0 17 5 30 13 30 6 0 73 9 147 19 74 11 138 17 142 15 4 -3 8
-14 8 -25 0 -11 7 -19 17 -19 9 0 1395 194 3080 431 l3064 430 2460 -461
c1352 -254 2465 -460 2473 -457 7 3 19 38 27 81 10 58 17 75 27 71 8 -3 25 -8
39 -11 22 -6 24 -10 18 -43 -17 -86 -13 -95 58 -129 34 -16 517 -271 1072
-566 642 -341 1030 -542 1065 -551 37 -10 429 -33 1210 -71 l1155 -57 439
-230 440 -229 220 -30 221 -30 1845 21 1845 22 1760 74 1760 74 2160 165
c1971 151 2241 174 3090 261 905 93 934 95 1093 89 l162 -7 0 -34 0 -35 68 7
c37 4 83 11 102 17 24 8 35 8 38 0 3 -10 23 -10 88 4 16 3 28 20 44 63 24 66
19 64 178 77 l84 7 -4 71 -3 70 430 53 c236 29 433 57 438 62 5 5 11 27 14 50
5 36 3 41 -18 49 -13 5 -220 17 -461 27 l-436 18 -7 79 c-4 44 -5 81 -3 84 3
2 193 18 424 34 525 38 504 35 504 64 0 12 -14 40 -31 63 l-31 40 -446 63
c-246 35 -451 67 -456 71 -5 5 -24 133 -42 285 -18 152 -36 280 -41 284 -4 4
-447 84 -983 179 -536 94 -1915 347 -3065 562 l-2090 390 -1675 420 -1675 420
-2075 379 -2075 378 -1017 39 c-559 21 -1020 41 -1023 45 -4 3 17 42 46 85 28
43 52 79 53 80 1 0 179 24 396 53 l395 52 320 -7 c176 -3 332 -8 347 -11 23
-5 28 -13 43 -72 9 -37 20 -74 24 -81 7 -11 53 -12 277 -1 148 7 272 14 277
17 4 2 7 35 7 72 l0 67 173 -3 c94 -1 718 -8 1385 -14 l1213 -11 254 -119 255
-119 235 0 235 0 662 109 663 109 1275 -14 c701 -7 1323 -13 1383 -13 97 -1
107 -3 107 -19 0 -11 8 -26 18 -35 16 -15 79 -17 624 -19 567 -3 607 -2 617
14 6 10 11 24 11 33 0 8 11 17 25 21 l26 6 -3 169 c-2 108 1 169 7 169 6 0
964 -65 2130 -144 l2120 -143 1480 53 c814 29 1485 53 1492 53 17 1 22 121 5
121 -8 0 -680 45 -1493 100 l-1480 101 -269 122 c-237 107 -270 125 -270 145
0 18 5 22 28 21 15 0 434 -24 932 -53 l905 -53 783 214 c430 117 795 213 810
213 15 1 556 -38 1202 -86 l1175 -87 685 208 c377 115 1074 324 1549 465 l865
257 26 62 c20 47 46 81 101 136 l74 73 418 28 417 29 0 126 0 127 -27 6 c-16
3 -197 33 -405 66 l-376 59 -116 55 c-105 50 -126 56 -241 70 l-127 17 -39
-36 c-23 -20 -49 -35 -64 -35 -14 0 -159 16 -323 35 l-298 35 -119 -21 c-90
-16 -143 -20 -210 -15 -49 3 -1177 118 -2505 256 l-2415 250 -860 146 c-842
142 -863 146 -1015 198 -85 29 -276 83 -425 121 l-270 67 -48 57 -48 57 -307
33 c-169 18 -413 44 -542 57 -129 14 -805 85 -1502 159 -697 74 -1273 132
-1281 129 -19 -7 -1014 94 -1035 106 -9 5 -811 93 -1782 196 -1505 159 -1790
187 -1936 188 l-171 1 -26 -36 -27 -37 23 -6 c12 -3 40 -6 62 -7 50 -1 93 -13
80 -21 -6 -4 -121 5 -255 19 -201 21 -248 29 -260 43 -10 12 -52 24 -135 38
-118 20 -121 22 -155 61 l-35 40 -1755 186 c-1483 158 -1784 188 -1941 190
l-187 4 -26 -37 -26 -37 62 -8 c105 -14 116 -17 95 -28 -9 -6 -17 -17 -17 -25
0 -11 -11 -13 -52 -9 -29 3 -486 39 -1015 80 -754 59 -1029 76 -1269 82 l-307
6 -67 59 -68 58 -1233 70 -1234 70 -22 25 -22 25 -2098 0 -2098 -1 -84 -119z
m17149 -4912 c278 -18 494 -35 480 -36 -29 -4 -60 -29 -60 -49 0 -15 -204 -17
-723 -6 l-315 6 17 46 c10 25 21 54 25 65 5 14 13 17 39 13 17 -3 259 -21 537
-39z m-5473 -45 c-20 -2 -52 -2 -70 0 -17 2 0 4 38 4 39 0 53 -2 32 -4z m6856
-60 c-84 -2 -222 -2 -305 0 -84 1 -16 3 152 3 168 0 236 -2 153 -3z m-425
-360 c-10 -2 -26 -2 -35 0 -10 3 -2 5 17 5 19 0 27 -2 18 -5z m560 -10 c-76
-2 -200 -2 -275 0 -76 1 -14 3 137 3 151 0 213 -2 138 -3z m-18405 -2320 l167
-58 0 -57 c0 -56 0 -57 36 -68 19 -7 33 -14 31 -17 -3 -2 -341 19 -750 49
-410 29 -744 54 -742 56 5 5 1020 150 1060 151 17 1 105 -25 198 -56z"/>
</g>
</svg>
