<?xml version="1.0" standalone="no"?>
<!DOCTYPE svg PUBLIC "-//W3C//DTD SVG 20010904//EN"
 "http://www.w3.org/TR/2001/REC-SVG-20010904/DTD/svg10.dtd">
<svg version="1.0" xmlns="http://www.w3.org/2000/svg"
   viewBox="0 0 2563.000000 4226.000000"
 preserveAspectRatio="xMidYMid meet">
<metadata>
Created by potrace 1.16, written by Peter Selinger 2001-2019
</metadata>
<g transform="translate(0.000000,4226.000000) scale(0.100000,-0.100000)"
fill="#000000" stroke="none">
<path d="M17566 42218 l-1900 -40 -540 -390 c-298 -215 -553 -402 -567 -417
-15 -14 -486 -759 -1048 -1654 l-1020 -1628 -56 -572 c-30 -315 -105 -1048
-165 -1630 -61 -581 -110 -1064 -110 -1072 0 -13 -81 -15 -658 -15 l-658 0
-905 -271 -904 -270 -783 -312 -784 -311 7 -161 c6 -138 11 -171 35 -240 15
-44 94 -267 175 -495 163 -459 288 -850 616 -1928 204 -670 227 -737 293 -877
84 -175 210 -391 240 -410 12 -8 113 -23 234 -36 l212 -23 0 -2066 c0 -1902
-2 -2092 -20 -2408 l-19 -343 -258 -504 -258 -505 -554 -448 c-305 -246 -588
-473 -628 -505 l-73 -59 -970 -292 -970 -291 -437 -325 c-442 -327 -511 -385
-675 -562 l-90 -98 -229 -707 -229 -708 -96 -740 c-52 -407 -126 -994 -164
-1305 l-70 -565 -118 -523 -117 -522 -211 -238 c-116 -130 -242 -275 -279
-322 -38 -47 -128 -153 -201 -236 l-133 -151 -647 -6 c-356 -4 -905 -7 -1219
-7 l-572 0 -7 -897 c-4 -536 -11 -983 -19 -1108 -11 -175 -11 -218 1 -260 8
-32 16 -157 21 -355 l9 -305 36 -100 37 -100 296 -365 296 -365 -6 -845 c-4
-465 -10 -2133 -14 -3706 l-6 -2862 164 -6 c90 -3 874 -15 1742 -26 l1578 -21
192 -150 191 -150 656 -328 c360 -181 1856 -926 3325 -1656 l2670 -1327 285
-50 285 -49 2175 4 2175 5 185 25 c102 14 203 33 225 42 22 10 153 59 290 110
270 100 623 254 668 291 l29 24 308 0 309 0 217 51 218 51 260 133 261 134
225 203 226 203 147 262 147 262 0 390 c0 241 4 392 10 396 23 14 277 440 414
693 123 228 122 227 147 547 l21 280 73 305 c40 168 287 1063 548 1990 l475
1685 283 1703 284 1704 389 336 c215 185 500 440 635 566 240 223 252 233 493
392 247 163 247 164 286 231 22 38 61 125 87 194 l48 126 112 56 112 55 75
129 75 128 12 127 12 126 -58 116 -57 115 21 73 c12 40 29 126 38 190 l17 117
-171 320 c-94 176 -171 326 -171 333 0 7 20 37 44 67 l44 54 5 186 c4 186 4
187 61 421 32 129 170 753 307 1385 l250 1150 145 1750 145 1750 24 1420 23
1420 116 195 115 196 -95 269 c-369 1039 -680 1897 -717 1977 -25 52 -108 194
-187 316 -112 175 -175 259 -295 399 -84 98 -150 181 -147 185 4 4 124 61 267
126 l260 120 240 51 c239 51 239 52 340 110 55 33 217 123 360 201 143 78 263
145 267 149 4 3 -4 129 -17 278 l-25 272 -195 262 -195 263 -203 90 c-111 49
-285 119 -387 156 l-185 66 -224 335 -225 335 -200 87 -201 87 -975 216 c-536
120 -979 221 -984 225 -4 4 56 112 135 240 l142 233 179 574 179 573 -20 967
-20 967 -190 860 c-104 473 -240 1087 -302 1365 l-111 505 176 323 c97 178
176 331 176 340 0 9 -90 411 -200 892 -164 713 -205 881 -225 910 -14 19 -181
253 -373 519 l-347 485 -550 357 -550 358 -120 -1 c-66 0 -975 -19 -2019 -40z"/>
</g>
</svg>
