<?xml version="1.0" standalone="no"?>
<!DOCTYPE svg PUBLIC "-//W3C//DTD SVG 20010904//EN"
 "http://www.w3.org/TR/2001/REC-SVG-20010904/DTD/svg10.dtd">
<svg version="1.0" xmlns="http://www.w3.org/2000/svg"
   viewBox="0 0 3243.000000 795.000000"
 preserveAspectRatio="xMidYMid meet">
<metadata>
Created by potrace 1.16, written by Peter Selinger 2001-2019
</metadata>
<g transform="translate(0.000000,795.000000) scale(0.100000,-0.100000)"
fill="#000000" stroke="none">
<path d="M6558 7810 l-226 -140 -264 0 -265 0 -135 -161 -135 -161 -7 -132
c-3 -72 -9 -166 -12 -208 l-7 -78 -377 0 -378 0 -533 -194 -534 -194 -3 -181
-2 -181 -90 0 -90 0 0 30 0 30 -190 0 -190 0 0 55 0 55 -335 0 -335 0 0 -55
c0 -52 -1 -55 -25 -55 -21 0 -25 -5 -25 -30 l0 -30 -295 0 -295 0 0 -90 c0
-84 -1 -90 -20 -90 -12 0 -25 10 -31 24 -7 14 -22 27 -35 30 -23 6 -24 9 -23
109 1 56 4 133 8 171 l6 70 305 88 c168 49 306 90 307 92 6 6 -22 76 -30 76
-6 0 -139 -38 -296 -84 -157 -46 -583 -170 -946 -276 l-660 -193 -131 -84
-131 -85 -5 -191 c-5 -164 -3 -195 10 -209 13 -16 35 -18 172 -18 152 0 159
-1 261 -35 l104 -35 488 -22 c491 -22 514 -22 625 8 l22 6 0 -210 0 -210 -33
-11 c-17 -6 -304 -89 -637 -186 l-605 -176 -265 -139 -265 -138 0 -392 0 -392
210 -124 c116 -68 221 -128 235 -133 14 -5 34 -12 45 -16 17 -6 16 -9 -15 -20
-26 -10 -74 -12 -180 -8 -133 5 -146 4 -162 -13 -15 -17 -16 -41 -11 -218 l6
-199 128 -83 127 -83 724 -211 c581 -170 1041 -305 1179 -346 12 -3 19 7 29
41 7 25 11 47 9 49 -2 1 -142 43 -310 91 l-306 89 -7 95 c-3 53 -6 128 -6 167
0 69 1 72 25 78 14 4 31 18 37 31 6 14 19 25 30 25 16 0 18 -9 18 -85 l0 -85
295 0 295 0 0 -25 c0 -20 5 -25 25 -25 24 0 25 -2 25 -65 l0 -65 335 0 335 0
0 65 0 65 190 0 190 0 0 25 c0 25 1 25 90 25 l90 0 0 -77 0 -78 548 -218 547
-218 120 0 120 1 130 -120 130 -119 454 -1 454 0 87 -50 87 -50 212 0 211 0
86 -59 c72 -50 94 -61 142 -66 31 -3 69 -8 83 -11 15 -3 95 -63 179 -135 l152
-129 2014 0 2014 0 70 35 c65 33 75 35 168 35 71 0 104 -4 118 -15 29 -22
1400 -22 1430 0 28 21 541 22 570 0 29 -22 1400 -22 1430 0 29 22 536 22 554
0 11 -13 103 -15 715 -15 612 0 704 2 715 15 10 12 37 15 127 15 102 0 1024
50 1210 66 71 6 72 6 85 40 l12 34 494 0 494 0 207 205 207 205 501 0 501 0
424 293 c232 161 557 395 720 520 l297 227 856 0 855 0 1103 -339 c606 -187
1143 -352 1192 -367 84 -27 112 -43 444 -272 l354 -243 1105 -96 1104 -95 292
93 c239 75 297 98 323 122 l33 31 237 -159 c546 -363 815 -567 1165 -881 157
-142 204 -192 423 -456 235 -282 248 -296 273 -288 28 8 163 67 170 75 2 2
-87 181 -199 397 l-204 393 -280 375 -281 375 -33 119 -32 118 21 54 c21 50
24 53 49 46 14 -4 44 -6 66 -5 22 1 119 6 216 10 l177 8 -100 145 c-56 80
-233 338 -394 574 l-294 429 -242 261 c-238 257 -247 265 -573 531 -181 149
-484 384 -672 524 -305 228 -386 282 -765 513 -383 234 -472 284 -943 523
l-520 263 -605 242 c-705 282 -1309 498 -2277 813 l-658 215 -1040 211 -1040
210 -1170 145 -1170 145 -1115 52 -1115 53 -3630 6 -3630 6 -65 36 c-53 29
-89 40 -191 57 -125 21 -151 21 -1531 21 l-1404 0 -226 -140z m-4811 -1926
c-3 -3 -12 -4 -19 -1 -8 3 -5 6 6 6 11 1 17 -2 13 -5z"/>
</g>
</svg>
