<?xml version="1.0" standalone="no"?>
<!DOCTYPE svg PUBLIC "-//W3C//DTD SVG 20010904//EN"
 "http://www.w3.org/TR/2001/REC-SVG-20010904/DTD/svg10.dtd">
<svg version="1.0" xmlns="http://www.w3.org/2000/svg"
   viewBox="0 0 4115.000000 1773.000000"
 preserveAspectRatio="xMidYMid meet">
<metadata>
Created by potrace 1.16, written by Peter Selinger 2001-2019
</metadata>
<g transform="translate(0.000000,1773.000000) scale(0.100000,-0.100000)"
fill="#000000" stroke="none">
<path d="M12423 17721 c-199 -4 -364 -9 -367 -12 -4 -3 -68 -181 -142 -395
l-136 -389 -78 -545 -77 -545 53 -112 53 -113 -351 0 c-345 0 -363 1 -962 55
l-611 55 -735 120 c-890 146 -897 147 -936 167 -17 9 -47 41 -66 72 -295 466
-331 528 -439 753 l-112 236 -244 176 c-201 145 -273 191 -404 256 l-159 80
-2871 0 -2872 0 7 -40 c3 -22 11 -63 17 -91 l11 -50 270 -226 c173 -144 389
-339 600 -542 l330 -316 -863 -5 -864 -5 -235 -93 c-129 -52 -236 -95 -237
-96 -1 -1 76 -76 173 -167 96 -90 195 -191 221 -224 25 -33 99 -114 165 -180
l119 -121 415 -869 416 -870 48 -350 c41 -296 50 -395 61 -641 12 -283 10
-353 -18 -461 -4 -18 1 -25 21 -33 22 -8 26 -16 26 -50 0 -46 -2 -48 -138
-115 l-81 -40 2 -124 2 -124 295 -79 c257 -69 407 -100 1165 -244 1041 -197
985 -185 985 -200 0 -6 -20 -332 -45 -725 -25 -393 -44 -727 -43 -743 3 -28 5
-29 223 -91 l220 -63 733 -46 732 -46 300 -242 301 -243 -98 -32 c-54 -17
-252 -82 -440 -144 -312 -102 -343 -114 -351 -137 -5 -17 2 -75 23 -185 l32
-160 -54 -81 c-52 -79 -53 -83 -53 -154 0 -74 39 -251 97 -445 19 -64 23 -91
15 -96 -17 -10 27 -142 46 -138 9 1 26 -32 51 -103 69 -192 149 -376 194 -446
44 -69 44 -69 128 -99 46 -16 87 -29 90 -28 7 2 12 -7 77 -147 27 -58 60 -115
73 -126 l24 -22 990 324 c544 179 994 323 1000 320 5 -2 161 -238 345 -524
l335 -519 1295 -810 1295 -810 562 -123 562 -123 1233 112 c678 61 1239 111
1247 111 12 0 13 85 9 550 -3 369 -2 547 5 543 6 -3 470 -372 1031 -818 l1021
-812 384 -151 c359 -142 388 -152 450 -152 l67 0 176 -332 c97 -183 310 -609
474 -947 289 -598 300 -619 413 -780 l116 -166 680 -238 680 -237 3205 -350
c3502 -383 5001 -540 5168 -540 83 0 226 17 636 77 l529 78 384 929 c211 511
382 930 381 931 -2 1 -50 11 -107 23 -57 12 -105 23 -108 25 -3 4 109 542 123
590 5 15 19 17 115 17 l109 0 0 210 0 210 23 -5 c12 -2 121 -18 242 -35 121
-17 318 -47 438 -67 128 -21 222 -32 227 -27 5 5 -12 33 -41 67 l-51 57 81 0
81 0 0 55 c0 42 -268 1660 -295 1781 l-5 22 868 7 867 7 40 59 40 59 132 0
131 0 33 -41 32 -41 1541 7 1541 8 128 43 127 44 461 0 460 0 80 51 c43 28 79
55 79 59 0 4 -36 31 -80 59 l-81 51 -461 0 -461 0 -126 44 -126 43 -1541 8
-1541 7 -32 -41 -33 -41 -131 0 -132 0 -40 59 -39 58 -695 6 c-382 4 -696 9
-698 10 -5 6 -126 847 -122 851 2 2 312 8 688 14 l684 10 36 -23 36 -24 1146
33 1145 33 37 24 c20 13 37 27 37 30 0 4 -17 18 -37 31 l-38 25 -1145 36
-1145 36 -38 -26 -37 -26 -698 13 c-396 7 -700 16 -703 22 -9 14 -31 199 -25
206 3 3 846 19 1872 36 l1866 31 22 26 c11 13 28 34 36 46 l15 22 1239 36
c719 21 1242 33 1245 27 3 -5 23 -30 45 -55 37 -46 40 -47 95 -47 31 0 689 31
1461 70 773 38 1411 70 1418 70 9 0 12 33 12 134 l0 134 -112 6 c-62 4 -725
34 -1473 67 l-1360 61 -47 -52 -47 -53 -1213 32 c-667 17 -1224 31 -1238 31
-20 0 -32 11 -58 54 l-32 54 -142 6 c-79 3 -973 15 -1988 26 -2225 24 -2485
29 -2415 45 41 9 50 14 48 30 -1 11 -24 122 -52 245 -49 219 -53 231 -133 403
l-83 177 -850 977 -849 978 -1236 947 c-679 521 -1845 1403 -2591 1960 -1236
923 -1430 1065 -2195 1596 l-839 583 -990 507 -990 508 -200 -28 c-110 -15
-219 -27 -243 -28 -23 0 -287 34 -585 75 l-542 75 -1465 356 -1465 356 -1199
234 -1200 234 -290 -2 c-160 -1 -454 -4 -653 -7z"/>
</g>
</svg>
