<?xml version="1.0" standalone="no"?>
<!DOCTYPE svg PUBLIC "-//W3C//DTD SVG 20010904//EN"
 "http://www.w3.org/TR/2001/REC-SVG-20010904/DTD/svg10.dtd">
<svg version="1.0" xmlns="http://www.w3.org/2000/svg"
   viewBox="0 0 4208.000000 2216.000000"
 preserveAspectRatio="xMidYMid meet">
<metadata>
Created by potrace 1.16, written by Peter Selinger 2001-2019
</metadata>
<g transform="translate(0.000000,2216.000000) scale(0.100000,-0.100000)"
fill="#000000" stroke="none">
<path d="M10175 22050 c-792 -60 -1800 -129 -2240 -155 l-800 -46 -951 -124
-951 -124 -679 -141 c-641 -133 -716 -151 -1349 -321 l-670 -181 -890 -424
-890 -424 -142 -10 -142 -9 -132 -68 -133 -68 -103 -360 c-56 -198 -103 -363
-103 -366 0 -10 410 -88 528 -101 l112 -11 0 -547 0 -547 178 -52 177 -52 64
-75 c36 -40 77 -85 91 -99 26 -25 49 -28 1346 -185 1113 -135 1526 -180 2649
-290 l1330 -131 380 -136 380 -135 435 12 435 12 62 60 c60 60 62 61 86 45 22
-14 296 -235 407 -328 51 -43 62 -45 979 -239 l464 -98 201 -199 c111 -109
228 -224 262 -256 l61 -58 737 -99 737 -100 370 95 c204 52 387 95 407 95 20
0 174 -14 342 -30 l305 -30 17 20 c9 12 37 44 63 72 l45 51 638 38 c350 21
647 38 658 39 14 0 93 69 227 198 l206 197 116 34 c111 33 119 37 168 88 l51
53 75 -6 c64 -5 155 -33 571 -180 l495 -174 295 36 295 36 474 -13 c465 -12
474 -13 500 -34 21 -18 195 -61 861 -215 l835 -192 269 6 268 6 722 -235 c854
-279 951 -313 1161 -398 202 -82 286 -107 363 -107 34 0 191 11 349 25 157 14
293 24 301 23 9 -2 29 -47 51 -118 l37 -115 -44 -235 c-41 -224 -49 -253 -173
-621 l-131 -386 -135 -119 c-74 -65 -144 -120 -156 -122 -12 -1 -222 34 -466
78 -244 45 -447 77 -452 73 -4 -4 -46 -100 -92 -213 -47 -113 -115 -274 -152
-359 -36 -84 -63 -157 -58 -161 14 -13 509 -302 873 -510 195 -111 523 -310
728 -442 292 -188 376 -237 387 -228 7 6 37 42 65 79 l52 69 342 -280 c187
-154 345 -284 350 -289 6 -5 1 -55 -12 -128 -12 -66 -22 -124 -22 -129 0 -6
154 -146 343 -311 321 -281 359 -319 617 -601 151 -166 286 -314 300 -330 l25
-30 90 68 90 69 428 -564 428 -565 -51 -78 -52 -79 332 -656 c183 -360 338
-655 344 -655 6 1 56 7 111 14 55 7 101 13 102 12 1 0 98 -272 216 -603 l216
-603 85 -109 c47 -59 90 -119 96 -132 6 -13 39 -124 74 -246 l63 -222 -88 -61
c-49 -33 -91 -65 -94 -70 -3 -4 26 -125 65 -268 65 -244 116 -500 102 -513 -4
-3 -74 -27 -157 -54 -82 -26 -298 -109 -480 -185 -273 -114 -402 -161 -745
-271 -228 -73 -420 -137 -427 -142 -6 -4 -98 -141 -204 -303 l-192 -296 -36 6
c-20 4 -205 54 -411 113 l-376 106 -1297 -599 -1297 -599 0 -90 c0 -66 13
-159 49 -350 166 -874 249 -1283 266 -1303 1 -1 286 20 632 48 347 27 638 50
648 50 16 0 17 -7 11 -73 -3 -40 -15 -108 -25 -150 -13 -56 -15 -80 -7 -82 6
-2 346 -58 756 -124 l745 -120 1550 -2 1550 -1 570 96 c314 53 573 98 576 99
4 1 -72 139 -167 307 -95 168 -173 310 -174 315 0 9 611 292 650 301 9 2 53
-47 120 -134 57 -75 142 -185 189 -243 l84 -107 106 28 c272 72 1097 313 1190
348 l104 39 176 -84 c97 -47 203 -98 237 -113 l60 -28 1661 567 1661 566 226
201 227 201 277 94 277 93 515 563 c357 389 521 562 535 562 11 0 128 -8 260
-18 143 -10 243 -13 246 -8 4 5 116 305 249 667 l242 658 182 63 c145 51 205
67 301 79 l120 15 75 400 c42 220 79 414 82 430 6 28 3 33 -46 65 l-54 34 -11
98 c-6 54 -11 109 -11 121 0 14 -11 29 -29 40 -19 11 -28 23 -25 35 2 9 42
215 89 456 47 242 90 443 97 447 6 4 47 10 92 14 l81 6 114 392 c63 216 117
401 121 412 8 20 10 20 376 5 203 -9 370 -16 371 -15 6 2 44 357 39 362 -3 3
-115 21 -249 41 l-245 36 -6 130 c-3 72 -9 238 -12 369 l-7 237 109 0 c155 1
806 18 810 22 2 2 10 130 19 283 9 154 17 281 18 282 1 1 93 5 204 9 l201 7
16 56 c8 31 62 241 121 467 l105 411 -234 404 -234 404 -340 195 -339 195
-542 425 -541 424 -413 188 c-226 104 -472 216 -545 250 l-132 61 -1003 974
-1002 974 -1275 853 -1275 853 -1330 812 -1330 812 -230 229 c-206 205 -241
235 -330 287 l-100 59 -219 -21 c-179 -18 -238 -20 -318 -12 l-98 10 -5 31
c-2 17 -9 101 -15 186 -6 85 -13 165 -16 177 -4 20 -89 50 -781 279 l-777 257
-58 -64 c-31 -35 -57 -67 -58 -71 0 -5 -5 -8 -10 -8 -6 0 -158 68 -338 151
-180 84 -421 194 -535 245 l-208 93 -185 -29 -186 -30 -1034 291 -1035 291
-206 121 -206 121 -207 46 -207 46 -108 -53 c-68 -33 -121 -53 -144 -53 -20
-1 -229 52 -466 116 l-430 116 3 67 3 67 -488 102 c-268 56 -491 102 -494 102
-4 0 -49 -67 -100 -150 -52 -82 -98 -150 -104 -150 -5 0 -158 30 -338 66
l-329 65 -133 82 c-126 77 -135 85 -169 143 l-35 62 -93 21 c-51 12 -143 33
-205 48 l-112 25 -93 -73 -93 -73 -780 77 c-754 75 -812 79 -1715 127 -800 43
-1120 55 -2215 84 -1123 30 -1442 35 -2605 39 l-1325 5 -1440 -108z m5118
-3030 c58 -32 68 -48 44 -69 -10 -8 -36 -6 -101 7 -47 9 -86 20 -86 25 0 4 0
32 0 63 l0 56 43 -25 c23 -13 68 -39 100 -57z m-6143 -1599 l455 -59 325 -125
c280 -107 343 -128 453 -147 70 -13 127 -27 127 -32 0 -4 -73 -44 -162 -89
l-162 -81 -286 17 c-469 27 -596 41 -812 88 l-197 42 -175 145 -175 145 77 78
c42 42 77 77 77 77 0 0 205 -27 455 -59z m7740 -681 c110 -8 257 -35 797 -147
364 -75 661 -138 660 -139 -1 -1 -43 -7 -92 -12 -59 -7 -209 -7 -440 0 l-350
10 -330 90 -330 90 -64 59 -64 59 39 0 c22 0 100 -4 174 -10z m-2095 -72 c35
-9 46 -20 83 -80 23 -38 42 -72 42 -77 0 -5 -31 -34 -70 -65 l-69 -56 -192 2
-192 3 164 147 c103 92 170 145 179 142 8 -3 33 -10 55 -16z m-955 -278 c-91
-3 -165 -5 -166 -5 -2 0 -44 73 -44 77 0 2 84 -12 187 -31 l187 -36 -164 -5z
m11266 -1798 c126 -71 325 -182 443 -247 198 -109 250 -144 698 -474 l485
-356 228 -380 229 -380 -203 -205 c-129 -130 -313 -333 -502 -555 -163 -192
-298 -351 -299 -353 -2 -1 -46 9 -99 24 l-97 27 -187 -87 -187 -86 -40 28
c-22 15 -89 61 -149 102 l-109 74 -160 -26 -159 -27 -382 291 c-209 159 -389
298 -399 307 -17 16 -14 25 57 179 41 89 78 171 81 182 5 15 -25 59 -124 186
-92 117 -131 175 -131 193 0 14 7 115 15 223 l15 198 116 317 c64 175 147 421
184 546 38 126 71 231 74 234 8 8 359 192 367 193 4 0 110 -58 235 -128z
m3018 -3079 c135 -222 246 -405 246 -407 0 -3 -143 -141 -317 -307 -175 -166
-319 -309 -321 -318 -3 -19 105 -778 113 -791 2 -4 178 -106 389 -225 283
-161 388 -226 400 -247 17 -28 17 -28 -26 -83 -32 -41 -74 -76 -160 -131
l-118 -76 -159 -5 -160 -6 -238 103 -238 103 -420 444 c-231 244 -464 490
-517 547 l-98 104 56 91 55 92 -142 182 c-79 100 -158 201 -176 224 l-34 41
110 97 111 98 -6 96 -7 97 464 204 c435 192 479 213 699 346 129 78 238 139
241 135 3 -3 117 -187 253 -408z m1497 -3009 c249 -58 561 -135 691 -170 130
-35 248 -64 262 -64 14 0 26 -3 26 -7 0 -10 199 -1588 213 -1691 l13 -93 -60
-48 c-34 -26 -117 -90 -185 -141 l-124 -94 8 -155 c4 -86 8 -159 8 -163 1 -4
-174 -200 -390 -436 l-392 -429 -122 -6 c-67 -4 -157 -7 -199 -7 l-78 0 -80
178 c-44 97 -86 191 -93 207 -8 17 -18 33 -24 37 -5 3 -44 33 -85 65 l-75 60
-64 217 -65 217 33 172 33 172 -295 615 -296 615 63 65 64 65 20 189 21 189
62 81 c136 176 141 181 253 252 129 82 364 211 387 213 8 1 220 -47 470 -105z"/>
</g>
</svg>
