<?xml version="1.0" standalone="no"?>
<!DOCTYPE svg PUBLIC "-//W3C//DTD SVG 20010904//EN"
 "http://www.w3.org/TR/2001/REC-SVG-20010904/DTD/svg10.dtd">
<svg version="1.0" xmlns="http://www.w3.org/2000/svg"
   viewBox="0 0 2322.000000 949.000000"
 preserveAspectRatio="xMidYMid meet">
<metadata>
Created by potrace 1.16, written by Peter Selinger 2001-2019
</metadata>
<g transform="translate(0.000000,949.000000) scale(0.100000,-0.100000)"
fill="#000000" stroke="none">
<path d="M9176 9468 c-3 -13 -6 -86 -6 -163 0 -110 28 -407 125 -1345 l124
-1205 7 -443 7 -442 -131 0 -132 0 0 -30 c0 -16 -3 -30 -6 -30 -4 0 -105 36
-226 81 -121 45 -224 77 -228 73 -5 -5 -38 -74 -74 -154 -37 -80 -72 -150 -79
-156 -9 -9 -287 -114 -301 -114 -2 0 -15 27 -30 60 -15 33 -34 60 -42 60 -10
0 -14 13 -14 50 l0 50 -570 0 -570 0 0 -52 c0 -34 -10 -79 -27 -125 l-28 -73
-125 0 c-102 0 -141 -5 -215 -25 l-90 -25 -581 0 c-494 0 -587 2 -617 15 -24
10 -70 15 -132 15 -62 0 -108 -5 -132 -15 -26 -11 -76 -15 -194 -15 l-159 0 0
25 0 25 -125 0 -125 0 0 -25 c0 -22 -4 -25 -40 -25 l-40 0 0 125 0 125 -185 0
-185 0 0 -125 0 -125 -625 0 -625 0 0 -30 0 -30 -908 0 -907 0 -99 140 c-54
77 -101 138 -103 136 -2 -2 30 -53 73 -113 42 -59 86 -121 97 -136 l19 -28
-383 1 c-211 1 -397 1 -412 1 -24 -1 -32 -9 -52 -53 -13 -29 -33 -59 -45 -66
-17 -10 -19 -16 -10 -27 8 -10 6 -23 -9 -54 -12 -22 -25 -42 -31 -46 -27 -16
2 -20 145 -16 l155 3 0 -356 0 -356 659 0 660 0 98 -137 c176 -246 196 -273
201 -268 3 2 -36 60 -85 127 -49 68 -113 157 -142 198 l-52 75 331 3 332 2
120 -95 c105 -82 126 -95 160 -95 l38 0 0 -160 0 -160 305 0 305 0 0 160 0
160 185 0 c178 0 185 -1 185 -20 0 -20 7 -20 725 -20 424 0 725 -4 725 -9 0
-18 65 -31 155 -31 90 0 155 13 155 31 0 5 343 9 830 9 487 0 830 -4 830 -9 0
-18 65 -31 155 -31 90 0 155 13 155 31 0 5 230 9 553 8 519 0 570 -2 857 -27
l305 -28 90 -65 90 -65 3 -157 3 -157 494 0 495 0 0 185 c0 167 2 190 20 225
22 43 32 47 70 26 23 -13 25 -19 22 -83 -1 -37 -36 -864 -78 -1838 -88 -2092
-91 -2185 -76 -2185 7 0 12 -7 12 -15 0 -12 13 -15 60 -15 47 0 60 3 60 15 0
8 9 15 20 15 11 0 20 6 20 13 0 6 36 858 80 1892 44 1034 80 1896 80 1916 l0
36 98 7 c53 4 125 9 158 13 l62 6 7 103 7 104 347 0 346 0 1292 165 c1180 150
1295 163 1320 150 20 -10 61 -15 138 -15 136 0 155 5 155 37 l0 24 328 -4
c265 -3 344 -7 415 -22 l87 -18 0 -108 0 -109 175 0 175 0 0 76 0 76 43 -6
c23 -4 147 -9 275 -12 l232 -6 0 -47 0 -46 58 -19 c47 -15 82 -18 182 -15 87
3 125 8 128 17 6 18 1578 18 1585 0 3 -10 42 -13 152 -13 110 0 149 3 153 13
3 9 168 12 782 12 614 0 779 -3 783 -12 5 -18 299 -18 305 0 2 7 23 12 58 12
l54 0 0 115 0 115 356 0 c281 0 355 -3 351 -12 -22 -58 -29 -132 -18 -181 31
-139 205 -186 343 -94 38 26 51 43 68 87 l21 56 -20 64 c-12 36 -21 68 -21 73
0 4 75 7 168 7 l167 0 88 -175 87 -175 0 -90 0 -90 221 0 c205 0 220 -1 215
-17 -16 -54 -16 -73 -3 -106 21 -48 58 -71 117 -70 78 1 144 70 126 133 -19
66 -27 60 83 60 l101 0 0 275 0 275 -56 0 -57 0 6 638 c5 537 8 645 21 686 9
27 16 62 16 78 0 23 4 28 25 28 24 0 25 -2 25 -65 l0 -65 34 0 c18 0 54 3 80
6 l46 7 0 58 0 59 85 0 85 0 0 41 c0 26 7 50 20 66 40 52 18 122 -47 150 -61
25 -123 -10 -136 -78 -2 -13 -5 427 -6 978 -1 750 -4 1004 -13 1009 -6 4 -44
9 -85 12 l-73 5 0 -1012 0 -1011 -155 0 c-141 0 -155 -2 -155 -18 0 -14 -52
-31 -302 -100 l-303 -83 -877 1 -878 0 0 80 0 80 -215 0 -215 0 0 -37 0 -38
-658 3 c-775 4 -798 4 -1368 -5 l-441 -8 -42 -37 -41 -38 -304 0 c-250 0 -309
3 -332 15 -40 21 -238 21 -278 0 -24 -13 -150 -15 -935 -15 -703 0 -910 3
-919 12 -21 21 -213 23 -271 4 -42 -13 -103 -16 -384 -16 l-334 0 -12 60 -12
60 -236 -2 -236 -3 -16 -55 -17 -55 -348 -3 c-269 -2 -352 1 -364 10 -25 21
-233 24 -273 4 -26 -13 -66 -16 -206 -16 l-173 0 -211 100 -211 100 -121 0
c-67 -1 -151 -7 -187 -15 -50 -11 -156 -14 -462 -15 l-398 0 0 -60 c0 -57 -1
-60 -24 -60 -13 0 -69 20 -123 46 l-99 45 -118 1164 -119 1164 32 451 c18 249
30 454 27 458 -3 3 -9 3 -12 -1 -3 -3 -19 -174 -34 -379 -15 -205 -28 -366
-29 -358 -1 8 -23 222 -49 475 l-47 460 -28 3 c-15 2 -27 8 -27 13 0 5 -26 9
-59 9 -52 0 -59 -2 -65 -22z m303 -3309 c1 -16 -4 -26 -14 -26 -13 0 -15 22
-14 141 l2 141 13 -115 c7 -63 13 -127 13 -141z m1 -49 c12 -7 10 -9 -8 -7
-12 0 -22 5 -22 9 0 11 12 10 30 -2z m-3 -28 c8 -5 33 -158 33 -207 0 -3 -11
-5 -25 -5 -24 0 -25 3 -25 58 0 31 -3 81 -6 110 -7 50 -2 60 23 44z m358 -128
c17 -7 24 -13 17 -14 -15 0 -142 57 -142 64 0 5 33 -8 125 -50z m-46 -10 c2
-2 -14 -4 -37 -4 -35 0 -42 3 -42 19 0 19 2 19 38 4 20 -8 39 -17 41 -19z"/>
<path d="M22917 4114 c-4 -4 -7 -333 -7 -731 l0 -723 85 0 85 0 0 575 0 575
-40 0 -39 0 -3 153 -3 152 -35 3 c-20 2 -39 0 -43 -4z"/>
</g>
</svg>
