<?xml version="1.0" standalone="no"?>
<!DOCTYPE svg PUBLIC "-//W3C//DTD SVG 20010904//EN"
 "http://www.w3.org/TR/2001/REC-SVG-20010904/DTD/svg10.dtd">
<svg version="1.0" xmlns="http://www.w3.org/2000/svg"
   viewBox="0 0 4945.000000 1162.000000"
 preserveAspectRatio="xMidYMid meet">
<metadata>
Created by potrace 1.16, written by Peter Selinger 2001-2019
</metadata>
<g transform="translate(0.000000,1162.000000) scale(0.100000,-0.100000)"
fill="#000000" stroke="none">
<path d="M9230 11604 c-784 -6 -1505 -12 -1602 -13 -158 -1 -178 -3 -178 -17
0 -15 -23 -16 -267 -10 -148 3 -319 9 -380 13 l-113 6 0 -236 c0 -231 0 -236
21 -239 17 -2 9 -12 -43 -49 l-63 -46 -180 -22 c-99 -12 -192 -24 -208 -27
l-27 -6 2 -526 3 -527 53 -8 52 -9 -1 -121 c-1 -235 -16 -747 -22 -753 -9 -9
-688 -184 -715 -184 -12 0 -30 -4 -40 -10 -9 -5 -62 -22 -117 -37 -99 -27
-104 -28 -470 -33 -267 -4 -376 -8 -392 -17 -16 -10 -518 -15 -2280 -23 -1242
-5 -2259 -10 -2260 -10 -2 0 -3 -11 -3 -25 l0 -25 233 0 c127 -1 1143 -5 2257
-10 1806 -7 2030 -10 2069 -24 35 -13 89 -16 272 -16 222 0 229 -1 229 -20 0
-19 -7 -20 -245 -20 -232 0 -245 -1 -245 -18 0 -17 12 -20 107 -25 58 -4 168
-7 243 -7 l137 0 6 -142 c4 -79 7 -329 7 -555 l0 -413 -425 0 c-418 0 -425 0
-425 20 0 19 -7 20 -90 20 -83 0 -90 -1 -90 -20 0 -20 -7 -20 -1750 -20 -1743
0 -1750 0 -1750 -20 0 -20 7 -20 1750 -20 1549 0 1750 -2 1750 -15 0 -12 17
-15 90 -15 73 0 90 3 90 15 0 13 54 15 425 15 277 0 425 -3 425 -10 0 -5 -17
-10 -37 -10 -21 0 -994 -27 -2162 -60 -1169 -33 -2142 -60 -2163 -60 l-38 0 0
-45 0 -45 -335 0 -335 0 0 -23 0 -24 242 -6 c133 -4 541 -7 907 -6 621 0 803
-4 2714 -68 1126 -37 2046 -71 2045 -75 -2 -4 -27 -25 -55 -46 l-52 -39 -188
-22 c-104 -12 -198 -24 -211 -27 l-22 -4 2 -527 3 -527 215 -36 215 -36 91
-57 c78 -49 98 -57 140 -57 27 0 93 -3 147 -7 l97 -6 0 -273 0 -273 55 -6 c30
-4 61 -5 68 -2 8 3 21 41 31 86 10 45 19 81 21 81 2 0 35 -12 73 -26 l69 -25
7 -106 c4 -58 12 -128 17 -154 10 -46 13 -49 42 -49 18 -1 1150 14 2517 31
l2485 32 85 -50 85 -51 516 -87 516 -88 534 153 534 152 892 12 c491 6 894 14
896 16 3 3 13 46 24 95 l19 90 165 3 c90 2 1273 25 2629 51 1356 26 2465 47
2466 47 2 -1 105 -899 104 -908 0 -5 -160 -8 -355 -8 l-355 0 -51 -70 c-28
-38 -56 -70 -62 -70 -7 -1 -82 -7 -167 -14 -141 -12 -156 -12 -165 3 -5 9 -21
36 -35 61 l-25 45 -145 -3 c-97 -2 -147 -7 -152 -15 -9 -14 -11 -521 -2 -566
l7 -32 145 3 146 3 35 59 35 59 110 -7 c61 -4 137 -9 169 -13 l59 -6 51 -70
51 -70 665 6 c367 4 1096 10 1623 14 l956 6 23 49 22 48 56 0 c31 0 1401 45
3044 100 1644 55 2999 100 3013 100 22 0 24 3 24 54 l0 53 -157 6 c-87 4
-1395 41 -2908 82 -1512 41 -2786 79 -2830 83 l-80 7 33 18 c31 17 92 19 820
27 433 5 874 9 980 10 157 0 192 3 192 14 0 16 -244 21 -1335 31 l-630 6 -52
30 c-50 27 -59 29 -165 29 l-113 0 30 29 30 29 1225 1 c674 1 1299 1 1390 0
91 -1 258 2 373 6 l207 7 0 53 0 53 -267 7 c-148 5 -315 7 -373 6 -58 -1 -656
-2 -1330 -1 l-1224 2 -63 59 -64 59 -144 0 -145 0 0 25 0 25 239 0 c232 0 240
1 282 24 l44 24 689 6 c380 4 692 9 695 11 2 3 2 7 -1 10 -3 3 -315 8 -694 12
-645 5 -691 7 -726 24 -33 17 -63 19 -274 19 l-237 0 6 38 c3 20 13 100 22
177 8 77 18 150 21 163 4 21 8 22 134 22 l130 0 0 55 0 55 -125 0 c-69 0 -125
1 -125 3 16 157 139 1129 143 1134 7 7 2174 -24 2345 -33 77 -5 102 -9 102
-20 0 -7 21 -19 48 -27 26 -8 499 -143 1052 -300 l1005 -286 2585 -130 2585
-130 2095 -326 c1152 -178 2112 -327 2132 -331 l37 -6 -52 -75 c-49 -71 -76
-94 -434 -370 -211 -162 -383 -298 -383 -301 0 -18 268 -844 276 -852 5 -5
207 -80 449 -168 l440 -159 1125 -258 1125 -259 437 -405 c268 -248 433 -408
425 -412 -6 -3 -217 -12 -467 -19 -317 -8 -457 -16 -462 -24 -30 -49 37 -45
-923 -56 -715 -9 -898 -13 -930 -25 -33 -11 -283 -15 -1475 -19 -789 -3 -1985
-9 -2657 -12 l-1223 -6 0 -23 0 -23 2458 -6 c2355 -5 2843 -11 2942 -35 28 -6
206 -10 461 -11 446 0 569 -5 569 -25 0 -9 96 -14 382 -19 243 -5 387 -11 395
-18 8 -6 232 -17 605 -28 693 -22 746 -25 770 -47 18 -16 17 -17 -4 -41 -13
-13 -36 -33 -52 -45 l-30 -21 -1840 -11 c-1786 -12 -1842 -11 -1878 7 -36 18
-53 18 -535 3 -274 -9 -522 -18 -550 -21 l-53 -5 0 -78 0 -77 546 -18 c524
-17 548 -17 586 0 37 17 117 17 1796 7 l1757 -11 55 -31 c47 -26 66 -31 124
-31 l69 0 63 -60 62 -60 209 0 209 0 313 -290 314 -290 97 0 c114 0 6467 -156
6706 -164 l161 -6 -163 445 c-145 393 -164 451 -164 505 l0 61 -481 791 c-418
688 -565 919 -1126 1767 l-646 976 -248 532 -249 532 -320 1211 c-188 711
-347 1333 -384 1504 -71 326 -132 513 -170 521 -12 2 -203 15 -426 30 -589 37
-533 29 -557 79 -21 42 -21 42 -2 251 10 116 20 227 23 248 l4 38 -5831 -6
c-5637 -6 -5945 -6 -9212 19 -1859 13 -3380 24 -3381 23 -1 -1 -6 -72 -11
-157 l-8 -155 -65 3 c-36 1 -849 43 -1808 92 -958 50 -1771 90 -1807 90 -39 0
-234 -32 -492 -81 l-428 -81 -1395 21 c-1138 17 -1793 33 -3560 87 l-2165 66
-157 49 -158 50 0 234 0 235 -240 0 -240 0 -2 493 c-1 270 0 519 1 553 l3 61
-115 23 -115 22 -7 48 -7 48 -281 6 c-155 3 -469 8 -697 11 -228 3 -441 8
-472 11 l-57 6 -3 -39 -3 -38 -92 0 c-51 0 -279 1 -507 3 l-414 2 -4 55 -3 55
40 0 c22 0 335 14 695 30 360 16 661 30 668 30 6 0 12 11 12 24 0 22 -4 24
-87 29 -49 4 -368 14 -710 24 l-623 17 0 83 0 83 -72 -2 c-40 0 -714 -7 -1498
-14z m3620 -619 l0 -45 -325 0 -325 0 0 45 0 45 325 0 325 0 0 -45z m7451
-2142 l465 -6 167 -495 c92 -273 165 -498 162 -500 -6 -6 -1399 16 -1500 24
l-71 5 -84 187 c-46 103 -144 319 -217 481 -73 161 -130 297 -127 302 6 11
550 12 1205 2z m-1397 -43 c6 -19 76 -237 157 -484 l147 -448 -121 6 c-67 3
-309 8 -537 11 -228 3 -447 8 -487 11 l-72 6 -64 121 c-64 121 -64 122 -124
152 -34 17 -137 77 -231 134 l-170 105 -85 188 -85 188 37 1 c20 0 362 11 761
24 399 12 756 22 795 21 l69 -1 10 -35z m3769 -47 c14 -43 98 -276 186 -517
89 -242 159 -441 158 -443 -4 -3 -929 19 -1394 33 l-202 6 -223 491 c-123 270
-224 494 -226 499 -2 4 374 8 836 8 l840 0 25 -77z m1740 59 l119 -7 34 -100
c19 -55 103 -293 187 -530 85 -236 153 -431 153 -432 -2 -2 -1459 36 -1524 39
l-43 3 -228 480 c-125 264 -237 498 -248 521 l-21 40 726 -4 c400 -2 780 -7
845 -10z m1654 -16 c2 -2 -10 -233 -27 -514 -16 -281 -30 -525 -30 -542 l0
-32 -72 6 c-40 3 -217 8 -393 12 l-320 7 -204 446 c-113 245 -224 488 -248
540 l-44 94 667 -6 c367 -4 669 -9 671 -11z m-9006 -103 c15 -46 26 -83 24
-83 -4 0 -267 159 -275 167 -2 2 47 2 110 1 l113 -3 28 -82z m1994 -2114 c908
-10 1689 -22 1737 -25 l86 -7 6 -41 c17 -121 127 -1098 125 -1100 -3 -2 -4103
84 -4494 94 -49 2 -48 2 50 29 l100 28 7 54 c3 30 6 267 7 527 l1 473 363 -6
c199 -3 1105 -15 2012 -26z m-3105 -984 l0 -86 -87 3 -86 3 -14 60 c-7 33 -15
70 -18 83 -5 22 -4 22 100 22 l105 0 0 -85z m-9431 -59 c-12 -10 -59 -15 -59
-6 0 5 14 10 32 10 17 0 29 -2 27 -4z"/>
</g>
</svg>
