<?xml version="1.0" standalone="no"?>
<!DOCTYPE svg PUBLIC "-//W3C//DTD SVG 20010904//EN"
 "http://www.w3.org/TR/2001/REC-SVG-20010904/DTD/svg10.dtd">
<svg version="1.0" xmlns="http://www.w3.org/2000/svg"
   viewBox="0 0 3256.000000 4704.000000"
 preserveAspectRatio="xMidYMid meet">
<metadata>
Created by potrace 1.16, written by Peter Selinger 2001-2019
</metadata>
<g transform="translate(0.000000,4704.000000) scale(0.100000,-0.100000)"
fill="#000000" stroke="none">
<path d="M14934 46947 l-160 -94 -530 8 c-291 4 -824 8 -1186 8 l-656 1 -169
-222 c-94 -123 -176 -232 -183 -244 -10 -17 -10 -42 4 -145 9 -68 19 -139 22
-156 l6 -33 -1810 0 -1809 0 -300 175 -300 175 -1374 0 -1374 0 -118 -127
-117 -127 0 -133 0 -133 243 -2 242 -3 -190 -97 -190 -96 -316 -319 -317 -318
-205 -404 -206 -404 -70 -447 -71 -447 71 -449 71 -449 205 -400 204 -400 322
-323 322 -323 403 -205 403 -205 432 -70 c238 -38 446 -69 463 -69 17 0 226
31 465 70 l434 69 400 203 400 203 318 315 c309 306 318 314 345 304 25 -10
1509 -664 1576 -695 l29 -13 -139 -132 -139 -133 23 -23 22 -23 -130 -130
-131 -131 -273 -537 -273 -536 -58 -411 -58 -410 -43 0 -44 0 -2 -181 -3 -181
-47 64 c-26 35 -77 93 -115 130 l-68 67 -997 12 -998 12 -49 -39 c-28 -21
-246 -192 -485 -379 l-434 -340 -12 -55 c-6 -30 -13 -62 -16 -71 -3 -11 -348
-97 -1432 -353 l-1427 -338 -679 -301 -679 -301 -184 -230 -185 -230 5 -316
c2 -173 7 -324 11 -335 4 -11 151 -116 329 -236 l322 -216 168 8 c92 4 402 10
690 14 l522 7 660 -77 c363 -43 663 -81 668 -85 4 -3 -87 -33 -203 -66 l-210
-59 -1763 -1296 c-2010 -1478 -1789 -1296 -1865 -1540 -32 -105 -42 -151 -42
-205 l0 -70 -271 -514 c-162 -307 -291 -565 -320 -640 l-49 -125 -130 -1574
-129 -1574 172 -179 c95 -99 180 -184 189 -189 9 -5 74 -9 145 -10 70 -1 171
-4 223 -8 l95 -6 79 -58 c47 -33 89 -57 104 -57 14 0 930 194 2036 431 1168
250 2021 428 2036 425 14 -3 243 -93 509 -199 l485 -195 26 -114 27 -115 -732
-434 -731 -434 -61 -75 c-33 -41 -90 -128 -126 -193 l-66 -118 -7 -112 c-6
-112 -6 -113 -127 -444 l-121 -333 42 -1567 41 -1568 30 -103 c16 -57 34 -109
40 -116 15 -18 163 -117 248 -165 l71 -41 74 -174 c71 -170 74 -175 109 -185
20 -6 48 -11 62 -11 14 0 583 78 1264 174 681 96 1253 176 1272 178 l34 3 63
-275 c36 -151 62 -279 60 -285 -2 -5 -161 -149 -353 -320 l-350 -310 -30 -81
-30 -82 50 -1412 49 -1413 305 -366 c168 -201 311 -371 317 -378 6 -7 184 -58
395 -114 l384 -101 139 37 c77 20 145 38 152 41 8 3 22 -36 42 -125 l31 -130
-81 -21 c-45 -12 -105 -28 -135 -37 l-53 -15 -55 -117 c-31 -64 -68 -143 -83
-177 l-28 -61 142 -28 c77 -15 146 -32 152 -36 5 -5 81 -203 169 -442 l158
-434 351 -66 c193 -36 911 -184 1596 -328 1203 -253 1246 -263 1270 -290 14
-15 900 -1238 1970 -2718 l1945 -2690 147 0 146 -1 85 116 85 115 105 -173
c58 -95 211 -348 341 -563 l236 -390 0 -378 0 -377 228 -473 227 -473 365
-291 c201 -161 386 -308 412 -328 45 -35 61 -40 545 -150 274 -63 507 -115
518 -115 10 0 188 39 395 86 l375 85 1720 -992 c946 -545 1724 -995 1729 -999
4 -5 35 -131 68 -282 32 -150 62 -276 66 -280 4 -3 756 -504 1671 -1112 l1663
-1105 181 167 c99 92 205 190 235 217 l55 51 -156 119 c-129 99 -158 125 -162
150 -3 17 -358 2672 -790 5900 l-784 5870 -11 459 c-5 253 -9 461 -7 462 1 1
906 -398 2010 -887 1105 -489 2011 -889 2013 -889 11 0 75 153 67 161 -4 4
-568 257 -1252 561 l-1245 553 -45 111 -46 112 -211 184 -211 184 -559 248
c-307 137 -563 252 -567 256 -8 7 -59 371 -54 377 1 1 252 -108 556 -243 305
-134 558 -244 563 -244 13 0 79 143 70 151 -4 3 -275 124 -602 269 -327 144
-600 267 -606 274 -13 13 -89 634 -79 644 3 4 173 14 377 22 359 16 370 17
386 38 l17 22 900 -396 c495 -217 914 -401 932 -409 l31 -13 37 75 c20 41 34
77 32 80 -4 3 -1609 716 -1839 816 l-27 12 47 108 c34 79 51 107 62 104 8 -2
1373 -606 3032 -1341 1659 -735 3019 -1336 3021 -1336 5 0 77 156 77 167 0 4
-1362 613 -3028 1352 -1665 739 -3028 1345 -3030 1347 -2 1 9 30 23 64 15 35
23 66 18 70 -4 4 -285 129 -623 279 -338 150 -616 274 -617 275 -2 1 -79 619
-172 1372 -156 1262 -182 1495 -331 2991 l-161 1622 40 659 40 660 234 680
235 680 669 1098 c369 605 675 1108 680 1119 6 11 202 517 437 1125 l426 1105
324 1685 324 1685 52 625 51 625 44 2178 43 2177 -123 485 -123 485 -246 309
-246 309 -878 659 -877 659 -751 452 c-750 451 -752 452 -1628 912 -483 253
-1223 634 -1644 847 -749 377 -780 394 -1332 721 l-565 335 -161 -6 -161 -6
-165 337 c-91 185 -163 339 -161 342 3 3 32 7 66 10 l62 5 52 70 c29 39 53 73
53 77 0 3 -165 79 -367 168 -400 177 -1332 598 -2164 978 l-525 240 -630 6
-629 7 -161 -94z m-1875 -2497 l22 -40 -230 0 -231 0 0 -85 0 -85 -1582 1
-1583 0 -55 115 c-30 64 -56 120 -58 125 -2 5 731 9 1845 9 l1849 0 23 -40z
m78 -1565 l518 -305 291 0 292 0 259 -413 c258 -409 261 -414 282 -506 11 -51
21 -97 21 -102 0 -5 -76 29 -169 76 l-170 84 -400 76 c-220 41 -402 75 -405
75 -3 0 -6 18 -6 40 l0 40 -370 0 -370 0 0 -35 c0 -19 -3 -35 -7 -35 -5 0
-189 -29 -410 -64 l-402 -64 -215 -110 -215 -110 -1098 464 c-604 256 -1101
468 -1104 472 -5 5 101 695 110 720 1 1 687 2 1525 2 l1525 0 518 -305z"/>
</g>
</svg>
