<?xml version="1.0" standalone="no"?>
<!DOCTYPE svg PUBLIC "-//W3C//DTD SVG 20010904//EN"
 "http://www.w3.org/TR/2001/REC-SVG-20010904/DTD/svg10.dtd">
<svg version="1.0" xmlns="http://www.w3.org/2000/svg"
   viewBox="0 0 4478.000000 1425.000000"
 preserveAspectRatio="xMidYMid meet">
<metadata>
Created by potrace 1.16, written by Peter Selinger 2001-2019
</metadata>
<g transform="translate(0.000000,1425.000000) scale(0.100000,-0.100000)"
fill="#000000" stroke="none">
<path d="M16322 14241 c-55 -5 -66 -10 -77 -31 l-13 -25 -989 -105 -988 -106
2 -67 c1 -37 -1 -67 -5 -67 -10 0 -3521 -419 -3549 -423 -20 -4 -23 1 -29 56
l-7 59 -71 -6 c-39 -4 -86 -9 -103 -13 l-33 -5 0 -62 0 -61 -322 -34 c-178
-18 -335 -36 -350 -38 l-28 -5 0 61 c0 33 -2 61 -5 61 -9 0 -1106 -129 -1865
-219 -415 -50 -811 -96 -880 -103 l-125 -13 1 -81 1 -81 -171 -17 c-94 -10
-178 -19 -187 -22 -13 -4 -17 8 -23 68 -3 39 -8 74 -10 76 -6 5 -854 -111
-867 -118 -12 -8 96 -383 239 -830 61 -190 145 -455 186 -590 42 -134 79 -247
84 -251 4 -4 135 -60 292 -124 157 -64 286 -118 287 -119 2 -2 -18 -17 -43
-35 l-45 -33 -168 4 -168 3 -6 -419 c-4 -230 -9 -421 -12 -424 -5 -5 -301 -51
-1343 -208 l-573 -86 -135 132 -136 131 -141 -5 c-78 -3 -632 -8 -1232 -12
-599 -3 -1092 -7 -1094 -9 -2 -2 -12 -50 -22 -106 -10 -56 -20 -103 -22 -105
-1 -2 -344 -44 -762 -94 -418 -50 -770 -93 -781 -95 -20 -4 -22 -13 -27 -107
l-5 -103 329 -976 329 -977 76 -130 c76 -128 77 -130 118 -135 23 -3 307 -31
631 -63 l590 -58 129 -343 128 -343 881 2 881 3 132 459 c73 252 135 460 137
462 2 2 426 -59 942 -136 516 -77 944 -140 951 -140 9 0 13 -238 18 -1042 3
-574 9 -1096 12 -1161 l6 -117 170 0 170 0 781 -361 782 -362 1334 -91 c989
-68 1335 -94 1339 -104 2 -7 -4 -92 -13 -190 l-16 -177 521 -1084 520 -1084 0
-171 0 -171 143 -350 142 -349 154 -108 154 -108 96 0 c53 0 819 -7 1703 -16
l1607 -15 163 117 c90 64 168 123 174 130 6 7 51 131 100 275 l89 261 825 -7
825 -7 100 32 c89 28 105 36 145 79 l45 48 1095 22 c1018 20 1100 23 1175 42
74 18 168 22 1190 47 1278 32 1279 32 -120 62 -822 18 -954 23 -1050 40 -98
17 -234 22 -1200 42 l-1090 22 -45 48 c-38 41 -58 52 -135 78 l-90 31 -734 -1
c-588 0 -732 2 -729 12 3 7 54 156 114 330 l109 317 98 38 c54 20 101 41 104
46 3 6 57 172 118 371 l113 361 2600 3 2600 2 225 -392 c124 -216 265 -465
315 -553 l89 -160 1419 -6 c781 -3 1912 -7 2514 -7 l1095 -1 230 214 230 215
-3 77 c-3 73 -125 1124 -138 1187 l-6 29 1305 -8 1305 -7 113 37 c108 34 117
40 169 94 l55 58 1925 27 c1787 26 1932 29 2020 47 85 17 247 23 1490 54 767
19 1397 35 1400 36 3 1 -625 19 -1395 39 -1278 35 -1409 40 -1505 59 -100 19
-189 21 -2020 47 l-1915 26 -55 58 c-52 56 -61 61 -167 95 l-112 36 -1346 -7
c-740 -4 -1345 -5 -1346 -3 0 2 -10 84 -23 182 l-22 177 61 0 c33 0 1140 -7
2460 -15 l2399 -14 186 60 185 60 87 92 87 91 3073 43 3073 42 175 35 175 36
1050 26 c578 14 1074 24 1103 22 l53 -3 372 -459 372 -460 345 3 c190 1 346 4
348 5 1 2 -85 214 -192 472 -107 258 -194 469 -193 471 2 1 281 9 622 18 341
9 621 17 622 19 2 1 -283 9 -632 16 -432 9 -638 17 -644 24 -8 11 -1163 2787
-1239 2980 -21 54 -45 102 -53 106 -8 5 -258 107 -556 229 l-541 220 -2744
622 -2743 622 -280 13 c-154 7 -506 13 -782 13 l-503 1 0 -175 c0 -96 -4 -175
-8 -175 -5 0 -270 27 -590 60 -320 33 -593 60 -605 60 -22 0 -24 -6 -34 -81
-6 -44 -13 -83 -16 -86 -3 -3 -62 1 -130 9 l-125 14 -7 -93 c-4 -52 -10 -104
-13 -116 l-7 -23 -640 63 c-352 34 -652 62 -667 62 l-28 1 0 114 0 113 -67 7
c-38 4 -84 9 -104 12 l-36 6 -5 -51 c-3 -28 -7 -53 -9 -56 -10 -9 -2774 286
-2781 297 -3 7 -10 33 -13 59 l-7 47 -81 6 c-45 4 -92 10 -104 13 -22 5 -23 3
-23 -66 l0 -72 -32 5 c-18 3 -85 10 -148 16 -63 6 -115 12 -117 14 -6 6 -165
1346 -187 1581 -15 155 -36 311 -53 386 l-27 125 -255 190 c-140 104 -260 192
-267 197 -8 4 -55 -28 -129 -88 -96 -78 -123 -95 -151 -95 -18 0 -1114 -41
-2436 -90 l-2402 -90 -87 86 -86 85 -544 -20 c-299 -11 -601 -24 -671 -27
l-128 -7 0 -403 c0 -358 -2 -404 -15 -404 -9 0 -332 46 -718 101 l-702 102
-669 -28 c-455 -19 -670 -24 -675 -17 -3 5 -129 473 -279 1039 -150 565 -321
1193 -379 1396 l-106 367 -156 -2 c-86 -1 -185 -4 -219 -7z m-9510 -3109 l56
-27 -69 -48 -69 -47 0 44 c0 51 10 106 19 105 3 0 31 -13 63 -27z m27248
-4097 l0 -365 -157 0 -158 -1 -110 -57 -110 -57 -3 -42 c-3 -43 -4 -43 -41
-43 -54 0 -131 62 -131 105 0 17 -3 54 -7 83 -6 52 -8 54 -96 130 l-91 77
-560 207 c-309 114 -559 208 -556 208 4 1 1899 114 1998 119 l22 1 0 -365z
m5973 -671 c60 -80 106 -148 103 -151 -3 -3 -409 4 -903 16 -876 21 -901 23
-1003 46 -92 22 -129 25 -302 25 -109 0 -198 3 -198 6 0 3 21 41 47 85 39 64
53 79 73 80 14 0 464 9 1000 18 536 10 998 19 1025 19 l50 1 108 -145z m475
-629 l318 -420 275 -6 c151 -4 462 -7 691 -8 l417 -1 84 -102 c47 -57 84 -104
83 -105 -1 -1 -474 9 -1051 23 l-1050 24 -175 35 -175 36 -3073 42 -3073 42
-87 92 -87 92 -186 60 -187 60 -2373 -14 c-1306 -8 -2442 -15 -2525 -15 l-152
0 -7 68 c-3 37 -9 77 -12 89 l-5 21 2594 -5 2593 -5 50 51 49 51 237 0 237 0
18 -50 18 -50 77 0 77 0 51 46 51 46 0 94 0 94 188 0 c103 0 277 3 387 6 l200
5 185 -174 184 -174 898 -7 898 -7 206 193 c113 106 216 196 227 200 12 3 140
6 284 7 223 1 278 4 370 22 99 19 188 23 1023 44 503 12 918 22 923 21 4 -1
150 -190 325 -421z"/>
</g>
</svg>
