<?xml version="1.0" standalone="no"?>
<!DOCTYPE svg PUBLIC "-//W3C//DTD SVG 20010904//EN"
 "http://www.w3.org/TR/2001/REC-SVG-20010904/DTD/svg10.dtd">
<svg version="1.0" xmlns="http://www.w3.org/2000/svg"
   viewBox="0 0 3486.000000 1513.000000"
 preserveAspectRatio="xMidYMid meet">
<metadata>
Created by potrace 1.16, written by Peter Selinger 2001-2019
</metadata>
<g transform="translate(0.000000,1513.000000) scale(0.100000,-0.100000)"
fill="#000000" stroke="none">
<path d="M9035 15076 c-179 -44 -255 -69 -510 -171 -211 -83 -356 -148 -488
-218 l-188 -100 -735 62 c-701 59 -736 63 -776 86 -50 29 -87 31 -133 9 -32
-15 -82 -12 -817 50 -566 48 -2291 176 -2364 176 -2 0 -4 -6 -4 -12 0 -9 69
-26 208 -51 114 -22 228 -43 255 -49 l47 -10 0 -64 c0 -58 2 -64 23 -69 12 -2
372 -50 799 -105 652 -84 805 -107 948 -141 l170 -41 -30 -59 c-27 -52 -34
-59 -60 -59 -16 0 -261 18 -546 40 l-516 40 -123 74 c-127 77 -158 85 -169 43
-3 -11 2 -36 10 -55 8 -19 13 -37 11 -38 -2 -2 -119 5 -261 17 l-257 20 -120
73 c-88 54 -125 72 -144 68 -30 -5 -33 -34 -10 -88 l15 -36 -58 6 c-31 3 -148
13 -260 22 l-203 15 -123 74 c-134 81 -166 88 -166 34 0 -15 5 -40 12 -54 6
-14 9 -27 7 -29 -2 -2 -546 38 -1209 89 -663 51 -1206 92 -1207 91 -1 -1 -17
-120 -34 -263 l-32 -261 129 -136 129 -136 760 -466 c418 -257 761 -468 762
-469 2 0 81 -230 177 -511 134 -393 178 -510 191 -513 10 -1 665 -83 1456
-180 791 -97 1441 -179 1443 -182 3 -3 -23 -72 -58 -153 l-64 -148 -70 -57
c-38 -31 -77 -71 -86 -88 l-16 -33 -82 0 c-46 1 -623 11 -1283 24 -867 17
-1202 20 -1208 12 -4 -6 -6 -29 -5 -51 3 -39 3 -40 58 -52 30 -6 683 -66 1450
-132 767 -67 1414 -123 1436 -126 38 -5 42 -9 47 -38 2 -18 4 -33 3 -34 -3 -3
-1283 -233 -1296 -233 -6 0 -10 -32 -10 -75 l0 -75 -215 0 -215 0 0 -93 c0
-84 13 -150 121 -623 66 -291 174 -770 239 -1064 66 -294 122 -546 125 -559
l6 -24 122 6 123 6 269 -269 270 -270 620 0 620 0 156 -332 155 -333 271 -5
271 -5 614 -764 615 -764 -9 -36 c-36 -148 -1166 -5157 -1163 -5159 8 -8 301
-48 305 -41 3 4 295 1064 650 2356 l645 2349 461 -574 462 -574 483 -334 483
-335 20 33 c11 18 21 34 22 36 1 2 51 -21 111 -51 90 -45 152 -67 357 -122
232 -62 249 -65 266 -50 17 16 24 14 107 -23 l89 -39 17 23 c16 22 14 25 -168
251 -153 189 -206 247 -310 338 -117 102 -150 139 -427 489 -232 293 -294 377
-274 372 14 -3 173 -40 353 -82 180 -41 336 -77 345 -80 13 -4 33 19 83 96 38
59 71 100 78 97 7 -3 1448 -919 3202 -2037 1755 -1118 3195 -2034 3201 -2037
6 -2 29 24 51 59 l40 64 -3209 2043 c-1764 1124 -3208 2047 -3208 2050 0 4 6
16 14 27 13 18 -1 33 -232 243 l-247 223 -35 -43 c-19 -23 -44 -53 -55 -67
l-20 -23 -418 267 c-230 146 -422 262 -427 258 -4 -5 -24 -34 -43 -64 l-35
-56 414 -263 414 -263 -47 -59 c-26 -33 -61 -76 -78 -96 l-31 -36 -166 38
-167 38 -56 51 c-55 50 -1058 1309 -1046 1313 3 1 449 -46 991 -106 l985 -108
63 39 62 38 1408 -151 1407 -151 95 -76 c52 -43 192 -137 310 -210 118 -74
250 -161 292 -193 l78 -60 931 -194 932 -194 376 -135 376 -135 455 -70 455
-70 410 10 c405 10 413 10 655 49 135 22 778 116 1430 210 888 128 1583 235
2775 430 l1590 260 2575 240 c1416 132 3266 298 4110 370 844 71 1596 135
1670 141 104 9 146 17 180 35 25 12 205 67 400 122 195 55 407 115 470 133
101 28 134 43 272 128 l158 96 0 61 c0 33 3 129 7 212 l6 152 36 -6 c32 -5 38
-2 54 24 14 25 17 55 17 174 0 165 -3 172 -78 184 -40 6 -42 8 -42 43 -1 36
-2 37 -148 126 -115 70 -170 97 -252 123 -311 99 -500 160 -627 205 l-142 49
-3 47 -3 46 -50 3 c-104 5 -106 6 -180 102 -66 84 -73 90 -120 100 -27 6 -718
53 -1535 105 l-1484 94 -137 -31 -138 -31 -2498 126 c-2186 111 -2530 131
-2753 157 -140 17 -277 37 -304 45 -44 13 -2395 344 -2911 410 -150 19 -240
36 -360 70 l-160 45 -610 60 c-335 33 -800 81 -1033 105 -232 25 -438 45 -456
45 -26 0 -41 8 -65 35 -21 25 -171 113 -505 299 l-475 264 -685 158 c-377 87
-684 159 -683 160 1 1 2023 -200 4492 -447 2470 -247 4496 -449 4503 -449 8 0
11 -7 8 -18 -5 -16 14 -20 211 -44 119 -15 218 -26 218 -25 1 1 45 59 99 130
54 70 101 142 106 160 5 17 14 78 20 135 l12 102 100 0 100 0 -6 43 -7 43 231
307 c126 168 230 310 230 314 0 5 -25 73 -55 152 -30 79 -55 147 -55 151 0 13
403 365 407 354 2 -5 100 -207 219 -449 118 -242 317 -648 441 -902 125 -255
230 -463 234 -463 4 0 16 8 28 18 20 17 20 18 -260 622 -400 863 -519 1126
-545 1202 l-23 68 57 49 56 50 -74 388 -75 388 -43 3 c-43 3 -71 30 -56 53 15
25 -100 119 -224 185 l-122 65 -348 59 c-704 119 -789 136 -1092 225 l-285 83
-1824 292 -1823 291 -313 179 c-172 99 -318 180 -324 180 -6 0 -11 -18 -11
-42 l1 -43 134 -105 c74 -57 133 -105 132 -106 -1 -2 -162 23 -357 55 l-355
58 -306 176 c-168 97 -314 177 -323 177 -12 0 -16 -9 -16 -38 0 -37 4 -41 127
-138 70 -54 134 -104 142 -111 13 -9 11 -10 -9 -7 -14 3 -176 29 -360 58
l-335 54 -315 181 c-173 100 -318 181 -322 181 -4 0 -8 -20 -8 -43 l0 -44 131
-102 c72 -57 129 -105 127 -107 -3 -2 -161 22 -352 52 l-348 56 -311 179
c-170 99 -316 179 -324 179 -9 0 -13 -13 -13 -40 0 -39 3 -42 112 -127 157
-124 168 -133 143 -128 -11 3 -679 111 -1485 240 l-1465 235 -996 95 c-548 52
-1050 100 -1115 106 l-119 12 -385 198 -385 198 -180 45 c-99 24 -202 47 -230
50 -27 4 -416 51 -864 106 -755 93 -826 100 -985 99 l-171 -1 -210 -52z m6934
-4528 c-4 -29 -8 -61 -8 -70 -1 -15 -10 -18 -48 -17 -27 1 -61 4 -76 8 -27 6
-26 8 55 68 46 34 83 62 84 63 0 0 -3 -24 -7 -52z m-579 -164 c96 -8 234 -19
305 -24 242 -18 245 -18 245 -48 0 -29 -19 -164 -23 -168 -2 -3 -890 199 -921
209 -5 2 22 15 60 29 50 19 81 25 114 22 25 -2 124 -11 220 -20z"/>
</g>
</svg>
