<?xml version="1.0" standalone="no"?>
<!DOCTYPE svg PUBLIC "-//W3C//DTD SVG 20010904//EN"
 "http://www.w3.org/TR/2001/REC-SVG-20010904/DTD/svg10.dtd">
<svg version="1.0" xmlns="http://www.w3.org/2000/svg"
   viewBox="0 0 4370.000000 4111.000000"
 preserveAspectRatio="xMidYMid meet">
<metadata>
Created by potrace 1.16, written by Peter Selinger 2001-2019
</metadata>
<g transform="translate(0.000000,4111.000000) scale(0.100000,-0.100000)"
fill="#000000" stroke="none">
<path d="M18572 41103 c-16 -3 -23 -10 -20 -21 3 -9 96 -415 207 -902 111
-487 283 -1238 382 -1670 98 -432 179 -791 179 -797 0 -10 -327 -13 -1600 -13
l-1600 0 0 -565 0 -565 -2428 0 -2427 0 -1245 -1390 -1244 -1390 -3256 0
-3256 0 -54 56 c-54 54 -56 55 -106 52 l-52 -3 -248 240 c-137 132 -296 285
-354 341 l-105 101 -28 -32 -27 -33 335 -323 c326 -314 335 -324 335 -361 0
-36 7 -46 100 -134 l100 -96 0 -112 -1 -111 -1079 -1630 -1080 -1630 0 -757 0
-758 245 0 245 0 0 -135 0 -135 178 0 177 -1 187 -166 188 -167 0 -303 0 -303
-30 0 -30 0 0 170 0 170 -360 0 -360 0 0 -948 0 -949 70 -27 70 -28 0 -996 -1
-997 -54 -33 -55 -33 0 -935 0 -934 345 0 345 0 0 165 0 165 30 0 30 0 0 -300
0 -300 969 0 c533 0 971 -4 973 -9 1 -4 28 -17 58 -28 l55 -21 130 29 130 29
786 0 c470 0 789 -4 795 -9 5 -5 32 -19 60 -30 l51 -19 129 28 129 29 793 1
c435 0 792 -4 792 -9 0 -4 25 -17 55 -28 l55 -21 132 29 132 29 677 0 676 0
147 -55 146 -55 364 0 364 0 51 -57 51 -58 0 -1060 0 -1060 93 -93 92 -92 177
0 177 0 653 -606 c359 -334 658 -609 665 -611 7 -3 47 27 90 66 l77 71 2496 0
2497 0 6 -577 c4 -318 7 -1047 7 -1620 l0 -1042 -37 -6 c-80 -14 -73 16 -73
-300 l0 -284 38 -6 c71 -12 69 -10 76 -92 3 -42 6 -489 6 -993 0 -769 -2 -919
-14 -923 -7 -3 -34 -9 -60 -12 l-46 -7 0 -283 c0 -231 3 -284 14 -288 7 -3 34
-9 60 -12 l46 -7 0 -173 0 -173 -200 -109 -199 -108 -1 -141 c0 -77 3 -249 7
-380 l6 -240 42 -32 42 -32 417 0 416 0 114 85 113 85 2252 0 2252 0 281 -145
c160 -82 294 -145 309 -145 21 0 72 -40 229 -180 l202 -180 350 0 350 0 896
95 c494 52 916 97 940 100 l42 6 0 167 0 167 85 68 c72 57 85 72 85 97 0 17 3
30 8 30 4 0 1129 36 2501 80 1372 44 2501 80 2511 80 9 0 35 26 58 57 41 55
42 60 42 134 0 74 -1 78 -42 133 l-43 57 -2517 -7 -2518 -7 0 31 c0 28 -4 32
-42 42 -24 7 -74 20 -113 31 -38 10 -85 19 -105 19 -34 1 -39 7 -265 313
l-230 312 -6 445 c-4 245 -7 1114 -8 1933 l-1 1487 2164 0 2165 0 1137 -1467
c626 -808 1489 -1908 1918 -2445 l781 -978 305 -1 305 0 348 -395 c236 -267
352 -406 357 -427 4 -18 21 -198 36 -400 l28 -368 105 -77 c58 -42 951 -717
1983 -1499 1032 -782 1885 -1427 1895 -1433 14 -8 146 9 578 78 308 49 563 87
566 85 4 -1 733 -944 1620 -2094 l1614 -2090 12 -122 11 -122 88 -177 88 -177
-73 -696 c-40 -383 -71 -698 -69 -699 2 -2 20 -6 40 -9 36 -5 38 -4 43 26 2
18 36 332 74 699 68 645 71 669 94 694 20 21 26 41 31 103 13 149 8 138 115
221 l98 74 11 86 c11 81 11 86 -10 115 -29 39 -5619 7283 -11751 15228 -1137
1472 -2067 2679 -2067 2681 0 3 123 103 138 112 4 2 52 1230 52 1329 l0 80
-934 1224 -934 1224 13 46 c8 25 275 933 595 2016 563 1909 582 1971 614 2000
18 17 62 56 98 88 l65 57 69 0 c41 1 79 7 94 15 14 8 44 14 67 15 32 0 50 7
73 28 29 25 31 33 43 144 l12 116 155 137 c85 75 156 141 158 145 3 7 -24 75
-135 338 l-13 32 3065 0 3065 0 0 -90 0 -90 230 0 230 0 0 90 0 90 130 0 130
0 0 135 0 135 -130 0 -130 0 0 95 0 95 -230 0 -230 0 0 -95 0 -95 -3100 0
-3100 0 6 48 c3 26 7 57 10 70 l4 22 290 0 c160 0 290 1 291 3 0 1 15 99 32
217 l33 215 69 -2 c95 -3 59 -3 633 3 l512 6 0 1214 0 1214 2050 0 2050 0 0
-90 0 -90 230 0 230 0 0 90 0 90 45 0 45 0 0 135 0 135 -45 0 -45 0 0 95 0 95
-230 0 -230 0 0 -95 0 -95 -2050 0 -2050 0 0 1525 0 1525 -1520 0 -1520 0 -2
-473 -3 -474 -1445 1329 c-795 731 -1512 1391 -1593 1465 l-149 136 -186 18
c-175 17 -373 18 -3117 19 l-2930 0 -179 778 c-98 427 -187 804 -197 837 -10
33 -104 434 -209 890 -105 457 -195 847 -201 868 -10 38 -17 41 -77 30z
m-16252 -12658 l0 -155 -65 0 -65 0 0 155 0 155 65 0 65 0 0 -155z"/>
</g>
</svg>
