<?xml version="1.0" standalone="no"?>
<!DOCTYPE svg PUBLIC "-//W3C//DTD SVG 20010904//EN"
 "http://www.w3.org/TR/2001/REC-SVG-20010904/DTD/svg10.dtd">
<svg version="1.0" xmlns="http://www.w3.org/2000/svg"
   viewBox="0 0 4176.000000 4175.000000"
 preserveAspectRatio="xMidYMid meet">
<metadata>
Created by potrace 1.16, written by Peter Selinger 2001-2019
</metadata>
<g transform="translate(0.000000,4175.000000) scale(0.100000,-0.100000)"
fill="#000000" stroke="none">
<path d="M23979 41664 l-156 -86 -7 -221 c-4 -121 -4 -487 0 -812 l7 -591 220
-175 c120 -96 223 -176 228 -180 5 -3 0 -263 -11 -605 -11 -329 -20 -605 -20
-612 0 -11 -585 -13 -3343 -10 l-3344 3 -6 -1459 c-4 -803 -5 -1462 -2 -1465
3 -2 308 -66 678 -141 l672 -136 3 -724 2 -723 140 -187 140 -187 0 -816 c0
-810 0 -817 -20 -817 -20 0 -20 7 -20 684 l0 684 -195 -67 -195 -66 3 -1410 2
-1410 193 -71 192 -72 0 669 c0 662 0 669 20 669 20 0 20 -7 20 -780 l0 -780
774 0 775 0 453 -500 c357 -394 454 -506 456 -530 l3 -30 -150 0 -151 0 0 115
0 115 -875 0 -875 0 0 -115 0 -115 -602 0 -603 1 -530 607 c-510 584 -530 608
-527 644 2 30 -5 44 -40 85 -42 48 -48 51 -79 38 -13 -5 -44 25 -126 118
l-110 124 -44 -17 c-28 -11 -45 -24 -47 -36 -1 -13 220 -281 659 -799 363
-429 657 -781 652 -782 -4 -1 -1375 -198 -3047 -438 l-3038 -435 -1872 0
-1871 1 -233 23 c-128 13 -235 25 -236 27 -2 2 -9 81 -15 174 -6 94 -14 189
-17 213 l-5 42 -512 0 -512 0 -116 388 -115 387 -262 3 -262 2 0 -390 0 -390
-757 -1 -758 0 -361 -447 -361 -447 -343 0 -344 0 -321 455 c-176 251 -411
586 -523 745 -809 1155 -1718 2444 -1723 2445 -4 0 -573 -343 -586 -354 -1 0
46 -68 104 -149 l104 -148 136 3 136 3 489 -695 c269 -382 550 -781 624 -887
l134 -191 -21 -37 -22 -36 47 -67 c26 -37 124 -177 219 -312 l173 -245 39 2
40 3 187 -267 c134 -190 184 -269 175 -275 -6 -4 -434 -8 -949 -8 l-938 0 1
-1532 c1 -843 5 -2192 8 -2998 l6 -1465 223 -69 c122 -38 222 -73 222 -78 0
-5 -149 -220 -331 -479 l-332 -471 -135 4 -136 3 -102 -145 c-56 -80 -101
-145 -101 -146 26 -18 568 -345 578 -348 9 -4 178 228 523 719 279 398 513
722 520 720 6 -2 135 -43 286 -90 151 -47 278 -89 282 -93 5 -5 48 -73 96
-153 l88 -144 167 -3 167 -2 0 -180 0 -179 33 -6 c17 -3 313 -46 657 -95 344
-50 635 -92 647 -95 19 -4 23 -12 23 -40 0 -21 -5 -35 -12 -35 -7 0 -191 -26
-409 -58 l-395 -58 -53 128 c-52 125 -54 128 -85 128 -28 0 -1366 -586 -1387
-607 -4 -4 -52 -130 -108 -280 l-100 -272 285 -681 284 -681 0 -468 0 -469
-65 -27 c-36 -16 -65 -31 -65 -34 0 -3 12 -36 27 -74 l27 -69 41 7 c94 14 173
46 996 410 l858 380 1 87 0 87 52 15 c29 8 89 24 133 35 l79 20 331 -154 330
-153 1752 -14 c963 -7 1754 -15 1757 -18 7 -8 1028 -2689 1033 -2715 3 -12 -9
-37 -29 -62 l-32 -43 -108 0 -108 0 0 -77 c0 -68 3 -81 31 -125 l31 -48 188 0
c115 0 191 -4 195 -10 4 -6 55 -10 120 -10 l114 0 73 86 72 87 711 -8 710 -7
1350 -791 c742 -435 1360 -792 1372 -795 18 -3 -2 -24 -120 -125 -272 -232
-2622 -2299 -2647 -2328 -51 -59 -1157 -997 -1842 -1564 l-708 -584 -26 34
c-26 35 -47 44 -59 25 -10 -16 123 -170 140 -163 22 8 18 23 -12 55 -20 21
-25 33 -18 43 12 17 1370 1135 1411 1161 21 13 3192 2680 3411 2868 l28 24
-20 22 c-18 19 -18 23 -4 33 8 7 73 61 143 121 l129 110 18 -23 19 -23 93 78
c50 43 130 111 178 151 l85 74 2500 6 2499 6 55 -126 54 -126 146 -146 145
-145 399 -2 399 -3 -304 -260 c-167 -143 -828 -707 -1469 -1254 -1092 -932
-4585 -3984 -4576 -4000 2 -3 -314 -276 -701 -606 -387 -330 -723 -618 -746
-641 -23 -23 -429 -360 -902 -749 -473 -390 -895 -738 -937 -773 l-78 -64 -26
31 c-14 18 -34 41 -43 52 -16 20 -17 20 -33 2 -15 -17 -11 -24 74 -126 73 -89
92 -106 104 -96 21 17 18 26 -21 72 -19 22 -35 43 -35 47 0 10 1881 1558 1917
1578 17 9 1050 876 2296 1926 l2265 1910 -23 30 -24 31 167 142 167 143 26
-31 27 -31 1563 1336 1564 1336 221 0 222 0 133 146 c74 80 136 150 137 155 2
5 537 9 1283 9 1016 0 1279 -3 1279 -12 0 -7 9 -274 20 -593 11 -319 20 -619
20 -667 l0 -88 65 0 65 0 0 -63 c0 -81 18 -735 25 -934 l6 -153 -82 0 -81 0 6
-147 c13 -286 247 -7628 244 -7655 -2 -21 -46 -61 -229 -206 l-227 -180 -6
-663 c-3 -365 -3 -713 2 -773 l7 -109 159 -89 159 -88 577 0 577 0 229 86
c126 47 232 89 236 93 6 5 258 9018 258 9224 l0 57 -95 0 -95 0 0 88 c0 152
21 975 26 1020 l5 42 80 0 c69 0 79 2 79 18 0 9 11 375 25 812 14 437 25 825
25 863 l0 67 495 0 c488 0 495 0 495 20 0 18 7 20 55 20 37 0 55 -4 55 -12 0
-7 318 -840 707 -1850 l708 -1838 759 0 759 0 -6 1012 c-4 557 -7 1295 -7
1639 l0 625 -205 150 -205 149 0 227 0 228 -1255 0 c-1248 0 -1255 0 -1255
-20 0 -18 -7 -20 -55 -20 -48 0 -55 2 -55 20 0 20 -7 20 -325 20 l-325 0 0
115 0 115 205 0 205 0 0 130 0 130 -207 1 c-180 1 -204 2 -178 14 17 7 472
156 1013 331 l982 319 0 102 0 103 288 0 288 0 62 63 62 63 0 527 0 527 805 0
805 0 0 -337 0 -338 399 -575 399 -576 21 -5374 c12 -2956 21 -5590 21 -5852
l0 -478 -388 0 -389 0 -1001 -457 c-551 -251 -1002 -462 -1002 -468 0 -10 55
-137 65 -153 1 -1 319 142 706 319 l704 321 340 -35 340 -35 1671 142 1671
142 44 32 43 32 148 0 c81 0 148 2 148 4 0 3 -15 39 -34 80 l-35 76 -320 0
-321 0 0 5089 0 5089 35 26 35 27 0 169 0 168 35 12 35 12 0 1469 0 1469 3514
0 c3447 0 3517 0 3649 20 130 19 138 21 233 76 55 31 107 63 116 72 10 8 45
63 78 122 l60 107 0 142 0 143 -57 101 c-32 56 -67 111 -78 122 -11 11 -65 46
-120 77 -171 96 191 88 -3897 88 l-3568 0 -1 28 c0 20 -12 36 -49 65 l-50 37
-140 0 -140 0 0 515 0 515 -196 0 -196 0 -39 28 -39 27 0 150 0 150 -85 53
c-47 30 -85 59 -85 66 0 7 38 313 85 679 l85 666 0 273 0 273 43 17 c35 15 74
18 235 18 l192 0 0 30 0 30 610 0 610 0 0 -85 0 -85 165 0 165 0 0 165 c0 158
-1 165 -20 165 -13 0 -20 7 -20 20 0 20 -7 20 -755 20 l-755 0 0 185 0 185
190 0 190 0 0 235 0 235 35 17 35 17 0 988 0 988 -35 17 -35 17 0 203 0 203
-190 0 -190 0 0 30 0 30 755 0 755 0 0 25 c0 18 5 25 20 25 19 0 20 7 20 160
l0 160 -165 0 -165 0 0 -85 0 -85 -610 0 -610 0 0 840 0 839 -105 474 -105
473 0 3465 0 3465 140 198 140 199 0 933 0 934 -95 0 -95 0 0 369 0 369 -42 6
c-100 13 -2438 278 -4688 530 l-2425 271 -235 -417 -235 -417 -72 2612 c-39
1437 -72 2635 -72 2663 l-1 52 -230 86 -230 86 -588 0 -587 0 -156 -86z
m-14749 -14239 c14 -8 21 -15 15 -15 -5 0 -126 -18 -267 -39 l-258 -38 0 54 0
53 243 0 c191 -1 247 -4 267 -15z m-5177 -9132 l27 -5 0 -153 0 -152 -72 -12
c-40 -7 -81 -15 -90 -17 -17 -5 -18 8 -18 177 l0 182 63 -7 c34 -4 74 -10 90
-13z"/>
</g>
</svg>
