<?xml version="1.0" standalone="no"?>
<!DOCTYPE svg PUBLIC "-//W3C//DTD SVG 20010904//EN"
 "http://www.w3.org/TR/2001/REC-SVG-20010904/DTD/svg10.dtd">
<svg version="1.0" xmlns="http://www.w3.org/2000/svg"
   viewBox="0 0 4680.000000 1579.000000"
 preserveAspectRatio="xMidYMid meet">
<metadata>
Created by potrace 1.16, written by Peter Selinger 2001-2019
</metadata>
<g transform="translate(0.000000,1579.000000) scale(0.100000,-0.100000)"
fill="#000000" stroke="none">
<path d="M4928 15745 c-36 -24 -69 -52 -71 -62 -3 -10 -15 -65 -28 -123 -12
-58 -26 -108 -32 -112 -6 -3 -47 -14 -92 -23 l-82 -17 -23 -155 c-13 -87 -19
-158 -14 -162 5 -5 47 -18 94 -30 83 -22 227 -63 363 -102 l67 -20 -2 -186 -3
-187 -85 -51 c-47 -28 -142 -90 -212 -138 l-128 -88 0 -169 c0 -93 4 -179 9
-192 8 -23 19 -25 180 -46 l170 -22 145 -72 c137 -68 145 -74 140 -98 -15 -65
-13 -64 -45 -34 l-30 28 -142 -46 c-80 -27 -275 -76 -447 -113 -226 -49 -418
-100 -745 -197 l-440 -130 -347 -185 -346 -186 -186 -186 -185 -186 -60 -151
c-54 -136 -59 -155 -51 -190 5 -21 10 -45 10 -51 0 -13 -188 -112 -296 -156
-32 -13 -183 -103 -334 -200 l-275 -177 -37 -73 c-30 -60 -93 -135 -387 -457
l-351 -385 0 -77 c0 -69 -6 -93 -51 -211 -50 -132 -53 -137 -166 -273 -79 -96
-146 -191 -216 -309 l-101 -170 -38 -160 -38 -160 -10 -364 c-6 -200 -8 -367
-4 -370 3 -3 168 -9 367 -12 199 -4 370 -8 380 -8 16 -1 17 -27 17 -394 l0
-393 253 -53 c423 -88 374 -71 435 -151 41 -54 60 -70 85 -75 204 -35 1429
-205 1512 -209 61 -4 136 -9 168 -12 l57 -6 0 -287 0 -287 258 -28 257 -27
650 15 c358 9 665 16 683 16 l32 0 0 -109 0 -109 38 -6 c20 -3 260 -31 532
-61 272 -30 512 -58 533 -61 34 -5 41 -12 78 -79 22 -41 57 -92 77 -115 l37
-42 280 11 c154 6 332 11 395 11 l115 0 109 -60 109 -60 1566 0 1566 -1 928
138 927 137 0 57 c0 55 1 58 28 63 15 3 122 20 237 37 187 28 228 38 373 90
90 32 169 64 175 73 7 8 52 63 101 123 86 106 91 114 135 243 l46 134 50 13
c35 9 131 13 316 13 l267 0 182 -140 182 -140 744 0 743 0 628 346 628 346
350 -113 349 -112 696 -112 695 -112 2195 27 2195 27 70 38 c40 22 206 150
384 297 l315 258 1388 0 1387 0 283 -46 283 -45 197 -107 197 -107 152 -310
c83 -170 268 -546 411 -835 254 -513 261 -526 311 -566 29 -23 88 -71 132
-107 l80 -65 2620 -642 c1552 -380 3229 -784 4114 -990 821 -192 1494 -350
1495 -352 2 -2 122 -220 266 -486 l264 -483 468 -153 468 -154 277 109 c153
60 284 109 292 109 8 0 170 -72 360 -159 190 -87 400 -182 466 -211 66 -28
126 -57 133 -64 7 -7 102 -158 210 -337 197 -323 198 -324 257 -360 57 -34
184 -65 2803 -669 1509 -347 2745 -630 2747 -628 2 1 48 66 104 142 l100 139
-33 46 c-18 25 -59 82 -90 125 l-56 79 35 25 c27 20 34 30 29 46 -6 17 -288
421 -315 450 -5 5 -24 -3 -45 -19 l-37 -29 -29 35 -28 34 36 30 c33 28 36 33
25 54 -7 12 -81 118 -165 236 l-153 214 -41 -30 -41 -30 -25 37 -25 38 34 25
c28 19 34 29 29 45 -6 17 -287 421 -314 450 -4 4 -25 -4 -47 -18 l-38 -27 -28
33 -27 33 36 30 c34 29 36 33 24 56 -7 13 -82 119 -165 236 l-152 212 -41 -30
-40 -29 -20 27 c-33 49 -33 51 3 73 29 18 34 26 29 44 -4 11 -70 109 -147 216
-77 107 -186 259 -241 337 -56 78 -105 142 -109 143 -5 0 -24 -12 -43 -26 -19
-15 -36 -25 -38 -23 -1 2 -42 60 -91 129 -48 69 -98 134 -111 145 l-23 20 642
-4 641 -3 -26 33 c-14 19 -36 35 -49 37 -13 1 -356 31 -761 67 l-738 63 -179
166 -179 166 -64 0 c-61 1 -64 2 -89 38 -196 285 -969 1450 -1069 1612 -185
299 -219 361 -494 910 l-243 485 -193 528 -192 529 -54 426 -55 427 65 60 65
60 57 270 c36 175 86 370 141 555 81 270 90 294 188 490 56 113 126 243 154
290 49 81 51 88 51 157 l0 72 -212 69 c-117 37 -481 156 -809 262 l-597 194 5
36 c3 23 0 39 -8 46 -8 6 -122 47 -254 92 l-240 82 -1175 204 c-646 113 -1193
205 -1215 205 -22 0 -216 36 -431 80 -215 44 -924 179 -1575 300 -1453 271
-1208 246 -2764 281 -800 18 -1252 19 -6500 21 -5595 1 -5640 1 -5690 -19
l-50 -20 -3 -94 -3 -95 -172 -6 c-95 -4 -362 -7 -594 -7 -418 0 -423 0 -710
34 -158 19 -324 42 -368 51 -66 13 -156 15 -530 14 -394 -1 -520 3 -1015 31
-311 18 -567 34 -569 36 -3 3 65 391 75 425 2 9 -54 97 -140 215 l-144 200
-259 72 -258 72 -65 69 -65 69 -370 26 -370 26 -1556 0 -1555 0 -70 -60 -69
-59 -982 -1 -982 0 -33 -41 -33 -41 -86 7 c-65 5 -95 3 -120 -8 -19 -8 -128
-97 -244 -199 l-210 -185 -10 116 -10 116 52 27 51 27 -19 63 c-11 35 -26 84
-33 110 l-15 47 191 186 191 185 1272 0 1271 0 40 33 c21 18 50 40 64 49 24
14 28 30 59 222 19 114 32 209 29 211 -3 3 -335 66 -739 141 l-734 135 -825
44 -825 45 -1091 0 -1091 0 -26 39 c-27 41 -11 36 -243 77 -27 5 -44 24 -110
119 l-79 113 -147 56 -147 57 -298 14 c-164 8 -390 15 -503 15 l-205 0 -67
-45z"/>
</g>
</svg>
