<?xml version="1.0" standalone="no"?>
<!DOCTYPE svg PUBLIC "-//W3C//DTD SVG 20010904//EN"
 "http://www.w3.org/TR/2001/REC-SVG-20010904/DTD/svg10.dtd">
<svg version="1.0" xmlns="http://www.w3.org/2000/svg"
   viewBox="0 0 4494.000000 1024.000000"
 preserveAspectRatio="xMidYMid meet">
<metadata>
Created by potrace 1.16, written by Peter Selinger 2001-2019
</metadata>
<g transform="translate(0.000000,1024.000000) scale(0.100000,-0.100000)"
fill="#000000" stroke="none">
<path d="M7306 10144 c-76 -99 -76 -99 -76 -161 l0 -63 -84 -62 -84 -63 -3
-545 c-2 -300 -2 -574 0 -610 l3 -65 84 -63 84 -64 0 -72 0 -71 128 -157 c114
-140 134 -160 194 -193 37 -19 69 -39 72 -43 2 -4 -15 -95 -39 -202 -23 -107
-66 -305 -95 -438 l-53 -244 -28 6 -27 5 -50 -182 c-28 -100 -69 -245 -91
-322 l-40 -140 0 791 -1 792 -115 71 -116 71 -1444 0 -1444 0 -113 -68 -113
-68 -3 -902 c-2 -850 -3 -902 -20 -902 -9 0 -63 -36 -119 -80 -56 -44 -104
-80 -106 -80 -3 0 -48 36 -102 80 -72 59 -105 80 -126 80 l-29 0 -2 902 -3
903 -110 67 -110 68 -1445 0 -1445 0 -117 -71 -118 -72 2 -1790 3 -1791 112
-67 111 -67 182 -15 181 -14 52 -51 53 -52 985 0 986 0 49 52 48 52 183 13
182 14 110 67 111 67 0 258 0 257 33 0 c24 0 47 13 92 51 33 28 76 63 96 79
l36 30 101 -80 c56 -44 110 -80 122 -80 20 0 20 -5 20 -257 l1 -258 112 -67
112 -67 184 -14 185 -14 45 -51 46 -52 987 0 987 0 46 49 c51 55 58 57 197 66
l97 7 93 -186 93 -186 353 -271 c194 -149 366 -275 383 -281 28 -10 29 -12 29
-77 l0 -67 -407 -13 -408 -13 -315 -118 -315 -118 0 -928 0 -928 312 -142 313
-142 662 -61 663 -61 790 0 790 0 236 106 236 106 325 298 325 297 7 104 c3
57 10 106 14 110 4 4 192 58 419 122 l412 115 218 168 c120 93 251 193 290
224 73 55 73 55 173 246 l100 192 90 398 c49 220 92 404 94 409 2 6 30 31 62
55 33 24 63 47 67 51 14 11 47 539 47 756 l0 202 158 213 157 212 6 -140 c4
-76 7 -204 8 -284 0 -121 5 -163 28 -257 26 -107 28 -113 53 -113 14 0 130 -9
258 -19 217 -17 235 -20 260 -42 15 -13 57 -52 95 -87 l68 -63 112 6 c62 3
423 14 802 25 380 11 740 23 801 26 l112 6 65 54 66 54 259 17 259 17 47 79
46 79 0 288 0 288 55 46 54 47 61 -47 60 -47 0 -288 0 -287 115 -71 115 -70
177 -13 178 -12 56 -53 56 -53 984 0 983 0 53 52 52 51 181 14 182 15 111 67
112 67 5 293 5 293 51 44 51 44 70 -54 70 -55 6 -258 c5 -231 8 -268 31 -351
13 -52 26 -95 28 -97 1 -2 119 -12 261 -23 l258 -21 93 -84 92 -85 912 28 912
28 66 55 c75 63 56 59 379 77 105 6 195 13 201 15 5 1 29 35 52 75 l42 73 0
182 c0 100 3 216 6 258 6 70 9 77 28 77 13 0 51 30 100 79 l79 80 87 -80 c63
-57 94 -79 113 -79 l27 0 0 -137 c0 -76 4 -550 10 -1053 l11 -915 37 -146 36
-145 337 -24 337 -24 124 -107 124 -107 1224 35 1225 35 93 71 93 70 327 20
327 20 58 96 59 96 5 1108 6 1107 36 0 c32 0 48 11 122 79 l86 80 79 -80 c78
-79 79 -79 131 -79 l53 0 0 -32 c0 -18 7 -498 15 -1067 l15 -1034 24 -91 c14
-50 29 -109 35 -132 l11 -40 337 -24 336 -24 126 -109 125 -108 111 6 c60 3
611 19 1224 36 l1114 31 90 70 90 70 286 19 c157 10 305 19 327 19 l41 0 62
100 61 100 0 834 c0 458 3 955 7 1104 l6 272 40 0 c36 0 47 8 125 81 l85 81
81 -81 81 -81 78 0 c42 0 77 -1 77 -2 0 -2 7 -482 15 -1068 l15 -1066 34 -128
c19 -70 36 -130 39 -132 2 -2 153 -15 337 -29 234 -17 337 -28 349 -38 9 -7
65 -55 124 -106 l108 -93 1225 35 1225 35 92 70 93 71 323 20 c178 12 326 23
331 26 4 2 33 47 64 99 l56 94 0 710 c0 390 3 891 7 1113 l6 405 54 -10 53 -9
0 -53 c0 -68 7 -84 36 -84 15 0 24 -6 24 -15 0 -9 25 -72 56 -140 l56 -125
143 0 143 0 41 -113 c23 -61 62 -171 89 -242 44 -123 56 -143 210 -367 156
-227 168 -242 293 -355 l130 -118 -66 -20 c-61 -19 -77 -31 -265 -203 l-200
-184 -39 -126 c-22 -70 -70 -226 -106 -347 -88 -296 -88 -306 0 -484 35 -72
87 -200 115 -283 l50 -153 227 -215 226 -215 456 -309 456 -310 345 -127 c190
-69 424 -157 520 -194 l175 -68 1216 -29 1216 -29 189 134 c184 132 192 139
304 273 126 153 128 157 129 309 l1 70 -59 74 c-43 54 -74 82 -117 105 -46 24
-80 57 -161 151 l-102 121 -153 68 -154 68 53 291 52 292 1 462 0 463 -119
427 -118 428 -123 260 -122 260 -124 120 -123 120 11 215 c10 208 10 222 -16
410 -22 170 -33 216 -80 360 -32 95 -99 261 -158 390 -92 198 -116 241 -201
356 l-97 131 -262 190 -263 189 -170 62 c-127 46 -189 63 -245 67 -41 4 -83 9
-92 11 -17 5 -18 28 -18 305 l0 299 -62 31 c-51 26 -69 30 -106 25 -24 -3 -55
-15 -69 -26 -33 -26 -34 -26 -61 14 -35 51 -99 62 -243 41 -149 -22 -291 -86
-436 -197 l-102 -78 -466 -7 -465 -6 0 40 0 40 -107 6 c-60 4 -250 7 -423 8
l-315 1 -110 -49 -110 -50 -3 -241 -2 -242 -115 0 -114 0 2 951 2 951 -114
110 -114 110 -1051 -6 c-578 -3 -1501 -9 -2051 -12 l-1000 -7 -88 -129 -88
-128 10 -663 c6 -364 14 -915 17 -1224 l7 -563 -67 0 -66 0 -86 -82 -85 -82
-82 82 c-78 77 -85 82 -126 82 l-43 0 8 528 c4 290 8 856 8 1259 l1 732 -110
106 -110 106 -1905 -6 c-1048 -3 -1973 -8 -2056 -11 l-152 -6 -87 -127 -87
-128 11 -694 c6 -382 14 -934 17 -1226 l7 -533 -40 0 c-28 0 -46 -6 -59 -21
-10 -12 -49 -48 -87 -81 l-67 -60 -83 81 c-69 67 -89 81 -116 81 l-32 0 7
1258 7 1257 -114 109 -114 108 -1960 -7 c-1078 -4 -2003 -10 -2055 -14 l-94
-6 -85 -124 -84 -124 11 -981 c7 -540 15 -1092 19 -1228 6 -238 5 -248 -13
-248 -10 0 -55 -37 -101 -82 l-82 -81 -89 81 c-49 45 -97 82 -107 82 -17 0
-17 20 -10 423 4 232 7 651 7 930 l-1 509 -34 41 c-19 23 -52 62 -73 85 l-39
44 -1562 -8 -1563 -7 -66 -104 -67 -105 12 -726 c6 -400 14 -822 17 -938 l6
-211 -61 -47 -62 -48 -54 42 -55 42 0 938 0 937 -118 72 -119 71 -1442 0
-1443 0 -119 -71 -119 -72 -2 -934 -3 -935 -57 -45 -57 -45 -51 38 -51 39 6
970 7 970 -74 89 -73 89 -1034 -7 c-569 -3 -1273 -6 -1565 -6 l-531 0 -68
-108 -69 -107 6 -240 c12 -491 28 -1526 23 -1531 -2 -3 -73 91 -156 208 l-150
213 -1 103 0 102 -114 0 -114 0 -6 183 c-3 100 -8 562 -11 1027 l-6 844 -39
149 c-22 82 -46 157 -53 166 -6 10 -59 72 -116 138 l-105 121 -211 97 -211 96
-119 9 c-99 6 -122 11 -134 27 -9 10 -62 73 -119 140 l-103 122 -122 47 c-67
26 -160 62 -206 80 l-85 34 -507 0 -506 0 -6 51 c-4 29 -9 54 -12 58 -3 3
-613 7 -1354 9 l-1349 4 -76 -98z m31361 -3836 c-1 -57 -3 -11 -3 102 0 113 2
159 3 103 2 -57 2 -149 0 -205z"/>
</g>
</svg>
