<?xml version="1.0" standalone="no"?>
<!DOCTYPE svg PUBLIC "-//W3C//DTD SVG 20010904//EN"
 "http://www.w3.org/TR/2001/REC-SVG-20010904/DTD/svg10.dtd">
<svg version="1.0" xmlns="http://www.w3.org/2000/svg"
   viewBox="0 0 4551.000000 1303.000000"
 preserveAspectRatio="xMidYMid meet">
<metadata>
Created by potrace 1.16, written by Peter Selinger 2001-2019
</metadata>
<g transform="translate(0.000000,1303.000000) scale(0.100000,-0.100000)"
fill="#000000" stroke="none">
<path d="M18221 12958 l-102 -72 6 -35 c3 -20 8 -43 11 -52 3 -11 -36 -64
-105 -146 -106 -124 -113 -130 -169 -147 l-58 -18 -52 -104 -52 -104 -297 0
-298 0 -112 41 -111 41 -259 -93 -258 -92 -317 -231 c-283 -206 -319 -235
-328 -267 -10 -35 -10 -35 -98 -52 -49 -9 -94 -17 -100 -17 -7 0 -38 51 -69
114 l-58 114 -238 -73 c-159 -48 -246 -80 -261 -94 -19 -18 -28 -21 -43 -12
-13 6 -261 14 -661 22 l-642 11 -116 -106 -115 -106 -105 0 -104 0 0 65 0 65
-141 213 c-78 116 -144 215 -148 219 -3 4 -522 -55 -1151 -132 -917 -112
-1198 -150 -1409 -189 -145 -28 -267 -54 -271 -58 -4 -4 -24 -52 -45 -105
l-38 -97 -436 -147 c-240 -81 -562 -191 -716 -243 l-280 -96 -345 -244 c-190
-134 -349 -246 -353 -250 -4 -4 4 -78 18 -165 14 -86 25 -161 25 -167 0 -6
-12 -9 -26 -7 -22 3 -36 21 -88 116 l-61 113 -85 -6 c-47 -3 -317 -26 -600
-51 -283 -24 -561 -44 -617 -44 l-103 0 -62 125 -63 125 -211 0 -212 0 -38 60
c-22 33 -45 60 -53 60 -67 0 -531 -95 -801 -165 l-325 -85 -675 -259 c-721
-278 -678 -258 -761 -358 -18 -21 -223 -144 -615 -368 l-589 -337 -566 -387
c-470 -322 -618 -430 -875 -635 l-309 -248 -42 -81 c-23 -45 -42 -88 -42 -94
-1 -10 100 -13 473 -13 l474 0 115 54 115 54 6 -46 c3 -24 6 -59 6 -76 0 -28
5 -33 54 -52 l54 -22 417 30 c230 16 418 28 420 26 1 -2 5 -20 9 -40 7 -41 17
-36 -101 -54 l-33 -5 0 -74 0 -75 -102 0 c-57 -1 -205 -5 -329 -9 l-225 -9
-82 -41 -82 -41 0 -273 0 -273 85 -42 c72 -35 95 -42 145 -42 l60 0 0 -345 0
-345 147 -74 148 -73 245 -17 c135 -9 257 -16 273 -16 l27 0 0 -120 0 -120 59
-29 c80 -41 132 -52 536 -117 220 -35 354 -61 360 -69 6 -7 48 -19 93 -25 l82
-12 56 -64 56 -64 362 0 c410 0 578 -13 1080 -80 165 -22 303 -40 307 -40 4 0
11 -20 14 -43 4 -24 10 -48 13 -54 18 -27 111 -58 314 -104 122 -28 225 -52
230 -55 4 -3 49 -66 100 -140 l92 -134 269 0 269 0 76 65 75 65 449 0 448 0 5
-23 c3 -12 13 -62 23 -112 l18 -90 569 -5 569 -5 58 -245 c33 -135 62 -248 67
-253 4 -4 311 -166 682 -360 l674 -353 943 -42 942 -41 268 -85 267 -85 925
-35 c509 -20 978 -39 1043 -43 l117 -6 0 712 0 711 421 0 422 0 771 211 771
211 255 105 255 105 39 -21 39 -21 311 129 c171 71 379 166 461 210 l150 81
179 0 178 0 60 50 60 50 352 0 352 0 49 -50 49 -50 179 0 179 0 58 50 58 50
352 0 352 0 58 -50 58 -50 1290 0 1289 0 62 -142 c36 -85 57 -144 51 -148 -6
-3 -180 -14 -388 -24 -207 -9 -387 -19 -399 -22 -11 -2 -48 -27 -81 -54 l-61
-51 23 -67 c13 -37 54 -133 91 -212 37 -80 98 -223 136 -319 111 -277 105
-268 239 -354 l115 -73 159 -32 158 -32 70 60 c48 41 78 60 96 60 15 0 218
-27 452 -60 416 -59 430 -60 647 -60 l222 0 73 -95 73 -94 148 -1 147 0 0 -63
c0 -35 5 -68 11 -74 13 -13 9 -14 -198 -47 -107 -17 -827 -177 -859 -190 -1
-1 -11 -90 -23 -199 l-21 -198 32 -189 31 -189 51 -15 c485 -138 647 -176 941
-220 165 -25 315 -49 333 -53 30 -7 37 -16 65 -80 l32 -72 183 -75 183 -76
525 0 526 0 130 -30 130 -30 98 30 c80 25 115 30 195 30 l98 0 91 -67 c50 -36
107 -70 126 -74 19 -4 157 -10 307 -14 217 -6 273 -10 277 -21 4 -11 52 -14
255 -14 l250 0 70 218 c38 119 84 262 101 317 18 55 34 104 37 108 2 4 23 -6
45 -22 35 -26 47 -29 87 -25 l46 5 55 -65 55 -65 360 -3 360 -3 41 -155 41
-155 198 -3 c137 -2 201 1 205 9 7 10 282 28 451 29 62 0 69 2 111 39 l44 39
470 11 c258 6 530 13 604 16 l135 6 254 -180 c140 -100 258 -181 262 -181 4 0
69 -9 145 -20 134 -20 138 -21 196 -65 38 -28 70 -45 88 -45 15 0 42 -3 59 -6
l31 -6 0 -314 0 -314 250 0 250 0 0 -110 0 -110 92 -184 92 -185 215 -82 c119
-45 220 -82 227 -82 6 0 103 36 215 81 l204 82 93 185 92 185 0 110 0 110 190
0 190 0 0 175 0 175 774 0 774 0 33 -51 32 -51 521 5 c287 4 538 9 558 13 28
5 43 15 62 45 l26 39 525 0 525 0 159 -124 159 -124 768 -31 c423 -17 777 -31
786 -31 11 0 62 59 134 155 l116 155 389 0 389 0 0 39 0 38 88 -4 c48 -2 321
-15 607 -28 l520 -23 297 -106 296 -106 275 0 275 0 42 52 c39 49 40 53 23 66
-54 39 -1097 558 -1458 725 -448 207 -471 216 -1680 667 -401 150 -769 292
-817 316 -48 24 -133 62 -188 84 -121 48 -139 49 -467 20 -187 -17 -231 -24
-248 -39 -209 -187 -490 -415 -621 -503 l-159 -107 -540 -10 c-297 -6 -734
-11 -972 -11 -398 0 -432 1 -426 17 6 15 37 16 362 10 221 -4 405 -2 486 5
l130 10 125 124 c123 122 126 124 157 115 31 -9 38 -5 137 75 102 82 107 84
158 84 53 0 54 1 96 54 23 30 42 64 42 75 0 33 480 409 850 666 341 237 397
278 479 352 l53 48 -32 115 -31 115 -282 125 -281 125 -54 85 -55 85 -326 139
c-179 76 -624 278 -989 448 -365 169 -668 308 -673 308 -26 0 -403 -202 -759
-406 -217 -124 -466 -267 -552 -316 l-157 -90 15 -30 c9 -16 13 -32 10 -35 -3
-4 -627 38 -743 50 -20 2 -5 25 118 187 77 101 137 186 132 187 -38 9 -1250
265 -1262 266 -9 0 -137 -46 -284 -103 l-268 -103 -190 10 -189 11 -153 144
c-83 79 -160 149 -170 157 -12 9 -160 26 -485 56 -416 37 -469 40 -484 27 -10
-8 -18 -11 -18 -5 0 7 134 747 196 1081 l6 32 348 0 348 0 88 101 89 100 375
-6 c206 -3 402 -8 435 -11 l60 -6 154 -143 154 -143 136 -6 c75 -3 204 -8 286
-11 l150 -5 125 137 c98 107 145 149 220 199 l95 62 415 -18 c228 -11 463 -19
523 -20 160 0 153 11 -94 146 -110 60 -209 118 -220 129 -11 11 -54 72 -97
134 l-77 115 -520 343 -520 342 -871 473 -872 472 -48 80 c-26 43 -62 87 -78
97 -16 10 -432 228 -925 486 l-896 468 -155 11 -155 10 -52 -31 c-52 -31 -54
-32 -106 -19 -28 7 -158 20 -287 29 l-235 17 -1283 441 -1284 441 -84 167 -83
167 -338 112 c-186 62 -343 117 -349 122 -7 5 -20 39 -29 76 l-18 68 -284 95
-285 94 -21 -25 c-12 -14 -40 -47 -62 -73 l-40 -47 -120 -10 c-187 -15 -222
-14 -230 10 -3 11 -40 43 -80 72 l-74 51 -42 126 c-23 69 -42 126 -43 127 0 1
-477 43 -1058 95 l-1057 93 -33 -31 -33 -32 -113 11 c-111 10 -113 10 -137
-12 -14 -13 -25 -19 -25 -14 -1 34 -20 37 -362 68 l-343 31 -300 -34 -300 -34
-108 76 c-106 74 -110 76 -241 107 -73 17 -216 41 -317 53 l-184 23 -88 69
c-101 79 -101 78 27 90 l69 7 -41 41 c-41 41 -44 42 -379 134 l-338 94 -385
24 c-288 18 -478 24 -757 25 -355 0 -372 1 -378 19 -4 15 -39 27 -170 60
l-165 41 -268 0 -268 0 -103 -72z"/>
</g>
</svg>
