<?xml version="1.0" standalone="no"?>
<!DOCTYPE svg PUBLIC "-//W3C//DTD SVG 20010904//EN"
 "http://www.w3.org/TR/2001/REC-SVG-20010904/DTD/svg10.dtd">
<svg version="1.0" xmlns="http://www.w3.org/2000/svg"
   viewBox="0 0 4440.000000 1881.000000"
 preserveAspectRatio="xMidYMid meet">
<metadata>
Created by potrace 1.16, written by Peter Selinger 2001-2019
</metadata>
<g transform="translate(0.000000,1881.000000) scale(0.100000,-0.100000)"
fill="#000000" stroke="none">
<path d="M14117 18782 c-15 -15 -27 -31 -27 -34 0 -4 247 -262 550 -574 302
-312 548 -570 545 -573 -6 -5 -1186 -29 -1510 -30 l-201 -1 -509 525 c-281
289 -542 560 -582 603 l-72 77 -32 -32 -32 -32 290 -298 c159 -164 409 -422
556 -573 l266 -275 -707 -17 c-389 -9 -775 -17 -858 -17 l-152 -1 -582 600
c-319 330 -585 600 -589 600 -4 0 -19 -12 -33 -27 l-27 -28 558 -575 558 -575
-51 -2 c-28 -2 -456 -12 -951 -23 -3068 -70 -3363 -80 -6300 -215 -2131 -97
-4126 -185 -4217 -185 -5 0 -8 -119 -8 -265 l0 -265 394 0 395 0 324 -337 325
-338 -54 -15 c-39 -11 -66 -28 -103 -64 -60 -59 -38 96 -181 -1321 -89 -886
-110 -1133 -115 -1320 l-7 -230 42 -50 42 -51 2471 -468 c1360 -257 2482 -470
2495 -473 20 -5 22 -11 22 -62 0 -65 7 -76 71 -119 51 -34 43 -14 94 -243 l16
-75 88 -67 88 -67 691 0 c381 0 692 -3 692 -6 0 -3 -5 -14 -10 -25 -10 -18
-27 -19 -515 -19 -278 0 -505 -1 -505 -2 -1 -2 -25 -194 -55 -427 l-54 -423
-50 -58 -51 -58 -69 -308 c-40 -178 -74 -358 -81 -424 -6 -63 -19 -151 -30
-195 -10 -44 -21 -95 -24 -112 l-5 -33 624 0 625 0 42 -85 42 -85 811 -2 810
-3 35 -65 35 -65 1406 -5 1405 -5 203 -208 203 -207 363 0 363 0 1870 -1030
1870 -1030 1078 -1 1079 0 925 -403 925 -402 3 -516 2 -515 -47 -44 -47 -43
-18 42 -19 42 -79 0 -80 0 0 203 0 203 -33 32 -33 32 -204 0 c-138 0 -562 -21
-1300 -65 -602 -37 -1105 -68 -1117 -71 -18 -3 -23 -11 -23 -33 0 -29 1 -30
63 -35 34 -3 190 -10 347 -16 157 -6 288 -14 291 -18 4 -4 11 -21 17 -39 11
-32 10 -33 -83 -113 l-93 -80 -466 0 c-256 0 -466 -4 -466 -8 0 -11 -329
-1483 -336 -1502 -3 -8 -83 -78 -179 -155 l-174 -140 -1 -717 0 -718 1501 0
1500 0 -3 -52 -3 -52 -255 -58 -255 -59 -962 5 -961 6 -6 -78 c-4 -42 -9 -105
-12 -140 l-6 -62 41 0 c22 0 341 -16 708 -34 381 -20 895 -40 1198 -46 575
-12 1562 -61 1715 -85 52 -8 131 -25 176 -38 76 -22 90 -31 255 -164 96 -77
257 -211 359 -297 l185 -156 2243 0 2243 0 86 65 c86 65 86 65 152 65 36 0
629 -16 1316 -36 l1250 -35 475 21 475 22 2240 328 2240 329 2099 91 c2371
103 2212 90 2358 180 99 62 191 139 184 155 -11 29 23 54 76 57 l52 3 144 323
144 324 -31 32 c-17 18 -31 35 -31 39 0 4 22 38 49 75 27 37 88 137 136 222
110 193 192 327 888 1449 l561 904 -34 28 c-31 26 -34 27 -45 11 -54 -80
-1435 -2202 -1444 -2219 -9 -17 -34 -27 -125 -48 l-113 -27 -44 -74 c-24 -40
-47 -72 -50 -71 -12 4 -368 410 -365 416 2 3 47 77 100 165 54 87 95 163 93
170 -3 6 -147 246 -321 534 -174 287 -316 527 -316 534 0 6 13 33 30 60 17 26
30 50 30 53 0 3 -61 5 -135 5 l-135 0 0 335 0 335 -360 0 c-353 0 -360 0 -360
-20 0 -20 -7 -20 -3190 -20 l-3190 0 0 -316 0 -315 -23 3 c-14 2 -76 61 -171
166 l-147 162 -560 0 -559 0 0 53 0 54 -727 268 -728 268 -265 37 -265 37
-661 232 c-621 217 -669 233 -782 248 l-122 16 -2 230 -3 230 -165 114 c-91
63 -172 118 -180 123 -11 6 -1 23 49 75 72 78 71 59 19 278 l-30 127 -104 144
c-93 128 -121 159 -254 276 -135 118 -167 141 -308 217 -170 92 -181 95 -436
118 l-78 8 -93 -93 c-92 -92 -93 -92 -99 -64 -3 16 -33 237 -66 491 -68 516
-68 473 3 550 l29 31 109 -84 108 -84 68 0 68 0 105 104 105 104 4215 20 4215
20 101 53 101 54 7 98 c6 99 6 99 -21 120 -14 12 -61 32 -102 45 -75 22 -97
23 -2711 87 -1449 36 -2678 65 -2730 66 -88 1 -18 14 950 185 575 101 1055
187 1068 189 21 5 22 10 22 90 l0 85 -1004 2 -1005 3 962 429 c529 236 965
432 969 435 4 4 10 33 13 66 3 33 8 75 11 93 l5 32 766 0 765 0 93 85 c88 81
95 85 138 85 39 0 46 -3 49 -21 3 -19 21 -27 118 -55 l115 -33 253 -1 252 0 0
25 c0 18 5 25 20 25 12 0 25 10 32 25 10 23 16 25 85 25 57 0 73 -3 73 -15 0
-8 16 -19 38 -24 20 -6 74 -21 119 -34 79 -24 90 -24 333 -19 231 5 250 6 250
23 0 11 9 19 23 21 12 2 27 14 32 27 10 22 13 23 80 17 38 -4 72 -10 75 -15 3
-5 55 -23 115 -40 l111 -31 257 0 c250 0 257 1 257 20 0 13 7 20 20 20 11 0
25 9 32 20 11 17 24 20 90 20 42 0 78 -4 80 -9 2 -5 53 -23 113 -40 l111 -31
257 0 c250 0 257 1 257 20 0 13 7 20 20 20 11 0 23 7 26 15 11 29 140 19 277
-20 l121 -35 253 0 253 0 0 25 c0 20 5 25 24 25 14 0 28 5 31 10 14 23 154 11
278 -25 l121 -35 253 0 253 0 0 25 c0 18 5 25 19 25 10 0 24 7 32 16 21 25
144 13 284 -29 l120 -37 248 0 247 0 0 25 c0 20 5 25 24 25 13 0 27 7 30 16
10 27 151 13 291 -29 133 -41 155 -42 448 -30 153 6 167 8 167 25 0 11 7 18
20 18 11 0 23 7 26 15 11 28 128 19 264 -20 l122 -35 259 0 c252 0 259 1 259
20 0 13 7 20 19 20 10 0 24 7 31 15 23 27 134 19 271 -20 l123 -35 258 0 c251
0 258 1 258 20 0 12 7 20 16 20 9 0 22 6 28 14 9 11 83 -1 441 -70 l430 -82
37 29 37 29 144 0 143 0 30 31 c26 27 34 53 80 267 l52 237 -28 39 c-16 21
-27 43 -25 50 63 183 805 2555 810 2586 4 28 17 56 35 75 88 95 202 336 290
615 128 408 258 1016 290 1360 6 63 13 132 17 153 5 35 4 37 -21 37 l-26 0 6
83 c4 46 4 109 0 140 -7 55 -9 57 -44 67 -20 5 -2629 179 -5797 385 l-5760
376 -240 49 -240 50 -315 134 -315 135 -2005 116 -2005 117 -1200 19 -1200 20
-1095 -36 -1095 -37 -520 -52 -520 -52 -494 498 -494 499 -34 -33 c-28 -27
-33 -39 -31 -69 3 -32 46 -80 425 -475 233 -241 420 -440 415 -441 -4 -1 -144
-16 -312 -33 -168 -17 -401 -42 -517 -55 -117 -14 -228 -25 -246 -25 -19 0
-162 39 -318 86 l-284 85 -470 470 -471 470 -27 -29 c-20 -21 -27 -38 -27 -68
0 -39 9 -50 369 -425 203 -211 366 -385 363 -386 -4 -1 -133 -16 -287 -33
-270 -29 -1000 -80 -1155 -80 l-75 0 -500 500 -499 500 -28 -27 c-22 -21 -28
-36 -28 -67 0 -40 8 -49 419 -476 230 -239 418 -436 416 -438 -1 -1 -119 -7
-261 -13 -143 -5 -569 -28 -949 -49 -529 -31 -795 -42 -1140 -46 l-450 -6
-585 606 c-321 333 -585 606 -585 606 -1 0 -13 -13 -28 -28z m12191 -9579
c-16 -2 -40 -2 -55 0 -16 2 -3 4 27 4 30 0 43 -2 28 -4z m-5650 -664 c86 -23
176 -44 200 -48 39 -5 42 -8 30 -23 -11 -16 -52 -19 -348 -33 -184 -8 -363
-16 -397 -19 l-62 -4 17 34 16 34 115 1 c164 0 183 5 220 57 17 23 36 42 42
42 6 0 81 -19 167 -41z"/>
</g>
</svg>
