<?xml version="1.0" standalone="no"?>
<!DOCTYPE svg PUBLIC "-//W3C//DTD SVG 20010904//EN"
 "http://www.w3.org/TR/2001/REC-SVG-20010904/DTD/svg10.dtd">
<svg version="1.0" xmlns="http://www.w3.org/2000/svg"
   viewBox="0 0 4727.000000 928.000000"
 preserveAspectRatio="xMidYMid meet">
<metadata>
Created by potrace 1.16, written by Peter Selinger 2001-2019
</metadata>
<g transform="translate(0.000000,928.000000) scale(0.100000,-0.100000)"
fill="#000000" stroke="none">
<path d="M34686 9265 c-5 -13 -47 -15 -293 -15 l-288 0 -77 -143 c-43 -79 -78
-151 -78 -160 0 -15 -13 -17 -104 -17 -119 0 -116 3 -116 -94 l0 -62 -115 -85
-114 -85 -143 -13 c-173 -15 -174 -15 -182 -46 -5 -18 -17 -27 -46 -35 -38
-10 -40 -12 -67 -95 -21 -65 -31 -85 -45 -85 -10 0 -158 -14 -328 -30 l-311
-30 -89 -45 -90 -45 -280 0 -280 0 0 50 c0 43 -3 50 -20 50 -16 0 -20 7 -20
30 l0 29 -222 5 c-123 3 -280 8 -350 11 l-128 6 0 -38 c0 -37 -1 -39 -59 -61
-33 -13 -79 -36 -103 -52 -39 -27 -50 -30 -131 -30 -134 0 -127 12 -127 -200
l0 -180 -1274 0 -1273 0 -874 -254 -874 -253 -3 -54 -3 -55 -502 -37 c-1578
-119 -2231 -166 -2239 -161 -4 3 -8 39 -8 80 0 41 -1 75 -2 75 -6 4 -865 24
-884 21 -19 -3 -23 -15 -39 -110 -9 -59 -19 -119 -22 -134 l-5 -28 146 0 c166
0 156 7 132 -92 l-13 -58 98 -77 c55 -42 99 -78 99 -80 0 -2 -367 -3 -815 -3
l-815 0 0 30 0 30 -195 0 -195 0 0 -36 0 -37 -77 7 c-42 3 -118 6 -170 6 l-93
0 0 30 0 30 -195 0 -195 0 0 -29 c0 -27 -3 -29 -52 -35 -29 -3 -73 -6 -98 -6
-29 0 -315 -83 -850 -246 -443 -136 -826 -253 -852 -260 -30 -9 -49 -21 -53
-34 -4 -14 -15 -20 -36 -20 -22 0 -29 -5 -29 -20 0 -13 -7 -20 -19 -20 -10 0
-24 -6 -31 -14 -6 -8 -23 -16 -37 -18 -21 -2 -28 -11 -39 -48 -7 -24 -23 -51
-34 -60 -21 -16 -21 -16 15 -54 19 -21 33 -42 30 -47 -4 -5 -33 -9 -66 -9
l-59 0 0 -47 0 -48 -89 -33 c-49 -19 -99 -44 -112 -58 l-22 -24 -538 0 -537 0
-4 135 -3 135 -61 61 -61 61 -198 59 -198 59 -291 0 -290 0 -66 -64 c-51 -50
-80 -69 -137 -91 -62 -24 -73 -32 -73 -52 l0 -23 -500 0 -500 0 0 30 0 30
-205 0 c-198 0 -205 1 -205 20 0 22 -122 110 -153 110 -11 0 -32 8 -48 17
l-29 17 0 158 0 158 -45 0 -44 0 -42 -75 -41 -75 -62 0 -63 0 -99 -165 -99
-165 -275 5 c-151 3 -396 7 -545 11 -228 4 -275 3 -300 -10 -16 -8 -86 -24
-155 -36 l-125 -21 -220 -220 -220 -219 -228 0 -227 0 -160 -80 -160 -80 -367
0 -367 0 -347 -140 -347 -140 -426 0 -426 0 0 -30 0 -30 425 0 425 0 0 -95 0
-95 -1485 0 -1485 0 0 -30 0 -30 -132 0 c-127 0 -133 1 -158 25 -21 20 -85 42
-296 101 l-269 76 -345 14 c-190 7 -362 13 -382 13 l-38 1 0 60 0 60 -70 0
c-56 0 -70 3 -70 15 0 22 -265 22 -274 0 -4 -13 -35 -15 -191 -15 l-185 0 0
-25 c0 -24 -2 -25 -70 -25 -40 0 -70 4 -70 10 0 6 -27 10 -60 10 l-60 0 0 -60
0 -60 -80 0 -80 0 0 90 0 90 -465 0 -465 0 0 70 0 70 -197 -5 c-613 -16 -560
-12 -842 -61 -146 -25 -277 -52 -292 -60 -20 -10 -64 -14 -146 -14 l-118 -1
-200 -92 -200 -93 -3 -47 -3 -47 -125 0 -124 0 0 -154 0 -154 42 -7 c24 -4 61
-18 84 -31 25 -15 57 -24 82 -24 l42 0 0 -45 0 -45 -195 0 -195 0 0 -62 c0
-34 8 -85 17 -115 l17 -53 75 0 76 0 22 -55 21 -55 -64 0 -64 0 0 -41 c0 -25
8 -52 21 -70 17 -24 27 -29 63 -29 42 0 43 -1 52 -40 6 -26 29 -63 69 -109
l60 -70 68 0 67 -1 0 -40 0 -40 -65 0 c-40 0 -78 -6 -95 -15 l-30 -16 0 -127
0 -128 29 -17 c20 -11 51 -17 95 -17 l65 0 3 -86 3 -86 205 -93 205 -92 3 -66
3 -67 -73 0 c-55 0 -81 -5 -105 -20 l-33 -20 0 -123 0 -123 35 -17 c23 -11 61
-17 105 -17 l70 0 0 -83 0 -84 453 -135 452 -136 505 51 c278 29 511 56 518
60 6 5 12 28 12 53 0 41 2 44 23 39 12 -3 186 -43 386 -90 l364 -85 1943 0
1944 0 0 -45 0 -45 705 0 705 0 0 -55 c0 -54 0 -55 30 -55 25 0 30 -4 30 -25
l0 -25 275 0 c177 0 275 4 275 10 0 6 40 10 100 10 82 0 100 3 100 15 0 10 11
15 35 15 l35 0 0 175 0 175 220 0 220 0 0 -175 0 -175 370 0 370 0 0 80 0 79
-54 3 -55 3 67 117 67 118 56 0 56 0 7 -42 c4 -23 23 -73 44 -110 l36 -68 322
0 c308 0 322 1 339 20 18 20 31 20 727 20 l708 0 0 -25 0 -25 163 0 162 0 38
33 c28 24 44 51 66 112 l29 80 545 3 545 2 73 -82 c40 -46 74 -84 74 -85 1 -2
275 -36 609 -78 l608 -75 744 0 744 0 0 -55 0 -55 -67 0 c-166 1 -1419 -54
-1430 -63 -18 -13 -17 -102 1 -116 8 -7 295 -39 713 -80 l698 -68 105 -64 c72
-44 99 -65 85 -67 -11 -1 -82 -6 -157 -10 l-138 -7 61 -91 60 -92 72 -6 c40
-3 205 -11 367 -17 278 -11 298 -13 342 -35 46 -23 53 -24 321 -24 l273 0 29
-30 c25 -26 36 -30 84 -30 54 0 59 2 145 70 l89 70 522 0 521 0 93 -85 c51
-47 103 -87 115 -89 11 -3 163 -7 336 -11 l315 -6 70 -69 70 -70 85 0 c80 0
89 -3 158 -40 l73 -40 384 0 c375 0 384 0 390 -20 4 -14 15 -20 36 -20 17 0
47 -11 67 -25 36 -25 40 -25 232 -25 113 0 300 9 445 21 224 19 254 24 291 45
32 19 55 24 110 24 130 0 234 12 234 26 0 11 41 14 213 14 201 0 215 1 232 20
10 11 24 20 32 20 10 0 13 24 13 109 l0 108 -82 6 c-46 3 -184 12 -307 18
l-223 13 -107 119 c-58 66 -105 126 -105 134 1 7 25 49 54 93 l53 80 362 0
c322 0 364 2 369 16 3 9 6 65 6 125 l0 109 400 0 400 0 0 -32 c0 -18 3 -57 6
-85 l7 -53 173 0 172 0 89 -104 88 -105 289 0 289 -1 169 -87 c167 -86 171
-89 255 -180 l85 -93 239 0 239 0 0 90 0 90 254 0 254 0 65 -102 64 -103 159
-5 160 -5 36 -40 c29 -33 52 -46 120 -68 84 -27 84 -27 384 -27 l299 0 502
-280 502 -280 625 0 625 0 229 -85 229 -85 1376 0 1375 0 75 70 75 70 69 0
c65 0 71 2 100 32 27 30 38 64 117 381 47 192 84 352 81 357 -3 5 -55 48 -115
95 l-108 85 -109 0 -108 0 -507 192 -508 193 0 88 0 87 1105 0 1105 0 0 55 0
55 224 0 224 0 62 -52 62 -52 454 37 454 36 45 37 c44 36 45 38 45 95 0 52 2
59 20 59 19 0 20 7 20 159 l0 159 93 6 c50 3 378 13 727 22 l635 15 235 39
c226 38 249 40 588 49 l353 11 47 32 47 33 -40 2 c-22 1 -301 7 -620 12 l-580
10 -718 103 -717 103 330 3 331 2 26 60 c14 33 32 60 39 60 11 0 14 24 14 115
0 96 -3 115 -15 115 -8 0 -15 5 -15 10 0 6 -7 10 -15 10 -10 0 -15 10 -15 30
0 17 5 30 10 30 6 0 10 11 10 25 0 14 -4 25 -10 25 -5 0 -10 14 -10 30 0 17 5
30 10 30 6 0 10 20 10 45 l0 45 203 0 202 0 33 63 c18 34 32 67 32 73 0 7 9
14 20 17 19 5 20 14 20 152 0 138 -1 147 -20 152 -11 3 -20 14 -20 24 0 12 -7
19 -20 19 -17 0 -20 7 -20 40 0 33 3 40 20 40 17 0 20 7 20 40 0 33 -3 40 -20
40 -16 0 -20 7 -20 30 0 23 4 30 20 30 18 0 20 7 20 60 l0 60 350 0 349 0 256
144 257 144 75 89 76 88 -226 3 -225 2 4 78 c3 42 7 86 9 97 4 18 63 34 511
140 279 66 513 126 521 133 7 7 13 27 13 43 0 25 4 29 29 29 23 0 34 -7 48
-30 l17 -30 343 0 343 0 0 30 c0 28 3 30 35 30 l35 0 0 50 0 50 -35 0 -35 0 0
60 0 60 473 0 c261 0 602 -3 760 -7 l286 -6 3 -30 c3 -25 13 -35 68 -66 40
-23 66 -44 68 -56 5 -33 24 -65 39 -65 7 0 13 -11 13 -25 l0 -25 -110 0 -110
0 0 -110 0 -110 35 0 c24 0 35 -5 35 -15 0 -12 19 -15 114 -15 79 0 116 4 118
12 3 8 56 13 175 16 156 4 173 6 198 26 l27 22 -22 74 c-12 41 -27 81 -32 88
-7 8 -43 12 -115 12 l-104 0 3 37 c3 34 6 38 40 46 32 8 43 20 92 96 l56 88
166 6 c92 4 216 7 276 7 l108 0 0 -45 0 -45 108 0 107 -1 40 -59 c22 -33 43
-60 47 -60 5 0 8 -47 8 -105 l0 -105 -26 0 c-22 0 -25 -4 -22 -27 2 -20 9 -29
26 -31 12 -2 22 -9 22 -16 0 -22 262 -37 275 -16 3 6 31 10 61 10 51 0 56 -2
72 -30 l17 -30 128 0 c101 0 127 3 127 14 0 20 31 26 190 35 80 5 153 12 163
16 11 5 17 18 17 41 0 30 -5 36 -50 59 -47 24 -50 28 -50 64 0 31 -4 41 -20
46 -11 3 -20 12 -20 18 0 31 14 57 30 57 10 0 78 27 153 60 135 60 135 60 232
60 79 0 102 -4 123 -19 24 -16 79 -22 452 -45 l425 -27 14 20 c9 14 24 21 47
21 30 0 39 -7 81 -65 l48 -64 171 -1 c207 0 215 5 124 77 -52 42 -57 49 -39
55 16 6 39 44 39 64 0 2 -34 4 -76 4 l-75 0 -124 101 -124 100 -71 -7 c-56 -5
-74 -4 -88 8 -9 9 -132 84 -272 168 l-255 153 -395 112 c-218 61 -405 117
-418 124 -12 6 -147 89 -299 183 -278 171 -278 171 -360 183 l-81 11 -42 -31
-42 -32 -97 23 c-87 20 -144 23 -629 37 l-534 14 -52 52 -51 51 -85 -6 c-82
-6 -97 -11 -398 -140 -171 -75 -316 -133 -321 -130 -4 3 -28 61 -52 128 -58
166 -60 167 -211 168 l-118 0 0 -85 0 -85 -365 0 -365 0 0 70 0 70 31 0 c29 0
30 2 27 38 -3 32 -7 37 -30 40 -16 2 -28 9 -28 17 0 20 -127 29 -309 21 -86
-4 -161 -3 -167 1 -6 5 -14 18 -18 31 -7 22 -10 22 -177 22 -162 0 -169 -1
-169 -20 0 -35 -50 -26 -82 14 -27 33 -28 40 -28 139 0 58 3 119 6 136 l7 31
793 0 c787 0 794 0 794 20 0 20 -7 20 -800 20 l-800 0 0 80 0 80 345 0 c338 0
345 0 345 20 0 20 -7 20 -345 20 l-345 0 0 180 0 180 -254 0 -253 0 -373 199
c-205 110 -389 202 -409 205 -20 3 -128 10 -241 17 l-205 11 -90 54 -90 54
-338 0 -338 0 -138 63 -137 64 -194 18 c-170 15 -236 27 -515 92 -542 126
-505 120 -874 127 l-323 6 -43 35 c-37 31 -49 35 -100 35 -53 0 -63 4 -136 55
l-78 55 -86 0 -86 0 -18 43 c-13 30 -20 73 -21 133 -4 136 -12 124 83 124 l82
0 58 123 c31 67 57 132 57 145 l0 22 -254 0 c-216 0 -255 -2 -260 -15z"/>
</g>
</svg>
