<?xml version="1.0" standalone="no"?>
<!DOCTYPE svg PUBLIC "-//W3C//DTD SVG 20010904//EN"
 "http://www.w3.org/TR/2001/REC-SVG-20010904/DTD/svg10.dtd">
<svg version="1.0" xmlns="http://www.w3.org/2000/svg"
   viewBox="0 0 3092.000000 4146.000000"
 preserveAspectRatio="xMidYMid meet">
<metadata>
Created by potrace 1.16, written by Peter Selinger 2001-2019
</metadata>
<g transform="translate(0.000000,4146.000000) scale(0.100000,-0.100000)"
fill="#000000" stroke="none">
<path d="M15710 41368 c0 -51 -9 -435 -20 -853 -11 -418 -20 -786 -20 -817 l0
-58 -85 0 c-84 0 -85 0 -85 -25 0 -25 0 -25 -94 -25 -53 0 -98 -4 -101 -10 -4
-6 -131 -10 -348 -10 l-342 -1 -73 -67 -72 -67 -11 -110 c-5 -60 -12 -125 -15
-142 l-5 -33 -239 0 -240 0 0 160 0 160 -607 0 -608 1 -1390 -142 c-764 -78
-1393 -145 -1397 -148 -3 -3 -29 -125 -57 -271 -50 -263 -51 -265 -83 -292
l-33 -26 -396 -2754 -396 -2753 74 -70 73 -70 -15 -100 c-8 -55 -15 -103 -15
-107 0 -5 -29 -8 -65 -8 -70 0 -125 -20 -125 -45 0 -12 -17 -15 -90 -15 -87 0
-90 -1 -90 -23 0 -12 24 -56 53 -97 41 -57 59 -76 80 -78 l27 -3 0 -90 0 -89
-29 0 c-24 0 -36 -11 -80 -74 -28 -41 -51 -84 -51 -95 0 -20 5 -21 140 -21
120 0 140 -2 140 -16 0 -17 -18 -148 -26 -181 -4 -23 -6 -23 -184 -23 -212 0
-207 5 -127 -112 43 -65 57 -77 80 -78 l27 0 0 -90 c0 -88 -1 -90 -23 -90 -18
0 -37 -19 -80 -80 -85 -121 -86 -120 83 -120 139 0 140 0 140 -22 0 -21 -11
-98 -25 -185 l-6 -33 -179 0 c-214 0 -211 3 -124 -120 43 -63 61 -80 80 -80
23 0 24 -2 24 -85 0 -83 -1 -85 -24 -85 -19 0 -37 -17 -80 -80 -31 -44 -56
-89 -56 -100 0 -17 6 -20 50 -20 42 0 50 -3 50 -18 0 -26 41 -42 110 -42 50 0
60 -3 60 -17 0 -32 -920 -6747 -928 -6773 -7 -24 -18 -27 -307 -81 -165 -31
-308 -58 -317 -60 -10 -2 -97 -94 -193 -204 l-175 -199 0 -546 0 -546 175
-118 175 -119 0 -1023 0 -1023 -32 -6 c-18 -3 -849 -111 -1847 -240 -998 -128
-1817 -237 -1822 -242 -4 -4 -156 -240 -337 -523 -246 -386 -341 -528 -380
-564 l-52 -49 0 -88 0 -89 -55 0 -55 0 0 50 0 50 -380 0 -380 0 0 65 0 65 -90
0 -90 0 0 -65 0 -65 -135 0 -135 0 0 -115 0 -115 -30 0 c-27 0 -30 -3 -30 -30
0 -31 0 -31 -103 -56 -15 -3 -30 -10 -33 -15 -3 -5 -153 -9 -335 -9 -329 0
-330 0 -420 -27 -85 -25 -89 -28 -89 -55 l0 -28 -195 0 -195 0 0 -22 c0 -13 9
-36 20 -53 18 -27 20 -47 20 -215 0 -168 -2 -188 -20 -215 -11 -16 -20 -40
-20 -52 l0 -23 225 0 225 0 0 -35 c0 -19 -4 -35 -10 -35 -5 0 -10 -25 -10 -55
0 -30 5 -55 10 -55 6 0 10 -16 10 -35 l0 -35 -225 0 -225 0 0 -26 c0 -14 9
-37 20 -51 18 -24 20 -41 20 -217 0 -174 -2 -193 -20 -216 -11 -14 -20 -35
-20 -47 l0 -23 225 0 225 0 0 -35 c0 -19 -4 -35 -10 -35 -6 0 -10 -27 -10 -60
0 -33 4 -60 10 -60 6 0 10 -11 10 -25 l0 -25 -225 0 -225 0 0 -27 c0 -16 9
-39 20 -53 18 -23 20 -42 20 -215 0 -173 -2 -192 -20 -215 -11 -14 -20 -37
-20 -52 l0 -28 194 0 195 0 3 -26 c3 -23 12 -29 78 -50 61 -19 97 -24 192 -24
l117 0 3 -102 3 -102 75 -23 c69 -21 93 -23 323 -23 l247 0 0 -80 0 -80 408 0
408 0 133 -307 c73 -170 138 -313 145 -320 6 -6 533 -189 1171 -406 l1160
-394 41 -132 41 -133 151 -95 152 -94 0 -242 c0 -233 1 -247 31 -385 l31 -144
101 -131 100 -132 2013 -1295 2013 -1295 73 -5 73 -5 592 -1885 c326 -1037
593 -1891 593 -1898 0 -7 -12 -29 -27 -48 -26 -35 -26 -35 -11 -89 l15 -55
-68 0 c-67 0 -69 -1 -69 -25 0 -14 24 -58 55 -102 l55 -78 0 -89 0 -88 -55
-79 c-84 -120 -86 -118 106 -121 l161 -3 39 -120 c21 -66 39 -121 39 -122 0
-2 -31 -3 -70 -3 -66 0 -70 -1 -70 -23 0 -12 25 -57 55 -100 l55 -77 0 -88 0
-88 -55 -79 c-30 -44 -55 -90 -55 -102 0 -22 1 -23 162 -25 l162 -3 38 -120
c21 -66 38 -123 38 -127 0 -5 -31 -8 -70 -8 -89 0 -90 -8 -15 -115 l55 -79 0
-94 0 -93 -55 -78 c-30 -43 -55 -88 -55 -100 0 -20 4 -21 145 -21 l145 0 0
-39 c0 -38 1 -40 90 -92 l89 -54 37 -115 c19 -63 73 -232 118 -375 l82 -260
1272 -3 1272 -2 0 -98 c0 -53 3 -127 7 -164 l6 -68 68 0 69 0 0 -62 c0 -111
40 -1570 46 -1665 6 -90 7 -93 30 -93 23 0 24 3 24 68 0 37 9 366 20 732 11
366 20 745 20 843 l0 177 180 0 180 0 0 30 0 30 172 0 c168 0 172 0 205 26 31
23 33 29 33 85 0 46 3 59 15 59 12 0 15 19 15 110 0 91 -3 110 -15 110 -11 0
-15 12 -15 50 0 44 -4 54 -32 79 l-31 28 31 23 c30 22 32 28 32 82 0 45 3 58
15 58 12 0 15 19 15 110 0 91 -3 110 -15 110 -11 0 -15 13 -15 54 0 49 -3 57
-32 79 l-32 25 32 27 c29 25 32 32 32 86 0 46 3 59 15 59 12 0 15 19 15 110 0
91 -3 110 -15 110 -11 0 -15 12 -15 47 0 37 -6 53 -27 75 l-27 28 55 0 55 0
39 79 c33 69 47 86 103 127 l65 48 184 -187 183 -188 0 -415 c0 -333 3 -421
14 -447 8 -18 71 -88 140 -157 l126 -125 27 28 28 27 -128 128 -127 127 0 405
0 404 65 -64 c51 -51 67 -62 77 -52 10 10 -3 28 -62 87 -70 71 -73 75 -57 93
16 18 16 20 -3 37 -18 16 -20 31 -20 157 l0 138 305 0 305 0 0 -45 0 -45 415
0 415 0 0 28 0 29 647 6 c355 4 1237 7 1960 7 1160 0 1313 2 1313 15 0 13
-177 15 -1530 15 l-1530 0 0 40 0 40 -430 0 -430 0 0 37 0 36 -720 -7 -720 -8
0 201 0 201 -40 0 -40 0 0 -199 0 -199 -177 -4 c-98 -2 -181 -2 -186 0 -4 2
53 122 128 266 l135 263 0 182 0 181 506 0 507 0 273 195 273 195 455 0 456 0
0 -260 0 -260 147 0 147 0 403 218 402 217 1 380 1 380 1950 1385 1951 1385
108 126 109 127 40 140 41 140 0 1039 0 1038 -191 193 -191 192 -104 0 -104 0
-1 -737 -1 -738 -25 75 c-25 73 -26 86 -33 445 -4 204 -11 688 -14 1078 l-6
707 1575 0 1575 0 0 -25 0 -25 594 0 594 0 34 58 34 57 982 3 982 2 0 25 0 25
698 3 697 2 -697 3 -698 2 0 30 0 30 -939 0 c-743 0 -940 3 -943 13 -4 9 -464
13 -2245 15 l-2241 4 -7 521 c-4 287 -6 533 -4 546 3 20 62 55 387 230 l382
205 0 772 0 772 -32 11 c-18 5 -197 62 -398 125 l-365 114 -840 97 c-462 52
-852 98 -867 101 l-28 6 0 594 0 594 880 0 c776 0 880 2 880 15 0 13 -104 15
-880 15 l-880 0 0 64 0 64 -96 114 c-54 62 -110 128 -127 147 l-30 35 -391 63
c-215 34 -401 65 -413 68 -22 5 -23 9 -23 124 l0 118 -37 41 -38 41 -876 140
-876 141 -246 0 -247 0 0 145 0 145 25 0 c13 0 62 17 108 38 l83 39 32 82 32
82 0 325 0 324 465 0 c458 0 465 0 465 -20 0 -20 7 -20 598 -20 l597 0 45 78
46 77 779 5 780 5 -773 3 -774 2 21 36 c12 20 20 39 17 42 -3 2 -514 7 -1136
10 l-1130 5 0 868 0 869 1072 0 1072 0 58 57 58 57 0 63 0 63 1310 0 c1158 0
1310 2 1310 15 0 13 -152 15 -1310 15 l-1310 0 0 1505 0 1505 45 0 c42 0 45
-2 35 -19 -5 -11 -10 -24 -10 -30 0 -8 257 -11 855 -11 l856 0 31 50 31 50
163 0 c103 0 164 4 164 10 0 6 -57 10 -152 10 l-153 0 3 50 4 50 -850 0 c-557
0 -853 -3 -857 -10 -3 -5 -42 -10 -86 -10 l-79 0 0 3158 0 3158 -58 57 -58 57
-342 0 -342 0 0 460 0 460 35 0 35 0 0 185 0 185 -55 0 -55 0 0 135 0 135 55
0 55 0 0 79 c0 93 21 81 -185 106 -192 24 -175 15 -175 85 l0 60 123 0 122 0
69 -50 69 -50 318 0 319 0 70 140 70 140 75 0 75 0 0 112 0 111 829 -6 c721
-5 831 -4 841 8 10 12 54 15 251 15 206 0 239 2 239 15 0 13 -126 15 -1075 15
l-1075 0 0 25 c0 24 2 25 65 25 l65 0 0 145 0 145 -66 0 -66 0 4 75 3 75 -42
0 -42 0 2 183 c2 100 0 216 -4 257 l-6 75 -1 -62 c-2 -78 -8 -93 -38 -93 -23
0 -23 -2 -26 -102 l-3 -103 -46 -3 -47 -3 -243 210 -244 211 -1087 0 -1088 0
0 424 0 424 -244 308 -243 309 468 3 c301 1 469 6 469 12 0 7 197 10 559 10
l559 0 98 -72 99 -73 600 -6 c330 -4 752 -7 938 -8 l337 -1 0 40 0 40 430 0
430 0 0 35 0 35 1530 0 c1353 0 1530 2 1530 15 0 13 -153 15 -1313 15 -723 0
-1605 3 -1960 7 l-647 6 0 29 0 28 -310 0 c-200 0 -310 4 -310 10 0 7 237 10
690 10 569 0 690 2 690 13 0 14 378 24 1125 29 224 2 192 3 -195 9 -256 3
-570 7 -697 8 l-233 1 0 29 0 29 -1082 6 c-2593 14 -2770 17 -2762 35 4 9 6
23 6 31 -1 17 -117 488 -133 537 l-10 33 -297 3 -297 2 298 3 c234 1 298 5
294 15 -3 6 -29 108 -58 225 l-54 212 -237 0 c-152 0 -238 4 -238 10 0 6 85
10 235 10 129 0 235 1 235 3 0 25 -73 263 -82 268 -7 5 -42 9 -78 10 -36 1
-55 4 -42 6 12 2 20 9 17 14 -4 5 -61 9 -128 9 l-122 -1 -37 -47 -38 -47 2
-430 1 -430 7 427 7 428 34 39 34 39 75 -1 75 -1 -71 -3 c-70 -4 -72 -5 -104
-44 l-32 -40 1 -634 c1 -348 -2 -641 -5 -649 -10 -25 -24 -19 -24 10 0 22 -2
25 -15 14 -8 -7 -15 -19 -15 -26 0 -11 -27 -14 -138 -14 l-138 0 -37 38 -37
38 -2 708 -3 708 -202 112 c-189 103 -203 113 -203 139 0 15 -45 275 -100 577
-55 302 -100 552 -100 555 0 3 -114 5 -254 5 -159 0 -257 4 -261 10 -3 6 -44
10 -91 10 -83 0 -84 0 -84 25 0 25 -1 25 -80 25 l-80 0 0 83 c0 45 -9 424 -20
842 -11 418 -20 790 -20 828 0 65 -1 67 -25 67 -25 0 -25 -1 -25 -92z m-1300
-2550 c0 -13 -7 -86 -15 -163 -12 -111 -15 -326 -15 -1035 l0 -895 -85 -85
-85 -85 0 -372 0 -373 -132 0 -131 0 6 617 c4 339 7 1021 7 1515 l0 898 225 0
225 0 0 -22z m2559 -678 l101 -54 0 -653 0 -653 -50 0 -50 0 0 80 0 80 -60 0
-60 0 0 631 c0 355 4 629 9 627 5 -1 54 -28 110 -58z m-3359 -1031 l0 -701
-77 -114 -78 -113 -142 -1 -143 0 0 105 0 105 195 0 195 0 0 615 0 615 -195 0
-195 0 0 95 0 95 220 0 220 0 0 -701z m7050 -639 l0 -30 -220 0 c-121 0 -220
2 -220 5 0 3 7 17 16 30 l16 25 204 0 204 0 0 -30z m-1007 -37 c-7 -2 -21 -2
-30 0 -10 3 -4 5 12 5 17 0 24 -2 18 -5z m-2003 -1099 l0 -384 -287 0 -288 -1
-30 -39 c-19 -24 -38 -39 -52 -40 l-23 0 0 410 0 410 255 0 255 0 0 25 c0 23
-4 25 -45 25 l-45 0 0 45 0 45 50 0 c47 0 50 2 50 25 0 23 -3 25 -50 25 l-50
0 0 86 0 86 130 -167 130 -167 0 -384z m3015 -646 c3 -18 5 -60 3 -93 -2 -45
-7 -60 -18 -60 -12 0 -16 18 -18 93 -2 76 0 92 12 92 9 0 18 -13 21 -32z m-58
-213 c9 -24 0 -25 -26 -4 -23 19 -23 19 -2 19 12 0 24 -7 28 -15z m61 -34 c3
-40 2 -42 -17 -31 -14 7 -21 21 -21 39 0 59 34 53 38 -8z m-3358 -15886 l0
-295 -35 0 -35 0 0 295 0 295 35 0 35 0 0 -295z m-14560 -870 l0 -185 -55 0
-55 0 0 185 0 185 55 0 55 0 0 -185z m-1610 -75 l-35 -29 -277 -1 -278 0 0 30
0 30 312 0 312 0 -34 -30z m-99 -147 l-28 -78 -68 -3 -68 -3 73 81 c51 57 79
80 96 80 l23 0 -28 -77z m289 -38 c0 -20 -5 -25 -27 -25 l-26 0 23 25 c13 14
25 25 27 25 2 0 3 -11 3 -25z m1420 -45 l0 -60 -55 0 -55 0 0 60 0 60 55 0 55
0 0 -60z m0 -225 l0 -105 -55 0 -55 0 0 105 0 105 55 0 55 0 0 -105z m-1760
-12 l0 -68 -55 60 c-30 33 -54 63 -55 68 0 4 25 7 55 7 l55 0 0 -67z m340 -28
l0 -65 -45 0 -45 0 0 65 0 65 45 0 45 0 0 -65z m-570 -150 l0 -35 -115 0 -115
0 0 35 0 35 115 0 115 0 0 -35z m0 -180 l0 -35 -115 0 -115 0 0 35 0 35 115 0
115 0 0 -35z m0 -650 l0 -35 -115 0 -115 0 0 35 0 35 115 0 115 0 0 -35z m0
-180 l0 -25 -115 0 -115 0 0 25 0 25 115 0 115 0 0 -25z m20 -645 l0 -30 -115
0 -115 0 0 30 0 30 115 0 115 0 0 -30z m320 0 l65 -29 -112 -1 -113 0 0 30 c0
29 1 30 48 30 30 0 70 -11 112 -30z m242 -107 l88 -37 0 -68 0 -68 -245 0
-245 0 0 105 0 105 157 0 158 0 87 -37z m6089 -3632 l1574 -989 28 -98 c15
-55 26 -104 25 -111 -4 -15 -3157 1988 -3183 2021 -14 19 -21 47 -23 96 -2 39
-2 70 1 70 3 0 713 -445 1578 -989z m198 -543 c817 -500 1491 -915 1498 -921
11 -11 95 -308 89 -314 -2 -2 -734 445 -1628 993 l-1626 997 70 88 c63 78 73
87 91 78 11 -6 688 -420 1506 -921z m15594 -1870 c-13 -22 -546 -407 -1802
-1300 -982 -697 -1786 -1266 -1789 -1263 -2 2 -2 10 1 18 3 8 804 582 1780
1275 1639 1166 1776 1265 1798 1307 22 42 24 44 27 20 2 -14 -5 -40 -15 -57z
m-3875 -2773 c-1 -1 -100 -71 -218 -155 -118 -84 -237 -168 -263 -188 -44 -31
-48 -33 -45 -14 4 29 521 398 526 376 2 -9 2 -17 0 -19z m-5 -1136 c-7 -6
-398 -216 -490 -263 l-33 -17 0 159 0 159 263 186 262 187 3 -202 c1 -111 -1
-205 -5 -209z m-3183 -1594 c0 -58 -1 -105 -3 -105 -1 0 -49 47 -107 105
l-105 105 108 0 107 0 0 -105z"/>
</g>
</svg>
