<?xml version="1.0" standalone="no"?>
<!DOCTYPE svg PUBLIC "-//W3C//DTD SVG 20010904//EN"
 "http://www.w3.org/TR/2001/REC-SVG-20010904/DTD/svg10.dtd">
<svg version="1.0" xmlns="http://www.w3.org/2000/svg"
   viewBox="0 0 2606.000000 637.000000"
 preserveAspectRatio="xMidYMid meet">
<metadata>
Created by potrace 1.16, written by Peter Selinger 2001-2019
</metadata>
<g transform="translate(0.000000,637.000000) scale(0.100000,-0.100000)"
fill="#000000" stroke="none">
<path d="M11177 6359 c-10 -6 -31 -39 -47 -73 l-28 -63 -77 -6 c-43 -4 -117
-7 -164 -7 l-87 0 -72 -73 -72 -72 0 -98 0 -97 -210 0 -210 0 0 50 0 50 -160
0 -160 0 0 -49 0 -49 -191 -99 -190 -98 -42 -72 -42 -72 -73 -3 -74 -3 -170
193 -170 192 -334 0 -334 0 0 -29 c0 -24 8 -34 43 -53 40 -22 42 -26 45 -75
l3 -52 -46 -27 -47 -27 4 -50 3 -50 -137 -76 -138 -76 0 -147 0 -148 -245 0
-245 0 0 139 0 139 -252 7 c-139 3 -341 5 -448 3 -164 -2 -195 -5 -197 -18 -1
-8 -7 -48 -13 -87 l-12 -73 -259 0 -259 0 0 195 0 195 -77 0 c-57 0 -81 -4
-95 -17 -14 -13 -21 -14 -30 -5 -23 23 -479 14 -803 -16 l-290 -27 -15 -57
-14 -58 -508 0 -508 0 0 265 0 265 -22 0 c-31 0 -1501 -149 -1503 -152 -1 -2
-7 -35 -14 -75 -15 -85 -3 -80 -198 -86 -94 -3 -127 -1 -143 10 -17 12 -79 6
-497 -52 -263 -36 -490 -68 -505 -71 -23 -5 -29 -15 -47 -72 -11 -37 -34 -130
-51 -207 -17 -77 -44 -189 -60 -250 -59 -222 -190 -889 -190 -969 l0 -41 527
21 c336 13 536 24 549 32 11 6 26 18 34 26 10 13 39 16 166 16 l154 0 0 -25 0
-25 460 0 460 0 0 -84 0 -85 -135 -98 -134 -98 -1 -112 0 -113 -32 0 c-87 1
-208 30 -287 69 -75 38 -81 43 -81 73 l0 31 -102 -7 c-57 -3 -546 -11 -1088
-17 -541 -6 -986 -11 -987 -13 -6 -6 47 -174 140 -441 57 -165 139 -409 182
-542 57 -175 83 -243 95 -246 12 -3 24 -32 41 -96 l24 -91 850 0 850 1 174
134 175 135 378 0 378 0 0 -246 0 -246 65 -94 66 -94 502 0 502 0 118 -27 119
-27 85 -131 c47 -71 90 -140 96 -152 10 -23 14 -23 182 -23 l172 0 96 90 97
90 229 0 c219 0 231 1 244 20 13 18 16 19 27 5 9 -11 33 -15 96 -15 l84 0 0
540 0 540 259 0 259 0 5 -22 c3 -13 9 -48 12 -79 4 -31 11 -62 15 -70 7 -10
64 -15 252 -21 134 -4 247 -9 251 -11 4 -1 -6 -20 -22 -42 -17 -22 -31 -43
-31 -47 0 -5 99 -8 220 -8 l220 0 0 -80 0 -80 -231 0 -231 0 64 -77 c59 -72
69 -79 119 -91 30 -7 71 -18 92 -23 l37 -10 0 -57 1 -57 118 -109 118 -110
169 -47 169 -48 318 -1 317 0 0 -125 0 -124 126 -161 125 -160 45 0 c40 0 44
-2 44 -25 l0 -25 390 0 390 0 0 -80 0 -80 -389 0 -389 0 -34 -27 c-18 -15 -35
-28 -36 -29 -2 -1 9 -41 24 -88 l28 -86 299 0 c279 0 298 -1 295 -17 -3 -17
-26 -18 -291 -21 -158 -1 -287 -4 -287 -7 0 -2 25 -118 55 -257 30 -139 55
-254 55 -255 0 -2 173 -3 384 -3 l383 0 49 190 49 191 242 292 243 292 0 88 0
87 584 0 583 0 202 215 202 215 852 0 c669 0 856 3 866 13 11 9 14 9 18 0 4
-10 62 -13 245 -13 l240 0 132 70 132 70 374 0 c205 1 374 -1 376 -3 2 -2 19
-55 37 -118 l34 -114 41 -15 c36 -12 42 -19 42 -42 l0 -28 126 0 c146 0 264
16 264 36 0 12 59 14 328 14 273 0 331 2 348 15 17 13 10 14 -77 15 l-96 0 -6
30 -6 30 -226 0 -226 0 -54 34 c-40 26 -52 39 -49 54 3 10 11 68 17 127 l13
109 32 10 c31 8 32 11 32 59 0 40 -5 57 -24 76 -23 26 -23 27 -12 121 10 79
18 107 51 167 l39 73 338 0 338 0 0 -235 0 -235 95 0 95 0 0 -55 c0 -54 0 -55
30 -55 19 0 33 -7 40 -20 10 -19 21 -20 153 -20 l142 -1 98 -120 99 -120 201
2 c127 1 218 6 244 14 l42 13 118 -91 118 -92 465 -8 465 -8 110 -110 c104
-102 113 -109 150 -109 22 0 191 -9 375 -21 l335 -22 302 -204 303 -203 570 0
570 0 320 132 320 132 0 153 0 153 88 0 c86 0 89 -1 120 -33 31 -32 32 -35 32
-125 l0 -92 367 0 366 0 63 -35 62 -35 535 0 536 0 12 35 13 35 357 0 358 0
19 -25 20 -25 263 0 c145 0 342 3 437 7 l172 6 0 29 0 28 -421 0 -421 0 -20
25 -19 25 -356 0 c-350 0 -355 0 -350 20 5 18 0 20 -37 20 -40 0 -44 -2 -61
-40 l-18 -40 -464 0 -463 0 0 69 0 69 85 106 86 106 146 0 146 0 -7 38 c-3 20
-6 42 -6 49 0 9 -32 13 -110 15 l-110 3 75 115 75 115 0 98 0 97 -579 0 -580
0 -61 -75 -61 -75 -70 0 c-38 0 -69 3 -69 8 1 4 7 18 15 32 8 14 14 28 15 33
0 4 -78 7 -172 7 -95 0 -210 3 -255 7 l-83 6 0 63 0 63 -40 23 -40 23 1 75 c0
41 4 97 7 124 l7 49 164 55 c151 50 165 57 183 88 19 32 23 34 78 34 55 0 58
2 70 30 l12 30 400 0 c390 0 400 0 405 20 5 19 16 20 266 22 l261 3 7 27 7 27
-562 -5 c-308 -2 -625 -6 -703 -8 -79 -3 -143 -3 -143 0 0 3 9 23 20 44 16 30
26 40 45 40 34 0 32 21 -6 83 l-31 50 89 -7 c48 -4 114 -9 146 -13 l57 -6 0
30 0 29 -327 28 c-181 15 -360 32 -399 39 l-71 11 4 140 c3 78 6 147 9 155 3
9 14 12 37 8 l33 -5 62 230 63 230 -40 67 c-23 36 -69 111 -104 166 l-62 100
-125 61 -125 62 -72 94 -72 94 -380 213 c-209 117 -388 219 -397 226 -16 11
-15 19 21 101 37 88 87 226 82 229 -1 1 -362 133 -802 293 l-800 292 -453 0
-453 0 3 -37 3 -37 205 -116 205 -117 3 -49 2 -49 -59 -42 -59 -43 -299 0
-299 0 -11 29 c-7 19 -8 45 -2 73 4 23 8 121 9 216 l0 172 -154 0 c-119 0
-156 -3 -165 -14 -9 -10 -19 -12 -39 -5 -15 5 -53 11 -85 15 -55 5 -63 10
-175 102 l-116 97 -95 5 -95 5 -40 68 -41 67 -539 0 -540 0 -54 -37 -54 -38
-147 -7 c-80 -3 -152 -7 -158 -7 -7 -1 -13 -12 -13 -26 l0 -25 161 0 160 0 -3
-52 -3 -52 -125 -47 -125 -47 -215 -1 c-158 -1 -220 -4 -229 -13 -11 -10 -14
-10 -18 0 -3 8 -25 12 -62 12 -50 0 -64 5 -107 35 l-49 35 -260 0 -260 -1 -25
-34 -25 -34 -260 -1 -260 0 -22 -35 c-13 -19 -23 -37 -23 -40 0 -3 58 -5 128
-5 l128 0 21 -43 21 -43 -22 -37 c-21 -36 -22 -37 -85 -37 -58 0 -68 -3 -107
-35 l-42 -35 -180 0 -179 0 -9 -42 -9 -41 -160 -54 -160 -53 -201 0 -201 0 -7
38 c-3 20 -6 54 -6 75 0 29 -13 57 -57 122 -48 73 -60 85 -84 85 -19 0 -37 11
-61 38 -36 42 -283 202 -312 202 -14 0 -16 6 -12 28 16 81 26 156 32 235 l6
87 103 0 103 0 -20 68 c-11 37 -32 79 -46 95 l-26 27 -207 0 -208 0 24 55 25
55 -338 0 c-220 -1 -343 -4 -355 -11z m-6427 -2494 l0 -75 -141 0 -140 0 -191
-155 -190 -155 -454 0 -454 0 0 -60 c0 -57 -1 -60 -25 -60 -18 0 -25 5 -25 20
0 16 -7 20 -30 20 l-30 0 0 131 0 131 43 59 42 58 462 1 462 0 32 80 33 80
303 0 303 0 0 -75z m13685 -115 l50 -30 287 0 288 0 5 -22 c14 -56 53 -233 52
-234 -1 -1 -87 -6 -192 -13 -148 -8 -192 -14 -201 -26 -9 -12 -43 -15 -193
-15 l-181 0 0 -44 0 -45 -90 6 c-64 4 -90 3 -90 -6 0 -7 -26 -11 -80 -11 l-80
0 0 235 0 235 188 0 187 0 50 -30z m-14819 -1490 l108 -170 350 0 351 -1 57
-94 58 -95 -503 0 -502 0 -42 49 -43 50 0 215 0 216 29 0 c26 0 38 -15 137
-170z m14996 -625 c20 -82 38 -156 38 -162 0 -10 -74 -13 -340 -13 l-340 0
-13 33 c-46 108 -46 98 6 202 l47 95 282 -2 282 -3 38 -150z m-7017 -180
l-187 -195 -519 0 c-512 0 -519 0 -519 20 0 20 -7 20 -519 20 -336 0 -522 -4
-526 -10 -3 -5 -28 -10 -54 -10 -44 0 -50 3 -80 40 -24 30 -39 40 -61 40 -20
0 -35 9 -50 30 -21 29 -24 30 -99 30 -77 0 -79 1 -103 33 -24 31 -24 34 -10
73 l15 41 345 6 c190 4 679 7 1086 7 l741 0 49 35 50 35 314 0 314 0 -187
-195z m-1443 -282 c10 -9 18 -30 18 -50 l0 -33 -450 0 -450 0 0 50 0 50 432 0
c387 0 433 -2 450 -17z"/>
</g>
</svg>
