<?xml version="1.0" standalone="no"?>
<!DOCTYPE svg PUBLIC "-//W3C//DTD SVG 20010904//EN"
 "http://www.w3.org/TR/2001/REC-SVG-20010904/DTD/svg10.dtd">
<svg version="1.0" xmlns="http://www.w3.org/2000/svg"
   viewBox="0 0 4492.000000 861.000000"
 preserveAspectRatio="xMidYMid meet">
<metadata>
Created by potrace 1.16, written by Peter Selinger 2001-2019
</metadata>
<g transform="translate(0.000000,861.000000) scale(0.100000,-0.100000)"
fill="#000000" stroke="none">
<path d="M13623 8551 c-7 -35 -14 -65 -15 -66 -2 -1 -24 -6 -50 -9 l-48 -7 -1
58 -1 58 -12 -55 c-9 -43 -16 -56 -31 -58 -11 -1 -263 -13 -560 -27 -486 -22
-600 -31 -1125 -85 l-585 -61 -352 -127 -353 -127 0 -377 c0 -208 -1 -378 -2
-379 -2 0 -410 -22 -907 -49 l-904 -48 -219 109 c-120 60 -226 109 -237 109
-11 0 -65 -11 -122 -24 l-103 -25 -573 154 -574 153 -1447 -378 -1447 -378
-685 -311 c-624 -284 -749 -345 -1413 -691 l-727 -379 -315 -283 -315 -283
-189 -285 -189 -285 -62 -281 -61 -280 62 -220 63 -219 186 -248 185 -249 325
-162 325 -163 380 -126 380 -125 1255 -156 1255 -156 1784 -125 1783 -125 662
166 661 165 130 -6 130 -6 273 119 274 118 346 -57 346 -58 632 -31 c347 -16
710 -30 805 -30 145 0 1087 -78 5659 -470 l5485 -470 3550 -346 3550 -345
2960 -223 2960 -223 1745 64 1745 63 1030 -90 c567 -50 1049 -92 1071 -95 39
-6 42 -4 52 25 11 30 12 30 84 31 72 0 967 65 938 68 -222 18 -861 61 -906 61
l-62 0 21 65 21 65 417 0 c275 0 418 3 421 10 2 6 103 16 248 25 135 8 275 17
313 20 l67 5 0 -30 c0 -37 -3 -37 205 0 l160 28 -151 1 -150 1 -29 30 -29 30
652 0 c359 0 652 4 652 8 0 4 -105 18 -232 30 -199 19 -293 23 -639 22 -223 0
-440 3 -482 6 -76 7 -77 7 -77 35 l0 29 -508 0 -508 0 -29 30 c-28 29 -31 30
-122 30 l-93 0 -126 189 -126 190 31 217 c24 171 28 220 19 226 -7 4 -870 486
-1917 1069 l-1904 1062 -1141 222 -1141 223 -2473 752 -2473 751 -2982 660
-2982 659 -2925 315 -2925 314 -175 -30 c-173 -30 -186 -31 -1098 -62 l-922
-32 0 470 0 471 -617 92 -618 92 -1047 0 -1047 0 -3 68 -3 67 -12 -64z"/>
</g>
</svg>
