<?xml version="1.0" standalone="no"?>
<!DOCTYPE svg PUBLIC "-//W3C//DTD SVG 20010904//EN"
 "http://www.w3.org/TR/2001/REC-SVG-20010904/DTD/svg10.dtd">
<svg version="1.0" xmlns="http://www.w3.org/2000/svg"
   viewBox="0 0 4378.000000 701.000000"
 preserveAspectRatio="xMidYMid meet">
<metadata>
Created by potrace 1.16, written by Peter Selinger 2001-2019
</metadata>
<g transform="translate(0.000000,701.000000) scale(0.100000,-0.100000)"
fill="#000000" stroke="none">
<path d="M9037 6925 l-189 -85 -321 0 c-304 0 -323 -2 -347 -20 -22 -17 -41
-20 -142 -20 l-116 0 -105 -60 -104 -60 -250 0 -249 0 -189 -89 -190 -89 -3
-101 -3 -101 103 0 103 0 110 -65 110 -65 -610 0 -611 0 -44 -45 -44 -45 44
-45 44 -45 1173 0 c1166 0 1173 0 1173 20 0 19 7 20 111 20 91 0 231 -19 787
-105 372 -58 684 -107 692 -109 8 -2 -391 -4 -887 -5 l-903 -1 0 35 0 34
-1462 4 c-1194 3 -1537 6 -1863 21 -369 16 -419 16 -640 2 -145 -10 -554 -20
-1035 -26 l-795 -11 -239 -35 c-196 -28 -268 -43 -402 -84 -158 -48 -167 -50
-284 -50 l-121 0 -256 -125 c-141 -69 -259 -125 -263 -125 -4 0 -15 36 -25 80
-10 45 -22 83 -26 85 -4 3 -86 -32 -183 -77 l-176 -82 0 -367 c0 -284 -3 -368
-12 -372 -7 -2 -46 -10 -86 -17 l-72 -13 0 -78 0 -79 156 -170 c86 -93 160
-170 166 -170 5 0 32 10 59 21 29 13 54 18 59 13 4 -5 62 -74 129 -154 l120
-145 -227 -6 c-287 -7 -388 -28 -578 -118 l-124 -60 0 -575 0 -576 121 -61
c101 -50 144 -65 256 -90 124 -27 149 -29 343 -29 l210 0 0 -70 0 -70 575 0
575 0 0 -108 0 -107 63 -72 62 -72 68 -1 c64 0 67 -1 67 -24 0 -19 8 -27 33
-35 17 -5 122 -37 232 -71 110 -34 215 -66 233 -71 31 -10 32 -13 32 -62 l0
-52 258 -258 257 -257 218 0 c167 0 217 -3 217 -12 0 -7 104 -73 230 -145
l229 -133 191 0 190 0 0 -48 0 -48 774 -347 774 -347 1362 0 1361 0 96 52 c53
29 98 61 101 71 4 16 57 17 927 17 l923 0 409 195 410 195 4061 0 c2572 0
4062 -4 4064 -10 2 -6 18 -6 43 0 24 6 1545 10 3885 10 l3846 0 252 -70 252
-70 475 0 475 0 0 -195 0 -195 1500 0 1501 0 99 52 c81 43 99 58 102 78 3 23
7 25 48 23 27 -1 49 -8 56 -18 10 -13 107 -15 850 -15 l839 0 412 243 413 242
0 108 0 108 -84 40 -84 39 -251 0 c-216 0 -251 2 -251 15 0 13 175 15 1515 15
l1514 0 176 138 c151 118 175 141 175 165 l0 27 94 0 93 0 207 150 207 150
658 0 658 0 359 85 c197 47 369 87 382 90 22 5 22 8 22 150 0 142 0 145 23
150 12 3 580 136 1261 295 682 159 1242 293 1245 298 3 5 186 50 406 101 220
51 419 97 443 103 l42 10 -2 472 -3 471 -1695 172 c-932 94 -1701 172 -1707
172 -9 1 -13 18 -13 49 l0 48 -372 87 -373 87 -560 3 -560 2 213 220 212 219
0 201 -1 200 -432 238 -433 237 -110 0 c-74 0 -104 -3 -94 -10 10 -6 -247 -10
-733 -10 -734 0 -749 0 -774 -20 -14 -11 -40 -20 -58 -20 -27 0 -35 5 -43 29
-8 22 -31 39 -110 80 l-100 51 -1360 0 -1359 0 -769 -345 -769 -344 -3 -101
-3 -100 -61 0 c-58 0 -70 -5 -190 -71 -70 -39 -128 -77 -128 -85 0 -12 -68
-14 -426 -14 l-426 0 -286 91 c-279 89 -405 118 -517 119 -50 1 -50 1 -190
127 -124 113 -151 132 -243 175 l-103 48 -289 0 c-283 0 -290 0 -290 20 0 20
-7 20 -275 20 -268 0 -275 0 -275 -20 0 -20 -7 -20 -1730 -20 -1723 0 -1730 0
-1730 20 0 20 -7 20 -275 20 -268 0 -275 0 -275 -20 0 -20 -7 -20 -1725 -20
-1718 0 -1725 0 -1725 20 0 20 -7 20 -275 20 -268 0 -275 0 -275 -20 0 -20 -7
-20 -1725 -20 -1718 0 -1725 0 -1725 20 0 20 -7 20 -280 20 -273 0 -280 0
-280 -20 0 -19 -7 -20 -117 -20 l-118 0 -840 328 -840 328 -3 67 -3 67 242 0
241 0 94 43 94 42 -2 108 -3 109 -414 244 -414 244 -833 0 c-821 0 -834 0
-854 -20 -13 -13 -33 -20 -60 -20 -36 0 -40 3 -40 24 0 20 -15 32 -95 75 l-95
51 -1383 0 -1382 0 -188 -85z m5912 -1484 l873 -341 114 0 c107 0 114 -1 114
-20 0 -18 7 -20 85 -20 50 0 85 -4 85 -10 0 -6 -57 -10 -150 -10 -119 0 -156
-3 -185 -17 -19 -9 -35 -23 -35 -30 0 -10 -47 -13 -235 -13 l-235 0 0 33 0 33
-463 172 -462 172 -678 0 -677 0 0 43 c0 39 -3 45 -37 65 l-38 22 356 0 357 0
148 139 c123 115 152 137 169 131 11 -4 413 -161 894 -349z m5111 -361 c0 -18
7 -20 80 -20 47 0 80 -4 80 -10 0 -6 -55 -10 -145 -10 -153 0 -215 -13 -215
-44 0 -14 -155 -16 -1540 -16 -1385 0 -1540 2 -1540 16 0 31 -62 44 -210 44
-87 0 -140 4 -140 10 0 6 37 10 90 10 83 0 90 1 90 20 0 20 7 20 1725 20 1718
0 1725 0 1725 -20z m4000 0 c0 -18 7 -20 80 -20 47 0 80 -4 80 -10 0 -6 -55
-10 -144 -10 -150 0 -216 -14 -216 -45 0 -13 -183 -15 -1535 -15 -1262 0
-1535 2 -1535 13 0 7 -16 21 -35 30 -28 13 -65 17 -175 17 -87 0 -140 4 -140
10 0 6 35 10 85 10 78 0 85 2 85 20 0 20 7 20 1725 20 1718 0 1725 0 1725 -20z
m4010 0 c0 -18 7 -20 80 -20 47 0 80 -4 80 -10 0 -6 -57 -10 -150 -10 -157 0
-210 -11 -210 -45 0 -13 -190 -15 -1540 -15 -1356 0 -1540 2 -1540 15 0 31
-66 45 -211 45 -86 0 -139 4 -139 10 0 6 35 10 85 10 78 0 85 2 85 20 0 20 7
20 1730 20 1723 0 1730 0 1730 -20z m1160 3 c14 -9 46 -36 72 -60 l47 -43
-279 0 c-240 0 -280 2 -280 15 0 33 -54 45 -200 45 -87 0 -140 4 -140 10 0 6
35 10 85 10 78 0 85 2 85 20 0 20 7 20 293 20 257 0 296 -2 317 -17z m9344
-437 l-237 -231 -66 -6 c-36 -4 -138 -7 -225 -8 l-159 -1 23 25 c23 25 26 25
174 25 l151 0 215 205 c173 166 216 212 218 235 2 17 9 30 17 30 7 0 37 11 67
25 l53 25 3 -47 3 -47 -237 -230z m-31284 234 l0 -80 -145 0 -145 0 0 80 0 80
145 0 145 0 0 -80z m10608 -352 c-3 -9 -43 -14 -140 -16 -111 -2 -137 0 -148
13 -11 13 4 15 140 15 117 0 151 -3 148 -12z m-48 -2890 c0 -95 3 -111 42
-220 l42 -118 378 0 378 0 0 -150 0 -150 530 0 530 0 0 -125 0 -125 -1510 0
-1510 0 0 125 0 125 515 0 515 0 0 370 0 370 45 0 45 0 0 -102z m4000 4 c0
-91 3 -107 44 -218 l44 -119 376 -3 376 -2 0 -150 0 -150 530 0 530 0 0 -125
0 -125 -765 0 c-421 0 -765 2 -765 4 0 3 61 37 135 76 l135 71 0 180 0 179
-365 0 -365 0 0 240 0 240 45 0 45 0 0 -98z m3917 -14 c-2 -24 -4 -7 -4 37 0
44 2 63 4 43 2 -21 2 -57 0 -80z m-11077 -483 l0 -145 530 0 530 0 0 -125 0
-125 -1742 1 -1743 0 60 30 c33 17 285 137 560 269 l500 239 653 0 652 1 0
-145z m20120 80 l0 -35 115 0 115 0 0 35 0 35 1217 0 c669 0 1214 -3 1211 -6
-3 -3 -45 -34 -92 -68 l-86 -63 -833 -7 c-457 -3 -1130 -9 -1494 -13 l-663 -6
0 21 c0 11 -14 32 -31 46 l-31 26 86 0 86 0 0 35 0 35 200 0 200 0 0 -35z
m-8132 -411 l213 -59 -165 -3 c-91 -1 -241 -1 -335 0 l-171 3 113 62 c61 34
117 60 122 58 6 -1 106 -29 223 -61z"/>
</g>
</svg>
