<?xml version="1.0" standalone="no"?>
<!DOCTYPE svg PUBLIC "-//W3C//DTD SVG 20010904//EN"
 "http://www.w3.org/TR/2001/REC-SVG-20010904/DTD/svg10.dtd">
<svg version="1.0" xmlns="http://www.w3.org/2000/svg"
   viewBox="0 0 4655.000000 2573.000000"
 preserveAspectRatio="xMidYMid meet">
<metadata>
Created by potrace 1.16, written by Peter Selinger 2001-2019
</metadata>
<g transform="translate(0.000000,2573.000000) scale(0.100000,-0.100000)"
fill="#000000" stroke="none">
<path d="M26652 25718 c-9 -9 -12 -521 -12 -2243 l0 -2230 -105 -53 -105 -52
0 -545 0 -545 105 -52 105 -53 0 -336 0 -336 -32 5 c-24 4 -60 30 -133 98
l-99 94 -131 0 -131 0 -76 55 -76 55 -221 0 c-214 0 -221 -1 -221 -20 0 -18
-7 -20 -60 -20 -53 0 -60 2 -60 20 0 15 -7 20 -25 20 -18 0 -25 -5 -25 -20 0
-18 -7 -20 -60 -20 -53 0 -60 2 -60 20 0 16 -7 20 -30 20 -23 0 -30 -4 -30
-20 0 -18 -7 -20 -60 -20 -53 0 -60 2 -60 20 0 19 -7 20 -214 20 l-215 0 -21
30 c-20 29 -25 30 -96 30 -59 0 -74 3 -74 15 0 13 -30 15 -210 15 -133 0 -210
-4 -210 -10 0 -16 -129 -12 -146 4 -11 12 -14 61 -16 248 l-2 233 -7 -235 c-3
-129 -7 -236 -8 -237 0 -2 -14 -3 -31 -3 l-30 0 -2 163 -2 162 -3 -158 c-4
-183 -10 -197 -86 -197 -37 0 -45 -4 -60 -30 l-18 -30 -746 0 -745 0 -89 -55
-89 -55 -123 0 -124 0 -256 -181 -257 -182 0 -53 0 -54 -816 0 -816 0 -60 55
-59 55 -2242 0 -2242 0 -43 50 -43 50 -623 0 -623 0 -7 53 c-3 28 -6 69 -6 89
0 78 -83 126 -186 107 -75 -14 -101 -64 -103 -196 l-1 -53 -245 0 -245 0 0 85
c0 82 -1 86 -32 120 -24 25 -45 37 -78 43 -110 20 -190 -28 -190 -114 0 -23
-3 -62 -6 -88 l-7 -46 -248 0 -249 0 0 88 c-1 80 -3 90 -28 119 -50 58 -188
61 -245 5 -26 -26 -29 -37 -34 -120 l-6 -92 -378 0 -377 0 -78 120 -77 120
-464 0 -463 0 0 1531 c0 1447 -1 1533 -17 1545 -15 11 -186 13 -923 13 l-905
0 -2297 -1437 -2298 -1437 0 -242 0 -242 -297 -97 c-164 -53 -304 -99 -311
-101 -9 -4 -12 29 -12 145 0 111 -3 152 -13 160 -20 17 -2743 18 -2763 2 -12
-11 -14 -200 -14 -1379 0 -1279 2 -1367 18 -1388 12 -15 85 -46 242 -102 l225
-79 63 -228 c35 -126 73 -249 85 -274 l22 -45 139 -5 138 -5 17 -46 c10 -25
62 -119 117 -207 l99 -161 800 -1 c610 0 804 3 813 12 7 7 12 31 12 55 l0 43
128 0 c70 0 218 -3 330 -7 l202 -6 0 -202 0 -202 43 -7 c23 -3 699 -142 1502
-308 l1460 -302 1015 -1384 c558 -761 1082 -1476 1164 -1588 l148 -204 519 0
c502 0 519 1 529 19 7 13 10 349 10 1018 0 549 3 1352 7 1786 l6 787 264 0
263 0 0 508 0 509 1643 6 c903 4 2359 7 3236 7 l1593 0 178 -170 178 -170 563
0 562 0 76 -62 76 -63 478 -77 479 -77 85 -78 c46 -43 139 -126 205 -185 116
-104 122 -108 167 -108 136 -2 3712 -148 3717 -152 3 -3 47 -182 98 -398 74
-312 97 -396 113 -409 30 -24 262 -995 244 -1024 -18 -28 13 -154 44 -183 14
-13 606 -1237 1389 -2874 l1366 -2853 725 -3277 c399 -1802 725 -3280 725
-3283 0 -4 -45 -7 -100 -7 -55 0 -100 -3 -99 -7 0 -5 17 -84 38 -178 l37 -170
596 -3 595 -2 21 -50 21 -50 518 0 518 0 62 50 62 50 358 0 358 0 80 69 80 68
300 23 c165 12 302 24 303 26 2 1 5 17 5 36 l2 33 -740 32 c-407 17 -741 32
-742 32 -2 1 -3 3151 -3 7001 l0 7000 114 0 115 0 45 -95 45 -95 134 0 135 0
18 -27 c10 -16 21 -53 25 -83 l6 -55 2 48 c1 61 17 77 75 77 35 0 49 5 58 20
12 19 24 20 383 20 l370 0 56 93 55 92 132 3 c123 2 132 1 142 -18 6 -11 17
-20 25 -20 12 0 15 -18 16 -87 1 -102 5 -99 14 10 6 72 8 77 30 77 15 0 26 7
30 20 6 18 15 20 94 20 l87 0 158 191 c87 104 156 192 155 194 -2 2 -27 12
-54 23 -28 11 -50 22 -50 25 0 3 38 34 85 69 l85 65 464 152 c455 149 466 153
551 212 l87 59 146 0 147 0 0 103 0 102 48 31 47 31 870 112 870 113 540 20
c341 12 549 16 566 10 16 -5 359 5 960 29 917 36 965 39 2604 160 1371 101
1673 126 1689 138 18 15 18 30 13 274 l-6 257 855 0 854 0 0 128 0 129 203 6
c111 4 277 7 369 7 l167 0 253 190 252 190 94 0 c91 0 94 1 119 30 17 21 34
30 55 30 16 0 149 52 294 116 209 93 264 121 264 135 0 11 -6 19 -12 19 -7 0
-768 115 -1692 257 -1210 184 -1683 253 -1695 246 -9 -6 -22 -32 -30 -59 -7
-27 -15 -50 -16 -52 -3 -3 -100 9 -191 23 -31 5 -31 6 -30 66 1 45 -3 64 -14
70 -8 4 -800 114 -1760 243 -1330 180 -1912 254 -2445 312 -631 68 -705 74
-755 64 -49 -11 -80 -33 -282 -191 l-228 -179 -1370 0 -1370 0 0 173 0 173
-154 147 -154 147 -661 0 -661 0 0 -35 0 -35 -90 0 -90 0 0 35 0 35 -310 0
-310 0 0 -35 0 -35 -80 0 -80 0 0 35 0 35 -135 0 -135 0 0 -35 0 -35 -80 0
-80 0 0 35 0 35 -145 0 -145 0 0 -35 0 -35 -80 0 -80 0 0 35 0 35 -140 0 -140
0 0 -35 0 -35 -85 0 -85 0 0 35 0 35 -75 0 -75 0 0 365 0 365 1288 0 1289 0
210 99 210 99 1064 12 c585 6 1079 13 1097 16 19 3 32 11 32 19 0 12 15 15 69
15 37 0 89 -3 115 -6 37 -6 46 -10 46 -27 0 -19 5 -20 83 -14 45 3 434 23 865
44 431 21 779 39 774 41 -5 1 -394 58 -863 126 -609 88 -856 120 -861 112 -4
-6 -9 -15 -11 -19 -1 -5 -50 4 -109 18 -90 23 -107 31 -110 48 -3 18 -46 32
-347 118 l-345 98 -930 21 c-512 11 -953 23 -981 26 l-50 5 -165 191 c-91 106
-173 202 -183 215 l-18 23 913 0 913 0 75 -115 75 -115 443 0 c265 0 442 4
440 9 -1 5 -320 808 -707 1783 l-705 1775 -1393 566 -1394 567 -2133 0 c-2125
0 -2134 0 -2139 20 -5 19 -14 20 -244 20 -173 0 -242 -3 -251 -12z m-16932
-3758 l0 -480 -1597 0 -1598 1 55 34 c30 19 372 234 760 479 l705 444 838 1
837 1 0 -480z m0 -1540 l0 -970 -330 0 c-308 0 -330 1 -330 18 0 9 -11 172
-25 362 -14 190 -25 357 -25 373 l0 27 -194 0 -193 0 -6 -82 c-3 -46 -14 -221
-24 -390 l-17 -308 -713 0 -713 0 0 23 c1 52 -32 714 -36 735 -4 22 -6 22
-189 22 l-184 0 -5 -32 c-4 -30 -36 -672 -36 -725 l0 -23 -588 0 -589 0 -93
110 -93 110 -764 0 -764 0 3 50 3 50 1280 810 1279 810 1673 0 1673 0 0 -970z
m7980 -4561 c367 -65 361 -63 450 -139 l34 -30 -454 0 -455 0 -114 108 c-113
106 -114 107 -85 113 16 4 85 7 154 8 112 1 160 -5 470 -60z"/>
</g>
</svg>
