<?xml version="1.0" standalone="no"?>
<!DOCTYPE svg PUBLIC "-//W3C//DTD SVG 20010904//EN"
 "http://www.w3.org/TR/2001/REC-SVG-20010904/DTD/svg10.dtd">
<svg version="1.0" xmlns="http://www.w3.org/2000/svg"
   viewBox="0 0 2849.000000 3493.000000"
 preserveAspectRatio="xMidYMid meet">
<metadata>
Created by potrace 1.16, written by Peter Selinger 2001-2019
</metadata>
<g transform="translate(0.000000,3493.000000) scale(0.100000,-0.100000)"
fill="#000000" stroke="none">
<path d="M18356 34918 c-3 -7 -12 -103 -21 -213 -9 -110 -17 -200 -18 -201 -1
-1 -310 18 -687 41 l-685 41 -470 -22 c-258 -13 -484 -23 -502 -23 l-32 -1 -3
-97 -3 -98 -430 -55 -430 -56 -3 -62 c-2 -44 -7 -62 -16 -62 -117 0 -3625
-174 -3711 -184 l-120 -14 -343 90 -343 90 -1497 -201 c-823 -111 -1513 -204
-1533 -207 l-37 -5 -8 58 c-6 39 -14 59 -24 60 -8 2 -902 -163 -1985 -366
l-1970 -369 -1711 -573 -1710 -574 -33 -88 -33 -89 75 -166 c41 -92 123 -277
183 -411 l108 -243 104 -49 c58 -27 113 -49 122 -49 10 0 441 72 958 159 l940
159 801 -183 802 -182 1067 137 1067 137 730 -418 730 -418 3 -320 c1 -177 1
-321 0 -322 -2 0 -1130 -20 -2507 -44 -1377 -25 -2506 -47 -2508 -49 -8 -7 8
-372 16 -385 5 -7 577 -21 1941 -46 1064 -19 1941 -36 1949 -38 7 -1 -187
-228 -436 -509 l-450 -506 -206 148 c-113 81 -210 151 -216 154 -6 4 -490
-152 -1076 -345 l-1064 -353 -3 -114 -3 -114 -915 -229 c-503 -125 -916 -228
-918 -229 -1 0 -1 -1317 0 -2927 l3 -2928 975 -242 c536 -133 1506 -374 2156
-536 l1181 -293 113 359 c93 294 117 358 130 354 9 -2 145 -42 303 -87 l287
-84 232 -269 233 -269 257 -129 256 -128 62 -90 62 -89 1042 -535 1041 -535
1264 -371 c695 -205 1268 -370 1272 -369 4 2 60 67 124 146 l116 142 47 0 c97
0 1855 -50 1857 -52 2 -2 10 -41 20 -88 9 -47 19 -93 21 -102 5 -17 46 -18
676 -18 l670 0 276 56 277 57 110 -116 110 -116 165 -15 c91 -9 186 -19 211
-22 39 -5 72 -24 215 -129 93 -68 200 -142 239 -164 l70 -39 935 -6 c514 -3
1138 -9 1387 -12 l451 -6 247 -305 c136 -168 261 -313 279 -324 17 -11 300
-155 628 -322 l598 -302 -1 -185 c0 -608 -17 -957 -73 -1595 -53 -602 -59
-647 -186 -1525 l-130 -905 -87 -190 c-85 -187 -87 -196 -194 -605 -95 -365
-169 -608 -613 -2005 l-506 -1590 -607 -1350 -607 -1350 -631 -1035 -630
-1035 -517 -730 c-515 -728 -518 -731 -861 -1140 -332 -395 -350 -414 -490
-530 -80 -66 -145 -121 -144 -121 1 -1 67 -27 145 -58 l144 -56 213 0 214 0
573 243 573 244 765 582 765 582 918 937 918 937 1013 1315 1012 1315 987
1645 987 1645 856 1935 856 1935 345 1055 345 1055 269 1088 c148 598 269
1090 269 1092 0 3 -25 5 -56 5 l-55 0 -197 -153 c-108 -84 -202 -156 -208
-160 -8 -5 -8 12 2 56 132 626 796 3776 804 3813 l11 50 65 -9 c36 -5 67 -8
69 -6 2 2 20 227 40 499 21 272 38 495 39 496 0 0 39 16 86 35 l85 36 12 429
c7 236 12 463 10 504 l-2 75 -82 34 c-79 32 -83 35 -83 65 0 17 -22 333 -49
701 l-50 671 -190 868 -191 868 -306 821 c-168 452 -315 840 -326 862 -12 22
-205 375 -431 785 l-409 745 -534 710 -534 710 -632 631 -633 632 -715 533
-715 533 -780 379 -780 380 -835 279 -835 279 -485 79 c-267 44 -495 82 -508
85 -13 3 -24 0 -26 -7z"/>
</g>
</svg>
