<?xml version="1.0" standalone="no"?>
<!DOCTYPE svg PUBLIC "-//W3C//DTD SVG 20010904//EN"
 "http://www.w3.org/TR/2001/REC-SVG-20010904/DTD/svg10.dtd">
<svg version="1.0" xmlns="http://www.w3.org/2000/svg"
   viewBox="0 0 3908.000000 809.000000"
 preserveAspectRatio="xMidYMid meet">
<metadata>
Created by potrace 1.16, written by Peter Selinger 2001-2019
</metadata>
<g transform="translate(0.000000,809.000000) scale(0.100000,-0.100000)"
fill="#000000" stroke="none">
<path d="M7610 7990 l0 -100 -85 0 -85 0 0 -85 0 -85 30 0 30 0 0 -155 0 -155
125 0 125 0 0 -35 0 -35 -100 0 -100 0 0 -45 0 -45 45 0 45 0 0 -100 0 -100
-210 0 -210 0 0 -80 c0 -74 -1 -80 -21 -80 -29 0 -105 -65 -118 -101 -5 -16
-16 -29 -23 -29 -7 0 -139 -10 -292 -21 l-280 -22 -83 -51 c-78 -48 -84 -54
-99 -102 l-17 -51 -891 -6 c-490 -4 -1635 -7 -2544 -7 l-1652 0 -343 -101
c-188 -56 -345 -103 -349 -105 -11 -7 10 -65 29 -79 21 -15 22 -14 -37 -48
-25 -14 -64 -46 -88 -70 -35 -36 -47 -57 -62 -118 -22 -84 -25 -172 -9 -268 9
-56 17 -72 51 -107 25 -26 36 -44 29 -48 -7 -5 -11 -77 -11 -221 0 -192 2
-215 17 -224 16 -9 16 -17 -5 -128 l-23 -118 21 -98 c12 -55 20 -100 18 -102
-8 -8 -343 -20 -346 -13 -2 5 -24 8 -48 8 -32 0 -44 -4 -44 -15 0 -13 32 -15
229 -15 l230 0 25 -42 26 -43 -43 -3 c-68 -5 -69 -22 -1 -22 60 0 60 0 91 -43
16 -24 75 -78 129 -120 97 -76 103 -78 267 -132 92 -30 178 -55 190 -55 13 0
31 -13 44 -33 l23 -32 1747 -202 c962 -111 1758 -202 1771 -202 21 -1 22 -4
22 -101 l0 -100 80 0 80 0 0 90 c0 50 3 90 8 90 4 -1 17 -9 30 -19 19 -17 22
-29 22 -90 l0 -71 80 0 c79 0 80 0 80 25 0 14 4 25 8 25 5 0 98 -34 208 -77
109 -42 206 -76 214 -75 8 0 104 35 213 76 109 42 210 76 225 76 15 0 322 -34
683 -76 l657 -76 2223 -797 2224 -797 5 -386 c3 -213 8 -389 12 -393 5 -5
1225 -89 1381 -95 4 0 7 -179 7 -398 l0 -398 348 -67 347 -68 2570 1 2570 0
400 51 400 51 423 254 423 254 636 0 c592 0 638 1 656 17 17 16 51 18 324 21
l305 4 72 39 c39 21 83 39 98 39 15 0 37 4 50 10 13 5 185 28 383 50 338 38
376 45 635 106 151 37 300 77 330 90 49 22 181 39 1241 158 l1187 134 238 131
239 130 1670 102 1670 102 290 -30 290 -29 218 48 c121 26 274 59 340 73 73
14 668 87 1472 180 1199 138 1417 167 1567 206 36 9 38 12 38 49 l0 40 -45 0
-45 0 0 55 c0 30 4 55 10 55 5 0 159 29 342 65 l333 65 358 0 357 0 0 70 c0
39 2 70 4 70 2 0 48 9 101 20 84 17 138 20 389 21 l291 0 60 67 60 68 300 57
c165 32 315 65 334 73 33 15 35 15 102 -30 l68 -45 147 70 c138 65 149 69 161
53 18 -25 16 -32 -9 -36 -27 -4 -37 -28 -11 -28 10 0 38 9 62 20 38 18 65 20
220 20 421 0 871 13 871 25 0 16 -93 27 -101 13 -7 -10 -899 -1 -899 9 0 2 5
14 11 25 8 14 8 23 0 31 -7 7 -14 2 -22 -17 l-12 -26 -29 27 c-21 20 -28 36
-28 66 0 67 32 98 142 136 193 67 337 196 371 334 16 62 16 71 0 137 -22 93
-92 181 -196 247 -40 25 -81 56 -92 69 -11 13 -36 27 -55 33 -26 7 4 9 126 10
255 2 404 12 404 28 0 9 -15 13 -50 13 -27 0 -50 -4 -50 -9 0 -10 -474 -5
-539 5 l-34 5 48 49 c41 42 54 49 100 55 60 7 78 23 168 145 76 105 127 260
127 387 0 79 -5 104 -51 241 l-51 153 -117 95 c-64 53 -120 97 -126 99 -5 2
-22 6 -37 9 l-27 6 45 43 45 42 -63 90 c-61 85 -67 91 -130 117 -66 26 -69 26
-455 37 -213 6 -430 14 -480 17 l-93 6 0 113 c0 106 -1 115 -22 129 -19 14
-69 16 -343 16 l-320 0 -117 -117 -117 -117 -1128 32 c-621 18 -1156 35 -1190
38 l-63 6 0 216 c0 334 -11 592 -25 592 -15 0 -25 -219 -25 -540 0 -124 -3
-235 -6 -247 -5 -19 -13 -23 -50 -23 l-44 0 0 53 c0 30 -3 96 -7 148 -6 73 -9
86 -14 59 -6 -33 -6 -33 -8 13 -1 40 -4 47 -21 47 -17 0 -20 -7 -21 -52 -2
-52 -2 -52 -8 -13 -5 33 -8 23 -14 -54 -4 -52 -7 -119 -7 -149 0 -51 -1 -54
-22 -48 -13 3 -29 6 -35 6 -7 0 -13 8 -13 18 0 10 -28 45 -62 79 l-63 61
-1019 32 -1019 31 -64 -63 c-34 -34 -63 -68 -63 -75 0 -10 -24 -13 -93 -13
l-94 0 -6 128 c-4 70 -7 160 -7 200 0 54 -3 72 -14 72 -14 0 -26 -115 -26
-269 0 -47 -3 -97 -7 -110 -6 -23 -9 -23 -71 -18 -36 4 -69 12 -74 19 -4 7 -8
47 -8 89 0 42 -3 131 -7 197 l-6 122 76 0 c45 0 77 4 77 10 0 6 -6 10 -14 10
-18 0 -26 72 -26 260 0 104 -4 150 -10 140 -5 -8 -11 -103 -12 -210 l-2 -195
-6 175 c-6 207 -20 192 -20 -22 0 -92 -4 -148 -10 -148 -5 0 -11 15 -11 33
l-1 32 -7 -29 c-16 -74 -41 -10 -41 107 0 26 -4 37 -15 37 -11 0 -15 -12 -15
-47 0 -82 -11 -123 -31 -123 -18 0 -25 38 -32 185 -2 33 -4 5 -5 -62 -2 -102
-5 -123 -17 -123 -8 0 -15 -7 -15 -15 0 -11 12 -15 46 -15 l46 0 -6 -147 c-4
-82 -9 -176 -12 -210 l-6 -63 -79 0 -79 0 0 93 c0 162 -12 307 -25 307 -12 0
-25 -179 -25 -333 l0 -59 -307 7 c-211 5 -310 11 -315 19 -4 6 -8 77 -8 159 0
136 -1 147 -19 147 -15 0 -19 -11 -25 -77 -3 -42 -6 -111 -6 -155 l0 -78 -42
0 c-65 1 -1508 107 -1512 111 -7 9 -234 893 -231 899 2 4 73 15 158 25 l153
18 920 -48 921 -47 118 87 118 88 198 5 c110 3 199 8 199 12 0 5 -11 56 -25
114 -14 58 -25 110 -25 116 0 5 33 34 74 64 103 76 134 133 152 281 l13 110
-24 37 c-14 21 -35 40 -48 42 -12 2 -751 30 -1642 62 l-1620 57 -2575 -6
-2575 -6 -985 -36 c-571 -21 -1403 -59 -1980 -90 -973 -54 -1014 -57 -1827
-138 -458 -46 -835 -86 -839 -89 -6 -6 24 -359 31 -366 2 -3 396 13 876 35
l872 38 128 -150 128 -150 -322 -42 c-300 -39 -339 -42 -564 -43 l-242 0 -350
-320 -350 -319 -62 72 c-34 40 -84 84 -110 100 l-48 27 -1233 0 -1233 0 -58
73 -59 72 171 7 c158 6 179 9 295 44 110 33 126 41 134 63 6 16 45 52 100 91
79 57 97 76 143 150 53 84 53 86 53 165 0 79 0 81 -53 165 -42 68 -65 94 -117
130 -50 36 -64 50 -64 71 0 22 -9 30 -67 56 -38 17 -155 87 -261 157 l-192
126 -1464 0 -1464 0 -254 -44 c-175 -31 -325 -64 -484 -109 l-232 -64 -188
-123 c-104 -67 -237 -162 -295 -211 l-106 -88 -584 -111 c-585 -110 -709 -127
-709 -95 0 13 -31 15 -220 15 l-220 0 0 100 0 100 40 0 40 0 0 45 0 45 -95 0
-95 0 0 100 0 100 -72 1 c-89 1 -72 9 89 43 l108 22 3 202 2 202 -27 6 c-16 3
-91 21 -167 40 -84 20 -165 34 -203 34 l-63 0 0 -100z m70 -468 c39 2 70 0 70
-4 0 -4 -34 -8 -75 -8 l-75 0 2 108 2 107 3 -104 4 -103 69 4z m10214 -804
c-43 -70 -119 -184 -127 -189 -11 -8 -169 -40 -173 -36 -2 2 56 56 129 120 85
75 140 116 155 117 16 0 21 -4 16 -12z m13469 -708 l37 0 0 -53 0 -53 -162 4
c-90 2 -165 6 -167 8 -3 3 17 27 45 55 l49 51 80 -6 c44 -3 97 -6 118 -6z
m897 -25 c311 -9 584 -18 608 -21 l42 -5 0 -50 0 -49 -47 0 c-27 0 -331 9
-678 20 -346 11 -656 20 -687 20 l-58 0 0 56 0 57 128 -6 c70 -4 381 -14 692
-22z m949 -67 c22 -24 41 -49 41 -55 0 -14 -152 -18 -247 -7 l-53 7 0 48 0 49
110 0 109 0 40 -42z m3151 -68 l0 -90 -142 0 -143 1 95 89 c92 87 97 90 143
90 l47 0 0 -90z m300 -5 l0 -95 -125 0 -125 0 0 95 0 95 125 0 125 0 0 -95z
m220 -5 l0 -100 -85 0 -85 0 0 100 0 100 85 0 85 0 0 -100z"/>
</g>
</svg>
