<?xml version="1.0" standalone="no"?>
<!DOCTYPE svg PUBLIC "-//W3C//DTD SVG 20010904//EN"
 "http://www.w3.org/TR/2001/REC-SVG-20010904/DTD/svg10.dtd">
<svg version="1.0" xmlns="http://www.w3.org/2000/svg"
   viewBox="0 0 3131.000000 819.000000"
 preserveAspectRatio="xMidYMid meet">
<metadata>
Created by potrace 1.16, written by Peter Selinger 2001-2019
</metadata>
<g transform="translate(0.000000,819.000000) scale(0.100000,-0.100000)"
fill="#000000" stroke="none">
<path d="M5850 8129 c-806 -31 -1826 -76 -2267 -99 l-802 -41 -233 -94 -233
-93 -6 -624 c-3 -342 -7 -676 -8 -740 l-1 -118 -502 0 -503 0 -570 -101 c-314
-56 -571 -102 -572 -103 0 0 -35 -127 -77 -282 l-76 -280 0 -1462 0 -1461 75
-277 c41 -152 77 -279 80 -282 3 -3 265 -52 583 -109 l577 -103 491 0 491 0 6
-287 c4 -157 7 -489 7 -737 l0 -451 235 -94 236 -93 732 -39 c403 -21 1436
-66 2297 -99 l1565 -62 765 26 c421 14 1100 35 1510 47 l745 20 905 85 c732
68 1072 94 1782 139 l877 55 518 80 c469 72 661 96 2023 245 1499 164 1508
165 2252 280 411 63 752 115 758 115 6 0 11 96 11 278 2 251 3 265 10 148 5
-71 12 -133 17 -138 6 -6 575 65 1423 176 778 102 1810 238 2294 301 484 63
1293 175 1797 249 l916 133 149 93 c138 87 156 95 263 122 63 16 132 34 153
39 29 8 78 49 213 178 166 159 178 173 236 277 33 60 62 110 63 111 1 2 141
32 311 67 l309 65 583 235 c320 129 591 240 601 246 11 5 21 20 23 32 2 16 11
24 28 25 14 2 318 23 675 48 1063 73 976 63 1270 155 352 111 329 101 333 138
3 31 4 31 65 35 l62 3 -62 2 c-54 2 -63 5 -63 20 0 12 -12 22 -32 29 -18 6
-147 47 -286 91 -301 96 -236 88 -1247 157 -368 25 -686 49 -705 53 -25 5 -36
13 -38 28 -3 22 -70 51 -697 302 l-170 68 -6 65 c-5 58 -15 81 -105 242 l-99
177 -175 168 -175 168 -150 38 c-149 37 -151 38 -303 132 l-153 96 -962 139
c-529 77 -1254 178 -1612 225 -357 46 -1369 179 -2249 295 -879 115 -1601 208
-1603 205 -16 -16 -23 -196 -23 -634 l0 -504 -22 -19 c-18 -14 -40 -18 -103
-19 l-81 0 -17 238 c-10 130 -17 254 -17 275 0 26 -8 49 -26 73 l-26 34 -134
0 -134 0 0 87 c0 48 -5 113 -12 145 l-12 58 -148 0 -148 0 0 275 0 275 -22 5
c-13 3 -360 57 -773 120 -742 114 -766 117 -2255 280 -1346 148 -1559 174
-2020 245 l-515 79 -885 56 c-716 44 -1048 70 -1740 135 l-855 81 -835 24
c-459 14 -1158 36 -1553 50 -395 14 -726 24 -735 24 -9 -1 -676 -28 -1482 -60z"/>
</g>
</svg>
