<?xml version="1.0" standalone="no"?>
<!DOCTYPE svg PUBLIC "-//W3C//DTD SVG 20010904//EN"
 "http://www.w3.org/TR/2001/REC-SVG-20010904/DTD/svg10.dtd">
<svg version="1.0" xmlns="http://www.w3.org/2000/svg"
   viewBox="0 0 4104.000000 2996.000000"
 preserveAspectRatio="xMidYMid meet">
<metadata>
Created by potrace 1.16, written by Peter Selinger 2001-2019
</metadata>
<g transform="translate(0.000000,2996.000000) scale(0.100000,-0.100000)"
fill="#000000" stroke="none">
<path d="M4887 29888 l-207 -70 -42 -60 -41 -61 -13 -236 c-7 -130 -13 -255
-14 -278 0 -40 -2 -43 -80 -99 -74 -53 -80 -60 -80 -93 0 -20 -5 -99 -11 -176
-5 -77 -14 -207 -18 -288 -5 -81 -10 -149 -12 -151 -2 -1 -665 -82 -1473 -180
-808 -97 -1475 -180 -1481 -184 -67 -40 -70 -46 -230 -498 -85 -240 -155 -444
-155 -453 0 -9 9 -38 19 -66 l19 -50 411 -225 c283 -155 411 -230 411 -241 0
-13 -24 -23 -107 -42 -60 -14 -319 -74 -576 -133 l-468 -109 -66 -135 -65
-135 -173 -835 c-95 -459 -177 -853 -182 -875 -10 -43 -26 -52 -95 -54 -21 -1
-38 -5 -38 -10 0 -5 -13 -241 -30 -524 -42 -718 -60 -1296 -60 -1891 l0 -509
24 -32 25 -32 -39 -74 c-36 -68 -39 -80 -40 -155 0 -45 3 -115 6 -156 l7 -74
146 -23 c214 -33 208 -29 111 -81 -47 -25 -85 -53 -89 -65 -4 -11 -15 -99 -25
-195 -16 -155 -24 -193 -68 -333 l-50 -158 12 -172 11 -172 47 -43 c26 -23 53
-44 62 -46 8 -3 187 -39 398 -81 l382 -76 95 10 c52 6 106 11 120 11 l25 0 0
-330 0 -330 560 0 560 0 1 -222 c1 -123 4 -235 8 -250 5 -21 61 -68 240 -203
l234 -175 399 0 398 0 0 -184 0 -184 115 -28 115 -28 0 -83 0 -83 180 0 180 0
0 80 0 80 1025 0 1025 0 0 215 c0 137 4 215 10 215 6 0 10 -105 10 -295 l0
-295 165 0 164 0 3 83 3 82 974 31 975 32 20 24 c12 13 35 40 51 60 l30 37
4155 36 c2285 19 4174 35 4198 35 l42 0 0 54 0 54 -342 6 c-189 3 -1830 17
-3648 31 -1818 14 -3553 28 -3857 31 l-552 7 -45 57 -46 58 -142 6 c-79 4
-241 10 -362 14 l-219 7 136 100 136 100 1 173 0 172 118 0 117 0 200 88 200
88 3 382 2 382 4679 0 4679 0 61 -317 c34 -175 64 -326 67 -335 5 -17 109 -18
2005 -18 l1999 0 -2 -257 -3 -256 -155 -61 -155 -62 -3 -246 -2 -246 -48 -6
c-26 -3 -171 -15 -322 -26 -151 -11 -290 -23 -307 -26 l-33 -5 0 -462 0 -462
-437 -64 -438 -63 -365 -105 c-494 -141 -454 -126 -475 -173 -13 -28 -24 -40
-39 -40 -12 0 -138 -7 -281 -15 l-260 -15 -365 -86 -365 -87 -44 -47 -44 -47
4 -289 c5 -364 5 -612 0 -981 l-4 -292 39 -45 39 -46 375 -89 375 -89 225 -11
c335 -17 324 -15 345 -60 l17 -38 402 -117 402 -116 442 -65 c243 -36 444 -65
447 -65 2 0 6 -73 7 -162 l3 -163 1423 -111 1424 -111 166 -166 167 -167 1568
0 1567 0 0 -139 c0 -124 2 -139 18 -143 9 -2 457 -74 994 -159 l978 -154 0
-361 0 -361 108 -39 107 -39 3 -163 c2 -149 1 -162 -15 -162 -10 0 -220 -21
-468 -46 l-450 -46 -342 -106 -343 -107 -33 -80 -34 -80 -247 -86 c-136 -48
-249 -88 -250 -90 -2 -2 -14 -51 -27 -109 l-24 -105 -406 -155 -406 -155 -452
-317 -452 -318 -478 0 -478 0 -301 -256 -302 -255 0 -372 1 -372 452 -320 452
-320 513 -3 512 -3 35 -70 35 -69 -27 -5 c-16 -4 -39 -9 -52 -11 -14 -3 -38
-16 -54 -30 -25 -21 -39 -24 -110 -25 -45 0 -407 -10 -804 -22 -644 -20 -724
-24 -735 -39 -12 -15 -91 -17 -908 -22 -1761 -12 -2100 -17 -2100 -32 0 -12
62 -14 368 -14 202 -1 875 -5 1495 -9 1026 -8 1130 -10 1146 -25 16 -15 112
-20 822 -41 l803 -25 25 -24 c23 -22 79 -33 551 -115 l525 -91 961 0 960 0
150 -888 150 -887 172 -65 172 -65 0 -342 0 -341 340 -199 340 -198 0 -327 0
-328 -105 0 -105 0 0 -119 0 -118 -277 -7 c-153 -3 -466 -9 -695 -12 -386 -6
-418 -8 -418 -24 0 -16 38 -18 523 -24 287 -3 600 -9 695 -12 l172 -7 0 -23
c0 -14 6 -24 14 -24 8 0 55 -9 105 -21 l91 -21 0 -274 0 -274 -105 0 -105 0 0
-163 0 -164 -247 -6 c-137 -4 -421 -9 -633 -12 -445 -7 -510 -10 -510 -31 0
-10 15 -14 58 -14 31 -1 356 -7 722 -14 l666 -13 69 -40 c49 -28 105 -75 184
-156 l115 -117 683 0 683 0 0 -552 0 -553 83 -88 82 -88 121 123 c109 110 183
207 714 931 l592 809 534 956 534 957 116 50 117 50 462 922 462 922 392 1018
c215 560 391 1022 391 1026 0 4 -61 111 -135 238 -75 126 -140 240 -145 252
-8 17 10 117 78 427 l89 405 274 0 274 0 240 120 240 120 36 165 c20 91 39
178 43 193 5 23 21 35 89 66 l82 38 154 734 c119 567 158 738 172 751 11 9 57
38 104 64 47 26 87 55 89 63 3 9 23 102 45 206 29 135 57 322 96 650 31 253
58 471 60 485 5 23 -5 30 -143 102 l-148 77 22 173 c12 95 23 174 23 174 1 1
82 48 181 104 99 56 183 106 186 111 12 20 143 1117 150 1257 l7 153 71 -6
c39 -3 328 -19 641 -36 314 -16 624 -34 690 -39 134 -10 126 -12 207 62 l46
43 46 350 c25 193 82 640 126 995 44 355 82 659 85 677 5 30 3 33 -69 73 -42
22 -78 45 -81 50 -3 5 4 77 15 161 11 83 20 156 20 161 0 7 31 8 88 4 82 -6
90 -5 137 21 l50 28 8 220 c4 121 10 257 13 302 l6 83 58 35 c58 35 59 37 64
88 3 29 19 432 36 897 17 465 33 899 37 965 l6 120 -52 24 -51 24 0 226 0 227
-62 27 -63 27 -585 25 c-322 14 -601 25 -621 25 -35 0 -40 4 -124 121 -48 66
-85 123 -82 125 3 3 71 15 151 27 79 12 145 27 145 32 1 6 -74 96 -166 202
l-168 191 -85 7 c-136 11 -128 6 -235 148 -53 71 -95 130 -93 132 2 1 41 18
87 37 l83 35 -246 174 -245 175 -2390 1004 -2389 1005 -63 104 c-53 88 -69
107 -104 122 -22 9 -1189 454 -2593 988 l-2553 972 -1887 545 -1887 544 -78
81 -78 81 -162 49 c-89 26 -909 266 -1821 534 l-1660 485 -2151 475 c-1184
261 -2156 475 -2161 475 -5 0 -40 -38 -78 -85 -48 -60 -74 -85 -90 -85 -11 1
-77 13 -145 28 l-124 27 -24 65 c-14 36 -29 67 -34 71 -6 3 -45 13 -89 23
l-78 17 -52 -55 -51 -54 -57 13 c-31 7 -105 23 -163 35 l-107 22 -30 68 -30
68 -83 20 -84 19 -54 -52 -53 -52 -161 34 c-88 18 -163 35 -165 38 -3 2 -10
30 -16 62 l-12 58 -84 21 -85 22 -20 -22 c-11 -12 -32 -36 -46 -53 l-26 -31
-134 28 c-105 23 -137 26 -149 17 -8 -7 -95 -78 -192 -160 l-178 -148 -207 46
c-139 31 -210 42 -217 35 -5 -5 -66 -101 -135 -212 l-126 -203 -85 -7 c-292
-22 -178 -32 -4242 357 -2099 201 -3825 365 -3835 364 -10 0 -111 -32 -226
-71z"/>
</g>
</svg>
