<?xml version="1.0" standalone="no"?>
<!DOCTYPE svg PUBLIC "-//W3C//DTD SVG 20010904//EN"
 "http://www.w3.org/TR/2001/REC-SVG-20010904/DTD/svg10.dtd">
<svg version="1.0" xmlns="http://www.w3.org/2000/svg"
   viewBox="0 0 1807.000000 3965.000000"
 preserveAspectRatio="xMidYMid meet">
<metadata>
Created by potrace 1.16, written by Peter Selinger 2001-2019
</metadata>
<g transform="translate(0.000000,3965.000000) scale(0.100000,-0.100000)"
fill="#000000" stroke="none">
<path d="M3637 39547 c-30 -56 -118 -225 -196 -375 l-142 -273 7 -85 7 -84
221 -70 c223 -72 1200 -391 1203 -394 0 0 22 -302 48 -671 26 -368 48 -670 48
-671 4 -2 2393 -1727 2399 -1733 7 -6 128 -867 128 -909 0 -16 -36 -36 -191
-106 -105 -47 -203 -86 -217 -86 -25 1 -41 25 -187 280 l-159 280 -370 0 -369
0 -1001 -261 c-550 -143 -1003 -263 -1006 -265 -3 -3 -25 -78 -50 -167 l-45
-162 -385 -5 -385 -5 -715 -301 -715 -301 -3 -752 c-2 -591 -5 -751 -15 -751
-6 0 -203 11 -437 25 l-425 26 -317 -45 c-232 -32 -323 -49 -340 -62 -22 -16
-23 -22 -20 -138 l4 -121 325 -590 c180 -324 331 -595 337 -602 6 -6 200 -50
431 -98 231 -48 428 -89 437 -91 17 -5 18 -64 20 -1002 l3 -996 730 -308 730
-307 178 -1 177 0 0 -293 0 -294 388 -113 c213 -62 392 -118 398 -124 6 -6 26
-58 43 -115 17 -58 33 -106 35 -108 2 -2 21 -6 42 -10 59 -8 64 -21 64 -160
l0 -123 -70 0 -70 0 0 -44 0 -43 70 -7 70 -7 0 -1025 0 -1024 -29 0 c-25 0
-29 4 -35 38 -3 20 -6 63 -6 95 0 41 -7 71 -24 106 -32 63 -66 73 -240 69
l-129 -3 -72 215 -72 215 -379 2 -379 3 -1207 -288 c-665 -159 -1211 -292
-1215 -295 -3 -4 -30 -148 -58 -319 l-53 -313 53 -313 c28 -172 56 -317 61
-321 5 -4 556 -137 1225 -294 l1215 -287 370 0 369 0 75 225 75 225 95 -5 c52
-3 108 -8 124 -10 54 -9 106 15 137 63 23 37 29 59 35 143 l7 99 27 0 28 0 6
-922 c3 -508 9 -963 14 -1013 l7 -90 188 -103 187 -103 0 -987 1 -987 57 -180
58 -180 159 -122 c121 -92 175 -127 223 -143 l62 -22 0 -849 c0 -749 2 -856
16 -907 l16 -58 347 -119 346 -120 5 -340 c3 -187 9 -347 14 -355 6 -8 191
-227 413 -487 l403 -472 0 -960 0 -960 447 -225 447 -226 668 0 668 0 -2 -417
-3 -416 -297 -76 -298 -76 0 -176 c0 -133 3 -178 13 -181 6 -3 159 -33 340
-68 l327 -64 0 -221 0 -222 158 -77 c86 -42 274 -132 417 -200 l260 -122 5
-374 5 -374 173 -109 172 -109 0 -1335 0 -1335 -175 -181 -175 -182 0 -934 0
-934 -55 -67 -55 -67 0 -1842 c0 -1416 3 -1841 12 -1841 6 0 310 297 673 661
l662 661 675 1116 676 1117 631 1287 631 1286 520 1443 520 1443 440 1545
c439 1542 440 1548 645 2406 l206 860 69 730 c67 694 69 730 52 747 -14 13
-45 18 -162 23 l-145 6 -210 -260 -210 -260 -137 -1 -138 0 0 1478 0 1478 356
440 c196 241 360 444 365 450 7 8 299 2385 299 2434 0 9 -53 72 -119 141
l-118 125 -131 18 -131 18 -60 137 c-57 128 -66 143 -157 242 l-96 106 -205
44 c-113 24 -212 49 -219 54 -11 8 1 98 68 497 l81 487 101 24 101 24 3 180 2
180 272 6 c149 4 372 7 495 7 l223 0 0 35 0 35 -322 0 c-178 0 -401 3 -496 7
l-172 6 2 160 3 161 27 7 c25 7 30 2 71 -64 l45 -70 493 -118 c272 -65 501
-118 510 -119 9 0 84 90 178 214 l162 214 102 -34 102 -35 103 -174 104 -173
101 -41 c56 -22 208 -80 338 -129 187 -70 239 -86 252 -77 13 9 14 23 6 92 -5
45 -22 332 -39 640 l-30 558 -120 814 c-66 448 -120 815 -120 816 0 1 -31 22
-70 46 -38 24 -70 46 -70 49 0 3 -110 600 -244 1327 l-245 1321 -525 1285
-526 1285 -587 939 c-323 516 -617 989 -653 1051 -51 85 -272 371 -924 1192
-523 659 -877 1096 -909 1123 -29 24 -365 289 -747 589 l-695 546 -203 228
-202 228 -998 571 -997 571 -915 422 -915 422 -633 137 -634 137 -347 -115
-347 -116 -810 148 c-445 81 -821 150 -836 153 -26 5 -30 0 -81 -97z m713
-16142 c0 -164 0 -165 -22 -165 -23 0 -23 1 -23 165 0 164 0 165 23 165 22 0
22 -1 22 -165z"/>
</g>
</svg>
