<?xml version="1.0" standalone="no"?>
<!DOCTYPE svg PUBLIC "-//W3C//DTD SVG 20010904//EN"
 "http://www.w3.org/TR/2001/REC-SVG-20010904/DTD/svg10.dtd">
<svg version="1.0" xmlns="http://www.w3.org/2000/svg"
   viewBox="0 0 3958.000000 808.000000"
 preserveAspectRatio="xMidYMid meet">
<metadata>
Created by potrace 1.16, written by Peter Selinger 2001-2019
</metadata>
<g transform="translate(0.000000,808.000000) scale(0.100000,-0.100000)"
fill="#000000" stroke="none">
<path d="M8024 7982 c4 -53 7 -450 7 -881 0 -609 -2 -786 -12 -792 -9 -5 -11
-77 -6 -313 l6 -306 -129 0 -129 0 -5 33 c-3 17 -10 135 -16 261 -6 129 -15
233 -20 236 -10 6 -16 149 -40 820 -5 151 -11 309 -13 350 -5 113 -11 -608 -7
-904 2 -170 -1 -260 -8 -265 -6 -4 -13 -106 -17 -268 l-8 -263 -43 0 c-39 0
-48 -5 -90 -50 -61 -65 -74 -65 -74 3 0 28 -7 288 -15 577 -8 289 -15 528 -15
533 0 4 -5 7 -10 7 -7 0 -8 -195 -3 -585 l6 -585 -256 0 -257 0 0 -68 0 -68
-462 -158 c-255 -87 -468 -163 -474 -167 -7 -6 -13 -79 -17 -191 -4 -101 -18
-322 -32 -493 -14 -170 -25 -322 -25 -336 l0 -26 -59 10 -59 9 -7 63 -6 62
-102 6 c-56 4 -168 10 -250 13 -129 6 -147 9 -143 23 3 9 8 98 12 197 l7 182
-114 167 -114 167 -162 -6 c-90 -3 -163 -4 -163 -1 0 11 21 164 26 184 l5 23
-391 -3 c-376 -4 -390 -4 -390 15 0 17 -6 18 -107 11 -70 -5 -111 -12 -118
-21 -6 -8 -39 -14 -92 -16 -75 -3 -82 -1 -77 15 5 15 -5 17 -106 17 -103 0
-112 -2 -117 -20 -5 -18 -14 -20 -84 -20 -64 0 -79 3 -79 15 0 12 -19 15 -109
15 -100 0 -109 -2 -114 -20 -5 -19 -14 -20 -261 -22 -141 -1 -277 -2 -303 -3
l-48 0 -2 45 c-1 25 -8 106 -14 180 -6 74 -17 266 -24 425 l-12 290 -2 -255
c0 -140 -4 -353 -8 -472 l-6 -218 -39 0 c-33 0 -49 -8 -91 -45 -44 -38 -58
-45 -94 -45 -42 0 -43 1 -44 33 0 17 -5 100 -10 182 -17 289 -30 572 -38 820
l-8 250 -1 -355 c0 -195 -4 -484 -8 -641 l-7 -286 -221 -8 -221 -7 -121 -49
-121 -49 -615 0 -615 0 -6 -382 c-4 -211 -7 -490 -7 -620 l0 -238 406 0 407 0
-7 -82 c-3 -46 -9 -152 -13 -235 l-6 -153 -269 0 -268 0 0 -490 0 -490 853 2
852 3 3 338 2 337 225 0 225 0 0 84 0 83 263 7 c144 3 337 9 430 12 l167 7 0
-192 0 -191 645 0 645 0 0 200 0 200 185 0 186 0 129 106 130 105 0 86 0 85
38 -6 c20 -3 134 -8 253 -12 l217 -6 7 62 7 62 52 -7 c28 -4 52 -8 52 -9 1 0
-16 -219 -37 -486 -21 -267 -39 -497 -39 -511 l0 -25 -507 -2 c-417 -2 -509
-5 -522 -16 -13 -11 -111 -15 -523 -21 -419 -6 -508 -10 -508 -21 0 -11 -40
-14 -212 -14 -206 0 -258 -4 -258 -20 0 -4 282 -10 628 -13 1157 -13 1583 -20
1588 -29 3 -4 71 -8 152 -8 l147 0 -9 -130 c-5 -72 -7 -132 -5 -134 2 -2 118
-83 258 -181 l255 -177 119 -17 120 -16 157 -250 157 -250 99 -3 c54 -2 434 4
844 13 410 8 799 15 866 15 l120 0 119 260 c114 251 119 260 149 264 17 3 266
12 553 20 l522 16 280 191 279 191 6 86 c4 48 9 115 12 150 l6 62 339 0 339 0
2 -436 3 -436 115 -45 c63 -24 190 -73 283 -109 l167 -66 0 -85 0 -86 185 8
185 7 0 -71 0 -71 33 0 c62 0 75 -10 136 -105 l61 -93 172 -6 c228 -8 1910
-38 1912 -34 2 2 31 45 66 96 l63 92 52 0 c51 0 53 1 59 31 3 17 6 78 6 135
l0 104 89 0 c48 0 116 3 150 6 l61 7 74 101 74 101 275 74 c152 41 281 77 288
82 15 9 25 145 33 479 4 129 9 254 12 278 l5 42 291 0 291 0 -5 -308 c-3 -169
-3 -313 0 -320 2 -8 25 -12 63 -12 l60 0 30 -65 31 -65 467 0 467 0 64 65 64
65 179 0 c146 0 226 6 444 35 l266 35 435 0 c383 0 438 2 453 16 16 14 109 15
975 7 810 -7 958 -10 962 -22 4 -12 -56 -13 -414 -8 -231 3 -431 3 -446 0 -19
-4 -28 -12 -28 -24 0 -18 16 -19 454 -19 l454 0 6 -25 c6 -25 6 -25 130 -25
l124 0 1 -124 c0 -68 3 -130 6 -137 3 -8 85 -59 183 -114 97 -54 237 -134 311
-177 110 -64 142 -78 176 -78 23 0 63 -3 88 -6 l46 -7 47 -108 48 -109 207 0
c206 0 207 0 212 -22 3 -13 13 -103 23 -202 16 -162 20 -179 38 -186 12 -5
507 -15 1101 -24 594 -9 1191 -19 1326 -23 l246 -6 7 129 c3 71 9 168 13 217
l6 87 171 0 171 0 52 110 51 110 88 0 c86 0 95 3 408 111 177 61 324 114 327
117 4 4 14 203 23 442 9 239 19 479 22 533 l6 97 200 0 200 0 -6 -57 c-3 -32
-8 -152 -11 -268 -3 -115 -8 -237 -11 -271 l-6 -61 114 -32 114 -33 -1 -139 0
-140 254 -110 253 -110 2021 22 2020 21 172 85 173 86 7 73 7 73 118 28 118
27 7 56 c4 30 10 100 14 155 3 55 9 99 14 99 4 -1 89 -5 188 -9 l182 -7 -7
-152 c-21 -513 -38 -1278 -28 -1288 8 -8 76 -5 239 11 125 12 234 21 242 21
11 0 13 -17 8 -94 -7 -99 4 -156 29 -156 7 0 154 21 326 48 329 49 393 53 655
37 l102 -7 68 -149 67 -148 65 -3 64 -3 21 -58 c20 -56 22 -58 51 -53 16 3
138 14 270 26 335 29 300 19 315 90 12 57 14 59 49 64 20 3 576 51 1236 106
660 56 1206 105 1214 109 7 3 35 66 61 139 26 73 50 136 54 139 5 5 944 92
1004 93 18 0 22 6 22 30 l0 30 110 0 110 0 0 160 0 160 -110 0 -110 0 0 25 c0
21 -4 25 -22 21 -13 -3 -174 -7 -358 -11 -184 -3 -392 -8 -462 -12 l-128 -6 0
126 0 125 101 18 102 18 -6 184 c-4 139 -8 187 -19 193 -7 5 -48 9 -90 9 l-78
0 0 350 0 350 -67 0 c-38 0 -448 14 -913 30 -465 16 -860 30 -879 30 l-33 0 3
97 4 98 -250 30 c-137 17 -255 34 -262 38 -6 4 -80 113 -165 242 -145 223
-155 235 -189 241 l-35 6 -40 266 -40 267 -224 -3 c-123 -1 -226 -5 -229 -7
-4 -5 -39 -433 -40 -497 -1 -21 -7 -29 -25 -34 -23 -6 -24 -7 -30 -172 -4 -92
-9 -188 -12 -215 -6 -45 -7 -47 -37 -47 -98 1 -711 43 -941 65 -195 18 -271
23 -276 14 -4 -6 -98 -20 -223 -32 -119 -12 -220 -26 -226 -32 -5 -5 -13 -109
-17 -229 l-7 -219 -135 7 c-74 3 -157 6 -184 6 l-48 0 0 99 0 99 -120 33
c-106 30 -119 36 -115 54 2 11 7 61 10 110 l6 91 -165 103 -166 104 0 52 c0
47 -3 53 -24 59 -30 7 -648 146 -652 146 -1 0 -5 -18 -9 -41 -4 -22 -12 -42
-19 -45 -9 -4 -219 41 -287 62 -14 4 -18 -7 -24 -66 -7 -67 -9 -71 -29 -66
-38 9 -1859 376 -1868 376 -4 0 -8 41 -8 90 0 50 -1 90 -3 90 -31 0 -373 84
-379 92 -4 7 -8 30 -8 50 0 26 -5 38 -17 42 -76 22 -670 155 -679 152 -6 -2
-15 -30 -18 -60 -4 -31 -12 -56 -17 -56 -29 0 -504 -61 -508 -66 -3 -3 -10
-106 -15 -229 l-9 -224 -100 -3 -101 -3 -23 -160 c-12 -88 -22 -200 -23 -249
l0 -88 -72 6 c-40 3 -131 9 -202 12 l-128 7 6 106 c5 86 27 634 38 968 l3 72
-320 151 -320 150 -231 0 c-127 0 -246 3 -263 6 l-31 7 0 141 0 142 -337 78
c-186 43 -386 89 -445 103 l-108 25 0 64 0 64 -54 0 c-53 0 -54 0 -70 39 -15
38 -18 40 -68 45 -29 3 -238 7 -465 10 l-411 5 -16 -40 c-15 -36 -19 -39 -57
-39 -67 0 -79 -12 -79 -77 l0 -56 -342 6 -343 7 -130 -68 -130 -67 -6 -175
c-3 -96 -6 -176 -7 -177 -1 -2 -102 -3 -224 -3 l-223 0 -313 -84 c-172 -46
-316 -87 -320 -90 -9 -9 -31 -171 -31 -233 l-1 -53 -85 0 -84 0 -6 -33 -7 -34
-381 -6 c-539 -10 -735 -9 -742 3 -4 6 -113 10 -296 10 l-289 0 0 157 0 156
-227 -6 c-124 -4 -313 -7 -420 -7 l-193 0 0 -35 0 -36 -57 5 c-32 3 -245 8
-475 12 l-416 6 -139 -93 -138 -93 -567 -4 -566 -5 -32 -69 -32 -69 7 -165 7
-164 -63 0 c-35 0 -190 7 -344 15 -154 8 -298 15 -320 15 l-40 0 3 173 4 173
-268 105 -269 104 -3 88 -3 87 -104 0 -104 0 -3 102 -3 103 -120 91 -120 91
-328 8 c-323 7 -327 7 -332 29 -2 11 -8 54 -14 94 -5 41 -11 76 -13 77 -2 2
-298 9 -658 14 -360 6 -755 13 -877 16 l-221 6 -7 -58 c-3 -32 -8 -80 -12
-107 l-5 -48 -46 5 c-42 4 -58 -1 -167 -55 -66 -33 -122 -62 -125 -65 -3 -3
-7 -88 -10 -189 -4 -149 -8 -187 -20 -194 -8 -5 -41 -10 -73 -10 -37 0 -59 -4
-62 -12 -2 -7 -13 -49 -25 -94 l-21 -81 -126 -37 c-69 -21 -128 -35 -131 -32
-3 4 7 209 23 456 15 248 26 453 23 455 -2 2 -197 34 -433 70 -237 36 -440 68
-452 70 -20 5 -22 12 -25 82 l-3 77 -360 89 c-198 50 -362 92 -364 94 -3 2 2
56 11 121 9 64 14 119 11 122 -2 3 -142 6 -309 8 l-304 3 -1 137 c0 75 -4 171
-9 212 -10 78 -26 397 -39 780 -7 206 -8 184 -9 -247 -1 -308 -5 -473 -12
-473 -6 0 -10 -75 -10 -205 l0 -205 -43 0 c-43 0 -43 1 -39 30 l4 30 -110 0
-110 0 -7 -30 -7 -30 -84 0 -83 0 6 30 6 30 -110 0 -109 0 -11 -30 c-8 -20
-18 -30 -32 -30 -19 0 -21 6 -21 53 0 29 -4 57 -9 63 -6 5 -15 382 -21 929 -7
506 -13 921 -15 923 -4 5 -15 -568 -21 -1221 -4 -345 -11 -630 -15 -633 -5 -3
-9 -30 -9 -60 0 -40 -4 -54 -14 -54 -11 0 -13 7 -6 30 l9 30 -111 0 -110 0
-11 -30 c-11 -30 -12 -30 -88 -30 l-76 0 -6 311 c-5 254 -9 313 -21 323 -11 9
-16 75 -25 346 -10 323 -39 1290 -40 1378 -1 24 -6 42 -12 42 -8 0 -10 -28 -5
-98z m13610 -4077 l7 -35 79 0 c79 0 80 0 80 -25 0 -14 -6 -27 -12 -30 -7 -2
-129 -5 -270 -8 l-258 -4 0 68 0 69 184 0 184 0 6 -35z m-10324 -190 c0 -178
-1 -185 -20 -185 -17 0 -20 7 -20 48 0 26 -4 54 -10 62 -7 11 -61 17 -262 26
-139 7 -263 13 -275 13 -21 1 -23 5 -23 65 0 41 5 68 13 73 6 4 143 24 302 44
160 20 291 37 293 38 1 0 2 -82 2 -184z m10480 -39 l0 -44 -157 -6 c-87 -3
-206 -8 -265 -11 l-108 -5 0 55 0 55 265 0 265 0 0 -44z m-227 -262 c200 -6
207 -7 207 -27 0 -19 -4 -20 -92 -14 -51 4 -168 10 -260 13 -148 6 -168 9
-168 24 0 14 9 16 53 13 28 -1 145 -6 260 -9z m160 -916 c-1 -29 -5 -97 -9
-150 l-6 -98 -134 0 -133 0 -16 -54 -16 -54 -342 -6 c-188 -3 -574 -7 -857 -9
l-515 -4 130 18 c105 15 227 19 635 24 278 3 565 8 638 11 l132 6 0 87 c0 47
3 130 7 184 l6 97 242 0 242 0 -4 -52z"/>
</g>
</svg>
