<?xml version="1.0" standalone="no"?>
<!DOCTYPE svg PUBLIC "-//W3C//DTD SVG 20010904//EN"
 "http://www.w3.org/TR/2001/REC-SVG-20010904/DTD/svg10.dtd">
<svg version="1.0" xmlns="http://www.w3.org/2000/svg"
   viewBox="0 0 4123.000000 1552.000000"
 preserveAspectRatio="xMidYMid meet">
<metadata>
Created by potrace 1.16, written by Peter Selinger 2001-2019
</metadata>
<g transform="translate(0.000000,1552.000000) scale(0.100000,-0.100000)"
fill="#000000" stroke="none">
<path d="M12630 15406 l0 -114 -132 -6 c-73 -3 -873 -10 -1778 -16 l-1645 -11
-37 -42 -38 -42 0 -92 0 -93 -353 0 -352 0 -64 -100 c-40 -63 -72 -102 -85
-105 -21 -5 -804 -102 -1211 -150 -194 -23 -488 -69 -504 -80 -4 -2 -49 -57
-101 -123 -72 -91 -102 -121 -124 -126 -16 -3 -81 -6 -146 -6 l-117 0 -198
-260 c-132 -174 -204 -260 -216 -260 -10 0 -33 -9 -51 -20 -30 -18 -51 -20
-249 -20 -174 0 -219 3 -235 15 -28 22 -2776 22 -2814 0 -37 -21 -456 -21
-484 0 -17 13 -119 15 -713 15 l-694 0 -144 -127 -145 -128 0 -1432 0 -1431
146 -131 147 -131 687 0 c672 0 688 0 713 20 23 19 40 20 245 20 204 0 221 -1
245 -20 24 -19 40 -20 446 -20 l421 0 0 -65 0 -65 -733 0 -734 0 -25 -117 -24
-118 39 -50 c22 -27 211 -270 420 -540 209 -269 506 -649 660 -844 153 -194
309 -392 345 -440 37 -48 77 -99 88 -114 17 -21 52 -36 167 -72 l146 -45 419
0 418 0 29 30 29 30 132 0 132 0 30 -30 30 -30 171 0 171 0 0 -245 0 -244 38
-10 c140 -37 298 -71 1142 -246 520 -108 946 -198 947 -198 0 -1 -60 -100
-135 -219 l-137 -217 -180 -1 -180 0 -82 -81 -83 -82 0 -398 0 -399 -48 0
c-27 0 -538 -22 -1136 -50 -598 -27 -1096 -50 -1106 -50 -13 0 -25 -19 -44
-71 l-26 -70 0 -496 c0 -356 3 -507 12 -537 13 -43 172 -271 245 -349 l42 -46
1385 -160 1386 -161 524 0 525 0 24 33 c13 17 50 76 83 129 l59 98 271 0 271
0 32 -82 c18 -47 46 -97 64 -115 l31 -33 1438 0 1438 0 0 -219 0 -219 101
-106 101 -106 237 0 237 0 82 -84 82 -83 160 5 c267 8 211 39 668 -368 260
-232 399 -349 418 -353 16 -3 718 -47 1559 -97 842 -50 1544 -93 1561 -96 l32
-4 78 -315 78 -314 66 -10 c36 -6 295 -16 575 -22 471 -11 512 -13 534 -30 23
-18 58 -19 735 -19 391 0 883 -5 1094 -11 343 -10 385 -9 407 5 20 13 66 16
266 18 l243 3 14 45 c7 25 103 387 212 805 109 418 215 823 236 901 l37 141
205 61 c113 34 207 64 210 67 3 2 80 306 172 675 92 368 169 672 172 675 6 6
956 283 2095 611 l763 219 0 366 c0 202 3 381 6 398 l7 31 1049 -2 1050 -3
269 -699 c148 -385 271 -702 274 -704 2 -2 132 -36 288 -76 l283 -71 -46 -155
c-26 -85 -44 -158 -41 -161 3 -3 319 -93 701 -199 l695 -194 647 -131 646
-130 272 -360 c149 -198 275 -363 279 -367 9 -10 146 -36 2531 -469 l2055
-373 112 -106 c61 -58 226 -216 366 -353 l255 -247 1203 -86 c662 -47 1214
-87 1225 -90 15 -3 133 -174 420 -609 l398 -605 548 0 548 0 -5 22 c-3 13 -59
288 -124 612 -75 369 -124 592 -133 597 -7 5 -31 11 -54 15 -22 3 -46 9 -52
13 -9 5 -52 196 -52 227 0 1 27 7 61 14 53 12 60 15 56 34 -3 12 -15 69 -28
128 -18 90 -25 107 -43 112 -12 3 -76 6 -143 6 -107 0 -122 2 -127 18 -3 9
-24 112 -46 227 -38 192 -56 252 -209 703 l-167 493 -76 49 -77 49 -30 98
c-16 54 -43 143 -60 199 l-31 100 -661 544 -662 543 -686 445 c-669 434 -1028
662 -2021 1282 -267 167 -1032 646 -1700 1065 l-1215 762 -215 47 c-118 27
-406 92 -640 146 -234 54 -839 180 -1345 280 -506 99 -928 184 -939 188 -12 5
-52 81 -111 212 l-92 203 -1989 783 -1989 784 -221 18 -221 18 -119 103 c-65
57 -122 105 -128 107 -6 2 -987 162 -2181 354 l-2170 351 -31 32 c-99 102
-1043 1137 -1056 1157 -9 14 -64 211 -123 439 -119 457 -114 444 -252 641
l-81 115 -349 135 -348 135 -121 235 c-74 143 -137 251 -160 277 l-39 41
-1225 56 c-674 31 -1236 57 -1250 57 -22 -1 -30 12 -79 124 l-53 125 -1394 0
-1394 0 0 -114z"/>
</g>
</svg>
