<?xml version="1.0" standalone="no"?>
<!DOCTYPE svg PUBLIC "-//W3C//DTD SVG 20010904//EN"
 "http://www.w3.org/TR/2001/REC-SVG-20010904/DTD/svg10.dtd">
<svg version="1.0" xmlns="http://www.w3.org/2000/svg"
   viewBox="0 0 4464.000000 834.000000"
 preserveAspectRatio="xMidYMid meet">
<metadata>
Created by potrace 1.16, written by Peter Selinger 2001-2019
</metadata>
<g transform="translate(0.000000,834.000000) scale(0.100000,-0.100000)"
fill="#000000" stroke="none">
<path d="M5288 8232 l-47 -107 -388 -3 -388 -2 -105 -104 -105 -104 -995 -11
c-547 -6 -1151 -11 -1341 -11 l-345 0 -18 -55 -17 -55 -174 0 c-150 0 -192 4
-297 26 l-123 26 -314 -28 -313 -28 -47 -53 -46 -53 -112 0 c-62 0 -113 -2
-113 -5 0 -10 189 -783 204 -836 l16 -55 678 -416 677 -416 103 -23 102 -23 0
-41 0 -42 723 -459 c490 -310 719 -462 710 -467 -10 -6 -13 -84 -13 -410 l0
-402 763 -284 c419 -157 888 -335 1043 -397 199 -80 418 -157 755 -264 l474
-152 155 -14 c972 -90 989 -92 1100 -131 58 -20 123 -45 145 -56 l39 -20 -27
-21 c-26 -21 -27 -26 -27 -107 l0 -85 398 -57 c290 -42 425 -58 502 -57 l106
0 1478 -525 1479 -525 1776 0 1776 0 291 -337 290 -338 1040 -173 c571 -95
1051 -177 1066 -182 15 -5 110 -79 212 -164 l185 -156 611 0 c534 0 611 -2
616 -15 5 -13 138 -15 1111 -15 l1106 0 43 40 44 40 1130 0 1130 0 6 25 6 25
200 0 c194 0 200 -1 205 -21 5 -19 11 -20 102 -15 53 3 614 17 1246 32 633 14
1165 27 1183 30 26 4 32 9 32 29 l0 25 473 0 c259 0 1498 -7 2752 -15 1254 -8
2404 -15 2555 -15 l275 0 222 593 c122 325 224 598 225 606 2 10 -121 72 -392
197 -217 100 -399 184 -403 186 -7 3 90 277 158 446 l17 42 1132 0 c830 0
1140 3 1166 12 20 6 137 14 273 17 213 5 239 8 248 24 9 15 30 17 208 17 169
0 200 -2 205 -15 5 -14 54 -15 418 -9 l413 7 129 -107 128 -106 452 0 451 0
122 115 121 115 161 6 c160 7 161 7 161 31 l0 23 528 0 529 0 164 153 c162
151 165 155 247 293 l83 141 547 7 c301 3 646 9 767 11 l220 6 340 -434 340
-434 170 -6 c93 -4 315 -7 492 -7 l322 0 372 -462 372 -461 240 6 c132 4 242
8 244 11 10 9 -540 1379 -859 2140 l-343 818 -520 153 c-286 84 -1375 410
-2420 725 l-1900 571 -1576 60 -1575 59 -401 45 c-221 25 -408 45 -415 45 -8
0 -47 -53 -88 -118 -70 -112 -86 -132 -102 -132 -5 0 -8 178 -8 395 l0 395
-3202 0 -3202 0 -158 -60 -157 -60 -608 0 -608 -1 -648 -208 -648 -208 -180
37 -179 38 -57 -94 c-30 -52 -59 -97 -63 -99 -4 -3 -118 20 -253 50 -221 49
-258 55 -363 55 -87 0 -120 3 -128 14 -9 11 -4258 1115 -4303 1119 -7 0 -10 3
-8 7 2 4 -11 25 -30 47 -33 39 -42 43 -187 82 -84 23 -167 47 -184 52 -22 7
-56 41 -117 117 -48 59 -113 135 -144 169 l-58 63 -110 23 -110 23 -63 -24
-63 -24 -171 47 -171 47 -122 -46 c-66 -25 -128 -46 -137 -46 -9 0 -101 23
-205 51 l-188 51 -71 -35 -71 -35 -324 84 -324 84 -2622 0 -2621 0 -207 220
-207 220 -468 0 -467 0 -48 110 -49 110 -2395 0 -2396 0 -47 -108z m28823
-5307 l84 -27 1000 7 1000 7 270 -222 c149 -123 283 -234 299 -247 l29 -25
-343 3 c-256 2 -345 -1 -348 -9 -6 -18 -398 -17 -409 2 -6 10 -60 15 -233 20
-142 4 -247 11 -285 21 -51 12 -226 14 -1137 15 -593 0 -1078 3 -1078 8 0 4
28 82 62 175 l63 167 115 0 c101 1 157 9 460 69 190 38 350 68 356 66 6 -2 48
-15 95 -30z m-9801 -2350 l0 -285 -38 0 c-22 0 -87 3 -145 7 -89 5 -108 9
-112 24 -5 16 -69 17 -1143 21 l-1137 4 -47 23 -48 22 55 107 c52 103 59 112
189 235 l136 127 1145 0 1145 0 0 -285z"/>
</g>
</svg>
