<?xml version="1.0" standalone="no"?>
<!DOCTYPE svg PUBLIC "-//W3C//DTD SVG 20010904//EN"
 "http://www.w3.org/TR/2001/REC-SVG-20010904/DTD/svg10.dtd">
<svg version="1.0" xmlns="http://www.w3.org/2000/svg"
   viewBox="0 0 3846.000000 1032.000000"
 preserveAspectRatio="xMidYMid meet">
<metadata>
Created by potrace 1.16, written by Peter Selinger 2001-2019
</metadata>
<g transform="translate(0.000000,1032.000000) scale(0.100000,-0.100000)"
fill="#000000" stroke="none">
<path d="M29878 10284 c-7 -19 -195 -301 -418 -628 -300 -441 -410 -595 -425
-595 -10 -1 -71 -32 -135 -70 l-115 -69 -655 79 -655 79 -1335 70 -1335 70
-1506 0 -1507 0 -1227 -140 -1227 -139 -77 -83 c-42 -46 -99 -107 -125 -136
-38 -40 -234 -189 -312 -235 -6 -3 -332 -43 -725 -87 -393 -44 -731 -83 -751
-86 -37 -6 -38 -7 -38 -50 l0 -44 -1015 0 -1015 0 0 170 0 170 -4432 0 -4433
0 -40 25 -40 24 -370 1 -371 0 -161 343 c-159 337 -162 342 -193 345 -25 3
-34 10 -42 33 -10 28 -12 29 -77 29 l-68 0 -48 100 -47 100 -79 0 c-46 0 -79
-4 -79 -10 0 -5 -7 -10 -15 -10 -8 0 -15 5 -15 10 0 6 -32 10 -75 10 l-75 0 0
-100 0 -100 -70 0 -70 0 0 -65 0 -65 70 0 70 0 0 -305 0 -305 -192 -2 -193 -3
-750 -955 -750 -955 -203 -105 -202 -105 -926 -1115 c-510 -613 -1034 -1244
-1164 -1401 l-238 -286 84 -63 c46 -34 84 -66 84 -72 0 -5 -20 -33 -45 -62
l-44 -52 87 -66 87 -66 450 -37 c387 -31 461 -40 530 -61 75 -24 112 -27 574
-49 397 -20 496 -27 505 -39 6 -8 42 -37 79 -65 l68 -51 4479 0 4479 0 21 -30
21 -30 135 0 c112 0 134 -2 134 -15 0 -8 5 -15 10 -15 6 0 10 -9 10 -20 0 -20
7 -20 300 -20 293 0 300 0 300 20 0 11 7 20 15 20 8 0 15 7 15 15 0 13 39 15
290 15 251 0 290 -2 290 -15 0 -8 5 -15 10 -15 6 0 10 -9 10 -20 0 -20 7 -20
300 -20 293 0 300 0 300 20 0 11 7 20 15 20 8 0 15 7 15 15 0 13 39 15 290 15
251 0 290 -2 290 -15 0 -8 5 -15 10 -15 6 0 10 -9 10 -20 0 -20 7 -20 300 -20
293 0 300 0 300 20 0 11 7 20 15 20 8 0 15 7 15 15 0 13 38 15 285 15 247 0
285 -2 285 -15 0 -8 5 -15 10 -15 6 0 10 -9 10 -20 0 -20 7 -20 305 -20 298 0
305 0 305 20 0 11 5 20 10 20 6 0 10 7 10 15 0 13 38 15 283 15 l283 0 14 -35
14 -35 298 0 c247 0 298 2 298 14 0 7 9 16 20 19 11 3 20 12 20 21 0 14 31 16
285 16 278 0 285 0 285 -20 0 -11 5 -20 10 -20 6 0 10 -7 10 -15 0 -13 40 -15
300 -15 260 0 300 2 300 15 0 8 7 15 15 15 8 0 15 9 15 20 0 20 7 20 290 20
283 0 290 0 290 -20 0 -11 5 -20 10 -20 6 0 10 -7 10 -15 0 -13 40 -15 300
-15 250 0 300 2 300 14 0 8 7 16 15 20 8 3 15 12 15 21 0 13 36 15 290 15 283
0 290 0 290 -20 0 -11 5 -20 10 -20 6 0 10 -7 10 -15 0 -13 40 -15 300 -15
250 0 300 2 300 14 0 8 7 16 15 20 8 3 15 12 15 21 0 12 14 15 73 15 70 0 73
1 90 30 l18 30 1735 0 1735 0 97 49 c53 27 162 85 241 130 l143 81 329 0 328
0 74 65 74 65 337 0 338 0 191 -140 c181 -132 195 -140 238 -140 32 0 49 -5
53 -15 8 -21 114 -21 122 0 9 21 132 21 140 0 9 -23 120 -21 133 2 8 13 11
-12 11 -92 l0 -110 65 -77 65 -77 0 -63 -1 -63 -121 -164 c-106 -143 -119
-167 -109 -183 7 -11 184 -214 395 -452 l384 -433 247 -634 c136 -349 259
-662 272 -696 l25 -63 69 0 69 0 0 540 0 540 43 0 c42 0 43 0 130 112 l87 113
-3 498 -2 499 -65 27 -65 28 -3 83 c-2 64 0 81 10 78 7 -3 52 -20 100 -38 l87
-32 3 -80 3 -80 28 22 27 21 0 310 0 309 38 0 38 0 197 280 c147 209 197 288
197 310 0 33 -6 30 175 71 99 22 100 22 175 90 l75 69 263 0 264 0 396 99 397
99 1175 46 c646 26 1185 46 1198 46 20 0 22 5 22 53 0 46 -44 346 -52 351 -2
2 -141 18 -310 37 -169 18 -305 35 -302 38 2 2 300 17 661 32 546 23 767 28
1294 29 l635 0 33 34 c27 28 32 40 29 72 l-3 38 -80 17 c-44 10 -113 18 -152
18 l-73 1 0 35 0 35 220 0 220 0 126 86 126 87 386 -8 387 -7 37 81 c34 77 38
81 68 81 19 0 39 -8 48 -19 14 -16 130 -39 656 -130 351 -61 641 -110 643
-107 2 2 1 26 -3 53 l-6 49 -211 66 c-158 50 -214 64 -227 56 -11 -7 -49 -4
-130 10 l-115 21 347 -2 c190 -1 349 1 353 5 19 19 -60 228 -86 228 -5 0 18
37 53 82 43 57 61 90 60 108 -3 43 -142 922 -154 979 -12 53 -13 55 -97 109
-47 30 -87 56 -89 57 -8 7 -118 751 -111 755 4 3 -6 38 -23 79 l-31 74 -226
-6 c-204 -5 -220 -4 -161 8 44 9 67 10 71 3 6 -9 313 84 331 101 4 3 -3 22
-15 42 l-22 35 -520 -88 c-286 -49 -521 -93 -523 -98 -2 -6 -160 -10 -416 -10
l-412 0 -22 52 c-12 29 -18 56 -13 61 8 8 1 35 -36 145 l-15 42 -61 1 c-34 0
-57 2 -52 4 6 2 36 11 67 19 56 16 57 17 46 41 -6 14 -20 25 -30 25 -42 0
-504 -82 -513 -91 -5 -5 -77 -9 -160 -9 l-150 0 -82 55 -82 55 -80 0 -80 0
-113 134 -113 135 -300 0 -300 1 -45 55 -45 55 -442 0 -443 0 -35 70 c-19 38
-35 72 -35 75 0 3 245 5 545 5 l545 0 0 30 c0 17 -3 30 -7 30 -26 -1 -3508
201 -3549 206 l-50 5 -12 567 c-7 312 -15 624 -19 693 l-6 127 -106 22 c-58
12 -165 34 -238 50 l-131 27 -14 -33z m-14198 -2128 c0 -2 -76 -72 -170 -155
-139 -124 -174 -151 -200 -151 l-30 0 0 155 0 155 200 0 c110 0 200 -2 200 -4z
m21889 -3001 c-12 -13 -23 -13 -84 -1 l-70 14 85 1 c74 1 83 -1 69 -14z"/>
</g>
</svg>
