<?xml version="1.0" standalone="no"?>
<!DOCTYPE svg PUBLIC "-//W3C//DTD SVG 20010904//EN"
 "http://www.w3.org/TR/2001/REC-SVG-20010904/DTD/svg10.dtd">
<svg version="1.0" xmlns="http://www.w3.org/2000/svg"
   viewBox="0 0 2824.000000 4704.000000"
 preserveAspectRatio="xMidYMid meet">
<metadata>
Created by potrace 1.16, written by Peter Selinger 2001-2019
</metadata>
<g transform="translate(0.000000,4704.000000) scale(0.100000,-0.100000)"
fill="#000000" stroke="none">
<path d="M14935 46947 l-160 -93 -510 7 c-281 4 -814 8 -1186 8 l-676 1 -181
-237 -182 -238 0 -118 c0 -88 4 -126 16 -149 9 -17 33 -97 54 -178 l38 -147
325 -470 c337 -486 450 -662 1443 -2241 399 -633 607 -974 635 -1037 30 -69
47 -95 60 -95 11 0 39 -35 82 -103 53 -84 68 -118 86 -193 11 -50 21 -97 21
-103 0 -6 -77 27 -171 74 l-170 86 -397 74 c-218 41 -400 75 -404 75 -5 0 -8
18 -8 40 l0 40 -369 0 -370 0 6 -33 5 -33 -409 -63 -408 -64 -540 -274 c-417
-212 -550 -284 -582 -315 -35 -35 -43 -39 -49 -25 -3 9 -10 17 -15 17 -11 0
-529 -489 -529 -500 0 -4 9 -15 20 -25 21 -19 20 -20 -109 -149 l-130 -131
-273 -535 -272 -535 -58 -400 c-31 -220 -57 -406 -58 -412 0 -9 -16 -13 -45
-13 l-45 0 -2 -181 -3 -181 -47 64 c-26 35 -77 93 -115 130 l-68 67 -930 11
c-511 7 -963 10 -1002 8 l-73 -3 -479 -375 -479 -375 -12 -55 c-6 -30 -13 -62
-16 -70 -3 -12 -365 -101 -1431 -354 l-1428 -338 -679 -300 -678 -301 -185
-231 -185 -230 5 -311 c3 -170 8 -321 12 -335 5 -19 85 -77 330 -240 l323
-215 148 6 c82 4 392 10 689 14 l540 8 668 -79 c367 -43 667 -81 667 -84 0 -3
-95 -32 -210 -64 l-210 -60 -1763 -1296 c-2010 -1480 -1789 -1297 -1865 -1541
-32 -105 -42 -153 -42 -206 l0 -69 -273 -520 c-160 -304 -293 -569 -320 -639
l-47 -120 -130 -1574 -129 -1573 176 -183 c97 -101 185 -186 197 -189 12 -3
66 -6 121 -6 55 0 151 -3 213 -7 l113 -6 82 -59 c45 -32 91 -58 103 -58 12 0
925 193 2030 430 1104 237 2017 430 2029 429 11 0 243 -89 515 -197 l494 -197
27 -115 26 -115 -32 -20 c-18 -11 -347 -207 -732 -435 -696 -413 -700 -415
-754 -482 -29 -37 -86 -123 -125 -192 l-72 -125 -7 -113 c-7 -113 -7 -114
-128 -445 l-120 -333 41 -1567 41 -1568 32 -108 32 -108 68 -49 c37 -27 108
-72 158 -101 50 -28 95 -57 99 -63 4 -6 39 -85 77 -176 l70 -164 47 -15 c46
-14 88 -9 1305 163 692 97 1271 178 1287 179 l30 2 62 -270 c35 -148 63 -275
63 -281 1 -6 -158 -152 -352 -325 l-353 -314 -30 -81 -30 -80 47 -1345 c27
-739 48 -1374 49 -1411 l0 -66 316 -379 c174 -208 317 -379 318 -380 1 -1 174
-47 386 -103 l384 -102 151 40 c82 22 151 39 152 39 1 -1 15 -59 31 -129 l29
-126 -124 -33 c-68 -18 -130 -37 -138 -43 -8 -6 -49 -87 -93 -181 l-79 -170
149 -31 c82 -18 150 -34 152 -35 1 -2 74 -200 162 -440 l159 -436 310 -57
c458 -86 2878 -596 2895 -612 8 -7 895 -1230 1970 -2718 l1955 -2705 147 0
146 -1 85 116 c84 115 85 116 100 92 9 -12 162 -266 341 -563 l326 -539 0
-377 0 -377 228 -474 228 -473 409 -327 409 -327 105 -24 c59 -14 289 -66 512
-117 l406 -93 384 87 384 88 1720 -992 c946 -545 1724 -996 1729 -1001 5 -4
36 -131 68 -281 33 -150 62 -276 66 -280 4 -3 720 -480 1592 -1058 872 -579
1620 -1076 1664 -1105 l78 -54 234 217 c222 205 233 217 217 233 -10 9 -79 63
-153 119 -109 82 -136 108 -142 133 -4 18 -361 2674 -792 5902 l-785 5870 -11
525 c-13 608 -11 589 -140 1625 -50 402 -89 738 -88 747 3 14 192 -62 1058
-428 580 -245 1065 -450 1077 -455 21 -8 26 -3 49 42 14 28 24 52 22 53 -2 2
-500 213 -1108 470 -608 258 -1109 472 -1114 477 -5 4 -112 835 -237 1846
-225 1809 -231 1864 -394 3501 l-166 1662 40 659 40 658 235 680 234 679 658
1079 c362 594 668 1098 680 1120 12 22 214 538 448 1146 l426 1105 321 1660
321 1659 54 625 54 625 44 2203 44 2203 -123 485 c-67 266 -127 490 -133 497
-5 6 -115 145 -245 309 l-236 296 -868 653 -868 654 -745 449 c-745 449 -745
449 -1620 908 -481 253 -1228 638 -1660 856 -771 389 -795 401 -1349 730
l-564 335 -161 -6 -161 -5 -167 338 c-91 186 -163 341 -160 344 3 3 27 6 54 6
27 0 58 4 68 10 26 14 114 140 104 149 -5 4 -175 81 -379 171 -381 168 -1292
579 -2170 980 l-501 229 -629 6 -630 6 -160 -94z"/>
</g>
</svg>
