<?xml version="1.0" standalone="no"?>
<!DOCTYPE svg PUBLIC "-//W3C//DTD SVG 20010904//EN"
 "http://www.w3.org/TR/2001/REC-SVG-20010904/DTD/svg10.dtd">
<svg version="1.0" xmlns="http://www.w3.org/2000/svg"
   viewBox="0 0 4755.000000 1727.000000"
 preserveAspectRatio="xMidYMid meet">
<metadata>
Created by potrace 1.16, written by Peter Selinger 2001-2019
</metadata>
<g transform="translate(0.000000,1727.000000) scale(0.100000,-0.100000)"
fill="#000000" stroke="none">
<path d="M4953 17197 l-69 -73 -23 -179 c-13 -99 -27 -189 -31 -200 -5 -14
-32 -28 -93 -48 -82 -27 -87 -30 -91 -60 -6 -37 -46 -435 -46 -458 0 -11 81
-50 270 -130 l270 -114 -7 -295 -6 -295 -214 -220 -214 -220 6 -295 c4 -162
10 -298 14 -302 3 -3 83 -22 176 -40 l171 -34 147 -118 148 -117 -6 -37 c-4
-20 -9 -50 -12 -67 -2 -16 -20 -53 -38 -81 l-34 -52 -153 -50 c-94 -31 -264
-74 -443 -112 -227 -48 -389 -91 -743 -197 l-453 -135 -332 -179 -332 -180
-196 -195 -196 -196 -57 -142 c-58 -146 -63 -168 -47 -224 l10 -32 -78 -39
c-42 -22 -126 -60 -186 -86 -80 -34 -182 -94 -384 -226 l-276 -180 -37 -72
c-30 -59 -100 -142 -387 -457 l-351 -385 0 -79 c0 -71 -6 -95 -50 -213 -50
-133 -51 -135 -169 -276 -86 -104 -145 -188 -219 -312 l-101 -171 -39 -174
-40 -175 -6 -357 -6 -358 264 0 c144 0 318 -3 384 -7 l122 -6 2 -396 3 -395
317 -66 316 -65 57 -72 c31 -40 59 -73 63 -73 4 0 331 -47 727 -104 446 -65
770 -107 850 -111 72 -3 142 -8 158 -11 l27 -6 0 -287 0 -287 256 -29 256 -28
586 11 c323 7 635 15 695 18 l107 6 0 -111 c0 -107 1 -111 23 -115 25 -6 1085
-126 1108 -126 8 0 31 -33 51 -73 21 -39 57 -93 80 -118 l43 -46 285 13 c157
7 332 13 389 13 l104 1 119 -65 119 -65 1560 0 1560 0 917 135 c504 74 929
138 945 141 26 5 27 8 27 63 l0 57 233 37 c198 32 259 46 400 93 l167 56 103
126 c98 120 106 133 137 227 18 55 41 124 52 153 l19 52 308 0 308 0 189 -145
189 -145 745 0 745 0 635 348 635 347 347 -112 348 -112 692 -112 693 -112
2213 26 2212 27 72 36 c50 25 166 114 392 300 l320 264 1376 0 1377 0 306 -49
305 -49 195 -107 194 -107 289 -586 c158 -323 343 -700 411 -838 l122 -251
136 -111 136 -110 267 -65 c147 -36 1361 -333 2697 -661 1337 -327 2711 -660
3055 -740 1245 -290 2253 -525 2255 -528 1 -2 122 -221 269 -488 l267 -485
469 -154 469 -154 289 111 289 112 354 -163 c195 -90 411 -188 481 -217 l127
-53 203 -337 203 -338 63 -36 c59 -35 206 -70 2819 -671 1516 -350 2760 -632
2763 -628 61 74 200 278 196 288 -3 8 -41 64 -86 124 -44 61 -80 114 -80 119
0 4 14 16 31 26 23 13 30 24 27 40 -3 12 -76 121 -164 243 l-159 221 -39 -28
-39 -29 -27 37 -27 37 34 24 c36 27 38 32 21 64 -10 20 -291 421 -307 440 -4
4 -25 -6 -48 -23 l-40 -30 -26 37 -26 37 34 25 c19 13 35 27 35 31 0 17 -314
462 -330 468 -5 2 -25 -8 -44 -23 l-34 -26 -28 37 c-28 36 -28 37 -9 50 58 39
58 39 44 66 -28 50 -314 448 -323 448 -5 0 -24 -11 -42 -25 -18 -14 -35 -25
-38 -25 -5 0 -46 64 -46 73 0 3 16 15 35 27 32 20 33 23 22 48 -6 15 -89 134
-184 264 -95 131 -173 240 -173 243 0 3 267 5 593 5 325 0 649 3 719 7 137 7
134 5 94 56 -13 17 -75 22 -771 57 -597 30 -759 41 -766 51 -7 11 -12 12 -29
2 -11 -7 -34 -13 -52 -13 -28 0 -38 8 -68 52 -19 29 -63 90 -98 136 l-63 85
1486 -7 c817 -4 1485 -4 1485 1 -1 4 -11 20 -23 36 l-23 28 -1570 69 c-863 39
-1589 70 -1614 70 -44 0 -48 3 -220 160 l-174 160 -66 0 -65 0 -472 703 c-709
1052 -806 1216 -1186 1987 l-199 405 -188 520 -189 520 -55 425 -56 425 65 60
66 60 59 282 c39 184 88 377 141 555 77 257 88 285 187 483 57 116 127 248
156 295 49 82 51 88 51 158 l0 74 -811 265 -811 266 1 41 1 41 -240 83 -240
84 -1190 209 c-654 115 -1208 209 -1230 209 -22 0 -218 36 -435 80 -217 45
-937 181 -1600 304 -1120 208 -1218 224 -1385 235 -378 23 -618 31 -1540 51
-914 20 -1160 21 -6515 18 l-5565 -3 -42 -23 -43 -22 0 -165 c0 -160 -1 -165
-21 -165 -24 0 -538 57 -586 66 -29 4 -33 9 -33 35 0 21 -15 49 -46 90 l-45
59 -1207 0 c-1160 0 -1223 1 -1621 25 -227 13 -415 26 -417 28 -2 2 14 102 36
222 22 121 40 222 40 225 0 4 -64 96 -143 205 l-142 198 -257 71 -257 71 -69
68 -69 69 -379 29 -379 29 -1557 0 -1556 0 -72 -60 -72 -60 -988 0 -988 0 -33
-42 c-18 -24 -33 -44 -34 -45 -1 -2 -39 2 -86 8 -71 9 -90 9 -119 -4 -19 -8
-129 -99 -244 -201 -115 -102 -211 -186 -213 -186 -1 0 -3 107 -3 238 l0 237
53 42 54 42 -34 171 -33 171 -256 305 c-141 167 -264 309 -273 314 -10 6 78 9
257 10 149 0 272 4 272 9 0 4 12 26 27 47 25 36 27 51 39 214 7 96 13 202 13
236 l1 61 -332 148 -333 148 -370 48 -370 48 -422 1 c-494 0 -466 -7 -404 100
l37 65 -74 166 -74 166 -121 34 c-66 18 -124 38 -129 44 -5 5 -44 86 -86 179
l-77 170 -148 88 c-113 66 -160 89 -195 93 -113 12 -536 35 -744 39 l-226 5
-69 -72z m16401 -4769 l730 -203 -389 -3 -389 -2 -190 80 c-105 45 -269 118
-363 163 l-173 82 0 43 c0 37 3 42 23 42 12 0 350 -91 751 -202z"/>
</g>
</svg>
