<?xml version="1.0" standalone="no"?>
<!DOCTYPE svg PUBLIC "-//W3C//DTD SVG 20010904//EN"
 "http://www.w3.org/TR/2001/REC-SVG-20010904/DTD/svg10.dtd">
<svg version="1.0" xmlns="http://www.w3.org/2000/svg"
   viewBox="0 0 3467.000000 3578.000000"
 preserveAspectRatio="xMidYMid meet">
<metadata>
Created by potrace 1.16, written by Peter Selinger 2001-2019
</metadata>
<g transform="translate(0.000000,3578.000000) scale(0.100000,-0.100000)"
fill="#000000" stroke="none">
<path d="M21045 35695 c-818 -67 -1449 -127 -3191 -304 -1195 -122 -2174 -221
-2177 -221 -3 0 -25 -31 -48 -70 -40 -64 -46 -70 -84 -75 -121 -16 -3304 -325
-3325 -323 -21 2 -35 21 -80 107 l-55 104 -201 -5 -200 -5 -535 -321 -534
-321 -350 -392 c-192 -216 -355 -402 -361 -413 -6 -12 -64 -201 -128 -421
-110 -377 -116 -400 -99 -413 10 -8 50 -31 90 -53 l71 -40 -140 -322 -141
-322 -78 -390 -77 -391 37 -589 37 -590 171 -340 171 -340 259 -257 258 -258
276 -123 277 -123 -284 -316 -284 -317 -390 -907 c-215 -499 -394 -913 -398
-920 -5 -9 -52 21 -158 102 l-151 114 -719 50 c-395 27 -744 51 -774 52 l-55
3 -455 -299 c-250 -164 -463 -306 -472 -315 -9 -9 -51 -79 -93 -156 -59 -110
-136 -292 -357 -855 -154 -393 -283 -717 -284 -719 -2 -2 -111 -29 -243 -60
-132 -31 -242 -59 -245 -62 -3 -3 8 -346 26 -762 17 -416 30 -759 27 -761 -2
-2 -86 -6 -187 -8 l-183 -3 -109 200 c-60 110 -111 204 -112 208 -2 4 -517
-109 -1144 -252 l-1141 -260 -479 -18 -479 -18 195 -8 c107 -4 257 -11 333
-15 l139 -7 -744 -169 -743 -169 -318 -12 c-175 -7 -320 -15 -324 -18 -3 -4
-34 -110 -69 -237 l-63 -230 -10 -287 c-27 -688 -92 -2497 -111 -3038 -11
-324 -23 -662 -26 -750 l-7 -160 48 -230 48 -231 319 -28 318 -28 1893 -569
c1040 -313 1930 -581 1976 -595 l83 -25 -6 -142 c-4 -78 -8 -214 -8 -302 l-1
-160 134 -228 134 -228 512 -434 512 -435 718 -16 c395 -9 719 -17 720 -18 1
-1 12 -96 24 -212 l23 -210 89 -12 89 -11 406 -268 407 -269 460 -206 460
-206 539 -41 539 -41 146 -79 146 -79 217 -23 216 -23 211 -520 c116 -286 210
-521 208 -522 -1 -2 -363 -22 -802 -45 -440 -23 -802 -45 -805 -49 -3 -4 -12
-10 -20 -13 -12 -4 -12 -6 2 -6 9 -1 18 -6 20 -12 2 -7 283 -26 843 -56 462
-24 845 -46 850 -47 6 -2 82 -180 169 -396 l159 -392 101 -67 c56 -37 244
-150 420 -251 232 -134 333 -187 375 -196 31 -7 150 -20 266 -29 l209 -17 91
-72 c50 -39 416 -330 814 -646 l723 -575 292 4 c280 3 293 3 298 -15 2 -11 24
-137 49 -281 37 -219 47 -263 61 -267 11 -2 18 -14 18 -30 0 -24 3 -26 48 -25
171 2 1133 47 1139 53 5 4 10 139 11 301 l4 293 45 6 c25 3 100 6 167 6 l122
0 101 75 101 74 9 108 c4 59 8 298 8 531 l0 422 30 0 c16 0 199 9 405 20 206
11 392 20 413 20 l37 0 0 74 0 74 -147 8 -148 9 560 33 c714 43 675 39 675 68
0 16 -6 24 -17 24 -38 0 -1816 110 -1818 112 -2 2 -6 53 -10 115 l-7 111 53 6
c30 3 581 19 1224 36 644 16 1225 33 1293 36 l122 6 0 68 0 68 -47 6 c-27 3
-201 8 -388 12 -360 7 -632 20 -484 22 103 3 139 11 139 31 0 15 -89 22 -877
70 -1099 66 -1043 62 -1043 74 0 7 264 8 805 3 l806 -7 -3 98 c-3 94 -4 97
-28 103 -13 3 144 14 350 23 206 10 423 21 483 24 l107 6 0 29 c0 25 -3 28
-32 28 -50 0 -2493 122 -2496 125 -4 4 -45 1545 -41 1549 2 2 866 34 1919 72
1053 37 1917 71 1920 75 3 4 417 22 920 41 503 18 897 34 875 35 -57 4 -1717
63 -1760 63 -28 0 -35 4 -35 19 0 17 -10 20 -82 25 -46 3 -812 31 -1703 61
-891 31 -1646 59 -1677 63 l-57 7 463 577 463 577 6 78 c3 43 18 295 33 560
l27 482 -140 208 -141 208 -1213 445 c-668 245 -1302 480 -1409 522 l-195 76
-5 68 -5 68 -73 30 c-53 22 -71 34 -68 45 3 9 145 608 316 1331 172 723 315
1318 318 1321 27 25 255 199 261 199 4 0 56 -183 116 -407 59 -225 115 -419
123 -433 9 -14 172 -214 364 -446 l348 -420 532 -264 533 -264 1996 -17 1996
-17 941 -726 940 -726 -23 -88 c-13 -48 -51 -195 -85 -326 l-62 -239 16 -281
c9 -155 19 -291 22 -304 l6 -22 -444 0 -444 0 -209 -70 -210 -70 -122 -122
c-68 -68 -123 -126 -123 -130 0 -4 345 -595 766 -1314 421 -719 767 -1314 769
-1323 2 -12 904 -1432 920 -1449 2 -2 206 -74 453 -160 l451 -157 517 -825
c284 -454 519 -832 521 -841 3 -12 -72 -60 -306 -195 -220 -127 -310 -184
-308 -195 1 -9 119 -330 262 -714 l260 -698 223 -191 222 -191 515 -809 515
-808 0 -154 0 -154 499 -697 499 -698 446 -81 446 -82 112 29 c62 15 114 27
115 25 1 -1 -35 -29 -82 -62 -47 -32 -85 -62 -85 -66 0 -7 1396 -2237 1409
-2250 3 -3 44 3 91 15 84 21 99 21 1486 27 l1401 5 -357 964 -357 965 -144 40
c-79 21 -146 41 -148 42 -2 2 -166 428 -365 948 l-362 945 16 148 17 148 -852
2340 -852 2340 -114 80 c-63 44 -125 87 -137 95 -18 12 -110 262 -435 1177
l-413 1161 53 167 53 168 -176 444 c-112 285 -173 452 -169 464 4 11 28 66 55
123 l49 104 -309 768 -309 769 -628 5 -628 5 -222 369 c-123 203 -223 371
-223 373 0 2 184 3 408 3 l408 0 163 64 c89 35 162 66 163 70 0 4 -44 101 -98
216 l-99 210 -161 0 -161 0 -61 148 c-34 81 -63 152 -64 159 -2 6 17 41 41 77
l44 66 -1045 2842 -1046 2843 -134 101 -134 101 -253 683 -254 682 43 94 42
94 -45 130 -46 130 99 50 100 50 -41 112 c-22 62 -169 468 -327 901 l-287 789
-1553 843 -1554 843 -87 -38 -87 -37 -23 256 c-12 141 -25 270 -27 287 -5 29
-44 54 -635 405 l-630 374 -166 217 -165 217 -732 517 c-402 285 -757 537
-788 559 l-57 41 779 1509 c429 830 783 1512 787 1516 5 3 320 -15 702 -42
619 -43 696 -50 711 -66 10 -10 297 -405 639 -878 l622 -860 164 -137 163
-138 814 0 814 0 17 -88 c9 -49 17 -95 17 -102 0 -10 -62 -11 -335 -6 l-335 8
0 -106 0 -106 27 0 c25 0 3919 107 4103 112 47 2 -583 18 -1400 36 -817 18
-1529 35 -1582 38 l-98 6 0 82 c0 44 3 91 6 104 l6 22 845 0 844 0 112 93 c95
79 121 108 171 186 49 78 56 95 45 106 -20 18 -868 731 -1459 1225 -272 228
-704 590 -960 804 -1251 1050 -2577 2150 -2595 2152 -11 1 -479 -35 -1040 -81z
m-9562 -3085 l185 -125 6 -70 c3 -38 8 -284 12 -545 l6 -475 -420 -269 -420
-269 -174 -276 -175 -276 -47 -230 c-26 -126 -50 -240 -54 -253 -6 -20 -23 1
-119 155 l-112 178 -85 468 -85 468 45 317 c45 314 46 320 134 615 49 165 91
301 93 304 3 2 31 -9 63 -25 l59 -30 245 98 245 97 199 137 c110 75 203 135
207 134 5 -2 91 -59 192 -128z m221 -1712 c3 -46 8 -258 12 -473 l6 -390 -59
-26 -58 -25 -78 -415 c-43 -228 -83 -430 -88 -449 -5 -20 -35 -62 -68 -98
l-59 -62 -218 166 c-121 91 -220 167 -221 168 -1 1 13 193 32 426 l34 424 103
213 103 213 270 204 c149 113 273 205 277 205 3 1 9 -36 12 -81z m-6114 -8864
l0 -26 -37 23 c-21 12 -40 24 -42 26 -2 2 14 3 37 3 38 0 42 -2 42 -26z
m19397 -6768 l182 -56 194 0 194 0 188 -342 c103 -189 196 -358 207 -376 l20
-32 -603 2 -603 3 -38 120 -38 120 0 181 0 182 39 113 c53 153 52 151 65 146
6 -3 93 -30 193 -61z"/>
</g>
</svg>
