<?xml version="1.0" standalone="no"?>
<!DOCTYPE svg PUBLIC "-//W3C//DTD SVG 20010904//EN"
 "http://www.w3.org/TR/2001/REC-SVG-20010904/DTD/svg10.dtd">
<svg version="1.0" xmlns="http://www.w3.org/2000/svg"
   viewBox="0 0 4716.000000 1672.000000"
 preserveAspectRatio="xMidYMid meet">
<metadata>
Created by potrace 1.16, written by Peter Selinger 2001-2019
</metadata>
<g transform="translate(0.000000,1672.000000) scale(0.100000,-0.100000)"
fill="#000000" stroke="none">
<path d="M1340 16589 l-100 -131 0 -89 0 -89 -125 -92 -124 -93 -1 -852 0
-852 120 -92 120 -92 0 -101 0 -101 185 -225 186 -225 94 -50 c54 -29 95 -56
95 -65 0 -8 -59 -289 -132 -623 l-133 -608 -39 3 -40 3 -125 -452 -126 -452
-216 -313 c-119 -172 -276 -405 -349 -518 l-134 -204 -68 -454 -68 -454 61
-315 61 -315 237 -481 238 -482 504 -386 c318 -244 517 -389 537 -394 l32 -7
0 -94 c0 -89 -1 -94 -22 -98 -13 -3 -268 -12 -568 -21 l-545 -16 -448 -167
-447 -167 0 -1305 0 -1306 443 -200 442 -200 945 -87 945 -88 1096 1 1095 0
337 153 337 152 454 415 455 415 1 55 c1 30 7 100 13 154 l12 99 380 107 c209
58 474 132 588 164 l208 59 407 314 407 315 142 270 142 270 127 567 c77 341
134 573 143 585 9 10 53 45 98 78 97 70 84 15 113 475 13 198 20 424 20 616
l0 303 88 119 87 120 5 -845 5 -844 205 -123 205 -123 335 -24 335 -25 95
-101 95 -100 1806 0 1805 0 99 100 98 100 335 25 335 26 209 125 208 125 0
523 0 523 128 127 c71 70 139 134 151 142 21 15 27 12 166 -123 l143 -138 1
-526 1 -526 210 -126 210 -126 338 -26 337 -25 93 -100 94 -100 1808 0 1808 0
94 100 93 100 338 25 337 26 210 126 210 126 0 561 0 561 110 103 110 103 95
-88 95 -88 0 -145 c0 -80 5 -365 10 -635 l9 -490 48 -152 c48 -152 48 -153 78
-153 17 -1 228 -13 470 -29 l440 -27 170 -122 170 -123 165 6 c91 3 856 22
1700 41 l1535 35 128 81 128 80 447 24 c246 13 450 23 453 24 4 0 43 49 88
109 l81 108 0 249 c0 137 3 347 7 467 l6 217 173 0 c165 0 174 1 215 25 24 14
47 25 52 25 4 0 7 -173 7 -384 l0 -385 208 -125 209 -125 334 -25 333 -26 101
-100 100 -100 1805 0 1804 0 95 100 96 101 335 25 335 24 205 123 205 123 3
862 2 862 48 -6 c99 -11 92 -3 92 -108 0 -51 3 -108 6 -125 6 -29 9 -31 48
-31 l42 0 21 -62 c11 -35 60 -152 109 -260 l89 -198 265 -2 264 -3 161 -440
c88 -242 165 -447 170 -455 4 -8 141 -208 303 -443 l294 -428 238 -217 238
-217 -123 -40 -124 -40 -364 -337 -365 -337 -61 -183 c-33 -101 -67 -212 -75
-248 -8 -36 -69 -241 -134 -456 l-120 -391 5 -129 6 -129 110 -220 c99 -197
120 -250 207 -514 l98 -294 418 -399 419 -399 848 -574 849 -575 550 -200
c303 -111 734 -271 957 -356 l406 -155 2238 -54 2239 -53 341 242 342 242 224
267 224 268 14 209 15 210 -73 93 c-159 202 -147 190 -259 250 -119 63 -120
64 -332 317 l-155 185 -282 125 c-154 68 -281 129 -281 135 0 6 43 253 95 548
l95 536 0 847 0 847 -216 781 -216 781 -235 495 -234 495 -219 205 c-205 191
-219 207 -219 240 0 19 8 195 18 390 l19 354 -48 371 -48 370 -95 290 c-86
261 -114 332 -286 710 l-190 420 -184 253 -185 253 -481 349 -481 348 -301
112 -300 112 -172 19 c-95 10 -180 19 -189 19 -17 0 -18 33 -18 558 l0 557
-114 59 -113 60 -83 -13 c-76 -11 -88 -17 -134 -56 l-51 -43 -45 64 c-40 56
-51 65 -95 78 -136 40 -130 39 -346 11 l-204 -27 -219 -100 c-219 -99 -220
-100 -405 -242 l-186 -143 -510 -6 c-280 -4 -666 -10 -857 -14 l-348 -6 0 80
0 80 -292 6 c-161 4 -509 10 -773 13 l-480 7 -217 -99 -218 -98 0 -438 0 -438
-185 0 -185 0 0 694 0 695 -209 125 -209 126 -266 0 -266 0 0 753 0 752 -305
138 -305 137 -5092 0 -5093 0 -187 -133 -188 -132 0 -732 0 -733 -237 0 -238
0 -123 -148 -123 -147 5 -290 c3 -159 15 -915 27 -1679 l23 -1388 -71 -69
c-39 -38 -76 -69 -83 -69 -7 0 -59 46 -116 102 l-104 102 0 1641 0 1640 -213
128 -213 127 -2664 0 -2664 0 -213 -127 -213 -128 0 -1606 0 -1607 -148 -140
-147 -140 -148 142 -148 141 1 1606 0 1605 -210 127 -211 127 -2665 0 -2666 0
-209 -126 -209 -125 0 -1271 0 -1271 -90 126 -90 126 0 150 0 151 -170 0 -170
0 0 163 c0 89 -4 736 -10 1437 l-10 1275 -57 220 -57 220 -165 193 -166 193
-295 136 -295 135 -168 11 -167 10 -167 198 c-92 109 -172 200 -177 203 -6 2
-140 54 -298 115 l-287 111 -705 0 -706 0 -4 23 c-3 12 -8 48 -11 80 l-6 57
-1909 0 -1909 0 -101 -131z"/>
</g>
</svg>
