<?xml version="1.0" standalone="no"?>
<!DOCTYPE svg PUBLIC "-//W3C//DTD SVG 20010904//EN"
 "http://www.w3.org/TR/2001/REC-SVG-20010904/DTD/svg10.dtd">
<svg version="1.0" xmlns="http://www.w3.org/2000/svg"
   viewBox="0 0 2794.000000 4365.000000"
 preserveAspectRatio="xMidYMid meet">
<metadata>
Created by potrace 1.16, written by Peter Selinger 2001-2019
</metadata>
<g transform="translate(0.000000,4365.000000) scale(0.100000,-0.100000)"
fill="#000000" stroke="none">
<path d="M22940 43180 c0 -463 0 -470 -20 -470 -20 0 -20 -7 -20 -1412 0
-1386 -1 -1414 -20 -1457 -18 -38 -20 -65 -20 -232 l0 -189 -44 0 -44 0 -86
140 -86 140 0 442 0 442 -42 43 -42 43 -668 0 -668 0 0 285 0 285 -30 0 -30 0
0 -285 0 -285 -1034 0 -1033 0 -7 148 c-3 81 -8 260 -11 397 -3 138 -8 296
-11 353 l-6 102 -98 0 -97 0 -6 -157 c-4 -87 -9 -275 -12 -418 -3 -143 -8
-297 -11 -342 l-6 -83 -264 0 -264 0 0 650 0 650 -30 0 -30 0 0 -650 0 -650
-313 0 -313 0 -37 -38 -37 -38 0 -342 0 -342 -187 0 -188 0 -584 -117 -583
-116 -112 114 c-562 577 -738 750 -752 738 -8 -6 -14 -15 -14 -20 0 -4 185
-196 411 -426 l410 -418 -328 -65 -328 -66 -3 -722 -2 -722 -399 0 c-219 0
-426 3 -460 6 l-61 7 0 78 0 79 -35 0 -35 0 0 -79 0 -78 -61 -7 c-34 -3 -104
-6 -155 -6 l-94 0 0 -1473 0 -1473 -30 -29 -30 -29 0 -940 0 -940 -42 -43
c-50 -51 -43 -72 7 -23 l35 34 0 -182 0 -182 -45 0 -45 0 0 -205 0 -205 45 0
45 0 0 -187 0 -187 -35 34 c-50 49 -57 28 -7 -23 l42 -43 0 -174 0 -173 -60
-63 -60 -62 0 -1395 0 -1395 -77 -6 c-43 -3 -213 -8 -378 -11 -344 -6 -475
-13 -475 -26 0 -5 7 -9 15 -9 8 0 15 -7 15 -15 0 -10 10 -15 33 -15 17 0 382
-7 810 -17 l777 -17 0 -316 0 -315 -142 -97 -142 -98 -1628 0 -1628 0 0 130 0
130 -823 0 -823 0 -435 -740 c-433 -738 -434 -740 -466 -740 l-33 0 0 -75 0
-75 -419 0 c-407 0 -420 1 -426 19 -3 11 -88 317 -189 681 -101 363 -186 663
-189 666 -11 11 -47 -8 -47 -24 0 -9 83 -314 183 -677 l183 -660 -47 -3 c-47
-3 -53 1 -286 156 -131 87 -244 162 -250 166 -9 5 -13 0 -13 -17 0 -21 37 -49
251 -191 l251 -166 169 0 169 0 0 -55 0 -55 -2235 0 -2235 0 0 -278 0 -278 48
-47 48 -47 182 0 182 0 0 -773 0 -773 -110 -75 c-60 -41 -110 -80 -110 -86 0
-10 -128 -13 -605 -13 l-605 0 0 90 0 90 -230 0 -230 0 0 -89 c0 -50 -4 -91
-10 -93 -7 -2 -90 -375 -90 -405 0 -2 -90 -3 -201 -3 l-200 0 -112 97 c-90 77
-113 93 -116 78 -2 -13 14 -33 50 -64 30 -25 70 -61 89 -79 l35 -33 -65 2
c-36 1 -102 1 -147 0 l-82 -1 -3 -36 -3 -36 -461 -211 -461 -212 -13 -147 -13
-147 119 -616 119 -616 71 -44 c55 -34 82 -45 113 -45 40 0 41 -1 51 -42 6
-24 19 -54 29 -67 17 -22 20 -23 74 -12 61 13 153 59 182 91 17 19 30 20 257
20 l238 0 0 -170 0 -170 -236 0 -236 0 -34 30 c-47 40 -102 67 -172 84 -57 13
-59 13 -72 -8 -7 -11 -19 -39 -25 -61 -11 -37 -15 -40 -54 -43 -22 -2 -41 -6
-41 -10 0 -4 -52 -275 -116 -602 -128 -659 -149 -816 -134 -966 6 -53 12 -99
14 -103 2 -3 252 -121 554 -261 l550 -255 -191 -99 c-363 -187 -357 -183 -357
-217 l0 -30 53 29 c28 16 154 82 278 146 l226 116 1299 -2 1298 -3 72 -175 72
-175 -284 -3 -284 -2 0 -25 0 -25 296 -2 296 -3 354 -865 354 -865 0 -136 0
-137 66 -41 c36 -22 69 -41 73 -41 4 0 19 -28 32 -62 29 -73 31 -74 182 -83
l107 -7 0 -174 0 -174 144 0 145 0 -25 -72 c-29 -85 -28 -78 -6 -78 16 0 18
-10 14 -125 l-4 -125 37 0 37 0 -4 125 -4 125 92 0 93 0 19 53 c11 28 23 62
26 75 7 21 12 22 112 22 63 0 104 -4 104 -10 0 -5 7 -10 15 -10 8 0 15 5 15
10 0 7 143 10 410 10 267 0 410 -3 410 -10 0 -5 7 -10 15 -10 8 0 15 5 15 10
0 7 338 10 995 10 l995 0 0 -600 0 -600 -170 0 -170 0 0 -395 0 -395 329 -2
328 -3 -518 -1934 c-285 -1064 -517 -1936 -516 -1937 1 -1 16 -4 32 -8 l30 -6
520 1945 520 1945 622 0 622 0 2058 -2300 2058 -2300 318 0 317 0 0 -1145 0
-1145 340 0 340 0 0 -40 0 -40 -50 0 -50 0 0 -90 0 -90 -85 0 -85 0 0 -128 c0
-116 2 -131 20 -147 20 -18 20 -31 20 -1167 l0 -1148 -80 0 -79 0 -26 -37 -25
-38 1 -330 c0 -322 3 -366 107 -1745 l107 -1415 81 -5 82 -5 -394 -155 c-331
-130 -423 -170 -389 -170 2 0 170 65 372 145 l367 144 23 -21 c13 -12 23 -17
23 -11 0 6 -7 17 -16 24 -14 12 -12 15 22 30 33 15 75 18 277 18 l237 1 0
-155 c0 -97 4 -155 10 -155 6 0 10 58 10 155 l0 155 40 0 40 0 0 -235 c0 -150
4 -235 10 -235 6 0 10 85 10 235 l0 235 25 0 25 0 0 1414 c0 1392 0 1415 20
1461 17 40 20 69 20 196 l0 149 335 0 c184 0 335 -1 335 -3 0 -2 -11 -32 -25
-66 l-24 -63 156 -172 c85 -94 163 -179 172 -188 10 -11 65 -29 139 -45 l122
-28 853 -921 c468 -507 896 -969 950 -1027 l99 -106 14 -113 c8 -62 14 -116
14 -120 0 -4 63 -74 140 -157 l139 -150 181 189 180 189 0 66 c0 59 2 66 23
76 13 6 356 352 762 770 406 417 741 759 745 759 4 0 306 -304 671 -675 l663
-676 25 26 26 25 -105 106 -105 106 1038 1031 c882 877 1038 1036 1037 1060
l0 27 170 0 c107 0 170 4 170 10 0 6 68 10 185 10 158 0 185 2 185 15 0 13
-27 15 -185 15 -117 0 -185 4 -185 10 0 6 -63 10 -170 10 l-170 0 0 76 0 76
-220 415 -220 416 0 414 0 415 -70 81 -70 80 0 3351 0 3351 78 80 79 80 -10
446 -10 446 256 333 257 334 0 89 c0 79 2 88 18 83 9 -2 124 -19 255 -38 l239
-33 -5 -65 -5 -65 10 63 11 64 59 -7 c38 -5 58 -3 58 4 0 9 -21 15 -90 25 -12
1 -15 15 -13 61 l1 60 -10 -57 c-6 -32 -13 -58 -17 -58 -24 0 -505 71 -509 75
-16 16 26 14 195 -10 l188 -26 57 27 c56 27 68 42 68 91 0 25 -4 26 -117 43
-94 13 -93 13 -93 -10 0 -24 6 -24 -155 0 -71 11 -133 20 -137 20 -5 0 -8 115
-8 255 l0 255 670 0 670 0 0 -60 c0 -60 0 -60 29 -60 l29 0 7 128 c5 79 3 173
-4 247 -6 66 -11 164 -11 218 0 90 -1 97 -20 97 -19 0 -20 -7 -20 -175 l0
-175 -677 2 c-373 2 -562 4 -420 5 l257 3 0 30 0 30 -255 0 -255 0 0 145 0
145 -1180 0 -1180 0 0 45 0 44 303 6 c166 3 1174 8 2240 10 l1937 5 0 -55 c0
-30 5 -55 10 -55 6 0 10 25 10 55 l0 55 250 0 250 0 0 -55 c0 -30 5 -55 10
-55 6 0 10 25 10 55 l0 55 40 0 40 0 0 40 0 40 -42 1 c-24 1 -35 3 -25 6 21 5
23 33 2 33 -10 0 -15 11 -15 35 0 19 -4 35 -10 35 -5 0 -10 -16 -10 -35 l0
-35 -250 0 -250 0 0 35 c0 19 -4 35 -10 35 -5 0 -10 -16 -10 -35 l0 -35 -1899
0 c-1497 0 -1906 3 -1928 12 -21 10 -170 14 -600 16 l-573 3 0 34 0 35 -470 0
-470 0 0 40 0 40 850 0 850 0 0 445 0 445 1110 0 1110 0 0 -60 0 -60 33 0 33
0 2 88 c3 173 -21 602 -33 602 -17 0 -25 -71 -25 -226 l0 -134 -1142 0 -1143
0 -62 61 -63 61 0 812 0 811 90 90 90 90 0 522 0 523 -516 2 -515 3 608 168
608 167 566 0 567 0 41 70 42 70 301 2 301 3 -381 452 -382 452 0 409 0 409
45 24 45 24 0 132 0 133 315 0 315 0 0 25 0 25 -315 0 -315 0 0 300 0 300 30
67 30 66 0 685 0 685 -41 54 c-36 45 -46 53 -75 53 -24 0 -34 5 -34 15 0 11
11 15 38 15 32 1 42 7 75 49 l37 49 0 685 0 685 -30 67 -30 67 0 457 0 456
-45 25 -45 25 0 182 0 183 -515 0 -514 0 -3 67 c-3 58 -6 69 -25 79 -13 6 -20
14 -16 17 3 4 233 7 510 7 l503 0 0 200 0 200 -505 0 -504 0 6 88 c4 68 10 95
28 122 l23 35 6 670 c4 369 9 718 12 778 6 106 6 107 31 107 13 0 21 4 18 10
-4 6 13 10 44 10 l51 0 0 125 0 125 -30 0 c-16 0 -30 5 -30 10 0 6 14 10 30
10 17 0 30 5 30 10 0 6 87 10 240 10 207 0 240 2 240 15 0 13 -33 15 -240 15
-153 0 -240 4 -240 10 0 7 178 10 515 10 l515 0 0 30 0 30 -515 0 -515 0 0 60
0 60 -55 0 c-30 0 -55 5 -55 10 0 6 25 10 55 10 30 0 55 5 55 10 0 7 325 10
955 10 842 0 955 2 955 15 0 13 43 15 330 15 213 0 330 4 330 10 0 6 -117 10
-330 10 -287 0 -330 2 -330 15 0 13 -113 15 -955 15 l-955 0 0 75 0 75 -50 0
-49 0 5 138 c4 75 7 138 9 140 1 1 51 -34 111 -78 l109 -80 268 0 267 0 0
1470 0 1470 205 0 205 0 0 55 0 55 -205 0 -205 0 0 171 0 171 -155 298 c-85
164 -155 300 -155 304 0 3 38 6 85 6 l85 0 0 593 0 594 -25 11 c-14 7 -53 12
-85 12 l-60 0 0 98 0 97 155 234 155 233 0 993 0 993 -87 96 -88 95 -102 1
-103 0 0 35 0 35 78 0 c76 0 77 1 100 33 22 33 22 36 22 394 l0 360 -100 1329
c-54 731 -102 1357 -105 1392 l-7 62 -81 0 -82 1 135 54 c74 30 254 101 399
158 145 57 260 107 255 110 -6 3 -174 -59 -374 -138 -363 -143 -365 -143 -386
-124 -24 23 -41 13 -19 -11 15 -16 13 -19 -25 -34 -33 -13 -82 -16 -275 -16
l-235 0 0 445 c0 290 -3 445 -10 445 -7 0 -10 -155 -10 -445 l0 -445 -40 0
-40 0 0 470 c0 307 -3 470 -10 470 -7 0 -10 -163 -10 -470z m3433 -27487
c-523 -2 -1383 -2 -1910 0 -527 1 -98 2 952 2 1051 0 1482 -1 958 -2z m1345 0
c-71 -2 -185 -2 -255 0 -71 1 -13 3 127 3 140 0 198 -2 128 -3z m-3341 -8260
c-1 -873 -2 -161 -2 1582 0 1744 1 2458 2 1588 2 -870 2 -2296 0 -3170z"/>
</g>
</svg>
