<?xml version="1.0" standalone="no"?>
<!DOCTYPE svg PUBLIC "-//W3C//DTD SVG 20010904//EN"
 "http://www.w3.org/TR/2001/REC-SVG-20010904/DTD/svg10.dtd">
<svg version="1.0" xmlns="http://www.w3.org/2000/svg"
   viewBox="0 0 4618.000000 1222.000000"
 preserveAspectRatio="xMidYMid meet">
<metadata>
Created by potrace 1.16, written by Peter Selinger 2001-2019
</metadata>
<g transform="translate(0.000000,1222.000000) scale(0.100000,-0.100000)"
fill="#000000" stroke="none">
<path d="M26630 12164 c-107 -30 -325 -91 -483 -136 l-288 -81 -66 -132 -66
-132 -471 -6 c-259 -4 -668 -7 -908 -7 l-437 0 -91 -130 c-51 -73 -98 -130
-107 -130 -26 0 -3153 -199 -3230 -206 l-73 -6 0 -34 0 -34 -64 0 c-63 0 -63
0 -90 41 -19 27 -32 39 -44 35 -34 -10 -551 -106 -570 -106 -13 0 -27 15 -43
45 -23 43 -25 44 -61 39 -36 -6 -38 -5 -68 45 -18 29 -39 51 -48 51 -10 0
-395 -72 -857 -159 -719 -136 -842 -156 -856 -145 -13 12 -98 -1 -585 -93
l-570 -106 -49 -144 -50 -143 -50 -10 c-168 -34 -1053 -200 -1067 -200 -9 0
-81 68 -161 152 l-145 152 -811 -144 -810 -144 -7 -68 c-6 -65 -8 -68 -33 -68
-26 0 -29 -6 -71 -137 -24 -76 -45 -139 -46 -141 0 -1 -367 -72 -815 -157
-448 -85 -823 -157 -835 -160 -17 -4 -25 6 -50 57 -22 45 -43 71 -84 103 l-56
43 -2179 -414 c-1198 -228 -2180 -416 -2181 -417 -1 -1 -6 -56 -11 -122 l-8
-120 -554 -105 -554 -106 -638 -679 -638 -680 -3 -120 -3 -120 -61 -3 -60 -3
-24 51 c-13 27 -28 50 -34 50 -202 -1 -1741 -42 -1745 -46 -3 -3 -13 -24 -22
-47 l-17 -42 -158 -8 -158 -9 -978 -426 -978 -427 0 -81 0 -81 187 -6 c102 -4
187 -8 187 -9 1 -2 0 -51 -2 -109 l-4 -105 -389 -120 -389 -119 0 -448 0 -449
707 -1121 c388 -617 711 -1127 717 -1134 6 -7 130 -48 274 -93 234 -71 273
-80 340 -80 l77 1 85 69 84 70 381 0 380 0 82 -127 81 -128 92 0 93 0 269
-415 269 -415 37 -2 c20 -2 564 -12 1207 -23 1139 -19 1170 -20 1185 -40 8
-10 22 -28 30 -39 15 -20 33 -21 800 -33 l785 -12 40 27 40 27 317 0 318 0
-10 25 -10 25 321 0 321 0 68 72 c42 45 69 82 70 96 l0 22 318 0 318 0 44 45
44 45 488 0 487 0 3 -142 3 -142 122 -50 123 -51 0 -231 0 -231 262 -218 262
-217 2937 7 2937 8 7 -22 6 -21 1008 0 1008 0 33 75 33 75 88 0 87 0 47 -74
47 -74 52 24 c28 13 301 138 606 278 l555 254 77 71 77 72 148 -6 c81 -2 255
-7 386 -10 l237 -5 0 35 0 35 85 0 85 0 0 -34 0 -33 123 -7 c67 -3 215 -7 329
-8 l207 -2 472 432 472 432 1114 0 c735 0 1113 3 1113 10 0 12 257 14 262 1 2
-5 196 -3 443 3 l440 11 3 28 3 27 -71 0 c-39 0 -238 5 -442 11 -205 6 -374 7
-377 2 -3 -5 -89 -5 -191 -1 -102 5 -632 11 -1179 16 l-994 7 113 103 114 102
131 0 131 0 49 50 49 50 178 0 177 0 43 -50 43 -50 170 0 171 0 49 50 49 50
171 0 171 0 49 -50 49 -50 226 1 c216 1 229 2 310 28 76 24 85 29 88 52 l3 26
855 5 c760 4 856 6 867 20 10 14 70 17 449 23 410 6 437 5 446 -11 9 -17 33
-17 448 -6 242 7 494 15 562 19 l122 6 0 68 c0 38 -1 69 -2 69 -34 3 -945 30
-1020 30 -104 0 -108 -1 -108 -22 l0 -21 -441 6 c-446 5 -449 6 -461 39 -2 4
-389 11 -860 14 l-858 7 0 32 c0 31 -1 32 -104 63 -57 18 -125 32 -151 32 -42
0 -55 7 -148 78 l-102 77 -549 5 -550 5 197 179 197 180 0 52 0 52 851 780
851 781 62 3 63 3 262 240 262 240 1307 708 c1195 646 1311 707 1353 707 26 0
462 14 970 30 l924 30 69 76 c80 88 51 85 283 30 l143 -33 257 143 257 144
148 0 148 0 1 -62 0 -63 57 -47 c40 -34 66 -48 87 -48 19 0 44 -11 65 -30 l35
-29 1061 -1 1061 0 38 30 c23 18 50 30 67 30 21 0 46 14 88 51 57 49 58 52 65
112 3 34 9 70 11 80 8 28 24 20 24 -13 l0 -30 93 0 94 0 -5 -377 -4 -378 35
-34 36 -34 173 -5 173 -4 59 67 59 67 311 -8 311 -7 80 -68 81 -68 540 -7 539
-7 133 142 134 141 442 0 442 0 37 -64 37 -63 63 -6 c34 -4 101 -9 150 -13 63
-5 87 -10 87 -20 0 -28 45 -42 162 -49 l117 -7 -67 -134 c-49 -99 -71 -134
-85 -134 -20 0 -61 -80 -72 -144 l-7 -36 38 0 c22 0 273 -7 559 -14 286 -7
588 -11 671 -8 143 4 152 6 162 26 l9 21 449 -11 c266 -6 567 -8 739 -3 160 4
309 8 333 8 40 1 42 3 42 30 l0 28 -147 7 c-480 20 -523 20 -523 1 0 -17 -19
-17 -347 -11 -192 3 -392 9 -446 13 -97 6 -99 6 -109 34 -7 20 -17 29 -36 31
-20 2 11 20 128 71 l155 67 656 0 c561 0 658 2 675 15 16 12 98 14 549 14
l530 0 62 -78 63 -78 122 -6 c68 -4 204 -9 303 -13 173 -6 195 -9 570 -85 215
-43 400 -81 413 -84 19 -5 1 37 -132 302 -152 303 -157 312 -343 571 l-188
263 -1222 545 -1222 544 -416 0 -415 0 -10 24 c-4 13 -28 39 -52 58 -36 29
-92 49 -343 127 -165 51 -311 100 -325 109 -14 8 -50 37 -81 64 l-56 48 -981
0 -982 0 0 152 c0 122 -5 179 -26 288 l-25 135 -1227 668 -1227 668 -847 212
-847 212 -26 -25 c-17 -16 -36 -23 -56 -22 -16 1 -270 36 -563 77 -293 41
-537 75 -542 75 -5 0 -20 -18 -34 -41 -24 -38 -27 -40 -65 -35 -22 3 -227 26
-455 51 -228 25 -430 48 -448 51 -30 5 -37 13 -79 97 l-46 93 -426 99 c-234
54 -440 102 -458 107 -24 7 -72 55 -208 213 l-177 205 -275 0 -275 0 -139 108
-140 109 -262 62 c-383 91 -387 92 -415 142 -22 38 -22 42 -7 59 15 17 12 26
-44 139 l-61 121 -1583 -1 -1582 -1 -195 -54z"/>
</g>
</svg>
