<?xml version="1.0" standalone="no"?>
<!DOCTYPE svg PUBLIC "-//W3C//DTD SVG 20010904//EN"
 "http://www.w3.org/TR/2001/REC-SVG-20010904/DTD/svg10.dtd">
<svg version="1.0" xmlns="http://www.w3.org/2000/svg"
   viewBox="0 0 4179.000000 1501.000000"
 preserveAspectRatio="xMidYMid meet">
<metadata>
Created by potrace 1.16, written by Peter Selinger 2001-2019
</metadata>
<g transform="translate(0.000000,1501.000000) scale(0.100000,-0.100000)"
fill="#000000" stroke="none">
<path d="M26980 14914 c-470 -51 -856 -93 -857 -93 -1 -1 -4 -56 -5 -122 l-3
-122 -216 -127 -216 -127 -729 -232 c-400 -128 -729 -233 -731 -234 -5 -6 -61
-731 -56 -743 9 -23 -67 -33 -342 -44 -148 -6 -291 -13 -317 -16 l-48 -6 0
129 0 128 -380 312 -379 313 -273 136 -272 136 -320 82 -321 82 -1115 -53
c-1030 -49 -1214 -55 -2405 -78 -958 -18 -1576 -25 -2403 -25 l-1113 0 -20
-47 c-32 -75 -81 -173 -90 -178 -4 -3 -241 -10 -526 -15 -1102 -21 -2415 -83
-2695 -126 l-38 -6 0 -477 0 -478 -446 -2 -446 -2 -147 -139 c-107 -103 -153
-140 -171 -140 -14 0 -905 -70 -1980 -155 l-1955 -154 -1931 -200 c-1677 -174
-3947 -401 -4012 -401 l-22 0 0 -321 0 -322 347 7 c1177 22 2179 25 4931 18
l2983 -7 -2008 -159 c-1104 -87 -2032 -161 -2061 -164 l-52 -5 0 -1343 c0
-739 3 -1344 7 -1344 4 0 1218 -106 2698 -236 l2690 -236 650 5 650 5 295 41
c162 23 305 43 318 46 17 4 22 1 22 -15 0 -12 8 -22 23 -25 12 -3 371 -52 797
-110 496 -67 1120 -142 1735 -210 528 -58 975 -108 993 -111 26 -4 36 -13 50
-42 9 -20 17 -38 17 -39 0 -1 344 -45 765 -98 421 -53 773 -99 783 -103 25
-10 -2033 -204 -3832 -362 -810 -71 -1475 -131 -1477 -133 -5 -5 250 -190 361
-262 l90 -58 1355 -98 1355 -98 3165 -26 c1741 -13 3201 -27 3246 -31 l81 -6
436 -413 437 -414 142 -45 c1848 -582 2812 -881 3518 -1089 l865 -256 595 98
595 98 161 106 160 106 433 -143 433 -142 121 -132 120 -132 131 0 c158 0 576
-16 2001 -75 594 -25 1199 -49 1344 -55 l264 -10 143 141 c119 116 146 139
161 131 10 -5 327 -156 705 -336 573 -272 819 -383 1489 -666 441 -187 805
-344 808 -349 3 -5 382 -490 841 -1079 l835 -1070 206 -62 207 -61 123 16
c239 31 697 97 1018 146 178 27 337 49 354 49 43 0 446 236 441 259 -12 50
-514 2705 -514 2717 0 22 560 513 863 756 204 164 286 237 329 291 61 77 68
80 171 91 l67 8 0 44 c0 53 -29 30 363 284 l286 185 80 200 81 200 0 685 -1
685 -78 195 -79 195 -323 210 -324 211 -3 47 c-3 51 0 48 -84 62 -23 3 -39 12
-42 23 -2 9 -23 103 -46 207 l-42 190 -124 253 -123 254 22 29 c12 17 47 115
78 222 l56 192 -42 120 c-61 173 -348 677 -468 820 l-83 100 -200 23 c-136 15
-209 20 -230 13 -28 -8 -59 8 -395 196 -200 113 -593 331 -873 485 l-509 279
-326 265 c-179 146 -332 275 -338 287 -7 12 -52 260 -100 551 l-87 529 -130
185 -131 185 -100 51 c-55 29 -119 64 -143 80 -24 15 -107 62 -185 105 -199
109 -234 132 -248 158 -12 23 -13 23 -231 23 l-218 0 -524 -226 -523 -225
-202 130 c-154 101 -209 131 -234 131 -18 0 -40 6 -49 13 -9 6 -73 141 -144
299 -74 167 -135 290 -144 293 -21 6 -173 21 -449 45 -129 12 -314 30 -410 40
-274 31 -218 56 -448 -205 -109 -125 -201 -236 -205 -248 -4 -16 -6 -12 -7 16
l-1 38 -112 53 -113 53 -133 5 c-72 3 -135 7 -138 10 -3 3 -14 55 -24 114 -11
60 -22 118 -24 129 -4 17 -168 172 -284 270 -27 23 -88 35 -778 154 -609 105
-786 132 -947 145 -109 9 -202 18 -206 21 -5 2 -30 43 -57 90 l-49 85 -251 0
-251 0 -63 -89 c-49 -70 -66 -87 -82 -83 -18 4 -108 165 -108 194 0 7 -10 38
-22 69 -22 57 -23 58 -68 63 -25 3 -181 8 -347 12 l-301 6 -6 42 c-3 22 -10
78 -17 124 l-11 82 -37 -1 c-20 -1 -421 -43 -891 -95z"/>
</g>
</svg>
