<?xml version="1.0" standalone="no"?>
<!DOCTYPE svg PUBLIC "-//W3C//DTD SVG 20010904//EN"
 "http://www.w3.org/TR/2001/REC-SVG-20010904/DTD/svg10.dtd">
<svg version="1.0" xmlns="http://www.w3.org/2000/svg"
   viewBox="0 0 3871.000000 1976.000000"
 preserveAspectRatio="xMidYMid meet">
<metadata>
Created by potrace 1.16, written by Peter Selinger 2001-2019
</metadata>
<g transform="translate(0.000000,1976.000000) scale(0.100000,-0.100000)"
fill="#000000" stroke="none">
<path d="M17482 19753 c-10 -4 -9 -10 6 -27 10 -11 35 -44 55 -73 l37 -51 -72
-51 -73 -51 -91 0 -91 0 -18 33 c-9 18 -35 43 -56 55 l-38 22 -608 0 -608 0
-36 -23 c-55 -35 -124 -117 -148 -178 l-23 -55 -83 -31 c-101 -38 -194 -106
-259 -188 l-47 -61 -447 -48 c-246 -27 -451 -52 -455 -56 -20 -17 52 -126 127
-193 42 -38 76 -72 76 -76 0 -5 -33 -32 -74 -61 -69 -50 -75 -56 -84 -102 -7
-39 -6 -61 6 -98 13 -40 24 -53 76 -89 57 -38 66 -41 131 -42 39 -1 81 -4 95
-8 23 -6 22 -8 -25 -36 -27 -16 -134 -88 -236 -161 l-187 -132 -6 37 c-3 20
-6 62 -6 93 0 31 -3 59 -7 61 -5 3 -208 -31 -452 -73 l-443 -79 -810 -328
-809 -328 -139 -235 -138 -235 -384 -151 c-334 -131 -455 -185 -947 -424
l-563 -273 -125 30 -126 30 -285 -94 -284 -93 -84 -66 c-47 -36 -86 -75 -89
-87 -7 -30 -25 -149 -25 -164 0 -27 84 -51 518 -147 l453 -101 53 -115 53
-115 -71 -6 c-39 -4 -109 -7 -156 -7 -95 -2 -711 -62 -722 -71 -4 -3 -14 -49
-23 -101 -9 -52 -17 -96 -18 -97 -3 -2 -615 -53 -640 -53 -10 0 -39 -44 -83
-125 l-67 -125 -831 0 -831 0 -732 -181 -733 -182 0 -124 c0 -67 -2 -123 -4
-123 -3 0 -285 -67 -628 -149 -343 -82 -859 -204 -1148 -271 -289 -67 -527
-124 -528 -125 -2 -2 -12 -67 -22 -145 -10 -78 -20 -143 -22 -144 -1 -2 -154
-36 -338 -78 l-336 -75 -119 -92 -120 -92 -146 -247 -146 -247 -501 -3 -502
-2 0 -39 c0 -43 6 -41 -152 -57 -57 -5 -68 -9 -68 -25 0 -10 13 -101 30 -201
16 -101 39 -255 50 -343 28 -228 60 -437 70 -461 7 -19 20 -22 102 -29 113 -8
128 -15 128 -58 0 -18 3 -49 6 -69 l7 -38 131 0 c72 0 341 -11 597 -25 l466
-24 47 -28 c43 -25 57 -45 149 -208 56 -99 122 -223 146 -275 43 -93 45 -96
125 -152 l81 -56 115 -252 c63 -138 120 -254 125 -258 6 -3 231 -19 500 -34
464 -25 539 -27 1413 -27 l922 -1 0 -376 0 -375 156 -75 156 -74 747 -21 c410
-11 769 -22 798 -25 45 -5 62 -14 139 -74 80 -62 122 -83 449 -230 l361 -161
11 -66 c7 -36 15 -69 20 -73 4 -4 663 -170 1463 -369 l1455 -361 680 -126
c374 -68 687 -127 695 -129 12 -4 21 -45 38 -182 13 -97 25 -179 27 -181 3 -4
1458 -161 1491 -162 6 0 28 79 50 175 21 96 42 175 47 175 5 0 207 -25 450
-55 280 -36 444 -60 449 -68 4 -7 8 -28 8 -47 0 -28 12 -49 58 -103 l57 -69
330 -138 330 -139 413 -1 412 0 0 -23 0 -23 -377 -35 -378 -34 -3 -582 -2
-582 32 -5 c18 -3 310 -26 648 -50 602 -45 617 -46 710 -76 51 -17 101 -29
110 -27 8 2 226 163 483 356 281 212 474 351 482 347 8 -3 54 -37 103 -75 l88
-70 320 -45 c269 -39 1027 -126 1091 -126 10 0 66 40 124 90 l104 89 190 1
190 0 23 -132 c18 -112 30 -151 74 -248 l53 -115 443 -145 c243 -80 447 -147
452 -150 14 -8 17 -249 3 -258 -8 -5 -9 -21 -3 -50 4 -24 9 -44 11 -46 2 -2
129 -27 283 -57 l278 -53 -6 -50 c-4 -36 2 -78 20 -150 14 -56 28 -104 32
-108 4 -3 157 -38 341 -77 l334 -71 756 -25 c416 -14 774 -25 796 -25 40 0 42
-1 119 -109 43 -60 83 -108 90 -105 6 2 191 51 411 109 220 59 407 108 416
111 12 3 33 -23 79 -96 l63 -100 107 0 107 0 7 -46 c8 -60 8 -461 0 -585 l-7
-96 -51 -16 c-28 -9 -142 -26 -254 -39 l-202 -23 2 -270 3 -270 251 -24 252
-25 6 -44 c3 -25 6 -71 6 -103 0 -33 3 -59 8 -59 17 1 1479 -131 1497 -135 11
-3 39 -29 62 -60 43 -55 43 -55 98 -55 l55 0 0 -150 c0 -82 -3 -150 -7 -150
-5 1 -252 -27 -550 -62 l-541 -62 -6 -120 c-3 -67 -8 -257 -10 -422 l-5 -302
42 -6 c23 -3 341 -33 707 -67 l665 -61 333 -94 332 -94 553 1 552 0 127 32
c122 31 136 37 405 187 l278 154 48 152 49 151 -30 187 c-17 104 -32 189 -34
190 -2 2 -75 57 -163 123 l-160 121 -127 31 c-70 17 -144 31 -165 31 -21 0
-62 3 -90 6 l-53 7 0 103 0 104 48 0 c45 1 48 2 67 42 l20 42 264 108 c145 59
273 108 285 108 33 0 367 -70 409 -86 30 -11 108 -14 384 -14 l346 0 -8 329
-7 328 189 7 188 7 754 268 755 269 199 226 199 226 163 0 163 0 7 32 c41 191
94 421 99 425 3 3 169 55 368 114 323 97 421 132 903 321 l540 212 425 289
425 288 298 379 297 378 0 295 0 294 137 6 c75 4 171 7 213 7 l77 0 7 61 c3
34 6 132 6 219 l0 156 159 255 c149 236 159 255 144 271 -9 10 -14 20 -12 22
8 6 213 44 418 78 l204 33 -8 285 c-4 157 -8 285 -8 286 -1 0 -97 53 -213 117
l-211 117 -134 1 -134 1 -130 138 c-71 77 -182 194 -245 260 l-115 122 -120
28 c-66 15 -172 40 -236 54 l-115 27 -80 219 -79 219 -116 3 -117 3 102 122
c63 77 145 160 220 224 l118 102 170 42 c156 40 177 48 276 107 104 62 110 68
218 201 100 125 117 153 188 305 l78 167 24 175 25 175 -47 205 -48 205 -90
115 c-142 180 -392 409 -703 643 l-260 196 36 163 37 164 -198 279 c-109 154
-209 294 -222 311 -37 47 -920 655 -981 675 -27 10 -378 122 -780 250 l-730
233 -825 -53 -825 -54 -372 -151 -373 -151 -32 -78 -33 -78 -183 -140 -182
-141 -2028 -194 c-1115 -107 -2037 -197 -2049 -199 -26 -6 -25 -4 -57 -174
l-24 -123 39 -17 38 -17 -59 -59 -59 -58 -158 16 c-158 15 -158 15 -317 81
-87 36 -159 66 -161 68 -1 2 -25 113 -54 248 l-53 244 -110 238 -111 237 -216
189 c-317 277 -427 347 -1071 680 -96 50 -333 161 -527 246 l-352 155 -238
159 -238 159 -65 125 -65 126 33 133 33 134 142 96 142 97 34 118 33 119 -47
112 c-48 112 -48 113 -152 209 l-104 97 -232 104 -232 105 -165 -3 -165 -3
-1125 446 -1125 445 -499 27 -499 26 -147 -32 c-136 -30 -148 -34 -164 -61 -9
-16 -16 -40 -16 -53 0 -13 -3 -24 -6 -24 -3 0 -96 51 -207 113 l-201 112 -191
21 c-116 12 -192 17 -196 11 -4 -5 -60 31 -125 80 -144 109 -144 109 -218 118
-92 11 -86 0 -86 155 0 124 -2 139 -20 155 -11 10 -18 21 -14 24 3 3 62 9 132
12 147 8 211 29 320 107 55 39 69 55 93 110 28 62 29 66 18 135 -11 68 -15 75
-69 132 -85 88 -94 109 -86 187 7 63 8 64 50 88 38 20 45 29 49 64 7 50 -14
94 -67 135 -49 39 -71 45 -299 81 -144 23 -220 30 -320 29 -73 0 -138 -3 -145
-6z"/>
</g>
</svg>
