<?xml version="1.0" standalone="no"?>
<!DOCTYPE svg PUBLIC "-//W3C//DTD SVG 20010904//EN"
 "http://www.w3.org/TR/2001/REC-SVG-20010904/DTD/svg10.dtd">
<svg version="1.0" xmlns="http://www.w3.org/2000/svg"
   viewBox="0 0 4595.000000 2676.000000"
 preserveAspectRatio="xMidYMid meet">
<metadata>
Created by potrace 1.16, written by Peter Selinger 2001-2019
</metadata>
<g transform="translate(0.000000,2676.000000) scale(0.100000,-0.100000)"
fill="#000000" stroke="none">
<path d="M5495 26750 l-50 -7 48 -1 47 -2 0 -100 0 -100 -140 0 -140 0 0 -25
0 -25 140 0 140 0 0 -470 0 -470 -315 0 -315 0 0 -135 0 -135 234 0 233 0 80
-137 79 -138 -4 -107 -4 -108 -461 0 -461 0 -43 42 -43 42 -43 -42 -43 -42
-579 0 -579 0 -43 42 -43 42 -43 -42 -43 -42 -1290 0 -1290 0 -243 215 c-133
118 -246 215 -251 215 -5 0 -14 -9 -20 -19 -9 -18 18 -45 235 -236 l245 -217
0 -289 0 -289 515 0 515 0 0 -330 0 -330 -175 0 -175 0 0 -325 0 -325 175 0
175 0 0 -385 0 -385 85 0 84 0 3 -67 3 -68 402 -394 403 -394 0 -68 0 -69 472
-2 471 -3 444 -595 443 -595 -125 -3 -125 -3 0 -319 0 -320 463 0 462 0 357
-372 357 -373 1 -172 0 -173 45 0 45 0 0 -105 0 -105 -52 0 -53 -1 -73 -119
-72 -119 412 -662 413 -663 1280 -433 1280 -433 222 0 223 0 2 -237 3 -237
460 -186 460 -187 3 -162 2 -162 -30 -25 c-29 -25 -30 -29 -30 -105 l0 -79 68
0 68 0 162 -579 162 -579 0 -580 0 -580 -544 6 -544 5 -316 -162 -316 -161
-1310 0 -1310 0 0 -205 0 -205 -1125 0 -1125 0 0 -110 0 -110 1125 0 c1118 0
1125 0 1125 -20 0 -20 7 -20 1826 -20 l1826 0 587 -412 c322 -226 651 -457
731 -513 l145 -102 158 -7 157 -7 0 66 0 66 -113 -6 -112 -7 -207 143 -207
144 -1 233 c0 218 1 233 18 228 9 -3 888 -381 1952 -839 l1935 -834 47 -294
47 -294 1 -808 0 -808 164 -222 163 -222 28 -178 c21 -132 25 -181 17 -189 -9
-9 -8 -16 4 -29 31 -35 64 -283 64 -491 l0 -188 228 0 228 0 1345 -1752 c739
-963 1345 -1757 1347 -1764 2 -7 -15 -49 -37 -93 l-41 -81 0 -257 0 -258 168
-136 c92 -75 204 -166 249 -203 l81 -67 166 21 165 21 73 -21 73 -21 126 33
126 32 99 -22 c54 -12 107 -22 116 -22 21 0 87 26 974 386 l701 285 1776 -411
c977 -225 1779 -410 1781 -410 3 0 6 8 8 18 3 16 111 -7 1093 -234 600 -139
1093 -249 1096 -246 13 13 50 195 42 202 -4 4 -492 119 -1083 255 -591 137
-1079 252 -1084 256 -5 4 11 93 37 206 25 109 45 198 44 199 -1 0 -378 87
-837 193 -459 105 -836 193 -838 195 -1 2 275 1146 615 2543 l618 2539 215 45
215 44 77 145 76 145 341 3 341 2 0 -164 c0 -123 4 -172 15 -200 l15 -36 80 0
80 0 0 -90 0 -90 65 0 65 0 0 90 0 90 108 0 108 0 17 35 c14 29 17 67 17 200
l0 165 4761 0 c4635 0 4760 0 4754 -19 -5 -15 7 -23 77 -49 46 -16 90 -33 100
-37 13 -5 20 5 36 47 l20 53 61 3 61 3 0 84 c0 84 0 85 -25 85 -14 0 -25 4
-25 9 0 5 20 62 45 127 24 65 43 119 42 120 -1 1 -45 18 -97 38 -63 24 -96 32
-101 25 -4 -6 -30 -75 -59 -153 -29 -77 -56 -145 -61 -150 -9 -10 -6211 21
-6414 32 l-120 7 -391 939 -391 939 410 691 c226 380 573 966 772 1301 l362
610 1100 3 1099 2 295 510 294 510 5 -372 5 -372 192 209 193 210 0 504 0 505
247 428 248 428 147 0 147 0 246 -167 245 -166 0 -104 0 -103 175 0 175 0 133
68 132 67 498 3 c343 2 497 0 497 -7 0 -6 27 -24 60 -41 l59 -30 211 0 210 0
0 73 0 72 123 123 122 122 1894 0 1894 0 33 -25 c32 -24 37 -25 193 -25 l160
0 101 56 c99 56 112 67 88 77 -7 3 136 6 318 6 326 1 334 1 495 32 683 128
1233 591 1470 1235 33 89 64 188 69 220 21 117 -5 104 200 104 l180 0 0 200 0
200 60 0 60 0 0 -525 0 -525 60 0 60 0 0 525 0 525 60 0 60 0 0 660 0 660 -60
0 -60 0 0 525 0 525 -60 0 -60 0 0 -525 0 -525 -2440 0 -2440 0 0 205 0 205
2160 0 2160 0 0 55 c0 42 3 55 15 55 13 0 15 -23 15 -150 0 -143 1 -150 20
-150 19 0 20 7 20 150 0 127 2 150 15 150 13 0 15 28 15 195 0 167 -2 195 -15
195 -13 0 -15 23 -15 150 0 143 -1 150 -20 150 -19 0 -20 -7 -20 -150 l0 -150
-3145 0 -3145 0 0 115 0 115 -30 0 c-30 0 -30 1 -30 53 0 66 48 1258 56 1395
l6 102 3459 0 3459 0 0 -40 0 -40 165 0 165 0 0 40 0 40 162 2 162 3 202 260
202 260 1 1283 c1 705 0 1282 -1 1283 -2 0 -266 10 -588 22 l-585 22 -3 138
c-2 99 -6 137 -15 137 -7 0 -1056 41 -2332 90 l-2320 89 -110 -115 -110 -114
-8615 315 c-4738 173 -8628 316 -8644 317 -28 3 -38 19 -190 320 l-161 318
-1882 0 -1883 0 0 -246 0 -247 -92 7 c-50 3 -126 6 -170 6 l-78 0 0 229 0 228
-582 6 c-321 4 -872 10 -1225 13 l-643 7 0 43 0 44 -610 0 -610 0 0 48 c0 26
-5 93 -12 150 l-12 102 -97 0 c-65 0 -100 4 -106 13 -6 6 -23 90 -38 186 -24
145 -27 184 -19 232 l10 59 -123 0 -123 0 0 -60 0 -60 -550 0 -550 0 0 -79 0
-79 -102 -191 -103 -191 -47 0 -48 0 0 -65 0 -65 -2087 0 -2088 0 -120 200
-120 199 -375 1 -376 0 -79 90 -79 90 -798 0 -798 0 0 470 0 470 150 0 150 0
0 25 0 25 -150 0 -150 0 0 100 0 100 48 1 47 2 -55 7 c-66 9 -137 9 -205 0z
m31953 -8277 c-26 -2 -71 -2 -100 0 -29 2 -8 3 47 3 55 0 79 -1 53 -3z m340 0
c-10 -2 -26 -2 -35 0 -10 3 -2 5 17 5 19 0 27 -2 18 -5z m12 -438 l0 -45 55 0
c30 0 55 -4 55 -10 0 -7 322 -10 945 -10 l945 0 0 -205 0 -205 -1372 0 c-1364
0 -1373 1 -1348 20 19 15 41 20 93 20 l67 0 0 240 0 240 280 0 280 0 0 -45z
m-3060 -270 l0 -25 1120 0 1120 0 -99 -90 -99 -90 -1536 0 -1536 0 0 115 0
115 515 0 515 0 0 -25z m-80 -1532 c0 -5 -112 -226 -249 -493 l-249 -485 -131
-3 -131 -3 0 98 -1 98 -129 145 c-119 133 -128 145 -105 148 17 2 25 10 25 23
0 10 5 19 10 19 6 0 10 83 10 230 l0 230 475 0 c261 0 475 -3 475 -7z m1323
-581 c-38 -70 -165 -311 -283 -534 l-215 -407 -413 -1 -413 0 26 43 c14 23 40
68 58 100 l32 57 115 0 116 0 31 54 c22 38 28 58 21 70 -12 21 120 251 145
251 25 0 90 112 83 141 -4 16 12 53 56 129 60 106 62 108 152 166 l91 59 233
0 232 0 -67 -128z m-2569 -96 l96 -108 0 -64 0 -64 -120 0 -120 0 0 197 0 198
24 -25 c13 -14 67 -74 120 -134z m1730 -176 c6 -44 3 -51 -96 -223 l-102 -177
-40 7 c-23 3 -42 7 -44 8 -1 1 57 106 130 233 91 157 135 225 139 214 3 -10 9
-37 13 -62z m-1146 -447 c-50 -98 -93 -180 -95 -182 -1 -2 -3 77 -3 177 l0
182 94 0 95 0 -91 -177z m-1588 -11 c0 -22 31 -58 163 -190 l162 -162 388 0
387 0 0 -295 0 -295 -407 -795 -407 -795 -778 0 c-428 0 -778 2 -778 4 0 2
146 251 325 552 l325 548 0 83 0 83 -55 0 -55 0 0 188 -1 187 -311 330 -312
330 -108 3 -108 3 0 124 0 125 785 0 785 0 0 -28z m2969 -409 c-104 -197 -93
-183 -153 -183 -51 0 -59 4 -247 131 -107 72 -198 135 -203 140 -6 5 129 9
322 9 l333 0 -52 -97z m-22279 -1097 c0 -19 -16 -37 -62 -72 l-63 -47 58 59
c31 33 57 65 57 72 0 7 2 12 5 12 3 0 5 -11 5 -24z m0 -1046 l0 -540 115 0
115 0 0 -338 0 -337 223 -223 222 -222 507 0 508 0 5 -22 c13 -61 245 -1541
242 -1545 -3 -2 -789 334 -1748 747 -959 414 -1760 758 -1779 766 -22 10 -30
18 -23 22 18 11 63 119 63 150 0 19 -29 65 -95 151 l-95 124 0 268 0 268 468
343 467 344 3 -58 3 -58 299 0 300 0 0 280 0 279 93 70 c50 38 95 70 100 70 4
1 7 -242 7 -539z m-1305 61 c-21 -19 -423 -311 -429 -311 -3 0 -6 32 -6 70 l0
70 90 0 90 0 0 90 0 90 132 0 c76 0 128 -4 123 -9z m4965 -651 l0 -50 -70 0
-70 0 0 50 0 50 70 0 70 0 0 -50z m0 -240 l0 -80 85 0 85 0 2 -892 3 -892 862
-325 863 -326 0 -367 0 -368 -80 0 -80 0 0 80 0 80 -200 0 -200 0 0 30 0 30
270 0 270 0 0 190 0 190 -270 0 c-233 0 -270 2 -270 15 0 13 -20 15 -121 15
-66 0 -118 3 -116 8 3 4 -321 169 -719 366 l-724 359 0 651 0 651 100 100 100
100 0 232 0 233 70 0 70 0 0 -80z m197 -2552 c265 -175 507 -330 537 -345 l56
-27 0 -53 0 -53 60 0 60 0 0 -110 0 -110 -65 0 -65 0 0 80 0 80 -452 0 -453 0
-107 46 -108 47 0 399 0 400 28 -18 c15 -10 244 -161 509 -336z m12478 -849
c213 -512 385 -933 382 -936 -3 -3 -661 -2 -1461 2 l-1456 8 0 711 c0 633 -2
715 -16 753 l-17 43 -128 0 -129 0 0 80 c0 75 3 85 47 175 l48 95 1171 0 1172
0 387 -931z m-3105 -809 l0 -110 -280 0 -280 0 55 110 55 110 225 0 225 0 0
-110z m-2411 -3274 c-323 -1330 -590 -2420 -592 -2422 -2 -2 -29 2 -60 8 -39
8 -57 17 -57 28 -1 14 542 4643 544 4647 2 2 750 161 753 159 0 0 -264 -1089
-588 -2420z m-6166 904 l254 -250 492 0 491 0 0 -175 0 -175 40 0 40 0 0
-1041 0 -1041 -51 -99 c-28 -54 -54 -99 -59 -99 -4 0 -516 663 -1138 1473
-621 809 -1162 1514 -1201 1565 l-72 92 475 0 475 0 254 -250z"/>
</g>
</svg>
