<?xml version="1.0" standalone="no"?>
<!DOCTYPE svg PUBLIC "-//W3C//DTD SVG 20010904//EN"
 "http://www.w3.org/TR/2001/REC-SVG-20010904/DTD/svg10.dtd">
<svg version="1.0" xmlns="http://www.w3.org/2000/svg"
   viewBox="0 0 2439.000000 4723.000000"
 preserveAspectRatio="xMidYMid meet">
<metadata>
Created by potrace 1.16, written by Peter Selinger 2001-2019
</metadata>
<g transform="translate(0.000000,4723.000000) scale(0.100000,-0.100000)"
fill="#000000" stroke="none">
<path d="M4000 47223 c0 -3 201 -438 447 -965 318 -683 443 -962 434 -967 -6
-4 -75 -16 -152 -26 -77 -10 -142 -22 -145 -27 -3 -5 27 -156 67 -336 l72
-328 276 -48 276 -49 198 -430 c109 -236 196 -432 193 -435 -3 -3 -104 -20
-223 -38 -120 -18 -220 -33 -222 -33 -2 -1 0 -18 3 -38 6 -32 158 -725 160
-730 1 0 165 -31 366 -68 201 -37 370 -72 376 -79 6 -6 145 -297 308 -646
l297 -635 254 -270 c139 -148 252 -271 251 -273 -2 -1 -171 -16 -377 -32 -206
-17 -380 -31 -387 -33 -9 -1 -285 -572 -305 -631 -1 -5 -254 -31 -560 -58
l-558 -49 -142 -90 -142 -90 0 -608 0 -607 145 -91 145 -90 550 -48 c303 -26
553 -50 557 -54 3 -3 72 -148 153 -322 l146 -316 45 -21 c24 -12 44 -26 44
-31 0 -5 -26 -15 -57 -23 -32 -9 -429 -109 -882 -223 l-823 -208 -132 37 c-72
20 -188 47 -257 60 l-126 23 -634 -93 -634 -93 -688 -343 c-378 -189 -686
-346 -685 -349 2 -3 101 -90 220 -192 l217 -187 959 -247 c869 -225 954 -248
898 -251 -33 -1 -451 -8 -928 -15 l-867 -13 -221 -147 -220 -147 0 -1075 0
-1075 220 -145 221 -145 1074 -105 c591 -58 1079 -105 1084 -105 6 0 180 -187
387 -414 l377 -415 287 -181 288 -180 6 -63 c3 -34 9 -156 12 -270 l7 -209 51
-62 c28 -34 161 -192 296 -351 135 -159 244 -293 242 -299 -2 -6 -26 -64 -54
-128 l-52 -118 -220 0 -221 0 -122 -159 -122 -159 -238 -6 c-131 -4 -254 -10
-274 -14 -21 -4 -171 -90 -352 -202 l-316 -195 -1 -1285 0 -1285 324 -202 323
-203 269 -2 268 -3 89 -124 c48 -67 86 -125 83 -128 -3 -3 -354 -90 -779 -193
l-774 -186 -652 -384 c-358 -210 -651 -386 -651 -389 0 -4 60 -94 132 -201
l133 -194 700 -160 699 -161 39 -139 39 -140 -33 -110 c-18 -61 -36 -118 -40
-127 -4 -9 -95 -80 -202 -158 l-194 -142 -7 -46 c-14 -105 -11 -116 52 -174
l58 -54 377 -75 c207 -41 377 -77 377 -80 0 -3 -104 -26 -230 -50 -216 -41
-230 -45 -230 -65 0 -50 42 -138 108 -227 62 -83 77 -111 132 -262 75 -202 99
-303 100 -413 l0 -81 103 -32 c56 -17 139 -43 185 -58 l82 -26 0 -171 0 -170
-351 -62 c-193 -34 -353 -64 -356 -67 -13 -12 34 -107 102 -206 55 -81 86
-141 133 -260 70 -176 91 -265 100 -430 l7 -115 180 -46 180 -46 3 -229 2
-229 -347 -49 c-192 -27 -351 -52 -356 -56 -4 -3 0 -42 9 -86 14 -72 22 -87
88 -174 66 -86 78 -111 138 -270 72 -192 98 -308 98 -438 l0 -82 85 -39 85
-40 -1 -718 c0 -395 -4 -740 -7 -767 l-7 -49 -427 -175 -428 -175 0 -32 c0
-20 32 -99 84 -206 46 -96 82 -176 80 -177 -1 -2 -274 -12 -607 -22 l-603 -19
-103 -42 c-98 -41 -103 -44 -127 -90 l-24 -48 0 -393 0 -393 28 -49 c25 -45
33 -51 127 -90 l100 -42 735 -23 c404 -12 752 -22 772 -21 l37 0 -104 -174
c-71 -117 -105 -184 -105 -204 0 -29 4 -32 294 -163 161 -74 292 -138 290
-144 -2 -5 -134 -485 -294 -1065 -159 -580 -294 -1064 -298 -1074 -6 -14 -38
-30 -101 -51 -51 -17 -92 -35 -91 -40 0 -6 127 -146 281 -312 155 -167 289
-313 299 -326 l19 -24 -136 -6 c-75 -4 -198 -7 -274 -7 l-137 0 -279 284 -278
284 -933 -143 c-513 -78 -937 -146 -941 -151 -5 -5 -50 -216 -102 -469 -51
-253 -97 -463 -101 -466 -5 -3 -67 -18 -138 -34 l-130 -29 -19 -60 c-18 -60
-19 -61 -97 -107 l-79 -45 -3 -95 -2 -94 145 -79 c80 -44 162 -94 182 -111
l37 -32 -207 -1079 c-115 -593 -210 -1080 -212 -1083 -3 -2 -33 -10 -67 -17
-148 -30 -198 -48 -216 -77 -10 -16 -51 -46 -97 -71 l-80 -44 0 -98 0 -98 136
-76 c75 -41 155 -91 177 -110 l40 -35 -70 -400 -71 -400 267 -365 c182 -249
273 -364 284 -363 33 4 2247 625 2255 633 5 4 121 465 258 1025 137 560 251
1020 253 1022 5 5 609 73 613 69 2 -2 -62 -43 -142 -92 -80 -49 -147 -96 -150
-104 -2 -8 -110 -478 -240 -1045 l-236 -1030 -122 -117 c-67 -64 -129 -119
-137 -122 -8 -3 -494 -123 -1080 -267 l-1065 -263 -143 -5 -143 -6 86 -94 c55
-61 84 -99 81 -110 -3 -9 -15 -46 -26 -83 l-21 -68 -152 -77 -152 -78 -57
-195 c-32 -107 -59 -206 -60 -219 -3 -22 6 -27 107 -61 76 -26 110 -42 109
-52 -1 -8 -223 -680 -494 -1494 l-493 -1479 -76 -83 c-42 -46 -91 -102 -110
-124 l-34 -40 115 -116 115 -117 48 -135 c29 -83 57 -143 70 -155 13 -11 88
-80 168 -153 l145 -133 1814 -86 1813 -86 320 10 320 9 180 98 c99 54 185 102
192 108 7 5 79 117 160 248 l147 238 140 83 140 84 323 3 323 3 0 39 0 40
-317 2 -317 3 -7 30 c-3 17 -20 63 -37 104 -18 40 -32 78 -32 83 0 6 212 594
472 1306 l472 1296 185 251 185 250 82 222 81 222 -53 118 -53 119 79 219 c44
120 84 221 90 225 6 4 97 21 203 40 191 33 193 33 412 127 207 88 224 97 290
158 l70 64 171 1 c144 0 180 3 229 20 52 18 84 20 296 20 220 0 241 2 295 22
l57 22 -44 20 c-39 18 -71 21 -304 26 -212 5 -268 9 -304 23 -35 14 -77 17
-220 17 l-177 0 -63 64 -63 64 -264 93 c-145 52 -264 99 -264 104 0 6 254 678
564 1495 l564 1485 224 43 c232 45 263 54 543 173 133 56 142 61 169 105 55
87 46 84 256 84 161 0 195 3 245 20 52 18 84 20 295 20 223 0 240 1 293 23
l56 23 -62 22 c-57 20 -80 22 -293 22 -205 0 -237 2 -289 20 -50 17 -84 20
-236 20 -105 0 -188 4 -201 11 -13 5 -41 36 -64 67 l-41 57 -257 94 c-141 52
-256 99 -256 105 0 6 113 317 252 692 l252 681 150 28 151 28 87 195 c48 108
86 198 84 200 -3 2 -66 9 -140 16 -75 7 -139 16 -142 19 -8 7 35 139 50 153 6
6 75 24 152 39 l142 27 86 195 c48 108 85 197 83 199 -2 2 -62 9 -133 15 -71
7 -132 15 -137 19 -4 3 7 35 25 70 l33 65 149 30 150 30 86 195 c48 107 87
196 86 197 -1 1 -65 9 -141 18 -76 8 -140 17 -143 19 -2 3 85 209 193 458
l196 454 310 120 c308 118 311 119 422 202 l112 82 26 103 c48 193 94 287 215
443 39 49 73 94 77 101 5 7 -44 38 -137 89 l-144 78 88 28 87 28 13 63 c35
182 96 309 233 492 50 66 72 102 64 107 -7 3 -120 46 -252 94 -132 48 -241 88
-243 89 -4 3 579 1468 587 1477 4 4 162 54 351 109 l345 102 247 501 246 501
458 371 458 370 177 455 176 454 387 291 386 292 159 221 c177 247 143 175
330 691 l89 245 -77 149 -76 149 -342 186 -342 186 -1 98 c0 84 2 97 17 97 9
0 274 23 590 50 552 48 581 52 814 100 l240 50 324 0 c278 0 324 -2 329 -15 5
-13 121 -15 961 -15 842 0 955 2 955 15 0 8 -1 15 -2 15 -10 1 -1562 40 -1595
40 -36 0 -43 3 -43 20 0 20 -7 20 -467 20 l-466 0 -143 45 -142 45 -637 49
c-350 27 -638 51 -639 53 -2 2 -35 99 -74 217 l-72 215 48 104 47 105 125 47
126 47 484 56 c267 31 593 66 725 77 132 12 248 25 258 29 15 5 5 18 -63 75
-76 65 -80 70 -67 90 8 11 229 350 492 751 263 402 479 731 479 731 1 1 52 -7
115 -17 63 -10 116 -17 118 -15 2 1 -79 77 -179 168 l-183 164 -210 113 c-115
62 -214 116 -218 120 -5 5 36 114 90 242 l99 234 159 11 c88 7 256 17 373 24
l212 13 0 48 c0 43 -3 49 -21 49 -32 0 -724 41 -725 43 -1 1 -4 34 -8 73 l-6
71 41 27 40 27 507 15 c496 15 508 16 563 39 l55 24 645 10 644 9 70 25 70 24
-70 23 c-69 23 -83 23 -710 32 -637 9 -640 9 -695 33 -53 22 -72 23 -566 38
l-511 16 -46 27 c-48 29 -57 49 -57 123 0 27 -49 141 -180 422 l-181 384 -390
390 -389 390 2 544 3 544 1335 526 c734 290 1637 646 2006 791 l670 265 210
269 c121 155 208 275 206 285 -8 35 -104 247 -120 263 -14 14 -222 36 -1342
143 -729 70 -1332 130 -1341 133 -14 6 -10 28 30 176 27 98 53 173 62 177 7 4
1335 188 2949 409 2403 329 2937 405 2948 418 18 23 484 965 507 1025 10 26
16 49 14 51 -2 2 -1343 245 -2979 539 l-2975 536 -1220 46 c-671 25 -1234 48
-1252 51 -30 4 -33 9 -62 97 l-31 92 0 425 0 426 142 122 141 122 1207 0 1207
0 347 -109 347 -110 462 -10 c339 -8 509 -17 637 -31 151 -18 226 -20 548 -18
l373 3 -374 538 -374 538 -364 169 -364 169 -116 1 -116 0 -904 515 -904 515
-756 0 -757 0 -26 -72 c-15 -40 -42 -116 -60 -168 l-34 -95 -557 -3 -557 -2
-167 -122 c-91 -67 -180 -132 -197 -145 l-32 -24 -393 430 -394 430 -210 100
-210 99 -600 117 -600 117 -134 136 c-73 76 -417 472 -764 882 l-630 745 84 5
c84 5 85 5 197 75 l112 70 0 86 0 86 -117 76 -118 75 -270 21 c-148 12 -284
25 -302 29 -28 6 -121 111 -627 707 l-595 700 -1 77 0 76 -117 64 -118 63
-865 1022 -865 1022 -864 0 -864 1 -162 90 -162 90 -517 0 c-284 0 -516 -3
-516 -7z m945 -37145 c-6 -17 -265 -1133 -265 -1142 0 -3 43 -38 95 -77 52
-39 95 -73 95 -74 0 -1 -10 -1 -22 1 -13 2 -144 20 -293 39 -148 20 -270 37
-271 38 -1 1 66 278 149 615 l151 612 183 0 c142 0 181 -3 178 -12z"/>
</g>
</svg>
