<?xml version="1.0" standalone="no"?>
<!DOCTYPE svg PUBLIC "-//W3C//DTD SVG 20010904//EN"
 "http://www.w3.org/TR/2001/REC-SVG-20010904/DTD/svg10.dtd">
<svg version="1.0" xmlns="http://www.w3.org/2000/svg"
   viewBox="0 0 4639.000000 1079.000000"
 preserveAspectRatio="xMidYMid meet">
<metadata>
Created by potrace 1.16, written by Peter Selinger 2001-2019
</metadata>
<g transform="translate(0.000000,1079.000000) scale(0.100000,-0.100000)"
fill="#000000" stroke="none">
<path d="M14866 10508 c-4 -156 -11 -345 -16 -421 l-9 -139 -46 -53 c-28 -33
-45 -63 -45 -79 0 -19 -5 -26 -20 -26 -19 0 -20 7 -20 253 0 263 -7 387 -21
387 -5 0 -9 -123 -9 -274 0 -150 -3 -294 -6 -320 l-7 -46 -78 0 -79 0 0 -30 0
-30 -345 0 -345 0 0 30 0 30 -121 0 c-106 0 -163 -8 -497 -70 -207 -39 -385
-74 -396 -78 -10 -4 -40 -47 -67 -95 l-48 -87 107 -1 c84 0 101 -3 80 -11 -23
-8 -28 -16 -28 -44 l0 -34 340 0 340 0 0 -45 0 -45 -113 0 -114 0 -87 -95 -88
-95 -498 0 -499 0 -42 -55 -41 -55 -1288 0 -1288 0 -129 210 -128 210 -537 0
-537 0 -161 -195 c-89 -107 -167 -195 -175 -195 -7 0 -18 7 -25 15 -10 12 -43
15 -184 15 -205 -1 -216 -5 -216 -89 l0 -51 -230 0 -230 0 0 53 c0 81 -16 87
-222 87 -196 -1 -208 -6 -208 -89 l0 -51 -230 0 -230 0 0 49 c0 43 -4 52 -29
70 -27 19 -43 21 -194 21 -151 0 -166 -2 -191 -21 -22 -17 -26 -28 -26 -70 l0
-49 -230 0 -230 0 0 51 c0 84 -11 88 -215 88 -204 0 -215 -4 -215 -88 l0 -51
-230 0 -230 0 0 51 c0 84 -11 88 -215 88 -204 0 -215 -4 -215 -88 l0 -51 -230
0 -230 0 0 49 c0 42 -4 53 -26 70 -25 19 -40 21 -191 21 -208 0 -213 -2 -213
-101 0 -38 -3 -69 -7 -69 -21 0 -1609 -324 -1616 -330 -4 -4 -24 -99 -43 -211
l-35 -204 -223 -216 -222 -217 -11 -58 c-7 -33 -179 -828 -383 -1769 -204
-940 -373 -1728 -376 -1750 -4 -36 12 -75 149 -360 l153 -320 1452 -3 1452 -2
0 -83 0 -83 252 -185 253 -184 1209 -5 1208 -5 78 -135 78 -135 1056 -3 1056
-2 0 -51 c0 -46 5 -57 51 -115 28 -35 60 -66 72 -69 12 -2 1016 -88 2232 -190
1215 -103 2212 -188 2215 -190 3 -2 62 -96 131 -210 114 -189 127 -206 159
-215 19 -5 433 -104 920 -220 487 -116 893 -213 903 -216 14 -5 17 -18 17 -89
l0 -83 -125 -118 -125 -118 0 -183 0 -183 -93 0 -93 0 -28 -157 c-15 -87 -30
-168 -33 -181 l-5 -22 475 0 c410 0 476 2 487 15 9 11 34 15 99 15 l86 0 215
174 c207 169 217 175 270 181 53 7 59 11 153 99 93 88 98 95 117 162 11 38 20
76 20 85 0 8 -22 31 -50 50 l-50 35 75 68 75 67 0 90 0 89 1654 0 1653 0 94
114 94 115 938 0 937 1 42 30 c36 27 49 30 113 30 64 0 77 -3 113 -30 l42 -30
940 0 940 0 42 30 c36 27 49 30 113 30 64 0 76 -3 111 -30 l39 -29 865 -1 865
0 95 -115 95 -114 1185 -1 1186 0 94 115 95 115 888 0 888 0 44 30 c38 26 52
30 114 30 63 0 76 -3 113 -30 l41 -30 511 -1 511 0 94 -115 94 -114 1766 2
1765 3 95 112 95 113 663 0 663 0 42 30 c36 27 49 30 113 30 64 0 76 -3 111
-30 l39 -29 736 -1 737 0 96 -115 97 -115 2629 0 2629 0 263 313 263 312 688
3 687 2 0 745 0 745 -800 0 -800 0 0 224 0 224 -100 59 -100 59 68 22 c66 21
83 22 510 22 l442 0 0 180 0 180 -315 0 -315 0 0 73 0 73 -117 42 -118 42
-147 0 -148 0 0 340 0 340 139 0 140 0 125 46 126 47 0 73 0 74 315 0 315 0 0
175 0 175 -426 0 c-403 0 -431 1 -496 21 -39 11 -67 23 -64 26 3 3 41 27 83
53 l78 46 3 242 2 242 800 0 800 0 0 750 0 750 -688 0 -688 0 -260 310 -259
309 -2635 1 -2635 0 -99 -120 -99 -120 -728 0 -729 0 -42 -30 c-37 -27 -48
-30 -117 -30 -69 1 -80 3 -115 30 l-40 30 -655 0 -656 0 -100 120 -100 120
-1767 0 -1767 0 -101 -120 -101 -120 -500 0 -500 0 -44 -30 c-39 -27 -52 -30
-118 -30 -66 0 -78 3 -115 30 l-42 30 -882 2 -882 3 -99 118 -99 117 -1188 0
-1187 0 -99 -120 -99 -120 -858 0 -857 0 -42 -30 c-37 -27 -48 -30 -117 -30
-69 1 -80 3 -115 30 l-40 30 -936 0 -937 0 -41 -30 c-38 -27 -49 -30 -117 -30
-68 0 -79 3 -117 30 l-41 30 -928 0 -928 0 -101 120 -101 120 -1321 2 -1321 3
-45 167 c-32 119 -49 169 -61 172 -9 3 -472 109 -1029 236 -758 172 -1029 230
-1077 230 l-65 0 0 45 0 45 80 0 80 0 0 33 c0 25 -6 37 -22 45 -19 9 -11 11
45 11 53 1 67 4 67 16 0 13 56 15 445 15 378 0 445 2 445 14 0 8 -41 53 -92
100 -107 99 -50 85 -503 121 -359 29 -365 30 -365 50 0 12 -19 15 -109 15
l-108 0 -7 158 c-4 86 -11 177 -16 202 -5 25 -9 179 -10 343 0 163 -4 297 -9
297 -5 0 -12 -127 -15 -282z"/>
</g>
</svg>
