<?xml version="1.0" standalone="no"?>
<!DOCTYPE svg PUBLIC "-//W3C//DTD SVG 20010904//EN"
 "http://www.w3.org/TR/2001/REC-SVG-20010904/DTD/svg10.dtd">
<svg version="1.0" xmlns="http://www.w3.org/2000/svg"
   viewBox="0 0 994.000000 4445.000000"
 preserveAspectRatio="xMidYMid meet">
<metadata>
Created by potrace 1.16, written by Peter Selinger 2001-2019
</metadata>
<g transform="translate(0.000000,4445.000000) scale(0.100000,-0.100000)"
fill="#000000" stroke="none">
<path d="M2815 44441 c-6 -6 -101 -13 -212 -17 l-203 -7 0 -39 0 -38 85 0 85
0 0 -70 c0 -63 2 -70 20 -70 18 0 20 -7 20 -70 l0 -70 65 0 65 0 0 -40 c0 -33
-3 -40 -20 -40 -19 0 -20 -7 -20 -175 l0 -175 -65 0 -65 0 0 -235 0 -235 -165
0 -165 0 0 -35 0 -35 192 0 192 0 -62 -46 -62 -46 0 -254 0 -254 -305 0 -305
0 0 -110 0 -110 -365 0 -365 0 0 -70 0 -70 160 0 160 0 0 -45 0 -45 545 0 545
0 0 -257 0 -256 -23 21 c-23 22 -28 22 -345 22 -311 0 -322 -1 -334 -20 -13
-20 -24 -20 -598 -20 l-585 -1 -172 -161 -173 -161 0 -138 0 -139 475 0 475 0
0 -215 c0 -118 -2 -215 -5 -215 -3 0 -10 11 -15 25 l-10 25 -309 0 -309 0 -6
-25 -6 -25 -315 0 -315 0 0 -85 0 -85 220 0 220 0 0 -175 0 -175 50 0 50 0 0
-195 0 -195 -155 0 -155 0 0 -145 0 -145 65 0 65 0 0 -330 0 -330 115 0 115 0
0 -100 0 -100 -95 0 -95 0 0 -215 0 -215 240 0 240 0 0 -120 0 -120 -99 0
c-86 0 -108 -4 -160 -26 l-61 -27 0 -158 0 -159 225 0 225 0 28 -45 27 -45
635 0 636 0 22 45 22 45 110 0 110 0 0 -100 0 -100 -140 0 -140 0 -10 25 c-9
25 -10 25 -145 25 -135 0 -136 0 -145 -25 l-10 -25 -144 0 c-135 0 -146 1
-156 20 -10 18 -21 20 -136 20 -117 0 -126 -1 -131 -20 -5 -19 -14 -20 -244
-20 l-239 0 0 -575 0 -575 240 0 240 0 0 -85 0 -85 -165 0 -165 0 0 -280 0
-280 75 0 75 0 0 -112 -1 -113 -302 -230 -302 -230 -3 -68 -3 -67 91 0 90 0 0
-215 0 -215 -60 0 -60 0 0 -205 0 -205 375 0 375 0 0 -388 0 -389 49 -26 c35
-19 63 -27 100 -27 l51 0 0 -160 0 -160 215 0 215 0 0 -175 0 -175 75 0 75 0
0 -365 0 -365 95 0 95 0 0 -320 0 -320 -175 0 -175 0 0 -420 0 -421 175 -235
175 -235 0 -299 0 -300 -120 0 -120 0 0 -495 0 -495 120 0 120 0 0 -488 0
-489 -107 -6 c-58 -4 -144 -7 -190 -7 l-83 0 0 -665 0 -665 190 0 190 0 0
-235 0 -235 35 0 35 0 0 -65 0 -65 130 0 c80 0 130 -4 130 -10 0 -6 100 -10
280 -10 l280 0 0 75 0 76 82 -3 82 -3 48 -320 c26 -176 47 -323 48 -327 0 -5
41 -8 90 -8 l90 0 0 -125 0 -125 -124 0 -123 0 -31 -117 c-17 -65 -49 -185
-70 -268 l-39 -150 -96 -3 -97 -3 -2 -377 -3 -377 -172 -3 -173 -2 0 54 c0 76
-16 86 -136 86 -69 0 -95 -4 -104 -15 -10 -12 -40 -15 -146 -15 l-134 0 0
-340 0 -340 139 0 c83 0 142 -4 146 -10 8 -13 191 -13 216 0 15 9 19 22 19 65
l0 55 175 0 175 0 0 -185 0 -185 705 0 705 0 0 -165 0 -165 70 0 70 0 0 -370
0 -370 -70 0 -70 0 0 -610 c0 -528 -2 -610 -15 -610 -15 0 -15 2 -69 -217 -24
-94 -36 -165 -36 -211 0 -63 -2 -71 -30 -97 l-30 -29 0 -166 0 -166 30 -29
c27 -26 30 -35 30 -92 l0 -63 60 0 60 0 0 -85 0 -85 78 0 c44 0 154 -3 245 -7
l167 -6 0 -314 0 -313 -30 0 -30 0 0 -325 0 -325 -485 0 -485 0 0 140 0 140
-430 0 -430 0 0 -570 0 -570 430 0 430 0 0 60 0 60 115 0 115 0 0 -695 0 -695
343 0 c324 0 343 1 367 20 23 18 42 20 213 20 l187 0 0 -70 0 -71 -202 6
c-112 3 -362 8 -555 10 l-353 5 0 -755 0 -755 343 0 c286 0 346 2 363 15 15
11 58 14 212 15 l192 0 0 -70 0 -70 -194 0 c-119 0 -197 4 -201 10 -4 6 -135
10 -361 10 l-354 0 0 -750 0 -750 348 0 c289 1 350 3 366 15 15 12 52 15 162
15 77 0 162 -3 188 -6 l46 -7 0 -748 0 -749 -63 0 c-58 0 -65 -2 -85 -30 -21
-28 -22 -38 -22 -273 0 -231 1 -245 20 -262 16 -14 20 -31 20 -82 l0 -63 -145
0 -145 0 0 145 0 145 -270 0 -270 0 0 -1045 0 -1045 270 0 270 0 0 150 0 150
125 0 125 0 0 -98 c0 -86 3 -101 20 -117 17 -15 20 -31 20 -104 0 -75 -3 -88
-20 -99 -19 -12 -20 -23 -20 -265 0 -252 0 -254 23 -275 19 -18 35 -22 85 -22
55 0 62 -2 62 -20 0 -18 -7 -20 -54 -20 l-54 0 -6 -482 c-3 -266 -8 -1475 -11
-2688 -3 -1213 -8 -2532 -12 -2932 l-6 -728 -39 0 -38 0 0 -195 0 -195 113 0
112 1 136 212 c75 117 239 382 365 589 220 364 230 378 259 378 23 0 35 7 47
28 11 19 14 32 8 38 -7 7 67 131 210 353 121 189 220 345 220 347 0 2 -9 4
-20 4 -20 0 -20 7 -20 1154 0 759 -3 1157 -10 1161 -5 3 -10 12 -10 20 0 16
1244 1951 1272 1978 23 23 25 87 2 87 -11 0 -14 5 -10 16 3 9 6 211 6 450 l0
434 280 0 280 0 0 190 0 189 -46 21 c-38 16 -67 20 -160 20 l-114 0 0 250 0
250 105 0 c85 0 115 4 160 22 l55 23 0 188 0 187 -280 0 -280 0 0 260 0 260
280 0 280 0 0 189 0 189 -47 16 c-32 11 -82 16 -160 16 l-113 0 0 255 0 255
107 0 c88 0 117 4 160 22 l53 22 0 188 0 188 -260 0 -260 0 0 50 c0 39 -4 52
-20 60 -19 10 -20 23 -22 263 l-3 252 -22 3 c-20 3 -23 9 -23 53 0 43 3 51 25
61 22 10 25 18 25 60 0 35 4 48 14 48 30 0 46 42 46 121 l0 77 -30 7 -30 7 0
187 c0 103 -3 371 -7 594 l-6 407 66 0 67 0 0 35 c0 28 4 35 20 35 16 0 20 -7
20 -30 l0 -30 105 0 105 0 0 63 c0 51 3 64 20 75 11 7 20 21 20 32 0 13 7 20
20 20 17 0 20 7 20 44 0 42 -2 45 -45 66 -37 18 -45 26 -45 50 0 21 6 29 25
34 24 6 25 10 25 74 1 60 4 71 30 102 l30 34 0 672 0 672 70 13 70 12 0 744
c0 736 0 743 -20 743 -18 0 -20 7 -20 56 0 47 -6 66 -41 126 l-42 71 42 36 41
36 0 83 0 82 65 0 65 0 0 214 0 214 -40 32 -40 32 0 466 1 467 44 33 45 33 0
102 1 102 689 795 689 795 1 1062 0 1062 -566 623 c-312 343 -636 696 -721
786 l-155 162 -189 0 -189 0 0 125 0 125 -190 0 -190 0 0 220 0 220 90 0 90 0
0 78 c0 74 2 80 30 107 l30 29 0 191 0 191 -30 29 c-22 21 -30 38 -30 62 l0
33 315 0 315 0 0 649 0 649 70 57 70 57 0 88 0 89 145 127 145 126 0 793 0
793 113 17 c61 9 195 29 297 44 l185 27 3 161 2 162 -32 6 c-18 3 -152 21
-297 40 -200 27 -300 35 -413 35 l-148 0 0 113 -1 112 -67 41 -67 41 -3 551
-2 551 52 28 c44 23 59 39 85 88 l32 60 1 208 0 207 120 0 120 0 0 -52 c0 -29
3 -63 6 -75 6 -22 4 -23 -60 -23 l-66 0 0 -65 0 -65 360 0 c198 0 360 2 360 5
0 3 -14 32 -30 65 l-30 60 -181 0 -181 0 6 23 c3 12 6 46 6 75 l0 52 193 0
c191 1 193 1 367 43 l175 42 3 62 3 62 -43 12 c-235 63 -309 79 -373 79 -49 0
-98 9 -165 30 -88 28 -104 30 -257 30 l-162 0 -23 -30 c-20 -28 -26 -30 -85
-30 l-63 0 0 694 0 695 -83 47 -83 48 -154 416 -155 415 -171 117 -171 117
-396 620 -397 620 0 777 0 776 -235 399 -235 399 0 723 0 724 -210 224 -211
224 143 5 c197 7 198 8 198 144 l0 101 -35 23 c-33 21 -45 22 -215 22 l-180 0
0 130 0 130 135 0 135 0 0 139 0 139 -132 106 -133 106 -217 0 -218 0 0 80 0
80 -145 0 -144 0 -3 123 -3 122 -32 3 c-33 3 -33 4 -33 58 l0 54 35 0 c33 0
35 2 35 35 l0 35 140 0 140 0 0 65 0 65 58 0 c93 1 92 -2 92 209 l0 181 -195
0 -195 0 0 75 0 75 120 0 120 0 0 58 c0 56 -3 63 -102 220 l-102 162 -78 0
-78 0 0 85 0 85 -280 0 -280 0 0 240 0 240 -145 0 -145 0 0 206 0 207 -200 -5
-200 -6 0 194 0 194 -50 81 -51 80 7 83 6 82 -94 87 c-88 80 -99 87 -137 87
-39 0 -41 2 -41 30 0 25 4 30 25 30 24 0 25 3 25 60 l0 60 -60 0 c-53 0 -60 2
-60 20 0 16 7 20 35 20 44 0 45 17 5 88 l-30 52 -115 0 c-70 0 -115 4 -115 10
0 6 -45 10 -115 10 -106 0 -115 1 -115 19 0 15 -14 22 -65 35 -35 9 -82 16
-104 16 -22 0 -43 5 -46 10 -8 13 -158 13 -170 1z m2579 -19530 c7 -11 -17
-21 -50 -21 -15 0 -24 6 -24 15 0 17 65 22 74 6z m-184 -291 l0 -160 -70 0
-70 0 0 -115 0 -115 -90 0 -90 0 0 45 0 45 -75 0 -75 0 0 155 0 155 75 0 75 0
0 -135 0 -135 60 0 60 0 0 75 0 75 45 0 45 0 0 135 0 135 55 0 55 0 0 -160z
m710 45 l0 -75 30 0 c29 0 30 -1 30 -50 l0 -50 50 0 50 0 0 -110 0 -110 -135
0 -135 0 -6 40 c-4 22 -10 40 -15 40 -5 0 -9 47 -9 105 0 98 1 105 20 105 11
0 20 5 20 10 0 6 18 10 40 10 l40 0 0 80 c0 47 4 80 10 80 6 0 10 -32 10 -75z"/>
</g>
</svg>
