<?xml version="1.0" standalone="no"?>
<!DOCTYPE svg PUBLIC "-//W3C//DTD SVG 20010904//EN"
 "http://www.w3.org/TR/2001/REC-SVG-20010904/DTD/svg10.dtd">
<svg version="1.0" xmlns="http://www.w3.org/2000/svg"
   viewBox="0 0 4452.000000 1882.000000"
 preserveAspectRatio="xMidYMid meet">
<metadata>
Created by potrace 1.16, written by Peter Selinger 2001-2019
</metadata>
<g transform="translate(0.000000,1882.000000) scale(0.100000,-0.100000)"
fill="#000000" stroke="none">
<path d="M30413 18799 c43 -181 137 -632 133 -637 -4 -3 -217 12 -474 32 -452
37 -486 39 -1037 43 -556 4 -654 2 -3925 -101 -3157 -99 -4327 -132 -4336
-123 -2 2 -9 73 -14 158 -6 85 -12 159 -14 165 -6 17 -211 48 -249 38 l-32
-10 -3 -182 -2 -182 -153 0 c-83 0 -189 -3 -233 -6 l-81 -7 -9 49 c-8 43 -14
51 -54 76 l-45 28 -138 -7 -137 -6 33 -23 c25 -16 36 -34 44 -68 l10 -45 -51
-5 c-28 -3 -442 -13 -921 -22 l-870 -17 -155 -85 c-85 -47 -172 -101 -193
-121 l-38 -36 -4122 -3 c-3633 -2 -4129 -4 -4177 -18 -93 -25 -221 -85 -305
-143 -44 -30 -150 -123 -236 -208 l-155 -153 -2628 -70 c-2152 -56 -2631 -71
-2645 -83 -13 -11 -239 -20 -1194 -46 -1064 -29 -1182 -34 -1220 -50 -23 -10
-53 -21 -67 -24 -48 -13 -115 -91 -163 -189 -52 -106 -101 -228 -111 -275 -7
-30 -16 -35 -224 -124 -119 -51 -219 -94 -221 -95 -2 -2 4 -50 13 -106 8 -57
61 -391 116 -743 55 -352 118 -795 140 -985 22 -190 62 -487 89 -660 27 -173
59 -394 70 -490 12 -96 26 -212 32 -256 l11 -82 429 -366 430 -366 142 0 c78
0 273 -3 434 -7 l292 -6 102 -229 c57 -126 109 -234 116 -240 7 -6 72 -48 145
-94 l132 -84 950 0 951 -1 71 -132 71 -132 600 -3 599 -2 54 -165 54 -165
1386 0 1385 -1 58 -107 c33 -59 93 -162 134 -229 l75 -123 106 0 107 0 35 -60
35 -60 165 0 165 -1 562 -859 562 -860 -64 -48 c-57 -42 -64 -51 -65 -82 0
-30 7 -42 57 -87 l58 -53 -37 0 c-21 0 -38 -3 -38 -7 0 -5 -7 -60 -15 -123
-13 -106 -13 -116 3 -131 85 -79 350 -299 542 -449 l235 -184 383 -159 383
-158 572 -159 572 -158 196 -95 196 -94 397 -302 c219 -166 412 -309 429 -317
18 -8 188 -75 379 -148 l348 -134 207 -36 c229 -40 618 -78 5673 -551 l2635
-246 437 -162 438 -162 137 -100 c161 -118 203 -165 203 -232 0 -35 -7 -55
-27 -82 -15 -20 -31 -39 -36 -42 -4 -3 -200 -75 -436 -160 l-427 -153 32 -171
c145 -759 181 -959 229 -1268 30 -194 66 -413 80 -487 13 -74 34 -202 45 -283
12 -82 24 -157 28 -167 4 -10 174 -136 377 -279 l370 -261 157 0 157 0 -6 -38
c-3 -20 -11 -70 -18 -109 l-12 -73 23 0 c23 0 643 -25 834 -34 58 -3 1727
-142 3710 -310 1983 -168 3619 -307 3635 -308 17 -1 133 36 274 87 l245 89
1369 1119 1369 1118 182 27 181 27 1697 1620 1696 1620 -34 20 c-19 11 -34 28
-34 38 0 19 229 1249 233 1253 1 1 63 -25 137 -56 155 -67 318 -103 441 -98
l71 3 421 679 422 679 108 38 c60 20 110 39 111 41 2 2 283 658 626 1459 l624
1456 100 61 101 61 32 93 c45 129 198 750 278 1123 l66 310 -1 317 -1 318 -67
195 -68 194 -94 96 c-154 158 -304 252 -691 436 -1109 528 -2051 946 -2864
1271 -302 121 -1038 408 -1635 638 -902 347 -1190 453 -1710 629 l-625 212
-815 200 -815 200 -845 154 -845 155 -805 80 c-443 45 -956 93 -1141 109 -184
15 -340 31 -346 34 -6 4 -107 160 -224 346 -143 227 -221 342 -234 345 -11 2
-78 8 -149 12 l-129 7 6 -24z m-1428 -4300 l430 -32 414 -134 414 -133 651
-393 651 -393 530 -402 530 -401 301 -293 302 -293 -105 -3 c-104 -3 -105 -3
-139 28 l-35 30 -979 0 -980 0 0 34 c0 33 -10 43 -180 183 l-180 148 0 86 0
87 -161 253 -162 254 -313 228 -314 227 -1402 0 -1403 0 -169 -210 -168 -210
-222 0 -221 0 -163 205 -164 205 -107 0 -107 0 -138 153 -138 153 -193 44
-194 43 -713 -7 -713 -7 -100 -25 c-78 -20 -118 -37 -180 -76 -44 -28 -84 -51
-90 -51 -5 0 -87 48 -181 107 l-171 106 -196 0 -197 0 0 30 c0 16 19 65 42
108 l42 78 130 68 131 68 2825 83 c1554 45 2877 83 2940 84 63 1 309 -13 545
-30z m-4852 -1099 l287 0 0 -105 0 -105 -370 0 -370 0 0 111 0 112 83 -6 c45
-4 211 -7 370 -7z m9216 -4187 c34 -26 44 -28 160 -33 87 -3 126 -9 129 -17 3
-10 -273 -13 -1332 -15 -1267 -3 -1336 -2 -1336 15 0 16 53 17 980 17 l980 0
32 30 33 29 159 1 c158 0 159 0 195 -27z m-2500 -210 c-59 -75 -205 -223 -221
-223 -41 0 -10 40 107 138 66 55 122 101 124 101 2 1 -3 -7 -10 -16z"/>
</g>
</svg>
