<?xml version="1.0" standalone="no"?>
<!DOCTYPE svg PUBLIC "-//W3C//DTD SVG 20010904//EN"
 "http://www.w3.org/TR/2001/REC-SVG-20010904/DTD/svg10.dtd">
<svg version="1.0" xmlns="http://www.w3.org/2000/svg"
   viewBox="0 0 3394.000000 1547.000000"
 preserveAspectRatio="xMidYMid meet">
<metadata>
Created by potrace 1.16, written by Peter Selinger 2001-2019
</metadata>
<g transform="translate(0.000000,1547.000000) scale(0.100000,-0.100000)"
fill="#000000" stroke="none">
<path d="M16140 14860 l0 -610 -170 0 -170 0 0 -39 0 -39 -102 -6 c-57 -3
-1597 -15 -3423 -27 l-3320 -21 -495 -105 -494 -104 -41 -37 c-193 -172 -183
-160 -226 -281 -27 -77 -39 -129 -39 -166 0 -49 3 -56 33 -78 62 -47 189 -57
699 -57 266 0 567 -6 730 -15 l278 -15 351 -80 350 -80 79 -55 c43 -30 86 -55
95 -55 12 0 16 -8 13 -32 l-3 -33 -3465 -107 -3465 -107 -895 -85 -895 -86
-711 -108 -710 -109 -69 -46 -69 -46 2 -278 c1 -153 5 -369 8 -479 l7 -201 61
-31 c61 -31 62 -32 776 -107 605 -63 771 -77 1080 -91 l365 -16 1560 -324
c858 -179 1570 -328 1583 -332 14 -5 -125 -26 -371 -57 l-394 -49 -22 -92 -23
-93 61 -89 c62 -93 232 -438 341 -692 105 -247 191 -529 259 -854 66 -309 85
-451 146 -1061 20 -198 67 -596 105 -885 38 -289 83 -673 99 -855 39 -425 49
-515 67 -600 9 -38 44 -240 79 -449 35 -208 65 -379 67 -380 2 -2 25 -12 53
-23 34 -15 51 -29 56 -45 3 -13 12 -98 19 -191 l13 -167 51 -43 c28 -23 58
-48 67 -55 13 -9 254 9 1208 93 l1193 105 1909 0 1909 0 0 -430 0 -430 1524 0
1524 0 4 -63 c3 -34 47 -225 98 -425 l93 -362 3301 2 3301 3 100 132 c55 72
180 237 278 366 l179 235 727 1717 728 1717 47 30 47 31 172 -82 172 -81 278
0 c187 0 285 4 299 11 20 11 20 9 -4 -32 -14 -24 -123 -218 -241 -431 l-217
-387 -89 -413 -89 -413 -186 -462 -186 -462 15 -862 15 -861 -336 -476 -336
-476 7 -81 7 -82 -55 -49 -55 -49 -29 -280 -28 -280 262 -82 c238 -75 265 -81
292 -70 19 8 305 329 808 904 l778 891 607 894 607 895 209 479 208 479 -12
484 -12 483 47 804 c27 466 43 805 37 807 -5 2 -2 39 7 87 8 46 13 89 10 97
-4 10 31 13 181 13 l186 0 0 -44 c0 -43 0 -44 40 -50 22 -3 40 -10 40 -14 0
-4 18 -179 42 -389 l42 -383 202 0 203 0 6 33 c5 31 65 475 65 486 0 3 49 -69
110 -161 l109 -168 355 0 356 0 30 -59 c16 -33 26 -62 22 -64 -4 -3 -33 -8
-64 -12 -59 -7 -68 -17 -53 -58 10 -23 144 5 220 47 l63 34 1223 16 c673 9
1241 16 1262 16 36 0 37 1 37 34 l0 34 -87 7 c-49 3 -100 9 -115 11 -23 5 -30
1 -39 -20 -11 -24 -17 -26 -73 -26 -155 0 -2080 41 -2084 44 -2 2 10 31 27 65
l31 60 -28 15 -29 15 -28 -60 c-16 -32 -31 -59 -35 -59 -3 0 -36 30 -73 68
l-67 68 0 80 0 81 122 -18 c67 -10 125 -14 128 -10 19 28 292 371 298 375 5 3
53 12 108 21 155 24 147 21 180 76 l29 49 51 -6 51 -6 191 295 c159 243 192
300 192 330 0 28 129 430 143 443 1 2 241 -24 531 -57 291 -33 539 -58 552
-55 13 4 92 85 186 192 l163 187 257 -7 c282 -8 270 -10 248 50 l-11 27 203
-6 c112 -4 354 -9 538 -12 184 -3 361 -8 393 -11 l57 -5 0 49 0 49 -71 31 -71
32 -612 20 c-336 12 -633 24 -660 28 l-50 7 58 65 c101 113 105 129 127 470
10 162 20 321 22 353 l3 57 -925 466 -926 465 -230 30 c-126 16 -233 29 -237
29 -5 0 -8 268 -8 595 l0 594 -762 251 c-420 138 -900 297 -1068 352 -168 55
-519 179 -780 276 l-475 175 -375 61 -375 61 -126 92 c-69 51 -357 242 -640
425 l-514 332 -813 318 -813 317 -1552 255 -1552 255 -1900 66 c-1056 36
-2028 65 -2187 65 l-288 0 0 -610z"/>
</g>
</svg>
