<?xml version="1.0" standalone="no"?>
<!DOCTYPE svg PUBLIC "-//W3C//DTD SVG 20010904//EN"
 "http://www.w3.org/TR/2001/REC-SVG-20010904/DTD/svg10.dtd">
<svg version="1.0" xmlns="http://www.w3.org/2000/svg"
   viewBox="0 0 4732.000000 2572.000000"
 preserveAspectRatio="xMidYMid meet">
<metadata>
Created by potrace 1.16, written by Peter Selinger 2001-2019
</metadata>
<g transform="translate(0.000000,2572.000000) scale(0.100000,-0.100000)"
fill="#000000" stroke="none">
<path d="M15427 25650 l-65 -70 -1099 0 -1100 0 -689 -491 c-379 -271 -698
-498 -709 -505 -13 -8 -446 -66 -1148 -153 l-1129 -140 -158 -150 -158 -151
-2110 0 c-2103 0 -2111 0 -2117 -20 -7 -22 -20 -21 -99 7 -30 10 -131 13 -452
13 -404 0 -413 0 -419 -20 -7 -22 -20 -21 -99 7 -30 10 -130 13 -446 13 -399
0 -408 0 -421 -20 l-14 -21 -59 21 c-55 19 -83 20 -438 20 l-378 0 -11 -27
c-26 -68 -48 -165 -84 -370 l-6 -33 -337 0 -338 0 -17 -142 c-9 -79 -31 -261
-49 -405 l-31 -263 -266 0 -266 0 -163 -163 -162 -162 -1 -715 0 -715 -193
-515 -193 -515 194 -3 193 -2 0 -1003 0 -1002 163 -162 162 -163 268 -2 268
-3 47 -107 47 -108 336 0 c363 0 349 2 349 -51 0 -19 23 -19 1120 -19 l1119 0
533 -125 c428 -101 547 -132 610 -161 l78 -37 0 -539 0 -538 1113 0 1112 0
258 -1123 258 -1122 -1 -231 0 -231 803 -6 c441 -4 1592 -7 2557 -7 l1755 0
60 -40 c33 -22 158 -131 278 -242 l218 -203 -6 -310 c-3 -170 -9 -325 -13
-344 -7 -33 -12 -35 -372 -203 -432 -201 -988 -442 -1295 -562 -120 -48 -222
-90 -226 -94 -4 -4 -64 -95 -134 -202 l-128 -194 12 -307 11 -306 84 -267 84
-266 59 -63 c32 -35 164 -174 293 -310 l235 -246 510 -289 510 -290 434 -17
c346 -14 438 -15 457 -5 18 10 91 10 346 1 178 -6 350 -11 384 -11 l61 0 776
-992 776 -993 648 -277 c356 -153 657 -281 667 -285 16 -5 41 16 130 111 l111
118 3148 -2911 c1731 -1601 3151 -2911 3154 -2911 4 0 14 7 24 16 21 19 23 18
173 -122 l90 -84 -22 -22 -21 -23 60 -39 c67 -43 63 -44 130 35 l40 49 -44 54
-44 54 -21 -20 -21 -21 -115 108 c-64 59 -116 113 -116 119 0 7 5 17 12 24 10
10 2 23 -37 61 -28 27 -1429 1323 -3115 2881 -1686 1558 -3081 2848 -3100
2866 l-34 33 23 31 23 31 -79 102 c-43 57 -161 211 -263 344 -102 134 -188
243 -192 243 -4 0 -44 -32 -88 -71 l-80 -71 -55 49 c-30 26 -407 374 -838 773
l-783 725 2117 3 2118 2 208 281 c114 154 261 353 326 442 137 187 97 166 369
195 l168 18 4562 -1171 c2510 -644 4667 -1195 4793 -1224 362 -84 1512 -358
2050 -489 637 -156 890 -206 1177 -235 213 -22 233 -22 375 -8 l150 14 50 101
c65 130 189 535 212 691 l17 110 -101 108 c-55 60 -185 181 -290 269 -219 185
-547 491 -686 640 -127 137 -359 404 -479 553 l-97 120 -404 220 c-222 121
-543 298 -714 393 l-310 174 -213 -32 c-116 -18 -222 -30 -235 -27 -33 9
-2856 1132 -2852 1135 1 1 99 14 216 28 118 13 799 96 1514 182 l1300 158 62
379 c34 209 65 430 69 491 l6 110 -323 12 c-178 7 -742 30 -1254 52 -511 22
-997 42 -1080 45 -131 6 -985 52 -4124 225 -404 22 -735 41 -736 43 -1 1 -46
232 -99 513 l-97 512 -25 568 -25 569 118 485 119 485 244 343 c134 188 248
342 254 342 6 0 197 -59 425 -130 228 -72 429 -130 447 -130 36 0 64 32 64 75
0 21 5 25 28 25 56 0 68 28 98 231 l28 185 423 55 424 54 24 80 c14 44 99 327
189 629 91 301 167 551 170 553 3 3 996 -4 2208 -17 2408 -24 4601 -38 4606
-30 1 3 199 327 440 720 l438 715 104 -3 c58 -1 508 -11 1000 -23 882 -20 935
-22 3655 -165 2492 -130 2882 -153 4022 -234 694 -50 1279 -90 1301 -90 l41 0
326 384 c290 341 330 385 358 388 29 3 34 8 52 60 16 47 53 97 213 285 l193
228 642 215 641 215 84 240 c81 231 112 339 101 349 -3 3 -304 66 -670 140
-365 74 -1422 290 -2349 480 l-1685 345 -4915 857 c-2703 471 -5259 917 -5680
990 -421 74 -1757 291 -2970 483 l-2205 350 -1390 145 -1390 145 -1229 61
c-1151 57 -1230 62 -1245 80 -14 17 -45 21 -297 34 -270 15 -301 19 -860 110
-539 88 -593 95 -777 102 l-197 7 -52 64 c-29 35 -61 65 -72 68 -12 2 -122 6
-246 10 -124 3 -418 12 -655 20 -401 14 -699 24 -2190 75 -319 11 -619 22
-666 25 l-87 6 -65 -71z m-3627 -8980 l0 -70 -747 1 c-583 0 -743 3 -724 12
14 7 81 37 150 69 l126 56 598 1 597 1 0 -70z m2360 0 l0 -70 -970 0 -970 0 0
70 0 70 970 0 970 0 0 -70z m11270 -197 c0 -5 -11 -75 -24 -158 -23 -145 -23
-151 -6 -180 10 -16 15 -37 11 -46 -5 -13 -63 2 -393 105 -353 110 -409 132
-380 150 5 3 129 -33 277 -80 148 -46 279 -84 291 -84 45 0 74 58 92 179 13
97 17 110 36 114 38 8 96 7 96 0z m-8733 -8844 c483 -446 893 -826 911 -843
l33 -33 -108 -93 c-59 -52 -115 -100 -124 -107 -13 -11 -46 0 -214 73 -110 47
-206 91 -214 97 -7 6 -327 385 -709 842 -382 456 -704 840 -715 853 l-20 22
141 0 141 0 878 -811z"/>
</g>
</svg>
