<?xml version="1.0" standalone="no"?>
<!DOCTYPE svg PUBLIC "-//W3C//DTD SVG 20010904//EN"
 "http://www.w3.org/TR/2001/REC-SVG-20010904/DTD/svg10.dtd">
<svg version="1.0" xmlns="http://www.w3.org/2000/svg"
   viewBox="0 0 4716.000000 1184.000000"
 preserveAspectRatio="xMidYMid meet">
<metadata>
Created by potrace 1.16, written by Peter Selinger 2001-2019
</metadata>
<g transform="translate(0.000000,1184.000000) scale(0.100000,-0.100000)"
fill="#000000" stroke="none">
<path d="M951 11746 c-71 -93 -71 -94 -71 -157 l-1 -64 -83 -62 -83 -61 -5
-579 c-3 -318 -3 -591 -1 -608 4 -24 23 -43 89 -93 l84 -62 0 -73 0 -72 128
-157 c116 -142 133 -159 198 -195 l71 -38 -96 -440 -96 -439 -29 -1 -29 0 -88
-318 -88 -317 -143 -208 c-79 -114 -190 -278 -247 -365 l-104 -157 -49 -323
-48 -322 41 -220 41 -220 170 -345 169 -345 359 -275 c204 -156 371 -276 385
-278 24 -3 25 -6 25 -73 l0 -69 -32 0 c-18 0 -203 -7 -411 -14 l-378 -14 -314
-118 -315 -118 2 -924 3 -925 315 -142 315 -142 675 -62 675 -62 770 1 770 1
236 107 237 107 320 293 c359 328 320 276 339 447 l8 69 416 116 415 117 290
224 290 224 99 190 99 190 91 405 91 405 70 52 69 53 17 242 c9 134 17 347 17
474 l1 231 165 222 165 222 0 548 0 547 -165 233 -165 234 0 108 0 109 -120 0
-120 0 -1 173 c0 94 -4 557 -9 1027 l-9 855 -39 147 -40 147 -116 134 -116
134 -212 97 -213 97 -110 6 c-60 3 -116 11 -124 17 -8 6 -63 69 -124 141
l-110 130 -211 82 -211 83 -502 0 -503 0 0 24 c0 13 -3 38 -6 55 l-7 31 -1352
0 -1352 0 -72 -94z"/>
<path d="M24695 11519 c-654 -3 -1444 -7 -1755 -8 l-565 -1 -114 -169 -114
-169 22 -1593 22 -1593 -68 -69 c-37 -37 -85 -82 -106 -99 l-38 -30 -104 101
c-57 55 -111 101 -119 101 -14 0 -16 113 -16 1143 l0 1144 -270 116 -271 117
-4502 0 -4502 0 -167 -112 -168 -112 -1 -1146 0 -1145 -138 -106 -137 -105
-125 103 c-68 56 -127 103 -131 103 -5 0 -8 526 -8 1168 l0 1168 -144 87 -144
87 -1878 0 -1879 0 -145 -88 -145 -89 -3 -2315 -2 -2316 148 -90 149 -90 234
-17 234 -17 70 -69 70 -69 1270 0 1270 0 70 69 70 69 230 17 230 17 147 86
148 87 0 330 1 330 130 105 c71 58 132 104 135 104 3 -1 66 -48 140 -105 l133
-104 1 -936 0 -936 153 -120 153 -120 285 -53 284 -53 104 -60 104 -61 241
-48 241 -48 1803 -31 1802 -31 148 77 c81 43 183 103 227 134 l80 57 1862 51
1861 51 266 123 266 124 0 943 c0 695 3 942 11 942 7 0 62 47 123 104 l112
104 113 -111 113 -112 19 -1370 19 -1370 44 -168 c25 -93 46 -170 48 -172 2
-2 199 -17 438 -35 l434 -32 161 -139 160 -139 90 5 c50 3 763 24 1585 47
l1494 41 121 92 120 92 380 22 c209 13 400 26 424 30 45 6 45 6 118 128 l74
122 6 1460 6 1460 82 75 82 74 90 -91 91 -92 16 -1380 17 -1380 46 -180 c25
-99 48 -182 50 -184 1 -2 198 -19 437 -36 l435 -32 158 -137 158 -136 65 0
c36 0 750 20 1587 44 l1522 44 119 91 120 91 413 26 c228 14 419 27 425 29 6
2 45 59 86 127 l75 123 6 1434 6 1435 108 102 108 102 110 -107 110 -106 6
-290 c6 -284 7 -293 39 -420 18 -71 34 -131 34 -132 1 -1 152 -14 336 -28 208
-16 340 -30 349 -38 9 -6 64 -56 123 -110 l106 -98 1154 35 c634 20 1164 36
1178 36 17 0 56 25 116 74 l90 73 264 17 c146 9 297 19 336 22 l71 6 56 98 57
97 1 329 c1 181 4 391 8 468 l6 139 120 -131 c104 -114 124 -131 151 -132 17
0 46 -3 63 -6 l31 -6 0 -73 c0 -92 5 -105 39 -105 23 0 30 -6 39 -37 6 -21 40
-101 75 -178 l64 -140 187 -3 c102 -1 186 -4 186 -5 0 -2 52 -143 114 -315
l115 -312 216 -313 216 -312 159 -144 c88 -79 158 -146 156 -148 -2 -2 -40
-16 -85 -31 l-81 -27 -255 -235 -255 -234 -40 -121 c-22 -66 -48 -154 -59
-195 -10 -41 -53 -186 -95 -322 -71 -230 -76 -253 -76 -337 l0 -91 84 -175
c56 -115 106 -241 148 -366 l63 -192 294 -281 293 -281 582 -393 c319 -217
593 -400 607 -407 14 -7 191 -74 395 -148 203 -74 500 -185 661 -246 l291
-110 1569 -37 1568 -37 239 169 239 169 159 189 c138 165 158 194 159 225 0
20 4 85 8 145 l9 110 -77 99 c-68 88 -84 103 -158 143 -76 42 -91 55 -209 197
l-127 152 -199 89 c-109 49 -198 94 -198 101 0 6 30 178 66 381 l66 369 -1
600 -2 600 -150 545 -151 545 -160 340 -160 340 -159 155 -160 155 15 269 15
269 -33 256 c-32 243 -37 266 -96 451 -46 143 -100 277 -201 503 -139 307
-139 308 -267 482 l-127 176 -339 246 -340 246 -211 78 c-189 70 -223 79 -320
89 -61 6 -120 13 -132 16 l-23 4 0 388 0 388 -81 43 -80 43 -61 -11 c-42 -7
-70 -19 -88 -36 -14 -14 -30 -25 -36 -24 -5 0 -23 19 -39 42 -26 36 -40 44
-95 59 -63 17 -69 17 -214 -3 -144 -21 -153 -24 -299 -91 -125 -58 -170 -85
-276 -167 l-127 -99 -500 -6 c-274 -4 -545 -9 -601 -12 l-103 -6 0 60 0 59
-542 8 -543 7 -152 -68 -153 -68 0 -308 0 -308 -145 0 -145 0 0 -375 0 -375
-117 -126 c-65 -70 -119 -121 -121 -115 -2 7 1 391 7 854 6 463 11 1046 11
1295 l0 453 -95 112 -95 112 -1152 -6 c-634 -3 -1544 -7 -2023 -8 l-870 -1
-89 -138 -89 -137 7 -320 c4 -176 13 -707 22 -1180 l14 -859 -92 -93 c-51 -51
-97 -93 -103 -93 -5 0 -55 45 -110 100 l-100 100 7 707 c4 390 8 1123 8 1631
l1 922 -108 103 c-59 57 -126 120 -148 140 l-41 36 -2648 -13 c-2579 -13
-2648 -13 -2665 -32 -10 -10 -64 -87 -120 -170 l-102 -151 11 -654 c6 -360 17
-1084 25 -1609 l13 -955 -80 -77 c-43 -43 -82 -78 -86 -78 -4 0 -41 33 -81 74
l-73 74 12 1308 c7 738 10 1464 5 1664 l-7 355 -141 133 -142 132 -900 -2
c-495 -1 -1435 -5 -2090 -9z"/>
</g>
</svg>
