<?xml version="1.0" standalone="no"?>
<!DOCTYPE svg PUBLIC "-//W3C//DTD SVG 20010904//EN"
 "http://www.w3.org/TR/2001/REC-SVG-20010904/DTD/svg10.dtd">
<svg version="1.0" xmlns="http://www.w3.org/2000/svg"
   viewBox="0 0 4809.000000 2777.000000"
 preserveAspectRatio="xMidYMid meet">
<metadata>
Created by potrace 1.16, written by Peter Selinger 2001-2019
</metadata>
<g transform="translate(0.000000,2777.000000) scale(0.100000,-0.100000)"
fill="#000000" stroke="none">
<path d="M1305 27760 c-126 -4 -254 -8 -282 -9 l-53 -1 0 -95 c0 -88 -1 -95
-20 -95 -19 0 -20 -7 -20 -225 0 -218 1 -225 20 -225 19 0 20 -7 20 -165 0
-158 1 -165 20 -165 19 0 20 -7 20 -98 0 -86 3 -101 20 -117 20 -18 19 -18
-25 -71 -40 -47 -45 -58 -45 -102 0 -43 5 -55 41 -96 l41 -47 -41 -49 c-36
-43 -41 -55 -41 -99 0 -44 5 -55 40 -96 l40 -47 -19 -26 c-10 -15 -28 -36 -40
-46 -16 -15 -21 -31 -21 -72 0 -47 4 -57 42 -103 42 -49 45 -51 96 -51 l52 0
0 -4671 0 -4672 -37 7 c-21 3 -120 6 -220 6 -156 0 -183 2 -183 15 0 10 -11
15 -35 15 -24 0 -35 -5 -35 -15 0 -11 -12 -15 -50 -15 -38 0 -50 4 -50 15 0
10 -11 15 -35 15 -24 0 -35 -5 -35 -15 0 -12 -13 -15 -55 -15 -42 0 -55 3 -55
15 0 11 -11 15 -40 15 l-40 0 0 -565 c0 -558 0 -565 20 -565 19 0 20 -7 20
-147 l-1 -148 -159 -95 -160 -95 0 -887 0 -887 160 -96 160 -96 0 -155 c0
-147 -1 -154 -20 -154 -20 0 -20 -7 -20 -570 l0 -570 40 0 c33 0 40 3 40 20 0
18 7 20 55 20 48 0 55 -2 55 -20 0 -16 7 -20 35 -20 28 0 35 4 35 20 0 17 7
20 50 20 43 0 50 -3 50 -20 0 -16 7 -20 35 -20 28 0 35 4 35 20 0 19 7 20 220
20 l220 0 0 -4255 0 -4255 -40 0 -40 0 0 -299 c0 -165 -4 -301 -8 -303 -5 -1
-52 -53 -105 -115 l-97 -112 0 -120 0 -120 105 -121 c58 -66 102 -120 97 -120
-6 0 -53 -51 -106 -112 l-96 -113 0 -119 0 -118 86 -102 c48 -55 95 -108 105
-118 14 -12 19 -30 19 -71 0 -31 -4 -57 -8 -59 -4 -2 -24 -46 -44 -98 -36 -94
-37 -95 -71 -98 l-36 -3 -3 47 -3 48 -105 63 -105 63 -102 0 -103 0 0 -380 0
-380 104 0 104 0 106 63 105 62 1 48 c0 47 0 47 34 47 35 0 35 0 73 -100 l38
-100 730 0 731 0 52 59 52 60 0 243 0 242 -51 52 -52 52 8 66 7 66 107 0 107
0 62 110 62 110 0 126 0 127 -61 108 -60 108 -92 4 -92 3 90 2 90 2 63 113 62
113 0 127 0 127 -62 110 -62 110 -71 0 -70 0 12 227 c6 126 13 261 16 300 l4
73 -124 0 -124 0 6 52 c3 29 46 550 95 1158 215 2656 600 7356 604 7366 3 7
66 13 181 16 110 4 181 10 188 17 6 6 35 11 64 11 l53 0 0 280 0 280 134 0
c127 0 138 2 201 30 51 23 131 41 353 80 l287 51 85 49 85 49 3 -50 3 -49 220
0 219 0 0 -23 c0 -22 11 -26 195 -70 199 -48 177 -45 4194 -642 l574 -85 744
0 743 0 0 -78 0 -77 138 -138 137 -137 4460 0 4460 0 138 138 137 137 0 78 0
77 501 0 c535 0 336 -8 3509 140 470 22 1305 60 1855 85 915 42 1004 47 1043
65 41 19 71 20 1087 20 l1045 0 0 375 0 375 109 0 109 0 7 30 7 30 393 0 393
0 7 -30 c7 -30 7 -30 76 -30 67 0 69 -1 69 -25 0 -25 1 -25 85 -25 77 0 85 -2
85 -19 0 -11 70 -104 157 -208 86 -103 157 -189 157 -190 1 -1 504 -86 1117
-190 l1116 -188 27 -49 28 -49 311 5 311 6 258 -100 c222 -86 261 -98 275 -86
24 20 2222 19 2246 0 14 -12 51 0 267 83 l250 97 323 -1 322 -2 25 46 c22 40
28 45 60 45 27 0 43 8 63 28 l27 28 0 193 0 194 68 -6 67 -7 85 79 85 78 378
7 377 7 0 -244 c0 -240 0 -244 23 -264 l22 -20 358 41 357 41 0 67 0 67 33 6
c34 5 196 25 209 25 5 0 8 -1677 8 -3726 l0 -3725 52 -180 52 -179 143 0 143
0 0 -35 0 -35 628 0 627 0 171 87 171 88 37 110 36 111 -2 2345 -3 2344 -32
10 -33 9 0 1512 0 1512 50 7 c27 4 53 4 58 1 5 -3 12 -31 15 -62 3 -31 8 -58
11 -61 2 -2 472 30 1043 72 l1038 76 740 160 c690 149 1076 246 1127 282 9 7
87 68 172 137 l155 125 1 454 0 454 75 -6 c41 -3 75 -2 75 2 0 4 91 11 203 14
371 13 457 19 457 34 0 10 -37 13 -189 13 -116 0 -192 4 -196 10 -4 6 -55 10
-121 10 -63 0 -158 5 -209 12 l-95 11 -2 451 -3 450 -168 136 -167 136 -198
58 c-108 32 -275 85 -371 117 -166 57 -175 59 -198 43 -24 -15 -51 -10 -562
100 l-536 115 -1034 76 c-569 42 -1036 74 -1038 71 -2 -2 -7 -30 -10 -61 -7
-65 -14 -70 -78 -61 l-45 7 0 1510 c0 1460 1 1509 18 1509 11 0 26 8 35 18 16
17 17 195 17 2358 l0 2339 -36 107 -35 107 -175 90 -175 91 -625 0 -624 0 0
-35 0 -35 -142 0 -143 0 -53 -183 -52 -182 0 -3722 c0 -2972 -3 -3723 -12
-3723 -21 0 -191 20 -215 25 -20 5 -22 12 -25 72 l-3 67 -358 41 -358 41 -19
-21 c-19 -20 -20 -36 -20 -258 l0 -237 -373 0 -372 0 -87 75 -87 75 -70 0 -71
0 0 188 0 188 -33 32 c-22 22 -43 32 -64 32 -26 0 -34 7 -54 46 l-24 46 -325
-3 -325 -2 -245 95 c-206 80 -248 94 -265 84 -29 -16 -2221 -16 -2250 0 -17
10 -61 -4 -275 -87 l-255 -98 -315 -1 -315 0 -25 -45 c-14 -25 -29 -45 -34
-45 -5 0 -503 -83 -1108 -185 -604 -102 -1101 -185 -1103 -185 -13 0 -325
-384 -325 -401 0 -17 -7 -19 -85 -19 -84 0 -85 0 -85 -25 0 -24 -2 -25 -69
-25 -69 0 -69 0 -76 -30 l-7 -30 -392 0 -392 0 -11 30 -11 30 -106 0 -106 0 0
370 0 370 -102 0 c-82 0 -112 5 -148 21 -25 11 -96 27 -160 35 -148 19 -160
22 -160 37 0 6 -16 29 -35 49 l-35 38 -243 0 -243 0 -37 -38 c-33 -34 -37 -43
-37 -90 l0 -52 -192 0 -193 0 -3 258 c-2 143 -8 258 -13 260 -5 2 -9 89 -9
198 0 157 -3 194 -14 194 -17 0 -26 -83 -26 -256 0 -83 -4 -134 -10 -134 -6 0
-10 -50 -11 -127 0 -71 -6 -186 -12 -258 l-12 -130 -202 -3 c-169 -3 -205 -1
-225 12 -17 11 -446 64 -1623 200 -4879 565 -4341 502 -7339 857 l-1860 220
-3550 5 -3551 6 -2350 -845 c-1292 -465 -2399 -862 -2460 -884 l-110 -38 -3
-123 -3 -122 -119 0 -119 0 -213 -130 -212 -130 -113 0 c-94 0 -113 3 -113 15
0 12 -19 15 -115 15 l-115 0 0 30 c0 19 -66 163 -180 390 l-180 360 -50 0 -50
0 0 190 0 190 -51 0 c-28 0 -59 4 -69 10 -10 5 -92 13 -184 16 -91 4 -166 10
-166 12 0 3 -137 1687 -305 3741 -168 2055 -317 3876 -330 4046 -14 171 -48
585 -75 920 -27 336 -52 633 -55 662 l-6 52 102 3 102 3 53 180 c46 155 65
248 136 670 74 446 82 505 85 655 4 148 2 176 -21 274 -13 60 -28 112 -33 116
-15 12 -128 96 -139 103 -22 13 -261 46 -404 56 -80 6 -242 13 -360 16 -118 3
-240 7 -270 9 -30 2 -158 0 -285 -4z m-835 -11756 c0 -138 -2 -155 -16 -150
-9 3 -33 6 -55 6 l-39 0 0 150 0 150 55 0 55 0 0 -156z m170 -28 l0 -184 -50
16 -50 16 0 168 0 168 50 0 50 0 0 -184z m140 -21 c0 -120 -4 -205 -9 -205 -5
0 -21 4 -35 10 l-26 10 0 195 0 195 35 0 35 0 0 -205z m3657 -3332 c84 -32
153 -60 153 -63 0 -3 -24 -18 -52 -33 -45 -24 -93 -34 -308 -65 l-255 -38 -75
18 c-50 11 -117 17 -197 18 l-123 0 0 85 0 85 345 0 345 0 0 25 c0 14 3 25 7
25 3 0 75 -26 160 -57z m-3657 -793 l0 -290 -35 0 -35 0 0 279 0 278 33 11
c17 5 33 10 35 11 1 1 2 -129 2 -289z m-140 -25 l0 -265 -50 0 -50 0 0 249 0
249 43 15 c23 9 45 16 50 16 4 1 7 -118 7 -264z m-170 -30 l0 -235 -55 0 -55
0 0 229 0 230 43 4 c23 2 48 4 55 5 9 2 12 -51 12 -233z"/>
<path d="M29350 16452 c0 -26 -20 -42 -52 -42 -25 0 -28 -4 -34 -41 -6 -33
-14 -46 -45 -66 -28 -18 -39 -33 -39 -50 0 -14 -10 -33 -22 -44 -23 -18 -22
-18 87 -18 109 0 110 0 88 18 -20 17 -23 29 -23 90 0 56 3 71 15 71 8 0 18
-14 23 -32 4 -18 16 -34 25 -36 15 -3 17 7 17 82 0 79 -2 86 -20 86 -13 0 -20
-7 -20 -18z"/>
</g>
</svg>
