<?xml version="1.0" standalone="no"?>
<!DOCTYPE svg PUBLIC "-//W3C//DTD SVG 20010904//EN"
 "http://www.w3.org/TR/2001/REC-SVG-20010904/DTD/svg10.dtd">
<svg version="1.0" xmlns="http://www.w3.org/2000/svg"
   viewBox="0 0 4510.000000 551.000000"
 preserveAspectRatio="xMidYMid meet">
<metadata>
Created by potrace 1.16, written by Peter Selinger 2001-2019
</metadata>
<g transform="translate(0.000000,551.000000) scale(0.100000,-0.100000)"
fill="#000000" stroke="none">
<path d="M5910 5475 c-30 -31 -40 -35 -86 -35 l-52 0 -18 -45 c-12 -32 -37
-63 -85 -106 -60 -53 -69 -66 -69 -95 l0 -34 -126 0 c-123 0 -127 1 -146 25
-27 34 -75 35 -88 0 -8 -21 -16 -24 -71 -27 l-61 -3 -18 -47 c-17 -45 -17 -47
4 -67 l20 -21 -132 0 -132 0 0 -67 c0 -67 0 -68 47 -115 l47 -48 -105 0 -105
0 -80 -143 -81 -144 123 -23 c68 -13 129 -27 135 -31 8 -5 -5 -38 -41 -106
l-53 -99 -1111 -12 c-611 -7 -1342 -15 -1623 -19 l-513 -6 -187 -143 -188
-143 -558 -1 -558 0 3 -27 3 -28 410 -5 410 -5 440 -262 c242 -144 454 -265
470 -269 17 -3 46 -16 65 -27 33 -21 33 -21 11 -27 -20 -5 57 -73 533 -476
503 -425 561 -472 599 -477 23 -3 155 -9 292 -13 l249 -7 123 -88 122 -88 243
-7 c134 -4 408 -3 609 1 l365 7 115 89 114 89 998 0 999 0 876 -181 877 -181
970 6 c534 3 1032 9 1108 12 l137 6 0 -106 0 -106 -75 0 -75 0 -25 -40 c-35
-55 -67 -55 -115 1 l-35 41 -320 -56 c-176 -31 -330 -58 -342 -61 l-23 -5 0
-270 c0 -149 1 -270 3 -270 1 -1 156 -29 344 -63 l341 -63 34 43 c46 59 76 58
115 -2 l28 -45 577 0 578 0 6 -27 c23 -104 15 -95 139 -161 l115 -62 905 0
c898 0 905 0 905 -20 0 -19 7 -20 150 -20 l150 0 0 -25 0 -25 388 0 389 0 11
25 12 25 1642 0 1643 0 1565 -140 c860 -76 1566 -138 1567 -136 2 2 57 147
121 322 l117 319 308 3 308 2 103 -213 c86 -178 107 -215 127 -219 13 -3 145
-87 293 -187 l269 -181 579 0 c505 0 579 -2 584 -15 5 -13 173 -15 1424 -15
1248 0 1419 2 1430 15 11 13 239 15 1942 15 l1929 0 362 184 362 185 4018 -1
4017 0 0 -203 0 -203 53 -6 c28 -3 498 -9 1044 -12 l992 -6 105 38 c104 38
106 40 106 70 l0 32 73 4 c39 3 73 4 75 3 1 -1 5 -31 9 -67 l6 -64 57 -37 c32
-21 79 -64 104 -97 l47 -60 147 0 147 0 38 66 c32 57 37 75 37 130 l0 64 725
0 725 0 0 30 c0 26 4 30 28 30 19 0 525 28 550 30 1 0 2 7 2 15 0 8 -1 15 -2
15 -12 2 -521 30 -545 30 -28 0 -33 4 -33 25 l0 25 -725 0 -725 0 0 155 c0
144 -2 159 -24 203 -13 26 -27 57 -30 70 l-7 22 235 0 c223 0 236 1 236 19 0
17 16 18 232 25 128 4 235 9 237 12 11 11 -16 14 -155 19 -257 10 -314 15
-314 31 0 12 -39 14 -230 14 l-230 0 0 165 0 165 -80 0 c-64 0 -80 3 -80 15 0
11 11 15 40 15 l40 0 0 275 0 275 -40 0 c-38 0 -40 2 -40 30 0 21 5 30 16 30
34 0 44 26 44 114 0 51 -4 86 -10 86 -6 0 -10 38 -10 95 0 88 -1 95 -20 95
-11 0 -20 5 -20 10 0 6 18 10 40 10 l40 0 0 300 c0 193 -4 300 -10 300 -6 0
-10 27 -10 60 0 47 3 60 15 60 12 0 15 16 15 80 l0 80 -45 0 c-45 0 -45 0 -45
35 0 31 3 35 25 35 16 0 25 6 25 15 0 12 13 15 55 15 42 0 55 3 55 15 0 13 38
15 280 15 232 0 280 2 280 14 0 11 44 15 230 21 127 4 230 11 230 15 0 11 -91
20 -200 20 -155 0 -260 11 -260 26 0 12 -61 14 -337 16 -186 0 -323 3 -305 5
29 4 32 7 32 39 0 31 -2 34 -30 34 l-30 0 0 170 0 170 -25 0 c-20 0 -25 5 -25
25 0 18 5 25 20 25 29 0 29 72 0 91 -14 10 -18 21 -14 36 5 18 14 23 40 23
l34 0 0 100 0 100 -25 0 c-18 0 -25 5 -25 19 0 25 45 61 76 61 17 0 24 6 24
19 0 20 -18 31 -51 31 -10 0 -19 5 -19 10 0 6 -13 10 -30 10 -20 0 -30 5 -30
15 0 13 -52 15 -406 15 l-405 0 -189 -100 -189 -100 -1225 0 -1226 0 0 -30 c0
-28 -3 -30 -35 -30 l-35 0 0 -85 c0 -69 3 -85 15 -85 12 0 15 -13 15 -60 0
-53 2 -60 20 -60 17 0 20 -7 20 -49 l0 -50 169 -118 168 -118 -678 -3 c-374
-1 -986 -1 -1362 0 l-682 3 100 70 100 71 3 152 c2 140 4 152 21 152 22 0 31
26 31 88 0 23 5 42 10 42 6 0 10 33 10 80 l0 80 -35 0 c-28 0 -35 4 -35 20 0
20 -7 20 -1387 20 l-1388 -1 -70 -64 -70 -65 -97 0 -98 0 0 40 0 40 -305 0
-305 0 0 -40 0 -41 -142 3 -143 3 -3 38 -3 37 -564 0 -564 0 -3 -37 -3 -38
-108 -3 -108 -3 -124 86 -124 85 -1433 0 -1433 0 -93 -148 -92 -149 -218 -6
c-119 -4 -406 -7 -637 -6 l-420 0 -106 167 -105 167 -1236 3 -1235 2 -46 -40
-45 -40 -966 0 c-959 0 -966 0 -966 -20 0 -20 -7 -20 -556 -20 l-556 0 -88 70
-88 70 -1251 0 c-1105 0 -1251 -2 -1251 -15 0 -12 -18 -15 -100 -15 l-100 0 0
-50 0 -49 58 -4 c31 -2 -474 -3 -1123 -4 -649 0 -1171 1 -1160 3 11 2 157 20
324 39 167 19 305 36 306 37 2 2 35 67 74 145 53 106 71 153 71 183 l0 40
-198 0 -199 0 -23 -25 -23 -25 -921 0 -920 0 -97 -75 c-54 -41 -100 -75 -103
-75 -3 0 -6 29 -6 65 l0 65 -60 0 -60 0 0 -70 c0 -40 -4 -70 -10 -70 -5 0 -10
16 -10 35 l0 35 -140 0 -140 0 0 35 0 35 -60 0 -59 0 -3 -67 -3 -68 -147 -3
-148 -3 0 71 0 70 -60 0 -60 0 0 -70 0 -70 -150 0 -150 0 0 70 0 70 -359 0
c-229 0 -362 -4 -366 -10 -4 -7 -420 -11 -1208 -12 l-1202 -2 1120 -7 c616 -4
1294 -10 1508 -14 l387 -8 0 -43 0 -44 -90 0 -90 0 0 35 0 35 -400 0 -400 0 0
-178 0 -178 348 -63 c191 -35 353 -66 360 -69 6 -2 12 -19 12 -38 0 -29 -4
-34 -23 -34 -13 0 -44 -13 -70 -30 -39 -25 -47 -35 -47 -60 0 -20 -5 -30 -15
-30 -11 0 -15 -11 -15 -40 l0 -40 -260 0 -260 0 0 30 0 30 -470 0 -470 0 0
-30 0 -30 -155 0 -155 0 0 95 0 95 -1070 0 -1070 0 0 -70 0 -70 223 -1 c122
-1 210 -4 195 -6 -20 -3 -28 -10 -28 -24 0 -18 -9 -19 -188 -19 -104 0 -223 3
-265 6 l-76 7 -18 68 -17 69 -177 0 -177 0 -46 62 c-33 44 -43 64 -34 69 7 4
47 15 89 24 l77 18 -55 104 c-30 56 -51 103 -46 104 4 0 87 12 184 27 l176 27
-80 143 -80 142 -1166 0 c-641 0 -1182 3 -1201 6 -28 5 -47 21 -97 83 l-61 76
174 3 174 2 0 85 c0 69 3 85 15 85 10 0 15 11 15 35 0 24 -5 35 -15 35 -19 0
-19 20 0 90 8 30 15 92 15 138 l0 82 -158 0 -158 0 -34 -35z m8920 -1265 c0
-6 -28 -9 -67 -8 l-68 1 50 7 c78 11 85 11 85 0z m-14 -90 c8 0 14 -7 14 -15
0 -13 213 -15 1860 -15 l1860 0 0 -60 0 -60 -1750 0 -1750 0 0 -165 0 -165
-25 0 -25 0 0 140 0 140 -130 0 -130 0 0 106 0 107 31 -7 c17 -3 38 -6 45 -6z
m-3426 -2265 l0 -105 -35 0 -35 0 0 105 0 105 35 0 35 0 0 -105z m670 0 l0
-105 -245 0 -245 0 0 105 0 105 245 0 245 0 0 -105z m29570 -68 l415 -143 3
-197 2 -197 -25 0 -25 0 0 -100 c0 -60 -4 -100 -10 -100 -5 0 -10 -20 -10 -45
0 -45 0 -45 35 -45 31 0 35 -3 35 -25 l0 -25 298 0 297 -1 -36 -22 c-36 -21
-37 -22 -41 -96 -5 -75 -6 -76 -52 -117 l-46 -42 0 -67 c0 -65 -1 -67 -22 -61
-13 3 -44 6 -70 6 -43 0 -47 2 -50 27 -3 24 -15 31 -103 68 l-100 42 -185 7
c-160 6 -494 47 -747 91 l-33 6 0 184 0 185 350 0 350 0 0 235 0 235 -350 0
-350 0 0 170 0 170 28 0 c15 0 214 -64 442 -143z m-28160 -597 c71 -3 950 -87
955 -91 3 -4 3 -36 -1 -73 l-7 -66 -98 0 -99 0 0 -50 0 -50 -902 0 -903 0 -50
28 c-34 18 -51 34 -53 50 l-3 22 323 0 323 0 220 59 220 58 3 99 3 99 27 -42
c15 -24 34 -43 42 -43z m4513 -69 c257 -32 470 -61 473 -64 3 -3 2 -25 -3 -49
l-9 -43 -515 -3 -514 -2 3 77 c1 43 5 93 8 111 5 30 7 32 47 32 23 -1 253 -27
510 -59z"/>
</g>
</svg>
