<?xml version="1.0" standalone="no"?>
<!DOCTYPE svg PUBLIC "-//W3C//DTD SVG 20010904//EN"
 "http://www.w3.org/TR/2001/REC-SVG-20010904/DTD/svg10.dtd">
<svg version="1.0" xmlns="http://www.w3.org/2000/svg"
   viewBox="0 0 2454.000000 3721.000000"
 preserveAspectRatio="xMidYMid meet">
<metadata>
Created by potrace 1.16, written by Peter Selinger 2001-2019
</metadata>
<g transform="translate(0.000000,3721.000000) scale(0.100000,-0.100000)"
fill="#000000" stroke="none">
<path d="M11232 35257 c-40 -1074 -73 -1993 -73 -2043 l1 -90 -291 -37 -290
-36 -53 -48 c-29 -26 -130 -109 -224 -183 l-171 -135 -1 -152 0 -151 217 -181
217 -181 223 0 223 0 0 -225 0 -225 -110 0 -110 0 -220 -110 c-164 -82 -229
-110 -258 -110 -21 0 -287 -33 -592 -74 l-555 -74 -515 -147 -515 -147 -521
-334 c-498 -320 -531 -343 -743 -520 l-221 -184 0 -220 0 -220 -100 0 c-79 0
-199 -16 -550 -75 -247 -41 -452 -75 -455 -75 -3 0 -5 -299 -5 -665 l0 -665
-507 0 -508 1 -193 -38 -192 -37 0 -371 0 -371 193 -37 192 -38 508 1 507 0 0
-479 0 -479 453 -151 452 -151 363 0 362 0 0 -72 1 -73 176 -105 c97 -58 184
-106 192 -108 9 -1 62 13 119 32 l103 35 1217 -184 1217 -185 408 0 407 0 0
-665 0 -665 -775 0 -775 0 0 -335 0 -335 -260 0 -259 0 -3 77 -3 76 -100 35
c-89 30 -137 38 -435 72 l-335 39 -950 -69 c-522 -39 -974 -72 -1002 -76 l-53
-5 0 -589 0 -588 93 -6 c249 -16 2056 -76 2292 -76 l270 0 113 75 c111 75 112
75 112 115 l0 40 260 0 260 0 0 -74 c0 -63 3 -75 18 -80 9 -2 89 -19 177 -36
134 -26 191 -43 348 -106 l187 -74 340 0 340 0 0 -665 0 -665 -115 0 -115 0 0
-75 0 -75 -1330 0 -1330 0 0 -75 0 -75 -110 0 -110 0 0 -110 0 -110 -75 0 -75
0 0 -370 0 -370 -665 0 -665 0 0 223 0 222 -148 74 c-130 65 -169 91 -332 221
l-185 148 -250 71 -250 71 -1505 0 -1505 0 -1020 -105 c-561 -58 -1035 -107
-1052 -110 l-33 -6 0 -627 0 -628 948 -32 c521 -18 986 -36 1035 -39 l87 -6 0
-1623 0 -1623 -32 -6 c-18 -3 -283 -34 -588 -70 -305 -35 -574 -67 -597 -70
l-43 -6 0 -479 c0 -447 1 -479 18 -484 77 -23 1263 -296 1285 -296 24 0 27 -3
27 -35 l0 -35 1480 0 1481 0 258 74 259 74 184 147 c161 130 201 156 331 221
l147 74 0 185 0 185 630 0 630 0 0 -110 0 -110 1016 0 1015 0 47 -32 c26 -18
151 -89 278 -158 127 -69 497 -287 822 -485 l592 -360 0 -407 0 -408 68 -34
67 -35 -142 -1 -143 0 0 73 0 72 -112 112 -113 111 -329 73 -329 73 -2181 -37
-2181 -36 -743 -223 -742 -222 2 -554 3 -555 740 -221 740 -222 2181 -37 2180
-37 329 110 330 110 112 112 113 113 0 72 0 73 295 0 295 0 0 -480 0 -480 -70
0 -70 0 0 -110 0 -110 -627 0 -627 0 -815 -111 -816 -111 -517 -259 -518 -259
0 -220 0 -220 -335 0 -335 0 0 35 c0 34 -3 37 -74 72 l-74 37 -1036 -74 -1036
-74 0 -257 0 -257 103 -6 c81 -5 2056 -76 2105 -76 7 0 12 15 12 40 l0 40 335
0 335 0 0 -187 1 -188 515 -294 516 -294 796 -108 797 -109 255 0 255 0 93
-185 92 -185 -293 0 -293 0 -37 -75 -37 -75 0 -260 0 -260 37 -75 37 -75 293
0 293 0 0 -185 0 -185 -37 0 c-37 -1 -41 -5 -145 -145 l-108 -145 0 -592 0
-593 145 -145 145 -145 -2 -695 -3 -694 -32 -10 -33 -9 0 -298 0 -299 35 0 35
0 0 -181 0 -181 40 -67 c32 -54 40 -77 40 -116 0 -48 2 -52 72 -122 l72 -73
-72 -73 c-63 -64 -72 -77 -72 -110 l0 -37 -113 0 -113 0 -74 75 -74 75 -296 0
-296 0 -37 -75 -37 -75 0 -255 0 -255 37 -75 37 -75 301 0 301 0 69 70 69 70
113 0 113 0 0 -38 c0 -62 51 -102 185 -146 l110 -36 295 0 296 0 74 -75 74
-75 181 0 181 0 74 75 74 75 373 0 c345 0 372 -1 377 -17 3 -10 35 -169 71
-353 36 -184 68 -343 71 -352 5 -16 24 -18 224 -18 200 0 219 2 224 18 3 9 35
168 71 352 36 184 68 343 71 353 4 14 17 17 77 17 95 1 347 64 442 112 39 19
121 52 183 73 l113 37 37 74 36 74 333 0 333 0 0 -35 0 -35 375 0 375 0 70 35
70 35 707 1 708 0 1000 73 c837 60 985 73 910 79 -49 4 -502 21 -1005 38
l-915 32 -77 38 -78 39 -403 0 -403 0 -39 -40 -39 -40 -178 0 -178 0 -78 39
-77 39 -365 36 c-201 20 -368 36 -372 36 -5 0 -8 -33 -8 -73 l0 -73 -330 37
c-182 20 -332 38 -334 40 -2 2 -19 36 -39 74 l-35 70 -103 34 c-57 18 -139 51
-181 72 l-78 39 -630 0 -630 0 0 480 0 480 38 0 c29 0 59 -15 142 -70 l105
-70 595 0 595 0 72 72 73 72 0 72 0 72 63 6 c171 16 1652 80 2582 111 793 27
1172 44 1550 71 275 19 507 36 515 37 8 1 -235 19 -540 40 -426 29 -794 46
-1585 72 -931 32 -2506 100 -2562 111 -21 4 -23 10 -23 77 l0 73 -75 37 -75
37 -588 0 -587 0 -112 -75 c-87 -58 -121 -75 -148 -75 l-35 0 0 480 0 480 365
0 365 0 70 35 70 35 1032 0 1033 0 705 35 c388 19 742 37 788 41 l82 6 0 33
c0 33 -1 34 -52 39 -29 3 -379 22 -778 41 l-725 35 -1038 0 -1037 0 -70 35
-70 35 -409 0 -409 0 36 110 36 109 39 3 39 3 74 184 c58 145 82 193 111 223
l37 38 333 0 333 0 0 35 c0 19 1 35 3 35 1 0 220 16 487 35 267 19 532 35 590
35 l105 1 -75 38 -75 39 -510 36 c-280 20 -513 36 -517 36 -5 0 -8 18 -8 40
l0 40 -225 0 -225 0 0 145 0 145 113 0 113 0 32 203 c18 111 36 210 38 220 5
15 19 17 112 17 l106 0 41 40 40 39 252 23 252 22 119 -23 119 -23 69 36 c53
27 63 35 44 36 -14 0 -211 34 -437 75 -394 72 -419 75 -563 75 -82 0 -150 3
-150 8 0 4 16 225 35 492 19 267 35 497 35 513 l0 27 487 0 488 0 440 146 440
146 178 177 179 176 79 157 79 158 0 480 0 480 -71 143 c-67 134 -83 155 -260
368 l-188 226 -446 112 -445 111 -591 0 -591 0 5 32 c3 18 20 200 38 403 18
204 33 371 35 373 1 2 85 -13 185 -33 l183 -37 543 108 c298 60 539 111 535
115 -4 3 -252 38 -552 77 -435 58 -571 72 -672 72 -71 0 -128 2 -128 5 0 8
136 230 205 333 l68 102 149 0 148 0 0 38 0 38 518 68 c284 37 527 71 540 75
13 3 -207 21 -490 39 -282 18 -525 36 -540 38 -24 5 -28 10 -28 40 l0 34 -70
0 c-38 0 -70 3 -70 6 0 3 82 120 182 260 l182 254 148 0 148 0 0 34 c0 24 5
36 18 40 9 2 234 35 500 73 283 40 473 71 460 74 -13 4 -238 22 -500 40 l-478
33 0 38 0 38 -75 0 -75 0 70 140 c38 77 70 142 70 145 0 3 -16 5 -35 5 l-35 0
0 115 0 115 39 0 40 0 73 220 73 220 887 0 888 0 0 220 0 220 295 0 295 0 0
185 0 185 148 0 147 0 700 369 700 369 3 260 2 259 38 6 c20 3 154 20 297 38
l260 32 147 73 148 74 255 0 255 0 80 40 80 40 325 0 325 0 80 -40 80 -40 430
0 c354 0 581 7 1273 40 463 22 884 42 935 46 l92 6 0 79 c0 43 -1 79 -2 80 -2
0 -419 11 -928 24 l-925 23 -104 36 -105 36 -333 0 -333 0 -70 -35 -70 -35
-340 0 -340 0 -70 35 -70 35 -260 0 -260 0 -148 74 -148 74 -286 36 c-157 20
-291 36 -297 36 -8 0 -11 78 -11 260 l0 260 -515 257 -515 258 0 150 0 150
328 109 c180 60 328 110 330 111 2 2 -114 153 -257 336 l-260 334 -369 294
-369 294 -394 108 -394 108 -316 41 -317 40 -1101 0 -1101 0 0 75 0 75 -220 0
c-169 0 -220 3 -220 13 1 56 70 1440 72 1442 2 2 120 -44 263 -101 l260 -104
298 0 299 0 403 -110 403 -110 1071 0 1071 0 0 -75 0 -75 1070 0 1070 0 0 40
c0 38 1 40 33 40 17 0 318 16 667 35 l635 36 112 74 113 75 290 0 290 0 80
-40 80 -40 690 0 691 0 157 39 c139 35 184 41 387 55 127 9 243 16 258 16 l27
0 0 163 0 164 -259 6 -258 6 -152 75 -151 76 -697 0 -698 0 -76 -76 -76 -76
-289 36 c-250 32 -305 42 -409 75 l-120 39 -590 31 c-324 18 -623 34 -662 38
l-73 6 0 33 c0 19 -1 35 -2 35 -2 1 -448 19 -993 40 l-990 38 -77 -36 c-77
-37 -78 -37 -78 -75 l0 -38 -260 0 -260 0 0 259 0 259 -333 185 c-320 178
-349 192 -777 370 l-445 185 -592 111 -592 111 -291 0 -290 0 0 445 0 445 -40
0 -40 0 0 145 0 145 260 0 260 0 0 -75 0 -75 775 0 775 0 0 -32 c0 -18 11 -67
24 -108 13 -41 29 -108 36 -147 10 -55 17 -73 29 -73 9 0 262 49 561 109 l545
110 475 183 475 184 218 182 c120 100 223 182 228 182 5 0 91 -33 192 -73 172
-69 217 -94 805 -440 343 -202 626 -367 628 -367 2 0 4 16 4 35 0 34 1 35 36
35 34 0 -2 31 -542 464 -341 273 -615 501 -667 553 l-88 90 73 146 c40 81 77
147 83 147 6 0 246 -79 534 -175 289 -96 526 -173 528 -171 2 2 -216 128 -484
281 -269 153 -493 282 -500 287 -15 12 124 298 145 298 7 0 265 -47 574 -105
308 -58 562 -104 563 -103 2 2 -239 100 -536 218 l-539 215 0 148 0 147 298 0
298 0 39 40 39 40 623 0 623 0 0 -40 0 -40 329 0 c317 0 341 1 686 40 197 22
394 40 439 41 l81 1 -99 34 c-95 32 -130 37 -775 109 -660 73 -682 75 -923 75
l-248 0 0 -39 0 -39 -37 4 c-21 3 -188 20 -371 38 l-333 33 -37 36 -37 37
-260 2 -259 3 -28 160 c-15 88 -27 170 -27 183 l-1 22 398 0 398 0 34 35 34
35 118 0 c115 0 120 -1 187 -35 l69 -34 1204 39 c662 22 1511 56 1888 75 377
19 700 35 718 35 30 0 32 2 32 35 0 21 -5 35 -12 35 -7 0 -373 18 -813 40
-440 22 -1298 56 -1907 75 l-1107 36 -70 -36 c-69 -34 -73 -35 -189 -35 l-118
0 -34 35 -34 35 -440 2 -441 3 -3 181 -2 181 -35 33 c-19 19 -35 37 -35 41 0
4 207 118 460 254 254 136 459 249 457 251 -2 2 -224 -59 -493 -136 -269 -77
-493 -140 -499 -140 -5 1 -92 133 -193 295 l-182 294 37 75 37 75 -147 220
c-123 185 -147 227 -147 258 0 20 -17 87 -37 149 l-36 111 470 614 c258 338
469 615 467 617 -2 3 -1125 -917 -1217 -996 -16 -15 -24 -13 -93 21 -44 22
-89 37 -110 37 -29 0 -94 33 -299 150 l-262 150 -76 0 -75 0 -514 220 -513
220 -73 0 -74 0 6 28 c24 115 206 1175 203 1178 -2 2 -99 -252 -216 -564
l-213 -568 -327 73 -326 73 -513 40 c-503 39 -523 40 -1003 40 l-489 0 0 -150
0 -150 -75 0 -75 0 0 -75 0 -75 -185 0 -185 0 0 75 0 75 -259 0 -259 0 -257
110 -257 110 -114 0 -114 0 0 225 0 225 227 0 228 0 177 177 178 178 0 118 0
119 -145 182 -146 182 -334 74 -335 74 0 148 0 148 41 0 41 0 -6 68 c-3 37
-36 886 -72 1887 -37 1001 -70 1823 -73 1827 -4 4 -39 -871 -79 -1945z"/>
</g>
</svg>
