<?xml version="1.0" standalone="no"?>
<!DOCTYPE svg PUBLIC "-//W3C//DTD SVG 20010904//EN"
 "http://www.w3.org/TR/2001/REC-SVG-20010904/DTD/svg10.dtd">
<svg version="1.0" xmlns="http://www.w3.org/2000/svg"
   viewBox="0 0 4168.000000 854.000000"
 preserveAspectRatio="xMidYMid meet">
<metadata>
Created by potrace 1.16, written by Peter Selinger 2001-2019
</metadata>
<g transform="translate(0.000000,854.000000) scale(0.100000,-0.100000)"
fill="#000000" stroke="none">
<path d="M25537 8487 l-45 -52 -148 -29 c-82 -16 -155 -31 -161 -34 -7 -2 -13
-17 -13 -33 0 -26 -3 -29 -34 -29 -28 0 -36 5 -44 29 l-10 28 -183 -33 c-101
-18 -253 -46 -336 -61 l-153 -27 0 -153 0 -153 170 0 170 0 0 -95 0 -95 -1631
0 -1631 0 -274 -112 c-243 -101 -274 -115 -274 -135 l0 -23 -306 0 c-286 0
-309 -1 -338 -19 -27 -17 -171 -32 -1131 -120 -605 -56 -1103 -101 -1107 -101
-5 0 -8 -75 -8 -167 0 -93 -3 -178 -6 -190 l-6 -23 -244 0 c-233 0 -244 -1
-256 -20 -12 -19 -24 -20 -263 -20 -239 0 -251 1 -263 20 -12 19 -23 20 -217
20 -194 0 -205 -1 -215 -20 -10 -19 -21 -20 -260 -20 -239 0 -250 1 -260 20
-10 19 -21 20 -215 20 -194 0 -205 -1 -217 -20 -12 -19 -24 -20 -263 -20 -239
0 -251 1 -263 20 -12 19 -23 20 -216 20 l-203 0 -67 -95 -67 -95 -1673 0
-1673 0 -11 -25 -12 -25 -2976 0 c-2816 0 -2978 -1 -3006 -17 -21 -13 -40 -41
-65 -95 l-36 -78 -277 0 -277 0 -144 -110 -144 -110 -354 0 c-238 0 -366 -4
-392 -12 -34 -10 -45 -22 -91 -100 l-52 -88 -146 1 c-80 1 -171 4 -204 8 l-58
6 -77 130 -77 130 -1016 3 -1016 2 -59 -80 -58 -79 -327 -1 -328 0 0 -1425 0
-1425 170 0 170 0 0 -308 0 -308 113 -37 113 -37 860 -12 860 -12 137 48 137
49 0 59 0 60 138 -7 c75 -3 148 -8 162 -11 14 -2 31 0 37 4 7 4 24 64 38 132
14 68 29 128 33 132 4 4 46 21 92 36 75 25 93 28 155 21 62 -6 72 -10 99 -40
16 -19 60 -66 97 -105 l68 -71 1523 -217 c1036 -148 1534 -222 1557 -234 l34
-17 -32 -12 -31 -13 0 -305 0 -305 36 -15 c27 -11 76 -15 195 -15 l159 0 0
-226 0 -225 37 -16 c34 -14 90 -15 496 -8 l459 7 58 -51 58 -51 2051 0 2051 0
0 -130 0 -130 3051 0 3050 0 70 55 c64 52 69 58 69 95 l0 40 1315 0 1315 0
136 -100 c124 -91 140 -100 180 -100 24 0 44 -1 44 -2 0 -2 -9 -25 -19 -53
l-19 -50 -561 -3 -561 -2 0 -205 0 -205 543 0 542 0 45 -128 46 -127 69 -24
c106 -36 230 -39 340 -10 48 12 93 28 100 35 6 7 31 67 55 133 l43 121 251 -2
251 -3 45 -125 45 -125 70 -24 c104 -35 238 -40 335 -11 41 12 82 23 92 26 10
3 33 50 64 135 l47 129 244 -2 245 -3 45 -125 c25 -69 46 -126 48 -128 1 -1
40 -13 86 -27 114 -33 224 -33 338 0 46 14 85 26 86 27 2 2 23 59 48 128 l45
125 384 3 383 2 23 -93 c13 -52 27 -111 33 -131 l10 -36 513 0 514 0 6 -31 c3
-17 6 -42 6 -55 l0 -24 953 0 c525 0 1015 -3 1090 -7 l137 -6 0 36 0 37 -829
0 -828 0 5 25 c4 23 8 25 62 25 l58 0 93 100 92 100 306 0 c168 0 633 3 1034
7 l727 6 0 44 0 43 -500 0 c-489 0 -500 0 -512 20 -13 20 -24 20 -510 20 -402
0 -498 3 -498 13 0 13 -347 97 -402 97 -26 0 -28 3 -28 39 0 46 10 42 -184 67
l-138 18 -72 57 c-39 31 -82 59 -95 60 -17 3 -28 16 -41 49 l-18 45 -157 0
-157 0 -20 -53 c-11 -28 -23 -52 -27 -52 -4 0 -41 25 -81 55 l-74 55 -166 0
c-92 0 -234 3 -317 6 l-150 7 -24 -67 -24 -66 -299 2 -300 3 -20 57 -21 58
-75 0 -75 0 60 40 60 40 625 0 625 0 118 96 117 96 0 134 0 133 647 535 647
536 142 0 c137 0 144 1 172 25 29 24 36 25 160 25 l129 0 254 210 253 210 126
0 125 1 415 344 415 344 170 0 170 1 -3 -242 -2 -243 87 -152 c73 -125 92
-152 113 -155 l25 -3 42 -430 42 -430 42 -37 42 -38 118 0 119 0 0 -105 0
-105 805 0 805 0 0 29 0 28 181 7 c120 5 192 13 215 22 32 14 35 18 32 51 -5
59 -36 71 -207 79 l-143 7 30 28 c17 16 32 33 34 39 5 16 156 30 331 30 l157
0 0 29 0 28 -92 7 c-50 3 -149 6 -220 6 -142 0 -158 6 -158 57 0 36 59 650 66
680 3 16 12 23 27 23 18 0 38 29 110 152 l87 151 0 243 0 244 51 0 c38 0 58 6
83 25 l33 25 548 0 548 0 33 -25 c24 -19 45 -25 81 -25 l48 0 -3 -237 -2 -238
91 -157 c78 -134 95 -158 115 -158 13 0 24 -1 24 -3 0 -18 81 -820 85 -844 4
-22 18 -41 47 -62 41 -30 45 -31 155 -31 l113 0 0 -105 0 -105 810 0 810 0 0
29 0 28 177 7 c214 9 253 20 253 72 0 55 -48 73 -215 81 -74 3 -135 8 -135 10
0 2 16 19 35 39 32 32 43 36 118 44 45 6 151 10 235 10 l152 0 0 29 0 28 -82
6 c-46 4 -144 7 -219 7 -118 0 -138 2 -152 18 -15 17 -14 44 18 367 19 193 35
355 35 362 0 6 12 13 26 15 22 3 40 26 116 157 l89 153 -3 239 -3 239 625 0
c344 0 635 3 648 6 19 6 22 13 22 55 l0 49 985 0 985 0 0 80 0 80 340 0 340 0
0 38 0 39 122 6 c66 4 150 7 185 7 l63 0 0 39 0 39 -184 7 -183 7 5 47 c2 25
5 47 6 48 1 1 72 5 157 8 201 8 199 8 199 49 l0 33 -112 6 c-62 4 -139 7 -170
7 -97 0 -88 -59 -88 560 l0 548 -22 15 c-23 16 -22 16 15 16 35 1 51 13 205
156 l167 155 160 0 160 0 40 -50 40 -50 132 0 132 0 3 68 3 67 53 3 c50 3 52
2 52 -24 l0 -26 68 6 c37 4 84 9 105 12 l37 6 0 128 0 127 -62 7 c-35 4 -82 9
-105 12 -41 6 -43 5 -43 -20 0 -25 -2 -26 -55 -26 l-55 0 0 45 0 45 -723 0
-724 0 -214 50 -214 50 -1117 0 -1117 0 -422 100 c-408 97 -426 100 -538 100
l-116 0 -23 65 c-21 56 -34 74 -99 132 l-75 67 -352 38 c-485 52 -674 52
-1145 3 -185 -20 -345 -38 -356 -40 -11 -3 -51 -32 -90 -65 -62 -53 -74 -69
-101 -138 l-32 -77 -652 -3 -653 -2 -168 120 -168 120 -109 0 -109 0 -188 200
-188 200 -69 0 c-60 0 -78 5 -148 40 -76 38 -84 40 -173 40 -52 0 -162 3 -245
7 l-152 6 0 113 0 112 63 35 c57 32 71 35 180 42 64 4 120 11 123 16 3 5 296
9 665 9 l659 0 0 25 0 25 398 0 c379 0 398 -1 430 -20 31 -19 50 -20 337 -20
l305 0 0 70 0 70 181 0 c148 0 184 -3 193 -15 9 -12 55 -15 256 -17 l245 -3
72 45 72 45 1 50 0 50 -82 52 -83 51 -190 32 c-104 17 -210 32 -235 31 -24 0
-294 28 -600 64 l-555 64 -210 -6 c-186 -5 -216 -9 -267 -29 -51 -20 -70 -22
-151 -17 -63 4 -96 10 -104 20 -9 12 -128 20 -635 43 -342 17 -649 30 -680 30
l-57 0 -93 104 -93 105 -255 0 c-166 1 -260 5 -267 12 -6 6 -127 12 -330 16
l-319 6 -48 74 -48 73 -74 0 c-41 0 -74 4 -74 9 0 5 -80 12 -177 16 -106 4
-194 13 -218 21 -32 11 -161 14 -663 14 -616 0 -624 0 -629 -20 -5 -19 -14
-20 -315 -20 -301 0 -310 1 -315 20 -5 20 -14 20 -858 20 l-853 0 -45 -53z"/>
</g>
</svg>
