<?xml version="1.0" standalone="no"?>
<!DOCTYPE svg PUBLIC "-//W3C//DTD SVG 20010904//EN"
 "http://www.w3.org/TR/2001/REC-SVG-20010904/DTD/svg10.dtd">
<svg version="1.0" xmlns="http://www.w3.org/2000/svg"
   viewBox="0 0 3301.000000 4265.000000"
 preserveAspectRatio="xMidYMid meet">
<metadata>
Created by potrace 1.16, written by Peter Selinger 2001-2019
</metadata>
<g transform="translate(0.000000,4265.000000) scale(0.100000,-0.100000)"
fill="#000000" stroke="none">
<path d="M13095 42610 c-55 -20 -166 -72 -247 -116 -146 -79 -147 -79 -273
-214 -191 -202 -334 -429 -638 -1005 -137 -258 -201 -371 -214 -373 -20 -3
-91 -148 -190 -388 -32 -77 -256 -614 -498 -1192 -389 -929 -443 -1052 -461
-1052 -25 0 51 172 -819 -1878 -422 -994 -523 -1224 -540 -1227 -11 -2 -108
-25 -215 -50 -181 -42 -197 -48 -229 -79 -29 -29 -35 -45 -46 -112 -7 -44 -10
-82 -6 -86 3 -3 66 -25 140 -49 l134 -43 -209 -43 c-208 -43 -209 -43 -246
-82 -31 -33 -37 -47 -44 -107 -5 -38 -9 -73 -9 -79 0 -5 77 -34 171 -65 l171
-55 -323 -684 c-178 -376 -325 -685 -327 -687 -10 -10 -724 57 -745 70 -6 3
-13 23 -17 44 -3 20 -9 42 -13 48 -5 7 -52 6 -152 -2 -80 -7 -161 -10 -180 -7
-19 3 -139 -7 -265 -22 -256 -29 -868 -153 -889 -179 -6 -8 -38 -31 -71 -52
-33 -21 -90 -66 -127 -102 -54 -52 -76 -66 -112 -73 -32 -6 -78 -31 -153 -83
-98 -69 -112 -82 -147 -145 l-39 -69 -341 -4 -341 -4 -602 -229 -603 -229 0
-156 0 -156 -952 -350 -953 -351 -19 -181 -20 -181 -205 -71 c-113 -39 -254
-87 -313 -108 l-107 -37 -65 -115 c-36 -63 -88 -176 -117 -250 -29 -74 -53
-137 -55 -139 -2 -2 -76 -21 -165 -42 -158 -38 -165 -41 -285 -115 l-124 -76
0 -131 0 -132 105 -158 c104 -156 106 -158 172 -190 l66 -32 -6 -121 c-6 -110
-5 -123 12 -138 24 -22 221 -32 781 -41 l395 -7 250 -252 c138 -138 306 -301
373 -361 124 -110 124 -110 258 -162 162 -62 499 -143 597 -143 35 0 126 -3
202 -7 l138 -6 -54 -17 c-36 -11 -53 -21 -51 -31 10 -43 164 -372 324 -695 69
-137 173 -352 233 -479 90 -192 117 -239 159 -283 28 -29 64 -61 79 -70 16 -9
49 -45 73 -79 36 -51 44 -69 44 -106 l0 -45 65 -16 c35 -9 75 -16 88 -16 13 0
68 -20 121 -46 l98 -45 193 -9 c161 -8 200 -7 228 5 38 16 107 10 107 -9 0 -7
94 -39 223 -75 423 -120 505 -160 677 -326 68 -65 249 -223 531 -462 8 -7 60
-26 115 -43 l99 -30 597 0 c559 0 597 -1 602 -17 3 -10 42 -198 86 -418 44
-220 86 -405 93 -412 6 -7 342 -261 746 -566 l733 -553 309 -580 309 -579 -34
-5 -34 -5 50 -86 c41 -69 59 -90 96 -110 42 -23 51 -36 158 -238 84 -156 112
-217 104 -226 -8 -9 20 -63 102 -201 l113 -189 242 -655 242 -656 -50 -258
-51 -259 -123 -326 c-133 -352 -175 -500 -175 -614 l0 -71 177 -297 178 -297
297 -122 298 -122 2 -371 3 -370 155 -46 c138 -42 155 -49 160 -71 6 -24 14
-26 350 -87 190 -34 354 -63 365 -63 14 0 37 25 75 83 l55 83 1300 -252 1300
-251 395 -178 c217 -98 401 -183 408 -188 6 -5 12 -25 12 -43 l0 -34 -232 -2
-232 -3 -34 -57 -34 -58 -774 0 -774 0 0 -34 0 -33 -137 -7 c-76 -3 -652 -9
-1280 -12 -876 -5 -1143 -10 -1143 -19 0 -15 529 -25 1400 -25 356 0 762 -3
903 -7 l257 -6 0 -43 0 -43 46 -3 46 -3 77 -185 c72 -173 79 -185 105 -188
l28 -4 -6 -76 -7 -77 1192 -1165 1191 -1165 626 -242 c344 -134 631 -248 638
-255 25 -27 2135 -3311 2130 -3316 -3 -3 -252 -15 -553 -28 -302 -13 -573 -27
-603 -32 -35 -5 -72 -19 -100 -39 -25 -16 -108 -51 -186 -77 -119 -39 -146
-52 -177 -84 -32 -32 -37 -44 -37 -84 0 -46 0 -46 -44 -57 -40 -10 -44 -14
-50 -48 -3 -21 -6 -97 -6 -170 l0 -132 48 -14 c47 -14 47 -14 50 -62 3 -37 11
-58 38 -90 32 -40 40 -44 178 -83 l145 -42 908 0 c499 0 914 -4 921 -9 11 -6
7 -70 -19 -338 l-31 -330 111 -159 112 -159 -55 -52 c-48 -45 -56 -57 -56 -89
0 -21 9 -48 21 -66 18 -25 19 -32 8 -43 -8 -7 -286 -197 -619 -421 -333 -225
-623 -425 -645 -445 -22 -19 -283 -203 -580 -408 -297 -205 -546 -379 -553
-386 -8 -7 -10 -15 -5 -18 4 -3 253 157 553 355 300 198 579 380 621 403 42
23 347 225 679 449 392 265 608 405 618 401 11 -4 -4 -20 -54 -55 -38 -27
-254 -181 -481 -342 -480 -342 -1059 -762 -1088 -791 -11 -10 -14 -18 -8 -16
21 7 687 456 1171 790 251 173 469 323 483 332 26 17 26 17 52 -22 39 -59 78
-63 160 -18 l63 34 419 -599 420 -599 97 -332 97 -332 46 -40 46 -40 -15 -36
c-8 -20 -13 -39 -10 -42 4 -3 -4 -21 -16 -39 -13 -18 -371 -382 -797 -809
-425 -426 -773 -781 -773 -787 0 -7 3 -12 6 -12 3 0 353 345 778 766 424 422
790 782 812 801 28 22 47 31 59 27 13 -5 -96 -120 -498 -523 -549 -550 -1267
-1289 -1267 -1304 0 -5 4 -7 9 -5 16 6 721 687 1278 1235 298 293 546 533 550
533 4 0 17 -7 27 -15 19 -14 16 -18 -55 -92 -244 -254 -546 -579 -562 -605
-14 -24 -389 -444 -540 -605 -17 -18 -27 -36 -23 -40 4 -4 136 125 294 287
158 161 298 300 313 309 14 9 167 165 339 348 272 289 316 331 332 322 14 -8
27 -5 53 11 l35 21 559 -440 560 -441 209 0 209 0 164 -209 c120 -154 170
-210 185 -210 12 -1 36 -17 53 -36 l30 -35 183 0 183 1 55 34 54 35 240 0 239
0 1138 -692 c1108 -673 1138 -692 1146 -727 8 -32 37 -58 282 -243 l273 -208
583 0 583 0 6 -24 c3 -12 39 -51 80 -85 l74 -61 346 0 346 0 81 -70 81 -70
337 0 c213 0 341 -4 347 -10 7 -7 228 -9 644 -8 l635 3 34 63 35 62 133 0
c131 0 133 0 133 22 0 13 -210 654 -467 1425 l-468 1402 -139 3 -139 3 -58
173 c-52 154 -63 180 -105 229 -27 32 -362 311 -773 644 l-725 589 -227 0
-228 0 -188 166 c-103 92 -192 170 -196 174 -4 4 37 44 93 89 55 45 100 88
100 95 0 7 -65 213 -145 457 -80 244 -145 450 -145 457 0 7 114 148 254 314
l253 302 -78 235 c-44 130 -79 237 -79 238 0 2 6 3 14 3 8 0 36 44 64 98 l49
97 -47 155 c-33 111 -51 156 -63 158 -11 2 -32 53 -72 177 -30 96 -58 181 -61
190 -4 10 0 15 10 15 9 0 16 1 16 3 0 1 -16 52 -34 112 -27 90 -37 111 -54
113 -17 3 -30 30 -73 160 -28 86 -54 163 -57 170 -2 6 4 12 13 12 10 0 15 6
12 12 -4 11 -46 151 -63 211 -3 9 -14 17 -24 17 -16 0 -40 62 -155 411 -74
226 -135 415 -135 420 0 5 27 9 60 9 33 0 60 3 60 8 -1 4 -72 223 -159 487
l-159 480 -33 5 -32 5 -65 193 -64 192 -33 0 -34 0 -29 92 c-26 85 -27 93 -11
96 15 3 13 15 -20 115 -30 88 -42 113 -58 115 -16 2 -40 66 -152 409 -73 223
-135 412 -138 419 -4 11 10 14 67 14 65 0 75 3 111 32 37 29 39 35 39 85 l0
53 40 0 c31 0 56 10 109 45 l68 46 6 202 c12 360 9 690 -7 735 l-14 40 45 6
c25 3 78 6 118 6 39 0 112 3 162 6 l90 7 7 180 7 180 110 219 c60 120 117 222
125 225 9 3 127 25 263 48 l246 41 3 155 c2 84 0 191 -3 236 l-7 82 -174 96
-175 95 -108 0 -107 0 -80 83 c-43 45 -136 142 -206 214 l-128 132 -295 43
-296 43 -19 65 c-11 36 -149 502 -307 1037 l-287 972 -508 283 -509 283 5 35
c3 19 8 130 11 245 3 116 8 228 11 251 l5 41 705 7 706 8 191 141 191 142 484
5 c460 5 483 6 465 22 -16 15 -72 20 -404 38 -211 11 -393 20 -405 20 -17 0
-20 5 -16 31 l5 32 1018 -8 c561 -4 1019 -4 1019 -1 0 3 -5 17 -12 31 -10 22
-17 25 -62 25 -85 0 -1723 49 -1843 56 l-113 6 0 29 0 29 -140 0 -140 0 0 -30
0 -30 -379 0 -379 0 -20 27 -20 28 -376 3 -375 3 -15 52 c-217 760 -737 2541
-745 2549 -9 10 -454 104 -821 173 -168 32 -309 61 -313 65 -4 3 0 112 8 241
l17 234 40 63 40 62 377 0 377 0 193 325 194 325 164 0 163 0 -16 25 c-15 24
-22 25 -108 26 -50 0 -107 3 -128 7 l-36 7 56 94 56 94 543 -5 c522 -5 542 -5
533 13 -14 24 -25 25 -553 48 -253 11 -461 21 -463 24 -2 2 28 77 67 168 l71
164 45 284 44 285 -16 98 c-10 65 -26 120 -46 161 l-31 63 44 329 45 330 -32
340 -33 340 -120 314 c-67 172 -129 323 -140 335 -10 11 -114 134 -229 271
l-210 250 -394 139 -394 140 -170 165 c-121 119 -197 203 -266 296 -157 211
-340 527 -512 884 -145 300 -161 328 -303 532 -147 212 -151 216 -314 364 -91
83 -228 203 -306 267 -127 105 -151 121 -245 159 -169 68 -252 89 -460 114
-107 13 -225 29 -262 35 l-67 12 0 299 0 299 410 0 c321 0 410 3 411 13 0 6 6
48 14 92 l14 80 -101 283 -102 282 -55 0 -56 0 -307 613 -306 612 -245 350
-245 350 29 36 c16 20 29 40 29 43 0 4 -37 50 -82 103 -97 114 -224 213 -272
213 -45 0 -1101 41 -1102 43 -1 1 -5 23 -8 50 -7 44 -6 47 16 47 54 1 54 4 19
202 -18 101 -35 193 -38 205 -5 20 -1 22 84 28 48 3 265 8 481 11 228 3 392 8
392 14 0 5 -6 12 -12 17 -11 6 -742 41 -904 42 l-62 1 -17 98 c-9 53 -19 107
-22 119 l-5 21 1159 -5 c961 -5 1159 -8 1166 -19 12 -21 190 -19 207 2 36 42
47 41 -1187 68 -971 22 -1177 29 -1207 41 -19 8 -63 15 -96 15 -33 0 -60 1
-60 3 0 2 -15 86 -34 188 l-34 184 -113 220 c-99 194 -216 398 -257 447 -7 9
-26 19 -40 23 -15 3 -84 24 -154 46 l-128 40 0 42 c0 37 -4 45 -35 66 l-35 24
0 286 0 286 -63 165 -63 165 -132 64 -132 65 0 103 0 103 40 0 40 0 0 103 0
103 -692 326 -693 327 -6 143 c-7 163 -25 242 -55 246 -10 1 -374 42 -809 91
l-789 90 -176 -108 -175 -107 -3 -182 -2 -182 -56 0 -56 0 -114 -105 -114
-105 -120 0 -120 0 0 204 0 204 -47 16 c-27 8 -121 38 -211 66 -89 28 -161 54
-158 58 2 4 14 40 26 81 l22 73 114 -4 115 -4 15 52 15 52 -101 320 c-55 175
-100 321 -100 324 0 3 31 13 68 22 l68 17 22 87 c12 48 25 97 28 108 5 19 -1
23 -60 35 -36 7 -71 16 -77 20 -9 5 -5 34 14 110 l26 103 -22 39 c-18 32 -39
47 -127 92 -58 29 -184 100 -281 157 -163 96 -174 105 -157 118 18 14 10 24
-136 162 l-154 148 -117 210 c-64 115 -121 225 -125 243 -5 17 -29 205 -53
417 -34 298 -43 402 -37 460 3 41 6 75 6 76 -1 1 -17 3 -36 6 -24 3 -65 -6
-135 -32z"/>
</g>
</svg>
