<?xml version="1.0" standalone="no"?>
<!DOCTYPE svg PUBLIC "-//W3C//DTD SVG 20010904//EN"
 "http://www.w3.org/TR/2001/REC-SVG-20010904/DTD/svg10.dtd">
<svg version="1.0" xmlns="http://www.w3.org/2000/svg"
   viewBox="0 0 4728.000000 548.000000"
 preserveAspectRatio="xMidYMid meet">
<metadata>
Created by potrace 1.16, written by Peter Selinger 2001-2019
</metadata>
<g transform="translate(0.000000,548.000000) scale(0.100000,-0.100000)"
fill="#000000" stroke="none">
<path d="M11825 5449 l-110 -26 -264 -173 -264 -174 -822 -81 -821 -82 -390
-220 -389 -220 -143 -174 c-79 -96 -153 -186 -165 -201 l-22 -26 -220 -12
c-327 -17 -3706 -321 -4325 -390 -294 -32 -656 -71 -805 -85 -148 -14 -282
-27 -296 -29 l-26 -5 -5 90 c-3 49 -8 92 -11 95 -6 6 -374 -14 -414 -22 -21
-4 -23 -10 -23 -63 l0 -58 -498 -82 c-273 -45 -505 -81 -514 -81 -14 0 -18 8
-18 35 0 24 -5 35 -14 35 -8 0 -151 -49 -318 -109 -373 -133 -428 -164 -519
-291 -47 -67 -59 -91 -59 -122 l0 -38 -128 0 c-121 0 -130 -1 -150 -23 -20
-21 -22 -34 -22 -124 0 -93 -2 -102 -20 -108 -47 -15 -51 -36 -48 -291 l3
-239 48 -31 c42 -28 61 -33 135 -38 48 -3 584 -13 1192 -21 608 -8 1174 -18
1257 -21 l153 -6 0 -348 0 -348 27 -6 c16 -3 455 -78 977 -166 l949 -160 1808
0 1809 0 0 50 0 50 375 0 c350 0 375 -1 375 -17 0 -15 51 -31 303 -96 l302
-78 3091 1 3091 0 72 -135 c40 -74 75 -135 77 -135 3 0 177 -31 387 -70 507
-92 843 -137 1622 -215 623 -62 716 -68 2275 -160 894 -53 1902 -109 2240
-125 l615 -30 3410 -25 3410 -26 3090 42 c1700 23 3091 42 3092 44 2 1 6 37 9
81 10 136 97 456 230 849 69 204 134 381 144 395 l20 25 0 -137 0 -138 495 0
c488 0 495 0 495 20 0 20 7 20 314 20 l314 0 26 34 26 35 0 320 c0 299 1 321
18 321 9 0 46 -5 82 -10 36 -5 281 -32 545 -60 l480 -52 570 21 c314 12 959
28 1435 36 476 8 1187 26 1580 40 393 13 1026 31 1405 40 380 8 841 20 1025
25 184 6 387 10 451 10 l116 0 9 -33 10 -32 114 3 c427 11 715 24 718 32 2 6
91 10 220 10 120 0 223 4 230 9 8 5 12 22 10 42 l-3 34 -227 3 c-141 1 -228 6
-228 12 0 6 -30 10 -68 10 l-68 0 10 80 9 80 128 0 129 0 0 355 0 355 -62 0
c-35 0 -93 3 -129 6 l-66 7 -11 205 c-6 113 -10 208 -8 209 2 2 49 -3 105 -12
57 -9 109 -14 116 -11 8 3 78 -6 157 -19 79 -14 146 -25 151 -25 4 0 7 24 7
54 l0 53 -137 22 c-76 12 -145 21 -155 21 -9 0 -18 5 -20 10 -2 6 -172 38
-378 70 -206 33 -387 63 -402 66 -24 5 -28 3 -28 -19 0 -24 -1 -24 -62 -15
-291 42 -1461 223 -2122 329 -446 71 -986 156 -1201 189 -214 33 -976 158
-1693 277 -716 119 -1305 213 -1309 209 -4 -3 -10 -54 -14 -112 l-6 -106 -146
-217 c-80 -119 -154 -224 -164 -233 -10 -9 -136 -91 -281 -182 l-262 -166
-3483 6 -3482 5 -755 56 -755 55 -1121 -8 -1121 -7 -6 83 c-3 45 -10 87 -17
94 -8 8 -202 13 -688 17 -592 4 -1838 41 -2159 63 -44 3 -303 -3 -575 -14
-307 -13 -543 -18 -625 -14 l-133 7 0 33 0 34 -1130 0 -1130 0 0 33 c0 17 -3
49 -6 70 l-7 37 -665 0 -666 0 -247 75 -247 75 -519 0 -518 0 -37 30 c-35 29
-50 32 -569 118 l-534 89 -7 49 c-19 118 -15 111 -77 148 -32 20 -68 36 -79
36 -11 0 -60 14 -108 31 -70 25 -96 29 -132 24 -41 -6 -47 -4 -78 26 -22 21
-32 39 -29 50 10 31 -61 75 -160 98 -235 54 -891 111 -921 81 -7 -7 -212 -14
-575 -20 -362 -5 -582 -13 -614 -20 -27 -7 -111 -31 -186 -55 l-136 -43 -184
10 -184 9 -285 94 c-157 52 -292 95 -301 95 -19 0 -33 55 -24 93 4 15 1 30 -8
38 -7 8 -16 28 -20 46 -5 27 -3 32 20 38 l26 6 -39 40 c-21 22 -68 57 -104 77
l-65 36 -515 8 c-283 4 -607 8 -720 10 -193 3 -213 2 -315 -23z"/>
</g>
</svg>
