<?xml version="1.0" standalone="no"?>
<!DOCTYPE svg PUBLIC "-//W3C//DTD SVG 20010904//EN"
 "http://www.w3.org/TR/2001/REC-SVG-20010904/DTD/svg10.dtd">
<svg version="1.0" xmlns="http://www.w3.org/2000/svg"
   viewBox="0 0 4628.000000 4396.000000"
 preserveAspectRatio="xMidYMid meet">
<metadata>
Created by potrace 1.16, written by Peter Selinger 2001-2019
</metadata>
<g transform="translate(0.000000,4396.000000) scale(0.100000,-0.100000)"
fill="#000000" stroke="none">
<path d="M37205 43939 l-810 -17 -750 -105 -750 -105 -508 -141 c-502 -140
-509 -142 -630 -207 -67 -36 -124 -67 -125 -69 -2 -2 -12 -40 -21 -84 -17 -79
-17 -83 4 -196 12 -64 25 -118 28 -121 3 -4 59 -26 124 -49 l118 -43 410 -38
c226 -20 411 -38 413 -40 4 -3 -19 -498 -23 -502 -2 -2 -399 -14 -882 -27
l-878 -23 -1015 -236 c-758 -176 -1162 -275 -1594 -392 l-579 -156 -233 -120
c-129 -66 -237 -125 -241 -131 -5 -7 -36 -131 -70 -277 l-61 -265 76 -187 76
-188 298 7 299 6 -40 -74 c-23 -41 -80 -146 -128 -235 l-87 -161 -550 -127
c-329 -76 -630 -152 -746 -188 -107 -33 -268 -82 -358 -108 -90 -27 -165 -50
-166 -52 -29 -37 -194 -352 -219 -420 l-35 -93 -663 -87 c-365 -48 -675 -87
-689 -87 -21 -1 -53 36 -204 234 l-179 235 -166 0 c-91 0 -482 5 -869 10
l-703 11 -907 -176 c-499 -97 -1256 -248 -1682 -336 l-775 -160 -483 -191
c-398 -158 -483 -195 -487 -212 -2 -12 -18 -183 -35 -381 -17 -198 -32 -361
-34 -362 -1 -2 -272 -96 -600 -209 -475 -164 -600 -203 -607 -193 -5 8 -9 37
-10 64 0 28 -10 117 -22 200 -17 112 -26 151 -37 153 -8 1 -893 -123 -1965
-277 l-1950 -280 -1212 -285 c-667 -156 -1217 -287 -1221 -290 -5 -3 -12 -58
-16 -122 -3 -65 -7 -119 -9 -120 -1 -2 -581 -73 -1287 -159 -707 -86 -1286
-158 -1288 -160 -1 -1 12 -245 31 -541 18 -297 33 -540 33 -541 -1 -1 -635
-22 -1410 -47 -774 -24 -1410 -47 -1413 -50 -3 -3 -12 -87 -20 -188 -9 -101
-17 -184 -18 -186 -1 -1 -362 -45 -801 -97 -886 -105 -5848 -707 -5851 -709
-3 -3 86 -728 89 -731 2 -1 86 -17 188 -34 102 -18 199 -36 215 -40 23 -6
2386 -1511 2417 -1540 7 -6 369 -1154 365 -1158 -1 -1 -83 -5 -182 -9 -170 -6
-205 -11 -649 -95 -257 -49 -470 -89 -472 -89 -2 0 -3 -503 -2 -1117 l3 -1118
470 -91 470 -92 1750 -61 1750 -61 190 -115 c105 -63 281 -158 392 -211 112
-54 202 -99 200 -100 -1 -2 -860 -37 -1907 -79 l-1905 -76 -415 -90 c-228 -50
-425 -93 -438 -96 l-22 -5 0 -1557 0 -1556 437 -93 438 -92 1969 -80 c1083
-44 1982 -80 1997 -80 26 0 32 -8 78 -105 48 -101 56 -111 232 -297 100 -106
185 -194 188 -195 3 -2 157 -26 341 -54 278 -42 379 -53 595 -64 143 -8 284
-14 313 -14 l52 -1 0 -375 0 -374 488 -161 487 -160 2243 0 c2132 0 2243 -1
2238 -17 -2 -10 -64 -313 -137 -673 l-132 -655 41 -200 c22 -110 40 -200 39
-201 -1 0 -317 -33 -702 -73 -385 -40 -717 -75 -738 -78 l-37 -6 0 -1113 0
-1113 43 -6 c204 -28 1376 -147 1500 -152 l157 -6 0 -1747 0 -1747 -40 -12
-40 -12 0 -2013 0 -2012 38 -10 37 -9 0 -1720 c0 -946 -3 -1837 -7 -1980 l-8
-260 1421 -197 1420 -198 4092 -262 c2251 -144 4093 -262 4094 -262 1 -1 29
-221 62 -490 34 -269 62 -490 64 -491 29 -18 3229 -1083 4597 -1530 1020 -334
2624 -858 3563 -1166 940 -307 1714 -559 1721 -559 6 0 401 910 876 2022 476
1112 870 2027 877 2033 8 8 71 14 188 17 97 3 177 7 179 9 1 2 191 483 421
1069 230 586 419 1066 420 1067 0 1 340 52 755 114 415 61 756 112 758 114 1
1 106 272 233 602 l230 599 696 315 696 314 738 2265 738 2265 617 2430 616
2430 373 1675 373 1675 276 1680 275 1680 145 1780 145 1780 -69 1620 -68
1620 -217 980 -218 980 -323 646 -323 647 -468 524 -468 524 -499 309 c-275
171 -528 327 -563 349 l-63 38 -732 112 -733 112 -198 426 -198 426 -80 304
c-136 516 -294 1051 -404 1374 -113 328 -337 941 -360 984 -8 14 -94 135 -192
269 l-178 245 -330 112 -330 112 -295 27 c-163 16 -300 33 -306 39 -9 8 -188
435 -239 567 -5 13 26 18 215 34 l220 18 -2 196 -3 196 -309 17 c-169 9 -312
20 -316 25 -4 4 -24 47 -44 96 -40 97 -47 157 -19 157 32 0 857 70 891 76 l32
5 0 194 c0 150 -3 195 -12 195 -68 -2 -868 44 -883 50 -11 5 347 9 807 9 l828
1 232 35 c128 19 238 37 245 40 7 2 83 58 171 125 l158 121 22 177 22 177 -39
153 c-21 84 -41 155 -43 156 -1 1 -70 28 -153 59 -132 50 -176 61 -364 92
-203 34 -250 38 -869 70 l-654 35 -151 85 -150 85 -121 -1 c-67 -1 -485 -10
-931 -20z"/>
</g>
</svg>
