<?xml version="1.0" standalone="no"?>
<!DOCTYPE svg PUBLIC "-//W3C//DTD SVG 20010904//EN"
 "http://www.w3.org/TR/2001/REC-SVG-20010904/DTD/svg10.dtd">
<svg version="1.0" xmlns="http://www.w3.org/2000/svg"
   viewBox="0 0 4333.000000 1524.000000"
 preserveAspectRatio="xMidYMid meet">
<metadata>
Created by potrace 1.16, written by Peter Selinger 2001-2019
</metadata>
<g transform="translate(0.000000,1524.000000) scale(0.100000,-0.100000)"
fill="#000000" stroke="none">
<path d="M10680 15182 c-729 -30 -1326 -55 -1326 -55 -1 -1 2 -94 7 -206 5
-112 8 -205 7 -207 -2 -1 -777 -156 -1722 -344 l-1718 -341 -417 -268 -416
-269 -3 -185 -2 -186 -78 -24 c-42 -13 -208 -63 -368 -113 l-292 -89 -11 -115
c-7 -63 -13 -115 -14 -116 -6 -5 -1798 -484 -1809 -484 -8 0 -34 41 -58 91
-25 50 -48 93 -52 95 -4 3 -328 -104 -720 -236 -626 -212 -722 -247 -796 -292
l-85 -51 7 -66 c3 -36 9 -264 13 -506 l6 -440 -404 -174 c-222 -96 -407 -177
-410 -180 -4 -3 -8 -404 -10 -891 l-4 -884 130 -26 c72 -14 363 -82 648 -151
l517 -124 10 -35 c6 -19 15 -120 21 -225 6 -104 13 -192 15 -194 4 -4 931 -33
1277 -40 l27 -1 0 -269 0 -268 -112 -52 -111 -52 8 -642 c4 -353 10 -687 14
-742 l6 -100 108 -30 107 -30 0 -358 c0 -289 3 -359 13 -363 8 -3 566 2 1241
11 675 8 1258 15 1295 15 l68 0 7 -233 c3 -127 9 -275 12 -327 l6 -95 740
-109 739 -108 322 -14 c177 -7 330 -13 340 -14 14 0 17 -9 17 -55 0 -65 -20
-62 215 -40 88 8 172 15 186 15 l26 0 13 -260 13 -260 85 0 c47 0 342 5 655
11 l570 11 141 -96 141 -96 750 -5 c413 -3 877 -7 1033 -10 l282 -5 0 44 0 45
53 5 c28 3 435 20 904 38 469 18 850 35 847 38 -3 3 -38 7 -77 10 -40 3 189
11 508 19 319 7 607 16 640 20 33 3 -516 16 -1220 29 -704 12 -1367 25 -1472
29 l-193 6 0 39 c0 35 2 38 28 38 109 -1 1450 32 1460 35 9 3 12 42 12 148 l0
144 140 8 140 7 0 89 c0 64 3 89 13 89 6 0 217 11 467 25 250 14 467 25 481
25 16 0 58 24 113 66 l88 66 621 12 c442 9 560 14 407 16 -118 2 -385 6 -593
9 l-377 6 55 43 55 43 0 318 0 318 143 6 c78 4 204 7 280 7 l138 0 -7 1379 -6
1379 873 7 c481 3 1599 4 2484 1 886 -2 1651 -5 1700 -5 50 0 279 -9 509 -20
l419 -20 38 -37 37 -36 1479 -93 1478 -93 45 42 c92 85 60 79 316 66 l229 -11
491 -167 492 -167 22 -130 c12 -71 27 -156 34 -189 l11 -58 320 -122 320 -122
9 -37 c5 -20 7 -40 3 -43 -4 -4 -551 -22 -1216 -40 -666 -18 -1241 -34 -1278
-36 -37 -2 427 -14 1032 -27 605 -13 1188 -26 1295 -30 l195 -6 -385 -17
c-212 -9 -968 -29 -1680 -45 -943 -20 -1256 -30 -1150 -35 80 -4 795 -16 1590
-28 795 -11 1495 -23 1556 -26 l111 -6 14 -45 14 -46 580 -177 580 -177 12
-224 c6 -123 23 -336 37 -474 14 -137 26 -254 26 -259 0 -5 -159 -6 -392 -2
l-391 7 6 -228 c4 -125 10 -297 13 -380 l7 -153 31 -4 c17 -3 195 -8 396 -11
201 -3 786 -14 1300 -23 525 -10 1226 -16 1599 -14 l664 3 -6 139 -5 140 204
0 c178 0 204 -2 204 -16 0 -13 53 -15 495 -12 l494 3 17 -70 c9 -38 20 -74 24
-78 4 -5 131 8 280 28 161 21 276 32 279 27 4 -5 237 23 561 69 549 78 567 80
1636 169 l1080 89 668 269 667 269 177 -112 c230 -145 732 -518 941 -698 263
-227 556 -501 699 -652 150 -160 624 -757 609 -767 -6 -4 7 -34 34 -75 24 -37
151 -232 281 -432 l237 -364 184 -191 c177 -183 194 -206 427 -536 133 -190
244 -347 246 -349 1 -2 24 8 49 22 l46 26 8 -22 c86 -222 194 -477 228 -537
59 -104 185 -395 192 -445 6 -37 16 -18 233 440 308 652 413 929 612 1616 199
685 303 1277 375 2134 40 463 50 829 39 1373 -8 397 -13 481 -53 912 -25 261
-54 527 -65 590 -11 63 -20 118 -20 122 0 4 -23 8 -52 10 l-52 3 -42 173 -41
172 74 0 c66 0 74 2 69 18 -82 286 -113 370 -344 928 l-249 602 -342 561 -343
560 -442 498 -443 498 -530 443 -530 443 -454 276 -454 277 -621 283 -620 283
-700 239 -699 239 -545 130 c-435 105 -650 150 -1067 227 l-522 95 -498 35
c-274 19 -519 35 -544 35 -42 0 -55 -7 -157 -83 l-110 -83 53 -32 c89 -54 273
-194 244 -187 -26 6 -26 6 -38 -85 -13 -91 -13 -91 -39 -86 -129 28 -1070 206
-1086 206 -11 0 -140 -25 -286 -56 -277 -58 -268 -55 -380 -136 -25 -18 -38
-17 -675 66 -566 74 -835 103 -2075 220 -784 75 -1439 138 -1456 140 l-30 4
-31 -299 c-17 -165 -33 -302 -36 -306 -7 -7 -6689 176 -6697 183 -3 3 -10 37
-17 76 -6 39 -16 75 -21 80 -5 5 -314 11 -729 15 l-720 6 -8 406 c-4 223 -8
407 -10 409 -1 1 -454 -4 -1006 -13 -552 -8 -1075 -15 -1162 -15 l-159 0 8
281 7 280 -2284 -2 -2284 -3 -1325 -54z"/>
</g>
</svg>
