<?xml version="1.0" standalone="no"?>
<!DOCTYPE svg PUBLIC "-//W3C//DTD SVG 20010904//EN"
 "http://www.w3.org/TR/2001/REC-SVG-20010904/DTD/svg10.dtd">
<svg version="1.0" xmlns="http://www.w3.org/2000/svg"
   viewBox="0 0 4553.000000 1188.000000"
 preserveAspectRatio="xMidYMid meet">
<metadata>
Created by potrace 1.16, written by Peter Selinger 2001-2019
</metadata>
<g transform="translate(0.000000,1188.000000) scale(0.100000,-0.100000)"
fill="#000000" stroke="none">
<path d="M34674 11865 c-19 -14 -18 -14 4 -15 l22 0 0 -905 0 -905 -937 0
-938 0 -45 -78 -46 -77 -119 -3 c-76 -2 -184 5 -292 18 -94 11 -174 20 -177
20 -3 0 -6 -27 -6 -60 0 -33 -1 -60 -2 -60 -2 0 -303 34 -671 75 -367 41 -673
75 -680 75 -7 0 -32 40 -56 88 l-43 89 -429 99 -429 99 -164 210 -164 210 401
3 401 2 727 -70 c788 -76 941 -83 1081 -53 l78 16 0 52 c0 46 -4 55 -39 89
-37 36 -42 38 -70 28 l-31 -11 0 60 0 59 -80 0 c-44 0 -80 4 -80 9 0 5 -13 14
-29 21 -33 13 -84 6 -101 -15 -10 -12 -74 -14 -374 -14 -319 1 -1360 -21
-5701 -116 -1260 -28 -2956 -97 -3310 -135 -133 -14 -3230 -220 -3317 -220 -5
0 -8 -11 -8 -25 0 -30 -26 -45 -78 -45 -34 0 -43 5 -66 38 l-26 39 -248 -47
c-136 -26 -263 -50 -282 -54 -34 -6 -36 -4 -59 39 -23 43 -25 45 -60 39 -35
-5 -37 -4 -64 45 -23 42 -32 50 -50 46 -12 -3 -371 -71 -797 -151 -624 -117
-778 -143 -795 -134 -17 9 -123 -8 -536 -84 -283 -53 -521 -100 -529 -104 -8
-5 -35 -67 -60 -138 l-46 -129 -510 -97 c-280 -53 -518 -97 -529 -98 -13 0
-66 49 -150 138 -71 75 -133 139 -138 141 -5 2 -348 -57 -763 -130 l-754 -134
0 -62 c0 -60 -1 -63 -24 -63 -32 0 -34 -3 -81 -144 l-40 -120 -775 -148 c-426
-81 -776 -148 -777 -148 -2 0 -16 26 -32 59 -21 41 -45 70 -81 96 l-50 37
-1983 -377 c-1090 -207 -2008 -382 -2039 -388 l-58 -11 0 -112 0 -112 -192
-36 c-106 -20 -341 -65 -521 -99 l-328 -63 -594 -634 -595 -634 0 -113 0 -113
-60 0 -60 0 -23 46 -22 47 -190 -7 c-104 -3 -437 -11 -740 -16 -302 -6 -587
-13 -631 -16 l-82 -6 -16 -42 -17 -43 -147 -8 c-133 -6 -153 -10 -217 -37
l-70 -31 -90 22 c-106 25 -138 26 -155 6 -11 -13 -76 -15 -476 -15 l-464 0 0
50 0 50 -159 0 c-88 0 -161 4 -163 8 -2 5 -74 35 -161 67 -86 32 -157 62 -157
67 0 15 -38 8 -44 -8 -3 -9 -6 -36 -6 -60 0 -32 4 -44 14 -44 21 0 107 -60
101 -70 -3 -5 -21 -6 -40 -3 -33 5 -35 4 -35 -21 0 -34 30 -60 77 -66 l37 -5
-57 -61 c-31 -34 -57 -68 -57 -75 0 -8 8 -24 18 -37 l18 -23 79 59 c71 53 87
60 140 65 64 6 95 -6 95 -37 0 -10 8 -16 23 -16 24 0 437 -302 421 -307 -5 -2
-151 -65 -324 -141 l-315 -138 -3 -77 -3 -77 54 0 c30 0 109 -3 176 -7 l122
-6 -3 -100 -3 -100 -362 -111 -363 -111 0 -421 0 -421 665 -1054 664 -1054
248 -77 c212 -66 259 -77 321 -78 l73 0 77 65 77 65 356 0 356 0 77 -115 76
-116 115 -504 c63 -278 115 -507 115 -510 0 -3 450 -5 999 -5 l999 0 363 61
364 61 747 -11 747 -12 38 25 38 26 297 0 298 0 -10 25 -10 25 301 0 301 0 64
68 c35 37 63 75 64 85 0 16 21 17 293 17 l293 0 44 45 44 45 453 0 453 0 0
-132 0 -133 120 -49 120 -50 0 -216 0 -216 246 -203 245 -203 2738 7 c2534 7
2738 7 2744 -9 6 -15 84 -16 950 -16 l943 0 26 63 26 62 86 3 86 3 40 -62 c22
-35 42 -64 44 -67 2 -2 260 114 573 257 l568 261 65 65 65 65 95 -5 c52 -3
215 -7 363 -10 l267 -5 0 30 0 30 80 0 80 0 0 -28 0 -29 113 -6 c61 -4 200 -7
308 -7 l196 0 437 400 437 400 1038 0 c614 0 1041 4 1047 9 12 12 225 18 243
7 14 -9 628 0 759 10 68 6 72 8 72 30 l0 24 -137 1 c-76 0 -262 4 -413 8 -172
6 -279 5 -287 -1 -7 -5 -54 -7 -115 -3 -57 3 -550 9 -1097 13 l-994 7 106 97
105 98 124 0 124 0 49 50 49 50 156 0 156 0 49 -50 49 -50 156 0 156 0 49 50
49 50 156 0 156 0 49 -50 49 -50 206 1 c194 1 210 2 290 28 67 21 86 31 88 47
3 20 9 21 370 27 202 4 560 7 796 7 373 0 430 2 440 15 10 13 70 16 424 22
380 6 412 5 412 -10 0 -21 -14 -21 540 -2 234 8 444 15 468 15 l42 0 0 64 0
65 -42 5 c-43 5 -813 26 -940 26 -63 0 -68 -2 -68 -22 l0 -21 -232 6 c-128 4
-315 7 -415 7 -169 0 -182 1 -188 19 -5 18 -35 19 -805 26 l-800 7 0 29 c0 27
-4 29 -99 59 -54 16 -119 30 -144 30 -41 0 -54 7 -139 72 l-93 73 -513 5 -512
5 179 163 c182 166 191 178 191 248 0 18 175 184 793 751 l792 728 61 5 62 5
243 223 244 222 1216 658 1215 658 905 27 904 28 70 74 70 74 163 -39 163 -40
241 135 241 135 132 0 c148 0 145 2 145 -80 0 -31 8 -42 56 -83 38 -32 65 -47
84 -47 16 0 42 -11 58 -25 l30 -25 992 0 992 0 30 25 c16 14 42 25 56 25 33 0
134 79 144 113 3 12 9 48 13 80 7 59 25 79 25 27 l0 -30 88 0 87 0 -3 -351 -4
-351 33 -34 33 -34 161 0 161 0 58 59 58 59 287 -6 286 -5 74 -62 73 -62 162
-8 c88 -4 316 -7 506 -6 l345 2 26 25 25 24 701 0 701 0 104 -181 103 -181
160 -117 c88 -64 165 -120 170 -123 6 -3 100 -25 209 -48 l200 -43 200 43 201
43 166 121 167 121 63 110 63 110 494 -3 c436 -3 496 -2 517 12 21 14 86 16
517 16 l493 0 63 -75 63 -75 77 0 c42 0 172 -5 287 -10 205 -9 219 -11 578
-85 202 -41 372 -75 377 -75 5 0 -52 119 -126 264 -74 144 -134 266 -134 270
0 3 347 6 771 6 l771 0 50 -40 51 -40 153 0 154 0 -6 -27 c-4 -16 -11 -38 -15
-51 -10 -27 -17 -25 131 -50 l115 -20 122 22 c67 11 123 23 124 26 2 3 -3 26
-10 53 l-14 47 -58 0 c-58 0 -59 1 -59 27 0 23 39 67 212 240 117 117 209 216
205 220 -4 4 -104 -89 -222 -207 -118 -118 -216 -212 -219 -209 -3 2 49 106
116 229 l120 225 4 80 c3 44 6 108 8 143 l4 62 -1674 0 -1674 0 -909 405 -909
405 -386 0 -386 0 -9 23 c-21 55 -76 80 -374 172 -284 89 -289 91 -352 143
l-63 52 -341 0 c-188 0 -341 3 -341 7 0 4 156 441 348 970 l347 963 56 0 56 0
7 177 c6 138 12 187 27 225 10 27 19 51 19 53 0 3 -907 5 -2015 5 l-2015 0 0
905 0 905 27 0 c26 0 26 1 7 15 -25 19 -85 19 -110 0z m-33467 -5715 l93 0 0
-89 0 -89 -37 -15 c-21 -8 -64 -27 -95 -41 l-57 -25 -173 125 c-95 69 -177
130 -183 136 -7 7 44 9 174 4 101 -3 226 -6 278 -6z m36345 -452 c64 -10 78
-16 78 -30 0 -17 -31 -18 -587 -18 l-587 0 29 30 29 30 480 0 c330 0 505 -4
558 -12z m246 -24 c12 -2 22 -9 22 -14 0 -6 -36 -10 -85 -10 -77 0 -85 2 -85
19 0 17 6 19 63 14 34 -2 72 -6 85 -9z"/>
</g>
</svg>
