<?xml version="1.0" standalone="no"?>
<!DOCTYPE svg PUBLIC "-//W3C//DTD SVG 20010904//EN"
 "http://www.w3.org/TR/2001/REC-SVG-20010904/DTD/svg10.dtd">
<svg version="1.0" xmlns="http://www.w3.org/2000/svg"
   viewBox="0 0 1806.000000 4808.000000"
 preserveAspectRatio="xMidYMid meet">
<metadata>
Created by potrace 1.16, written by Peter Selinger 2001-2019
</metadata>
<g transform="translate(0.000000,4808.000000) scale(0.100000,-0.100000)"
fill="#000000" stroke="none">
<path d="M1177 47757 c-102 -177 -262 -459 -357 -627 -95 -168 -196 -347 -225
-399 l-54 -94 23 -46 c12 -25 235 -496 496 -1046 l473 -1000 163 -115 c149
-105 163 -118 163 -145 0 -16 -15 -248 -32 -515 l-33 -485 21 -16 c11 -8 270
-194 575 -412 l555 -396 811 -688 812 -689 771 -890 c424 -489 766 -890 759
-892 -11 -2 -2113 227 -2228 243 -35 5 -36 3 -111 -103 -73 -103 -80 -117
-168 -361 -50 -140 -90 -255 -89 -257 2 -1 437 -275 968 -608 l965 -607 65
-148 65 -148 197 -88 c109 -49 198 -93 198 -100 0 -9 -257 -817 -274 -862 -4
-8 -14 -9 -39 -1 l-35 11 6 83 c3 52 1 84 -5 84 -5 0 -230 36 -499 80 l-490
80 -79 -23 -80 -23 -116 -374 c-64 -206 -114 -378 -110 -381 3 -4 223 -113
489 -243 l483 -236 59 40 c48 33 64 39 89 34 18 -4 33 -10 36 -14 2 -4 -86
-285 -195 -626 -110 -340 -200 -625 -200 -633 0 -8 272 -528 605 -1155 l604
-1142 -24 -77 c-14 -43 -25 -96 -25 -117 0 -26 -5 -40 -13 -40 -7 0 -208 41
-447 90 l-435 90 -890 96 -890 95 -455 8 c-408 7 -456 6 -468 -8 -12 -14 -87
-16 -730 -13 -438 2 -736 7 -767 13 -41 9 -107 4 -359 -25 -248 -29 -691 -99
-704 -110 -6 -7 18 -570 25 -576 4 -4 71 -29 148 -55 77 -26 318 -119 535
-206 l396 -159 189 10 c105 5 225 12 268 15 l77 5 0 -110 0 -110 -278 0 -278
0 -59 -60 -59 -60 -68 0 -68 0 0 -715 0 -715 68 0 68 0 59 -60 59 -60 133 0
133 0 0 -105 0 -105 -490 -245 -489 -245 -10 -37 c-5 -21 -17 -65 -26 -98 -8
-33 -51 -368 -95 -745 l-80 -685 25 -35 c96 -136 335 -434 346 -432 8 2 219
81 469 176 l455 174 205 31 c113 17 214 31 225 31 12 0 45 -24 75 -55 l54 -55
1976 0 1975 -1 -26 -22 c-21 -19 -59 -28 -235 -55 -115 -17 -263 -34 -329 -38
l-120 -6 -30 51 c-16 28 -34 51 -40 51 -5 0 -417 -45 -915 -100 -810 -90
-1013 -117 -1926 -251 l-1021 -149 -284 -91 c-156 -49 -367 -117 -469 -149
l-185 -59 -29 -193 c-39 -257 -177 -844 -249 -1051 l-54 -158 12 -65 c9 -51
19 -73 44 -97 l31 -32 603 -5 602 -5 1062 -501 c1028 -485 1068 -505 1251
-623 l189 -121 121 0 c110 0 122 -2 121 -17 0 -10 -63 -74 -140 -142 l-139
-125 0 -685 0 -686 440 -485 439 -485 0 -321 1 -321 74 -66 74 -67 84 -1 83 0
-134 -47 -133 -47 -29 -75 c-52 -134 -53 -144 -13 -251 20 -52 41 -99 47 -105
14 -13 154 -24 721 -56 l409 -23 20 -47 20 -48 52 0 53 0 872 -966 c480 -531
870 -967 868 -968 -1 -2 -38 -26 -81 -55 l-77 -52 -11 28 c-6 15 -17 44 -24
63 -7 19 -17 34 -21 33 -5 -1 -141 -47 -302 -103 l-293 -102 -102 47 c-56 26
-198 81 -317 122 l-215 76 -218 14 -219 14 -306 -62 -307 -62 -222 -107 c-206
-100 -236 -118 -435 -263 -184 -135 -237 -180 -386 -330 l-174 -174 10 -36
c10 -37 10 -37 -128 -219 l-138 -182 33 -26 c36 -27 145 -153 145 -167 0 -4
-84 -25 -188 -46 -103 -21 -217 -45 -254 -54 l-68 -15 -46 -145 c-40 -126 -45
-152 -39 -197 18 -143 10 -129 232 -369 113 -122 216 -233 229 -246 l23 -25
203 18 c112 9 218 20 236 23 l32 5 0 -93 0 -93 -78 -100 -77 -101 -7 -90 c-3
-49 -7 -168 -7 -263 l-1 -173 552 -594 552 -595 406 0 405 0 207 -207 208
-208 0 -414 0 -415 -135 -240 c-110 -195 -146 -251 -190 -291 -29 -27 -108
-126 -176 -220 l-122 -170 -69 -210 -68 -210 0 -223 c0 -224 0 -224 32 -329
l32 -106 -39 -75 c-22 -41 -44 -76 -50 -78 -5 -2 -73 5 -150 16 -76 10 -140
18 -140 17 -1 -1 -70 -136 -153 -299 l-151 -297 75 -160 76 -160 -468 -912
c-257 -502 -467 -920 -467 -929 1 -9 67 -224 147 -478 l146 -461 -336 -673
c-303 -606 -341 -676 -377 -703 -32 -24 -58 -66 -138 -220 -90 -172 -99 -194
-94 -230 5 -34 -9 -76 -90 -283 -52 -134 -95 -247 -95 -252 0 -4 6 -10 14 -13
10 -4 53 57 147 211 73 119 139 225 147 235 32 37 31 14 -4 -55 -30 -60 -35
-79 -30 -114 5 -36 -7 -72 -93 -288 -87 -215 -97 -247 -83 -255 13 -8 40 29
156 216 105 170 148 231 174 246 28 16 50 52 133 218 87 174 99 205 100 251 0
49 23 100 303 657 166 332 305 600 308 595 3 -5 29 -81 57 -170 l51 -160 -489
-975 c-448 -891 -493 -977 -535 -1015 -44 -38 -74 -100 -572 -1159 -490 -1044
-525 -1120 -508 -1132 10 -8 24 -12 31 -11 7 2 274 491 593 1087 520 972 580
1089 580 1130 1 25 7 62 13 81 7 19 220 445 472 945 l459 910 27 -85 26 -85
-615 -1227 c-504 -1008 -612 -1231 -602 -1243 10 -12 -16 -72 -139 -331 -83
-174 -151 -321 -151 -326 0 -5 10 -12 22 -17 21 -8 32 10 187 305 129 247 168
314 185 316 15 2 34 27 67 91 55 107 74 128 112 120 23 -4 26 -9 21 -27 -4
-11 -67 -153 -140 -314 -74 -161 -134 -297 -134 -302 0 -6 6 -10 13 -10 11 0
298 520 406 736 l50 101 -34 19 c-32 17 -35 17 -53 1 -23 -21 -72 -23 -72 -2
0 8 212 439 472 957 l472 943 15 -52 c10 -33 21 -53 31 -53 8 -1 78 -7 155
-14 77 -7 141 -13 141 -12 1 1 167 325 369 721 202 396 373 725 380 730 7 6
86 21 176 34 90 13 170 28 176 33 7 6 166 312 353 682 187 369 344 677 348
684 6 9 50 16 136 21 70 5 128 10 130 12 1 2 71 138 155 302 l152 299 -72 84
c-39 46 -75 87 -80 90 -5 3 5 32 21 64 l30 60 327 2 327 3 88 230 c49 127 109
283 134 348 l46 117 610 0 610 0 -7 -38 c-6 -39 -1 -48 214 -360 10 -15 140
-85 358 -192 337 -166 342 -168 347 -201 3 -19 8 -164 11 -324 l6 -290 -85
-505 -84 -505 -189 -615 c-142 -465 -187 -625 -185 -657 3 -41 5 -43 260 -257
141 -118 330 -278 420 -355 161 -140 163 -141 211 -141 l50 0 839 1137 839
1138 134 252 c74 138 135 250 136 249 2 -1 -110 -297 -247 -656 -138 -360
-250 -656 -250 -659 1 -8 415 -241 428 -241 6 0 33 31 62 70 29 38 57 70 63
70 7 1 179 296 384 658 355 628 392 700 853 1627 l482 970 433 1040 c437 1051
573 1402 672 1730 30 99 138 439 240 755 l185 575 24 180 c21 163 44 263 249
1055 225 873 226 878 435 1890 l209 1015 80 665 c92 767 124 1041 119 1045 -9
9 -269 36 -372 38 l-119 2 -107 -231 -108 -232 -69 -497 c-37 -274 -69 -491
-71 -482 -2 9 60 589 137 1289 l140 1273 35 978 35 978 -40 1102 c-22 634 -47
1198 -58 1327 -10 124 -18 226 -17 227 1 2 60 -163 130 -365 71 -202 149 -424
173 -494 l45 -128 158 -90 157 -90 189 10 c205 10 215 14 213 69 0 14 -17 361
-38 771 l-38 745 85 490 c56 327 89 493 98 500 12 8 -3 131 -96 785 -105 734
-119 816 -262 1550 l-150 775 -409 1470 -408 1470 -540 1470 -539 1470 -687
1399 -687 1400 -811 1325 c-804 1313 -993 1608 -1033 1604 -14 -1 -106 113
-354 440 -184 243 -351 460 -371 482 -65 73 -973 1239 -1009 1295 -19 30 -448
507 -954 1060 -800 876 -987 1074 -1453 1543 -294 295 -554 548 -577 562 l-42
24 -58 -39 c-69 -45 -616 -555 -616 -573 0 -10 495 -1380 546 -1512 13 -35
-14 -11 -203 175 -120 119 -424 397 -675 619 -487 428 -457 397 -485 511 -8
30 -55 72 -354 318 -476 391 -434 360 -512 371 l-66 9 -400 302 c-319 241
-401 307 -405 328 -3 15 -8 45 -11 67 l-6 40 -1029 678 -1028 677 -76 0 -76 0
-405 244 c-222 135 -412 249 -423 255 -18 10 -35 -16 -205 -312z m15460
-30944 c-3 -10 -5 -2 -5 17 0 19 2 27 5 18 2 -10 2 -26 0 -35z m-12 -85 c-7
-59 -24 -114 -25 -79 0 22 23 141 28 141 2 0 1 -28 -3 -62z m-12256 -12593
c-205 -406 -347 -676 -360 -684 -18 -13 -16 -5 15 57 27 54 36 84 36 122 0 46
27 103 308 665 l307 616 16 -53 16 -53 -338 -670z"/>
</g>
</svg>
