<?xml version="1.0" standalone="no"?>
<!DOCTYPE svg PUBLIC "-//W3C//DTD SVG 20010904//EN"
 "http://www.w3.org/TR/2001/REC-SVG-20010904/DTD/svg10.dtd">
<svg version="1.0" xmlns="http://www.w3.org/2000/svg"
   viewBox="0 0 4922.000000 911.000000"
 preserveAspectRatio="xMidYMid meet">
<metadata>
Created by potrace 1.16, written by Peter Selinger 2001-2019
</metadata>
<g transform="translate(0.000000,911.000000) scale(0.100000,-0.100000)"
fill="#000000" stroke="none">
<path d="M4012 8834 c-1 -154 -5 -383 -9 -507 l-6 -227 -251 0 -251 0 -139
-226 c-77 -125 -147 -235 -155 -244 -9 -11 -174 -75 -371 -146 -195 -70 -360
-131 -367 -136 -6 -5 -60 -100 -118 -211 -59 -111 -111 -206 -115 -211 -5 -5
-408 -91 -897 -191 l-888 -183 -222 -229 c-122 -125 -223 -234 -223 -240 0
-10 49 -13 210 -13 l210 0 0 -248 0 -249 59 -56 60 -57 85 0 86 0 0 -152 c0
-104 5 -168 15 -200 l14 -48 -42 0 c-40 0 -47 -5 -135 -93 l-92 -92 0 -1008 0
-1008 98 -109 97 -110 198 0 197 0 0 -105 0 -105 110 0 110 0 0 105 0 105 555
0 555 0 0 -370 0 -369 38 -10 c20 -6 129 -33 242 -61 l205 -50 763 0 762 0 0
-70 0 -70 -460 0 -460 0 -230 -56 -230 -56 0 -411 0 -412 238 -58 237 -57 522
0 522 0 11 -42 c6 -24 13 -48 15 -55 2 -6 61 -55 131 -107 l127 -96 519 0 518
0 0 -145 0 -145 780 0 780 0 0 145 0 145 573 0 572 0 98 98 97 97 0 453 0 452
287 -2 286 -3 67 -145 66 -145 715 -3 714 -2 147 267 147 268 465 3 465 2 134
-192 c153 -220 250 -318 365 -369 l64 -29 311 0 312 0 64 30 c112 53 214 157
363 372 l130 188 377 0 377 0 134 -193 c148 -213 240 -307 357 -366 l62 -31
315 0 314 0 65 31 c116 54 211 150 361 365 l131 189 396 3 396 2 132 -189
c150 -215 250 -318 362 -371 l64 -30 312 0 311 0 64 29 c115 51 212 149 365
369 l134 192 154 0 153 0 146 -209 c81 -115 154 -218 164 -230 l17 -21 973
230 973 231 657 504 657 505 4092 0 4093 0 0 -105 0 -105 110 0 110 0 0 105 0
105 200 0 199 0 101 112 100 113 0 102 0 103 535 0 535 0 0 -106 0 -105 97
-110 97 -109 198 0 198 0 0 -105 0 -105 110 0 110 0 0 105 0 105 6745 0 6745
0 0 -105 0 -105 110 0 110 0 0 105 0 105 199 0 199 0 96 107 95 108 1 161 0
161 63 7 c34 3 275 6 536 6 261 0 476 2 479 5 3 3 2 8 -2 13 -4 4 -247 9 -539
12 l-532 5 -3 388 -2 387 625 0 c410 0 625 3 625 10 0 7 -215 10 -625 10
l-625 0 0 429 0 428 -92 91 -93 92 -202 0 -203 0 0 35 0 35 -110 0 -110 0 0
-35 0 -35 -6745 0 -6745 0 0 35 0 35 -110 0 -110 0 0 -35 0 -35 -203 0 -202 0
-93 -93 -92 -92 0 -183 0 -182 -535 0 -535 0 0 184 0 184 -97 91 -98 90 -202
1 -203 0 0 35 0 35 -110 0 -110 0 0 -35 0 -35 -2075 0 -2074 0 -20 68 c-11 37
-28 99 -39 137 l-19 70 -56 3 -57 3 0 109 0 109 40 46 c37 43 40 51 40 106 l0
59 125 0 c118 0 125 1 125 20 0 13 -9 22 -27 26 -16 3 -34 7 -40 10 -9 2 -13
30 -13 93 l0 91 28 6 c47 10 52 13 52 31 0 14 -105 71 -435 236 l-435 217
-379 0 -378 0 -67 100 -66 100 -363 0 -363 0 -89 80 -90 80 -182 0 -183 0
-232 66 c-210 59 -236 69 -268 100 -35 34 -37 34 -125 34 -76 0 -114 7 -269
50 -272 76 -246 64 -246 116 0 42 -2 46 -47 74 l-48 30 -507 0 -507 0 -50 -31
-51 -32 0 -57 0 -56 -169 -47 c-168 -47 -170 -47 -325 -47 l-156 0 0 105 0
105 -47 30 -47 30 -506 0 -506 0 -47 -30 -47 -30 0 -107 0 -108 45 -28 c44
-26 51 -27 186 -27 l139 0 110 -55 110 -55 152 -1 153 -1 -217 -61 -218 -62 0
-122 0 -123 -370 0 -370 0 0 123 0 122 -938 263 -937 262 -165 0 -165 0 -937
-262 -938 -263 0 -172 0 -173 -370 0 -370 0 0 173 0 172 -943 263 -942 263
-165 -1 -165 -1 -935 -262 -935 -262 -3 -123 -3 -122 -364 0 -365 0 0 123 0
122 -290 80 -290 80 -37 93 c-30 74 -45 99 -73 118 l-35 24 -344 0 -345 0
-231 65 -232 65 -167 0 -167 0 -446 -125 -447 -125 -675 0 -676 0 -51 119 -52
119 709 3 708 4 51 50 c48 48 50 51 50 106 l0 57 159 4 c154 3 160 4 186 28
15 14 33 37 41 53 14 26 13 28 -13 39 -15 7 -29 13 -31 14 -12 8 55 88 83 100
56 23 58 39 12 110 l-41 64 -720 0 -721 0 -37 -60 -37 -60 -74 0 -74 0 -49
115 -49 115 -602 0 -603 0 0 28 c0 43 -17 52 -97 52 l-73 0 -1 318 c-1 174 -5
403 -8 507 l-7 190 -2 -281z m21768 -3669 l0 -105 -165 0 -165 0 0 105 0 105
165 0 165 0 0 -105z"/>
</g>
</svg>
