<?xml version="1.0" standalone="no"?>
<!DOCTYPE svg PUBLIC "-//W3C//DTD SVG 20010904//EN"
 "http://www.w3.org/TR/2001/REC-SVG-20010904/DTD/svg10.dtd">
<svg version="1.0" xmlns="http://www.w3.org/2000/svg"
   viewBox="0 0 3712.000000 536.000000"
 preserveAspectRatio="xMidYMid meet">
<metadata>
Created by potrace 1.16, written by Peter Selinger 2001-2019
</metadata>
<g transform="translate(0.000000,536.000000) scale(0.100000,-0.100000)"
fill="#000000" stroke="none">
<path d="M810 5350 c0 -6 180 -410 401 -897 220 -487 399 -887 396 -889 -2 -2
-287 15 -633 38 l-629 41 -60 59 -61 58 -112 0 -112 0 0 -93 0 -93 48 -47 48
-47 130 0 c134 0 154 5 154 42 0 10 2 18 5 18 26 0 634 -113 647 -120 10 -6
33 -10 51 -10 18 0 169 -25 336 -55 167 -30 307 -55 312 -55 5 0 9 -7 9 -16 0
-13 6 -15 28 -10 41 11 58 9 239 -26 l168 -33 1025 -5 1025 -5 -195 -150
c-106 -82 -200 -155 -208 -161 -12 -9 8 -45 115 -205 126 -189 283 -448 283
-466 0 -5 -87 -31 -193 -58 -105 -26 -195 -51 -200 -55 -4 -3 28 -19 70 -33
77 -27 80 -27 356 -27 l278 0 988 170 988 170 1344 0 1344 0 380 79 c209 44
416 89 460 100 76 21 96 21 415 15 l335 -6 1610 -234 c886 -129 1620 -237
1633 -239 18 -5 22 -12 22 -45 l0 -40 -71 0 c-68 0 -73 -2 -121 -40 l-51 -40
487 0 486 0 1347 -381 c1174 -331 1350 -379 1373 -369 25 10 34 35 121 308 51
163 102 309 113 325 15 20 28 27 53 27 28 0 35 -5 47 -34 15 -36 24 -41 96
-51 25 -4 120 -26 212 -51 92 -24 169 -44 172 -44 2 0 6 6 8 13 2 10 111 -12
438 -90 239 -57 442 -106 450 -109 12 -5 10 -8 -7 -16 l-22 -11 29 -58 c26
-50 35 -59 64 -65 66 -12 277 77 402 169 l61 45 264 -53 c145 -30 267 -50 272
-46 4 4 -79 39 -185 77 l-193 69 -3 80 -3 80 111 45 c61 24 115 49 119 55 5 5
50 90 102 187 l93 176 81 13 c130 20 726 7 940 -21 39 -5 1769 -365 3845 -800
2076 -435 4440 -930 5253 -1101 813 -170 1482 -307 1488 -304 5 4 9 21 9 40
l0 34 -72 16 c-40 8 -284 60 -543 113 -439 92 -470 100 -473 120 -3 19 1 22
28 22 41 0 29 20 -13 21 -31 2 -31 2 -4 6 33 5 26 23 -10 23 -19 0 -2467 513
-3710 778 -13 2 -23 -1 -23 -7 0 -6 8 -11 18 -12 11 0 12 -2 4 -6 -10 -4 -10
-8 -2 -18 7 -8 10 -22 8 -32 -3 -17 -64 -6 -766 141 -720 151 -763 161 -760
181 2 13 10 20 25 20 11 0 25 3 29 8 4 4 0 7 -9 7 -10 0 -14 5 -11 15 5 11 -1
15 -20 15 -19 0 -24 4 -19 16 3 10 13 14 25 11 12 -4 18 -1 15 6 -2 7 -28 15
-58 19 -149 19 -2248 427 -2894 563 -692 145 -752 159 -925 220 -102 36 -210
70 -240 76 -30 6 -71 20 -90 31 -35 19 -31 19 589 13 l625 -5 123 -72 124 -71
-66 -37 c-64 -36 -66 -38 -40 -44 15 -4 642 -7 1394 -7 751 1 2165 -3 3141 -9
976 -5 2565 -12 3530 -15 l1755 -6 780 -156 c429 -86 783 -159 787 -162 3 -3
17 -162 30 -353 13 -191 26 -349 29 -352 2 -2 428 -7 947 -11 l942 -7 0 260 0
261 42 40 42 39 50 -25 c39 -20 50 -22 57 -11 7 10 -16 25 -92 61 l-100 48 7
122 c3 67 9 158 13 202 l6 81 480 -152 480 -151 3 24 c2 14 2 26 0 27 -2 2
-217 72 -478 156 -261 85 -477 155 -479 157 -2 1 2 108 9 236 l13 234 296 7
c522 11 641 17 641 32 0 8 -8 14 -17 14 -10 0 -47 10 -83 21 -56 18 -120 23
-460 39 l-395 18 -370 96 c-203 53 -377 96 -385 96 -12 0 -15 8 -12 34 l4 34
-59 12 c-69 14 -508 108 -540 115 -23 5 -23 4 -23 -95 0 -55 -2 -100 -5 -100
-2 0 -120 14 -261 31 l-256 30 -177 134 c-181 136 -441 383 -441 418 0 15 16
17 133 17 72 0 830 11 1682 25 853 14 1576 25 1608 25 l57 0 0 50 0 50 -1740
0 c-1733 0 -1740 0 -1740 20 0 20 -7 20 -269 20 l-269 0 -44 49 c-70 80 -75
81 -432 81 -234 0 -364 -5 -525 -20 -198 -19 -226 -24 -354 -65 l-139 -45
-205 0 -205 0 -492 94 -491 94 -2530 32 c-2584 33 -2862 40 -3699 89 -392 23
-480 31 -487 43 -4 8 -16 24 -26 36 l-18 21 -179 -25 c-163 -22 -192 -23 -310
-14 -245 19 -332 30 -1658 210 -1047 142 -1351 180 -1438 180 l-110 0 -25 38
c-62 94 -194 112 -285 39 -9 -7 -26 -27 -39 -45 l-22 -32 -2397 0 c-2267 0
-2432 1 -3032 21 -349 12 -636 26 -638 30 -2 5 -30 6 -62 2 l-58 -6 -194 110
-193 110 -430 32 c-236 17 -444 31 -462 31 -24 0 -102 -41 -287 -150 -238
-141 -257 -150 -305 -150 -39 0 -51 4 -51 15 0 8 -7 15 -15 15 -8 0 -15 -8
-15 -18 0 -17 -18 -19 -217 -30 -266 -15 -383 -39 -468 -97 l-54 -38 -2433
-503 -2432 -504 -1088 0 -1088 0 0 45 0 45 -295 0 -295 0 0 -45 0 -45 -347 0
c-381 0 -514 6 -507 24 3 8 -44 10 -164 8 l-168 -4 -430 903 c-237 497 -436
905 -442 907 -7 2 -12 -2 -12 -8z m11695 -2810 c895 -22 874 -21 1165 -57
l215 -26 50 -48 c35 -34 59 -49 78 -49 24 0 27 -4 27 -35 0 -30 -4 -35 -27
-40 -54 -11 -137 -42 -141 -53 -1 -5 5 -12 15 -15 11 -3 6 -5 -12 -6 -25 -1
-2362 336 -2445 352 -14 3 45 3 130 1 85 -3 511 -13 945 -24z"/>
</g>
</svg>
