<?xml version="1.0" standalone="no"?>
<!DOCTYPE svg PUBLIC "-//W3C//DTD SVG 20010904//EN"
 "http://www.w3.org/TR/2001/REC-SVG-20010904/DTD/svg10.dtd">
<svg version="1.0" xmlns="http://www.w3.org/2000/svg"
   viewBox="0 0 4248.000000 1780.000000"
 preserveAspectRatio="xMidYMid meet">
<metadata>
Created by potrace 1.16, written by Peter Selinger 2001-2019
</metadata>
<g transform="translate(0.000000,1780.000000) scale(0.100000,-0.100000)"
fill="#000000" stroke="none">
<path d="M11254 17790 c-17 -6 -29 -35 -57 -139 -42 -148 -44 -167 -19 -173 9
-3 667 -186 1462 -408 905 -253 1449 -410 1457 -419 8 -11 8 -20 1 -28 -6 -7
-8 -26 -6 -43 4 -25 1 -31 -16 -36 -53 -12 -1131 -214 -1146 -214 -11 0 -37
29 -66 74 l-49 74 -28 -16 c-32 -19 -32 -28 1 -108 l20 -50 -1231 -233 c-678
-128 -1245 -236 -1260 -238 -23 -5 -84 -72 -299 -332 -149 -179 -278 -334
-287 -343 -12 -12 -415 -92 -1576 -311 l-1560 -295 -1370 -27 c-753 -14 -1696
-32 -2095 -40 -399 -8 -1165 -22 -1703 -31 l-978 -16 -74 31 c-41 17 -82 31
-92 31 -10 0 -54 23 -99 50 -45 28 -104 57 -131 65 -57 18 -53 17 -53 6 0 -5
50 -39 111 -76 60 -37 132 -89 159 -117 l48 -49 -134 -305 -134 -305 0 -312 0
-312 632 -390 632 -390 75 -5 c47 -3 76 -10 79 -17 2 -7 -3 -13 -10 -13 -8 0
-30 -16 -48 -35 -19 -20 -96 -75 -172 -122 -99 -62 -135 -90 -131 -100 5 -12
17 -14 53 -10 35 4 77 25 172 84 69 44 153 90 187 103 33 14 61 28 61 32 0 5
158 8 350 8 l350 0 0 -30 0 -30 -205 0 -205 0 0 -654 0 -655 150 -228 150
-229 0 -492 0 -492 1168 -1 1167 0 90 -114 90 -114 235 0 236 -1 153 -160 153
-160 981 0 982 0 3275 -206 3275 -206 1496 -679 c1208 -548 1504 -679 1538
-679 47 0 49 -6 31 -100 -11 -56 -6 -67 74 -172 11 -15 91 -30 417 -78 222
-33 415 -62 427 -65 23 -6 24 -8 16 -68 -4 -34 -8 -77 -9 -96 l0 -35 150 -22
c83 -13 153 -20 157 -16 5 5 13 45 20 91 6 46 17 85 23 87 10 4 1054 -146
1123 -161 12 -3 22 -9 22 -13 0 -5 298 -453 661 -998 l662 -989 194 -416 194
-415 2297 -969 c1263 -532 2300 -971 2305 -975 4 -3 -186 -80 -423 -171 l-430
-164 0 -482 0 -483 2664 0 2665 0 3 29 c3 28 5 27 138 -85 l135 -113 433 0
432 -1 0 -140 0 -140 735 0 735 0 0 340 0 340 1275 0 c875 0 1275 3 1275 10 0
6 -54 190 -120 410 -66 220 -120 404 -120 410 0 7 190 10 595 10 l595 0 0
-120 0 -120 1903 0 1902 0 319 -171 c175 -94 321 -167 326 -163 4 5 228 421
499 925 482 899 491 917 491 972 0 32 4 57 8 57 5 0 68 -15 141 -34 l133 -35
13 32 c20 48 375 1040 378 1055 1 10 -75 41 -245 101 -136 48 -249 89 -252 92
-3 3 5 34 19 69 14 35 25 70 25 77 0 7 -16 21 -36 30 -32 16 -35 21 -30 48 l5
30 -792 457 c-863 498 -1547 885 -1753 993 l-132 69 -43 -18 c-24 -9 -64 -28
-89 -42 -25 -13 -100 -52 -167 -86 -67 -34 -124 -69 -126 -77 -4 -16 -202
-144 -223 -144 -6 0 -355 193 -775 430 -420 237 -774 435 -785 441 -21 11 -23
7 -54 -121 -18 -72 -37 -140 -42 -149 -8 -16 -27 -18 -188 -18 l-178 0 -106
-112 -105 -113 -272 139 -272 139 -83 -15 c-46 -8 -84 -13 -84 -11 0 2 10 21
22 42 l22 39 -55 142 -55 142 -1114 568 c-997 509 -1143 581 -1396 684 l-282
116 -116 0 -116 0 25 48 c14 26 35 73 46 105 l20 57 272 1 c150 0 1096 8 2102
17 l1830 17 3 83 3 82 -183 0 c-101 0 -955 -7 -1898 -15 -943 -9 -1794 -15
-1891 -13 l-176 3 31 85 32 85 201 5 c111 3 204 8 207 11 4 3 17 37 30 75 17
51 28 70 42 72 16 2 46 75 162 386 139 376 142 385 142 464 l0 80 -176 171
c-97 94 -180 171 -185 171 -5 0 -15 -10 -23 -23 -7 -12 -146 -315 -307 -674
-161 -358 -294 -651 -296 -650 -1 1 73 249 163 551 l165 548 -35 45 c-34 43
-35 47 -22 77 24 55 167 371 170 373 1 1 39 -4 84 -11 81 -13 82 -13 87 8 3
11 16 95 29 185 14 89 27 165 30 168 2 3 82 -7 177 -21 95 -15 176 -23 180
-19 10 10 113 712 106 719 -2 3 -83 17 -178 31 -96 14 -175 27 -177 28 -1 1
34 246 79 544 l81 543 -29 39 c-63 89 -86 79 181 79 l236 0 0 100 0 100 -536
0 c-531 0 -536 0 -531 20 3 11 2 22 -2 25 -11 6 -264 45 -295 45 -20 0 -26 -5
-26 -22 0 -13 -3 -33 -6 -45 -6 -23 -9 -23 -173 -23 -164 0 -181 2 -1397 184
l-1230 184 -336 99 -337 98 335 3 334 2 0 25 0 25 -427 0 -428 0 -212 61 -213
62 0 264 c0 227 -2 263 -15 263 -13 0 -15 44 -15 340 l0 340 -45 0 -45 0 0
-80 0 -80 -782 0 c-703 1 -792 3 -868 18 l-84 18 52 21 c29 12 52 26 52 31 0
13 -80 195 -91 206 -13 14 -389 -153 -382 -170 3 -8 2 -14 -2 -14 -4 0 -503
99 -1109 220 -605 121 -2566 503 -4356 850 -1790 346 -3264 632 -3275 635 -11
4 -91 85 -177 181 l-158 174 -68 -62 -68 -63 153 -184 c84 -102 153 -187 153
-191 0 -3 -87 -16 -192 -29 -106 -12 -200 -24 -209 -27 -13 -4 -18 12 -28 98
-12 103 -13 103 -48 124 l-35 20 -175 -22 c-166 -21 -177 -24 -203 -51 -30
-30 -30 -24 -5 -195 5 -35 3 -38 -19 -38 -29 0 -32 9 -42 105 -8 83 -15 100
-54 120 -27 14 -46 13 -202 -6 -162 -20 -175 -23 -202 -49 l-29 -28 13 -97
c10 -81 9 -99 -2 -106 -30 -20 -36 -8 -48 95 l-13 104 -39 18 c-37 17 -45 17
-210 -4 -161 -20 -174 -23 -200 -49 l-28 -28 13 -103 13 -102 -26 0 c-26 0
-27 3 -34 68 -12 119 -15 130 -52 151 -33 20 -34 20 -206 -1 -163 -20 -175
-23 -202 -49 l-30 -28 12 -98 c7 -64 8 -99 1 -104 -5 -3 -60 -11 -122 -18 -62
-7 -121 -15 -133 -18 -20 -4 -22 2 -39 171 -15 147 -21 176 -34 176 -9 0 -93
-15 -188 -33 l-171 -33 -13 82 -12 83 59 53 c32 29 85 78 117 108 l58 55 10
95 c9 81 8 109 -8 190 -19 94 -19 95 -47 92 -24 -3 -27 0 -21 19 24 74 45 157
45 175 0 17 -12 24 -72 42 -386 110 -2969 822 -2984 821 -10 0 -28 -4 -40 -9z"/>
</g>
</svg>
