<?xml version="1.0" standalone="no"?>
<!DOCTYPE svg PUBLIC "-//W3C//DTD SVG 20010904//EN"
 "http://www.w3.org/TR/2001/REC-SVG-20010904/DTD/svg10.dtd">
<svg version="1.0" xmlns="http://www.w3.org/2000/svg"
   viewBox="0 0 3465.000000 3796.000000"
 preserveAspectRatio="xMidYMid meet">
<metadata>
Created by potrace 1.16, written by Peter Selinger 2001-2019
</metadata>
<g transform="translate(0.000000,3796.000000) scale(0.100000,-0.100000)"
fill="#000000" stroke="none">
<path d="M10578 37773 l-647 -186 -1508 -2918 -1508 -2918 -757 -1 -758 0 0
-62 c0 -58 -7 -77 -76 -223 -42 -88 -82 -175 -89 -192 l-14 -33 -200 130 -200
130 -869 0 c-829 0 -870 -1 -885 -18 -10 -10 -17 -33 -17 -50 l0 -32 -565 0
-565 0 0 -104 0 -104 175 -131 c156 -117 179 -131 215 -131 l40 0 0 -595 0
-594 -245 -260 -245 -259 0 -231 0 -231 245 0 245 0 0 -290 0 -290 -325 0
-325 0 0 -50 0 -50 -850 0 -850 0 0 -265 0 -265 850 0 850 0 0 -689 0 -689
-120 -113 -120 -112 0 -304 0 -303 -730 0 -730 0 0 -260 0 -260 850 0 850 0 0
-65 0 -65 147 0 148 0 1495 -1494 1495 -1494 149 -61 149 -61 1444 0 1444 0
502 -483 c3241 -3118 3914 -3765 3923 -3778 7 -8 59 -141 117 -296 l105 -283
-469 0 -469 0 0 -1285 c0 -707 4 -1285 8 -1285 5 0 1320 -173 2923 -385 1603
-211 3256 -425 3675 -474 l760 -90 1785 -877 1786 -877 634 -1325 c396 -828
642 -1329 654 -1337 11 -7 313 -144 671 -305 l652 -294 179 -410 c99 -226 847
-1942 1663 -3814 1217 -2792 1487 -3403 1504 -3407 49 -12 3561 -572 3565
-569 2 2 -983 3643 -2189 8092 l-2193 8088 -369 282 -368 282 -814 0 -814 0
-598 865 -598 865 -108 0 -108 0 0 500 0 500 131 0 130 0 149 61 c82 34 153
66 158 73 5 6 67 197 138 424 l128 412 543 0 543 0 0 378 0 377 -170 177 -170
177 0 671 0 670 -83 0 -83 0 -62 63 -62 63 0 615 0 615 63 62 63 62 82 0 82 0
0 375 0 375 -395 0 -395 0 0 55 0 55 -565 2 -565 3 245 347 c202 285 250 347
273 352 15 3 479 64 1032 136 l1005 130 3400 114 3400 114 104 58 104 59 214
325 c117 179 219 325 226 324 6 0 44 -4 84 -7 68 -7 72 -6 79 15 3 13 48 129
99 258 72 182 144 336 319 679 125 245 223 447 219 451 -5 4 -204 92 -443 197
-379 167 -518 221 -1085 426 l-650 235 -780 197 c-694 175 -890 219 -1780 406
-1444 303 -3832 740 -6575 1203 l-1985 336 -925 114 c-826 103 -1033 125
-1930 205 -891 79 -1040 90 -1315 96 -170 4 -311 8 -312 9 -1 1 -453 1280
-1004 2842 -551 1561 -1003 2840 -1004 2841 -1 2 -263 59 -583 128 l-581 125
-1233 -1 -1233 0 -647 -186z m-9275 -9880 c-194 -2 -512 -2 -705 0 -194 1 -36
2 352 2 388 0 546 -1 353 -2z m347 -168 l0 -45 -700 0 -700 0 0 45 0 45 700 0
700 0 0 -45z m-190 -2555 l0 -50 -605 0 -605 0 0 50 0 50 605 0 605 0 0 -50z
m190 -170 c0 -7 -240 -10 -700 -10 -460 0 -700 3 -700 10 0 7 240 10 700 10
460 0 700 -3 700 -10z m3307 -677 l1063 -368 0 -155 0 -155 838 -805 839 -805
-1206 -3 -1206 -2 -1330 1330 -1330 1330 635 0 635 0 1062 -367z m19652 -3885
c0 -7 -37 -125 -82 -263 l-83 -250 -132 -3 -132 -3 0 266 0 265 215 0 c166 0
215 -3 214 -12z"/>
</g>
</svg>
