<?xml version="1.0" standalone="no"?>
<!DOCTYPE svg PUBLIC "-//W3C//DTD SVG 20010904//EN"
 "http://www.w3.org/TR/2001/REC-SVG-20010904/DTD/svg10.dtd">
<svg version="1.0" xmlns="http://www.w3.org/2000/svg"
   viewBox="0 0 4692.000000 1222.000000"
 preserveAspectRatio="xMidYMid meet">
<metadata>
Created by potrace 1.16, written by Peter Selinger 2001-2019
</metadata>
<g transform="translate(0.000000,1222.000000) scale(0.100000,-0.100000)"
fill="#000000" stroke="none">
<path d="M17588 12203 c-18 -12 -30 -34 -44 -82 l-19 -66 -488 -3 c-482 -2
-487 -2 -487 18 0 20 -2 20 -3145 20 l-3145 0 0 55 0 55 -555 0 -555 0 0 -180
0 -180 -198 0 -198 0 -165 105 -164 105 -1031 0 -1030 0 -49 -121 -48 -121
-242 7 -242 7 -7 -71 -7 -71 -130 0 -129 0 -155 -65 c-92 -39 -168 -65 -190
-65 l-35 0 0 90 0 90 -2565 0 -2565 0 0 -1039 c0 -911 2 -1040 15 -1051 13
-11 15 -69 15 -412 l0 -400 76 -127 c42 -69 77 -127 79 -129 1 -1 75 -18 163
-37 113 -25 187 -35 247 -35 l85 0 0 -30 0 -30 -69 0 -68 0 -7 -52 c-3 -29 -6
-67 -6 -85 0 -37 15 -31 -191 -74 l-155 -33 -77 -130 -77 -130 0 -457 0 -457
77 -130 78 -130 145 -33 145 -34 468 -3 467 -3 0 -119 0 -120 -180 0 -180 0 0
-95 0 -95 -95 0 -95 0 0 -155 0 -155 275 0 275 0 0 -80 0 -80 455 0 455 0 0
-40 0 -40 -120 0 c-113 0 -120 -1 -120 -20 0 -19 -7 -20 -150 -20 l-150 0 0
-37 c0 -33 11 -51 83 -134 45 -52 112 -118 149 -145 l67 -49 1 -97 0 -98 -150
0 -150 0 0 -38 c0 -34 10 -51 83 -135 46 -53 114 -120 152 -148 l68 -52 -7
-251 c-3 -139 -3 -273 0 -299 6 -44 9 -47 36 -47 22 0 53 -20 124 -80 l95 -80
-549 0 -549 0 -5 -81 c-3 -47 -10 -84 -17 -88 -6 -4 -84 -23 -172 -42 l-160
-33 -80 -132 -79 -132 0 -452 0 -453 77 -133 78 -132 165 -36 c132 -29 186
-36 273 -36 l107 0 0 -280 0 -280 295 0 295 0 1 -162 c0 -161 1 -164 37 -267
37 -104 37 -105 80 -120 l42 -15 0 -97 0 -97 107 -7 c60 -4 496 -6 970 -3
l862 5 155 59 156 59 0 37 c0 21 1 38 3 39 1 0 221 8 488 18 l486 18 286 89
287 89 0 173 0 172 -710 0 -710 0 0 95 0 95 313 0 c301 0 315 1 332 20 18 19
31 20 422 20 388 0 403 1 403 19 0 18 18 19 469 23 424 3 496 7 479 23 -2 3
-165 8 -361 12 l-356 6 -21 29 -21 28 -319 0 c-207 0 -320 -4 -320 -10 0 -6
-27 -10 -60 -10 l-59 0 -26 45 -27 45 24 42 c23 42 24 43 82 46 32 2 64 -2 69
-7 7 -7 117 -11 321 -11 l311 0 25 29 25 30 358 7 c254 5 357 10 354 18 -3 8
-142 12 -475 14 -464 2 -472 3 -472 22 0 20 -7 20 -403 20 -391 0 -404 1 -422
20 -17 19 -32 20 -329 22 -171 1 -291 3 -266 5 25 3 358 22 740 43 593 32 697
36 711 24 33 -29 237 -17 809 46 300 34 555 63 566 65 12 3 101 89 198 192
l176 188 0 142 0 141 -142 88 c-79 48 -145 89 -148 91 -2 2 108 116 245 253
163 163 253 246 259 240 6 -6 132 -10 323 -10 l314 0 25 25 25 25 354 6 c336
7 355 8 355 26 0 17 -13 18 -212 18 -117 0 -412 3 -656 7 l-443 6 26 27 c25
26 25 28 25 193 l0 167 193 0 193 0 108 195 107 195 -3 107 -3 107 125 28 c69
15 135 30 148 33 15 4 22 13 22 30 l0 25 -440 0 c-287 0 -440 3 -440 10 0 6
49 10 126 10 l125 0 -2 177 -2 178 253 212 253 213 1354 0 1353 0 173 -130
c158 -118 178 -130 215 -130 l42 0 0 -160 0 -160 456 0 457 0 38 35 c35 32 45
35 98 35 55 0 65 -4 148 -59 l90 -59 7 -166 c4 -92 4 -171 1 -176 -3 -5 -46
-31 -95 -57 l-90 -48 0 -175 0 -175 324 -324 323 -323 187 7 186 8 0 -52 0
-51 108 0 107 0 20 -72 20 -73 208 -3 c205 -2 209 -2 214 19 5 19 11 16 59
-32 49 -48 54 -58 54 -96 l0 -43 68 -1 c37 -1 56 -4 43 -6 -22 -5 -23 -7 -16
-69 l7 -64 -166 0 -166 0 0 -245 0 -245 2553 0 c1403 0 2576 3 2605 6 49 6 52
8 52 35 l0 29 2160 0 2160 0 0 66 c0 49 -5 75 -20 99 l-20 32 30 28 c28 27 30
33 30 107 l0 78 179 0 178 0 171 130 171 130 523 0 523 1 40 59 40 60 256 0
c141 0 445 3 677 7 l422 6 0 -61 0 -62 66 0 c64 0 67 1 120 46 30 26 54 53 54
60 0 12 50 14 290 14 l290 0 0 30 0 30 -777 0 c-869 0 -1483 9 -1483 22 0 4
12 8 28 8 17 0 62 24 125 67 84 58 97 70 97 95 l0 28 -425 0 -425 0 0 160 0
160 205 0 205 0 0 25 c0 25 0 25 98 25 122 0 142 11 142 76 l0 44 44 0 c25 0
48 -4 51 -10 4 -6 95 -10 240 -10 l234 0 19 25 c19 24 24 25 143 25 68 0 229
3 357 7 209 6 232 8 232 23 0 16 -38 18 -467 24 -258 3 -488 10 -511 14 l-44
7 164 137 163 138 564 0 564 0 174 -130 c154 -116 177 -130 213 -130 l40 0 0
-159 0 -159 138 -4 c75 -2 280 -1 454 0 l316 4 40 34 c36 31 46 34 102 34 l62
0 359 -235 358 -235 594 0 595 0 211 -155 212 -155 670 0 669 0 0 -415 0 -415
-294 0 -295 0 -20 -26 c-18 -23 -21 -41 -21 -119 l0 -92 140 -118 140 -119 1
-70 c1 -39 4 -104 8 -144 l6 -73 99 -114 98 -115 90 0 c89 0 90 0 84 -23 -3
-12 -6 -41 -6 -64 l0 -43 -220 0 -220 0 0 -89 0 -88 83 -6 c45 -4 126 -7 179
-7 l98 0 68 -43 67 -44 427 -5 c234 -3 431 -9 437 -12 7 -5 11 -83 11 -240 0
-298 17 -276 -208 -276 l-162 0 0 -188 0 -188 158 -115 c129 -94 158 -120 160
-142 2 -16 14 -34 28 -43 18 -12 24 -25 24 -50 l0 -34 691 0 691 0 584 576
584 577 0 319 0 319 90 212 c59 138 90 225 90 249 0 34 6 42 99 120 l100 83 0
113 1 112 -79 0 -79 0 4 43 c3 23 7 61 10 85 l5 42 60 0 c32 0 59 1 60 3 0 1
9 157 18 347 l17 345 -54 135 c-30 74 -56 136 -57 137 -1 2 -29 6 -64 9 -50 6
-61 10 -57 23 3 9 7 50 11 91 10 115 6 110 86 110 l69 0 0 80 0 80 275 0 275
0 0 160 0 160 -95 0 -95 0 0 95 0 95 951 0 951 0 174 127 173 128 1 91 0 92
253 6 c138 3 425 7 636 8 l383 3 32 -85 31 -85 540 -332 540 -332 127 0 c124
-1 129 -2 177 -31 l50 -31 1058 -9 c582 -5 1311 -14 1621 -20 l562 -10 526
-154 526 -154 58 -57 c59 -58 87 -70 283 -119 l27 -6 0 201 0 201 -84 237 -83
238 -245 420 c-205 351 -264 443 -357 560 -61 78 -111 144 -111 148 0 4 31 4
69 0 68 -7 70 -6 115 27 25 18 44 38 41 45 -2 6 -117 161 -257 345 -250 330
-256 336 -618 712 -324 337 -419 428 -855 819 -401 360 -549 485 -818 694
l-328 254 -33 -20 c-30 -19 -49 -21 -182 -21 l-149 1 -186 131 -185 132 50 45
c45 40 132 149 124 156 -2 1 -266 151 -588 332 -503 284 -699 387 -1395 736
-445 223 -960 474 -1144 557 -330 150 -343 155 -1044 392 l-710 240 -631 164
-631 163 -705 131 -705 132 -600 68 c-330 38 -817 88 -1082 111 l-483 42 -32
-27 c-18 -14 -49 -39 -68 -55 -31 -26 -54 -33 -207 -60 -161 -29 -188 -31
-417 -31 l-246 0 0 -35 c0 -32 -2 -35 -30 -35 -27 0 -30 3 -30 33 l0 34 -242
6 c-134 4 -381 10 -550 14 l-306 6 -13 24 c-12 23 -15 23 -183 24 -94 0 -1006
10 -2026 23 l-1855 23 -72 36 -73 37 -2136 0 -2136 0 -62 -35 -63 -35 -381 0
-382 0 0 -30 0 -30 -130 0 -130 0 0 30 0 30 -560 0 -560 0 0 -30 0 -30 -205 0
-204 0 -22 73 c-14 47 -30 79 -47 94 -23 20 -27 20 -49 6 -15 -10 -31 -40 -47
-92 l-24 -76 -257 0 -257 0 -24 76 c-16 52 -32 82 -47 92 -22 14 -26 14 -49
-6 -17 -15 -33 -47 -47 -95 l-22 -72 -256 2 -257 3 -23 76 c-42 140 -100 137
-142 -6 l-23 -75 -256 2 -256 3 -24 75 c-28 91 -54 117 -94 93z m-2318 -8803
c-42 -23 -54 -25 -47 -6 4 9 -1 17 -11 19 -9 3 8 5 38 5 l55 1 -35 -19z
m-10100 -1295 l0 -45 -120 0 -120 0 0 45 0 45 120 0 120 0 0 -45z"/>
</g>
</svg>
