<?xml version="1.0" standalone="no"?>
<!DOCTYPE svg PUBLIC "-//W3C//DTD SVG 20010904//EN"
 "http://www.w3.org/TR/2001/REC-SVG-20010904/DTD/svg10.dtd">
<svg version="1.0" xmlns="http://www.w3.org/2000/svg"
   viewBox="0 0 4700.000000 3116.000000"
 preserveAspectRatio="xMidYMid meet">
<metadata>
Created by potrace 1.16, written by Peter Selinger 2001-2019
</metadata>
<g transform="translate(0.000000,3116.000000) scale(0.100000,-0.100000)"
fill="#000000" stroke="none">
<path d="M22149 31158 c-1 -2 -36 -681 -79 -1510 l-78 -1506 -42 -109 -42
-108 -6 -626 -5 -626 43 -73 43 -74 -6 -263 -5 -263 -36 -92 -35 -93 -96
-1179 -97 -1178 31 -27 31 -26 -7 -107 -6 -106 -32 -18 c-30 -16 -33 -23 -39
-77 -3 -33 -6 -115 -6 -183 l0 -123 46 -33 c37 -26 42 -34 28 -37 -11 -2 -147
-15 -304 -30 l-284 -26 -200 -386 -201 -385 -615 -113 c-338 -62 -622 -115
-631 -117 -12 -3 -29 24 -70 112 -29 63 -56 117 -60 119 -3 3 -48 -7 -98 -20
-51 -14 -98 -25 -104 -25 -7 0 -26 46 -42 104 l-29 104 -69 19 c-54 14 -72 24
-85 45 l-17 28 58 58 57 58 -140 374 c-145 384 -146 386 -222 446 -25 19 -59
119 -300 872 -218 683 -276 852 -291 859 -15 7 -52 91 -138 313 -65 166 -121
305 -124 308 -18 19 -11 -43 37 -329 41 -237 53 -329 46 -348 -7 -21 34 -207
196 -888 l205 -862 -24 -60 -24 -61 73 -394 c40 -216 76 -398 79 -403 3 -5 36
-18 72 -28 50 -13 65 -21 65 -35 0 -33 -19 -69 -59 -113 l-40 -43 24 -95 c14
-51 25 -97 25 -100 0 -4 -41 -17 -91 -30 l-91 -23 6 -61 c3 -33 8 -94 12 -136
l6 -76 -73 -27 c-41 -14 -211 -75 -379 -135 l-305 -108 -103 138 -104 138 -90
-45 c-50 -25 -92 -43 -95 -40 -3 3 -60 97 -127 208 l-122 203 -46 0 -47 0
-266 375 c-146 206 -269 376 -273 378 -4 1 -16 -4 -27 -12 -18 -13 -13 -31
115 -462 l133 -448 -33 -27 -33 -28 81 -234 80 -234 -109 -53 c-69 -34 -109
-60 -109 -70 0 -8 18 -76 40 -150 21 -74 36 -138 32 -141 -4 -3 -224 -131
-490 -283 l-483 -277 -438 -317 c-417 -302 -449 -328 -675 -537 -130 -121
-241 -221 -247 -223 -5 -2 -117 76 -250 173 -132 97 -246 174 -254 171 -7 -2
-575 -364 -1261 -804 -874 -559 -1340 -864 -1553 -1016 l-304 -216 -359 -2
c-197 -2 -427 -3 -510 -3 l-153 0 -79 149 -79 149 72 226 72 226 -1 128 0 127
-50 0 -50 0 -24 55 -25 54 -153 3 -153 3 -7 95 c-3 52 -21 314 -39 583 l-33
487 -27 0 c-33 0 -26 52 -69 -585 -16 -242 -32 -473 -36 -512 l-6 -73 -76 0
-77 0 -35 -55 -35 -55 -74 0 -74 0 -306 -157 c-261 -133 -349 -185 -600 -350
-280 -185 -302 -201 -453 -346 -145 -139 -176 -176 -369 -435 l-211 -283 -18
-80 c-10 -44 -20 -82 -22 -84 -2 -2 -326 95 -721 216 -408 125 -733 219 -755
219 -22 0 -207 -16 -412 -35 -206 -20 -377 -32 -381 -28 -4 5 -98 229 -209
498 l-202 490 -90 52 c-132 77 -189 86 -483 72 -178 -8 -249 -15 -313 -32 -77
-20 -87 -26 -156 -92 l-74 -70 -43 -530 c-23 -291 -46 -534 -50 -539 -5 -6
-1824 -184 -1901 -186 -5 0 -9 -698 -10 -1552 l-3 -1552 -272 -42 -272 -42
-71 -58 -70 -59 0 -605 0 -605 71 -59 71 -60 267 -48 c146 -26 269 -48 274
-48 4 0 7 -9 7 -20 0 -12 7 -20 18 -20 44 0 2834 -189 2836 -192 2 -2 33 -430
70 -953 37 -522 69 -960 72 -973 6 -31 52 -31 58 1 3 12 35 445 72 962 37 517
68 941 68 942 3 4 537 -34 540 -38 1 -2 43 -516 92 -1141 l89 -1138 37 0 37 0
6 53 c3 28 41 509 85 1067 44 558 82 1041 86 1073 l6 59 137 -7 136 -7 380
190 380 191 240 205 240 204 5 -482 5 -481 24 -47 25 -48 360 -2 361 -3 3 -33
3 -32 -274 0 -275 0 -26 -65 -26 -65 0 -478 0 -477 26 -62 27 -63 383 0 382 0
12 -72 c6 -40 13 -79 15 -85 3 -10 -40 -13 -194 -13 l-199 0 -121 -102 -121
-103 0 -181 0 -181 124 -107 124 -106 1073 2 1073 3 30 112 30 112 41 5 c38 5
2719 117 2778 116 25 0 27 3 27 39 l0 40 -52 5 c-29 3 -665 31 -1413 61 -748
31 -1365 58 -1371 60 -6 2 -24 53 -40 114 l-29 111 -83 0 c-63 0 -83 3 -80 13
3 6 106 551 229 1209 l224 1198 102 0 103 0 22 -35 23 -35 153 0 152 0 0 -64
0 -63 43 -6 c23 -3 161 -18 307 -33 l265 -28 199 -149 c375 -282 584 -462
1231 -1060 l639 -592 737 -506 c619 -425 740 -504 755 -496 11 6 59 44 108 86
48 42 94 75 101 75 8 -1 134 -87 282 -192 344 -244 758 -481 1184 -679 158
-73 291 -133 295 -133 5 0 19 24 31 53 12 28 71 166 131 305 l110 253 -50 25
c-48 24 -49 26 -35 48 8 12 40 72 71 133 l55 111 36 -11 35 -10 0 -74 0 -73
158 0 c191 0 2111 -27 2485 -35 l267 -5 0 75 0 75 135 0 135 0 0 310 0 310
177 -2 177 -3 28 -230 c15 -126 27 -240 28 -252 l0 -23 250 0 250 0 0 -137 c1
-127 48 -4175 49 -4180 1 -2 98 -3 216 -3 118 0 216 1 216 3 1 1 11 832 23
1847 21 1814 22 1844 40 1784 17 -60 19 -62 57 -68 38 -6 39 -7 39 -46 0 -22
1 -40 3 -41 1 0 43 -6 92 -12 l90 -12 3 -137 3 -137 27 -5 c15 -3 87 -8 160
-12 l132 -6 0 -1162 0 -1162 75 -107 75 -108 0 -1130 0 -1129 25 0 c23 0 25
-3 26 -52 0 -29 19 -483 43 -1008 28 -623 45 -932 49 -890 4 36 23 445 42 910
36 884 44 1044 52 1037 2 -3 37 -744 78 -1647 41 -903 75 -1644 77 -1645 3 -3
150 3264 149 3288 -1 4 15 7 34 7 l35 0 0 1131 0 1131 75 108 75 108 0 456 c0
409 2 456 16 456 9 0 187 16 397 35 210 19 397 36 416 38 l34 2 44 -120 c25
-66 48 -124 52 -128 5 -5 48 -1 97 7 49 9 92 16 97 16 17 0 5 -27 -29 -61
l-36 -37 101 -420 c56 -231 101 -423 101 -427 0 -4 27 -35 60 -69 l60 -63 28
-199 28 -199 -31 -70 -32 -70 72 -456 c40 -251 76 -463 81 -470 4 -8 32 -44
61 -82 28 -37 54 -75 57 -85 2 -9 105 -495 228 -1080 192 -915 225 -1063 241
-1068 11 -3 24 -1 30 5 8 8 -10 305 -69 1114 l-80 1102 33 92 34 93 -75 460
-74 461 -45 48 c-24 26 -49 56 -54 67 -6 10 -25 105 -43 209 l-33 190 46 75
46 76 -39 438 c-21 241 -40 439 -42 441 -2 1 -22 12 -45 24 -45 22 -56 46 -25
55 9 2 51 10 92 17 41 6 78 17 82 23 4 6 8 50 8 97 0 57 4 90 13 96 6 5 280
69 607 142 327 73 604 135 615 137 17 4 30 -12 77 -93 88 -151 65 -140 197
-93 62 22 115 39 116 38 2 -2 20 -45 40 -96 l38 -93 -17 -56 -16 -57 148 -330
148 -331 50 -19 51 -20 303 -648 c167 -357 308 -652 313 -655 5 -3 13 -1 17 3
5 5 -69 317 -167 704 -195 774 -181 686 -125 781 14 24 10 46 -79 371 l-94
345 -47 32 c-44 31 -49 39 -72 115 -38 126 -43 114 58 150 48 18 92 39 96 47
4 7 2 54 -6 104 -8 49 -13 95 -12 103 3 12 666 277 674 269 2 -2 33 -65 68
-141 85 -182 636 -1147 658 -1153 10 -3 207 -326 472 -777 414 -701 458 -773
487 -781 28 -9 44 -33 135 -195 109 -194 111 -200 88 -282 -4 -12 12 -27 58
-53 l63 -36 435 -780 c370 -662 438 -779 457 -779 12 0 24 8 27 18 4 12 -134
305 -385 821 l-391 803 6 69 7 69 -53 24 -53 23 -103 193 -102 192 20 28 c11
15 20 33 20 39 0 6 -180 369 -401 806 -363 721 -400 798 -386 813 13 15 -11
66 -257 538 -149 287 -300 567 -335 623 -35 56 -62 103 -60 105 2 2 54 22 114
46 85 33 212 103 553 307 244 146 445 263 446 261 2 -2 63 -83 136 -180 l132
-178 58 0 c77 0 85 -10 69 -89 l-12 -61 204 -253 c112 -138 228 -282 257 -318
48 -59 61 -69 113 -84 59 -18 59 -19 425 -414 243 -262 375 -397 390 -399 60
-8 43 26 -248 495 l-283 458 0 75 0 75 -235 332 -235 333 -60 0 c-78 0 -90 16
-69 85 8 27 14 53 14 59 0 7 -53 81 -118 167 l-118 155 289 245 c158 134 297
250 307 258 17 12 37 1 198 -102 l179 -115 57 56 56 56 37 -35 c69 -65 1338
-1205 1350 -1212 7 -5 29 4 52 19 35 23 42 24 59 12 10 -7 667 -548 1460
-1203 793 -654 1448 -1191 1455 -1193 19 -4 46 20 49 44 2 15 -317 328 -1364
1334 l-1367 1314 30 52 30 53 -684 608 -684 607 57 52 c37 35 119 145 245 328
104 152 192 275 195 274 3 -2 70 -39 148 -83 l142 -80 0 -116 0 -116 553 -231
c303 -128 557 -232 564 -232 6 0 43 34 81 75 l69 76 569 -290 c312 -160 571
-294 575 -298 5 -5 -7 -57 -26 -116 l-33 -107 201 -98 c111 -54 1465 -716
3008 -1470 1543 -755 2812 -1372 2820 -1372 8 0 31 12 52 26 37 24 38 27 35
76 l-3 50 -2800 1845 -2800 1844 -66 -72 c-47 -50 -71 -69 -80 -63 -59 35
-1057 679 -1066 688 -9 8 -5 35 14 109 15 53 24 99 22 100 -27 22 -948 715
-957 721 -8 5 -47 -12 -107 -48 -51 -31 -97 -56 -101 -56 -10 0 -254 141 -254
147 0 3 70 125 157 271 86 147 157 268 157 269 1 1 856 -326 1128 -431 l87
-34 35 54 c20 30 39 54 41 54 11 0 747 -228 751 -233 3 -3 0 -33 -6 -67 -6
-34 -9 -65 -6 -68 4 -3 707 -193 1564 -423 1540 -412 1557 -417 1578 -398 14
13 19 28 16 47 -4 27 -67 57 -1475 698 l-1472 670 -30 -48 c-16 -26 -34 -48
-39 -48 -7 0 -422 173 -680 283 l-48 21 5 62 5 63 -87 29 c-451 153 -1127 385
-1129 387 -5 5 216 815 227 835 4 8 140 62 302 120 l294 105 3 241 2 242 33 5
c17 3 202 18 410 34 l378 27 81 98 c44 54 88 98 97 98 9 0 534 16 1166 35 633
19 1187 35 1231 35 l82 0 23 -119 23 -119 150 -139 c83 -77 162 -146 176 -155
14 -9 111 -38 215 -66 l190 -50 490 -12 490 -11 130 44 c72 25 177 55 235 67
58 11 116 26 130 31 13 6 120 73 237 150 l212 139 217 2 217 3 19 -57 20 -58
1066 0 c1012 0 1119 2 2077 35 556 19 1593 52 2305 75 712 22 1329 43 1370 47
l75 6 -370 123 -370 124 -1045 214 -1045 215 -1045 120 -1045 120 -1055 50
-1055 50 -755 -9 c-415 -5 -878 -9 -1027 -9 l-273 -1 0 -115 0 -115 -141 0
-141 0 -35 79 -36 78 -101 6 c-56 4 -758 26 -1560 49 l-1459 43 -56 64 c-31
36 -69 80 -86 98 l-30 34 -380 29 c-209 16 -392 30 -407 30 l-28 0 0 235 c0
200 -2 236 -15 241 -11 5 -15 23 -15 73 l0 66 518 64 c284 35 529 66 545 68
24 5 27 10 27 44 0 46 -30 36 273 88 l228 38 14 -34 c8 -20 15 -40 15 -45 0
-6 12 -8 28 -5 45 9 2097 469 2099 471 11 9 11 55 0 70 -14 19 -30 19 -1043
-48 -566 -37 -1055 -69 -1086 -73 l-58 -6 0 -38 c0 -22 -3 -39 -7 -39 -5 0
-109 -11 -233 -25 -124 -14 -235 -25 -247 -25 -16 0 -25 9 -34 35 -12 32 -16
35 -44 30 -63 -11 -1010 -155 -1020 -155 -6 0 -17 27 -26 60 l-16 61 23 -22
22 -21 180 94 179 94 539 138 c296 76 546 142 555 146 8 5 21 27 28 48 l13 40
685 238 c613 214 683 241 681 259 -2 15 -9 19 -28 17 -14 -2 -335 -60 -713
-129 l-688 -125 -39 26 -38 25 -553 -144 c-545 -143 -554 -145 -659 -145 -59
0 -148 -3 -199 -7 l-92 -6 -29 -64 c-25 -55 -32 -63 -56 -63 -15 0 -48 16 -77
37 l-50 37 -191 -47 c-105 -26 -194 -47 -197 -47 -8 0 -64 149 -58 153 6 4
502 118 513 117 4 0 34 -22 65 -48 l56 -49 1465 673 c806 371 1469 672 1474
671 6 -2 16 -22 23 -44 l14 -42 37 14 c91 32 1449 536 2047 759 468 175 1125
435 2257 894 878 355 1596 648 1594 649 -1 2 -446 -62 -987 -142 l-984 -145
-720 -186 c-696 -179 -744 -193 -1425 -414 -614 -198 -792 -261 -1380 -484
-371 -141 -676 -259 -678 -261 -3 -3 6 -36 20 -75 l25 -70 -41 -12 c-22 -7
-723 -213 -1556 -458 l-1515 -445 -11 -73 c-6 -40 -15 -77 -20 -81 -10 -10
-445 -242 -458 -244 -4 -1 -22 37 -40 85 -17 48 -34 90 -38 93 -3 4 -60 -10
-127 -29 -66 -20 -124 -36 -129 -36 -5 0 -48 93 -97 208 -84 198 -94 214 -207
371 -66 90 -118 164 -116 165 2 2 80 45 175 97 l172 94 -6 70 c-5 68 -4 71 25
99 l31 29 67 -43 c49 -31 71 -40 84 -33 10 4 155 109 323 233 l305 225 21 60
22 60 914 589 c721 465 915 594 915 610 1 16 66 68 256 205 140 101 253 188
251 195 -3 6 -11 10 -18 8 -8 -2 -134 -68 -280 -147 -177 -95 -273 -142 -287
-139 -13 4 -319 -160 -970 -521 l-951 -526 -63 7 -64 6 -352 -176 -352 -176 0
-78 0 -78 -37 -10 c-34 -9 -44 -7 -99 23 l-60 33 -179 -120 c-98 -66 -182
-120 -186 -120 -4 0 -95 121 -202 268 -190 261 -198 271 -336 392 -78 69 -141
128 -141 132 0 4 149 163 331 353 l332 346 -33 45 -32 45 37 54 c71 103 81
110 202 150 l113 37 256 296 c232 268 259 296 288 296 30 1 35 9 141 192 l110
191 1020 1159 c987 1122 1039 1184 1014 1209 -28 26 -67 -11 -1161 -1070
l-1115 -1080 -185 -117 c-177 -112 -184 -119 -180 -146 3 -27 -18 -49 -285
-293 l-290 -264 -43 -114 -44 -114 -79 -58 -80 -59 -41 30 -40 30 -353 -352
c-322 -322 -353 -350 -369 -337 -89 71 -488 435 -486 442 2 5 67 105 146 221
l144 211 -19 26 -19 26 84 120 84 121 -29 29 -29 29 124 307 125 307 -22 15
c-21 15 -30 7 -257 -220 -229 -229 -237 -236 -264 -225 -43 16 -53 13 -77 -27
-13 -21 -47 -75 -76 -120 -51 -80 -53 -82 -82 -73 -30 8 -30 8 -193 -224
l-163 -232 -395 234 c-217 129 -397 235 -398 237 -2 2 11 30 30 63 l33 61 -28
55 -27 56 45 98 c25 53 53 103 62 110 9 6 44 12 77 12 l61 0 44 103 c24 56 73
168 108 249 l64 146 54 24 53 23 147 336 147 337 -22 49 -21 49 330 698 c350
741 349 737 283 735 -25 0 -64 -57 -447 -645 -231 -354 -427 -646 -435 -648
-8 -3 -31 -8 -50 -11 -33 -6 -49 -27 -243 -307 l-208 -300 6 -61 6 -62 -152
-218 -152 -219 25 -61 24 -62 -64 -97 c-63 -96 -65 -97 -111 -103 -75 -11 -77
-13 -121 -89 l-42 -74 -52 18 c-486 170 -1113 393 -1118 398 -3 4 64 249 149
546 l156 538 -28 82 c-28 80 -28 82 -12 131 8 28 36 115 61 195 l45 145 84 44
83 44 146 441 147 441 -5 135 -5 135 264 955 c276 995 277 1001 222 980 -15
-6 -120 -237 -418 -922 l-399 -914 -83 -100 -83 -99 -167 -428 -167 -428 27
-85 26 -85 -77 -188 -77 -188 -71 -45 -71 -45 -209 -477 c-115 -262 -210 -476
-212 -476 -18 0 -1291 323 -1297 329 -7 7 12 146 29 217 4 16 -7 30 -50 63
-50 39 -56 47 -56 80 l0 37 74 24 75 23 5 46 c4 25 49 453 102 950 l96 905
-22 46 -22 46 31 445 c17 244 32 462 34 484 2 34 -1 40 -17 40 -17 0 -39 -61
-163 -465 -129 -415 -147 -469 -177 -500 -31 -34 -42 -72 -270 -950 -130 -503
-236 -919 -236 -925 0 -5 23 -30 51 -55 l51 -45 -19 -32 c-14 -25 -32 -38 -79
-55 l-62 -22 -46 -230 c-25 -126 -47 -231 -49 -233 -2 -2 -198 28 -436 67
-238 38 -436 70 -440 70 -5 0 -18 38 -31 85 l-23 85 -111 1 c-61 1 -172 4
-246 8 l-135 6 38 23 37 24 0 137 c0 76 -3 159 -6 184 -6 40 -10 47 -45 63
l-39 17 0 108 0 107 46 27 46 27 -6 46 c-3 26 -49 559 -101 1185 l-95 1138
-40 86 -40 86 0 265 0 265 42 75 41 75 -6 621 -6 621 -41 105 -41 105 -74
1465 c-41 806 -75 1486 -75 1513 0 35 -4 47 -15 47 -8 0 -15 -1 -16 -2z
m10899 -14917 c12 -51 38 -359 31 -366 -3 -2 -50 12 -105 32 l-102 36 -27 131
c-15 72 -28 137 -29 145 -1 9 32 23 99 42 55 15 105 28 111 28 6 1 16 -21 22
-48z m4872 -1989 l0 -99 423 -6 c232 -4 702 -10 1044 -14 508 -5 623 -9 627
-20 4 -10 -22 -13 -137 -14 -242 -1 -219 6 -495 -167 l-242 -152 -93 -10 c-92
-11 -92 -11 -231 30 l-139 41 -481 -6 -481 -7 -114 26 c-110 26 -118 30 -215
101 l-102 74 -12 72 c-7 39 -10 75 -6 78 3 3 72 7 152 9 l147 3 34 80 34 79
144 0 143 0 0 -98z m-28026 -1629 l-121 -4 -30 -77 -30 -77 -102 -3 c-55 -1
-101 1 -101 6 0 12 20 124 26 145 5 16 24 17 242 15 130 -1 183 -4 116 -5z
m-2984 -22 c0 -5 3 -23 6 -40 l7 -31 -124 0 -124 1 45 39 c43 38 48 39 118 40
39 0 72 -4 72 -9z m2770 -215 c0 -31 -15 -36 -101 -36 -82 0 -89 1 -89 20 0
19 7 20 95 20 52 0 95 -2 95 -4z"/>
</g>
</svg>
