<?xml version="1.0" standalone="no"?>
<!DOCTYPE svg PUBLIC "-//W3C//DTD SVG 20010904//EN"
 "http://www.w3.org/TR/2001/REC-SVG-20010904/DTD/svg10.dtd">
<svg version="1.0" xmlns="http://www.w3.org/2000/svg"
   viewBox="0 0 3182.000000 1038.000000"
 preserveAspectRatio="xMidYMid meet">
<metadata>
Created by potrace 1.16, written by Peter Selinger 2001-2019
</metadata>
<g transform="translate(0.000000,1038.000000) scale(0.100000,-0.100000)"
fill="#000000" stroke="none">
<path d="M7924 10359 c-131 -19 -154 -25 -320 -94 l-179 -73 -347 -256 -347
-256 -1638 -165 -1638 -165 -200 -69 -200 -70 -488 -278 -487 -278 -242 -235
c-291 -284 -420 -381 -524 -399 -35 -6 -93 -16 -129 -22 l-65 -11 0 -43 0 -43
-47 -6 c-27 -3 -205 -19 -398 -36 -192 -17 -369 -33 -393 -36 l-42 -5 2 -192
3 -192 42 -3 43 -3 0 -193 0 -193 -95 -13 c-95 -13 -95 -13 -100 -44 -4 -17
-1 -52 4 -78 28 -123 80 -215 364 -645 261 -394 287 -430 328 -450 32 -17 259
-63 850 -173 787 -147 809 -150 942 -150 l136 0 17 -29 c10 -17 31 -33 53 -40
87 -28 1003 -224 1071 -230 l74 -6 53 -144 c40 -110 66 -163 112 -230 33 -47
99 -143 146 -212 l87 -126 14 -120 15 -120 -65 -135 -64 -136 -63 -6 c-35 -3
-478 -12 -984 -21 -506 -9 -1248 -25 -1650 -35 -401 -11 -763 -20 -802 -20
l-73 0 0 -34 c0 -24 -5 -36 -17 -40 -10 -2 -135 -15 -278 -27 -241 -21 -264
-24 -316 -50 -43 -22 -58 -35 -63 -56 -12 -53 -30 -808 -20 -853 8 -37 16 -48
56 -72 l47 -29 277 -10 c153 -5 280 -11 282 -14 3 -3 0 -211 -7 -462 -6 -252
-11 -513 -11 -580 l0 -122 43 -5 c23 -3 411 -23 862 -46 577 -28 1131 -48
1872 -66 l1052 -27 348 37 c191 20 364 39 383 42 32 4 49 -6 200 -114 155
-111 197 -134 680 -379 l515 -261 595 -237 595 -236 510 -98 c480 -92 510 -99
513 -119 l3 -22 335 0 334 0 0 53 0 54 127 18 126 17 244 116 244 116 142 132
c137 126 148 139 240 287 89 140 103 169 152 316 52 158 55 170 90 454 l35
292 -24 280 -25 280 -125 495 c-69 272 -126 498 -126 501 0 3 35 16 78 28 l77
22 104 325 c58 179 110 328 115 333 6 4 162 34 346 66 184 31 709 129 1165
217 1020 196 2562 449 2851 468 l172 11 338 -206 339 -207 375 -150 c503 -202
490 -199 1220 -272 432 -44 460 -45 935 -53 l490 -9 338 93 c186 51 348 94
360 95 12 0 254 -67 538 -151 l516 -151 674 -139 674 -139 1485 -221 c2213
-329 2954 -436 3270 -470 335 -37 330 -36 330 -59 0 -37 16 -44 111 -50 l94
-7 0 -49 0 -50 -135 -72 -135 -72 -3 -147 -3 -147 158 6 c87 3 258 9 380 12
l221 6 324 93 323 92 213 259 c117 142 219 266 225 276 10 12 90 28 357 67
190 28 465 75 612 104 l266 53 103 -37 102 -38 259 36 259 35 201 98 201 98
123 133 122 134 33 125 33 125 -16 142 -16 143 -71 92 c-39 51 -115 134 -169
185 -96 89 -105 94 -340 212 l-242 121 -102 0 c-118 1 -304 21 -316 36 -5 5
-44 58 -87 118 l-78 110 22 68 22 69 -95 113 c-94 113 -95 113 -238 194 -258
145 -320 163 -1348 392 -492 109 -1059 237 -1260 284 -303 70 -852 192 -897
199 -7 1 -39 -22 -72 -50 l-59 -53 -174 41 c-95 23 -176 44 -179 48 -4 3 20
53 52 111 56 102 57 105 36 112 -12 4 -373 82 -802 173 l-780 165 -2634 240
-2634 239 -125 72 -126 71 -735 78 -736 78 -655 16 c-360 9 -678 16 -706 16
l-52 0 -122 114 c-171 161 -175 162 -631 221 -193 25 -352 45 -354 45 -2 0
-24 28 -49 63 l-45 63 -157 48 c-184 56 -240 66 -395 66 -99 0 -139 -5 -260
-34 l-144 -35 -50 -55 -50 -56 -326 0 -327 0 -407 488 c-223 268 -430 506
-458 530 -108 89 -194 122 -721 280 -273 82 -499 152 -502 155 -3 3 -22 104
-42 226 l-36 220 -86 91 -85 91 -120 23 c-196 39 -329 45 -1245 56 -481 5
-1023 11 -1205 14 -291 4 -347 2 -471 -15z"/>
</g>
</svg>
