<?xml version="1.0" standalone="no"?>
<!DOCTYPE svg PUBLIC "-//W3C//DTD SVG 20010904//EN"
 "http://www.w3.org/TR/2001/REC-SVG-20010904/DTD/svg10.dtd">
<svg version="1.0" xmlns="http://www.w3.org/2000/svg"
   viewBox="0 0 4219.000000 907.000000"
 preserveAspectRatio="xMidYMid meet">
<metadata>
Created by potrace 1.16, written by Peter Selinger 2001-2019
</metadata>
<g transform="translate(0.000000,907.000000) scale(0.100000,-0.100000)"
fill="#000000" stroke="none">
<path d="M29431 9035 c-26 -30 -31 -44 -31 -84 0 -45 2 -50 30 -60 18 -6 30
-17 30 -28 0 -17 -34 -18 -780 -15 l-780 4 0 -85 0 -84 133 -51 c100 -39 147
-52 186 -52 36 0 61 -7 86 -22 19 -13 35 -25 35 -28 0 -3 -78 -53 -174 -113
l-173 -107 -68 0 c-53 0 -73 -4 -89 -19 -19 -17 -48 -19 -343 -25 l-323 -7 0
60 c0 46 -4 61 -14 61 -8 0 -302 -47 -653 -104 -513 -85 -707 -121 -993 -186
l-355 -82 -65 -68 -65 -69 -620 -7 -620 -6 -68 96 -69 96 -182 0 -182 0 -33
113 c-18 61 -40 123 -47 137 -7 14 -21 51 -29 83 l-16 57 -79 0 -79 0 -11 -57
c-6 -32 -13 -63 -15 -70 -3 -8 -37 -13 -107 -15 l-102 -3 -34 -123 -34 -122
-226 2 -225 3 -20 58 -21 57 -431 0 -432 0 -46 -60 -47 -60 -70 0 -70 0 0 45
0 45 -60 0 c-33 0 -60 1 -60 3 0 2 -11 100 -25 217 -14 118 -25 221 -25 228 0
6 -10 12 -21 12 -21 0 -22 3 -16 74 6 63 4 76 -12 90 -27 24 -140 22 -191 -4
-38 -19 -40 -23 -40 -68 0 -64 -9 -92 -29 -92 -12 0 -40 -60 -106 -227 l-90
-228 -68 -3 -67 -3 0 -39 c0 -36 -2 -39 -32 -44 -18 -3 -922 -37 -2008 -76
-1875 -67 -1990 -72 -2279 -103 l-304 -31 -31 -43 -31 -42 -164 -1 c-153 0
-166 -1 -187 -21 l-22 -21 -1318 -10 c-1294 -9 -1317 -9 -1338 10 -19 18 -43
20 -316 25 -285 5 -296 5 -317 -15 -19 -18 -35 -20 -189 -19 -122 0 -170 -3
-176 -12 -6 -9 -10 -9 -20 1 -15 15 -198 17 -198 2 0 -6 -49 -10 -127 -10
l-128 0 -144 176 c-80 96 -154 181 -165 187 -15 8 -263 12 -895 15 l-875 4
-149 74 -149 74 -605 0 -605 0 -247 -75 c-190 -57 -262 -75 -308 -75 -53 0
-70 -6 -146 -47 l-87 -48 0 -652 0 -653 -1533 0 -1534 0 -7 142 c-3 78 -8 144
-11 146 -5 6 -1904 -36 -2022 -44 l-83 -6 0 -108 0 -108 -27 -6 c-16 -3 -66
-10 -113 -16 -47 -6 -97 -13 -113 -16 l-27 -6 0 -254 0 -254 -375 0 -375 0 0
-54 0 -53 -61 -7 c-34 -3 -151 -6 -260 -6 l-199 0 0 -330 0 -330 260 0 260 0
0 -70 0 -70 375 0 375 0 0 -153 0 -154 137 -24 138 -25 3 -80 3 -80 1052 -36
c579 -20 1053 -35 1054 -34 1 1 5 64 9 139 l7 137 1534 0 1533 0 0 -130 0
-130 -100 0 -100 0 0 -114 0 -114 63 -6 c34 -4 79 -9 99 -12 l38 -6 0 -141 1
-142 90 -97 91 -98 744 0 744 0 0 -55 0 -55 -370 0 -370 0 0 35 0 35 -650 0
c-357 0 -650 -2 -650 -5 0 -13 120 -242 136 -262 19 -21 22 -21 592 -28 l572
-7 0 36 0 36 370 0 370 0 0 -45 0 -45 575 0 575 0 0 -32 c0 -18 42 -150 93
-293 l93 -260 192 -3 192 -2 0 295 0 295 718 0 717 0 62 53 63 52 0 128 0 127
704 0 704 0 236 100 c199 84 244 100 289 100 32 0 965 -196 2382 -500 l2329
-500 405 0 405 0 66 -63 65 -64 385 -87 c307 -69 503 -105 970 -181 322 -52
599 -97 617 -100 l31 -6 7 67 8 67 81 -7 c44 -3 204 -9 354 -12 255 -7 272 -8
272 -26 0 -16 8 -18 65 -18 62 0 70 -3 232 -91 92 -50 179 -98 192 -106 23
-15 22 -16 -65 -74 -81 -53 -94 -59 -144 -60 -42 0 -86 -13 -185 -53 l-130
-52 -3 -82 -3 -82 781 0 c741 0 780 -1 780 -18 0 -10 -12 -22 -30 -29 -28 -10
-30 -15 -30 -60 0 -42 5 -53 33 -81 l33 -32 1205 0 1205 0 42 31 c29 21 45 42
52 67 5 20 21 70 34 109 l25 73 -85 60 c-46 34 -84 63 -84 65 0 2 20 16 43 30
43 24 48 25 238 25 l195 0 322 200 321 200 118 0 118 0 178 190 178 190 1255
0 1254 0 0 -80 0 -80 340 0 340 0 0 80 0 80 1700 0 1700 0 0 205 0 205 568 0
c312 0 623 3 692 6 l125 7 47 -97 48 -96 -336 0 c-207 0 -334 -4 -332 -9 2 -6
172 -323 378 -705 l374 -696 338 0 337 0 18 -30 17 -30 756 -2 755 -3 14 -212
14 -213 119 0 118 0 1 73 c0 39 4 92 7 117 l7 44 88 -187 c48 -102 87 -189 87
-192 0 -3 -72 -5 -160 -5 l-160 0 0 -39 0 -39 -122 -6 c-68 -3 -643 -13 -1278
-22 -635 -8 -1239 -19 -1342 -22 l-186 -7 36 -61 36 -61 441 -6 c242 -4 627
-7 856 -7 229 0 673 -3 987 -7 l572 -6 0 -39 0 -38 650 0 650 0 0 -45 0 -45
-326 0 -325 0 6 -22 c4 -13 11 -27 16 -33 5 -5 94 -39 197 -75 l187 -65 28
-88 28 -87 245 0 244 0 0 -50 0 -50 -45 0 -45 0 0 -144 c0 -171 17 -156 -180
-156 -74 0 -186 -3 -247 -7 -104 -6 -113 -8 -113 -26 0 -20 5 -20 270 -15 225
5 270 3 270 -8 0 -11 29 -14 144 -14 86 0 147 4 151 10 8 14 685 14 685 0 0
-6 82 -10 225 -10 184 0 225 2 225 14 0 11 94 15 555 21 308 4 555 11 555 16
0 5 -84 9 -187 10 -525 3 -916 14 -921 27 -5 15 -452 18 -452 2 0 -6 -115 -10
-325 -10 -179 0 -325 3 -325 8 0 4 24 68 54 142 l53 135 -64 3 -63 3 0 49 0
50 85 0 85 0 0 86 c0 73 4 95 30 154 17 38 30 82 30 99 l0 31 -95 0 -95 0 0
45 0 45 95 0 95 0 0 40 0 40 365 0 c358 0 365 0 365 -20 0 -20 7 -20 540 -20
l540 0 0 33 c0 20 -7 41 -18 50 -9 9 -178 56 -379 106 l-363 91 -160 0 c-153
0 -160 -1 -160 -20 0 -20 -7 -20 -365 -20 l-365 0 0 40 0 39 -151 3 -150 3
-109 235 -109 235 479 3 480 2 0 134 0 135 -276 585 -277 586 -67 0 -67 0 -72
153 c-50 106 -71 163 -71 190 0 40 65 856 75 945 l6 52 100 0 99 0 0 -425 0
-425 445 0 445 0 -2 1527 -3 1527 -135 33 c-196 49 -723 185 -737 190 -10 4
-13 -28 -13 -141 0 -80 -3 -146 -7 -146 -5 -1 -232 59 -505 131 l-498 132 0
56 0 56 -177 48 c-143 38 -178 45 -185 34 -4 -8 -16 -25 -27 -38 l-19 -24 -14
35 c-15 34 -17 36 -147 69 l-132 34 -21 -21 c-20 -20 -21 -20 -87 -2 -36 10
-103 28 -149 40 -72 19 -83 25 -79 41 4 13 -1 21 -16 25 -12 3 -177 47 -367
98 -326 88 -345 92 -352 74 -5 -12 -14 -18 -25 -14 -10 2 -81 21 -158 41 -223
57 -204 47 -207 113 l-3 57 -382 241 -383 241 -797 6 c-438 4 -1087 7 -1443 7
l-646 0 -49 50 -49 50 -117 0 -118 0 -321 200 -321 200 -176 15 c-98 8 -182
15 -188 15 -5 0 16 18 48 41 31 22 57 46 57 52 0 7 -14 58 -31 114 -30 94 -35
104 -75 132 l-42 31 -1205 0 -1205 0 -31 -35z m-4368 -6792 c-45 -2 -122 -2
-170 0 -48 1 -11 3 82 3 94 0 133 -2 88 -3z"/>
</g>
</svg>
