<?xml version="1.0" standalone="no"?>
<!DOCTYPE svg PUBLIC "-//W3C//DTD SVG 20010904//EN"
 "http://www.w3.org/TR/2001/REC-SVG-20010904/DTD/svg10.dtd">
<svg version="1.0" xmlns="http://www.w3.org/2000/svg"
   viewBox="0 0 3734.000000 764.000000"
 preserveAspectRatio="xMidYMid meet">
<metadata>
Created by potrace 1.16, written by Peter Selinger 2001-2019
</metadata>
<g transform="translate(0.000000,764.000000) scale(0.100000,-0.100000)"
fill="#000000" stroke="none">
<path d="M5330 7511 l0 -131 -178 0 c-99 0 -254 -3 -345 -7 l-166 -6 -263
-272 c-145 -149 -296 -305 -335 -347 l-73 -75 -415 -24 c-228 -13 -421 -26
-427 -30 -7 -5 -13 -49 -16 -117 l-4 -110 -117 -7 c-64 -3 -429 -49 -811 -101
l-695 -94 -334 -87 -334 -86 -278 -179 -278 -179 -130 -138 -131 -138 11 -689
11 -689 132 -175 132 -175 286 -151 287 -150 323 -48 c178 -26 650 -85 1050
-131 l728 -83 2381 40 2382 39 23 -23 c35 -35 90 -419 99 -694 l7 -201 187 -6
c102 -4 321 -7 487 -7 165 0 375 -3 466 -7 l166 -6 7 -269 c4 -148 5 -271 2
-274 -2 -3 -124 -21 -270 -41 l-265 -37 -23 -45 c-22 -45 -22 -58 -31 -469
l-8 -424 26 -37 27 -36 931 -150 931 -149 414 31 414 32 38 37 c34 33 42 36
78 31 34 -4 66 -28 222 -166 157 -139 188 -161 223 -166 66 -9 989 -95 992
-93 1 2 45 98 97 214 l96 212 171 211 172 211 292 0 c160 -1 869 -5 1576 -10
l1285 -9 715 64 c616 55 728 63 803 55 56 -6 353 -4 815 5 674 13 800 13 1727
-6 l1000 -20 1230 35 c844 24 1503 37 2100 41 479 4 1094 10 1368 14 l497 7
78 75 77 76 1605 57 1605 58 2895 199 2895 199 355 91 354 91 206 103 205 103
96 99 c117 118 145 165 154 254 6 62 4 71 -26 130 -17 35 -72 110 -121 166
-85 97 -101 110 -297 236 l-206 133 -365 142 -365 142 -2874 545 -2875 546
-1530 229 c-842 126 -1945 285 -2451 354 -1379 188 -3365 442 -3388 433 -7 -3
-24 -39 -37 -81 -13 -42 -26 -76 -29 -76 -3 0 -375 45 -826 101 -451 55 -1486
180 -2300 277 l-1479 177 -41 85 -42 85 -504 47 c-277 26 -512 47 -521 47 -16
1 -18 12 -19 89 l0 87 -195 163 -195 162 -62 0 -62 0 -85 86 c-60 61 -132 118
-248 196 -161 108 -166 110 -280 139 l-117 30 -1225 49 c-674 27 -1322 49
-1440 49 l-215 1 -130 -97 -130 -97 -1740 48 c-957 26 -1746 47 -1752 46 -9 0
-13 -20 -13 -65 l0 -65 -36 0 c-57 0 -728 -41 -732 -44 -1 -2 -16 -70 -31
-150 -16 -81 -31 -149 -34 -152 -2 -3 -143 40 -313 95 -170 55 -448 143 -619
196 -170 52 -383 125 -472 162 l-163 66 -68 116 -68 116 -353 3 -352 2 -161
125 -160 125 -98 0 c-54 0 -112 3 -129 6 l-31 7 0 -132z"/>
</g>
</svg>
