<?xml version="1.0" standalone="no"?>
<!DOCTYPE svg PUBLIC "-//W3C//DTD SVG 20010904//EN"
 "http://www.w3.org/TR/2001/REC-SVG-20010904/DTD/svg10.dtd">
<svg version="1.0" xmlns="http://www.w3.org/2000/svg"
   viewBox="0 0 4182.000000 802.000000"
 preserveAspectRatio="xMidYMid meet">
<metadata>
Created by potrace 1.16, written by Peter Selinger 2001-2019
</metadata>
<g transform="translate(0.000000,802.000000) scale(0.100000,-0.100000)"
fill="#000000" stroke="none">
<path d="M11050 7980 c-74 -39 -76 -39 -192 -40 l-118 0 0 27 0 26 -112 -6
c-62 -4 -137 -7 -165 -7 l-53 0 0 -79 0 -80 -37 -3 -38 -3 -3 -77 -3 -78 -59
0 -59 0 -3 78 -3 77 -1029 3 c-817 2 -1031 0 -1038 -10 -4 -7 -8 -43 -8 -80
l0 -68 -55 0 -55 0 0 68 c0 37 -4 73 -8 80 -7 10 -221 12 -1038 10 l-1029 -3
-3 -77 -3 -78 -59 0 -59 0 -3 78 -3 77 -1053 3 c-929 2 -1061 0 -1114 -14 -61
-15 -221 -112 -263 -159 -19 -21 -62 -27 -760 -104 -407 -45 -752 -84 -767
-87 -24 -5 -29 -12 -39 -65 -6 -33 -17 -63 -23 -67 -6 -4 -409 -113 -896 -242
l-885 -236 -9 -95 -9 -95 43 -119 c24 -66 43 -121 44 -122 1 0 192 -17 426
-37 234 -20 446 -39 473 -42 l47 -6 0 -218 0 -218 -32 -5 c-18 -3 -99 -9 -180
-13 -117 -5 -150 -10 -161 -23 -8 -9 -71 -123 -141 -253 l-126 -237 0 -711 0
-710 80 -160 c44 -88 80 -162 80 -165 0 -2 -12 -11 -26 -18 -20 -10 -37 -40
-70 -121 l-44 -107 0 -929 0 -930 42 -102 c23 -57 46 -108 52 -114 6 -6 63
-31 126 -56 92 -37 160 -54 335 -87 189 -35 257 -43 485 -56 358 -20 370 -20
370 5 0 20 7 20 911 20 l911 0 447 -267 c348 -209 453 -267 476 -266 45 3
3006 373 3033 379 12 2 27 16 32 29 l10 25 3580 0 3580 0 0 -140 0 -140 340 0
c220 0 340 -4 340 -10 0 -6 52 -10 135 -10 l135 0 0 -245 0 -245 -105 0 c-58
0 -105 -2 -105 -5 0 -3 17 -80 45 -202 l5 -23 424 0 423 0 67 85 c54 68 73 85
94 85 15 1 214 20 442 43 l416 43 185 98 186 99 17 101 c10 55 20 111 23 123
l5 23 -46 -26 -46 -26 0 46 0 46 1075 0 1074 0 54 24 c96 42 546 82 1232 110
320 13 581 19 583 15 2 -5 15 -9 28 -9 l24 0 0 -177 0 -178 -73 -38 c-72 -37
-75 -37 -190 -37 l-117 0 0 26 c0 22 -3 25 -22 20 -13 -3 -89 -6 -170 -6
l-148 0 0 -145 0 -145 73 0 c39 0 116 -3 170 -7 l97 -6 0 26 0 27 117 0 116 0
73 -40 73 -40 596 0 595 0 0 180 0 180 -150 0 -150 0 0 195 c0 188 1 195 20
195 11 0 20 7 20 15 0 12 14 15 63 15 34 0 211 7 392 15 233 10 605 15 1263
15 l932 0 0 -95 0 -95 450 0 450 0 0 95 0 95 530 0 530 0 0 -95 0 -95 450 0
450 0 0 95 0 95 530 0 530 0 0 -95 0 -95 445 0 445 0 0 170 0 170 56 0 c47 0
55 -3 50 -16 -3 -9 -6 -18 -6 -20 0 -2 -18 -4 -40 -4 l-40 0 0 -45 0 -45 860
0 860 0 0 30 0 29 -73 3 -74 3 14 33 13 32 444 0 c286 0 447 -4 451 -10 4 -6
67 -10 156 -10 142 0 149 1 149 20 0 19 -7 20 -95 20 l-95 0 0 40 0 40 69 0
c96 0 161 10 161 25 0 19 -318 26 -341 8 -12 -10 -264 -13 -1267 -13 -1106 0
-1252 2 -1252 15 0 12 16 15 85 15 66 0 95 5 125 20 37 19 62 20 442 22 l403
3 -390 2 -390 3 33 20 c22 14 50 20 87 20 30 0 55 5 55 10 0 6 147 10 418 11
229 1 498 5 597 8 142 6 76 8 -315 10 -272 2 -540 6 -595 10 l-100 6 71 40
c40 22 82 53 93 70 58 82 7 72 510 100 l452 25 119 82 c66 45 118 83 117 84
-1 1 -112 10 -247 21 -135 10 -231 19 -214 21 29 3 42 19 179 239 l148 236
136 106 c215 169 191 130 240 391 24 124 43 226 44 226 1 1 101 14 222 28 315
38 295 34 295 62 l0 24 -248 0 -249 0 18 93 c10 50 19 99 19 107 0 11 -38 28
-130 58 l-130 43 0 185 0 184 98 1 97 1 345 151 345 152 18 80 c11 44 23 97
28 118 l10 37 323 0 323 0 515 -290 516 -290 167 0 167 0 67 -60 68 -59 954 0
c525 -1 1751 -4 2724 -9 1570 -7 1823 -6 2241 9 l471 17 77 48 c72 44 126 96
126 121 0 5 -19 40 -43 76 -40 63 -81 97 -772 633 -402 312 -739 572 -750 580
-40 26 -1008 429 -1300 541 -165 63 -628 246 -1030 407 l-730 293 -1045 327
-1045 326 -645 114 -645 115 -2035 36 -2035 36 -1935 -6 -1935 -7 -163 -59
-164 -60 -136 3 -136 3 -89 148 -88 147 -2101 0 -2102 0 -498 -266 -498 -265
-59 7 c-48 5 -61 11 -72 30 -11 22 -19 24 -81 24 -48 0 -68 4 -68 13 0 20 -31
34 -141 63 -86 23 -117 37 -181 81 l-78 54 0 154 0 154 37 10 c20 6 38 9 38 8
1 -1 7 -36 14 -77 7 -41 13 -75 14 -77 2 -1 13 0 25 4 19 5 22 12 22 58 0 53
0 53 51 85 42 26 50 35 45 53 -3 12 -11 57 -18 100 -6 42 -16 77 -22 77 -6 -1
-30 -4 -53 -9 l-41 -8 -23 49 c-18 38 -28 48 -46 48 -18 0 -23 -4 -20 -17 11
-39 29 -154 25 -158 -2 -2 -14 -2 -26 2 -18 4 -22 12 -22 49 0 24 -4 44 -10
44 -5 0 -10 -24 -10 -52 -1 -53 -1 -53 -16 -25 -8 15 -21 27 -28 27 -10 0 -18
26 -26 85 -7 47 -16 85 -21 85 -5 0 -9 -144 -9 -335 0 -194 4 -335 9 -335 5 0
15 32 21 70 8 46 16 70 25 70 7 0 16 6 19 13 6 13 -2 -112 -10 -155 -5 -24 3
-32 86 -90 50 -34 85 -64 78 -66 -31 -8 -58 -26 -58 -39 0 -16 -40 -17 -221
-2 -107 8 -253 36 -729 139 -786 169 -750 164 -997 145 -109 -8 -206 -15 -215
-15 -11 0 -31 -25 -55 -70 l-38 -70 -67 0 c-107 0 -98 -29 -98 302 0 180 -4
297 -10 309 -7 12 -21 19 -40 19 l-30 0 0 100 0 100 -597 0 -596 0 -73 -40
-73 -40 -116 0 -115 0 0 27 0 26 -122 -6 c-66 -4 -143 -7 -170 -7 l-48 0 0
-80 0 -79 -67 -3 -68 -3 -3 -77 -3 -78 -59 0 -59 0 -3 78 -3 77 -1029 3 c-817
2 -1031 0 -1038 -10 -4 -7 -8 -43 -8 -80 l0 -68 -55 0 -55 0 0 64 c0 89 -4 96
-56 96 l-44 0 0 100 0 100 -592 0 -593 -1 -75 -39z m20337 -6895 l-10 -35
-294 0 c-175 0 -293 4 -293 9 0 5 4 21 10 35 l10 26 294 0 294 0 -11 -35z"/>
</g>
</svg>
