<?xml version="1.0" standalone="no"?>
<!DOCTYPE svg PUBLIC "-//W3C//DTD SVG 20010904//EN"
 "http://www.w3.org/TR/2001/REC-SVG-20010904/DTD/svg10.dtd">
<svg version="1.0" xmlns="http://www.w3.org/2000/svg"
   viewBox="0 0 4388.000000 1045.000000"
 preserveAspectRatio="xMidYMid meet">
<metadata>
Created by potrace 1.16, written by Peter Selinger 2001-2019
</metadata>
<g transform="translate(0.000000,1045.000000) scale(0.100000,-0.100000)"
fill="#000000" stroke="none">
<path d="M20412 9888 c-1 -312 -6 -569 -11 -572 -5 -3 -12 -91 -16 -196 -7
-190 -7 -190 -30 -190 -19 0 -24 -7 -30 -40 -6 -37 -9 -40 -38 -40 -21 0 -36
-7 -45 -20 -12 -19 -23 -20 -265 -20 l-252 0 -166 -118 c-163 -114 -167 -118
-190 -174 -21 -53 -24 -56 -33 -35 -5 12 -12 242 -15 512 l-6 490 -6 -480 c-3
-264 -10 -510 -14 -547 l-8 -68 -53 0 -53 0 -4 113 -3 112 -2 -112 -2 -113
-334 0 -333 0 -45 103 -45 102 -115 3 -116 3 -16 -41 -16 -40 -58 0 -59 0 -16
40 -15 40 -115 0 -114 0 -18 -40 c-18 -40 -18 -40 -75 -40 l-58 0 -16 40 -16
40 -113 0 -114 0 -45 -102 -45 -103 -88 -3 -87 -3 -112 -73 c-103 -67 -116
-79 -175 -164 l-64 -92 -548 0 -548 0 -453 -100 c-425 -94 -456 -102 -504
-135 l-50 -35 -1314 0 -1313 0 -124 105 -125 105 -170 0 c-169 0 -170 0 -202
-26 -26 -23 -32 -24 -34 -10 -3 14 -20 16 -118 16 l-114 0 0 30 0 30 -1801 0
-1801 0 -317 223 c-266 188 -337 233 -448 285 l-133 62 -462 0 -463 0 -294
300 -293 300 -1210 0 -1210 0 -210 155 -210 155 -436 0 -437 0 -71 -103 -71
-102 -396 -3 -397 -2 0 -150 0 -150 -42 0 c-24 0 -130 -21 -235 -47 l-193 -47
0 -758 0 -757 38 -10 c118 -32 334 -81 356 -81 l26 0 0 -275 0 -274 38 -10
c150 -39 164 -41 331 -41 164 0 171 -1 171 -20 0 -20 -7 -20 -307 -20 l-308
-1 -170 -42 -170 -43 0 -759 0 -760 170 -42 170 -41 308 -1 307 -1 0 -105 0
-105 458 0 458 0 104 115 104 115 146 0 c80 0 188 -3 242 -7 l96 -6 38 -88 38
-89 194 -2 194 -3 158 -350 157 -350 64 -42 64 -42 358 0 357 -1 0 -160 0
-160 115 0 115 0 0 -293 0 -293 38 -37 38 -37 460 0 460 0 62 63 62 63 0 232
0 232 309 0 309 0 60 50 60 50 336 0 336 0 0 -120 0 -120 170 0 170 0 0 120 0
120 360 0 360 0 0 -120 0 -120 170 0 170 0 0 120 0 120 360 0 360 0 0 -120 0
-120 170 0 170 0 0 120 0 120 355 0 355 0 0 -120 0 -120 175 0 175 0 0 120 0
120 355 0 355 0 0 -120 0 -120 175 0 175 0 0 120 0 120 283 0 283 0 93 45 92
45 118 0 118 0 139 63 139 63 3 72 3 72 124 0 c118 0 125 -1 125 -20 0 -19 7
-20 105 -20 l105 0 0 -96 c0 -91 2 -98 31 -138 l30 -43 590 -217 590 -216 160
0 160 0 93 75 c51 41 96 75 100 75 3 0 6 -86 6 -192 l0 -192 32 -33 32 -33
-62 0 -62 0 0 -40 0 -40 -94 0 -94 0 -183 -168 c-101 -92 -194 -185 -206 -207
-22 -39 -23 -49 -23 -305 1 -262 1 -265 25 -304 13 -22 44 -51 72 -67 45 -27
48 -31 53 -78 l5 -49 265 -231 265 -231 192 0 193 0 0 -113 0 -112 168 -168
167 -167 303 0 302 0 0 -215 0 -215 157 0 157 0 245 -146 c171 -103 265 -152
310 -165 63 -18 134 -19 1776 -19 l1710 0 78 78 77 77 0 195 0 195 -257 183
-258 182 -97 0 -98 0 0 140 0 140 248 0 248 0 52 53 52 53 0 167 0 167 282 0
283 0 177 177 178 178 0 236 0 237 -42 26 -43 25 898 1 898 0 347 159 c191 87
364 167 385 177 l37 18 0 83 0 83 485 0 485 0 0 -48 c0 -46 3 -50 73 -120 l72
-72 385 0 385 0 78 78 77 77 0 113 0 112 133 0 133 0 37 38 37 38 0 97 0 97
70 0 70 0 0 -245 c0 -238 1 -245 20 -245 19 0 20 7 20 245 l0 245 25 0 c14 0
25 6 25 13 0 6 23 -39 52 -100 l51 -113 89 0 88 0 0 -30 c0 -23 8 -35 37 -55
l38 -25 245 0 245 0 38 25 c29 20 37 32 37 55 l0 30 88 0 88 0 52 53 52 53 0
277 0 277 140 0 140 0 0 -127 0 -128 65 -42 65 -43 313 0 314 0 43 60 43 60
236 0 236 -1 43 -59 44 -60 319 0 319 0 70 46 70 47 0 143 0 144 425 0 425 0
0 -53 0 -52 153 -152 152 -151 75 -12 c41 -6 103 -15 138 -21 l62 -11 0 -109
0 -109 91 0 90 0 -3 -27 c-3 -25 -10 -29 -90 -53 l-88 -25 0 -47 0 -48 458 1
c452 0 458 0 517 23 l60 23 3 46 3 47 180 0 179 0 0 -404 0 -403 93 -62 93
-61 677 0 677 0 0 -77 c0 -43 3 -102 6 -130 l7 -53 96 0 97 0 23 -292 c13
-161 25 -317 28 -345 l6 -53 137 0 137 0 6 107 c4 58 7 128 7 155 l0 48 130 0
130 0 0 -48 c0 -27 3 -97 7 -155 l6 -107 142 0 143 0 7 155 7 154 332 3 c182
2 395 2 473 0 l141 -3 4 -155 3 -156 30 -24 c17 -13 35 -24 41 -24 7 0 13 -39
17 -107 4 -94 7 -108 27 -123 20 -15 23 -30 33 -173 l10 -157 132 0 132 0 10
157 c10 143 13 158 33 173 20 15 23 29 27 123 4 68 10 107 17 107 6 0 25 11
41 24 l30 24 3 156 4 156 51 0 52 0 0 -156 1 -156 29 -24 c17 -13 35 -24 41
-24 7 0 14 -38 19 -102 6 -88 10 -107 30 -128 20 -22 23 -39 29 -145 4 -66 9
-135 13 -153 l5 -32 129 0 c118 0 129 2 129 18 0 10 5 79 11 153 9 120 13 137
35 160 21 22 24 34 24 105 0 103 5 117 46 139 44 24 48 39 48 207 l1 138 52 0
52 0 -6 -54 c-3 -29 -2 -102 2 -160 l7 -107 38 -21 c43 -25 50 -47 50 -159 0
-56 3 -69 24 -88 20 -19 24 -35 30 -109 3 -48 9 -117 12 -154 l7 -68 127 0
128 0 5 42 c4 24 9 93 13 155 6 100 9 114 30 134 18 17 24 33 24 64 0 77 13
165 24 165 6 1 23 11 39 23 26 22 28 28 34 135 l6 112 42 0 42 0 10 -112 c9
-103 12 -113 37 -135 15 -12 33 -23 40 -23 10 0 15 -26 18 -106 3 -95 6 -108
26 -124 20 -17 23 -33 34 -174 l12 -157 130 3 131 3 11 154 c9 139 12 155 32
171 19 16 23 31 29 124 4 66 10 106 17 106 6 0 23 10 38 23 22 18 29 34 37 87
4 36 9 55 10 42 l1 -22 712 2 713 3 17 85 c10 47 20 95 23 107 5 23 8 23 156
23 185 0 194 4 231 98 23 61 24 69 10 85 -9 10 -29 17 -49 17 -32 0 -33 1 -33
40 0 37 2 40 28 40 19 0 40 12 67 40 l39 40 -17 35 c-9 20 -17 44 -17 55 0 33
-43 110 -64 116 -30 9 -37 26 -19 39 14 11 14 14 -4 32 -11 11 -22 25 -24 30
-2 5 -20 19 -40 31 -35 21 -44 22 -348 22 l-311 0 0 45 0 45 128 0 c105 0 131
3 148 18 12 9 76 117 143 239 131 239 140 269 104 332 -17 29 -22 31 -75 31
l-58 0 0 43 c0 34 6 49 28 70 27 26 31 27 154 27 l126 0 21 34 c19 29 21 49
21 165 0 72 -1 131 -3 131 -2 0 -90 31 -196 70 -164 59 -203 70 -257 70 -63 0
-64 0 -64 27 0 21 18 46 75 103 l75 76 -139 299 -140 300 -73 47 -73 48 -117
0 -118 0 0 385 0 385 320 0 320 0 0 180 0 180 255 0 255 0 0 55 0 55 -255 0
-255 0 0 40 0 40 254 0 c159 0 257 4 261 10 3 6 49 10 104 10 53 0 101 4 106
9 6 5 440 11 1003 13 818 4 992 2 992 -9 0 -17 15 -17 34 2 10 10 38 16 83 17
l68 2 -65 3 c-36 2 -76 9 -89 16 -16 8 -25 9 -28 1 -4 -13 -1983 -6 -1998 7
-5 5 -53 9 -106 9 -55 0 -101 4 -104 10 -4 6 -102 10 -261 10 l-254 0 0 35 0
35 -444 0 -444 0 -158 148 c-88 81 -219 202 -293 270 l-133 122 -1357 2 -1356
3 -19 56 c-14 41 -29 62 -57 82 l-37 27 -270 0 -269 0 -39 -28 c-31 -22 -43
-41 -57 -85 l-18 -57 -73 0 -72 0 -161 -135 -160 -135 -769 0 -769 0 -17 40
-17 40 -106 0 c-85 0 -107 3 -111 15 -5 13 -116 15 -915 15 l-909 0 0 -115 0
-115 -45 0 -45 0 0 -98 0 -99 -137 -11 -136 -11 -149 -148 -148 -148 0 -52 0
-53 -425 0 -425 0 0 143 0 142 -73 48 -73 47 -315 0 -316 0 -43 -60 -43 -60
-238 0 -238 0 -46 60 -46 60 -307 0 -307 0 -68 -45 -67 -45 0 -130 0 -130
-140 0 -140 0 0 283 0 283 -53 52 -53 52 -87 0 -87 0 0 49 c0 42 -4 53 -26 70
-26 20 -39 21 -294 21 -255 0 -268 -1 -294 -21 -22 -17 -26 -28 -26 -70 l0
-49 -88 0 -88 0 -49 -111 c-27 -61 -51 -106 -53 -100 -2 6 -15 11 -28 11 l-24
0 0 240 c0 233 -1 240 -20 240 -19 0 -20 -7 -20 -240 l0 -240 -70 0 -70 0 0
155 0 155 -37 35 c-35 31 -43 34 -98 35 l-60 0 -23 63 c-20 56 -22 80 -22 258
l0 196 -1059 526 c-711 353 -1061 532 -1065 544 -3 10 -8 34 -11 53 -6 35 -8
36 -269 163 l-263 128 -44 -21 -44 -21 -325 159 -325 159 -261 62 -261 61
-891 0 c-881 0 -891 0 -902 20 -7 13 -21 20 -40 20 -24 0 -31 5 -36 28 -10 48
-13 52 -33 52 -17 0 -20 9 -25 83 -2 45 -9 156 -15 247 -6 91 -15 397 -20 680
l-8 515 -1 -567z m-14402 -3448 l0 -539 33 -9 c17 -5 107 -26 200 -48 l167
-39 0 -97 0 -97 142 -120 142 -121 128 0 128 0 0 -60 0 -60 -463 0 c-451 0
-464 1 -482 20 -10 11 -29 20 -42 20 l-23 0 0 197 0 197 -47 48 -47 48 -153 0
-153 0 0 313 -1 312 -57 80 -58 80 -242 -1 -242 -1 0 203 0 204 213 3 c116 1
357 3 535 5 l322 2 0 -540z m6509 380 l321 0 0 -67 0 -68 45 -18 45 -19 0 -89
0 -89 -32 0 c-41 -1 -68 -20 -68 -49 l0 -21 -385 0 -385 0 0 260 0 260 69 -50
69 -50 321 0z m311 -958 c0 -40 12 -42 327 -42 l303 0 0 -84 0 -84 45 -11 45
-11 0 -418 0 -417 -145 -73 -145 -72 0 -115 0 -115 -105 0 c-98 0 -105 -1
-105 -20 0 -19 -7 -20 -125 -20 l-125 0 0 83 0 83 -136 62 -135 62 -119 0
-118 0 -103 50 -104 50 -277 0 -278 0 0 300 0 300 123 0 122 0 143 121 142
121 0 134 0 134 385 0 c364 0 385 -1 385 -18z m-4820 -552 l0 -60 -360 0 -360
0 0 60 0 60 360 0 360 0 0 -60z m1060 0 l0 -60 -360 0 -360 0 0 60 0 60 360 0
360 0 0 -60z m1050 30 l0 -30 -95 0 -95 0 0 -30 0 -30 -260 0 -260 0 0 60 0
60 355 0 355 0 0 -30z m1060 -270 l0 -300 -355 0 -355 0 0 300 0 300 355 0
355 0 0 -300z m-4230 -115 l0 -185 -339 0 -339 0 -54 45 -55 45 -112 0 -111 0
0 120 0 120 28 0 c16 0 32 8 40 20 12 20 23 20 477 20 l465 0 0 -185z m1060 0
l0 -185 -360 0 -360 0 0 185 0 185 360 0 360 0 0 -185z m1060 0 l0 -185 -360
0 -360 0 0 185 0 185 360 0 360 0 0 -185z m860 0 l0 -185 -260 0 -260 0 0 185
0 185 260 0 260 0 0 -185z m6850 -1680 l0 -135 -40 0 -40 0 0 -50 0 -50 -292
0 -292 0 37 38 37 38 0 147 0 147 295 0 295 0 0 -135z"/>
</g>
</svg>
