<?xml version="1.0" standalone="no"?>
<!DOCTYPE svg PUBLIC "-//W3C//DTD SVG 20010904//EN"
 "http://www.w3.org/TR/2001/REC-SVG-20010904/DTD/svg10.dtd">
<svg version="1.0" xmlns="http://www.w3.org/2000/svg"
   viewBox="0 0 3365.000000 4294.000000"
 preserveAspectRatio="xMidYMid meet">
<metadata>
Created by potrace 1.16, written by Peter Selinger 2001-2019
</metadata>
<g transform="translate(0.000000,4294.000000) scale(0.100000,-0.100000)"
fill="#000000" stroke="none">
<path d="M24710 40804 c0 -2121 0 -2136 -20 -2161 -18 -24 -20 -41 -20 -223 0
-108 -3 -218 -6 -244 -7 -46 -7 -46 -45 -46 l-39 0 0 -1369 0 -1369 -87 -8
-88 -9 -3 -72 -3 -73 46 0 45 0 0 -1690 c0 -1491 -2 -1690 -15 -1690 -8 0 -25
-15 -37 -34 -19 -29 -30 -35 -73 -40 -27 -4 -65 -9 -82 -12 l-33 -6 0 -253 0
-254 75 -12 75 -12 0 -1117 0 -1117 -35 -24 -35 -24 0 -811 0 -812 35 -26 35
-27 0 -1085 c0 -1077 0 -1084 -20 -1084 -20 0 -20 -7 -20 -324 l0 -325 -57
-11 c-32 -7 -96 -20 -143 -31 -77 -17 -727 -95 -990 -119 -323 -29 -1029 -116
-1044 -129 -9 -7 -28 -39 -44 -70 l-27 -57 -560 92 c-465 76 -619 105 -900
172 l-340 81 -435 20 -435 19 -1905 -155 -1905 -155 -405 131 c-234 76 -421
131 -443 131 -21 0 -1862 -139 -4090 -310 -3846 -294 -4214 -321 -7301 -525
-1788 -118 -3270 -218 -3293 -221 l-42 -5 30 -87 c17 -48 83 -220 147 -382 96
-244 129 -341 187 -560 49 -181 68 -267 60 -270 -8 -3 3 -50 34 -147 l44 -143
198 0 198 0 753 -446 753 -446 260 -451 c143 -247 267 -459 276 -470 18 -23
-25 -21 2664 -92 l1000 -26 1640 -139 1640 -139 775 -16 c426 -8 1207 -15
1735 -15 1143 0 2203 -20 2855 -55 256 -14 813 -36 1238 -50 741 -24 857 -25
2761 -25 l1988 0 80 -92 c79 -92 84 -96 387 -286 168 -106 321 -199 339 -206
86 -36 720 -246 741 -246 13 0 38 -3 55 -6 30 -6 31 -8 31 -59 l0 -53 73 -28
c39 -14 87 -33 106 -40 27 -11 143 -14 590 -14 l556 0 78 30 c43 16 80 30 83
30 2 0 4 -121 4 -270 0 -263 0 -270 20 -270 20 0 20 -7 20 -1087 l0 -1088 -35
-23 -35 -22 0 -813 0 -812 35 -24 35 -24 0 -1117 0 -1117 -75 -12 -75 -12 0
-254 0 -253 33 -6 c17 -3 55 -8 82 -12 43 -5 54 -11 73 -40 12 -19 29 -34 37
-34 13 0 15 -199 15 -1690 l0 -1690 -45 0 -46 0 3 -72 3 -73 88 -9 87 -8 0
-1369 0 -1369 39 0 c38 0 38 0 45 -46 3 -26 6 -136 6 -244 0 -182 2 -199 20
-223 20 -25 20 -40 20 -2161 l0 -2136 50 0 50 0 0 2136 c0 2121 0 2136 20
2161 18 24 20 41 20 223 0 108 3 218 6 244 7 46 7 46 45 46 l39 0 0 1369 0
1369 88 8 87 9 3 73 3 72 -46 0 -45 0 0 1690 c0 1491 2 1690 15 1690 8 0 25
15 37 34 19 29 30 35 73 40 27 4 65 9 83 12 l32 6 0 253 0 254 -75 12 -75 12
0 1116 0 1117 30 22 30 23 0 819 0 819 -30 18 -30 17 0 1088 c0 1081 0 1088
20 1088 19 0 20 7 20 240 l0 240 558 0 557 0 112 41 112 42 3 56 c3 55 3 56
38 62 19 3 193 60 386 126 l350 119 388 278 388 277 381 14 c210 8 420 15 467
15 l85 0 80 -105 80 -104 192 -1 192 0 408 -360 408 -359 532 -1 532 0 19 52
c11 29 38 110 61 180 42 125 43 128 72 128 23 0 30 5 35 28 26 114 45 177 54
180 5 2 10 28 10 58 0 30 3 54 8 54 4 -1 216 -60 471 -133 457 -132 464 -133
530 -125 161 20 142 10 215 103 l67 85 304 1078 303 1077 42 550 c23 303 43
578 43 613 l2 63 -1045 440 -1045 440 -280 51 -280 51 -84 76 c-47 42 -107 96
-134 120 l-49 45 -375 102 c-206 56 -399 112 -428 124 -47 19 -100 69 -432
403 -208 210 -432 439 -497 510 l-120 127 -874 0 -874 0 -874 -120 c-480 -66
-917 -129 -970 -140 -53 -11 -102 -20 -110 -20 -12 0 -14 42 -14 240 0 233 -1
240 -20 240 -20 0 -20 7 -20 1085 l0 1084 30 23 30 22 0 818 0 817 -30 23 -30
22 0 1117 0 1116 75 12 75 12 0 254 0 253 -32 6 c-18 3 -56 8 -83 12 -43 5
-54 11 -73 40 -12 19 -29 34 -37 34 -13 0 -15 199 -15 1690 l0 1690 45 0 46 0
-3 73 -3 72 -87 9 -88 8 0 1369 0 1369 -39 0 c-38 0 -38 0 -45 46 -3 26 -6
136 -6 244 0 182 -2 199 -20 223 -20 25 -20 40 -20 2161 l0 2136 -50 0 -50 0
0 -2136z"/>
</g>
</svg>
