<?xml version="1.0" standalone="no"?>
<!DOCTYPE svg PUBLIC "-//W3C//DTD SVG 20010904//EN"
 "http://www.w3.org/TR/2001/REC-SVG-20010904/DTD/svg10.dtd">
<svg version="1.0" xmlns="http://www.w3.org/2000/svg"
   viewBox="0 0 4704.000000 3043.000000"
 preserveAspectRatio="xMidYMid meet">
<metadata>
Created by potrace 1.16, written by Peter Selinger 2001-2019
</metadata>
<g transform="translate(0.000000,3043.000000) scale(0.100000,-0.100000)"
fill="#000000" stroke="none">
<path d="M18635 23794 c-4140 -5216 -5266 -6640 -5262 -6657 2 -12 291 -798
642 -1747 350 -949 642 -1737 647 -1752 l10 -28 3719 0 3719 0 0 -480 0 -480
-167 0 -168 0 -22 -39 -22 -38 -1157 -7 c-762 -5 -1166 -11 -1183 -18 -24 -10
-589 -12 -5703 -27 -224 -1 -238 -2 -238 -19 0 -18 98 -19 2954 -25 2079 -5
2963 -10 2983 -18 19 -7 320 -12 938 -15 501 -2 1001 -7 1112 -10 l202 -6 -15
-29 c-14 -28 -18 -29 -80 -29 -64 0 -67 -1 -123 -50 l-58 -50 -704 0 -704 0
-43 -63 -42 -63 -1088 -27 c-598 -15 -1138 -30 -1199 -34 l-113 -6 0 -58 0
-59 83 0 c56 0 2279 -58 2314 -60 1 0 23 -29 48 -65 l47 -65 418 -2 418 -3
-520 -462 -521 -463 -401 0 -401 -1 -124 -209 -123 -210 -1670 0 -1669 0 -106
-93 -106 -94 -651 -239 -651 -239 -135 -120 c-74 -66 -262 -234 -417 -373
l-282 -252 -520 0 -520 0 -405 -212 -406 -213 0 -207 c0 -115 -3 -208 -6 -208
-6 0 -372 113 -506 156 l-48 16 0 114 0 114 -89 0 -89 0 -72 177 c-40 97 -77
187 -83 200 -9 20 -17 23 -69 23 l-58 0 0 100 0 100 -740 0 -740 0 0 -100 0
-100 -943 0 -944 0 -166 -274 -166 -274 -43 -337 c-23 -185 -45 -340 -48 -345
-3 -5 -273 -18 -600 -29 -327 -11 -632 -23 -677 -25 l-83 -5 0 900 0 899 -497
-2 -497 -3 -64 -143 -65 -142 -872 0 -872 0 -69 145 -69 144 -504 1 -504 0
-493 -132 -494 -131 0 -1894 c0 -1041 2 -1893 4 -1893 2 0 224 -56 492 -125
l489 -125 252 0 252 0 23 43 23 42 1726 3 1726 2 6 212 c4 116 7 307 7 425 l0
213 88 0 c48 0 308 -7 577 -15 270 -8 534 -15 588 -15 l97 0 0 -233 0 -234
129 -16 c71 -8 144 -23 163 -33 18 -9 101 -61 184 -115 l150 -99 151 0 c82 0
191 -3 242 -7 l91 -6 43 -53 42 -53 362 -1 362 0 18 -30 17 -30 1111 1 1110 0
170 204 c94 113 178 219 187 237 16 29 18 63 18 251 0 167 3 217 13 217 6 0
66 -15 131 -33 l119 -33 -2 -146 -2 -146 218 -117 c120 -64 221 -120 225 -124
4 -4 -65 -38 -155 -77 l-162 -70 0 -494 0 -494 329 -148 329 -148 339 0 338 0
0 -65 0 -65 175 0 175 0 0 -80 0 -80 94 0 c94 0 94 0 104 -28 9 -26 37 -37
508 -200 l499 -172 656 0 655 0 183 200 182 200 144 0 145 0 0 80 0 80 135 0
135 0 0 65 0 65 349 0 350 0 10 -52 c12 -57 111 -590 111 -595 0 -2 -200 -3
-445 -3 l-445 0 0 -55 0 -55 454 0 c424 0 455 -1 460 -17 3 -10 30 -153 61
-318 30 -165 57 -310 60 -322 5 -22 7 -23 212 -25 l207 -3 240 -266 241 -265
170 -57 c94 -32 568 -189 1055 -349 596 -196 944 -316 1067 -367 l181 -76 157
-167 c106 -112 167 -170 189 -177 17 -6 514 -155 1104 -331 l1073 -321 78 70
c43 39 83 71 88 71 5 0 182 -55 393 -122 l385 -123 230 7 c137 5 535 2 980 -7
413 -8 762 -15 778 -15 25 0 27 -3 27 -44 0 -83 -59 -76 606 -76 l594 0 0 65
0 65 249 0 249 0 224 219 223 218 104 13 103 13 657 372 c361 204 684 387 718
406 l63 34 0 83 0 82 103 1 c424 3 4029 69 4055 74 30 7 32 10 32 50 l0 44
-52 5 c-42 4 -3935 67 -4095 66 l-43 0 0 60 c0 37 -6 70 -15 84 -14 21 -11 32
45 166 33 78 60 148 60 154 0 6 -36 47 -79 91 l-80 80 17 85 17 85 128 3 127
3 0 182 0 183 1068 48 c587 26 1092 51 1122 54 42 6 56 11 58 26 2 10 0 22 -6
28 -7 7 -2040 108 -2195 108 l-47 0 2 197 3 197 220 142 220 142 3 119 3 120
67 7 c37 3 662 6 1390 6 l1322 0 0 -60 0 -60 185 0 185 0 0 60 0 60 115 0 115
0 0 -60 0 -60 180 0 180 0 0 60 0 60 1155 0 1155 0 0 -65 c0 -36 3 -65 8 -66
4 0 120 -15 257 -32 l250 -32 3 -70 3 -70 302 -116 302 -116 445 62 c245 34
471 65 503 68 l57 6 0 -105 0 -104 595 0 595 0 0 185 c0 102 1 185 3 186 1 0
286 49 632 108 l630 107 88 -68 89 -68 226 0 c125 0 534 5 910 10 l682 10 80
40 80 40 0 131 0 130 313 -7 312 -6 35 61 35 61 50 -1 c120 0 2772 63 2793 67
19 4 22 11 22 49 0 25 -1 45 -2 45 -13 1 -2802 50 -2828 50 -33 0 -39 5 -69
55 l-33 55 -314 0 -314 0 0 94 0 94 -90 38 c-50 20 -93 41 -96 45 -5 8 -114
507 -114 521 0 10 -1321 444 -2135 702 -789 250 -1176 374 -1180 378 -2 2 5
33 15 70 l19 67 -32 5 c-48 8 -569 56 -604 56 -28 0 -31 -4 -48 -60 -17 -55
-20 -60 -47 -60 -93 0 -1753 -102 -1759 -108 -4 -4 -39 -141 -79 -305 l-72
-297 -102 0 c-55 0 -172 -3 -258 -7 l-158 -6 0 -64 0 -63 -1295 0 -1295 0 0
60 0 60 -185 0 -184 0 -7 -60 -7 -60 -443 0 -444 0 0 185 0 185 -55 0 -55 0
81 123 c45 67 118 173 161 234 l79 113 182 0 c100 0 192 3 205 6 20 6 22 12
22 70 l0 64 133 0 c72 0 502 5 955 12 l822 12 0 28 c0 27 -1 28 -57 28 -32 0
-447 7 -923 15 -476 8 -880 15 -897 15 -32 0 -33 2 -33 40 l0 40 -157 0 -158
0 -106 348 -106 347 36 2 c20 1 356 9 746 18 697 16 710 17 728 37 10 12 22
28 26 36 7 13 212 17 1527 33 836 10 1630 18 1767 19 l247 0 0 25 c0 14 -1 25
-2 25 -12 2 -3242 40 -3368 40 l-165 0 -19 34 -18 34 -112 6 c-61 3 -419 13
-796 22 -377 8 -690 17 -695 18 -6 2 -30 72 -55 155 l-45 151 -171 0 -170 0
-197 135 -196 135 -74 0 c-41 0 -121 3 -179 6 l-106 7 -48 243 -48 244 -397 0
-396 0 -102 125 -101 125 -268 0 -268 0 -101 210 -101 210 -150 0 c-144 0
-149 1 -160 23 -6 12 -25 46 -42 74 l-30 53 240 0 240 0 0 -25 c0 -24 3 -25
53 -25 l53 0 15 -47 15 -48 229 -3 230 -2 25 29 c24 29 31 30 285 70 l260 40
21 -26 20 -26 187 29 187 29 0 57 0 58 136 0 136 0 51 44 52 44 940 2 c517 1
999 1 1070 1 72 -1 199 2 283 5 l152 6 0 38 0 38 -102 6 c-57 3 -184 6 -283 6
-99 0 -603 1 -1120 2 l-940 1 -54 49 -55 48 -133 0 -133 0 0 58 0 59 -185 48
-185 48 0 29 c0 24 -53 148 -64 148 -2 0 -89 22 -192 50 l-189 50 -340 -1
-340 0 -42 -52 -43 -51 0 -93 0 -93 -418 0 -418 0 -307 508 c-168 279 -427
707 -575 952 l-269 445 -1126 3 -1127 2 0 555 0 555 350 0 350 0 0 8410 0
8410 -1254 0 -1254 0 -5267 -6636z m6745 -10739 l0 -555 -922 0 -922 0 -27 26
c-21 20 -68 37 -208 75 -170 46 -189 49 -301 49 l-120 0 0 480 0 480 1250 0
1250 0 0 -555z m-19650 -6186 c343 -22 624 -41 625 -42 1 -1 -1 -44 -3 -94
l-4 -93 -674 0 -674 0 0 140 0 140 53 -5 c28 -3 333 -24 677 -46z"/>
</g>
</svg>
