<?xml version="1.0" standalone="no"?>
<!DOCTYPE svg PUBLIC "-//W3C//DTD SVG 20010904//EN"
 "http://www.w3.org/TR/2001/REC-SVG-20010904/DTD/svg10.dtd">
<svg version="1.0" xmlns="http://www.w3.org/2000/svg"
   viewBox="0 0 4085.000000 1119.000000"
 preserveAspectRatio="xMidYMid meet">
<metadata>
Created by potrace 1.16, written by Peter Selinger 2001-2019
</metadata>
<g transform="translate(0.000000,1119.000000) scale(0.100000,-0.100000)"
fill="#000000" stroke="none">
<path d="M11622 11074 l-254 -114 -406 0 c-389 0 -408 -1 -440 -20 -28 -18
-50 -20 -178 -20 l-145 0 -139 -80 -139 -80 -319 0 -319 0 -252 -117 -251
-117 0 -133 0 -133 139 0 139 0 138 -80 139 -80 -786 0 -785 0 -59 -60 -59
-60 54 -55 54 -55 1163 0 1163 0 0 -70 0 -70 -1617 2 c-1498 3 -1660 5 -2183
27 -541 22 -574 22 -770 7 -146 -11 -523 -20 -1300 -31 l-1095 -16 -325 -45
c-309 -43 -335 -48 -537 -110 l-213 -64 -158 0 -159 0 -334 -164 c-222 -109
-336 -160 -340 -153 -4 7 -16 55 -29 107 -12 52 -25 98 -29 101 -3 4 -109 -42
-236 -101 l-230 -107 -3 -475 -2 -474 -98 -19 c-53 -10 -103 -20 -110 -22 -8
-4 -12 -33 -12 -97 l0 -92 191 -209 c105 -116 199 -218 208 -228 16 -17 20
-16 90 13 41 16 75 30 76 30 4 0 325 -389 325 -394 0 -3 -117 -6 -260 -6
l-259 0 -179 -39 c-170 -38 -187 -44 -336 -118 l-156 -78 0 -737 0 -738 158
-79 c147 -74 169 -81 321 -115 l164 -36 274 0 273 0 0 -90 0 -90 745 0 745 0
0 -144 0 -143 81 -92 81 -91 84 0 84 0 0 -30 c0 -25 5 -31 38 -40 20 -5 172
-52 337 -103 l300 -93 3 -65 3 -64 74 -75 74 -75 3 -64 3 -65 105 -43 105 -44
155 -154 155 -155 273 0 c211 0 272 -3 272 -12 1 -7 132 -88 293 -181 l291
-167 253 0 253 0 0 -67 1 -68 989 -443 990 -442 1751 0 1752 0 123 67 c103 56
124 71 124 90 l0 23 1194 0 1194 0 523 250 524 250 2502 0 2502 0 323 -90 323
-90 608 0 607 0 0 -250 0 -250 1931 0 1931 0 129 67 c117 62 128 71 131 98 3
30 4 30 60 30 48 0 61 -4 74 -23 l15 -22 1077 0 1077 1 530 313 530 313 3 139
3 140 -114 52 -114 52 -317 0 c-274 0 -316 2 -316 15 0 13 223 15 1943 15
l1942 0 227 178 c223 174 227 178 228 215 l0 37 123 0 122 0 269 195 269 195
856 0 856 1 475 113 475 113 3 185 2 186 83 20 c45 11 773 181 1617 378 844
196 1540 363 1545 370 6 6 268 72 583 145 l572 134 -2 605 -3 605 -2195 222
c-1207 122 -2196 222 -2197 223 -2 0 -3 27 -3 59 0 48 -3 61 -17 65 -10 3
-218 54 -463 113 l-445 108 -736 5 -737 5 274 283 274 283 0 253 0 254 -556
306 -555 306 -142 0 c-95 0 -137 -3 -127 -10 10 -6 -323 -10 -949 -10 l-963 0
-20 -25 c-16 -21 -28 -25 -73 -25 -53 0 -54 1 -60 33 -6 29 -17 37 -138 100
l-132 68 -1752 0 -1751 -1 -989 -443 -988 -443 -3 -127 -3 -127 -76 0 c-74 0
-80 -2 -165 -50 l-88 -50 -487 0 -487 0 -141 -60 -142 -59 -357 114 c-370 119
-460 140 -634 151 l-102 7 -177 160 c-174 157 -178 160 -311 223 l-135 64
-373 0 -374 0 0 25 0 25 -355 0 -355 0 0 -25 0 -25 -154 0 -153 0 -1084 423
-1084 423 -3 87 -3 87 320 0 320 0 108 50 108 49 2 143 3 143 -531 313 -531
312 -1070 0 -1070 0 -30 -25 c-23 -19 -41 -25 -78 -25 -47 0 -49 1 -52 32 -3
30 -12 36 -128 99 l-125 68 -1765 0 -1765 0 -253 -115z m7582 -1903 l1130
-441 153 0 153 0 0 -30 0 -30 105 0 c87 0 105 -3 105 -15 0 -13 -29 -15 -200
-15 -166 0 -205 -3 -235 -17 -21 -10 -35 -24 -35 -35 0 -17 -17 -18 -305 -18
l-305 0 0 44 c0 39 -3 45 -27 54 -16 5 -277 103 -581 216 l-553 206 -885 0
-884 0 0 59 c0 58 -1 60 -37 83 l-38 23 445 3 446 2 193 181 c127 118 200 179
210 176 9 -3 524 -203 1145 -446z m2941 -475 c28 -19 73 -55 100 -80 l50 -45
-357 -1 c-339 0 -358 1 -358 18 0 11 -14 25 -35 35 -30 14 -68 17 -225 17
-162 0 -190 2 -190 15 0 12 19 15 110 15 l110 0 0 30 0 30 373 0 372 0 50 -34z
m11998 -563 l-308 -302 -279 0 -280 -1 29 30 29 30 191 0 191 0 277 266 c257
246 277 268 277 300 0 25 4 34 18 35 9 0 49 15 87 33 l70 32 3 -60 3 -61 -308
-302z m-16463 -4447 c0 -129 2 -145 18 -150 9 -3 337 -93 727 -202 391 -108
712 -198 714 -200 2 -2 -758 -4 -1690 -4 l-1694 0 730 349 730 349 233 1 232
1 0 -144z m15050 100 c0 -2 -52 -42 -115 -90 l-115 -87 -139 3 -139 3 197 87
c169 74 204 86 254 87 31 1 57 -1 57 -3z"/>
<path d="M19718 503 l-658 -3 0 -250 0 -250 1830 0 1830 0 0 255 0 255 -1172
-2 c-645 -2 -1469 -4 -1830 -5z"/>
</g>
</svg>
