<?xml version="1.0" standalone="no"?>
<!DOCTYPE svg PUBLIC "-//W3C//DTD SVG 20010904//EN"
 "http://www.w3.org/TR/2001/REC-SVG-20010904/DTD/svg10.dtd">
<svg version="1.0" xmlns="http://www.w3.org/2000/svg"
   viewBox="0 0 3430.000000 1363.000000"
 preserveAspectRatio="xMidYMid meet">
<metadata>
Created by potrace 1.16, written by Peter Selinger 2001-2019
</metadata>
<g transform="translate(0.000000,1363.000000) scale(0.100000,-0.100000)"
fill="#000000" stroke="none">
<path d="M12355 13619 l-830 -8 -685 -46 -685 -47 -718 -109 -718 -110 -686
-190 -685 -190 -602 -264 -601 -263 -129 -144 c-71 -78 -247 -271 -392 -428
l-262 -285 -559 -159 -558 -159 -625 -242 c-412 -160 -780 -310 -1080 -442
l-455 -200 -1040 -329 c-572 -180 -1042 -329 -1044 -330 -11 -8 356 -458 378
-462 9 -2 39 -25 66 -51 54 -52 193 -161 204 -161 4 0 349 34 766 76 l760 76
330 -24 c269 -19 311 -24 229 -26 l-101 -3 -68 -100 c-73 -108 -75 -110 -313
-273 l-142 -97 0 -285 0 -284 -32 0 c-18 0 -50 -3 -71 -6 l-37 -7 0 -707 0
-707 70 -7 70 -7 0 -537 0 -537 191 -95 190 -95 57 -99 c62 -108 53 -102 175
-126 l57 -11 -41 -47 c-40 -46 -40 -47 -37 -118 l3 -72 -155 -114 -155 -114
-3 -1005 -2 -1004 167 -121 168 -120 5 -269 5 -270 2430 -357 c2462 -361 4040
-589 4818 -694 l427 -58 0 -45 0 -44 331 7 330 7 227 79 227 80 1161 0 1162 0
269 -64 268 -64 608 -61 607 -61 743 204 c408 112 994 273 1302 357 l560 153
1445 816 c1285 726 1470 834 1671 972 l226 155 384 6 c211 4 695 21 1075 38
l692 32 291 -255 292 -255 202 -6 c111 -4 355 -10 542 -13 l340 -6 455 122
455 122 825 49 825 50 763 -63 764 -63 471 -304 472 -303 435 16 c239 9 478
19 530 22 l95 5 265 -154 265 -155 47 161 c25 88 52 163 58 167 6 4 89 10 183
13 127 4 175 3 183 -6 7 -7 337 -561 734 -1232 397 -671 725 -1223 729 -1227
4 -4 67 214 140 485 l134 492 55 394 55 395 -72 488 -71 488 -100 289 -100
288 -151 254 c-83 140 -151 258 -152 262 -1 5 43 25 99 45 l101 37 -541 899
-541 898 -640 731 -640 732 -570 503 -570 504 -650 453 -650 453 -640 361
-639 361 -702 330 -701 330 -809 244 -809 244 -1130 233 -1130 232 -435 215
c-635 312 -1838 892 -1960 944 -99 43 -116 47 -290 67 -102 12 -489 44 -860
71 -703 52 -1624 101 -4050 216 -773 36 -1407 68 -1409 70 -3 2 -7 142 -9 309
l-5 305 -146 -2 c-80 -1 -519 -5 -976 -9z"/>
</g>
</svg>
