<?xml version="1.0" standalone="no"?>
<!DOCTYPE svg PUBLIC "-//W3C//DTD SVG 20010904//EN"
 "http://www.w3.org/TR/2001/REC-SVG-20010904/DTD/svg10.dtd">
<svg version="1.0" xmlns="http://www.w3.org/2000/svg"
   viewBox="0 0 3572.000000 832.000000"
 preserveAspectRatio="xMidYMid meet">
<metadata>
Created by potrace 1.16, written by Peter Selinger 2001-2019
</metadata>
<g transform="translate(0.000000,832.000000) scale(0.100000,-0.100000)"
fill="#000000" stroke="none">
<path d="M6973 8290 l-52 -30 -192 0 -192 0 -58 -50 -57 -50 -331 0 -330 0
-1303 -741 c-717 -408 -1308 -746 -1314 -753 -6 -6 -52 -160 -104 -342 l-93
-330 -88 -23 c-48 -13 -94 -28 -102 -35 -16 -12 -56 -110 -66 -158 l-7 -32
-448 -124 -448 -125 -42 -46 c-24 -25 -56 -61 -72 -79 l-29 -33 -544 -74 -544
-74 -67 -66 -68 -67 -136 -18 c-135 -18 -139 -19 -212 -67 l-74 -48 3 -828 2
-828 80 -49 80 -48 875 -91 c552 -58 877 -96 881 -103 4 -6 33 -81 64 -167 32
-86 62 -162 67 -168 6 -8 37 -13 77 -14 94 -1 102 -5 120 -76 16 -60 17 -62
143 -168 l128 -107 542 -58 543 -58 623 -206 622 -207 0 -300 0 -301 90 -128
c59 -83 100 -132 118 -139 15 -6 506 -179 1091 -386 l1064 -375 1713 0 1712 0
20 -57 19 -58 1983 0 1983 0 15 43 14 42 50 0 c33 0 71 9 110 27 l60 27 -6 40
c-3 23 -10 86 -16 141 -16 142 -16 142 -49 148 l-30 6 16 48 16 47 -51 46 -51
45 98 255 98 255 823 5 823 5 95 228 95 227 1177 0 1177 0 171 97 172 97 0 38
0 38 775 0 775 0 0 -89 0 -89 65 -27 65 -28 0 -526 0 -526 78 -78 77 -77 665
0 666 0 42 85 c23 47 42 98 42 114 0 28 1 28 100 44 87 15 215 17 1072 17
l973 1 68 105 67 105 0 485 0 484 100 0 99 0 3 -91 3 -91 63 -26 62 -26 0
-525 0 -526 76 -78 76 -77 664 0 663 0 40 74 c28 51 41 86 41 113 l0 39 103
17 c92 15 199 17 1075 17 l972 0 70 108 70 107 0 483 0 482 95 0 94 0 3 -91 3
-91 63 -26 62 -26 0 -523 0 -524 73 -80 72 -79 667 0 667 0 40 77 c26 49 41
91 41 113 l0 36 103 17 c92 16 200 17 1074 17 l972 0 70 108 71 107 0 483 0
482 65 0 64 0 51 75 51 75 583 0 583 0 82 -95 83 -95 223 0 c210 0 224 1 249
21 14 11 26 29 26 40 0 18 9 19 165 19 l165 0 0 40 0 40 -164 0 c-147 0 -165
2 -168 17 -2 12 -292 140 -1028 454 l-1025 437 -3 384 -3 383 -67 95 -68 95
-690 7 c-890 9 -1436 21 -1451 31 -7 5 -13 25 -13 45 -1 23 -15 64 -38 107
l-37 70 -670 3 -670 2 -70 -77 -70 -77 -5 -365 -5 -365 -62 -44 -63 -43 0 -75
0 -74 -95 0 -95 0 0 331 0 331 -67 98 -68 99 -690 5 c-585 4 -1444 19 -1452
24 -2 1 -3 15 -3 32 0 16 -19 68 -42 115 l-42 85 -667 0 -667 0 -76 -77 -76
-78 0 -365 0 -365 -65 -43 -65 -42 0 -75 0 -75 -100 0 -100 0 0 333 0 333 -65
95 -66 94 -692 7 c-606 6 -1447 21 -1454 26 -2 1 -3 18 -3 38 0 23 -15 64 -42
115 l-43 79 -665 0 -665 0 -78 -78 -77 -77 0 -365 0 -365 -65 -44 -65 -44 0
-74 0 -73 -605 0 c-426 0 -605 3 -605 11 0 6 -26 69 -57 140 l-57 129 -871 0
-871 0 -57 -128 c-31 -70 -57 -133 -57 -140 0 -9 -126 -12 -569 -12 l-569 0
-393 286 c-217 158 -402 294 -412 303 -15 14 -16 22 -6 49 l11 32 956 1 957 0
200 108 200 107 3 131 3 131 267 51 c147 29 273 54 280 56 8 3 17 -8 24 -25
l10 -30 533 0 534 0 51 59 c44 51 55 59 74 52 17 -7 28 -1 60 36 34 39 38 48
27 65 -11 17 -5 28 52 91 l65 72 -44 114 c-24 62 -44 117 -44 122 0 5 57 77
126 160 116 140 128 151 155 147 20 -3 29 0 29 9 0 7 8 13 18 13 32 0 40 15
47 97 6 76 6 81 -13 87 -12 4 -22 17 -24 29 -3 19 -11 23 -73 30 -49 5 -74 12
-82 25 -7 9 -61 89 -120 177 -87 128 -117 165 -154 187 -43 26 -67 30 -475 77
-2252 263 -2923 341 -2931 341 -12 0 -79 -61 -84 -78 -3 -10 -193 9 -842 83
l-837 95 -1238 371 c-680 205 -1241 376 -1247 381 -9 8 4 22 29 31 7 2 34 172
35 227 1 20 -74 50 -125 50 -38 0 -42 3 -50 33 l-10 32 -224 3 -224 2 -354
-60 -355 -61 -29 35 -29 36 -232 0 -232 0 -38 53 c-20 28 -52 69 -70 90 l-32
37 -535 50 c-294 27 -559 52 -588 55 l-53 7 -48 96 -49 97 -128 38 c-282 84
-257 73 -284 122 -21 39 -29 45 -65 50 -22 3 -291 27 -597 54 l-557 50 -74 55
-74 56 -164 0 c-164 0 -164 0 -216 -30z"/>
</g>
</svg>
