<?xml version="1.0" standalone="no"?>
<!DOCTYPE svg PUBLIC "-//W3C//DTD SVG 20010904//EN"
 "http://www.w3.org/TR/2001/REC-SVG-20010904/DTD/svg10.dtd">
<svg version="1.0" xmlns="http://www.w3.org/2000/svg"
   viewBox="0 0 3804.000000 1120.000000"
 preserveAspectRatio="xMidYMid meet">
<metadata>
Created by potrace 1.16, written by Peter Selinger 2001-2019
</metadata>
<g transform="translate(0.000000,1120.000000) scale(0.100000,-0.100000)"
fill="#000000" stroke="none">
<path d="M26075 11189 l-890 -7 -545 -107 c-509 -100 -577 -110 -1035 -166
-269 -32 -498 -59 -507 -59 -12 0 -30 -24 -53 -70 l-35 -70 0 -209 0 -209 -83
-92 -84 -92 -58 -226 -58 -227 -68 -101 -67 -101 -75 -13 c-41 -7 -79 -15 -85
-19 -11 -6 -102 -227 -102 -247 0 -6 17 -35 39 -65 l39 -54 -34 -67 c-39 -77
-16 -66 -255 -119 l-147 -33 -78 -195 c-43 -108 -81 -214 -84 -236 -4 -27 -49
-109 -141 -257 l-134 -217 -80 -6 c-44 -4 -106 -5 -138 -3 l-58 3 122 179 123
180 -55 49 c-30 27 -112 98 -184 158 l-129 109 -141 44 -140 44 -932 57 -931
57 -604 -32 -603 -32 -465 -103 -465 -103 -220 -87 c-121 -48 -225 -89 -231
-92 -7 -2 -30 50 -60 136 -53 152 -42 135 -285 440 -15 19 -57 34 -212 76
-105 28 -205 55 -220 59 -26 6 -28 10 -25 49 l3 42 51 8 c34 5 59 16 75 33
l23 24 -24 100 c-16 66 -31 106 -44 119 -12 11 -75 33 -143 51 l-123 33 0 88
0 89 28 -6 c15 -2 48 -8 75 -13 l47 -8 0 127 0 127 -91 166 -91 166 -131 118
c-73 65 -149 133 -169 151 -30 27 -87 51 -280 118 l-243 85 -210 -6 c-115 -3
-254 -8 -307 -11 l-98 -5 0 111 0 110 -32 -1 c-18 0 -95 -4 -170 -8 l-137 -8
-156 -64 -156 -64 -116 -130 c-64 -71 -126 -141 -138 -153 l-22 -24 -58 33
-57 32 -44 -24 -44 -24 -208 103 -207 103 -235 48 -236 48 -224 -34 -225 -33
-66 -66 c-46 -46 -71 -64 -80 -58 -8 4 -50 38 -95 75 l-80 67 -221 7 c-213 7
-223 7 -289 -15 -52 -17 -84 -36 -132 -79 -124 -110 -100 -101 -246 -91 -72 5
-131 8 -132 7 -11 -11 -134 -767 -130 -792 5 -23 -3 -51 -27 -106 -19 -41 -63
-152 -98 -248 l-64 -173 -107 -101 c-60 -55 -108 -107 -108 -116 0 -11 -154
-130 -407 -316 l-407 -299 -20 29 c-12 15 -30 39 -41 53 l-21 24 -84 -36 c-88
-37 -1305 -358 -1411 -372 -79 -10 -481 -142 -909 -297 -281 -102 -472 -164
-765 -247 -214 -61 -396 -113 -403 -115 -8 -3 9 -47 54 -138 l67 -134 58 -23
c58 -22 61 -26 135 -141 l76 -119 102 -55 102 -54 17 -108 c9 -59 19 -163 23
-230 l7 -123 -300 0 -301 0 -227 -344 -226 -344 -47 -6 c-26 -4 -460 -60 -965
-125 -505 -65 -921 -122 -924 -125 -4 -4 12 -189 35 -412 l41 -406 105 -111
105 -112 370 -180 371 -180 0 -421 0 -422 -802 -5 c-1064 -7 -1983 -36 -2453
-76 -192 -17 -383 -31 -422 -31 l-73 0 -34 -67 -33 -68 25 -210 25 -210 45
-40 c25 -22 59 -50 76 -62 29 -20 2031 -613 2390 -708 76 -20 722 -223 1435
-451 l1296 -415 188 8 187 9 318 315 317 315 528 254 527 255 0 110 0 110 134
57 133 58 264 25 c452 43 1599 104 2344 125 374 11 760 22 858 26 l177 7 133
-38 c116 -35 136 -44 167 -77 30 -31 49 -41 125 -61 l90 -23 120 26 c120 26
168 44 586 219 269 112 420 197 451 255 8 15 1 27 -43 72 -29 29 -64 56 -78
59 -14 3 -219 16 -454 30 -235 13 -432 27 -436 30 -5 3 -12 22 -16 44 -6 34 4
60 86 237 50 110 95 203 100 208 8 9 315 -20 667 -64 l223 -28 60 -42 59 -41
133 16 c74 9 228 24 343 34 l209 17 284 -250 284 -251 37 -80 c20 -44 66 -116
102 -161 l66 -80 144 -42 c173 -51 51 -61 1045 93 404 63 739 115 743 115 13
0 99 365 139 592 21 115 40 210 42 213 10 9 262 84 269 80 4 -3 96 -78 203
-167 l195 -163 654 -73 653 -74 235 -85 234 -86 294 -227 c291 -225 296 -228
416 -276 83 -33 164 -56 258 -74 l136 -26 194 22 c106 13 198 23 204 24 6 0
36 -48 67 -108 43 -81 106 -171 266 -374 172 -221 247 -328 426 -610 217 -341
305 -506 305 -568 0 -27 28 -68 166 -240 l166 -208 57 19 c31 10 220 70 420
135 l365 116 270 155 c149 86 279 165 290 177 10 11 27 32 37 45 18 23 29 24
236 41 120 9 219 16 219 16 1 -1 72 -172 158 -381 l156 -380 111 -105 111
-106 951 152 952 152 1035 267 1036 268 31 81 c18 44 35 106 38 136 3 30 8 70
11 88 l5 32 77 0 c43 0 430 38 862 85 730 80 800 89 1003 133 l218 48 33 59
c31 55 36 79 66 290 18 127 34 232 36 234 1 2 111 11 243 20 l241 16 91 -215
c50 -118 92 -216 94 -218 1 -1 110 5 241 14 l239 16 55 60 55 59 175 -20 c96
-11 193 -23 216 -26 40 -6 40 -6 63 44 l23 49 172 6 c94 3 253 8 353 11 l182
5 26 -43 25 -43 172 24 173 24 45 44 45 44 -35 1 c-19 0 -264 15 -545 32
l-510 33 200 12 c277 17 285 19 285 48 0 23 -4 24 -62 25 -35 1 -139 4 -233 8
-165 6 -172 7 -246 40 l-76 33 40 107 c22 58 41 107 42 108 4 7 422 19 430 13
6 -5 54 1 110 14 l100 23 -60 6 c-33 4 -163 11 -290 17 -195 9 -244 14 -326
37 l-96 26 -7 95 c-4 57 -3 98 3 101 5 3 131 28 280 55 l270 50 75 75 c68 68
122 152 539 821 521 837 436 725 728 965 l125 104 327 2 327 2 124 -179 124
-179 788 -276 787 -277 51 18 51 17 208 394 c114 217 287 552 384 745 l177
352 108 48 108 49 -2 439 -3 438 -225 94 c-124 52 -297 128 -385 170 l-160 75
-63 89 c-59 84 -67 91 -156 139 l-93 50 -244 1 c-134 0 -514 4 -844 10 l-600
9 -485 106 -485 105 -445 35 c-399 31 -1797 125 -1860 125 -20 0 -61 42 -210
214 l-185 213 -155 86 c-186 103 -322 149 -352 119 -17 -16 -30 -17 -175 -5
-138 11 -181 19 -343 64 -102 29 -190 56 -196 61 -6 4 -17 39 -24 77 l-13 70
-278 185 -278 185 -177 208 c-97 114 -184 216 -193 226 -14 17 -14 20 0 30 8
7 27 22 42 34 l27 21 -35 199 c-20 109 -47 267 -59 351 l-23 152 278 0 279 0
0 33 c0 30 -13 44 -162 168 l-163 136 -255 58 c-183 41 -269 65 -305 85 -27
15 -266 94 -530 176 -264 81 -481 148 -482 148 -1 1 -16 84 -34 185 l-33 184
-101 76 -100 76 -145 17 c-161 19 -130 19 -1535 7z m-21635 -8124 c0 -21 -5
-25 -27 -25 -16 0 -90 -5 -166 -10 l-138 -10 -45 26 c-24 14 -44 27 -44 28 0
1 15 1 33 -1 17 -2 100 0 182 5 83 5 162 10 178 11 23 1 27 -3 27 -24z"/>
</g>
</svg>
