<?xml version="1.0" standalone="no"?>
<!DOCTYPE svg PUBLIC "-//W3C//DTD SVG 20010904//EN"
 "http://www.w3.org/TR/2001/REC-SVG-20010904/DTD/svg10.dtd">
<svg version="1.0" xmlns="http://www.w3.org/2000/svg"
   viewBox="0 0 4585.000000 650.000000"
 preserveAspectRatio="xMidYMid meet">
<metadata>
Created by potrace 1.16, written by Peter Selinger 2001-2019
</metadata>
<g transform="translate(0.000000,650.000000) scale(0.100000,-0.100000)"
fill="#000000" stroke="none">
<path d="M21373 6493 l-53 -4 0 -55 0 -54 -247 2 -248 3 -3 54 -3 54 -382 -6
c-210 -4 -1363 -43 -2562 -87 l-2180 -80 -2215 -150 c-1218 -83 -2416 -168
-2662 -190 -247 -22 -452 -40 -458 -40 -6 0 -10 -26 -10 -59 l0 -59 -62 -7
c-35 -3 -75 -8 -90 -11 -23 -5 -28 -1 -32 18 -3 13 -8 39 -13 59 l-8 35 -615
-67 c-338 -37 -1231 -147 -1985 -244 -1269 -163 -1458 -190 -2565 -366 -1141
-180 -1244 -198 -2275 -399 -646 -126 -1406 -282 -1892 -388 l-813 -177 0
-147 c0 -122 3 -154 19 -191 11 -25 28 -48 38 -50 10 -3 58 -8 108 -12 76 -5
120 0 286 29 178 31 207 40 305 85 95 43 127 53 247 71 77 12 140 20 141 18 1
-2 7 -15 13 -29 10 -22 20 -28 60 -34 69 -9 246 20 308 50 41 21 115 35 410
79 l360 53 103 52 c93 47 114 53 238 71 74 11 139 20 145 20 6 0 9 -48 7 -122
l-3 -123 -350 -52 c-192 -28 -419 -61 -504 -74 l-153 -22 -100 -86 -100 -86
-297 -106 -296 -107 -3 -669 -2 -669 295 -104 295 -105 104 -88 104 -88 884
-133 883 -133 66 64 66 65 164 8 163 9 56 -30 c110 -61 336 -109 514 -109 66
0 80 -5 320 -109 l251 -110 1347 -125 1348 -125 260 -181 260 -180 214 0 214
0 249 -85 c187 -65 512 -157 1317 -375 588 -160 1075 -290 1081 -290 7 0 56
77 111 171 l99 171 360 -6 c198 -3 474 -9 613 -12 l252 -7 0 142 0 141 335 0
335 0 0 -25 0 -25 115 0 115 0 0 -43 c0 -41 5 -48 64 -105 35 -34 71 -62 80
-62 11 0 16 -9 16 -30 l0 -30 940 0 940 0 0 30 c0 18 5 30 13 30 8 0 39 27 70
59 52 55 57 63 57 105 l0 46 120 0 120 0 0 25 0 25 185 0 185 0 0 -25 0 -25
120 0 120 0 0 -43 c0 -39 5 -48 63 -105 34 -34 68 -62 75 -62 7 0 12 -13 12
-30 l0 -30 940 0 940 0 0 30 c0 20 5 30 15 30 9 0 42 28 75 62 53 56 59 67 60
106 l0 42 120 0 120 0 0 25 0 25 340 0 340 0 0 -135 0 -135 188 0 c104 0 378
-3 610 -7 400 -6 422 -7 422 -25 0 -17 14 -18 240 -18 l240 0 0 35 0 35 1585
0 1584 0 97 35 c53 19 98 35 100 35 2 0 4 -9 4 -20 0 -20 7 -20 760 -20 l760
0 0 -85 0 -85 1163 0 1162 0 220 73 220 74 5 373 5 374 1485 437 1485 438 841
1 c723 0 847 -2 884 -15 63 -22 1173 -22 1246 0 41 12 151 15 692 15 405 0
642 -4 642 -10 0 -5 41 -11 91 -12 l91 -3 57 -155 56 -156 177 -167 c97 -92
179 -167 182 -167 2 0 138 -16 302 -35 163 -19 314 -35 335 -35 l39 0 0 -50 0
-50 -64 0 c-59 0 -102 -12 -228 -62 -27 -10 -28 -13 -28 -87 l0 -77 79 -57 80
-57 793 0 793 0 83 55 83 56 -3 81 -3 80 -94 34 c-85 31 -104 34 -202 34
l-109 0 0 50 0 50 133 0 132 1 53 37 c52 36 55 41 156 257 57 121 127 271 156
332 l53 113 758 0 c494 0 760 -3 764 -10 4 -6 85 -10 211 -10 l204 0 0 -35 0
-35 -47 0 c-64 -1 -83 -17 -83 -68 l0 -41 90 -47 c50 -26 90 -53 90 -60 0 -20
83 -34 202 -34 153 0 226 17 350 82 l103 53 3 46 c3 45 3 46 -36 57 -22 7 -60
12 -86 12 -46 0 -46 0 -46 35 0 29 7 39 46 70 44 33 52 35 119 35 49 0 131 13
251 41 192 43 179 37 287 138 42 40 47 50 47 88 l0 42 98 3 97 3 45 67 c34 51
51 67 69 68 13 0 358 135 766 301 l742 300 61 -39 c48 -31 83 -44 169 -62 59
-13 122 -24 138 -25 59 -4 93 -18 346 -142 l256 -125 52 38 c28 21 51 42 51
46 0 16 -259 200 -565 403 -465 307 -531 346 -744 441 -69 31 -170 79 -223
105 -187 94 -697 292 -1183 461 -126 44 -286 102 -355 129 -144 56 -905 288
-1257 383 -912 246 -1484 376 -2680 611 -417 82 -627 118 -742 129 -182 18
-464 63 -656 106 -71 16 -166 34 -210 40 -44 6 -143 22 -220 36 -161 27 -1232
173 -1500 204 -99 11 -254 27 -345 36 -91 8 -291 28 -445 44 -154 16 -527 54
-830 85 -302 30 -577 59 -610 65 -71 12 -1080 98 -1575 135 -190 14 -424 32
-520 40 -327 28 -1361 85 -2345 130 -1506 69 -2349 96 -3015 96 -259 0 -566 6
-735 14 -413 21 -2065 38 -2355 24 -124 -6 -322 -8 -440 -5 -314 9 -867 14
-927 9z"/>
</g>
</svg>
