<?xml version="1.0" standalone="no"?>
<!DOCTYPE svg PUBLIC "-//W3C//DTD SVG 20010904//EN"
 "http://www.w3.org/TR/2001/REC-SVG-20010904/DTD/svg10.dtd">
<svg version="1.0" xmlns="http://www.w3.org/2000/svg"
   viewBox="0 0 3859.000000 1615.000000"
 preserveAspectRatio="xMidYMid meet">
<metadata>
Created by potrace 1.16, written by Peter Selinger 2001-2019
</metadata>
<g transform="translate(0.000000,1615.000000) scale(0.100000,-0.100000)"
fill="#000000" stroke="none">
<path d="M9165 16128 l-1990 -18 -2030 -155 c-1116 -85 -2041 -156 -2054 -158
-44 -4 -59 -75 -60 -269 -1 -165 -1 -168 -23 -173 -64 -14 -114 -25 -120 -25
-5 0 -8 68 -8 150 l0 150 -22 -4 c-13 -3 -655 -65 -1428 -137 -773 -73 -1406
-133 -1407 -133 -11 -7 -23 -339 -23 -647 l0 -389 23 0 c12 0 105 7 207 15
102 8 206 15 233 15 l47 0 0 -134 0 -134 -42 -6 c-24 -3 -130 -11 -235 -17
-106 -7 -197 -15 -202 -19 -26 -15 -31 -224 -31 -1200 l0 -1015 157 7 c87 3
202 6 256 7 l97 1 0 -124 0 -124 -72 -16 c-40 -9 -97 -21 -125 -27 l-53 -11 0
-1296 0 -1297 846 -180 847 -180 74 -85 74 -84 437 -102 437 -101 225 -7 c124
-3 270 -9 325 -13 l101 -6 204 -279 c189 -259 238 -331 240 -350 0 -5 -189 -8
-420 -8 l-420 0 0 -67 c0 -61 19 -345 36 -528 l6 -71 522 3 521 2 -75 -19
c-41 -11 -86 -19 -99 -20 -13 0 -204 -42 -425 -94 -362 -85 -443 -101 -833
-158 l-433 -63 0 -890 0 -890 433 -64 c377 -55 481 -74 817 -152 l385 -89 865
-32 865 -32 880 33 c484 18 907 36 940 40 l60 6 515 -655 c531 -675 1440
-1857 1440 -1872 0 -3 -47 -35 -105 -72 l-105 -68 0 -86 c0 -110 137 -820 161
-834 7 -5 667 -202 1464 -439 l1450 -431 1163 -6 1162 -5 0 964 0 964 -94 53
-94 53 -6 132 c-3 73 -22 958 -41 1967 -20 1009 -42 2130 -50 2490 -8 360 -15
694 -15 743 0 71 -3 87 -15 87 -8 0 -15 6 -15 13 0 7 -28 22 -62 33 l-63 20
-3 116 -3 115 32 7 c17 3 44 6 60 6 l29 0 2 233 c1 127 1 250 0 272 0 22 -4
435 -8 917 l-6 877 -39 25 c-27 18 -97 39 -245 73 l-206 48 151 3 150 3 68 94
68 94 4621 1 4622 0 1475 -1302 c811 -717 1475 -1303 1474 -1304 -1 0 -524 20
-1162 46 l-1160 46 -145 -63 -145 -62 0 -156 0 -157 145 -60 145 -61 1320 52
c726 28 1343 51 1370 51 50 -1 50 -1 218 -150 l168 -150 -53 1 c-29 0 -368 12
-752 28 l-699 27 -511 -19 c-532 -20 -525 -19 -539 -61 -2 -6 -30 -13 -63 -16
l-59 -5 -3 -131 -3 -132 63 -4 c34 -3 63 -9 65 -15 14 -42 6 -41 538 -61 l510
-19 850 33 c468 18 892 34 943 35 l94 3 193 -169 194 -170 1 -62 0 -61 73 -7
c39 -3 365 -26 722 -50 628 -42 672 -44 1300 -50 l650 -6 580 60 c508 53 641
70 1070 141 481 80 499 84 970 206 336 88 612 167 920 266 l440 140 385 180
c762 355 1419 747 1754 1048 191 171 424 442 535 623 69 111 71 116 71 181 l0
66 -44 0 c-50 0 -48 -3 -67 98 -6 34 -16 65 -20 68 -5 3 -36 8 -69 12 l-59 7
126 232 125 233 437 0 c240 0 454 5 475 10 72 16 72 18 27 197 -60 236 -100
313 -287 548 l-151 190 -461 241 c-408 215 -519 268 -979 467 l-518 225 -1525
540 c-839 297 -1946 682 -2460 855 -866 292 -1006 336 -1897 596 l-961 281
-2119 390 -2118 391 -2265 364 -2265 363 -1730 216 -1730 216 -985 75 -985 76
-1755 64 c-965 36 -1856 64 -1980 63 -124 0 -1120 -9 -2215 -20z m7504 -3728
c164 -146 298 -266 297 -267 -4 -5 -1106 83 -1106 89 0 4 38 53 85 109 67 82
115 127 237 221 87 67 161 117 171 116 10 -2 152 -122 316 -268z m-914 -529
l140 -19 -174 -1 c-174 -1 -174 -1 -156 19 21 24 13 24 190 1z m1939 -841
c336 -12 543 -23 550 -30 7 -7 -504 -10 -1677 -10 -928 0 -1687 3 -1687 6 0 3
8 16 18 29 l17 24 1120 0 c916 1 1218 -3 1659 -19z"/>
</g>
</svg>
