<?xml version="1.0" standalone="no"?>
<!DOCTYPE svg PUBLIC "-//W3C//DTD SVG 20010904//EN"
 "http://www.w3.org/TR/2001/REC-SVG-20010904/DTD/svg10.dtd">
<svg version="1.0" xmlns="http://www.w3.org/2000/svg"
   viewBox="0 0 4727.000000 1420.000000"
 preserveAspectRatio="xMidYMid meet">
<metadata>
Created by potrace 1.16, written by Peter Selinger 2001-2019
</metadata>
<g transform="translate(0.000000,1420.000000) scale(0.100000,-0.100000)"
fill="#000000" stroke="none">
<path d="M21955 14193 c-29 -3 -73 -27 -168 -91 l-129 -87 -2647 -21 -2646
-20 -131 89 -132 89 -1748 -10 c-1709 -11 -1755 -12 -2029 -35 l-280 -24 -369
-132 c-278 -98 -421 -156 -576 -230 l-208 -99 -328 -26 c-181 -15 -876 -85
-1544 -156 -1021 -109 -1409 -155 -2430 -290 -1825 -240 -3999 -533 -4012
-541 -8 -5 -8 -26 1 -78 9 -57 21 -86 58 -141 25 -39 47 -70 47 -70 1 0 196
-67 434 -149 l432 -149 120 -97 120 -97 0 -339 0 -339 -425 0 -425 0 0 80 0
80 -315 0 -315 0 0 -80 0 -80 -300 0 -300 0 0 -90 0 -90 -34 0 c-60 0 -66 19
-66 221 l0 177 47 14 c27 8 158 48 291 89 l244 74 -6 34 c-3 19 -9 38 -13 41
-4 4 -120 -27 -258 -70 -137 -43 -538 -166 -890 -275 l-640 -196 -127 -86
-127 -86 -3 -186 c-2 -118 1 -193 8 -205 9 -18 21 -19 147 -17 137 2 139 2
260 -38 l122 -40 456 -20 c452 -20 456 -20 520 -1 35 11 65 20 67 20 1 0 2
-94 2 -208 l0 -208 -597 -183 -598 -183 -250 -138 -250 -138 -7 -713 c-4 -393
-5 -719 -3 -725 5 -16 424 -270 460 -279 l30 -7 -35 -13 c-24 -8 -78 -10 -171
-7 -176 6 -165 21 -161 -228 l3 -185 119 -82 118 -82 614 -190 c1020 -315
1169 -361 1184 -361 12 0 32 65 23 75 -3 2 -134 43 -292 92 l-287 88 0 181 c0
202 4 214 68 214 l32 0 0 -85 0 -85 300 0 300 0 0 -85 0 -85 315 0 315 0 0 85
0 85 163 0 c90 0 219 -3 285 -7 l122 -6 0 -107 0 -107 266 -169 c228 -144 272
-176 306 -221 38 -50 43 -53 85 -53 33 0 56 -8 88 -30 l44 -30 238 0 238 0
159 -125 159 -125 213 0 213 0 16 -57 c9 -32 25 -88 36 -125 l20 -68 4816 0
4815 0 380 -245 380 -245 2186 0 2187 0 370 243 370 243 558 -4 557 -4 0 -303
c0 -166 3 -322 6 -346 l6 -45 392 -252 391 -252 2185 0 2185 0 392 258 392
257 1 348 0 347 683 0 682 1 320 33 320 32 109 71 109 71 89 -139 90 -139 186
0 187 0 93 -149 94 -148 449 -129 449 -129 129 -205 128 -205 152 -3 153 -3
291 -212 291 -212 -641 -3 -641 -2 -140 -184 -141 -183 -290 -73 -291 -72
-207 -291 -208 -290 -210 -69 -210 -69 -147 -178 -148 -179 -182 -6 c-101 -3
-401 -8 -668 -11 -267 -3 -542 -8 -613 -12 l-127 -6 -49 -78 -48 -79 -6 -152
c-4 -83 -9 -153 -11 -155 -2 -3 -16 3 -30 13 -15 9 -29 14 -33 10 -3 -3 -28
-58 -54 -122 l-48 -116 377 -601 377 -600 206 -138 207 -138 1028 -6 c566 -3
1138 -8 1270 -10 l242 -6 22 121 c13 68 19 125 14 130 -5 4 -63 45 -129 91
-116 81 -125 85 -248 118 -70 19 -127 38 -127 42 0 11 89 352 93 355 10 7
1264 24 1802 24 l670 0 315 -229 315 -229 286 -76 287 -76 166 0 166 0 0 -202
c0 -176 2 -206 18 -229 9 -15 92 -90 184 -168 l166 -141 1344 0 1343 0 40 27
c22 15 111 87 198 161 l157 134 0 204 0 204 169 0 169 0 123 43 124 42 172
145 172 145 0 341 1 341 46 7 c26 3 160 6 298 6 138 0 308 3 377 7 l127 6 268
199 c148 110 350 260 449 333 l180 133 245 33 245 33 275 218 275 218 320 0
320 0 160 160 160 160 424 2 424 3 68 155 68 155 164 3 165 2 396 560 396 559
0 181 0 180 -27 1 c-16 1 -139 5 -275 8 l-247 6 125 225 c68 124 124 236 124
248 0 23 2 24 73 18 39 -3 232 -8 427 -11 305 -6 367 -9 442 -26 l87 -20 260
195 261 196 109 0 109 0 104 106 103 106 -370 366 -371 367 -919 634 -919 635
-701 417 c-624 371 -808 474 -1697 952 l-996 536 -1034 484 -1033 484 -1055
428 -1054 427 -1076 370 -1075 370 -1225 359 c-674 198 -1232 362 -1241 365
-13 4 -27 -19 -62 -103 -76 -179 -126 -337 -115 -356 5 -10 8 -21 6 -26 -2 -4
-482 82 -1068 191 l-1065 197 -738 95 -738 95 -602 262 -602 262 -390 33
c-236 20 -949 63 -1810 108 -1192 63 -1512 77 -1995 86 -548 10 -1280 11
-1365 3z"/>
</g>
</svg>
