<?xml version="1.0" standalone="no"?>
<!DOCTYPE svg PUBLIC "-//W3C//DTD SVG 20010904//EN"
 "http://www.w3.org/TR/2001/REC-SVG-20010904/DTD/svg10.dtd">
<svg version="1.0" xmlns="http://www.w3.org/2000/svg"
   viewBox="0 0 4384.000000 741.000000"
 preserveAspectRatio="xMidYMid meet">
<metadata>
Created by potrace 1.16, written by Peter Selinger 2001-2019
</metadata>
<g transform="translate(0.000000,741.000000) scale(0.100000,-0.100000)"
fill="#000000" stroke="none">
<path d="M39930 7335 l-145 -74 -180 -1 -180 -1 -105 -99 -105 -100 -212 0
c-117 0 -213 -3 -213 -7 0 -4 10 -37 22 -75 l22 -68 118 0 118 0 0 -25 0 -25
-110 0 c-60 0 -110 -2 -110 -6 0 -3 18 -32 40 -65 l41 -59 70 0 70 0 -3 -27
-3 -28 -540 -24 c-297 -13 -540 -24 -541 -25 0 0 3 -41 7 -91 4 -49 10 -165
14 -257 l8 -168 -41 0 c-23 0 -43 3 -45 8 -3 4 -8 118 -12 255 -7 217 -10 247
-24 247 -46 1 -1010 -42 -1036 -46 l-30 -4 6 -93 c4 -50 10 -165 14 -254 l8
-163 -44 0 c-24 0 -241 -9 -482 -21 -242 -11 -445 -18 -453 -15 -8 3 -14 20
-14 42 l0 37 -82 -7 c-46 -3 -147 -9 -225 -12 l-143 -7 0 -37 0 -37 -82 -6
c-46 -4 -104 -7 -131 -7 -42 0 -117 -35 -686 -320 l-639 -319 -52 22 -52 22
-106 -57 -106 -56 -15 -52 c-8 -31 -23 -57 -36 -66 -19 -13 -27 -12 -72 7
l-50 21 -111 -56 c-90 -45 -113 -61 -117 -81 -3 -14 -7 -36 -10 -50 -4 -19
-22 -33 -75 -60 -79 -40 -89 -53 -121 -151 l-22 -72 -306 -6 c-168 -3 -348 -9
-398 -12 -91 -6 -93 -5 -93 17 0 21 -2 22 -77 15 -42 -3 -93 -6 -115 -6 -31 0
-38 -3 -38 -20 0 -18 -7 -20 -69 -20 -38 0 -76 -3 -85 -6 -11 -4 -16 0 -16 14
0 19 -5 20 -97 16 -130 -7 -163 -12 -163 -28 0 -17 -45 -22 -335 -37 l-220
-12 -107 -70 c-107 -68 -108 -69 -108 -108 l0 -39 -305 0 -305 0 0 155 c0 129
-3 157 -15 161 -12 5 -15 27 -15 110 l0 104 -180 0 -180 0 0 55 0 55 -355 0
-355 0 -34 38 c-19 20 -70 83 -113 139 l-78 102 -145 1 -145 0 -51 83 c-35 56
-57 83 -72 85 -20 3 -22 9 -22 63 l0 59 90 0 c84 0 90 1 90 21 0 16 -22 31
-102 69 l-103 50 -160 0 c-191 -1 -195 -2 -195 -84 l0 -56 60 0 60 0 0 -60 0
-60 -402 0 -403 -1 -219 -199 -219 -200 -62 0 c-59 0 -70 -4 -229 -90 l-168
-90 -324 0 -324 0 0 -55 0 -55 -173 0 -173 0 -805 -135 c-442 -74 -805 -135
-806 -135 -1 0 -5 -15 -8 -34 -8 -38 13 -32 -233 -72 -78 -13 -105 -22 -113
-36 -14 -27 -99 -25 -124 2 -18 20 -31 20 -847 20 l-828 0 0 35 0 35 -130 0
-130 0 0 -35 0 -35 -66 0 c-36 0 -75 -5 -87 -11 -25 -13 -205 -156 -254 -202
-17 -16 -58 -74 -89 -128 -42 -71 -63 -99 -77 -99 -11 0 -48 -22 -83 -50 l-64
-50 -755 0 -755 0 0 50 0 50 -550 0 -550 0 0 -50 0 -50 -484 0 -483 0 -91 154
-91 154 -131 108 c-72 60 -138 112 -148 116 -9 4 -149 7 -309 7 l-293 1 0 140
0 140 -408 0 -409 0 -13 56 c-11 45 -22 63 -58 95 l-45 39 -268 0 -269 0 0 85
0 85 -125 0 -125 0 0 -85 0 -85 -424 0 -425 0 -520 260 -520 259 -107 7 -107
7 5 189 6 188 -72 0 c-48 0 -79 -5 -92 -15 -10 -8 -33 -15 -50 -15 -30 0 -32
-3 -48 -60 l-17 -59 -87 -3 -86 -3 -17 -45 -17 -45 -79 -3 -79 -3 -18 51 -18
50 -88 0 -88 0 -17 -50 -17 -50 -54 0 -54 0 0 -70 0 -70 -155 0 -155 0 0 52
c0 28 -10 82 -22 120 l-22 68 -86 0 -86 0 -22 -62 c-13 -37 -22 -87 -22 -120
l0 -58 -345 0 c-268 0 -347 -3 -350 -12 -2 -7 -9 -46 -15 -85 -12 -71 -13 -73
-41 -73 -20 0 -61 -23 -133 -75 l-104 -75 -574 0 -573 0 -120 -355 -119 -355
-138 0 -138 0 0 124 0 123 -38 27 -38 26 -327 0 -327 0 -220 -110 c-198 -99
-220 -113 -220 -135 l0 -25 -110 0 c-91 0 -110 -3 -110 -15 0 -13 -26 -15
-170 -15 -144 0 -170 2 -170 15 0 13 -21 15 -125 15 -104 0 -125 -2 -125 -15
0 -13 -26 -15 -175 -15 l-175 0 0 -40 0 -40 -150 0 -150 0 0 40 0 40 -85 0
c-69 0 -85 3 -85 15 0 13 -20 15 -120 15 -100 0 -120 -2 -120 -15 0 -13 -78
-15 -639 -15 l-640 0 -266 155 c-146 86 -290 171 -320 190 l-54 35 -301 0
-300 0 0 -40 0 -40 -90 0 -90 0 0 35 c0 19 -5 35 -11 35 -9 0 -668 -159 -749
-180 -28 -8 -41 -21 -69 -70 l-35 -60 -620 0 -621 0 -58 -125 -58 -125 202
-355 c160 -279 208 -355 224 -356 20 -1 -2 -8 -68 -23 l-27 -6 0 -204 0 -203
88 -17 c48 -10 95 -19 105 -22 28 -8 20 -34 -13 -40 l-30 -6 0 -137 0 -137
-73 -15 -72 -14 -3 -177 c-2 -162 -1 -177 15 -182 10 -2 89 -19 176 -38 146
-30 157 -34 157 -55 0 -24 14 -29 132 -53 l58 -11 0 -69 c0 -56 3 -71 18 -79
20 -11 1599 -511 1613 -511 5 0 9 50 9 115 0 63 3 115 6 115 3 0 42 -20 86
-45 l80 -45 117 0 116 0 1144 -560 1144 -560 474 0 473 0 0 -255 0 -255 590 0
590 0 0 60 0 60 78 0 c66 0 82 -3 97 -20 13 -14 31 -20 62 -20 23 0 43 4 43 8
0 5 78 18 173 30 146 18 253 22 702 29 292 4 499 10 460 14 -38 3 -284 9 -545
13 -388 6 -503 11 -630 27 -85 11 -157 25 -158 30 -6 17 -76 9 -102 -11 -20
-16 -41 -20 -102 -20 l-78 0 0 155 0 155 1044 0 1044 0 316 301 316 302 0 200
0 199 297 -2 c164 -1 550 4 858 12 l560 15 -433 2 c-238 0 -499 6 -580 13 -81
6 -169 11 -197 10 -27 -1 -152 -5 -277 -8 l-228 -5 0 62 0 62 293 -4 c242 -2
1106 13 1307 24 30 2 -129 4 -353 5 -225 1 -474 8 -555 14 -81 7 -181 12 -222
11 -41 -2 -164 -5 -273 -8 l-197 -6 0 55 0 56 183 0 182 0 284 175 284 175
2330 0 2330 0 272 -175 c150 -96 278 -175 284 -175 8 0 11 -95 11 -344 l0
-344 37 -6 c210 -34 1463 -196 1517 -196 39 0 135 -3 213 -7 l141 -6 162 -371
c89 -204 166 -375 170 -379 4 -5 527 1 1161 12 l1154 21 235 35 235 34 653 1
c473 0 652 3 652 11 0 8 -85 11 -302 9 -512 -4 -588 -2 -588 16 0 13 26 15
223 12 122 -2 349 -2 505 0 l282 2 0 74 0 74 83 11 c45 7 99 15 120 18 32 5
37 3 37 -13 0 -27 74 -64 128 -64 41 0 42 -1 42 -34 0 -32 -3 -35 -37 -40
-144 -21 -196 -31 -183 -33 18 -4 902 105 909 112 12 13 -313 -19 -421 -41
-26 -5 -28 -4 -28 30 l0 35 83 25 c172 52 192 56 261 56 79 0 100 8 86 30 -7
12 5 19 63 36 l72 21 3 -43 c3 -40 7 -46 41 -63 32 -17 47 -18 97 -12 32 5 59
8 60 7 1 0 4 -15 7 -32 l6 -31 -67 -16 c-37 -9 -86 -19 -109 -23 -24 -4 -43
-10 -43 -15 0 -14 16 -12 272 41 134 28 293 59 353 70 120 22 350 78 323 79
-9 1 -109 -17 -224 -40 -211 -41 -223 -41 -224 -3 0 6 -3 25 -6 41 l-6 29 164
19 c89 10 167 21 171 25 4 4 3 19 -2 33 -9 22 -17 27 -45 27 l-35 0 2 64 2 63
62 17 c33 9 98 16 142 16 79 0 81 1 81 25 0 27 -33 15 355 128 121 35 295 79
388 97 138 28 167 37 167 51 0 9 8 20 18 24 9 4 404 11 877 17 l860 9 1375
346 c756 190 1431 360 1500 378 l125 31 3 72 3 72 152 1 c84 1 224 4 312 8
l160 6 580 430 580 430 234 5 234 5 49 91 49 92 87 6 c48 3 312 8 587 12 414
5 524 9 640 25 77 10 143 19 147 19 4 0 24 -23 45 -50 l37 -50 431 0 c271 0
435 4 441 10 6 6 17 -45 32 -153 15 -109 28 -166 37 -173 8 -6 15 -16 15 -23
0 -14 -53 -16 636 24 329 19 604 35 611 35 6 0 13 7 15 16 2 9 231 131 583
310 319 161 583 294 588 294 4 0 7 -42 7 -94 l0 -94 -32 -6 c-18 -3 -73 -10
-123 -16 -49 -6 -109 -18 -132 -26 l-43 -16 0 -273 0 -274 24 -19 c24 -18 27
-18 163 -1 76 10 149 20 164 23 21 4 29 -2 49 -35 l25 -39 146 0 145 0 17 35
17 35 250 2 c137 1 287 3 333 3 l82 0 25 -47 c14 -27 29 -48 33 -48 5 0 42 12
83 26 l74 27 0 137 0 137 323 6 c177 4 399 8 492 9 l170 1 -110 7 c-60 4 -200
8 -311 9 -110 0 -283 4 -382 8 l-182 6 0 89 0 88 173 0 c94 0 179 5 187 10 10
6 -48 10 -172 10 l-188 0 0 48 0 48 -80 26 -80 26 -31 -55 -32 -56 -105 7
c-58 3 -206 6 -329 6 l-223 0 -17 35 c-13 27 -23 35 -43 35 -15 0 -48 3 -74 6
l-46 7 0 156 0 156 113 59 c61 33 115 64 119 70 4 6 8 26 8 44 l0 32 60 0 c35
0 74 7 95 17 l35 17 0 186 c0 103 3 207 6 232 l6 44 -44 17 c-24 9 -69 17
-101 17 -53 0 -57 2 -57 23 0 22 6 23 213 50 209 27 219 27 763 27 538 0 551
0 569 -20 19 -21 90 -29 97 -11 2 5 77 18 168 29 136 17 252 22 665 28 275 4
509 10 520 14 11 4 -212 10 -495 14 -438 6 -540 10 -685 28 -93 12 -171 25
-173 30 -7 17 -79 8 -97 -12 -17 -19 -30 -20 -259 -19 l-241 1 303 41 302 41
0 46 0 47 308 6 c169 4 386 8 482 9 l175 2 -180 7 c-99 3 -295 8 -435 10 -195
3 -220 4 -105 7 l150 3 38 54 c31 45 43 55 67 55 24 0 38 11 80 68 l52 67 -26
5 c-25 5 -26 6 -11 28 9 12 27 22 40 22 17 0 36 16 69 59 25 33 46 62 46 65 0
3 -10 6 -22 6 -20 0 -21 1 -3 20 10 11 28 20 41 20 15 0 36 17 64 52 39 50 41
53 20 58 -20 5 -20 6 10 48 l32 42 -36 0 c-34 0 -35 1 -24 20 11 18 24 20 110
20 l97 0 25 33 26 32 -60 5 -59 5 51 68 52 67 176 0 175 1 40 59 c34 51 44 60
70 60 26 0 37 10 78 70 l48 70 -27 0 -27 0 23 25 c13 14 33 25 44 25 28 1 123
123 100 128 -9 2 -13 10 -10 19 3 8 6 17 6 19 0 2 15 4 33 4 27 1 37 8 70 55
l38 55 -26 0 c-14 0 -25 5 -25 10 0 6 127 10 361 10 l361 0 290 246 291 246
112 -1 c99 -2 119 1 167 22 30 14 58 32 61 42 12 30 -3 62 -40 79 l-35 16 211
163 211 162 -536 3 -535 2 46 53 45 52 -72 3 -71 3 -57 -56 -56 -55 -83 0 -83
0 47 53 48 52 -74 3 -74 3 -95 -100 -95 -101 -128 0 -127 0 -28 45 -27 45
-163 0 -162 0 -150 75 -150 75 -272 0 c-263 0 -272 -1 -294 -21 l-23 -21 -29
21 c-29 20 -41 21 -299 20 l-268 0 -145 -74z m-9230 -3075 l0 -60 -305 0 -305
0 0 60 0 60 305 0 305 0 0 -60z m-7253 -2878 c-204 -2 -206 -3 -210 -25 -2
-12 -5 74 -6 191 l-1 212 211 -187 211 -188 -205 -3z"/>
</g>
</svg>
