<?xml version="1.0" standalone="no"?>
<!DOCTYPE svg PUBLIC "-//W3C//DTD SVG 20010904//EN"
 "http://www.w3.org/TR/2001/REC-SVG-20010904/DTD/svg10.dtd">
<svg version="1.0" xmlns="http://www.w3.org/2000/svg"
   viewBox="0 0 4596.000000 2441.000000"
 preserveAspectRatio="xMidYMid meet">
<metadata>
Created by potrace 1.16, written by Peter Selinger 2001-2019
</metadata>
<g transform="translate(0.000000,2441.000000) scale(0.100000,-0.100000)"
fill="#000000" stroke="none">
<path d="M31560 24237 l-735 -173 -122 -289 -122 -290 -85 -3 -86 -3 0 100 0
100 -77 62 c-65 54 -81 63 -112 61 -20 -2 -469 -50 -999 -107 -530 -58 -966
-105 -969 -105 -6 0 3 -411 17 -795 9 -215 7 -385 -12 -985 -21 -658 -23 -929
-7 -944 3 -3 444 -71 980 -151 536 -79 988 -147 1004 -150 30 -5 32 -2 93 104
34 60 62 116 62 125 0 15 11 16 85 14 l85 -3 119 -245 c94 -192 124 -247 143
-253 18 -6 1465 -247 1483 -247 3 0 5 -114 5 -252 l0 -253 -45 -28 -45 -29 0
-296 1 -297 105 -120 105 -120 -6 -235 -7 -234 -52 -72 -53 -73 -8 -318 -7
-318 -281 -402 -280 -403 -1271 6 -1271 6 -76 79 c-53 55 -83 79 -100 79 -45
0 -49 11 -56 133 l-6 116 -51 10 c-28 6 -303 58 -611 116 -308 58 -573 108
-589 111 -24 5 -27 10 -23 33 l6 27 -302 53 c-166 30 -307 56 -313 58 -6 2
-26 -55 -49 -142 -23 -89 -42 -144 -49 -142 -6 2 -131 26 -278 52 l-268 48 0
34 0 33 -123 0 -123 0 -44 75 -44 75 -206 0 -206 0 -34 35 c-29 30 -40 35 -81
35 -43 0 -66 11 -207 94 l-158 94 -952 233 -951 232 -35 -26 -35 -27 -216 0
-215 0 -10 26 c-6 14 -10 38 -10 53 l0 28 -297 6 c-189 4 -298 9 -302 16 -4 6
-56 148 -115 316 l-109 304 -140 3 -140 3 -13 45 c-7 25 -18 64 -24 88 l-11
42 -1651 -2 -1650 -3 -148 -378 c-81 -207 -149 -379 -151 -381 -2 -2 -724 -6
-1604 -10 l-1600 -6 -725 417 -725 416 -2145 38 c-1180 20 -2279 40 -2442 43
l-298 7 0 -87 c0 -77 -3 -93 -34 -157 l-35 -72 -6 -400 -7 -400 26 -58 c14
-32 26 -70 26 -86 l0 -29 -153 -4 -153 -4 -164 -90 -165 -91 -3 -519 -3 -519
-322 -139 c-177 -77 -581 -250 -898 -386 l-577 -246 -155 -147 -154 -147
-1190 0 -1190 0 -644 432 -644 431 -346 5 -346 5 -6 -78 c-4 -43 -7 -239 -7
-437 l0 -358 -671 0 -671 0 6 -147 c3 -82 10 -236 15 -343 5 -107 10 -1006 10
-1997 l1 -1803 655 0 655 0 0 -302 c0 -167 3 -333 7 -370 l6 -68 341 0 341 0
555 370 555 370 830 0 830 0 748 -171 748 -171 107 112 107 111 180 -40 179
-41 91 97 91 97 339 -57 c317 -52 365 -57 705 -78 201 -13 366 -23 367 -23 1
-1 38 -168 82 -371 45 -204 107 -471 140 -595 l58 -225 154 -1 154 -2 46 -51
46 -51 599 2 598 3 23 40 c13 22 27 46 32 53 6 11 91 17 387 28 208 7 440 14
514 14 l135 0 108 56 107 55 0 424 0 425 28 0 c15 0 230 -9 478 -21 l451 -22
259 58 259 58 85 -18 c47 -10 105 -22 130 -28 39 -8 244 23 1565 237 836 136
1523 250 1526 254 3 4 16 68 29 142 13 74 27 144 31 156 4 13 54 48 125 89
l118 69 4026 37 c2214 20 4220 39 4459 41 l434 5 -3 -651 c-2 -358 -3 -712 -2
-786 l2 -136 100 -49 100 -49 27 26 28 26 724 -254 c399 -140 729 -253 734
-251 5 1 31 72 57 157 l48 155 106 3 106 3 47 -96 48 -95 57 0 58 0 0 -72 c0
-40 5 -80 10 -88 8 -13 59 -15 338 -18 l329 -3 56 74 55 74 102 7 c56 4 104 5
107 3 2 -3 29 -282 58 -621 51 -588 55 -618 77 -645 13 -16 129 -151 258 -301
l235 -271 341 3 342 3 283 -420 283 -420 -3 -495 c-2 -359 -6 -497 -14 -502
-7 -4 -78 -8 -159 -8 -80 0 -153 -3 -162 -6 -12 -5 -16 -21 -16 -75 l0 -69
-3471 -2 -3471 -3 -395 -633 c-222 -358 -393 -642 -391 -652 2 -10 1345 -1037
3217 -2459 l3213 -2441 789 0 789 0 0 2365 0 2365 30 0 30 0 0 -90 0 -90 805
0 805 0 0 95 c0 87 2 95 19 95 11 0 26 -3 35 -6 15 -6 16 -224 16 -2370 l0
-2364 788 0 789 0 3216 2443 c2587 1964 3216 2446 3214 2462 -1 12 -179 305
-395 653 l-394 632 -3469 0 -3469 0 0 69 0 68 -52 7 c-29 3 -115 6 -190 6
l-138 0 0 38 c0 20 -9 417 -19 882 -16 725 -18 1085 -13 2538 l5 1692 53 0 54
0 0 1030 0 1030 -55 0 -55 0 0 125 0 125 -90 0 c-49 0 -90 3 -90 8 0 4 105
273 233 597 l233 590 1954 -4 c1075 -1 1956 -4 1958 -6 2 -2 -10 -25 -27 -51
-24 -38 -27 -50 -16 -52 22 -5 0 -42 -25 -42 -12 0 -26 -12 -35 -30 -14 -26
-14 -30 0 -30 12 0 13 -4 3 -25 -6 -14 -18 -25 -26 -25 -9 0 -23 -6 -31 -14
-20 -17 -188 -46 -270 -46 l-61 0 0 -230 0 -231 35 6 c19 3 51 7 70 10 19 3
35 10 35 15 0 6 25 10 55 10 30 0 55 -4 55 -10 0 -5 24 -10 54 -10 46 0 56 -3
61 -20 6 -19 15 -20 156 -20 138 0 149 1 149 18 0 18 19 19 332 26 l331 7 33
-32 33 -32 66 18 c40 10 69 25 75 36 6 10 10 106 10 213 0 226 1 223 -93 246
l-58 13 -32 -31 -33 -32 -330 2 -329 3 1 25 c1 14 4 33 9 43 5 12 3 17 -9 17
-13 0 -14 4 -4 25 7 15 19 25 32 25 13 0 29 12 39 30 16 27 16 30 2 30 -13 0
-14 4 -5 20 6 11 18 20 28 20 10 0 31 22 50 55 l33 55 730 0 729 0 12 -25 11
-25 292 0 292 0 11 25 12 25 386 0 385 0 -31 -55 c-25 -44 -28 -55 -15 -55 13
0 14 -4 5 -20 -6 -11 -19 -20 -28 -20 -10 0 -26 -14 -35 -30 -16 -26 -16 -30
-3 -30 13 0 14 -4 4 -25 -6 -14 -18 -25 -26 -25 -9 0 -23 -6 -31 -14 -19 -17
-187 -46 -263 -46 l-55 0 -7 -37 c-3 -21 -6 -125 -6 -231 l0 -193 33 5 c17 3
49 8 70 11 20 3 37 10 37 15 0 13 107 13 115 0 3 -5 28 -10 55 -10 40 0 50 -4
55 -20 6 -19 15 -20 155 -20 135 0 148 2 152 18 5 18 27 19 333 26 l328 7 33
-32 33 -32 63 17 c34 10 68 22 75 28 19 15 19 421 0 436 -7 6 -41 20 -74 30
l-62 19 -32 -33 -33 -34 -331 2 -330 3 1 25 c1 14 4 33 9 43 5 12 3 17 -9 17
-13 0 -14 4 -4 25 7 15 19 25 32 25 13 0 29 12 39 30 16 27 16 30 2 30 -13 0
-14 4 -5 20 6 11 18 20 28 20 10 0 31 22 50 55 l33 55 354 0 353 0 11 -30 10
-30 261 0 261 0 10 30 11 30 213 0 214 0 93 43 c92 43 94 43 109 24 15 -20 21
-16 224 126 l209 147 46 -45 46 -45 581 0 581 0 16 -25 c16 -24 20 -25 129
-25 108 0 115 1 137 25 20 22 32 25 87 25 59 0 69 3 126 43 l62 42 510 5 510
5 266 49 266 50 91 163 92 163 0 279 0 279 -116 111 c-63 61 -122 111 -130
111 -7 0 -24 15 -36 34 -19 29 -36 38 -123 66 -101 33 -102 33 -150 17 l-47
-17 -69 59 c-60 53 -75 60 -121 65 -29 3 -239 7 -467 10 l-414 4 -44 31 -44
31 -380 0 -380 0 -48 -40 -47 -40 -137 0 -137 0 0 -40 0 -40 -86 0 -86 0 -104
-96 c-57 -53 -104 -104 -104 -113 0 -24 -456 -229 -472 -213 -7 7 -31 12 -54
12 -37 0 -43 -3 -48 -26 l-7 -27 -329 5 -328 6 -75 41 c-65 36 -82 41 -138 41
-59 0 -69 -3 -128 -45 l-65 -45 -308 0 -309 0 -53 50 c-51 48 -55 50 -112 50
-55 0 -64 -3 -129 -50 l-69 -50 -301 0 -301 0 -72 45 c-66 41 -78 45 -135 45
-58 0 -69 -4 -136 -47 l-73 -46 -251 12 c-139 6 -295 14 -348 18 l-97 6 -6 68
-7 69 -232 0 -233 0 -52 53 c-31 32 -52 61 -52 75 l0 22 -255 0 c-218 0 -256
-2 -261 -15 -5 -13 -45 -15 -274 -15 l-268 0 -18 50 -18 50 -463 0 c-456 0
-463 0 -463 20 0 19 -7 20 -220 20 l-220 0 0 55 0 55 -775 0 -775 0 0 -85 0
-85 -165 0 -165 0 0 -45 0 -45 -125 0 -125 0 9 23 c5 12 66 166 135 342 l126
319 0 431 0 430 -70 78 -70 78 0 235 0 235 110 120 110 120 0 288 0 289 -37
27 c-65 48 -63 38 -63 292 l0 233 43 -6 c82 -9 212 -22 214 -21 1 1 3 989 5
2195 l3 2192 -566 0 c-311 0 -626 2 -700 5 l-134 5 -735 -173z m7565 -8707
c69 -43 87 -50 132 -50 44 0 62 7 132 50 l81 50 299 0 298 0 69 -50 c63 -46
73 -50 126 -50 53 0 63 4 115 44 l58 44 306 8 307 7 65 -47 c60 -43 69 -46
127 -46 56 0 70 4 136 45 l74 45 307 -10 c438 -14 443 -14 488 -60 l37 -38
-99 -69 c-54 -39 -132 -94 -175 -123 -73 -51 -76 -54 -71 -86 5 -32 4 -33 -76
-73 l-81 -41 -213 0 -214 0 -11 25 -12 25 -260 0 -260 0 -12 -25 -11 -25 -923
0 -924 0 -6 25 -6 25 -292 0 -293 0 -12 -27 -12 -26 -2841 6 c-1563 4 -2843 9
-2846 11 -2 3 5 29 16 58 l20 53 1061 3 c939 2 1061 0 1061 -13 0 -13 39 -15
293 -15 l293 0 44 45 44 45 1463 0 1463 0 0 140 0 140 28 1 c15 0 142 6 282
13 140 7 275 14 300 14 38 1 58 -6 125 -48z m-9661 -927 l499 -368 -170 -5
-170 -5 -70 -53 -70 -54 -8 -171 c-4 -95 -7 -172 -8 -173 -1 0 -100 -30 -221
-65 l-219 -65 -63 -178 c-35 -99 -66 -181 -68 -183 -2 -2 -54 0 -115 3 l-112
7 -55 109 -54 108 -108 0 c-60 0 -211 -3 -335 -7 l-227 -6 0 -109 0 -108 -37
-1 c-88 -3 -91 -5 -137 -114 l-42 -100 -70 -3 -70 -3 -78 195 -78 195 -592
-199 -591 -199 -4735 -34 -4735 -34 -1980 35 c-1089 19 -1982 36 -1984 38 -5
5 21 1088 26 1094 3 3 917 6 2031 8 l2027 3 492 167 491 166 28 94 c15 51 30
95 33 96 3 2 441 7 973 11 l967 8 68 113 68 114 2085 0 c1147 0 2500 -3 3008
-7 l922 -6 0 -170 0 -169 223 6 c122 4 614 13 1092 21 479 8 957 18 1063 21
l192 6 0 169 0 169 208 0 207 0 499 -367z m1120 355 c-4 -7 -38 -57 -76 -111
-46 -65 -73 -95 -81 -90 -41 26 -294 197 -301 204 -6 5 92 9 228 9 187 0 236
-3 230 -12z"/>
</g>
</svg>
