<?xml version="1.0" standalone="no"?>
<!DOCTYPE svg PUBLIC "-//W3C//DTD SVG 20010904//EN"
 "http://www.w3.org/TR/2001/REC-SVG-20010904/DTD/svg10.dtd">
<svg version="1.0" xmlns="http://www.w3.org/2000/svg"
   viewBox="0 0 4301.000000 1340.000000"
 preserveAspectRatio="xMidYMid meet">
<metadata>
Created by potrace 1.16, written by Peter Selinger 2001-2019
</metadata>
<g transform="translate(0.000000,1340.000000) scale(0.100000,-0.100000)"
fill="#000000" stroke="none">
<path d="M14120 12930 l0 -470 270 0 269 0 16 30 c12 23 22 30 44 30 24 0 31
-5 36 -30 l7 -30 89 0 89 0 0 -136 0 -136 61 -85 c34 -46 68 -87 75 -90 8 -3
14 -8 14 -13 0 -4 -34 -53 -75 -109 l-75 -101 0 -920 0 -920 -187 0 -186 0
-145 85 -144 85 -94 -32 -94 -33 0 -942 0 -943 -27 0 c-52 0 -68 -11 -123 -81
l-55 -70 -385 4 c-212 2 -397 8 -412 12 -25 7 -28 12 -28 54 l0 46 -280 168
-280 169 0 64 0 64 447 0 447 0 21 25 c20 24 21 24 250 30 127 3 267 8 313 11
l82 6 0 32 c0 32 0 32 -92 59 -69 19 -235 44 -647 94 l-554 68 -10 26 c-9 21
-23 30 -71 44 -114 33 -181 44 -258 45 -67 0 -79 3 -88 20 -10 19 -21 20 -406
20 l-394 0 -17 -35 c-12 -25 -14 -38 -6 -46 6 -6 8 -19 6 -30 -4 -15 -14 -19
-52 -19 -25 1 -90 -12 -143 -27 l-98 -28 0 -111 0 -111 61 -7 c34 -3 95 -6
135 -6 l72 0 27 -79 c23 -70 25 -91 23 -197 l-3 -119 -222 -3 -221 -2 -28 -73
c-45 -120 -35 -116 -121 -42 l-76 65 -425 0 -425 0 -508 -90 -507 -91 -379
-219 -378 -220 -148 0 -148 0 -312 -198 c-172 -109 -317 -201 -322 -204 -6 -4
-312 -45 -680 -92 -369 -48 -685 -90 -703 -94 -28 -6 -42 -22 -96 -107 -50
-79 -69 -101 -92 -106 -16 -4 -203 -22 -417 -40 l-387 -33 -195 -208 -195
-208 0 -140 0 -140 -160 0 -160 0 0 108 0 108 -210 177 -209 177 -811 0 -811
0 -66 -55 -67 -55 -343 0 -344 0 -68 55 c-108 87 -94 89 -725 -106 -286 -89
-536 -166 -553 -171 l-33 -9 0 -348 0 -347 358 -570 c197 -313 456 -725 575
-915 l217 -346 0 -419 -1 -419 -82 -340 -82 -340 -65 -5 c-46 -4 -76 -12 -100
-29 -35 -23 -37 -29 -82 -201 l-45 -178 79 -203 79 -204 62 -42 c35 -24 77
-43 96 -45 34 -3 35 -4 68 -105 l34 -102 95 -3 94 -3 153 -315 153 -315 56 -3
c51 -3 68 3 184 58 l127 60 453 0 452 0 10 48 c6 26 27 136 48 245 l38 197
348 0 349 0 14 34 c8 18 58 206 111 417 54 211 100 387 103 390 3 4 221 9 483
12 l478 5 0 -195 0 -195 208 6 c114 3 441 8 727 11 286 3 648 8 803 11 l284 7
176 163 177 163 540 1 540 1 307 283 308 283 382 6 c211 4 587 7 836 7 l452 0
0 -377 1 -378 88 -155 88 -155 1469 -3 1469 -3 41 -67 41 -67 1341 -3 c883 -1
1342 -5 1342 -12 0 -6 -139 -10 -393 -10 l-394 0 -23 -100 -22 -100 -122 0
-122 0 -20 63 -20 62 -167 3 -167 2 0 -360 0 -360 65 0 65 0 21 -44 c21 -43
23 -43 100 -60 49 -10 133 -42 217 -81 l137 -65 608 0 608 0 206 -100 206
-100 680 0 680 0 292 121 292 121 36 74 37 74 543 0 544 0 77 85 78 85 902 0
902 0 21 44 22 44 93 6 c51 3 361 8 688 11 525 5 593 3 576 -10 -10 -8 -23
-16 -27 -17 -4 -2 -5 -25 -1 -53 l7 -50 95 -39 95 -39 882 -10 882 -10 185 54
c144 41 186 57 186 70 0 13 21 19 109 33 60 9 132 19 160 23 41 5 58 13 93 47
l42 41 2096 27 c1152 14 2125 27 2163 27 l67 1 0 55 0 55 -237 0 c-431 1
-4005 49 -4011 54 -2 3 5 29 17 57 11 28 21 69 21 90 0 36 -4 42 -47 69 -44
27 -55 30 -140 30 -113 0 -123 -3 -123 -44 0 -27 6 -36 35 -51 l34 -19 -37
-69 -37 -69 -265 6 c-146 3 -489 9 -762 12 -274 4 -498 7 -498 8 0 0 9 30 20
66 11 36 20 83 20 105 0 36 -4 43 -44 68 l-43 27 -419 0 -420 0 -69 -70 -69
-70 -91 0 c-73 0 -96 4 -120 20 -44 29 -205 29 -253 0 -47 -29 -205 -29 -242
0 -37 29 -205 29 -252 0 -48 -29 -200 -29 -243 0 -44 29 -256 29 -340 0 -55
-19 -84 -20 -590 -20 -596 0 -545 -7 -545 74 0 91 -11 136 -40 156 -17 12
-109 37 -241 66 -213 47 -214 48 -292 101 l-79 53 -385 0 c-373 0 -386 1 -370
18 15 17 17 59 17 400 l0 382 503 0 c276 1 1066 -7 1755 -17 1095 -15 1254
-15 1262 -3 5 8 23 54 41 102 l31 86 101 28 c59 17 113 38 129 52 16 14 30 23
32 21 2 -2 8 -13 14 -25 l11 -21 168 28 c92 16 180 31 195 34 20 5 28 3 28 -7
0 -7 5 -30 11 -50 l10 -38 162 1 c89 1 243 4 342 8 l180 6 13 63 14 62 1331
-2 1331 -3 24 -122 c20 -98 28 -123 41 -123 9 0 48 -32 86 -70 l69 -70 353 0
353 0 0 30 0 30 488 0 c390 0 499 -3 547 -15 33 -8 106 -14 162 -15 l102 0
102 -170 102 -170 292 0 293 0 160 85 161 85 315 0 314 0 34 -40 34 -39 190
22 c246 29 297 23 452 -56 63 -33 131 -60 166 -66 33 -6 61 -10 62 -8 2 1 -41
79 -95 172 -69 120 -136 220 -230 340 l-134 170 -701 280 -701 279 -270 6
c-270 5 -270 5 -273 27 -3 23 -43 58 -74 64 -10 2 -102 85 -205 185 -104 99
-204 194 -223 211 -33 29 -52 34 -285 78 -214 41 -273 56 -413 107 l-162 60
-60 67 -59 66 -133 23 c-73 12 -159 25 -190 28 l-58 7 0 72 c0 65 -2 73 -22
82 -13 6 -356 149 -763 318 -407 169 -745 312 -751 316 -6 5 -27 64 -48 131
l-38 123 -321 134 c-177 74 -341 142 -365 152 l-43 19 89 107 88 108 507 3
507 2 0 23 c0 18 17 31 95 70 l95 47 0 60 0 60 255 0 255 0 2 422 3 423 110
12 c61 7 207 22 325 33 118 11 292 29 385 40 94 11 681 74 1306 140 625 66
1324 142 1555 170 286 35 470 52 581 55 89 2 170 8 180 14 17 9 729 21 3858
67 583 8 1088 17 1123 20 44 4 62 10 62 20 0 11 -23 14 -117 15 -362 1 -3533
56 -3538 61 -3 3 -1 17 4 32 l11 26 4850 0 4850 0 0 155 0 155 -4852 2 -4853
3 -19 68 -20 67 -263 0 -263 0 -11 45 -11 45 -2577 0 c-1417 0 -2862 3 -3212
7 l-637 6 -19 41 c-20 40 -23 42 -369 198 l-349 158 -25 -30 c-19 -23 -33 -30
-61 -30 -31 0 -38 4 -49 30 l-12 30 -224 0 -224 0 0 81 c0 49 8 113 21 162 12
49 18 94 14 114 l-6 33 145 0 c79 0 146 4 148 9 2 5 186 13 418 17 l415 9
-405 8 c-232 4 -412 12 -422 17 -10 6 -85 10 -167 10 -121 0 -150 3 -154 14
-7 18 7 22 98 31 99 9 115 14 115 36 0 10 -3 19 -7 20 -5 0 -51 6 -103 12
l-95 12 -5 133 -5 132 -30 20 c-16 11 -40 20 -52 20 -27 0 -27 -2 -25 225 1
83 -2 209 -7 280 l-8 130 -4 -150 c-2 -82 -4 -208 -5 -280 -1 -212 0 -205 -29
-205 -24 0 -25 3 -25 61 0 37 -4 58 -10 54 -5 -3 -10 -31 -10 -61 l0 -54 -70
0 -69 0 -25 -42 c-13 -24 -41 -91 -62 -149 l-37 -107 -39 -6 c-37 -6 -38 -8
-38 -46 0 -28 4 -40 14 -40 24 0 27 -89 5 -122 -11 -15 -19 -39 -19 -54 0 -19
-16 -46 -50 -85 l-50 -57 0 -266 c0 -238 -2 -266 -16 -266 -9 0 -25 -11 -36
-25 l-19 -25 -557 0 -557 0 -550 255 c-302 140 -552 258 -556 262 -5 6 -315
754 -386 931 -4 9 33 12 165 12 l169 0 20 53 c19 50 22 52 61 55 l41 3 17 -55
c10 -31 22 -56 28 -55 6 0 79 31 161 67 l150 68 0 332 0 333 -155 69 c-85 37
-158 66 -161 64 -3 -1 -14 -28 -24 -59 l-19 -56 -40 3 c-38 3 -40 5 -59 61
l-21 57 -362 0 -361 0 -88 215 c-48 119 -86 218 -83 220 2 2 744 62 1648 132
l1645 128 3 112 c3 110 2 113 -20 117 -13 3 -385 32 -828 66 -443 33 -825 64
-849 68 -31 5 207 26 780 70 453 35 839 66 857 69 l32 5 0 114 c0 109 -1 114
-21 114 -12 0 -889 68 -1949 150 -1060 83 -1935 150 -1944 150 -18 0 -18 -10
0 228 l6 72 56 0 57 0 21 58 c20 56 21 57 59 57 37 0 38 -2 58 -55 11 -30 21
-56 22 -58 1 -1 75 30 164 70 l161 71 -2 331 -3 331 -150 67 c-82 36 -155 67
-161 67 -6 1 -19 -24 -29 -54 -19 -55 -19 -55 -60 -55 -41 0 -41 0 -60 55
l-18 55 -2898 0 -2897 0 -11 -30 c-7 -22 -16 -30 -33 -30 -16 0 -30 10 -41 30
l-18 30 -270 0 -269 0 0 -470z"/>
</g>
</svg>
