<?xml version="1.0" standalone="no"?>
<!DOCTYPE svg PUBLIC "-//W3C//DTD SVG 20010904//EN"
 "http://www.w3.org/TR/2001/REC-SVG-20010904/DTD/svg10.dtd">
<svg version="1.0" xmlns="http://www.w3.org/2000/svg"
   viewBox="0 0 4050.000000 2271.000000"
 preserveAspectRatio="xMidYMid meet">
<metadata>
Created by potrace 1.16, written by Peter Selinger 2001-2019
</metadata>
<g transform="translate(0.000000,2271.000000) scale(0.100000,-0.100000)"
fill="#000000" stroke="none">
<path d="M19446 22637 c-15 -37 -26 -69 -25 -71 2 -1 184 -27 404 -57 219 -29
392 -55 384 -57 -12 -2 -547 65 -647 82 -19 3 -39 -16 -115 -108 -51 -61 -98
-118 -105 -127 -10 -13 21 -567 163 -2945 96 -1611 176 -2956 177 -2989 l3
-60 -312 -447 c-210 -301 -313 -456 -313 -473 0 -40 349 -2507 358 -2535 5
-14 163 -236 351 -494 188 -257 340 -473 338 -480 -3 -6 -247 -200 -544 -430
l-539 -420 -94 -298 c-51 -165 -96 -301 -99 -302 -3 -2 -110 36 -237 84 l-231
87 -4247 -5 -4247 -5 -714 -413 -713 -414 -205 0 -204 0 -726 -330 -726 -330
-1158 0 -1158 -1 -410 208 -411 207 -1379 -108 -1380 -108 -342 -191 -343
-191 0 -1576 1 -1575 337 -189 337 -189 1384 -107 1383 -107 406 134 407 133
1106 0 1106 0 779 -540 779 -540 3067 0 c2448 0 3068 -3 3068 -12 0 -29 30
-559 35 -625 l6 -73 -81 0 c-72 0 -94 -5 -198 -45 l-117 -45 -1495 -55 c-822
-30 -1528 -58 -1567 -61 l-73 -6 0 -34 0 -34 -107 0 c-60 0 -551 -5 -1093 -10
l-985 -11 -52 -34 c-38 -25 -53 -42 -53 -58 0 -16 42 -59 152 -157 l152 -135
236 -32 c213 -29 352 -38 1490 -97 l1255 -66 380 -84 380 -85 738 -19 c406
-11 740 -22 743 -25 3 -3 -12 -63 -34 -134 l-40 -128 -143 -5 c-140 -5 -147
-6 -251 -47 l-107 -43 -1552 -57 c-1217 -45 -1555 -61 -1566 -71 -7 -7 -13
-24 -13 -38 l0 -24 -242 0 c-134 -1 -624 -5 -1090 -10 l-848 -8 -54 -34 c-86
-51 -82 -58 98 -218 l152 -135 245 -32 c220 -29 365 -39 1494 -97 l1250 -65
380 -85 380 -84 758 -20 c417 -10 760 -22 764 -25 3 -4 0 -27 -7 -52 l-13 -45
-210 0 -210 0 -116 -44 -117 -45 -1444 -55 c-795 -31 -1497 -58 -1562 -62
l-116 -6 -7 -34 -6 -34 -307 -1 c-169 0 -658 -4 -1088 -8 l-780 -8 -57 -36
c-37 -24 -57 -44 -57 -56 0 -22 293 -289 325 -296 11 -2 127 -18 258 -35 208
-27 396 -39 1485 -95 l1247 -65 360 -85 360 -85 1107 -27 1107 -27 103 42
c103 41 106 42 646 116 l542 74 64 48 64 49 6 80 c3 44 8 148 12 230 l6 150
-56 28 c-31 15 -70 27 -86 27 -30 0 -30 0 -30 59 l0 58 -437 10 -438 9 -112
54 -111 55 20 53 21 52 158 0 159 0 97 40 c96 39 110 41 638 116 l540 75 67
51 66 50 7 147 c4 80 8 182 8 225 l2 79 -45 28 c-27 16 -60 28 -82 28 l-38 1
0 59 0 58 -430 8 -431 7 -148 67 c-132 60 -147 69 -140 86 5 11 27 69 50 129
l41 109 127 -5 126 -5 105 43 c103 42 113 44 510 99 465 65 531 67 572 15 21
-25 46 -33 283 -88 l260 -61 1215 -136 1215 -135 380 -145 380 -144 1097 -72
1096 -72 99 62 c54 34 107 64 118 66 11 3 261 50 555 105 l535 100 43 47 c103
115 92 73 120 444 23 305 23 331 8 348 -11 12 -16 37 -16 83 l0 66 -57 6 c-32
3 -263 15 -513 27 l-455 21 -120 39 c-79 26 -139 39 -175 39 -35 0 -50 4 -40
9 8 5 121 47 250 94 l235 85 2531 272 2532 271 963 6 964 5 479 150 478 150
1182 127 c813 88 1190 125 1211 119 17 -5 525 -49 1131 -98 l1100 -90 208 209
208 209 59 128 58 129 833 59 833 58 127 124 127 123 103 3 103 3 5 40 5 40
82 5 c45 3 84 8 88 11 3 4 20 60 37 125 17 66 34 123 38 127 4 4 45 -56 91
-133 l84 -141 57 4 c31 3 58 1 60 -3 4 -10 1271 119 1278 130 3 5 232 31 510
59 278 28 520 54 538 56 25 5 36 15 52 45 19 38 20 59 20 569 0 519 0 531 -21
574 l-21 43 -537 54 c-295 30 -539 58 -542 63 -9 12 -1143 129 -1277 130
l-114 2 -86 -142 c-50 -82 -90 -137 -93 -130 -4 7 -22 67 -40 135 l-32 122
-45 0 c-25 0 -156 5 -291 11 l-246 11 -70 67 -70 68 -2235 1027 -2235 1026
-1214 0 -1214 0 -201 130 c-162 104 -235 159 -379 286 l-177 156 -1344 77
-1344 77 -213 138 c-118 76 -302 195 -409 264 l-195 126 -78 191 -78 191
-1917 67 c-1054 38 -1969 71 -2032 74 l-115 5 -89 -116 -88 -116 -92 6 c-50 3
-207 11 -349 18 -142 7 -261 17 -266 22 -8 9 -46 372 -39 379 2 2 1014 -5
2248 -16 l2244 -20 40 39 c23 21 246 228 497 459 l456 421 6 68 c4 38 7 87 7
109 0 30 -235 594 -992 2377 l-991 2338 -323 233 -322 232 -1057 2385 c-581
1312 -1060 2389 -1064 2393 -5 5 -442 66 -972 137 -530 71 -975 130 -989 132
-23 4 -29 -3 -54 -65z m832 -194 c-10 -2 -26 -2 -35 0 -10 3 -2 5 17 5 19 0
27 -2 18 -5z m80 -10 c-10 -2 -28 -2 -40 0 -13 2 -5 4 17 4 22 1 32 -1 23 -4z
m70 -10 c-10 -2 -26 -2 -35 0 -10 3 -2 5 17 5 19 0 27 -2 18 -5z m70 -10 c-10
-2 -26 -2 -35 0 -10 3 -2 5 17 5 19 0 27 -2 18 -5z m75 -10 c-7 -2 -21 -2 -30
0 -10 3 -4 5 12 5 17 0 24 -2 18 -5z m75 -10 c-10 -2 -26 -2 -35 0 -10 3 -2 5
17 5 19 0 27 -2 18 -5z m75 -10 c-7 -2 -21 -2 -30 0 -10 3 -4 5 12 5 17 0 24
-2 18 -5z m70 -10 c-7 -2 -21 -2 -30 0 -10 3 -4 5 12 5 17 0 24 -2 18 -5z m70
-10 c-7 -2 -19 -2 -25 0 -7 3 -2 5 12 5 14 0 19 -2 13 -5z m80 -10 c-7 -2 -21
-2 -30 0 -10 3 -4 5 12 5 17 0 24 -2 18 -5z m70 -10 c-7 -2 -19 -2 -25 0 -7 3
-2 5 12 5 14 0 19 -2 13 -5z m70 -10 c-7 -2 -19 -2 -25 0 -7 3 -2 5 12 5 14 0
19 -2 13 -5z m74 -9 c-3 -3 -12 -4 -19 -1 -8 3 -5 6 6 6 11 1 17 -2 13 -5z
m76 -11 c-7 -2 -19 -2 -25 0 -7 3 -2 5 12 5 14 0 19 -2 13 -5z m74 -9 c-3 -3
-12 -4 -19 -1 -8 3 -5 6 6 6 11 1 17 -2 13 -5z m4337 -9194 c153 -363 277
-662 275 -664 -2 -2 -199 -153 -438 -335 l-433 -331 -117 0 c-196 1 -2871 67
-2875 71 -2 2 99 80 225 172 l228 168 1157 11 1157 10 301 229 301 229 17 68
17 67 -111 388 -111 388 29 62 c27 57 78 127 93 127 3 0 132 -297 285 -660z
m6858 -4267 c103 -47 187 -87 186 -89 -2 -1 -127 26 -278 62 l-275 64 -420 1
-420 2 415 22 c228 12 457 23 509 24 l94 1 189 -87z m2512 -1154 l990 -454
-115 -3 c-103 -2 -132 1 -291 37 -171 39 -194 47 -675 247 -274 114 -510 213
-525 221 -26 12 -901 634 -923 654 -5 5 116 -48 270 -119 154 -70 725 -333
1269 -583z m1561 -2180 c-4 -11 -16 -40 -26 -64 -17 -37 -24 -44 -57 -49 -142
-22 -965 -126 -969 -122 -6 6 14 10 357 66 168 27 319 52 337 55 27 5 35 13
54 60 21 51 25 55 63 60 71 9 109 12 179 13 65 2 68 1 62 -19z m-20476 -1216
c53 -179 55 -193 40 -207 -8 -7 -118 -104 -246 -215 l-231 -201 -205 -75 -205
-75 -108 0 -107 0 -124 56 c-68 31 -123 60 -123 65 0 6 167 453 259 692 l11
27 509 0 510 0 20 -67z m796 -66 l110 -12 0 -189 0 -188 -210 -118 -210 -119
-294 -76 c-161 -42 -295 -74 -297 -72 -2 2 160 79 360 171 l364 168 6 45 c9
70 7 272 -4 323 -6 25 -12 55 -15 67 -5 21 -3 22 37 17 24 -3 93 -11 153 -17z
m-2852 -913 c53 -3 97 -9 97 -13 0 -5 -5 -22 -11 -40 l-11 -31 -259 0 -259 0
-70 46 c-39 26 -70 49 -70 51 0 6 442 -4 583 -13z m647 -14 c-19 -13 -30 -13
-30 0 0 6 10 10 23 10 18 0 19 -2 7 -10z m6450 -295 c57 -19 94 -25 163 -25
77 0 88 -2 83 -16 -3 -9 -6 -29 -6 -45 l0 -29 -307 6 c-170 4 -311 9 -315 13
-5 5 269 113 303 120 3 0 39 -10 79 -24z m1019 -2 c-8 -10 -34 -42 -59 -72
l-45 -54 -159 7 c-88 3 -161 8 -163 10 -2 2 0 19 5 37 l8 34 115 7 c63 4 150
16 194 27 44 11 88 20 99 20 16 1 17 -1 5 -16z m-8551 -1049 c120 -6 122 -7
102 -58 l-10 -26 -282 0 -283 0 -75 51 -75 50 255 -6 c140 -3 306 -8 368 -11z
m868 -39 c-36 -32 -44 -35 -105 -35 -36 0 -110 -3 -163 -7 l-98 -6 17 42 16
41 186 0 186 -1 -39 -34z m-1323 -1151 c179 -5 208 -8 203 -21 -4 -8 -9 -25
-12 -37 l-5 -23 -356 -7 -356 -7 -69 47 c-38 27 -72 52 -75 57 -5 9 123 7 670
-9z m807 -44 l-45 -39 -127 -1 c-71 0 -128 2 -128 5 0 3 7 21 14 40 l15 35
158 0 158 -1 -45 -39z"/>
</g>
</svg>
