<?xml version="1.0" standalone="no"?>
<!DOCTYPE svg PUBLIC "-//W3C//DTD SVG 20010904//EN"
 "http://www.w3.org/TR/2001/REC-SVG-20010904/DTD/svg10.dtd">
<svg version="1.0" xmlns="http://www.w3.org/2000/svg"
   viewBox="0 0 4678.000000 1263.000000"
 preserveAspectRatio="xMidYMid meet">
<metadata>
Created by potrace 1.16, written by Peter Selinger 2001-2019
</metadata>
<g transform="translate(0.000000,1263.000000) scale(0.100000,-0.100000)"
fill="#000000" stroke="none">
<path d="M36247 12597 c-22 -19 -37 -41 -37 -54 l0 -23 -361 0 c-317 0 -360
-2 -349 -15 6 -8 58 -46 114 -84 57 -39 112 -83 122 -98 13 -20 20 -52 24
-110 l5 -83 -1589 -2 -1590 -3 655 -213 654 -214 263 -161 263 -161 165 -196
165 -195 -4 -227 -5 -228 968 0 968 0 5 -32 c3 -18 9 -59 13 -92 l7 -58 525 7
525 8 -6 -33 c-4 -18 -7 -43 -7 -56 0 -18 -12 -30 -50 -52 -42 -22 -52 -34
-61 -67 -5 -22 -12 -47 -15 -56 -3 -11 -30 -23 -81 -36 l-76 -19 -73 -174 -72
-175 -115 -3 -114 -3 -7 39 -6 39 -62 7 c-35 4 -82 9 -105 12 l-43 6 0 135 0
134 -177 -6 c-702 -23 -2928 -44 -6778 -65 l-1810 -10 -2630 -85 c-1446 -47
-2676 -88 -2732 -91 l-103 -6 0 -53 0 -52 -72 -7 c-40 -4 -97 -9 -125 -12
l-53 -6 0 -69 c0 -63 -2 -69 -22 -73 -13 -3 -347 -46 -744 -96 l-721 -91 -587
-184 -587 -185 -748 0 c-411 0 -1045 -3 -1409 -7 l-662 -6 0 -314 0 -313
-1241 0 -1241 0 -1326 280 c-730 154 -1335 283 -1345 286 -16 5 -17 16 -11
127 4 67 8 123 9 125 1 1 114 19 251 40 l249 38 8 69 c4 39 6 139 5 224 l-3
154 -265 68 c-252 64 -292 71 -815 145 -302 42 -551 78 -553 79 -5 4 129 589
137 597 3 4 95 31 204 61 109 30 200 57 203 60 6 6 -3 38 -48 165 l-30 82
-1019 0 -1020 0 -247 -56 -246 -57 -53 -45 c-29 -25 -50 -49 -46 -53 5 -3 187
-39 406 -80 l398 -74 -313 -306 -313 -306 -1065 -132 -1065 -132 -1935 -464
c-1064 -255 -2234 -538 -2600 -629 -673 -166 -1290 -316 -1303 -316 -4 0 -7
-49 -7 -108 l0 -108 1013 191 1012 190 3 -299 c1 -164 1 -301 -1 -302 -2 -2
-597 -116 -1323 -254 -725 -137 -1329 -252 -1342 -255 l-22 -5 2 -1192 3
-1192 1200 -227 c660 -125 1264 -240 1343 -255 l142 -26 0 -254 c0 -140 3
-254 6 -254 3 0 1079 -264 2391 -586 l2386 -585 248 -125 249 -124 0 -165 0
-165 34 0 c18 0 61 -3 95 -6 57 -6 61 -8 61 -33 1 -19 13 -35 44 -58 l43 -33
290 0 289 0 42 32 c23 18 42 39 42 48 0 13 21 14 167 9 93 -4 183 -7 201 -8
26 -1 32 -5 33 -23 0 -14 16 -35 41 -55 l40 -33 290 0 290 0 50 42 50 42 517
-17 c284 -10 558 -20 609 -24 l92 -6 0 167 0 166 250 125 250 125 0 623 0 622
1309 433 1309 432 1120 0 1119 0 129 145 128 145 1853 0 1853 0 0 190 0 190
1185 0 1185 0 0 -115 0 -115 715 0 715 0 0 248 0 249 437 6 c240 4 751 7 1135
7 l698 0 0 -255 0 -255 120 0 120 0 0 -319 0 -319 63 -6 c34 -4 1023 -58 2197
-121 l2135 -115 700 -131 c385 -71 711 -134 724 -138 18 -5 47 -44 101 -132
l76 -124 1535 2 c844 1 1580 4 1637 8 l102 7 0 114 0 114 78 1 c345 2 1953 37
1958 42 4 3 3 85 -2 181 l-9 174 190 6 c421 14 1508 36 1513 31 3 -2 11 -384
19 -847 8 -464 16 -862 19 -885 l5 -43 73 0 73 0 6 -97 c4 -54 7 -155 7 -225
0 -140 5 -130 -75 -143 -22 -4 -47 -9 -55 -11 -14 -4 -15 -115 -12 -1051 2
-577 6 -1050 8 -1052 2 -2 9 1 16 7 17 14 319 90 389 98 l54 6 56 -74 c34 -44
59 -88 63 -111 4 -20 8 -37 10 -37 2 0 342 119 757 263 l754 264 425 233 c420
230 429 235 779 484 l354 251 376 345 c352 323 397 369 714 720 l339 375 365
543 365 543 260 562 260 562 134 434 c129 417 138 453 224 870 49 240 92 444
94 453 3 13 -31 40 -134 107 l-138 90 -11 50 c-6 28 -13 68 -17 88 l-6 38 116
93 116 93 -126 252 c-171 340 -409 726 -835 1348 -150 219 -195 276 -417 525
-152 171 -339 366 -483 505 -213 206 -266 250 -594 500 -339 257 -382 287
-730 497 l-370 223 -415 186 c-385 172 -444 195 -815 319 -463 155 -965 292
-1586 433 -352 80 -440 96 -829 150 -355 50 -497 65 -772 83 l-338 22 0 31 c0
24 -9 37 -42 63 l-42 32 -289 0 -290 0 -43 -36 c-25 -19 -44 -44 -44 -55 0
-18 -11 -19 -340 -19 l-340 0 0 23 c0 15 -14 35 -39 55 l-40 32 -298 0 -298
-1 -38 -32z m-19347 -5757 c0 -65 3 -90 13 -90 6 0 604 -11 1327 -25 723 -13
1916 -34 2650 -45 734 -11 2807 -50 4605 -85 1799 -36 3905 -76 4680 -90 776
-14 1487 -28 1582 -31 l172 -6 10 -52 c20 -106 22 -136 9 -136 -7 0 -319 -45
-693 -99 l-681 -98 -1670 62 -1671 62 -125 67 c-124 65 -126 66 -204 66 l-80
0 -69 -70 -69 -70 -253 0 -253 0 0 -95 0 -95 -885 0 -885 0 0 85 0 85 -715 0
-715 0 0 -75 0 -75 -1185 0 -1185 0 0 125 0 125 -1850 0 -1850 0 -131 100
-131 100 -1125 0 -1125 0 6 73 c3 39 8 117 11 172 3 55 8 124 11 153 l5 52
1235 0 1234 0 0 -90z"/>
</g>
</svg>
