<?xml version="1.0" standalone="no"?>
<!DOCTYPE svg PUBLIC "-//W3C//DTD SVG 20010904//EN"
 "http://www.w3.org/TR/2001/REC-SVG-20010904/DTD/svg10.dtd">
<svg version="1.0" xmlns="http://www.w3.org/2000/svg"
   viewBox="0 0 4475.000000 979.000000"
 preserveAspectRatio="xMidYMid meet">
<metadata>
Created by potrace 1.16, written by Peter Selinger 2001-2019
</metadata>
<g transform="translate(0.000000,979.000000) scale(0.100000,-0.100000)"
fill="#000000" stroke="none">
<path d="M10176 9695 l-210 -95 -360 0 c-343 0 -362 -1 -391 -20 -26 -17 -47
-20 -158 -20 l-128 0 -130 -75 -131 -75 -281 0 -282 0 -210 -99 -210 -98 -3
-117 -3 -116 126 0 126 0 116 -67 117 -68 -684 -3 -685 -2 -52 -52 -53 -52 47
-48 47 -48 1018 0 1018 0 0 -62 0 -63 -627 2 c-346 2 -1013 5 -1483 6 -610 3
-971 9 -1260 22 -383 16 -421 16 -695 0 -177 -10 -646 -22 -1200 -30 l-910
-14 -260 -40 c-222 -34 -285 -48 -435 -95 l-175 -56 -137 0 -136 0 -288 -140
c-158 -77 -289 -138 -291 -136 -3 2 -15 46 -28 96 -13 50 -25 93 -27 94 -1 2
-94 -40 -205 -92 l-203 -95 0 -413 c0 -384 -1 -413 -17 -418 -10 -2 -45 -10
-78 -16 -103 -19 -95 -11 -95 -105 l0 -84 127 -138 c69 -76 150 -164 179 -196
l53 -57 66 26 c36 15 67 25 69 23 2 -2 68 -80 145 -174 l142 -170 -258 -6
c-339 -7 -428 -25 -645 -131 l-148 -72 0 -646 0 -645 136 -68 c121 -60 152
-71 294 -102 155 -34 163 -35 389 -35 l231 0 0 -80 0 -80 650 0 650 0 0 -122
0 -123 68 -77 67 -78 78 0 77 0 0 -28 c0 -27 1 -28 293 -118 l292 -90 3 -55 3
-54 297 -297 297 -298 232 0 c209 0 235 -2 251 -18 9 -9 128 -81 264 -160
l247 -142 215 0 215 0 3 -56 3 -57 855 -383 855 -383 1549 -1 1549 0 103 56
c77 41 104 60 104 75 0 19 16 19 1043 19 l1043 0 461 219 461 220 6703 -3
6704 -3 269 -77 270 -76 533 0 533 0 0 -220 0 -220 1688 0 1687 0 110 59 c95
50 111 62 120 91 9 31 11 32 54 26 25 -3 54 -15 66 -26 21 -20 36 -20 954 -20
l933 0 469 276 469 277 0 122 0 122 -101 46 -101 47 -274 0 c-237 0 -274 2
-274 15 0 13 196 15 1704 15 l1703 0 190 150 c170 133 191 153 197 185 l7 35
105 0 106 0 234 170 234 170 744 0 744 0 384 90 c211 50 400 95 420 101 l38
10 2 162 3 162 1419 331 c780 182 1421 336 1425 341 3 6 224 61 491 123 267
62 491 115 498 117 9 4 12 120 12 534 0 291 -3 529 -6 529 -18 0 -3784 381
-3811 386 -32 5 -33 6 -33 57 l0 53 -412 97 -413 97 -639 0 -638 0 246 253
245 252 1 221 0 220 -494 272 -493 272 -124 0 c-84 0 -119 -3 -109 -10 10 -6
-278 -10 -822 -10 l-837 0 -26 -26 c-20 -20 -33 -25 -68 -22 -37 3 -42 6 -45
29 -3 23 -19 35 -111 83 l-109 56 -1548 0 -1549 0 -855 -383 -855 -384 -3
-111 -3 -112 -68 0 c-67 0 -71 -2 -215 -82 -80 -46 -146 -89 -146 -95 0 -10
-103 -13 -484 -13 l-483 0 -314 100 c-310 100 -436 129 -554 131 -33 0 -67 3
-77 7 -9 4 -83 67 -164 141 -140 127 -156 138 -272 193 l-123 59 -325 -7 -324
-7 0 26 0 27 -310 0 c-303 0 -310 0 -310 -20 0 -20 -7 -20 -1940 -20 -1933 0
-1940 0 -1940 20 0 20 -7 20 -310 20 -303 0 -310 0 -310 -20 0 -20 -7 -20
-1940 -20 -1933 0 -1940 0 -1940 20 0 20 -7 20 -315 20 -308 0 -315 0 -315
-20 0 -19 -7 -20 -136 -20 l-137 0 -943 368 -944 367 0 78 0 77 278 0 277 0
95 44 95 44 2 124 3 123 -473 277 -472 278 -931 0 -930 0 -22 -25 c-17 -20
-31 -25 -66 -25 -41 0 -45 2 -51 29 -5 24 -22 37 -114 85 l-109 56 -1548 0
-1549 -1 -209 -94z m6310 -1542 l661 -258 -340 -3 -340 -2 -94 35 -93 35 -770
0 -770 0 0 50 c0 48 -2 52 -37 73 l-38 22 396 3 395 2 165 155 c123 116 169
153 184 150 11 -2 318 -120 681 -262z m1574 -538 c0 -25 0 -25 95 -25 57 0 95
-4 95 -10 0 -6 -63 -10 -170 -10 -138 0 -176 -3 -205 -17 -21 -10 -35 -24 -35
-35 0 -17 -16 -18 -269 -18 l-270 0 -3 41 -3 42 -75 28 -75 28 458 0 457 1 0
-25z m4510 0 c0 -25 1 -25 90 -25 53 0 90 -4 90 -10 0 -6 -62 -10 -165 -10
-180 0 -245 -13 -245 -51 0 -19 -40 -19 -1730 -19 -1664 0 -1730 1 -1730 18 0
11 -14 25 -35 35 -29 14 -66 17 -195 17 -100 0 -160 4 -160 10 0 6 40 10 100
10 l100 0 0 25 0 25 1940 0 1940 0 0 -25z m4500 0 c0 -25 0 -25 95 -25 57 0
95 -4 95 -10 0 -6 -63 -10 -170 -10 -138 0 -176 -3 -205 -17 -21 -10 -35 -24
-35 -35 0 -17 -66 -18 -1730 -18 -1690 0 -1730 0 -1730 19 0 37 -65 51 -235
51 -97 0 -155 4 -155 10 0 6 38 10 95 10 95 0 95 0 95 25 l0 25 1940 0 1940 0
0 -25z m1314 3 c18 -13 57 -44 85 -70 l53 -48 -316 0 c-299 0 -316 1 -316 18
0 11 -14 25 -35 35 -29 14 -66 17 -195 17 -100 0 -160 4 -160 10 0 6 38 10 95
10 95 0 95 0 95 25 l0 25 331 0 c326 0 330 0 363 -22z m10776 -180 l-1 -53
-267 -261 -267 -261 -250 -8 -250 -7 29 31 30 31 166 0 166 0 242 231 c194
186 242 237 242 258 0 23 10 30 73 58 39 17 75 32 80 32 4 1 7 -23 7 -51z
m-19022 -440 c-3 -9 -34 -14 -96 -16 -77 -2 -92 0 -92 13 0 12 16 15 96 15 72
0 95 -3 92 -12z m-58 -3247 c0 -103 2 -115 44 -232 24 -68 47 -132 51 -141 7
-17 36 -18 426 -18 l419 0 0 -170 0 -170 600 0 600 0 0 -140 0 -140 -872 0
-873 1 100 54 c55 30 128 69 162 87 l63 33 0 203 0 202 -410 0 -410 0 0 270 0
270 50 0 50 0 0 -109z m4407 -253 c-1 -68 -3 -13 -3 122 0 135 2 190 3 123 2
-68 2 -178 0 -245z m-7957 -313 l0 -165 595 0 595 0 0 -140 0 -140 -1967 0
-1968 0 115 55 c63 31 349 168 635 304 l520 249 738 1 737 1 0 -165z m18130
95 l0 -40 130 0 130 0 0 40 0 40 1367 0 c859 0 1363 -4 1358 -9 -6 -6 -51 -41
-102 -79 l-92 -69 -953 -6 c-524 -4 -1280 -10 -1680 -14 l-728 -6 0 20 c0 12
-16 34 -37 52 l-38 30 98 1 97 0 0 40 0 40 225 0 225 0 0 -40z m-9062 -487
l173 -48 -196 -3 c-107 -1 -284 -1 -392 0 l-198 3 134 71 134 72 86 -24 c47
-13 164 -45 259 -71z"/>
<path d="M17939 443 l-1246 -3 -7 -38 c-3 -20 -6 -119 -6 -219 l0 -183 1600 0
1600 0 0 219 0 218 -37 7 c-21 3 -177 5 -348 3 -170 -1 -871 -3 -1556 -4z"/>
<path d="M22463 443 l-1273 -3 0 -220 0 -220 1601 0 1600 0 -3 214 c-2 118 -7
218 -11 223 -10 9 -186 10 -1914 6z"/>
<path d="M26163 443 l-473 -3 0 -220 0 -220 1600 0 1600 0 0 225 0 225 -1127
-2 c-621 -2 -1341 -4 -1600 -5z"/>
</g>
</svg>
