<?xml version="1.0" standalone="no"?>
<!DOCTYPE svg PUBLIC "-//W3C//DTD SVG 20010904//EN"
 "http://www.w3.org/TR/2001/REC-SVG-20010904/DTD/svg10.dtd">
<svg version="1.0" xmlns="http://www.w3.org/2000/svg"
   viewBox="0 0 4872.000000 1231.000000"
 preserveAspectRatio="xMidYMid meet">
<metadata>
Created by potrace 1.16, written by Peter Selinger 2001-2019
</metadata>
<g transform="translate(0.000000,1231.000000) scale(0.100000,-0.100000)"
fill="#000000" stroke="none">
<path d="M25841 11987 c-6 -177 -9 -352 -5 -389 4 -36 4 -82 0 -102 -7 -36 -7
-36 -60 -36 l-54 0 -7 79 c-4 44 -6 103 -5 133 1 29 2 69 1 88 -1 30 -3 32
-12 16 -6 -10 -11 -55 -10 -100 1 -44 -1 -111 -5 -148 l-7 -68 -108 0 -108 0
-18 -30 c-16 -28 -21 -30 -78 -30 -60 0 -60 0 -83 -40 l-23 -40 -543 0 -544 0
-41 -65 -41 -65 -94 0 c-83 0 -263 -31 -494 -85 -14 -4 -29 -19 -37 -39 -15
-36 -25 -40 -120 -52 -58 -7 -64 -10 -210 -130 l-149 -124 -201 0 -200 0 -209
-195 -209 -195 -102 0 c-62 0 -118 -6 -142 -14 l-39 -14 -97 69 c-95 67 -99
69 -158 69 -58 0 -63 -2 -112 -45 l-52 -45 -101 0 -101 0 -18 40 c-14 31 -35
51 -91 87 l-73 46 28 41 c16 23 43 66 60 96 l31 55 -31 -35 c-17 -19 -49 -59
-71 -88 l-39 -53 -32 21 c-18 12 -42 26 -54 32 -21 10 -20 12 31 87 72 106
161 251 135 221 -12 -14 -62 -81 -112 -150 -49 -69 -91 -126 -93 -128 -1 -2
-20 9 -43 23 l-40 27 55 82 c30 44 59 86 64 93 23 28 181 283 176 283 -5 0
-238 -314 -286 -385 -18 -27 -34 -51 -35 -53 -2 -2 -32 16 -67 38 l-65 41 95
142 c133 201 147 232 41 91 -30 -40 -72 -98 -94 -129 -22 -31 -45 -64 -51 -73
-10 -14 -15 -13 -46 6 -33 20 -49 22 -204 22 l-169 1 -39 34 c-31 28 -37 37
-27 49 13 15 -4 32 -221 231 -101 92 -108 101 -108 137 0 32 5 40 30 53 27 14
30 21 30 60 0 44 0 45 -39 51 -50 8 -50 7 -50 229 -1 238 -15 297 -25 108 -5
-78 -9 -182 -10 -230 l-1 -88 -35 3 c-19 2 -38 6 -42 9 -5 2 -8 79 -8 171 0
92 -3 246 -7 342 -10 260 -23 163 -24 -175 0 -154 -2 -292 -5 -306 -5 -25 -7
-26 -42 -18 -20 5 -110 9 -199 9 l-162 0 -3 87 -3 87 -274 198 -274 198 -283
0 -282 0 -22 -35 c-21 -34 -24 -35 -80 -35 l-58 0 -91 -165 c-50 -90 -118
-200 -151 -243 l-60 -79 -279 -86 c-152 -48 -283 -87 -289 -87 -7 0 -12 5 -12
11 0 6 -34 46 -76 89 -68 70 -84 81 -161 110 -82 31 -91 32 -180 26 -74 -5
-116 -15 -201 -47 -104 -39 -109 -42 -164 -107 l-56 -68 -139 -23 c-190 -32
-281 -62 -373 -124 -89 -60 -207 -188 -216 -236 -4 -17 -10 -33 -13 -36 -4 -2
-70 0 -146 4 l-140 8 -105 -52 c-58 -29 -114 -61 -126 -71 -15 -14 -29 -53
-48 -138 -15 -66 -28 -121 -30 -123 -4 -4 -566 -21 -806 -24 l-145 -2 -19 54
-19 55 -264 173 c-197 130 -279 178 -326 192 l-63 19 -414 -45 c-227 -24 -416
-48 -419 -53 -49 -73 -139 -182 -151 -182 -8 0 -165 12 -348 27 -272 22 -337
25 -354 14 -18 -11 -36 -1 -176 89 -125 82 -178 110 -273 144 -115 42 -119 43
-144 26 -26 -17 -29 -17 -153 40 -80 37 -178 71 -266 94 l-139 37 -22 -21
c-23 -21 -24 -21 -78 -4 l-55 17 -39 -30 c-91 -71 -25 -69 -670 -28 -318 20
-587 38 -599 40 -15 3 -23 17 -32 55 -6 28 -32 93 -57 144 -40 81 -57 104
-123 163 -42 39 -86 75 -97 80 -11 6 -126 43 -255 82 l-235 71 -330 10 -330
11 -187 -67 -187 -68 -173 -136 -173 -137 -105 -7 c-72 -5 -114 -13 -135 -25
-16 -10 -51 -30 -76 -44 l-46 -26 -86 53 c-96 61 -166 78 -312 77 -77 -1 -81
-2 -106 -32 l-26 -32 -119 27 c-103 24 -180 31 -569 56 l-450 28 -326 61 -327
61 -180 80 c-99 44 -184 80 -188 80 -5 0 -31 -37 -59 -82 l-50 -81 -125 7
c-69 3 -172 6 -230 6 l-105 0 -54 85 c-41 65 -58 84 -70 80 -96 -38 -609 -204
-618 -201 -7 3 -37 24 -67 46 l-54 41 -423 9 -424 8 -490 -134 c-269 -74 -496
-138 -504 -142 -23 -13 -81 -182 -81 -239 0 -50 -3 -55 -61 -118 -34 -36 -69
-65 -79 -65 -11 0 -33 -22 -54 -55 -20 -30 -73 -92 -116 -139 -50 -51 -86 -99
-94 -125 -14 -39 -14 -44 31 -164 43 -119 50 -130 149 -253 98 -122 104 -132
104 -175 0 -49 28 -99 56 -99 11 0 14 -17 14 -75 0 -41 5 -86 12 -100 11 -25
15 -26 63 -20 l52 7 6 -39 c4 -21 7 -69 7 -108 l1 -70 145 -108 146 -109 47 7
47 6 38 -80 38 -81 103 0 c100 0 107 -2 248 -54 254 -94 495 -206 722 -334
217 -122 222 -125 277 -196 31 -40 74 -109 96 -153 45 -88 137 -183 178 -183
12 0 81 23 152 51 l130 51 79 -22 c65 -17 81 -26 95 -50 l17 -30 647 0 647 0
297 175 296 175 655 0 654 0 128 -91 c70 -50 127 -95 127 -100 0 -5 -12 -32
-26 -60 -14 -28 -24 -57 -22 -64 3 -15 577 -428 587 -423 3 2 36 20 73 41 l67
38 145 -101 c80 -56 146 -106 146 -111 0 -6 -10 -33 -22 -61 l-21 -50 20 -90
20 -89 -93 -159 c-77 -134 -90 -161 -78 -171 12 -10 39 12 147 117 l132 130
101 0 101 1 58 42 c32 22 63 41 69 41 5 0 52 -25 104 -56 82 -49 92 -58 86
-77 -4 -12 -13 -44 -20 -71 -13 -51 -10 -64 56 -231 11 -27 5 -48 -69 -245
-76 -203 -80 -216 -63 -232 16 -16 24 -7 151 171 l133 188 105 11 c57 7 112
16 122 22 10 5 40 33 66 62 l47 53 104 -54 c115 -60 107 -46 82 -146 -16 -63
-13 -76 37 -182 l47 -101 -66 -243 c-37 -134 -69 -251 -71 -259 -3 -8 4 -21
14 -27 18 -11 29 7 145 230 l126 243 63 17 c114 30 153 53 209 123 28 35 57
64 64 64 10 0 219 -76 231 -84 1 -1 -3 -39 -8 -85 -9 -83 -9 -84 22 -140 18
-30 49 -79 70 -108 22 -29 39 -62 39 -75 0 -13 -22 -149 -49 -303 -27 -154
-46 -283 -43 -287 4 -3 15 -8 26 -10 16 -2 37 40 136 272 l118 275 83 27 c158
51 171 61 218 148 l41 77 112 -25 c62 -13 116 -29 120 -36 4 -6 8 -45 8 -88 0
-72 2 -78 35 -120 20 -23 65 -70 101 -103 l65 -60 -15 -329 c-9 -181 -15 -331
-13 -332 1 -1 14 -5 28 -9 l26 -6 89 318 90 318 100 50 c54 28 113 59 129 68
29 17 55 17 690 -16 l660 -33 205 117 205 118 35 -35 36 -34 567 0 567 0 -12
-25 c-10 -23 -6 -31 60 -103 39 -43 113 -138 166 -211 116 -161 167 -280 184
-431 11 -94 11 -95 53 -130 l42 -35 414 4 413 3 16 -37 c8 -21 18 -60 20 -89
9 -81 19 -98 84 -134 l59 -32 721 0 721 0 122 -110 121 -110 97 0 98 0 22 -40
c16 -28 35 -45 66 -57 l43 -18 0 -72 0 -73 -30 0 c-29 0 -30 -1 -30 -50 l0
-50 140 0 c165 0 180 7 180 85 0 47 9 56 31 29 16 -20 63 -44 85 -44 9 0 43
12 75 26 57 26 60 26 79 9 28 -26 89 -11 190 46 74 41 95 60 157 137 46 58 74
103 78 126 l7 36 89 0 88 0 47 65 46 65 153 -2 153 -3 751 -620 751 -620 -62
-60 c-81 -77 -301 -307 -268 -279 94 78 250 218 250 224 0 4 25 25 55 48 l54
41 103 -85 c57 -46 104 -88 106 -92 1 -4 -18 -34 -43 -66 -25 -32 -45 -62 -45
-67 0 -5 -17 -28 -38 -52 -21 -23 -76 -96 -122 -162 -46 -66 -99 -142 -118
-170 -20 -27 -29 -43 -20 -35 38 38 278 329 278 338 0 5 14 25 31 43 18 19 48
54 67 79 20 25 39 49 43 54 6 7 114 -73 188 -140 12 -11 5 -29 -52 -123 -37
-61 -67 -115 -67 -121 0 -15 -220 -374 -231 -378 -10 -4 -173 -322 -165 -322
8 0 211 284 211 295 0 14 216 368 230 377 6 4 40 54 75 112 56 91 66 103 80
92 107 -90 113 -93 224 -117 60 -13 115 -30 123 -37 7 -7 13 -27 13 -43 0 -25
6 -33 39 -47 l39 -17 -90 -184 c-90 -186 -111 -231 -104 -231 8 0 144 244 161
288 10 23 21 42 25 42 4 0 13 14 20 30 7 17 16 32 19 35 4 2 139 -54 301 -123
266 -116 294 -130 301 -155 5 -17 2 -38 -7 -57 -8 -16 -17 -37 -18 -47 -2 -10
-47 -126 -100 -257 -53 -132 -94 -241 -93 -242 2 -2 41 81 87 184 46 103 103
226 127 273 24 48 43 91 43 98 0 6 7 11 15 11 9 0 18 6 21 14 4 10 32 2 122
-37 64 -28 118 -52 120 -53 2 -1 -2 -21 -9 -44 -10 -33 -10 -48 0 -76 11 -30
10 -38 -2 -52 -16 -18 -38 -82 -43 -122 -3 -20 -301 -894 -344 -1005 -6 -16
-7 -25 -2 -20 6 6 96 228 201 495 105 267 195 492 201 500 20 30 43 86 49 120
5 27 13 38 37 49 23 10 35 25 44 52 7 22 15 39 16 39 2 0 39 -16 84 -36 l81
-35 47 34 47 34 47 -16 c34 -11 56 -27 75 -53 l26 -38 83 0 c78 0 82 -1 77
-21 -3 -11 0 -31 7 -44 10 -18 10 -28 2 -38 -7 -7 -16 -42 -21 -78 -5 -35 -44
-205 -86 -378 -42 -172 -75 -315 -73 -317 2 -2 46 144 98 324 52 180 102 345
112 367 10 22 18 53 18 68 0 20 6 30 19 34 11 3 23 20 30 43 l11 38 113 -5
112 -5 120 -68 c66 -38 146 -76 179 -85 l58 -16 -6 -63 c-6 -54 -5 -64 12 -79
18 -17 19 -21 6 -64 -8 -25 -14 -71 -14 -100 0 -42 -107 -889 -134 -1068 -4
-24 -3 -26 4 -10 5 11 48 243 95 515 47 272 93 517 102 543 8 27 17 72 19 100
2 41 8 56 28 72 16 13 27 35 32 62 4 24 12 43 18 43 6 1 51 52 101 115 71 91
94 113 110 110 11 -3 157 -25 325 -50 168 -25 315 -47 326 -50 12 -3 57 -47
100 -100 92 -110 103 -115 252 -122 l102 -5 0 -34 c0 -19 6 -37 13 -40 7 -2
13 -21 14 -42 3 -75 51 -516 52 -482 0 19 -4 140 -10 268 -10 188 -9 237 1
257 7 14 10 37 7 54 l-6 31 79 0 c71 0 80 -2 80 -19 0 -10 17 -30 40 -45 22
-14 40 -30 40 -34 1 -4 7 -70 14 -147 8 -89 9 -142 3 -146 -12 -8 9 -197 23
-215 6 -6 40 -272 76 -590 36 -319 68 -581 70 -583 2 -2 6 -2 9 1 3 3 -8 268
-23 589 -18 372 -25 586 -19 590 12 8 -1 211 -14 219 -5 3 -14 72 -20 152
l-12 146 37 32 c20 18 36 41 36 51 0 16 8 19 49 19 l50 0 6 -55 c5 -38 13 -59
25 -65 13 -7 18 -23 19 -60 0 -28 5 -58 10 -68 4 -9 30 -169 57 -355 27 -186
50 -334 52 -329 1 5 -13 164 -32 352 -20 188 -34 345 -32 349 2 3 0 28 -5 56
-6 32 -6 52 1 59 5 5 10 36 10 68 l0 58 44 0 c42 0 45 2 56 34 10 30 17 35 76
51 65 18 66 18 95 -4 l30 -22 140 31 c78 18 144 28 149 23 4 -4 13 -37 20 -71
12 -59 17 -67 61 -100 53 -39 69 -79 49 -117 -11 -20 -7 -46 25 -172 25 -96
45 -153 57 -163 13 -11 68 -222 219 -845 110 -456 202 -832 205 -834 2 -2 7
-1 10 2 4 4 -56 387 -132 852 -106 652 -136 850 -127 864 17 27 -43 332 -67
338 -9 3 -22 19 -27 37 -9 28 -6 41 17 86 27 52 27 54 14 124 -8 39 -10 73 -6
76 4 4 45 14 92 24 47 9 92 19 101 22 12 3 24 -22 54 -118 21 -68 42 -125 46
-128 4 -3 13 -28 20 -55 14 -61 181 -536 186 -531 6 5 -124 485 -135 499 -5 7
-15 37 -22 67 -7 30 -27 104 -46 165 -18 60 -31 111 -29 114 12 11 250 58 254
50 1 -6 11 -18 20 -27 20 -19 65 -126 63 -151 -1 -17 439 -1053 445 -1047 6 5
-367 1060 -377 1066 -14 9 -62 130 -64 160 -1 23 5 26 64 41 l65 16 46 74 c37
60 61 85 125 131 43 32 84 57 89 58 11 0 60 -57 91 -105 10 -16 25 -37 33 -45
7 -8 20 -30 28 -48 14 -33 185 -296 206 -317 12 -12 18 -23 -78 155 -43 80
-86 154 -95 165 -10 11 -28 43 -42 70 -27 54 -36 73 -61 123 -9 19 -17 37 -17
42 0 10 145 110 159 110 6 0 11 -3 11 -7 0 -5 23 -33 51 -63 28 -30 75 -84
104 -120 30 -36 88 -101 130 -145 l76 -80 -96 128 c-53 70 -108 140 -122 155
-62 68 -124 154 -117 161 5 4 32 24 60 44 l52 37 228 0 229 1 317 279 318 280
167 -2 167 -3 36 -115 36 -115 400 -3 400 -2 35 46 c19 25 41 50 51 55 38 20
1013 369 1032 369 19 0 23 -10 37 -88 16 -83 21 -95 120 -248 l103 -161 171
-96 171 -97 204 -32 204 -32 205 32 206 32 160 96 c145 87 186 106 438 200
l277 104 230 0 230 0 204 -114 203 -114 156 -25 155 -24 153 25 154 24 130 74
130 73 77 120 c64 99 80 132 89 186 l12 65 76 0 76 0 225 224 225 225 270
-118 270 -119 230 -11 c333 -16 320 -17 335 19 12 29 15 30 74 30 57 0 62 -2
78 -30 13 -22 26 -31 57 -36 27 -4 46 -14 56 -30 13 -20 24 -24 70 -24 l55 0
0 -45 0 -45 80 0 80 0 0 45 0 45 51 0 c42 0 54 4 70 24 10 13 34 27 53 30 25
5 37 14 46 35 9 22 20 30 48 35 70 11 87 8 104 -22 14 -23 23 -28 45 -25 21 3
35 -2 52 -21 21 -22 29 -24 68 -19 51 7 63 -3 63 -51 0 -28 0 -28 48 -22 118
17 112 13 112 62 0 41 2 44 28 44 47 0 68 10 86 41 9 16 26 29 36 29 13 0 27
14 39 39 19 36 24 39 77 46 54 6 58 5 78 -20 17 -20 28 -26 43 -21 14 5 30 -1
50 -18 26 -22 34 -24 73 -15 47 11 60 3 60 -38 0 -33 14 -36 95 -18 82 18 78
14 59 87 -4 13 4 18 33 24 54 9 69 19 83 53 7 18 21 31 33 33 13 2 28 17 38
38 14 29 26 37 72 51 56 17 56 17 78 -7 19 -20 32 -24 85 -24 l63 0 83 99 83
100 540 0 c523 1 541 0 570 -19 18 -12 47 -20 73 -20 39 0 63 -13 248 -141
113 -77 219 -144 237 -149 18 -4 100 -11 182 -14 83 -4 183 -9 223 -13 l73 -6
81 -103 81 -104 72 0 c71 0 73 -1 99 -35 24 -31 32 -34 83 -37 l57 -3 90 -167
91 -168 279 0 279 0 56 42 c54 41 63 44 221 74 l165 31 9 -31 c13 -47 99 -256
104 -252 5 6 -58 236 -71 257 -17 27 -4 33 108 54 55 10 112 24 127 31 27 14
28 14 58 -46 16 -32 30 -67 30 -76 0 -15 232 -436 252 -459 5 -5 1 13 -10 40
-114 289 -166 414 -181 436 -11 14 -32 52 -49 85 l-30 60 175 99 c151 85 177
96 184 82 11 -18 35 -44 47 -49 4 -1 43 -54 86 -117 71 -103 77 -116 67 -138
-13 -29 -55 33 389 -568 342 -463 309 -420 314 -414 2 2 -132 234 -299 514
-280 474 -304 510 -331 513 -25 3 -40 20 -106 120 -43 65 -78 125 -78 133 0 8
-7 25 -16 37 -9 13 -14 25 -13 26 51 40 184 136 188 136 16 -1 106 -102 160
-180 21 -30 417 -508 444 -535 45 -46 -377 505 -479 625 -30 36 -62 78 -71 94
-14 27 -14 30 3 43 21 16 52 16 204 0 96 -10 127 -10 186 2 l72 15 52 106 52
106 52 -7 c34 -4 136 -44 308 -122 142 -65 261 -117 265 -117 4 0 -113 64
-262 142 -148 77 -272 145 -274 151 -2 5 -12 18 -22 28 -17 17 -18 22 -5 47 8
15 22 68 31 117 10 50 21 94 26 99 10 11 164 -12 203 -30 42 -20 104 -28 118
-16 9 7 180 -16 558 -74 300 -46 555 -85 568 -87 13 -3 20 -1 15 3 -4 3 -258
55 -563 114 -391 77 -558 113 -566 124 -7 10 -32 16 -70 19 -32 2 -102 8 -155
15 l-96 11 13 61 c7 34 15 101 19 150 l8 88 91 -7 c50 -4 96 -11 102 -16 10
-8 669 0 660 8 -9 9 -643 80 -656 73 -8 -4 -57 -5 -107 -3 l-93 6 0 61 0 61
-53 41 -52 40 -51 166 -51 166 31 51 31 50 58 1 c50 0 57 2 57 20 0 15 7 20
28 20 15 0 92 5 172 10 107 7 147 13 155 24 12 16 75 21 398 32 109 3 193 2
200 -3 7 -6 281 -5 697 3 377 7 770 13 873 13 104 1 186 5 183 9 -5 8 -1462
29 -1926 29 -238 0 -410 11 -431 29 -12 11 -188 28 -346 34 -2 0 -3 6 -3 13 0
23 -140 57 -238 57 -89 0 -90 0 -140 -40 -46 -37 -55 -40 -110 -40 l-60 0
-159 214 -158 213 -230 150 -230 150 -190 52 c-104 29 -220 61 -256 72 l-67
19 -153 289 -154 290 -260 90 c-236 82 -279 94 -465 126 -172 30 -218 35 -285
30 l-81 -7 -43 105 -43 105 -147 125 c-145 123 -150 127 -342 218 -174 83
-204 94 -294 108 l-99 16 -151 173 -150 173 -210 129 c-204 125 -211 130 -236
181 l-26 52 -364 130 -364 129 -225 29 c-124 16 -304 40 -400 54 -354 49 -316
49 -720 10 -201 -20 -374 -38 -386 -40 -13 -3 -29 -23 -44 -55 -13 -29 -31
-55 -40 -60 -8 -4 -49 -11 -90 -15 -53 -5 -130 -27 -265 -75 l-190 -67 -179
-124 -178 -124 -35 -70 -35 -70 -103 -47 -104 -48 -408 0 -409 0 -29 30 c-25
26 -35 29 -98 32 l-70 3 -12 35 c-25 71 -138 245 -205 316 -38 41 -71 85 -74
101 -6 27 -23 36 -209 120 l-202 90 -255 37 c-225 32 -278 36 -450 36 l-196 0
-17 -29 c-17 -29 -59 -41 -142 -41 -34 0 -140 -42 -146 -58 -2 -5 -32 -24 -66
-41 -45 -22 -76 -31 -113 -31 -40 0 -77 -12 -176 -57 -69 -31 -131 -64 -137
-75 -9 -13 -24 -18 -62 -18 -42 0 -64 -9 -135 -50 -65 -38 -95 -50 -126 -50
-41 0 -43 2 -89 73 l-48 73 -216 96 -216 96 -249 23 -250 23 -250 -22 -251
-23 -215 -96 -215 -95 -127 -192 c-70 -105 -140 -219 -154 -253 l-27 -63 -132
0 -131 0 -144 225 -143 225 -242 0 -242 0 -66 50 -66 50 -366 0 -366 0 -140
35 c-136 34 -142 37 -236 105 -54 39 -139 108 -189 155 -91 83 -92 86 -83 117
5 18 9 40 9 48 0 18 -305 362 -330 372 -9 3 -54 10 -99 14 -53 4 -89 12 -101
23 -10 9 -96 104 -190 211 -95 107 -195 219 -222 248 l-49 52 -154 0 -153 0
-55 -45 -56 -45 -162 0 -162 0 -203 152 -204 153 0 110 -1 110 -271 195 c-149
107 -277 196 -284 198 -8 2 -14 10 -14 17 0 7 -4 15 -9 17 -5 2 -13 93 -18
203 -8 198 -8 199 -14 95 -4 -58 -7 -149 -8 -202 0 -58 -5 -98 -11 -98 -5 0
-10 -7 -10 -15 0 -10 -10 -15 -30 -15 -25 0 -30 4 -36 34 -3 19 -4 59 -2 88 5
51 -19 718 -25 725 -2 1 -9 -142 -16 -320z"/>
<path d="M23131 1574 c0 -11 3 -14 6 -6 3 7 2 16 -1 19 -3 4 -6 -2 -5 -13z"/>
</g>
</svg>
