<?xml version="1.0" standalone="no"?>
<!DOCTYPE svg PUBLIC "-//W3C//DTD SVG 20010904//EN"
 "http://www.w3.org/TR/2001/REC-SVG-20010904/DTD/svg10.dtd">
<svg version="1.0" xmlns="http://www.w3.org/2000/svg"
   viewBox="0 0 4647.000000 1793.000000"
 preserveAspectRatio="xMidYMid meet">
<metadata>
Created by potrace 1.16, written by Peter Selinger 2001-2019
</metadata>
<g transform="translate(0.000000,1793.000000) scale(0.100000,-0.100000)"
fill="#000000" stroke="none">
<path d="M34615 17919 c-1331 -20 -2870 -95 -4080 -199 -385 -33 -1109 -105
-1610 -160 -909 -100 -910 -100 -1705 -229 l-795 -130 -1155 -251 -1155 -251
-1170 -305 c-1036 -270 -1349 -357 -2725 -756 -999 -289 -1949 -571 -2655
-790 -1067 -329 -2461 -768 -2950 -928 -132 -43 -266 -86 -297 -95 -51 -14
-58 -19 -58 -42 0 -25 1 -25 52 -19 100 13 92 17 99 -42 4 -29 9 -55 12 -58 2
-2 98 25 212 62 l209 67 53 -17 c51 -16 55 -16 124 4 39 12 72 20 74 18 5 -6
56 -190 53 -192 -2 -1 -286 -138 -633 -303 l-630 -301 -1960 -4 -1960 -3 -3
48 c-3 41 -6 47 -25 47 -12 0 -1446 -47 -3187 -105 -1741 -57 -3948 -127
-4905 -155 -957 -28 -1764 -53 -1792 -56 l-53 -5 0 -54 0 -53 68 -10 c37 -5
120 -24 185 -42 l117 -32 0 -69 0 -69 -100 0 -100 0 0 -40 c0 -23 21 -96 49
-173 43 -118 54 -164 96 -422 27 -160 51 -294 56 -299 4 -4 213 -36 466 -70
l459 -63 96 -61 96 -60 850 -111 c467 -61 855 -111 861 -111 8 0 12 -133 13
-471 l3 -471 345 -113 c190 -63 714 -232 1165 -377 l820 -264 3 -297 2 -297
58 -16 c31 -9 131 -39 222 -65 l165 -49 -87 6 -88 6 0 -131 0 -131 -27 0 c-23
-1 -36 -13 -76 -70 l-47 -68 0 -96 0 -96 40 0 c39 0 40 -1 40 -35 l0 -35 110
0 c103 0 110 -1 110 -20 0 -16 57 -48 300 -170 l300 -150 173 0 173 0 49 -50
49 -49 120 -3 121 -3 -117 -40 -118 -40 0 -375 0 -375 254 -79 c192 -59 260
-77 284 -71 25 5 1138 -123 1219 -140 18 -4 23 -12 23 -39 0 -28 10 -42 71
-96 l71 -63 651 -204 652 -205 743 -92 c734 -91 752 -94 764 -128 2 -4 135
-24 296 -44 282 -35 293 -36 312 -19 16 14 25 16 43 8 12 -6 377 -178 811
-383 l788 -372 172 -10 171 -11 101 72 101 71 90 0 c49 0 151 -3 226 -7 l136
-6 11 -27 c11 -27 13 -27 123 -34 62 -3 198 -9 303 -12 l192 -7 203 -515 204
-515 198 5 197 5 0 -187 0 -186 2190 -919 c1204 -505 2188 -920 2186 -922 -2
-2 -49 4 -104 14 l-101 17 -98 -50 -98 -49 -3 -71 -3 -71 133 -28 c160 -34
175 -40 120 -50 -50 -8 -58 -21 -68 -103 l-7 -62 -83 0 -83 0 -10 -38 c-6 -20
-11 -54 -11 -74 l0 -37 68 -20 c37 -11 313 -90 614 -175 l547 -156 633 -119
c348 -66 881 -161 1183 -210 928 -151 1885 -243 2781 -266 l251 -7 6 54 c4 29
7 99 7 156 l0 102 35 0 35 0 0 -130 0 -130 190 0 c162 0 190 -2 190 -15 0 -13
209 -15 1819 -15 l1819 0 6 37 c3 21 11 114 17 207 l12 168 94 -7 93 -7 0
1334 0 1334 243 302 242 302 98 0 97 0 0 -95 0 -95 -105 -87 -105 -88 0 -102
0 -103 278 0 277 0 85 85 85 85 263 0 264 0 93 -85 92 -85 344 0 344 0 85 85
85 85 446 0 447 0 77 -85 77 -85 357 0 356 0 83 89 82 89 0 184 -1 183 -80 88
-81 87 -81 0 -82 0 78 78 77 77 0 190 0 190 -85 85 c-77 76 -85 88 -85 122 l0
38 268 0 267 0 76 213 c42 116 141 421 219 677 l142 465 103 565 103 565 76
1145 75 1145 10 1188 c6 654 14 1193 17 1198 3 5 86 9 185 9 l179 0 0 485 0
484 -84 3 -85 3 560 174 559 174 0 252 0 251 1113 244 c611 134 1117 245 1124
248 9 3 13 40 15 119 l3 114 310 138 310 138 40 119 40 119 435 55 435 56 275
79 275 79 194 122 194 122 194 273 195 274 301 172 302 173 903 0 902 0 0 316
0 316 78 -6 c113 -11 540 -55 590 -62 l42 -6 0 32 0 33 58 -7 c31 -4 74 -9 94
-13 27 -4 39 -2 42 8 15 49 7 47 103 29 83 -16 103 -17 91 -4 -3 3 -172 48
-374 100 -357 91 -396 99 -1164 230 -1518 258 -3185 456 -4804 569 -1600 113
-3489 155 -5511 124z"/>
</g>
</svg>
