<?xml version="1.0" standalone="no"?>
<!DOCTYPE svg PUBLIC "-//W3C//DTD SVG 20010904//EN"
 "http://www.w3.org/TR/2001/REC-SVG-20010904/DTD/svg10.dtd">
<svg version="1.0" xmlns="http://www.w3.org/2000/svg"
   viewBox="0 0 4019.000000 847.000000"
 preserveAspectRatio="xMidYMid meet">
<metadata>
Created by potrace 1.16, written by Peter Selinger 2001-2019
</metadata>
<g transform="translate(0.000000,847.000000) scale(0.100000,-0.100000)"
fill="#000000" stroke="none">
<path d="M6600 8279 l0 -192 128 6 c70 4 199 10 287 13 l161 7 29 -69 c17 -37
32 -72 33 -76 2 -4 -345 -8 -772 -8 l-775 0 -5 -167 c-3 -93 -8 -263 -11 -379
l-6 -212 -387 -98 -387 -99 -295 -5 c-200 -3 -304 -9 -322 -17 -21 -10 -518
-14 -2153 -19 -1977 -7 -2125 -8 -2125 -24 0 -15 40 -17 473 -23 259 -4 1111
-7 1892 -8 1335 -1 1692 -6 2080 -28 88 -5 179 -9 203 -10 23 -1 42 -5 42 -11
0 -6 -51 -10 -134 -10 -173 0 -256 -9 -256 -26 0 -11 37 -14 193 -14 l194 0 6
-317 c4 -174 7 -385 7 -470 l0 -153 -27 0 c-78 1 -3322 -91 -3401 -96 l-92 -6
0 -34 0 -34 -590 0 c-567 0 -590 -1 -590 -18 0 -18 40 -19 1106 -25 1069 -5
1161 -7 2689 -58 l1582 -53 -45 -35 c-48 -37 -42 -35 -339 -76 l-43 -6 0 -419
c0 -390 1 -419 18 -424 9 -3 84 -17 166 -31 135 -24 156 -30 227 -71 78 -45
80 -46 194 -51 l115 -6 0 -217 c0 -217 0 -218 23 -224 12 -3 36 -6 54 -6 34 0
33 -2 53 87 l12 51 57 -21 58 -21 7 -93 c3 -51 9 -106 12 -123 l7 -30 121 0
c66 0 973 11 2014 25 l1893 25 62 -39 c62 -39 63 -40 469 -110 224 -39 417
-71 429 -71 11 0 208 54 436 121 l416 120 716 10 c394 6 717 12 718 13 1 1 9
33 17 70 7 37 16 70 20 73 7 7 4195 87 4202 80 6 -5 83 -654 84 -699 l0 -28
-285 0 -285 0 -35 -54 c-40 -60 -30 -56 -227 -72 l-87 -7 -22 47 -23 46 -123
0 -123 0 2 -242 3 -243 117 -3 117 -3 26 52 26 51 132 -7 c145 -7 137 -3 207
-93 l25 -32 1025 10 c564 5 1147 10 1297 10 l271 0 12 35 c8 23 19 36 33 39
12 2 1064 39 2337 80 1273 42 2370 79 2438 83 l122 6 0 43 0 44 -77 0 c-43 0
-1106 29 -2363 65 -1257 36 -2298 65 -2315 65 l-30 0 28 19 c27 17 72 19 810
26 430 4 784 9 786 11 2 2 2 6 -1 9 -2 3 -355 10 -784 16 -767 11 -779 11
-819 32 -30 16 -64 23 -135 27 l-94 5 29 19 c29 19 63 20 995 27 622 4 969 3
977 -4 13 -9 458 -2 556 9 l47 6 0 39 0 39 -102 1 c-57 0 -188 4 -293 8 -119
4 -195 4 -203 -3 -8 -6 -360 -7 -983 -3 l-970 7 -58 50 -58 50 -113 0 -113 0
6 38 c3 20 16 124 28 230 l23 192 108 0 108 0 0 45 0 45 -100 0 c-73 0 -100 3
-100 13 -1 37 104 883 111 891 4 5 387 2 911 -8 497 -9 936 -16 976 -16 56 0
72 -3 72 -14 0 -9 21 -21 53 -30 28 -8 408 -116 842 -239 l790 -225 2055 -101
2055 -101 1705 -266 c938 -147 1709 -270 1714 -275 5 -4 -9 -33 -31 -64 -32
-44 -99 -100 -339 -281 -164 -124 -302 -230 -307 -237 -4 -7 39 -158 101 -351
l108 -339 353 -129 354 -129 891 -204 c490 -113 900 -209 911 -213 11 -5 178
-155 370 -333 l350 -324 -250 -7 c-137 -4 -310 -10 -383 -14 -125 -6 -134 -7
-144 -28 l-10 -23 -718 -6 c-570 -4 -723 -8 -742 -19 -19 -11 -360 -14 -1858
-19 -2725 -9 -2430 -6 -2430 -28 0 -18 64 -18 2133 -26 1575 -5 2137 -10 2152
-19 14 -7 150 -13 438 -16 296 -4 420 -8 425 -16 5 -8 99 -13 310 -16 203 -2
305 -7 310 -14 5 -8 186 -17 547 -28 611 -19 598 -17 532 -84 l-38 -39 -1475
-6 c-1232 -6 -1481 -4 -1508 7 -28 11 -98 11 -447 0 -228 -7 -424 -13 -436
-14 -21 0 -23 -4 -23 -65 0 -36 1 -65 3 -65 1 -1 197 -7 435 -15 364 -11 439
-11 465 0 27 11 270 13 1427 8 l1395 -6 57 -28 c41 -21 72 -29 109 -29 46 0
55 -4 108 -50 l58 -50 165 0 166 0 242 -224 242 -224 71 -6 c119 -9 5488 -138
5494 -132 3 3 -54 167 -126 364 -94 258 -131 371 -131 403 0 41 -32 97 -384
676 -287 473 -513 828 -898 1410 l-515 778 -197 420 -197 420 -258 980 c-142
539 -280 1079 -305 1200 -27 125 -62 261 -83 315 -20 52 -36 96 -37 97 -1 1
-170 14 -376 28 -206 14 -385 28 -396 31 -44 8 -49 50 -31 253 10 102 17 192
17 200 0 11 -711 12 -4592 7 -4071 -6 -4908 -5 -7368 13 -1526 11 -2776 18
-2777 17 -2 -1 -6 -57 -10 -124 l-6 -122 -36 0 c-20 0 -689 34 -1486 75
l-1451 74 -349 -66 -350 -65 -1145 17 c-809 12 -1648 33 -2860 70 l-1715 53
-122 42 -123 42 0 185 0 186 -1412 -7 -1413 -7 -129 108 c-71 60 -122 109
-115 110 8 1 496 23 1084 48 589 25 1085 48 1103 51 28 4 32 9 32 34 l0 30
-82 0 c-46 0 -1028 27 -2183 60 -1155 33 -2115 60 -2132 60 l-33 0 0 -191z
m10586 -1215 l72 -6 132 -389 c73 -215 130 -393 126 -396 -8 -8 -1249 16
-1257 25 -5 6 -326 710 -346 759 -4 10 35 13 164 15 245 4 1026 -2 1109 -8z
m-1307 -380 c67 -207 120 -378 117 -381 -3 -3 -220 -2 -483 2 l-478 7 -52 60
c-47 52 -53 64 -53 103 0 42 -2 45 -44 63 -45 21 -292 167 -314 187 -14 13
-130 258 -134 284 -3 14 56 18 542 32 300 9 597 17 660 17 l116 2 123 -376z
m3026 -34 c81 -226 146 -412 144 -414 -2 -2 -289 3 -636 12 l-633 16 -180 391
c-99 216 -180 395 -180 398 0 4 301 7 668 7 l669 0 148 -410z m959 400 l401 0
113 -323 c63 -177 131 -371 152 -430 l39 -109 -67 6 c-37 3 -316 11 -620 18
-358 7 -558 15 -567 22 -12 9 -395 808 -395 824 0 3 122 2 272 -1 149 -4 452
-7 672 -7z m1631 -13 c1 -1 -10 -197 -24 -434 l-25 -433 -266 6 c-146 3 -287
9 -314 13 l-50 6 -138 300 c-76 165 -165 356 -197 425 l-57 125 535 -3 c294
-1 536 -4 536 -5z m-7206 -79 c12 -34 21 -65 21 -69 0 -6 -201 111 -219 127
-2 2 37 4 86 4 l91 0 21 -62z m1416 -1693 c715 -8 1377 -17 1470 -21 l170 -6
53 -456 c28 -250 51 -457 49 -458 -4 -4 -3598 73 -3602 78 -2 2 27 12 64 21
l69 18 7 81 c4 44 4 168 0 274 -4 106 -4 258 0 338 l7 146 207 0 c113 0 791
-7 1506 -15z m-2305 -790 l0 -65 -70 0 c-38 0 -70 3 -70 8 -1 4 -7 33 -14 65
l-14 57 84 0 84 0 0 -65z m-7555 -55 c-27 -12 -35 -12 -35 0 0 6 12 10 28 9
24 0 25 -1 7 -9z"/>
</g>
</svg>
