<?xml version="1.0" standalone="no"?>
<!DOCTYPE svg PUBLIC "-//W3C//DTD SVG 20010904//EN"
 "http://www.w3.org/TR/2001/REC-SVG-20010904/DTD/svg10.dtd">
<svg version="1.0" xmlns="http://www.w3.org/2000/svg"
   viewBox="0 0 3540.000000 973.000000"
 preserveAspectRatio="xMidYMid meet">
<metadata>
Created by potrace 1.16, written by Peter Selinger 2001-2019
</metadata>
<g transform="translate(0.000000,973.000000) scale(0.100000,-0.100000)"
fill="#000000" stroke="none">
<path d="M3375 9698 c-39 -16 -144 -83 -236 -149 l-167 -119 -1417 0 -1418 0
-68 -55 -69 -56 0 -192 0 -192 141 -183 c77 -101 143 -196 145 -210 18 -102
125 -606 131 -617 5 -7 66 -90 138 -184 127 -168 130 -171 167 -171 30 0 38
-4 38 -19 0 -12 54 -60 157 -140 l157 -122 78 -139 78 -138 0 -268 c0 -217 3
-279 16 -326 l17 -58 123 0 c108 0 123 -2 128 -17 3 -10 57 -240 121 -512 63
-272 116 -495 117 -497 2 -1 233 -19 513 -39 l510 -38 713 121 714 121 168
-47 c162 -45 169 -48 174 -74 3 -17 15 -32 28 -38 53 -22 70 -53 201 -368
l132 -320 139 -113 140 -112 35 20 36 21 1102 -1792 c690 -1122 1106 -1790
1115 -1789 12 3 55 -55 50 -67 -1 -3 6 -5 15 -5 10 0 19 8 21 18 2 9 -2 17
-10 17 -7 0 -31 31 -52 68 -22 37 -525 856 -1117 1820 -593 964 -1076 1758
-1073 1765 8 21 -71 202 -87 198 -8 -2 -21 -5 -29 -7 -10 -3 -65 78 -180 268
-198 325 -189 313 -214 295 -18 -13 -9 -29 158 -300 97 -158 176 -289 176
-292 0 -3 -16 -11 -36 -20 -35 -15 -37 -14 -77 19 -38 31 -56 65 -180 340
-136 302 -138 306 -119 326 l19 20 1869 -519 c1028 -286 1961 -545 2074 -577
l205 -57 465 -244 c256 -135 478 -254 493 -265 15 -10 49 -26 75 -34 94 -29
1350 -254 1424 -255 88 -2 291 -34 333 -53 64 -30 148 -48 691 -147 l560 -102
0 -120 -1 -120 270 -207 270 -207 285 -102 285 -101 392 -62 c324 -52 389 -65
370 -74 -12 -6 -167 -71 -344 -144 l-323 -133 0 -58 c0 -44 -4 -59 -14 -59 -8
0 -154 -16 -325 -35 l-312 -35 -40 21 c-22 11 -52 19 -67 17 -24 -3 -28 -9
-37 -61 l-10 -59 -153 -146 -153 -147 -6 -52 -6 -53 29 0 c43 0 52 -10 104
-102 l47 -83 58 -6 c32 -4 154 -10 273 -14 l214 -7 97 -43 97 -42 343 -13
c188 -7 344 -16 346 -19 2 -4 -15 -28 -38 -54 -37 -42 -52 -50 -125 -72 -122
-36 -366 -36 -792 0 -374 31 -393 30 -405 -31 -3 -20 -4 -38 -2 -41 3 -2 369
-55 813 -118 445 -63 825 -119 844 -126 19 -7 66 -37 105 -68 133 -108 193
-171 236 -247 l40 -74 1054 0 1055 0 20 40 c41 80 -16 75 900 76 858 1 3211
52 4385 94 303 11 578 20 613 20 l62 0 0 34 c0 18 -6 38 -12 43 -7 6 -104 24
-215 42 -170 26 -222 39 -336 80 -74 27 -168 66 -208 87 -78 39 -236 162 -356
277 l-71 69 -259 18 c-142 11 -340 27 -440 37 l-183 17 -23 -23 -24 -22 -80
93 c-75 87 -82 100 -117 204 l-36 110 -221 22 c-122 11 -223 23 -225 25 -3 2
7 22 22 45 l26 40 102 6 c159 9 1248 55 1601 66 251 9 337 9 398 -1 67 -11 87
-10 146 4 104 25 1043 55 1185 38 87 -10 108 -9 151 5 29 9 102 18 175 21 69
3 2382 78 5140 168 4317 139 5020 160 5049 149 18 -8 49 -14 67 -14 19 0 186
55 372 121 185 67 349 126 365 131 26 10 27 13 27 77 0 93 -11 221 -20 221 -4
0 -53 26 -111 57 l-104 58 -125 -3 -126 -3 -13 40 c-11 38 -15 41 -46 41 -19
0 -335 -11 -702 -25 -498 -19 -752 -33 -998 -55 -278 -26 -507 -37 -1450 -70
-616 -22 -2422 -87 -4014 -145 -1591 -58 -2922 -105 -2957 -105 -60 0 -64 2
-64 23 -1 54 47 53 -817 23 l-798 -28 -170 -48 -170 -48 -255 -7 c-140 -4
-289 -11 -330 -17 -41 -5 -156 -13 -255 -18 -146 -7 -196 -14 -264 -34 -46
-14 -85 -25 -86 -23 -1 1 -10 53 -20 115 -15 94 -20 112 -34 108 -9 -3 -216
-64 -460 -136 l-444 -131 -46 45 c-25 24 -74 58 -109 75 -60 30 -70 32 -249
42 -103 6 -196 15 -207 21 -10 6 -65 13 -122 16 -107 5 -202 -12 -249 -44 -11
-8 -23 -14 -27 -14 -5 0 -8 41 -8 90 l0 90 88 0 88 0 37 38 37 38 0 132 0 132
428 0 427 0 80 -80 c97 -98 128 -102 173 -26 l21 35 -122 175 -122 175 -442 1
-443 0 0 73 c0 95 -27 194 -81 298 -38 73 -62 102 -184 222 -223 219 -181 202
-856 351 -308 69 -563 127 -566 129 -5 6 192 167 205 167 5 0 17 -11 26 -25
10 -15 26 -25 40 -25 29 0 380 240 384 263 2 9 -11 37 -29 62 -23 32 -30 48
-22 53 7 4 50 40 96 80 76 65 85 77 101 130 l18 59 157 6 c86 4 201 7 257 7
94 0 109 3 210 41 72 27 143 46 208 54 54 8 101 16 104 19 3 3 7 38 9 78 l5
73 -739 214 -739 214 4 83 c2 46 2 98 -2 116 l-6 34 -418 128 c-551 169 -3420
1124 -3869 1287 -212 77 -578 198 -922 303 -519 160 -602 183 -918 251 -191
41 -463 92 -603 114 l-255 39 -840 285 c-462 157 -885 295 -940 306 -55 12
-1426 312 -3046 666 -2832 620 -2949 645 -3045 644 -87 0 -107 -4 -169 -31z
m11848 -5427 c213 -37 390 -71 393 -74 3 -3 -6 -63 -21 -134 -22 -104 -32
-134 -55 -158 -28 -30 -28 -30 -33 -208 -2 -98 -7 -180 -9 -182 -2 -2 -74 22
-159 54 -84 32 -409 151 -721 266 l-568 208 -13 46 c-8 25 -13 47 -13 48 1 0
34 -5 74 -12 l73 -12 312 113 c172 62 321 113 332 113 11 0 194 -30 408 -68z
m3078 -2313 l-20 -33 -414 -3 c-347 -2 -420 0 -448 12 l-34 15 50 1 c28 1 205
10 395 19 190 10 378 19 418 20 l74 1 -21 -32z m3519 -13 c0 -24 -2 -25 -72
-24 l-73 1 70 23 c39 13 71 24 73 24 1 1 2 -10 2 -24z m-153 -31 c-3 -3 -12
-4 -19 -1 -8 3 -5 6 6 6 11 1 17 -2 13 -5z m163 -124 l0 -30 -142 1 c-79 1
-201 4 -273 8 -121 6 -128 8 -100 20 32 15 189 27 393 29 l122 2 0 -30z
m-1266 -140 c-10 -4 -41 -10 -69 -13 l-50 -5 55 18 c30 9 61 15 69 12 11 -4
10 -7 -5 -12z m-1410 -194 c31 -35 72 -74 91 -87 31 -21 35 -29 35 -67 l0 -43
-57 6 c-112 12 -97 -1 -182 158 l-53 97 55 0 55 0 56 -64z m371 -216 c4 -6
-16 -8 -57 -4 -82 9 -86 14 -10 14 33 0 64 -4 67 -10z m1612 -517 l-35 -48
-164 -2 -163 -1 190 48 c105 26 194 48 198 49 5 1 -7 -20 -26 -46z"/>
</g>
</svg>
