<?xml version="1.0" standalone="no"?>
<!DOCTYPE svg PUBLIC "-//W3C//DTD SVG 20010904//EN"
 "http://www.w3.org/TR/2001/REC-SVG-20010904/DTD/svg10.dtd">
<svg version="1.0" xmlns="http://www.w3.org/2000/svg"
   viewBox="0 0 4772.000000 856.000000"
 preserveAspectRatio="xMidYMid meet">
<metadata>
Created by potrace 1.16, written by Peter Selinger 2001-2019
</metadata>
<g transform="translate(0.000000,856.000000) scale(0.100000,-0.100000)"
fill="#000000" stroke="none">
<path d="M18746 8525 l-27 -35 -432 0 -432 0 -149 -110 -149 -110 -572 0
c-541 0 -573 -1 -588 -18 -10 -10 -17 -35 -17 -55 0 -32 -5 -40 -40 -63 l-40
-27 0 -343 0 -344 40 -20 40 -20 0 -75 0 -75 -109 0 -109 0 -199 -204 -199
-205 -34 -111 c-18 -62 -40 -114 -47 -117 -8 -3 -476 6 -1041 21 -565 15
-1162 26 -1327 26 l-300 0 -140 140 -140 140 -310 0 -310 0 -27 32 -27 33
-509 3 -510 3 -91 103 c-97 111 -97 109 -17 121 l46 7 0 43 c0 41 -4 46 -61
94 l-61 51 -335 0 -335 0 -56 -50 -56 -50 -215 0 -216 1 -34 44 -33 45 -207
-1 -206 0 -47 -57 c-40 -48 -48 -64 -48 -99 l0 -43 -122 0 -123 0 -275 -105
c-256 -98 -280 -105 -346 -105 -83 0 -57 16 -334 -204 l-184 -146 -956 0 -956
0 -37 50 c-70 94 -46 90 -602 90 -563 0 -534 5 -600 -97 -33 -51 -52 -67 -159
-132 l-121 -74 -760 -113 -760 -114 -670 0 -671 0 -282 -65 -283 -64 -108 -71
-108 -70 -137 0 c-112 0 -138 -3 -142 -15 -8 -19 -58 -19 -74 0 -9 11 -32 15
-82 15 -69 0 -71 -1 -124 -46 l-54 -46 0 -494 0 -493 52 -50 c42 -40 62 -51
98 -56 25 -3 57 -8 72 -11 l28 -6 0 -476 0 -476 31 -110 32 -111 -62 -56 -61
-56 0 -739 0 -739 59 -47 59 -48 216 0 216 0 0 30 0 30 110 0 110 0 0 -30 0
-30 1203 0 1203 0 941 -100 c760 -81 971 -100 1092 -100 l152 0 117 78 c64 43
133 88 152 99 19 12 249 92 511 177 l477 156 337 0 337 0 566 -155 566 -155
1059 0 1060 0 269 -170 269 -170 1020 0 1020 0 104 -70 104 -70 381 0 380 0 0
70 0 70 -43 0 -43 0 -37 75 -37 75 -60 0 -60 0 0 95 0 95 1590 0 1590 0 0
-105 0 -105 845 0 845 0 0 105 0 105 420 0 420 0 0 -105 0 -105 855 0 855 0 0
105 0 105 415 0 415 0 0 -105 0 -105 770 0 770 0 0 105 0 105 566 0 565 0 120
-110 120 -110 715 0 716 0 229 -222 c167 -162 229 -228 229 -245 l0 -23 -530
0 -530 0 0 65 0 65 -148 0 -147 0 -44 -70 c-37 -61 -47 -70 -72 -70 l-29 0 0
-165 0 -165 30 0 30 0 0 -150 0 -150 -30 0 -30 0 0 -155 0 -155 30 0 c26 0 36
-9 72 -65 l43 -65 148 0 147 0 0 65 0 65 110 0 110 0 0 -25 c0 -34 62 -65 130
-65 l50 0 0 -49 c0 -46 2 -50 31 -60 47 -16 165 -14 199 4 30 15 30 16 30 105
l0 90 200 0 200 0 0 -30 0 -30 649 0 649 0 87 -100 87 -100 762 0 763 0 87
100 87 100 684 0 684 0 87 -100 87 -100 766 0 766 0 89 100 88 100 703 0 703
0 89 -100 88 -99 751 -1 751 0 87 100 87 100 694 0 694 0 87 -100 87 -100 763
0 763 0 87 100 87 100 664 0 663 0 0 155 0 155 1173 0 1172 0 143 120 144 120
576 0 577 0 140 120 140 120 715 0 715 0 93 80 94 80 359 0 359 0 0 55 0 55
-1582 2 -1581 3 56 45 56 45 1 828 0 827 30 0 30 0 0 65 0 65 -30 0 c-25 0
-30 4 -30 25 0 21 5 25 30 25 l30 0 0 70 0 70 -30 0 c-28 0 -30 3 -30 35 0 32
2 35 30 35 l30 0 0 60 0 60 -30 0 c-27 0 -30 3 -30 30 0 27 3 30 30 30 l30 0
0 65 0 65 -30 0 -30 0 0 165 0 165 200 0 c194 0 202 1 250 25 l49 25 581 0
580 0 0 50 0 50 -829 0 -829 0 -56 158 c-31 86 -56 162 -56 168 0 6 82 32 185
58 l185 46 295 0 295 0 0 45 0 45 -520 0 -520 0 0 125 0 125 33 0 c60 0 67 18
67 181 0 100 -4 149 -12 157 -7 7 -29 12 -50 12 -38 0 -38 0 -38 40 0 40 0 40
38 40 21 0 43 5 50 12 17 17 17 309 0 326 -7 7 -29 12 -50 12 -38 0 -38 0 -38
40 0 40 0 40 38 40 21 0 43 5 50 12 8 8 12 57 12 157 -1 166 -6 181 -64 181
-35 0 -36 1 -36 35 0 34 1 35 38 35 21 0 43 5 50 12 8 8 12 55 12 143 0 148
-7 165 -68 165 l-32 0 0 355 0 355 23 5 c12 3 84 14 160 25 123 18 192 20 628
20 l489 0 0 35 0 35 -650 0 -650 0 0 119 0 119 63 21 c34 11 168 54 298 95
l235 76 181 0 180 0 106 50 106 50 301 0 300 0 0 30 0 30 -924 0 -923 0 -209
85 -208 85 -228 0 -228 0 0 60 0 60 -615 0 -615 0 0 -60 0 -60 -2090 0 -2090
0 0 45 0 45 -695 0 -695 0 0 -45 0 -45 -696 0 -695 0 -33 -25 c-38 -29 -66
-32 -66 -9 0 25 -30 43 -70 44 -42 0 -80 -24 -80 -50 0 -14 -10 -21 -35 -26
-19 -3 -38 -10 -41 -15 -3 -5 -47 -9 -99 -9 l-94 0 -3 37 c-3 35 -6 38 -63 60
-56 22 -73 23 -300 23 -227 0 -244 -1 -300 -23 l-60 -23 -3 -62 -3 -62 -329 0
-330 0 0 80 0 80 -645 0 -645 0 0 50 0 50 -890 0 -890 0 -147 110 -146 110
-337 0 -338 0 -26 35 c-25 32 -31 35 -80 35 -46 0 -56 -4 -86 -35 l-34 -35
-447 0 -447 0 -144 -110 -145 -110 -560 0 -561 0 -155 110 -155 110 -330 0
-330 0 -31 35 c-27 31 -36 35 -79 35 -42 0 -52 -5 -82 -35 l-34 -35 -441 0
-442 0 -154 -110 -154 -110 -566 0 -566 0 -149 110 -149 110 -335 0 -335 1
-25 34 c-24 33 -28 34 -86 35 -59 0 -62 -1 -85 -35 l-24 -35 -445 0 -446 0
-149 -110 -149 -110 -543 0 -542 0 -149 110 -149 110 -324 0 -324 0 -28 35
c-26 32 -32 35 -81 35 -50 0 -56 -3 -80 -35z"/>
</g>
</svg>
