<?xml version="1.0" standalone="no"?>
<!DOCTYPE svg PUBLIC "-//W3C//DTD SVG 20010904//EN"
 "http://www.w3.org/TR/2001/REC-SVG-20010904/DTD/svg10.dtd">
<svg version="1.0" xmlns="http://www.w3.org/2000/svg"
   viewBox="0 0 4491.000000 2673.000000"
 preserveAspectRatio="xMidYMid meet">
<metadata>
Created by potrace 1.16, written by Peter Selinger 2001-2019
</metadata>
<g transform="translate(0.000000,2673.000000) scale(0.100000,-0.100000)"
fill="#000000" stroke="none">
<path d="M18670 25915 l0 -815 -23 0 c-22 0 -25 -9 -50 -123 -15 -67 -27 -128
-27 -135 0 -9 30 -12 110 -12 l110 0 0 135 c0 128 -1 135 -20 135 -20 0 -20 7
-20 815 l0 815 -40 0 -40 0 0 -815z"/>
<path d="M16020 23333 l0 -1486 -26 -34 -25 -33 -910 0 -909 0 0 25 0 25 -800
0 -800 0 0 -25 c0 -25 1 -25 90 -25 50 0 90 -2 90 -5 0 -3 -137 -491 -156
-557 -5 -17 -28 -18 -310 -18 -253 0 -304 -2 -304 -14 0 -33 52 -372 58 -377
4 -4 97 -32 207 -63 110 -32 230 -66 268 -77 l67 -20 0 -49 0 -50 -165 0 -165
0 0 -295 0 -295 -170 0 -170 0 0 -114 0 -113 -77 -7 c-42 -3 -1054 -6 -2250
-6 -1195 0 -2173 -1 -2174 -2 0 -2 -27 -198 -58 -436 -32 -238 -61 -435 -63
-437 -3 -3 -828 -8 -1834 -11 l-1829 -5 -201 -242 c-186 -224 -216 -255 -405
-420 -195 -171 -209 -181 -328 -238 l-125 -60 -1133 3 -1133 3 0 -822 0 -823
-102 -1 c-57 0 -121 -3 -143 -7 l-40 -7 142 -99 143 -99 0 -918 0 -919 403 0
c222 0 580 -3 795 -7 l392 -6 11 -34 c6 -19 9 -36 7 -38 -1 -1 -236 -6 -520
-10 l-518 -8 0 -292 0 -292 347 -6 c190 -4 759 -7 1264 -7 l917 0 849 -196
c466 -107 848 -196 849 -197 0 -1 86 -100 192 -219 l192 -217 -45 -7 c-30 -4
-45 -11 -45 -21 0 -10 6 -13 16 -9 42 16 90 18 103 3 16 -20 41 -11 41 13 0
14 11 21 42 27 23 5 43 14 46 22 3 10 -3 11 -29 5 -56 -13 -84 -11 -82 6 2 9
-66 94 -151 190 -85 96 -154 176 -153 177 3 2 3951 -909 3956 -913 2 -2 0 -15
-3 -29 -5 -19 -11 -25 -22 -21 -9 3 -33 9 -53 12 -38 6 -38 6 -47 -37 -10 -46
-15 -48 -68 -35 -22 5 -25 2 -36 -44 -7 -28 -10 -56 -7 -63 3 -7 131 -88 285
-181 l279 -167 -20 -95 c-11 -52 -17 -97 -14 -101 7 -6 910 -213 914 -209 3 3
63 282 63 291 0 3 42 5 94 5 l94 0 6 35 c4 19 12 35 19 35 7 0 131 -29 276
-65 146 -36 268 -62 271 -58 7 8 40 133 40 151 0 6 -105 36 -234 68 l-233 58
8 29 c5 16 11 32 13 34 3 3 110 -20 239 -51 129 -32 414 -92 633 -135 l399
-77 6 285 c3 157 7 483 8 725 l1 438 68 -6 c37 -4 328 -24 647 -46 319 -22
603 -42 631 -45 l51 -5 12 76 c7 42 11 77 9 78 -1 2 -175 39 -385 82 -210 43
-380 80 -377 83 2 3 219 21 482 40 l477 36 3 33 c3 26 7 32 28 32 l24 0 0
-1010 0 -1010 89 0 c62 0 90 -4 94 -12 127 -316 384 -909 402 -928 25 -26
1419 -3336 1410 -3349 -2 -4 -63 -18 -135 -31 l-130 -23 0 -29 c0 -16 5 -28
13 -28 7 0 71 11 142 25 72 14 133 25 136 25 4 0 16 -23 29 -51 20 -49 23 -51
52 -45 17 3 37 6 45 6 12 0 14 11 8 58 l-7 58 131 25 c123 22 131 25 131 47 0
12 -6 25 -14 28 -8 3 -72 -6 -141 -20 -70 -14 -131 -24 -135 -21 -4 2 -10 21
-13 42 -3 21 -325 800 -716 1731 -665 1587 -711 1699 -720 1775 -8 72 -26 121
-144 402 l-135 320 371 9 372 8 229 -56 c126 -31 243 -56 261 -56 l32 0 5
-131 c3 -71 7 -131 9 -133 2 -1 356 2 786 7 l781 10 119 -22 c65 -12 139 -27
164 -32 l46 -10 7 -602 c3 -331 9 -686 12 -788 l6 -186 -511 -342 -512 -342
22 -30 c21 -29 22 -30 48 -13 14 9 244 164 511 343 l485 325 333 4 332 4 0
-61 0 -61 650 0 c571 0 650 -2 650 -15 0 -12 -14 -15 -62 -15 -35 0 -80 -3
-100 -6 l-38 -7 0 -68 0 -69 1898 0 1897 0 488 -65 487 -64 74 28 74 28 788
-559 c434 -308 795 -562 801 -565 7 -3 83 18 169 45 l157 50 101 -67 101 -68
23 -77 c12 -42 47 -129 78 -193 96 -202 104 -234 104 -405 l0 -148 48 0 47 0
360 -1131 c201 -632 365 -1134 373 -1136 7 -3 99 4 204 15 106 12 194 19 196
17 2 -2 53 -150 112 -328 58 -178 116 -337 128 -353 12 -16 257 -747 570
-1699 l548 -1670 -35 -7 c-20 -4 -61 -7 -91 -8 -30 0 -72 -3 -93 -7 -31 -5
-38 -9 -35 -27 3 -20 8 -21 108 -18 58 1 119 4 136 7 l30 5 65 -204 66 -204
-45 -6 c-25 -3 -66 -6 -91 -6 -25 0 -63 -3 -84 -7 -31 -5 -38 -9 -35 -27 3
-20 8 -21 108 -18 58 1 119 4 136 7 30 5 32 3 44 -40 12 -44 13 -45 56 -45
l43 0 3 48 c3 46 4 47 38 49 212 15 200 13 200 40 l0 25 -135 -7 -135 -7 0 38
c0 22 -24 114 -54 206 l-54 168 53 0 c29 0 80 3 114 6 57 6 61 9 61 32 l0 25
-123 -7 -122 -7 -578 1758 c-519 1582 -577 1765 -577 1823 0 53 -13 105 -69
275 -38 116 -67 211 -66 213 1 2 179 22 394 45 l391 43 20 -53 c11 -30 20 -58
20 -63 0 -5 14 -10 31 -12 l31 -3 319 -930 c175 -511 351 -1023 390 -1137 l71
-206 36 5 c21 3 38 7 40 8 2 2 -182 541 -408 1200 -226 659 -409 1200 -406
1202 6 6 909 104 914 99 2 -3 170 -511 373 -1130 234 -713 369 -1140 369
-1165 0 -22 3 -46 6 -55 13 -33 24 -14 24 38 0 34 5 56 12 58 9 3 12 36 11
119 0 63 -1 187 -1 277 0 188 -16 218 -27 51 -4 -61 -8 -109 -10 -107 -3 4
-627 1910 -629 1922 -1 8 254 38 887 106 l117 12 0 271 0 270 -330 1191 c-326
1177 -331 1194 -379 1476 -43 248 -110 540 -186 803 l-14 49 1699 -8 1700 -7
0 291 0 292 -131 0 c-104 0 -130 3 -126 13 3 7 55 191 116 408 62 216 117 409
122 427 l11 32 559 0 559 0 0 129 0 130 123 -5 c191 -7 801 -23 803 -21 0 1
-95 334 -213 741 -118 406 -212 741 -209 743 4 4 530 -55 657 -74 l36 -5 104
201 104 201 313 0 312 0 0 -195 0 -195 546 0 546 0 205 -126 205 -125 809 -6
809 -6 0 -84 0 -83 635 0 635 0 0 225 0 225 -22 5 c-13 3 -120 28 -238 56
-500 117 -1024 229 -1287 275 l-283 49 0 1347 0 1348 2675 0 2675 0 0 60 0 60
-2675 0 -2675 0 0 35 0 35 1210 0 c800 0 1210 3 1210 10 0 7 580 10 1720 10
l1720 0 0 255 0 255 40 0 40 0 0 45 0 45 -560 0 -560 0 0 30 0 30 -2685 0
-2685 0 0 440 c0 242 -3 440 -6 440 -4 0 -1144 144 -2533 321 -1389 176 -2782
353 -3096 393 l-570 72 -3 102 -3 102 -514 0 -515 0 0 -35 c0 -21 -5 -35 -12
-35 -33 0 -828 106 -1203 160 -361 52 -537 84 -1255 231 -459 94 -841 172
-847 174 -8 3 18 57 72 147 l84 143 43 7 c24 3 96 7 161 7 l117 1 0 1243 c1
1055 3 1245 15 1261 12 16 12 21 -1 41 -12 18 -14 66 -12 270 l3 249 215 178
215 177 223 1 222 0 0 730 0 730 -410 0 c-267 0 -410 -3 -410 -10 0 -7 -268
-10 -783 -10 l-783 0 -149 106 -150 105 -65 -5 c-36 -3 -157 -8 -269 -12
l-203 -7 -113 -93 -113 -94 -1470 0 -1469 0 -6 -317 c-4 -174 -7 -392 -7 -485
l0 -168 -345 0 -345 0 0 -104 0 -104 -317 -350 -318 -351 -1177 -1 -1178 0 0
1399 0 1398 108 23 c201 41 215 45 220 58 3 9 -34 12 -162 12 -141 0 -166 2
-166 15 0 12 -16 15 -85 15 l-85 0 0 60 0 60 -1475 0 -1475 0 0 -1487z"/>
<path d="M28554 23836 c-3 -7 -4 -38 -2 -67 l3 -54 419 -3 c301 -1 423 1 432
9 17 14 19 100 2 117 -19 19 -847 17 -854 -2z"/>
</g>
</svg>
