<?xml version="1.0" standalone="no"?>
<!DOCTYPE svg PUBLIC "-//W3C//DTD SVG 20010904//EN"
 "http://www.w3.org/TR/2001/REC-SVG-20010904/DTD/svg10.dtd">
<svg version="1.0" xmlns="http://www.w3.org/2000/svg"
   viewBox="0 0 3800.000000 1334.000000"
 preserveAspectRatio="xMidYMid meet">
<metadata>
Created by potrace 1.16, written by Peter Selinger 2001-2019
</metadata>
<g transform="translate(0.000000,1334.000000) scale(0.100000,-0.100000)"
fill="#000000" stroke="none">
<path d="M3098 13323 c-11 -13 -25 -112 -52 -363 -29 -278 -36 -383 -36 -542
l0 -198 -90 0 c-49 0 -90 -2 -90 -4 0 -7 -111 -521 -116 -538 -4 -12 -16 -18
-38 -18 -25 0 -42 -11 -84 -53 -29 -30 -52 -62 -52 -74 0 -15 -8 -22 -30 -25
-18 -3 -34 0 -38 7 -4 6 -54 17 -112 24 -187 22 -180 20 -180 53 0 17 26 81
61 149 40 76 59 124 55 135 -5 13 8 32 44 69 l50 50 -8 68 c-5 37 -11 69 -14
73 -8 7 -145 -85 -172 -114 -18 -21 -19 -21 -196 143 -138 128 -180 162 -189
152 -8 -10 3 -26 45 -68 31 -30 105 -107 166 -172 l111 -118 -75 -77 c-69 -71
-175 -218 -164 -229 2 -2 35 -8 73 -11 l68 -7 3 -77 c3 -78 3 -78 -23 -78 -25
0 -25 -1 -25 -80 l0 -80 93 0 93 0 32 -65 32 -65 359 0 358 0 -5 -26 c-3 -20
0 -26 17 -31 20 -5 21 -11 21 -154 l0 -149 -378 0 -379 0 -21 -23 c-16 -17
-22 -36 -22 -70 0 -43 -2 -47 -24 -47 -18 0 -25 -6 -28 -22 -3 -20 -10 -24
-63 -28 -49 -5 -79 -16 -164 -64 -80 -46 -115 -60 -155 -63 -28 -2 -70 -14
-93 -26 l-43 -22 0 -82 0 -82 82 -50 82 -51 203 0 c196 0 203 -1 203 -20 0
-20 -7 -20 -315 -20 l-315 0 0 278 c0 355 24 322 -236 322 -258 0 -234 33
-234 -323 l0 -277 -45 0 -45 0 0 -45 0 -45 45 0 45 0 0 -124 c0 -73 4 -127 10
-131 6 -4 10 -93 10 -234 l0 -227 28 -27 28 -27 166 0 167 0 20 26 c20 25 21
39 21 255 0 141 4 230 10 234 6 4 10 58 10 131 l0 124 315 0 c308 0 315 0 315
-20 0 -18 -7 -20 -84 -20 l-83 0 -199 -109 -199 -109 -3 -84 -3 -84 78 -47 78
-47 208 0 207 0 0 -310 0 -310 -476 -2 -475 -3 -61 -137 -61 -138 -274 0
c-209 0 -273 -3 -273 -12 0 -7 17 -54 37 -105 l36 -93 66 0 65 0 -32 -33 -32
-33 0 -157 0 -157 -128 0 c-121 0 -130 -1 -150 -23 -20 -21 -22 -34 -22 -125
l0 -102 -188 0 c-170 0 -191 -2 -205 -18 -15 -17 -17 -59 -17 -403 l0 -385 55
-54 55 -54 0 -226 c0 -208 -2 -227 -20 -255 -16 -24 -20 -47 -20 -122 l0 -93
703 0 702 0 54 -76 c50 -72 60 -97 195 -500 140 -421 141 -424 179 -449 l37
-26 0 -447 c0 -280 4 -452 10 -458 6 -6 11 -111 12 -253 l3 -244 245 -63 c244
-63 245 -63 388 -64 l142 0 0 -48 c0 -45 3 -51 63 -110 l63 -62 153 0 153 0
83 75 82 75 367 0 366 0 0 -1775 0 -1775 315 0 315 0 0 395 0 395 90 0 90 0 0
1317 0 1317 -67 62 -68 63 189 1 189 0 -67 -61 -66 -61 0 -1319 0 -1319 85 0
85 0 0 -395 0 -395 320 0 320 0 0 1700 0 1700 170 0 170 0 0 -245 0 -245 1265
0 1265 0 0 -195 0 -195 370 0 370 0 0 -235 0 -235 570 0 570 0 0 420 0 420
335 0 335 0 0 -135 0 -135 30 0 30 0 0 135 0 135 165 0 165 0 0 -135 0 -135
35 0 35 0 0 135 0 135 1165 0 1165 0 0 -135 0 -135 30 0 30 0 0 135 0 135 150
0 150 0 0 -135 0 -135 30 0 30 0 0 135 0 135 596 0 596 0 136 95 136 95 217 0
216 0 6 -187 c4 -104 7 -335 7 -515 l0 -328 620 0 620 0 0 420 0 420 225 0
225 0 0 -135 0 -135 30 0 30 0 0 135 0 135 165 0 165 0 0 -135 0 -135 35 0 35
0 0 135 0 135 499 0 499 0 283 -285 283 -285 1523 0 1523 0 0 -435 0 -435 183
0 184 0 13 40 13 40 714 0 713 0 16 -40 16 -40 269 0 269 0 0 440 0 440 709 0
708 0 303 -315 302 -315 48 0 c44 0 52 -4 79 -37 23 -27 31 -48 31 -76 0 -33
12 -52 88 -146 48 -60 97 -112 110 -115 21 -6 22 -10 22 -127 l0 -121 42 -52
c23 -28 43 -53 44 -55 2 -1 37 -13 80 -25 l77 -23 76 22 c71 21 79 26 123 81
l48 59 0 118 c0 110 2 119 20 124 10 3 58 53 105 111 72 89 85 111 85 142 0
26 9 49 32 78 l32 42 81 0 81 0 24 65 24 65 215 -2 215 -3 25 -63 24 -62 98 0
98 0 30 -37 c22 -27 31 -48 31 -75 0 -31 13 -52 90 -147 49 -60 99 -112 110
-116 19 -6 20 -15 20 -128 l0 -122 53 -57 c46 -51 60 -59 122 -76 l70 -19 74
22 c68 20 79 27 123 79 l48 58 0 118 c0 109 2 119 20 125 10 3 60 56 110 118
76 94 90 117 90 148 0 24 9 48 28 72 l27 36 83 1 82 0 0 -283 c0 -283 0 -284
23 -305 23 -22 24 -22 495 -22 l472 0 54 35 c30 19 58 35 61 35 3 0 5 -83 5
-185 l0 -185 270 0 270 0 0 -60 0 -60 789 0 789 0 98 -120 98 -120 67 0 68 0
12 -35 13 -35 92 0 92 0 12 35 12 35 129 0 130 0 15 -35 14 -35 90 0 90 0 14
35 15 35 128 0 129 0 13 -35 12 -35 93 0 93 0 9 33 10 32 127 3 128 3 15 -36
14 -35 90 0 90 0 14 35 15 35 150 0 151 0 0 240 0 240 -549 0 -549 0 -22 55
-22 55 -744 0 -744 0 0 45 0 45 1133 0 1132 0 61 183 60 182 152 3 152 3 0 54
0 55 -165 0 -165 0 0 95 0 95 -85 0 -85 0 0 100 0 100 38 0 c34 0 104 17 309
75 l52 15 3 71 3 71 180 67 180 67 3 57 3 57 69 0 70 0 0 -50 0 -50 486 0 486
0 119 32 119 33 0 241 0 241 -119 31 -118 32 -487 0 -486 0 0 -50 0 -50 -70 0
-69 0 -3 57 -3 57 -115 43 c-63 24 -145 55 -182 69 l-68 26 0 68 c0 68 0 68
-32 79 -123 38 -294 81 -328 81 -36 0 -40 2 -40 25 0 23 -4 25 -40 25 -36 0
-40 -2 -40 -25 l0 -25 -155 0 -155 0 0 60 0 60 185 0 185 0 0 55 0 55 -139 0
-140 0 -21 30 c-17 23 -29 30 -56 30 l-34 0 0 1815 0 1815 95 0 95 0 0 40 c0
39 1 40 35 40 l35 0 0 -93 0 -93 43 -39 42 -40 701 5 701 5 95 88 95 87 215 0
215 0 11 25 c11 24 11 25 -28 25 l-40 0 0 75 0 75 40 0 c29 0 40 4 40 15 0 11
-11 15 -40 15 l-40 0 0 70 0 70 40 0 c45 0 44 -1 28 35 l-11 25 -214 0 -214 0
-100 90 -100 89 -692 3 c-582 3 -695 1 -710 -11 -16 -13 -17 -9 -17 67 l0 82
120 0 c100 0 120 3 120 15 0 13 -21 15 -125 15 l-125 0 -27 55 -27 55 -1696 0
-1695 0 -23 -40 -23 -40 -269 0 -270 0 0 -40 0 -40 -205 0 -205 0 0 90 0 90
154 0 154 0 17 63 c9 34 31 121 49 192 l32 130 112 3 112 3 0 33 c0 39 -12 46
-75 46 l-44 0 -16 55 -16 55 -339 0 -340 0 0 65 0 65 100 0 100 0 0 93 c0 146
25 137 -374 137 -313 0 -329 -1 -369 -21 -23 -12 -44 -23 -46 -25 -2 -1 -11
-43 -20 -91 l-16 -88 -55 -3 c-78 -5 -115 -35 -130 -107 -9 -43 -16 -55 -30
-55 -10 0 -25 -3 -34 -6 -15 -6 -16 105 -18 1202 -1 753 -4 1098 -8 914 -4
-162 -8 -706 -9 -1207 l-1 -913 -22 -4 c-13 -3 -32 -7 -43 -8 -13 -2 -21 -12
-23 -31 -3 -26 -5 -27 -62 -27 -60 0 -90 -7 -90 -20 0 -4 54 -13 121 -20 l121
-13 -6 -96 c-3 -53 -8 -131 -12 -173 -6 -76 -7 -78 -33 -78 -21 -1 -48 -26
-135 -125 l-110 -125 -197 0 -198 0 -7 -45 -6 -45 -907 0 -906 1 -357 -68
-358 -67 0 -118 0 -118 -320 0 -320 0 0 -280 0 -280 -435 0 -435 0 0 594 0
593 -222 97 -223 96 -2750 0 -2750 0 -127 85 -128 85 -3610 0 -3610 0 -152
-95 -152 -95 -133 0 c-82 0 -133 4 -133 10 0 7 -165 10 -475 10 l-474 0 -64
60 -65 60 -141 0 -141 0 0 45 0 45 -173 0 c-153 0 -176 2 -190 18 -8 9 -30 68
-48 130 l-32 114 -111 55 -111 56 -217 -6 -218 -6 0 194 0 195 908 2 907 3 0
145 0 145 -907 3 -908 2 0 80 0 80 908 2 907 3 0 140 0 140 -907 3 -908 2 0
80 0 80 -475 0 -475 0 0 -90 0 -90 -76 0 c-65 0 -80 -3 -108 -25 -30 -23 -41
-25 -139 -25 l-107 0 0 695 0 695 285 0 c183 0 285 -4 285 -10 0 -7 248 -10
725 -10 l725 0 0 30 0 30 85 0 c84 0 85 0 85 25 l0 25 121 0 120 0 26 30 25
30 399 0 399 0 0 180 0 180 -400 0 -399 0 -23 30 -22 30 -123 0 -123 0 0 25 0
25 -2750 0 -2750 0 0 -25 c0 -24 -3 -25 -55 -25 -52 0 -55 1 -55 25 l0 25
-330 0 -330 0 0 293 c-1 267 -4 323 -39 649 -24 224 -43 363 -51 373 -10 12
-42 15 -195 15 -161 0 -184 -2 -197 -17z m3182 -1938 c0 -3 -28 -46 -62 -95
l-63 -90 -1207 0 -1208 0 -30 60 c-16 33 -30 71 -30 85 l0 25 668 0 c413 0
673 4 682 10 16 10 1250 15 1250 5z m930 -690 l0 -695 -897 0 -898 0 -180 35
c-173 34 -189 35 -407 35 l-228 0 -6 28 c-3 15 -7 33 -10 40 -3 9 -106 12
-474 12 l-470 0 0 25 0 25 453 0 452 0 83 51 82 51 0 64 0 64 96 0 95 0 -3 36
c-3 35 -4 36 -258 183 -266 154 -261 150 -347 274 l-33 47 -119 0 -120 0 -60
-87 c-44 -64 -61 -96 -61 -120 l0 -33 128 0 c111 0 130 -3 152 -20 25 -20 24
-20 -307 -20 l-333 0 0 154 0 155 88 6 c48 4 740 9 1537 11 l1450 5 26 37 c14
20 72 103 128 185 l102 147 169 0 170 0 0 -695z m-4077 391 l57 -17 0 -119 0
-120 -65 0 -65 0 0 141 c0 77 3 138 8 136 4 -3 33 -12 65 -21z m4077 -1391 l0
-155 -894 0 c-759 0 -906 2 -966 15 -65 14 -86 25 -217 118 l-146 102 64 7
c35 4 127 21 204 37 l140 29 908 1 907 1 0 -155z m696 130 c28 -22 43 -25 108
-25 l76 0 0 -105 0 -105 -77 0 c-66 0 -81 -3 -109 -25 -30 -23 -41 -25 -138
-25 l-106 0 0 155 0 155 107 0 c98 0 109 -2 139 -25z m-698 -472 l-3 -37 -292
-140 -293 -140 0 -53 0 -53 -214 0 -214 0 -99 190 -98 190 -175 0 -175 1 -55
39 -55 40 838 0 838 0 -3 -37z m695 17 c20 -16 40 -20 106 -20 l81 0 0 -210 0
-210 -175 0 -175 0 0 159 0 159 -40 32 c-34 27 -40 37 -40 71 l0 39 109 0 c93
0 112 -3 134 -20z m-6805 -758 c-1 -5 -23 -36 -48 -70 l-45 -61 -97 -1 -98 0
0 70 0 70 146 0 c80 0 144 -4 142 -8z m29189 -44 c-3 -13 -9 -45 -13 -73 -7
-47 -8 -48 -15 -20 -4 17 -7 49 -8 73 -1 36 2 42 20 42 17 0 20 -5 16 -22z
m149 -245 c-3 -21 -6 -46 -6 -55 0 -16 -11 -18 -80 -18 l-80 0 0 55 0 55 86 0
87 0 -7 -37z m-12228 -239 c-124 -75 -234 -134 -243 -132 -19 3 430 267 455
268 8 0 -87 -61 -212 -136z m17505 11 c9 -20 17 -38 17 -40 0 -3 -673 -5
-1495 -5 -1322 0 -1495 2 -1495 15 0 12 -14 15 -70 15 l-70 0 16 25 16 25
1532 0 1532 0 17 -35z m17 -275 l0 -200 -35 0 c-34 0 -35 1 -35 40 l0 40
-1042 0 -1043 0 -60 95 -60 95 -160 0 -161 0 -34 35 -34 35 70 0 c38 1 130 14
204 29 l135 29 1128 1 1127 1 0 -200z m-18252 23 c-186 -2 -490 -2 -675 0
-186 1 -34 2 337 2 371 0 523 -1 338 -2z m19805 -118 c87 -76 102 -85 138 -85
l39 0 0 -70 0 -70 -160 0 -160 0 0 97 0 97 -42 43 -42 43 -475 0 -475 0 -43
-42 c-36 -35 -43 -49 -43 -80 0 -35 -2 -38 -29 -38 l-30 0 -3 95 -3 95 615 0
615 0 98 -85z m467 -155 l0 -70 -125 0 -125 0 0 70 0 70 125 0 125 0 0 -70z
m-2020 -85 c0 -10 -11 -15 -35 -15 -24 0 -35 5 -35 15 0 10 11 15 35 15 24 0
35 -5 35 -15z m1730 -90 l0 -75 -44 0 c-41 0 -52 -6 -138 -80 l-93 -80 -615 0
-615 0 3 95 3 95 30 0 c27 0 29 -3 29 -37 0 -29 8 -45 37 -75 l37 -38 485 0
485 0 38 37 38 37 0 98 0 98 160 0 160 0 0 -75z m290 0 l0 -75 -125 0 -125 0
0 75 0 75 125 0 125 0 0 -75z m-3180 -1940 l0 -1815 -50 0 c-43 0 -52 -4 -72
-30 -18 -25 -29 -30 -65 -30 -41 0 -44 2 -105 79 l-63 80 -372 0 -373 1 0 269
0 270 -60 46 -60 46 0 837 0 837 -97 97 -98 98 -82 0 -83 0 0 118 -1 117 -124
130 -125 130 0 113 0 112 138 0 138 0 59 60 59 60 161 0 160 0 60 95 60 95
497 0 498 0 0 -1815z m750 0 l0 -1815 -305 0 -305 0 0 1815 0 1815 305 0 305
0 0 -1815z m-6810 1640 l0 -65 -95 0 c-95 0 -95 0 -95 25 0 24 -2 25 -75 25
l-75 0 0 40 0 40 170 0 170 0 0 -65z m1860 -15 l0 -80 -210 0 -210 0 0 40 0
40 -130 0 -130 0 0 -40 0 -40 -122 0 c-84 0 -146 5 -195 17 l-73 18 0 63 0 62
535 0 535 0 0 -80z m-683 -146 c-3 -3 -12 -4 -19 -1 -8 3 -5 6 6 6 11 1 17 -2
13 -5z m683 -106 l0 -113 77 -77 78 -78 -241 0 -241 0 -47 75 -46 76 0 114 0
115 210 0 210 0 0 -112z m-630 -818 c0 -5 -11 -10 -25 -10 -21 0 -25 -5 -25
-30 l0 -30 -280 0 -280 0 0 30 0 30 -130 0 -130 0 0 -30 0 -30 -275 0 -275 0
0 30 0 30 -130 0 -130 0 0 -30 0 -30 -75 0 -75 0 0 40 0 40 915 0 c603 0 915
-3 915 -10z m3439 -117 l49 -48 5 -1052 5 -1053 -26 0 c-20 0 -50 23 -124 97
l-98 98 0 1002 0 1003 69 0 c69 0 70 0 120 -47z m-5119 -143 l0 -130 130 0
130 0 0 130 0 130 275 0 275 0 0 -130 0 -130 130 0 130 0 0 130 0 130 280 0
280 0 0 -130 0 -130 25 0 c23 0 25 -3 25 -48 l0 -49 -707 -6 c-388 -4 -823 -7
-965 -7 l-258 0 0 107 0 108 53 77 52 77 73 1 72 0 0 -130z m-19390 -856 c0
-147 -3 -223 -10 -219 -6 4 -10 90 -10 226 0 139 4 219 10 219 6 0 10 -82 10
-226z m22450 -1304 l0 -140 -685 0 -685 0 0 105 0 105 233 0 233 0 99 34 100
34 353 1 352 1 0 -140z m3420 -180 l0 -60 -417 0 -418 -1 -37 -34 -38 -35 0
-95 0 -95 -305 0 -305 0 0 190 0 190 760 0 760 0 0 -60z m760 0 l0 -60 -210 0
-210 0 0 25 c0 22 -4 25 -35 25 -31 0 -35 -3 -35 -25 0 -22 -4 -25 -35 -25
l-35 0 0 60 0 60 280 0 280 0 0 -60z m-1670 -1262 l0 -92 37 -38 37 -38 553 0
553 0 0 -100 0 -100 -425 0 -425 0 0 -95 0 -95 -950 0 -950 0 0 130 0 130 480
0 480 0 0 195 0 195 305 0 305 0 0 -92z m2170 -268 l0 -100 -460 0 -460 0 0
100 0 100 460 0 460 0 0 -100z"/>
</g>
</svg>
