<?xml version="1.0" standalone="no"?>
<!DOCTYPE svg PUBLIC "-//W3C//DTD SVG 20010904//EN"
 "http://www.w3.org/TR/2001/REC-SVG-20010904/DTD/svg10.dtd">
<svg version="1.0" xmlns="http://www.w3.org/2000/svg"
   viewBox="0 0 4000.000000 3112.000000"
 preserveAspectRatio="xMidYMid meet">
<metadata>
Created by potrace 1.16, written by Peter Selinger 2001-2019
</metadata>
<g transform="translate(0.000000,3112.000000) scale(0.100000,-0.100000)"
fill="#000000" stroke="none">
<path d="M4525 31110 c-132 -4 -294 -8 -361 -9 l-120 -1 -116 -267 -115 -268
-144 -3 -144 -3 -55 56 -54 55 -511 0 -511 0 -135 -197 c-114 -167 -139 -198
-162 -201 l-27 -3 0 128 0 128 -275 158 -275 159 -347 -6 c-192 -4 -372 -9
-401 -12 l-52 -5 0 -273 0 -273 -157 -6 c-87 -4 -249 -7 -360 -7 l-202 0 4
-87 c3 -49 7 -221 9 -383 5 -258 10 -330 40 -571 l34 -276 115 -149 c100 -130
120 -151 158 -165 24 -9 207 -83 407 -164 l362 -148 0 -176 0 -177 -360 -174
-360 -175 0 -226 c0 -124 3 -254 6 -287 l7 -61 368 -212 369 -211 0 -93 c0
-51 2 -99 5 -107 4 -9 -108 -78 -360 -223 -269 -155 -365 -214 -365 -228 0
-10 74 -410 164 -890 91 -480 178 -943 194 -1030 17 -88 34 -162 38 -166 28
-25 1150 -1056 1299 -1194 l180 -167 109 0 108 0 -3 -162 -4 -163 910 -345
c501 -190 920 -349 932 -355 12 -5 85 -64 163 -130 78 -66 147 -120 153 -120
7 0 343 -272 749 -604 726 -596 736 -605 721 -627 -17 -27 -35 -7 182 -193
l130 -110 517 -1 517 0 10 -37 c6 -21 30 -124 54 -230 l44 -191 -31 -6 c-17
-2 -75 -8 -128 -12 -54 -3 -98 -9 -98 -13 0 -3 97 -287 215 -630 118 -344 215
-626 215 -627 0 -5 107 -24 152 -26 l47 -3 46 -93 45 -94 -220 7 c-121 4 -220
5 -220 2 0 -4 9 -45 20 -93 16 -66 18 -90 9 -100 -9 -12 -98 -14 -504 -14
-270 0 -553 -3 -628 -7 l-137 -6 0 -44 0 -43 -197 0 c-109 0 -342 -3 -518 -6
l-320 -6 -68 127 c-38 70 -67 129 -64 131 2 2 89 10 193 18 177 13 202 17 392
70 111 31 205 56 207 56 3 0 5 6 5 14 0 17 -9 20 -250 85 l-185 49 -275 6
c-267 5 -281 5 -475 -24 -163 -23 -410 -43 -1330 -102 -621 -40 -1112 -74
-1090 -75 22 -2 524 -12 1115 -23 944 -17 1099 -22 1275 -41 110 -12 205 -27
211 -33 9 -8 64 -225 64 -251 0 -3 -82 -5 -182 -5 -101 0 -213 -3 -250 -7 -61
-5 -68 -8 -68 -28 0 -22 -7 -23 -360 -61 -198 -21 -360 -41 -360 -44 0 -3 141
-18 313 -34 171 -15 336 -31 365 -34 49 -5 52 -6 52 -34 l0 -28 178 5 c97 3
501 7 898 10 l721 5 7 -61 c3 -34 6 -173 6 -309 l0 -248 -22 -6 c-13 -3 -47
-6 -75 -6 l-53 0 0 -192 0 -193 -157 155 c-87 85 -199 195 -249 244 l-92 89
-281 -74 -282 -73 6 -90 c3 -50 7 -183 8 -296 l2 -205 -300 -17 c-165 -10
-324 -20 -352 -23 l-53 -6 0 -145 0 -144 -27 0 c-50 0 -2036 -110 -2090 -116
-43 -4 -53 -9 -53 -24 0 -25 -44 -22 1165 -80 572 -28 1084 -55 1139 -60 54
-6 109 -10 123 -10 l25 0 -7 135 c-6 107 -5 135 5 135 7 0 104 -7 214 -15 175
-14 269 -28 733 -117 l533 -102 2 -200 3 -201 75 -3 c41 -2 184 -1 318 3 l242
7 0 83 c0 93 1 95 88 95 41 0 42 1 42 35 l0 35 100 0 100 0 0 -34 c0 -19 4
-37 8 -40 4 -3 43 -2 85 1 l77 6 0 33 0 34 95 0 95 0 0 -41 0 -42 46 7 c26 3
64 6 85 6 38 0 39 1 39 35 l0 35 100 0 100 0 0 -41 0 -42 46 7 c26 3 62 6 80
6 32 0 34 2 34 35 l0 35 209 0 209 0 9 -37 9 -38 62 3 c60 3 61 3 68 -25 3
-15 10 -44 14 -63 4 -19 11 -47 14 -62 l6 -28 283 0 282 0 240 -911 c132 -501
243 -915 246 -921 5 -7 100 -10 282 -9 l276 2 12 -41 c11 -37 15 -40 48 -40
59 0 354 20 359 24 3 4 -326 1277 -332 1283 -1 1 -33 -7 -70 -18 -48 -14 -71
-17 -75 -10 -9 14 -163 652 -159 656 2 2 121 7 266 11 144 4 262 8 262 9 0 1
-90 429 -199 951 -167 794 -208 1009 -255 1319 -47 318 -76 600 -76 750 0 20
6 23 71 28 39 3 73 8 76 10 2 3 -5 286 -17 630 -11 344 -20 632 -20 641 0 14
-15 16 -94 16 l-94 0 -6 138 c-3 75 -8 167 -10 203 l-5 66 97 -18 c53 -10 107
-21 119 -24 35 -8 133 -310 1153 -3550 540 -1715 544 -1727 1356 -4105 l814
-2385 193 -430 194 -430 483 -412 484 -413 371 0 c205 0 454 -3 553 -7 l182
-6 0 -61 0 -61 -510 -445 -510 -445 0 -60 c1 -85 19 -417 23 -422 3 -2 35 -9
73 -16 l69 -13 6 -120 c4 -65 7 -217 8 -336 1 -212 0 -218 -19 -218 -19 0 -20
-7 -20 -119 0 -65 -3 -133 -6 -150 -6 -28 -4 -31 19 -31 25 0 25 -2 31 -92 3
-51 8 -374 11 -718 3 -344 8 -700 12 -793 l6 -167 -76 0 -77 0 0 -74 c0 -41
-3 -81 -6 -90 -5 -14 5 -16 75 -16 l81 0 0 -112 0 -111 -194 7 -193 7 -7 -47
c-3 -26 -6 -96 -6 -155 l0 -109 203 0 204 0 7 -463 c3 -254 9 -698 12 -987 l5
-525 353 -400 c194 -220 391 -443 437 -496 l84 -97 635 -7 c628 -8 2791 2
3110 14 l165 6 42 385 c50 459 49 440 23 440 -16 0 -19 5 -15 28 6 34 155
1461 155 1485 0 16 179 17 3625 17 l3625 0 62 -24 c61 -22 78 -24 430 -31
l366 -7 -5 48 c-2 27 -6 54 -8 60 -2 6 -95 64 -207 130 l-203 119 -3822 3
-3823 3 0 32 c0 18 7 91 15 162 8 72 15 133 15 138 0 4 241 7 535 7 l535 0 0
90 0 90 -525 0 c-289 0 -525 2 -525 4 0 30 189 1774 195 1804 5 22 8 22 155
22 147 0 150 0 155 23 6 28 45 282 45 296 0 8 311 11 1045 11 l1045 0 68 -31
67 -31 365 -5 365 -6 -5 68 -5 69 -155 113 c-85 62 -179 129 -207 149 l-53 36
-1231 8 c-677 5 -1232 10 -1234 12 -2 2 13 114 34 250 l37 246 -35 6 c-20 3
-93 6 -163 6 -127 0 -128 0 -128 23 0 25 66 606 76 670 l6 37 169 0 169 0 0
150 0 149 -152 3 -153 3 14 127 c10 94 18 128 28 128 10 0 13 26 13 121 0 108
7 158 71 487 l70 367 19 449 c11 247 20 449 22 450 2 1 287 -1 633 -4 l630 -7
865 159 c476 87 872 161 881 164 9 2 97 146 195 319 l179 314 1058 1 1057 0 0
-24 c0 -13 18 -64 39 -112 l40 -89 200 -5 199 -5 41 -52 42 -52 209 -3 c114
-2 211 -6 214 -9 4 -3 12 -180 18 -393 l12 -386 142 0 142 0 4 48 c3 43 22 74
243 388 226 320 244 344 313 395 l73 54 452 -3 c249 -2 459 -5 467 -7 11 -3
25 21 52 88 32 82 37 106 43 212 l6 120 -54 27 c-48 23 -57 25 -67 12 -16 -19
-27 -18 -144 8 -89 20 -101 26 -115 52 -14 24 -113 77 -628 332 l-613 303
-102 -6 -103 -5 -40 41 c-39 41 -40 41 -111 41 -61 0 -74 3 -78 18 -4 10 -40
33 -88 54 -46 20 -160 71 -255 113 l-171 78 -96 -8 -96 -7 0 -124 0 -124 -369
0 -369 0 -11 -45 -11 -45 -521 0 -521 0 14 23 c44 66 751 1312 751 1321 0 11
-643 1263 -710 1384 -20 35 -32 67 -27 71 5 4 428 108 939 230 512 123 933
225 938 228 4 2 265 365 579 806 315 441 988 1385 1496 2097 l924 1295 18
1305 c10 718 21 1602 24 1965 4 363 9 726 12 808 5 128 4 147 -9 147 -9 0 -18
4 -21 9 -3 5 149 133 338 285 l343 276 924 0 924 1 90 164 90 165 312 0 311 0
12 73 c7 39 15 90 19 112 l7 40 426 3 427 2 118 -172 118 -173 418 -3 417 -2
142 54 c79 30 162 62 186 71 l42 17 0 193 0 193 48 6 c26 4 799 76 1717 161
919 85 1689 157 1713 160 l42 6 0 58 0 58 332 6 c182 4 403 7 490 7 l158 0 0
105 0 105 -490 0 -490 0 0 74 0 75 -52 5 c-48 6 -3433 256 -3458 256 -6 0 -10
30 -10 78 l0 78 -172 72 -173 71 -3 326 -2 326 72 -6 c106 -8 1679 -95 1727
-95 l41 0 0 65 c0 73 10 80 58 45 25 -19 114 -25 1347 -100 726 -44 1326 -79
1334 -78 8 2 -583 63 -1315 136 -1051 106 -1335 131 -1357 123 -62 -24 -67
-19 -67 68 l0 79 -62 6 c-35 4 -425 29 -868 56 -443 28 -829 53 -857 56 l-53
5 0 75 0 74 -460 0 -460 0 0 -45 c0 -25 -3 -45 -7 -46 -5 0 -2085 129 -4624
288 l-4616 288 -6 117 c-5 90 -2 152 13 265 11 81 20 149 20 150 0 1 25 6 55
12 181 36 162 27 201 89 l36 56 -53 281 -54 280 -114 58 -113 59 -1082 9
-1081 9 -297 -70 c-164 -38 -300 -70 -303 -70 -3 0 -4 -98 -3 -217 l3 -216 55
-13 c30 -6 164 -35 298 -64 l242 -53 0 -73 0 -74 -29 0 c-21 0 -101 -46 -274
-157 -203 -131 -246 -163 -251 -185 l-5 -27 -48 14 c-26 8 -988 277 -2138 599
-1149 322 -2297 645 -2550 719 l-460 133 -7 260 c-4 142 -11 364 -14 492 l-6
232 -219 0 -219 0 0 210 0 210 -1105 0 -1104 0 -5 33 c-3 17 -7 48 -8 67 l-3
35 -300 41 -300 41 -2245 12 c-1235 6 -2613 14 -3062 18 l-818 6 0 -131 0
-132 -60 0 -60 0 -70 88 -71 89 -121 6 c-67 4 -167 7 -222 7 -56 0 -138 3
-183 6 l-82 7 -147 307 -147 307 -246 6 c-404 11 -1438 15 -1696 7z m25130
-4540 c2503 -143 4556 -260 4563 -260 9 0 12 -83 11 -382 l0 -383 -73 -130
-73 -130 -456 -3 -457 -2 0 230 0 230 -314 0 -314 0 -74 185 -73 185 -90 0
c-49 0 -1050 -11 -2224 -25 l-2134 -24 -1466 320 c-806 176 -1474 322 -1483
325 -15 4 -18 17 -18 70 l0 65 63 -6 c34 -3 2110 -123 4612 -265z m-15477
-9745 c314 -601 482 -939 947 -1912 l566 -1182 110 -1998 c60 -1099 108 -2016
107 -2038 l-3 -40 -43 1 c-23 0 -44 3 -47 5 -12 12 -1321 4914 -1449 5425
-116 463 -576 2436 -576 2469 0 5 2 6 4 4 2 -2 175 -332 384 -734z m-6385 183
c9 -51 15 -100 15 -108 -1 -8 9 -45 21 -82 27 -80 -4 -74 285 -53 110 8 201
14 202 12 3 -4 74 -332 74 -344 0 -9 -16 -13 -45 -13 l-45 0 0 -45 0 -45 -90
0 -90 0 0 45 0 45 -85 0 -85 0 0 -45 0 -45 -100 0 -100 0 0 45 0 45 -85 0 -85
0 0 -45 0 -45 -95 0 -95 0 0 45 0 45 -80 0 -80 0 0 -45 0 -45 -100 0 -100 0 0
45 0 45 -80 0 -79 0 -3 83 -3 82 -72 -1 -73 -2 0 259 0 259 528 0 528 0 17
-92z"/>
</g>
</svg>
