<?xml version="1.0" standalone="no"?>
<!DOCTYPE svg PUBLIC "-//W3C//DTD SVG 20010904//EN"
 "http://www.w3.org/TR/2001/REC-SVG-20010904/DTD/svg10.dtd">
<svg version="1.0" xmlns="http://www.w3.org/2000/svg"
   viewBox="0 0 4559.000000 1107.000000"
 preserveAspectRatio="xMidYMid meet">
<metadata>
Created by potrace 1.16, written by Peter Selinger 2001-2019
</metadata>
<g transform="translate(0.000000,1107.000000) scale(0.100000,-0.100000)"
fill="#000000" stroke="none">
<path d="M13070 11000 l0 -70 -125 0 -125 0 0 -50 0 -50 -163 0 -163 0 -57
-154 c-51 -137 -57 -162 -57 -230 l0 -76 -1307 2 -1307 3 -11 45 -11 45 -1457
3 -1457 2 0 -220 0 -220 -85 0 -85 0 0 -85 0 -85 -1155 0 c-763 0 -1155 -3
-1155 -10 0 -6 -83 -10 -230 -10 l-230 0 0 -70 0 -70 -150 0 c-143 0 -150 -1
-150 -20 0 -19 -7 -20 -250 -20 l-250 0 0 -40 c0 -37 -2 -39 -32 -44 -18 -3
-706 -23 -1528 -46 -822 -23 -1503 -45 -1513 -49 -10 -3 622 -33 1405 -65 783
-32 1478 -60 1546 -63 l122 -6 0 -39 c0 -21 3 -38 6 -38 11 0 430 -50 462 -56
l32 -5 0 -94 0 -95 45 0 45 0 0 -50 0 -50 105 0 105 0 0 -60 c0 -33 -1 -60 -2
-61 -2 0 -615 -24 -1363 -52 l-1360 -52 1340 -48 c737 -27 1350 -50 1362 -53
l23 -4 0 -675 0 -675 63 0 c160 1 1286 -22 1315 -26 l32 -5 0 -168 0 -168 133
-23 c194 -32 177 -25 177 -76 l0 -45 88 5 c48 3 171 8 275 11 l187 6 0 -26 0
-25 -180 0 -180 0 0 -975 0 -975 304 0 304 0 1177 735 c648 405 1180 733 1184
730 3 -3 74 -148 157 -323 92 -192 159 -318 168 -320 14 -3 16 -71 16 -643 l0
-639 23 -4 c12 -3 157 -21 322 -41 166 -21 303 -42 307 -48 3 -6 12 -48 19
-94 l12 -83 452 0 452 0 24 -37 c23 -34 32 -38 174 -80 l150 -45 60 17 c33 9
104 30 158 46 90 28 99 33 114 65 l17 34 680 -2 680 -3 26 -44 26 -45 144 -43
c80 -23 154 -43 165 -42 11 0 85 19 164 43 l144 43 26 47 26 46 243 0 242 0 0
125 0 125 680 0 680 0 0 260 0 260 259 0 259 0 7 64 c4 34 10 68 14 75 5 8
115 11 417 9 l409 -3 9 -97 9 -98 879 0 878 0 10 25 10 25 168 0 169 0 6 -112
c4 -62 7 -137 7 -165 l0 -53 150 0 150 0 0 -60 0 -60 330 0 330 0 0 -358 0
-358 388 -102 387 -103 590 1 591 0 59 -430 59 -430 1279 -2 1278 -3 480 -980
c265 -539 486 -985 492 -992 7 -6 25 -13 41 -15 l30 -3 192 995 c106 547 193
996 194 998 0 1 38 1 86 0 l85 -3 509 -1079 c280 -593 511 -1080 514 -1083 2
-3 19 -6 37 -6 l33 -2 202 1085 c112 597 203 1086 203 1088 1 2 8 2 17 0 11
-2 63 -108 150 -303 l133 -300 -88 -3 -87 -3 -21 -87 -22 -87 30 -30 29 -31 0
-222 0 -222 58 0 57 0 60 -75 60 -75 85 0 c47 0 114 -3 150 -6 l65 -7 240
-543 240 -543 36 -9 36 -9 62 356 c35 196 63 357 64 358 1 1 304 -18 672 -43
668 -44 672 -44 1253 -44 l582 0 0 105 0 105 4260 0 4260 0 105 98 c59 53 133
129 165 169 54 65 63 72 102 77 24 2 1130 21 2458 41 1328 19 2515 38 2638 42
l222 6 0 27 0 28 -212 6 c-212 6 -4877 86 -5015 86 l-73 0 0 115 0 115 -70 0
-69 0 -74 93 -74 92 -486 234 c-457 221 -486 236 -491 264 -10 52 -7 377 4
377 6 0 19 9 29 19 18 18 137 21 3202 85 1751 37 3217 66 3258 66 41 0 72 2
70 4 -2 3 -1415 39 -3139 80 -1724 42 -3190 79 -3257 82 -122 6 -122 6 -125
32 -2 21 -44 53 -229 181 l-227 156 207 3 206 2 522 198 523 197 0 295 -1 295
-119 425 c-65 233 -118 426 -116 427 1 1 582 15 1292 30 936 20 1244 30 1124
34 -91 4 -679 17 -1307 30 l-1143 23 -9 31 c-6 16 -60 208 -120 425 -143 510
-375 1284 -394 1313 -8 12 -217 138 -464 279 -527 302 -510 293 -526 279 -10
-7 -123 51 -429 220 l-417 230 -63 -65 -63 -65 -965 524 c-531 289 -969 526
-973 527 -5 2 13 41 38 86 26 46 45 85 43 87 -1 1 -391 217 -864 479 l-861
476 -72 0 c-56 0 -71 3 -71 15 0 17 25 10 -494 135 l-419 100 -429 0 -428 0 0
185 0 185 -1330 0 -1330 0 0 30 0 30 -1665 0 c-1325 0 -1665 -3 -1665 -12 0
-7 -5 -30 -11 -50 l-10 -38 -1593 0 -1592 0 -72 -174 -72 -174 0 -161 0 -161
-695 0 -695 0 0 128 0 129 -79 37 -80 37 -10 50 c-6 27 -23 115 -38 194 l-27
145 -1463 0 -1463 0 0 69 c0 37 -3 89 -6 115 l-7 46 -388 0 -389 0 0 -115 0
-115 -265 0 -265 0 0 80 0 80 -305 0 -305 0 0 35 0 35 -440 0 -440 0 0 -35 0
-35 -380 0 -380 0 0 -30 0 -30 -180 0 -180 0 0 33 c0 17 -3 49 -6 70 l-7 37
-458 0 -459 0 0 -70z m7470 -3180 l0 -530 -97 0 -98 0 -53 -65 -52 -65 -2570
0 -2570 0 0 270 0 270 780 0 780 0 0 45 0 45 1048 0 1048 0 38 183 c21 100 47
226 58 280 l21 97 833 0 834 0 0 -530z m-600 -1024 c0 -2 -34 -45 -75 -96
l-75 -92 0 -74 0 -74 -2820 0 -2820 0 0 45 c0 53 -59 40 470 105 223 28 422
53 443 56 l37 6 0 64 0 64 2420 0 c1331 0 2420 -2 2420 -4z m-283 -798 c-4
-62 -7 -139 -7 -170 l0 -58 -706 0 c-697 0 -706 0 -711 20 -5 20 -14 20 -768
20 l-762 0 -9 -92 -9 -93 -409 -3 c-310 -2 -411 1 -417 10 -4 6 -11 38 -14 70
l-7 58 -778 0 -777 0 -13 95 -13 95 -53 0 -54 0 0 80 0 80 2757 0 2756 0 -6
-112z"/>
</g>
</svg>
