<?xml version="1.0" standalone="no"?>
<!DOCTYPE svg PUBLIC "-//W3C//DTD SVG 20010904//EN"
 "http://www.w3.org/TR/2001/REC-SVG-20010904/DTD/svg10.dtd">
<svg version="1.0" xmlns="http://www.w3.org/2000/svg"
   viewBox="0 0 4446.000000 3042.000000"
 preserveAspectRatio="xMidYMid meet">
<metadata>
Created by potrace 1.16, written by Peter Selinger 2001-2019
</metadata>
<g transform="translate(0.000000,3042.000000) scale(0.100000,-0.100000)"
fill="#000000" stroke="none">
<path d="M7744 30348 l-210 -71 -41 -61 -40 -61 -12 -260 c-7 -143 -14 -270
-17 -283 -3 -13 -34 -44 -79 -77 -44 -33 -77 -65 -79 -78 -8 -38 -36 -488 -36
-569 0 -44 -4 -78 -10 -78 -5 0 -680 -81 -1501 -180 l-1491 -179 -43 -36 c-27
-21 -49 -51 -59 -77 -9 -24 -81 -227 -159 -452 l-143 -409 21 -59 22 -60 421
-231 c345 -189 419 -234 412 -246 -6 -12 -161 -51 -557 -140 -301 -68 -562
-128 -579 -133 -28 -7 -38 -22 -98 -149 l-67 -141 -95 -462 c-53 -253 -97
-462 -99 -464 -2 -2 -208 -6 -459 -9 l-455 -6 -123 -133 c-129 -140 -136 -153
-137 -246 -1 -21 -4 -38 -8 -38 -5 0 -154 -25 -332 -55 -234 -39 -328 -59
-342 -71 -37 -33 -49 -107 -56 -341 l-6 -223 -306 -2 -306 -3 -337 -618 -337
-618 90 -152 c49 -84 97 -155 107 -159 9 -4 431 -7 937 -7 l921 -1 57 -58 c53
-54 57 -61 63 -117 l6 -60 91 -55 c50 -30 114 -65 141 -78 38 -17 97 -69 229
-200 l177 -177 0 -211 c0 -203 1 -212 22 -239 l22 -28 -43 -81 -43 -81 7 -152
8 -151 174 -27 c194 -31 189 -24 66 -90 -40 -22 -73 -45 -73 -53 0 -7 -9 -97
-20 -200 -18 -165 -26 -205 -70 -343 l-49 -155 11 -176 11 -176 50 -42 49 -43
401 -81 402 -81 100 11 c55 7 110 13 123 13 l22 1 0 -340 0 -340 570 0 570 0
0 -247 1 -248 247 -182 247 -183 402 0 403 0 2 -187 3 -187 75 -18 c41 -11 92
-23 113 -29 l37 -10 0 -84 0 -85 185 0 185 0 0 85 0 85 1040 0 1040 0 0 215
c0 137 4 215 10 215 6 0 10 -107 10 -300 l0 -300 170 0 170 0 0 84 0 83 103 6
c56 4 502 19 990 34 l889 27 50 63 50 63 126 0 c103 0 8391 69 8400 70 1 0 2
25 2 55 0 30 -1 55 -2 56 -7 1 -8103 68 -8300 69 l-226 0 -50 64 -51 64 -273
7 c-150 4 -313 10 -361 14 l-88 6 136 99 135 99 0 174 0 173 114 0 114 0 211
92 211 93 0 387 0 388 4749 0 4750 0 15 -72 c9 -40 38 -183 66 -318 27 -135
52 -255 55 -267 l5 -23 2030 0 2030 0 0 -262 0 -263 -158 -60 -157 -60 -3
-252 -2 -251 -58 -6 c-31 -3 -169 -15 -307 -26 -137 -11 -274 -23 -302 -26
l-53 -5 -2 -1027 c-2 -575 -4 -782 -5 -469 l-3 557 -23 -5 c-12 -3 -220 -34
-462 -70 l-440 -65 -395 -113 -395 -114 -23 -41 -23 -40 -82 -6 c-45 -4 -172
-11 -283 -17 l-201 -10 -378 -93 -377 -93 -36 -42 -36 -43 0 -800 -1 -799 40
-39 41 -40 384 -94 385 -94 273 -13 274 -12 20 -42 20 -42 412 -117 411 -117
435 -64 c239 -36 441 -65 448 -65 9 0 13 124 14 583 l3 582 5 -750 5 -750
1420 -112 c781 -61 1430 -112 1443 -112 17 -1 74 -51 191 -166 l168 -165 1596
0 1597 0 0 -145 c0 -142 0 -145 23 -150 12 -2 452 -72 977 -155 525 -83 967
-153 983 -156 l27 -6 0 -366 0 -367 113 -41 112 -41 0 -156 c0 -85 -3 -158 -6
-161 -2 -3 -218 -28 -478 -56 l-472 -50 -345 -107 -344 -108 -32 -81 -32 -81
-244 -84 c-134 -46 -248 -87 -253 -90 -6 -3 -21 -52 -34 -109 -13 -56 -27
-106 -32 -110 -4 -3 -172 -69 -373 -144 -201 -76 -384 -147 -408 -157 -23 -10
-251 -164 -507 -343 l-465 -326 -482 0 -483 0 -302 -257 -303 -256 0 -376 0
-376 465 -328 464 -327 515 0 514 0 36 -65 c20 -36 36 -69 36 -74 0 -5 -24
-12 -52 -15 -36 -5 -61 -15 -79 -32 l-26 -25 -819 -26 c-751 -24 -820 -28
-834 -44 -14 -17 -99 -18 -1530 -26 -1382 -7 -1515 -9 -1518 -24 -3 -15 126
-17 1515 -23 1440 -7 1519 -8 1533 -25 15 -17 80 -20 835 -44 l819 -27 25 -24
c24 -23 72 -32 562 -115 l536 -91 974 0 974 0 149 -888 c82 -488 151 -894 154
-903 2 -11 63 -38 175 -80 l172 -64 5 -349 5 -349 338 -200 337 -199 0 -334 0
-334 -105 0 -105 0 0 -119 0 -119 -67 -6 c-38 -3 -309 -8 -603 -11 -609 -6
-740 -11 -740 -30 0 -14 208 -21 943 -31 l467 -7 0 -23 c0 -20 9 -24 91 -43
50 -12 97 -21 105 -21 12 0 14 -44 14 -280 l0 -280 -105 0 -105 0 0 -168 0
-169 -247 -6 c-137 -4 -454 -10 -705 -14 -436 -6 -458 -7 -458 -25 0 -10 1
-18 3 -18 1 0 332 -7 734 -15 l733 -14 63 -35 c43 -24 103 -76 187 -161 l124
-125 693 0 693 0 0 -557 0 -558 84 -90 84 -90 112 110 c100 99 175 196 723
942 l612 833 545 976 545 976 116 46 116 46 487 976 486 975 382 995 c209 547
381 1000 381 1006 0 6 -66 124 -147 263 l-148 251 77 347 c42 192 83 378 91
416 l16 67 276 1 277 0 245 122 245 122 42 195 c23 107 43 196 43 196 0 1 37
18 83 38 l82 37 160 755 160 755 103 57 c56 31 104 64 107 72 2 8 22 98 44
200 41 194 169 1154 158 1184 -4 9 -71 48 -150 87 l-143 72 23 175 c12 96 25
177 28 181 3 3 85 51 183 107 97 56 180 108 184 116 13 24 147 1152 154 1289
l6 137 56 -4 c32 -3 380 -23 776 -45 l718 -39 64 52 c44 37 65 62 69 83 3 17
62 473 130 1015 69 542 127 999 130 1017 6 31 4 33 -78 77 l-83 46 22 167 c13
93 23 169 23 171 1 1 39 -1 86 -4 79 -7 87 -5 138 21 l54 29 7 180 c3 100 9
237 12 306 l7 125 61 37 61 36 38 1004 c21 551 38 1017 37 1034 0 26 -7 33
-45 52 l-45 22 0 230 0 231 -64 29 -64 28 -634 27 c-348 15 -636 30 -639 33
-21 23 -169 233 -169 240 0 5 62 17 138 27 75 10 147 21 159 24 19 5 1 29
-156 206 l-177 200 -57 8 c-31 4 -83 10 -114 15 l-57 7 -97 131 -97 132 79 33
c44 19 80 38 80 42 0 4 -107 85 -238 179 l-238 171 -2417 1018 c-1330 560
-2424 1021 -2433 1026 -8 5 -44 55 -79 112 l-63 104 -2624 999 -2624 1000
-1925 554 -1925 555 -80 84 -80 83 -1850 542 -1850 542 -2160 478 c-1188 263
-2174 481 -2191 484 -30 7 -35 3 -99 -76 -37 -46 -71 -87 -75 -91 -5 -6 -290
48 -295 56 -1 1 -13 31 -27 67 l-26 65 -88 23 -88 22 -56 -55 -55 -54 -110 23
c-60 13 -135 29 -166 35 l-56 12 -27 69 -27 69 -87 20 -87 20 -55 -54 -55 -54
-160 35 c-88 19 -163 34 -166 34 -3 0 -11 28 -17 61 -6 34 -13 63 -15 66 -3 2
-42 13 -88 24 l-84 20 -20 -23 c-11 -13 -31 -37 -45 -55 l-25 -31 -105 22
c-58 13 -119 25 -137 29 -30 6 -44 -4 -223 -153 -106 -88 -199 -160 -207 -160
-13 0 -365 75 -403 86 -11 3 -54 -58 -150 -214 l-135 -219 -155 -6 c-85 -4
-201 -7 -258 -7 -59 0 -1731 156 -3961 370 -2122 204 -3876 370 -3897 369 -22
0 -134 -33 -250 -71z"/>
</g>
</svg>
