<?xml version="1.0" standalone="no"?>
<!DOCTYPE svg PUBLIC "-//W3C//DTD SVG 20010904//EN"
 "http://www.w3.org/TR/2001/REC-SVG-20010904/DTD/svg10.dtd">
<svg version="1.0" xmlns="http://www.w3.org/2000/svg"
   viewBox="0 0 3851.000000 639.000000"
 preserveAspectRatio="xMidYMid meet">
<metadata>
Created by potrace 1.16, written by Peter Selinger 2001-2019
</metadata>
<g transform="translate(0.000000,639.000000) scale(0.100000,-0.100000)"
fill="#000000" stroke="none">
<path d="M5050 6126 l0 -263 -72 -6 c-40 -3 -75 -4 -78 -1 -3 3 -7 77 -9 165
l-3 159 -1249 0 -1249 0 0 -239 0 -239 -28 -6 c-15 -3 -79 -8 -143 -12 l-117
-6 -518 -217 -519 -217 -3 68 c-2 37 -6 68 -10 68 -41 -1 -937 -181 -942 -190
-13 -21 -20 -278 -20 -715 0 -359 3 -440 15 -483 l16 -52 96 0 96 0 -6 -107
c-4 -58 -7 -189 -7 -290 l0 -183 -37 0 c-21 0 -55 -3 -75 -6 -36 -6 -38 -8
-49 -63 -6 -31 -35 -164 -64 -296 -59 -268 -64 -328 -66 -820 l0 -230 138 -6
c76 -4 315 -9 531 -12 l392 -6 0 80 0 79 214 0 214 0 7 -244 7 -244 286 -130
c158 -71 288 -134 290 -140 1 -5 -51 -49 -117 -98 -66 -49 -124 -99 -130 -112
-7 -15 -11 -123 -11 -298 0 -348 -11 -324 151 -324 l119 0 0 -245 0 -245 1566
0 1566 0 -2 208 c-2 114 -2 254 -2 312 l2 105 605 -4 605 -3 0 183 c0 101 0
711 0 1355 l0 1171 97 6 c54 4 193 7 308 7 116 0 281 3 368 7 l157 6 0 104 0
103 2122 -2 2122 -3 22 -95 c12 -52 34 -148 49 -212 l27 -118 290 -2 291 -3
54 -125 c30 -69 58 -129 62 -133 4 -4 127 -1 272 8 363 21 324 25 356 -40 25
-47 57 -78 267 -251 l240 -197 650 67 651 67 110 110 110 109 1030 -198 1030
-197 3 -176 2 -175 -112 -29 -113 -30 -3 -312 -2 -311 123 -86 124 -85 153
-35 c84 -20 155 -36 156 -36 2 0 4 -6 4 -14 0 -17 -33 -20 -455 -41 -735 -35
-785 -38 -785 -51 0 -8 23 -14 63 -18 59 -6 694 -39 1017 -54 l155 -7 3 -67 3
-68 1329 0 1330 0 0 50 0 50 135 0 c128 0 135 -1 135 -20 0 -19 7 -20 105 -20
l105 0 0 150 0 150 -105 0 c-98 0 -105 -1 -105 -20 0 -19 -7 -20 -135 -20
l-135 0 0 130 0 130 -85 0 -85 0 0 524 0 524 70 18 70 18 0 296 0 297 70 27
70 28 0 234 0 234 67 0 c66 0 68 1 173 70 l107 71 404 -227 c698 -391 2381
-1325 2384 -1322 1 2 16 29 34 61 18 32 36 57 40 55 4 -2 70 -43 148 -93 l141
-90 7 -80 c3 -44 6 -146 7 -227 1 -117 -2 -152 -15 -171 -23 -35 -7 -546 19
-601 l18 -36 97 0 97 0 22 35 c22 35 22 39 15 308 -6 205 -11 277 -21 292 -10
14 -14 59 -14 172 0 84 2 153 5 153 3 0 57 -34 121 -75 112 -73 116 -77 110
-105 l-5 -30 1649 0 1650 0 0 -255 0 -255 30 0 c30 0 30 0 30 -57 l0 -56 263
6 c144 4 459 10 700 14 l437 6 0 -205 0 -205 388 -42 c213 -23 407 -44 431
-48 43 -6 44 -7 77 -79 l33 -74 1901 0 1900 0 0 254 c0 139 3 267 6 283 l6 30
230 7 c127 3 298 9 380 13 l148 6 0 109 0 108 126 0 c99 0 129 3 138 14 9 13
114 16 684 22 369 4 672 11 672 16 0 4 -12 8 -27 8 -16 1 -317 5 -670 10 -559
7 -645 11 -665 24 -17 13 -50 16 -145 16 l-123 0 0 74 0 74 123 6 c67 3 331
11 587 16 454 11 465 11 483 32 10 12 21 27 25 34 9 16 1190 34 2210 34 l642
0 0 40 0 40 -362 2 -363 3 -3 48 c-3 45 -6 50 -37 63 -29 12 -212 14 -1190 14
l-1155 0 0 49 0 48 233 7 c127 3 537 9 910 12 528 5 677 9 677 19 0 17 -232
23 -1117 31 l-703 7 0 33 0 34 -480 0 -480 0 0 58 c0 53 -3 61 -35 92 l-35 34
0 156 c0 86 -3 211 -6 277 l-7 120 -261 7 -261 7 -72 71 -72 71 -278 -5 c-153
-3 -624 -3 -1047 1 l-769 6 -20 58 -19 57 -326 -2 -326 -3 -21 -55 -21 -55
-730 3 -729 3 -58 -110 -58 -111 -219 0 -220 0 0 -25 c0 -20 -5 -25 -24 -25
-30 0 -36 -31 -36 -197 l0 -123 -662 0 c-365 0 -707 3 -760 7 l-98 6 0 74 0
73 -1311 0 -1311 0 -1143 668 -1142 667 671 3 671 3 35 52 35 52 448 3 447 2
0 44 0 44 103 6 c56 3 190 8 297 12 107 3 197 10 201 15 3 5 381 12 842 16
l837 6 0 34 0 33 -253 0 c-140 0 -518 3 -840 7 -480 5 -587 9 -587 20 0 7 -1
14 -2 14 -2 1 -223 9 -493 19 -474 17 -491 17 -526 -1 -34 -17 -57 -18 -268
-12 l-230 6 -25 38 -25 37 -1003 4 -1003 3 -101 73 -102 72 -83 0 c-78 0 -88
3 -141 34 -40 24 -72 36 -106 38 l-48 3 -233 255 c-129 140 -261 284 -294 319
l-61 63 -484 79 c-282 46 -515 79 -556 79 l-71 0 -413 280 -413 280 -240 0
-239 0 0 40 0 40 -385 0 -385 0 -1 -37 c-1 -35 -2 -34 -9 12 -4 28 -13 69 -19
93 l-12 42 -360 0 -360 0 -26 -57 c-26 -60 -30 -84 -18 -119 6 -18 -17 -32
-218 -137 -124 -64 -229 -117 -233 -117 -5 0 -50 41 -99 90 l-90 90 -52 0
c-40 0 -53 4 -53 15 0 13 -111 15 -935 15 -617 0 -935 3 -935 10 0 7 -307 10
-900 10 l-900 0 0 -35 0 -35 -150 0 -150 0 0 150 0 150 -39 0 c-22 0 -41 -4
-43 -9 -2 -5 -189 -11 -446 -13 -349 -2 -442 0 -442 10 0 8 -19 12 -60 12
l-60 0 0 -150 0 -150 -2335 0 -2335 0 0 275 0 275 -505 0 -505 0 0 -264z
m5680 -611 c0 -24 3 -25 60 -25 56 0 60 2 60 23 0 15 21 -10 68 -80 l67 -103
307 0 306 0 66 103 c56 87 67 99 72 80 5 -19 13 -23 45 -23 35 0 39 3 39 25 0
25 0 25 94 25 52 0 101 -3 110 -6 14 -5 16 -34 16 -216 l0 -209 -200 -246
c-110 -135 -200 -254 -200 -264 0 -18 -29 -19 -860 -19 l-860 0 -1 -32 c-1
-18 -4 -141 -8 -273 l-6 -240 -1267 -3 -1268 -2 0 105 0 105 -463 0 -464 0 -6
601 c-4 330 -10 605 -13 610 -3 5 -90 9 -194 9 -147 0 -189 3 -186 13 3 6 7
24 10 40 l6 27 2335 0 2335 0 0 -25z m5290 -70 l0 -75 -85 0 -85 0 0 75 0 75
85 0 85 0 0 -75z m5673 -2086 c293 -188 537 -346 542 -351 13 -14 150 -90
-1235 683 -9 5 20 9 73 9 l88 0 532 -341z m597 -385 c0 -2 -9 0 -20 6 -11 6
-20 13 -20 16 0 2 9 0 20 -6 11 -6 20 -13 20 -16z"/>
</g>
</svg>
