<?xml version="1.0" standalone="no"?>
<!DOCTYPE svg PUBLIC "-//W3C//DTD SVG 20010904//EN"
 "http://www.w3.org/TR/2001/REC-SVG-20010904/DTD/svg10.dtd">
<svg version="1.0" xmlns="http://www.w3.org/2000/svg"
   viewBox="0 0 4358.000000 2013.000000"
 preserveAspectRatio="xMidYMid meet">
<metadata>
Created by potrace 1.16, written by Peter Selinger 2001-2019
</metadata>
<g transform="translate(0.000000,2013.000000) scale(0.100000,-0.100000)"
fill="#000000" stroke="none">
<path d="M7336 20113 c-2 -10 -21 -98 -42 -195 l-37 -178 -207 0 -206 0 -100
90 -99 90 -425 0 -425 0 -98 -90 -97 -90 -263 0 -262 -1 -220 -349 c-121 -192
-226 -350 -233 -350 -28 0 -2219 -190 -2258 -195 l-40 -6 -183 -340 c-101
-187 -182 -342 -180 -344 2 -1 111 -13 242 -26 131 -13 241 -26 246 -29 4 -3
63 -88 131 -190 67 -102 126 -189 130 -193 11 -13 134 -22 1234 -97 567 -39
1031 -71 1032 -73 1 -1 18 -30 38 -64 l37 -63 259 0 c238 0 259 -1 264 -17 2
-10 26 -132 52 -270 l48 -252 140 -3 141 -3 3 -167 c1 -93 -1 -168 -5 -168 -5
0 -361 -9 -793 -20 -766 -19 -788 -20 -910 -45 l-125 -26 -1860 -24 c-1023
-13 -1951 -24 -2062 -25 l-203 0 0 -30 0 -30 83 0 c45 0 971 -12 2057 -25
l1975 -25 120 -25 c116 -25 146 -26 860 -45 407 -10 768 -19 802 -20 l62 0 3
-104 3 -103 1734 -1397 1734 -1396 144 0 143 0 0 -234 c0 -164 3 -237 11 -242
6 -4 300 -46 651 -95 548 -75 647 -91 683 -111 24 -13 316 -257 649 -543 l606
-520 0 -163 0 -163 348 -380 c191 -209 348 -384 350 -389 2 -5 -15 -35 -38
-67 l-42 -58 158 -151 158 -151 -11 -36 c-9 -31 -8 -38 8 -53 10 -9 19 -23 19
-30 0 -7 -18 -63 -41 -123 l-41 -109 266 -475 266 -475 0 -116 0 -116 203
-254 202 -253 215 -6 c118 -4 832 -7 1586 -7 1307 0 1372 -1 1387 -18 9 -10
44 -75 77 -144 l60 -127 53 -6 53 -7 67 -134 c47 -93 72 -134 84 -134 9 0 132
-14 272 -31 l254 -30 101 100 101 101 770 -110 769 -110 416 0 416 0 205 -337
206 -338 109 -3 109 -3 -3 -1287 -2 -1288 24 -23 c22 -21 82 -29 992 -132 925
-104 978 -109 1176 -109 114 0 217 -4 230 -9 17 -7 91 -129 271 -449 210 -370
254 -442 280 -456 18 -8 264 -54 547 -101 283 -48 525 -89 538 -92 l22 -5 0
-272 0 -272 28 -27 28 -27 1317 0 1317 0 0 -30 0 -30 -72 0 c-40 0 -795 -9
-1678 -20 -883 -11 -1680 -20 -1772 -20 l-168 0 0 -25 0 -25 108 0 c59 0 811
-9 1672 -20 861 -11 1643 -20 1738 -20 l172 0 0 -179 0 -178 58 -6 c31 -4 123
-9 205 -13 l147 -7 0 -496 1 -496 90 -98 91 -97 79 0 79 0 0 -32 c1 -32 19
-68 35 -68 4 0 41 -31 81 -70 l74 -70 423 0 423 0 76 70 c60 55 83 70 107 70
31 0 31 1 31 50 l0 50 200 0 200 0 0 -50 0 -50 215 0 215 0 0 50 0 50 179 0
179 0 91 99 91 99 0 105 0 106 72 -25 72 -24 578 0 578 0 0 -49 c0 -47 2 -51
156 -240 l157 -191 306 1 306 0 43 55 43 54 579 0 579 0 43 -54 43 -55 306 0
307 -1 156 191 c154 189 156 192 156 240 l0 49 923 1 922 0 120 88 120 87 3
492 c1 271 3 492 5 492 1 0 76 -20 167 -44 l165 -43 3 -222 2 -222 33 6 c17 3
92 14 166 25 74 10 137 22 141 27 10 10 184 394 231 508 18 44 34 82 35 83 1
2 63 -4 136 -12 123 -15 156 -15 384 -1 l251 15 723 374 c585 303 734 384 781
426 l59 51 0 153 0 153 158 6 c86 4 369 8 627 8 259 1 504 4 545 8 133 11
-188 21 -675 21 -243 0 -490 3 -548 7 -116 7 -125 13 -84 56 l22 25 678 7
c372 4 677 11 677 15 0 6 -772 20 -1158 20 l-182 0 20 40 c24 47 25 62 5 100
l-16 30 103 0 c57 0 515 9 1018 20 503 11 927 20 943 20 22 0 27 4 27 25 0 24
-3 25 -57 25 -32 0 -530 9 -1108 21 l-1050 22 -67 33 -68 34 -212 0 c-117 0
-223 3 -235 6 -19 5 -23 13 -23 50 l0 44 -155 0 -155 0 0 -44 0 -43 -177 -7
-178 -7 -33 -39 -34 -40 -76 0 c-66 0 -79 3 -101 24 l-26 24 -341 -42 c-188
-22 -347 -46 -355 -52 -11 -8 -142 46 -569 238 l-554 248 -386 1 c-212 0 -407
4 -434 8 -45 8 -56 15 -126 92 l-77 84 -194 25 -194 25 -175 711 -175 712
-103 133 -103 134 -362 43 c-199 24 -370 46 -379 48 -16 5 -18 21 -18 158 l0
153 733 7 c995 8 1507 17 1507 26 0 7 -450 15 -1612 26 l-637 7 -46 58 -46 59
123 0 c151 0 228 9 228 25 0 15 -108 25 -271 25 l-119 0 -37 48 -38 48 -240
78 -240 77 -328 -1 -327 0 -330 165 -330 165 -158 0 -159 0 -84 94 c-46 52
-165 184 -264 293 -99 110 -328 364 -510 566 l-330 367 -970 0 -971 0 -74 75
c-68 68 -81 77 -155 101 -77 26 -85 31 -200 143 -66 64 -136 124 -156 135 -21
10 -187 66 -370 125 l-334 108 0 79 0 79 48 7 c46 6 115 50 116 73 1 8 -101
128 -157 187 -4 4 -200 67 -435 141 l-428 134 -89 134 -89 134 -123 67 -123
68 -182 0 -182 0 -45 63 -45 62 47 11 c41 9 45 12 27 21 -11 6 -124 34 -252
64 l-232 53 -22 58 -21 58 -223 0 -222 0 -13 41 c-8 24 -22 44 -32 47 -14 3
-18 15 -18 53 0 48 -1 49 -70 105 -74 60 -102 94 -77 94 8 0 83 72 166 159
140 147 156 160 203 172 32 9 56 22 66 37 15 23 36 34 147 79 33 13 49 21 35
18 -14 -3 -52 -10 -84 -16 -80 -14 -263 -67 -306 -90 -19 -10 -66 -27 -105
-38 -70 -20 -84 -18 -85 16 0 6 -5 24 -12 40 -7 15 -12 33 -13 38 -4 34 -31
118 -41 126 -8 7 -53 -2 -144 -28 -140 -41 -137 -38 -115 -95 4 -11 -22 -23
-107 -48 -62 -18 -134 -39 -160 -46 -38 -12 -45 -18 -41 -33 5 -18 8 -19 49
-6 63 19 58 0 -17 -68 l-60 -55 22 -78 c12 -44 24 -81 25 -83 8 -10 304 -72
332 -69 33 4 33 4 27 -31 -4 -20 -9 -38 -11 -40 -2 -2 -92 -21 -201 -42 -136
-27 -199 -43 -205 -54 -6 -9 -23 -15 -44 -15 -32 0 -36 -4 -54 -45 l-19 -45
-130 0 -130 0 -21 -57 c-12 -32 -33 -88 -47 -125 l-25 -68 -159 0 -159 0 0
-70 0 -70 -617 0 -618 0 -67 158 -68 158 0 289 0 289 -27 28 c-26 28 -29 28
-144 28 l-118 0 -32 54 c-43 71 -71 84 -469 217 l-325 109 -333 0 -333 0 -93
-50 c-51 -27 -96 -50 -99 -50 -4 0 -7 28 -7 63 0 57 -3 66 -30 92 l-29 28
-560 -27 c-308 -15 -564 -25 -569 -22 -5 3 -21 53 -37 112 -15 58 -33 111 -39
116 -6 5 -510 270 -1120 588 l-1108 579 -256 -29 c-140 -17 -265 -30 -277 -30
-12 0 -849 387 -1859 860 l-1837 861 -237 -45 -237 -45 -1257 667 -1258 667 0
288 0 287 803 0 802 0 1060 130 c583 72 1069 133 1080 135 15 4 66 95 195 351
96 190 179 348 183 351 5 3 122 -8 262 -23 l254 -28 20 -76 c11 -41 23 -89 27
-107 6 -28 11 -32 43 -35 l36 -3 24 -133 c20 -113 22 -140 12 -170 -12 -36
-10 -43 57 -182 63 -131 82 -160 196 -300 l127 -155 190 -111 189 -111 176
-37 c172 -37 177 -38 213 -21 36 16 55 15 392 -14 306 -27 399 -31 686 -31
316 0 333 -1 345 -19 12 -17 39 -21 238 -35 336 -24 330 -23 330 -52 l0 -24
200 0 200 0 25 -55 24 -55 95 0 c53 0 96 3 96 8 0 4 -7 28 -15 55 l-14 47 54
0 54 0 16 -55 16 -55 83 0 83 0 -5 55 -4 55 182 0 183 0 53 31 c46 26 54 35
54 60 0 28 2 29 48 29 26 0 367 7 757 15 678 14 716 16 850 40 l140 25 1562
13 c860 8 1566 17 1570 20 3 4 3 10 -1 14 -4 4 -728 15 -1609 24 -1536 17
-1606 18 -1687 37 -77 18 -154 22 -805 36 -396 9 -744 16 -772 16 -52 0 -53 1
-53 29 0 25 -8 34 -54 60 l-53 31 -205 0 -205 0 -7 31 c-15 75 -46 69 337 69
l343 0 89 158 c49 86 118 205 153 265 l63 108 47 -5 c26 -3 82 -8 124 -11 77
-6 77 -6 92 22 14 28 9 40 -165 423 -98 217 -180 399 -181 403 -2 4 -757 250
-1678 546 l-1675 538 -680 178 -680 179 -78 120 c-42 67 -133 207 -201 311
l-124 190 -424 3 -424 2 -97 90 -97 90 -427 0 -426 0 -98 -90 -97 -90 -130 0
-129 0 -849 195 -848 195 -1703 0 c-1612 0 -1702 -1 -1707 -17z m8659 -2898
c368 -42 675 -76 682 -78 7 -1 162 -186 345 -412 l333 -410 466 -3 467 -2 20
-48 21 -47 -90 -3 c-86 -3 -89 -3 -89 -27 0 -28 6 -27 -330 -51 -199 -14 -226
-18 -238 -35 -13 -18 -29 -19 -350 -19 -281 1 -391 6 -665 29 l-329 28 -21 27
c-19 23 -41 30 -182 60 -159 33 -161 34 -297 112 l-137 79 -104 130 c-84 105
-113 151 -153 239 -38 85 -56 113 -81 128 -33 20 -43 48 -59 165 l-6 52 33 3
c32 3 33 4 52 81 11 42 24 77 30 77 6 0 313 -34 682 -75z m2704 -927 c4 -13
11 -35 15 -50 6 -28 6 -28 -47 -28 l-53 0 -16 50 -16 50 54 0 c47 0 56 -3 63
-22z m6737 -5056 c18 -61 -9 -58 -30 4 -14 42 -14 45 1 42 10 -2 22 -21 29
-46z m504 24 c0 -6 -157 -136 -164 -136 -3 0 -6 6 -6 14 0 8 -7 22 -16 30 -11
11 -12 21 -6 33 13 22 192 77 192 59z m-466 -148 c9 -33 12 -56 6 -62 -13 -13
-16 -9 -33 51 -12 39 -13 53 -4 57 7 2 13 5 14 5 1 1 8 -23 17 -51z m36 -117
c0 -4 -15 -5 -32 -2 -32 4 -32 5 -8 11 26 7 40 4 40 -9z"/>
<path d="M26818 11533 c7 -3 16 -2 19 1 4 3 -2 6 -13 5 -11 0 -14 -3 -6 -6z"/>
<path d="M26740 11518 c-19 -6 -30 -12 -24 -14 5 -3 28 2 50 10 45 17 26 19
-26 4z"/>
<path d="M26640 11485 c-19 -7 -28 -13 -20 -13 8 0 31 6 50 13 19 7 28 13 20
13 -8 0 -31 -6 -50 -13z"/>
<path d="M26505 11445 c-38 -13 -65 -23 -60 -24 6 0 44 10 85 23 41 13 68 24
60 24 -8 0 -46 -10 -85 -23z"/>
<path d="M26370 11405 c-19 -7 -28 -13 -20 -13 8 0 31 6 50 13 19 7 28 13 20
13 -8 0 -31 -6 -50 -13z"/>
</g>
</svg>
