<?xml version="1.0" standalone="no"?>
<!DOCTYPE svg PUBLIC "-//W3C//DTD SVG 20010904//EN"
 "http://www.w3.org/TR/2001/REC-SVG-20010904/DTD/svg10.dtd">
<svg version="1.0" xmlns="http://www.w3.org/2000/svg"
   viewBox="0 0 3831.000000 1529.000000"
 preserveAspectRatio="xMidYMid meet">
<metadata>
Created by potrace 1.16, written by Peter Selinger 2001-2019
</metadata>
<g transform="translate(0.000000,1529.000000) scale(0.100000,-0.100000)"
fill="#000000" stroke="none">
<path d="M24130 13090 l0 -2200 -36 0 c-27 0 -48 -9 -80 -36 l-44 -35 0 -330
0 -329 -230 0 -229 0 -146 -56 -145 -57 0 -73 0 -74 265 0 265 0 0 -115 0
-115 116 0 117 0 -7 -37 c-3 -21 -6 -59 -6 -85 l0 -48 -267 0 c-148 0 -386 -3
-530 -7 l-262 -6 -6 -24 c-5 -22 -9 -23 -105 -23 l-100 0 0 36 0 37 -67 -6
c-38 -4 -128 -10 -200 -13 -73 -4 -133 -9 -133 -11 0 -55 148 -782 164 -801 5
-8 44 -31 85 -52 42 -21 96 -50 121 -64 l45 -26 -822 0 c-694 0 -823 2 -823
14 0 10 -20 16 -67 20 -109 11 -123 19 -188 101 -39 50 -65 75 -79 75 -29 1
-431 582 -428 619 4 51 -106 194 -187 244 -99 61 -141 74 -255 82 -104 7 -106
7 -106 -14 l0 -21 -1380 0 c-1373 0 -1380 0 -1380 20 0 18 -7 20 -60 20 l-60
0 0 203 0 202 -427 240 -428 239 -150 180 -150 180 -686 322 -687 322 -858 11
c-471 6 -859 13 -861 15 -2 2 7 32 21 67 14 35 27 69 28 75 2 6 -88 119 -200
252 l-202 241 -1053 -6 -1052 -6 -237 -98 -236 -99 -797 0 -797 0 -125 -70
-125 -70 -1714 0 -1714 0 0 235 0 235 -2215 0 -2215 0 0 -560 0 -560 365 0
365 0 0 -105 0 -105 -92 0 c-87 -1 -108 -5 -343 -78 l-250 -78 -3 -947 c-1
-521 0 -947 3 -947 3 0 121 -34 264 -75 237 -69 266 -75 349 -75 90 0 989 33
1215 45 l117 6 0 -613 0 -613 290 -128 291 -127 887 0 887 0 115 -175 114
-175 1736 0 1736 0 103 115 103 115 77 0 76 0 68 -473 67 -472 72 -183 71
-182 262 0 c287 0 275 3 275 -58 0 -15 3 -37 6 -49 6 -23 7 -23 225 -23 218 0
220 0 228 -22 5 -13 48 -66 95 -118 47 -52 86 -103 86 -112 0 -17 -42 -18
-740 -18 l-740 0 -140 -56 -140 -56 0 -367 0 -366 133 -52 132 -53 228 0 227
0 2 -415 3 -416 264 -125 263 -125 854 1 c470 0 868 3 884 7 26 5 30 10 30 40
l0 35 565 -7 565 -8 0 37 0 36 630 0 c614 0 630 0 630 -19 0 -47 8 -51 99 -51
l88 0 68 98 c44 61 97 157 143 257 l74 160 33 200 32 200 -32 200 -33 200 -75
161 c-48 103 -99 196 -143 258 l-68 96 -87 0 c-91 0 -99 -4 -99 -51 0 -18 -10
-19 -207 -19 l-208 0 524 235 524 235 323 0 324 0 0 70 0 70 109 0 c105 0 109
1 114 23 3 12 17 90 32 173 l28 151 176 7 c293 10 1650 18 1735 9 l79 -8 15
-42 14 -43 583 0 583 0 6 45 7 45 589 0 589 0 7 -45 6 -45 472 0 472 0 14 43
15 42 405 3 406 2 22 -45 22 -45 416 2 417 3 15 41 15 41 66 7 c36 3 185 6
331 6 l265 0 145 55 145 54 23 -45 c24 -48 33 -51 83 -30 l33 14 139 -232 c76
-127 140 -232 142 -234 1 -2 63 -7 136 -12 74 -5 135 -9 137 -10 1 0 2 -36 2
-80 l0 -80 1120 0 1120 0 0 21 c0 20 2 21 168 14 161 -7 173 -6 293 20 96 22
133 35 163 58 l38 30 652 -12 c384 -7 652 -16 654 -22 2 -5 24 -9 48 -9 42 0
44 -1 44 -28 l0 -29 143 -6 c78 -4 215 -7 305 -7 154 0 165 1 212 25 l49 25
420 0 420 0 28 -40 28 -40 121 0 c110 0 123 2 140 21 16 18 26 20 69 14 27 -3
84 -11 125 -17 41 -5 253 -13 470 -17 217 -4 395 -8 395 -9 0 -1 286 -337 635
-746 l635 -745 2188 0 2187 -1 0 -143 c0 -79 3 -232 7 -340 l6 -197 -1891 0
c-1279 0 -1892 -3 -1892 -10 0 -6 73 -96 163 -200 l162 -190 416 0 416 0 824
-1590 824 -1589 808 -1 807 0 0 2945 0 2945 -105 0 -105 0 0 71 c0 55 -5 79
-21 105 -20 34 -22 34 -94 34 -52 0 -76 -4 -85 -15 -15 -18 -73 -20 -103 -3
-12 7 -51 15 -86 18 l-64 5 101 67 102 68 439 0 440 0 3 -47 3 -48 178 -3 177
-2 0 50 0 50 60 0 c47 0 60 3 60 15 0 11 12 15 46 15 43 0 46 2 40 23 -3 12
-6 50 -6 85 0 62 0 62 -29 62 -28 0 -28 1 -34 68 -4 37 -7 105 -7 152 0 47 -3
135 -6 195 l-7 111 -177 23 c-175 24 -186 24 -771 18 l-594 -6 -113 -35 -114
-36 -438 0 -439 0 -27 -45 -26 -45 -1064 0 -1064 0 0 120 0 120 -455 0 c-250
0 -455 1 -455 3 0 11 75 348 99 442 31 126 47 215 38 215 -3 0 -200 47 -439
104 -417 100 -440 104 -608 116 -98 6 -182 17 -192 23 -9 7 -82 72 -163 146
l-146 134 -526 25 -526 25 -59 -67 -60 -66 -71 0 c-152 0 -100 -50 -520 509
-205 273 -417 564 -471 646 -54 83 -99 151 -101 153 -9 10 -1154 32 -1698 32
l-668 0 -119 107 c-65 59 -117 109 -115 112 4 3 3249 99 3413 101 28 0 42 4
42 13 0 7 18 23 39 35 29 17 40 30 45 55 4 22 15 39 31 47 23 12 25 19 25 82
l0 68 -217 0 c-409 1 -2145 18 -2148 22 -3 3 -575 3367 -575 3381 0 4 -535 7
-1190 7 l-1190 0 0 235 0 235 1154 0 1153 0 -16 91 -16 91 -835 544 -834 544
-443 0 -443 0 0 -2200z m-4380 -3690 c0 -18 7 -20 73 -20 86 0 114 -16 178
-102 23 -30 50 -55 64 -58 33 -7 449 -603 441 -633 -7 -28 70 -133 149 -204
91 -81 178 -115 313 -121 89 -4 102 -2 102 12 0 15 87 16 1000 16 754 0 1000
-3 1000 -12 0 -6 -27 -42 -60 -79 -33 -37 -60 -72 -60 -78 0 -8 -846 -10
-3002 -9 l-3003 3 -3 138 -3 138 -29 6 -30 6 0 488 0 489 60 0 c53 0 60 2 60
20 0 20 7 20 1375 20 1368 0 1375 0 1375 -20z m3041 -858 c-35 -2 -65 -2 -66
0 -1 2 0 17 2 35 l5 32 62 -32 61 -32 -64 -3z m-5711 -1886 c0 -3 -4 -16 -10
-30 -9 -24 -14 -26 -70 -26 -56 0 -60 1 -60 23 0 13 3 27 7 30 7 8 133 10 133
3z m2376 -12 c-3 -9 -6 -22 -6 -30 0 -12 -87 -14 -590 -14 -503 0 -590 2 -590
14 0 8 -3 21 -6 30 -6 14 51 16 596 16 545 0 602 -2 596 -16z m1814 11 c0 -2
-5 -16 -12 -30 l-11 -25 -404 0 -403 0 -10 26 c-6 14 -10 27 -10 30 0 2 191 4
425 4 234 0 425 -2 425 -5z m1620 -31 l-75 -35 -210 0 c-115 1 -265 4 -332 7
-111 6 -122 9 -127 27 -3 11 -3 24 0 29 3 4 188 8 412 8 l407 -1 -75 -35z
m13767 -388 c1 -1 -46 -32 -106 -69 l-108 -67 -1097 0 c-1094 0 -1097 0 -1086
20 11 20 21 20 787 20 l776 0 80 46 c45 26 92 50 106 54 21 6 640 2 648 -4z
m-2637 -116 c-10 -19 -21 -20 -320 -20 -303 0 -310 0 -310 20 0 20 7 20 320
20 318 0 321 0 310 -20z"/>
</g>
</svg>
