<?xml version="1.0" standalone="no"?>
<!DOCTYPE svg PUBLIC "-//W3C//DTD SVG 20010904//EN"
 "http://www.w3.org/TR/2001/REC-SVG-20010904/DTD/svg10.dtd">
<svg version="1.0" xmlns="http://www.w3.org/2000/svg"
   viewBox="0 0 4294.000000 1214.000000"
 preserveAspectRatio="xMidYMid meet">
<metadata>
Created by potrace 1.16, written by Peter Selinger 2001-2019
</metadata>
<g transform="translate(0.000000,1214.000000) scale(0.100000,-0.100000)"
fill="#000000" stroke="none">
<path d="M17962 12118 l-572 -19 -1393 -174 -1392 -174 -1162 -325 -1162 -324
-851 -451 -851 -451 -279 -260 -278 -260 -170 -273 -171 -272 -51 -260 c-28
-143 -53 -268 -56 -277 -5 -17 109 -18 2293 -18 l2299 0 44 -45 44 -45 -226 0
-226 0 -69 32 -68 33 -1277 3 -1277 3 -173 -55 -173 -56 -137 -117 -138 -116
0 -194 0 -193 -1767 -2 -1767 -3 -20 -62 c-19 -61 -20 -62 -60 -67 -23 -3
-1580 -38 -3461 -78 -1881 -40 -3393 -76 -3360 -80 33 -4 1502 -37 3265 -73
1763 -36 3294 -68 3402 -72 l197 -6 17 -64 17 -63 1768 0 1769 0 0 -193 0
-193 123 -104 c67 -57 129 -110 138 -117 9 -8 92 -41 185 -73 l169 -60 390
-30 c215 -17 400 -33 413 -36 17 -3 22 -11 22 -38 l0 -34 -92 -6 c-51 -3 -439
-10 -863 -16 -423 -7 -771 -13 -773 -14 -1 -2 264 -6 590 -10 326 -3 716 -9
866 -13 l272 -6 0 -54 c0 -53 2 -57 112 -206 61 -84 112 -153 112 -153 1 -1
390 -41 864 -89 l864 -88 378 88 378 88 12 74 11 73 95 0 94 0 0 -65 c0 -51
-3 -65 -15 -65 -12 0 -15 -34 -17 -222 l-3 -223 -73 -6 c-80 -8 -59 6 -274
-171 l-107 -88 -997 0 -996 0 -42 -31 -43 -30 -2774 -39 c-1526 -22 -2776 -40
-2779 -41 -3 -1 1245 -23 2772 -49 l2778 -47 44 -37 44 -36 995 0 994 0 160
-115 c123 -89 167 -115 191 -115 l32 0 0 -129 c0 -128 0 -130 90 -497 49 -202
93 -371 97 -375 5 -3 67 -26 138 -49 72 -24 132 -44 134 -46 2 -1 50 -182 108
-401 96 -368 112 -442 208 -983 58 -322 107 -595 110 -607 5 -22 10 -23 152
-25 l147 -3 23 -125 c44 -238 39 -225 100 -291 35 -38 84 -75 128 -100 l72
-39 17 -113 c10 -61 43 -285 74 -497 l58 -385 1944 0 c1559 0 1977 3 2105 14
l161 13 67 262 c62 240 67 269 67 363 l0 102 -32 5 c-37 6 -277 26 -308 26
-19 0 -20 7 -20 120 l0 120 -36 0 c-32 0 -36 2 -31 23 3 12 88 534 189 1159
162 1011 185 1138 201 1138 14 0 312 61 413 85 18 4 24 16 33 72 25 148 5 125
168 190 102 40 148 64 154 78 5 11 77 281 160 600 83 319 155 584 159 588 4 5
1109 78 2456 162 2238 141 2485 158 2869 201 l420 46 1100 19 1100 18 1140 86
c1046 78 1229 95 2215 200 982 104 1154 125 1994 245 l918 131 742 149 741
150 550 162 550 161 330 170 c306 158 343 179 364 215 6 10 83 9 411 -8 222
-11 404 -19 405 -18 1 2 9 30 17 63 l14 60 284 7 c157 3 489 8 738 10 l452 5
0 -44 0 -44 33 5 c17 3 304 26 637 51 333 26 610 48 615 49 6 2 21 38 34 79
l24 76 -23 80 -23 80 -41 6 c-45 5 -1210 95 -1238 95 -14 0 -18 -9 -18 -42 l0
-43 -727 10 c-401 6 -733 13 -739 17 -6 4 -16 32 -23 63 -11 50 -15 55 -40 55
-33 0 -587 -27 -691 -34 l-76 -5 -26 42 c-24 39 -47 53 -359 213 l-334 172
-546 161 -546 161 -742 149 c-407 83 -747 153 -754 157 -6 4 -102 70 -211 147
l-199 140 -1268 422 -1267 423 -12 -112 -12 -112 -1001 197 c-997 196 -1008
198 -2092 364 l-1090 166 -1038 114 c-571 62 -1042 116 -1045 120 -4 4 -9 80
-12 170 -3 90 -8 166 -12 170 -6 6 -4764 274 -4874 275 l-42 0 -4 -55 c-3 -30
-7 -58 -11 -61 -3 -3 -642 6 -1419 20 -777 15 -1443 26 -1480 26 l-68 0 0 510
0 510 -152 -1 c-84 -1 -411 -10 -726 -21z"/>
</g>
</svg>
