<?xml version="1.0" standalone="no"?>
<!DOCTYPE svg PUBLIC "-//W3C//DTD SVG 20010904//EN"
 "http://www.w3.org/TR/2001/REC-SVG-20010904/DTD/svg10.dtd">
<svg version="1.0" xmlns="http://www.w3.org/2000/svg"
   viewBox="0 0 4104.000000 1288.000000"
 preserveAspectRatio="xMidYMid meet">
<metadata>
Created by potrace 1.16, written by Peter Selinger 2001-2019
</metadata>
<g transform="translate(0.000000,1288.000000) scale(0.100000,-0.100000)"
fill="#000000" stroke="none">
<path d="M17845 12813 l-1650 -64 -830 -145 -830 -145 -115 -119 -115 -119
-1840 -236 -1840 -236 -2675 -195 c-1471 -107 -3336 -248 -4145 -314 -808 -67
-1778 -143 -2155 -170 l-685 -49 -152 -43 -153 -43 -179 -245 -180 -245 -112
-325 -111 -325 -39 -332 -40 -333 76 -362 76 -363 123 -225 123 -225 6 -254
c4 -140 8 -255 9 -257 2 -1 113 8 247 20 l244 22 349 -36 c191 -20 350 -39
352 -41 2 -2 13 -47 25 -99 12 -52 75 -276 139 -497 l117 -402 80 -59 80 -58
173 -535 c96 -294 228 -676 294 -849 l120 -315 241 -322 242 -323 250 -178
250 -179 490 -248 c389 -197 641 -334 1225 -668 l735 -420 1455 -995 1455
-996 115 -7 c63 -4 401 -10 750 -14 l636 -7 28 71 28 70 -966 1705 -965 1704
-103 304 -103 305 23 278 23 278 172 245 172 245 245 132 245 132 690 57 690
57 845 9 c1355 15 1685 14 1916 -10 l196 -20 61 37 c65 41 79 58 172 204 l59
94 510 -63 c281 -34 511 -64 512 -65 49 -77 318 -446 327 -450 6 -3 288 -118
626 -256 l615 -251 1560 -416 c859 -229 1565 -420 1569 -424 4 -4 133 -360
286 -791 190 -535 284 -785 294 -787 87 -17 1123 -148 1127 -142 3 4 172 251
375 547 l370 540 95 -24 c52 -14 599 -153 1215 -309 651 -166 1688 -419 2475
-605 822 -194 2202 -532 3510 -859 l2155 -539 1820 -391 1820 -392 1442 -223
1443 -224 707 -6 708 -6 215 247 c118 135 220 259 225 275 6 15 80 107 165
204 124 141 189 229 329 438 170 255 179 270 330 592 l154 330 78 345 78 344
-27 243 c-23 216 -28 243 -44 243 -10 0 -18 1 -19 3 0 1 -6 78 -14 172 -13
171 -13 177 20 188 5 2 0 67 -14 163 -32 225 -30 214 -57 214 -13 0 -24 3 -25
8 0 4 -10 75 -23 157 -13 83 -20 151 -16 153 38 15 40 25 26 107 -22 123 -234
1055 -249 1095 -8 19 -82 145 -166 279 -151 240 -156 248 -359 470 -177 193
-231 246 -386 372 l-181 146 -49 209 c-128 555 -122 533 -174 595 -71 86 -381
271 -775 463 l-312 153 -827 292 -828 292 -172 -21 -173 -21 -385 179 c-320
149 -3077 1510 -3460 1708 l-115 59 -212 250 c-117 137 -216 251 -220 252 -4
1 -129 -12 -277 -31 l-269 -33 -1471 204 c-809 112 -1476 205 -1482 207 -8 3
-14 60 -19 164 -4 88 -10 164 -14 170 -4 7 -515 118 -1136 247 l-1130 236
-1411 159 -1411 159 -1779 100 c-979 56 -1809 100 -1845 100 -35 -1 -806 -30
-1714 -66z"/>
</g>
</svg>
