<?xml version="1.0" standalone="no"?>
<!DOCTYPE svg PUBLIC "-//W3C//DTD SVG 20010904//EN"
 "http://www.w3.org/TR/2001/REC-SVG-20010904/DTD/svg10.dtd">
<svg version="1.0" xmlns="http://www.w3.org/2000/svg"
   viewBox="0 0 3348.000000 1856.000000"
 preserveAspectRatio="xMidYMid meet">
<metadata>
Created by potrace 1.16, written by Peter Selinger 2001-2019
</metadata>
<g transform="translate(0.000000,1856.000000) scale(0.100000,-0.100000)"
fill="#000000" stroke="none">
<path d="M2030 18553 c0 -5 -76 -6 -170 -5 l-170 4 -1 -24 c0 -12 -4 -48 -8
-79 l-7 -57 131 -18 c71 -9 145 -17 163 -18 26 0 32 -4 32 -22 0 -11 -70 -623
-155 -1358 -85 -736 -155 -1343 -155 -1350 0 -8 97 -39 272 -86 150 -40 278
-75 285 -77 10 -4 13 -42 13 -153 l0 -148 -32 -5 c-18 -3 -141 -20 -273 -38
-132 -18 -243 -37 -247 -43 -4 -6 -8 -80 -8 -163 l0 -153 -480 0 -480 0 0 -38
0 -39 -117 -32 c-65 -18 -126 -35 -135 -37 -17 -5 -18 -102 -18 -1849 l0
-1843 117 -21 c158 -29 153 -27 153 -62 l0 -29 685 0 685 0 -2 -277 -3 -276
-225 -129 -224 -129 -536 26 -535 26 -290 -104 -290 -105 -3 -1590 -2 -1591
52 -19 c29 -11 163 -59 297 -107 l244 -87 531 29 531 30 229 -134 228 -133
882 0 881 0 57 -88 c32 -48 53 -88 48 -90 -5 -2 -141 -25 -302 -51 l-293 -47
-3 -1311 -2 -1311 37 -6 c21 -4 625 -101 1342 -216 717 -115 1305 -211 1307
-213 1 -1 -40 -98 -92 -215 l-94 -212 148 -200 147 -199 104 -1 c82 0 101 -3
93 -12 -6 -7 -13 -30 -17 -50 l-7 -38 -143 0 -143 0 -33 85 -32 85 -123 0
-124 0 0 -37 c0 -32 -5 -41 -30 -55 l-30 -17 0 -228 0 -228 30 -17 c24 -14 30
-24 30 -53 l0 -35 124 0 123 0 32 85 33 85 143 0 144 0 6 -43 c9 -57 50 -87
122 -87 49 0 50 -1 68 -40 l18 -40 1716 0 1716 1 58 99 57 100 1060 0 1061 0
59 30 59 30 982 0 982 0 34 -40 34 -40 40 23 c36 20 39 26 39 65 0 40 1 42 30
42 20 0 30 5 30 15 0 13 40 15 298 16 163 0 848 9 1522 18 674 10 1126 19
1005 20 -121 1 -742 8 -1380 16 -638 8 -1224 15 -1302 15 -120 0 -143 2 -143
15 0 10 -10 15 -30 15 -28 0 -30 2 -30 40 0 35 -4 43 -39 66 l-40 26 -30 -34
c-17 -18 -31 -36 -31 -40 0 -5 -442 -8 -982 -8 l-983 0 -63 30 -64 30 -1059 0
-1059 0 -25 40 c-14 22 -25 42 -25 45 0 3 153 5 339 5 l339 0 2113 510 c1163
280 2115 513 2117 517 2 5 68 145 147 313 l143 305 -74 75 -74 75 0 943 0 942
448 0 449 0 1702 -598 1703 -599 464 -583 464 -583 0 -288 0 -289 1308 0 1307
1 650 735 c358 404 658 744 667 757 11 14 95 365 233 982 119 528 218 965 220
971 2 7 237 -71 605 -201 330 -117 602 -214 604 -216 6 -7 525 -2953 521
-2958 -2 -4 -825 -395 -1829 -871 -1004 -476 -1825 -869 -1823 -874 2 -5 153
-178 337 -385 l335 -377 515 -56 c283 -32 526 -55 540 -52 43 9 1476 -153
1555 -176 43 -13 206 -35 429 -59 l359 -39 98 28 c54 16 117 42 141 58 63 43
1436 446 1491 438 53 -9 1190 324 1227 359 35 33 963 305 1041 305 41 0 357
89 1328 375 700 206 1275 376 1277 378 2 2 -20 163 -49 358 l-53 354 -79 5
-79 5 -378 2940 c-207 1617 -377 2973 -378 3014 0 47 -20 176 -55 356 l-55
282 -160 284 -160 284 -3772 1279 -3773 1278 -765 899 -765 898 -4482 0 -4481
1 -949 381 -948 381 -185 324 -184 323 -41 6 c-22 3 -303 28 -625 55 -496 43
-591 53 -625 70 -33 16 -117 27 -475 60 -239 22 -459 42 -487 45 -49 6 -53 5
-53 -14 0 -17 -5 -20 -28 -15 -26 5 -30 0 -96 -116 l-69 -121 -56 6 c-152 16
-129 0 -207 142 -37 69 -73 127 -79 129 -12 5 -3376 294 -3417 294 l-28 0 0
-685 0 -685 -374 0 -373 0 -7 46 c-3 26 -6 119 -6 208 -1 191 46 -39 -415
2054 l-329 1492 -953 0 c-524 0 -953 -3 -953 -7z"/>
</g>
</svg>
