<?xml version="1.0" standalone="no"?>
<!DOCTYPE svg PUBLIC "-//W3C//DTD SVG 20010904//EN"
 "http://www.w3.org/TR/2001/REC-SVG-20010904/DTD/svg10.dtd">
<svg version="1.0" xmlns="http://www.w3.org/2000/svg"
   viewBox="0 0 3920.000000 2844.000000"
 preserveAspectRatio="xMidYMid meet">
<metadata>
Created by potrace 1.16, written by Peter Selinger 2001-2019
</metadata>
<g transform="translate(0.000000,2844.000000) scale(0.100000,-0.100000)"
fill="#000000" stroke="none">
<path d="M14635 26268 c-814 -1194 -1507 -2210 -1541 -2258 l-60 -88 -84 349
-85 349 -302 0 -303 0 0 -62 c0 -35 11 -105 24 -155 l24 -93 -2612 0 -2611 0
-484 -472 -483 -471 -1457 -274 c-801 -150 -1466 -275 -1478 -278 -17 -4 -124
-209 -542 -1039 -343 -680 -521 -1044 -521 -1064 0 -21 47 -106 161 -291 l161
-261 4009 0 c2205 0 4009 -3 4008 -7 0 -5 -87 -134 -192 -288 l-192 -280
-4223 -3 -4222 -2 -815 -1630 c-602 -1203 -815 -1639 -815 -1664 0 -28 47
-103 281 -440 l280 -406 1380 -2 1379 -3 -137 -56 -138 -55 -3 -410 -2 -409
-110 -43 -110 -44 0 -714 0 -714 -1132 0 -1133 -1 -275 -399 c-198 -287 -276
-408 -279 -432 -2 -27 136 -312 815 -1670 l819 -1638 1065 0 1065 0 235 -50
235 -50 853 0 852 0 0 -240 0 -240 -1752 0 -1753 -1 -158 -258 c-99 -162 -157
-268 -157 -284 0 -16 224 -475 519 -1065 l519 -1037 1479 -274 1479 -275 489
-478 488 -478 2617 0 2617 0 -33 -141 c-19 -78 -34 -165 -34 -195 l0 -54 303
0 302 0 89 368 c49 202 91 372 95 378 3 7 695 -998 1536 -2232 l1530 -2244
1963 0 1962 0 0 1900 0 1900 286 2 286 3 272 625 c237 546 274 626 296 632 14
4 1593 156 3510 338 1917 182 3499 333 3517 335 27 5 70 51 303 330 l272 325
139 0 139 0 0 194 0 194 -82 6 c-84 6 -8266 207 -8390 206 l-68 0 0 1130 0
1130 208 0 c114 0 2579 20 5477 45 l5270 46 95 39 95 38 1535 9 1535 8 80 -56
80 -57 2090 64 c1150 35 2118 63 2153 64 l62 0 0 185 0 185 -37 0 c-21 -1
-991 27 -2155 62 l-2117 63 -43 -32 c-24 -18 -59 -43 -78 -57 l-35 -25 -1535
10 -1535 10 -100 39 -100 38 -5435 47 c-2989 25 -5452 46 -5472 45 l-38 0 0
385 0 385 138 0 c260 -1 8747 100 8950 106 l202 6 0 118 0 118 -222 6 c-123 3
-2048 28 -4278 56 -2230 27 -4220 53 -4422 56 l-368 7 0 167 0 167 303 6 c166
4 2539 32 5272 63 l4970 55 858 217 857 216 -2 629 -3 630 -1415 377 c-778
208 -1691 452 -2028 542 l-613 164 -89 110 -88 109 -109 28 -109 29 -183 282
-182 282 -1267 463 -1267 463 -49 83 -49 82 -706 193 c-388 106 -720 197 -738
202 -24 7 -68 52 -193 201 l-161 192 48 3 c65 3 5833 72 6056 72 l177 0 0 125
0 125 -37 0 c-21 0 -2007 24 -4413 55 l-4375 54 -205 26 c-113 14 -217 28
-232 31 l-28 6 0 1863 0 1863 133 6 c72 3 1916 51 4097 106 2181 55 4043 103
4138 106 l172 7 0 187 0 187 -141 7 c-137 7 -142 8 -164 34 -12 15 -131 158
-264 317 -133 160 -248 293 -254 298 -7 4 -1596 158 -3532 342 -1936 184
-3526 336 -3533 338 -8 1 -121 250 -253 552 -131 303 -255 587 -275 633 l-37
82 -283 0 -284 0 0 1900 0 1900 -1962 -1 -1963 0 -1480 -2171z"/>
</g>
</svg>
