<?xml version="1.0" standalone="no"?>
<!DOCTYPE svg PUBLIC "-//W3C//DTD SVG 20010904//EN"
 "http://www.w3.org/TR/2001/REC-SVG-20010904/DTD/svg10.dtd">
<svg version="1.0" xmlns="http://www.w3.org/2000/svg"
   viewBox="0 0 4526.000000 1565.000000"
 preserveAspectRatio="xMidYMid meet">
<metadata>
Created by potrace 1.16, written by Peter Selinger 2001-2019
</metadata>
<g transform="translate(0.000000,1565.000000) scale(0.100000,-0.100000)"
fill="#000000" stroke="none">
<path d="M29860 15620 c-585 -28 -586 -28 -1625 -139 -869 -92 -1244 -137
-2285 -275 l-1245 -166 -1145 -206 c-630 -114 -1148 -210 -1153 -214 -4 -3 -1
-55 8 -115 8 -60 13 -110 11 -112 -2 -2 -599 -134 -1327 -293 l-1324 -289
-1175 -305 c-2571 -667 -4609 -1260 -8010 -2331 -1947 -614 -2470 -783 -4060
-1314 l-1825 -609 -1395 -525 -1395 -525 -480 -228 -480 -228 -330 -221 -329
-220 -148 -200 c-81 -110 -147 -203 -148 -207 0 -5 56 -8 125 -8 l125 0 0
-963 0 -962 113 -56 112 -56 430 112 430 112 5 -112 5 -112 126 47 127 47 6
-39 6 -38 1740 0 1740 0 0 378 0 379 92 42 c51 23 685 312 1408 641 l1315 599
1512 7 1513 7 2 -1378 3 -1378 219 -99 219 -99 496 -7 c273 -4 497 -5 499 -2
1 3 19 32 41 65 l38 61 299 28 299 28 25 -32 c14 -18 34 -43 45 -56 l20 -23
745 79 745 78 323 123 322 123 0 48 c0 53 2 54 53 33 32 -13 178 -15 1112 -15
l1075 0 0 -296 0 -296 133 -244 132 -244 126 0 127 0 51 -80 51 -80 772 0 773
1 49 79 49 80 127 0 126 0 137 238 137 237 -2 308 -3 307 1005 0 1005 0 -3
-295 -3 -295 138 -250 138 -250 126 0 127 0 51 -80 51 -80 772 0 773 0 50 80
50 80 125 0 126 0 137 237 137 238 -1 180 c-1 99 -4 237 -7 308 l-7 127 935 0
935 0 -3 -299 -3 -300 133 -245 133 -245 127 -1 126 0 51 -80 52 -80 772 0
772 0 50 80 50 80 126 0 126 0 137 237 136 236 0 299 0 299 33 -6 c17 -4 561
-122 1207 -264 l1175 -257 3 448 2 448 435 0 435 0 0 -58 c0 -52 4 -64 36
-105 33 -42 41 -47 78 -47 l41 0 119 -176 c65 -96 133 -185 150 -198 17 -13
110 -77 206 -143 l175 -119 200 -71 200 -71 205 -21 c113 -12 209 -21 213 -21
4 0 7 -56 7 -125 l0 -125 1040 0 1040 0 0 135 0 135 170 0 c169 0 173 1 353
45 100 25 197 52 215 60 18 8 36 15 41 15 4 0 19 -35 32 -78 l23 -79 66 -26
c36 -15 73 -27 83 -27 17 0 18 -15 12 -282 -4 -156 -8 -289 -10 -295 -4 -10
55 -13 268 -13 l272 1 110 237 c60 130 130 281 156 336 l46 98 194 -278 c107
-153 203 -288 214 -300 15 -16 70 -35 210 -70 l190 -49 584 -5 584 -5 153
-325 c85 -178 154 -326 154 -327 0 -2 -71 -3 -157 -4 -87 -1 -319 -6 -517 -13
l-358 -11 235 -211 235 -210 329 -112 328 -111 555 -21 c305 -12 555 -22 556
-23 1 -1 170 -399 375 -884 l374 -883 291 0 c160 0 325 3 367 6 l77 7 72 136
c39 75 275 476 524 893 445 743 455 762 617 1105 104 218 214 472 296 680 72
182 131 334 131 337 0 3 -49 6 -110 6 l-110 0 0 470 0 470 115 77 c104 69 114
78 103 95 -7 10 -107 139 -223 288 l-210 269 -178 1 -179 0 7 97 c7 85 15 119
67 258 33 88 63 163 67 168 4 4 18 -4 31 -18 23 -25 25 -25 184 -24 167 0 490
20 501 30 3 3 -4 168 -16 365 l-21 359 -160 730 -159 730 -291 697 -290 696
-401 646 -402 646 -489 586 -489 586 -561 517 -561 517 -600 434 -600 435
-533 298 -533 298 -774 334 -773 334 -679 206 -678 207 -703 154 -703 154
-707 105 -707 104 -715 60 c-697 59 -731 61 -1320 76 -333 8 -681 16 -775 19
-107 3 -386 -6 -755 -24z m7578 -10839 l50 -79 -36 -14 c-28 -11 -47 -30 -75
-76 l-38 -62 22 -70 c16 -48 20 -73 13 -80 -6 -6 -80 -31 -164 -55 -153 -45
-154 -45 -312 -45 l-158 0 0 120 0 120 -1040 0 -1040 0 0 -130 0 -129 -27 4
c-16 3 -100 12 -188 20 -156 16 -164 18 -300 73 -119 48 -163 72 -290 162
-149 104 -150 105 -113 108 30 3 44 12 78 51 36 44 40 54 40 105 l0 56 1764 0
1764 0 50 -79z"/>
</g>
</svg>
