<?xml version="1.0" standalone="no"?>
<!DOCTYPE svg PUBLIC "-//W3C//DTD SVG 20010904//EN"
 "http://www.w3.org/TR/2001/REC-SVG-20010904/DTD/svg10.dtd">
<svg version="1.0" xmlns="http://www.w3.org/2000/svg"
   viewBox="0 0 4448.000000 2240.000000"
 preserveAspectRatio="xMidYMid meet">
<metadata>
Created by potrace 1.16, written by Peter Selinger 2001-2019
</metadata>
<g transform="translate(0.000000,2240.000000) scale(0.100000,-0.100000)"
fill="#000000" stroke="none">
<path d="M31271 22389 c-36 -14 -92 -67 -122 -114 -32 -50 24 -41 -529 -90
-217 -19 -413 -40 -435 -46 -60 -16 -107 -69 -206 -231 -49 -80 -95 -148 -102
-151 -6 -2 -104 -21 -217 -42 l-205 -38 -61 -77 -62 -77 -9 -206 c-4 -113 -10
-207 -13 -209 -3 -2 -63 -1 -135 2 l-130 5 -90 -42 -90 -42 -5 57 -5 56 -80
62 -81 62 -381 17 -381 17 -195 -131 c-108 -72 -201 -139 -207 -150 -5 -11
-10 -32 -10 -47 l0 -27 -71 7 c-41 4 -89 16 -117 29 l-47 23 -545 -27 c-300
-15 -546 -28 -547 -28 -2 -1 -3 -7 -3 -15 0 -8 -7 -16 -15 -20 -11 -4 -15 -21
-15 -60 l0 -55 -67 -3 c-62 -3 -71 -1 -101 25 -32 27 -37 28 -101 21 l-67 -6
-17 80 c-17 79 -19 82 -80 137 -79 73 -114 90 -210 104 -131 19 -164 15 -253
-28 -66 -32 -87 -48 -123 -96 -24 -31 -57 -87 -73 -123 -25 -55 -29 -74 -24
-113 l6 -47 -57 -6 c-32 -3 -125 -8 -206 -12 l-149 -6 -28 27 c-28 27 -31 28
-108 21 l-79 -6 -13 77 c-13 74 -16 81 -69 137 -67 70 -113 95 -206 112 -123
23 -174 18 -263 -22 -70 -31 -85 -43 -124 -97 -25 -34 -60 -91 -77 -125 -30
-60 -32 -67 -21 -114 6 -28 9 -52 8 -54 -2 -1 -95 -7 -208 -13 l-204 -11 -29
27 c-30 29 -62 34 -144 20 l-42 -7 -11 57 c-10 50 -20 66 -68 116 -69 71 -111
94 -209 113 -118 22 -161 19 -250 -21 -65 -30 -86 -45 -120 -90 -65 -83 -111
-183 -106 -226 l5 -36 -164 -7 c-89 -3 -211 -9 -269 -13 l-105 -6 8 79 c5 43
7 84 6 89 -2 7 -182 -1 -523 -22 -286 -17 -537 -32 -557 -32 -27 -1 -38 -5
-38 -16 0 -8 -8 -15 -17 -15 -10 -1 -184 -11 -388 -24 -203 -13 -373 -22 -377
-19 -5 2 -8 16 -8 31 0 22 -26 53 -123 150 -67 67 -128 122 -136 122 -30 0
-1254 -281 -1351 -310 -58 -17 -1194 -339 -2525 -714 l-2420 -683 -550 -250
-550 -249 -14 -40 -14 -41 77 -96 c56 -71 89 -125 122 -201 l46 -104 -158
-329 c-87 -180 -161 -332 -164 -336 -4 -4 -684 -82 -1511 -173 -1202 -131
-1505 -162 -1514 -152 -7 7 -51 63 -99 125 -48 62 -91 115 -96 118 -8 5 -3961
-575 -4025 -590 -14 -3 -53 -65 -126 -197 -59 -106 -113 -196 -120 -200 -13
-7 -4570 -1238 -4583 -1238 -15 0 44 -125 93 -195 31 -44 351 -503 713 -1019
l657 -939 102 -306 c215 -649 316 -903 427 -1084 62 -100 47 -89 304 -206 98
-44 171 -71 192 -71 32 0 38 -5 68 -58 32 -58 33 -59 153 -115 l122 -57 109 0
109 0 109 -283 c175 -453 226 -559 362 -747 63 -88 116 -160 117 -161 1 0 197
-7 436 -14 383 -12 438 -15 467 -31 l34 -19 0 -462 0 -462 53 -19 c28 -11 76
-28 104 -38 51 -18 53 -20 53 -54 0 -28 8 -43 32 -67 30 -28 88 -47 618 -197
367 -104 857 -253 1313 -400 401 -129 730 -236 733 -238 2 -3 7 -32 10 -66 6
-54 10 -62 28 -62 12 -1 340 -27 731 -59 l709 -58 131 104 c80 63 142 105 160
107 17 3 431 30 920 61 l890 56 883 -1 882 0 0 -55 0 -55 230 0 230 0 0 -110
0 -110 1884 0 1884 0 12 -30 12 -30 137 0 136 0 178 -75 c218 -92 200 -82 327
-177 207 -154 346 -346 369 -513 7 -44 14 -92 17 -108 l6 -27 904 0 c596 0
904 -3 904 -10 0 -6 59 -10 158 -10 86 0 194 -3 240 -7 71 -5 82 -8 82 -24 0
-18 13 -19 228 -20 149 0 317 -8 492 -23 l265 -23 -555 -2 -555 -2 -91 -42
c-86 -40 -97 -49 -181 -145 -67 -76 -92 -113 -101 -148 -9 -32 -19 -48 -33
-51 -14 -4 -18 -11 -13 -22 15 -36 14 -62 -5 -189 l-21 -134 38 -63 c23 -41
47 -69 65 -76 74 -31 101 -62 132 -152 l29 -86 86 -12 c129 -18 137 -24 50
-39 -41 -7 -77 -14 -78 -16 -2 -1 40 -135 94 -297 l98 -294 98 -13 c126 -17
143 -34 51 -49 -37 -7 -82 -14 -100 -17 l-32 -6 100 -291 c54 -159 101 -292
103 -295 3 -2 61 -11 129 -20 126 -17 157 -30 157 -63 0 -10 4 -20 9 -23 5 -3
327 -84 716 -181 l708 -174 891 29 c856 27 893 29 939 50 26 12 158 98 293
192 135 93 247 168 250 165 2 -2 51 -119 108 -260 l104 -255 -109 -18 c-61
-10 -115 -21 -120 -25 -7 -4 56 -191 168 -501 l178 -494 240 -35 240 -34 55
-50 c30 -28 79 -67 108 -88 28 -21 52 -47 52 -56 0 -10 -9 -43 -19 -73 l-19
-56 32 -13 33 -14 -25 -82 -25 -83 -38 6 c-37 6 -38 6 -44 -29 -6 -32 -11 -36
-47 -42 -55 -10 -79 -35 -69 -72 14 -48 50 -100 94 -135 37 -30 83 -46 387
-131 196 -55 453 -119 595 -148 248 -51 250 -52 280 -86 l30 -35 345 -59 c190
-32 351 -59 357 -59 9 0 10 -7 3 -25 -8 -22 0 -41 62 -141 l72 -117 203 7
c179 6 203 5 203 -9 0 -11 12 -15 50 -15 38 0 50 4 50 15 0 12 15 15 75 15
l75 0 0 -50 0 -50 122 0 c101 0 136 -4 204 -25 l81 -25 73 25 74 25 748 0 748
0 0 -30 0 -30 105 0 105 0 0 30 0 30 294 0 293 0 47 -36 c46 -35 46 -36 26
-52 -19 -17 -19 -18 41 -97 61 -80 70 -86 100 -59 13 12 27 1 112 -99 53 -61
107 -123 120 -137 17 -20 59 -36 182 -72 l160 -45 52 18 53 18 172 -187 c125
-136 178 -186 192 -185 12 1 574 108 1249 237 l1229 236 266 126 c147 70 272
127 277 127 6 0 191 -89 411 -198 l402 -197 149 87 149 87 538 1418 c297 780
542 1423 546 1430 4 7 54 -8 151 -46 79 -31 193 -74 253 -95 105 -38 110 -39
126 -22 34 36 1203 1636 1225 1677 13 22 186 403 385 845 l362 805 148 770
149 771 40 560 41 561 105 684 105 685 151 395 c147 386 153 399 256 568 l105
172 49 0 c27 0 60 -6 72 -14 15 -9 64 -16 147 -18 114 -5 129 -3 170 17 l45
22 745 -33 c410 -18 764 -33 788 -34 41 0 42 0 42 35 0 33 -2 35 -32 35 -18 0
-368 13 -778 30 l-745 31 -60 29 c-55 27 -70 30 -181 32 -88 2 -126 -1 -137
-11 -9 -7 -25 -11 -36 -9 -17 3 47 112 423 728 372 611 487 809 731 1260 295
546 441 844 792 1620 91 201 166 366 167 367 1 1 29 -4 61 -12 33 -7 60 -13
61 -12 23 29 517 814 523 829 5 13 59 258 121 544 l113 522 -73 418 -73 418
-176 236 -175 237 -1166 561 -1165 561 -1075 456 -1075 457 -960 188 -960 189
-1260 45 c-693 25 -1308 48 -1366 51 l-106 6 -18 -48 -19 -48 -43 93 c-58 125
-118 201 -207 261 -79 54 -143 71 -344 96 -72 9 -107 18 -115 29 -7 9 -84 105
-172 215 -118 148 -170 205 -200 220 -45 23 -47 23 -1575 81 -866 33 -855 33
-889 19z"/>
</g>
</svg>
