<?xml version="1.0" standalone="no"?>
<!DOCTYPE svg PUBLIC "-//W3C//DTD SVG 20010904//EN"
 "http://www.w3.org/TR/2001/REC-SVG-20010904/DTD/svg10.dtd">
<svg version="1.0" xmlns="http://www.w3.org/2000/svg"
   viewBox="0 0 3106.000000 3916.000000"
 preserveAspectRatio="xMidYMid meet">
<metadata>
Created by potrace 1.16, written by Peter Selinger 2001-2019
</metadata>
<g transform="translate(0.000000,3916.000000) scale(0.100000,-0.100000)"
fill="#000000" stroke="none">
<path d="M20140 38604 c-1125 -304 -2061 -558 -2081 -563 -28 -8 -80 -60 -249
-242 l-214 -231 -175 7 -176 7 -2187 -5189 -2186 -5188 33 -170 33 -170 61
-96 62 -95 232 -103 232 -103 1933 7 1932 8 0 -32 c0 -27 -3 -31 -27 -31 -14
0 -344 -90 -733 -200 l-706 -200 -580 0 -581 0 -146 110 -147 110 -738 0 -739
0 -41 30 -41 30 -2138 -125 c-1176 -69 -2139 -125 -2140 -125 -2 0 -3 48 -3
107 l0 106 -182 -6 c-101 -3 -707 -20 -1348 -38 l-1165 -33 -470 77 -470 76
-405 10 c-630 16 -1600 23 -1613 13 -7 -5 -28 -12 -48 -15 -19 -3 -52 -12 -72
-21 -29 -12 -37 -21 -37 -41 0 -23 -3 -25 -37 -20 -21 3 -350 32 -731 66
l-692 61 -183 -97 -182 -97 -498 -918 -498 -919 124 -423 123 -423 374 -269
c844 -605 2126 -1523 2136 -1529 6 -3 463 -63 1014 -132 l1004 -127 125 -105
c70 -59 204 -172 298 -251 95 -80 170 -148 167 -151 -3 -3 -139 -40 -302 -82
l-296 -76 -21 -94 -21 -94 537 -3 c461 -2 538 -4 549 -17 10 -13 56 -15 284
-15 l271 -1 295 -68 295 -68 -2 -201 -2 -200 27 -10 c19 -6 64 -59 144 -169
64 -87 161 -213 216 -279 l99 -120 17 -139 c10 -77 19 -141 21 -143 2 -2 830
-407 1840 -901 l1837 -897 250 -550 c137 -302 255 -554 261 -560 7 -7 113 -35
237 -63 124 -27 267 -60 318 -71 l92 -22 0 -349 0 -349 87 0 c82 0 99 -4 395
-102 l308 -102 0 -111 0 -112 68 -6 c37 -4 144 -7 237 -8 102 0 162 -4 149 -9
-15 -6 -26 -27 -38 -74 l-18 -65 32 -56 c18 -31 30 -58 27 -61 -3 -3 -137 -10
-298 -16 -162 -6 -295 -11 -296 -12 -2 -1 0 -104 4 -229 l6 -227 141 -1 c78
-1 276 -5 441 -8 l300 -6 494 -850 495 -850 1 -60 1 -60 1226 -2080 c1123
-1905 1229 -2081 1259 -2091 29 -10 179 -269 2028 -3510 l1996 -3499 320 -162
320 -162 110 6 110 5 66 -108 65 -109 1680 -337 c923 -185 1687 -337 1697
-338 25 0 22 39 -9 107 -15 32 -93 246 -174 476 l-147 418 65 63 66 64 -88
703 c-48 387 -197 1593 -332 2679 -198 1600 -1414 11771 -1414 11831 0 14 24
9 157 -32 l157 -49 406 0 405 1 625 484 c344 267 631 485 638 485 17 0 2545
-601 2551 -606 3 -2 -44 -398 -104 -878 -59 -481 -105 -882 -102 -890 12 -30
61 -43 182 -48 l121 -5 897 1956 c493 1076 899 1964 903 1974 4 12 1 17 -10
17 -22 0 -20 13 4 35 15 14 29 16 64 12 44 -6 45 -6 91 48 39 46 72 68 216
146 l169 91 0 81 c0 64 -10 119 -44 247 l-43 164 -847 161 -847 160 -248 300
-248 300 -387 64 c-212 36 -391 68 -398 72 -7 5 2 32 31 84 22 42 41 80 41 85
0 4 -58 42 -130 85 -71 43 -130 80 -130 84 1 3 16 35 34 71 l34 64 -27 47
c-23 42 -42 57 -172 133 -80 47 -153 86 -162 86 -9 0 -227 127 -484 283 -409
247 -463 282 -435 285 21 2 32 9 32 19 0 13 103 14 978 8 l979 -8 6 148 c4 82
6 150 4 151 -1 1 -444 5 -984 9 -545 4 -983 11 -983 16 0 5 -147 9 -326 9
l-325 0 -448 271 -448 271 -94 138 -94 139 -795 392 -795 392 -136 137 -136
138 -184 51 c-100 28 -186 54 -189 58 -4 5 -66 481 -139 1058 -72 578 -134
1061 -137 1075 l-5 25 -777 118 c-427 65 -783 118 -790 117 -8 0 -115 -56
-240 -125 l-225 -125 -224 0 -223 0 0 73 0 73 111 22 c62 12 113 23 115 25 2
2 107 653 233 1446 126 794 232 1445 234 1448 3 2 751 16 1664 30 912 14 1733
27 1826 29 l167 5 0 54 c0 54 0 55 -30 55 -28 0 -30 3 -30 36 l0 36 -55 -4
c-30 -1 -55 0 -55 5 0 4 -33 7 -74 7 -41 0 -76 4 -78 8 -1 5 -745 -7 -1652
-25 -907 -18 -1650 -32 -1651 -31 -2 2 271 1724 606 3828 335 2104 609 3846
609 3871 l0 46 -145 5 c-79 2 -147 7 -150 10 -4 3 141 382 320 843 180 460
326 838 324 839 -2 2 -924 -245 -2049 -550z m5380 -16095 l355 -214 -134 -3
-134 -3 -91 55 c-50 29 -107 60 -126 69 -28 11 -56 45 -138 167 -57 84 -100
150 -95 147 4 -2 168 -101 363 -218z m1392 -840 c247 -149 447 -273 445 -275
-2 -2 -83 32 -181 76 -97 44 -181 80 -186 80 -5 0 -18 -15 -27 -33 l-18 -34
-380 229 -380 228 139 0 138 0 450 -271z m-8207 -15110 l280 -61 265 -491
c146 -269 266 -493 268 -497 1 -4 -59 -29 -135 -55 -76 -26 -165 -58 -199 -70
l-61 -23 -219 387 c-120 212 -280 495 -355 629 -76 133 -134 242 -131 242 4 0
133 -27 287 -61z m828 -1493 c136 -29 249 -55 251 -57 9 -10 516 -960 516
-967 0 -7 -351 -134 -357 -129 -1 2 -149 262 -329 578 -179 316 -334 588 -344
605 -16 28 -16 31 -1 28 9 -3 128 -29 264 -58z m795 -1424 l214 -47 283 -530
c156 -291 282 -531 281 -532 -9 -10 -316 -111 -319 -105 -69 118 -710 1249
-714 1259 -4 11 0 13 18 8 13 -3 120 -27 237 -53z"/>
</g>
</svg>
