<?xml version="1.0" standalone="no"?>
<!DOCTYPE svg PUBLIC "-//W3C//DTD SVG 20010904//EN"
 "http://www.w3.org/TR/2001/REC-SVG-20010904/DTD/svg10.dtd">
<svg version="1.0" xmlns="http://www.w3.org/2000/svg"
   viewBox="0 0 4864.000000 2168.000000"
 preserveAspectRatio="xMidYMid meet">
<metadata>
Created by potrace 1.16, written by Peter Selinger 2001-2019
</metadata>
<g transform="translate(0.000000,2168.000000) scale(0.100000,-0.100000)"
fill="#000000" stroke="none">
<path d="M1795 21258 c-984 -230 -1791 -421 -1793 -423 -2 -2 1 -1549 8 -3437
12 -3173 11 -3999 -6 -4835 l-7 -313 95 0 c52 0 129 -3 171 -6 l77 -7 0 -1327
0 -1326 973 -394 c534 -217 988 -395 1007 -397 19 -2 386 57 815 130 655 111
780 130 782 117 1 -8 5 -58 8 -110 l7 -95 61 -37 62 -36 2042 -3 2042 -3 39
44 c33 38 45 66 77 175 21 72 41 134 45 138 5 5 4686 247 4791 247 3 0 22 44
42 98 l37 99 0 176 0 177 83 0 c45 0 377 9 737 20 360 11 658 20 662 20 3 0
15 16 27 35 l20 35 166 0 165 0 0 -25 c0 -29 -45 -17 497 -139 232 -53 441
-96 466 -96 27 0 47 -5 50 -12 2 -7 154 -451 337 -987 323 -941 333 -974 314
-988 -10 -8 -26 -20 -35 -26 -21 -17 -532 -708 -532 -721 0 -9 952 -1284 987
-1324 10 -10 97 20 423 141 226 85 424 162 439 173 15 10 32 23 38 28 7 5 315
-203 861 -584 468 -326 851 -594 853 -595 2 -2 -2 -22 -8 -46 -10 -45 -53
-899 -45 -907 3 -3 175 -53 382 -112 208 -59 405 -115 438 -124 l59 -18 -164
-68 c-91 -38 -165 -71 -165 -74 0 -4 556 -758 625 -848 16 -20 20 -19 328 76
l311 96 201 0 200 0 346 -461 345 -461 -59 -72 -60 -72 328 -595 c181 -327
335 -597 342 -601 7 -4 272 -37 588 -74 316 -37 581 -72 588 -77 7 -6 12 -34
12 -73 l0 -64 1351 0 1351 0 791 -145 790 -145 1316 0 1316 0 320 350 320 350
93 190 93 190 256 0 256 0 66 49 c36 27 91 59 121 71 55 23 60 23 734 27 l680
5 222 204 223 205 458 39 c252 22 461 40 464 40 3 0 22 42 43 94 l37 93 269 9
268 9 17 -60 c9 -33 19 -66 24 -73 9 -15 1550 75 2329 135 l482 38 0 22 0 23
1560 0 1560 0 0 -56 0 -57 345 7 345 8 0 -21 c0 -21 4 -21 193 -21 190 0 194
0 216 24 l22 23 472 7 472 8 31 29 31 30 2129 14 c1171 8 2157 15 2192 15 l62
0 0 50 0 50 -397 1 c-219 0 -780 4 -1248 9 -467 4 -1275 10 -1794 14 l-944 5
-28 27 -28 27 -473 9 c-445 9 -474 11 -494 29 -19 17 -37 19 -217 19 -172 0
-197 -2 -197 -16 0 -14 -36 -14 -345 -8 l-345 7 0 -61 0 -62 -1560 0 -1560 0
0 84 0 83 -67 7 c-38 3 -264 19 -503 36 -521 36 -2229 98 -2239 81 -4 -5 -15
-42 -26 -81 l-20 -72 -65 6 c-36 3 -156 8 -268 12 l-203 6 -36 79 c-20 44 -39
79 -42 79 -3 1 -212 11 -463 24 l-457 24 -221 171 -222 172 -254 6 -254 6 0
178 0 179 -37 75 -37 75 -78 0 c-45 0 -78 4 -78 10 0 6 -42 10 -105 10 l-105
0 0 35 c0 33 -5 39 -71 81 -67 44 -83 49 -362 115 -190 46 -298 76 -308 87 -9
9 -340 400 -734 867 -395 468 -726 859 -737 870 -18 19 -40 21 -441 32 -232 6
-474 12 -537 12 l-115 1 -510 680 -510 679 -342 1 -343 0 0 239 0 240 -107 73
-107 74 -107 624 -107 625 -210 456 -211 457 -232 378 -232 378 -444 490
c-244 270 -465 506 -491 524 l-47 32 642 0 c356 0 643 4 645 9 2 5 29 37 61
71 l59 63 561 18 c309 10 597 18 640 19 l77 0 0 -245 0 -245 70 0 70 0 0 85 0
85 358 1 c1725 4 4364 25 4370 35 5 7 404 15 1280 26 700 9 1276 19 1279 22 4
3 4 8 2 10 -2 2 -578 10 -1279 17 -1044 10 -1277 15 -1285 26 -8 11 -419 16
-2365 28 -1295 7 -2356 14 -2357 14 -2 1 -3 17 -3 36 0 19 1 35 3 36 1 0 168
6 370 13 251 9 371 16 379 24 9 9 285 12 1102 12 1807 0 5436 28 5436 41 0 9
-259 10 -4217 26 -1272 5 -2316 12 -2319 16 -4 4 42 7 102 7 60 0 1131 9 2379
20 l2270 19 20 24 20 24 1845 6 c1489 4 1851 8 1875 18 24 11 379 15 1825 20
2546 9 2320 7 2320 23 0 15 -441 20 -2870 32 -690 4 -1256 10 -1269 15 -13 5
-828 12 -1875 15 l-1851 7 -20 23 -20 24 -1255 10 c-690 6 -1354 12 -1475 13
-121 1 448 5 1265 10 1660 8 2310 16 2310 28 0 5 -447 11 -992 14 -2557 13
-2791 15 -2804 26 -10 8 -278 14 -876 20 -475 5 -953 10 -1063 12 -110 1 612
5 1604 10 993 4 1807 9 1809 12 3 3 3 7 1 10 -3 2 -833 9 -1845 15 -1011 6
-1917 13 -2011 16 l-173 5 0 199 0 200 -69 0 -68 0 -5 -280 c-2 -154 -6 -281
-9 -283 -2 -2 -278 11 -614 29 -335 18 -620 33 -632 33 -15 1 -42 25 -85 80
l-63 80 -1056 0 -1056 1 -158 215 -159 215 -80 1 c-45 0 -382 9 -751 19 l-670
19 -250 51 c-242 49 -263 52 -645 79 l-394 28 -186 -40 -185 -39 -1639 21
c-1597 21 -1640 22 -1667 42 l-28 19 -4 -22 c-2 -13 -5 24 -6 83 -1 105 -1
105 -34 137 l-32 32 -185 2 -185 3 -78 146 -77 146 -267 104 -267 104 175 2
c96 2 671 7 1279 12 828 7 1113 13 1135 22 23 9 863 15 3715 25 2027 7 3911
13 4188 13 l502 1 0 25 0 25 -472 0 c-260 0 -2140 5 -4178 11 -3089 9 -3712
13 -3750 24 -36 12 -300 16 -1370 25 -729 7 -1326 13 -1326 13 -1 1 -5 232 -9
513 l-7 512 113 6 c63 3 1028 12 2144 21 1117 8 2164 18 2328 21 l297 6 0 44
0 44 -47 0 c-27 0 -993 9 -2148 20 -1155 11 -2232 20 -2392 20 l-293 0 0 53 0
54 -466 229 c-256 126 -457 230 -447 232 11 2 27 16 37 32 14 25 24 30 54 30
107 -1 2640 51 2770 56 111 4 152 9 152 18 0 10 -316 14 -1477 20 l-1478 6
-21 24 c-20 22 -26 23 -266 30 l-245 6 -4295 2117 -4294 2116 -17 116 c-9 64
-17 124 -17 134 0 15 15 17 170 17 213 0 220 3 220 81 l0 57 103 6 c56 3 710
15 1452 27 947 16 1352 25 1357 33 4 6 11 17 16 23 6 10 347 18 1487 37 1969
33 2025 35 2025 52 0 8 -1 14 -2 15 -2 0 -790 11 -1752 24 -1577 22 -1750 26
-1767 41 -16 14 -156 18 -1406 35 -763 10 -1416 19 -1450 19 l-63 0 0 165 0
165 -850 0 -850 0 0 -190 c0 -104 -2 -190 -4 -190 -2 0 -470 230 -1040 510
-569 281 -1045 509 -1058 509 -13 -1 -828 -190 -1813 -421z m19994 -8907 c169
-25 266 -32 541 -41 l335 -11 505 -106 505 -105 478 -195 c264 -106 495 -205
515 -219 l37 -25 -1970 7 c-1777 6 -1974 8 -2010 23 -36 14 -168 17 -1239 21
l-1199 5 162 120 162 119 25 86 c14 47 33 108 41 136 15 47 15 58 0 115 -9 35
-14 66 -11 69 3 3 607 10 1342 16 735 6 1391 11 1456 12 86 2 175 -6 325 -27z
m-3512 -494 c-1 -89 -3 -13 -3 168 0 182 2 254 3 162 2 -93 2 -241 0 -330z
m6907 -518 c214 -139 393 -263 424 -293 l53 -51 -28 -7 c-15 -3 -134 -21 -263
-39 -231 -32 -236 -33 -274 -66 -22 -18 -53 -35 -70 -38 -17 -3 -398 -57 -846
-120 l-815 -114 -775 -16 -775 -17 -730 56 c-401 31 -1049 88 -1440 126 -390
38 -938 87 -1217 109 l-507 39 -61 33 -60 34 0 142 0 142 53 5 c28 2 1098 17
2377 31 1279 14 2515 29 2748 32 l422 6 0 39 0 38 -72 1 c-40 0 -860 11 -1823
23 -1642 22 -1707 23 -1057 25 685 1 692 1 692 21 0 20 -7 20 -1223 20 -1183
0 -1647 6 -1647 20 0 4 545 10 1212 14 898 6 1217 11 1233 19 24 14 827 21
2809 25 l1289 2 371 -241z m-10164 -848 c0 -103 3 -209 6 -235 l7 -46 -164 0
-164 0 -26 32 -26 32 -694 22 c-382 13 -715 23 -741 24 l-48 0 0 180 0 180
925 0 925 0 0 -189z m11260 -143 l211 -233 225 -347 225 -348 193 -437 193
-438 163 -545 c90 -300 166 -557 170 -572 7 -22 2 -34 -26 -66 l-34 -40 0
-246 0 -246 -350 0 -350 0 0 55 c0 43 -4 56 -19 65 -13 7 -567 10 -1719 10
l-1700 0 -16 -25 c-9 -13 -16 -42 -16 -65 l0 -40 -109 0 -108 0 -419 -460
-419 -460 -181 0 -181 0 9 51 c5 28 8 52 6 53 -2 2 -352 118 -778 259 l-775
256 -17 -37 c-10 -20 -19 -41 -21 -46 -1 -5 -281 182 -621 414 l-617 423 36
38 37 37 -483 633 c-266 348 -487 637 -491 643 -5 7 -23 3 -54 -12 -25 -13
-48 -22 -49 -20 -1 2 -109 322 -238 713 -176 526 -234 711 -224 717 6 4 29 8
50 8 24 0 37 5 37 13 0 17 819 27 2270 27 554 0 1318 3 1698 7 l692 6 0 24 0
23 -227 1 c-1363 3 -4425 18 -4429 21 -2 3 -7 84 -11 180 l-6 175 51 17 c49
17 64 16 559 -29 279 -25 821 -77 1204 -115 383 -39 1027 -95 1430 -126 l734
-56 795 12 795 12 894 139 895 140 70 -16 c71 -16 71 -16 436 33 201 27 373
50 382 51 10 1 100 -91 228 -231z"/>
</g>
</svg>
