<?xml version="1.0" standalone="no"?>
<!DOCTYPE svg PUBLIC "-//W3C//DTD SVG 20010904//EN"
 "http://www.w3.org/TR/2001/REC-SVG-20010904/DTD/svg10.dtd">
<svg version="1.0" xmlns="http://www.w3.org/2000/svg"
   viewBox="0 0 3973.000000 567.000000"
 preserveAspectRatio="xMidYMid meet">
<metadata>
Created by potrace 1.16, written by Peter Selinger 2001-2019
</metadata>
<g transform="translate(0.000000,567.000000) scale(0.100000,-0.100000)"
fill="#000000" stroke="none">
<path d="M5297 5652 c-11 -12 -17 -36 -17 -65 0 -26 -1 -47 -2 -48 -2 0 -94
-6 -204 -13 -138 -8 -207 -16 -218 -25 -12 -10 -16 -31 -16 -81 l0 -67 -242
-48 c-134 -27 -252 -51 -263 -55 -11 -4 -96 -71 -190 -149 l-169 -141 -132 0
c-144 0 -164 -8 -164 -63 l0 -27 -225 0 -225 0 0 48 c0 89 60 82 -757 82
l-720 0 -21 -23 c-20 -21 -22 -34 -22 -140 l0 -117 -187 0 -188 0 -39 55 c-35
49 -43 55 -75 55 -51 1 -1101 -70 -1128 -76 -17 -3 -23 -11 -23 -29 0 -22 -4
-25 -35 -25 l-35 0 0 -485 0 -485 35 0 c31 0 35 -3 35 -25 0 -14 2 -25 5 -25
2 0 261 -20 574 -45 313 -25 578 -45 588 -45 10 1 36 25 58 55 l40 54 108 1
107 0 0 -260 0 -260 -178 0 c-172 0 -179 -1 -199 -22 -39 -44 -42 -93 -17
-244 13 -77 33 -202 44 -279 17 -114 24 -143 41 -158 20 -16 70 -17 740 -17
l719 0 0 -150 0 -150 -170 0 -170 0 0 -30 0 -30 -65 0 -65 0 0 -780 0 -780 65
0 65 0 0 -35 0 -35 1218 0 1218 0 32 33 c29 30 32 39 32 95 l0 62 103 0 c56 0
428 -7 827 -15 399 -8 751 -15 783 -15 l57 0 0 -63 c0 -53 4 -67 23 -84 22
-21 36 -22 782 -37 418 -9 775 -16 793 -16 l32 0 0 -68 c0 -40 5 -73 12 -80 9
-9 186 -12 735 -12 l723 0 0 -38 c0 -78 -76 -72 976 -72 718 0 943 3 952 12 7
7 12 31 12 55 l0 43 153 0 c190 0 187 -2 187 123 l0 87 63 0 c34 1 463 11 952
24 490 13 892 22 894 20 2 -2 -24 -77 -58 -168 -33 -91 -61 -174 -61 -186 0
-17 6 -20 49 -20 l50 0 -15 -35 c-7 -19 -14 -53 -14 -75 0 -34 3 -40 21 -40
17 0 8735 413 13589 643 871 42 907 44 935 64 29 21 63 23 992 65 891 39 963
41 980 26 17 -15 82 -13 898 26 766 36 884 44 910 59 44 25 1124 75 1158 53
19 -12 62 -12 307 0 604 29 4930 234 4952 234 30 0 58 53 58 111 l0 40 -112
-6 c-172 -9 -1659 -65 -1728 -65 l-60 0 40 112 c22 61 41 113 43 114 1 1 427
7 947 13 520 6 1090 14 1267 17 l322 6 16 48 c9 27 13 59 9 74 l-6 26 -1409 0
-1409 0 0 23 c0 13 5 28 12 35 9 9 335 12 1404 12 l1392 0 6 26 c4 14 4 75 0
135 l-7 109 -171 0 c-94 0 -578 5 -1076 11 l-905 11 -102 66 c-86 56 -103 72
-107 97 -8 48 -28 326 -24 330 1 1 296 -10 653 -25 358 -15 653 -25 658 -23 4
2 7 24 7 49 l0 44 49 0 c26 0 69 -3 94 -6 l46 -7 3 -46 3 -46 104 -3 c115 -3
121 0 121 56 0 30 2 32 34 32 18 0 61 -3 95 -6 l61 -7 0 -43 c0 -24 1 -44 3
-44 12 -2 695 -30 735 -30 l52 0 0 64 c0 35 -3 84 -6 110 l-7 46 -48 0 -49 0
0 38 c0 20 -4 42 -8 48 -5 8 -1341 87 -4142 246 -3745 213 -4137 234 -4161
220 -24 -14 -81 -12 -555 14 l-529 29 -3 50 c-1 28 2 56 6 63 7 11 320 -10
1693 -112 926 -69 1712 -129 1747 -132 l62 -6 0 41 c0 34 -4 41 -22 45 -22 5
-9946 747 -9979 746 -13 0 -15 9 -11 53 3 39 0 56 -11 65 -21 18 -3344 266
-3374 253 -20 -9 -23 -18 -23 -61 0 -48 -1 -50 -27 -50 -16 1 -401 29 -857 63
-523 40 -831 67 -833 74 -2 6 -17 32 -34 58 l-30 48 -667 -6 -667 -5 -1200 89
c-660 48 -1224 91 -1252 94 -49 5 -53 4 -53 -16 0 -21 -2 -21 -132 -14 -73 3
-141 9 -150 11 -14 4 -18 -1 -18 -18 l0 -23 1128 -83 c620 -46 1145 -87 1168
-90 l41 -7 -36 -76 -36 -75 -1410 86 c-1018 63 -1412 84 -1418 76 -8 -11 -4
-119 9 -293 l7 -83 -68 0 c-37 0 -179 5 -314 11 l-246 11 -80 86 c-44 48 -98
106 -120 128 l-40 41 -160 7 c-88 4 -175 10 -192 13 l-33 5 0 119 0 119 70 0
c63 0 70 2 70 20 0 19 7 20 218 21 119 1 260 5 312 9 l95 7 -140 1 c-77 1
-218 5 -312 9 -159 6 -173 8 -173 25 0 16 -9 18 -70 18 l-70 0 0 60 0 60 -54
0 c-59 0 -59 -1 -72 73 l-6 37 236 0 236 0 0 48 c0 43 -7 57 -73 149 -40 55
-91 121 -114 147 l-41 46 -875 0 -875 0 -12 35 -12 35 -306 0 -307 0 -85 85
-85 85 -121 0 -121 0 -23 50 -23 50 -1084 0 -1083 0 0 35 0 35 -1188 0 c-1139
0 -1190 -1 -1205 -18z m13998 -1482 c292 -22 536 -40 544 -40 11 0 13 -20 7
-112 l-7 -113 -49 -49 -49 -50 -413 22 c-227 13 -441 25 -474 28 l-62 6 -80
180 -81 179 67 -6 c37 -3 306 -24 597 -45z"/>
</g>
</svg>
