<?xml version="1.0" standalone="no"?>
<!DOCTYPE svg PUBLIC "-//W3C//DTD SVG 20010904//EN"
 "http://www.w3.org/TR/2001/REC-SVG-20010904/DTD/svg10.dtd">
<svg version="1.0" xmlns="http://www.w3.org/2000/svg"
   viewBox="0 0 3288.000000 921.000000"
 preserveAspectRatio="xMidYMid meet">
<metadata>
Created by potrace 1.16, written by Peter Selinger 2001-2019
</metadata>
<g transform="translate(0.000000,921.000000) scale(0.100000,-0.100000)"
fill="#000000" stroke="none">
<path d="M7204 9123 l-212 -84 -749 -707 c-412 -389 -756 -713 -765 -719 -22
-19 -1013 63 -2563 211 -715 69 -1301 123 -1303 121 -10 -10 -21 -451 -28
-1107 l-7 -746 -41 -108 -41 -108 -135 -118 -135 -117 -360 0 -360 -1 -60 90
-60 89 -100 1 -101 0 -78 -111 c-43 -61 -83 -127 -89 -147 -14 -49 -22 -3376
-9 -3669 l10 -212 83 -121 84 -121 35 5 c19 3 65 6 101 6 l65 0 59 85 58 85
362 0 363 0 131 -106 c84 -66 148 -128 177 -166 l44 -60 0 -352 c0 -239 5
-392 15 -480 8 -71 16 -129 17 -130 3 -2 343 9 560 18 l148 6 47 -66 48 -66
215 -109 215 -109 2517 0 2518 0 112 104 c62 57 207 183 321 279 l208 176 62
6 c34 3 472 35 972 70 881 62 971 71 2805 260 l1895 195 1835 321 c1881 328
3564 626 3833 679 84 16 229 43 322 60 94 17 179 32 191 35 11 3 37 29 57 60
21 31 46 57 59 60 84 19 3254 602 3673 675 286 50 723 131 970 181 551 111
1765 394 2604 609 343 87 628 157 632 154 4 -2 10 -17 14 -33 l6 -29 62 19
c34 11 454 127 932 259 l870 240 892 344 893 343 389 279 c324 231 386 280
364 282 l-26 4 28 18 28 18 -34 6 c-19 3 -242 33 -496 66 l-463 60 -1370 0
-1369 0 -35 -54 -34 -54 -519 -7 c-285 -4 -1035 -5 -1666 -3 l-1148 5 -59
-117 -59 -117 -173 -6 c-95 -4 -239 -7 -319 -7 l-146 0 -30 83 -31 82 -158 -3
-159 -3 -81 -80 -80 -80 -340 16 c-186 9 -362 18 -391 21 l-52 5 -53 95 c-34
61 -60 96 -73 99 -11 2 -767 67 -1680 145 -913 77 -1674 143 -1691 146 -29 4
-35 12 -60 72 -15 37 -30 70 -33 74 -6 7 -751 101 -756 96 -2 -2 -29 -50 -61
-107 -32 -56 -62 -105 -68 -107 -6 -2 -347 33 -757 79 l-746 83 -134 136 -134
136 -1580 176 c-1373 153 -1833 200 -3510 356 -1061 99 -2166 204 -2455 233
l-525 52 -5 931 -5 932 -48 51 -48 51 -917 -1 -917 -1 -211 -85z"/>
</g>
</svg>
