<?xml version="1.0" standalone="no"?>
<!DOCTYPE svg PUBLIC "-//W3C//DTD SVG 20010904//EN"
 "http://www.w3.org/TR/2001/REC-SVG-20010904/DTD/svg10.dtd">
<svg version="1.0" xmlns="http://www.w3.org/2000/svg"
   viewBox="0 0 3444.000000 947.000000"
 preserveAspectRatio="xMidYMid meet">
<metadata>
Created by potrace 1.16, written by Peter Selinger 2001-2019
</metadata>
<g transform="translate(0.000000,947.000000) scale(0.100000,-0.100000)"
fill="#000000" stroke="none">
<path d="M1810 9452 c0 -17 -14 -19 -167 -25 -91 -4 -498 -7 -905 -7 -575 0
-738 -3 -738 -12 0 -7 52 -188 115 -403 63 -214 143 -489 178 -610 l65 -220
133 -5 c125 -5 134 -6 137 -25 2 -13 43 -48 112 -95 l109 -75 110 -323 c82
-239 117 -358 137 -460 14 -75 38 -182 54 -237 15 -55 35 -126 44 -157 l17
-58 713 0 714 0 26 -62 c14 -35 52 -126 84 -203 48 -114 63 -141 80 -143 22
-3 22 -5 22 -233 l0 -229 40 0 40 0 0 -45 0 -45 120 0 120 0 0 45 0 45 95 0
95 0 0 -1285 0 -1285 395 0 c344 0 395 -2 395 -15 0 -13 106 -15 890 -15 l890
0 0 -155 0 -155 1888 0 1887 0 565 239 565 238 3 232 2 231 1186 0 1186 0 154
93 153 92 1 48 0 47 970 0 c856 0 970 -2 970 -15 0 -13 22 -15 138 -15 l137 0
494 -240 494 -240 207 0 c197 0 208 1 226 21 39 43 50 43 130 2 l74 -38 0
-137 0 -138 325 0 325 0 0 -140 0 -140 974 0 974 0 4 -40 4 -40 -900 0 -899 0
-42 -39 c-26 -24 -39 -43 -33 -49 5 -5 -46 -60 -131 -140 l-141 -132 -279 0
-280 0 -5 -33 c-6 -36 -206 -2570 -206 -2604 l0 -23 353 0 352 1 594 619 c549
573 596 619 611 605 14 -13 48 -16 168 -18 l150 -2 596 610 595 610 1 478 0
477 155 0 155 0 0 320 0 320 230 0 230 0 0 25 0 25 895 0 c590 0 895 -3 895
-10 0 -6 63 -10 170 -10 107 0 170 4 170 10 0 7 430 10 1270 10 840 0 1270 -3
1270 -10 0 -6 63 -10 170 -10 107 0 170 4 170 10 0 6 91 10 253 10 l252 0 510
230 510 229 3 51 c2 27 5 50 7 50 1 0 143 -68 314 -150 l311 -150 1315 0 1315
0 560 55 c488 48 667 72 828 110 22 5 23 8 16 75 -4 47 -2 85 6 116 l13 46
816 -2 816 -2 170 44 170 44 3 37 3 37 -40 0 c-32 0 -41 4 -41 18 0 9 11 114
25 232 24 209 29 315 16 374 -5 27 -16 33 -113 69 -104 38 -108 40 -102 66 15
75 82 44 -694 325 l-707 256 -505 120 -505 119 -351 29 -350 29 -82 47 -81 46
-433 0 -433 0 -710 64 c-400 36 -712 60 -715 55 -4 -5 -16 -51 -28 -102 l-23
-93 -665 -70 -665 -69 -49 -42 -48 -43 -254 -1 -253 0 -785 -133 -785 -132 -3
-32 -3 -32 -1160 0 c-1122 0 -1159 1 -1159 19 0 20 -189 103 -961 420 l-415
171 -122 0 -122 0 -186 70 -187 70 -1300 0 c-1104 0 -1301 2 -1311 14 -6 8
-220 100 -476 205 l-465 191 -607 0 -607 0 -601 190 -601 190 -1183 0 -1183 0
-249 108 -249 108 -3 150 -3 149 -422 118 -422 118 -1147 -1 -1148 0 0 -145 0
-145 -145 0 -145 0 0 250 0 250 -465 0 -465 0 0 150 0 150 -519 0 -518 0 -68
55 -67 55 -193 0 -193 0 -279 76 c-219 59 -282 80 -295 97 -14 18 -18 44 -18
143 l0 121 -60 7 c-33 4 -62 11 -65 16 -4 6 -57 10 -118 10 -62 0 -231 11
-377 25 -229 21 -318 25 -657 25 -386 0 -393 0 -393 20 0 19 -7 20 -140 20
-133 0 -140 -1 -140 -20 0 -11 -7 -20 -15 -20 -8 0 -15 9 -15 19 0 27 -68 32
-350 27 -124 -2 -289 -4 -367 -5 -136 -1 -143 -2 -143 -21 0 -19 -7 -20 -257
-20 -142 0 -268 3 -280 6 -14 4 -23 14 -23 25 0 17 -9 19 -95 19 -86 0 -95 -2
-95 -18z m13668 -4894 c2 -157 2 -158 -20 -162 -13 -3 -439 -7 -948 -10 l-924
-6 44 48 c25 26 99 102 165 170 l120 122 780 -2 780 -3 3 -157z m11930 110
l-3 -52 -375 -173 -375 -173 -202 0 c-129 0 -203 4 -203 10 0 6 -18 10 -40 10
l-40 0 0 90 0 90 98 0 c96 1 103 3 497 125 l400 123 123 1 123 1 -3 -52z
m-11271 -248 l412 -183 3 -81 3 -81 182 -95 183 -95 -74 -3 -74 -3 -526 248
c-289 136 -526 254 -526 261 0 6 -4 12 -10 12 -6 0 -10 42 -10 106 0 81 3 105
13 101 6 -3 197 -87 424 -187z m6953 -40 l0 -90 -29 0 c-16 0 -31 -5 -33 -10
-2 -7 -286 -9 -841 -8 l-838 3 118 98 118 97 752 0 753 0 0 -90z m2900 0 l0
-90 -40 0 c-22 0 -40 -4 -40 -10 0 -7 -430 -10 -1270 -10 -840 0 -1270 3
-1270 10 0 6 -11 10 -25 10 -25 0 -25 1 -25 90 l0 90 1335 0 1335 0 0 -90z
m-5830 -1960 c0 -76 -1 -80 -22 -80 -16 0 -51 -29 -113 -95 l-90 -95 -65 -6
-65 -7 174 181 c96 100 176 182 177 182 2 0 4 -36 4 -80z"/>
</g>
</svg>
