<?xml version="1.0" standalone="no"?>
<!DOCTYPE svg PUBLIC "-//W3C//DTD SVG 20010904//EN"
 "http://www.w3.org/TR/2001/REC-SVG-20010904/DTD/svg10.dtd">
<svg version="1.0" xmlns="http://www.w3.org/2000/svg"
   viewBox="0 0 4748.000000 2555.000000"
 preserveAspectRatio="xMidYMid meet">
<metadata>
Created by potrace 1.16, written by Peter Selinger 2001-2019
</metadata>
<g transform="translate(0.000000,2555.000000) scale(0.100000,-0.100000)"
fill="#000000" stroke="none">
<path d="M31220 25390 l0 -160 -90 0 -90 0 0 -35 0 -35 -352 0 c-194 0 -809 5
-1366 10 l-1012 10 -194 -135 -195 -135 -763 0 -763 0 -845 -157 -845 -156
-1912 -1506 -1912 -1506 -3 -47 -3 -47 -2346 -1849 c-1290 -1017 -2350 -1852
-2356 -1855 -6 -4 -751 -117 -1655 -252 -904 -134 -1657 -247 -1674 -250 -23
-4 -412 -319 -1410 -1140 l-1378 -1135 -1208 0 -1208 0 0 -184 0 -183 -57 -12
c-478 -95 -2289 -476 -2293 -482 -3 -4 -30 -9 -60 -11 l-54 -3 -18 -110 c-9
-60 -17 -111 -17 -112 -1 -2 -50 -3 -111 -3 l-110 0 0 -57 0 -56 -97 6 c-54 4
-151 7 -215 7 l-118 0 0 298 0 299 -397 6 c-219 4 -698 7 -1065 7 l-668 0 0
-70 c0 -49 -4 -70 -12 -70 -7 0 -84 -11 -171 -25 -87 -14 -163 -25 -168 -25
-5 0 -9 41 -9 90 0 75 -3 90 -16 90 -8 0 -452 -68 -986 -150 -534 -83 -974
-150 -978 -150 -8 0 -24 -4689 -17 -4697 3 -2 452 -75 999 -162 l993 -157 3
395 2 394 68 -6 c37 -4 115 -7 175 -7 l107 0 0 -390 0 -390 800 0 800 0 0 390
0 390 310 0 310 0 0 -45 0 -45 175 0 175 0 0 -160 0 -160 2955 0 2955 0 0 -35
0 -35 -50 0 -50 0 0 -325 0 -325 50 0 50 0 0 -430 0 -431 177 -424 178 -425
515 0 515 0 65 84 c36 47 67 85 70 85 3 1 203 -298 445 -664 l439 -665 1203 0
1203 0 0 -726 0 -726 617 -1482 617 -1483 1335 -6 c734 -4 1861 -8 2505 -8
644 -1 1422 -5 1729 -8 l559 -6 62 -165 c49 -132 88 -212 193 -395 l130 -230
556 -5 c306 -3 559 -9 563 -13 6 -5 42 -497 44 -589 l0 -28 124 0 123 0 7 228
c3 125 9 264 13 310 l6 82 103 0 103 0 3 432 c2 238 7 441 12 450 8 17 44 18
555 18 l546 0 132 327 131 328 378 5 378 5 435 1051 436 1050 3 -93 c4 -126
22 -120 22 7 l0 100 230 0 230 0 0 -100 c0 -60 4 -100 10 -100 6 0 10 40 10
100 l0 100 235 0 235 0 0 -100 c0 -60 4 -100 10 -100 6 0 10 40 10 100 l0 100
85 0 c64 0 85 3 85 13 0 11 100 15 547 20 l547 7 278 -185 278 -185 410 0 410
0 0 190 0 190 218 3 217 2 -217 3 -218 2 0 120 0 120 305 0 c264 0 305 2 305
15 0 13 49 15 380 15 l380 0 0 -151 c0 -142 1 -151 20 -156 19 -5 20 -14 20
-213 0 -200 -1 -209 -20 -215 -18 -6 -20 -15 -20 -98 l0 -92 60 -38 60 -37
293 0 294 0 64 130 c46 96 69 132 85 136 16 4 44 53 119 211 83 175 95 207 82
215 -14 7 -5 30 56 158 l72 149 226 1 227 0 6 -22 c3 -13 6 -45 7 -73 1 -30 3
-38 6 -20 2 17 6 49 9 73 l5 42 165 0 164 0 0 -151 c0 -142 1 -151 20 -156 19
-5 20 -14 20 -213 0 -200 -1 -209 -20 -215 -18 -6 -20 -15 -20 -98 l0 -92 60
-38 60 -37 293 0 293 0 64 130 c47 95 71 132 86 136 16 4 44 55 119 211 81
172 94 208 82 215 -13 7 -4 32 56 158 l72 149 1408 1 1407 0 0 -464 0 -464
-65 -18 -65 -19 0 -436 0 -436 437 -6 c240 -4 738 -7 1108 -7 l671 0 85 34 84
34 545 901 545 901 144 0 143 0 463 -150 c255 -82 467 -150 472 -150 9 0 44
106 348 1033 l176 537 149 126 c82 69 151 133 154 142 3 10 28 152 56 317 27
165 52 310 55 322 l5 23 1183 0 1182 0 78 78 c42 42 77 82 77 88 0 7 85 25
205 45 l205 33 0 73 0 72 -32 6 c-18 3 -109 19 -202 34 -107 18 -171 33 -177
42 -7 12 26 15 204 19 l212 6 -220 2 -221 2 -64 65 -64 65 -401 0 c-220 0
-394 4 -388 8 15 10 -100 126 -134 136 -12 4 -36 24 -54 44 l-33 37 -185 3
c-123 2 -200 -1 -228 -9 -40 -11 -43 -14 -43 -45 0 -19 5 -34 10 -34 6 0 10
-28 10 -64 0 -49 -4 -65 -16 -70 -9 -3 -122 -6 -252 -5 -130 0 -231 3 -223 6
9 4 -7 26 -50 69 -35 35 -68 64 -74 64 -6 0 -28 18 -50 40 -24 25 -52 42 -73
46 -33 6 -34 8 -28 43 9 53 106 721 106 731 0 4 -144 128 -319 276 l-319 269
-484 120 -483 121 -3 106 -3 106 -57 10 c-31 5 -479 83 -994 172 l-937 163
-968 -192 c-532 -106 -978 -195 -991 -198 -31 -7 -128 -200 -294 -582 -119
-275 -128 -299 -128 -358 l0 -63 -85 0 c-67 0 -83 3 -79 14 8 21 -47 26 -316
27 -135 1 -357 5 -494 8 l-249 6 -32 121 c-23 86 -45 142 -75 193 -41 68 -48
75 -121 112 l-79 39 -1205 0 -1205 0 0 380 c0 355 1 380 18 380 33 0 2697 211
2720 216 l22 4 0 315 0 314 -392 1000 -393 1001 -1726 0 -1726 0 -6 512 c-4
281 -7 598 -7 705 l0 193 -482 1 -483 0 103 41 102 40 0 99 c0 92 1 99 20 99
20 0 20 7 20 569 0 313 -4 571 -8 573 -6 2 26 2547 32 2554 1 1 238 4 529 7
l527 6 0 -79 0 -80 55 0 54 0 4 -72 3 -73 2 73 2 72 140 0 139 0 4 -72 3 -73
2 73 2 72 145 0 144 0 4 -72 3 -73 2 73 2 72 305 0 305 0 0 50 0 50 690 0
c453 0 690 3 690 10 0 7 820 10 2440 10 l2440 0 0 30 0 30 -2440 0 -2440 0 0
60 0 60 -690 0 -690 0 0 65 0 65 -305 0 -304 0 -4 103 -3 102 -2 -102 -2 -103
-145 0 -144 0 -4 103 -3 102 -2 -102 -2 -103 -140 0 -140 0 0 100 c0 60 -4
100 -10 100 -6 0 -10 -40 -10 -100 l0 -100 -50 0 c-43 0 -50 -3 -50 -20 0 -20
-7 -20 -457 -20 -252 0 -488 3 -525 7 l-68 6 0 378 0 379 -285 0 c-157 0 -285
3 -285 8 0 4 11 97 25 207 14 110 25 228 25 261 l0 62 -67 10 c-38 5 -186 27
-330 48 l-263 39 0 1207 0 1208 23 5 c12 2 150 25 307 50 157 25 295 47 308
50 22 5 22 6 22 223 l0 217 75 -3 75 -4 0 991 0 991 435 0 435 0 0 80 0 80
1125 0 c993 0 1125 2 1125 15 0 13 449 15 3985 15 l3985 0 0 45 0 45 -3985 0
-3985 0 0 105 0 105 -1125 0 -1125 0 0 105 0 105 -500 0 -500 0 0 160 c0 100
-4 160 -10 160 -6 0 -10 -60 -10 -160 l0 -160 -235 0 -235 0 0 160 c0 100 -4
160 -10 160 -6 0 -10 -60 -10 -160 l0 -160 -230 0 -230 0 0 160 c0 100 -4 160
-10 160 -6 0 -10 -60 -10 -160z m3467 -20077 c-4 -38 -7 -114 -7 -170 l0 -103
-60 0 c-33 0 -60 -4 -60 -10 0 -5 -25 -10 -55 -10 -30 0 -55 -4 -55 -10 0 -7
-233 -10 -680 -10 l-680 0 0 -30 c0 -25 -4 -30 -25 -30 l-25 0 0 -110 0 -110
-380 0 -380 0 0 100 0 100 -305 0 -305 0 0 230 0 230 1511 0 1512 0 -6 -67z
m1393 -88 l0 -155 711 0 c632 0 710 -2 699 -15 -11 -13 -174 -15 -1389 -13
l-1376 3 -12 140 c-6 77 -12 152 -12 168 l-1 27 690 0 690 0 0 -155z m2808
149 c22 -6 22 -8 22 -178 l0 -171 65 -19 65 -18 0 -134 0 -134 -560 0 -560 0
0 210 0 210 -60 0 c-53 0 -60 2 -60 20 0 20 -7 20 -700 20 l-700 0 0 100 0
100 1233 0 c677 0 1242 -3 1255 -6z m-4330 -515 c2 -5 30 -9 63 -9 l59 0 0
-65 0 -65 -205 0 -205 0 41 81 40 81 102 -7 c56 -4 104 -11 105 -16z m482 -74
l0 -65 -160 0 -160 0 0 58 c0 32 3 62 7 65 3 4 75 7 160 7 l153 0 0 -65z
m2500 0 l64 -65 -667 0 -667 0 32 65 32 65 571 0 571 0 64 -65z m-7371 -364
l84 -56 -524 -3 c-360 -1 -525 1 -527 8 -3 7 -32 9 -88 4 l-84 -7 0 37 0 36
500 0 500 0 0 36 0 36 28 -18 c15 -9 65 -43 111 -73z m-1649 -16 l0 -35 -225
0 -225 0 11 26 c5 15 12 31 15 35 3 5 99 9 215 9 l209 0 0 -35z m490 0 l0 -35
-235 0 -235 0 0 35 0 35 235 0 235 0 0 -35z"/>
</g>
</svg>
