<?xml version="1.0" standalone="no"?>
<!DOCTYPE svg PUBLIC "-//W3C//DTD SVG 20010904//EN"
 "http://www.w3.org/TR/2001/REC-SVG-20010904/DTD/svg10.dtd">
<svg version="1.0" xmlns="http://www.w3.org/2000/svg"
   viewBox="0 0 4608.000000 957.000000"
 preserveAspectRatio="xMidYMid meet">
<metadata>
Created by potrace 1.16, written by Peter Selinger 2001-2019
</metadata>
<g transform="translate(0.000000,957.000000) scale(0.100000,-0.100000)"
fill="#000000" stroke="none">
<path d="M43973 9471 l-233 -96 0 -52 0 -53 -102 0 c-57 0 -472 -7 -923 -15
-451 -9 -1872 -29 -3157 -44 l-2337 -29 -29 -33 c-17 -19 -262 -297 -546 -619
l-515 -585 -1 -127 0 -128 -156 0 -156 0 -100 105 c-83 87 -105 105 -129 105
-17 0 -47 9 -69 20 -22 11 -55 20 -75 20 l-35 0 0 55 c0 49 3 56 28 68 15 8
53 18 85 21 l57 7 0 139 0 139 -56 60 -56 61 -263 0 -262 0 -27 40 -26 40
-106 0 c-74 0 -114 4 -134 15 -25 13 -76 15 -317 13 l-288 -3 -3 -22 c-3 -23
-6 -23 -142 -23 -136 0 -139 0 -142 23 l-3 22 -389 3 -388 2 -34 -30 c-19 -16
-41 -30 -49 -30 -41 0 -115 -23 -115 -36 0 -18 -26 -18 -37 0 -7 11 -34 9
-158 -13 l-150 -27 -3 -72 -3 -72 76 0 75 0 0 -45 0 -45 -970 0 -971 0 -112
-46 c-62 -25 -117 -52 -123 -60 -9 -11 -42 -14 -147 -14 -75 0 -146 -5 -159
-10 -18 -8 -961 -100 -1023 -100 -12 0 -15 -17 -15 -85 l0 -85 -115 0 c-70 0
-115 -4 -115 -10 0 -13 -237 -13 -245 0 -3 6 -48 10 -101 10 -56 0 -94 -4 -94
-10 0 -13 -237 -13 -245 0 -8 13 -195 13 -195 0 0 -13 -237 -13 -245 0 -3 6
-47 10 -98 10 l-92 -1 -40 -59 -40 -60 -66 0 c-66 0 -66 0 -75 33 l-10 32
-117 3 -117 3 0 -36 0 -35 -515 0 -515 0 0 35 0 35 -60 0 c-59 0 -60 0 -68
-32 l-8 -33 -137 -3 -137 -3 0 71 0 70 -165 0 c-118 0 -174 -4 -193 -13 -36
-18 -222 -1 -222 20 0 10 -25 13 -112 13 -135 0 -1088 102 -1164 125 -28 8
-87 15 -132 15 l-82 0 0 30 0 30 -265 0 -265 0 0 703 c-1 568 -3 705 -14 720
-12 16 -51 17 -568 17 -542 0 -555 0 -573 20 -17 19 -31 20 -291 20 -263 0
-274 -1 -286 -20 -11 -17 -24 -20 -83 -20 l-70 0 -359 -255 -360 -255 -631 0
-631 0 -101 70 -101 70 -84 0 c-52 0 -89 -5 -96 -12 -7 -7 -12 -38 -12 -70 l0
-58 -76 0 -76 0 -100 70 -100 71 -91 -3 -92 -3 -3 -67 -3 -68 -77 0 -77 0 -99
70 -100 70 -86 0 c-54 0 -91 -5 -98 -12 -7 -7 -12 -38 -12 -70 l0 -58 -88 0
-89 0 -724 -389 c-398 -213 -725 -387 -726 -387 -1 1 -7 33 -13 71 -19 128 -4
115 -135 115 l-115 0 0 -40 0 -40 -515 0 -515 0 0 39 0 39 -60 4 c-33 1 -60 2
-60 1 0 -6 -31 -232 -36 -261 l-5 -32 -394 0 -395 0 -32 36 -33 35 -180 12
-180 12 -3 163 -2 162 350 0 350 0 0 43 c0 39 -5 48 -58 98 -31 31 -98 90
-148 132 l-91 77 -244 11 c-241 11 -1594 6 -1721 -7 -55 -6 -62 -10 -175 -105
-158 -133 -183 -162 -183 -211 l0 -38 345 0 345 0 0 -163 0 -164 -176 -11
c-161 -9 -178 -12 -200 -33 -13 -12 -24 -28 -24 -36 0 -11 -83 -13 -452 -13
-397 0 -1347 -18 -1854 -35 l-170 -5 4 34 c5 40 93 25 -678 115 l-595 69 -486
7 c-482 7 -486 7 -501 -13 -13 -19 -39 -22 -361 -46 -191 -14 -358 -26 -370
-26 -14 0 -101 67 -241 185 l-218 185 -959 0 -959 0 -2 -272 -3 -273 -1735
-127 c-954 -70 -1741 -127 -1747 -127 -7 -1 -13 -14 -13 -30 l0 -28 -82 -6
c-46 -4 -102 -7 -125 -7 -24 0 -43 -3 -43 -7 0 -5 -32 -194 -71 -420 -39 -227
-69 -419 -66 -427 3 -7 630 -557 1394 -1222 763 -664 1420 -1236 1458 -1270
l71 -63 629 -164 c347 -91 1268 -324 2049 -517 l1419 -352 76 -49 76 -49 340
0 340 0 300 -300 300 -300 -372 -2 -372 -3 77 -82 77 -82 430 -51 430 -50 863
0 c691 0 862 -3 862 -13 0 -7 37 -49 83 -95 82 -82 83 -82 135 -82 40 0 52 -4
52 -15 0 -13 33 -15 240 -15 207 0 240 2 240 15 0 12 17 15 89 15 l90 0 47 55
c48 55 48 55 106 55 l58 0 0 -120 0 -120 -60 0 -60 0 0 -365 0 -365 180 0 180
0 0 365 0 365 -60 0 -60 0 0 120 0 120 160 0 160 0 0 -120 0 -120 -60 0 -60 0
0 -365 0 -365 185 0 185 0 0 365 0 365 -65 0 -65 0 0 120 0 120 165 0 165 0 0
-120 0 -120 -65 0 -65 0 0 -365 0 -365 185 0 185 0 0 365 0 365 -65 0 -65 0 0
120 0 120 165 0 165 0 0 -120 0 -120 -60 0 -60 0 0 -365 0 -365 180 0 180 0 0
365 0 365 -60 0 -60 0 0 120 0 120 168 0 167 0 82 83 c49 49 83 92 85 107 2
19 9 10 27 -42 l25 -68 1030 0 1031 -1 151 -237 c83 -130 184 -287 224 -349
l72 -112 -87 -121 -87 -120 -192 0 -191 0 -34 52 -34 52 -51 -57 -51 -58 -317
1 -318 0 0 -70 c0 -56 3 -70 15 -70 10 0 15 -10 15 -34 0 -32 8 -40 109 -115
l108 -81 300 0 299 0 53 -76 53 -76 -36 -52 -35 -52 59 -144 c33 -80 60 -149
60 -153 0 -5 -25 -41 -55 -80 -30 -39 -55 -74 -55 -78 0 -5 36 -60 81 -124
l80 -115 567 0 567 1 128 149 129 150 148 0 148 0 26 71 c14 38 26 72 26 74 0
3 -104 6 -231 7 l-231 3 185 255 184 255 475 3 476 2 352 -191 c194 -105 361
-194 371 -196 13 -4 20 -19 25 -50 7 -48 16 -60 69 -93 31 -19 43 -21 115 -14
76 6 80 8 80 30 l0 24 255 0 255 0 0 -260 0 -260 836 0 836 0 342 176 341 177
2067 -2 2066 -3 281 134 280 133 1 158 0 157 3372 0 3371 0 676 -132 676 -133
640 3 c588 2 806 9 2695 82 1130 43 3072 111 4315 151 1243 40 2261 72 2261
73 1 1 4 272 7 603 l5 603 -974 940 c-536 518 -974 944 -974 948 0 4 628 389
1395 856 l1395 848 0 869 0 869 130 230 130 229 0 671 0 670 -205 0 -205 0 0
130 0 130 -732 -1 -733 -1 -232 -97z m-30933 -1086 l0 -155 -295 0 -295 0 0
155 0 155 295 0 295 0 0 -155z"/>
</g>
</svg>
