<?xml version="1.0" standalone="no"?>
<!DOCTYPE svg PUBLIC "-//W3C//DTD SVG 20010904//EN"
 "http://www.w3.org/TR/2001/REC-SVG-20010904/DTD/svg10.dtd">
<svg version="1.0" xmlns="http://www.w3.org/2000/svg"
   viewBox="0 0 3218.000000 3989.000000"
 preserveAspectRatio="xMidYMid meet">
<metadata>
Created by potrace 1.16, written by Peter Selinger 2001-2019
</metadata>
<g transform="translate(0.000000,3989.000000) scale(0.100000,-0.100000)"
fill="#000000" stroke="none">
<path d="M13675 39667 l-288 -224 -235 -689 c-624 -1836 -1201 -3567 -1957
-5869 -455 -1386 -828 -2521 -829 -2522 -1 -1 -76 -18 -166 -38 -90 -20 -165
-37 -166 -38 -10 -11 -845 -2463 -850 -2495 -6 -41 -9 -44 -33 -39 -14 3 -358
80 -763 171 -406 91 -739 166 -742 166 -2 0 -49 55 -104 123 l-101 123 -213
48 c-117 27 -225 54 -239 61 -14 6 -62 41 -105 77 l-79 66 -340 26 -340 26
-290 67 -290 67 -76 58 -75 58 -567 114 c-312 62 -570 115 -572 118 -3 3 60
259 140 569 80 309 144 568 141 576 -3 7 -12 13 -20 13 -10 0 -25 -31 -45 -97
-27 -89 -238 -794 -291 -972 l-22 -73 -41 6 c-23 4 -51 9 -62 12 -17 4 -32
-16 -97 -129 -42 -73 -105 -174 -140 -224 -36 -50 -70 -105 -77 -122 -7 -17
-21 -32 -30 -35 -9 -2 -131 -24 -272 -47 l-256 -43 -11 -43 -12 -43 -322 0
-323 0 -628 -478 -628 -478 -117 -12 c-64 -6 -348 -26 -629 -44 l-513 -32 0
-66 0 -66 105 -94 105 -95 2 -359 3 -359 827 -361 827 -361 57 -70 c31 -38 57
-71 58 -72 1 -2 222 -48 491 -103 269 -55 489 -101 490 -103 1 -1 -58 -144
-131 -317 l-132 -315 -4 -103 -3 -102 586 0 586 0 164 -93 c90 -51 295 -160
454 -242 160 -81 371 -191 470 -243 165 -86 226 -111 734 -293 304 -110 570
-203 590 -208 94 -22 1135 -403 1161 -424 15 -13 105 -95 199 -183 l171 -159
0 -67 0 -68 73 0 c79 0 107 -15 107 -56 0 -12 24 -35 66 -64 68 -46 84 -65 84
-98 0 -13 7 -18 21 -18 20 1 26 -17 75 -204 30 -113 70 -275 89 -360 35 -151
51 -204 81 -264 10 -19 11 -32 4 -40 -13 -17 50 -79 72 -71 8 3 21 -1 28 -10
11 -13 51 -15 281 -15 l268 0 20 -29 c21 -28 21 -40 21 -496 l0 -467 361 -857
c199 -471 368 -868 375 -882 7 -14 45 -45 84 -68 l70 -42 0 -104 0 -105 59 0
60 0 -10 -29 c-9 -27 -16 -30 -57 -33 l-47 -3 3 -105 3 -105 -80 -200 c-45
-109 -81 -203 -81 -208 0 -4 11 -7 25 -5 22 3 35 23 93 145 37 78 70 138 73
135 3 -4 237 -660 519 -1459 l513 -1451 676 -333 c372 -183 681 -337 687 -343
7 -6 494 -1394 1083 -3085 l1072 -3074 659 -2627 c363 -1444 660 -2630 660
-2634 0 -4 62 -6 138 -5 l137 4 1022 -723 1022 -723 -339 -680 c-187 -373
-340 -686 -340 -694 0 -9 9 -15 23 -15 19 0 60 72 306 540 157 297 315 599
353 670 l68 129 192 -136 191 -136 261 6 c144 4 345 10 449 14 181 6 187 7
187 27 -1 12 -36 272 -78 579 -77 548 -78 558 -58 562 12 2 62 7 111 10 50 3
98 12 107 18 10 7 131 172 269 367 l252 355 -157 1625 c-87 894 -303 3088
-482 4875 -179 1788 -439 4427 -578 5865 l-254 2615 -47 108 -48 107 -661 0
c-643 1 -662 1 -696 21 l-35 20 673 -4 c369 -3 672 -2 672 2 0 3 -7 85 -15
181 -8 96 -15 194 -15 218 l0 42 3605 0 3605 0 0 43 0 44 -3607 6 c-1983 4
-3608 9 -3611 12 -5 4 -42 458 -38 462 4 4 2818 23 3409 23 l527 0 0 28 0 29
-1317 7 c-725 3 -1613 9 -1974 13 l-655 6 -33 441 c-18 243 -35 471 -38 509
l-6 67 117 0 116 0 0 1060 0 1060 28 0 c15 0 176 14 357 30 l330 29 1242 -149
1243 -150 119 -60 119 -59 28 -118 27 -118 -37 -1115 -36 -1114 22 -22 c19
-19 40 -24 115 -31 l91 -9 409 1430 c232 814 414 1436 423 1443 8 7 192 133
409 280 l395 268 18 55 c18 54 18 55 -1 81 l-20 27 52 155 51 156 37 6 c31 5
38 11 48 44 6 21 11 50 11 65 l0 26 140 0 141 0 -3 92 -3 92 -115 84 c-63 46
-128 89 -145 96 -16 8 -229 51 -472 97 -435 82 -441 84 -458 111 l-16 28 505
0 506 0 0 50 0 50 3995 0 3995 0 0 35 0 35 -3822 3 -3823 2 3823 3 3822 2 0
35 0 35 -3995 0 -3995 0 0 40 0 40 -801 0 c-759 0 -801 1 -794 18 18 44 17 49
-14 55 -27 6 -31 11 -31 40 0 44 -22 62 -91 76 -47 10 -63 20 -109 66 l-54 55
247 0 247 0 0 25 0 25 -272 0 -273 0 -702 702 c-386 386 -706 699 -710 695 -4
-4 305 -320 687 -702 l695 -695 -500 0 -500 0 -1552 328 c-854 180 -1555 330
-1558 333 -10 11 -189 1062 -901 5299 -393 2340 -857 5073 -1030 6074 -173
1000 -332 1924 -354 2054 -22 129 -41 236 -43 237 -46 40 -208 99 -952 350
-468 157 -853 285 -856 285 -4 0 -136 -100 -294 -223z m-337 -1592 c25 -5 32
-2 32 10 0 9 6 15 13 13 6 -3 12 -11 12 -19 0 -9 -45 -173 -100 -366 l-100
-350 -170 -36 c-93 -19 -171 -34 -172 -33 -2 1 25 83 59 181 l62 178 -35 29
-34 29 64 187 c35 103 67 196 71 208 l8 21 129 -23 c70 -13 143 -26 161 -29z
m-504 -1080 c77 -14 151 -28 164 -30 16 -4 22 -1 22 11 0 13 6 15 27 9 16 -4
30 -8 32 -11 8 -7 -182 -649 -195 -660 -11 -9 -357 -84 -386 -84 -4 0 18 73
48 162 l54 162 -31 32 c-24 25 -30 38 -25 57 18 73 130 377 138 377 6 0 74
-11 152 -25z m-344 -1080 c80 -14 157 -28 173 -31 20 -4 27 -2 27 10 0 13 6
15 28 10 57 -14 58 -6 -45 -364 -52 -184 -96 -336 -97 -337 -3 -4 -449 -93
-452 -90 -2 2 21 77 51 167 30 91 55 172 55 181 0 10 -13 28 -28 41 l-28 23
70 211 c54 164 73 210 85 208 9 -2 81 -15 161 -29z m9823 -11083 c66 -67 54
-77 -86 -68 -56 4 -112 10 -124 13 -17 4 -23 1 -23 -11 0 -9 -2 -16 -5 -16 -8
0 -580 120 -590 124 -5 3 168 5 385 5 l396 1 47 -48z m-11243 -6587 c0 -2 -17
-16 -37 -30 l-38 -25 -401 0 -402 0 11 30 11 30 428 0 c235 0 428 -2 428 -5z"/>
</g>
</svg>
