<?xml version="1.0" standalone="no"?>
<!DOCTYPE svg PUBLIC "-//W3C//DTD SVG 20010904//EN"
 "http://www.w3.org/TR/2001/REC-SVG-20010904/DTD/svg10.dtd">
<svg version="1.0" xmlns="http://www.w3.org/2000/svg"
   viewBox="0 0 3559.000000 1597.000000"
 preserveAspectRatio="xMidYMid meet">
<metadata>
Created by potrace 1.16, written by Peter Selinger 2001-2019
</metadata>
<g transform="translate(0.000000,1597.000000) scale(0.100000,-0.100000)"
fill="#000000" stroke="none">
<path d="M5630 15925 c0 -45 0 -45 -35 -45 -23 0 -35 -5 -35 -14 0 -20 -32
-26 -138 -26 -86 0 -97 -2 -163 -36 -39 -19 -104 -42 -145 -50 -62 -11 -85
-22 -143 -65 -68 -51 -68 -52 -136 -199 -76 -165 -70 -160 -175 -160 l-65 0
-152 -373 c-86 -209 -201 -512 -262 -692 -60 -176 -164 -468 -231 -650 l-121
-330 -272 -379 -271 -380 -38 -190 -38 -190 0 -662 0 -662 -467 -6 c-258 -4
-616 -10 -797 -14 l-330 -7 -101 -230 c-68 -155 -107 -231 -118 -233 -10 -2
-17 -13 -17 -28 l0 -24 -130 0 -130 0 0 25 c0 24 -3 25 -60 25 -57 0 -60 -1
-60 -25 l0 -25 -250 0 -250 0 0 -224 0 -223 -77 -34 c-42 -18 -84 -32 -94 -32
-9 1 -71 18 -137 37 -65 20 -135 36 -156 36 l-36 0 0 -1005 0 -1005 43 0 c24
0 126 25 227 55 102 30 195 55 208 55 l22 0 0 -290 0 -290 1000 0 1000 0 0
415 0 415 244 0 245 0 3 -51 3 -51 490 -209 490 -209 747 0 748 0 0 -85 0 -85
-329 0 -329 0 -174 -68 c-161 -61 -192 -78 -376 -197 -186 -121 -201 -132
-202 -160 0 -16 -3 -47 -6 -67 -6 -37 -8 -38 -49 -38 -38 0 -59 -13 -276 -175
l-234 -176 -67 -136 -68 -135 0 -324 0 -324 -27 0 c-19 0 -43 -15 -75 -46
l-48 -45 0 -878 0 -877 38 -190 38 -190 271 -380 272 -379 121 -330 c67 -182
171 -474 231 -650 61 -180 176 -483 262 -692 l152 -373 56 0 c115 0 108 5 183
-159 l68 -148 69 -52 c60 -44 82 -54 144 -66 41 -8 106 -30 145 -50 64 -32 76
-35 162 -35 106 0 138 -6 138 -26 0 -9 12 -14 35 -14 l35 0 0 -60 0 -60 830 0
830 0 0 60 0 60 40 0 c28 0 40 4 40 14 0 8 7 17 16 20 9 3 135 6 280 6 l265 0
59 30 c65 33 57 17 99 187 l21 82 -2 3349 -3 3350 44 6 c76 10 95 6 136 -29
l40 -35 -32 0 -33 0 0 -355 0 -355 171 0 170 0 40 -32 c23 -19 39 -40 39 -53
0 -17 30 -41 137 -108 l137 -87 198 0 198 0 0 -150 0 -150 725 0 725 0 0 150
0 150 190 0 190 0 0 -150 0 -150 725 0 725 0 0 150 0 150 580 0 c571 0 580 0
580 20 0 12 8 21 23 24 12 3 213 15 447 27 l425 22 61 34 61 33 311 0 311 0 3
-106 3 -107 425 -164 425 -163 300 2 299 3 33 140 c18 77 35 150 38 163 l5 22
915 0 915 0 0 25 0 25 150 0 150 0 0 80 0 80 255 0 c220 0 255 2 255 15 0 8 1
15 3 15 2 0 44 -16 93 -35 l89 -35 1407 0 1408 0 0 -25 c0 -22 4 -25 35 -25
35 0 35 0 35 -45 l0 -45 358 0 357 0 160 -260 160 -259 141 -80 141 -80 726 6
725 6 139 -88 138 -88 733 6 734 7 126 78 127 79 109 182 109 181 131 0 132 0
138 -337 c76 -186 142 -342 147 -347 5 -5 70 -29 146 -53 l137 -43 1015 1
c559 1 1190 5 1403 8 l386 6 309 302 310 302 394 100 c217 56 401 104 411 107
10 3 26 37 44 94 l27 90 61 0 c199 1 2738 79 2743 84 4 3 4 8 2 10 -2 2 -618
21 -1369 43 -751 21 -1346 40 -1323 43 37 4 58 20 177 127 111 101 140 123
165 123 28 0 34 6 63 65 l32 65 78 0 78 0 0 216 0 216 -251 428 -250 427 -61
6 c-51 4 -71 12 -120 47 l-59 41 -1486 170 -1485 171 -167 93 -166 93 -113 12
-114 13 -21 43 c-11 24 -26 44 -31 44 -6 0 -144 16 -306 35 -162 19 -301 35
-307 35 -9 0 -13 19 -13 61 l0 62 -66 73 c-61 68 -69 74 -105 74 -21 0 -39 5
-39 10 0 6 -38 10 -93 10 -90 0 -94 1 -107 25 -8 16 -22 25 -37 25 -23 0 -23
0 -23 140 l0 140 26 0 c17 0 28 -6 31 -20 3 -11 12 -20 19 -20 10 0 14 -13 14
-40 l0 -40 40 0 40 0 0 155 0 155 -40 0 -40 0 0 -40 c0 -23 -5 -40 -11 -40 -7
0 -17 -7 -23 -15 -7 -10 -34 -18 -68 -22 l-56 -6 -11 -56 c-6 -31 -12 -64 -13
-73 -2 -10 -34 -39 -73 -65 -66 -45 -70 -51 -78 -96 -5 -35 -16 -56 -40 -77
-30 -27 -38 -29 -114 -30 -45 0 -85 -4 -88 -10 -3 -5 -22 -10 -41 -10 -31 0
-44 -9 -104 -72 l-69 -73 -1 -107 c0 -105 -1 -108 -22 -108 -13 0 -300 34
-638 75 -539 66 -636 75 -785 75 l-170 1 -58 84 -58 85 -805 0 -805 0 -40 -85
-40 -85 -873 0 -873 0 -114 -180 -114 -181 -35 3 -35 3 -32 165 c-39 193 -52
363 -60 728 l-5 262 -23 0 -23 0 -6 -262 c-9 -428 -24 -586 -81 -835 -4 -18
-12 -23 -38 -23 -29 0 -34 5 -51 45 l-18 46 -66 -3 -65 -3 -16 -42 -15 -43
-61 0 c-33 0 -120 12 -194 27 -108 21 -135 30 -139 45 -4 16 -15 18 -87 18
-68 0 -252 34 -1007 185 -508 102 -932 190 -942 196 -40 23 -161 59 -197 59
l-37 0 -158 298 -159 299 -2655 458 -2655 459 -96 99 -95 99 -970 149 -969
149 -256 105 -255 105 -1182 0 -1182 0 0 2196 c0 2183 0 2196 -21 2277 -42
170 -34 154 -99 187 l-59 30 -265 0 c-145 0 -271 3 -280 6 -9 3 -16 12 -16 20
0 10 -12 14 -40 14 l-40 0 0 45 0 45 -830 0 -830 0 0 -45z m1805 -8395 l29
-30 -32 0 c-29 0 -32 3 -32 30 0 17 1 30 3 30 2 0 16 -13 32 -30z"/>
</g>
</svg>
