<?xml version="1.0" standalone="no"?>
<!DOCTYPE svg PUBLIC "-//W3C//DTD SVG 20010904//EN"
 "http://www.w3.org/TR/2001/REC-SVG-20010904/DTD/svg10.dtd">
<svg version="1.0" xmlns="http://www.w3.org/2000/svg"
   viewBox="0 0 1732.000000 611.000000"
 preserveAspectRatio="xMidYMid meet">
<metadata>
Created by potrace 1.16, written by Peter Selinger 2001-2019
</metadata>
<g transform="translate(0.000000,611.000000) scale(0.100000,-0.100000)"
fill="#000000" stroke="none">
<path d="M4322 6035 c110 -452 169 -707 166 -710 -5 -5 -287 -92 -403 -125
-193 -54 -666 -329 -970 -565 -93 -72 -251 -190 -351 -263 l-181 -132 -100 0
-100 0 -149 -116 c-214 -167 -197 -148 -224 -274 l-23 -108 -328 -139 -329
-138 0 -90 0 -90 -125 -73 c-100 -60 -174 -92 -387 -172 -145 -53 -294 -112
-331 -129 l-68 -31 -57 29 -58 29 -141 -101 c-128 -93 -142 -106 -153 -143 -7
-23 -9 -50 -6 -60 4 -11 44 -71 89 -134 l83 -115 213 -138 213 -139 236 -24
c374 -38 724 -54 1198 -54 l431 0 11 -25 c11 -23 17 -25 75 -25 l64 0 299
-212 299 -212 265 -114 265 -114 330 -63 c320 -61 333 -63 430 -55 54 4 108 5
120 0 11 -4 83 -13 160 -20 118 -10 146 -16 177 -36 36 -23 44 -24 216 -24
l179 0 11 25 c11 23 17 25 75 25 55 0 67 -3 87 -25 l23 -25 330 0 329 0 49 36
c39 29 49 42 49 65 0 34 5 35 92 14 126 -29 720 -115 845 -122 l128 -8 8 -45
8 -45 147 -52 c158 -56 110 -48 797 -134 l90 -11 35 -71 c22 -46 59 -97 101
-142 95 -99 125 -109 423 -139 131 -14 240 -26 242 -28 2 -2 13 -85 25 -184
12 -98 25 -182 28 -186 7 -8 843 -80 880 -76 21 3 28 14 48 75 l24 72 162 -5
c89 -3 365 -9 612 -14 496 -11 451 -15 495 47 15 21 24 21 1444 57 786 20
1431 37 1432 39 2 1 -641 19 -1427 39 l-1430 36 -28 26 -27 26 -577 0 c-347 0
-577 4 -577 9 0 12 42 195 45 199 2 2 83 -6 181 -17 304 -34 503 -46 526 -32
16 10 53 10 172 1 l153 -12 51 26 c39 20 53 33 62 61 l12 35 1231 0 1232 0 25
40 c18 29 32 40 50 40 163 3 3262 99 3265 101 2 3 -690 35 -1538 72 -848 38
-1590 71 -1648 74 l-106 6 -24 38 -24 39 -1232 0 -1233 0 0 25 c0 17 -13 34
-46 60 -44 33 -51 35 -125 35 l-78 0 50 147 c39 118 49 160 49 215 l0 67 65
38 c61 36 65 40 65 75 0 26 5 38 18 42 9 3 1014 195 2232 428 1218 233 2207
424 2199 426 -9 2 -1015 -117 -2235 -263 -1221 -146 -2225 -265 -2231 -265 -7
0 -13 21 -15 51 l-3 51 -54 22 c-50 20 -55 25 -66 66 -7 25 -20 66 -30 91
l-18 46 37 49 c28 36 36 54 31 72 -21 83 -29 73 112 136 917 414 923 417 923
442 0 22 74 61 788 418 433 217 784 395 780 395 -3 1 -359 -125 -790 -279
-430 -155 -798 -286 -815 -292 -29 -11 -35 -9 -57 11 -21 20 -29 22 -53 13
-15 -5 -253 -112 -527 -236 -498 -226 -515 -232 -516 -189 0 23 -30 41 -81 48
-57 8 -63 17 -90 124 -7 29 -18 55 -24 57 -6 3 -63 -6 -128 -20 l-118 -24 -63
97 c-34 53 -118 181 -186 286 -86 131 -126 201 -130 230 -4 22 -16 63 -28 91
l-21 51 341 319 c187 176 359 336 381 357 l42 38 -45 -31 c-25 -17 -211 -153
-415 -303 l-370 -273 -42 71 c-39 68 -43 80 -53 186 -6 63 -23 165 -38 227
l-26 113 -226 118 c-124 65 -343 178 -487 250 -145 72 -263 135 -263 139 0 5
45 107 101 228 118 256 143 311 134 302 -3 -3 -69 -118 -147 -254 -77 -137
-141 -250 -143 -252 -7 -8 -193 82 -276 135 -80 50 -128 71 -295 126 -257 86
-641 177 -956 227 l-250 40 -372 0 c-265 0 -405 -4 -486 -14 -158 -20 -428
-36 -614 -36 l-156 0 -378 -95 c-207 -51 -453 -114 -546 -139 -94 -25 -171
-45 -172 -43 -1 1 -56 157 -123 347 -108 305 -145 401 -129 335z m856 -4042
l-3 -36 -145 -50 -145 -49 -225 -14 c-280 -17 -349 -11 -600 59 -179 50 -183
52 -135 57 46 5 50 7 59 38 l9 32 594 0 594 0 -3 -37z m152 33 c0 -2 -7 -6
-15 -10 -8 -3 -15 -1 -15 4 0 6 7 10 15 10 8 0 15 -2 15 -4z m2411 -129 c40
-89 78 -197 115 -329 4 -13 -22 -25 -138 -63 -79 -26 -157 -56 -175 -67 -31
-18 -36 -18 -434 12 -255 19 -475 30 -601 30 l-198 0 0 63 0 63 -50 37 -49 37
-126 0 c-69 0 -125 3 -125 8 0 4 37 44 83 88 l82 81 80 12 c65 9 722 60 788
61 11 0 17 -8 17 -23 0 -14 20 -42 53 -75 41 -41 67 -57 127 -77 l74 -25 76
25 c68 23 80 31 113 75 24 31 41 69 48 102 6 29 12 59 14 66 4 9 27 12 92 10
l86 -3 48 -108z m-713 -581 c328 -14 322 -12 322 -70 l0 -29 -107 8 c-60 4
-245 29 -413 55 -303 48 -304 48 -205 48 55 1 237 -5 403 -12z m1906 -546
c142 -16 261 -32 263 -34 3 -3 8 -35 11 -71 l5 -67 -44 6 c-24 4 -123 15 -219
26 -189 21 -232 31 -269 64 -28 25 -81 95 -81 108 0 4 17 6 38 3 20 -3 153
-19 296 -35z"/>
<path d="M15973 2643 c9 -2 23 -2 30 0 6 3 -1 5 -18 5 -16 0 -22 -2 -12 -5z"/>
</g>
</svg>
