<?xml version="1.0" standalone="no"?>
<!DOCTYPE svg PUBLIC "-//W3C//DTD SVG 20010904//EN"
 "http://www.w3.org/TR/2001/REC-SVG-20010904/DTD/svg10.dtd">
<svg version="1.0" xmlns="http://www.w3.org/2000/svg"
   viewBox="0 0 4825.000000 923.000000"
 preserveAspectRatio="xMidYMid meet">
<metadata>
Created by potrace 1.16, written by Peter Selinger 2001-2019
</metadata>
<g transform="translate(0.000000,923.000000) scale(0.100000,-0.100000)"
fill="#000000" stroke="none">
<path d="M26725 9165 l-1200 -63 -1850 -286 c-1017 -157 -1862 -289 -1877
-292 -16 -3 -28 -12 -28 -20 0 -8 -3 -14 -7 -14 -5 0 -325 -81 -713 -180 -433
-110 -707 -175 -711 -169 -3 6 -14 46 -23 90 -15 70 -20 79 -39 79 -25 0
-3052 -306 -3108 -315 -34 -5 -36 -4 -31 21 5 25 4 25 -39 20 l-44 -7 -170
148 c-116 101 -191 157 -233 177 l-62 30 -508 -41 c-279 -22 -2926 -236 -5882
-474 l-5375 -433 -39 -30 -38 -29 -2312 -179 c-2263 -175 -2312 -180 -2371
-205 l-60 -25 8 -272 c4 -149 10 -312 13 -362 l6 -92 56 -21 c50 -20 271 -38
2371 -192 l2315 -170 30 -27 31 -27 2126 -118 2126 -118 128 -35 c123 -34 143
-44 557 -271 l429 -235 552 -54 c304 -30 561 -57 573 -59 21 -5 21 -9 27 -387
4 -218 11 -399 17 -420 10 -35 12 -36 68 -42 31 -3 179 -8 327 -12 l270 -6
102 -64 103 -64 925 0 925 0 0 54 0 54 138 6 c75 4 160 12 187 18 36 8 399 9
1303 5 l1254 -7 41 21 c23 12 65 44 94 72 52 50 52 50 62 26 13 -34 498 -1303
696 -1822 92 -241 165 -440 163 -442 -1 -1 -835 22 -1851 52 -1017 30 -1850
53 -1853 51 -2 -2 -5 -94 -6 -203 l-3 -199 2002 -251 2003 -252 27 29 c15 16
37 28 52 28 14 0 1087 -131 2386 -291 l2360 -291 30 -28 30 -28 2829 -205
2829 -206 108 35 107 34 1183 -60 1183 -60 31 -29 30 -29 755 29 c415 15 756
29 757 29 1 0 25 43 53 96 l52 96 206 -7 c321 -10 2353 -55 2477 -55 l111 0
-63 637 c-35 350 -65 639 -68 642 -3 2 -187 -11 -410 -29 -222 -19 -407 -31
-410 -28 -3 3 14 52 38 109 l43 104 12 639 11 638 -44 361 c-25 198 -44 361
-43 362 2 1 649 -69 1438 -157 l1435 -158 265 61 265 62 105 103 105 104 1423
0 1422 0 0 -180 c0 -99 3 -180 8 -180 4 0 115 -9 247 -20 233 -19 328 -20
3398 -20 l3157 0 0 775 0 775 -3152 0 c-3065 0 -3160 -1 -3393 -20 -132 -11
-246 -20 -252 -20 -10 0 -13 -49 -13 -210 l0 -210 -1432 0 -1433 0 -91 91 -92
92 -267 63 -267 63 -1504 -166 c-827 -92 -1506 -164 -1509 -161 -3 3 -46 151
-95 329 -50 178 -138 466 -197 639 -104 306 -112 325 -284 671 -164 329 -190
376 -350 615 l-172 259 -278 291 -277 290 -568 420 -569 420 -965 357 -965
357 -1004 135 c-755 101 -1028 135 -1100 134 -53 -1 -636 -30 -1296 -64z
m-2991 -6745 l1728 -351 469 -367 468 -367 -47 -3 c-51 -4 -2297 23 -2808 34
l-311 6 -27 -46 c-15 -25 -33 -46 -40 -46 -7 0 -1079 103 -2382 230 -1303 126
-2376 230 -2385 230 -9 0 -19 9 -22 20 -3 11 -3 20 -1 20 2 0 168 -16 370 -35
201 -19 385 -35 408 -35 22 0 238 38 478 84 l436 84 704 417 703 417 255 32
c140 18 260 31 265 30 6 -2 788 -161 1739 -354z"/>
</g>
</svg>
