<?xml version="1.0" standalone="no"?>
<!DOCTYPE svg PUBLIC "-//W3C//DTD SVG 20010904//EN"
 "http://www.w3.org/TR/2001/REC-SVG-20010904/DTD/svg10.dtd">
<svg version="1.0" xmlns="http://www.w3.org/2000/svg"
   viewBox="0 0 3473.000000 648.000000"
 preserveAspectRatio="xMidYMid meet">
<metadata>
Created by potrace 1.16, written by Peter Selinger 2001-2019
</metadata>
<g transform="translate(0.000000,648.000000) scale(0.100000,-0.100000)"
fill="#000000" stroke="none">
<path d="M7415 6459 c-96 -14 -138 -25 -165 -43 -47 -31 -119 -40 -143 -19
-14 14 -91 22 -420 45 l-402 29 -163 -67 -162 -66 -18 -62 c-17 -57 -20 -61
-53 -66 -28 -4 -35 -10 -37 -32 -3 -23 1 -28 17 -28 17 0 21 -6 21 -30 0 -23
-4 -30 -20 -30 -16 0 -20 -7 -20 -30 0 -23 4 -30 20 -30 14 0 20 -7 20 -24 0
-15 -7 -26 -20 -29 -18 -5 -20 -14 -20 -76 l0 -71 -218 0 c-267 0 -252 9 -252
-138 0 -84 3 -102 15 -102 12 0 15 -16 15 -80 l0 -80 -130 0 -130 0 0 -65 0
-65 -229 0 -230 0 -11 58 c-6 31 -13 63 -15 70 -4 9 -195 12 -913 12 l-909 0
-7 -61 c-3 -34 -6 -85 -6 -113 l0 -52 -997 -328 -998 -328 -53 -93 c-29 -52
-59 -98 -65 -103 -7 -5 -171 -62 -364 -126 l-353 -118 0 -385 0 -385 70 -65
70 -65 0 -304 0 -304 26 0 c14 0 586 -45 1270 -100 1222 -98 1252 -100 1560
-100 l314 0 0 -24 c0 -26 5 -27 185 -42 61 -5 840 -179 890 -198 6 -3 -149 -5
-342 -5 l-353 -1 0 45 c0 51 13 44 -176 86 -84 19 -112 21 -160 13 l-59 -9 -3
-67 -3 -67 -147 -3 -147 -3 -3 -77 c-3 -75 -1 -82 59 -227 58 -144 63 -151 93
-156 100 -17 716 -105 739 -105 27 0 27 1 27 65 l0 65 80 0 80 0 0 -44 c0 -44
1 -45 99 -123 l99 -80 112 -12 c61 -6 115 -9 120 -6 6 4 10 17 10 30 0 18 4
22 20 18 16 -4 20 -15 22 -76 l3 -72 300 -42 c165 -23 308 -42 318 -43 15 0
17 11 17 90 l0 90 63 0 c34 0 86 -3 115 -6 l52 -7 0 -102 c0 -82 3 -104 15
-109 10 -3 15 -19 15 -44 l0 -38 158 -23 c146 -21 181 -23 487 -19 338 5 387
10 424 47 9 9 96 63 192 119 170 98 178 102 270 116 52 8 113 21 137 30 31 11
42 12 43 3 0 -7 85 -67 188 -135 l188 -122 1921 0 1922 0 0 75 0 75 39 0 c61
0 71 7 71 52 0 43 20 49 30 9 3 -12 7 -23 10 -23 3 -1 91 5 195 11 l190 13
375 -127 c206 -70 381 -128 389 -129 10 -1 43 82 106 269 l93 270 127 -4 c113
-3 139 -7 246 -41 l119 -38 107 34 106 34 674 0 673 0 0 -50 0 -50 115 0 115
0 0 -225 c0 -143 4 -225 10 -225 6 0 10 -54 10 -142 l0 -143 56 -57 56 -58
234 0 234 0 0 -65 0 -65 90 0 90 0 0 -45 c0 -33 4 -45 15 -45 13 0 15 -28 15
-195 0 -186 1 -197 22 -225 l22 -30 806 0 806 0 27 28 27 28 0 197 c0 168 2
197 15 197 11 0 15 12 15 45 l0 45 175 0 175 0 0 -27 c0 -23 11 -34 60 -65
l61 -38 1614 -6 1615 -7 0 -34 0 -33 398 0 399 0 11 39 c7 21 12 50 12 65 l0
26 1520 0 c1007 0 1520 -3 1520 -10 0 -5 11 -10 25 -10 l25 0 0 -134 c0 -128
1 -136 22 -150 19 -14 68 -16 334 -16 288 0 312 1 327 18 14 15 17 41 17 145
l0 127 25 0 c25 0 25 1 25 83 0 112 5 127 42 127 16 0 118 34 226 76 108 42
205 79 215 81 16 5 17 -8 17 -176 l0 -181 25 0 25 0 0 -134 c0 -128 1 -136 22
-150 19 -14 68 -16 334 -16 288 0 312 1 327 18 14 15 17 41 17 145 l0 127 25
0 25 0 0 343 0 342 128 48 127 48 173 -1 172 0 0 130 0 130 230 0 230 0 0 25
0 25 340 0 340 0 0 -25 0 -25 245 0 245 0 0 25 0 25 215 0 215 0 0 -32 c1 -21
24 -75 64 -148 l63 -115 67 -3 67 -3 40 -85 c21 -48 39 -88 39 -90 0 -2 -13
-4 -30 -4 -27 0 -30 -3 -30 -30 l0 -30 -145 0 c-90 0 -145 -4 -145 -10 0 -6
-110 -10 -310 -10 -200 0 -310 -4 -310 -10 0 -6 117 -10 330 -10 207 0 330 -4
330 -10 0 -5 55 -11 131 -12 l132 -3 78 -145 c43 -79 86 -147 96 -151 10 -4
36 -25 58 -48 l39 -41 167 0 c92 0 179 4 193 10 l26 10 0 157 0 158 35 -40
c34 -40 34 -41 35 -137 l0 -98 280 0 c180 0 280 -4 280 -10 0 -7 181 -10 523
-10 l522 0 49 -35 50 -35 318 0 318 0 54 35 55 35 279 0 279 0 26 78 27 77 0
398 0 397 205 0 c159 0 205 -3 205 -13 0 -7 47 -36 105 -65 l105 -52 0 150 0
150 -790 0 -790 0 0 60 0 60 -195 0 -195 0 0 -60 0 -60 -595 0 -595 0 0 60 0
60 -190 0 -190 0 0 -60 0 -60 -315 0 -314 0 -25 77 -24 78 -170 3 -170 2 -12
-35 -12 -35 -99 0 -99 0 0 -45 0 -45 -144 0 c-122 0 -145 2 -150 16 -3 9 -6
91 -6 184 0 165 0 169 -25 198 l-25 30 0 321 0 322 1439 -3 1438 -3 94 132 94
132 111 1 111 0 7 53 c3 28 6 98 6 155 l0 102 -69 0 -68 0 -6 48 c-4 26 -21
218 -39 426 -24 287 -29 381 -20 384 7 2 12 21 12 43 l0 39 55 0 55 0 0 55 0
55 -625 0 -625 0 0 -57 0 -58 -56 -45 c-47 -38 -63 -60 -99 -138 -34 -72 -48
-92 -64 -92 -20 0 -21 -5 -21 -124 l0 -125 -71 -43 c-94 -57 -109 -92 -110
-258 0 -72 -3 -108 -9 -95 -4 11 -22 191 -39 400 -18 209 -34 395 -37 413 -4
24 -1 32 11 32 11 0 15 11 15 40 l0 40 50 0 50 0 0 55 0 55 -620 0 -620 0 0
-54 c0 -54 0 -54 -61 -108 -51 -45 -69 -69 -100 -139 -28 -61 -43 -85 -58 -87
-20 -3 -21 -10 -21 -127 l0 -123 -73 -43 c-70 -41 -74 -45 -95 -103 -17 -48
-22 -83 -22 -163 0 -62 -4 -103 -10 -103 -5 0 -10 3 -10 8 0 4 -16 196 -36
427 -26 302 -33 420 -25 423 6 2 11 21 11 43 l0 39 55 0 55 0 0 55 0 55 -625
0 -625 0 0 -58 0 -58 -59 -49 c-51 -42 -64 -61 -98 -137 -31 -72 -42 -88 -60
-88 -22 0 -22 -3 -25 -127 l-3 -127 -69 -41 c-100 -59 -104 -73 -105 -372 l-1
-233 -51 0 c-44 0 -131 32 -574 210 l-523 210 -1239 0 -1239 0 -35 36 c-40 42
-106 74 -155 74 l-34 0 0 195 0 195 -65 0 -65 0 0 130 0 130 -1237 0 c-681 0
-1808 3 -2505 7 l-1268 6 0 -131 0 -132 -100 0 -100 0 0 -255 0 -255 -882 0
-883 0 -235 -230 -235 -230 -515 7 c-283 3 -516 7 -518 8 -2 2 4 18 14 37 10
18 17 42 16 53 -1 11 6 30 15 42 l18 22 134 -25 c73 -14 134 -24 135 -22 1 2
30 119 65 261 l63 257 159 130 c132 109 160 136 168 167 6 20 9 38 7 40 -3 3
-2483 573 -2492 573 -2 0 -4 118 -4 263 0 191 -3 266 -12 275 -9 9 -83 12
-273 12 -143 0 -297 3 -342 7 l-83 6 0 63 0 64 55 0 55 0 0 75 0 75 -55 0 -55
0 0 45 c0 33 4 45 15 45 12 0 15 19 15 115 l0 115 -505 0 -505 0 0 -45 0 -45
-45 0 -45 0 0 45 0 45 -505 0 -505 0 0 -45 0 -45 -40 0 -40 0 0 45 0 45 -510
0 -510 0 0 -45 0 -45 -40 0 -40 0 0 45 0 45 -505 0 -505 0 0 -45 0 -45 -45 0
-45 0 0 45 0 45 -505 0 -505 0 0 170 0 169 60 64 c56 61 60 67 60 114 0 47 -2
50 -78 126 -89 89 -72 85 -277 56z m6105 -2116 c0 -28 6 -30 386 -168 213 -77
392 -144 399 -150 6 -5 50 -147 96 -315 l84 -306 375 -68 c206 -38 379 -72
383 -76 12 -10 -48 -58 -108 -86 -45 -21 -88 -27 -405 -54 -278 -24 -357 -33
-366 -45 -8 -11 -32 -15 -91 -15 l-80 0 -109 122 -109 121 0 56 c-2 92 -10
102 -111 135 l-89 29 -150 168 -150 168 -355 0 -356 1 -84 29 -85 29 213 1
212 1 0 225 0 225 250 0 250 0 0 -27z m14430 -1894 l0 -321 -30 -38 c-29 -36
-30 -42 -30 -139 l0 -101 -50 0 -50 0 0 460 0 460 80 0 80 0 0 -321z m1160 -5
l0 -326 -25 -30 c-25 -29 -25 -33 -25 -198 0 -93 -3 -175 -6 -184 -5 -14 -40
-16 -284 -16 l-278 0 -6 23 c-3 12 -6 97 -6 188 0 164 0 166 -25 189 l-25 23
0 329 0 328 340 0 340 0 0 -326z m-23872 -850 c13 -4 22 -14 22 -25 0 -11 5
-19 10 -19 6 0 10 -13 10 -30 0 -29 -2 -30 -45 -30 l-45 0 0 55 c0 57 3 61 48
49z m-828 -34 c0 -15 -7 -20 -29 -20 -24 0 -28 3 -24 20 3 13 14 20 29 20 17
0 24 -6 24 -20z m1720 -5 c0 -14 5 -25 10 -25 6 0 10 -9 10 -20 0 -17 -7 -20
-45 -20 l-45 0 0 45 c0 45 0 45 35 45 31 0 35 -3 35 -25z m660 -48 c0 -7 -18
-23 -40 -36 l-40 -22 0 25 c0 20 6 27 28 32 15 3 32 7 37 9 6 2 11 4 13 4 1 1
2 -5 2 -12z m-640 -182 l0 -105 -45 0 -45 0 0 105 0 105 45 0 45 0 0 -105z"/>
</g>
</svg>
