<?xml version="1.0" standalone="no"?>
<!DOCTYPE svg PUBLIC "-//W3C//DTD SVG 20010904//EN"
 "http://www.w3.org/TR/2001/REC-SVG-20010904/DTD/svg10.dtd">
<svg version="1.0" xmlns="http://www.w3.org/2000/svg"
   viewBox="0 0 3689.000000 876.000000"
 preserveAspectRatio="xMidYMid meet">
<metadata>
Created by potrace 1.16, written by Peter Selinger 2001-2019
</metadata>
<g transform="translate(0.000000,876.000000) scale(0.100000,-0.100000)"
fill="#000000" stroke="none">
<path d="M7405 8743 l-1329 -15 -531 -124 c-291 -68 -631 -149 -755 -181
l-225 -57 -1205 -5 -1205 -6 -565 -176 c-311 -97 -682 -207 -825 -244 -143
-37 -269 -73 -280 -79 -12 -6 -51 -33 -88 -61 l-66 -50 -1 -89 0 -88 80 -149
80 -149 0 -100 0 -100 839 0 838 0 369 -35 c493 -46 900 -102 1234 -170 308
-62 632 -150 730 -198 l65 -32 -105 -12 c-58 -7 -784 -87 -1615 -178 l-1510
-165 -350 -92 c-192 -50 -491 -129 -663 -175 -173 -45 -315 -83 -318 -83 -2 0
-4 -40 -4 -89 l0 -89 477 -157 476 -157 241 -230 c133 -127 242 -238 244 -247
2 -9 19 -26 39 -36 20 -11 148 -124 284 -251 l249 -231 112 17 113 17 561
-173 561 -173 72 8 c47 5 75 4 80 -3 34 -42 351 -572 351 -587 0 -10 9 -23 20
-29 16 -8 20 -21 20 -58 0 -82 15 -114 65 -144 25 -16 57 -28 70 -28 16 0 25
-6 25 -16 0 -37 414 -201 735 -290 l140 -39 279 -167 c270 -162 282 -167 347
-174 l68 -6 111 -119 112 -119 859 0 859 0 0 -45 c0 -31 5 -47 15 -51 8 -4
185 17 393 45 352 49 380 51 417 37 22 -8 138 -57 259 -110 185 -80 251 -116
435 -231 207 -131 224 -144 406 -316 l190 -179 271 0 271 0 298 -323 c249
-268 307 -326 348 -345 l50 -22 1465 2 1466 3 15 26 c14 25 -2 60 -474 1035
-268 555 -494 1022 -502 1038 l-15 28 194 -5 c106 -3 1901 -10 3989 -17 l3796
-11 524 26 c596 28 766 31 859 10 81 -18 110 -19 110 -2 0 9 83 11 387 9 364
-2 398 -4 543 -28 134 -23 159 -30 185 -53 17 -15 37 -32 45 -38 8 -6 188 -48
400 -92 212 -45 395 -83 408 -86 13 -3 22 -13 22 -25 0 -19 7 -20 248 -20
l247 0 665 -159 c586 -140 1170 -296 4912 -1311 l4247 -1152 1051 161 c578 88
1055 163 1059 166 5 2 34 50 66 105 38 68 54 105 47 113 -5 7 -425 523 -934
1147 -508 624 -1034 1275 -1168 1445 -135 171 -658 859 -1164 1530 -837 1109
-924 1227 -954 1303 -23 58 -46 152 -77 320 l-45 237 0 520 0 520 -102 64
c-91 56 -104 62 -132 54 -23 -6 -53 -3 -116 15 -209 56 -392 95 -482 101 -55
3 -98 2 -98 -3 0 -13 -89 2 -105 18 -36 35 -174 68 -595 141 -369 64 -581 92
-1395 190 -1329 160 -1378 166 -1485 171 -52 3 -662 38 -1355 78 -1176 69
-1267 73 -1363 61 l-103 -13 -77 -63 c-42 -34 -104 -86 -137 -114 -33 -28 -96
-77 -140 -109 -44 -32 -102 -80 -130 -106 -45 -43 -67 -53 -225 -110 l-175
-62 -485 -29 c-443 -26 -543 -28 -1152 -29 l-668 0 0 63 0 63 -442 12 c-714
20 -1697 69 -2523 126 -762 52 -772 52 -925 39 l-155 -14 -160 -66 c-88 -37
-167 -73 -176 -80 -13 -10 -163 -13 -777 -13 l-761 0 -95 34 c-196 71 -588 95
-1101 66 l-180 -10 -520 75 -520 75 -625 150 -625 150 -475 31 c-261 16 -485
32 -497 35 -21 4 -23 10 -23 74 l0 70 -507 0 c-449 0 -564 4 -993 30 -563 35
-511 34 -2535 13z"/>
</g>
</svg>
