<?xml version="1.0" standalone="no"?>
<!DOCTYPE svg PUBLIC "-//W3C//DTD SVG 20010904//EN"
 "http://www.w3.org/TR/2001/REC-SVG-20010904/DTD/svg10.dtd">
<svg version="1.0" xmlns="http://www.w3.org/2000/svg"
   viewBox="0 0 4131.000000 735.000000"
 preserveAspectRatio="xMidYMid meet">
<metadata>
Created by potrace 1.16, written by Peter Selinger 2001-2019
</metadata>
<g transform="translate(0.000000,735.000000) scale(0.100000,-0.100000)"
fill="#000000" stroke="none">
<path d="M16265 7293 c-159 -29 -291 -52 -292 -53 -2 0 -3 -27 -3 -60 l0 -60
-1120 0 -1120 0 0 -635 0 -635 -38 0 c-21 0 -66 -11 -100 -25 -53 -21 -77 -25
-172 -25 l-110 0 0 -175 0 -175 -110 0 -110 0 -1 258 c0 263 -12 629 -20 635
-2 2 -478 -11 -1058 -30 l-1055 -33 -75 28 -76 28 -3749 -138 c-2062 -75
-3751 -139 -3753 -142 -4 -4 9 -295 22 -513 l6 -93 -570 0 -570 0 -10 38 c-6
20 -11 43 -11 50 0 6 -3 12 -6 12 -4 0 -209 -21 -458 -46 -248 -25 -503 -49
-566 -54 -176 -14 -294 -30 -307 -43 -6 -7 -196 -286 -422 -622 l-411 -610 0
-408 0 -407 55 -110 c30 -60 55 -123 55 -140 0 -20 5 -30 15 -30 10 0 60 -91
141 -252 l126 -252 416 -552 416 -551 93 -53 93 -52 0 -176 0 -177 258 -48
257 -48 302 1 c279 0 302 -1 307 -18 4 -10 83 -57 194 -115 l189 -97 1098 0
1099 0 211 -120 212 -120 1759 1 1759 0 174 82 173 82 37 90 38 90 104 6 c57
4 328 7 602 8 l497 1 62 25 c55 22 76 25 191 25 l129 0 -7 265 -7 266 86 -43
c85 -42 86 -43 86 -80 l0 -38 950 0 950 0 0 38 c0 37 1 38 84 79 l85 42 -6
-264 -6 -265 130 0 c115 0 136 -3 191 -25 l62 -25 890 0 890 0 62 25 c55 22
76 25 191 25 l129 0 -7 266 -8 265 87 -43 c85 -42 86 -43 86 -80 l0 -38 430 0
430 0 0 -166 0 -166 36 -44 36 -44 155 -2 155 -3 82 -202 81 -203 143 0 c137
0 145 -1 176 -25 19 -15 37 -41 44 -63 6 -21 27 -56 47 -79 19 -23 35 -49 35
-58 0 -9 5 -36 11 -60 l11 -43 64 -13 c57 -11 64 -15 64 -36 0 -19 5 -23 30
-23 l30 0 0 95 0 95 -30 0 c-27 0 -30 -3 -30 -30 0 -23 -5 -30 -19 -30 -11 0
-26 -3 -35 -6 -14 -5 -16 9 -16 114 l0 120 33 7 c17 4 42 13 54 21 15 9 65 14
169 16 l147 3 79 203 80 202 864 0 864 0 62 25 c55 22 76 25 191 25 l129 0 -7
418 -7 417 138 72 138 73 243 0 243 0 0 -410 0 -410 1495 0 1495 0 0 410 0
410 218 0 217 0 360 275 360 274 303 1 302 0 0 -95 0 -95 260 0 260 0 0 100 0
100 90 0 90 0 0 -100 0 -100 255 0 255 0 0 100 0 100 75 0 75 0 0 -100 0 -100
120 0 c66 0 120 -2 120 -5 0 -3 -45 -185 -100 -405 -55 -220 -100 -408 -100
-419 0 -10 9 -40 21 -66 l21 -47 41 6 c23 3 332 40 687 81 355 41 659 77 676
80 17 3 67 33 112 66 77 57 80 62 71 86 -7 19 -6 30 3 38 10 10 1427 177 1486
175 7 0 17 -11 22 -25 11 -28 18 -29 129 -15 78 10 92 19 84 51 -3 12 0 19 8
19 16 0 264 29 300 35 l26 4 -75 -301 -75 -301 18 -54 c10 -30 21 -56 25 -58
3 -2 326 34 718 80 l712 83 84 63 c79 58 84 64 75 87 -7 18 -6 29 3 38 11 11
1400 174 1479 174 20 0 28 -6 33 -26 7 -25 8 -25 77 -18 120 12 134 17 134 46
-1 29 -10 27 183 49 56 7 105 10 107 7 3 -3 -26 -132 -65 -286 l-70 -281 24
-56 c16 -34 30 -53 38 -51 7 3 328 42 713 87 l700 82 83 61 c78 58 82 62 76
92 -3 17 -1 34 4 38 6 3 327 42 714 86 386 43 722 82 745 85 40 6 43 4 49 -21
l7 -26 90 7 c112 8 120 11 114 42 -3 18 1 24 17 28 18 4 2231 255 2247 255 3
0 14 -17 23 -38 l17 -38 102 12 c56 7 110 13 119 14 16 0 893 706 893 719 0 3
-9 30 -19 59 l-20 52 -60 0 c-200 0 -1501 61 -1510 70 -6 6 -12 59 -14 120
l-4 109 -41 5 c-23 3 -827 46 -1787 96 -959 50 -1746 92 -1747 94 -2 2 13 40
34 84 27 57 43 81 56 82 20 0 535 -57 580 -65 23 -4 31 1 53 36 14 22 27 46
30 53 4 9 -586 667 -734 818 -21 21 -54 35 -142 58 -108 28 -116 29 -127 13
-7 -10 -18 -26 -25 -35 -12 -17 -90 3 -1115 279 l-1101 297 5 31 5 31 -98 23
c-60 15 -99 20 -101 14 -16 -46 8 -51 -748 154 -396 107 -725 199 -732 205
-10 8 -9 16 2 37 14 27 13 29 -59 100 l-73 72 -674 185 c-371 101 -684 187
-695 190 -17 4 -27 -4 -52 -44 l-30 -49 35 -353 c19 -193 33 -354 30 -356 -2
-3 -79 16 -171 41 -91 25 -169 45 -172 45 -4 0 -1 6 5 14 18 21 2 45 -38 55
-161 42 -150 41 -162 18 -7 -12 -13 -24 -15 -25 -6 -7 -1440 382 -1453 394
-12 11 -12 18 -2 40 12 27 10 30 -61 100 l-73 72 -680 186 c-374 103 -687 189
-696 192 -12 3 -24 -11 -44 -49 l-28 -53 47 -490 c26 -269 49 -499 52 -511 4
-21 1 -23 -34 -23 -36 0 -39 -3 -65 -56 -21 -42 -32 -54 -45 -50 -9 2 -67 8
-128 11 l-111 7 -21 44 -22 44 -254 0 c-251 0 -255 0 -261 -21 -7 -21 -11 -21
-89 -15 -44 3 -93 6 -108 6 l-28 0 -2 162 -3 162 -1760 303 c-1509 260 -1774
304 -1858 303 -80 0 -271 28 -1044 155 -520 85 -952 155 -961 155 -9 0 -74
-57 -144 -127 l-128 -128 0 384 0 383 -150 188 c-149 187 -150 187 -196 194
-26 3 -703 6 -1505 6 l-1458 0 -3 113 -3 113 -290 -53z m5075 -2025 c404 -67
724 -124 710 -126 -14 -1 -289 15 -612 37 l-586 39 -151 43 -151 43 0 49 c0
48 0 49 28 44 15 -3 358 -61 762 -129z m787 -134 c-3 -3 -12 -4 -19 -1 -8 3
-5 6 6 6 11 1 17 -2 13 -5z m8581 -1279 c805 -90 1466 -165 1468 -168 2 -2
-16 -48 -41 -101 -38 -82 -46 -111 -51 -182 -4 -46 -12 -91 -18 -98 -6 -8
-137 -51 -291 -95 l-280 -79 -715 -58 -715 -57 -380 15 c-367 15 -381 14 -417
-3 -35 -18 -73 -19 -623 -19 -322 0 -585 4 -585 8 0 31 -42 408 -50 451 -5 30
-10 60 -10 67 0 11 39 14 210 14 l210 0 0 35 0 35 83 0 c45 1 231 5 412 10
182 4 332 5 335 0 4 -6 129 5 136 13 3 2 -43 89 -171 324 l-34 62 32 -5 c18
-3 691 -79 1495 -169z m2156 -241 c449 -51 413 -52 446 6 7 12 194 -7 1310
-132 716 -81 1304 -149 1307 -152 3 -3 -12 -45 -34 -93 l-40 -87 -59 3 c-32 1
-826 42 -1763 92 -937 49 -1708 89 -1713 89 -7 0 -8 21 -5 53 6 68 99 267 125
267 9 0 201 -21 426 -46z m-6870 -325 c83 -147 86 -154 86 -215 l0 -64 -155 0
-155 0 0 215 0 215 69 0 69 0 86 -151z m767 129 c-19 -47 -153 -353 -157 -357
-2 -2 -4 82 -4 187 l0 192 85 0 c84 0 84 0 76 -22z m679 -193 l0 -215 -75 0
-75 0 0 215 0 215 75 0 75 0 0 -215z m6765 -260 c913 -41 1663 -75 1667 -75
10 0 40 -71 33 -78 -3 -3 -656 21 -1452 52 -1542 61 -1594 63 -1662 51 -24 -4
-126 -4 -226 0 l-182 7 -26 65 -26 65 107 -6 c59 -4 854 -40 1767 -81z m-2077
-23 c2 -8 -8 -12 -29 -12 -31 0 -32 1 -13 15 21 16 36 15 42 -3z m5652 -139
c839 -37 1512 -70 1495 -72 -16 -1 -679 23 -1472 55 l-1442 58 -58 -28 c-50
-23 -67 -27 -105 -21 -37 6 -47 12 -52 30 -3 13 -9 31 -13 40 -6 16 0 17 58
12 35 -4 750 -37 1589 -74z m1638 -80 c-21 -2 -55 -2 -75 0 -21 2 -4 4 37 4
41 0 58 -2 38 -4z"/>
</g>
</svg>
