<?xml version="1.0" standalone="no"?>
<!DOCTYPE svg PUBLIC "-//W3C//DTD SVG 20010904//EN"
 "http://www.w3.org/TR/2001/REC-SVG-20010904/DTD/svg10.dtd">
<svg version="1.0" xmlns="http://www.w3.org/2000/svg"
   viewBox="0 0 4714.000000 2985.000000"
 preserveAspectRatio="xMidYMid meet">
<metadata>
Created by potrace 1.16, written by Peter Selinger 2001-2019
</metadata>
<g transform="translate(0.000000,2985.000000) scale(0.100000,-0.100000)"
fill="#000000" stroke="none">
<path d="M12890 29645 c-620 -178 -764 -223 -1195 -375 l-490 -173 -490 -343
-490 -342 -405 -452 -405 -452 -1062 -1035 -1063 -1035 -223 -305 -222 -305
-390 -190 c-214 -104 -393 -193 -398 -197 -4 -4 13 -144 38 -310 26 -167 45
-305 43 -306 -2 -2 -450 -120 -996 -263 -546 -143 -995 -262 -996 -263 -2 -2
-192 -227 -423 -499 l-420 -495 -1634 -604 c-899 -332 -1642 -608 -1651 -613
-15 -7 -7 -27 65 -166 80 -155 100 -191 185 -332 24 -40 85 -158 136 -263 50
-106 130 -264 178 -352 270 -502 293 -549 530 -1070 50 -110 282 -556 515
-992 234 -435 471 -891 528 -1012 56 -121 131 -273 165 -338 137 -257 444
-820 464 -848 12 -16 109 -205 216 -420 274 -547 779 -1527 795 -1544 11 -11
243 -16 1376 -30 l1363 -16 27 -235 c21 -177 52 -360 128 -745 56 -280 103
-519 106 -531 5 -25 13 -28 300 -138 121 -46 429 -172 685 -281 l465 -197 450
-448 450 -447 315 -117 315 -118 99 -561 c190 -1089 772 -4123 1298 -6776
l533 -2683 368 -184 368 -184 363 -32 364 -31 404 31 403 30 370 180 370 179
43 64 c23 35 97 151 164 257 l121 193 484 2577 484 2577 199 1280 199 1280
267 1015 c147 558 271 1019 275 1024 4 5 102 30 218 55 l211 46 856 795 c470
437 878 815 906 840 l50 45 34 700 c33 687 37 982 19 1318 l-5 88 688 -6 c378
-3 708 -8 733 -10 l46 -5 7 162 c3 90 9 209 13 266 l6 102 356 0 356 0 52 35
52 35 454 0 454 0 77 55 76 55 604 0 c582 0 606 -1 651 -20 44 -19 69 -20 519
-20 260 0 528 3 595 7 l123 6 52 78 51 77 121 7 121 7 684 -360 684 -359 803
-69 803 -69 383 -710 384 -710 827 -266 c454 -147 828 -269 831 -272 3 -2 30
-93 61 -201 l56 -196 182 -160 183 -159 88 -20 c49 -11 139 -27 199 -36 213
-32 922 -146 1087 -176 252 -44 241 -45 495 64 l216 92 113 173 113 172 38 -5
c21 -3 398 -32 838 -65 440 -34 814 -63 830 -66 26 -4 43 -24 124 -150 74
-116 104 -172 141 -272 25 -70 417 -1016 869 -2102 579 -1389 831 -1983 849
-2002 15 -15 599 -508 1299 -1095 l1272 -1068 755 -413 c415 -226 756 -412
759 -412 2 0 177 162 388 360 211 198 389 360 394 360 6 0 331 -112 723 -248
l712 -249 18 31 c10 17 153 282 317 589 l299 557 255 155 255 155 31 -55 c17
-30 34 -57 37 -60 3 -3 170 83 371 190 l365 196 12 52 c63 267 567 1765 1161
3447 250 707 363 1020 379 1049 4 8 -69 146 -203 380 -115 201 -215 372 -222
379 -9 11 -26 6 -88 -22 -70 -31 -78 -33 -86 -18 -5 9 -51 118 -104 242 -52
124 -216 502 -365 840 l-269 615 -12 255 c-7 140 -20 309 -29 375 l-18 120
-116 -4 c-106 -3 -116 -2 -122 15 -7 24 -689 2198 -752 2398 l-47 150 24 320
c19 264 23 381 20 661 l-2 340 -250 893 -249 892 -618 1018 -619 1017 -562
675 -563 675 -601 553 -602 552 -606 390 c-550 353 -659 419 -1164 700 l-558
311 -1706 309 -1706 310 -1875 248 -1875 249 -1330 -119 -1330 -118 -515 82
-515 82 -801 607 -801 608 -1414 289 -1414 290 -1430 -180 -1429 -179 -431
-275 c-236 -152 -642 -412 -902 -578 -349 -222 -475 -308 -483 -328 -11 -24
-18 -27 -83 -32 -73 -6 -1313 -47 -1397 -46 l-45 0 -164 293 -165 292 -850
812 -851 812 -386 290 -387 290 -218 46 c-121 26 -226 48 -234 50 -8 1 -332
-88 -720 -200z m11197 -13448 c494 -299 907 -548 917 -554 14 -8 -139 -9 -530
-6 -541 5 -550 5 -604 -16 -54 -21 -68 -21 -655 -21 l-601 0 -79 55 -79 55
-453 0 -454 0 -59 40 -59 40 -337 0 -337 0 8 148 c4 81 9 150 11 154 3 4 155
147 339 318 l334 311 518 8 c285 4 676 9 870 9 l352 2 898 -543z m1171 -725
c-53 -3 -56 -1 -93 61 -16 28 -16 27 63 -15 l80 -43 -50 -3z"/>
</g>
</svg>
