<?xml version="1.0" standalone="no"?>
<!DOCTYPE svg PUBLIC "-//W3C//DTD SVG 20010904//EN"
 "http://www.w3.org/TR/2001/REC-SVG-20010904/DTD/svg10.dtd">
<svg version="1.0" xmlns="http://www.w3.org/2000/svg"
   viewBox="0 0 3426.000000 1009.000000"
 preserveAspectRatio="xMidYMid meet">
<metadata>
Created by potrace 1.16, written by Peter Selinger 2001-2019
</metadata>
<g transform="translate(0.000000,1009.000000) scale(0.100000,-0.100000)"
fill="#000000" stroke="none">
<path d="M9334 10045 c4 -11 90 -235 192 -497 155 -403 184 -485 184 -530 0
-29 4 -60 9 -68 8 -11 91 -18 427 -37 l418 -22 30 -31 31 -30 -393 0 -392 0 0
-270 0 -270 -170 0 c-168 0 -170 0 -158 20 8 12 24 20 40 20 26 0 28 3 28 42
0 29 -8 54 -26 80 l-27 38 -82 0 -82 0 -18 -54 c-15 -45 -17 -60 -7 -81 7 -16
12 -79 12 -164 0 -131 1 -139 23 -159 13 -12 31 -22 40 -22 9 0 17 -5 17 -11
0 -6 -8 -8 -17 -5 -73 22 -152 26 -580 26 l-473 0 0 43 c0 39 -5 48 -60 102
-33 33 -60 67 -60 76 0 17 -20 26 -292 139 l-78 32 0 84 c0 77 2 84 20 84 11
0 20 7 20 15 0 11 12 15 50 15 l50 0 0 85 0 85 190 0 191 0 -3 127 -3 128 -72
20 -73 20 0 117 0 118 105 0 c86 0 105 3 105 15 0 16 -4 17 -127 39 -113 21
-1067 31 -1688 18 l-470 -10 -365 -75 c-201 -42 -490 -101 -642 -133 -153 -32
-280 -55 -282 -53 -2 2 -115 191 -251 419 -136 228 -252 420 -258 425 -15 16
-5 -2 247 -439 130 -224 236 -417 236 -427 0 -18 -14 -19 -360 -19 -243 0
-367 4 -384 11 -21 10 -88 -10 -493 -145 l-468 -156 -170 -20 c-150 -18 -233
-20 -707 -20 -352 0 -538 -3 -538 -10 0 -6 -29 -10 -68 -10 -72 0 -92 -10 -92
-45 0 -12 -11 -32 -25 -45 -21 -20 -25 -32 -25 -85 0 -53 4 -65 25 -85 15 -14
25 -35 25 -52 l0 -28 -500 0 -500 0 0 -25 0 -25 -260 0 -260 0 0 -118 c0 -112
-1 -118 -23 -127 -20 -9 -22 -18 -25 -95 -3 -81 -1 -87 23 -110 l25 -23 0
-382 0 -382 -25 -23 c-22 -21 -25 -31 -25 -101 0 -71 2 -79 25 -97 25 -20 25
-21 25 -181 l0 -161 655 0 655 0 0 -33 c0 -24 9 -42 34 -66 19 -18 36 -43 38
-55 4 -21 3 -22 -126 -18 -72 2 -156 10 -187 18 -45 11 -155 14 -527 14 -470
0 -470 0 -484 -22 -13 -19 -8 -47 49 -282 52 -212 68 -264 86 -278 20 -16 58
-18 419 -18 362 0 405 2 483 20 66 15 121 20 235 20 93 0 150 -4 150 -10 0 -5
11 -10 24 -10 21 0 36 -16 36 -40 0 -4 -9 -10 -20 -13 -18 -5 -20 -14 -20 -82
0 -70 3 -82 40 -149 l40 -73 0 -190 0 -190 272 -6 c149 -4 635 -7 1080 -7
l808 0 35 -22 c28 -18 35 -30 35 -55 0 -23 -5 -33 -20 -38 -11 -3 -20 -9 -20
-13 0 -8 750 -493 829 -536 29 -16 83 -36 120 -45 l66 -17 57 -94 56 -95 84
-16 c45 -9 205 -40 353 -68 l270 -52 85 -101 c47 -55 92 -103 100 -108 8 -4
94 -35 190 -68 96 -33 183 -64 193 -67 15 -6 17 -23 17 -141 l0 -134 -243
-383 c-134 -210 -251 -394 -261 -409 -10 -16 -16 -28 -13 -28 2 0 123 180 267
400 l263 400 272 0 c230 0 274 2 285 15 9 11 34 15 95 15 77 0 98 -5 290 -71
187 -65 204 -73 191 -88 -13 -14 -4 -28 91 -129 l106 -113 -37 -37 c-20 -21
-36 -47 -36 -58 0 -14 169 -206 469 -535 l470 -514 0 -132 1 -133 2148 0 2148
0 818 -275 818 -275 4642 0 c4630 0 4643 0 4661 20 16 17 31 20 107 20 l88 0
0 34 c0 25 7 39 22 50 25 17 68 22 68 7 0 -5 26 -26 59 -45 l59 -36 152 0
c131 0 151 2 146 15 -5 13 25 15 232 15 l237 0 474 -560 c261 -308 476 -560
478 -560 6 0 16 -12 -487 593 -250 302 -456 557 -458 568 -3 16 3 19 42 19 34
0 46 -4 46 -15 0 -8 6 -15 13 -15 16 0 27 331 27 788 l0 262 -60 0 -60 0 0
126 0 125 58 -6 c31 -3 67 -8 80 -11 14 -3 22 0 22 9 0 8 12 19 27 26 24 11
29 9 67 -28 l42 -41 3486 0 3487 0 60 88 c33 48 61 97 61 108 0 19 -23 32
-150 85 l-150 64 0 56 0 56 61 7 c34 3 147 6 252 6 l190 0 171 109 171 109
225 6 c124 3 291 9 373 12 141 6 147 7 147 28 0 11 4 27 8 34 7 10 180 22 495
32 4 0 7 41 7 90 l0 90 -1670 0 -1670 0 0 30 0 30 1770 0 1770 0 0 2394 c0
1634 -3 2397 -10 2401 -6 4 -79 30 -163 60 -144 50 -152 54 -161 84 l-9 31
-95 0 -95 0 -889 455 c-846 433 -891 455 -942 455 -39 0 -55 4 -60 15 -4 11
-15 14 -43 10 l-38 -6 -165 231 c-90 126 -166 230 -168 230 -5 0 -2 -5 172
-260 80 -118 143 -217 138 -221 -4 -3 -110 -47 -237 -98 l-230 -91 -10140 0
c-8598 0 -10227 -3 -10715 -15 -316 -8 -600 -15 -631 -15 l-56 0 -193 478
c-106 262 -195 479 -198 482 -3 3 -2 -4 2 -15z m6206 -2555 l0 -420 -55 0 -55
0 0 420 0 420 55 0 55 0 0 -420z m3730 0 l0 -420 -60 0 -60 0 0 420 0 420 60
0 60 0 0 -420z m3720 0 l0 -420 -55 0 -55 0 0 420 0 420 55 0 55 0 0 -420z
m3730 0 l0 -420 -55 0 -55 0 0 420 0 420 55 0 55 0 0 -420z m3720 0 l0 -420
-55 0 -55 0 0 420 0 420 55 0 55 0 0 -420z m-17540 -2757 l1532 -1348 51 -3
50 -3 -44 -45 c-49 -50 -59 -54 -59 -20 0 19 -155 161 -766 705 -662 588 -769
679 -785 670 -16 -8 -124 84 -791 677 -425 378 -780 693 -788 700 -12 12 -8
14 26 14 40 0 74 -29 1574 -1347z m2640 -898 l0 -455 -55 0 -55 0 0 455 0 455
55 0 55 0 0 -455z m3730 0 l0 -455 -60 0 -60 0 0 455 0 455 60 0 60 0 0 -455z
m3720 0 l0 -455 -55 0 -55 0 0 455 0 455 55 0 55 0 0 -455z m3730 0 l0 -455
-55 0 -55 0 0 455 0 455 55 0 55 0 0 -455z m3720 0 l0 -455 -55 0 -55 0 0 455
0 455 55 0 55 0 0 -455z m-11570 -425 l0 -30 -1525 0 -1525 0 0 30 0 30 1525
0 1525 0 0 -30z m3730 0 l0 -30 -1525 0 -1525 0 0 30 0 30 1525 0 1525 0 0
-30z m3730 0 l0 -30 -1530 0 -1530 0 0 30 0 30 1530 0 1530 0 0 -30z m3720 0
l0 -30 -1525 0 -1525 0 0 30 0 30 1525 0 1525 0 0 -30z m-21120 -225 l0 -95
-115 0 -115 0 0 95 0 95 115 0 115 0 0 -95z m5373 -222 l-143 -4 0 -34 0 -35
-710 0 -710 0 0 40 0 40 853 -2 c468 -1 788 -4 710 -5z m9350 -152 c65 -90 73
-124 30 -112 -18 5 -36 23 -53 52 -14 24 -38 65 -53 92 l-28 47 24 0 c18 0 37
-19 80 -79z m2922 69 c3 -5 44 -10 90 -10 46 0 87 5 90 10 4 6 194 10 536 10
500 0 530 -1 525 -17 -2 -10 -8 -55 -11 -100 l-7 -83 -1249 0 c-1208 0 -1249
1 -1249 18 0 11 -29 53 -65 95 -36 42 -65 79 -65 82 0 10 1399 5 1405 -5z
m3730 0 c7 -12 156 -14 170 -2 6 4 137 6 292 4 l282 -3 56 -79 c30 -44 55 -86
55 -95 0 -13 -109 -15 -1009 -15 l-1009 0 -6 63 c-4 34 -9 79 -12 100 l-6 37
591 0 c382 0 592 -4 596 -10z"/>
<path d="M4340 9990 c6 -11 13 -20 16 -20 2 0 0 9 -6 20 -6 11 -13 20 -16 20
-2 0 0 -9 6 -20z"/>
</g>
</svg>
