<?xml version="1.0" standalone="no"?>
<!DOCTYPE svg PUBLIC "-//W3C//DTD SVG 20010904//EN"
 "http://www.w3.org/TR/2001/REC-SVG-20010904/DTD/svg10.dtd">
<svg version="1.0" xmlns="http://www.w3.org/2000/svg"
   viewBox="0 0 4079.000000 3852.000000"
 preserveAspectRatio="xMidYMid meet">
<metadata>
Created by potrace 1.16, written by Peter Selinger 2001-2019
</metadata>
<g transform="translate(0.000000,3852.000000) scale(0.100000,-0.100000)"
fill="#000000" stroke="none">
<path d="M22273 37958 l-439 -563 93 -5 94 -5 -197 -239 c-205 -250 -208 -256
-137 -256 17 0 34 -4 37 -9 3 -5 -134 -177 -305 -383 l-312 -373 862 -3 c679
-2 861 -5 861 -15 0 -6 22 -24 49 -39 l49 -28 435 0 c376 0 436 -2 441 -15 5
-13 68 -15 461 -17 l456 -3 -206 -107 -206 -108 -559 0 -559 0 -243 -180 -242
-180 -1092 0 -1093 0 -600 -722 -599 -723 1754 -3 c1393 -2 1754 -5 1754 -15
0 -6 22 -24 49 -39 l49 -28 435 0 c376 0 437 -2 444 -15 7 -13 69 -15 428 -17
l419 -3 -188 -107 -189 -108 -1196 0 -1196 0 -195 -160 -195 -160 -1360 -2
-1359 -3 -615 -730 -614 -730 1326 -5 1325 -5 46 -32 46 -33 0 -104 0 -105
-57 -41 c-32 -23 -119 -111 -193 -195 l-135 -154 -1458 0 -1458 -1 76 90 c42
50 75 94 73 99 -2 5 -30 29 -64 54 l-61 45 -144 -173 -144 -172 -90 -7 c-64
-5 -95 -12 -107 -24 -9 -9 -208 -228 -442 -487 l-425 -470 -1 -1222 0 -1222
-75 -16 -75 -17 0 -309 0 -310 125 -142 125 -142 0 -67 0 -68 -294 0 -294 0
-16 25 -16 25 -309 0 -309 0 -63 75 -64 75 -437 0 c-383 0 -438 2 -438 15 0
11 -11 15 -36 15 -27 0 -43 7 -64 30 -26 27 -34 30 -94 30 -64 0 -66 1 -66 26
0 33 -192 241 -257 280 -42 25 -45 25 -64 8 -19 -17 -18 -18 3 -53 11 -20 41
-56 65 -81 42 -45 43 -47 43 -112 0 -58 -3 -70 -27 -97 -20 -23 -36 -31 -61
-31 -20 0 -35 -6 -38 -15 -5 -13 -41 -15 -235 -15 l-229 0 0 -110 0 -110 193
0 192 0 64 -111 c38 -65 72 -114 85 -119 11 -4 86 -24 166 -45 l145 -37 26
-61 25 -62 142 -3 142 -3 0 -384 c0 -336 -2 -385 -15 -385 -11 0 -15 11 -15
40 l0 40 -1166 0 -1166 0 -114 -77 c-75 -51 -114 -83 -114 -95 0 -16 -11 -18
-132 -18 l-132 0 -1388 -562 -1388 -562 0 -213 0 -213 -410 0 -410 0 0 195 0
195 -860 0 -860 0 0 -195 0 -195 -595 0 -595 0 0 200 0 200 -2050 0 c-1127 0
-2050 -1 -2050 -2 0 -2 9 -31 19 -65 l19 -63 -109 0 c-60 0 -109 -3 -109 -6 0
-4 133 -469 196 -686 3 -10 68 -63 144 -118 l140 -101 33 -107 c19 -59 56
-180 82 -269 26 -90 53 -163 59 -163 20 0 95 -242 131 -427 31 -158 56 -259
130 -520 l15 -52 57 -3 58 -3 106 -250 c98 -231 108 -250 132 -253 l27 -3 0
-285 0 -284 50 0 50 0 0 -55 0 -55 150 0 150 0 0 55 0 55 270 0 270 0 0 -55 0
-55 155 0 155 0 0 55 0 55 244 0 244 0 86 -165 c75 -143 86 -171 86 -215 l0
-50 -445 0 -445 0 0 -431 0 -431 80 -104 80 -105 0 -299 0 -300 378 0 379 0
26 -60 26 -60 825 0 826 0 0 -126 0 -126 425 4 425 3 0 -57 0 -58 68 0 c38 0
110 3 160 6 l92 7 0 48 0 49 508 1 c279 0 545 4 592 8 l85 6 348 245 348 245
-6 77 -7 78 101 0 101 0 0 -80 0 -80 255 -2 256 -3 -373 -275 -373 -276 -3
-932 -2 -932 338 0 c186 0 441 -3 565 -7 l226 -6 3 -26 c3 -23 19 -31 233
-107 l230 -83 423 0 422 -1 0 -65 0 -65 150 0 150 0 0 65 0 65 140 0 140 0 0
-65 0 -65 155 0 155 0 0 65 0 65 393 0 392 0 68 84 c45 56 67 92 67 110 l0 26
128 0 127 0 315 450 315 450 87 0 88 0 0 -550 0 -550 -30 0 c-19 0 -33 -7 -40
-19 -6 -12 -10 -113 -10 -259 l0 -240 25 -16 c13 -9 31 -16 40 -16 9 0 15 -9
15 -25 0 -24 2 -25 70 -25 l70 0 0 -75 0 -75 305 0 305 0 0 75 0 75 90 0 90 0
0 -75 0 -75 305 0 305 0 0 76 c0 105 18 96 82 -38 l51 -107 -27 -36 -27 -35
-150 0 -149 0 1 -152 1 -153 639 -603 639 -603 0 -534 0 -535 -90 0 -90 0 0
-155 0 -155 -400 0 -400 0 0 -25 0 -25 -100 0 -100 0 0 -1270 0 -1270 590 0
590 0 0 -1270 0 -1270 1650 0 1650 0 0 -2590 0 -2590 -135 0 -135 0 0 -90 0
-90 60 0 60 0 0 -90 0 -90 -75 0 -75 0 0 -310 0 -310 403 0 403 0 272 -233
271 -232 1 -172 0 -173 195 0 195 0 0 48 0 47 115 50 115 50 0 43 0 42 900 0
900 0 0 30 0 30 -900 0 -900 0 0 158 0 159 917 6 c504 4 1386 7 1960 7 l1043
0 0 70 0 70 -187 0 -188 0 -22 -32 -23 -32 -1136 3 -1136 3 -63 44 -63 44
-303 -2 -303 -3 -12 -40 -11 -40 -236 -3 -237 -2 0 85 0 85 -115 0 c-108 0
-115 1 -115 20 0 19 -7 20 -110 20 l-110 0 0 91 0 91 37 -30 37 -30 163 158
163 157 1203 7 c661 3 1354 9 1540 12 l337 7 0 23 0 24 -893 0 -893 0 -65 50
-64 50 -495 0 -495 0 168 168 167 167 0 188 0 187 1494 0 1493 0 2388 2848
2387 2847 206 5 206 5 866 1035 865 1035 193 3 192 2 0 485 0 484 -75 116
c-54 84 -80 115 -95 115 -20 0 -20 6 -20 800 l0 800 75 0 75 0 0 63 c0 54 21
126 150 519 l150 456 0 306 0 306 -613 0 -613 0 -64 -65 -64 -65 -3426 0
-3426 0 -52 60 -53 60 -1830 0 -1829 0 0 85 0 85 -80 0 -80 0 0 510 0 510 673
0 672 0 603 412 602 413 0 38 0 37 245 0 245 0 0 45 0 45 1900 0 1900 0 0 170
0 170 1992 -2 1992 -3 31 -77 30 -78 213 0 212 0 0 -27 0 -26 1712 6 c941 4
2003 7 2360 7 l648 0 0 28 0 29 -97 6 c-54 4 -758 7 -1565 7 -972 0 -1468 3
-1468 10 0 6 -16 10 -35 10 -32 0 -35 2 -35 30 l0 30 900 0 900 0 0 25 0 25
-900 0 c-793 0 -900 2 -900 15 0 13 -50 15 -390 15 l-390 0 0 80 0 80 335 0
335 0 0 235 0 235 104 0 c75 0 106 4 108 13 4 9 137 13 604 17 329 3 600 7
602 8 1 1 2 13 2 27 l0 25 -327 1 c-347 1 -925 15 -1030 25 l-63 6 0 244 0
244 40 0 40 0 0 100 0 100 -35 0 -35 0 0 50 0 50 -51 0 c-47 0 -59 6 -144 65
l-94 65 -207 0 -207 0 -63 -35 -62 -35 -421 0 c-368 0 -421 -2 -421 -15 0 -13
-139 -15 -1190 -15 -1183 0 -1190 0 -1190 20 0 19 -7 20 -150 20 l-150 0 0 35
0 35 69 0 68 0 7 46 c3 26 6 60 6 75 l0 29 -349 0 -349 0 -6 -22 c-3 -13 -6
-42 -6 -65 0 -41 -2 -43 -29 -43 -33 0 -41 -17 -41 -87 l0 -43 -600 0 c-593 0
-600 0 -600 20 0 19 -7 20 -145 20 l-145 0 0 35 0 35 70 0 70 0 0 29 c0 15 3
49 6 75 l7 46 -357 0 c-349 0 -356 0 -356 -20 0 -30 -61 -27 -108 5 -36 25
-39 25 -254 25 l-218 0 -16 -25 -16 -25 -1024 0 -1024 0 0 75 0 75 -155 0
-155 0 0 155 0 155 -835 0 -835 0 0 130 0 130 -530 0 -530 0 0 155 0 155 665
0 665 0 0 155 0 155 -665 0 -665 0 0 40 c0 38 2 40 30 40 30 0 30 1 30 53 0
53 1 54 120 204 l120 151 0 136 0 136 336 0 335 0 131 -90 131 -90 131 0 131
0 523 520 522 520 0 310 0 310 805 0 805 0 0 -130 0 -130 125 0 125 0 0 130 0
130 290 0 290 0 0 -130 0 -130 120 0 120 0 0 130 0 130 408 0 409 0 79 -60 79
-59 860 -1 861 0 73 -120 74 -120 588 0 589 0 0 93 c0 89 -1 94 -28 120 l-28
27 -342 0 -342 0 0 135 0 135 798 0 798 0 48 65 48 65 1946 0 1947 -1 90 -119
90 -119 1590 0 1591 -1 30 -52 30 -53 499 -3 c436 -2 500 0 508 13 7 13 41 15
215 15 l206 0 37 36 c67 65 76 64 -406 64 l-433 0 -65 113 -65 112 919 3 919
2 0 76 0 75 570 573 570 573 0 111 0 112 50 0 50 0 0 165 0 165 -80 0 c-69 0
-90 5 -159 35 l-79 35 -1589 0 -1588 0 -153 -160 -153 -160 -599 0 -599 0 -37
-45 -36 -45 -304 0 c-264 0 -304 2 -304 15 0 13 -26 15 -170 15 -144 0 -170
-2 -170 -15 0 -13 -45 -15 -345 -15 -300 0 -345 2 -345 15 0 13 -26 15 -170
15 -144 0 -170 -2 -170 -15 0 -13 -28 -15 -195 -15 l-195 0 0 260 0 260 -80 0
-80 0 0 -260 0 -260 -70 0 c-56 0 -70 3 -70 15 0 13 -26 15 -170 15 -144 0
-170 -2 -170 -15 0 -13 -44 -15 -340 -15 -296 0 -340 2 -340 15 0 13 -26 15
-170 15 -144 0 -170 -2 -170 -15 0 -13 -45 -15 -345 -15 -300 0 -345 2 -345
15 0 13 -26 15 -170 15 l-170 0 0 245 0 245 -80 0 -80 0 0 -260 0 -260 -219 0
-220 0 -53 100 -53 100 -537 0 -538 0 0 -145 0 -145 -105 0 -105 0 0 145 0
145 -315 0 -315 0 0 -145 0 -145 -95 0 -95 0 0 145 0 145 -480 0 -480 0 0 160
0 160 -80 0 -80 0 0 -305 0 -305 -175 0 -175 0 0 178 -1 177 -206 243 -207
242 -213 0 -213 0 0 165 0 165 1145 0 1145 0 0 25 0 25 -1145 0 -1145 0 0 123
0 124 1142 6 c628 4 1615 7 2195 7 l1053 0 0 35 0 35 -370 0 -370 0 -61 45
-61 45 -289 0 -288 0 -12 -40 -12 -40 -1464 0 -1463 0 0 731 0 732 87 143 88
144 287 0 288 0 0 343 0 342 -130 250 -129 250 -1 78 c0 62 -3 77 -15 77 -13
0 -15 108 -15 909 l0 910 21 3 c16 2 37 32 80 113 l59 110 0 418 0 417 -223 0
-222 0 -238 238 -237 237 0 2609 0 2608 50 64 50 64 -1 317 -1 318 -214 203
-215 202 -1099 0 -1098 0 -439 -562z m2447 233 c0 -27 -13 -36 -213 -150
l-213 -121 -402 0 -402 0 -171 -145 -171 -145 -389 0 c-214 0 -389 2 -389 5 0
3 51 66 112 140 l113 135 263 0 263 0 80 67 c69 59 79 72 79 100 l0 33 219 0
219 0 37 55 38 55 464 0 463 0 0 -29z m-1530 -100 c0 -11 -23 -39 -54 -65
l-54 -46 -212 2 -213 3 52 63 53 62 214 0 c204 0 214 -1 214 -19z m1440 -703
c0 -319 -4 -528 -9 -523 -5 6 -43 52 -85 103 l-76 94 0 398 0 398 73 30 c39
17 78 31 85 31 9 1 12 -112 12 -531z m0 -2139 l0 -531 -85 103 -85 104 2 400
3 400 75 27 c41 15 78 27 83 27 4 1 7 -238 7 -530z m0 -2121 c0 -319 -4 -528
-9 -523 -5 6 -43 52 -85 103 l-76 94 0 398 0 399 58 20 c31 12 66 26 77 31 11
5 23 9 28 9 4 1 7 -238 7 -531z m-1800 -1281 c0 -6 20 -24 45 -40 l46 -27 438
0 c381 0 440 -2 445 -15 5 -13 65 -15 458 -15 l453 0 -210 -120 -210 -120
-1732 0 -1733 0 0 175 0 175 1000 0 c796 0 1000 -3 1000 -13z m1800 -869 c0
-319 -4 -528 -9 -523 -5 6 -43 52 -85 103 l-76 94 0 398 0 399 58 20 c31 12
66 26 77 31 11 5 23 9 28 9 4 1 7 -238 7 -531z m-8330 -703 l0 -185 -73 0 -73
0 -52 53 -53 53 107 132 c67 82 115 132 126 132 17 0 18 -13 18 -185z m-140
-372 l0 -113 -55 0 -55 0 0 167 0 167 55 -54 55 -54 0 -113z m4077 -229 l53
-36 0 -107 0 -107 -50 -37 -49 -37 -358 0 -358 -1 -142 -124 -142 -125 -1571
0 -1570 0 0 300 0 300 168 3 c92 1 1022 4 2067 5 l1900 2 52 -36z m2593 22 c0
-8 20 -26 44 -40 l45 -26 439 0 c380 0 441 -2 446 -15 5 -13 68 -15 461 -17
l456 -3 -214 -122 -215 -123 -1731 0 -1731 0 0 180 0 180 1000 0 c852 0 1000
-2 1000 -14z m1800 -878 c0 -293 -4 -528 -8 -523 -5 6 -43 52 -86 104 l-76 93
2 400 3 400 75 28 c41 16 78 29 83 29 4 1 7 -238 7 -531z m-8500 105 l0 -98
-40 -22 -40 -21 0 119 0 119 40 0 40 0 0 -97z m148 -722 l-3 -199 -113 65
-112 65 2 270 3 270 110 64 110 63 3 -199 c1 -110 1 -289 0 -399z m-88 -509
l0 -214 -32 19 -33 19 -3 212 -2 212 35 -17 35 -17 0 -214z m-570 -335 l0
-223 36 -42 c31 -36 35 -47 32 -86 l-3 -44 -62 73 -63 74 0 230 c0 210 1 230
18 234 43 11 42 17 42 -216z m7210 179 c0 -8 21 -26 46 -40 l47 -26 437 0
c379 0 439 -2 444 -15 5 -13 68 -15 461 -17 l455 -3 -87 -142 -86 -143 -1727
0 -1728 0 -258 -235 -259 -234 -375 -1 -375 -1 -105 -44 c-63 -26 -106 -50
-108 -59 -4 -19 -100 -20 -899 -9 -486 6 -502 7 -505 26 -2 14 -26 28 -87 53
l-85 34 -402 0 -403 0 -3 47 -3 46 -509 293 c-280 161 -513 297 -518 302 -4 4
13 47 38 95 l47 87 3274 0 c2815 0 3273 -2 3273 -14z m-248 -891 l298 -115
830 0 830 0 -2 -297 -3 -297 -194 -148 -194 -148 -1367 0 -1367 0 -169 103
-169 102 -3 150 -3 150 -140 74 c-77 41 -138 77 -137 82 2 4 118 109 257 233
l255 226 490 0 490 0 298 -115z m-2194 -7393 c-1 -5 -21 -39 -43 -75 l-40 -67
-271 0 -272 0 -26 34 c-18 24 -26 47 -26 75 l0 41 341 0 c187 0 339 -4 337 -8z
m1802 -420 l0 -59 1423 3 c782 1 1402 0 1379 -3 -43 -4 -43 -5 -26 -24 15 -16
31 -19 120 -19 l104 0 60 -72 c56 -68 60 -76 58 -118 -2 -42 -1 -45 30 -54 37
-10 36 0 17 -176 -8 -74 -15 -138 -15 -142 0 -5 -91 -8 -203 -8 l-203 0 -39
-40 -39 -40 -192 0 -192 0 -16 -25 -16 -25 -664 0 -663 0 -11 25 -12 25 -275
0 -275 0 -530 368 -531 367 86 3 c85 3 85 3 108 37 l22 35 248 0 247 0 0 -58z
m3130 -144 l-1 -43 -29 35 c-37 44 -37 50 0 50 29 0 30 -2 30 -42z m2139 -158
c5 -17 17 -30 26 -30 14 0 16 -7 11 -37 -3 -21 -10 -87 -16 -148 -6 -60 -13
-120 -16 -132 l-4 -23 -709 0 c-695 0 -708 0 -726 20 -12 13 -31 20 -57 20
-31 0 -38 3 -38 20 0 31 20 271 26 308 l5 32 743 0 744 0 11 -30z m3171 0 c0
-28 3 -30 37 -30 24 0 123 -34 270 -92 l233 -93 0 -72 0 -73 -194 0 c-160 0
-196 3 -206 15 -10 12 -48 15 -226 15 l-214 0 -43 -59 -42 -60 -745 0 -745 -1
-19 35 -19 35 -273 0 -273 0 -19 25 c-15 19 -29 25 -61 25 -23 0 -41 1 -41 3
0 1 7 76 15 167 8 91 15 171 15 178 0 9 262 12 1275 12 l1275 0 0 -30z m-290
-4726 c75 -156 90 -195 90 -235 0 -47 -1 -49 -29 -49 -16 0 -31 6 -35 15 -8
22 -438 22 -476 0 -20 -11 -83 -14 -321 -15 l-297 0 -31 -35 c-17 -20 -31 -42
-31 -50 0 -13 -461 -15 -3732 -15 l-3732 0 27 28 c15 16 61 57 102 93 68 58
74 67 75 102 l0 37 478 0 477 0 182 130 182 130 2714 0 2714 0 23 25 23 25
754 0 754 0 89 -186z m130 -1451 c0 -112 -2 -123 -20 -133 -20 -10 -20 -8 -20
135 0 143 0 145 20 133 18 -12 20 -24 20 -135z m110 -140 l-1 -288 -24 28 -25
28 0 260 0 259 25 0 25 0 0 -287z m-9150 -53 l0 -250 90 0 90 0 0 -145 0 -145
510 0 510 0 0 -175 0 -175 -510 0 -510 0 0 -900 0 -900 510 0 510 0 0 -170 0
-170 -510 0 -510 0 0 -419 0 -419 455 -409 454 -408 1 -77 0 -78 55 0 55 0 0
-170 0 -170 -55 0 -55 0 0 -900 0 -900 55 0 55 0 0 -170 0 -170 -477 0 -478 0
-97 -97 -98 -98 0 -300 0 -300 517 -502 516 -503 306 0 306 0 125 150 125 150
536 0 537 0 26 35 c20 26 34 35 57 35 21 0 38 9 56 30 15 18 34 30 49 30 24 0
24 -1 24 -107 l0 -108 -303 -362 -302 -362 -857 0 -858 -1 0 199 0 200 -25 3
c-16 2 -130 107 -354 326 l-329 322 -164 0 -164 0 -67 63 -67 62 0 3720 0
3720 -64 110 -63 109 -256 159 -256 160 29 36 30 36 0 327 0 328 420 0 420 0
0 -250z m9150 -577 l0 -213 -104 0 c-83 0 -105 3 -110 15 -4 13 -39 15 -221
15 -169 0 -223 -3 -252 -15 -29 -12 -91 -15 -328 -15 l-293 0 -31 -39 c-17
-21 -31 -44 -31 -50 0 -8 -849 -11 -3125 -11 l-3125 0 0 175 0 175 2399 0
2398 0 127 150 127 150 1209 0 c1146 0 1210 1 1210 18 1 11 27 -10 75 -62 l75
-79 0 -214z m-42 -1322 c-1 -4 -88 -110 -193 -235 l-190 -226 -3 40 c-3 36 2
47 46 98 26 31 101 119 166 195 103 120 121 137 147 137 17 0 29 -4 27 -9z
m-488 -483 l0 -103 -177 -210 -176 -210 -581 -7 c-320 -4 -721 -10 -893 -13
l-312 -6 -38 -49 -38 -49 -2437 -1 -2438 0 0 170 0 170 1958 0 1957 0 125 150
125 150 1357 0 1357 0 19 25 c15 18 29 25 55 25 28 0 40 6 57 30 15 22 30 30
51 30 l29 0 0 -102z m-1097 -1410 c-44 -51 -186 -221 -318 -378 -304 -364
-277 -336 -273 -278 3 47 10 57 298 398 293 347 295 350 333 350 l39 0 -79
-92z m-8793 -778 l0 -490 -115 0 -115 0 0 490 0 490 115 0 115 0 0 -490z
m8100 62 l0 -108 -177 -212 -178 -212 -563 0 c-477 0 -568 -2 -599 -15 -29
-12 -91 -15 -333 -15 l-298 0 -31 -42 c-17 -23 -31 -48 -31 -55 0 -11 -282
-13 -1545 -13 l-1545 0 0 170 0 170 1129 0 1130 0 127 155 128 155 1286 0
1286 0 34 35 c20 21 44 35 58 35 14 0 34 12 49 30 15 18 34 30 49 30 24 0 24
-1 24 -108z m-8550 -1884 l-1 -1203 -122 -87 c-67 -48 -141 -101 -164 -118
l-43 -32 0 1321 0 1321 165 0 165 0 0 -1202z m450 521 l0 -250 185 -201 185
-200 0 -1503 0 -1504 -286 -348 c-158 -191 -293 -355 -300 -363 -12 -12 -14
333 -14 2303 l0 2317 115 0 115 0 0 -251z m7053 8 c-10 -13 -157 -189 -328
-392 l-310 -369 -3 42 c-3 40 0 45 290 391 290 346 293 350 331 350 l38 1 -18
-23z m-743 -782 l0 -105 -185 -220 -186 -220 -565 0 c-479 0 -570 -2 -601 -15
-29 -12 -90 -15 -326 -15 l-291 0 -38 -37 c-21 -20 -38 -43 -38 -50 0 -11
-122 -13 -640 -13 l-640 0 0 170 0 170 303 0 302 0 125 150 125 149 1214 0
1214 1 34 40 c26 30 42 40 63 40 21 0 36 9 52 30 15 21 30 30 50 30 l28 0 0
-105z m-6762 -1599 l-3 -124 -149 108 c-82 60 -156 115 -163 123 -13 12 8 31
149 134 l163 120 3 -118 c1 -65 1 -174 0 -243z m5712 249 c0 -4 -606 -730
-642 -770 -6 -6 -8 8 -6 38 3 46 11 56 293 392 272 324 291 345 322 345 18 0
33 -2 33 -5z m-5713 -660 c3 -2 -287 -212 -313 -228 -12 -7 -14 32 -14 227 l0
236 163 -116 c89 -64 163 -118 164 -119z m3 -535 c0 -132 -2 -240 -4 -240 -11
0 -321 232 -321 240 0 8 304 238 318 239 4 1 7 -107 7 -239z m2045 -332 c66
-68 134 -138 150 -155 l29 -33 -322 0 -322 0 0 155 0 155 173 0 172 0 120
-122z m-2210 -83 c88 -64 159 -118 158 -121 -2 -4 -179 -134 -290 -212 l-33
-23 0 235 c0 130 1 236 3 236 2 0 75 -52 162 -115z m165 -590 l0 -175 -165 0
-166 0 3 62 3 62 155 113 c85 62 158 112 163 113 4 0 7 -79 7 -175z"/>
<path d="M13110 27375 c0 -14 -4 -25 -10 -25 -6 0 -10 -33 -10 -80 0 -47 4
-80 10 -80 6 0 10 -11 10 -25 0 -23 4 -25 45 -25 l45 0 0 130 0 130 -45 0
c-41 0 -45 -2 -45 -25z"/>
</g>
</svg>
