<?xml version="1.0" standalone="no"?>
<!DOCTYPE svg PUBLIC "-//W3C//DTD SVG 20010904//EN"
 "http://www.w3.org/TR/2001/REC-SVG-20010904/DTD/svg10.dtd">
<svg version="1.0" xmlns="http://www.w3.org/2000/svg"
   viewBox="0 0 3426.000000 840.000000"
 preserveAspectRatio="xMidYMid meet">
<metadata>
Created by potrace 1.16, written by Peter Selinger 2001-2019
</metadata>
<g transform="translate(0.000000,840.000000) scale(0.100000,-0.100000)"
fill="#000000" stroke="none">
<path d="M6645 8339 c-554 -56 -590 -61 -801 -109 l-221 -50 -63 26 -63 25
-146 -15 c-418 -44 -1834 -156 -1978 -156 l-95 0 -118 -110 c-80 -75 -120
-106 -127 -99 -11 11 -2656 9 -2666 -1 -9 -9 -165 -1625 -158 -1632 3 -4 307
-12 675 -17 l668 -10 62 -55 63 -55 -18 -118 c-11 -65 -21 -133 -24 -150 l-6
-33 -441 0 -441 0 -373 -227 -373 -228 0 -855 -1 -855 80 -43 80 -43 0 -1422
0 -1423 1258 -93 c691 -51 1276 -95 1300 -98 l42 -6 0 -106 c0 -58 4 -111 8
-118 5 -8 224 -14 822 -22 448 -6 862 -11 918 -11 95 0 104 -2 109 -20 4 -17
14 -20 54 -20 46 0 49 -2 49 -25 l0 -26 922 3 c663 2 922 6 925 14 2 6 10 19
17 29 13 18 56 18 1181 5 992 -11 1169 -11 1176 1 5 8 9 155 9 327 0 171 3
312 6 312 3 0 280 45 615 100 335 55 613 100 618 100 4 0 98 102 207 226 l199
226 339 -5 c186 -4 340 -7 341 -9 2 -2 0 -329 -5 -728 -5 -399 -5 -729 -1
-733 11 -12 3044 50 3371 68 814 46 1550 76 2065 86 439 8 841 23 1750 69 649
33 1401 66 1670 75 270 9 969 42 1555 75 586 32 1180 62 1320 65 522 13 4698
392 4725 430 6 7 15 20 20 29 7 12 91 29 320 67 l310 51 60 58 60 58 1005 161
c553 89 1592 264 2310 390 l1305 230 540 165 c533 163 540 165 571 202 l31 37
-29 42 c-25 35 -38 44 -70 49 -22 4 -270 70 -551 147 l-512 140 -1330 189
c-731 104 -1638 230 -2015 280 -377 49 -721 97 -765 105 -44 8 -110 20 -147
25 -72 10 -296 47 -340 56 -21 4 -37 23 -74 87 -26 45 -48 83 -49 84 -1 2
-140 20 -309 42 -170 22 -310 42 -313 44 -2 2 -10 70 -17 151 -8 82 -16 149
-18 151 -2 2 -271 22 -598 45 -327 22 -1328 99 -2225 171 -1451 115 -1659 134
-1895 169 -250 38 -318 44 -1295 105 -1021 65 -1033 66 -1370 115 l-340 49
-1355 77 -1354 78 -531 -57 -530 -58 -645 36 -645 36 -250 76 -250 75 -987 27
c-543 15 -989 29 -991 31 -3 3 -109 196 -237 430 -230 423 -233 428 -393 636
-89 116 -273 343 -408 505 l-247 296 -577 443 -578 443 -271 138 c-403 205
-904 429 -1056 473 -121 35 -144 37 -738 91 -338 30 -639 54 -670 54 -31 -1
-318 -28 -637 -60z m2591 -4367 c39 -53 74 -103 78 -109 6 -10 -33 -13 -178
-13 l-186 0 0 110 0 110 108 0 107 -1 71 -97z m574 -18 l0 -117 -82 6 c-46 4
-123 7 -173 7 l-90 0 -67 110 -66 110 239 0 239 0 0 -116z"/>
</g>
</svg>
