<?xml version="1.0" standalone="no"?>
<!DOCTYPE svg PUBLIC "-//W3C//DTD SVG 20010904//EN"
 "http://www.w3.org/TR/2001/REC-SVG-20010904/DTD/svg10.dtd">
<svg version="1.0" xmlns="http://www.w3.org/2000/svg"
   viewBox="0 0 4551.000000 1151.000000"
 preserveAspectRatio="xMidYMid meet">
<metadata>
Created by potrace 1.16, written by Peter Selinger 2001-2019
</metadata>
<g transform="translate(0.000000,1151.000000) scale(0.100000,-0.100000)"
fill="#000000" stroke="none">
<path d="M17818 11393 l-116 -116 -489 13 c-376 9 -494 15 -515 26 -22 11
-132 14 -610 14 l-583 0 -39 -55 c-22 -30 -46 -55 -54 -55 -32 0 -635 -72
-729 -87 l-102 -16 -238 -198 -238 -198 -55 -3 -54 -3 -159 -277 -158 -278
-1403 0 -1403 0 -23 -25 -23 -25 -269 0 -268 0 0 -50 c0 -49 0 -49 -25 -38
-22 10 -34 2 -170 -122 -115 -105 -145 -137 -145 -158 l0 -26 -28 27 -28 27
-1532 0 -1531 0 -15 -28 -14 -27 356 -298 c197 -164 375 -313 397 -332 l40
-35 -347 0 c-242 0 -355 -4 -373 -12 l-25 -11 0 -199 0 -198 -223 0 -222 0
-464 410 c-398 353 -474 416 -542 450 l-79 40 -195 0 c-107 0 -195 3 -195 6 0
4 16 32 35 64 l35 58 0 307 0 308 -53 66 -54 66 -114 24 c-113 23 -114 24
-170 78 l-56 55 -254 64 -254 63 -632 1 -632 0 -11 43 c-6 23 -13 48 -15 55
-3 9 -39 12 -135 12 -96 0 -132 -3 -135 -12 -2 -7 -9 -32 -15 -55 l-11 -43
-64 0 -65 0 -27 55 -27 55 -118 0 -118 0 -27 -55 -27 -55 -81 0 -81 0 -49 -50
-49 -50 -226 0 -226 0 -54 -40 -54 -40 -132 0 -131 0 -185 -105 c-224 -128
-255 -157 -322 -305 -27 -58 -124 -265 -216 -460 -93 -195 -170 -360 -172
-367 -2 -6 20 -52 47 -102 l50 -91 493 0 492 0 0 -162 0 -162 47 -48 c45 -46
45 -47 22 -52 -13 -3 -118 -22 -234 -42 l-210 -37 -106 -66 -107 -66 -66 -133
-66 -132 0 -1175 0 -1174 41 -111 42 -110 276 5 c152 3 747 7 1323 10 l1048 5
0 -125 0 -125 -173 0 -173 0 -27 -55 -27 -55 -371 -2 -371 -3 -37 -65 c-21
-36 -50 -88 -65 -117 l-29 -52 249 -273 c136 -150 359 -385 494 -523 136 -137
257 -265 269 -283 19 -26 71 -57 262 -152 l239 -120 250 0 251 0 74 -50 74
-50 1383 0 1383 0 567 303 567 302 1 396 0 397 -216 76 c-118 42 -220 76 -225
76 -5 0 -9 43 -9 95 l0 95 1415 0 1415 0 0 135 0 135 925 0 925 0 0 -398 0
-398 123 -50 122 -49 659 -5 658 -5 223 -420 c213 -400 226 -422 277 -462 l53
-42 463 -1 462 0 11 28 c5 15 12 33 15 41 3 11 11 8 32 -12 l28 -27 410 0 409
0 399 386 399 387 66 -7 c36 -3 261 -6 499 -6 l432 0 0 -103 0 -102 94 -80 95
-80 136 -5 137 -5 114 -210 c62 -115 113 -215 114 -220 1 -26 -91 -95 -237
-181 l-158 -92 -3 -56 -3 -56 -294 0 c-185 0 -296 -4 -300 -10 -4 -6 -220 -10
-616 -10 l-609 0 0 -40 0 -40 609 0 c529 0 610 -2 621 -15 11 -13 57 -15 301
-15 l289 0 0 -50 0 -50 168 -84 c93 -47 185 -88 206 -91 20 -4 35 -10 32 -13
-3 -2 -70 -21 -148 -42 l-143 -37 0 -358 0 -359 565 -131 565 -132 955 -81
c525 -45 1534 -123 2243 -172 l1287 -90 405 0 405 0 0 -55 0 -55 -121 0 -121
0 6 -28 c3 -15 55 -326 116 -692 60 -366 112 -675 115 -688 l5 -22 753 0 753
0 88 683 c49 375 91 697 93 714 l6 33 -82 0 -81 0 0 55 0 55 201 0 200 0 447
422 c246 231 460 433 475 448 l29 27 -326 489 -326 489 129 3 130 3 21 34 c12
19 24 35 28 35 3 0 17 -11 31 -24 22 -20 116 -44 606 -155 319 -72 592 -131
608 -131 23 0 27 -4 27 -27 0 -24 12 -36 75 -77 41 -27 75 -52 75 -56 0 -4 12
-11 27 -14 14 -4 45 -20 69 -37 23 -16 49 -29 57 -29 7 0 47 -11 87 -25 52
-18 95 -25 146 -25 l73 0 3 128 3 129 145 -119 c123 -100 210 -157 575 -378
l429 -260 376 0 376 0 119 131 118 132 91 -7 c50 -3 161 -8 246 -11 238 -9
213 4 240 -123 13 -59 28 -116 33 -127 6 -11 59 -90 119 -176 59 -87 108 -160
108 -163 0 -3 -152 -6 -337 -6 l-336 0 23 -25 23 -25 -501 0 -502 0 0 -25 c0
-20 6 -25 33 -29 17 -3 261 -10 541 -16 l509 -11 67 -55 67 -54 290 0 289 0
39 -40 39 -40 136 0 135 0 35 -50 35 -50 361 0 361 0 23 25 24 25 25 -24 c14
-14 39 -26 56 -28 25 -2 56 -35 200 -212 l170 -209 160 -54 160 -54 600 36
c330 19 628 37 662 41 l61 5 37 100 c21 55 42 102 47 105 5 3 84 17 176 30 92
13 219 37 282 53 l115 30 1655 21 c910 11 1775 23 1922 26 l266 7 11 23 c6 13
10 24 8 24 -1 1 -853 25 -1893 55 l-1891 53 -51 26 c-41 21 -75 28 -174 36
-150 13 -168 17 -168 33 0 7 97 61 215 120 191 95 215 110 215 131 0 20 6 25
38 30 20 3 239 33 485 66 l448 61 47 37 c97 76 -75 68 1922 91 987 12 1931 24
2098 27 l302 7 0 38 0 39 -362 0 c-200 0 -549 3 -776 7 -406 6 -413 7 -394 25
18 19 33 19 583 7 509 -11 614 -10 597 7 -17 17 -1176 31 -4000 50 -739 5
-888 9 -888 20 0 7 -64 61 -142 120 -79 59 -147 111 -153 116 -5 6 47 -18 116
-53 l126 -62 534 96 c294 53 550 101 570 107 24 7 108 76 275 225 177 159 249
218 277 226 l37 10 0 63 c0 44 -5 67 -15 76 -12 10 -15 37 -15 121 0 60 2 109
4 109 6 0 580 138 627 150 31 9 45 23 89 90 l53 80 271 0 c184 0 5696 47 5909
50 6 0 11 130 5 130 -19 2 -5614 50 -5854 50 l-331 0 -54 68 -54 69 -500 92
c-381 70 -520 91 -585 91 l-85 0 122 122 122 123 14 275 13 275 -103 400 c-57
220 -106 407 -109 416 -3 12 37 43 153 120 571 374 1509 993 1513 998 25 30
676 391 706 391 11 0 14 -26 14 -148 0 -142 1 -149 23 -170 l23 -22 690 75
c1150 125 2137 235 2170 240 18 3 76 39 135 84 l104 78 910 102 c501 56 924
104 941 107 27 5 33 13 54 70 23 61 27 65 65 74 22 6 46 14 54 18 9 5 43 117
87 283 72 275 177 636 234 804 46 134 63 223 49 256 -10 26 -14 27 -112 33
-114 7 -5150 127 -5294 126 l-91 0 -21 -34 c-12 -20 -21 -50 -21 -75 l0 -41
-232 0 -233 0 -127 38 -128 37 0 41 c0 37 -4 44 -40 68 l-40 26 -2047 0 -2047
0 -28 -27 -28 -27 -28 27 -28 27 -332 0 -332 0 -52 80 c-40 60 -58 80 -76 80
-12 0 -173 11 -356 25 -300 23 -342 24 -423 12 l-90 -13 -42 78 c-23 43 -43
78 -44 78 -1 1 -168 7 -371 15 l-369 14 -68 -35 c-83 -41 -97 -37 -122 34
l-18 50 -82 6 c-45 4 -421 22 -835 42 l-753 35 -78 -65 -77 -65 -40 50 c-21
27 -48 52 -59 54 -11 2 -195 13 -410 25 -214 11 -409 23 -431 26 l-41 5 -104
-145 -104 -145 -465 -1 -465 0 -93 -120 -93 -120 -238 0 -238 0 -23 -25 c-13
-14 -26 -25 -29 -25 -3 0 -16 16 -29 35 l-22 35 -735 0 -736 0 -279 70 -279
70 -1450 0 -1449 0 -27 38 c-16 20 -46 56 -69 80 l-40 42 -196 0 -196 0 -34
35 -34 35 -326 0 -326 0 -34 -35 -34 -35 -201 0 -200 0 -80 -80 -80 -80 -570
0 -571 0 -64 78 -65 79 -210 12 c-201 12 -211 13 -236 37 -23 22 -33 24 -125
24 -57 0 -105 -5 -111 -11 -10 -10 -111 -8 -357 7 l-99 5 -32 -31 -33 -32
-243 16 c-134 9 -268 19 -296 22 l-53 5 0 80 0 79 1443 0 1443 0 64 65 64 65
923 0 923 0 0 123 -1 122 -42 31 c-23 17 -58 39 -77 49 -19 9 -60 41 -90 71
l-56 54 -342 53 -342 52 -11 28 c-6 15 -14 27 -18 27 -3 0 -224 31 -491 69
-267 38 -523 73 -569 77 -88 7 -102 14 -141 70 -13 20 -51 27 -371 74 l-357
52 -53 -40 -54 -40 -314 14 -315 14 -55 53 -56 54 -405 37 c-223 20 -414 36
-425 36 -12 0 -67 -47 -137 -117z m-15495 -2740 c-166 -2 -440 -2 -610 0 -169
1 -33 2 302 2 336 0 474 -1 308 -2z m21652 -4848 c173 -4 315 -9 315 -12 0 -2
-28 -43 -62 -91 -40 -56 -64 -101 -67 -124 l-6 -38 -341 183 c-298 158 -341
184 -333 199 9 16 20 11 94 -46 l85 -64 315 -7z m329 -310 c-14 -21 -24 -25
-65 -25 -46 0 -49 2 -49 25 0 24 2 25 65 25 l65 0 -16 -25z m2234 -2 l14 -23
-79 0 c-76 0 -80 1 -91 25 l-12 26 76 -3 c67 -3 79 -6 92 -25z"/>
</g>
</svg>
