<?xml version="1.0" standalone="no"?>
<!DOCTYPE svg PUBLIC "-//W3C//DTD SVG 20010904//EN"
 "http://www.w3.org/TR/2001/REC-SVG-20010904/DTD/svg10.dtd">
<svg version="1.0" xmlns="http://www.w3.org/2000/svg"
   viewBox="0 0 4925.000000 2443.000000"
 preserveAspectRatio="xMidYMid meet">
<metadata>
Created by potrace 1.16, written by Peter Selinger 2001-2019
</metadata>
<g transform="translate(0.000000,2443.000000) scale(0.100000,-0.100000)"
fill="#000000" stroke="none">
<path d="M32714 24353 c-98 -41 -182 -78 -187 -82 -4 -4 -1 -38 7 -76 l14 -68
-341 7 c-188 3 -451 9 -584 12 l-242 7 15 -64 c8 -35 31 -136 51 -224 l36
-160 -18 -112 -18 -113 -89 0 c-109 0 -4453 96 -4742 105 -171 5 -208 4 -204
-7 3 -7 22 -65 43 -128 21 -63 42 -121 48 -128 37 -47 534 -414 742 -549 179
-116 240 -160 227 -165 -9 -4 -798 -120 -1752 -258 l-1735 -252 -1805 -324
-1805 -325 -1972 -467 c-1658 -394 -1974 -466 -1977 -453 -3 9 -10 43 -16 76
-7 33 -16 67 -20 75 -5 8 -40 31 -79 50 l-72 34 -1722 -382 -1722 -382 -1102
-170 -1103 -169 -1167 25 -1168 25 -868 100 -869 100 -196 68 c-131 45 -563
226 -1287 538 -599 259 -1133 484 -1185 502 -173 56 -140 56 -1865 38 l-1580
-15 -95 -31 c-79 -26 -110 -42 -180 -97 l-85 -66 -21 -103 c-20 -100 -20 -106
-4 -241 l16 -139 557 -1441 557 -1440 0 -517 0 -518 1066 -1457 c587 -801
1068 -1459 1070 -1461 1 -1 663 -133 1471 -292 l1468 -289 1910 -305 1910
-304 1825 -150 c1004 -83 1837 -151 1852 -151 23 0 27 5 33 43 4 23 27 87 50
143 55 127 146 462 145 537 l0 27 568 -1 c500 0 682 -5 1542 -42 l975 -43 60
-40 c33 -23 74 -48 90 -56 17 -9 1079 -312 2360 -674 l2330 -658 1040 -812
1040 -813 985 -1007 985 -1007 160 -77 c88 -42 328 -154 533 -250 l372 -174
-210 -57 c-115 -31 -221 -60 -235 -63 l-25 -6 0 -2063 0 -2062 953 -223 c940
-221 985 -233 3547 -923 1427 -385 2619 -706 2648 -715 l52 -15 0 -504 0 -505
1310 0 1310 0 2 227 3 228 1117 810 1117 811 990 883 991 882 692 707 c380
389 722 739 759 777 l68 70 80 390 c57 285 82 430 91 536 l12 146 -146 323
c-118 264 -153 331 -186 365 l-40 41 267 43 268 43 675 245 675 245 833 403
834 403 88 153 87 154 -17 64 -18 63 72 174 71 173 808 748 807 748 -260 3
-261 2 30 43 c25 36 54 144 219 817 l191 775 180 1103 c100 607 181 1130 181
1161 l0 58 738 6 c405 4 772 10 815 13 l78 7 -3 72 -3 72 -670 694 c-369 382
-693 719 -721 749 l-51 55 75 175 74 175 77 29 c42 16 111 42 153 58 l77 29
-62 117 c-54 103 -63 128 -77 217 l-15 100 -719 893 -718 892 -849 771 -849
772 -1052 739 -1053 740 -1755 718 -1755 719 -12 -27 c-7 -15 -41 -102 -76
-193 l-62 -166 -460 133 -460 134 -535 100 c-294 55 -782 145 -1085 199 l-550
100 -1430 102 -1430 102 -95 83 c-52 45 -134 116 -181 157 l-85 75 -180 -75z
m704 -4687 l1681 -675 537 -344 538 -344 128 -199 129 -199 73 -227 73 -226
-22 -161 c-12 -89 -25 -164 -28 -168 -16 -15 -347 -63 -443 -63 -110 0 -172
-18 -274 -81 -43 -26 -50 -35 -51 -62 -4 -226 -47 -1109 -54 -1115 -6 -5 -125
-25 -265 -45 -140 -20 -611 -88 -1047 -151 -740 -108 -814 -121 -1150 -196
-197 -44 -363 -79 -369 -78 -7 2 -77 82 -156 178 l-145 175 -197 60 c-109 33
-201 62 -206 65 -8 5 -110 488 -155 735 -42 232 -75 827 -75 1351 l0 424 -37
-5 c-147 -21 -1277 -121 -2318 -205 l-1240 -101 -520 -115 c-486 -108 -554
-120 -1035 -190 l-515 -75 -969 -74 c-747 -58 -1014 -75 -1166 -75 l-197 0 33
138 c24 103 59 204 142 407 72 178 128 337 166 466 51 179 56 204 56 295 0 64
-9 145 -25 228 -14 71 -26 130 -27 131 -6 5 -234 35 -263 36 -16 0 -968 -202
-2114 -448 l-2084 -448 -101 -89 c-56 -49 -108 -100 -118 -115 -9 -14 -44
-106 -79 -203 -54 -152 -66 -178 -84 -178 -11 0 -265 16 -564 35 -299 19 -550
35 -558 35 -8 0 -37 -36 -65 -80 -46 -73 -54 -80 -77 -75 -33 6 -899 135 -912
135 -6 0 -8 64 -7 167 l3 167 580 318 580 317 1249 416 1249 416 1656 184
c911 101 2387 260 3281 354 l1625 170 1945 39 c1070 22 2026 40 2126 41 l181
1 1681 -674z m1946 -6525 c104 -39 191 -73 193 -75 2 -1 -26 -86 -61 -187 -72
-205 -120 -300 -875 -1729 -205 -388 -398 -752 -428 -810 l-56 -105 -513 -395
-512 -395 -118 -8 -118 -8 -37 38 -37 38 -43 975 -42 975 150 266 151 267 44
392 c31 267 49 395 58 400 7 4 198 78 425 164 l412 156 534 83 534 84 75 -28
c41 -15 160 -59 264 -98z"/>
</g>
</svg>
