<?xml version="1.0" standalone="no"?>
<!DOCTYPE svg PUBLIC "-//W3C//DTD SVG 20010904//EN"
 "http://www.w3.org/TR/2001/REC-SVG-20010904/DTD/svg10.dtd">
<svg version="1.0" xmlns="http://www.w3.org/2000/svg"
   viewBox="0 0 4552.000000 599.000000"
 preserveAspectRatio="xMidYMid meet">
<metadata>
Created by potrace 1.16, written by Peter Selinger 2001-2019
</metadata>
<g transform="translate(0.000000,599.000000) scale(0.100000,-0.100000)"
fill="#000000" stroke="none">
<path d="M2464 5980 c-100 -4 -186 -10 -193 -14 -7 -5 -11 -46 -11 -121 l0
-114 31 -23 c16 -12 108 -70 202 -128 l172 -105 3 -433 2 -432 -925 0 -925 0
-69 -50 -69 -50 -225 0 -225 0 -116 -56 -116 -56 0 -51 c1 -29 13 -347 29
-707 l28 -655 162 -305 162 -305 135 -150 c202 -225 172 -203 320 -234 l129
-27 575 7 c316 4 1224 7 2017 8 1220 1 1443 3 1450 15 7 11 153 15 875 23 777
9 870 12 892 27 23 14 89 16 666 16 l640 0 0 -28 0 -28 563 -12 c309 -7 660
-15 780 -19 l217 -6 0 -34 c0 -26 -4 -33 -20 -33 -11 0 -47 -13 -79 -30 -65
-32 -63 -27 -81 -162 -9 -72 -4 -161 16 -259 6 -33 112 -94 144 -84 20 6 20 1
20 -193 l0 -199 59 -52 59 -51 282 0 282 0 242 -167 c137 -95 263 -175 291
-185 46 -16 126 -17 1081 -18 567 0 1059 3 1093 6 l62 7 74 106 75 106 0 246
0 246 152 6 c83 4 460 7 838 7 l687 0 8 -110 7 -110 1599 0 1599 0 0 45 c0 49
8 54 50 30 21 -12 221 -14 1353 -15 1313 0 1328 0 1367 20 l40 20 40 -20 c39
-20 55 -20 1275 -20 1226 0 1236 0 1276 20 l40 21 33 -21 c33 -20 41 -20 1269
-20 l1236 0 44 21 43 21 42 -21 41 -21 1293 0 c1102 1 1297 3 1318 15 50 28
50 28 50 -165 l0 -180 1565 0 1565 0 0 58 0 59 152 6 c83 4 443 7 800 7 l648
0 0 40 0 40 1325 0 1325 0 0 350 0 350 158 0 157 0 238 -173 238 -173 532 -12
c293 -7 551 -12 574 -12 39 0 49 8 205 149 l165 149 479 6 c263 4 513 9 554
11 l75 5 203 -320 204 -320 381 -2 381 -3 159 -253 159 -252 404 0 403 0 118
-136 117 -137 241 7 241 8 48 -71 c27 -39 50 -71 50 -71 1 -1 131 -11 291 -24
l289 -24 21 26 c162 206 226 307 829 1308 l646 1073 27 214 27 214 161 7 c88
3 220 9 293 12 l132 7 0 108 0 109 -38 0 c-65 0 -506 21 -510 24 -1 2 4 60 13
128 l16 125 -51 453 -52 454 -130 232 c-72 128 -137 236 -146 239 -10 4 -190
72 -402 152 l-385 146 -3285 -27 c-1807 -14 -3456 -29 -3665 -32 l-380 -6 -40
131 -40 131 -858 0 c-753 0 -858 -2 -863 -15 -5 -13 -104 -15 -808 -15 -708 0
-804 2 -824 16 -15 10 -39 14 -78 12 l-57 -3 -43 -120 c-24 -66 -43 -134 -43
-151 l-1 -32 -182 -6 c-101 -3 -815 -15 -1588 -26 -773 -12 -1828 -27 -2346
-35 l-940 -15 -790 -135 c-434 -75 -873 -151 -975 -170 l-185 -35 -1065 0
-1065 0 -154 45 -154 45 -420 0 -421 0 -219 -120 -219 -120 -1412 0 -1413 0
-212 100 -213 100 -1297 0 -1297 0 -141 -135 -141 -135 -1018 0 -1018 0 -58
65 -58 65 -858 0 c-472 0 -885 3 -919 6 l-61 7 -84 126 -84 127 226 17 c124
10 229 21 232 25 6 6 30 275 26 278 -1 0 -58 45 -127 99 -69 54 -130 102 -136
106 -6 5 -164 45 -351 89 l-340 80 -2395 0 -2395 0 -254 310 -254 309 -1715
-1 c-943 -1 -1796 -4 -1896 -8z"/>
</g>
</svg>
