<?xml version="1.0" standalone="no"?>
<!DOCTYPE svg PUBLIC "-//W3C//DTD SVG 20010904//EN"
 "http://www.w3.org/TR/2001/REC-SVG-20010904/DTD/svg10.dtd">
<svg version="1.0" xmlns="http://www.w3.org/2000/svg"
   viewBox="0 0 3437.000000 1121.000000"
 preserveAspectRatio="xMidYMid meet">
<metadata>
Created by potrace 1.16, written by Peter Selinger 2001-2019
</metadata>
<g transform="translate(0.000000,1121.000000) scale(0.100000,-0.100000)"
fill="#000000" stroke="none">
<path d="M8530 11186 c-131 -20 -161 -29 -310 -90 -91 -37 -183 -78 -205 -90
-22 -12 -199 -140 -393 -284 -297 -220 -359 -262 -395 -267 -23 -3 -821 -84
-1774 -180 l-1732 -175 -214 -75 -215 -74 -528 -301 -529 -302 -245 -243
c-196 -194 -269 -260 -365 -327 -66 -46 -126 -87 -132 -91 -10 -6 -270 -57
-290 -57 -2 0 -3 -22 -3 -50 0 -45 -2 -50 -22 -50 -26 0 -785 -66 -866 -75
l-52 -6 0 -210 0 -209 50 0 50 0 0 -209 0 -210 -42 -6 c-24 -3 -70 -9 -103
-13 -76 -9 -91 -32 -74 -114 29 -137 81 -230 392 -703 266 -404 308 -462 348
-486 40 -25 140 -46 934 -194 l890 -167 648 5 647 5 1 -91 0 -92 82 -72 82
-73 61 0 60 0 24 -67 c81 -230 92 -253 243 -470 81 -116 151 -222 157 -235 6
-13 16 -77 23 -143 l14 -120 -70 -147 -70 -147 -61 -5 c-33 -3 -477 -12 -986
-21 -509 -9 -1343 -27 -1855 -40 -511 -14 -935 -25 -942 -25 -6 0 -13 -17 -15
-37 l-3 -38 -300 -27 c-281 -26 -303 -29 -353 -55 -33 -17 -58 -38 -64 -53
-22 -57 -40 -908 -19 -962 5 -13 31 -36 59 -51 50 -27 51 -27 348 -37 163 -5
299 -12 302 -14 2 -3 -3 -287 -12 -632 -9 -345 -15 -628 -13 -630 1 -1 425
-23 942 -48 743 -37 1176 -53 2065 -75 l1125 -28 418 44 418 43 173 -123 c165
-118 198 -137 725 -405 l553 -281 656 -262 656 -261 526 -99 c289 -55 535
-101 548 -104 15 -4 22 -13 22 -30 l0 -25 365 0 365 0 0 60 c0 33 1 60 3 60 1
0 61 9 133 19 l131 18 263 124 263 124 151 139 c147 136 154 144 260 309 104
163 111 178 167 346 58 173 60 181 94 459 19 155 35 315 35 355 0 40 -11 194
-25 342 l-24 270 -135 530 c-75 291 -132 532 -128 535 4 4 42 17 84 30 l77 23
20 61 c11 34 63 195 116 359 53 163 99 297 103 297 35 0 931 164 1667 305
1171 224 2727 479 3040 497 l190 11 366 -222 367 -221 398 -161 c220 -89 412
-165 428 -170 130 -39 363 -72 821 -119 l500 -51 560 -11 560 -11 366 101
c201 56 373 102 383 102 9 0 270 -74 579 -165 l562 -165 730 -150 730 -150
1715 -254 c2571 -382 3001 -444 3400 -490 l365 -41 3 -31 c3 -35 25 -44 106
-44 22 0 58 -3 79 -6 l37 -7 0 -51 0 -51 -150 -79 -150 -79 0 -153 0 -154 133
0 c72 1 258 5 412 10 l280 9 349 100 c192 55 352 105 355 109 3 5 112 138 241
296 134 164 243 289 255 291 11 2 175 27 365 54 190 28 478 77 640 110 l294
59 111 -41 110 -40 279 38 278 37 217 104 c187 90 222 111 261 153 25 27 85
93 134 146 l89 96 37 137 37 137 -19 153 -19 154 -73 96 c-40 54 -122 143
-182 198 l-109 101 -262 132 -263 131 -108 0 c-89 0 -330 23 -337 32 -1 2 -43
60 -93 130 l-92 128 26 70 25 71 -103 122 -103 123 -154 88 c-268 153 -330
171 -1406 411 -506 114 -1143 257 -1415 320 -272 62 -604 137 -737 166 l-242
52 -61 -56 c-34 -31 -66 -57 -71 -57 -13 0 -373 90 -377 95 -2 2 24 56 57 119
l62 115 -38 10 c-21 5 -411 89 -868 185 l-830 176 -2845 258 -2845 259 -132
76 -132 77 -793 85 -793 84 -767 19 -768 20 -129 121 c-121 114 -134 124 -217
156 -81 31 -121 38 -449 80 -198 25 -370 47 -382 50 -13 3 -42 33 -68 70 -45
63 -48 65 -128 89 -45 14 -118 37 -162 51 -102 33 -245 54 -364 55 -76 0 -125
-8 -262 -41 l-169 -41 -47 -58 -48 -59 -360 0 -360 0 -440 530 c-481 579 -504
603 -666 677 -50 23 -303 104 -616 198 l-530 158 -41 243 -40 243 -90 98 -90
97 -139 28 c-76 15 -191 32 -255 37 -110 9 -2206 41 -2593 39 -132 -1 -218 -7
-325 -23z"/>
</g>
</svg>
