<?xml version="1.0" standalone="no"?>
<!DOCTYPE svg PUBLIC "-//W3C//DTD SVG 20010904//EN"
 "http://www.w3.org/TR/2001/REC-SVG-20010904/DTD/svg10.dtd">
<svg version="1.0" xmlns="http://www.w3.org/2000/svg"
   viewBox="0 0 4661.000000 1169.000000"
 preserveAspectRatio="xMidYMid meet">
<metadata>
Created by potrace 1.16, written by Peter Selinger 2001-2019
</metadata>
<g transform="translate(0.000000,1169.000000) scale(0.100000,-0.100000)"
fill="#000000" stroke="none">
<path d="M13810 11615 l0 -75 -135 0 -135 0 0 -55 0 -55 -172 -2 -172 -3 -58
-150 c-53 -140 -57 -156 -58 -237 l0 -88 -1380 0 -1379 0 -16 55 -16 55 -1535
0 -1534 0 0 -235 0 -234 -92 -3 -93 -3 -3 -87 -3 -88 -1214 0 c-803 0 -1215
-3 -1215 -10 0 -6 -88 -10 -245 -10 l-245 0 0 -75 0 -75 -160 0 c-153 0 -160
-1 -160 -20 0 -19 -7 -20 -260 -20 l-260 0 0 -43 0 -44 -152 -6 c-84 -3 -817
-25 -1628 -48 -811 -23 -1478 -45 -1482 -48 -4 -4 677 -35 1515 -70 837 -35
1573 -66 1635 -69 l112 -5 0 -37 c0 -46 -21 -41 283 -76 l237 -28 0 -103 0
-103 45 0 45 0 0 -50 0 -50 115 0 115 0 0 -65 c0 -59 -2 -65 -23 -69 -12 -3
-636 -26 -1387 -53 -859 -30 -1343 -51 -1305 -55 33 -4 625 -28 1315 -53 690
-25 1288 -48 1328 -51 l72 -6 0 -709 c0 -390 1 -709 3 -709 11 -3 1253 -29
1355 -30 l132 0 0 -183 0 -183 143 -23 c203 -32 187 -26 187 -78 l0 -45 290 7
290 8 0 -77 0 -76 1278 0 1278 0 263 -545 c157 -325 269 -545 277 -545 12 0
14 -112 14 -675 l0 -675 23 -5 c12 -2 166 -23 342 -45 176 -23 322 -46 326
-52 4 -6 12 -44 19 -86 7 -42 14 -82 17 -89 4 -10 97 -13 482 -13 l476 0 20
-37 c20 -36 24 -38 180 -85 l160 -48 164 47 c159 47 165 49 188 85 l23 38 714
0 714 0 30 -48 29 -48 162 -47 162 -48 161 48 161 47 29 48 30 48 259 0 259 0
0 130 0 130 715 0 715 0 0 280 0 280 274 0 273 0 7 53 c4 28 10 62 13 75 l5
22 433 0 433 0 6 -27 c3 -16 8 -63 12 -105 l6 -78 928 0 928 0 7 30 7 30 184
0 184 0 0 -62 c0 -35 3 -114 7 -176 l6 -112 154 0 153 0 0 -65 0 -65 350 0
350 0 2 -377 3 -377 395 -107 395 -108 636 -1 636 0 47 -342 c26 -189 55 -394
64 -455 l15 -113 1349 -2 1349 -3 510 -1040 c281 -572 514 -1043 518 -1047 3
-4 22 -9 41 -10 l34 -3 70 365 71 365 546 3 546 2 216 -457 c215 -455 216
-457 253 -470 20 -7 38 -12 39 -11 1 2 37 192 79 423 43 231 82 441 88 467
l10 48 266 -1 267 0 58 -75 57 -74 78 0 c42 0 114 -3 158 -6 l81 -7 254 -574
c254 -573 254 -573 289 -583 22 -6 36 -6 40 0 3 5 35 176 70 378 l64 369 40
-4 c23 -2 354 -24 736 -48 693 -45 697 -45 1283 -45 l587 0 0 115 0 115 4503
0 4503 0 130 128 c72 70 150 150 175 179 l44 52 2020 31 c1111 17 2037 30
2058 30 l37 0 0 60 0 60 -42 0 c-24 0 -932 16 -2018 35 -1086 19 -1981 35
-1987 35 -10 0 -13 31 -13 120 l0 120 -75 0 -74 0 -71 93 -71 92 -517 251
-517 252 -7 38 c-3 22 -7 118 -9 214 l-2 175 26 9 c15 6 27 15 27 22 0 17 55
18 2635 69 1238 24 2355 47 2483 51 l232 6 0 34 c0 19 -1 34 -2 35 -2 1 -1204
31 -2673 68 l-2670 66 -3 30 c-3 27 -28 47 -249 198 l-246 167 229 1 229 0
545 207 545 207 3 305 2 304 -126 454 c-69 250 -124 456 -121 458 2 3 604 18
1336 33 733 16 1334 31 1336 33 2 2 -607 17 -1353 32 -746 16 -1358 29 -1359
30 -1 1 -56 195 -122 431 -166 596 -413 1410 -437 1440 -27 35 -1014 597
-1033 589 -9 -3 -20 -6 -26 -7 -5 0 -199 105 -430 233 -231 128 -427 235 -436
237 -9 3 -39 -21 -77 -62 l-62 -66 -1028 558 -1029 557 48 85 c27 47 45 89 41
93 -4 3 -414 232 -912 507 l-904 501 -77 0 c-65 0 -77 3 -81 18 -4 14 -94 38
-484 130 l-479 113 -452 -1 -453 0 0 195 0 195 -1400 0 -1400 0 0 35 0 35
-1757 -2 -1758 -3 -14 -52 -14 -53 -1681 0 -1681 0 -73 -178 -72 -177 0 -177
0 -178 -735 0 -735 0 0 136 0 135 -89 42 -88 42 -38 202 -39 203 -1541 0
-1542 0 -7 46 c-3 26 -6 80 -6 120 l0 74 -409 0 -408 0 -7 -52 c-3 -29 -6 -83
-6 -120 l0 -68 -275 0 -275 0 0 85 0 85 -324 0 -324 0 -7 40 -7 40 -459 0
-459 0 0 -40 0 -40 -400 0 -400 0 0 -30 0 -30 -192 2 -193 3 -3 73 -3 72 -484
0 -485 0 0 -75z m7880 -3355 l0 -560 -99 0 -99 0 -57 -70 -57 -70 -2714 0
-2714 0 0 285 0 285 825 0 825 0 0 45 0 45 1104 0 1104 0 15 68 c8 37 37 172
63 300 l49 232 877 0 878 0 0 -560z m-630 -1084 c0 -2 -36 -49 -80 -103 l-80
-98 0 -77 0 -78 -2975 0 -2975 0 0 48 0 47 468 59 c257 32 482 60 500 63 l32
6 0 68 0 69 2555 0 c1405 0 2555 -2 2555 -4z m-294 -763 c-3 -21 -8 -102 -12
-180 l-6 -143 -744 0 -744 0 -6 25 -6 25 -803 0 -802 0 -7 -72 c-4 -40 -9 -88
-13 -105 l-5 -33 -433 0 -433 0 -5 23 c-3 12 -9 46 -13 75 l-7 52 -819 0
c-646 0 -819 3 -823 13 -2 6 -9 51 -15 100 l-12 87 -54 0 -54 0 0 85 0 85
2911 0 2911 0 -6 -37z m6964 -4243 l248 -525 -139 -3 -139 -3 0 -49 0 -50 163
0 163 0 27 -56 c16 -31 26 -58 24 -60 -2 -2 -233 -3 -513 -2 l-509 3 117 605
c64 333 119 620 123 638 l6 33 90 -3 91 -3 248 -525z m1508 211 c78 -175 142
-321 142 -325 0 -3 -42 -6 -93 -6 l-92 0 -24 -91 -24 -90 37 -38 c35 -36 36
-39 36 -114 l0 -77 -176 0 -176 0 5 28 c3 15 47 253 98 530 78 420 96 502 109
502 12 0 56 -88 158 -319z"/>
</g>
</svg>
