<?xml version="1.0" standalone="no"?>
<!DOCTYPE svg PUBLIC "-//W3C//DTD SVG 20010904//EN"
 "http://www.w3.org/TR/2001/REC-SVG-20010904/DTD/svg10.dtd">
<svg version="1.0" xmlns="http://www.w3.org/2000/svg"
   viewBox="0 0 4762.000000 2697.000000"
 preserveAspectRatio="xMidYMid meet">
<metadata>
Created by potrace 1.16, written by Peter Selinger 2001-2019
</metadata>
<g transform="translate(0.000000,2697.000000) scale(0.100000,-0.100000)"
fill="#000000" stroke="none">
<path d="M107 26918 c-40 -30 -70 -61 -73 -75 -4 -14 -3 -52 2 -86 l9 -62 180
-90 c99 -50 1531 -757 3181 -1570 1651 -814 3000 -1481 2999 -1483 -2 -2 -846
146 -1876 327 -1458 258 -1893 331 -1959 331 -76 1 -217 -29 -1327 -282
l-1243 -283 0 -51 c0 -95 9 -106 158 -206 75 -50 1447 -1092 3049 -2316 2826
-2158 2913 -2225 2912 -2256 -1 -24 82 -174 393 -706 217 -371 510 -886 651
-1145 186 -341 277 -496 330 -564 l72 -95 454 -118 c400 -103 457 -121 475
-143 12 -14 408 -486 881 -1050 l860 -1024 620 0 c498 -1 658 -4 811 -17 l191
-17 50 41 49 42 100 0 c158 1 168 5 328 144 l56 49 212 -13 212 -13 45 -48 46
-49 479 -32 479 -32 139 -124 c76 -67 143 -120 148 -117 7 4 1781 -1551 1947
-1708 18 -17 35 -29 37 -26 2 2 6 21 8 41 l3 37 -980 866 c-539 476 -985 874
-991 885 -6 10 -38 44 -73 74 -74 67 -95 63 215 40 l217 -15 224 -182 c243
-195 274 -222 290 -250 9 -17 79 -24 867 -77 l857 -58 218 -105 218 -105 2245
-153 2244 -153 2483 -2401 2483 -2400 1259 -3155 c692 -1735 1284 -3214 1316
-3287 l58 -131 1840 -755 1840 -755 773 -4 772 -3 0 67 c0 58 -30 167 -235
855 -130 433 -238 795 -240 804 -4 12 23 35 98 85 l104 68 -5 96 c-4 79 -174
854 -1013 4615 -555 2486 -1011 4527 -1014 4535 -6 22 499 345 540 345 22 0
106 48 315 182 l285 183 260 -2 260 -3 187 -73 c103 -40 199 -75 215 -77 15
-2 397 -146 848 -320 549 -211 828 -314 845 -311 17 3 297 -100 845 -311 451
-174 828 -318 838 -321 14 -4 17 3 17 41 0 43 -2 46 -38 60 -20 8 -397 153
-837 322 -440 169 -804 313 -810 320 -5 8 -387 159 -849 337 l-841 323 70 3
c105 5 431 -15 777 -48 l309 -30 564 -180 565 -180 1057 0 1058 1 2520 402
2520 403 324 -108 c179 -59 326 -107 327 -105 1 1 8 16 16 33 l13 31 683 -167
c376 -93 686 -171 689 -174 4 -3 -19 -201 -50 -438 -52 -391 -56 -434 -41
-445 14 -11 181 -30 188 -22 2 2 248 528 547 1169 l543 1165 96 117 c94 116
95 117 131 112 32 -5 39 -1 69 33 21 24 80 63 164 109 l131 71 3 57 c3 59 -50
291 -72 312 -6 6 -76 23 -156 38 -80 15 -364 70 -632 123 l-487 95 -185 228
-186 228 -58 10 c-31 5 -168 29 -304 53 l-247 43 30 55 c25 47 27 56 14 64
-10 5 -13 16 -9 31 7 29 -24 54 -77 62 -30 5 -61 30 -180 150 l-144 144 118 0
117 0 0 125 0 125 -242 0 -243 0 -542 542 c-298 298 -546 539 -550 535 -4 -4
233 -248 527 -542 l535 -535 -1191 0 -1190 0 -2420 500 c-1330 276 -2426 503
-2436 506 -9 3 -38 38 -64 78 l-48 73 -600 299 -600 299 -105 107 -106 107
-775 220 -775 220 -585 118 -585 117 -161 103 c-114 73 -170 103 -191 103 -24
0 -180 95 -651 398 l-619 399 -41 -16 c-47 -19 -67 -35 -58 -49 3 -5 129 -89
280 -186 202 -130 275 -182 280 -200 4 -16 89 -80 301 -226 163 -111 294 -204
292 -206 -3 -4 -1884 371 -1917 382 -8 3 18 26 70 60 47 31 92 64 100 73 17
21 147 109 200 136 46 24 622 395 635 409 15 17 340 226 351 226 5 0 32 21 59
46 51 46 48 48 -17 8 -30 -19 -38 -21 -47 -10 -9 11 -2 19 34 40 25 15 45 29
45 31 0 8 -115 -37 -118 -46 -4 -10 -334 -199 -346 -199 -11 0 -648 -361 -670
-379 -37 -32 -231 -138 -236 -130 -3 5 -90 -38 -192 -96 l-186 -105 -323 66
-324 65 -610 -6 -610 -6 -196 138 -195 138 -2165 514 c-2003 475 -3832 928
-3899 965 -14 7 -49 16 -79 20 -29 4 -2149 544 -4710 1201 l-4657 1194 -936
92 -936 92 -206 -172 -207 -172 -5020 2056 c-4334 1774 -5026 2055 -5067 2054
-40 0 -57 -8 -115 -51z m44928 -11789 c77 -78 134 -138 127 -134 -8 4 -24 2
-37 -5 -17 -9 -50 -10 -136 -2 -63 5 -116 6 -119 2 -4 -6 -1278 250 -1360 273
-8 3 300 5 685 6 l700 1 140 -141z m-32665 -753 c0 -3 -15 -15 -32 -27 l-33
-23 24 27 c22 24 41 35 41 23z m-100 -80 c0 -2 -8 -10 -17 -17 -16 -13 -17
-12 -4 4 13 16 21 21 21 13z m-80 -70 c0 -2 -8 -10 -17 -17 -16 -13 -17 -12
-4 4 13 16 21 21 21 13z m20559 -2375 l264 -6 -383 -264 c-212 -145 -389 -265
-395 -267 -6 -3 -34 107 -71 271 l-61 275 191 -1 c105 -1 310 -4 455 -8z"/>
</g>
</svg>
