<?xml version="1.0" standalone="no"?>
<!DOCTYPE svg PUBLIC "-//W3C//DTD SVG 20010904//EN"
 "http://www.w3.org/TR/2001/REC-SVG-20010904/DTD/svg10.dtd">
<svg version="1.0" xmlns="http://www.w3.org/2000/svg"
   viewBox="0 0 4148.000000 3849.000000"
 preserveAspectRatio="xMidYMid meet">
<metadata>
Created by potrace 1.16, written by Peter Selinger 2001-2019
</metadata>
<g transform="translate(0.000000,3849.000000) scale(0.100000,-0.100000)"
fill="#000000" stroke="none">
<path d="M7610 38447 c-1 -34 -28 -759 -30 -763 0 -1 -10 -2 -22 -2 -19 0
-302 -68 -370 -88 -16 -5 -18 3 -18 82 l0 87 -50 -5 c-47 -5 -49 -4 -55 24 -3
15 -7 41 -10 56 -6 28 -8 29 -53 25 -26 -2 -497 -35 -1047 -74 l-1000 -69
-1715 -31 -1715 -30 -693 -177 -694 -177 8 -90 c14 -159 19 -145 -58 -168 -59
-17 -67 -22 -63 -41 3 -12 20 -118 39 -236 32 -199 35 -238 42 -530 3 -176 1
-547 -5 -840 l-12 -525 41 -173 c22 -95 40 -175 40 -177 0 -3 9 -5 19 -5 37 0
51 -12 51 -42 0 -16 21 -102 47 -190 37 -125 52 -162 68 -169 11 -5 171 -43
355 -85 184 -41 336 -76 337 -77 1 -1 -189 -89 -423 -196 l-424 -194 0 -71 c0
-39 5 -321 11 -626 11 -553 11 -558 -20 -1275 -29 -664 -37 -786 -106 -1570
-41 -467 -77 -864 -79 -881 l-4 -32 129 -38 130 -39 -2 -139 -2 -139 706 -348
c630 -310 714 -349 774 -357 40 -5 240 -6 488 -1 231 4 471 8 533 8 l112 1 0
-712 1 -713 242 -162 242 -162 414 -60 414 -61 819 0 818 0 0 -305 0 -305 51
0 c53 0 2451 76 2642 83 l107 5 0 -379 0 -379 890 0 890 0 0 346 0 346 23 -5
c12 -3 71 -13 130 -23 105 -17 108 -17 122 2 44 62 17 59 273 28 l232 -28 0
-547 0 -547 63 -16 c34 -9 420 -106 857 -215 l795 -199 1625 29 1625 28 1435
66 c789 36 1886 88 2438 115 l1003 50 312 226 312 226 135 -6 c74 -3 329 -9
566 -12 l431 -6 -24 -116 c-13 -64 -20 -119 -16 -123 5 -5 473 -206 1041 -448
l1034 -440 333 -251 332 -251 168 -374 167 -374 -67 -233 c-37 -128 -71 -239
-75 -247 -4 -8 -80 -47 -170 -87 -89 -40 -164 -75 -167 -78 -4 -3 -35 -137
-70 -298 l-64 -293 38 -32 c21 -17 95 -78 165 -135 l127 -105 -1075 -1194
-1074 -1194 -263 -233 -263 -234 22 -175 22 -176 122 -122 121 -121 -5 -50
c-3 -27 -13 -393 -21 -814 -16 -804 -18 -878 -35 -927 -10 -28 -15 -30 -88
-41 -42 -7 -104 -17 -137 -23 l-61 -10 -28 -109 -28 -108 128 -179 129 -179
104 -331 104 -331 146 -68 c164 -76 140 -56 481 -389 l205 -200 172 -395 172
-395 -14 -450 c-8 -247 -15 -480 -15 -516 l0 -65 -251 -45 c-180 -31 -253 -48
-259 -59 -4 -8 -45 -177 -90 -375 -52 -227 -88 -366 -99 -376 -9 -9 -1060
-683 -2336 -1498 l-2320 -1482 -1155 -1377 -1155 -1378 -992 -809 c-545 -445
-998 -812 -1007 -817 -12 -7 -18 10 -36 89 -29 134 -25 126 -62 117 -18 -3
-1239 -398 -2713 -875 l-2680 -869 -2045 -546 -2045 -547 -1095 -193 c-1550
-273 -3204 -578 -3183 -586 10 -3 1013 -57 2228 -119 l2210 -113 2100 102
2100 102 2960 302 c1628 166 2961 303 2963 304 2 1 -36 128 -84 283 -49 159
-83 286 -78 290 5 4 661 227 1457 496 1221 411 1451 486 1461 474 20 -21 134
-209 213 -349 63 -113 286 -565 343 -697 12 -29 26 -53 29 -53 4 0 891 436
1972 968 1080 533 3160 1557 4622 2276 l2658 1308 83 -76 c46 -42 89 -76 95
-76 6 0 62 24 126 54 l115 54 -282 414 c-156 227 -330 483 -389 568 -58 85
-106 156 -105 156 0 1 100 -7 221 -17 121 -10 229 -18 241 -19 16 0 82 -86
282 -373 l261 -373 438 -404 c241 -223 496 -462 568 -531 l130 -127 1440 1134
1440 1133 1453 1443 1453 1443 1381 1845 1382 1845 565 981 566 981 223 99
c218 97 223 100 232 134 5 19 75 334 155 700 81 366 152 670 159 677 6 6 97
43 202 83 104 39 196 75 203 79 8 5 62 236 132 562 66 305 121 559 123 564 2
6 90 64 196 130 106 66 197 123 202 126 10 6 210 1570 202 1578 -2 2 -568 52
-1257 109 -688 58 -1253 106 -1254 107 -1 1 117 595 263 1321 l265 1319 -31
899 c-17 494 -30 900 -28 901 2 2 443 70 981 153 538 82 980 151 982 154 3 3
-182 367 -411 809 l-416 804 31 56 31 57 -505 292 c-278 161 -505 296 -505
301 0 4 32 61 71 126 39 65 73 121 75 125 4 6 -153 88 -824 431 l-303 154 106
123 c58 68 102 127 98 131 -5 3 -1023 751 -2263 1660 l-2256 1654 -3225 1653
-3226 1652 -2724 1001 -2724 1001 -4630 414 -4630 414 -2510 34 c-1380 19
-2630 37 -2777 39 l-268 5 0 -41z"/>
</g>
</svg>
