<?xml version="1.0" standalone="no"?>
<!DOCTYPE svg PUBLIC "-//W3C//DTD SVG 20010904//EN"
 "http://www.w3.org/TR/2001/REC-SVG-20010904/DTD/svg10.dtd">
<svg version="1.0" xmlns="http://www.w3.org/2000/svg"
   viewBox="0 0 2812.000000 4015.000000"
 preserveAspectRatio="xMidYMid meet">
<metadata>
Created by potrace 1.16, written by Peter Selinger 2001-2019
</metadata>
<g transform="translate(0.000000,4015.000000) scale(0.100000,-0.100000)"
fill="#000000" stroke="none">
<path d="M19860 39900 l-105 -250 -658 0 -657 0 -38 -82 c-38 -83 -38 -83 -15
-86 21 -3 18 -13 -77 -202 -54 -109 -219 -420 -366 -691 -146 -272 -270 -504
-275 -517 -5 -12 -334 -642 -732 -1400 -398 -757 -799 -1523 -892 -1702 -92
-179 -172 -330 -179 -336 -22 -23 -222 -34 -604 -34 l-388 0 -37 -75 -37 -75
390 0 c354 0 520 -9 556 -29 7 -4 -342 -687 -959 -1878 l-971 -1873 -739 -2
-740 -3 -33 -60 -33 -60 728 -5 c401 -3 732 -8 736 -12 7 -6 -83 -183 -150
-298 -18 -30 -230 -433 -470 -895 -241 -462 -467 -896 -503 -965 l-66 -125
-174 -22 c-95 -11 -175 -23 -177 -25 -6 -6 -295 -548 -295 -553 0 -3 34 -5 75
-5 62 0 86 -5 147 -32 l73 -33 -398 -911 -398 -910 -52 -26 c-49 -24 -58 -35
-162 -199 -60 -95 -111 -176 -113 -180 -2 -4 17 -9 41 -11 l45 -3 -417 -745
c-266 -476 -549 -965 -785 -1355 -203 -335 -374 -616 -380 -623 -7 -7 -114
-27 -251 -47 -132 -19 -246 -38 -253 -43 -7 -4 -172 -232 -366 -507 l-354
-500 177 -45 178 -45 -817 -775 -817 -775 -11 -111 c-7 -60 -12 -122 -12 -136
0 -21 28 -49 141 -146 l140 -120 112 -27 c62 -16 115 -30 119 -32 11 -6 -44
-73 -60 -73 -7 0 -398 -88 -870 -195 l-857 -195 -700 -273 -700 -272 -3 -83
c-3 -82 -3 -82 23 -82 l25 0 0 -385 0 -385 -25 0 c-25 0 -25 -1 -25 -80 0 -69
2 -80 18 -80 9 0 112 -11 227 -25 116 -14 216 -25 223 -25 10 0 12 -29 10
-127 l-3 -127 -1302 -310 -1303 -310 0 -28 0 -28 -540 0 -540 0 0 -95 0 -95
555 0 555 0 0 -535 0 -535 -240 0 -240 0 0 -155 0 -155 118 0 c64 0 161 -3
215 -7 92 -6 97 -7 97 -28 0 -15 -8 -25 -22 -29 -13 -3 -512 -6 -1110 -6
l-1088 0 0 -135 0 -135 1393 0 1392 1 408 -38 407 -38 0 -85 0 -86 -257 -39
c-190 -29 -258 -36 -261 -27 -3 9 -355 12 -1538 12 l-1534 0 0 -135 0 -135
1068 -1 c587 0 1085 -3 1107 -7 34 -6 40 -11 43 -35 l3 -27 -84 0 c-46 0 -145
-3 -220 -7 l-137 -6 0 -149 0 -148 320 0 320 0 0 -414 c0 -322 3 -415 13 -419
6 -3 -5 -6 -25 -6 l-38 -1 0 -125 0 -125 -610 0 -610 0 0 -105 0 -105 1245 0
1245 0 0 45 0 45 160 0 c167 0 196 -5 523 -91 36 -10 37 -11 37 -57 l0 -48
623 -218 c342 -121 627 -224 633 -230 6 -6 49 -108 94 -226 46 -118 88 -225
95 -238 6 -13 63 -70 125 -128 l114 -104 233 0 c264 0 241 10 221 -96 l-11
-64 -66 -1 c-36 -1 -130 -4 -208 -8 l-143 -6 54 -90 54 -90 139 -15 138 -15 0
-66 0 -65 202 -270 202 -269 159 -63 158 -62 555 -607 c305 -333 569 -623 587
-644 l33 -38 -84 -47 -85 -46 -50 -132 c-28 -72 -54 -138 -57 -147 -5 -13 18
-30 107 -77 l113 -59 285 -37 c275 -35 286 -38 311 -64 14 -15 470 -550 1013
-1189 594 -701 986 -1171 986 -1183 0 -18 -7 -20 -80 -20 l-80 0 192 -240 192
-240 98 0 98 0 819 -1092 819 -1093 81 -312 c45 -171 81 -313 81 -316 0 -3 48
-8 108 -11 59 -4 140 -9 180 -12 l72 -6 0 -129 0 -129 224 -332 c123 -183 306
-451 407 -594 l184 -262 223 -213 222 -212 161 -74 162 -73 1307 0 1306 0 229
100 229 100 190 0 c105 0 385 5 621 11 l430 10 822 230 823 229 207 153 208
153 7 84 c3 47 9 187 13 311 l7 226 150 246 149 247 1177 0 c647 0 2055 9
3127 20 1073 11 1974 20 2003 20 l52 0 0 40 c0 22 -3 40 -7 40 -5 0 -881 10
-1948 22 -1371 14 -2857 22 -5069 27 l-3130 6 -82 180 c-46 99 -87 181 -91
182 -4 2 -90 9 -191 17 -101 8 -186 17 -190 21 -4 3 -111 363 -238 798 l-231
792 109 9 109 8 -6 27 c-3 15 -34 134 -69 266 -61 232 -63 239 -93 253 -21 10
-33 24 -37 45 -10 48 -7 79 9 91 12 9 4 25 -49 97 l-63 86 -84 11 c-45 7 -86
17 -90 23 -14 24 -579 2217 -579 2250 0 5 99 9 232 9 l231 0 139 42 c76 23
138 47 138 52 0 6 -38 169 -85 362 l-86 351 -149 67 -148 66 -296 0 -295 0
-57 72 -56 73 -300 5 -300 5 93 63 c86 58 106 67 289 122 185 56 206 60 379
75 100 8 191 15 202 15 16 0 18 5 13 25 -6 25 -5 25 54 25 58 0 61 1 66 28 3
15 26 149 52 297 26 149 52 273 58 277 50 31 56 -6 -84 533 -72 275 -136 519
-142 543 -10 40 -25 55 -222 215 -116 94 -333 276 -483 404 l-272 232 -251
-15 -252 -16 -327 -260 c-193 -154 -325 -265 -323 -274 2 -11 -9 -14 -47 -14
-50 0 -50 0 -60 38 -6 20 -13 56 -17 79 l-6 41 361 271 361 271 275 0 275 0 0
698 0 697 -185 240 -185 241 -235 34 -235 35 0 62 0 63 260 0 260 0 0 33 c0
17 -9 298 -21 622 l-21 590 -232 325 -233 325 -159 347 -159 348 -128 0 -128
0 3 27 c2 22 51 68 236 225 228 193 235 198 279 198 35 0 192 60 754 287 l709
286 0 52 0 52 43 17 c38 14 132 16 912 16 l870 0 53 65 53 65 444 0 444 0 46
-65 47 -65 221 0 222 1 125 99 125 100 490 0 490 1 108 122 107 121 0 67 0 66
-225 122 -224 121 -392 0 -391 0 -57 45 -57 45 -172 0 -172 0 0 -45 c0 -42 -2
-45 -27 -45 -20 -1 -48 -20 -98 -65 l-70 -65 -495 0 -495 0 -53 65 -53 65
-874 0 c-1015 0 -945 -7 -945 90 l0 56 -565 269 -565 268 0 431 0 431 64 95
63 96 366 1249 c314 1073 436 1470 862 2805 1050 3289 2846 8964 2841 8977 -3
7 -15 13 -27 13 -17 0 -20 4 -16 23 4 12 116 375 251 807 134 432 595 1935
1024 3340 l780 2555 41 241 c23 132 41 244 41 247 0 4 -188 7 -417 7 l-418 0
-105 -250z m-900 -520 l0 -40 -107 0 -108 -1 -178 -152 -179 -152 -237 -460
-237 -460 -52 -3 c-29 -2 -52 0 -52 3 0 3 108 214 240 468 l240 462 223 187
222 187 113 1 112 0 0 -40z m580 0 l0 -40 -245 0 -245 0 0 40 0 40 245 0 245
0 0 -40z m415 -56 l66 -96 -192 -521 c-105 -287 -198 -539 -206 -559 -15 -37
-17 -38 -64 -38 -27 0 -49 3 -49 6 0 3 86 243 190 533 105 289 190 533 189
541 0 8 -22 44 -48 80 l-47 65 -82 3 c-45 2 -82 7 -82 11 0 5 3 23 6 40 l7 31
122 0 123 0 67 -96z m-2166 -1446 c-43 -84 -365 -709 -716 -1388 l-638 -1235
-48 -3 c-26 -2 -47 -1 -47 2 0 6 1348 2624 1397 2714 l34 62 48 0 48 0 -78
-152z m1781 127 c0 -4 -977 -2710 -995 -2757 -6 -14 -19 -18 -61 -18 -30 0
-54 1 -54 3 0 2 225 621 500 1377 275 756 502 1381 505 1388 4 11 105 19 105
7z m-3202 -2875 c-1 -5 -57 -115 -123 -244 l-120 -234 -48 -4 c-26 -1 -46 -1
-45 2 2 3 58 114 126 248 l122 242 46 0 c25 0 44 -4 42 -10z m2152 -27 c0 -5
-35 -108 -77 -230 l-78 -223 -58 0 c-32 0 -57 4 -55 9 2 5 39 108 83 230 l80
221 52 0 c29 0 53 -3 53 -7z m-2543 -718 c1 -5 -424 -836 -946 -1845 l-949
-1835 -49 -6 c-26 -3 -49 -5 -51 -4 -1 1 419 814 934 1806 515 992 947 1826
961 1852 23 46 26 48 60 45 20 -2 38 -7 40 -13z m2290 -7 c-2 -7 -19 -56 -37
-108 l-34 -95 -148 -94 -148 -94 -72 -219 -73 -218 -52 0 -53 0 11 28 c9 22
97 264 140 383 7 17 56 58 143 119 l133 94 38 108 37 108 60 0 c44 0 59 -3 55
-12z m-547 -932 c0 -3 -167 -483 -371 -1068 -204 -585 -378 -1082 -386 -1105
-15 -43 -15 -43 -64 -43 -27 0 -49 3 -49 7 0 4 172 503 383 1110 l382 1103 53
0 c28 0 52 -2 52 -4z m-810 -2325 c0 -5 -31 -98 -69 -207 l-68 -199 -58 -3
c-52 -3 -57 -1 -50 15 3 10 36 99 71 198 35 99 66 186 69 193 5 14 105 17 105
3z m-2942 -625 c1 -2 -18 -47 -45 -100 l-48 -96 -47 0 c-27 0 -48 3 -48 6 0 4
24 52 53 106 l52 100 40 -7 c21 -3 41 -7 43 -9z m2564 -43 c-10 -27 -164 -432
-342 -900 l-324 -853 -179 0 -179 0 20 33 c78 130 132 248 132 286 l0 41 77 0
77 0 57 56 57 56 263 664 263 664 48 0 48 0 -18 -47z m-2827 -475 c-57 -112
-221 -428 -363 -703 l-259 -500 33 -45 32 -45 134 -3 133 -3 -3 -39 -4 -40
-147 0 -147 0 -72 73 c-39 40 -72 76 -72 81 0 5 165 327 367 717 l368 709 52
0 53 0 -105 -202z m1591 -940 c-32 -46 -95 -156 -167 -295 l-74 -143 -587 0
-588 0 0 40 0 40 545 0 546 0 80 168 c45 92 85 177 90 190 8 20 15 22 90 22
l81 0 -16 -22z m-1516 -398 l0 -40 -135 0 -135 0 0 40 0 40 135 0 135 0 0 -40z
m-2006 -3466 c17 -43 13 -44 -147 -44 l-152 0 -65 -44 -66 -43 -329 -572 -330
-571 -54 0 c-38 0 -52 3 -48 13 2 6 149 273 325 592 l320 580 88 53 88 52 182
0 c157 0 183 -2 188 -16z m1326 -14 l0 -30 -585 0 -585 0 0 30 0 30 585 0 585
0 0 -30z m525 0 l-16 -30 -160 0 c-143 0 -160 2 -155 16 3 9 6 22 6 30 0 12
30 14 170 14 l171 0 -16 -30z m-2985 -1334 c0 -2 -104 -185 -231 -406 -198
-345 -229 -404 -218 -418 7 -9 33 -38 58 -64 l45 -48 123 0 123 0 0 -40 0 -40
-121 0 -121 0 -106 101 c-59 55 -108 105 -110 110 -2 5 99 189 224 409 l227
400 54 0 c29 0 53 -2 53 -4z m3123 -601 l-15 -45 -459 0 -460 0 -122 -185
-122 -185 -642 0 -643 0 0 40 0 40 592 2 591 3 56 81 c31 45 89 129 129 188
l72 106 520 0 519 0 -16 -45z m-2583 -344 c0 -5 -3 -23 -6 -40 l-6 -31 -249 0
c-230 0 -249 1 -249 18 0 9 -3 27 -6 40 l-6 22 261 0 c143 0 261 -4 261 -9z
m2985 -19228 c253 -406 474 -762 492 -790 l34 -53 -278 0 -278 0 -200 351
-200 352 -45 17 c-25 9 -100 38 -167 64 l-122 47 -92 160 c-50 87 -97 162
-103 167 -28 21 -156 61 -201 64 l-49 3 -108 170 c-58 94 -107 173 -107 178
-1 4 217 7 482 7 l484 0 458 -737z m5400 -1803 l240 -240 641 0 641 0 77 -61
77 -62 -5 -66 c-3 -36 -8 -145 -12 -241 l-6 -175 -126 -75 c-70 -41 -157 -91
-193 -113 -57 -33 -162 -64 -800 -238 l-734 -201 -515 -13 c-283 -8 -530 -14
-547 -15 -33 0 -33 0 -33 50 0 28 1 51 3 51 1 1 234 7 517 14 l515 13 695 177
694 177 198 99 198 99 0 203 -1 202 -61 48 -61 47 -1913 0 -1914 0 0 50 0 49
91 3 91 3 100 211 100 210 172 16 c132 12 337 15 901 16 l730 2 240 -240z
m-5461 58 c3 -13 6 -35 6 -50 0 -28 -1 -28 -67 -28 -64 -1 -71 -3 -111 -38
l-43 -37 204 -330 204 -330 -75 -3 c-41 -2 -81 -1 -87 2 -7 2 -90 118 -185
258 -96 139 -198 288 -227 330 l-54 76 98 86 98 85 116 1 c113 0 117 -1 123
-22z m1166 -28 l0 -50 -510 0 c-492 0 -510 1 -510 19 0 10 3 33 6 50 l7 31
503 0 504 0 0 -50z m1435 -100 l129 -150 77 0 c85 0 89 -3 89 -66 l0 -34 -132
1 -133 0 -130 149 -130 149 -534 1 -533 0 6 31 c3 17 6 40 6 50 0 18 20 19
578 19 l578 0 129 -150z m-2198 -972 c163 -217 170 -226 312 -344 131 -108
155 -124 231 -151 77 -28 101 -31 258 -38 l172 -7 0 -49 0 -49 -201 0 -201 0
-106 55 c-88 46 -138 82 -279 203 -167 144 -176 154 -342 371 -94 123 -171
225 -171 227 0 2 36 4 80 4 l80 0 167 -222z m3618 -405 c-4 -27 -10 -51 -13
-54 -4 -3 -107 -45 -229 -93 l-221 -86 -126 0 -126 0 0 39 c0 22 -3 46 -6 55
-5 13 2 16 42 16 37 1 102 22 264 85 l215 84 104 0 103 1 -7 -47z m-863 -133
c3 -3 3 -26 0 -52 l-4 -48 -813 0 -813 0 -4 56 -3 56 817 -4 c449 -2 818 -5
820 -8z"/>
</g>
</svg>
