<?xml version="1.0" standalone="no"?>
<!DOCTYPE svg PUBLIC "-//W3C//DTD SVG 20010904//EN"
 "http://www.w3.org/TR/2001/REC-SVG-20010904/DTD/svg10.dtd">
<svg version="1.0" xmlns="http://www.w3.org/2000/svg"
   viewBox="0 0 2692.000000 4238.000000"
 preserveAspectRatio="xMidYMid meet">
<metadata>
Created by potrace 1.16, written by Peter Selinger 2001-2019
</metadata>
<g transform="translate(0.000000,4238.000000) scale(0.100000,-0.100000)"
fill="#000000" stroke="none">
<path d="M7926 41987 l-300 -392 -147 -1080 c-82 -594 -148 -1084 -148 -1090
-1 -5 112 -75 249 -155 138 -80 252 -152 255 -160 2 -8 90 -447 195 -975 104
-528 196 -965 203 -971 6 -6 293 -236 637 -510 344 -274 1111 -903 1705 -1398
594 -494 1082 -900 1084 -902 1 -1 -88 -365 -200 -808 -111 -444 -200 -808
-198 -810 2 -2 468 -356 1034 -787 1171 -890 2060 -1595 2023 -1603 -13 -3
-214 -26 -448 -51 l-424 -46 -419 -151 -418 -150 -777 21 -777 22 -1274 109
c-701 61 -1291 110 -1310 110 -30 -1 -134 -62 -586 -345 l-550 -345 -127 0
-128 0 0 189 0 190 150 113 c82 62 149 118 149 123 1 6 -34 75 -77 155 l-77
145 -2215 607 -2215 608 -885 35 c-487 20 -912 34 -944 33 l-60 -3 -57 -142
-57 -141 130 -309 c147 -351 143 -306 29 -376 l-61 -37 0 -1547 0 -1547 -29
-171 c-29 -165 -30 -184 -36 -615 l-6 -445 121 -564 c66 -311 120 -567 120
-571 0 -3 -111 -18 -247 -34 -137 -15 -257 -31 -268 -35 -15 -6 -28 -36 -53
-128 l-32 -119 0 -352 0 -352 -45 0 c-39 0 -70 -14 -230 -106 l-185 -106 0
-1012 0 -1013 185 -106 c160 -93 191 -107 230 -107 l45 0 0 -77 c1 -89 56
-311 80 -325 8 -4 243 -68 521 -142 l506 -133 719 68 c395 38 730 66 744 64
14 -3 961 -97 2104 -210 1144 -113 2080 -206 2081 -208 1 -1 26 -49 55 -107
49 -97 369 -563 423 -616 12 -12 229 -163 482 -335 904 -614 2135 -1456 2435
-1664 168 -116 440 -303 605 -415 484 -328 1736 -1183 3390 -2315 330 -225
987 -675 1460 -998 473 -324 1099 -753 1390 -953 292 -201 584 -398 650 -438
l120 -72 42 -145 c23 -79 42 -160 42 -179 1 -47 -24 -83 -53 -76 -20 5 -57
-52 -366 -554 l-345 -560 -35 0 -35 0 -200 -321 c-110 -176 -202 -322 -205
-324 -3 -2 -79 -7 -170 -11 l-165 -7 -125 -110 c-69 -61 -131 -115 -138 -122
-7 -6 -37 -76 -67 -156 l-55 -144 7 -141 6 -140 32 -20 33 -19 -195 -310
c-290 -462 -363 -583 -363 -600 0 -8 -255 -398 -567 -865 l-566 -850 -208 0
-208 0 -44 -67 c-23 -38 -80 -127 -126 -200 l-83 -132 681 -1015 682 -1016
-300 -715 -300 -715 -726 -958 c-398 -526 -724 -960 -722 -963 5 -12 996 -945
1087 -1023 52 -45 193 -164 312 -264 l217 -182 1038 1148 1037 1147 610 865
c335 476 928 1311 1318 1857 l710 992 589 1028 c325 565 594 1032 599 1037 5
5 131 18 281 30 l272 21 22 35 c12 19 977 1760 2145 3869 l2124 3834 293 1076
293 1076 65 655 c35 360 67 679 70 708 l6 52 225 0 224 0 0 48 0 49 -132 11
c-196 18 -191 18 -211 -23 -15 -31 -21 -35 -57 -35 -36 0 -40 2 -40 26 0 15
27 313 60 663 58 608 61 653 67 1019 l6 382 -86 0 c-85 0 -85 0 -91 28 -7 35
-236 1360 -236 1367 0 3 -13 5 -28 5 l-29 0 -12 198 c-19 302 -46 413 -221
937 -49 148 -90 273 -90 277 0 4 44 30 99 57 76 39 107 61 140 100 l43 51
-162 507 c-89 278 -185 566 -214 639 l-54 133 134 89 135 89 64 109 c37 62 60
113 56 119 -5 5 -1085 1365 -2400 3020 l-2392 3010 -672 771 -672 770 -83 -69
c-45 -37 -86 -67 -90 -65 -4 2 -173 172 -377 378 -203 207 -788 800 -1300
1319 l-930 942 -1287 1146 -1287 1146 -1393 845 c-1200 728 -1638 987 -3165
1869 -974 562 -1775 1023 -1780 1022 -4 0 -143 -176 -307 -392z m15153 -27587
l-120 -535 -557 -1291 c-306 -711 -558 -1290 -560 -1289 -2 2 8 63 23 136 21
111 118 407 563 1730 l537 1596 114 97 c62 53 115 95 117 94 2 -2 -51 -244
-117 -538z m-4060 -1404 c10 -56 10 -61 -19 -110 -24 -43 -150 -205 -150 -194
0 1 -18 66 -40 142 -22 77 -37 142 -34 145 5 5 227 79 231 77 0 -1 6 -28 12
-60z"/>
</g>
</svg>
