<?xml version="1.0" standalone="no"?>
<!DOCTYPE svg PUBLIC "-//W3C//DTD SVG 20010904//EN"
 "http://www.w3.org/TR/2001/REC-SVG-20010904/DTD/svg10.dtd">
<svg version="1.0" xmlns="http://www.w3.org/2000/svg"
   viewBox="0 0 4504.000000 997.000000"
 preserveAspectRatio="xMidYMid meet">
<metadata>
Created by potrace 1.16, written by Peter Selinger 2001-2019
</metadata>
<g transform="translate(0.000000,997.000000) scale(0.100000,-0.100000)"
fill="#000000" stroke="none">
<path d="M8950 9900 l-125 -70 -482 0 -483 0 0 -85 0 -85 -27 0 c-16 0 -41 9
-58 20 -30 20 -54 20 -3357 20 l-3328 0 0 -560 0 -560 -99 0 c-56 0 -103 -4
-106 -10 -3 -5 -26 -10 -51 -10 l-44 0 0 -870 0 -870 33 0 c21 0 41 -8 52 -20
16 -18 31 -20 125 -20 78 0 111 4 126 15 15 11 59 14 220 15 l202 0 78 -45 79
-45 323 0 322 0 0 -515 0 -515 -646 0 -647 0 -252 -175 -253 -175 -195 0
c-150 0 -196 -3 -200 -13 -3 -7 -39 -28 -81 -47 l-75 -35 -1 -951 0 -951 80
-37 c48 -22 80 -42 80 -51 0 -13 30 -15 201 -15 l201 0 246 -170 246 -170
1753 0 1752 0 57 -25 56 -25 811 0 811 0 342 110 342 110 481 0 481 0 0 125 0
125 295 0 295 0 0 -275 0 -275 335 0 335 0 0 -70 0 -70 1140 0 1140 0 0 35 0
35 240 0 240 0 0 -95 0 -95 210 0 210 0 0 -350 0 -350 1075 0 1075 0 0 -287 0
-288 918 -218 917 -218 613 1 612 0 0 675 0 675 510 0 510 0 0 -470 0 -470
101 0 101 0 -7 -605 -7 -605 159 0 159 0 149 253 150 252 6 175 c4 96 7 255 8
353 l1 177 551 0 551 0 -6 -527 c-4 -291 -9 -563 -12 -606 l-6 -77 163 0 164
0 153 259 152 259 0 104 c0 58 3 213 7 346 l6 242 550 0 549 0 -6 -413 c-3
-226 -9 -499 -12 -604 l-6 -193 163 0 164 1 100 170 c55 94 124 212 153 262
l52 91 0 156 c0 85 3 239 7 342 l6 188 66 0 67 0 52 53 52 53 0 192 0 192 124
0 124 0 166 171 166 171 252 62 253 62 186 97 186 97 2815 0 2815 0 81 62 82
63 0 137 0 138 950 0 950 0 0 -115 0 -115 1360 0 1360 0 0 30 0 30 253 0 c226
0 256 2 294 20 39 17 43 23 62 87 11 37 25 100 31 138 6 39 13 82 16 98 l6 27
344 0 344 0 0 65 0 65 455 0 455 0 0 -60 0 -60 230 0 230 0 0 60 0 60 215 0
215 0 0 -60 0 -60 225 0 225 0 0 60 0 60 215 0 215 0 0 -60 0 -60 230 0 230 0
0 60 0 60 489 0 c393 0 505 -3 568 -15 64 -12 192 -15 728 -15 l650 0 79 -32
78 -31 907 22 c498 12 920 21 937 21 22 0 33 5 36 18 3 9 48 41 101 70 l96 52
130 0 130 0 18 30 17 30 303 0 303 0 0 45 0 45 -302 0 c-244 1 -308 4 -328 15
-18 10 -60 14 -146 15 l-121 0 -101 56 c-56 31 -102 62 -102 69 0 14 -148 21
-645 30 -165 4 -403 13 -530 21 -173 11 -417 15 -988 14 l-757 -1 -44 26 c-37
22 -54 25 -134 25 -90 0 -92 0 -92 24 0 16 -10 31 -31 44 l-31 19 166 8 c132
6 166 10 166 21 0 12 -36 14 -201 14 l-202 0 -49 30 c-46 29 -53 30 -162 30
l-114 0 -9 72 -8 72 -1865 1 -1865 2 -230 41 -230 42 -352 0 -353 0 0 170 0
170 -190 0 -190 0 0 120 0 120 -29 0 c-17 0 -31 6 -35 16 -3 9 -6 180 -6 380
l0 364 35 0 35 0 0 121 0 122 42 76 c23 42 84 138 136 214 l94 138 232 -5
c127 -4 675 -11 1218 -17 l988 -11 60 44 59 43 1 131 0 131 -137 6 c-75 4
-167 7 -205 7 l-68 0 0 194 0 195 53 5 c28 3 264 17 522 31 l470 24 33 37 32
37 0 218 0 217 55 4 c30 1 55 0 55 -4 0 -12 168 -9 172 2 4 14 235 29 468 32
l175 2 -200 7 c-279 9 -419 20 -427 33 -4 6 -49 13 -100 16 l-93 5 -3 33 c-3
31 -4 32 -53 32 l-49 0 0 343 0 342 338 133 c185 73 380 145 432 160 l95 27 3
197 2 196 53 6 c28 3 166 11 305 17 198 10 252 15 252 26 0 9 15 13 48 14 26
0 117 4 202 8 141 7 157 6 180 -11 24 -17 34 -17 310 7 157 14 288 25 293 25
4 0 7 10 7 21 l0 22 -825 -8 -825 -7 0 270 0 270 -272 6 c-150 3 -934 13
-1743 22 l-1470 17 -280 84 -279 84 -896 10 c-492 5 -1026 12 -1187 15 l-292
6 -11 28 -12 28 -191 6 c-106 3 -820 18 -1589 32 l-1396 25 -407 -66 c-363
-58 -422 -65 -549 -65 l-142 0 -63 70 -62 70 -1325 0 -1325 0 -40 -32 c-37
-30 -39 -34 -39 -90 l0 -58 -2929 0 -2930 0 -8 -42 -9 -43 -849 -3 c-467 -1
-851 -6 -854 -10 -4 -4 -184 -88 -401 -185 l-395 -177 -1055 0 -1055 0 -135
125 c-74 69 -136 129 -138 133 -1 4 100 34 225 66 l228 59 53 51 52 50 0 71
c0 69 -1 72 -38 108 l-38 37 -3239 0 -3240 0 -125 -70z m3409 -607 c-8 -10
-46 -56 -85 -103 l-71 -85 -34 -178 -33 -177 -33 0 c-31 0 -33 -2 -33 -35 l0
-35 -165 0 -165 0 0 35 0 35 -90 0 -90 0 0 -35 0 -35 -410 0 -410 0 0 35 0 35
-90 0 -90 0 0 -35 c0 -28 -4 -35 -20 -35 -11 0 -84 -40 -162 -89 l-143 -88 -3
123 -3 124 -84 0 -85 0 0 -135 0 -135 -165 0 -165 0 0 135 0 135 -90 0 -90 0
0 -135 0 -135 -95 0 -94 0 23 63 24 62 -119 85 -120 85 713 5 713 5 515 262
515 263 374 0 c354 0 373 -1 360 -17z m669 -721 c18 -81 32 -150 32 -154 0 -5
-22 -8 -50 -8 l-50 0 0 135 c0 123 9 175 30 175 3 0 20 -66 38 -148z m14222
-3632 l0 -420 -30 0 -30 0 0 420 0 420 30 0 30 0 0 -420z m598 -2 c-1 -233 -4
-381 -5 -330 l-4 92 -179 0 -180 0 0 -90 c0 -53 -4 -90 -10 -90 -7 0 -10 147
-10 420 l0 420 195 0 195 0 -2 -422z m822 2 l0 -420 -305 0 -305 0 0 420 0
420 305 0 305 0 0 -420z m1060 0 l0 -420 -440 0 -440 0 0 420 0 420 440 0 440
0 0 -420z m1050 -80 l0 -500 -210 0 -210 0 0 80 0 80 -230 0 -230 0 0 420 0
420 440 0 440 0 0 -500z m3050 120 l0 -380 -30 0 -30 0 0 -120 0 -120 -570 0
-569 0 -16 30 -16 30 -274 0 -275 0 0 140 0 140 -180 0 -180 0 0 -140 0 -140
-220 0 -220 0 0 140 0 140 -150 0 -150 0 0 330 0 330 1440 0 1440 0 0 -380z
m-21450 -75 l0 -125 -427 1 c-277 0 -421 4 -408 10 11 5 144 61 295 123 l275
114 133 1 132 1 0 -125z"/>
</g>
</svg>
