<?xml version="1.0" standalone="no"?>
<!DOCTYPE svg PUBLIC "-//W3C//DTD SVG 20010904//EN"
 "http://www.w3.org/TR/2001/REC-SVG-20010904/DTD/svg10.dtd">
<svg version="1.0" xmlns="http://www.w3.org/2000/svg"
   viewBox="0 0 3178.000000 3934.000000"
 preserveAspectRatio="xMidYMid meet">
<metadata>
Created by potrace 1.16, written by Peter Selinger 2001-2019
</metadata>
<g transform="translate(0.000000,3934.000000) scale(0.100000,-0.100000)"
fill="#000000" stroke="none">
<path d="M22170 39250 l0 -90 -952 0 c-524 0 -1301 -3 -1727 -7 l-773 -6 -762
-838 -761 -839 -1605 0 -1605 0 -3067 -3061 -3068 -3061 0 -377 c0 -208 3
-547 7 -754 l6 -377 3768 0 3767 0 116 -215 c64 -117 116 -216 116 -220 0 -3
-110 -5 -244 -5 -194 0 -251 -3 -279 -15 -32 -13 -223 -15 -1510 -15 l-1473 0
-193 -140 -192 -140 -819 0 -818 0 -210 283 -209 282 -931 3 -930 2 -23 38
c-13 20 -46 63 -73 95 l-50 57 -994 0 -994 0 -58 -53 c-31 -30 -78 -70 -102
-90 l-45 -37 -2404 -6 -2404 -7 -80 30 c-57 21 -88 27 -107 22 -35 -9 -209
-144 -225 -174 -7 -12 -27 -28 -45 -34 -18 -6 -75 -28 -126 -47 l-92 -36 2
-1330 3 -1330 124 -46 c86 -32 126 -52 133 -66 10 -22 159 -138 215 -169 32
-17 34 -17 115 13 l83 30 2405 -6 2405 -7 50 -41 c28 -22 74 -62 103 -88 l54
-48 992 0 992 0 50 58 c27 31 60 74 73 95 22 36 24 37 81 37 l59 0 11 -57 c7
-32 19 -93 28 -135 l17 -77 353 -316 353 -315 602 2 602 3 40 115 c22 63 44
121 48 128 6 9 61 12 215 12 114 0 212 -4 218 -8 6 -4 26 -56 44 -117 18 -60
39 -116 48 -122 12 -10 166 -13 691 -13 372 0 681 4 687 8 7 4 24 54 39 112
15 58 34 113 43 123 13 15 37 17 222 17 150 0 210 -3 222 -12 8 -7 28 -62 43
-121 16 -59 33 -111 39 -115 6 -4 251 -9 545 -12 l534 -5 86 -242 86 -243 962
0 c529 0 964 -4 967 -8 3 -5 -15 -31 -39 -59 l-45 -51 0 -494 0 -493 728 -139
c400 -76 732 -144 739 -150 7 -6 112 -222 233 -480 l222 -469 -81 -81 -81 -81
0 -3150 0 -3150 98 -98 97 -97 295 0 c162 0 386 -3 498 -7 l202 -6 0 -366 0
-366 170 -170 170 -170 0 -1060 0 -1061 -327 -192 c-181 -105 -329 -189 -331
-184 -2 4 -72 203 -156 442 l-153 435 -571 3 -572 2 0 -903 0 -904 231 -574
c127 -316 233 -580 236 -586 4 -10 -12 -13 -59 -13 l-64 0 -100 248 -101 247
-779 2 -779 3 -171 -258 -170 -257 48 -119 c26 -66 48 -125 48 -131 0 -5 -56
-66 -125 -135 l-125 -125 0 -247 0 -247 303 -395 302 -395 208 -1 c114 0 207
3 207 8 0 4 -51 182 -114 397 l-114 389 124 248 124 248 776 -2 776 -3 65
-160 c35 -88 73 -181 83 -206 l19 -46 -197 -171 c-108 -94 -268 -242 -355
-329 l-157 -159 1557 -3928 1558 -3928 765 -449 765 -449 1720 -2 1720 -3 3
-25 c8 -74 1 -70 122 -70 69 0 110 4 110 10 0 6 -268 2077 -595 4603 -422
3255 -595 4621 -595 4688 l0 95 -77 57 -77 57 -885 0 -886 0 -90 60 -90 60
-292 0 -293 0 0 150 0 150 460 0 460 0 0 44 0 43 210 13 210 13 0 47 0 48 473
6 c259 3 927 8 1482 11 556 3 1238 8 1518 12 464 5 507 7 507 23 0 15 -131 17
-1807 28 -995 7 -1890 15 -1990 18 l-183 6 0 43 0 43 -62 6 c-35 3 -108 8
-163 11 -55 3 -121 8 -147 11 l-48 6 0 44 0 44 -470 0 -470 0 0 349 0 348
-235 -5 -235 -5 -2 394 -3 394 -97 3 -98 3 0 893 0 893 120 8 120 7 122 89
c120 87 124 89 179 89 l56 0 28 -65 27 -65 159 0 159 0 58 -117 57 -118 712
-3 711 -2 314 206 c172 114 315 208 317 210 2 2 236 970 520 2151 l517 2148
374 0 375 0 8 -47 9 -48 203 0 203 0 38 50 38 50 332 0 332 0 125 30 126 30
760 0 761 0 0 260 0 260 -766 0 -765 0 -119 30 -119 30 -333 0 -334 0 -37 50
-37 50 -204 0 -204 0 -6 -37 c-15 -81 25 -73 -386 -73 l-369 0 -10 38 c-6 20
-28 113 -51 205 l-40 169 49 191 c27 106 55 235 62 288 l13 96 416 298 417
298 143 408 143 408 -237 988 c-130 544 -236 991 -236 994 0 4 33 34 74 68
l74 61 -18 72 c-10 40 -28 116 -40 169 l-22 96 -94 18 c-79 16 -95 22 -99 40
-3 11 -102 425 -220 920 l-214 900 -149 145 -150 145 -41 162 c-40 158 -41
166 -41 330 0 147 3 179 24 257 14 48 26 89 28 91 2 1 1503 14 3337 29 l3334
26 34 -21 c32 -20 39 -20 227 -10 107 6 199 11 205 11 6 0 11 19 11 44 0 55 8
53 -237 62 -161 5 -184 4 -210 -11 -28 -16 -212 -16 -3341 7 -1822 14 -3314
26 -3316 29 -2 2 25 113 59 247 35 134 134 570 220 970 86 400 180 831 210
957 66 284 94 409 92 411 -1 1 -220 74 -488 163 l-485 161 -882 0 -882 0 1 78
c0 42 -28 2184 -63 4760 l-63 4682 -112 0 -113 0 0 -90z m-17370 -9853 l0 -92
-257 -54 c-142 -30 -264 -56 -270 -59 -10 -3 -13 -110 -13 -488 l0 -484 -1670
0 -1670 0 0 600 0 600 103 1 c96 0 3628 65 3730 68 l47 1 0 -93z m-540 -1921
l0 -485 53 -11 c28 -6 149 -32 267 -58 l215 -47 3 -93 3 -93 -213 6 c-117 3
-872 17 -1678 30 -806 13 -1583 27 -1727 31 l-263 6 0 599 0 599 1670 0 1670
0 0 -484z m14159 -4648 c1 -5 -3 -8 -9 -8 -5 0 -10 12 -9 28 0 24 1 25 9 7 5
-11 9 -23 9 -27z"/>
</g>
</svg>
