<?xml version="1.0" standalone="no"?>
<!DOCTYPE svg PUBLIC "-//W3C//DTD SVG 20010904//EN"
 "http://www.w3.org/TR/2001/REC-SVG-20010904/DTD/svg10.dtd">
<svg version="1.0" xmlns="http://www.w3.org/2000/svg"
   viewBox="0 0 4545.000000 1256.000000"
 preserveAspectRatio="xMidYMid meet">
<metadata>
Created by potrace 1.16, written by Peter Selinger 2001-2019
</metadata>
<g transform="translate(0.000000,1256.000000) scale(0.100000,-0.100000)"
fill="#000000" stroke="none">
<path d="M2400 12537 l0 -24 -217 -6 c-120 -4 -661 -7 -1202 -7 -782 0 -982
-3 -979 -12 3 -7 112 -381 244 -830 l238 -818 173 0 173 0 6 -27 c5 -22 36
-49 141 -123 75 -52 139 -98 144 -101 5 -3 74 -194 153 -425 132 -382 148
-436 181 -611 20 -105 62 -281 94 -390 l58 -198 940 -3 941 -2 45 -108 c25
-59 75 -180 112 -269 65 -157 68 -163 96 -163 l29 0 0 -305 0 -305 55 0 55 0
0 -60 0 -60 160 0 160 0 0 60 0 60 120 0 120 0 0 -1695 0 -1695 525 0 c518 0
525 0 525 -20 0 -20 7 -20 1170 -20 l1170 0 0 -205 0 -205 2493 0 2492 0 752
317 753 318 0 308 0 307 1569 0 1570 0 190 117 191 116 0 64 0 63 1280 0 1280
0 0 -20 c0 -20 5 -21 183 -20 l182 2 662 -321 661 -321 264 0 265 0 24 26 c13
14 36 35 51 45 l27 20 100 -53 101 -53 0 -182 0 -183 420 0 420 0 0 -185 0
-185 1290 0 1290 0 0 -38 c0 -21 5 -43 12 -50 9 -9 -252 -12 -1176 -12 l-1188
0 -44 -37 -45 -36 -322 -5 -322 -4 -643 -641 -642 -642 195 -194 194 -195 528
-12 528 -13 810 810 810 809 160 0 160 0 -1740 -1740 -1740 -1740 195 -194
195 -194 529 -12 530 -11 848 848 c668 668 850 845 860 835 7 -7 42 -12 91
-12 51 0 76 -4 72 -10 -4 -7 36 -10 123 -8 l130 3 785 805 786 805 0 628 1
627 205 0 205 0 0 425 0 425 300 0 300 0 0 34 0 34 1178 -6 c647 -2 1179 -9
1180 -13 5 -13 462 -11 462 1 0 7 565 10 1675 10 1110 0 1675 -3 1675 -10 0
-6 82 -10 225 -10 143 0 225 4 225 10 0 6 114 10 323 10 l322 0 682 307 682
306 3 68 3 67 420 -204 420 -204 1750 6 1750 6 700 69 c605 59 729 74 913 110
179 35 212 44 208 58 -10 34 -18 161 -12 188 6 28 7 28 79 25 l72 -4 -34 36
-35 36 1037 0 1038 0 202 51 c111 27 219 54 239 60 37 10 38 10 38 59 l0 50
-56 0 -55 0 6 43 c3 23 21 170 39 327 25 223 31 301 25 360 -4 41 -8 87 -8
101 -1 24 -10 29 -136 75 -74 26 -140 51 -145 54 -7 4 -6 26 1 64 6 32 8 60 5
63 -3 3 -412 154 -908 335 l-903 330 -685 163 -685 164 -466 39 -465 38 -112
62 -113 62 -572 0 -572 0 -775 70 -775 71 -55 54 c-40 40 -71 60 -114 75 -76
26 -90 25 -114 -5 -11 -14 -23 -25 -26 -25 -4 0 -814 331 -1802 736 -987 404
-1802 734 -1812 732 -14 -3 -19 -22 -29 -108 -6 -58 -13 -142 -15 -187 l-3
-81 295 -405 294 -404 591 -242 c324 -133 595 -245 600 -249 6 -4 24 -76 41
-159 28 -139 30 -153 15 -158 -10 -3 -46 -30 -82 -60 l-64 -55 -330 0 -330 0
-1015 -170 c-558 -93 -1025 -172 -1037 -175 -19 -4 -23 -12 -23 -45 l0 -40
-1534 0 -1535 0 -3 26 c-4 31 -52 52 -1136 500 l-664 274 -166 0 -165 0 -254
95 -253 95 -1714 0 c-1554 0 -1715 1 -1718 16 -2 10 -208 100 -622 270 l-618
254 -93 0 -92 0 -7 143 c-4 78 -9 170 -12 204 l-6 63 -377 306 c-207 169 -383
313 -391 320 -16 14 -144 8 -135 -6 3 -5 -28 -11 -68 -15 -39 -4 -79 -13 -88
-21 -14 -12 -45 12 -264 213 l-247 228 -62 6 c-33 4 -180 10 -326 14 l-265 7
-168 -201 c-92 -111 -170 -207 -172 -214 -2 -7 221 -205 497 -442 l500 -430
104 -3 104 -3 0 -84 c0 -77 -2 -85 -19 -85 -10 0 -375 113 -811 250 l-792 250
-1561 1 -1562 0 -330 143 -330 142 -3 196 -2 195 -553 157 -552 156 -1517 0
-1518 0 0 -190 0 -190 -195 0 -195 0 0 325 0 325 -610 0 -610 0 0 200 0 200
-683 0 -683 0 -91 75 -92 75 -258 0 -258 0 -355 97 c-283 77 -361 101 -382
122 l-28 25 0 166 0 167 -82 7 c-56 5 -85 12 -91 21 -6 12 -37 15 -161 15 -96
0 -290 13 -526 35 -368 34 -382 35 -862 35 l-488 0 0 25 0 25 -180 0 -180 0 0
-25 c0 -20 -5 -25 -25 -25 -20 0 -25 5 -25 24 0 23 -4 25 -72 30 -40 4 -219 5
-398 2 -179 -2 -400 -4 -492 -5 l-168 -1 0 -25 0 -25 -339 0 c-186 0 -353 3
-370 6 -24 5 -31 12 -31 30 0 24 0 24 -125 24 -124 0 -125 0 -125 -23z m19764
-2574 c45 -38 56 -53 56 -78 0 -23 -8 -35 -35 -54 -40 -27 -30 -33 -163 89
l-82 75 52 6 c111 12 112 12 172 -38z m14014 -3735 l-3 -72 -495 -228 -495
-227 -267 0 c-232 -1 -268 1 -268 14 0 12 -13 15 -60 15 l-60 0 0 115 0 115
133 0 132 1 545 169 545 169 148 0 148 1 -3 -72z m-15754 56 c14 -5 16 -33 16
-210 0 -197 -1 -204 -20 -204 -11 0 -20 -4 -20 -10 0 -7 -417 -10 -1232 -10
l-1233 0 220 220 220 220 1017 0 c559 0 1023 -3 1032 -6z m870 -384 l556 -245
0 -105 0 -105 249 -130 249 -130 -104 -3 -103 -3 -692 328 c-466 221 -693 334
-697 346 -2 9 -11 17 -18 17 -11 0 -14 28 -14 141 0 77 4 139 9 137 4 -1 259
-113 565 -248z m9176 -55 l0 -115 -40 0 c-29 0 -40 -4 -40 -15 0 -13 -119 -15
-1012 -14 -557 1 -1052 4 -1099 8 l-86 6 146 122 146 123 993 0 992 0 0 -115z
m3830 0 l0 -115 -50 0 c-38 0 -50 -4 -50 -15 0 -13 -193 -15 -1675 -15 -1482
0 -1675 2 -1675 15 0 11 -11 15 -40 15 l-40 0 0 115 0 115 1765 0 1765 0 0
-115z m-7692 -2422 l-3 -268 -27 -3 c-19 -2 -61 -39 -146 -127 -115 -118 -122
-123 -166 -126 l-45 -4 49 50 50 51 0 347 0 347 145 0 145 0 -2 -267z"/>
</g>
</svg>
