<?xml version="1.0" standalone="no"?>
<!DOCTYPE svg PUBLIC "-//W3C//DTD SVG 20010904//EN"
 "http://www.w3.org/TR/2001/REC-SVG-20010904/DTD/svg10.dtd">
<svg version="1.0" xmlns="http://www.w3.org/2000/svg"
   viewBox="0 0 4550.000000 4212.000000"
 preserveAspectRatio="xMidYMid meet">
<metadata>
Created by potrace 1.16, written by Peter Selinger 2001-2019
</metadata>
<g transform="translate(0.000000,4212.000000) scale(0.100000,-0.100000)"
fill="#000000" stroke="none">
<path d="M27142 41964 l-102 -155 0 -2225 0 -2224 -55 0 -55 0 0 2080 0 2080
-558 0 -557 0 -98 -195 -97 -195 -285 0 -285 0 0 -27 c1 -16 23 -935 49 -2043
26 -1108 48 -2016 47 -2017 -2 -2 -171 -31 -173 -30 0 1 -24 826 -52 1832 -29
1007 -53 1833 -54 1836 -1 3 -299 -78 -662 -181 l-660 -186 -613 -232 -612
-231 -512 -303 -513 -303 -561 -480 -561 -480 1020 -1070 c560 -589 1084
-1139 1164 -1223 l146 -153 -49 -50 -50 -50 -1333 1383 c-734 761 -1337 1383
-1341 1383 -11 0 -794 -756 -797 -769 -2 -6 26 -101 62 -211 l64 -200 -205
-200 -205 -200 693 -685 c381 -376 945 -934 1252 -1238 l559 -554 -38 -79
c-22 -43 -42 -79 -46 -79 -4 0 -510 493 -1125 1095 -615 602 -1119 1093 -1120
1092 -1 -1 -157 -267 -346 -592 l-344 -590 -282 -595 -281 -595 -156 -565
-157 -565 -72 -742 c-70 -729 -71 -743 -51 -743 11 0 655 -27 1430 -60 776
-33 1426 -60 1445 -60 l36 0 -10 -70 -10 -70 -68 0 c-37 0 -800 25 -1694 55
-895 30 -1628 54 -1629 53 -3 -4 -35 -975 -35 -1054 l0 -61 190 -102 c105 -57
190 -107 190 -112 0 -5 -182 -9 -440 -9 l-440 0 -139 -100 c-77 -55 -144 -100
-149 -100 -6 0 -24 16 -41 35 l-30 35 -481 0 c-313 0 -480 3 -480 10 0 6 -19
10 -43 10 -36 0 -46 4 -56 24 -18 33 -52 46 -116 46 -49 0 -55 2 -55 21 0 13
-45 69 -120 147 -65 69 -118 128 -115 130 2 2 17 1 34 -3 24 -5 31 -12 31 -31
0 -22 4 -24 45 -24 l45 0 0 135 0 135 -45 0 c-41 0 -45 -2 -45 -25 0 -16 -6
-25 -15 -25 -8 0 -15 -8 -15 -18 0 -14 -13 -21 -59 -30 -54 -11 -91 -35 -91
-59 0 -6 -6 -16 -14 -22 -12 -10 -10 -18 9 -54 13 -23 44 -62 70 -87 l45 -44
0 -77 c0 -69 -3 -80 -27 -108 -22 -24 -36 -31 -65 -31 -20 0 -40 -4 -43 -10
-4 -6 -100 -10 -256 -10 l-249 0 0 -120 0 -120 209 0 209 0 71 -123 71 -124
177 -45 c195 -49 182 -40 223 -140 l19 -48 151 0 150 0 0 -685 c0 -602 -2
-685 -15 -685 -11 0 -15 11 -15 40 l0 40 -1277 0 -1278 0 -122 -82 c-79 -53
-123 -89 -123 -100 0 -16 -14 -18 -142 -19 l-143 0 -1515 -613 -1515 -612 -3
-232 -2 -232 -450 0 -450 0 0 205 0 205 -940 0 -940 0 0 -205 0 -205 -650 0
-650 0 0 215 0 215 -2240 0 c-1893 0 -2240 -2 -2240 -14 0 -7 7 -33 15 -56 25
-72 28 -70 -101 -70 l-117 0 7 -27 c3 -16 53 -190 110 -388 l104 -360 152
-110 c127 -92 155 -117 166 -146 6 -20 45 -148 84 -285 49 -166 79 -254 91
-264 32 -26 106 -270 145 -478 20 -106 64 -289 98 -405 l62 -212 64 -5 63 -5
112 -270 c111 -269 112 -270 143 -273 l32 -3 0 -315 0 -314 55 0 55 0 0 -65 0
-65 165 0 165 0 0 65 0 65 295 0 295 0 0 -65 0 -65 170 0 170 0 0 65 0 65 268
0 267 0 93 -183 c81 -161 92 -188 92 -234 l0 -53 -485 0 -485 0 0 -476 0 -475
85 -111 85 -110 0 -329 0 -329 413 0 413 0 32 -65 32 -65 900 0 900 0 0 -139
0 -140 460 6 460 6 0 -65 0 -64 148 3 c81 2 162 6 180 9 31 5 32 6 32 53 l0
48 272 6 c149 4 436 7 638 7 l366 0 389 272 388 273 -2 88 -2 87 105 0 106 0
0 -85 0 -85 291 0 291 0 -416 -307 -416 -306 0 -1024 0 -1023 614 0 615 0 3
-32 3 -32 265 -93 264 -93 448 0 448 0 0 -70 0 -70 165 0 165 0 0 70 0 70 155
0 155 0 0 -70 0 -70 165 0 165 0 0 70 0 70 430 0 429 0 76 94 c58 72 75 101
75 125 l0 31 143 0 142 1 341 487 341 487 96 3 97 3 0 -601 0 -600 -30 0 c-58
0 -61 -16 -58 -310 l3 -264 42 -20 c30 -15 42 -27 43 -43 l0 -23 858 0 858 0
58 -119 59 -118 -29 -42 -29 -41 -167 0 -168 0 0 -162 0 -163 705 -665 705
-665 0 -582 0 -583 -100 0 -100 0 0 -170 0 -170 -435 0 -435 0 0 -30 0 -30
-110 0 -110 0 0 -1385 0 -1385 645 0 645 0 0 -1390 0 -1390 1519 0 1519 0 331
-510 331 -509 0 -2321 0 -2320 -195 0 -195 0 0 -100 0 -100 65 0 65 0 0 -100
0 -100 -85 0 -85 0 0 -340 0 -340 445 0 446 0 294 -252 294 -253 1 -187 0
-188 214 0 215 0 3 52 3 51 123 56 122 55 0 43 0 43 985 0 985 0 0 35 0 35
-985 0 -985 0 0 175 c0 96 1 175 3 175 1 0 965 3 2142 7 1177 3 2142 7 2144 9
2 1 0 35 -4 73 l-7 71 -202 0 -201 0 -23 -34 -23 -33 -1242 5 -1242 5 -65 43
-65 44 -336 0 -337 0 -11 -45 -11 -45 -260 0 -260 0 0 90 0 90 -125 0 -125 0
0 25 0 25 -120 0 -120 0 0 101 0 101 41 -36 40 -37 179 174 179 174 1343 7
c739 3 1495 9 1681 12 l337 7 0 22 0 22 -607 6 c-335 4 -778 7 -985 7 -240 0
-378 4 -378 10 0 5 -30 30 -67 55 l-68 45 -530 0 -530 0 178 178 177 177 0
744 c0 644 2 745 15 755 8 6 176 238 374 516 351 492 360 506 361 553 l0 47
63 0 c94 0 709 29 713 33 2 2 -7 264 -21 583 -14 318 -25 605 -25 637 l0 57
69 0 68 0 6 -67 c3 -38 14 -225 23 -418 10 -192 18 -351 19 -352 1 -2 332 33
736 76 l734 79 565 162 565 162 601 293 601 292 582 348 c319 191 581 350 581
354 0 4 -445 450 -990 990 -544 541 -990 986 -990 990 0 4 41 27 90 51 l91 44
1137 -1137 1138 -1138 74 78 c41 43 130 135 197 205 l122 126 208 -64 208 -65
85 89 c47 48 220 230 386 403 l301 314 -1178 1125 -1178 1125 48 49 49 49 55
-49 c30 -27 483 -454 1006 -949 524 -495 956 -901 960 -903 5 -2 222 248 483
555 l473 558 297 505 c162 278 300 514 306 525 5 11 110 288 232 615 l223 595
187 670 186 670 -25 3 c-31 3 -2471 62 -2564 62 l-64 0 15 91 15 90 151 -6
c335 -13 2919 -75 2924 -70 3 3 8 132 10 286 l5 280 193 97 194 97 0 557 0
558 -1610 0 -1610 0 0 40 0 40 50 0 50 0 0 85 0 85 565 0 566 0 142 125 142
125 968 0 967 0 0 -556 0 -556 98 -239 97 -239 88 0 87 0 0 58 c0 43 39 194
165 640 l165 584 0 339 0 339 -668 0 -668 0 -69 -70 -69 -70 -4292 0 -4291 0
-52 60 -52 60 -2005 0 -2004 0 0 95 0 95 -90 0 -90 0 0 560 0 560 740 0 740 0
653 446 652 445 3 45 3 44 270 0 269 0 0 55 0 55 2075 0 2075 0 0 185 0 185
2179 0 2179 0 35 -87 35 -88 236 -3 236 -2 0 -31 0 -30 920 3 920 3 11 -32 11
-33 91 0 c86 0 96 3 157 35 l64 35 1201 0 c660 0 1332 3 1493 7 l292 6 0 27 0
27 -307 6 c-170 4 -941 7 -1715 7 -932 0 -1408 3 -1408 10 0 6 -16 10 -35 10
-32 0 -35 3 -35 28 l0 29 302 6 c166 4 609 7 985 7 l683 0 0 25 0 25 -985 0
c-869 0 -985 2 -985 15 0 13 -54 15 -430 15 l-430 0 0 90 0 90 365 0 365 0 0
255 0 255 120 0 c94 0 120 3 120 14 0 23 95 26 721 26 l599 0 0 30 0 30 -217
1 c-569 2 -1189 16 -1210 27 -12 7 -47 12 -77 12 l-56 0 0 265 0 265 50 0 50
0 0 110 0 110 -40 0 -40 0 0 55 0 55 -53 0 c-49 0 -61 5 -156 70 l-103 70
-235 0 -235 0 -67 -40 -67 -40 -457 0 c-298 0 -457 -3 -457 -10 0 -7 -440 -10
-1300 -10 -1149 0 -1300 2 -1300 15 0 13 -25 15 -165 15 -180 0 -175 -2 -159
58 6 20 12 22 80 22 l74 0 0 33 c0 17 3 56 6 85 l7 52 -389 -2 -389 -3 -3 -30
c-9 -107 -12 -115 -41 -115 -28 0 -29 -2 -36 -65 l-7 -65 -654 0 c-575 0 -654
2 -654 15 0 13 -24 15 -160 15 l-160 0 0 40 0 40 75 0 c85 0 79 -7 89 108 l6
62 -390 0 c-383 0 -390 0 -390 -20 0 -31 -74 -28 -122 5 -37 25 -37 25 -278
25 l-240 0 -12 -25 -11 -25 -1124 0 -1123 0 0 80 0 80 -165 0 -165 0 0 170 0
170 -915 0 -915 0 0 145 0 145 -585 0 -585 0 0 170 0 170 730 0 730 0 0 170 0
170 -730 0 -730 0 0 40 c0 39 1 40 35 40 l35 0 0 53 c0 54 0 54 130 218 l130
164 0 153 0 152 369 0 370 0 145 -100 144 -100 149 0 148 0 30 41 c17 23 272
280 568 572 l537 530 0 338 0 339 880 0 880 0 0 -145 0 -145 135 0 135 0 0
145 0 145 315 0 315 0 0 -145 0 -145 135 0 135 0 0 145 0 145 443 0 444 0 86
-65 86 -65 943 0 943 -1 80 -132 80 -132 776 -3 777 -2 6 22 c3 13 6 35 6 50
0 57 2 58 134 58 l122 0 29 90 c33 105 10 94 240 110 206 15 195 11 195 65 0
43 -1 45 -30 45 l-30 0 0 135 0 135 2178 0 2177 0 100 -129 100 -130 2688 0
2687 -1 214 135 213 135 993 0 993 0 239 -125 c188 -99 247 -125 278 -125 l40
0 0 1143 0 1142 -183 183 -182 182 -1450 0 -1450 0 -225 -150 -225 -150 -4535
0 -4535 0 -115 -115 -115 -115 -447 0 -448 0 0 -155 0 -155 -120 0 -120 0 0
155 0 155 -340 0 -340 0 0 -155 0 -155 -105 0 -105 0 0 155 0 155 -590 0 -590
0 0 -155 0 -155 -220 0 -220 0 0 195 0 195 -221 260 -222 260 -198 0 -199 0 0
110 0 110 140 0 140 0 94 65 94 65 981 0 981 0 0 35 0 35 -868 0 c-478 0
-1025 3 -1215 7 l-347 6 0 129 0 128 1238 0 c681 0 1746 3 2365 7 l1127 6 0
39 0 38 -405 0 -404 0 -65 45 -64 45 -319 -2 -318 -3 -9 -42 -9 -43 -1173 0
c-646 0 -1174 4 -1174 8 0 4 -41 36 -90 70 l-90 62 -305 0 -305 0 0 790 0 789
61 101 60 100 315 0 314 0 0 376 0 377 -140 272 -140 273 0 81 c0 65 -3 81
-15 81 -13 0 -15 117 -15 995 0 955 1 995 18 995 13 0 37 36 85 129 l67 128 0
457 0 456 -243 0 -242 0 -263 263 -262 262 0 2846 0 2846 55 69 55 69 0 350
-1 350 -225 215 c-124 118 -228 216 -232 218 -4 1 -54 -68 -110 -154z m-332
-4994 l0 -50 -70 0 c-38 0 -70 2 -70 5 0 3 15 26 33 50 28 38 37 44 70 45 l37
0 0 -50z m-1660 -229 l0 -48 -53 -6 c-29 -4 -68 -10 -86 -13 l-32 -7 3 49 3
49 65 11 c105 19 100 20 100 -35z m1660 -96 l0 -45 115 0 115 0 0 -735 0 -735
-102 0 c-88 0 -147 -7 -310 -35 l-28 -4 0 799 0 800 105 0 105 0 0 -45z
m-1646 -387 c11 -356 37 -1510 34 -1512 -14 -11 -521 -266 -513 -259 6 5 45
38 88 73 61 50 77 68 74 84 -3 12 -15 119 -28 238 l-23 218 71 102 c39 57 89
130 111 163 l40 60 -15 498 c-8 274 -12 501 -9 504 5 5 116 28 152 32 8 1 14
-59 18 -201z m-2454 -633 l34 -35 -49 -50 -49 -50 -38 37 -38 37 47 48 c26 26
50 48 53 48 3 0 21 -16 40 -35z m818 -862 c342 -359 622 -656 622 -660 0 -5
-70 -78 -155 -163 l-155 -155 -94 95 c-52 52 -298 307 -548 567 l-455 471 -18
157 -18 157 94 94 c52 52 96 93 100 92 3 -2 285 -297 627 -655z m-2161 -649
l-41 -84 -37 36 -38 37 42 83 41 84 37 -36 38 -37 -42 -83z m5673 -384 l0
-490 -117 0 c-95 0 -190 -12 -483 -59 l-365 -59 -335 -171 -334 -171 -279
-277 -278 -278 -173 -340 -174 -340 -59 -375 -59 -375 -413 -3 -414 -2 7 103
c4 57 42 324 85 593 l77 489 232 455 231 455 358 357 358 357 452 231 452 230
493 79 c410 66 514 79 616 80 l122 1 0 -490z m-5316 153 c77 -76 405 -400 729
-720 l588 -581 -88 -176 -88 -175 -106 88 -105 89 -32 192 -32 192 -303 296
c-166 163 -411 404 -545 537 l-244 241 38 77 c21 42 41 77 43 77 3 0 68 -62
145 -137z m5314 -2525 l-3 -1353 -567 -3 -568 -2 0 250 0 250 -480 0 -480 0
-1 23 c0 12 -6 78 -13 147 l-13 125 47 295 47 295 133 265 132 265 212 213
211 213 270 137 270 137 285 46 c214 35 314 47 403 48 l117 1 -2 -1352z
m-6651 -12 c1 -1 -3 -32 -9 -69 l-11 -66 -46 6 c-25 3 -47 7 -49 8 -2 2 2 33
9 70 l11 67 47 -7 c25 -4 47 -8 48 -9z m1288 -47 c561 -23 1024 -45 1028 -49
5 -5 -1 -67 -12 -139 -12 -72 -21 -170 -21 -217 l0 -85 -152 6 c-84 4 -392 15
-685 24 l-531 18 -215 171 -215 172 -105 0 c-57 0 -119 3 -136 6 -28 6 -31 10
-27 33 2 14 7 43 11 64 4 26 11 37 23 37 9 1 476 -18 1037 -41z m9985 -6579
l0 -110 -74 0 -74 0 -12 -37 c-19 -58 -28 -60 -42 -10 l-12 47 -148 2 -149 3
142 108 142 107 113 0 114 0 0 -110z m-35 -350 c10 -11 16 -20 13 -20 -3 0
-13 9 -23 20 -10 11 -16 20 -13 20 3 0 13 -9 23 -20z m-9327 -3318 c-1 -4 -23
-40 -48 -80 l-45 -72 -297 0 -297 0 -31 44 c-20 29 -30 57 -30 80 l0 36 376 0
c207 0 374 -4 372 -8z m1972 -455 l0 -64 1550 5 c1155 4 1550 2 1550 -7 0 -6
-17 -11 -42 -11 -40 0 -41 0 -23 -20 16 -18 31 -20 134 -20 l116 0 60 -76 c51
-65 61 -84 65 -127 5 -48 7 -52 38 -61 28 -8 32 -13 28 -35 -3 -14 -10 -78
-16 -141 -6 -63 -13 -132 -16 -152 l-6 -38 -220 0 -220 0 -45 -40 -46 -40
-208 0 -209 0 -16 -25 -16 -25 -728 0 -728 0 -6 25 -6 25 -304 0 -303 0 -588
408 -588 407 104 3 104 3 23 34 22 35 270 0 270 0 0 -63z m3426 -139 c-3 -13
-6 -32 -6 -43 0 -17 -5 -14 -30 15 -16 19 -30 38 -30 43 0 4 16 7 36 7 33 0
36 -2 30 -22z m2335 -193 c7 -19 19 -35 26 -35 7 0 13 -6 13 -12 0 -23 -31
-322 -36 -345 l-4 -23 -768 0 -769 0 -23 25 c-18 20 -33 25 -70 25 l-46 0 13
148 c7 81 15 171 18 200 l6 52 814 0 814 0 12 -35z m3469 0 l0 -35 48 0 c37 0
99 -21 287 -98 l240 -99 3 -76 3 -77 -210 0 c-129 0 -212 4 -216 10 -4 6 -97
10 -245 10 l-240 0 -47 -65 -48 -64 -812 -1 -812 0 -22 40 -23 40 -296 0 -297
0 -23 25 c-18 19 -34 25 -67 25 -42 0 -43 1 -43 33 0 17 7 97 15 177 8 80 15
155 15 168 l0 22 1395 0 1395 0 0 -35z m-6600 -5178 c0 -148 -5 -194 -50 -474
l-49 -310 -132 -259 -132 -259 -216 -218 -216 -218 -265 -135 -264 -136 -281
-45 c-310 -49 -309 -49 -482 -32 l-123 12 0 488 0 489 -500 0 -500 0 0 345 0
345 45 0 c44 0 51 5 155 98 103 91 110 99 110 135 l0 37 519 0 520 0 207 150
208 150 723 0 723 0 0 -163z m900 74 c0 -63 -24 -238 -80 -593 l-80 -503 -226
-445 -226 -445 -369 -370 -369 -370 -448 -227 -448 -227 -255 -40 c-140 -23
-269 -43 -286 -46 l-33 -6 0 283 0 283 373 59 372 58 345 175 345 175 273 271
273 272 175 344 174 344 60 375 c57 353 60 385 60 548 l0 174 185 0 185 0 0
-89z m3280 4 l0 -85 51 0 c48 0 51 -1 45 -22 -3 -13 -6 -29 -6 -35 0 -10 -51
-13 -220 -13 l-220 0 -223 -166 -222 -165 -812 3 c-446 2 -815 6 -819 10 -4 4
7 97 25 207 17 110 31 234 31 275 l0 76 1185 0 1185 0 0 -85z m430 -125 l0
-40 -50 0 -50 0 0 40 0 40 50 0 50 0 0 -40z m-1863 -1794 c689 -18 1255 -35
1258 -37 6 -6 -20 -157 -28 -166 -4 -3 -460 5 -1014 19 l-1008 25 -80 -54
c-44 -30 -118 -80 -165 -113 l-85 -58 -237 26 -236 26 91 183 92 183 80 0 c44
-1 644 -16 1332 -34z m1588 -48 c3 -7 -1 -47 -8 -88 l-13 -75 -48 -3 c-46 -3
-48 -2 -43 20 3 13 9 46 12 73 11 83 12 85 56 85 23 0 42 -5 44 -12z m-2826
-1803 l890 -840 -49 -49 -48 -49 -152 144 c-83 79 -161 146 -173 148 -12 2
-135 18 -273 35 l-250 31 -581 555 -582 555 157 158 c86 86 160 156 164 155 4
-2 408 -381 897 -843z m-1599 -1091 c481 -482 871 -878 865 -880 -5 -3 -46
-24 -90 -48 l-80 -44 -660 659 -660 658 -192 30 c-191 29 -193 30 -221 63
-151 172 -271 322 -265 328 4 4 76 18 158 30 114 17 163 29 205 51 30 15 57
28 60 29 3 0 399 -394 880 -876z m2675 -24 l-49 -50 -35 35 -35 35 49 50 49
50 35 -35 35 -35 -49 -50z m-1568 -1102 c-6 -5 -47 -27 -91 -49 l-79 -41 -39
39 -39 38 93 46 93 47 37 -36 c28 -26 34 -38 25 -44z"/>
</g>
</svg>
