<?xml version="1.0" standalone="no"?>
<!DOCTYPE svg PUBLIC "-//W3C//DTD SVG 20010904//EN"
 "http://www.w3.org/TR/2001/REC-SVG-20010904/DTD/svg10.dtd">
<svg version="1.0" xmlns="http://www.w3.org/2000/svg"
   viewBox="0 0 3939.000000 833.000000"
 preserveAspectRatio="xMidYMid meet">
<metadata>
Created by potrace 1.16, written by Peter Selinger 2001-2019
</metadata>
<g transform="translate(0.000000,833.000000) scale(0.100000,-0.100000)"
fill="#000000" stroke="none">
<path d="M8783 8235 l-68 -95 -325 0 c-208 0 -840 -20 -1755 -55 -786 -30
-1572 -59 -1745 -65 l-315 -11 -380 70 c-209 38 -383 66 -387 63 -4 -4 -9 -30
-12 -58 -7 -59 -8 -59 119 -98 58 -18 72 -25 50 -26 -16 0 -596 12 -1288 27
l-1257 27 -38 -35 c-73 -68 -70 -67 -202 -79 -100 -9 -771 -122 -1017 -171
l-53 -10 0 -57 c-1 -31 -25 -372 -54 -757 -30 -385 -53 -701 -52 -702 3 -3
249 -68 1195 -314 442 -115 805 -210 807 -212 2 -1 118 -497 259 -1102 140
-604 257 -1100 259 -1102 1 -2 371 -31 820 -65 l817 -62 162 22 c152 21 197
22 750 22 520 0 592 -2 619 -16 28 -15 32 -15 40 0 13 23 28 20 63 -13 29 -29
88 -43 1287 -318 691 -158 1256 -289 1254 -290 -1 -2 -279 2 -616 7 -337 6
-615 8 -618 5 -3 -3 2 -13 11 -23 16 -15 52 -18 310 -23 161 -4 315 -8 342 -9
28 -2 -107 -15 -298 -30 -191 -15 -351 -30 -354 -34 -4 -4 0 -13 9 -22 13 -14
66 -12 519 20 277 19 573 35 657 35 165 0 192 4 192 28 0 11 6 14 23 9 12 -3
166 -38 341 -78 265 -61 315 -75 293 -82 -17 -7 -27 -17 -27 -30 0 -20 -123
-38 -3193 -469 -1755 -247 -3227 -453 -3269 -459 -70 -10 -78 -13 -78 -33 0
-20 -8 -23 -97 -34 -54 -7 -108 -15 -121 -18 -17 -4 -22 -1 -22 16 0 24 -1 25
-51 9 -42 -12 -46 -23 -33 -87 6 -30 9 -31 54 -31 42 0 47 2 43 18 -4 17 6 20
84 31 48 6 103 14 121 17 28 6 32 4 32 -16 0 -20 4 -21 38 -16 134 22 6448
906 6467 906 18 0 25 -6 25 -19 0 -17 -16 -19 -194 -31 -107 -7 -201 -17 -208
-21 -10 -7 -10 -11 3 -24 13 -14 33 -14 160 -5 79 5 165 12 191 14 l47 5 3
-67 3 -66 440 -157 c242 -87 452 -158 467 -158 15 -1 161 19 325 44 334 50
751 84 1091 90 131 2 208 8 217 15 28 23 177 -24 337 -108 l148 -77 0 -67 0
-68 127 0 126 0 1196 -631 c658 -348 1338 -710 1511 -805 l315 -172 180 -24
180 -24 1480 17 1480 17 1300 56 1300 56 1645 125 c1220 93 1839 144 2397 200
496 49 794 75 877 75 l126 0 0 -31 c0 -30 2 -31 33 -25 17 3 68 8 112 12 96 8
111 15 120 53 3 16 12 34 18 39 7 5 51 13 98 17 l87 7 -5 41 c-2 23 -6 49 -7
58 -3 13 42 20 331 46 252 22 337 33 344 44 12 20 11 66 -2 75 -6 3 -164 19
-351 34 -186 15 -341 30 -342 32 -2 1 -6 30 -10 64 l-7 60 353 13 c193 7 356
15 360 17 16 10 8 40 -19 72 l-28 33 -340 61 c-187 33 -343 64 -348 68 -4 3
-19 100 -32 215 -14 115 -26 209 -28 210 -1 1 -337 62 -747 134 -410 73 -1476
269 -2370 437 l-1625 304 -1297 325 -1297 325 -1608 294 -1608 293 -730 27
c-401 15 -756 30 -788 34 l-57 7 45 68 c25 37 47 67 50 67 2 0 142 18 311 40
291 38 321 40 569 40 l263 0 18 -66 19 -66 85 6 c47 3 142 9 213 12 l127 7 0
53 0 54 1034 0 1034 0 236 -110 236 -110 176 0 176 0 635 105 636 105 1031 0
1031 0 10 -22 10 -23 477 -3 478 -2 6 25 c3 13 15 27 25 30 17 6 19 17 19 97
l0 90 68 -6 c37 -4 734 -51 1549 -107 l1483 -100 1157 41 c636 22 1158 42
1160 43 1 2 5 21 9 44 6 41 6 42 -27 47 -19 3 -539 39 -1156 81 l-1122 75
-203 92 c-112 50 -206 94 -210 97 -4 4 -3 12 1 20 8 12 364 -6 2318 -117
l2308 -131 1445 -6 1445 -5 2185 -125 c1202 -68 2219 -127 2262 -130 l76 -6 6
73 c23 282 27 335 32 350 5 17 45 18 187 4 25 -3 37 0 37 9 0 9 -30 15 -111
20 l-110 7 6 37 c7 42 24 226 25 259 0 39 16 24 34 -33 9 -30 21 -57 25 -60 5
-2 40 28 78 68 l69 73 399 33 c220 18 403 35 408 38 4 2 7 39 7 81 l0 77 -397
59 -397 59 -94 44 -94 44 6 67 c4 37 9 79 12 94 5 24 2 27 -28 33 -18 3 -1687
208 -3709 455 l-3675 450 -2262 239 c-1636 174 -2266 244 -2276 254 -7 7 -51
19 -96 26 -45 7 -90 17 -99 22 -9 5 -632 74 -1386 153 -1337 141 -1589 162
-1620 136 -16 -13 -379 25 -420 45 -16 7 -59 19 -95 25 -36 6 -74 15 -85 20
-31 14 -2767 297 -2889 299 -59 1 -113 -2 -120 -8 -18 -15 -332 23 -355 43
-10 9 -51 23 -92 30 -41 7 -94 19 -119 25 -68 17 -2738 268 -2872 270 -116 1
-116 1 -136 -26 l-20 -27 -748 48 c-412 26 -858 53 -991 60 -231 11 -244 13
-275 36 -33 24 -34 24 -983 78 -888 50 -951 55 -967 73 -16 19 -51 19 -1636
19 l-1621 0 -68 -95z m13207 -3790 l315 -22 -362 -2 c-215 0 -363 3 -363 8 0
5 3 16 6 25 8 20 12 20 404 -9z m1478 -100 c8 -3 12 -33 12 -105 l0 -100 -287
2 c-251 2 -262 3 -85 5 l202 3 0 103 0 103 73 -4 c39 -2 78 -5 85 -7z m-13648
-1929 l95 -24 -71 -1 c-94 -1 -131 7 -137 30 -6 24 -3 24 113 -5z m700 -160
c297 -68 397 -95 375 -99 -16 -4 -218 -29 -447 -58 l-418 -51 -132 47 c-73 26
-137 51 -142 56 -8 7 -38 160 -32 166 1 2 18 2 221 4 89 0 124 4 135 15 8 8
19 14 25 14 5 0 192 -42 415 -94z"/>
</g>
</svg>
