<?xml version="1.0" standalone="no"?>
<!DOCTYPE svg PUBLIC "-//W3C//DTD SVG 20010904//EN"
 "http://www.w3.org/TR/2001/REC-SVG-20010904/DTD/svg10.dtd">
<svg version="1.0" xmlns="http://www.w3.org/2000/svg"
   viewBox="0 0 3696.000000 3980.000000"
 preserveAspectRatio="xMidYMid meet">
<metadata>
Created by potrace 1.16, written by Peter Selinger 2001-2019
</metadata>
<g transform="translate(0.000000,3980.000000) scale(0.100000,-0.100000)"
fill="#000000" stroke="none">
<path d="M15703 39700 l-141 -100 -234 -585 -233 -585 -150 -100 -151 -100
-1297 0 -1297 0 -137 -100 -138 -99 -1240 -3436 -1239 -3435 -421 0 -421 0
-634 -60 -635 -59 -537 -143 -538 -143 0 -211 0 -210 -107 -47 c-88 -37 -129
-48 -223 -61 -63 -8 -569 -98 -1123 -200 l-1008 -186 -867 -215 -867 -215
-855 -274 -855 -273 -177 -314 -177 -314 0 -437 -1 -438 923 0 922 0 275 -100
275 -100 655 -31 c360 -17 665 -33 677 -35 l23 -4 2 -1258 3 -1257 1060 -257
c583 -142 1391 -339 1795 -437 467 -114 835 -198 1010 -231 151 -28 435 -89
631 -135 l356 -85 190 0 189 0 345 -407 c189 -224 397 -469 462 -545 l118
-138 898 0 898 0 255 -164 255 -163 1444 -203 1444 -202 1126 -234 1126 -234
1121 -314 1120 -315 822 -473 822 -473 602 -633 c530 -557 601 -635 598 -660
-2 -15 -89 -587 -192 -1272 l-189 -1245 -226 -815 -225 -815 -301 -825 -300
-825 -365 -162 -364 -163 -1947 0 -1948 0 -352 -102 c-200 -58 -353 -107 -353
-114 0 -6 45 -195 101 -420 106 -433 181 -838 199 -1079 5 -66 12 -143 16
-171 l6 -52 165 -78 165 -78 -4 -116 -4 -117 -101 -139 c-55 -76 -137 -196
-181 -266 l-82 -128 -145 -477 -146 -478 -55 -464 c-30 -256 -54 -483 -54
-505 0 -22 27 -247 60 -500 l60 -461 212 -485 212 -485 278 -360 278 -360 422
-348 423 -349 873 -374 873 -374 303 -205 303 -205 42 -163 42 -162 -15 -209
-14 -208 -262 -729 -262 -729 97 -104 97 -104 492 -222 c270 -123 498 -224
506 -226 31 -8 1411 1716 2534 3165 l1064 1373 990 1517 989 1516 876 1655
875 1655 510 1495 510 1495 325 1480 325 1480 313 2253 c286 2049 316 2255
334 2264 13 7 1134 25 3375 54 1845 23 3356 43 3358 43 1 1 2 42 2 91 0 66 -3
90 -13 90 -21 0 -519 39 -563 44 l-40 5 -35 -67 -34 -68 -2862 56 c-1575 31
-2865 59 -2867 61 -1 2 37 80 85 173 49 93 88 170 87 171 -2 1 -34 19 -72 40
-55 31 -70 35 -77 24 -5 -8 -43 -81 -85 -163 l-76 -149 -91 91 -90 90 -10 291
c-5 160 -8 293 -5 296 2 2 134 -16 293 -40 158 -25 291 -45 295 -45 4 0 74 55
156 121 l149 122 242 396 c134 218 251 401 260 407 10 7 169 33 353 59 184 26
343 53 353 59 10 6 51 63 91 126 l73 115 69 3 69 3 468 724 468 724 87 72 c48
40 88 73 90 74 1 1 88 285 193 631 l192 629 -6 418 -7 417 89 0 89 0 6 63 c3
34 6 107 7 162 l1 100 -60 145 -60 145 -153 82 c-85 45 -1191 642 -2459 1327
l-2305 1246 -258 543 c-142 298 -341 734 -443 970 -167 385 -192 437 -257 528
l-72 101 -127 64 -128 64 -1122 1 -1123 0 -328 427 -329 427 -1727 1675 -1727
1675 -1835 1199 -1834 1200 -190 58 -190 58 -860 0 -860 -1 -142 -99z"/>
</g>
</svg>
