<?xml version="1.0" standalone="no"?>
<!DOCTYPE svg PUBLIC "-//W3C//DTD SVG 20010904//EN"
 "http://www.w3.org/TR/2001/REC-SVG-20010904/DTD/svg10.dtd">
<svg version="1.0" xmlns="http://www.w3.org/2000/svg"
   viewBox="0 0 3959.000000 1790.000000"
 preserveAspectRatio="xMidYMid meet">
<metadata>
Created by potrace 1.16, written by Peter Selinger 2001-2019
</metadata>
<g transform="translate(0.000000,1790.000000) scale(0.100000,-0.100000)"
fill="#000000" stroke="none">
<path d="M10303 17880 c-49 -17 -169 -22 -1444 -56 l-1391 -37 -112 26 -111
26 -1668 -44 -1668 -45 -107 43 -107 43 -635 -57 c-349 -32 -652 -58 -674 -58
l-38 -1 3 -194 c2 -107 6 -197 9 -200 3 -3 309 -16 679 -29 l674 -25 99 45
c55 25 102 42 105 39 8 -8 87 -1076 80 -1083 -4 -3 -193 -20 -422 -38 -228
-17 -418 -35 -422 -39 -4 -4 -15 -28 -25 -54 -15 -38 -18 -78 -18 -218 l0
-171 -64 -11 c-35 -7 -68 -12 -75 -12 -8 0 -11 45 -11 150 0 136 -2 150 -17
150 -10 -1 -670 -63 -1468 -138 l-1450 -138 -12 -149 c-6 -83 -12 -323 -12
-533 l-1 -384 58 6 c31 3 131 10 222 16 91 6 182 12 202 15 l38 5 0 -143 0
-144 -188 -13 c-103 -7 -214 -15 -247 -19 l-60 -6 -12 -115 c-8 -80 -12 -426
-12 -1139 l-1 -1023 68 6 c37 3 154 8 259 12 l193 6 0 -129 0 -130 -107 -22
c-60 -12 -116 -25 -125 -27 -17 -5 -18 -77 -18 -1334 l0 -1330 23 -5 c12 -3
402 -86 867 -185 l845 -180 35 -38 c19 -21 55 -60 79 -86 l44 -49 440 -103
441 -103 338 -14 c186 -8 340 -16 342 -18 36 -40 433 -593 443 -616 l13 -33
-430 0 -430 0 0 -104 c0 -110 12 -294 31 -468 l12 -108 531 -1 c472 -1 525 -3
476 -15 -30 -8 -84 -19 -120 -24 -35 -6 -238 -52 -450 -101 -340 -79 -436 -97
-823 -154 -241 -36 -442 -65 -448 -65 -5 0 -9 -345 -9 -915 0 -503 2 -915 4
-915 3 0 205 -29 449 -65 400 -59 484 -75 829 -156 l383 -90 890 -34 890 -33
925 35 c509 20 945 36 970 37 l44 1 504 -640 c631 -803 1492 -1923 1492 -1942
0 -4 -47 -37 -105 -73 l-104 -65 -1 -100 c0 -84 12 -158 74 -473 40 -205 75
-375 77 -376 2 -2 679 -204 1504 -449 l1500 -445 1193 -5 1192 -5 -1 906 c-1
499 -4 945 -7 991 l-7 85 -91 53 -92 54 -6 162 c-3 89 -28 1307 -56 2707 -27
1400 -52 2574 -54 2609 -7 77 -26 101 -108 127 l-58 18 0 117 0 118 33 5 c17
3 46 7 62 8 l30 3 5 414 5 414 80 27 80 27 3 331 2 332 764 0 765 0 93 25 93
25 826 0 c707 0 833 -2 875 -15 41 -13 73 -13 194 -5 80 6 166 12 193 15 l47
6 0 -248 0 -248 603 -54 602 -53 129 56 130 56 1775 0 1776 0 150 40 150 40
900 -1 900 0 646 -572 c356 -315 643 -573 639 -575 -5 -2 -539 18 -1187 43
l-1179 47 -152 -63 -152 -63 0 -161 0 -161 152 -63 153 -63 1399 56 1399 55
155 -137 c85 -75 165 -146 179 -157 24 -20 17 -20 -747 9 l-772 30 -496 -18
c-274 -9 -512 -19 -530 -22 -22 -3 -37 -13 -44 -28 -9 -20 -20 -25 -74 -31
l-64 -7 0 -133 0 -133 62 -4 c34 -3 63 -9 65 -15 15 -44 1 -42 558 -65 l530
-21 920 37 c506 20 939 36 962 36 40 0 51 -8 237 -172 l196 -173 0 -62 0 -62
43 -5 c23 -3 368 -28 767 -56 l725 -50 665 0 665 0 580 60 c523 53 630 67
1090 144 500 84 519 88 995 211 363 94 597 162 931 269 l445 144 390 182 c786
368 1460 770 1809 1081 197 175 433 453 545 640 68 113 70 120 70 183 l0 65
-47 3 -47 3 -16 75 c-8 41 -19 80 -23 86 -3 6 -31 14 -62 16 -30 3 -58 7 -61
11 -3 3 50 108 118 234 l124 228 440 8 c472 8 530 11 556 31 16 12 14 25 -29
187 -63 241 -104 320 -290 556 -84 107 -160 194 -182 207 -20 12 -236 127
-479 255 -393 205 -503 258 -965 457 l-522 226 -1565 555 c-861 305 -2001 703
-2535 884 -940 318 -1001 337 -1955 614 l-985 285 -2195 404 -2195 405 -2300
370 -2300 371 -1765 219 -1765 220 -1070 80 -1070 81 -1780 64 -1780 63 -2164
-19 c-1190 -10 -2165 -18 -2167 -16 -5 5 -254 921 -251 924 1 1 49 16 107 33
l105 31 1388 37 c1299 34 1392 36 1455 21 65 -16 79 -15 417 18 193 18 370 36
394 40 l44 6 -7 106 c-3 58 -8 108 -11 110 -4 5 -708 41 -775 41 -14 0 -49 -9
-77 -19z m6794 -5155 c246 -218 300 -270 281 -272 -12 -2 -269 16 -569 40
l-547 42 91 110 c73 89 121 134 246 232 87 68 164 121 174 120 10 -1 156 -123
324 -272z m-942 -544 l140 -19 -174 -1 c-173 -1 -174 -1 -156 19 21 24 14 24
190 1z m1930 -862 c498 -17 623 -24 635 -35 12 -12 -230 -14 -1724 -14 l-1738
0 14 23 c8 12 18 28 22 35 6 9 234 12 1089 12 900 0 1186 -3 1702 -21z m2559
-936 c-41 -159 -104 -406 -142 -550 l-67 -263 -35 0 c-20 1 -93 26 -168 58
l-134 58 -411 -37 c-227 -21 -431 -40 -454 -42 l-43 -5 0 84 c0 79 -1 84 -22
88 -13 3 -163 15 -335 27 -294 21 -315 21 -371 5 -52 -14 -147 -16 -873 -16
l-814 0 -90 25 -90 25 -772 0 -773 0 -2 332 -3 332 -134 47 c-73 27 -136 50
-138 53 -3 2 5 18 18 35 l23 31 2952 0 2952 0 -74 -287z m4446 -418 l531 -470
-701 -3 -702 -2 -145 40 c-80 21 -148 41 -150 44 -3 2 131 203 297 446 277
405 304 440 320 428 10 -7 258 -224 550 -483z"/>
</g>
</svg>
