<?xml version="1.0" standalone="no"?>
<!DOCTYPE svg PUBLIC "-//W3C//DTD SVG 20010904//EN"
 "http://www.w3.org/TR/2001/REC-SVG-20010904/DTD/svg10.dtd">
<svg version="1.0" xmlns="http://www.w3.org/2000/svg"
   viewBox="0 0 3814.000000 1192.000000"
 preserveAspectRatio="xMidYMid meet">
<metadata>
Created by potrace 1.16, written by Peter Selinger 2001-2019
</metadata>
<g transform="translate(0.000000,1192.000000) scale(0.100000,-0.100000)"
fill="#000000" stroke="none">
<path d="M8050 11879 l-65 -39 -221 2 -221 2 -69 -63 -69 -63 -375 6 -375 7
-1505 -856 c-828 -471 -1510 -862 -1517 -868 -6 -7 -73 -230 -148 -497 -75
-267 -143 -489 -150 -495 -7 -5 -295 -89 -641 -185 l-629 -174 -84 -93 c-46
-51 -91 -93 -100 -93 -9 0 -293 -38 -631 -84 l-615 -84 -71 -76 -71 -76 -159
-21 -159 -20 -85 -59 -85 -58 -3 -950 -2 -950 92 -58 93 -57 1013 -107 c556
-58 1016 -110 1020 -116 5 -5 41 -98 81 -206 l73 -197 71 -3 72 -3 37 -370
c21 -203 39 -374 42 -380 2 -6 48 -28 102 -50 55 -21 102 -42 105 -47 3 -5 41
-166 85 -359 l79 -350 122 -105 123 -104 761 0 760 0 50 -105 51 -105 389 0
389 0 0 -36 c0 -30 18 -62 100 -179 70 -100 109 -146 128 -153 15 -5 584 -206
1264 -446 l1237 -436 1974 0 c1571 0 1976 -3 1979 -12 3 -7 79 -282 169 -610
l164 -598 1358 0 1357 0 0 -183 0 -183 -247 -33 c-136 -18 -250 -34 -252 -37
-14 -13 48 -438 66 -455 5 -3 359 40 788 97 429 57 782 103 784 104 15 1 -23
332 -48 427 l-11 39 -207 -28 c-115 -15 -218 -28 -230 -28 -23 0 -23 1 -23
140 l0 140 298 0 297 0 184 583 c102 320 198 624 214 674 l29 93 900 2 901 3
44 107 45 106 56 -18 c32 -11 200 -64 374 -120 l318 -100 323 -36 324 -36 302
56 302 57 517 252 c458 224 547 272 778 415 l261 162 814 -2 c448 -1 781 -4
742 -5 l-73 -4 0 -100 0 -101 70 -31 70 -31 0 -256 0 -256 148 -127 147 -126
1944 -1 1944 0 133 126 134 126 0 394 0 394 188 -2 c103 -1 154 -4 115 -5
l-73 -4 0 -100 0 -101 70 -31 70 -31 0 -256 0 -256 148 -127 147 -126 1945 0
1945 0 132 125 133 126 0 394 0 394 188 -2 c103 -1 154 -4 115 -5 l-73 -4 0
-100 0 -101 70 -31 70 -31 0 -256 0 -256 148 -127 147 -126 1944 -1 1944 0
133 126 134 126 0 1280 0 1280 -82 119 -83 119 -322 0 -323 0 0 80 0 80 -170
0 -170 0 0 -80 0 -80 -125 0 -125 0 0 80 0 80 -170 0 -170 0 0 -80 0 -80 -125
0 -125 0 0 80 0 80 -170 0 -170 0 0 -80 0 -80 -883 0 c-486 0 -924 -3 -973 -7
l-89 -6 -87 -113 c-62 -79 -88 -121 -88 -141 -1 -24 -12 -36 -75 -78 l-75 -50
0 -87 0 -88 -110 0 -110 0 0 166 0 166 -82 119 -83 119 -322 0 -323 0 0 80 0
80 -170 0 -170 0 0 -80 0 -80 -125 0 -125 0 0 80 0 80 -170 0 -170 0 0 -80 0
-80 -125 0 -125 0 0 80 0 80 -170 0 -170 0 0 -80 0 -80 -883 0 c-486 0 -924
-3 -973 -6 l-89 -7 -87 -114 c-60 -78 -88 -122 -88 -141 -1 -22 -13 -35 -75
-77 l-75 -50 0 -87 0 -88 -110 0 -110 0 0 166 0 166 -82 119 -83 119 -322 0
-323 0 0 80 0 80 -170 0 -170 0 0 -80 0 -80 -125 0 -125 0 0 80 0 80 -170 0
-170 0 0 -80 0 -80 -125 0 -125 0 0 80 0 80 -170 0 -170 0 0 -80 0 -80 -883 0
c-486 0 -924 -3 -973 -6 l-89 -7 -87 -114 c-60 -78 -88 -122 -88 -141 -1 -22
-13 -35 -75 -77 l-75 -50 0 -87 0 -88 -700 0 -700 0 0 23 c0 12 -28 86 -62
164 l-63 143 -1005 0 -1005 -1 -63 -142 c-34 -78 -62 -152 -62 -164 l0 -23
-655 0 -656 0 -444 321 c-245 176 -443 325 -440 330 4 5 15 9 26 9 18 0 19 9
19 272 l0 272 119 375 c65 207 122 386 126 399 l6 22 2182 0 2182 0 95 -95 95
-95 205 0 206 0 63 -70 62 -70 267 0 267 0 55 68 c50 62 80 127 345 740 172
399 296 674 305 676 8 3 41 10 73 16 l57 11 0 364 0 364 -191 170 c-104 94
-194 171 -199 171 -4 0 -1650 187 -3657 415 l-3648 415 -1429 430 -1429 430
-128 0 -129 0 0 140 0 140 -60 0 c-53 0 -60 2 -60 20 0 11 6 20 14 20 8 0 134
-25 281 -55 146 -30 274 -55 284 -55 11 0 24 14 34 38 33 76 77 290 77 374 0
41 -3 48 -22 53 -19 4 -1571 325 -1574 325 -7 0 -39 -98 -59 -180 -24 -96 -45
-290 -33 -290 6 0 190 -37 226 -45 21 -5 22 -10 22 -110 l0 -105 -347 0 c-192
0 -446 3 -565 7 l-218 6 0 55 0 55 -829 -6 -829 -6 -6 37 c-3 20 -6 52 -6 69
0 39 19 33 -245 73 -200 31 -331 62 -351 83 -6 7 -28 70 -49 140 l-39 129
-137 116 -138 117 0 46 -1 46 -347 33 -348 34 -77 58 c-42 32 -89 63 -103 68
-15 6 -104 10 -198 9 l-172 -1 -65 -39z m5553 -1019 l57 -11 0 -45 0 -44 -60
0 -60 0 0 -100 c0 -55 -2 -100 -5 -100 -3 0 -24 9 -45 20 -39 20 -40 22 -40
73 0 91 -4 97 -66 97 l-54 0 0 84 0 84 108 -23 c59 -12 133 -28 165 -35z
m-9813 -5605 l355 -25 732 -228 733 -227 0 -327 0 -328 -319 0 -319 0 -76 -95
-77 -95 -667 0 -667 0 -66 60 c-49 43 -68 68 -72 92 -3 18 -30 151 -60 296
l-55 263 107 84 106 85 -22 212 c-27 265 -27 258 -5 258 9 0 177 -11 372 -25z
m17244 -2576 l-220 -109 -272 -50 -271 -50 -288 34 -289 34 -351 113 c-260 83
-350 116 -346 126 4 11 197 13 1132 12 l1126 -1 -221 -109z m-5234 -1932 l0
-153 -132 -17 c-73 -10 -139 -17 -145 -17 -10 0 -13 41 -13 170 l0 170 145 0
145 0 0 -153z"/>
</g>
</svg>
