<?xml version="1.0" standalone="no"?>
<!DOCTYPE svg PUBLIC "-//W3C//DTD SVG 20010904//EN"
 "http://www.w3.org/TR/2001/REC-SVG-20010904/DTD/svg10.dtd">
<svg version="1.0" xmlns="http://www.w3.org/2000/svg"
   viewBox="0 0 4615.000000 3893.000000"
 preserveAspectRatio="xMidYMid meet">
<metadata>
Created by potrace 1.16, written by Peter Selinger 2001-2019
</metadata>
<g transform="translate(0.000000,3893.000000) scale(0.100000,-0.100000)"
fill="#000000" stroke="none">
<path d="M23190 38919 c-167 -6 -425 -33 -1385 -144 -649 -76 -1181 -138
-1182 -139 -1 -1 7 -91 18 -200 11 -110 18 -200 17 -201 -2 -1 -651 -84 -1443
-184 -913 -115 -1890 -246 -2669 -357 l-1229 -175 -206 210 c-114 116 -214
211 -223 211 -10 0 -532 -101 -1160 -225 l-1143 -226 -910 -245 -909 -246
-1053 -363 c-872 -302 -1124 -393 -1475 -536 -400 -162 -458 -189 -1068 -496
-355 -179 -837 -431 -1073 -561 l-427 -237 0 -190 0 -190 -2265 -1195 -2264
-1195 -1 -325 0 -325 -509 -197 c-279 -109 -523 -204 -542 -212 -34 -14 -34
-15 -63 -149 l-29 -135 61 -97 c33 -53 170 -230 304 -393 134 -163 251 -306
260 -317 14 -18 23 -102 53 -486 l37 -465 -36 -460 c-35 -443 -36 -479 -36
-955 0 -418 4 -551 25 -864 22 -327 28 -385 55 -495 17 -69 44 -233 60 -364
16 -132 33 -243 37 -246 5 -4 622 -193 1373 -420 751 -227 1393 -421 1427
-432 l62 -19 3 -107 c3 -98 5 -107 23 -110 25 -5 45 -30 45 -58 0 -12 36 -147
79 -300 124 -438 404 -1550 626 -2482 112 -470 205 -855 207 -857 2 -2 708
-122 1570 -267 l1567 -263 27 -57 28 -58 300 0 301 0 290 -117 290 -117 220
-159 c209 -150 227 -166 366 -318 l146 -159 107 -261 c92 -227 108 -274 121
-363 8 -55 20 -120 26 -143 l12 -43 1233 0 c1090 0 1234 -2 1234 -15 0 -13 24
-15 160 -15 l160 0 0 55 0 55 285 0 285 0 0 -55 0 -55 1100 0 1100 0 0 25 0
25 688 0 c378 0 839 -3 1025 -7 l337 -6 0 -94 0 -93 425 0 425 0 0 100 0 100
385 0 385 0 28 -29 c15 -16 191 -143 392 -283 l365 -254 395 -162 395 -162
595 -166 c562 -156 632 -173 1260 -305 l665 -140 627 -79 c509 -64 826 -97
1695 -175 587 -52 1078 -98 1091 -101 l22 -4 -2 -668 -3 -667 -669 -80 -669
-80 -161 -149 c-89 -82 -171 -153 -181 -157 -11 -5 -461 -106 -1000 -225
l-980 -218 -111 -97 -111 -97 -6 -93 c-4 -51 -7 -188 -7 -306 0 -117 -3 -213
-7 -213 -5 0 -172 -14 -373 -30 -200 -17 -368 -30 -372 -30 -5 0 -8 -36 -8
-80 l0 -81 375 -738 375 -739 -2 -483 -3 -484 -372 -30 -373 -29 0 -80 0 -79
370 -730 370 -730 0 -468 c0 -258 -1 -469 -3 -469 -2 0 -167 -13 -367 -30
-200 -16 -365 -30 -367 -30 -2 0 -3 -36 -3 -80 l0 -80 370 -728 370 -729 0
-534 0 -534 104 -84 104 -85 878 -258 c483 -143 879 -260 880 -261 0 -1 8
-240 17 -532 l17 -530 49 -390 49 -391 96 -375 95 -375 278 -507 278 -507 560
-369 560 -368 600 -171 600 -170 44 42 c24 22 50 56 57 74 8 17 19 32 26 32 6
0 322 -56 702 -124 l691 -124 545 -27 545 -27 623 26 623 27 667 88 667 89
498 193 499 193 216 128 217 127 62 -65 62 -65 433 329 433 330 405 394 405
394 281 390 c240 332 310 438 477 720 l197 332 499 1068 499 1069 250 670
c138 369 500 1339 806 2157 306 818 556 1501 556 1517 0 30 -65 222 -113 336
-14 33 -70 156 -126 273 l-100 212 107 303 107 302 715 3 c689 2 715 3 734 21
21 20 22 19 220 -168 110 -103 198 -191 197 -197 -1 -5 -70 -46 -154 -92 -83
-45 -153 -84 -155 -87 -5 -4 71 -145 78 -145 3 0 83 44 178 98 l172 97 144
154 144 154 91 191 91 191 26 193 c15 106 25 195 21 198 -3 3 -38 10 -77 15
-54 8 -75 7 -80 -1 -4 -7 -15 -80 -25 -163 -10 -84 -21 -161 -24 -173 -6 -20
-17 -17 -250 67 -134 49 -246 91 -249 94 -3 3 2 13 11 23 15 16 17 47 17 231
l0 212 -58 77 c-32 42 -74 100 -94 128 l-37 50 41 150 c23 82 47 154 53 159 7
6 40 114 75 240 35 127 67 245 72 262 l9 33 124 0 c77 0 125 4 125 10 0 6 -50
10 -130 10 -71 0 -130 -2 -130 -5 0 -12 -123 -452 -130 -464 -6 -11 -10 -10
-19 7 -12 22 -13 22 -391 22 l-380 0 0 101 c0 55 -4 109 -10 119 -5 10 -46 39
-90 65 -44 26 -80 50 -80 54 0 17 456 958 474 978 2 2 107 -56 235 -128 132
-75 236 -128 240 -123 10 10 594 971 698 1149 112 189 788 1456 1095 2052
l279 541 559 1486 559 1486 261 2439 261 2440 99 1253 99 1253 170 860 170
860 134 371 134 371 6 189 6 189 -181 630 c-171 601 -182 635 -240 746 l-61
116 -680 349 -681 349 -810 312 c-505 195 -1159 436 -1733 640 l-921 327 -39
129 c-21 73 -45 132 -53 137 -28 15 -2236 798 -3443 1221 l-1172 410 -1365
394 c-1383 399 -1880 540 -3853 1096 l-1098 309 -1005 195 -1006 195 -1596 95
c-885 52 -1838 103 -2137 114 -297 11 -571 22 -610 24 -38 1 -162 0 -275 -4z
m1885 -16108 c55 -16 530 -200 1055 -410 745 -299 981 -397 1073 -449 64 -36
117 -69 117 -73 0 -4 18 -159 40 -344 22 -185 40 -342 40 -349 0 -7 249 -217
554 -467 l555 -454 0 -820 0 -820 -135 -140 -136 -140 -1571 143 -1572 143
-1005 149 -1005 149 -341 113 -340 113 -242 149 -243 150 -295 262 -295 263
-301 403 -301 403 -109 224 c-99 205 -107 226 -94 245 7 11 72 96 142 188
l129 168 278 135 278 135 1475 0 1474 0 154 77 153 76 172 271 171 270 0 133
c0 100 3 133 13 133 6 0 57 -13 112 -29z m15465 -9661 c0 -11 -7 -20 -15 -20
-17 0 -18 2 -9 24 9 23 24 20 24 -4z"/>
</g>
</svg>
