<?xml version="1.0" standalone="no"?>
<!DOCTYPE svg PUBLIC "-//W3C//DTD SVG 20010904//EN"
 "http://www.w3.org/TR/2001/REC-SVG-20010904/DTD/svg10.dtd">
<svg version="1.0" xmlns="http://www.w3.org/2000/svg"
   viewBox="0 0 1524.000000 3513.000000"
 preserveAspectRatio="xMidYMid meet">
<metadata>
Created by potrace 1.16, written by Peter Selinger 2001-2019
</metadata>
<g transform="translate(0.000000,3513.000000) scale(0.100000,-0.100000)"
fill="#000000" stroke="none">
<path d="M10240 35030 l0 -100 -214 0 c-181 0 -215 2 -220 15 -8 21 -98 20
-158 -2 -40 -14 -81 -51 -264 -240 l-217 -224 -107 -294 c-59 -161 -116 -306
-125 -323 l-18 -29 -128 -6 c-71 -3 -138 -11 -151 -18 -12 -7 -123 -77 -245
-157 l-223 -144 -140 -163 -140 -163 0 -204 0 -204 145 -44 146 -43 367 6 368
6 64 -114 64 -113 81 -6 c44 -3 219 -9 388 -12 l309 -7 262 -161 263 -161
-181 -11 c-100 -6 -182 -12 -183 -13 -2 0 -3 -84 -3 -185 l0 -185 104 -93 105
-93 1 -180 0 -180 63 -35 c42 -23 100 -73 185 -159 l122 -125 0 -143 0 -143
500 0 500 0 0 -200 0 -200 -193 0 -193 0 -256 -105 -257 -105 -396 0 -395 0
-70 35 -70 35 -2500 0 -2500 0 0 -39 c0 -47 46 -36 -390 -91 -173 -22 -327
-42 -342 -45 l-28 -4 0 114 c0 63 1 115 3 116 1 0 332 13 736 29 403 16 736
31 739 34 3 4 15 103 26 221 l20 215 223 0 223 0 0 665 0 665 -225 0 -225 0
-2 162 -3 162 -120 31 -120 32 -3 106 -3 107 -653 0 -654 0 -456 -75 c-251
-41 -458 -75 -460 -75 -1 0 -8 17 -14 38 l-12 38 -472 42 c-260 24 -484 45
-498 47 -22 4 -33 -7 -98 -104 -49 -71 -113 -148 -191 -225 l-117 -117 -162
-38 -162 -38 -56 103 c-56 102 -58 104 -93 104 -20 0 -274 16 -565 35 -292 19
-540 35 -553 35 l-23 0 0 -1037 0 -1036 98 6 c53 3 318 16 588 28 l492 23 53
109 54 109 250 -8 c138 -3 253 -8 258 -11 4 -2 7 -519 7 -1149 l0 -1144 -215
0 -215 0 0 -120 0 -120 215 0 215 0 0 -1010 0 -1010 595 0 595 0 0 -35 0 -35
440 0 440 0 0 -95 0 -95 -722 -2 -722 -3 -106 -175 -107 -175 -131 -3 -131 -3
-7 -44 -6 -45 -114 0 -114 0 0 -585 0 -585 121 0 121 0 -6 -137 c-11 -237 -15
-265 -36 -258 -14 5 -28 -8 -59 -54 -48 -70 -48 -74 -29 -349 l12 -173 101
-58 100 -58 265 -6 c146 -4 456 -15 690 -26 234 -11 461 -21 505 -22 l79 -2 8
31 9 32 624 0 c615 0 624 0 630 -20 6 -19 15 -20 210 -20 l204 0 3 68 3 67 50
2 c28 2 74 5 103 9 l52 5 0 410 0 409 605 0 c397 0 605 3 605 10 0 7 276 10
808 10 l807 0 174 -155 174 -155 504 0 503 0 0 -849 0 -848 -60 -17 -60 -17 0
-530 0 -529 479 0 478 0 17 60 17 60 345 0 344 0 0 -90 0 -90 184 0 183 0 5
-382 c3 -211 4 -384 3 -386 -2 -2 -2047 142 -2141 151 -34 4 -41 1 -38 -12 1
-9 5 -43 8 -75 l5 -59 -130 5 c-71 3 -129 3 -129 -1 0 -3 7 -44 15 -91 8 -47
15 -93 15 -102 0 -17 -41 -18 -720 -18 l-720 0 0 -225 0 -225 -90 0 -90 0 0
-450 0 -450 90 0 90 0 0 -225 0 -225 1925 0 1925 0 0 -288 c0 -159 3 -539 7
-845 l6 -557 -754 0 c-415 0 -899 3 -1076 7 l-323 6 0 56 c0 31 -3 100 -7 154
l-6 97 -382 0 c-210 0 -564 -3 -786 -7 l-405 -6 -18 -141 c-10 -78 -23 -152
-28 -166 -6 -14 -16 -86 -23 -160 -8 -74 -146 -1077 -306 -2227 -161 -1151
-291 -2095 -288 -2097 3 -3 42 -8 88 -12 l83 -7 -6 -41 c-3 -23 -55 -552 -116
-1178 l-111 -1136 141 -364 c78 -199 144 -369 147 -375 4 -10 -36 -13 -181
-13 -102 0 -186 -3 -186 -7 0 -5 445 -960 989 -2123 l988 -2115 195 -3 195 -2
996 -2083 996 -2082 140 -3 141 -3 0 -129 0 -130 830 0 830 0 0 35 0 35 50 0
50 0 0 798 c0 438 3 1833 7 3100 l6 2302 84 0 83 0 0 283 c0 155 -3 427 -7
604 l-6 323 -89 0 -88 0 0 538 c0 295 3 547 6 560 6 22 9 22 150 22 l144 0 0
43 c0 42 2 45 40 60 36 14 40 19 40 51 l0 36 94 0 95 0 5 43 c3 23 7 105 9
181 l5 140 -124 140 -124 140 0 131 c0 90 58 3152 60 3183 0 1 63 2 141 2
l141 0 -6 163 c-3 89 -11 419 -16 732 -5 314 -12 618 -15 678 l-5 107 60 0 60
0 0 130 0 130 -29 0 c-16 0 -43 3 -60 6 l-31 7 0 83 0 84 60 0 60 0 0 120 0
120 -44 0 c-75 0 -76 1 -76 101 l0 89 60 0 60 0 0 135 0 135 -55 0 -55 0 0 95
0 95 60 0 59 0 -6 1225 -6 1225 56 25 57 25 0 122 c0 68 7 422 15 788 8 366
15 703 15 750 l1 85 89 80 89 80 1 104 0 105 -47 59 -47 60 68 129 68 129 -8
503 -7 503 -138 13 c-88 8 -139 17 -138 24 0 6 46 146 102 311 l103 300 102 3
102 3 0 1329 0 1330 270 0 270 0 0 994 0 994 -367 626 -368 625 -277 221
c-313 250 -275 200 -314 408 l-18 92 -38 0 -38 0 0 70 c0 68 -1 70 -25 70 -25
0 -25 1 -25 84 l0 84 -45 11 c-45 11 -45 12 -45 55 0 46 11 56 68 56 18 0 22
6 22 29 0 17 5 33 10 36 6 3 10 29 10 56 0 50 -1 51 -135 209 -75 88 -140 162
-146 166 -6 3 -45 8 -88 11 l-78 6 -6 195 c-4 107 -7 233 -7 279 l0 83 35 0
35 0 0 234 0 234 28 24 c16 12 126 90 246 173 l216 150 -2 150 -3 150 -62 9
-63 9 0 128 0 129 91 0 90 0 245 193 244 192 22 70 c11 39 28 99 38 135 14 56
22 69 58 95 l41 30 0 82 1 83 -46 11 c-39 10 -45 15 -40 33 2 11 12 71 22 133
l17 112 63 6 63 7 50 157 c28 86 70 218 95 294 l44 137 -47 112 -46 111 -138
51 c-133 49 -137 52 -131 76 15 54 11 59 -121 158 l-129 97 -43 130 -43 130
-228 136 -227 136 -240 17 c-132 9 -246 16 -252 16 -7 0 -19 14 -28 30 -13 25
-22 30 -50 30 -31 0 -35 3 -35 28 0 20 -9 33 -35 50 -33 21 -45 22 -210 22
-165 0 -178 -1 -205 -22 -20 -14 -30 -31 -30 -48 l0 -26 -796 -17 c-438 -9
-800 -14 -805 -11 -5 3 -9 13 -9 22 0 9 -20 30 -45 45 -25 16 -45 36 -45 45
-1 26 -93 92 -127 92 -16 0 -33 4 -39 9 -5 5 -123 11 -261 15 l-253 6 0 -100z
m-7633 -4900 l51 -22 169 -355 c118 -249 174 -357 188 -362 11 -5 379 -50 818
-102 439 -51 793 -95 788 -97 -7 -2 -11 -45 -11 -113 l0 -108 -132 -3 -132 -3
-19 -61 -20 -61 -60 -19 -61 -19 -88 -138 -88 -138 0 -115 0 -114 -70 0 -70 0
0 -60 0 -60 -681 0 -682 0 7 923 c7 952 10 1062 30 1054 6 -3 34 -15 63 -27z
m1263 -2254 l0 -65 -82 -31 c-46 -17 -252 -95 -458 -174 l-375 -142 -3 -230
-2 -230 135 -33 135 -33 0 -184 0 -184 -115 0 -115 0 0 -35 0 -35 -256 0
c-238 0 -255 1 -250 18 2 9 7 316 11 682 3 366 8 682 11 703 l6 37 679 0 679
0 0 -64z m1671 -2460 l294 -345 823 0 822 -1 0 -65 0 -65 185 0 185 0 0 -295
0 -295 -565 0 -564 0 -28 35 -28 35 -592 0 -593 0 0 384 c0 210 -3 411 -6 445
l-7 61 -113 0 -114 0 0 175 0 175 -40 0 c-22 0 -40 3 -40 6 0 8 74 93 81 94 4
0 139 -155 300 -344z m7169 -1961 l0 -145 -581 0 -582 0 7 -497 c3 -274 9
-636 12 -805 l7 -308 -182 0 -181 0 0 -75 0 -75 -343 0 -344 0 -19 35 -19 35
-122 0 -123 0 0 125 c0 122 -1 125 -25 141 l-25 16 0 849 0 849 1260 0 1260 0
0 -145z"/>
</g>
</svg>
