<?xml version="1.0" standalone="no"?>
<!DOCTYPE svg PUBLIC "-//W3C//DTD SVG 20010904//EN"
 "http://www.w3.org/TR/2001/REC-SVG-20010904/DTD/svg10.dtd">
<svg version="1.0" xmlns="http://www.w3.org/2000/svg"
   viewBox="0 0 4144.000000 1925.000000"
 preserveAspectRatio="xMidYMid meet">
<metadata>
Created by potrace 1.16, written by Peter Selinger 2001-2019
</metadata>
<g transform="translate(0.000000,1925.000000) scale(0.100000,-0.100000)"
fill="#000000" stroke="none">
<path d="M6795 19238 c-6 -16 -75 -340 -75 -350 0 -5 -92 -8 -205 -8 l-205 0
-92 85 -93 85 -400 0 -400 0 -91 -85 -92 -85 -253 -2 -253 -3 -207 -325 c-114
-179 -211 -330 -216 -335 -5 -6 -502 -53 -1104 -104 -642 -55 -1099 -99 -1106
-105 -12 -11 -343 -624 -346 -640 -2 -8 358 -52 445 -55 12 -1 63 -68 144
-190 l125 -188 54 -7 c41 -5 2076 -146 2104 -146 4 0 22 -26 40 -59 33 -57 34
-59 85 -65 28 -3 141 -6 252 -6 l200 0 18 -92 c9 -51 31 -166 48 -255 l31
-162 136 -3 136 -3 3 -162 2 -163 -47 0 c-27 0 -361 -7 -743 -15 -688 -16
-697 -16 -860 -45 l-165 -29 -1470 -16 c-808 -8 -1633 -18 -1832 -22 l-363 -6
0 -27 0 -27 388 -6 c213 -4 1037 -14 1832 -22 l1445 -16 170 -29 c168 -29 177
-29 870 -45 385 -8 717 -15 738 -15 l37 0 0 -99 0 -99 1655 -1334 1656 -1333
139 -3 140 -3 0 -224 c0 -123 4 -226 8 -229 5 -3 285 -43 623 -90 338 -46 628
-90 644 -98 17 -7 297 -242 624 -522 l593 -510 -6 -150 -6 -151 280 -305 c155
-168 308 -335 340 -371 l60 -66 -41 -59 -41 -58 152 -146 c150 -144 152 -145
140 -174 -9 -25 -8 -34 9 -57 l20 -27 -40 -103 c-21 -57 -39 -108 -39 -113 0
-6 113 -211 250 -457 l250 -447 8 -122 7 -121 190 -238 190 -238 1510 -6 c831
-3 1517 -8 1526 -12 9 -3 44 -64 77 -134 63 -134 70 -141 134 -141 26 0 33
-11 92 -127 l64 -128 258 -31 259 -32 97 96 97 96 718 -103 718 -102 415 1
415 0 200 -330 200 -330 103 0 102 0 0 -1233 c0 -1201 1 -1234 19 -1251 16
-14 181 -36 942 -122 867 -98 935 -104 1123 -104 141 0 208 -4 226 -13 17 -9
92 -132 256 -422 136 -240 243 -418 258 -429 20 -15 137 -39 513 -102 269 -46
503 -86 521 -89 l32 -6 0 -257 0 -258 33 -32 33 -32 1257 0 1257 0 0 -25 c0
-14 -1 -25 -2 -25 -15 -2 -3177 -40 -3330 -40 l-208 0 0 -25 0 -25 168 0 c92
0 883 -9 1757 -20 875 -11 1596 -20 1603 -20 9 0 12 -40 12 -169 l0 -168 58
-6 c31 -4 119 -9 195 -13 l137 -7 0 -474 0 -475 86 -94 86 -94 74 0 c71 0 74
-1 74 -23 0 -31 22 -77 37 -77 7 0 44 -29 82 -65 l68 -65 403 0 402 0 67 65
c58 56 73 65 104 65 l37 0 0 50 0 50 190 0 190 0 0 -50 0 -50 205 0 205 0 0
50 0 50 169 0 169 0 86 92 86 92 0 103 c0 57 4 103 8 103 5 0 35 -9 67 -20 55
-19 84 -20 617 -20 l558 0 0 -49 c0 -47 3 -51 148 -230 l147 -181 295 0 295 1
38 49 38 50 557 0 557 0 40 -50 40 -50 295 1 295 0 145 180 c138 172 145 182
148 229 l3 50 880 0 880 0 113 81 113 80 6 112 c4 62 7 273 7 470 0 279 3 357
13 356 6 0 77 -17 157 -38 l145 -38 3 -212 2 -213 33 6 c17 3 88 13 157 22 69
9 130 22 136 28 12 12 212 453 235 520 8 21 19 40 24 43 6 2 66 -3 133 -11
105 -12 156 -12 361 0 l239 14 691 358 c516 268 705 370 746 406 l55 47 0 148
0 148 272 6 c149 4 451 7 670 7 219 0 398 4 398 8 0 10 -534 22 -1002 22 -315
0 -338 1 -338 18 0 9 12 28 25 41 l25 23 645 6 c355 3 645 9 645 13 0 5 -75
10 -167 10 -93 1 -380 5 -640 8 l-472 6 20 45 c19 42 19 47 5 78 -9 17 -15 32
-13 32 9 2 1814 40 1895 40 l102 0 0 25 c0 23 -3 25 -47 25 -27 0 -505 9
-1063 21 l-1014 21 -68 34 -68 34 -215 0 -215 0 0 45 0 45 -155 0 -155 0 0
-40 0 -40 -63 0 c-35 0 -111 -3 -168 -6 l-104 -7 -30 -38 c-30 -38 -30 -38
-104 -39 -63 0 -78 3 -98 22 l-23 22 -327 -38 c-180 -21 -334 -43 -343 -48
-11 -7 -148 49 -535 224 l-520 233 -418 5 -418 5 -82 87 -82 87 -182 23 -182
22 -147 596 c-80 327 -155 633 -167 680 -19 80 -26 91 -118 211 -90 115 -102
127 -136 132 -21 3 -175 22 -343 42 -168 20 -315 38 -327 41 -23 4 -23 7 -23
148 l0 144 83 6 c45 3 521 8 1057 12 536 3 981 10 989 14 11 6 10 9 -5 13 -10
3 -458 8 -994 11 -536 4 -1012 9 -1058 12 l-82 6 -41 52 -41 51 149 2 c166 3
193 7 193 28 0 12 -15 15 -67 15 -38 0 -125 3 -195 7 l-127 6 -31 42 c-30 41
-37 43 -238 111 l-207 69 -340 5 -340 5 -312 157 -313 158 -149 0 -149 0 -72
82 c-40 46 -85 94 -100 108 -25 23 -873 965 -932 1035 l-27 32 -932 6 -932 6
-71 69 c-62 60 -81 72 -145 93 -68 22 -82 31 -185 130 -121 115 -167 146 -266
177 -36 12 -179 57 -317 102 l-253 81 0 74 0 74 48 7 c48 6 112 50 112 76 0 7
-38 52 -83 99 l-82 87 -265 82 c-146 45 -328 101 -405 126 l-140 44 -85 129
-85 129 -116 61 -116 61 -175 0 -175 0 -42 62 -41 63 41 8 c24 5 38 12 33 17
-5 5 -112 33 -238 62 l-228 54 -22 54 -22 55 -211 3 -211 2 -16 40 c-9 22 -23
40 -31 40 -11 0 -15 12 -15 49 0 47 -2 50 -53 89 -29 23 -63 52 -75 64 l-22
24 159 159 c127 128 168 162 204 175 25 8 53 25 64 37 10 12 50 35 88 52 70
31 70 31 25 25 -59 -7 -289 -73 -315 -89 -18 -12 -151 -55 -169 -55 -3 0 -6 7
-6 15 0 9 -7 32 -17 53 -9 20 -15 41 -14 45 3 16 -33 116 -43 120 -6 2 -66
-12 -134 -32 -119 -35 -123 -37 -117 -61 4 -13 7 -29 8 -34 2 -8 -45 -24 -220
-76 -60 -17 -73 -24 -73 -41 0 -16 4 -19 18 -14 36 14 72 17 72 7 0 -6 -27
-34 -59 -64 l-59 -53 22 -74 c15 -50 29 -77 42 -83 46 -19 288 -67 309 -62 22
5 23 4 15 -31 -5 -20 -10 -38 -12 -39 -1 -2 -68 -15 -148 -30 -225 -42 -240
-46 -240 -62 0 -10 -12 -14 -38 -14 -36 0 -40 -3 -55 -40 l-15 -40 -125 0
-124 0 -44 -120 -44 -120 -157 0 -158 0 0 -70 0 -70 -584 0 -583 0 -67 153
-66 152 0 273 c0 265 -1 274 -22 302 l-22 30 -116 0 -116 0 -29 51 c-40 68
-61 78 -433 204 l-307 105 -334 0 -334 0 -84 -45 c-45 -25 -85 -45 -88 -45 -3
0 -5 26 -5 58 0 51 -4 62 -28 85 -35 34 -24 34 -637 2 -258 -13 -473 -21 -477
-17 -3 4 -19 54 -35 112 l-29 105 -1067 558 -1068 558 -261 -30 -262 -30
-1760 824 -1759 825 -228 -43 -228 -43 -1198 636 -1198 637 -3 276 -2 277 772
0 773 0 1025 126 c564 70 1025 127 1026 128 0 0 76 150 168 331 92 182 171
333 174 337 5 5 492 -45 498 -51 0 -1 11 -46 24 -101 l24 -100 33 0 c37 0 34
9 63 -154 16 -86 18 -117 9 -145 -10 -34 -6 -45 54 -171 56 -118 80 -154 186
-285 l122 -150 180 -106 180 -106 169 -36 c163 -35 172 -36 204 -20 32 15 57
14 398 -16 307 -26 409 -31 660 -31 267 0 298 -2 306 -17 8 -14 48 -19 258
-34 137 -10 257 -18 267 -19 11 0 17 -8 17 -25 l0 -25 191 0 191 0 21 -50 21
-50 93 0 93 0 -6 28 c-4 15 -11 37 -15 50 -8 21 -6 22 45 22 l54 0 12 -50 12
-50 80 0 81 0 -5 50 -5 50 176 0 176 0 53 30 c40 23 52 36 52 54 0 23 3 24
108 30 59 3 382 11 717 16 576 10 618 12 750 36 l140 24 1492 13 c820 7 1495
16 1499 20 4 4 5 10 1 13 -3 3 -682 12 -1509 20 -1459 14 -1506 15 -1613 35
-100 20 -178 23 -845 38 l-735 16 -3 27 c-3 21 -15 34 -56 58 l-53 30 -195 0
-195 0 -7 31 c-15 75 -44 68 325 71 l332 3 141 247 141 248 70 -5 c38 -3 93
-8 121 -10 49 -5 52 -4 63 24 11 26 0 55 -161 412 l-173 384 -1595 512 -1595
513 -656 171 -655 172 -56 86 c-233 363 -323 498 -336 509 -12 9 -111 12 -415
12 l-399 0 -91 85 -92 85 -400 0 -400 0 -93 -85 -92 -85 -144 0 -144 0 -806
185 -806 185 -1615 0 c-1283 0 -1617 -3 -1620 -12z m8270 -2778 c347 -39 639
-73 650 -75 11 -3 157 -175 340 -401 l320 -396 441 7 441 7 21 -48 21 -49 -85
-3 c-81 -3 -84 -4 -84 -26 0 -28 -4 -28 -270 -46 -251 -17 -268 -19 -275 -41
-6 -18 -20 -19 -308 -19 -246 1 -363 6 -635 29 -328 29 -334 30 -361 55 -22
21 -54 32 -177 57 -145 31 -152 34 -281 108 -131 76 -131 76 -230 198 -78 97
-108 144 -148 232 -40 87 -56 113 -78 122 -29 12 -29 12 -51 132 l-14 77 34 0
c36 0 41 11 60 113 4 25 12 37 23 37 9 0 300 -32 646 -70z m2594 -904 c6 -25
11 -47 11 -50 0 -3 -22 -6 -49 -6 l-49 0 -16 47 c-9 26 -16 48 -16 50 0 2 24
3 54 3 l54 0 11 -44z m6430 -4797 c14 -41 14 -62 -1 -57 -13 5 -39 74 -31 82
13 12 21 5 32 -25z m471 -12 c-54 -48 -141 -119 -143 -116 -25 44 -33 69 -27
78 9 15 114 49 155 50 25 1 27 -1 15 -12z m-425 -145 c13 -39 13 -43 -2 -40
-21 4 -47 89 -30 100 7 4 13 2 15 -5 2 -7 10 -31 17 -55z m25 -86 c0 -9 -8
-12 -27 -8 l-28 6 25 7 c14 4 26 7 28 8 1 1 2 -5 2 -13z"/>
<path d="M25340 11010 c-37 -13 -43 -17 -20 -13 41 7 111 32 90 32 -8 0 -40
-9 -70 -19z"/>
<path d="M25205 10970 c-13 -5 -14 -9 -5 -9 8 0 24 4 35 9 13 5 14 9 5 9 -8 0
-24 -4 -35 -9z"/>
<path d="M25135 10950 c-13 -5 -14 -9 -5 -9 8 0 24 4 35 9 13 5 14 9 5 9 -8 0
-24 -4 -35 -9z"/>
<path d="M25035 10920 c-13 -5 -14 -9 -5 -9 8 0 24 4 35 9 13 5 14 9 5 9 -8 0
-24 -4 -35 -9z"/>
<path d="M24935 10890 c-13 -5 -14 -9 -5 -9 8 0 24 4 35 9 13 5 14 9 5 9 -8 0
-24 -4 -35 -9z"/>
</g>
</svg>
