<?xml version="1.0" standalone="no"?>
<!DOCTYPE svg PUBLIC "-//W3C//DTD SVG 20010904//EN"
 "http://www.w3.org/TR/2001/REC-SVG-20010904/DTD/svg10.dtd">
<svg version="1.0" xmlns="http://www.w3.org/2000/svg"
   viewBox="0 0 4447.000000 706.000000"
 preserveAspectRatio="xMidYMid meet">
<metadata>
Created by potrace 1.16, written by Peter Selinger 2001-2019
</metadata>
<g transform="translate(0.000000,706.000000) scale(0.100000,-0.100000)"
fill="#000000" stroke="none">
<path d="M10409 6995 l-52 -65 -172 0 -171 0 -300 -94 c-164 -52 -352 -110
-416 -130 -98 -31 -118 -40 -118 -57 0 -16 -7 -19 -40 -19 l-40 0 0 -460 0
-460 -65 0 -65 0 0 230 0 230 -190 0 -190 0 0 -40 0 -40 -135 0 -135 0 0 145
0 145 -179 0 -180 0 -43 50 -43 50 -250 0 -251 0 -49 -50 -49 -50 -218 0 -218
0 0 -105 0 -105 -1260 0 -1260 0 0 35 0 35 -60 0 -60 0 0 -75 0 -75 -732 0
-733 0 -24 38 c-13 20 -85 122 -160 225 l-136 188 -106 -6 -107 -7 -32 96 -32
96 -919 0 -919 0 0 -312 c0 -224 4 -338 14 -402 8 -48 16 -89 18 -90 2 -2 206
-10 455 -18 248 -9 456 -19 462 -22 7 -5 11 -51 11 -125 l0 -118 -337 -6
c-186 -4 -470 -7 -630 -7 l-293 0 0 -845 0 -845 630 0 630 0 1 -1027 1 -1028
150 -143 150 -142 559 0 559 0 28 56 28 55 94 -75 95 -76 133 0 132 0 0 -40 0
-40 765 0 765 0 14 35 15 35 475 0 475 0 104 74 105 74 6 -45 c3 -25 6 -97 6
-159 l0 -114 435 0 435 0 0 93 c0 50 3 122 7 160 l6 67 893 0 c887 0 894 0
894 -20 0 -19 7 -20 190 -20 l190 0 0 1035 0 1035 65 0 65 0 0 -1170 0 -1170
100 0 100 0 74 -60 73 -61 964 6 c530 3 1132 8 1337 11 l372 6 36 49 36 49
194 0 194 0 0 785 c0 432 2 785 4 785 2 0 38 -16 80 -35 l76 -36 0 -614 0
-615 190 0 190 0 0 38 c0 20 3 61 6 90 l7 52 103 0 103 0 3 -57 3 -58 1205 -5
1204 -5 8 -40 c4 -22 10 -50 13 -62 l5 -23 310 0 c264 0 310 2 310 15 0 7 5
37 11 65 l11 50 252 0 253 0 13 60 13 60 568 0 569 0 0 965 0 965 314 0 314 0
7 -60 7 -60 104 0 104 0 0 -995 0 -995 189 0 188 0 7 90 8 90 103 0 104 0 3
-57 3 -58 1220 -5 1219 -5 8 -40 c4 -22 10 -50 13 -62 l5 -23 310 0 c264 0
310 2 310 15 0 7 5 37 11 65 l11 50 238 0 239 0 12 60 12 60 568 0 569 0 0
904 0 905 53 3 c47 3 52 5 55 28 1 14 5 40 8 58 l5 32 310 0 c239 0 311 -3
314 -12 2 -7 6 -34 10 -60 l6 -48 105 0 104 0 0 -995 0 -995 184 0 c204 0 196
-3 196 68 0 20 3 54 6 75 l7 37 103 0 104 0 0 -60 0 -60 1794 0 1793 0 12 60
12 60 570 0 569 0 0 220 0 220 135 0 135 0 0 135 0 135 1365 0 1365 0 0 -135
0 -135 205 0 205 0 0 -95 c0 -84 2 -95 18 -95 9 -1 -11 -12 -45 -27 l-63 -25
0 -502 0 -502 65 -23 65 -23 0 -44 0 -44 125 0 c123 0 125 0 125 -22 1 -19
114 -99 626 -443 344 -231 630 -422 636 -424 6 -2 86 21 179 50 l169 53 0 478
c0 312 3 478 10 478 7 0 10 -166 10 -478 l0 -477 170 -54 c121 -38 176 -51
189 -45 10 5 296 196 634 424 l616 415 1 83 0 82 30 0 c29 0 30 1 30 50 l0 50
1303 0 1302 0 300 80 300 80 207 0 c114 0 209 4 212 9 3 5 246 12 540 16 294
4 560 11 593 14 32 4 -198 11 -512 17 -313 5 -534 10 -490 12 43 2 84 7 90 11
5 5 274 12 598 16 323 4 587 11 587 15 0 4 -264 11 -587 15 -329 4 -592 11
-597 16 -6 5 -21 9 -35 10 -26 0 -26 0 -3 9 19 8 22 16 22 70 l0 60 268 1
c521 3 895 13 899 25 3 8 -35 14 -119 20 -98 7 12 11 537 18 363 5 838 11
1055 15 382 6 389 6 210 13 -102 4 -576 11 -1054 15 -681 6 -870 11 -874 21
-3 9 -104 12 -463 12 l-459 0 0 48 -1 47 -624 303 -623 302 -166 0 -166 0 0
40 0 40 65 0 65 0 0 106 0 106 52 21 51 22 -6 348 -7 347 31 0 c22 0 46 13 85
46 l54 46 0 329 0 329 24 0 c14 0 27 4 30 8 8 14 305 27 591 27 143 0 487 4
765 10 646 12 532 20 -400 29 -439 4 -708 10 -714 16 -6 6 -73 10 -153 10
l-143 0 0 225 0 225 42 0 c28 0 49 7 63 20 20 19 37 20 544 21 444 1 523 3
528 16 3 7 3 16 0 19 -3 4 -241 5 -529 5 l-524 -2 -24 26 c-17 18 -34 25 -62
25 l-38 0 0 205 0 205 853 0 c468 0 858 4 866 9 42 27 -8 31 -342 31 -557 0
-1377 13 -1377 21 0 11 466 22 1933 45 273 4 497 10 497 14 0 7 -178 10 -1543
27 -285 3 -520 10 -523 14 -3 5 -86 9 -185 9 -141 0 -179 3 -179 13 0 7 -24
34 -54 60 l-55 47 -140 0 c-119 0 -141 -2 -141 -15 0 -13 -22 -15 -135 -15
l-135 0 0 80 0 80 -310 0 -310 0 0 -80 0 -80 -520 0 -520 0 0 35 0 35 -1210 0
-1210 0 0 35 0 35 -130 0 -130 0 0 40 c0 38 -2 40 -30 40 -29 0 -30 2 -30 45
l0 45 -175 0 -175 0 0 -45 c0 -43 -1 -45 -30 -45 -28 0 -30 -2 -30 -39 l0 -39
-460 -7 -460 -7 0 -44 0 -44 -559 0 -560 0 -73 108 -74 108 233 29 233 28 0
34 c0 28 4 33 23 33 45 0 383 21 405 26 19 4 22 10 22 58 l0 53 -87 6 c-49 4
-150 10 -225 13 l-138 7 0 28 c0 34 15 30 -246 64 -200 25 -203 25 -997 25
l-797 0 0 -200 0 -200 80 0 80 0 0 -110 0 -110 -255 0 -255 0 0 -490 0 -490
105 0 105 0 0 -40 0 -40 -135 0 -135 0 0 780 0 780 -380 0 -380 0 0 48 c0 26
-3 64 -6 85 l-7 37 -68 0 -69 0 0 -35 c0 -32 -2 -35 -29 -35 -25 0 -30 4 -33
28 l-3 27 -577 3 c-567 2 -578 2 -578 -17 0 -30 -17 -34 -24 -6 l-6 25 -195 0
-195 0 0 -30 0 -30 -215 0 -215 0 0 155 0 155 -640 0 -640 0 0 -100 0 -100
-354 0 -354 0 -6 -22 c-3 -13 -6 -38 -6 -55 l0 -33 -185 0 -185 0 0 -170 0
-170 -104 0 -104 0 -9 -52 -8 -53 -312 -3 -312 -2 -6 37 c-4 21 -7 45 -8 53
-2 11 -17 16 -55 18 l-52 3 0 120 0 119 -380 0 -380 0 0 54 c0 29 -3 68 -6 85
l-6 31 -69 0 -69 0 0 -35 c0 -32 -2 -35 -30 -35 -27 0 -30 3 -30 30 l0 30
-579 0 -579 0 -7 -27 -7 -28 -10 28 -10 27 -193 0 -192 0 -6 -30 -6 -30 -211
0 -210 0 0 155 0 155 -269 0 -268 0 -7 43 c-4 23 -11 59 -17 80 l-10 37 -306
-2 -307 -3 -16 -75 c-16 -73 -17 -75 -48 -78 l-32 -3 0 -100 0 -99 -354 0
-353 0 -7 -31 c-3 -17 -6 -42 -6 -55 l0 -24 -185 0 -185 0 0 -170 0 -170 -104
0 -105 0 -6 -55 -7 -55 -314 0 -314 0 0 175 0 175 -380 0 -380 0 0 63 c0 106
-1 107 -81 107 l-69 0 0 -35 c0 -32 -2 -35 -30 -35 -27 0 -30 3 -30 30 l0 30
-579 0 -580 0 -3 -27 -4 -28 -12 28 -12 27 -195 0 -195 0 0 -30 0 -30 -215 0
-215 0 0 155 0 155 -634 0 -634 0 -6 -22 c-3 -13 -6 -58 -6 -100 l0 -78 -354
0 -354 0 -7 -55 -6 -55 -185 0 -184 0 0 -290 0 -290 -80 0 -80 0 0 520 0 520
-70 0 c-66 0 -70 1 -70 23 0 20 -30 31 -418 150 l-417 127 -152 0 c-84 0 -153
4 -153 8 0 5 -24 34 -53 65 l-53 57 -366 0 -366 0 -53 -65z m23451 -2445 l0
-40 -125 0 -125 0 0 40 0 40 125 0 125 0 0 -40z m-21120 -986 c0 -222 -3 -275
-13 -271 -7 3 -43 18 -80 33 l-67 29 0 243 0 242 80 0 80 0 0 -276z"/>
</g>
</svg>
