<?xml version="1.0" standalone="no"?>
<!DOCTYPE svg PUBLIC "-//W3C//DTD SVG 20010904//EN"
 "http://www.w3.org/TR/2001/REC-SVG-20010904/DTD/svg10.dtd">
<svg version="1.0" xmlns="http://www.w3.org/2000/svg"
   viewBox="0 0 4178.000000 2010.000000"
 preserveAspectRatio="xMidYMid meet">
<metadata>
Created by potrace 1.16, written by Peter Selinger 2001-2019
</metadata>
<g transform="translate(0.000000,2010.000000) scale(0.100000,-0.100000)"
fill="#000000" stroke="none">
<path d="M33970 20062 c0 -28 21 -82 70 -185 l71 -147 104 0 105 0 20 -40 c17
-34 18 -40 5 -40 -9 0 -15 -9 -15 -25 l0 -25 -1273 0 -1273 0 -79 -72 -80 -73
-148 -29 -147 -28 0 -59 c0 -33 1 -59 3 -59 1 0 75 -15 164 -33 l162 -34 -34
-33 c-19 -19 -35 -37 -35 -40 0 -3 70 -37 157 -75 133 -60 158 -74 168 -99 11
-27 59 -50 509 -248 414 -182 505 -218 544 -218 39 0 110 -29 422 -169 l375
-168 3 -192 2 -191 -330 0 -330 0 0 -200 0 -200 -111 0 -111 0 -15 -40 -16
-40 -82 0 c-77 0 -83 -1 -110 -30 l-29 -30 -140 0 -141 0 -28 -35 -28 -35
-179 0 c-113 0 -180 -4 -180 -10 0 -6 132 -10 375 -10 243 0 375 4 375 10 0
17 245 12 338 -6 l82 -17 0 -53 0 -54 375 0 375 0 0 -265 0 -265 -73 0 c-68 0
-75 -2 -102 -30 l-29 -30 -363 0 c-200 0 -363 -4 -363 -9 0 -10 49 -17 177
-27 84 -6 94 -9 119 -35 l28 -29 303 0 303 0 0 -65 0 -65 165 0 165 0 0 -158
0 -158 -262 -13 c-145 -6 -311 -15 -370 -18 l-108 -6 0 -199 0 -198 -295 0
-295 0 0 -30 0 -30 210 0 210 0 0 -250 0 -250 -500 0 -500 0 0 -26 c0 -22 12
-31 117 -80 l117 -55 -35 -33 c-19 -18 -143 -133 -276 -254 l-242 -222 -136 0
c-113 0 -153 -4 -237 -25 -55 -15 -126 -39 -157 -55 -31 -15 -84 -37 -116 -48
-33 -11 -112 -44 -175 -75 -109 -51 -119 -59 -178 -131 l-64 -76 -119 0 c-72
0 -119 -4 -119 -10 0 -6 149 -11 413 -12 l414 -3 -241 -217 -241 -218 -527 0
c-342 0 -528 -3 -528 -10 0 -6 184 -11 516 -12 l517 -3 -171 -152 -170 -153
-606 0 c-599 0 -606 0 -606 -20 0 -20 7 -20 585 -20 l585 0 -362 -327 c-199
-181 -477 -432 -617 -560 l-256 -232 -5532 -1 c-4911 0 -5533 -2 -5533 -15 0
-13 160 -15 1380 -15 l1380 0 0 -70 0 -70 -1800 0 c-1193 0 -1800 3 -1800 10
0 15 -393 13 -408 -2 -9 -9 -12 -101 -12 -354 l0 -343 -127 -40 c-71 -22 -238
-76 -373 -119 l-245 -78 -3 -132 c-2 -110 -5 -132 -18 -132 -8 0 -164 82 -346
183 l-331 182 -43 65 c-44 64 -44 65 -44 153 0 68 -4 97 -20 127 l-20 40 -89
0 -88 0 -18 -40 -18 -40 -267 0 -268 0 -98 -155 -98 -155 -141 0 c-125 0 -150
3 -215 25 l-74 25 -626 0 -626 0 -74 -25 c-45 -15 -96 -25 -132 -25 l-58 0 0
193 -1 192 -234 152 c-227 148 -236 153 -287 153 -48 0 -62 6 -136 55 l-82 55
0 510 0 510 -23 0 c-13 0 -32 9 -42 20 -10 11 -31 20 -47 20 l-28 0 -2 193 -2
192 -6 -195 c-4 -154 -7 -175 -10 -100 l-4 95 -5 -70 c-5 -57 -7 -41 -11 85
l-6 155 -2 -177 -2 -178 -36 0 c-27 0 -44 -7 -63 -27 -14 -15 -87 -136 -162
-268 l-137 -240 -203 -5 -203 -5 -225 -375 -226 -375 -1019 -3 c-999 -2 -1019
-2 -1046 -22 -38 -27 -55 -25 -80 10 l-21 30 -284 0 c-326 0 -387 -9 -555 -84
-335 -150 -308 -135 -373 -208 l-60 -68 -477 0 -477 0 -97 -105 -98 -105 -216
0 -217 0 -320 -104 -320 -104 -3 -81 -3 -81 -1804 0 c-1030 0 -1814 -4 -1827
-9 -13 -5 -75 -68 -138 -140 l-115 -131 -422 0 c-415 0 -423 0 -423 -20 0 -19
8 -20 401 -22 l402 -3 -264 -297 -264 -297 -122 -1 -123 0 0 -210 0 -210 30 0
30 0 0 -109 0 -110 126 -49 c143 -55 144 -53 -29 -68 l-77 -7 0 -327 0 -328
43 -6 c23 -3 305 -33 627 -66 l585 -61 165 -163 c91 -90 175 -168 187 -175 12
-6 235 -47 496 -90 l473 -78 369 -372 368 -371 826 0 826 0 170 -170 170 -170
2258 0 2259 0 76 70 77 70 1310 0 1310 -1 140 -129 140 -129 3739 -1 3738 0
404 -145 c357 -128 411 -145 466 -145 62 0 114 -20 143 -55 5 -7 45 -33 88
-59 l78 -46 2320 0 2319 0 498 -313 c273 -173 547 -345 607 -383 l110 -69
-397 -3 -398 -2 0 -46 0 -45 -137 4 c-76 3 -227 10 -336 17 -194 13 -197 13
-220 -7 -22 -21 -32 -21 -1052 -33 -566 -7 -1031 -13 -1032 -14 -1 -1 461 -7
1028 -14 1009 -12 1032 -13 1059 -32 28 -20 34 -20 222 -9 106 7 255 14 331
16 l137 4 0 -40 0 -41 324 0 323 0 795 -240 796 -240 253 0 254 0 199 -60 199
-60 653 0 653 0 75 60 76 60 469 0 470 0 347 -367 347 -368 70 -5 70 -5 253
-265 253 -265 1 -596 0 -597 81 -46 82 -46 461 -1 461 0 260 -275 c152 -161
266 -274 277 -274 16 0 18 -12 18 -140 l0 -140 368 0 368 0 202 -340 203 -339
131 -3 130 -3 92 -157 91 -158 97 0 98 0 0 328 0 327 58 37 c33 21 71 38 87
38 18 0 80 32 177 92 l148 93 0 42 c0 35 3 42 21 45 19 3 30 29 80 188 58 184
58 185 79 420 11 129 52 744 90 1365 39 622 117 1818 175 2659 58 841 105
1535 105 1542 0 12 59 14 328 14 l328 0 699 399 700 399 3 86 3 86 744 0 745
0 0 55 0 55 -1587 2 -1588 3 -217 95 -217 95 -1 462 0 462 125 250 125 251
445 0 445 0 0 30 0 30 -434 2 -434 3 119 250 119 249 0 623 0 623 256 603
c141 331 307 715 368 852 62 138 138 313 171 391 l58 140 105 55 105 54 226
523 225 522 898 0 898 0 0 30 0 30 -1010 0 -1010 0 0 123 c0 67 -3 179 -7 250
l-6 127 791 0 792 0 0 30 0 30 -840 0 -840 0 0 188 0 189 -105 28 -105 28 0
158 0 159 623 0 c469 1 636 4 677 14 l55 12 3 125 3 124 -67 140 -66 141 -587
182 c-518 161 -594 182 -653 182 l-68 0 0 115 0 115 -45 0 -45 0 0 89 0 90 43
3 44 3 -144 118 c-78 64 -152 117 -163 117 -18 0 -20 7 -20 63 l0 63 -283 92
c-273 89 -287 92 -375 92 l-92 0 -2 187 -3 188 -1090 497 c-599 273 -1102 497
-1117 497 -22 1 -42 20 -104 96 l-78 95 -143 0 c-139 0 -143 1 -143 21 0 12
-46 106 -102 210 l-101 189 -378 0 c-326 0 -378 2 -383 15 -5 13 -51 15 -336
15 l-330 0 0 -38z m-4719 -8292 l-75 -70 -488 0 -488 0 0 70 0 70 563 0 562
-1 -74 -69z"/>
</g>
</svg>
