<?xml version="1.0" standalone="no"?>
<!DOCTYPE svg PUBLIC "-//W3C//DTD SVG 20010904//EN"
 "http://www.w3.org/TR/2001/REC-SVG-20010904/DTD/svg10.dtd">
<svg version="1.0" xmlns="http://www.w3.org/2000/svg"
   viewBox="0 0 3980.000000 1273.000000"
 preserveAspectRatio="xMidYMid meet">
<metadata>
Created by potrace 1.16, written by Peter Selinger 2001-2019
</metadata>
<g transform="translate(0.000000,1273.000000) scale(0.100000,-0.100000)"
fill="#000000" stroke="none">
<path d="M4420 12683 c-82 -36 -151 -79 -319 -199 l-213 -154 -1854 0 -1854 0
-90 -71 -90 -71 0 -252 0 -252 188 -244 c103 -134 186 -247 185 -251 -1 -4 35
-190 82 -413 l84 -405 178 -236 178 -235 52 0 c51 0 53 -1 53 -27 0 -24 27
-49 203 -185 l202 -157 103 -182 102 -182 0 -354 c0 -334 1 -359 22 -429 l21
-74 164 0 c89 0 163 -1 163 -3 0 -9 309 -1330 312 -1332 2 -2 298 -25 658 -52
l655 -50 945 158 945 159 223 -62 c216 -60 222 -62 222 -87 0 -31 7 -41 41
-61 87 -51 74 -28 258 -474 l174 -421 56 -45 c31 -25 113 -92 183 -148 l128
-104 46 27 c29 17 49 23 53 17 3 -6 652 -1061 1441 -2345 1177 -1915 1438
-2333 1451 -2326 12 6 21 -1 38 -32 13 -22 20 -43 17 -46 -6 -7 12 -33 23 -33
3 0 14 7 24 14 18 14 14 46 -7 46 -6 0 -30 33 -53 73 -22 39 -680 1111 -1462
2381 -874 1422 -1417 2314 -1412 2320 5 7 -12 63 -42 139 -54 136 -54 136
-108 113 -12 -5 -65 74 -249 374 -128 209 -236 380 -239 380 -3 0 -16 -8 -29
-18 l-23 -18 225 -366 c125 -202 229 -373 232 -381 3 -10 -8 -20 -36 -31 -22
-9 -46 -16 -53 -16 -6 0 -36 22 -64 48 -51 45 -59 60 -231 442 -166 368 -177
396 -160 408 10 7 18 20 18 28 0 10 6 13 18 10 10 -3 940 -262 2067 -575 1128
-313 2347 -653 2710 -754 l660 -185 622 -329 c341 -182 629 -337 638 -346 9
-10 24 -17 33 -17 9 -1 35 -7 57 -15 22 -9 420 -85 885 -171 734 -136 860
-157 960 -159 130 -2 415 -49 441 -72 30 -25 113 -43 764 -164 352 -65 693
-128 757 -140 116 -21 117 -22 113 -48 -2 -14 -7 -83 -10 -152 l-5 -126 357
-273 358 -273 385 -137 385 -137 502 -79 c276 -43 499 -81 495 -85 -4 -3 -169
-72 -367 -154 -198 -81 -397 -163 -442 -182 l-83 -35 0 -74 c0 -41 -3 -74 -7
-75 -5 0 -198 -21 -431 -48 l-423 -47 -32 21 c-18 12 -55 25 -83 28 l-52 6
-11 -77 -11 -77 -93 -90 c-50 -49 -142 -138 -203 -197 l-111 -106 -6 -65 c-7
-72 -2 -76 68 -77 28 0 34 -8 95 -120 64 -118 65 -119 105 -124 22 -3 182 -10
355 -17 l315 -11 127 -54 127 -54 452 -20 c249 -11 454 -22 457 -24 2 -3 -21
-33 -51 -67 -54 -61 -58 -63 -164 -97 -106 -33 -111 -34 -328 -38 -194 -4
-273 0 -680 34 -437 37 -462 38 -505 23 -42 -15 -46 -19 -54 -64 -5 -26 -7
-49 -5 -51 2 -2 472 -70 1044 -150 572 -80 1068 -153 1103 -162 52 -14 79 -30
160 -96 171 -140 258 -233 310 -330 l47 -88 1383 0 1382 0 24 53 c19 42 32 56
67 74 l44 22 1155 4 c992 3 1400 10 2895 45 957 23 2138 55 2625 72 487 17
911 30 943 30 l57 0 0 48 c0 41 -4 50 -22 59 -13 6 -135 28 -273 49 -243 36
-255 39 -439 106 -105 38 -233 92 -285 120 -104 56 -301 211 -454 358 l-92 87
-315 22 c-173 12 -428 33 -567 47 -139 13 -258 24 -265 24 -7 0 -22 -14 -33
-30 -11 -16 -23 -30 -26 -30 -4 0 -54 55 -111 123 l-105 122 -46 140 c-25 77
-52 143 -59 147 -7 3 -119 16 -248 28 -129 11 -258 24 -287 27 l-51 6 32 46
c18 25 45 81 60 124 27 74 29 77 60 77 17 0 299 7 626 15 327 9 676 12 775 9
99 -3 851 6 1670 21 l1490 26 830 104 830 104 1195 40 c657 22 2100 70 3205
106 1106 36 2038 68 2073 71 l62 6 0 221 0 222 -132 -3 c-73 -1 -1157 -20
-2408 -42 -2362 -41 -2387 -42 -2630 -89 -32 -7 -274 -13 -590 -16 -294 -3
-861 -13 -1260 -22 -874 -20 -1252 -22 -1257 -7 -2 6 -16 9 -32 6 -15 -2 -152
13 -305 32 -152 20 -281 34 -285 32 -5 -3 -73 24 -152 59 -134 61 -149 70
-209 134 l-65 69 -570 -10 c-313 -6 -571 -11 -572 -12 -1 -1 1 -57 4 -124 l6
-122 48 0 c26 0 50 -4 53 -8 5 -9 -254 -22 -419 -22 -77 0 -355 -46 -365 -60
-3 -4 -67 -10 -143 -13 -114 -4 -155 -11 -247 -38 -61 -17 -113 -29 -117 -26
-3 4 -16 68 -29 143 -13 75 -26 139 -29 142 -3 3 -274 -74 -602 -171 l-598
-177 -60 59 c-39 39 -88 73 -142 100 l-81 40 -234 12 c-156 7 -246 16 -273 26
-21 8 -94 19 -160 25 -118 10 -124 10 -215 -17 -52 -14 -106 -35 -121 -46 -15
-10 -30 -19 -33 -19 -3 0 -6 54 -6 120 l0 120 108 0 108 0 52 53 52 53 0 172
0 172 555 0 554 0 111 -105 c102 -96 115 -105 150 -105 37 0 42 4 75 55 l35
56 -157 224 -158 225 -582 0 -583 0 0 105 c0 143 -27 249 -99 385 -53 99 -66
115 -241 291 -169 169 -194 191 -288 244 l-102 57 -737 164 c-405 90 -738 166
-740 168 -4 4 233 202 262 218 8 5 22 -4 38 -26 44 -57 65 -54 191 32 286 194
365 253 368 275 2 14 -11 42 -39 79 l-43 56 73 57 c141 113 174 151 202 236
l26 76 336 8 336 7 161 58 c135 48 180 59 277 70 l117 12 7 100 c4 54 6 100 4
102 -2 2 -444 131 -982 287 -538 156 -972 285 -964 287 21 4 29 86 21 198 -5
73 -10 95 -23 98 -934 278 -4604 1489 -5538 1827 -420 152 -669 235 -1265 418
l-743 229 -445 95 c-379 82 -776 153 -1040 186 -44 6 -443 137 -1173 384
-1095 372 -1110 376 -1365 432 -141 31 -1943 425 -4003 875 -3645 798 -3748
820 -3850 820 -102 0 -106 -2 -209 -47z m15485 -7098 c281 -49 513 -91 518
-95 4 -3 -9 -83 -29 -176 -35 -163 -38 -170 -75 -209 l-39 -41 0 -237 c0 -130
-3 -237 -7 -237 -4 0 -104 36 -223 80 -118 44 -543 201 -945 348 l-729 267
-18 59 c-10 33 -17 61 -15 62 2 2 45 -4 97 -12 l95 -16 415 151 c228 82 422
149 430 147 8 -1 245 -42 525 -91z m4045 -2991 c0 -3 -10 -23 -22 -44 l-23
-40 -533 -2 c-512 -3 -535 -2 -585 17 l-52 20 55 3 c656 37 1160 57 1160 46z
m4708 -21 c-3 -24 -10 -29 -68 -43 -57 -14 -289 -35 -279 -26 6 6 279 84 309
89 14 2 29 5 33 6 5 0 7 -11 5 -26z m-338 -230 l0 -38 -232 3 c-128 2 -237 7
-242 12 -19 19 109 43 274 50 91 4 173 8 183 8 13 2 17 -6 17 -35z m-1420
-173 c21 -13 17 -14 -140 -35 -22 -3 -9 4 35 19 82 28 85 29 105 16z m-1851
-265 c39 -47 92 -98 116 -115 37 -26 45 -36 45 -63 0 -18 3 -43 7 -56 l6 -24
-79 7 c-147 13 -135 5 -199 124 -32 59 -71 131 -88 160 l-29 52 74 0 74 0 73
-85z m486 -287 c7 -7 -5 -9 -39 -4 -27 3 -62 6 -78 6 -18 0 -27 4 -22 11 8 13
124 2 139 -13z m2108 -673 l-48 -64 -210 0 -210 1 160 39 c138 33 344 85 353
88 1 1 -19 -28 -45 -64z"/>
</g>
</svg>
