<?xml version="1.0" standalone="no"?>
<!DOCTYPE svg PUBLIC "-//W3C//DTD SVG 20010904//EN"
 "http://www.w3.org/TR/2001/REC-SVG-20010904/DTD/svg10.dtd">
<svg version="1.0" xmlns="http://www.w3.org/2000/svg"
   viewBox="0 0 4796.000000 1686.000000"
 preserveAspectRatio="xMidYMid meet">
<metadata>
Created by potrace 1.16, written by Peter Selinger 2001-2019
</metadata>
<g transform="translate(0.000000,1686.000000) scale(0.100000,-0.100000)"
fill="#000000" stroke="none">
<path d="M11753 16801 c-766 -32 -1394 -59 -1396 -62 -2 -2 0 -49 4 -104 4
-55 7 -157 8 -226 l1 -126 -132 -27 c-73 -14 -929 -183 -1902 -376 l-1769
-350 -468 -302 -469 -303 0 -202 0 -202 -87 -27 c-49 -15 -230 -70 -403 -123
l-315 -96 -15 -130 -15 -130 -1005 -271 -1005 -271 -55 109 c-30 59 -59 108
-64 108 -6 0 -363 -120 -795 -266 -726 -246 -792 -270 -876 -321 l-91 -56 3
-131 c2 -72 8 -237 13 -366 6 -129 10 -323 10 -430 l0 -195 -453 -194 c-248
-107 -455 -197 -459 -200 -4 -4 -9 -446 -10 -982 l-3 -976 160 -33 c88 -17
383 -86 655 -151 272 -66 525 -127 561 -135 l67 -15 11 -62 c6 -34 15 -147 21
-251 5 -104 11 -191 13 -192 2 -2 324 -12 717 -24 392 -11 714 -21 716 -23 1
-1 5 -135 9 -297 l7 -295 -126 -59 -126 -59 0 -146 c-1 -320 22 -1457 30
-1476 5 -13 24 -25 56 -33 27 -7 79 -22 116 -33 l68 -20 0 -399 0 -400 123 0
c67 0 628 7 1247 15 619 8 1215 15 1326 15 l201 0 7 -257 c8 -283 19 -449 30
-460 4 -4 363 -60 799 -125 l792 -118 393 -17 392 -17 0 -63 c0 -35 3 -63 6
-63 4 0 108 9 231 20 124 12 228 19 230 16 3 -2 13 -131 22 -285 10 -154 20
-283 23 -286 3 -3 266 -1 584 4 319 6 644 11 724 11 l145 0 151 -104 150 -104
919 -6 c506 -4 1020 -9 1143 -12 l222 -5 0 50 0 50 43 5 c23 3 477 22 1009 43
532 20 965 40 962 43 -3 3 -51 7 -107 10 -56 3 265 14 713 25 448 11 766 21
705 23 -239 5 -3233 62 -3283 62 l-52 0 0 44 0 43 223 6 c122 4 490 12 817 18
327 6 601 12 608 14 9 3 12 42 12 150 0 82 5 155 10 166 10 17 23 19 155 19
l145 0 0 100 c0 95 1 100 23 104 12 3 258 17 547 32 l525 27 95 72 95 72 670
12 c368 6 671 14 674 16 2 3 -139 6 -315 6 -175 1 -465 5 -643 8 l-323 6 61
44 61 44 0 359 0 358 168 0 c92 0 232 3 311 7 l144 6 -8 1522 -7 1522 549 6
c796 10 4835 8 4922 -2 41 -5 84 -6 95 -1 12 4 255 -3 541 -16 l519 -24 42
-41 42 -41 1638 -103 1639 -104 67 66 67 67 259 -12 259 -12 534 -181 c294
-100 538 -185 543 -190 5 -4 24 -99 43 -211 19 -112 36 -204 36 -204 1 -1 162
-62 357 -136 l355 -135 9 -42 c5 -23 6 -44 3 -47 -3 -4 -623 -23 -1377 -44
-755 -21 -1373 -40 -1375 -42 -4 -3 2605 -59 2734 -58 35 0 62 -2 60 -4 -14
-14 -1141 -50 -2389 -77 -789 -16 -1436 -31 -1437 -32 -1 -2 777 -15 1730 -30
953 -15 1823 -30 1934 -34 l202 -6 6 -48 7 -49 81 -25 c45 -14 336 -102 647
-197 311 -94 566 -172 567 -172 1 -1 6 -105 12 -231 6 -127 24 -358 41 -515
16 -157 30 -294 30 -304 0 -19 -11 -19 -430 -13 l-430 6 0 -112 c0 -164 22
-721 29 -728 7 -7 609 -22 1831 -44 863 -16 1587 -19 2188 -8 l382 6 0 154 0
153 221 0 c212 0 221 -1 226 -20 5 -20 14 -20 553 -20 l547 0 18 -80 c10 -45
22 -83 25 -85 4 -2 143 14 310 36 193 26 305 37 309 31 4 -6 240 23 641 79
l635 88 1174 97 1174 96 739 299 739 298 57 -34 c297 -177 931 -641 1217 -891
299 -262 552 -498 708 -663 168 -177 701 -843 702 -877 0 -11 137 -234 305
-494 l305 -474 201 -205 202 -206 272 -385 c149 -212 276 -387 281 -388 5 -2
29 8 54 22 41 24 45 25 53 9 5 -10 53 -130 107 -267 54 -137 119 -286 144
-330 60 -104 213 -450 220 -499 6 -36 22 -5 258 495 274 581 374 825 512 1253
265 823 404 1419 495 2115 104 796 138 1431 123 2280 -8 451 -11 520 -52 985
-25 275 -57 575 -71 667 l-28 167 -60 8 -60 8 -43 180 c-23 99 -43 183 -43
188 0 4 36 7 80 7 44 0 80 4 80 8 0 4 -24 89 -53 187 -41 138 -117 336 -327
845 l-273 665 -381 624 -380 624 -492 551 -491 551 -586 490 -587 490 -507
311 -508 311 -685 310 -685 310 -765 263 -765 262 -605 145 c-509 122 -696
161 -1175 249 l-570 105 -609 43 -610 43 -123 -90 c-68 -49 -123 -92 -123 -96
0 -3 28 -24 63 -46 59 -38 251 -177 272 -197 6 -6 1 -7 -16 -3 -26 6 -26 6
-40 -92 -11 -75 -18 -98 -29 -96 -8 1 -286 54 -616 118 l-601 115 -309 -67
-309 -67 -74 -53 c-62 -44 -80 -52 -105 -48 -17 3 -323 44 -681 91 -574 75
-842 104 -2295 243 -905 88 -1646 158 -1648 156 -2 -2 -19 -153 -38 -336 -19
-183 -35 -333 -36 -334 -6 -5 -7409 203 -7414 208 -3 3 -9 31 -14 63 -5 33
-14 74 -20 91 l-12 33 -796 2 -797 3 -6 125 c-4 69 -8 273 -10 454 l-3 329
-336 -7 c-184 -3 -699 -11 -1145 -16 -445 -5 -877 -12 -959 -14 l-149 -5 7
142 c3 78 9 217 13 310 l6 167 -2604 -1 -2604 -1 -1392 -57z"/>
</g>
</svg>
