<?xml version="1.0" standalone="no"?>
<!DOCTYPE svg PUBLIC "-//W3C//DTD SVG 20010904//EN"
 "http://www.w3.org/TR/2001/REC-SVG-20010904/DTD/svg10.dtd">
<svg version="1.0" xmlns="http://www.w3.org/2000/svg"
   viewBox="0 0 2413.000000 3943.000000"
 preserveAspectRatio="xMidYMid meet">
<metadata>
Created by potrace 1.16, written by Peter Selinger 2001-2019
</metadata>
<g transform="translate(0.000000,3943.000000) scale(0.100000,-0.100000)"
fill="#000000" stroke="none">
<path d="M19180 39423 c0 -5 15 -78 33 -163 26 -127 30 -163 23 -202 -8 -40
10 -162 123 -840 l131 -793 0 -215 c1 -118 29 -829 65 -1580 l64 -1365 46
-278 45 -277 325 -865 325 -864 0 -113 c1 -62 -27 -480 -61 -928 l-63 -815
-233 -293 -233 -292 -371 -1622 c-352 -1544 -370 -1626 -364 -1693 3 -39 1
-85 -4 -104 -8 -24 13 -688 74 -2390 47 -1296 88 -2393 91 -2438 l6 -82 393
-638 394 -638 370 4 c204 2 371 1 371 -3 0 -32 -83 -532 -89 -536 -4 -3 -969
-696 -2144 -1540 -1176 -844 -2150 -1538 -2165 -1541 -15 -3 -164 -104 -332
-224 -167 -120 -306 -213 -308 -206 -2 7 -52 11 -161 11 l-157 0 -232 -160
-232 -160 -180 0 -180 0 -68 -44 -67 -45 -625 49 -625 50 -650 0 c-378 0 -863
-6 -1160 -16 l-510 -15 -1305 -119 c-1267 -116 -2602 -249 -4245 -425 l-800
-86 -719 -29 c-523 -21 -725 -26 -739 -18 -14 7 -86 8 -228 3 -115 -4 -212 -4
-217 -1 -6 3 -6 24 0 52 9 40 8 48 -6 56 -39 22 -15 48 92 103 41 21 76 44 79
51 3 8 -4 22 -14 32 -11 9 -34 36 -52 59 -23 31 -57 54 -134 94 -56 28 -113
60 -126 71 -14 11 -28 15 -33 10 -11 -11 -551 122 -556 137 -5 14 -69 14 -77
1 -8 -12 -277 -14 -291 -1 -12 12 -114 -2 -123 -17 -4 -6 -72 -19 -151 -29
l-145 -18 -3 -61 c-3 -59 -2 -62 23 -68 14 -4 28 -13 32 -21 8 -22 -24 -65
-50 -65 -41 -1 -57 -23 -57 -79 l0 -51 -230 0 -230 0 0 -23 c0 -19 -8 -26 -37
-35 -20 -6 -39 -9 -41 -7 -3 3 -7 207 -10 455 -4 363 -7 452 -18 461 -10 8
-71 9 -222 3 l-207 -9 4 -550 c2 -302 7 -649 10 -770 l6 -220 209 -3 c140 -2
213 1 220 8 7 7 11 74 11 183 0 164 1 172 20 175 34 6 45 32 45 104 0 39 4 68
10 68 6 0 10 -7 10 -16 0 -15 37 -16 405 -12 265 2 406 0 408 -7 2 -6 28 -5
74 2 l71 13 142 -50 c88 -31 158 -50 186 -50 l44 0 0 -94 0 -93 61 -109 c82
-146 80 -144 151 -144 l58 0 0 -100 c0 -91 -2 -100 -19 -100 -10 0 -40 -9 -65
-21 -34 -15 -46 -25 -42 -36 3 -8 6 -59 6 -112 l0 -98 65 -18 c50 -13 70 -24
90 -50 14 -19 25 -41 25 -49 0 -8 5 -27 12 -41 11 -25 12 -25 129 -25 65 0
120 4 123 8 9 15 428 25 462 12 20 -8 72 -10 166 -5 120 6 137 9 141 25 6 24
24 26 287 40 143 8 222 16 235 25 13 8 72 15 150 20 72 3 157 11 190 16 65 10
1106 -55 2820 -176 762 -54 1052 -79 1685 -146 1317 -138 2120 -227 2555 -284
231 -30 1015 -120 1742 -200 1243 -137 1359 -148 1930 -185 334 -22 1009 -58
1498 -79 832 -37 952 -40 1842 -47 l952 -7 483 -531 484 -531 -84 -870 -84
-870 -2 -700 c-1 -385 -5 -871 -10 -1081 l-9 -381 71 -11 c39 -7 107 -12 150
-12 l80 0 26 73 c14 39 41 115 60 167 l35 95 0 -80 c1 -44 -4 -237 -9 -429
l-11 -349 -325 -1816 -325 -1816 5 -282 6 -281 -91 -294 c-75 -245 -133 -475
-354 -1415 -146 -618 -265 -1127 -265 -1132 0 -5 10 -11 23 -13 l24 -3 -28
-114 -27 -114 146 7 c81 4 147 8 148 9 0 1 168 655 372 1452 l371 1450 411
2075 411 2075 85 589 c176 1236 251 1879 419 3624 158 1630 224 2432 225 2712
0 111 -6 197 -22 302 l-22 146 -29 6 c-16 3 -199 6 -407 6 l-378 0 -26 -73
c-15 -39 -44 -124 -65 -187 l-39 -115 -1 152 c-1 91 3 154 9 158 6 4 10 70 10
166 l0 159 359 0 360 0 27 35 26 35 1394 0 c1227 0 1394 2 1394 15 0 13 -172
15 -1412 20 -777 4 -1578 6 -1780 5 l-368 -1 0 55 0 56 359 0 360 0 27 35 26
35 1394 0 c1227 0 1394 2 1394 15 0 13 -172 15 -1412 20 -777 3 -1591 7 -1808
8 l-395 2 -308 203 -308 202 -233 0 -234 0 -6 -35 -7 -35 -223 0 c-243 0 -236
-2 -236 56 0 14 -4 33 -9 42 -7 14 159 136 1007 739 674 479 1018 719 1023
710 3 -6 28 -135 55 -284 l49 -273 35 0 c33 0 37 -5 85 -85 45 -77 52 -85 75
-81 14 3 48 8 77 11 l52 7 6 46 c15 118 12 112 56 112 36 0 219 68 243 90 4 4
24 554 43 1222 48 1676 47 1778 -62 5658 l-84 3035 -90 1000 c-49 550 -93
1045 -98 1100 -5 55 -6 117 -2 138 17 96 -567 4973 -675 5637 -49 298 -557
2886 -582 2960 -17 53 -85 422 -109 595 -12 86 -73 329 -218 865 l-202 745
-228 3 c-125 1 -227 -1 -227 -5z m1589 -21333 c83 -448 149 -815 148 -816 -1
-1 -561 -402 -1244 -893 -1084 -777 -1247 -891 -1278 -891 -30 0 -35 -3 -35
-23 0 -27 -17 -47 -35 -41 -7 3 -36 -6 -64 -20 -28 -14 -52 -26 -55 -26 -2 0
-8 25 -11 55 l-7 55 -83 0 -83 0 -14 43 -15 42 -89 0 -88 0 -12 -40 -11 -40
-94 -3 c-55 -2 -96 -7 -100 -14 -4 -6 -10 -31 -14 -55 l-6 -43 -75 0 c-71 0
-74 1 -74 24 0 13 -3 38 -6 55 l-6 31 -83 0 -82 0 -13 45 -13 45 -88 0 -89 0
-12 -45 -12 -45 -97 0 -98 0 -11 -55 c-10 -50 -14 -55 -39 -55 -22 0 -42 18
-110 100 l-84 100 -288 2 -288 3 163 113 c90 62 167 122 172 133 8 17 4264
3082 4271 3075 1 -1 70 -368 152 -816z m180 -987 c0 -25 -103 -102 -1082 -804
-595 -427 -1085 -773 -1089 -770 -4 3 -9 17 -12 31 -6 23 61 73 1076 797 596
424 1089 772 1096 772 7 1 12 -10 11 -26z m-8201 -1655 c-3 -23 -3 -23 -188
-22 -102 1 -531 3 -955 5 -423 2 -727 5 -675 6 634 23 949 30 1348 32 l473 1
-3 -22z m477 13 c34 -7 26 -9 -47 -10 -48 0 -90 3 -93 9 -8 12 82 13 140 1z
m-2437 -38 c-10 -2 -28 -2 -40 0 -13 2 -5 4 17 4 22 1 32 -1 23 -4z m3192 -18
c407 -31 400 -30 400 -55 0 -19 -8 -20 -187 -20 -139 0 -566 25 -579 34 -1 1
-5 16 -9 34 -8 40 -47 39 375 7z m-3312 8 c-10 -2 -26 -2 -35 0 -10 3 -2 5 17
5 19 0 27 -2 18 -5z m-110 -10 c-10 -2 -28 -2 -40 0 -13 2 -5 4 17 4 22 1 32
-1 23 -4z m-120 -10 c-10 -2 -26 -2 -35 0 -10 3 -2 5 17 5 19 0 27 -2 18 -5z
m-115 -10 c-7 -2 -21 -2 -30 0 -10 3 -4 5 12 5 17 0 24 -2 18 -5z m-120 -10
c-7 -2 -19 -2 -25 0 -7 3 -2 5 12 5 14 0 19 -2 13 -5z m-110 -10 c-7 -2 -19
-2 -25 0 -7 3 -2 5 12 5 14 0 19 -2 13 -5z m-116 -9 c-3 -3 -12 -4 -19 -1 -8
3 -5 6 6 6 11 1 17 -2 13 -5z m-120 -10 c-3 -3 -12 -4 -19 -1 -8 3 -5 6 6 6
11 1 17 -2 13 -5z m-110 -10 c-3 -3 -12 -4 -19 -1 -8 3 -5 6 6 6 11 1 17 -2
13 -5z m2956 -40 l27 -6 0 -267 c0 -288 12 -485 31 -507 9 -11 43 -14 148 -14
134 0 138 1 161 25 21 23 31 25 106 25 76 0 84 -2 102 -25 20 -25 23 -25 159
-25 144 0 163 5 163 42 0 17 46 18 1054 18 l1054 0 122 -207 c67 -115 129
-214 138 -220 12 -10 92 -13 319 -13 l304 0 81 125 81 125 214 0 215 0 57 -50
c55 -48 60 -50 117 -50 48 0 67 -5 94 -25 32 -23 42 -25 153 -25 l119 0 94
-66 c52 -36 107 -70 122 -75 16 -7 204 -206 469 -497 l441 -487 -371 -7
c-1183 -21 -2650 -4 -3647 42 -602 28 -675 34 -1995 154 -1626 149 -1960 183
-2705 275 -311 39 -943 115 -1405 170 l-840 100 -1010 41 c-555 22 -1397 56
-1870 75 -473 19 -1049 47 -1280 61 l-419 26 -14 -21 c-23 -33 -84 -26 -75 10
5 16 0 19 -30 19 -26 0 -39 -6 -47 -20 -8 -15 -21 -20 -51 -20 -37 0 -39 2
-29 20 10 18 8 20 -29 20 -30 0 -43 -5 -51 -20 -8 -15 -21 -20 -51 -20 -36 0
-39 2 -29 19 5 11 10 22 10 26 0 3 -133 2 -295 -1 -251 -6 -295 -5 -300 7 -3
8 4 41 15 73 27 79 26 86 -10 86 l-30 0 0 104 0 104 48 6 c26 3 79 8 117 11
l71 7 29 111 c24 94 35 118 65 151 l37 39 899 -11 899 -11 955 94 c1809 178
2769 267 4095 381 l1330 113 920 -4 c506 -2 932 -7 948 -11z m-10720 -431
c-13 -2 -33 -2 -45 0 -13 2 -3 4 22 4 25 0 35 -2 23 -4z m17462 -545 l84 -53
1 -583 0 -583 -123 3 -123 3 -522 570 c-395 432 -518 573 -510 582 8 10 82 13
324 13 l313 0 83 50 83 50 153 0 152 0 85 -52z m85 -1373 c0 -51 -2 -55 -23
-55 -14 0 -43 20 -77 55 l-54 55 77 0 77 0 0 -55z m-546 0 l37 -45 -142 0
c-235 0 -1692 31 -1859 39 -139 7 -118 8 195 10 270 2 1520 31 1701 40 26 1
38 -7 68 -44z m1186 -452 c0 -5 -7 -71 -15 -148 -8 -77 -15 -148 -15 -157 0
-10 -48 35 -117 110 -64 70 -133 144 -152 165 l-35 37 167 0 c92 0 167 -3 167
-7z"/>
</g>
</svg>
