<?xml version="1.0" standalone="no"?>
<!DOCTYPE svg PUBLIC "-//W3C//DTD SVG 20010904//EN"
 "http://www.w3.org/TR/2001/REC-SVG-20010904/DTD/svg10.dtd">
<svg version="1.0" xmlns="http://www.w3.org/2000/svg"
   viewBox="0 0 4016.000000 3854.000000"
 preserveAspectRatio="xMidYMid meet">
<metadata>
Created by potrace 1.16, written by Peter Selinger 2001-2019
</metadata>
<g transform="translate(0.000000,3854.000000) scale(0.100000,-0.100000)"
fill="#000000" stroke="none">
<path d="M19510 38530 c0 -5 17 -14 38 -19 20 -5 56 -15 79 -21 23 -5 43 -14
45 -19 2 -6 391 -117 865 -248 474 -131 860 -239 859 -241 -4 -3 -1388 95
-1529 109 -76 7 -117 7 -135 0 -15 -6 -111 -35 -214 -66 -165 -49 -215 -59
-440 -88 l-253 -32 -3 -40 -3 -40 -207 12 c-114 6 -212 12 -218 12 -6 1 -32
17 -57 36 -25 19 -51 35 -56 35 -18 0 -12 -22 11 -47 l23 -24 -75 6 c-41 3
-198 12 -349 20 l-274 15 -51 38 c-72 54 -75 55 -82 37 -5 -11 4 -25 26 -44
l33 -27 -99 4 c-54 2 -124 7 -154 10 l-55 7 -3 40 -3 41 -167 28 -168 28 -50
82 -50 81 -115 6 c-63 4 -198 7 -301 8 -169 1 -191 -1 -235 -20 -47 -20 -56
-21 -477 -14 l-430 8 -133 100 -133 100 -568 9 c-312 4 -718 13 -902 18 -448
14 -981 26 -1511 35 l-436 7 -394 -346 c-365 -321 -396 -346 -424 -341 -16 3
-31 9 -33 14 -4 12 -6298 3 -6592 -9 -129 -5 -1103 -15 -2165 -21 -1062 -6
-1931 -12 -1931 -13 -1 0 -4 -26 -5 -56 l-4 -55 195 -17 c107 -9 197 -17 200
-18 3 -1 -17 -8 -45 -14 l-50 -12 -3 -57 c-2 -31 -2 -57 0 -57 2 -1 899 -10
1993 -21 l1990 -20 585 -43 585 -44 -1850 -1 c-1017 0 -2069 -4 -2337 -8
l-488 -6 0 -114 0 -113 -49 0 -49 0 -6 -37 c-3 -21 -15 -128 -27 -238 l-22
-200 -53 -55 -52 -55 -16 -250 c-9 -156 -21 -268 -31 -299 -8 -27 -15 -55 -15
-62 0 -11 52 -14 257 -16 l258 -3 67 -100 67 -101 979 -579 979 -580 178 -335
c98 -184 244 -458 323 -609 l145 -273 -12 -97 c-7 -53 -15 -115 -18 -137 l-5
-42 519 -6 c490 -7 531 -8 759 -36 133 -17 244 -30 248 -30 3 0 6 -13 6 -29
l0 -29 98 -6 c53 -3 403 -15 777 -26 374 -12 704 -23 733 -26 l52 -5 0 -97 c0
-78 14 -173 72 -489 l73 -393 790 0 791 0 52 -44 c29 -25 412 -380 852 -791
l800 -746 0 -99 0 -99 170 -334 170 -334 0 -176 0 -177 113 0 c101 0 140 -6
390 -62 l277 -61 0 -215 0 -214 234 -532 c128 -292 390 -911 581 -1375 l347
-844 -114 -114 c-62 -63 -188 -187 -280 -275 l-168 -160 -159 100 -160 101
-240 -256 -240 -256 877 -884 877 -883 320 -698 c177 -383 453 -971 615 -1307
277 -572 312 -639 578 -1100 156 -269 291 -503 299 -519 14 -27 12 -44 -28
-246 -43 -216 -43 -217 -76 -238 -18 -12 -33 -26 -33 -31 0 -5 19 -48 42 -96
l41 -87 928 -896 c511 -493 927 -897 925 -899 -1 -2 -306 -14 -677 -28 -371
-14 -702 -28 -737 -32 l-63 -6 3 -46 3 -46 185 1 c102 1 367 9 590 17 223 9
498 20 612 23 l206 7 187 -181 187 -181 121 -39 c67 -22 136 -43 154 -48 24
-7 115 -97 359 -354 179 -190 344 -363 365 -385 l38 -40 -44 -69 c-47 -72 -52
-97 -38 -180 5 -34 27 -58 219 -234 118 -108 212 -198 210 -200 -3 -2 -168
-10 -368 -17 -200 -8 -402 -17 -450 -21 l-88 -7 0 -48 0 -49 148 0 c81 0 224
4 317 10 94 5 260 12 370 15 l200 7 752 -691 c702 -645 753 -694 759 -730 l6
-38 62 -6 61 -5 218 -222 c119 -122 215 -225 213 -229 -3 -4 -83 -11 -178 -15
-95 -4 -188 -9 -205 -12 -31 -6 -33 -9 -33 -50 l0 -43 108 -3 c59 -2 179 0
267 4 l160 7 200 -200 c125 -125 230 -221 280 -255 44 -30 616 -532 1272
-1116 l1192 -1061 115 -53 c114 -52 118 -56 440 -333 179 -155 330 -281 337
-281 9 0 175 -118 316 -225 8 -6 19 -44 26 -85 l13 -74 1098 -888 1099 -888
74 0 c73 0 76 1 124 42 l50 42 887 -204 c488 -112 893 -205 900 -208 9 -3 5
-14 -14 -39 -45 -59 -94 -137 -94 -150 0 -9 169 -147 319 -259 12 -9 -6 -40
-107 -185 l-122 -173 22 -22 c44 -41 668 -485 3873 -2758 1777 -1259 3605
-2557 4064 -2884 801 -570 834 -593 851 -575 9 10 126 145 259 301 134 155
247 282 252 282 5 0 121 -78 257 -174 291 -205 453 -306 492 -306 15 0 41 -3
57 -6 25 -5 43 5 129 73 56 43 161 132 234 198 140 127 252 264 391 482 64 98
66 104 79 201 l13 99 -84 79 c-121 113 -559 547 -559 554 0 3 30 39 66 79 57
61 65 74 53 85 -8 8 -354 331 -770 718 l-756 705 63 113 c47 85 82 133 142
194 43 45 97 103 120 130 l42 49 0 84 0 84 -52 60 c-29 32 -58 59 -65 59 -7 0
-33 -10 -58 -22 -45 -22 -45 -22 -64 -3 -23 25 -1961 2254 -1980 2278 -11 14
-11 21 3 42 16 25 16 29 -15 112 l-33 86 -42 -47 -43 -47 -198 228 c-109 125
-223 256 -254 292 l-57 64 -28 140 -28 140 -242 286 -241 286 34 44 c18 24 31
51 29 60 -3 9 -17 66 -32 126 -15 61 -30 113 -33 117 -3 4 -33 -24 -66 -62
-37 -43 -63 -66 -70 -60 -5 4 -127 155 -270 334 l-260 325 -21 -20 -21 -20
-1370 1628 -1370 1628 -148 60 -147 60 -1147 1625 -1148 1625 -36 118 -37 119
-141 160 -141 161 7 82 7 82 -268 369 c-264 365 -268 369 -324 395 -54 25 -62
34 -155 170 -54 79 -99 146 -101 148 -2 2 -85 15 -186 28 l-183 25 -332 732
-333 731 21 70 20 70 -79 175 c-84 187 -79 181 -147 165 l-30 -7 -226 498
-226 497 57 227 57 228 -108 17 c-60 10 -109 20 -109 24 0 3 29 319 65 701 35
382 66 722 67 755 l3 60 48 -63 c29 -37 55 -61 64 -60 13 2 69 -192 292 -1006
173 -630 281 -1011 290 -1014 9 -3 11 2 8 14 -96 329 -542 1989 -547 2037 -5
39 -14 73 -22 80 -8 7 -32 75 -52 152 -21 77 -42 145 -46 150 -5 6 19 202 56
459 68 473 115 703 358 1761 230 1003 355 1792 466 2940 17 176 33 329 35 340
4 19 11 20 178 17 l175 -4 6 49 c3 26 10 109 16 183 18 228 -3 193 186 311
112 71 164 109 164 121 0 10 -7 18 -14 18 -8 0 -82 -42 -163 -94 -81 -52 -149
-93 -149 -92 -7 7 35 369 71 610 25 167 45 307 45 312 0 6 37 15 82 22 45 6
85 15 89 19 4 5 19 64 33 132 15 68 30 129 33 135 4 6 147 175 319 377 309
362 388 444 441 458 35 9 49 58 35 121 -13 59 -2 133 43 305 21 77 39 141 40
143 9 11 3378 256 3393 246 2 -1 -1 -28 -7 -60 -6 -31 -9 -59 -7 -61 2 -2 30
-9 63 -15 l60 -11 21 -120 c12 -66 23 -121 24 -123 7 -7 448 -86 509 -91 76
-7 69 -16 89 125 11 73 15 82 34 82 53 -1 146 -34 336 -123 113 -52 309 -134
435 -182 201 -75 278 -98 615 -180 l385 -94 380 -40 c306 -32 435 -41 665 -46
232 -5 286 -9 293 -21 7 -13 111 -84 123 -84 3 0 16 24 29 53 l23 53 260 11
c235 10 294 17 618 68 l359 56 257 95 256 96 36 86 c30 72 36 99 36 157 l0 70
105 121 105 121 20 124 c25 158 105 767 121 924 l12 120 -55 110 -55 110 43
135 c24 74 44 142 44 151 0 23 -475 331 -701 453 -189 102 -523 254 -828 376
l-145 58 2 49 c4 73 -4 80 -80 64 -35 -7 -71 -20 -81 -30 -18 -17 -21 -17 -85
6 -37 13 -85 35 -107 47 -86 50 -406 155 -580 190 -93 19 -197 41 -230 50 -33
9 -269 33 -525 55 -398 34 -533 42 -935 51 -258 5 -512 13 -562 16 -106 8
-101 1 -82 111 6 35 10 66 8 68 -8 6 -445 84 -510 89 l-66 6 -54 -101 -54
-101 -67 4 c-65 4 -68 3 -72 -22 -3 -14 -19 -117 -37 -230 -17 -113 -32 -206
-34 -208 -2 -2 -720 89 -1596 202 l-1594 206 -700 135 c-385 74 -751 146 -812
159 l-113 24 -172 163 c-134 127 -220 198 -381 313 -114 81 -207 153 -207 158
0 14 51 78 62 78 5 0 77 -52 159 -115 82 -63 152 -115 154 -115 3 0 54 37 114
82 l109 81 -53 76 c-29 42 -120 174 -203 294 l-150 217 -656 473 -657 472
-536 274 -536 274 -286 64 c-157 35 -296 68 -308 73 -12 5 -66 41 -119 81
l-97 71 -856 63 c-471 35 -932 66 -1026 70 -416 16 -311 -6 -1422 301 -547
151 -998 272 -1003 269 -5 -3 -41 3 -78 15 -78 23 -92 24 -92 10z m4473 -1171
c78 -28 282 -98 452 -156 l310 -105 431 -246 431 -246 -85 -103 c-46 -56 -87
-101 -91 -99 -3 2 -65 40 -137 84 -120 73 -192 105 -815 358 -376 152 -694
279 -706 282 -13 2 -23 7 -23 9 0 12 84 273 88 273 2 0 67 -23 145 -51z m2267
-14984 l37 -135 -23 0 c-29 0 -40 20 -59 108 -13 62 -11 181 3 168 2 -3 21
-66 42 -141z m2940 -8015 c12 -16 19 -30 16 -30 -2 0 -14 14 -26 30 -12 17
-19 30 -16 30 2 0 14 -13 26 -30z m70 -100 c12 -16 19 -30 16 -30 -2 0 -14 14
-26 30 -12 17 -19 30 -16 30 2 0 14 -13 26 -30z m465 -660 c230 -327 434 -616
453 -642 19 -27 32 -48 29 -48 -11 0 -242 321 -567 790 -189 272 -348 502
-353 510 -10 13 -9 13 5 0 8 -8 203 -283 433 -610z m506 -717 c13 -16 12 -17
-3 -4 -17 13 -22 21 -14 21 2 0 10 -8 17 -17z m2100 -2872 c11 -16 5 -46 -36
-188 -26 -92 -51 -172 -55 -176 -6 -7 -889 920 -975 1023 l-31 37 -43 409
c-23 225 -45 418 -48 429 -5 17 1153 -1478 1188 -1534z"/>
</g>
</svg>
